<?xml version="1.0" encoding="UTF-8" standalone="no"?><!DOCTYPE svg PUBLIC "-//W3C//DTD SVG 1.1//EN" "http://www.w3.org/Graphics/SVG/1.1/DTD/svg11.dtd"><svg width="100%" height="100%" viewBox="0 0 800 600" version="1.1" xmlns="http://www.w3.org/2000/svg" xmlns:xlink="http://www.w3.org/1999/xlink" xml:space="preserve" xmlns:serif="http://www.serif.com/" style="fill-rule:evenodd;clip-rule:evenodd;stroke-linejoin:round;stroke-miterlimit:2;"><path d="M726.761,194.481c-0.228,-86.432 -70.056,-156.487 -156.26,-156.715c-86.66,-0.228 -158.08,70.738 -157.853,156.942c0.228,85.75 71.193,156.943 156.715,157.17c86.66,0.228 157.625,-70.965 157.398,-157.397m-324.576,-0.455c0.455,-93.028 75.287,-167.633 167.86,-167.405c93.256,0.227 168.088,75.741 167.861,169.224c-0.455,92.574 -75.969,167.178 -168.77,166.724c-93.256,-0.91 -167.406,-75.742 -166.951,-168.543" style="fill:#00b4ff;fill-opacity:0.63;fill-rule:nonzero;"/><path d="M569.363,54.825c-77.106,0.227 -139.883,63.687 -139.428,140.566c0.455,76.196 63.686,138.973 139.883,139.201c76.879,-0 140.111,-63.46 139.656,-140.338c-0.227,-77.562 -62.549,-139.657 -140.111,-139.429m-151.484,139.656c0.228,-83.93 67.782,-151.711 151.484,-152.393c83.703,-0.456 152.848,68.463 152.848,152.393c0,83.703 -68.236,151.939 -151.938,151.939c-84.612,0.227 -152.621,-67.554 -152.394,-151.939" style="fill:#00b4ff;fill-opacity:0.63;fill-rule:nonzero;"/><path d="M569.818,72.111c-67.326,0 -122.597,55.271 -122.597,122.597c-0,67.099 55.726,122.597 123.052,122.597c66.871,0 121.915,-55.043 122.37,-121.687c0.227,-68.463 -54.589,-123.507 -122.825,-123.507m-0.227,257.25c-74.832,-0.228 -134.425,-60.048 -134.425,-135.563c0,-73.921 60.73,-134.424 134.652,-134.424c74.604,-0 135.562,60.957 135.334,135.334c0,74.605 -60.73,134.653 -135.561,134.653" style="fill:#00b4ff;fill-opacity:0.63;fill-rule:nonzero;"/><path d="M570.273,300.019c57.773,-0.227 105.311,-47.993 105.083,-105.538c-0.227,-58.001 -47.31,-105.311 -105.311,-105.538c-58,-0 -105.992,47.993 -105.538,106.22c0.228,57.773 48.22,105.083 105.766,104.856m0.228,12.055c-65.734,0.228 -117.821,-51.632 -118.048,-117.138c-0.228,-65.279 52.314,-118.276 117.138,-118.503c64.824,-0.227 118.275,52.769 118.502,117.593c0.228,65.052 -52.541,117.82 -117.592,118.048" style="fill:#00b4ff;fill-opacity:0.63;fill-rule:nonzero;"/><path d="M569.818,270.905c42.534,-0 76.879,-34.345 76.879,-76.424c-0.227,-42.079 -35.028,-76.652 -77.106,-76.424c-41.624,-0 -75.97,34.345 -75.97,75.969c-0.227,42.761 33.663,76.879 76.197,76.879m-0.455,23.882c-55.726,-0.227 -99.851,-44.808 -99.851,-100.761c0.227,-55.499 45.035,-100.307 100.533,-100.307c55.271,0 100.535,45.264 100.762,100.535c0,55.953 -45.035,100.761 -101.444,100.533" style="fill:#00b4ff;fill-opacity:0.63;fill-rule:nonzero;"/><path d="M582.555,194.481c0,-7.051 -5.686,-12.51 -12.737,-12.283c-6.823,0 -12.737,5.914 -12.51,12.738c0,6.596 6.369,12.737 12.965,12.737c6.369,-0.455 12.282,-6.596 12.282,-13.192m-12.054,67.781c-37.985,0.227 -68.009,-29.569 -68.236,-67.326c-0.228,-37.757 29.796,-68.464 67.326,-68.464c37.302,-0.227 68.236,30.252 68.69,67.554c0,37.53 -30.251,68.008 -67.78,68.236" style="fill:#00b4ff;fill-opacity:0.63;fill-rule:nonzero;"/><path id="path830" d="M214.844,571.939c-1.995,-1.082 -2.75,-2.264 -2.75,-4.305c-0,-5.418 7.136,-8.655 12.718,-5.769l2.995,1.549l1.798,-6.201c0.989,-3.411 3.303,-10.633 5.143,-16.049c1.84,-5.415 3.346,-9.994 3.346,-10.175c-0,-0.609 -18.851,-13.478 -19.742,-13.478c-0.485,0 -3.071,6.78 -5.746,15.066c-5.271,16.323 -7.053,18.934 -12.924,18.934c-8.775,0 -10.459,-9.237 -2.182,-11.969c2.716,-0.896 4.146,-0.827 6.927,0.335l3.505,1.465l4.766,-14.951c3.35,-10.508 5.151,-14.804 6.059,-14.456c0.994,0.382 20.64,13.77 22.152,15.097c0.173,0.152 -2.752,9.843 -6.5,21.536c-6.169,19.243 -7.1,21.433 -9.815,23.097c-3.594,2.203 -6.068,2.272 -9.75,0.274l-0,0Zm95.135,-5.279c-1.312,-1.017 -2.948,-1.655 -3.635,-1.416c-0.688,0.239 -1.25,-0.279 -1.25,-1.15c-0,-0.87 0.414,-1.583 0.92,-1.583c0.507,0 1.213,-1.331 1.571,-2.958c0.875,-3.985 6.758,-9.042 10.518,-9.042l2.94,0l-4.275,-12.071c-4.178,-11.797 -4.368,-12.112 -8.386,-13.911c-2.261,-1.013 -5.913,-3.643 -8.116,-5.845c-2.202,-2.203 -6.052,-4.911 -8.555,-6.018c-2.504,-1.107 -6.704,-3.97 -9.334,-6.362c-2.631,-2.391 -6.475,-5.118 -8.543,-6.059c-2.068,-0.941 -5.79,-3.583 -8.272,-5.87c-2.482,-2.288 -6.686,-5.166 -9.342,-6.397c-2.657,-1.231 -6.426,-3.834 -8.377,-5.784c-1.95,-1.95 -5.954,-4.752 -8.897,-6.225c-7.424,-3.716 -14.106,-11.147 -19.119,-21.264c-4.188,-8.453 -4.233,-8.655 -4.186,-19.119c0.038,-8.394 0.489,-11.675 2.186,-15.908c3.025,-7.547 9.26,-17.658 15.21,-24.667c4.152,-4.89 14.503,-23.315 13.624,-24.251c-0.129,-0.138 -2.255,0.127 -4.724,0.588c-6.173,1.153 -8.843,0.015 -8.843,-3.769c-0,-4.058 3.166,-5.844 6.494,-3.664c1.298,0.851 2.506,2.461 2.683,3.579c0.323,2.03 0.326,2.03 4.614,-0.101c2.361,-1.173 4.514,-1.91 4.785,-1.639c0.272,0.271 -1.09,3.967 -3.025,8.213l-3.518,7.72l8.099,-7.619c4.455,-4.19 16.406,-14.411 26.559,-22.713c12.926,-10.57 18.143,-15.41 17.406,-16.147c-0.579,-0.579 -4.827,-1.251 -9.439,-1.493c-10.268,-0.539 -21.389,1.547 -34.658,6.502c-15.683,5.856 -47,22.213 -47,24.548c-0,0.594 -0.296,0.783 -0.658,0.421c-1.333,-1.333 -3.342,1.671 -3.342,4.997c-0,10.031 -10.709,17.565 -19.654,13.828c-4.333,-1.81 -2.933,-2.563 -19.346,10.397c-12.231,9.659 -23.121,20.098 -22.319,21.396c0.358,0.58 0.133,0.71 -0.527,0.302c-1.721,-1.064 -1.429,0.145 1.47,6.07c2.801,5.724 4.027,12.606 2.985,16.757c-2.613,10.411 -19.278,15.714 -29.618,9.426l-3.444,-2.094l-3.813,4.373c-7.944,9.112 -25.899,32.955 -35.625,47.311c-5.56,8.206 -10.109,14.316 -10.109,13.578c-0,-2.928 24.206,-36.833 41.326,-57.884c6.212,-7.638 7.439,-9.702 6.646,-11.184c-2.011,-3.757 -1.138,-8.936 2.042,-12.116c2.677,-2.678 3.566,-2.976 7.958,-2.673c4.754,0.328 5.137,0.152 9.95,-4.586l5.007,-4.928l-2.182,-3.882c-1.719,-3.058 -2.614,-3.758 -4.215,-3.295c-9.322,2.698 -14.136,3.603 -17.756,3.339c-3.7,-0.269 -4.664,0.131 -7.751,3.217c-7.429,7.427 -19.946,21.739 -30.275,34.619c-5.913,7.372 -10.75,12.912 -10.75,12.311c-0,-2.079 17.756,-23.898 34.73,-42.676l7.23,-7.999l-6.515,-3.307c-3.583,-1.819 -8.023,-4.977 -9.868,-7.018l-3.353,-3.712l-10.812,10.846c-5.946,5.965 -11.037,10.62 -11.312,10.345c-0.275,-0.275 4.367,-5.382 10.316,-11.349l10.815,-10.849l-2.742,-6.854c-2.397,-5.992 -2.673,-7.768 -2.193,-14.118c0.302,-3.995 0.383,-7.263 0.179,-7.263c-0.323,-0 -9.67,7.5 -14.725,11.816c-0.963,0.822 -1.75,1.022 -1.75,0.445c-0,-0.577 3.86,-4.134 8.578,-7.905c8.402,-6.715 8.71,-7.117 14.989,-19.569l6.41,-12.712l-2.087,-3.538c-1.148,-1.945 -2.398,-3.537 -2.777,-3.537c-0.647,-0 -16.305,9.386 -22.363,13.405c-1.513,1.004 -2.75,1.344 -2.75,0.757c-0,-0.588 5.512,-4.329 12.25,-8.315c6.737,-3.985 12.379,-7.323 12.536,-7.416c0.158,-0.094 -0.817,-3.492 -2.167,-7.551c-3.268,-9.824 -4.085,-17.32 -2.645,-24.257c1.205,-5.801 5.04,-11.623 7.658,-11.623c2.554,-0 10.998,8.828 14.214,14.862c1.711,3.21 3.607,8.154 4.215,10.987c0.608,2.833 1.285,5.151 1.505,5.151c0.221,-0 3.782,-1.673 7.915,-3.718c6.418,-3.176 7.424,-4.016 6.893,-5.751c-0.883,-2.883 -1.091,-2.981 -3.745,-1.772c-2.071,0.944 -2.521,0.773 -3.474,-1.318c-0.942,-2.067 -0.784,-2.564 1.125,-3.558c1.221,-0.635 2.338,-1.249 2.482,-1.364c0.144,-0.116 -0.69,-2.362 -1.853,-4.992c-1.685,-3.809 -1.85,-4.946 -0.81,-5.588c1.869,-1.156 2.529,-0.479 4.458,4.571c1.573,4.119 3.595,5.671 4.816,3.696c0.27,-0.437 -0.379,-2.736 -1.441,-5.11c-2.317,-5.174 -2.31,-5.096 -0.452,-5.096c0.813,-0 2.419,1.841 3.567,4.091c1.754,3.438 2.457,3.999 4.406,3.51c3.064,-0.769 4.181,2.702 1.479,4.598c-1.579,1.109 -1.67,1.631 -0.615,3.536l1.238,2.235l6.113,-2.891c9.16,-4.332 42.61,-17.492 52.582,-20.688c6.568,-2.104 8.75,-3.237 8.75,-4.542c-0,-0.955 1.027,-2.932 2.283,-4.392c3.071,-3.57 10.177,-4.456 15.714,-1.958c3.791,1.709 4.192,1.699 12.211,-0.31c12.296,-3.079 27.934,-5.189 38.468,-5.189c5.128,-0 9.324,-0.389 9.324,-0.864c-0,-1.932 5.292,-5.968 8.651,-6.598c2.751,-0.516 4.747,-0.101 8.545,1.779c3.267,1.616 5.091,2.065 5.353,1.318c1.599,-4.56 5.365,-23.169 4.736,-23.4c-0.432,-0.159 -10.002,-4.298 -21.266,-9.198c-11.265,-4.9 -20.643,-8.747 -20.84,-8.55c-0.197,0.198 -2.079,7.918 -4.183,17.157c-4.615,20.275 -5.368,21.233 -15.996,20.376c-5.736,-0.463 -11,-5.892 -11,-11.345c-0,-8.098 12.654,-11.107 19.533,-4.644l2.25,2.114l3.003,-12.823c1.652,-7.052 4.007,-17.21 5.232,-22.572c1.226,-5.363 2.724,-9.75 3.329,-9.75c0.823,-0 46.849,19.535 48.444,20.561c0.16,0.103 -2.203,11.101 -5.25,24.44c-3.048,13.339 -5.541,24.759 -5.541,25.377c-0,0.619 2.137,2.247 4.75,3.618c5.551,2.914 13.319,10.303 15.729,14.964c2.119,4.098 2.163,10.568 0.104,15.495c-0.871,2.084 -1.599,5.647 -1.619,7.917c-0.019,2.27 -0.678,5.253 -1.464,6.628c-0.786,1.375 -1.465,4.525 -1.509,7c-0.043,2.475 -0.727,6.3 -1.52,8.5c-0.793,2.2 -1.448,5.578 -1.456,7.507c-0.008,1.928 -0.486,5.078 -1.062,7c-0.575,1.921 -1.255,6.05 -1.511,9.175c-0.772,9.424 -4.059,17.99 -15.43,40.205c-17.955,35.077 -22.186,47.565 -22.265,65.72c-0.023,5.284 0.243,10.068 0.592,10.632c1.185,1.918 26.887,-3.929 49.795,-11.329l10.634,-3.435l-0.521,-6.488c-0.432,-5.38 -0.26,-6.487 1.008,-6.487c0.84,-0 1.807,1.012 2.147,2.25c0.341,1.237 1.667,3.516 2.946,5.063l2.327,2.813l16.413,-6.039c16.637,-6.12 27.66,-10.477 28.322,-11.193c0.2,-0.217 -0.476,-5.569 -1.502,-11.894c-2.822,-17.393 -4.188,-15.351 12.342,-18.456c7.837,-1.472 15.197,-2.904 16.353,-3.182c1.966,-0.472 2.219,0.211 3.865,10.438l1.76,10.943l3.386,-1.04c2.148,-0.659 4.111,-2.267 5.369,-4.398c1.941,-3.291 2.111,-3.356 8.249,-3.15c5.608,0.187 9.087,-0.773 33.058,-9.125l26.79,-9.334l-0.688,-8.48l-0.688,-8.479l7.398,0.604c4.069,0.332 14.044,0.896 22.166,1.253c10.291,0.453 14.991,1.034 15.5,1.917c0.579,1.002 3.139,0.802 12.232,-0.953c11.436,-2.207 11.502,-2.236 11.798,-5.182c0.264,-2.627 -0.004,-2.957 -2.373,-2.919c-3.008,0.049 -5.061,-2.357 -4.116,-4.821c0.759,-1.978 5.009,-2.162 6.567,-0.285c0.617,0.743 1.411,3.465 1.765,6.048c0.605,4.414 0.801,4.666 3.251,4.179c4.762,-0.948 18.477,-2.47 28.358,-3.147l9.75,-0.669l-0,-9.136l3,2.874c1.65,1.581 3,3.615 3,4.521c-0,1.381 1.978,1.821 12.25,2.723c6.737,0.591 12.322,1.003 12.411,0.916c0.088,-0.088 0.483,-1.885 0.877,-3.994c0.676,-3.618 0.583,-3.816 -1.636,-3.5c-1.669,0.237 -2.462,-0.217 -2.728,-1.559c-0.306,-1.541 0.052,-1.781 1.923,-1.292c1.264,0.331 2.885,0.115 3.601,-0.479c1.571,-1.304 1.726,1.631 0.391,7.382c-0.977,4.204 -1.383,3.925 8.411,5.782c3.3,0.626 6.896,1.397 7.992,1.713c1.746,0.504 1.825,0.374 0.638,-1.056c-1.74,-2.096 -0.761,-4.657 1.779,-4.657c2.45,-0 3.542,1.668 3.286,5.02c-0.163,2.145 0.433,2.801 3.554,3.909c6.489,2.303 16.588,7.067 16.073,7.582c-0.272,0.272 -4.805,-1.307 -10.073,-3.508c-5.269,-2.202 -9.969,-4.003 -10.445,-4.003c-1.251,-0 -3.51,6.431 -2.39,6.805c2.848,0.949 17.805,8.571 20.284,10.336c4.652,3.312 2.486,3.288 -2.846,-0.03l-4.852,-3.02l-1.852,3.608c-1.722,3.353 -1.734,3.674 -0.175,4.547c3.403,1.905 11.881,9.302 12.324,10.755c0.252,0.825 -1.061,0.082 -2.919,-1.65c-5.999,-5.596 -11.002,-8.492 -12.509,-7.241c-2.036,1.69 -4.631,0.291 -3.875,-2.089c0.53,-1.672 -0.288,-2.396 -5.121,-4.534c-3.164,-1.399 -8.866,-3.489 -12.673,-4.645c-5.779,-1.756 -7.064,-1.875 -7.795,-0.722c-2.103,3.321 -0.951,4.693 5.759,6.861c7.833,2.53 14.929,6.003 20.692,10.126c5.385,3.853 18.644,16.953 18.644,18.421c-0,0.625 -4.163,-2.95 -9.25,-7.945c-9.924,-9.743 -20.242,-16.098 -31.844,-19.61c-5.767,-1.746 -5.91,-1.744 -6.056,0.12c-0.082,1.049 -0.195,2.408 -0.25,3.019c-0.055,0.611 2.651,2.107 6.012,3.324c16.135,5.843 28.926,17.095 38.246,33.646c1.728,3.069 3.142,6.212 3.142,6.984c0,0.772 -1.721,-1.542 -3.824,-5.141c-10.381,-17.764 -21.516,-27.792 -37.5,-33.772c-7.06,-2.642 -7.676,-2.657 -7.676,-0.187c0,3.934 -8.104,5.504 -8.827,1.711c-0.192,-1.004 0.392,-2.642 1.296,-3.641c1.572,-1.737 1.295,-1.848 -6.295,-2.519c-10.197,-0.903 -27.644,0.937 -41.174,4.342l-10.5,2.642l0.336,4.25c0.222,2.813 -0.068,4.25 -0.857,4.25c-0.656,0 -0.979,-0.562 -0.717,-1.25c0.855,-2.247 -1.112,-5.75 -3.23,-5.75c-2.464,0 -2.539,1.447 -0.447,8.643c1.42,4.887 1.427,5.69 0.064,7.77c-2.089,3.189 -5.177,3.796 -7.903,1.555c-2.116,-1.74 -2.157,-2.009 -0.71,-4.654c0.853,-1.556 2.661,-3.031 4.06,-3.31c2.433,-0.486 2.485,-0.655 1.464,-4.707l-1.06,-4.203l-14,5.303c-23.044,8.728 -54.102,23.684 -101,48.638c-12.1,6.438 -27.716,14.577 -34.702,18.085c-8.047,4.042 -13.164,7.236 -13.964,8.715c-1.671,3.09 -6.448,5.473 -9.712,4.845c-1.703,-0.327 -5.776,0.837 -11.622,3.323c-17.984,7.647 -35.354,13.035 -46.783,14.512l-4.783,0.618l2.533,3.01c1.716,2.039 2.528,4.196 2.518,6.684c-0.025,5.844 -1.623,7.076 -2.227,1.716c-0.287,-2.543 -1.295,-5.479 -2.241,-6.524c-1.717,-1.897 -10.451,-5.418 -11.31,-4.559c-0.25,0.25 1.491,6.164 3.867,13.142c3.095,9.088 4.833,12.823 6.124,13.16c2.102,0.55 2.454,3.238 0.423,3.238c-0.758,0 -1.936,1.346 -2.617,2.991c-1.434,3.46 -6.617,7.009 -10.237,7.009c-1.374,0 -3.57,-0.833 -4.882,-1.85l-0,-0.002Zm36.847,-43.149c8.6,-2.041 22.815,-7.086 33.582,-11.916c6.259,-2.809 6.31,-2.864 5.891,-6.455c-0.359,-3.069 0.068,-4.082 2.792,-6.626c2.049,-1.914 4.27,-3.003 6.128,-3.003c2.671,0 2.858,-0.228 2.253,-2.75c-0.363,-1.512 -0.812,-2.928 -0.998,-3.145c-0.186,-0.218 -8.335,3.028 -18.109,7.212c-21.297,9.117 -38.561,14.976 -50.771,17.231c-4.95,0.914 -10.35,1.975 -12,2.357l-3,0.695l6.471,4.782l6.471,4.781l6.529,-0.604c3.591,-0.332 10.234,-1.484 14.761,-2.559Zm-35.921,-2.25c-1.437,-4.309 -1.596,-4.431 -6.811,-5.256l-4.5,-0.712l2.876,3.045c2.217,2.348 7.698,5.964 9.322,6.15c0.109,0.012 -0.29,-1.439 -0.887,-3.227Zm23.689,-10.122c16.371,-4.525 33.086,-10.879 56.718,-21.561c4.493,-2.031 4.689,-2.286 4.093,-5.35c-0.345,-1.769 -1.118,-4.622 -1.719,-6.338l-1.092,-3.122l-22,8.87c-12.1,4.878 -22.464,8.87 -23.031,8.871c-0.567,0.001 -1.532,1.33 -2.144,2.953c-1.253,3.319 -6.624,7.04 -10.171,7.045c-1.29,0.002 -3.563,-0.715 -5.05,-1.594c-2.51,-1.482 -3.421,-1.442 -12.655,0.563c-5.472,1.188 -13.662,2.423 -18.199,2.746c-4.538,0.322 -8.25,0.792 -8.25,1.044c-0,1.508 6.433,8.197 8.282,8.611c5.785,1.296 26.428,-0.308 35.218,-2.738Zm-41.5,-0.405c-0,-2.021 -6.081,-7.223 -8.444,-7.223c-1.406,0 -2.556,0.221 -2.556,0.49c-0,0.661 9.302,7.454 10.25,7.485c0.412,0.015 0.75,-0.325 0.75,-0.752Zm-6,-8.597c-0,-0.206 -1.164,-2.456 -2.586,-5c-2.388,-4.273 -2.884,-4.626 -6.5,-4.626c-2.153,0 -3.914,0.255 -3.914,0.567c-0,1.364 5.588,7.722 7.449,8.476c2.145,0.869 5.551,1.226 5.551,0.583Zm31.965,-2.372c7.084,-1.719 7.498,-1.975 8.122,-5.026c0.362,-1.769 1.278,-3.963 2.035,-4.877c1.756,-2.116 7.069,-4.351 10.346,-4.351c2.235,0 2.532,-0.417 2.532,-3.559c-0,-2.156 -0.401,-3.311 -1.016,-2.931c-0.559,0.346 -0.718,1.16 -0.354,1.809c0.492,0.876 0.35,0.893 -0.549,0.065c-0.903,-0.831 -3.947,-0.256 -11.897,2.247c-11.956,3.763 -29.727,7.887 -38.434,8.918c-3.163,0.375 -5.75,0.887 -5.75,1.138c-0,0.251 1.202,2.509 2.672,5.017l2.673,4.56l11.077,-0.6c6.093,-0.33 14.437,-1.415 18.543,-2.411l-0,0.001Zm134.035,-24.761c5.225,-2.865 16.25,-8.694 24.5,-12.954c8.25,-4.259 15.341,-8.062 15.758,-8.45c0.417,-0.387 -0.034,-2.604 -1,-4.925c-1.43,-3.434 -2.147,-4.126 -3.844,-3.714c-1.148,0.278 -9.698,4.168 -19,8.643c-27.216,13.094 -61.88,30.052 -62.325,30.49c-0.225,0.223 0.337,1.231 1.25,2.24c1.79,1.977 2.308,9.177 0.661,9.177c-0.55,0 -1,-1.427 -1,-3.171c-0,-3.218 -2.36,-6.829 -4.464,-6.829c-0.635,0 -1.944,0.578 -2.91,1.284c-1.666,1.219 -1.67,1.632 -0.065,8.019l1.692,6.735l20.623,-10.668c11.343,-5.867 24.899,-13.012 30.124,-15.877l-0,0Zm-178.694,21.401c-1.743,-2.997 -4.817,-4.894 -7.93,-4.894c-2.102,0 -0.838,1.653 3.874,5.066c5.189,3.759 6.315,3.711 4.056,-0.172l0,0Zm6.679,-5.644c-0.008,-0.412 -0.619,-2.775 -1.356,-5.25l-1.341,-4.5l-5.144,-0.302c-3.263,-0.192 -5.144,0.1 -5.144,0.799c-0,1.236 2.717,6.835 4.247,8.753c1.06,1.328 8.763,1.769 8.738,0.5l-0,0Zm27.603,-3.707c5.549,-1.335 15.111,-4.05 21.25,-6.035c12.413,-4.013 12.181,-3.715 10.554,-13.549l-0.586,-3.54l-10.153,3.341c-11.813,3.888 -38.017,10.756 -44.903,11.769c-2.613,0.384 -4.75,1.015 -4.75,1.403c-0,0.388 0.667,2.952 1.483,5.698l1.482,4.993l7.768,-0.827c4.272,-0.455 12.307,-1.919 17.855,-3.253Zm57.912,-3.338c14.644,-5.897 20.554,-8.808 19.73,-9.719c-0.402,-0.443 -0.177,-0.489 0.499,-0.1c0.676,0.389 2.173,0.202 3.325,-0.415c1.768,-0.946 1.996,-1.716 1.456,-4.914c-0.495,-2.93 -0.285,-3.929 0.924,-4.393c0.861,-0.331 1.566,-0.196 1.566,0.299c-0,0.496 1.332,1.85 2.961,3.009l2.961,2.109l4.106,-2.095c2.258,-1.152 9.588,-4.501 16.289,-7.442c29.041,-12.747 28.208,-12.306 27.876,-14.769c-0.168,-1.251 -0.619,-3.71 -1,-5.463l-0.693,-3.189l-9.179,3.791c-6.368,2.631 -10.27,4.949 -12.743,7.572c-3.297,3.496 -3.88,3.737 -7.782,3.213c-3.655,-0.49 -6.561,0.408 -21.757,6.723c-9.647,4.008 -22.151,9.04 -27.788,11.183c-8.716,3.313 -10.248,4.224 -10.25,6.098c-0.002,2.573 -1.987,7.297 -3.066,7.297c-0.41,0 -0.496,-1.851 -0.193,-4.114c0.533,-3.973 0.47,-4.088 -1.845,-3.366c-7.587,2.366 -7.565,2.325 -6.274,11.744l0.623,4.544l5.127,-1.788c2.82,-0.983 9.627,-3.6 15.127,-5.815l-0,0Zm-96.5,6.322c-0,-0.261 -0.955,-2.44 -2.123,-4.843c-1.998,-4.113 -2.379,-4.379 -6.5,-4.534c-2.407,-0.092 -4.377,0.133 -4.377,0.498c-0,1.47 5.349,7.55 7.355,8.36c2.371,0.956 5.645,1.258 5.645,0.519Zm-11.892,-4.277c-2.04,-3.712 -3.732,-5.088 -7.108,-5.781l-3.5,-0.719l2,2.268c2.064,2.341 7.4,5.972 8.785,5.978c0.432,0.002 0.352,-0.783 -0.177,-1.746l0,0Zm142.621,-0.854c-0.332,-0.332 -1.195,-0.368 -1.917,-0.079c-0.797,0.319 -0.56,0.556 0.605,0.604c1.054,0.044 1.644,-0.193 1.312,-0.525l0,-0Zm4.878,-3.978c-0.334,-0.87 -0.607,-2.209 -0.607,-2.977c-0,-1.521 -3.196,-3.843 -6.75,-4.904c-4.035,-1.204 -2.777,3.069 1.9,6.457c4.616,3.344 6.369,3.801 5.457,1.424Zm22.158,-8.985c10.854,-5.262 25.922,-12.533 33.485,-16.157c14.616,-7.005 14.523,-6.905 12.423,-13.408l-1.173,-3.633l-10.715,4.633l-10.715,4.632l0.593,3.75c0.39,2.467 0.207,3.75 -0.535,3.75c-0.621,0 -1.135,-0.787 -1.143,-1.75c-0.042,-4.741 -1.19,-4.465 -24.552,5.891c-12.613,5.591 -23.125,10.327 -23.36,10.523c-0.235,0.196 0.777,1.614 2.25,3.151c1.549,1.618 2.677,3.93 2.677,5.49c-0,1.482 0.232,2.695 0.515,2.695c0.284,0 9.396,-4.305 20.25,-9.567Zm-163.15,5.317c-2.107,-7.671 -2.73,-16.356 -1.714,-23.902c2.294,-17.047 9.665,-32.442 28.636,-59.807c19.613,-28.292 23.869,-35.876 22.663,-40.385c-0.68,-2.543 -0.918,-2.366 -6.855,5.105c-3.383,4.256 -11.661,14.039 -18.395,21.739c-23.656,27.049 -34.421,43.935 -38.891,61c-1.813,6.92 -1.304,20.829 1.016,27.782c3.21,9.623 4.188,10.718 9.565,10.718c4.28,0 4.551,-0.153 3.975,-2.25Zm9.45,1.638l3.566,-0.59l-0.436,-8.298c-0.928,-17.687 3.093,-30.856 19.405,-63.542c13.404,-26.861 16.764,-34.763 17.837,-41.958l0.671,-4.5l-2.976,5.268c-1.637,2.897 -8.312,13.022 -14.832,22.5c-19.919,28.952 -26.089,39.913 -30.528,54.232c-3.948,12.734 -2.615,37.519 2.016,37.489c0.942,-0.008 3.316,-0.276 5.277,-0.601Zm-21.611,-2.138c-4.051,-9.322 -4.863,-13.18 -4.895,-23.25c-0.026,-8.351 0.437,-11.912 2.266,-17.402c5.679,-17.046 15.315,-31.26 41.053,-60.56c4.609,-5.246 11.471,-13.519 15.25,-18.385l6.87,-8.847l-4.221,-5.927l-5.638,5.825c-3.102,3.205 -11.449,11.444 -18.549,18.311c-25.623,24.779 -38.539,40.014 -45.344,53.485c-6.27,12.411 -7.833,26.52 -4.254,38.392c2.551,8.465 9.04,18.794 12.182,19.392c5.139,0.98 6.075,0.797 5.28,-1.034Zm99.065,-3.232c2.191,-0.855 2.362,-1.236 1.307,-2.925c-1.216,-1.947 -8.62,-6.632 -9.342,-5.91c-0.211,0.211 -0.122,2.923 0.198,6.026c0.562,5.447 0.664,5.609 2.95,4.716c1.302,-0.509 3.502,-1.367 4.887,-1.907Zm-111.323,-0.768c-8.974,-12.722 -11.304,-28.904 -6.268,-43.541c6.5,-18.892 17.312,-32.724 51.029,-65.283c8.502,-8.209 17,-16.623 18.886,-18.697c3.308,-3.639 3.366,-3.84 1.661,-5.725c-3.703,-4.092 -4.773,-3.622 -19.703,8.65c-29.787,24.485 -40.853,34.723 -43.916,40.631c-1.079,2.082 -2.321,3.564 -2.761,3.292c-2.178,-1.346 -12.214,12.194 -17.877,24.119c-3.138,6.607 -3.708,8.921 -4.072,16.517c-0.612,12.816 1.897,20.725 10.032,31.619c5.349,7.163 17.793,15.228 12.989,8.418Zm140.804,-10.803c32.013,-13.008 31,-12.511 31,-15.211c-0,-1.302 0.463,-3.233 1.03,-4.291c1.401,-2.618 6.632,-5.187 9.02,-4.429c2.105,0.668 2.592,-0.953 1.029,-3.423c-0.949,-1.499 -5.008,-0.276 -20.079,6.05l-6.5,2.728l-0.303,4.52c-0.241,3.599 -0.919,5.039 -3.327,7.065c-1.663,1.399 -4.269,2.544 -5.792,2.544c-3.579,0 -6.471,-3.163 -5.853,-6.399l0.472,-2.47l-6.598,2.518c-3.63,1.385 -10.976,4.105 -16.326,6.045l-9.726,3.527l3.476,4.242c1.912,2.334 3.477,4.79 3.477,5.458c-0,1.624 0.9,1.319 25,-8.474l-0,0Zm114.998,-14.701c-2.076,-4.636 -4.714,-6.62 -3.476,-2.614c1.315,4.258 3.545,7.945 4.462,7.378c0.494,-0.305 0.05,-2.449 -0.986,-4.764Zm14.3,-1.585c5.388,-2.602 9.438,-5.126 9,-5.607c-0.439,-0.481 -0.297,-0.589 0.316,-0.239c0.613,0.35 8.488,-2.438 17.5,-6.194c9.012,-3.756 18.748,-7.606 21.635,-8.555c4.913,-1.616 5.208,-1.897 4.611,-4.396c-1.198,-5.02 -0.682,-5.036 -17.36,0.569c-16.031,5.388 -48.863,18.791 -50.817,20.745c-0.532,0.532 3.798,8.521 4.587,8.463c0.401,-0.03 5.139,-2.183 10.527,-4.785l0.001,-0.001Zm-21.298,-3.619c-0,-0.383 -2.936,-7.158 -3.623,-8.361c-0.393,-0.689 -10.377,4.122 -10.377,4.999c-0,0.514 0.489,2.876 1.086,5.25l1.087,4.315l5.913,-2.865c3.253,-1.575 5.914,-3.078 5.914,-3.338Zm-353.811,2.687c6.316,-3.73 7.321,-11.412 2.733,-20.889l-2.272,-4.695l-4.835,5.258c-2.659,2.891 -4.574,5.679 -4.256,6.194c0.319,0.514 0.915,0.728 1.326,0.474c0.411,-0.254 0.853,1.583 0.982,4.081c0.267,5.15 -1.614,8.815 -5.09,9.92c-2.202,0.7 -2.211,0.751 -0.277,1.538c2.586,1.053 8.269,0.138 11.689,-1.881l0,-0Zm329.337,-5.403c0.052,-2.581 1.675,-3.992 3.938,-3.424c1.663,0.417 2.529,-0.015 3.336,-1.669l1.09,-2.233l0.647,2.156l0.647,2.157l4.908,-2.04c2.699,-1.122 4.908,-2.452 4.908,-2.956c-0,-0.773 -2.727,-6.697 -3.504,-7.61c-0.262,-0.308 -17.24,6.066 -26.285,9.869l-5.289,2.223l0.666,4.601c0.367,2.53 0.846,4.914 1.065,5.297c0.65,1.134 13.845,-4.925 13.873,-6.371Zm-27.314,-0.468c7.587,-3.145 8.788,-3.97 8.788,-6.035c-0,-2.106 -0.247,-2.261 -2.059,-1.291c-2.383,1.275 -7.297,0.449 -8.914,-1.499c-1.784,-2.15 -9.027,1.054 -9.027,3.994c-0,3.187 1.146,8.473 1.837,8.473c0.323,0 4.542,-1.639 9.375,-3.642Zm-27.692,-2.475l13.466,-5.116l-0.632,-4.134c-0.348,-2.273 -0.761,-4.287 -0.919,-4.475c-0.157,-0.188 -6.643,0.88 -14.413,2.373l-14.127,2.715l0.499,2.627c0.274,1.445 0.787,4.54 1.14,6.877c0.353,2.338 0.839,4.25 1.081,4.25c0.242,0 6.499,-2.302 13.905,-5.117Zm83.308,4.367c-0.186,-0.412 -0.989,-2.437 -1.784,-4.5c-0.795,-2.062 -2.008,-3.75 -2.694,-3.75c-0.943,0 -0.867,0.918 0.308,3.75c2.03,4.889 2.269,5.25 3.484,5.25c0.564,0 0.872,-0.337 0.686,-0.75l0,0Zm3.672,-1.965c0.55,-0.118 9.325,-3.629 19.5,-7.801c23.945,-9.818 44.386,-16.623 60,-19.976c6.875,-1.476 13.062,-2.855 13.75,-3.064c0.687,-0.21 1.25,-1.745 1.25,-3.412c-0,-3.736 -0.034,-3.738 -15.28,-0.565c-20.396,4.244 -27.72,6.508 -27.72,8.571c-0,4.422 -6.543,6.591 -10.119,3.355c-1.639,-1.484 -2.302,-1.413 -8.579,0.914c-3.741,1.387 -8.602,3.077 -10.802,3.755c-4.284,1.321 -26.338,9.72 -27.649,10.53c-0.433,0.268 0.187,2.491 1.377,4.94c1.19,2.449 2.413,4.119 2.718,3.711c0.305,-0.409 1.004,-0.84 1.554,-0.958Zm-22.5,-14.564c3.025,-1.144 5.644,-2.18 5.82,-2.303c0.175,-0.123 -0.612,-2.05 -1.751,-4.282l-2.07,-4.059l-11.734,4.046c-6.454,2.225 -13.136,4.632 -14.85,5.348l-3.115,1.302l1.018,4.972l1.019,4.973l10.081,-3.959c5.545,-2.177 12.557,-4.894 15.582,-6.038Zm12.368,1.926c-0.956,-2.006 -2.324,-3.647 -3.04,-3.647c-0.938,0 -0.691,1.258 0.884,4.501c1.209,2.487 2.569,4.118 3.041,3.646c0.472,-0.472 0.076,-2.485 -0.885,-4.5Zm20.362,-2.897c10.39,-3.95 15.579,-6.363 14.104,-6.558c-1.284,-0.169 -3.302,-1.47 -4.485,-2.892l-2.151,-2.585l-13.342,4.685c-7.338,2.577 -13.706,5.051 -14.152,5.496c-0.75,0.75 2.089,8.104 3.128,8.104c0.254,0 7.858,-2.812 16.898,-6.25Zm-99.474,-4.114c10.881,-2.142 13.732,-3.045 12.661,-4.012c-0.733,-0.662 -27.917,4.79 -27.917,5.598c-0,1.186 2.477,0.929 15.256,-1.586Zm229.298,1.277c0.369,-0.598 0.219,-1.54 -0.334,-2.093c-1.137,-1.137 -5.22,0.596 -5.22,2.215c-0,1.327 4.723,1.223 5.554,-0.122l-0,-0Zm-147.273,-2.004c7.389,-2.484 7.345,-2.45 5.75,-4.372c-0.726,-0.874 -0.989,-2.57 -0.624,-4.024c0.763,-3.041 0.577,-3.052 -7.194,-0.427l-6.176,2.085l1.481,2.865c0.815,1.576 1.462,3.45 1.438,4.164c-0.023,0.715 -0.935,-0.387 -2.024,-2.45c-1.65,-3.126 -3.932,-5.031 -3.932,-3.284c-0,1.306 3.486,7.534 4.217,7.534c0.465,0 3.644,-0.941 7.064,-2.091Zm90.38,0.442c7.017,-1.641 7.118,-1.709 5.032,-3.398c-1.819,-1.473 -1.933,-1.958 -0.788,-3.338c0.737,-0.888 1.027,-1.615 0.645,-1.615c-1.825,0 -18.151,4.306 -18.871,4.978c-0.885,0.824 3.863,5.014 5.706,5.035c0.613,0.008 4.337,-0.741 8.276,-1.662Zm-49.946,-3.938c2.632,-0.873 6.463,-2.728 8.515,-4.122c2.319,-1.576 4.517,-2.329 5.812,-1.99c1.88,0.491 2.017,0.235 1.404,-2.628c-0.374,-1.745 -0.809,-3.317 -0.967,-3.494c-0.158,-0.176 -3.593,0.64 -7.633,1.815c-4.04,1.174 -8.134,2.362 -9.096,2.638c-1.202,0.346 -1.75,1.515 -1.75,3.736c-0,1.777 -0.54,3.772 -1.2,4.432c-1.575,1.575 -0.821,1.516 4.915,-0.387Zm91.785,-1.145c7.7,0.245 14.624,0.623 15.387,0.839c0.832,0.236 1.694,-0.696 2.156,-2.329c0.715,-2.531 0.513,-2.777 -2.887,-3.5c-2.011,-0.428 -12.03,-0.774 -22.264,-0.768c-14.36,0.008 -18.988,0.325 -20.274,1.392c-0.916,0.761 -1.429,1.621 -1.139,1.911c0.291,0.29 -0.103,1.491 -0.875,2.668l-1.402,2.14l8.649,-1.399c5.73,-0.928 13.374,-1.25 22.649,-0.954Zm-473.474,-8.768c3.59,-3.3 11.816,-10.05 18.281,-15c11.378,-8.712 11.736,-9.102 11.188,-12.197c-1.248,-7.051 5.504,-15.73 13.128,-16.874l4.25,-0.637l-2.136,-4.396c-1.175,-2.418 -2.554,-4.396 -3.065,-4.396c-2.226,0 -25.565,14.481 -39.935,24.778c-6.206,4.447 -7.642,5.947 -7.155,7.48c1.144,3.607 0.535,11.615 -1.136,14.93c-0.919,1.822 -3.007,4.722 -4.64,6.444c-2.651,2.796 -2.828,3.36 -1.648,5.25c0.728,1.165 1.691,2.118 2.141,2.118c0.451,0 0.49,0.563 0.088,1.25c-0.915,1.564 2.26,-1.047 10.639,-8.75l0,0Zm375.733,-0.65c0.563,-5.109 -0.859,-5.478 -10.444,-2.716l-8.815,2.541l-0,9.041l9.5,-3.258c8.135,-2.791 9.537,-3.596 9.759,-5.608Zm-398.734,4.637c1.636,-0.846 2.975,-1.803 2.975,-2.126c-0,-1.227 -4.404,-8.361 -5.161,-8.361c-0.436,0 -1.53,1.125 -2.431,2.5c-0.901,1.375 -2.048,2.5 -2.55,2.5c-1.281,0 -7.858,6.113 -7.858,7.303c-0,1.424 11.432,0.042 15.025,-1.816Zm549.245,0.763c0.277,-0.962 0.807,-2.484 1.178,-3.381c1.259,-3.043 -20.341,-10.602 -36.448,-12.755c-17.76,-2.374 -22.78,-2.432 -25.498,-0.295c-2.46,1.936 -6.502,1.947 -6.502,0.019c-0,-0.511 -3.038,-0.796 -6.75,-0.633l-6.75,0.296l-0.324,3.389l-0.324,3.39l4.232,-0.677c6.7,-1.071 31.985,-0.765 40.061,0.486c8.665,1.342 22.768,5.789 29.548,9.317c5.776,3.006 6.918,3.133 7.577,0.845l-0,-0.001Zm-563.375,-2.642l3.288,-3.392l-3.525,-1.164c-3.429,-1.132 -10.658,-7.991 -10.658,-10.114c-0,-0.581 -0.369,-0.828 -0.819,-0.55c-0.451,0.279 -0.625,-0.932 -0.387,-2.691l0.431,-3.197l-5.057,4.908c-4.846,4.703 -4.999,5.015 -3.678,7.5c2.23,4.191 6.509,8.187 10.907,10.185c5.455,2.477 5.694,2.44 9.498,-1.485Zm464.605,-4.611c6.05,-1.154 11.961,-2.296 13.135,-2.538c2.805,-0.577 3.981,-6.459 1.291,-6.459c-2.916,0 -24.816,3.915 -34.124,6.1c-7.966,1.871 -8.802,2.288 -8.802,4.402c-0,5.261 0.466,5.406 9.304,2.909c4.508,-1.273 13.146,-3.259 19.196,-4.414Zm-73,4.003c-0.34,-0.55 -1.379,-0.968 -2.309,-0.93c-1.379,0.058 -1.322,0.229 0.309,0.93c2.676,1.15 2.711,1.15 2,0l-0,0Zm107.302,-0.605c6.258,-0.371 14.606,-0.153 20.114,0.526c7.588,0.935 9.577,0.91 10.249,-0.13c1.431,-2.219 0.448,-4.117 -2.55,-4.918c-5.428,-1.452 -21.357,-2.129 -32.989,-1.402l-11.626,0.727l-0,3.526c-0,3.398 0.111,3.504 3.052,2.916c1.679,-0.336 7.866,-0.896 13.75,-1.245l-0,-0Zm-73.302,-2.799c7.908,-2.33 7.998,-2.394 7.845,-5.549c-0.086,-1.755 -0.322,-3.357 -0.526,-3.561c-0.527,-0.527 -17.147,3.638 -18.17,4.554c-1.184,1.06 0.247,6.965 1.68,6.936c0.644,-0.011 4.771,-1.084 9.171,-2.38Zm-403.857,-0.084c-0.316,-0.824 -0.066,-1.382 0.561,-1.25c2.796,0.588 4.818,-8.808 2.929,-13.608c-0.645,-1.638 -1.259,-1.355 -5.44,2.5l-4.712,4.346l3.011,4.75c2.918,4.603 4.816,6.299 3.651,3.262Zm377.857,-2.051c2.75,-0.834 6.687,-1.972 8.75,-2.528c3.236,-0.872 3.75,-1.406 3.75,-3.903l-0,-2.893l-9.75,-0.318c-5.363,-0.176 -9.917,-0.227 -10.121,-0.114c-0.653,0.359 0.988,11.296 1.693,11.284c0.373,-0.008 2.928,-0.693 5.678,-1.528l-0,0Zm-390.566,-2.891l2.283,-2.43l-4.165,-7.546c-2.291,-4.15 -4.665,-7.854 -5.274,-8.231c-2.416,-1.493 -7.701,8.394 -5.951,11.131c0.616,0.965 0.773,1.468 1.048,3.37c0.273,1.887 5.527,6.136 7.587,6.136c1.204,0 3.217,-1.093 4.472,-2.43Zm450.879,-6.411c0.379,-3.822 0.798,-3.792 -13.563,-0.97c-11.721,2.304 -11.982,2.484 -10.668,7.376c0.554,2.064 0.563,2.063 12.236,-0.59l11.682,-2.656l0.313,-3.16Zm93.089,2.692c0.604,-1.732 1.098,-3.255 1.098,-3.383c-0,-0.129 -1.013,-0.523 -2.25,-0.875c-15.141,-4.308 -44.105,-7.29 -43.712,-4.5c0.406,2.878 -0.261,4.322 -0.915,1.981c-1.033,-3.695 -3.123,-3.8 -3.123,-0.157l-0,3.083l6.622,-0c8.301,-0 24.837,2.424 33.378,4.894c3.575,1.034 6.793,1.93 7.152,1.993c0.359,0.062 1.146,-1.304 1.75,-3.036l0,-0Zm-130.402,0.262l7,-1.842l-7.752,-0.385c-7.488,-0.373 -7.753,-0.309 -7.75,1.864c0.003,2.685 -0.28,2.673 8.502,0.363l-0,-0Zm45.113,-1.037c2.688,-0.509 9.612,-1.419 15.387,-2.023c13.553,-1.417 19,-2.929 19,-5.271c-0,-1.533 -0.942,-1.782 -6.75,-1.781c-6.044,0.001 -33.322,2.737 -33.994,3.41c-0.307,0.307 0.867,6.589 1.232,6.589c0.132,0 2.438,-0.416 5.125,-0.924Zm-444.346,-9.806c-1.212,-3.202 -11.836,-7.667 -15.847,-6.66c-2.204,0.553 -2.156,0.726 2.334,8.408l4.584,7.844l4.697,-4.181c2.584,-2.299 4.488,-4.734 4.232,-5.411Zm-40.887,4.73c2.035,-2.2 4.132,-4 4.66,-4c0.528,0 0.96,-0.918 0.96,-2.04c-0,-2.682 3.25,-8.974 5.85,-11.325l2.062,-1.866l-2.97,-5.884c-1.634,-3.237 -3.325,-5.885 -3.758,-5.885c-1.085,0 -8.861,13.833 -10.69,19.015c-1.591,4.51 -2.061,15.985 -0.655,15.985c0.462,0 2.505,-1.8 4.541,-4Zm523.521,-9.061c-1.938,-1.198 -2.412,-0.259 -0.83,1.647c0.964,1.162 1.474,1.28 1.764,0.408c0.225,-0.674 -0.196,-1.599 -0.934,-2.055Zm-455.901,-12.651c10.968,-7.262 17.033,-11.058 24.502,-15.336l4.449,-2.548l-2.763,-5.952c-1.519,-3.274 -3.195,-6.955 -3.725,-8.18c-0.96,-2.222 -0.987,-2.216 -9.963,2.384c-16.484,8.447 -47.39,26.995 -47.467,28.486c-0.018,0.353 0.991,0.898 2.244,1.213c3.342,0.839 10.254,7.099 11.705,10.602l1.258,3.037l4.63,-3.377c2.546,-1.857 9.355,-6.505 15.13,-10.329Zm409,11.747c-0,-1.619 -4.083,-3.352 -5.22,-2.215c-0.553,0.553 -0.703,1.495 -0.334,2.093c0.831,1.345 5.554,1.449 5.554,0.122l-0,0Zm-444,-15.532c9.336,-6.044 27.945,-16.947 41,-24.02c7.975,-4.321 14.621,-7.931 14.768,-8.022c0.148,-0.09 -1.427,-3.78 -3.5,-8.198l-3.768,-8.034l-14.389,6.885c-7.915,3.787 -14.89,7.528 -15.5,8.315c-0.611,0.786 -2.236,1.574 -3.611,1.751c-2.092,0.269 -2.465,0.805 -2.283,3.282c0.197,2.683 -0.983,4.482 -2.967,4.523c-0.413,0.008 -0.75,-0.633 -0.75,-1.426c-0,-2.728 -2.002,-2.662 -7.244,0.238c-17.574,9.724 -24.758,14.251 -24.75,15.595c0.01,1.682 3.55,6.695 4.319,6.116c0.371,-0.279 0.468,-0.226 0.215,0.119c-0.253,0.344 0.204,1.912 1.017,3.483c1.444,2.792 1.616,2.842 7.71,2.258c3.96,-0.38 7.509,-1.425 9.733,-2.865l-0,0Zm90.529,-7.009c28.381,-16.125 50.009,-23.692 67.971,-23.782c5.698,-0.031 11.265,0.473 12.939,1.166c2.794,1.156 3.161,0.996 7.384,-3.228l4.445,-4.444l-3.96,-2.62c-11.941,-7.903 -34.723,-6.768 -62.808,3.128l-11,3.876l-0.105,5.835c-0.075,4.116 -0.557,6.086 -1.637,6.691c-1.264,0.707 -1.651,-0.101 -2.217,-4.63c-0.377,-3.017 -0.895,-5.486 -1.152,-5.486c-0.257,0 -4.049,1.638 -8.428,3.639c-7.799,3.565 -7.961,3.713 -7.975,7.25c-0.017,4.522 -0.947,8.111 -2.103,8.111c-0.486,0 -0.883,-2.025 -0.883,-4.5c-0,-2.938 -0.434,-4.497 -1.25,-4.491c-1.289,0.012 -11.75,5.727 -11.75,6.422c-0,0.214 1.35,3.242 2.999,6.729c1.65,3.487 3,6.903 3,7.59c0.001,0.688 0.352,1.25 0.78,1.25c0.429,0 7.517,-3.827 15.75,-8.506l0,0Zm100.655,-7.945c0.319,-2.736 0.135,-3.229 -0.891,-2.378c-1.456,1.209 -1.775,5.829 -0.403,5.829c0.49,0 1.072,-1.553 1.294,-3.451Zm-188.4,-11.98c3.512,-1.115 4.177,-2.756 2.619,-6.463c-1.397,-3.322 -1.47,-3.355 -3.439,-1.573c-1.211,1.095 -2.355,1.451 -2.875,0.893c-1.302,-1.395 -2.339,-5.421 -1.406,-5.458c0.449,-0.019 1.619,-0.64 2.599,-1.383c1.496,-1.135 1.595,-1.76 0.621,-3.897l-1.16,-2.546l-8.434,4.179c-8.392,4.158 -8.431,4.196 -7.824,7.442c0.698,3.73 -1.119,14.428 -3.13,18.437c-0.745,1.486 -1.355,2.933 -1.355,3.217c-0,0.284 4.893,-2.346 10.874,-5.843c5.981,-3.498 11.79,-6.65 12.91,-7.005Zm71.266,7.406c5.165,-2.607 5.858,-3.279 5.012,-4.859c-1.492,-2.787 -5.184,-4.834 -11.829,-6.556c-7.574,-1.962 -7.348,-1.987 -6.317,0.69c2.202,5.722 6.031,13.75 6.557,13.75c0.321,0 3.281,-1.361 6.577,-3.025Zm116.298,-0.788c1.232,-2.482 0.956,-7.051 -0.452,-7.496c-0.333,-0.105 -1.825,1.26 -3.317,3.033c-2.665,3.166 -2.68,3.266 -0.896,5.647c2.074,2.765 2.795,2.582 4.665,-1.184Zm-3.733,-6.748l2.716,-3.562l-2.545,-2.545l-2.545,-2.545l-4.177,3.774l-4.177,3.774l2.806,2.297c3.792,3.102 4.756,2.957 7.922,-1.193Zm-214.574,-3.282l1.785,-3.987l-3.663,2.096c-2.015,1.152 -3.792,2.181 -3.951,2.286c-0.158,0.104 0.258,1.385 0.923,2.846c1.413,3.1 2.342,2.486 4.906,-3.241Zm120.363,1.718l8.596,-4.124l-0,-16.564l-3.5,1.074c-1.925,0.591 -3.5,1.476 -3.5,1.966c-0,0.49 -0.45,0.613 -1,0.273c-0.55,-0.34 -1,-0.115 -1,0.5c-0,0.615 -0.402,0.87 -0.893,0.567c-0.77,-0.477 -15.874,5.084 -19.844,7.306c-1.03,0.576 -0.355,1.463 2.607,3.423c2.199,1.454 5.265,4.233 6.814,6.174c1.549,1.942 2.885,3.53 2.97,3.53c0.085,0 4.022,-1.856 8.75,-4.124l-0,-0.001Zm101.93,-3.375l0.606,-4l-1.933,3.036c-1.219,1.915 -1.707,3.894 -1.323,5.364c0.767,2.932 1.799,1.219 2.65,-4.4Zm-180.334,-1.639c-0,-0.509 -0.687,-2.57 -1.527,-4.58c-1.426,-3.412 -1.638,-3.544 -3.195,-1.988c-1.556,1.557 -1.556,1.9 0.001,5.166c1.149,2.41 2.143,3.316 3.195,2.913c0.839,-0.322 1.526,-1.002 1.526,-1.511Zm-43.754,-0.852c3.608,-1.596 4.624,-2.612 5.127,-5.125c1.874,-9.37 -0.375,-18.884 -4.465,-18.884c-5.83,0 -8.572,6.127 -7.491,16.738c0.58,5.688 1.376,9.262 2.063,9.262c0.146,0 2.291,-0.896 4.766,-1.991Zm222.477,-1.142c1.516,-2.498 1.171,-7.959 -0.492,-7.795c-0.402,0.04 -1.949,1.542 -3.438,3.339c-2.527,3.048 -2.604,3.414 -1.157,5.48c1.855,2.649 2.999,2.419 5.087,-1.024Zm-74.371,-3.437c15.776,-5.498 28.256,-7.686 41.148,-7.215c9.375,0.342 11.812,0.795 16.5,3.068c3.025,1.466 6.322,3.24 7.326,3.942c1.596,1.114 2.197,0.837 4.75,-2.187c1.608,-1.904 2.924,-3.802 2.924,-4.217c-0,-1.455 -7.091,-7.827 -10.837,-9.738c-10.085,-5.145 -27.571,-6.528 -44.782,-3.542c-9.227,1.6 -29.401,7.066 -30.525,8.27c-0.354,0.379 -0.406,4.201 -0.115,8.494c0.451,6.656 0.767,7.714 2.144,7.182c0.888,-0.344 6.048,-2.169 11.467,-4.057l0,-0Zm-83.256,-4.292c18.269,-8.756 39.159,-17.284 54.654,-22.311c5.637,-1.829 10.25,-3.679 10.25,-4.111c-0,-0.433 -0.871,-0.32 -1.934,0.249c-5.287,2.829 -14.047,0.308 -18.749,-5.396l-3.033,-3.68l-16.775,6.137c-15.978,5.846 -40.92,16.025 -46.718,19.066c-2.033,1.066 -2.478,1.795 -1.781,2.915c0.743,1.195 1.309,1.258 2.831,0.315c1.62,-1.004 2.062,-0.83 2.972,1.167c0.886,1.946 0.73,2.573 -0.914,3.678c-1.937,1.303 -1.941,1.429 -0.191,5.573c0.986,2.332 2.06,4.244 2.388,4.25c0.328,0.008 7.978,-3.528 17,-7.852l-0,-0Zm55.89,-4.138c0.558,0 1.014,-0.45 1.014,-1c-0,-0.55 0.337,-0.914 0.75,-0.809c0.412,0.104 2.212,-0.156 4,-0.58l3.25,-0.77l-0,-16.733l-5.25,1.551c-4.861,1.437 -27.669,9.897 -37.5,13.91c-2.338,0.954 -4.25,2.078 -4.25,2.499c-0,0.931 7.087,6.652 11.819,9.54l3.453,2.107l10.85,-4.858c5.968,-2.671 11.307,-4.857 11.864,-4.857Zm106.437,0.5l0.68,-4l-2.383,2.908c-1.973,2.406 -2.198,3.3 -1.307,5.188c1.271,2.693 2.033,1.657 3.01,-4.096Zm-189.446,-1.542c-1.839,-3.437 -4.684,-1.759 -3.474,2.05c0.514,1.621 0.992,1.797 2.577,0.949c1.562,-0.836 1.739,-1.426 0.897,-2.999Zm189.018,-5.036c0.003,-0.869 -1.397,-3.695 -3.11,-6.281c-10.339,-15.609 -35.971,-20.388 -70.885,-13.217c-20.504,4.212 -18.452,2.845 -18.793,12.519c-0.263,7.47 -0.121,8.238 1.408,7.651c0.935,-0.358 5.567,-1.731 10.292,-3.049c31.684,-8.839 53.245,-8.633 67.131,0.639c3.34,2.231 6.811,5.182 7.713,6.559l1.641,2.504l2.299,-2.874c1.264,-1.58 2.301,-3.583 2.304,-4.451Zm-190.995,1.053c-0,-2.178 -1.405,-3.975 -3.107,-3.975c-2.119,0 -2.384,1.215 -0.878,4.029c0.962,1.797 3.985,1.756 3.985,-0.054Zm194.955,-11.324c0.105,-6.658 -7.637,-16.431 -16.618,-20.977l-4.837,-2.449l-1.734,2.305c-2.533,3.365 -7.737,4.824 -12.567,3.524c-4.493,-1.21 -8.949,-5.209 -9.863,-8.852l-0.624,-2.485l-10.706,0.65c-8.955,0.544 -26.962,3.281 -40.721,6.189c-3.17,0.671 -3.194,0.72 -1.75,3.512c0.806,1.558 1.465,4.88 1.465,7.382c-0,2.562 0.467,4.55 1.069,4.55c0.588,0 5.425,-1.09 10.75,-2.423c14.276,-3.574 24.247,-4.862 37.681,-4.868c20.739,-0.012 34.599,5.546 42.5,17.037l3.5,5.091l1.205,-2.668c0.662,-1.468 1.225,-3.951 1.25,-5.518Zm-15.747,-68.82c-0.389,-0.377 -10.068,-4.746 -21.508,-9.71c-17.702,-7.68 -20.894,-8.779 -21.43,-7.382c-0.346,0.902 -0.211,1.793 0.3,1.978c0.511,0.186 10.146,4.346 21.411,9.246c14.391,6.259 20.697,8.558 21.208,7.731c0.4,-0.647 0.409,-1.486 0.019,-1.863l0,0Zm-44.865,317.919c0.316,-4.537 0.871,-12.792 1.234,-18.344l0.658,-10.094l-3.131,0.46c-8.882,1.303 -16.603,-8.273 -11.104,-13.772c3.719,-3.719 13.428,-1.806 16.091,3.171c0.816,1.524 0.96,7.122 0.495,19.239c-0.88,22.926 -1.441,27.59 -3.317,27.59c-1.259,0 -1.408,-1.326 -0.926,-8.25Zm-93.607,-41c-7.303,-5.546 -0.651,-19.482 9.464,-19.829c1.265,-0.043 1.735,-0.307 1.044,-0.585c-0.691,-0.279 -1.038,-0.86 -0.771,-1.292c0.267,-0.433 -3.535,-9.279 -8.449,-19.66c-5.323,-11.245 -8.569,-19.239 -8.031,-19.777c0.539,-0.539 2.345,0.36 4.468,2.225c1.96,1.72 7.133,5.188 11.497,7.705c12.125,6.993 16.617,13.565 14.497,21.207c-0.717,2.586 -0.838,2.446 -1.951,-2.263c-1.697,-7.178 -2.956,-9.048 -7.225,-10.726c-5.99,-2.355 -11.655,-3.165 -11.017,-1.575c0.291,0.726 3.782,8.151 7.758,16.5c8.3,17.431 8.513,19.72 2.398,25.835c-2.893,2.893 -4.211,3.485 -7.76,3.485c-2.352,0 -5.017,-0.562 -5.922,-1.25Zm17.777,-78.255c-4.793,-1.71 -6.513,-3.825 -6.513,-8.012c-0,-7.523 11.311,-12.029 18.775,-7.479l3.274,1.997l1.063,-2.751c1.016,-2.628 7.809,-21.424 12.082,-33.427c1.412,-3.966 2.441,-5.517 3.413,-5.143c0.766,0.294 1.393,0.891 1.393,1.327c-0,0.436 -3.854,11.525 -8.564,24.643c-6.774,18.863 -9.182,24.425 -11.516,26.6c-1.623,1.513 -3.808,2.75 -4.854,2.75c-1.046,0 -2.502,0.206 -3.234,0.458c-0.733,0.253 -3.126,-0.181 -5.319,-0.963Zm478.154,-56.162c-2.537,-2.536 1.187,-6.14 5.083,-4.919c1.393,0.437 2.322,-0.825 4.553,-6.183l2.803,-6.731l-3.803,-3.235c-2.092,-1.779 -4.058,-3.242 -4.369,-3.25c-0.312,-0.008 -1.603,2.573 -2.87,5.735c-1.267,3.163 -3.149,6.496 -4.181,7.407c-2.061,1.822 -5.444,1.429 -6.272,-0.728c-0.715,-1.863 3.264,-4.498 5.823,-3.856c1.752,0.439 2.43,-0.399 4.466,-5.527c1.321,-3.325 2.671,-6.032 3,-6.014c0.678,0.038 2.346,1.277 6.916,5.144l3.162,2.677l-3.645,8.823c-2.004,4.853 -4.079,9.387 -4.611,10.074c-1.026,1.326 -4.936,1.703 -6.055,0.583Zm-499.517,-129.86c-3.6,-3.029 -4.716,-7.228 -3.168,-11.919c2.17,-6.576 11.706,-12.466 18.107,-11.186c1.946,0.389 2.913,0.176 2.917,-0.643c0.003,-0.674 -1.86,-13.309 -4.14,-28.079c-3.455,-22.382 -3.916,-26.997 -2.764,-27.709c0.76,-0.469 1.675,-0.535 2.034,-0.145c0.359,0.389 2.975,15.952 5.814,34.583l5.162,33.876l-2.696,5.328c-1.483,2.93 -2.97,5.279 -3.306,5.22c-0.336,-0.059 -2.283,0.637 -4.328,1.547c-5.428,2.415 -10.078,2.117 -13.632,-0.873Zm43.238,-56.399c-5.659,-2.432 -7.997,-10.061 -4.912,-16.027c3.37,-6.518 14.067,-9.72 20.774,-6.22c2.062,1.077 3.75,1.803 3.75,1.615c-0,-0.189 2.025,-13.139 4.5,-28.778c2.475,-15.639 4.5,-28.711 4.5,-29.049c-0,-0.338 0.81,-0.615 1.8,-0.615c1.4,0 2.082,1.365 3.07,6.15c0.699,3.382 3.281,10.624 5.739,16.093c5.879,13.081 7.106,18.428 5.475,23.87c-1.411,4.712 -4.961,10.599 -6.834,11.334c-1.91,0.749 -1.488,-2.328 0.699,-5.11c2.541,-3.229 3.568,-10.276 2.116,-14.512c-1.024,-2.986 -10.735,-14.603 -11.449,-13.695c-0.16,0.204 -1.9,10.673 -3.867,23.266c-3.737,23.927 -4.334,25.712 -10.019,29.957c-2.947,2.2 -11.893,3.204 -15.342,1.721Z" style="fill:#00b4ff;fill-opacity:0.63;fill-rule:nonzero;"/></svg>