<?xml version="1.0" encoding="utf-8"?>
<!-- Generator: Adobe Illustrator 24.0.0, SVG Export Plug-In . SVG Version: 6.00 Build 0)  -->
<svg version="1.1" xmlns="http://www.w3.org/2000/svg" xmlns:xlink="http://www.w3.org/1999/xlink" x="0px" y="0px"
	 viewBox="0 0 3710 3710" style="enable-background:new 0 0 3710 3710;" xml:space="preserve">
<style type="text/css">
	.st0{fill:url(#SVGID_1_);}
	.st1{fill:url(#SVGID_2_);}
	.st2{fill:#FFFFFF;}
	.st3{fill:url(#SVGID_3_);}
	.st4{fill:url(#SVGID_4_);}
	.st5{fill:url(#SVGID_5_);}
	.st6{fill:url(#SVGID_6_);}
	.st7{fill:url(#SVGID_7_);}
	.st8{fill:url(#SVGID_8_);}
	.st9{fill:url(#SVGID_9_);}
	.st10{fill:url(#SVGID_10_);}
	.st11{filter:url(#Adobe_OpacityMaskFilter);}
	.st12{filter:url(#Adobe_OpacityMaskFilter_1_);}
	.st13{mask:url(#SVGID_11_);fill:url(#SVGID_12_);}
	.st14{fill:url(#SVGID_13_);}
	.st15{fill:url(#SVGID_14_);}
	.st16{fill:url(#SVGID_15_);}
	.st17{fill:url(#SVGID_16_);}
	.st18{fill:url(#SVGID_17_);}
	.st19{fill:url(#SVGID_18_);}
	.st20{fill:url(#SVGID_19_);}
	.st21{fill:url(#SVGID_20_);}
	.st22{fill:url(#SVGID_21_);}
	.st23{fill:url(#SVGID_22_);}
	.st24{fill:url(#SVGID_23_);}
	.st25{fill:#91B3FA;}
	.st26{fill:url(#SVGID_24_);}
	.st27{fill:url(#SVGID_25_);}
	.st28{fill:url(#SVGID_26_);}
	.st29{fill:url(#SVGID_27_);}
	.st30{fill:url(#SVGID_28_);}
	.st31{fill:url(#SVGID_29_);}
	.st32{fill:url(#SVGID_30_);}
	.st33{fill:url(#SVGID_31_);}
	.st34{fill:url(#SVGID_32_);}
	.st35{fill:url(#SVGID_33_);}
	.st36{fill:url(#SVGID_34_);}
	.st37{fill:url(#SVGID_35_);}
	.st38{fill:url(#SVGID_36_);}
	.st39{fill:url(#SVGID_37_);}
	.st40{opacity:0.6;fill:#FFFFFF;}
	.st41{opacity:0.72;fill:#FFFFFF;}
	.st42{fill:url(#SVGID_38_);}
	.st43{fill:url(#SVGID_39_);}
	.st44{fill:url(#SVGID_40_);}
	.st45{fill:url(#SVGID_41_);}
	.st46{fill:url(#SVGID_42_);}
	.st47{fill:url(#SVGID_43_);}
	.st48{fill:url(#SVGID_44_);}
	.st49{fill:url(#SVGID_45_);}
	.st50{fill:url(#SVGID_46_);}
	.st51{fill:url(#SVGID_47_);}
	.st52{fill:url(#SVGID_48_);}
	.st53{fill:url(#SVGID_49_);}
	.st54{fill:url(#SVGID_50_);}
	.st55{fill:url(#SVGID_51_);}
	.st56{fill:url(#SVGID_52_);}
	.st57{fill:url(#SVGID_53_);}
	.st58{fill:url(#SVGID_54_);}
	.st59{fill:url(#SVGID_55_);}
	.st60{fill:url(#SVGID_56_);}
	.st61{fill:url(#SVGID_57_);}
	.st62{fill:url(#SVGID_58_);}
	.st63{fill:url(#SVGID_59_);}
	.st64{fill:url(#SVGID_60_);}
	.st65{fill:url(#SVGID_61_);}
	.st66{fill:url(#SVGID_62_);}
	.st67{fill:url(#SVGID_63_);}
	.st68{fill:url(#SVGID_64_);}
	.st69{fill:url(#SVGID_65_);}
	.st70{fill:url(#SVGID_66_);}
	.st71{fill:url(#SVGID_67_);}
	.st72{fill:url(#SVGID_68_);}
</style>
<g id="Background">
</g>
<g id="Illustration">
	<g>
		<linearGradient id="SVGID_1_" gradientUnits="userSpaceOnUse" x1="3529.303" y1="3711.3464" x2="1543.7301" y2="1597.6726">
			<stop  offset="0" style="stop-color:#DAE3FE"/>
			<stop  offset="1" style="stop-color:#E9EFFD"/>
		</linearGradient>
		<path class="st0" d="M2933.1,2863.3c-73.3,75.6-138.9,120-189.1,153.5c-489.7,327-1049.6,232.8-1222.6,200.5
			c-279.2-52-515-88.6-717.5-271.6C343.7,2530,366.1,1662.6,717.7,1125.4c41.7-63.7,392.8-584.2,953.8-657.5
			c13.7-1.8,24-2.8,32.9-3.8c86.8-9.2,624.6-57.7,1063.2,309.7c62.8,52.6,163.8,147.5,257.5,292.1
			C3367.7,1595,3368.8,2414.3,2933.1,2863.3z"/>
		<g>
			
				<linearGradient id="SVGID_2_" gradientUnits="userSpaceOnUse" x1="4777.9897" y1="2887.6235" x2="4762.7578" y2="1481.1986" gradientTransform="matrix(1.0001 -7.500000e-03 7.500000e-03 1.0001 -2112.355 643.9924)">
				<stop  offset="0" style="stop-color:#FF928E"/>
				<stop  offset="1" style="stop-color:#FE7062"/>
			</linearGradient>
			<path class="st1" d="M2083.3,2403.8l15.3,384.9c2.7,67.1,58.2,120.1,125.6,120l921.9-1.5c45.1-0.1,83.3-33.1,89.5-77.6
				c13.7-97.3,30.7-271.4,8.8-434.5L2083.3,2403.8z"/>
			<path class="st2" d="M2250.8,2886.7c-1.4,0-2.5-1.2-2.5-2.6c0-1.4,1.2-2.6,2.6-2.6l20.8,0c1.7-0.2,2.6,1.2,2.6,2.6
				c0,1.4-1.2,2.6-2.6,2.6L2250.8,2886.7C2250.8,2886.7,2250.8,2886.7,2250.8,2886.7z M2320.1,2886.6c-1.4,0-2.5-1.2-2.5-2.6
				c0-1.4,1.2-2.6,2.6-2.6l20.8,0c1.5-0.1,2.6,1.2,2.6,2.6c0,1.4-1.2,2.6-2.6,2.6L2320.1,2886.6
				C2320.1,2886.6,2320.1,2886.6,2320.1,2886.6z M2389.4,2886.4c-1.4,0-2.5-1.2-2.5-2.6c0-1.4,1.2-2.6,2.6-2.6l20.8,0
				c1.6,0.1,2.6,1.2,2.6,2.6c0,1.4-1.2,2.6-2.6,2.6L2389.4,2886.4C2389.4,2886.4,2389.4,2886.4,2389.4,2886.4z M2458.7,2886.3
				c-1.4,0-2.5-1.2-2.5-2.6c0-1.4,1.2-2.6,2.6-2.6l20.8,0c1.5,0.1,2.6,1.2,2.6,2.6c0,1.4-1.2,2.6-2.6,2.6L2458.7,2886.3
				C2458.8,2886.3,2458.7,2886.3,2458.7,2886.3z M2203.2,2879c-0.3,0-0.6-0.1-0.8-0.2c-6.6-2.5-13-5.6-19.1-9.2
				c-1.2-0.7-1.6-2.3-0.9-3.6c0.7-1.2,2.3-1.7,3.6-0.9c5.8,3.4,12,6.4,18.3,8.8c1.3,0.5,2,2,1.5,3.4
				C2205.3,2878.4,2204.3,2879.1,2203.2,2879z M2528,2886.2c-1.4,0-2.5-1.2-2.5-2.6c0-1.4,1.2-2.6,2.6-2.6l20.8,0
				c1.4,0,2.6,1.2,2.6,2.6c0,1.4-1.2,2.6-2.6,2.6L2528,2886.2C2528.1,2886.2,2528,2886.2,2528,2886.2z M2597.3,2886.1
				c-1.4,0-2.5-1.2-2.5-2.6c0-1.4,1.2-2.6,2.6-2.6l20.8,0c1.5-0.1,2.6,1.2,2.6,2.6c0,1.4-1.2,2.6-2.6,2.6L2597.3,2886.1
				C2597.4,2886.1,2597.3,2886.1,2597.3,2886.1z M2666.6,2886c-1.4,0-2.5-1.2-2.5-2.6c0-1.4,1.2-2.6,2.6-2.6l20.8,0
				c1.7-0.1,2.6,1.2,2.6,2.6c0,1.4-1.2,2.6-2.6,2.6L2666.6,2886C2666.7,2886,2666.7,2886,2666.6,2886z M2735.9,2885.9
				c-1.4,0-2.5-1.2-2.5-2.6c0-1.4,1.2-2.6,2.6-2.6l20.8,0c1.6-0.1,2.6,1.2,2.6,2.6c0,1.4-1.2,2.6-2.6,2.6L2735.9,2885.9
				C2736,2885.9,2736,2885.9,2735.9,2885.9z M2805.3,2885.8c-1.4,0-2.5-1.2-2.5-2.6c0-1.4,1.2-2.6,2.6-2.6l20.8,0
				c1.7,0.1,2.6,1.2,2.6,2.6c0,1.4-1.2,2.6-2.6,2.6L2805.3,2885.8C2805.3,2885.8,2805.3,2885.8,2805.3,2885.8z M2874.6,2885.6
				c-1.4,0-2.5-1.2-2.5-2.6c0-1.4,1.2-2.6,2.6-2.6l20.8,0c1.6,0.2,2.6,1.2,2.6,2.6c0,1.4-1.2,2.6-2.6,2.6L2874.6,2885.6
				C2874.6,2885.6,2874.6,2885.6,2874.6,2885.6z M2943.9,2885.5c-1.4,0-2.5-1.2-2.5-2.6c0-1.4,1.2-2.6,2.6-2.6l20.8,0
				c1.7,0.1,2.6,1.2,2.6,2.6c0,1.4-1.2,2.6-2.6,2.6L2943.9,2885.5C2943.9,2885.5,2943.9,2885.5,2943.9,2885.5z M3013.2,2885.4
				c-1.4,0-2.5-1.2-2.5-2.6c0-1.4,1.2-2.6,2.6-2.6l20.8,0c1.7-0.1,2.6,1.2,2.6,2.6c0,1.4-1.2,2.6-2.6,2.6L3013.2,2885.4
				C3013.2,2885.4,3013.2,2885.4,3013.2,2885.4z M3082.5,2885.3c-1.4,0-2.5-1.2-2.5-2.6c0-1.4,1.2-2.6,2.6-2.6l20.8,0
				c1.4-0.1,2.6,1.2,2.6,2.6c0,1.4-1.2,2.6-2.6,2.6L3082.5,2885.3C3082.5,2885.3,3082.5,2885.3,3082.5,2885.3z M3151.3,2880.4
				c-1,0-2-0.7-2.4-1.7c-0.5-1.4,0.2-2.8,1.6-3.3c6.4-2.2,12.4-5.2,18.1-8.9c1.2-0.8,2.8-0.4,3.6,0.8c0.8,1.2,0.4,2.8-0.8,3.6
				c-6,3.9-12.4,7.1-19.2,9.4C3151.9,2880.4,3151.6,2880.4,3151.3,2880.4z M2148.8,2837.7c-0.8,0-1.5-0.4-2-1.1
				c-4.2-5.7-7.9-11.8-11-18.2c-0.6-1.3-0.1-2.8,1.2-3.5c1.3-0.6,2.8-0.1,3.5,1.2c3,6.1,6.5,11.9,10.5,17.4c0.8,1.2,0.6,2.8-0.6,3.6
				C2149.9,2837.6,2149.3,2837.7,2148.8,2837.7z M3201.2,2835.1c-0.3,0-0.7-0.1-1-0.2c-1.3-0.6-1.9-2.1-1.3-3.4
				c2.8-6.1,4.8-12.6,6.1-19.2c0.3-1.4,1.6-2.3,3-2.1c1.4,0.3,2.3,1.6,2.1,3c-1.3,7-3.5,13.9-6.5,20.4
				C3203.2,2834.5,3202.2,2835.1,3201.2,2835.1z M2126.1,2773.3c-1.3,0-2.5-1.1-2.5-2.5l-0.8-20.8c-0.1-1.4,1.1-2.6,2.5-2.7
				c1.4-0.1,2.6,1.1,2.7,2.5l0.8,20.7c0.1,1.4-1,2.7-2.5,2.7C2126.2,2773.3,2126.1,2773.3,2126.1,2773.3z M3213.8,2767.2
				c-0.1,0-0.2,0-0.2,0c-1.4-0.2-2.4-1.5-2.3-2.9c0.8-6.7,1.6-13.6,2.3-20.6c0.2-1.4,1.5-2.5,2.9-2.3c1.4,0.2,2.5,1.4,2.3,2.9
				c-0.8,7.1-1.5,14-2.3,20.7C3216.3,2766.3,3215.1,2767.2,3213.8,2767.2z M2123.3,2704c-1.4,0-2.5-1.1-2.5-2.5l-0.8-20.8
				c-0.1-1.4,1.1-2.6,2.5-2.7c1.5-0.1,2.6,1.1,2.7,2.5l0.8,20.8c0.1,1.4-1.1,2.6-2.5,2.7C2123.4,2704,2123.4,2704,2123.3,2704z
				 M3220.6,2698.2c0,0-0.1,0-0.1,0c-1.4-0.1-2.5-1.4-2.4-2.8c0.6-6.8,1.1-13.7,1.6-20.7c0.1-1.4,1.5-2.5,2.8-2.4
				c1.4,0.1,2.5,1.3,2.4,2.8c-0.5,7-1,14-1.6,20.8C3223.2,2697.2,3222,2698.3,3220.6,2698.2z M2120.6,2634.8c-1.4,0-2.5-1.1-2.5-2.5
				l-0.8-20.8c-0.1-1.4,1.1-2.6,2.5-2.7c1.4-0.1,2.6,1.1,2.7,2.5l0.8,20.8c0.1,1.4-1.1,2.6-2.5,2.7
				C2120.7,2634.8,2120.6,2634.8,2120.6,2634.8z M3225,2629.1C3224.9,2629.1,3224.9,2629.1,3225,2629.1c-1.5-0.1-2.6-1.3-2.5-2.7
				c0.3-6.9,0.6-13.8,0.8-20.8c0-1.4,1.5-2.7,2.7-2.5c1.4,0,2.6,1.2,2.5,2.7c-0.2,7-0.5,13.9-0.8,20.8
				C3227.6,2628,3226.4,2629.1,3225,2629.1z M2117.8,2565.5c-1.4,0-2.5-1.1-2.5-2.5l-0.8-20.8c-0.1-1.4,1.1-2.6,2.5-2.7
				c1.4-0.1,2.6,1.1,2.7,2.5l0.8,20.8c0.1,1.4-1.1,2.6-2.5,2.7C2117.9,2565.5,2117.9,2565.5,2117.8,2565.5z M3226.5,2559.8
				c-1.4,0-2.5-1.2-2.5-2.6c0-6.9,0-13.8-0.1-20.7c0-1.4,1.1-2.6,2.6-2.6c1.3,0,2.6,1.1,2.6,2.6c0.1,7,0.1,13.9,0.1,20.8
				C3229.2,2558.6,3228,2559.8,3226.5,2559.8C3226.5,2559.8,3226.5,2559.8,3226.5,2559.8z M2115.1,2496.3c-1.4,0-2.5-1.1-2.5-2.5
				l-0.8-20.8c-0.1-1.4,1.1-2.6,2.5-2.7c1.4-0.1,2.6,1.1,2.7,2.5l0.8,20.8c0.1,1.4-1.1,2.6-2.5,2.7
				C2115.2,2496.3,2115.1,2496.3,2115.1,2496.3z M3224.8,2490.5c-1.3,0-2.5-1.1-2.5-2.5c-0.3-6.9-0.7-13.8-1.2-20.7
				c-0.1-1.4,1-2.7,2.4-2.8c1.5-0.1,2.7,1,2.8,2.4c0.5,6.9,0.9,13.9,1.2,20.8c0.1,1.4-1,2.7-2.5,2.7
				C3225,2490.5,3224.9,2490.5,3224.8,2490.5z M2112.3,2427c-1.4,0-2.5-1.1-2.5-2.5l-0.9-23.5l22.4-0.2c1.6,0.1,2.6,1.1,2.6,2.6
				c0,1.4-1.1,2.6-2.6,2.6l-17.1,0.1l0.7,18.1c0.1,1.4-1.1,2.6-2.5,2.7C2112.4,2427,2112.4,2427,2112.3,2427z M2179.8,2405.7
				c-1.4,0-2.5-1.2-2.5-2.6c0-1.4,1.1-2.6,2.6-2.6l20.8-0.2c1.7,0,2.6,1.1,2.6,2.6c0,1.4-1.1,2.6-2.6,2.6L2179.8,2405.7
				C2179.8,2405.7,2179.8,2405.7,2179.8,2405.7z M2249.1,2405.2c-1.4,0-2.5-1.2-2.5-2.6c0-1.4,1.1-2.6,2.6-2.6l20.8-0.2
				c1.5,0,2.6,1.1,2.6,2.6c0,1.4-1.1,2.6-2.6,2.6L2249.1,2405.2C2249.1,2405.2,2249.1,2405.2,2249.1,2405.2z M2318.4,2404.7
				c-1.4,0-2.5-1.2-2.5-2.6c0-1.4,1.1-2.6,2.6-2.6l20.8-0.2c1.5,0.1,2.6,1.1,2.6,2.6c0,1.4-1.1,2.6-2.6,2.6L2318.4,2404.7
				C2318.4,2404.7,2318.4,2404.7,2318.4,2404.7z M2387.7,2404.1c-1.4,0-2.5-1.2-2.5-2.6c0-1.4,1.1-2.6,2.6-2.6l20.8-0.2
				c1.6,0,2.6,1.1,2.6,2.6c0,1.4-1.1,2.6-2.6,2.6L2387.7,2404.1C2387.7,2404.1,2387.7,2404.1,2387.7,2404.1z M2457,2403.6
				c-1.4,0-2.5-1.2-2.5-2.6c0-1.4,1.1-2.6,2.6-2.6l20.8-0.2c1.6,0.2,2.6,1.1,2.6,2.6c0,1.4-1.1,2.6-2.6,2.6L2457,2403.6
				C2457,2403.6,2457,2403.6,2457,2403.6z M2526.3,2403.1c-1.4,0-2.5-1.2-2.5-2.6c0-1.4,1.1-2.6,2.6-2.6l20.8-0.2
				c1.6,0.1,2.6,1.1,2.6,2.6c0,1.4-1.1,2.6-2.6,2.6L2526.3,2403.1C2526.4,2403.1,2526.3,2403.1,2526.3,2403.1z M3219.4,2421.4
				c-1.3,0-2.4-1-2.5-2.3c-0.8-6.9-1.6-13.7-2.5-20.6c-0.2-1.4,0.8-2.7,2.2-2.9c1.4-0.2,2.7,0.8,2.9,2.2c0.9,6.9,1.7,13.8,2.5,20.7
				c0.2,1.4-0.9,2.7-2.3,2.9C3219.6,2421.4,3219.5,2421.4,3219.4,2421.4z M2595.6,2402.6c-1.4,0-2.5-1.2-2.5-2.6
				c0-1.4,1.1-2.6,2.6-2.6l20.8-0.2c1.5,0,2.6,1.1,2.6,2.6c0,1.4-1.1,2.6-2.6,2.6L2595.6,2402.6
				C2595.7,2402.6,2595.6,2402.6,2595.6,2402.6z M2664.9,2402.1c-1.4,0-2.5-1.2-2.5-2.6c0-1.4,1.1-2.6,2.6-2.6l20.8-0.2
				c1.7-0.1,2.6,1.1,2.6,2.6c0,1.4-1.1,2.6-2.6,2.6L2664.9,2402.1C2665,2402.1,2664.9,2402.1,2664.9,2402.1z M2734.2,2401.5
				c-1.4,0-2.5-1.2-2.5-2.6c0-1.4,1.1-2.6,2.6-2.6l20.8-0.2c1.5,0.1,2.6,1.1,2.6,2.6c0,1.4-1.1,2.6-2.6,2.6L2734.2,2401.5
				C2734.3,2401.5,2734.3,2401.5,2734.2,2401.5z M2803.5,2401c-1.4,0-2.5-1.2-2.5-2.6c0-1.4,1.1-2.6,2.6-2.6l20.8-0.2
				c1.6,0,2.6,1.1,2.6,2.6c0,1.4-1.1,2.6-2.6,2.6L2803.5,2401C2803.6,2401,2803.6,2401,2803.5,2401z M2872.8,2400.5
				c-1.4,0-2.5-1.2-2.5-2.6c0-1.4,1.1-2.6,2.6-2.6l20.8-0.2c1.6-0.1,2.6,1.1,2.6,2.6c0,1.4-1.1,2.6-2.6,2.6L2872.8,2400.5
				C2872.9,2400.5,2872.9,2400.5,2872.8,2400.5z M2942.2,2400c-1.4,0-2.5-1.2-2.5-2.6c0-1.4,1.1-2.6,2.6-2.6l20.8-0.2
				c1.4,0,2.6,1.1,2.6,2.6c0,1.4-1.1,2.6-2.6,2.6L2942.2,2400C2942.2,2400,2942.2,2400,2942.2,2400z M3011.5,2399.4
				c-1.4,0-2.5-1.2-2.5-2.6c0-1.4,1.1-2.6,2.6-2.6l20.8-0.2c1.6,0,2.6,1.1,2.6,2.6c0,1.4-1.1,2.6-2.6,2.6L3011.5,2399.4
				C3011.5,2399.5,3011.5,2399.4,3011.5,2399.4z M3080.8,2398.9c-1.4,0-2.5-1.2-2.5-2.6c0-1.4,1.1-2.6,2.6-2.6l20.8-0.2
				c1.6-0.1,2.6,1.1,2.6,2.6c0,1.4-1.1,2.6-2.6,2.6L3080.8,2398.9C3080.8,2398.9,3080.8,2398.9,3080.8,2398.9z M3150.1,2398.4
				c-1.4,0-2.5-1.2-2.5-2.6c0-1.4,1.1-2.6,2.6-2.6l20.8-0.2c1.7,0.2,2.6,1.1,2.6,2.6c0,1.4-1.1,2.6-2.6,2.6L3150.1,2398.4
				C3150.1,2398.4,3150.1,2398.4,3150.1,2398.4z"/>
			
				<linearGradient id="SVGID_3_" gradientUnits="userSpaceOnUse" x1="4534.7065" y1="1588.5616" x2="4527.937" y2="1424.3938" gradientTransform="matrix(1.0001 -7.500000e-03 7.500000e-03 1.0001 -2112.355 643.9924)">
				<stop  offset="0" style="stop-color:#E1473D"/>
				<stop  offset="1" style="stop-color:#E9605A"/>
			</linearGradient>
			<path class="st3" d="M2351.3,2122.4l2.5-29.7c3.1-7.1,9.5-12.2,17.2-13.5c28.7-4.8,99.8-13.4,134.3,12l5.4,34.5L2351.3,2122.4z"
				/>
			
				<linearGradient id="SVGID_4_" gradientUnits="userSpaceOnUse" x1="4526.1328" y1="1342.078" x2="4559.9834" y2="1812.6033" gradientTransform="matrix(1.0001 -7.500000e-03 7.500000e-03 1.0001 -2112.355 643.9924)">
				<stop  offset="0" style="stop-color:#E1473D"/>
				<stop  offset="1" style="stop-color:#E9605A"/>
			</linearGradient>
			<path class="st4" d="M2440.8,2093.1c-6.6,1.7-13.2,1.7-19.9,0.1c-8-1.9-13.8-9.1-13.8-17.3l-0.7-93l47.3-0.4l0.7,92.9
				C2454.5,2083.8,2448.9,2091.1,2440.8,2093.1z"/>
			
				<linearGradient id="SVGID_5_" gradientUnits="userSpaceOnUse" x1="4992.104" y1="1569.6875" x2="4985.3345" y2="1405.52" gradientTransform="matrix(1.0001 -7.500000e-03 7.500000e-03 1.0001 -2112.355 643.9924)">
				<stop  offset="0" style="stop-color:#E1473D"/>
				<stop  offset="1" style="stop-color:#E9605A"/>
			</linearGradient>
			<path class="st5" d="M2809.6,2118.9l2.5-29.7c3.1-7.1,9.5-12.2,17.2-13.5c28.7-4.8,99.8-13.4,134.3,12l5.4,34.5L2809.6,2118.9z"
				/>
			
				<linearGradient id="SVGID_6_" gradientUnits="userSpaceOnUse" x1="4982.2998" y1="1309.2485" x2="5016.1504" y2="1779.7708" gradientTransform="matrix(1.0001 -7.500000e-03 7.500000e-03 1.0001 -2112.355 643.9924)">
				<stop  offset="0" style="stop-color:#E1473D"/>
				<stop  offset="1" style="stop-color:#E9605A"/>
			</linearGradient>
			<path class="st6" d="M2899.1,2089.7c-6.6,1.7-13.2,1.7-19.9,0.1c-8-1.9-13.8-9.1-13.8-17.3l-0.8-102.8l47.3-0.4l0.8,102.7
				C2912.7,2080.3,2907.1,2087.6,2899.1,2089.7z"/>
			<linearGradient id="SVGID_7_" gradientUnits="userSpaceOnUse" x1="2773.2998" y1="1804.5027" x2="2377.2305" y2="2300.4495">
				<stop  offset="0" style="stop-color:#FF928E"/>
				<stop  offset="1" style="stop-color:#FE7062"/>
			</linearGradient>
			<path class="st7" d="M2401.8,2005.8l508.6-20.7c11.6-0.5,21.4-8.9,23.3-20.3c2.7-15.9,4.9-39.8,1.1-64.5
				c-4.4-28.1-28.7-48.8-57.3-49.2c-94.9-1.5-336.6,0.3-469.3,54c-14,5.7-24.4,17.8-27.9,32.5c-3.3,14-5.4,32.7-0.8,51.7
				C2382,1999.3,2391.4,2006.2,2401.8,2005.8z"/>
			<linearGradient id="SVGID_8_" gradientUnits="userSpaceOnUse" x1="2466.6042" y1="1944.3756" x2="2514.084" y2="1666.2809">
				<stop  offset="0" style="stop-color:#FEBBBA"/>
				<stop  offset="1" style="stop-color:#FF928E"/>
			</linearGradient>
			<path class="st8" d="M2392.6,1984.1c-3.4-0.1-6.3-2.7-6.7-6.2c-0.1-0.8-2.2-20.8,2.9-40.1c4.1-15.6,16.3-28.2,31.9-32.9
				c28.5-8.6,83-23.3,127.8-24.8c3.8-0.1,7,2.8,7.2,6.7c0.1,3.8-2.9,7-6.7,7.2c-43.2,1.5-96.4,15.9-124.3,24.3
				c-11,3.3-19.6,12.2-22.4,23.1c-4.4,16.7-2.5,34.9-2.5,35.1c0.4,3.8-2.3,7.2-6.1,7.6C2393.2,1984.1,2392.9,1984.1,2392.6,1984.1z"
				/>
			<linearGradient id="SVGID_9_" gradientUnits="userSpaceOnUse" x1="2603.1016" y1="2593.835" x2="2734.2361" y2="2044.4279">
				<stop  offset="0" style="stop-color:#FF928E"/>
				<stop  offset="1" style="stop-color:#FE7062"/>
			</linearGradient>
			<path class="st9" d="M2115.2,2112.6c164.4-3.3,875.3-16.2,1082.1,7.2c17.8,2,32.4,14.9,36.4,32.3
				c12.6,55.1,38.1,183.1,36.2,310.1c-0.3,17.3-12.8,32-29.9,35.3l-470.8,92.7l-167.5,1.3l-503.1-96.1c-17.7-3.4-30.9-18.3-32-36.2
				c-3.7-63.9-10-213.8,6.6-310.5C2076.7,2128.2,2094.3,2113,2115.2,2112.6z"/>
			<path class="st2" d="M2605.3,2553.5c-0.1,0-0.3,0-0.4,0l-20.4-3.9c-1.4-0.3-2.3-1.6-2.1-3c0.3-1.4,1.6-2.3,3-2.1l20.4,3.9
				c1.4,0.3,2.3,1.6,2.1,3C2607.7,2552.6,2606.6,2553.5,2605.3,2553.5z M2635.2,2553.3c-1.4,0-2.5-1.2-2.5-2.6
				c0-1.4,1.1-2.6,2.6-2.6l20.8-0.2c1.4,0.1,2.6,1.1,2.6,2.6c0,1.4-1.1,2.6-2.6,2.6L2635.2,2553.3
				C2635.3,2553.3,2635.2,2553.3,2635.2,2553.3z M2704.5,2552.7c-1.4,0-2.5-1.2-2.5-2.6c0-1.4,1.1-2.6,2.6-2.6l20.8-0.2
				c1.6-0.1,2.6,1.1,2.6,2.6c0,1.4-1.1,2.6-2.6,2.6L2704.5,2552.7C2704.6,2552.7,2704.6,2552.7,2704.5,2552.7z M2773.7,2550.6
				c-1.2,0-2.2-0.9-2.5-2.1c-0.3-1.4,0.6-2.8,2-3.1l20.4-4c1.4-0.3,2.8,0.6,3.1,2.1c0.3,1.4-0.6,2.8-2,3.1l-20.4,4
				C2774.1,2550.6,2773.9,2550.6,2773.7,2550.6z M2537.2,2540.5c-0.1,0-0.3,0-0.4,0l-20.4-3.9c-1.4-0.3-2.3-1.6-2.1-3
				c0.3-1.4,1.6-2.3,3-2.1l20.4,3.9c1.4,0.3,2.3,1.6,2.1,3C2539.6,2539.6,2538.5,2540.5,2537.2,2540.5z M2469.2,2527.5
				c-0.1,0-0.3,0-0.4,0l-20.4-3.9c-1.4-0.3-2.3-1.6-2.1-3s1.6-2.3,3-2.1l20.4,3.9c1.4,0.3,2.3,1.6,2.1,3
				C2471.5,2526.6,2470.4,2527.5,2469.2,2527.5z M2841.7,2537.2c-1.2,0-2.2-0.9-2.5-2.1c-0.3-1.4,0.6-2.8,2-3.1l20.4-4
				c1.4-0.3,2.8,0.6,3.1,2.1c0.3,1.4-0.6,2.8-2,3.1l-20.4,4C2842.1,2537.2,2841.9,2537.2,2841.7,2537.2z M2401.1,2514.5
				c-0.1,0-0.3,0-0.4,0l-20.4-3.9c-1.4-0.3-2.3-1.6-2.1-3c0.3-1.4,1.6-2.3,3-2.1l20.4,3.9c1.4,0.3,2.3,1.6,2.1,3
				C2403.5,2513.6,2402.3,2514.5,2401.1,2514.5z M2909.7,2523.8c-1.2,0-2.2-0.9-2.5-2.1c-0.3-1.4,0.6-2.8,2-3.1l20.4-4
				c1.4-0.3,2.8,0.6,3.1,2.1c0.3,1.4-0.6,2.8-2,3.1l-20.4,4C2910.1,2523.8,2909.9,2523.8,2909.7,2523.8z M2333,2501.5
				c-0.1,0-0.3,0-0.4,0l-20.4-3.9c-1.4-0.3-2.3-1.6-2.1-3c0.3-1.4,1.6-2.3,3-2.1l20.4,3.9c1.4,0.3,2.3,1.6,2.1,3
				C2335.4,2500.6,2334.3,2501.5,2333,2501.5z M2977.7,2510.4c-1.2,0-2.2-0.9-2.5-2.1c-0.3-1.4,0.6-2.8,2-3.1l20.4-4
				c1.4-0.3,2.8,0.6,3.1,2.1s-0.6,2.8-2,3.1l-20.4,4C2978.1,2510.4,2977.9,2510.4,2977.7,2510.4z M2264.9,2488.5c-0.1,0-0.3,0-0.4,0
				l-20.4-3.9c-1.4-0.3-2.3-1.6-2.1-3s1.6-2.3,3-2.1l20.4,3.9c1.4,0.3,2.3,1.6,2.1,3C2267.3,2487.6,2266.2,2488.5,2264.9,2488.5z
				 M2196.8,2475.5c-0.1,0-0.3,0-0.4,0l-20.4-3.9c-1.4-0.3-2.3-1.6-2.1-3c0.3-1.4,1.6-2.3,3-2.1l20.4,3.9c1.4,0.3,2.3,1.6,2.1,3
				C2199.2,2474.6,2198.1,2475.5,2196.8,2475.5z M3045.7,2497c-1.2,0-2.2-0.9-2.5-2.1c-0.3-1.4,0.6-2.8,2-3.1l20.4-4
				c1.4-0.3,2.8,0.6,3.1,2.1c0.3,1.4-0.6,2.8-2,3.1l-20.4,4C3046.1,2497,3045.9,2497,3045.7,2497z M2128.8,2462.5
				c-0.1,0-0.3,0-0.4,0l-20.4-3.9c-1.4-0.3-2.3-1.6-2.1-3c0.3-1.4,1.6-2.3,3-2.1l20.4,3.9c1.4,0.3,2.3,1.6,2.1,3
				C2131.1,2461.6,2130,2462.5,2128.8,2462.5z M3113.7,2483.6c-1.2,0-2.2-0.9-2.5-2.1c-0.3-1.4,0.6-2.8,2-3.1l20.4-4
				c1.4-0.3,2.8,0.6,3.1,2.1c0.3,1.4-0.6,2.8-2,3.1l-20.4,4C3114.1,2483.6,3113.9,2483.6,3113.7,2483.6z M3181.7,2470.2
				c-1.2,0-2.2-0.9-2.5-2.1c-0.3-1.4,0.6-2.8,2-3.1l20.4-4c1.4-0.3,2.8,0.6,3,2.1c0.3,1.4-0.6,2.8-2,3.1l-20.4,4
				C3182.1,2470.2,3181.9,2470.2,3181.7,2470.2z M2104.8,2411.2c-1.4,0-2.5-1.1-2.5-2.5c-0.3-6.6-0.5-13.6-0.7-20.8
				c0-1.4,1.1-2.6,2.5-2.7c1.5-0.2,2.6,1.1,2.7,2.5c0.2,7.2,0.5,14.1,0.7,20.8c0.1,1.4-1.1,2.6-2.5,2.7
				C2104.9,2411.2,2104.8,2411.2,2104.8,2411.2z M3229.2,2439.9c-1.4,0-2.5-1.2-2.5-2.6c-0.1-6.9-0.2-13.8-0.5-20.7
				c0-1.4,1.1-2.6,2.5-2.7c1.4-0.1,2.6,1.1,2.7,2.5c0.2,6.9,0.4,13.9,0.5,20.8c0,1.4-1.1,2.6-2.6,2.6
				C3229.3,2439.9,3229.2,2439.9,3229.2,2439.9z M2103,2341.8c-1.4,0-2.5-1.2-2.5-2.6c-0.1-6.9-0.1-13.8-0.1-20.8
				c0-1.4,1.2-2.6,2.6-2.6c1.4,0.2,2.6,1.2,2.6,2.6c0,7,0,13.9,0.1,20.8c0,1.4-1.1,2.6-2.6,2.6C2103,2341.8,2103,2341.8,2103,2341.8
				z M3226,2370.7c-1.3,0-2.4-1.1-2.5-2.4c-0.5-7-1.1-13.9-1.8-20.7c-0.1-1.4,0.9-2.7,2.3-2.8c1.4-0.2,2.7,0.9,2.8,2.3
				c0.7,6.9,1.3,13.8,1.8,20.8c0.1,1.4-1,2.7-2.4,2.8C3226.2,2370.7,3226.1,2370.7,3226,2370.7z M2103.5,2272.5L2103.5,2272.5
				c-1.4,0-2.6-1.2-2.5-2.7c0.2-7,0.4-13.9,0.7-20.8c0.1-1.4,1-2.7,2.7-2.5c1.4,0.1,2.5,1.3,2.5,2.7c-0.3,6.9-0.5,13.8-0.7,20.7
				C2106.1,2271.4,2104.9,2272.6,2103.5,2272.5z M3218.7,2301.8c-1.3,0-2.3-1-2.5-2.3c-0.9-7-1.9-13.9-2.9-20.6
				c-0.2-1.4,0.8-2.7,2.2-2.9c1.4-0.2,2.7,0.8,2.9,2.2c1,6.7,1.9,13.6,2.9,20.6c0.2,1.4-0.8,2.7-2.2,2.9
				C3219,2301.8,3218.8,2301.8,3218.7,2301.8z M3208.1,2233.2c-1.2,0-2.3-0.9-2.5-2.1c-1.3-7.1-2.5-14-3.8-20.4
				c-0.3-1.4,0.7-2.8,2.1-3c1.4-0.3,2.8,0.6,3,2.1c1.2,6.5,2.5,13.3,3.8,20.5c0.3,1.4-0.7,2.8-2.1,3
				C3208.4,2233.2,3208.3,2233.2,3208.1,2233.2z M2107.4,2203.3c-0.1,0-0.1,0-0.2,0c-1.4-0.1-2.5-1.4-2.3-2.8
				c0.6-7.1,1.4-14,2.2-20.8c0.2-1.4,1.5-2.4,2.9-2.3c1.4,0.2,2.4,1.5,2.3,2.9c-0.8,6.7-1.6,13.6-2.2,20.6
				C2110,2202.3,2108.8,2203.4,2107.4,2203.3z M2135.8,2155.4c-1.4,0-2.5-1.2-2.5-2.5c0-1.4,1.1-2.6,2.5-2.7l20.8-0.4
				c1.4,0,2.6,1.1,2.6,2.5c0,1.4-1.1,2.6-2.5,2.7l-20.8,0.4C2135.9,2155.4,2135.8,2155.4,2135.8,2155.4z M2205.1,2154.1
				c-1.4,0-2.5-1.2-2.5-2.6c0-1.4,1.1-2.6,2.6-2.6l20.8-0.4c1.3,0,2.6,1.1,2.6,2.6c0,1.4-1.1,2.6-2.6,2.6l-20.8,0.4
				C2205.2,2154.1,2205.2,2154.1,2205.1,2154.1z M2274.4,2153c-1.4,0-2.5-1.2-2.5-2.6c0-1.4,1.1-2.6,2.6-2.6l20.8-0.3
				c1.4,0,2.6,1.1,2.6,2.6c0,1.4-1.1,2.6-2.6,2.6l-20.8,0.3C2274.5,2153,2274.5,2153,2274.4,2153z M2343.8,2152
				c-1.4,0-2.5-1.2-2.5-2.6c0-1.4,1.1-2.6,2.6-2.6l20.8-0.3c1.3,0.1,2.6,1.1,2.6,2.6c0,1.4-1.1,2.6-2.6,2.6l-20.8,0.3
				C2343.9,2152,2343.8,2152,2343.8,2152z M2413.1,2151.1c-1.4,0-2.5-1.2-2.5-2.6c0-1.4,1.1-2.6,2.6-2.6l20.8-0.2
				c1.6,0.1,2.6,1.1,2.6,2.6c0,1.4-1.1,2.6-2.6,2.6L2413.1,2151.1C2413.2,2151.1,2413.1,2151.1,2413.1,2151.1z M2482.4,2150.4
				c-1.4,0-2.5-1.2-2.5-2.6c0-1.4,1.1-2.6,2.6-2.6l20.8-0.2c1.4,0.1,2.6,1.1,2.6,2.6c0,1.4-1.1,2.6-2.6,2.6L2482.4,2150.4
				C2482.5,2150.4,2482.5,2150.4,2482.4,2150.4z M2551.8,2149.8c-1.4,0-2.5-1.2-2.5-2.6c0-1.4,1.1-2.6,2.6-2.6l20.8-0.1
				c1.6,0,2.6,1.2,2.6,2.6c0,1.4-1.1,2.6-2.6,2.6L2551.8,2149.8C2551.8,2149.8,2551.8,2149.8,2551.8,2149.8z M3194.3,2165.3
				c-1.2,0-2.2-0.8-2.5-2l-0.1-0.6c-5.2-0.6-10.7-1.1-16.6-1.7c-1.4-0.1-2.5-1.4-2.4-2.8c0.1-1.4,1.5-2.6,2.8-2.3
				c6.2,0.6,12,1.2,17.4,1.8c1.8,0.2,3.2,1.4,3.6,3l0.4,1.6c0.3,1.4-0.6,2.8-2,3.1C3194.8,2165.2,3194.6,2165.3,3194.3,2165.3z
				 M3192.4,2162.7L3192.4,2162.7L3192.4,2162.7z M2621.1,2149.4c-1.4,0-2.5-1.2-2.5-2.6c0-1.4,1.2-2.6,2.6-2.6l20.8-0.1
				c1.6,0.2,2.6,1.2,2.6,2.6c0,1.4-1.2,2.6-2.6,2.6L2621.1,2149.4C2621.1,2149.4,2621.1,2149.4,2621.1,2149.4z M2690.4,2149.3
				c-1.4,0-2.5-1.2-2.5-2.6c0-1.4,1.2-2.6,2.6-2.6l20.8,0c1.4,0.1,2.6,1.2,2.6,2.6c0,1.4-1.2,2.6-2.6,2.6L2690.4,2149.3
				C2690.4,2149.3,2690.4,2149.3,2690.4,2149.3z M2759.7,2149.3c-1.4,0-2.5-1.2-2.5-2.6c0-1.4,1.2-2.6,2.6-2.6l20.8,0.1
				c0,0,0,0,0.1,0c1.4,0,2.5,1.2,2.5,2.6c0,1.4-1.2,2.6-2.6,2.6L2759.7,2149.3C2759.7,2149.3,2759.7,2149.3,2759.7,2149.3z
				 M2829,2149.7c-1.4,0-2.5-1.2-2.5-2.6c0-1.4,1.2-2.6,2.6-2.6l20.8,0.2c1.7,0.2,2.6,1.2,2.6,2.6c0,1.4-1.2,2.6-2.6,2.6
				L2829,2149.7C2829,2149.7,2829,2149.7,2829,2149.7z M3126.9,2157.4C3126.9,2157.4,3126.9,2157.4,3126.9,2157.4
				c-6.7-0.4-13.6-0.8-20.8-1.1c-1.4-0.1-2.5-1.3-2.5-2.7c0.1-1.4,1.2-2.6,2.7-2.5c7.2,0.4,14.1,0.8,20.8,1.1
				c1.4,0.1,2.5,1.3,2.4,2.7C3129.5,2156.4,3128.3,2157.5,3126.9,2157.4z M2898.3,2150.4c-1.4,0-2.5-1.2-2.5-2.6
				c0-1.4,1.2-2.6,2.6-2.6c7,0.1,14,0.2,20.8,0.3c0,0,0,0,0,0c1.4,0,2.6,1.2,2.5,2.6c0,1.4-1.2,2.6-2.6,2.6
				C2912.3,2150.6,2905.4,2150.5,2898.3,2150.4C2898.3,2150.4,2898.3,2150.4,2898.3,2150.4z M3057.7,2154.2
				C3057.7,2154.2,3057.7,2154.2,3057.7,2154.2c-6.8-0.2-13.7-0.5-20.8-0.7c-1.4,0-2.6-1.2-2.5-2.7c0-1.4,1.2-2.6,2.7-2.5
				c0,0,0,0,0,0c7.1,0.2,14,0.5,20.8,0.7c1.4,0.1,2.6,1.3,2.5,2.7C3060.3,2153.1,3059.1,2154.2,3057.7,2154.2z M2967.6,2151.6
				c-1.4,0-2.6-1.2-2.5-2.7c0-1.4,1.2-2.6,2.7-2.5c7.1,0.1,14,0.3,20.8,0.5c0,0,0,0,0,0c1.4,0,2.6,1.2,2.5,2.7
				c0,1.4-1.2,2.6-2.7,2.5C2981.6,2151.9,2974.7,2151.8,2967.6,2151.6C2967.6,2151.6,2967.6,2151.6,2967.6,2151.6z"/>
			<linearGradient id="SVGID_10_" gradientUnits="userSpaceOnUse" x1="3171.8013" y1="1873.0007" x2="2812.3132" y2="2361.3618">
				<stop  offset="0" style="stop-color:#E1473D"/>
				<stop  offset="1" style="stop-color:#E9605A"/>
			</linearGradient>
			<path class="st10" d="M2753.9,2660.7l-146.7,1.1c-19.2,0.1-35.5-14-38-33l-18-141.1c-2.9-22.5,14.6-42.4,37.4-42.6l176.3-1.3
				c22.3-0.2,39.9,18.7,38.1,40.8l-11.5,141.3C2789.9,2645.5,2773.6,2660.6,2753.9,2660.7z"/>
			<defs>
				<filter id="Adobe_OpacityMaskFilter" filterUnits="userSpaceOnUse" x="2581.2" y="2469.8" width="192" height="165.9">
					<feFlood  style="flood-color:white;flood-opacity:1" result="back"/>
					<feBlend  in="SourceGraphic" in2="back" mode="normal"/>
				</filter>
			</defs>
			<mask maskUnits="userSpaceOnUse" x="2581.2" y="2469.8" width="192" height="165.9" id="SVGID_11_">
				<g class="st11">
					<defs>
						<filter id="Adobe_OpacityMaskFilter_1_" filterUnits="userSpaceOnUse" x="2581.2" y="2469.8" width="192" height="165.9">
							<feFlood  style="flood-color:white;flood-opacity:1" result="back"/>
							<feBlend  in="SourceGraphic" in2="back" mode="normal"/>
						</filter>
					</defs>
					<mask maskUnits="userSpaceOnUse" x="2581.2" y="2469.8" width="192" height="165.9" id="SVGID_11_">
						<g class="st12">
						</g>
					</mask>
					
						<linearGradient id="SVGID_12_" gradientUnits="userSpaceOnUse" x1="4678.8955" y1="1944.4525" x2="4870.8345" y2="1944.4525" gradientTransform="matrix(1.0001 -7.500000e-03 7.500000e-03 1.0001 -2112.355 643.9924)">
						<stop  offset="0" style="stop-color:#FFFFFF"/>
						<stop  offset="1" style="stop-color:#000000"/>
					</linearGradient>
					<path class="st13" d="M2735.7,2634.9l-111.7,0.8c-14.6,0.1-27-10.7-28.9-25.1l-13.7-107.4c-2.2-17.1,11.1-32.3,28.5-32.4
						l134.2-1c17-0.1,30.4,14.3,29,31.1l-8.8,107.5C2763.1,2623.3,2750.7,2634.8,2735.7,2634.9z"/>
				</g>
			</mask>
			<linearGradient id="SVGID_13_" gradientUnits="userSpaceOnUse" x1="2581.188" y1="2552.7795" x2="2773.1477" y2="2552.7795">
				<stop  offset="0" style="stop-color:#FF928E"/>
				<stop  offset="1" style="stop-color:#FE7062"/>
			</linearGradient>
			<path class="st14" d="M2735.7,2634.9l-111.7,0.8c-14.6,0.1-27-10.7-28.9-25.1l-13.7-107.4c-2.2-17.1,11.1-32.3,28.5-32.4l134.2-1
				c17-0.1,30.4,14.3,29,31.1l-8.8,107.5C2763.1,2623.3,2750.7,2634.8,2735.7,2634.9z"/>
		</g>
		<g>
			<linearGradient id="SVGID_14_" gradientUnits="userSpaceOnUse" x1="3025.5945" y1="-630.4538" x2="878.6301" y2="2717.1787">
				<stop  offset="0" style="stop-color:#09005D"/>
				<stop  offset="1" style="stop-color:#1A0F91"/>
			</linearGradient>
			<path class="st15" d="M2299.9,2865.3c-3.8,69.1-66.5,124.1-140.2,124.1H882.2c-73.9,0-136-55.1-138.7-124.4L658.9,721.5
				c-3.5-89.3,62.4-162,147.3-161.7l1467.6,4.8c84.5,0.3,149,73.1,144.1,162.1L2299.9,2865.3z"/>
			<linearGradient id="SVGID_15_" gradientUnits="userSpaceOnUse" x1="703.8339" y1="1780.7849" x2="2378.5559" y2="1780.7849">
				<stop  offset="0" style="stop-color:#4F52FF"/>
				<stop  offset="1" style="stop-color:#4042E2"/>
			</linearGradient>
			<path class="st16" d="M2274.3,610l-1464-4.7c-61.1-0.2-108.8,52.2-106.4,116.6l79.4,2143.7c1.9,50.1,46.7,90.5,100.2,90.5
				l1280.2,0.1c53.3,0,98.6-40.3,101.2-90.3L2378.4,727C2381.8,662.8,2335.2,610.2,2274.3,610z"/>
			<g>
				<linearGradient id="SVGID_16_" gradientUnits="userSpaceOnUse" x1="887.2443" y1="721.939" x2="875.5814" y2="826.457">
					<stop  offset="0" style="stop-color:#4F52FF"/>
					<stop  offset="1" style="stop-color:#4042E2"/>
				</linearGradient>
				<path class="st17" d="M937.8,765.7c0.8,32.2-23.3,58.2-53.8,58.1c-30.5-0.1-56.1-26.2-57-58.4c-1-32.3,23.1-58.5,53.8-58.4
					C911.5,707,937,733.4,937.8,765.7z"/>
				<linearGradient id="SVGID_17_" gradientUnits="userSpaceOnUse" x1="2204.7866" y1="725.5995" x2="2193.0552" y2="830.7306">
					<stop  offset="0" style="stop-color:#4F52FF"/>
					<stop  offset="1" style="stop-color:#4042E2"/>
				</linearGradient>
				<path class="st18" d="M2255.1,769.6c-1.5,32.1-27.4,58-57.8,58c-30.4-0.1-54-26.1-52.7-58.3c1.3-32.3,27.2-58.4,57.8-58.3
					C2233.1,711,2256.6,737.3,2255.1,769.6z"/>
			</g>
			<g>
				<linearGradient id="SVGID_18_" gradientUnits="userSpaceOnUse" x1="942.8353" y1="2788.595" x2="933.6" y2="2871.3569">
					<stop  offset="0" style="stop-color:#4F52FF"/>
					<stop  offset="1" style="stop-color:#4042E2"/>
				</linearGradient>
				<path class="st19" d="M988.3,2823.1c0.6,25.5-20.9,46-48,46c-27.1,0-49.8-20.6-50.5-46.1c-0.8-25.5,20.7-46.3,48-46.3
					C965,2776.8,987.7,2797.6,988.3,2823.1z"/>
				<linearGradient id="SVGID_19_" gradientUnits="userSpaceOnUse" x1="2114.3633" y1="2788.6436" x2="2105.0706" y2="2871.9209">
					<stop  offset="0" style="stop-color:#4F52FF"/>
					<stop  offset="1" style="stop-color:#4042E2"/>
				</linearGradient>
				<path class="st20" d="M2159.6,2823.4c-1.2,25.4-24.1,46-51.1,46c-27.1,0-48.2-20.6-47.1-46c1-25.5,23.9-46.2,51.1-46.2
					C2139.7,2777.1,2160.8,2797.9,2159.6,2823.4z"/>
			</g>
			<g>
				<linearGradient id="SVGID_20_" gradientUnits="userSpaceOnUse" x1="2234.9321" y1="-431.8814" x2="1807.637" y2="621.0943">
					<stop  offset="0" style="stop-color:#4F52FF"/>
					<stop  offset="1" style="stop-color:#4042E2"/>
				</linearGradient>
				<path class="st21" d="M1907.2,1296.1c-5.9,206.8-172.7,370.7-372.7,370.3c-200.1-0.4-364.5-165-367.1-372
					c-2.6-211.9,164.4-386.8,373.2-386.3C1749.2,908.7,1913.2,1084.4,1907.2,1296.1z"/>
				<linearGradient id="SVGID_21_" gradientUnits="userSpaceOnUse" x1="1564.0237" y1="1050.9862" x2="1499.9139" y2="1625.5068">
					<stop  offset="0" style="stop-color:#09005D"/>
					<stop  offset="1" style="stop-color:#1A0F91"/>
				</linearGradient>
				<path class="st22" d="M1849.3,1295.9c-4.4,174.7-145.1,313.6-314.3,313.3c-169.3-0.3-307.9-139.9-309.6-314.7
					c-1.7-178.3,139.3-325.2,314.7-324.7C1715.5,970.3,1853.8,1117.7,1849.3,1295.9z"/>
				<linearGradient id="SVGID_22_" gradientUnits="userSpaceOnUse" x1="1876.4966" y1="131.3839" x2="1515.3302" y2="1367.4856">
					<stop  offset="0" style="stop-color:#4F52FF"/>
					<stop  offset="1" style="stop-color:#4042E2"/>
				</linearGradient>
				<path class="st23" d="M1777.9,1295.8c-2.9,135-111.4,242.8-242.4,242.6c-131.1-0.3-237.9-108.5-238.6-243.6
					c-0.7-137.2,107.9-249.6,242.6-249.3C1674.2,1045.7,1780.9,1158.7,1777.9,1295.8z"/>
				<linearGradient id="SVGID_23_" gradientUnits="userSpaceOnUse" x1="1546.835" y1="1210.7429" x2="1524.3214" y2="1412.4989">
					<stop  offset="0" style="stop-color:#09005D"/>
					<stop  offset="1" style="stop-color:#1A0F91"/>
				</linearGradient>
				<path class="st24" d="M1647.1,1295.5c-0.9,61.8-50.3,111.5-110.5,111.3c-60.1-0.1-108.8-50-108.7-111.8
					c0.1-62.2,49.6-112.9,110.5-112.7C1599.3,1182.4,1647.9,1233.3,1647.1,1295.5z"/>
				<g>
					<path class="st25" d="M1468.9,1295.9c-2.6,0-4.6-2.1-4.6-4.7c0.2-42.3,34-76.9,75.4-76.8c2.5,0,5,0.1,7.4,0.4
						c2.6,0.3,4.4,2.6,4.1,5.2c-0.3,2.6-2.5,4.5-5.1,4.3c-2.1-0.2-4.3-0.3-6.5-0.3c-36.3-0.1-65.9,30.1-66.1,67.2
						C1473.5,1293.7,1471.5,1295.9,1468.9,1295.9z"/>
				</g>
			</g>
			<g>
				<linearGradient id="SVGID_24_" gradientUnits="userSpaceOnUse" x1="968.4057" y1="3841.1294" x2="1477.0902" y2="2406.6382">
					<stop  offset="0" style="stop-color:#4F52FF"/>
					<stop  offset="1" style="stop-color:#4042E2"/>
				</linearGradient>
				<path class="st26" d="M2040.1,2274.3c-10.2,268.8-240.3,480.5-514.3,480.4c-274.2-0.1-501.3-212.2-507.3-481.4
					c-6.1-278,224.6-509.7,515.2-509.2C1824.1,1764.5,2050.6,1996.7,2040.1,2274.3z"/>
				<linearGradient id="SVGID_25_" gradientUnits="userSpaceOnUse" x1="1564.2513" y1="1951.6393" x2="1480.4318" y2="2702.7896">
					<stop  offset="0" style="stop-color:#09005D"/>
					<stop  offset="1" style="stop-color:#1A0F91"/>
				</linearGradient>
				<path class="st27" d="M1960.2,2274.2c-7.6,227.3-201.7,407.1-433.8,407c-232.3-0.1-423.8-180.3-427.8-407.8
					c-4-233.8,190.5-427.9,434.5-427.5C1776.9,1846.3,1968,2040.6,1960.2,2274.2z"/>
				<linearGradient id="SVGID_26_" gradientUnits="userSpaceOnUse" x1="1197.3114" y1="2267.6973" x2="1861.756" y2="2267.6973">
					<stop  offset="0" style="stop-color:#4F52FF"/>
					<stop  offset="1" style="stop-color:#4042E2"/>
				</linearGradient>
				<path class="st28" d="M1861.6,2274.1c-4.8,175.8-154.5,315.6-334.5,315.5c-180.1-0.1-327.7-140.2-329.8-316.2
					c-2.1-179.7,147.9-328,334.9-327.7C1719.2,1946,1866.6,2094.6,1861.6,2274.1z"/>
				<linearGradient id="SVGID_27_" gradientUnits="userSpaceOnUse" x1="1541.8275" y1="2163.0154" x2="1512.3997" y2="2426.7336">
					<stop  offset="0" style="stop-color:#09005D"/>
					<stop  offset="1" style="stop-color:#1A0F91"/>
				</linearGradient>
				<path class="st29" d="M1680.9,2273.9c-1.4,80.6-69.6,145.3-152.5,145.2c-82.9-0.1-150.1-64.9-150.2-145.5
					c-0.1-81.4,68.2-147.8,152.5-147.8C1615.1,2126,1682.3,2192.6,1680.9,2273.9z"/>
				<g>
					<path class="st25" d="M1434.9,2274.7c-3.5,0-6.4-2.8-6.4-6.2c0.1-55.4,46.8-100.6,104.1-100.6c3.4,0,6.9,0.2,10.2,0.5
						c3.5,0.3,6.1,3.4,5.7,6.8c-0.4,3.4-3.5,5.9-7.1,5.6c-3-0.3-6-0.4-9-0.4c-50.1-0.1-91.1,39.6-91.2,88.1
						C1441.3,2272,1438.4,2274.7,1434.9,2274.7z"/>
				</g>
			</g>
		</g>
		<g>
			
				<linearGradient id="SVGID_28_" gradientUnits="userSpaceOnUse" x1="2750.9727" y1="1884.1019" x2="2697.9546" y2="2058.3042" gradientTransform="matrix(0.9244 -0.3814 0.3814 0.9244 -2470.3018 839.3183)">
				<stop  offset="0" style="stop-color:#FEBBBA"/>
				<stop  offset="1" style="stop-color:#FF928E"/>
			</linearGradient>
			<path class="st30" d="M775.2,1641.5c0,0-27.8-54.1-1.7-70.3c26.1-16.2,47,7.9,57.4,20c10.4,12.1-24.7,59.3-34,63.2
				C787.6,1658.2,775.2,1641.5,775.2,1641.5z"/>
			
				<linearGradient id="SVGID_29_" gradientUnits="userSpaceOnUse" x1="1165.2997" y1="2075.9951" x2="727.0196" y2="1435.1141" gradientTransform="matrix(0.9687 0.2484 -0.2484 0.9687 284.5733 -173.1156)">
				<stop  offset="0" style="stop-color:#FEBBBA"/>
				<stop  offset="1" style="stop-color:#FF928E"/>
			</linearGradient>
			<path class="st31" d="M803.6,1632.1c0,0-90.8,238.7,67.2,332.7c22.4,13.3,28.6,42.8,14.4,64.5c-3.1,4.7-6.5,9.4-10.3,14
				c-18.3,21.9-51.9,22-70.4,0.3c-50.7-59.3-136.3-201.6-26.9-403.7L803.6,1632.1z"/>
			
				<linearGradient id="SVGID_30_" gradientUnits="userSpaceOnUse" x1="839.4119" y1="3407.696" x2="1087.0612" y2="2770.1589" gradientTransform="matrix(0.718 0.6961 -0.6961 0.718 2193.5608 -115.6586)">
				<stop  offset="0" style="stop-color:#FEBBBA"/>
				<stop  offset="1" style="stop-color:#FF928E"/>
			</linearGradient>
			<path class="st32" d="M958.6,2610.4l-116.9-32.7l-29.3,167.8c0,0-47.5,0.7-86.7,25.1c-39.2,24.4-177.6,152.3-177.6,152.3
				l-24.2-5.6l-9.3,5.9L501.1,3026l38.7-54.7c6.1-8.7,23-22,22.7-23c74.7-35.4,254.3-138,302-165.4c7.7-4.4,13.9-11,17.8-19
				L958.6,2610.4z"/>
			
				<linearGradient id="SVGID_31_" gradientUnits="userSpaceOnUse" x1="2407.6841" y1="5263.9126" x2="3243.7988" y2="-4508.1807" gradientTransform="matrix(1 0 0 1 -1687.3363 0)">
				<stop  offset="0" style="stop-color:#FEBBBA"/>
				<stop  offset="1" style="stop-color:#FF928E"/>
			</linearGradient>
			<path class="st33" d="M951,3101.9c-1,0-1.9,0.1-2.9,0c4.3-54,24.1-291.8,43.9-380.9c22.4-100.8-33.6-302.4-33.6-302.4
				l-100.8,100.8l56,190.4c-38.4,57.6,6.3,394.7,5.3,394.6l0.1,0.7l-14.6,20.1l1.8,10.9l89.3,52.7l-35.1-57
				C954.7,3122.7,951.6,3112.5,951,3101.9z"/>
			
				<linearGradient id="SVGID_32_" gradientUnits="userSpaceOnUse" x1="-2299.0403" y1="2989.5488" x2="-2392.8711" y2="3148.3396" gradientTransform="matrix(-1 0 0 1 -1461.2897 0)">
				<stop  offset="0" style="stop-color:#53D8FF"/>
				<stop  offset="1" style="stop-color:#3840F7"/>
			</linearGradient>
			<path class="st34" d="M1001.3,3197.1h-28.5c-5.3,0-10.4-2.4-13.6-6.7c-8.9-11.5-27.3-34.1-36.1-34.6
				c-11.8-0.8-10.3,41.3-10.3,41.3h-6.6l-8.4-52.3c-2.1-13.2,4.4-26.2,16.3-32.4l0,0c0,0,2.7,20,17.4,28.9
				c14.7,8.9,59.7,40.6,59.7,40.6s5.5-0.8,11.6,0.3C1011.7,3183.8,1010.4,3197.1,1001.3,3197.1z"/>
			
				<linearGradient id="SVGID_33_" gradientUnits="userSpaceOnUse" x1="-2365.3296" y1="2499.1638" x2="-2459.1514" y2="2657.9392" gradientTransform="matrix(-0.3919 -0.9201 -0.9201 0.3919 1995.1541 -352.8903)">
				<stop  offset="0" style="stop-color:#53D8FF"/>
				<stop  offset="1" style="stop-color:#3840F7"/>
			</linearGradient>
			<path class="st35" d="M495.8,3034.7l-11.2-26.2c-2.1-4.9-1.8-10.5,0.8-15.1c7.1-12.7,20.6-38.4,17.7-46.8
				c-3.9-11.2-42.1,6.7-42.1,6.7l-2.6-6.1l44.8-28.2c11.3-7.1,25.8-6.2,36.2,2.3l0,0c0,0-17.4,10.3-19.8,27.3
				c-2.4,17-13.9,70.9-13.9,70.9s2.9,4.8,4.3,10.8C512.1,3039,499.4,3043.1,495.8,3034.7z"/>
			<linearGradient id="SVGID_34_" gradientUnits="userSpaceOnUse" x1="959.6329" y1="2170.6079" x2="875.9785" y2="2645.4038">
				<stop  offset="0" style="stop-color:#09005D"/>
				<stop  offset="1" style="stop-color:#1A0F91"/>
			</linearGradient>
			<path class="st36" d="M984.1,2248.2c0,0-3.3,20.2,1.5,75.7c4.8,55.5,27.9,185.8,23.2,310.5c0,0-65.6,15.3-179.5,8
				c0,0-48.1-194.7-36.4-268.7c11.7-74,75.3-127.1,75.3-127.1L984.1,2248.2z"/>
			<linearGradient id="SVGID_35_" gradientUnits="userSpaceOnUse" x1="898.3873" y1="1838.3721" x2="907.4312" y2="2005.6808">
				<stop  offset="0" style="stop-color:#FEBBBA"/>
				<stop  offset="1" style="stop-color:#FF928E"/>
			</linearGradient>
			<polygon class="st37" points="935.6,1877.3 943.7,1971.6 867.5,1971.6 886.4,1827.7 			"/>
			<path class="st25" d="M844.9,1958.5c26.3-1.4,85-4.1,126.7-1.9c21.9,1.2,40.3,16.9,44.8,38.4l10.2,48.7
				c3.8,18.1,3.2,36.9-1.6,54.8l-40.8,149.7c0,0-36.3,21.8-115.9-1.5c0,0-69.9-166.8-41.3-273.5
				C829.1,1964.9,836.4,1959,844.9,1958.5z"/>
			
				<linearGradient id="SVGID_36_" gradientUnits="userSpaceOnUse" x1="2681.6897" y1="1899.5992" x2="2533.6958" y2="1683.1932" gradientTransform="matrix(1 0 0 1 -1687.3363 0)">
				<stop  offset="0" style="stop-color:#FEBBBA"/>
				<stop  offset="1" style="stop-color:#FF928E"/>
			</linearGradient>
			<path class="st38" d="M967.9,1768.5c2.7,1.6,24.1,77.2,6.2,108.9c-18,31.7-72.8-3.8-87.6-49.6
				C871.6,1781.9,895.5,1725.7,967.9,1768.5z"/>
			<linearGradient id="SVGID_37_" gradientUnits="userSpaceOnUse" x1="1050.4115" y1="1599.8915" x2="503.2657" y2="2262.345">
				<stop  offset="0" style="stop-color:#E1473D"/>
				<stop  offset="1" style="stop-color:#E9605A"/>
			</linearGradient>
			<path class="st39" d="M825.8,1827.7c-12.3,60.3-53,43.8-81.9,70.6c-46.8,43.4-113.7-1.3-178.7,39.8
				c-47,29.7-69.6,105.8-47.1,167.2c31.2,85,137.9,120,193.2,94.1c52.8-24.8,45.3-98.9,116.4-127.5c30.2-12.2,45.1-4.3,63.2-22.3
				c31.6-31.6,23.1-92.8,19.8-116.4c-7.1-51.2-24.3-60.5-16.1-83c16-43.8,90.4-34.7,96.6-65.6c5.6-28.1-48.3-81.5-99.1-73.1
				C813.5,1724.5,831.3,1800.8,825.8,1827.7z"/>
			<path class="st40" d="M541.5,2090.9c-0.9,0-1.8-0.6-2-1.6c-10.1-41.7-5.5-76,13.6-101.8c31.6-42.8,93.1-47,93.7-47.1
				c1-0.2,2.1,0.8,2.2,1.9c0.1,1.1-0.8,2.1-1.9,2.2c-0.6,0-60.2,4.2-90.7,45.4c-18.3,24.8-22.6,57.8-12.9,98.3
				c0.3,1.1-0.4,2.2-1.5,2.5C541.9,2090.8,541.7,2090.9,541.5,2090.9z"/>
			<path class="st41" d="M742.9,2129.1c-0.1,0-0.2,0-0.3,0c-0.5-0.1-0.9-0.7-0.7-1.3c9.8-37.6,27-63.7,51.1-77.6
				c17.5-10.1,33.9-11.1,48.4-11.9c14-0.8,26-1.5,35.7-10.1c20.1-17.8,18.9-60.7-3.5-127.5c-0.2-0.5,0.1-1.1,0.7-1.3
				c0.5-0.2,1.1,0.1,1.3,0.7c22.6,67.6,23.6,111.3,2.9,129.7c-10.2,9.1-22.6,9.8-37,10.6c-14.3,0.8-30.4,1.7-47.5,11.6
				c-23.6,13.6-40.5,39.3-50.1,76.3C743.8,2128.8,743.3,2129.1,742.9,2129.1z"/>
			<path class="st41" d="M854.9,1812.7c-0.1,0-0.2,0-0.3-0.1c-0.5-0.2-0.8-0.8-0.6-1.3c7.8-23.2,30.2-19.7,54-16.1
				c15,2.3,30.6,4.7,43.8,0.8c9.8-2.9,15.7-7.4,17.4-13.4c2.9-10.2-7.2-21.6-7.3-21.7c-0.4-0.4-0.3-1.1,0.1-1.5
				c0.4-0.4,1.1-0.3,1.4,0.1c0.5,0.5,11,12.3,7.8,23.7c-1.9,6.7-8.2,11.7-18.8,14.9c-13.6,4-29.4,1.6-44.7-0.7
				c-23.9-3.7-44.5-6.8-51.7,14.7C855.7,1812.5,855.3,1812.7,854.9,1812.7z"/>
			
				<linearGradient id="SVGID_38_" gradientUnits="userSpaceOnUse" x1="2476.696" y1="1725.1935" x2="2423.6794" y2="1899.3912" gradientTransform="matrix(-0.8007 -0.5991 -0.5991 0.8007 4180.3647 1665.1215)">
				<stop  offset="0" style="stop-color:#FEBBBA"/>
				<stop  offset="1" style="stop-color:#FF928E"/>
			</linearGradient>
			<path class="st42" d="M1152,1673c0,0,40.3-45.5,19.1-67.7c-21.2-22.2-47.5-4-60.6,5.1c-13.1,9.1,9.2,63.6,17.2,69.7
				C1135.9,1686.1,1152,1673,1152,1673z"/>
			
				<linearGradient id="SVGID_39_" gradientUnits="userSpaceOnUse" x1="851.329" y1="2113.1931" x2="413.0296" y2="1472.2838" gradientTransform="matrix(-1 0 0 1 1764 0)">
				<stop  offset="0" style="stop-color:#FEBBBA"/>
				<stop  offset="1" style="stop-color:#FF928E"/>
			</linearGradient>
			<path class="st43" d="M1126.9,1656.9c0,0,28.7,253.8-147.7,305.5c-25,7.3-38.3,34.3-29.9,58.9c1.8,5.3,4,10.7,6.5,16.1
				c12.3,25.8,44.8,34.2,68.1,17.8c63.8-44.9,182.1-161.4,126.4-384.4L1126.9,1656.9z"/>
		</g>
		<g>
			<g>
				
					<linearGradient id="SVGID_40_" gradientUnits="userSpaceOnUse" x1="-2737.272" y1="-24709.9121" x2="-2710.3525" y2="-24460.9082" gradientTransform="matrix(0.6533 0.6093 0.6821 -0.7313 -259.0722 5029.2915)">
					<stop  offset="0" style="stop-color:#09005D"/>
					<stop  offset="1" style="stop-color:#1A0F91"/>
				</linearGradient>
				<path class="st44" d="M2241.5,2654.9c0,0,16.4-24.3,34.4-46.8c7-8.8,19.3-10.6,27-4.1c26,22.1,81.5,69.6,99.8,88.5
					c2.7,2.8,1.6,7.9-2.3,9.9l0,0c-3.2,1.7-6.9,2.1-10.1,1.2l-130.5-36.9L2241.5,2654.9z"/>
				
					<linearGradient id="SVGID_41_" gradientUnits="userSpaceOnUse" x1="328.2526" y1="3441.978" x2="372.1597" y2="3441.978" gradientTransform="matrix(0.7313 0.6821 0.6821 -0.7313 -348.8291 4945.8682)">
					<stop  offset="0" style="stop-color:#FEBBBA"/>
					<stop  offset="1" style="stop-color:#FF928E"/>
				</linearGradient>
				<path class="st45" d="M2227.5,2665l26.7-22.5c0,0,24.8,8.1,28.2,28.2l-33.5,21.6L2227.5,2665z"/>
				
					<linearGradient id="SVGID_42_" gradientUnits="userSpaceOnUse" x1="2574.8706" y1="1648.373" x2="2522.6233" y2="2172.3772" gradientTransform="matrix(-1 0 0 1 4179.7925 0)">
					<stop  offset="0" style="stop-color:#FEBBBA"/>
					<stop  offset="1" style="stop-color:#FF928E"/>
				</linearGradient>
				<path class="st46" d="M1636.8,2063c-41.6-93.3-80.8-232.8-35.1-372.1l26.5-26.5c0,0,0,218.3,54.3,326.7
					C1667.4,2015.1,1652.2,2039.1,1636.8,2063z"/>
				
					<linearGradient id="SVGID_43_" gradientUnits="userSpaceOnUse" x1="2566.2715" y1="1647.5164" x2="2514.0242" y2="2171.5203" gradientTransform="matrix(-1 0 0 1 4179.7925 0)">
					<stop  offset="0" style="stop-color:#FEBBBA"/>
					<stop  offset="1" style="stop-color:#FF928E"/>
				</linearGradient>
				<path class="st47" d="M1634.6,1622.6l10,15c2.8,4.1,3.5,9.3,1.9,14c-4.1,12.3-13.2,36.5-26.2,49.4
					c-17.8,17.8-35.6-24.9-39.2-39.2c-3.6-14.3,21.4-49.9,28.5-57C1616.8,1597.7,1645.3,1601.3,1634.6,1622.6z"/>
				
					<linearGradient id="SVGID_44_" gradientUnits="userSpaceOnUse" x1="2289.1506" y1="2232.9355" x2="2299.2451" y2="2349.0251" gradientTransform="matrix(-1 0 0 1 4061.2881 0)">
					<stop  offset="0" style="stop-color:#09005D"/>
					<stop  offset="1" style="stop-color:#1A0F91"/>
				</linearGradient>
				<path class="st48" d="M1771.1,3091.3c0,0,5.1,29,7.6,57.7c1,11.2-7.7,20.9-18.9,21.4c-38.2,1.6-119.9,4.7-149.2,3.4
					c-4.4-0.2-7.3-4.7-5.7-8.8l0,0c1.4-3.4,4-6.2,7.4-7.8l135-62L1771.1,3091.3z"/>
				
					<linearGradient id="SVGID_45_" gradientUnits="userSpaceOnUse" x1="2286.0369" y1="3091.1682" x2="2329.9463" y2="3091.1682" gradientTransform="matrix(-1 0 0 1 4061.2881 0)">
					<stop  offset="0" style="stop-color:#FEBBBA"/>
					<stop  offset="1" style="stop-color:#FF928E"/>
				</linearGradient>
				<path class="st49" d="M1775.3,3074.3l-4.1,34.7c0,0-23.6,11-39.8-1.4l9.8-38.6L1775.3,3074.3z"/>
				
					<linearGradient id="SVGID_46_" gradientUnits="userSpaceOnUse" x1="715.1409" y1="2666.1035" x2="876.6569" y2="3503.9705" gradientTransform="matrix(1 0 0 1 1087.1451 0)">
					<stop  offset="0" style="stop-color:#09005D"/>
					<stop  offset="1" style="stop-color:#1A0F91"/>
				</linearGradient>
				<path class="st50" d="M1772.2,2422.5c1.8,9.1,9.5,451.7-37.8,650.1c-0.8,3.2,0.9,6.6,4,7.8c7.3,3,21.5,7.3,38.5,7.8
					c5.3,0.2,10-3.3,11.5-8.3c13.5-46,106.5-312.4,114.9-532.7c9.4-246.2-33.7-124.8-33.7-124.8L1772.2,2422.5z"/>
				
					<linearGradient id="SVGID_47_" gradientUnits="userSpaceOnUse" x1="943.1573" y1="2622.1487" x2="1104.6727" y2="3460.0117" gradientTransform="matrix(1 0 0 1 1087.1451 0)">
					<stop  offset="0" style="stop-color:#09005D"/>
					<stop  offset="1" style="stop-color:#1A0F91"/>
				</linearGradient>
				<path class="st51" d="M1976.6,2430.5c39.7,100.1,52.7,115.7,70.4,230c21.2,137,124.9,42.4,180.2-2.1c7-5.6,27.8,14.5,29.8,42.8
					c2.6,36.9-221,212.1-281.5,88.3c-38.6-79.1-49.3-168.2-75-217.4c-3.2-6.1-8.4-11-14.8-13.7l-78.9-33.8l-22.3-77.5L1976.6,2430.5
					z"/>
				
					<linearGradient id="SVGID_48_" gradientUnits="userSpaceOnUse" x1="964.5818" y1="1660.4143" x2="912.3347" y2="2184.4187" gradientTransform="matrix(1 0 0 1 1087.1451 0)">
					<stop  offset="0" style="stop-color:#FEBBBA"/>
					<stop  offset="1" style="stop-color:#FF928E"/>
				</linearGradient>
				<path class="st52" d="M2019.8,2075c41.6-93.3,80.8-232.8,35.1-372.1l-26.5-26.5c0,0,0,218.3-54.3,326.7
					C1989.3,2027.1,2004.5,2051.1,2019.8,2075z"/>
				<linearGradient id="SVGID_49_" gradientUnits="userSpaceOnUse" x1="2265.4998" y1="1728.115" x2="1668.6132" y2="2372.4817">
					<stop  offset="0" style="stop-color:#FF928E"/>
					<stop  offset="1" style="stop-color:#FE7062"/>
				</linearGradient>
				<path class="st53" d="M1772.1,2041.6h130.6c13.1,0,25.7-5,35.2-14.1c12.2-11.6,27.8-31.2,38.9-62.1c1.7-4.7,6.7-7.3,11.5-5.8
					c16.8,5,53.6,19.2,72.9,52.4c1.8,3.1,1.8,7-0.2,10l-81.5,126.1l8,311c0,0-204.7,32.1-232.8,0l-28.1-285
					c0,0-100.3-60.2-128.4-156.5l84.3-48.2c0,0,9.8,0.4,18.2,23C1711.8,2022.1,1740.4,2041.6,1772.1,2041.6z"/>
				<linearGradient id="SVGID_50_" gradientUnits="userSpaceOnUse" x1="1839.7991" y1="2191.0671" x2="1848.843" y2="1983.0605">
					<stop  offset="0" style="stop-color:#FEBBBA"/>
					<stop  offset="1" style="stop-color:#FF928E"/>
				</linearGradient>
				<path class="st54" d="M1883.9,1946.6l3,100.8c0.2,6.5-3.8,12.3-10,14.3c-12.5,4.2-35.3,9.3-60.7,3.8
					c-7.6-1.6-12.4-9.1-11.1-16.8l13.8-79.4L1883.9,1946.6z"/>
				<g>
					
						<linearGradient id="SVGID_51_" gradientUnits="userSpaceOnUse" x1="1120.5691" y1="4264.4048" x2="969.5739" y2="4464.1592" gradientTransform="matrix(-0.7818 -0.6235 -0.6235 0.7818 5373.1855 -760.9076)">
						<stop  offset="0" style="stop-color:#FEBBBA"/>
						<stop  offset="1" style="stop-color:#FF928E"/>
					</linearGradient>
					<path class="st55" d="M1814.8,1854.3c-0.9,1.1-31.4,84-44.8,120.6c-3.4,9.2,1.6,19.4,11.1,22.4l29.5,5.4
						c19.5,3.6,38.9-6.8,46.8-25.1l35.5-41.3c19.3-22.5,12.7-57.2-13.7-70.7C1853.1,1852.3,1824.6,1842.1,1814.8,1854.3z"/>
					
						<linearGradient id="SVGID_52_" gradientUnits="userSpaceOnUse" x1="751.6138" y1="5059.2271" x2="832.3718" y2="4877.5215" gradientTransform="matrix(-1 0 0 1 4037.4902 0)">
						<stop  offset="0" style="stop-color:#09005D"/>
						<stop  offset="1" style="stop-color:#1A0F91"/>
					</linearGradient>
					<path class="st56" d="M1873.5,1945.5l-8.4-4.2c0,0,33.7-54.8-4.2-59c-38-4.2-71.7-12.7-71.7-33.7c0-21.1,0-59,46.4-42.2
						c46.4,16.9,42.2,46.4,67.5,50.6c25.3,4.2,46.4,8.4,38,33.7c-8.4,25.3-25.3,42.2-16.9,50.6
						C1932.5,1949.7,1894.6,1991.9,1873.5,1945.5z"/>
					<linearGradient id="SVGID_53_" gradientUnits="userSpaceOnUse" x1="1920.2891" y1="1920.5125" x2="2060.467" y2="1816.5096">
						<stop  offset="0" style="stop-color:#FEBBBA"/>
						<stop  offset="1" style="stop-color:#FF928E"/>
					</linearGradient>
					<path class="st57" d="M1864.5,1961.9c0,0,7-37.1,22.7-38c15.7-0.9,30,12.7,13.3,32.8
						C1879.7,1981.7,1864.5,1961.9,1864.5,1961.9z"/>
				</g>
				
					<linearGradient id="SVGID_54_" gradientUnits="userSpaceOnUse" x1="955.9828" y1="1659.5566" x2="903.7357" y2="2183.5598" gradientTransform="matrix(1 0 0 1 1087.1451 0)">
					<stop  offset="0" style="stop-color:#FEBBBA"/>
					<stop  offset="1" style="stop-color:#FF928E"/>
				</linearGradient>
				<path class="st58" d="M2022.1,1634.7l-10,15c-2.8,4.1-3.5,9.3-1.9,14c4.1,12.3,13.2,36.5,26.2,49.4
					c17.8,17.8,35.6-24.9,39.2-39.2c3.6-14.3-21.4-49.9-28.5-57C2039.9,1609.7,2011.4,1613.3,2022.1,1634.7z"/>
			</g>
			<g>
				<path class="st2" d="M1810.8,1855.2c-0.1,0-0.1,0-0.2,0c-0.2,0-5.7-1.2-8.9-7.2c-3.4-6.5-2.6-16,2.5-28.1
					c0.2-0.4,0.7-0.6,1.1-0.5c0.4,0.2,0.6,0.7,0.5,1.1c-4.8,11.4-5.7,20.6-2.5,26.6c2.8,5.2,7.7,6.3,7.7,6.3c0.5,0.1,0.8,0.5,0.7,1
					C1811.5,1855,1811.2,1855.2,1810.8,1855.2z"/>
			</g>
		</g>
		<g>
			
				<linearGradient id="SVGID_55_" gradientUnits="userSpaceOnUse" x1="17552.2539" y1="2076.0823" x2="17246.9629" y2="2250.3381" gradientTransform="matrix(-1 0 0 1 19947.5723 0)">
				<stop  offset="0" style="stop-color:#FEBBBA"/>
				<stop  offset="1" style="stop-color:#FF928E"/>
			</linearGradient>
			<path class="st59" d="M2441.7,2360.2c0.4-0.1,194-339.3,220.2-371.2c4.4-5.4,11.2-8.1,18.1-7.3l54,6.4l63.5,137.4l-105.8-61.6
				c10.5,72.4-125.4,180-172,219.2c-4.7,4-5.1,11.1-0.8,15.6l18.6,19.5c-30.5,31-65.8,50.8-105.6,60L2441.7,2360.2z"/>
			
				<linearGradient id="SVGID_56_" gradientUnits="userSpaceOnUse" x1="-7413.4517" y1="-3545.4065" x2="-7436.8877" y2="-3186.0537" gradientTransform="matrix(0.8974 -0.4412 0.4412 0.8974 10652.2939 2161.1482)">
				<stop  offset="0" style="stop-color:#09005D"/>
				<stop  offset="1" style="stop-color:#1A0F91"/>
			</linearGradient>
			<path class="st60" d="M2526.7,2307.7c0,0,11.9,3.8,15.9,14.4c1.9,5.1-0.1,10.8-4.6,13.9c-19.6,14-84.1,59.2-113.8,68.1
				c-2.4,0.7-4.8-1.5-4.2-4c1.5-6.9,6.5-20.7,22.4-40.9l-1.4,2.9c-1.8,3.7,2.2,7.5,5.7,5.5
				C2466.6,2356.4,2507.2,2331.8,2526.7,2307.7z"/>
			
				<linearGradient id="SVGID_57_" gradientUnits="userSpaceOnUse" x1="17522.7207" y1="2119.5403" x2="18567.2734" y2="1465.6334" gradientTransform="matrix(-1 0 0 1 19947.5723 0)">
				<stop  offset="0" style="stop-color:#FEBBBA"/>
				<stop  offset="1" style="stop-color:#FF928E"/>
			</linearGradient>
			<path class="st61" d="M2517.2,2443.4c0.3-0.2,29.4-70.2,29.7-70.4c26.6-162.2,91.6-301.1,110.8-337.6c3.2-6.1,9.3-10.2,16.3-10.8
				l54.2-4.6l90,121.7l-116.1-38.9c24.9,68.8-86.4,201.6-124.1,249.5c-3.8,4.9-2.8,11.9,2.3,15.4l22.2,15.3
				c-23.6,36.5-54.1,63.1-91.2,80.2L2517.2,2443.4z"/>
			
				<linearGradient id="SVGID_58_" gradientUnits="userSpaceOnUse" x1="-5935.4492" y1="-5695.4292" x2="-5958.8838" y2="-5336.1001" gradientTransform="matrix(0.7895 -0.6137 0.6137 0.7895 10669.8828 3191.1018)">
				<stop  offset="0" style="stop-color:#09005D"/>
				<stop  offset="1" style="stop-color:#1A0F91"/>
			</linearGradient>
			<path class="st62" d="M2589.8,2374.8c0,0,12.4,1.4,18.5,10.9c2.9,4.6,2,10.6-1.6,14.6c-16.3,17.7-70.3,75-97.7,89.7
				c-2.2,1.2-5-0.5-4.9-3c0.1-7.1,2.1-21.6,13.6-44.6l-0.8,3.1c-1,3.9,3.6,6.9,6.7,4.2C2540.8,2434.6,2575.5,2402.3,2589.8,2374.8z"
				/>
			<g>
				
					<linearGradient id="SVGID_59_" gradientUnits="userSpaceOnUse" x1="3969.4092" y1="10739.9775" x2="4157.0659" y2="10432.4922" gradientTransform="matrix(-1 0 0 1 12115.873 0)">
					<stop  offset="0" style="stop-color:#4F52FF"/>
					<stop  offset="1" style="stop-color:#4042E2"/>
				</linearGradient>
				<path class="st63" d="M2982,1994.3c0,0,49.1,73,53.1,106.3c4,33.3-13.6,44.8-64.9,49c-152.8,12.6-228.1-33.2-228.1-33.2
					c-10.5-66.7-17.9-83.6-105.2-119.8c0,0,110.4,8.8,132.6,0.1C2791.7,1988.1,2982,1994.3,2982,1994.3z"/>
			</g>
			<g>
				
					<linearGradient id="SVGID_60_" gradientUnits="userSpaceOnUse" x1="-10564.1631" y1="-301.7699" x2="-10489.0918" y2="-113.4539" gradientTransform="matrix(0.9446 -0.3283 0.3283 0.9446 12812.0361 -1699.1722)">
					<stop  offset="0" style="stop-color:#09005D"/>
					<stop  offset="1" style="stop-color:#1A0F91"/>
				</linearGradient>
				<path class="st64" d="M2786.4,1585.5c0,0,34.2-40.4,70.5,9.2c6.6,9,31.9,1.6,41.1,20.4c4.8,9.7,15.1,15.2,25.8,13.3
					c26.5-4.9,69.8-5.3,91.2,36.2c16.3,31.7,3.7,50.3-12.6,60.8c-12,7.8-16.3,23.5-9,35.9c7,11.8,8.3,27.8-9.7,47
					c-40.2,43.1-119.9-27.4-119.9-27.4l-63.2-149.4L2786.4,1585.5z"/>
				<linearGradient id="SVGID_61_" gradientUnits="userSpaceOnUse" x1="2767.2212" y1="1691.781" x2="2970.4211" y2="2032.7443">
					<stop  offset="0" style="stop-color:#4F52FF"/>
					<stop  offset="1" style="stop-color:#4042E2"/>
				</linearGradient>
				<path class="st65" d="M2849.3,1984.6c0,0-57.1-54.4-85.3-90.4c-15.2-19.5-20-45.1-12.9-68.8c12.8-43.3,35.7-88.1,37.7-95
					c3.2-10.7,67.3-10.2,67.3-10.2s126.1,81.8,175.6,220.4l-55.6,17.3c0,0-32.9-55.2-65.4-90.3c0,0,56.3,74.3,58.3,104.8
					L2849.3,1984.6z"/>
				
					<linearGradient id="SVGID_62_" gradientUnits="userSpaceOnUse" x1="-8621.085" y1="1975.6395" x2="-8316.9697" y2="1975.6395" gradientTransform="matrix(1 0 0 1 11551.1094 0)">
					<stop  offset="0" style="stop-color:#FEBBBA"/>
					<stop  offset="1" style="stop-color:#FF928E"/>
				</linearGradient>
				<path class="st66" d="M2740.5,2006.1l42.9-46.7l49.6,13.3c0,0,57.8,9,90.9,0c33.1-9,33.1-9,33.1-9l74.8-23.3l11.7,33.2
					c3,8.4,0,17.8-7.3,23c-6.5,4.6-14,9.6-18.9,11.8c-9.8,4.3-226.8,1.4-226.8,1.4L2740.5,2006.1z"/>
				
					<linearGradient id="SVGID_63_" gradientUnits="userSpaceOnUse" x1="-10507.917" y1="974.3942" x2="-10493.0508" y2="865.6354" gradientTransform="matrix(0.9974 -7.170000e-02 7.170000e-02 0.9974 13216.9805 105.0094)">
					<stop  offset="0" style="stop-color:#FEBBBA"/>
					<stop  offset="1" style="stop-color:#FF928E"/>
				</linearGradient>
				<path class="st67" d="M2812.1,1643.1l43.1,80.1c-2.8,17.5-46.9,18-53.7,7.5c-0.7-1.1-1.1-2.3-1.4-3.5l-25.8-53.5
					c-1.1-5.2,13.2-22.8,17.9-25.3l17.1-9.1C2816,1635.8,2788.5,1635.5,2812.1,1643.1z"/>
				<g>
					
						<linearGradient id="SVGID_64_" gradientUnits="userSpaceOnUse" x1="-9432.8018" y1="-3381.04" x2="-9292.8262" y2="-3630.1501" gradientTransform="matrix(0.5458 -0.8379 0.8379 0.5458 10797.9961 -4320.769)">
						<stop  offset="0" style="stop-color:#FEBBBA"/>
						<stop  offset="1" style="stop-color:#FF928E"/>
					</linearGradient>
					<path class="st68" d="M2725,1624.3c0,0-4.9,27,16.4,61.4c21.3,34.4,42.4,32.8,53.2,20.6c10.8-12.3,23.6-32.7,17.8-67
						C2806.5,1605,2732.3,1589.8,2725,1624.3z"/>
					
						<linearGradient id="SVGID_65_" gradientUnits="userSpaceOnUse" x1="-9402.7012" y1="-3597.9763" x2="-9332.7139" y2="-3422.4141" gradientTransform="matrix(0.5458 -0.8379 0.8379 0.5458 10797.9961 -4320.769)">
						<stop  offset="0" style="stop-color:#09005D"/>
						<stop  offset="1" style="stop-color:#1A0F91"/>
					</linearGradient>
					<path class="st69" d="M2786.6,1643.1c0,0-34.4-45.2-60.9-5.8l0.4,13.6c0,0-34.4-1.6-30.6-33.3c3.7-31.7,31.8-53.3,70.7-42.5
						s61.6,23.1,66,50.2c4.4,27-17.7,22.6-17.7,22.6s-8.4-18.6-18.6-19.9c-10.2-1.3-6.5,13.5-6.5,13.5L2786.6,1643.1z"/>
					
						<linearGradient id="SVGID_66_" gradientUnits="userSpaceOnUse" x1="-9403.0059" y1="-3364.3" x2="-9263.0303" y2="-3613.4087" gradientTransform="matrix(0.5458 -0.8379 0.8379 0.5458 10797.9961 -4320.769)">
						<stop  offset="0" style="stop-color:#FEBBBA"/>
						<stop  offset="1" style="stop-color:#FF928E"/>
					</linearGradient>
					<path class="st70" d="M2794.5,1641.8c0,0-17.8-23.1-1.6-27.9c16.2-4.8,15.6,22.7,14.6,32.9L2794.5,1641.8z"/>
				</g>
			</g>
			<g>
				
					<linearGradient id="SVGID_67_" gradientUnits="userSpaceOnUse" x1="-8683.0273" y1="1600.1387" x2="-8842.1191" y2="1643.7416" gradientTransform="matrix(0.9988 -4.940000e-02 4.940000e-02 0.9988 11509.6406 -55.0328)">
					<stop  offset="0" style="stop-color:#09005D"/>
					<stop  offset="1" style="stop-color:#1A0F91"/>
				</linearGradient>
				<path class="st71" d="M2882.6,2024.6c-0.2,0-0.3,0-0.5,0l-197.5-0.2c-4.9,0-8.8-4-8.8-8.8c0-4.9,4-8.9,8.8-8.8l197.5,0.2
					c4.9,0,8.8,4,8.8,8.8C2891,2020.5,2887.2,2024.4,2882.6,2024.6z"/>
				<linearGradient id="SVGID_68_" gradientUnits="userSpaceOnUse" x1="2744.4338" y1="1794.3832" x2="2499.9053" y2="2118.126">
					<stop  offset="0" style="stop-color:#09005D"/>
					<stop  offset="1" style="stop-color:#1A0F91"/>
				</linearGradient>
				<path class="st72" d="M2507.2,1845.3h164.4c12.1,0,23.2,7,28.3,18l76,161.2h-204.4c-7.8,0-14.8-4.8-17.7-12l-59-149.2
					C2491.5,1854.7,2497.9,1845.3,2507.2,1845.3z"/>
				<path class="st25" d="M2623,1928c3.6,11.1,0.9,21.8-5.9,24c-6.8,2.2-15.2-5-18.8-16.1c-3.6-11.1-0.9-21.8,5.9-24
					C2611,1909.7,2619.5,1916.9,2623,1928z"/>
			</g>
		</g>
	</g>
</g>
</svg>
