<?xml version="1.0" encoding="UTF-8" standalone="no"?><!DOCTYPE svg PUBLIC "-//W3C//DTD SVG 1.1//EN" "http://www.w3.org/Graphics/SVG/1.1/DTD/svg11.dtd"><svg width="100%" height="100%" viewBox="0 0 800 600" version="1.1" xmlns="http://www.w3.org/2000/svg" xmlns:xlink="http://www.w3.org/1999/xlink" xml:space="preserve" xmlns:serif="http://www.serif.com/" style="fill-rule:evenodd;clip-rule:evenodd;stroke-linejoin:round;stroke-miterlimit:2;"><g id="Illustration"><g><path d="M623.345,510.43c-15.313,15.793 -29.016,25.067 -39.503,32.065c-102.296,68.309 -219.256,48.631 -255.396,41.884c-58.323,-10.863 -107.581,-18.508 -149.882,-56.736c-96.134,-86.838 -91.455,-268.034 -18.007,-380.253c8.711,-13.307 82.054,-122.037 199.245,-137.349c2.862,-0.376 5.013,-0.585 6.873,-0.794c18.132,-1.921 130.476,-12.053 222.098,64.696c13.118,10.988 34.217,30.812 53.79,61.018c71.568,110.527 71.798,281.675 -19.218,375.469l-0,-0Z" style="fill:#88c9ff;fill-opacity:0.45;fill-rule:nonzero;"/><g><path d="M445.828,414.442l3.196,80.404c0.564,14.016 12.157,25.088 26.237,25.067l192.581,-0.313c9.421,-0.021 17.401,-6.915 18.696,-16.211c2.862,-20.325 6.413,-56.694 1.838,-90.765l-242.549,1.817l0.001,0.001Z" style="fill:#11baff;fill-rule:nonzero;"/><path d="M480.817,515.318c-0.292,0 -0.522,-0.251 -0.522,-0.543c0,-0.292 0.251,-0.543 0.543,-0.543l4.345,-0c0.355,-0.042 0.543,0.251 0.543,0.543c0,0.292 -0.25,0.543 -0.543,0.543l-4.366,0Zm14.477,-0.021c-0.293,0 -0.522,-0.25 -0.522,-0.543c-0,-0.292 0.25,-0.543 0.543,-0.543l4.345,-0c0.313,-0.021 0.543,0.251 0.543,0.543c-0,0.293 -0.251,0.543 -0.543,0.543l-4.366,0Zm14.476,-0.042c-0.292,0 -0.522,-0.25 -0.522,-0.543c0,-0.292 0.251,-0.543 0.543,-0.543l4.345,0c0.334,0.021 0.543,0.251 0.543,0.543c0,0.293 -0.25,0.543 -0.543,0.543l-4.366,0Zm14.477,-0.02c-0.293,-0 -0.522,-0.251 -0.522,-0.544c-0,-0.292 0.25,-0.543 0.543,-0.543l4.345,0c0.313,0.021 0.543,0.251 0.543,0.543c-0,0.293 -0.251,0.544 -0.543,0.544l-4.366,-0c0.021,-0 -0,-0 -0,-0Zm-53.373,-1.525c-0.063,-0 -0.125,-0.021 -0.167,-0.042c-1.379,-0.522 -2.716,-1.17 -3.99,-1.922c-0.251,-0.146 -0.334,-0.48 -0.188,-0.752c0.146,-0.251 0.48,-0.355 0.752,-0.188c1.212,0.71 2.507,1.337 3.823,1.838c0.271,0.105 0.418,0.418 0.313,0.711c-0.104,0.229 -0.313,0.376 -0.543,0.355Zm67.849,1.504c-0.292,-0 -0.522,-0.251 -0.522,-0.543c0,-0.293 0.251,-0.544 0.543,-0.544l4.345,0c0.293,0 0.543,0.251 0.543,0.544c0,0.292 -0.25,0.543 -0.543,0.543l-4.366,-0c0.021,-0 0,-0 0,-0Zm14.477,-0.021c-0.293,-0 -0.523,-0.251 -0.523,-0.543c0,-0.293 0.251,-0.543 0.544,-0.543l4.345,-0c0.313,-0.021 0.543,0.25 0.543,0.543c-0,0.292 -0.251,0.543 -0.543,0.543l-4.366,-0c0.021,-0 -0,-0 -0,-0Zm14.476,-0.021c-0.292,-0 -0.522,-0.251 -0.522,-0.543c-0,-0.293 0.251,-0.543 0.543,-0.543l4.345,-0c0.355,-0.021 0.543,0.25 0.543,0.543c0,0.292 -0.25,0.543 -0.543,0.543l-4.366,-0Zm14.477,-0.021c-0.293,0 -0.523,-0.251 -0.523,-0.543c0,-0.293 0.251,-0.543 0.544,-0.543l4.345,-0c0.334,-0.021 0.543,0.25 0.543,0.543c-0,0.292 -0.251,0.543 -0.543,0.543l-4.366,0Zm14.497,-0.021c-0.292,0 -0.522,-0.251 -0.522,-0.543c-0,-0.292 0.25,-0.543 0.543,-0.543l4.345,-0c0.355,0.021 0.543,0.251 0.543,0.543c0,0.292 -0.251,0.543 -0.543,0.543l-4.366,0Zm14.477,-0.042c-0.293,0 -0.523,-0.25 -0.523,-0.543c0,-0.292 0.251,-0.543 0.543,-0.543l4.345,0c0.335,0.042 0.544,0.251 0.544,0.543c-0,0.293 -0.251,0.543 -0.544,0.543l-4.365,0Zm14.476,-0.021c-0.292,0 -0.522,-0.25 -0.522,-0.543c-0,-0.292 0.25,-0.543 0.543,-0.543l4.345,0c0.355,0.021 0.543,0.251 0.543,0.543c0,0.293 -0.251,0.543 -0.543,0.543l-4.366,0Zm14.476,-0.02c-0.292,-0 -0.522,-0.251 -0.522,-0.544c0,-0.292 0.251,-0.543 0.543,-0.543l4.345,0c0.356,-0.021 0.544,0.251 0.544,0.543c-0,0.293 -0.251,0.544 -0.544,0.544l-4.366,-0Zm14.477,-0.021c-0.292,-0 -0.522,-0.251 -0.522,-0.543c-0,-0.293 0.25,-0.544 0.543,-0.544l4.345,0c0.292,-0.02 0.543,0.251 0.543,0.544c0,0.292 -0.251,0.543 -0.543,0.543l-4.366,-0Zm14.372,-1.024c-0.209,0 -0.418,-0.146 -0.501,-0.355c-0.105,-0.292 0.041,-0.585 0.334,-0.689c1.337,-0.46 2.59,-1.087 3.781,-1.86c0.251,-0.167 0.585,-0.083 0.752,0.168c0.167,0.25 0.083,0.584 -0.167,0.752c-1.254,0.814 -2.591,1.483 -4.011,1.963c-0.063,0.021 -0.125,0.021 -0.188,0.021Zm-209.418,-8.92c-0.167,0 -0.313,-0.083 -0.418,-0.23c-0.877,-1.19 -1.65,-2.465 -2.297,-3.801c-0.126,-0.272 -0.021,-0.585 0.25,-0.732c0.272,-0.125 0.585,-0.02 0.731,0.251c0.627,1.274 1.358,2.486 2.194,3.635c0.167,0.251 0.125,0.585 -0.126,0.752c-0.104,0.104 -0.229,0.125 -0.334,0.125Zm219.842,-0.543c-0.063,0 -0.146,-0.021 -0.209,-0.042c-0.271,-0.125 -0.397,-0.438 -0.271,-0.71c0.585,-1.274 1.002,-2.632 1.274,-4.011c0.063,-0.292 0.334,-0.48 0.627,-0.438c0.292,0.062 0.48,0.334 0.438,0.626c-0.271,1.463 -0.731,2.904 -1.358,4.262c-0.083,0.188 -0.292,0.313 -0.501,0.313Zm-224.584,-12.91c-0.271,0 -0.522,-0.229 -0.522,-0.522l-0.167,-4.345c-0.021,-0.292 0.23,-0.543 0.522,-0.564c0.293,-0.021 0.543,0.23 0.564,0.522l0.167,4.324c0.021,0.293 -0.209,0.564 -0.522,0.564c-0.021,0.021 -0.042,0.021 -0.042,0.021Zm227.216,-1.274l-0.042,0c-0.292,-0.042 -0.501,-0.313 -0.48,-0.606c0.167,-1.399 0.334,-2.841 0.48,-4.303c0.042,-0.292 0.314,-0.522 0.606,-0.48c0.293,0.041 0.522,0.292 0.481,0.605c-0.168,1.484 -0.314,2.925 -0.481,4.325c-0.042,0.271 -0.292,0.459 -0.564,0.459Zm-227.801,-13.202c-0.292,-0 -0.522,-0.23 -0.522,-0.522l-0.167,-4.345c-0.021,-0.293 0.23,-0.544 0.522,-0.564c0.314,-0.021 0.543,0.229 0.564,0.522l0.167,4.345c0.021,0.292 -0.229,0.543 -0.522,0.564l-0.042,-0Zm229.221,-1.212l-0.02,0c-0.293,-0.021 -0.523,-0.292 -0.502,-0.585c0.126,-1.42 0.23,-2.861 0.334,-4.324c0.021,-0.292 0.314,-0.522 0.585,-0.501c0.293,0.021 0.523,0.271 0.502,0.585c-0.105,1.462 -0.209,2.924 -0.335,4.345c-0.02,0.271 -0.271,0.501 -0.564,0.48Zm-229.785,-13.244c-0.292,0 -0.522,-0.229 -0.522,-0.522l-0.167,-4.345c-0.021,-0.292 0.23,-0.543 0.522,-0.564c0.293,-0.021 0.543,0.23 0.564,0.522l0.167,4.345c0.021,0.293 -0.229,0.543 -0.522,0.564l-0.042,0Zm230.705,-1.19c-0.021,-0 -0.021,-0 -0,-0c-0.313,-0.021 -0.543,-0.272 -0.522,-0.564c0.062,-1.442 0.125,-2.883 0.167,-4.345c-0,-0.293 0.313,-0.564 0.564,-0.523c0.292,0 0.543,0.251 0.522,0.564c-0.042,1.463 -0.104,2.904 -0.167,4.345c-0.021,0.293 -0.272,0.523 -0.564,0.523Zm-231.289,-13.286c-0.293,-0 -0.523,-0.23 -0.523,-0.522l-0.167,-4.345c-0.021,-0.293 0.23,-0.544 0.523,-0.564c0.292,-0.021 0.543,0.229 0.564,0.522l0.167,4.345c0.021,0.292 -0.23,0.543 -0.523,0.564l-0.041,-0Zm231.602,-1.191c-0.292,0 -0.522,-0.251 -0.522,-0.543c0,-1.441 0,-2.883 -0.021,-4.324c0,-0.293 0.23,-0.543 0.543,-0.543c0.272,-0 0.543,0.229 0.543,0.543c0.021,1.462 0.021,2.904 0.021,4.345c0,0.271 -0.25,0.522 -0.564,0.522Zm-232.166,-13.265c-0.293,0 -0.523,-0.23 -0.523,-0.522l-0.167,-4.345c-0.021,-0.293 0.23,-0.543 0.523,-0.564c0.292,-0.021 0.543,0.23 0.564,0.522l0.167,4.345c0.021,0.293 -0.23,0.543 -0.523,0.564l-0.041,0Zm231.811,-1.211c-0.271,-0 -0.522,-0.23 -0.522,-0.523c-0.063,-1.441 -0.146,-2.882 -0.251,-4.324c-0.021,-0.292 0.209,-0.564 0.502,-0.585c0.313,-0.021 0.564,0.209 0.585,0.502c0.104,1.441 0.188,2.903 0.25,4.345c0.021,0.292 -0.209,0.564 -0.522,0.564c0,0.021 -0.021,0.021 -0.042,0.021Zm-232.396,-13.265c-0.293,-0 -0.523,-0.23 -0.523,-0.523l-0.188,-4.909l4.68,-0.041c0.334,0.021 0.543,0.229 0.543,0.543c-0,0.292 -0.23,0.543 -0.543,0.543l-3.572,0.021l0.146,3.781c0.021,0.292 -0.23,0.543 -0.522,0.564l-0.021,0.021Zm14.1,-4.45c-0.292,0 -0.522,-0.25 -0.522,-0.543c-0,-0.292 0.23,-0.543 0.543,-0.543l4.345,-0.042c0.355,0 0.543,0.23 0.543,0.543c0,0.293 -0.23,0.544 -0.543,0.544l-4.366,0.041Zm14.477,-0.104c-0.293,-0 -0.523,-0.251 -0.523,-0.543c0,-0.293 0.23,-0.543 0.543,-0.543l4.345,-0.042c0.314,-0 0.544,0.23 0.544,0.543c-0,0.292 -0.23,0.543 -0.544,0.543l-4.365,0.042Zm14.476,-0.105c-0.292,0 -0.522,-0.25 -0.522,-0.543c-0,-0.292 0.23,-0.543 0.543,-0.543l4.345,-0.042c0.313,0.021 0.543,0.23 0.543,0.543c0,0.293 -0.23,0.544 -0.543,0.544l-4.366,0.041Zm14.477,-0.125c-0.293,0 -0.523,-0.251 -0.523,-0.543c0,-0.293 0.23,-0.543 0.543,-0.543l4.345,-0.042c0.335,-0 0.544,0.23 0.544,0.543c-0,0.293 -0.23,0.543 -0.544,0.543l-4.365,0.042Zm14.476,-0.104c-0.292,-0 -0.522,-0.251 -0.522,-0.544c-0,-0.292 0.23,-0.543 0.543,-0.543l4.345,-0.041c0.334,0.041 0.543,0.229 0.543,0.543c0,0.292 -0.23,0.543 -0.543,0.543l-4.366,0.042Zm14.476,-0.105c-0.292,0 -0.522,-0.251 -0.522,-0.543c0,-0.292 0.23,-0.543 0.543,-0.543l4.345,-0.042c0.335,0.021 0.544,0.23 0.544,0.543c-0,0.293 -0.23,0.543 -0.544,0.543l-4.366,0.042c0.021,0 0,0 0,0Zm144.786,3.823c-0.271,-0 -0.501,-0.209 -0.522,-0.481c-0.167,-1.441 -0.334,-2.861 -0.522,-4.303c-0.042,-0.292 0.167,-0.564 0.459,-0.606c0.293,-0.041 0.564,0.168 0.606,0.46c0.188,1.441 0.355,2.883 0.522,4.324c0.042,0.293 -0.188,0.564 -0.48,0.606l-0.063,-0Zm-130.309,-3.927c-0.292,-0 -0.522,-0.251 -0.522,-0.543c-0,-0.293 0.23,-0.544 0.543,-0.544l4.345,-0.041c0.313,-0 0.543,0.229 0.543,0.543c0,0.292 -0.23,0.543 -0.543,0.543l-4.366,0.042c0.021,-0 -0,-0 -0,-0Zm14.476,-0.105c-0.292,0 -0.522,-0.25 -0.522,-0.543c0,-0.292 0.23,-0.543 0.543,-0.543l4.345,-0.042c0.355,-0.021 0.543,0.23 0.543,0.543c0,0.293 -0.229,0.543 -0.543,0.543l-4.366,0.042c0.021,0 0,0 0,0Zm14.477,-0.125c-0.293,-0 -0.522,-0.251 -0.522,-0.543c-0,-0.293 0.229,-0.543 0.543,-0.543l4.345,-0.042c0.313,0.021 0.543,0.23 0.543,0.543c-0,0.292 -0.23,0.543 -0.543,0.543l-4.366,0.042Zm14.476,-0.105c-0.292,0 -0.522,-0.25 -0.522,-0.543c0,-0.292 0.23,-0.543 0.543,-0.543l4.345,-0.042c0.335,0 0.543,0.23 0.543,0.544c0,0.292 -0.229,0.543 -0.543,0.543l-4.366,0.041Zm14.477,-0.104c-0.293,-0 -0.522,-0.251 -0.522,-0.543c-0,-0.293 0.229,-0.543 0.543,-0.543l4.345,-0.042c0.334,-0.021 0.543,0.23 0.543,0.543c-0,0.293 -0.23,0.543 -0.543,0.543l-4.366,0.042Zm14.497,-0.104c-0.292,-0 -0.522,-0.251 -0.522,-0.544c-0,-0.292 0.23,-0.543 0.543,-0.543l4.345,-0.041c0.293,-0 0.543,0.229 0.543,0.543c0,0.292 -0.23,0.543 -0.543,0.543l-4.366,0.042Zm14.477,-0.126c-0.293,0 -0.523,-0.25 -0.523,-0.543c0,-0.292 0.23,-0.543 0.544,-0.543l4.345,-0.042c0.334,0 0.543,0.23 0.543,0.543c-0,0.293 -0.23,0.543 -0.543,0.543l-4.366,0.042c-0,0.021 -0,0 -0,0Zm14.476,-0.104c-0.292,-0 -0.522,-0.251 -0.522,-0.543c-0,-0.293 0.23,-0.543 0.543,-0.543l4.345,-0.042c0.334,-0.021 0.543,0.23 0.543,0.543c0,0.292 -0.23,0.543 -0.543,0.543l-4.366,0.042Zm14.477,-0.105c-0.293,0 -0.523,-0.25 -0.523,-0.543c0,-0.292 0.23,-0.543 0.544,-0.543l4.345,-0.042c0.355,0.042 0.543,0.23 0.543,0.543c-0,0.293 -0.23,0.544 -0.543,0.544l-4.366,0.041Z" style="fill:#fff;fill-rule:nonzero;"/><path d="M501.811,355.66l0.523,-6.204c0.647,-1.484 1.984,-2.549 3.593,-2.821c5.995,-1.002 20.847,-2.799 28.054,2.507l1.128,7.207l-33.298,-0.689Z" style="fill:#11baff;fill-rule:nonzero;"/><path d="M520.508,349.539c-1.379,0.355 -2.758,0.355 -4.157,0.021c-1.672,-0.397 -2.883,-1.901 -2.883,-3.614l-0.146,-19.427l9.88,-0.084l0.147,19.407c0.021,1.755 -1.149,3.28 -2.841,3.697Z" style="fill:#11baff;fill-rule:nonzero;"/><path d="M597.55,354.929l0.522,-6.204c0.648,-1.484 1.985,-2.549 3.593,-2.82c5.996,-1.003 20.848,-2.8 28.055,2.506l1.128,7.207l-33.298,-0.689Z" style="fill:#11baff;fill-rule:nonzero;"/><path d="M616.245,348.829c-1.378,0.355 -2.757,0.355 -4.157,0.021c-1.671,-0.397 -2.882,-1.901 -2.882,-3.614l-0.167,-21.475l9.88,-0.083l0.167,21.453c0,1.734 -1.169,3.259 -2.841,3.698Z" style="fill:#11baff;fill-rule:nonzero;"/><path d="M512.361,331.303l106.244,-4.324c2.423,-0.105 4.471,-1.86 4.868,-4.241c0.564,-3.321 1.023,-8.314 0.229,-13.474c-0.919,-5.87 -5.995,-10.194 -11.969,-10.277c-19.825,-0.314 -70.315,0.062 -98.035,11.28c-2.925,1.191 -5.097,3.718 -5.829,6.789c-0.689,2.925 -1.128,6.831 -0.167,10.8c0.523,2.089 2.486,3.53 4.659,3.447l-0,-0Z" style="fill:#11baff;fill-rule:nonzero;"/><path d="M510.439,326.77c-0.71,-0.021 -1.316,-0.565 -1.4,-1.296c-0.02,-0.167 -0.459,-4.345 0.606,-8.376c0.857,-3.259 3.405,-5.891 6.664,-6.873c5.954,-1.797 17.338,-4.867 26.697,-5.181c0.794,-0.021 1.462,0.585 1.504,1.4c0.021,0.794 -0.606,1.462 -1.4,1.504c-9.024,0.313 -20.137,3.321 -25.965,5.076c-2.298,0.69 -4.095,2.549 -4.68,4.826c-0.919,3.488 -0.522,7.29 -0.522,7.332c0.084,0.794 -0.48,1.504 -1.274,1.588l-0.23,-0Z" style="fill:url(#_Linear1);fill-rule:nonzero;"/><path d="M452.491,353.613c34.343,-0.69 182.846,-3.384 226.046,1.504c3.719,0.418 6.768,3.112 7.604,6.747c2.632,11.51 7.959,38.249 7.562,64.779c-0.063,3.613 -2.674,6.684 -6.246,7.374l-98.348,19.364l-34.99,0.272l-105.096,-20.075c-3.697,-0.71 -6.455,-3.823 -6.684,-7.562c-0.773,-13.349 -2.089,-44.662 1.378,-64.862c0.731,-4.283 4.408,-7.458 8.774,-7.541l0,-0Z" style="fill:#11baff;fill-rule:nonzero;"/><path d="M554.87,445.716l-0.083,-0l-4.262,-0.815c-0.292,-0.063 -0.48,-0.334 -0.439,-0.627c0.063,-0.292 0.335,-0.48 0.627,-0.438l4.262,0.814c0.292,0.063 0.48,0.335 0.438,0.627c-0.041,0.251 -0.271,0.439 -0.543,0.439Zm6.246,-0.042c-0.292,-0 -0.522,-0.251 -0.522,-0.543c-0,-0.293 0.23,-0.543 0.543,-0.543l4.345,-0.042c0.293,0.021 0.543,0.23 0.543,0.543c0,0.293 -0.23,0.543 -0.543,0.543l-4.366,0.042c0.021,-0 0,-0 0,-0Zm14.477,-0.125c-0.293,-0 -0.523,-0.251 -0.523,-0.543c0,-0.293 0.23,-0.544 0.544,-0.544l4.345,-0.041c0.334,-0.021 0.543,0.229 0.543,0.543c-0,0.292 -0.23,0.543 -0.543,0.543l-4.366,0.042Zm14.455,-0.439c-0.25,-0 -0.459,-0.188 -0.522,-0.439c-0.063,-0.292 0.125,-0.585 0.418,-0.647l4.261,-0.836c0.293,-0.063 0.585,0.125 0.648,0.439c0.063,0.292 -0.125,0.585 -0.418,0.647l-4.261,0.836l-0.126,-0Zm-49.404,-2.11l-0.083,0l-4.262,-0.815c-0.292,-0.062 -0.48,-0.334 -0.438,-0.626c0.062,-0.293 0.334,-0.481 0.626,-0.439l4.262,0.815c0.292,0.062 0.48,0.334 0.439,0.626c-0.042,0.251 -0.272,0.439 -0.544,0.439Zm-14.205,-2.716l-0.083,0l-4.262,-0.814c-0.292,-0.063 -0.48,-0.334 -0.438,-0.627c0.042,-0.292 0.334,-0.48 0.626,-0.439l4.262,0.815c0.292,0.063 0.48,0.334 0.439,0.627c-0.063,0.25 -0.293,0.438 -0.544,0.438Zm77.814,2.027c-0.251,-0 -0.46,-0.188 -0.522,-0.439c-0.063,-0.292 0.125,-0.585 0.417,-0.647l4.262,-0.836c0.292,-0.063 0.585,0.125 0.648,0.439c0.062,0.292 -0.126,0.585 -0.418,0.647l-4.262,0.836l-0.125,-0Zm-92.039,-4.742l-0.084,-0l-4.261,-0.815c-0.293,-0.063 -0.481,-0.334 -0.439,-0.627c0.063,-0.292 0.334,-0.48 0.627,-0.438l4.261,0.814c0.293,0.063 0.481,0.335 0.439,0.627c-0.042,0.251 -0.293,0.439 -0.543,0.439Zm106.244,1.943c-0.25,-0 -0.459,-0.188 -0.522,-0.439c-0.063,-0.293 0.125,-0.585 0.418,-0.648l4.261,-0.835c0.293,-0.063 0.585,0.125 0.648,0.438c0.062,0.293 -0.126,0.585 -0.418,0.648l-4.261,0.836l-0.126,-0Zm-120.47,-4.659l-0.084,0l-4.261,-0.814c-0.293,-0.063 -0.481,-0.335 -0.439,-0.627c0.063,-0.293 0.334,-0.481 0.627,-0.439l4.261,0.815c0.293,0.063 0.481,0.334 0.439,0.627c-0.042,0.25 -0.272,0.438 -0.543,0.438Zm134.675,1.859c-0.251,0 -0.46,-0.188 -0.522,-0.438c-0.063,-0.293 0.125,-0.585 0.418,-0.648l4.261,-0.835c0.292,-0.063 0.585,0.125 0.648,0.438c0.062,0.314 -0.126,0.585 -0.418,0.648l-4.262,0.835l-0.125,0Zm-148.901,-4.574l-0.083,-0l-4.262,-0.815c-0.292,-0.063 -0.48,-0.334 -0.439,-0.627c0.042,-0.292 0.335,-0.48 0.627,-0.439l4.262,0.815c0.292,0.063 0.48,0.334 0.438,0.627c-0.042,0.251 -0.271,0.439 -0.543,0.439Zm-14.226,-2.716l-0.083,-0l-4.262,-0.815c-0.292,-0.062 -0.48,-0.334 -0.438,-0.626c0.062,-0.293 0.334,-0.481 0.626,-0.439l4.262,0.815c0.292,0.062 0.48,0.334 0.438,0.626c-0.041,0.251 -0.271,0.439 -0.543,0.439Zm177.332,4.491c-0.251,0 -0.46,-0.188 -0.523,-0.439c-0.062,-0.292 0.126,-0.584 0.418,-0.647l4.262,-0.836c0.292,-0.062 0.585,0.126 0.647,0.439c0.063,0.292 -0.125,0.585 -0.418,0.648l-4.261,0.835l-0.125,0Zm-191.537,-7.207l-0.084,0l-4.261,-0.814c-0.292,-0.063 -0.481,-0.335 -0.439,-0.627c0.063,-0.293 0.335,-0.481 0.627,-0.439l4.261,0.815c0.293,0.063 0.481,0.334 0.439,0.627c-0.063,0.25 -0.292,0.438 -0.543,0.438Zm205.741,4.408c-0.25,-0 -0.459,-0.188 -0.522,-0.439c-0.062,-0.292 0.126,-0.585 0.418,-0.647l4.261,-0.836c0.293,-0.063 0.585,0.125 0.648,0.439c0.063,0.292 -0.125,0.585 -0.418,0.647l-4.261,0.836l-0.126,-0Zm14.205,-2.799c-0.25,-0 -0.459,-0.188 -0.522,-0.439c-0.063,-0.292 0.125,-0.585 0.418,-0.648l4.261,-0.835c0.293,-0.063 0.585,0.125 0.627,0.439c0.063,0.292 -0.125,0.584 -0.418,0.647l-4.261,0.836l-0.105,-0Zm-224.959,-12.325c-0.293,-0 -0.523,-0.23 -0.523,-0.522c-0.062,-1.379 -0.104,-2.841 -0.146,-4.345c0,-0.293 0.23,-0.543 0.522,-0.564c0.314,-0.042 0.544,0.229 0.564,0.522c0.042,1.504 0.105,2.945 0.147,4.345c0.021,0.292 -0.23,0.543 -0.523,0.564l-0.041,-0Zm234.882,5.995c-0.292,0 -0.522,-0.25 -0.522,-0.543c-0.021,-1.441 -0.042,-2.883 -0.105,-4.324c0,-0.293 0.23,-0.543 0.523,-0.564c0.292,-0.021 0.543,0.23 0.564,0.522c0.041,1.442 0.083,2.904 0.104,4.345c0,0.293 -0.23,0.543 -0.543,0.543c-0,0.021 -0.021,0.021 -0.021,0.021Zm-235.258,-20.492c-0.293,-0 -0.523,-0.251 -0.523,-0.544c-0.02,-1.441 -0.02,-2.882 -0.02,-4.345c-0,-0.292 0.25,-0.543 0.543,-0.543c0.292,0.042 0.543,0.251 0.543,0.543c-0,1.463 -0,2.904 0.021,4.345c-0,0.293 -0.23,0.544 -0.543,0.544l-0.021,-0Zm234.59,6.037c-0.272,-0 -0.502,-0.23 -0.523,-0.502c-0.104,-1.462 -0.229,-2.903 -0.376,-4.324c-0.02,-0.292 0.188,-0.564 0.481,-0.585c0.292,-0.042 0.564,0.188 0.585,0.481c0.146,1.441 0.271,2.882 0.376,4.345c0.021,0.292 -0.209,0.564 -0.501,0.585l-0.042,-0Zm-234.486,-20.514c-0.292,0 -0.543,-0.251 -0.522,-0.564c0.042,-1.462 0.084,-2.904 0.146,-4.345c0.021,-0.292 0.209,-0.564 0.564,-0.522c0.293,0.021 0.523,0.271 0.523,0.564c-0.063,1.441 -0.105,2.883 -0.147,4.324c-0.02,0.313 -0.271,0.564 -0.564,0.543Zm232.961,6.121c-0.271,-0 -0.48,-0.209 -0.522,-0.481c-0.188,-1.462 -0.397,-2.903 -0.606,-4.303c-0.042,-0.292 0.167,-0.564 0.46,-0.606c0.292,-0.042 0.564,0.167 0.605,0.46c0.209,1.399 0.397,2.841 0.606,4.303c0.042,0.292 -0.167,0.564 -0.459,0.606c-0.021,0.021 -0.063,0.021 -0.084,0.021Zm-2.214,-14.331c-0.251,0 -0.481,-0.188 -0.522,-0.438c-0.272,-1.483 -0.523,-2.925 -0.794,-4.262c-0.063,-0.292 0.146,-0.585 0.438,-0.626c0.293,-0.063 0.585,0.125 0.627,0.438c0.251,1.358 0.522,2.779 0.794,4.283c0.063,0.292 -0.146,0.585 -0.439,0.626c-0.042,-0.021 -0.062,-0.021 -0.104,-0.021Zm-229.932,-6.246l-0.042,0c-0.292,-0.02 -0.522,-0.292 -0.48,-0.584c0.125,-1.484 0.292,-2.925 0.46,-4.345c0.041,-0.293 0.313,-0.502 0.605,-0.481c0.293,0.042 0.502,0.313 0.481,0.606c-0.167,1.399 -0.334,2.841 -0.46,4.303c-0.021,0.293 -0.271,0.522 -0.564,0.501Zm5.933,-10.006c-0.293,0 -0.522,-0.25 -0.522,-0.522c-0,-0.292 0.229,-0.543 0.522,-0.564l4.345,-0.083c0.292,-0 0.543,0.229 0.543,0.522c0,0.292 -0.23,0.543 -0.522,0.564l-4.345,0.083l-0.021,0Zm14.476,-0.271c-0.292,-0 -0.522,-0.251 -0.522,-0.543c0,-0.293 0.23,-0.543 0.543,-0.543l4.345,-0.084c0.272,-0 0.543,0.23 0.543,0.543c0,0.293 -0.229,0.543 -0.543,0.543l-4.345,0.084l-0.021,-0Zm14.477,-0.23c-0.293,-0 -0.522,-0.251 -0.522,-0.543c-0,-0.293 0.229,-0.543 0.543,-0.543l4.345,-0.063c0.292,0 0.543,0.23 0.543,0.543c-0,0.293 -0.23,0.543 -0.543,0.543l-4.345,0.063l-0.021,-0Zm14.497,-0.209c-0.292,0 -0.522,-0.251 -0.522,-0.543c0,-0.292 0.23,-0.543 0.543,-0.543l4.345,-0.063c0.272,0.021 0.543,0.23 0.543,0.543c0,0.293 -0.229,0.543 -0.543,0.543l-4.345,0.063l-0.021,0Zm14.477,-0.188c-0.293,0 -0.523,-0.251 -0.523,-0.543c0,-0.292 0.23,-0.543 0.544,-0.543l4.345,-0.042c0.334,0.021 0.543,0.23 0.543,0.543c-0,0.293 -0.23,0.543 -0.543,0.543l-4.366,0.042c0.021,0 -0,0 -0,0Zm14.476,-0.146c-0.292,-0 -0.522,-0.251 -0.522,-0.543c-0,-0.293 0.23,-0.543 0.543,-0.543l4.345,-0.042c0.293,0.021 0.543,0.23 0.543,0.543c0,0.292 -0.23,0.543 -0.543,0.543l-4.366,0.042Zm14.498,-0.125c-0.293,-0 -0.523,-0.251 -0.523,-0.544c0,-0.292 0.23,-0.543 0.543,-0.543l4.345,-0.021c0.335,0 0.544,0.251 0.544,0.544c-0,0.292 -0.23,0.543 -0.544,0.543l-4.365,0.021Zm134.215,3.237c-0.251,0 -0.46,-0.167 -0.522,-0.417l-0.021,-0.126c-1.086,-0.125 -2.235,-0.229 -3.468,-0.355c-0.292,-0.021 -0.522,-0.292 -0.501,-0.585c0.021,-0.292 0.313,-0.543 0.585,-0.48c1.295,0.125 2.506,0.251 3.634,0.376c0.376,0.042 0.669,0.292 0.753,0.627l0.083,0.334c0.063,0.292 -0.125,0.585 -0.418,0.647c-0.021,-0.041 -0.062,-0.021 -0.125,-0.021Zm-119.739,-3.321c-0.292,-0 -0.522,-0.251 -0.522,-0.543c-0,-0.293 0.25,-0.543 0.543,-0.543l4.345,-0.021c0.334,0.042 0.543,0.251 0.543,0.543c0,0.292 -0.251,0.543 -0.543,0.543l-4.366,0.021Zm14.477,-0.021c-0.293,0 -0.523,-0.251 -0.523,-0.543c0,-0.292 0.251,-0.543 0.543,-0.543l4.345,-0c0.293,0.021 0.544,0.251 0.544,0.543c-0,0.292 -0.251,0.543 -0.544,0.543l-4.365,0Zm14.476,0c-0.292,0 -0.522,-0.251 -0.522,-0.543c-0,-0.292 0.25,-0.543 0.543,-0.543l4.345,0.021l0.021,-0c0.292,-0 0.522,0.25 0.522,0.543c0,0.292 -0.251,0.543 -0.543,0.543l-4.366,-0.021Zm14.476,0.084c-0.292,-0 -0.522,-0.251 -0.522,-0.543c0,-0.293 0.251,-0.544 0.543,-0.544l4.345,0.042c0.356,0.042 0.544,0.251 0.544,0.543c-0,0.293 -0.251,0.543 -0.544,0.543l-4.366,-0.041Zm62.231,1.608c-1.4,-0.083 -2.841,-0.167 -4.346,-0.23c-0.292,-0.021 -0.522,-0.271 -0.522,-0.564c0.021,-0.292 0.251,-0.543 0.564,-0.522c1.504,0.084 2.946,0.167 4.345,0.23c0.293,0.021 0.523,0.271 0.502,0.564c-0,0.313 -0.251,0.543 -0.543,0.522Zm-47.754,-1.462c-0.293,-0 -0.522,-0.251 -0.522,-0.543c-0,-0.293 0.25,-0.543 0.543,-0.543c1.462,0.021 2.924,0.041 4.345,0.062c0.292,0 0.543,0.251 0.522,0.543c0,0.293 -0.251,0.544 -0.543,0.544c-1.421,-0.021 -2.862,-0.042 -4.345,-0.063Zm33.298,0.794c-1.421,-0.042 -2.862,-0.105 -4.345,-0.147c-0.293,0 -0.543,-0.25 -0.522,-0.564c-0,-0.292 0.25,-0.543 0.564,-0.522c1.483,0.042 2.924,0.105 4.345,0.146c0.292,0.021 0.543,0.272 0.522,0.564c-0.021,0.293 -0.272,0.523 -0.564,0.523Zm-18.822,-0.543c-0.292,-0 -0.543,-0.251 -0.522,-0.564c0,-0.293 0.251,-0.544 0.564,-0.523c1.483,0.021 2.925,0.063 4.345,0.105c0.293,-0 0.543,0.25 0.522,0.564c0,0.292 -0.25,0.543 -0.564,0.522c-1.42,-0.042 -2.861,-0.063 -4.345,-0.104Z" style="fill:#fff;fill-rule:nonzero;"/><path d="M585.914,468.106l-30.645,0.23c-4.011,0.021 -7.416,-2.925 -7.938,-6.894l-3.76,-29.475c-0.606,-4.7 3.049,-8.857 7.812,-8.899l36.829,-0.271c4.658,-0.042 8.335,3.906 7.959,8.522l-2.403,29.517c-0.334,4.095 -3.739,7.249 -7.854,7.27Z" style="fill:#ddedff;fill-rule:nonzero;"/><path d="M582.114,462.722l-23.334,0.167c-3.05,0.021 -5.64,-2.236 -6.037,-5.244l-2.862,-22.435c-0.46,-3.572 2.319,-6.747 5.953,-6.768l28.034,-0.209c3.551,-0.021 6.351,2.987 6.058,6.497l-1.838,22.456c-0.251,3.112 -2.841,5.515 -5.974,5.536Z" style="fill:#44b0ff;fill-rule:nonzero;"/></g><g><path d="M491.074,510.851c-0.793,14.435 -13.891,25.924 -29.287,25.924l-266.864,0c-15.438,0 -28.41,-11.51 -28.974,-25.987l-17.673,-447.768c-0.731,-18.654 13.035,-33.841 30.771,-33.778l306.575,1.003c17.652,0.062 31.126,15.27 30.102,33.862l-24.65,446.744l0,0Z" style="fill:#eefeff;fill-rule:nonzero;"/><path d="M485.727,39.726l-305.824,-0.982c-12.763,-0.041 -22.728,10.905 -22.226,24.358l16.586,447.809c0.397,10.466 9.755,18.905 20.931,18.905l267.429,0.021c11.134,0 20.597,-8.418 21.14,-18.863l23.71,-446.807c0.71,-13.411 -9.025,-24.399 -21.746,-24.441l-0,0Z" style="fill:#44b0ff;fill-opacity:0.5;fill-rule:nonzero;"/><g><path d="M206.537,72.251c0.167,6.727 -4.867,12.158 -11.238,12.137c-6.372,-0.021 -11.719,-5.473 -11.907,-12.199c-0.209,-6.748 4.825,-12.221 11.238,-12.2c6.413,0 11.74,5.515 11.907,12.262Z" style="fill:#fff;fill-rule:nonzero;"/><path d="M481.716,73.066c-0.314,6.705 -5.724,12.116 -12.074,12.116c-6.351,-0.021 -11.281,-5.452 -11.009,-12.179c0.271,-6.747 5.682,-12.199 12.074,-12.178c6.413,-0 11.322,5.494 11.009,12.241Z" style="fill:#fff;fill-rule:nonzero;"/></g><g><path d="M217.087,502.032c0.125,5.327 -4.366,9.61 -10.027,9.61c-5.661,-0 -10.403,-4.304 -10.55,-9.631c-0.167,-5.326 4.325,-9.671 10.027,-9.671c5.682,0.02 10.424,4.366 10.55,9.692Z" style="fill:#fff;fill-rule:nonzero;"/><path d="M461.766,502.098c-0.251,5.305 -5.034,9.609 -10.675,9.609c-5.661,-0 -10.068,-4.304 -9.839,-9.609c0.209,-5.327 4.993,-9.651 10.675,-9.651c5.682,-0.021 10.09,4.324 9.839,9.651Z" style="fill:#fff;fill-rule:nonzero;"/></g><g><path d="M409.041,183.05c-1.232,43.199 -36.076,77.437 -77.856,77.354c-41.8,-0.084 -76.142,-34.468 -76.685,-77.709c-0.543,-44.265 34.342,-80.801 77.96,-80.697c43.575,0.126 77.834,36.829 76.581,81.052l0,-0Z" style="fill:#fff;fill-rule:nonzero;"/><path d="M396.946,183.007c-0.919,36.495 -30.311,65.51 -65.656,65.448c-35.366,-0.063 -64.319,-29.225 -64.674,-65.74c-0.355,-37.246 29.099,-67.933 65.74,-67.828c36.64,0.104 65.53,30.895 64.59,68.12Z" style="fill:url(#_Linear2);fill-rule:nonzero;"/><path d="M382.031,182.987c-0.606,28.201 -23.271,50.72 -50.637,50.678c-27.386,-0.063 -49.696,-22.665 -49.842,-50.887c-0.146,-28.661 22.54,-52.141 50.678,-52.078c28.138,0.042 50.427,23.647 49.801,52.287l-0,-0Z" style="fill:#fff;fill-rule:nonzero;"/><path d="M354.707,182.924c-0.188,12.91 -10.507,23.292 -23.083,23.25c-12.554,-0.021 -22.728,-10.445 -22.707,-23.354c0.021,-12.994 10.362,-23.585 23.083,-23.543c12.722,0.021 22.874,10.654 22.707,23.647Z" style="fill:url(#_Linear3);fill-rule:nonzero;"/><g><path d="M317.482,183.007c-0.543,0 -0.961,-0.438 -0.961,-0.981c0.042,-8.837 7.103,-16.064 15.751,-16.044c0.522,0 1.044,0.021 1.546,0.084c0.543,0.063 0.919,0.543 0.856,1.086c-0.063,0.543 -0.522,0.94 -1.065,0.899c-0.439,-0.042 -0.898,-0.063 -1.358,-0.063c-7.583,-0.021 -13.766,6.288 -13.808,14.038c-0,0.522 -0.418,0.981 -0.961,0.981Z" style="fill:#91b3fa;fill-rule:nonzero;"/></g></g><g><path d="M436.803,387.391c-2.13,56.151 -50.197,100.374 -107.435,100.354c-57.279,-0.021 -104.719,-44.328 -105.973,-100.562c-1.274,-58.073 46.918,-106.475 107.623,-106.37c60.664,0.083 107.979,48.589 105.785,106.578Z" style="fill:#fff;fill-rule:nonzero;"/><path d="M420.112,387.37c-1.587,47.482 -42.134,85.042 -90.619,85.021c-48.526,-0.021 -88.529,-37.664 -89.365,-85.188c-0.836,-48.84 39.794,-89.387 90.765,-89.303c50.929,0.083 90.849,40.672 89.219,89.47l0,0Z" style="fill:url(#_Linear4);fill-rule:nonzero;"/><path d="M399.515,387.35c-1.002,36.723 -32.274,65.927 -69.875,65.906c-37.622,-0.021 -68.456,-29.287 -68.894,-66.053c-0.439,-37.538 30.895,-68.518 69.959,-68.455c39.064,0.063 69.855,31.104 68.81,68.601l0,0.001Z" style="fill:#fff;fill-rule:nonzero;"/><path d="M361.768,387.307c-0.293,16.838 -14.539,30.353 -31.857,30.332c-17.317,-0.021 -31.355,-13.557 -31.376,-30.394c-0.021,-17.004 14.247,-30.875 31.857,-30.875c17.63,0.042 31.668,13.954 31.376,30.937Z" style="fill:url(#_Linear5);fill-rule:nonzero;"/><g><path d="M310.379,387.475c-0.731,-0 -1.337,-0.585 -1.337,-1.295c0.021,-11.573 9.777,-21.015 21.747,-21.015c0.71,-0 1.441,0.042 2.13,0.104c0.731,0.063 1.275,0.711 1.191,1.421c-0.084,0.71 -0.731,1.232 -1.483,1.17c-0.627,-0.063 -1.254,-0.084 -1.88,-0.084c-10.466,-0.021 -19.031,8.272 -19.052,18.404c0.021,0.731 -0.584,1.295 -1.316,1.295Z" style="fill:#91b3fa;fill-rule:nonzero;"/></g></g></g><g><path d="M172.571,255.202c-0,-0 -5.807,-11.301 -0.355,-14.686c5.452,-3.384 9.818,1.651 11.99,4.178c2.173,2.528 -5.159,12.388 -7.102,13.203c-1.943,0.793 -4.533,-2.695 -4.533,-2.695Z" style="fill:url(#_Linear6);fill-rule:nonzero;"/><path d="M178.503,253.239c0,-0 -18.967,49.863 14.038,69.499c4.679,2.778 5.975,8.941 3.008,13.474c-0.647,0.982 -1.358,1.964 -2.151,2.924c-3.823,4.575 -10.842,4.596 -14.707,0.063c-10.591,-12.387 -28.472,-42.113 -5.619,-84.331l5.431,-1.629l0,-0Z" style="fill:url(#_Linear7);fill-rule:nonzero;"/><path d="M210.883,457.603l-24.42,-6.831l-6.121,35.053c-0,-0 -9.923,0.146 -18.111,5.243c-8.189,5.097 -37.1,31.815 -37.1,31.815l-5.055,-1.17l-1.943,1.232l-2.82,21.475l8.084,-11.427c1.274,-1.817 4.805,-4.595 4.742,-4.804c15.604,-7.395 53.122,-28.828 63.086,-34.552c1.609,-0.919 2.904,-2.298 3.719,-3.969l15.938,-32.065l0.001,-0Z" style="fill:url(#_Linear8);fill-rule:nonzero;"/><path d="M209.295,560.274c-0.209,0 -0.397,0.021 -0.606,0c0.898,-11.28 5.034,-60.955 9.17,-79.568c4.68,-21.057 -7.018,-63.17 -7.018,-63.17l-21.057,21.057l11.698,39.773c-2.45,3.675 -3.28,12.794 -3.259,23.689c0.05,24.783 4.511,58.756 4.366,58.742l0.021,0.146l-3.05,4.199l0.376,2.277l18.655,11.008l-7.333,-11.907c-1.19,-1.901 -1.838,-4.031 -1.963,-6.246l-0,0Z" style="fill:url(#_Linear9);fill-rule:nonzero;"/><path d="M219.802,580.158l-5.953,-0c-1.108,-0 -2.173,-0.502 -2.841,-1.4c-1.86,-2.402 -5.703,-7.123 -7.542,-7.228c-2.465,-0.167 -2.151,8.628 -2.151,8.628l-1.379,-0l-1.755,-10.926c-0.438,-2.757 0.92,-5.473 3.405,-6.768c0,0 0.564,4.178 3.635,6.037c3.071,1.86 12.471,8.482 12.471,8.482c0,-0 1.149,-0.168 2.423,0.062c1.86,0.334 1.588,3.113 -0.313,3.113Z" style="fill:url(#_Linear10);fill-rule:nonzero;"/><path d="M114.205,546.236l-2.339,-5.473c-0.439,-1.023 -0.376,-2.193 0.167,-3.154c1.483,-2.653 4.303,-8.022 3.697,-9.776c-0.815,-2.34 -8.794,1.399 -8.794,1.399l-0.543,-1.274l9.358,-5.891c2.361,-1.483 5.39,-1.295 7.562,0.481c0,-0 -3.635,2.151 -4.136,5.702c-0.501,3.552 -2.904,14.811 -2.904,14.811c0,0 0.606,1.003 0.899,2.256c0.438,1.818 -2.215,2.674 -2.967,0.919Z" style="fill:url(#_Linear11);fill-rule:nonzero;"/><path d="M216.209,381.939c0,0 -0.689,4.22 0.314,15.813c1.002,11.594 5.828,38.813 4.846,64.863c0,-0 -13.703,3.196 -37.497,1.671c0,-0 -10.048,-40.672 -7.604,-56.13c2.445,-15.459 15.73,-26.551 15.73,-26.551l24.211,0.334l0,0Z" style="fill:url(#_Linear12);fill-rule:nonzero;"/><path d="M206.078,304.459l1.692,19.699l-15.918,0l3.948,-30.06l10.278,10.361Z" style="fill:url(#_Linear13);fill-rule:nonzero;"/><path d="M187.131,321.422c5.494,-0.292 17.756,-0.856 26.467,-0.397c4.575,0.251 8.419,3.531 9.359,8.022l2.13,10.173c0.794,3.781 0.669,7.708 -0.334,11.447l-8.523,31.272c0,0 -7.583,4.554 -24.211,-0.313c0,-0 -14.602,-34.844 -8.627,-57.133c0.438,-1.734 1.963,-2.966 3.739,-3.071l0,0Z" style="fill:#91b3fa;fill-rule:nonzero;"/><path d="M212.825,281.732c0.564,0.334 5.035,16.127 1.295,22.748c-3.76,6.622 -15.207,-0.793 -18.299,-10.361c-3.112,-9.588 1.88,-21.328 17.004,-12.387Z" style="fill:url(#_Linear14);fill-rule:nonzero;"/><path d="M183.141,294.099c-2.57,12.596 -11.072,9.149 -17.109,14.748c-9.776,9.066 -23.751,-0.272 -37.329,8.314c-9.818,6.204 -14.54,22.101 -9.839,34.927c6.517,17.756 28.806,25.067 40.358,19.657c11.03,-5.181 9.463,-20.66 24.316,-26.634c6.308,-2.549 9.421,-0.898 13.202,-4.659c6.601,-6.601 4.825,-19.385 4.136,-24.315c-1.483,-10.695 -5.076,-12.638 -3.363,-17.338c3.342,-9.15 18.884,-7.249 20.179,-13.704c1.17,-5.87 -10.089,-17.025 -20.701,-15.27c-16.42,2.715 -12.701,18.654 -13.85,24.274Z" style="fill:url(#_Linear15);fill-rule:nonzero;"/><path d="M123.752,349.08c-0.188,-0 -0.376,-0.126 -0.418,-0.335c-2.11,-8.711 -1.149,-15.876 2.841,-21.265c6.601,-8.941 19.448,-9.818 19.574,-9.839c0.209,-0.042 0.438,0.167 0.459,0.397c0.021,0.229 -0.167,0.438 -0.397,0.459c-0.125,0 -12.575,0.878 -18.947,9.484c-3.822,5.181 -4.721,12.074 -2.694,20.535c0.062,0.229 -0.084,0.459 -0.314,0.522c-0.02,0.021 -0.062,0.042 -0.104,0.042Z" style="fill:#fff;fill-opacity:0.6;fill-rule:nonzero;"/><path d="M165.824,357.06l-0.063,-0c-0.104,-0.021 -0.188,-0.147 -0.146,-0.272c2.047,-7.854 5.64,-13.307 10.674,-16.21c3.656,-2.11 7.082,-2.319 10.111,-2.486c2.924,-0.167 5.431,-0.314 7.457,-2.11c4.199,-3.718 3.949,-12.68 -0.731,-26.634c-0.041,-0.105 0.021,-0.23 0.147,-0.272c0.104,-0.042 0.229,0.021 0.271,0.146c4.721,14.122 4.93,23.251 0.606,27.094c-2.131,1.901 -4.721,2.047 -7.729,2.215c-2.987,0.167 -6.351,0.355 -9.923,2.423c-4.93,2.841 -8.46,8.209 -10.465,15.938c-0.021,0.105 -0.126,0.168 -0.209,0.168Z" style="fill:#fff;fill-opacity:0.72;fill-rule:nonzero;"/><path d="M189.22,290.965c-0.021,0 -0.042,0 -0.063,-0.021c-0.104,-0.042 -0.167,-0.167 -0.125,-0.271c1.629,-4.847 6.308,-4.116 11.28,-3.364c3.134,0.481 6.392,0.982 9.15,0.168c2.047,-0.606 3.279,-1.546 3.634,-2.8c0.606,-2.13 -1.504,-4.512 -1.524,-4.533c-0.084,-0.083 -0.063,-0.23 0.02,-0.313c0.084,-0.084 0.23,-0.063 0.293,0.021c0.104,0.104 2.298,2.569 1.629,4.951c-0.397,1.399 -1.713,2.444 -3.927,3.112c-2.841,0.836 -6.141,0.334 -9.338,-0.146c-4.992,-0.773 -9.295,-1.421 -10.799,3.071c-0.063,0.083 -0.147,0.125 -0.23,0.125Z" style="fill:#fff;fill-opacity:0.72;fill-rule:nonzero;"/><path d="M251.283,261.782c-0,0 8.418,-9.505 3.99,-14.142c-4.429,-4.638 -9.923,-0.836 -12.659,1.065c-2.737,1.901 1.921,13.286 3.593,14.56c1.713,1.254 5.076,-1.483 5.076,-1.483Z" style="fill:url(#_Linear16);fill-rule:nonzero;"/><path d="M246.04,258.419c-0,-0 5.995,53.018 -30.854,63.818c-5.223,1.525 -8.001,7.165 -6.246,12.304c0.376,1.107 0.835,2.235 1.358,3.363c2.569,5.389 9.358,7.144 14.225,3.718c13.328,-9.379 38.04,-33.715 26.405,-80.299l-4.888,-2.904l-0,-0Z" style="fill:url(#_Linear17);fill-rule:nonzero;"/></g><g><g><path d="M478.875,466.898c-0,-0 3.426,-5.076 7.186,-9.777c1.462,-1.838 4.031,-2.214 5.64,-0.856c5.431,4.617 17.025,14.539 20.848,18.487c0.564,0.585 0.334,1.651 -0.481,2.068c-0.668,0.355 -1.441,0.439 -2.11,0.251l-27.261,-7.708l-3.822,-2.465Z" style="fill:url(#_Linear18);fill-rule:nonzero;"/><path d="M475.95,469.008l5.578,-4.7c-0,0 5.18,1.692 5.891,5.891l-6.998,4.512l-4.471,-5.703Z" style="fill:url(#_Linear19);fill-rule:nonzero;"/><path d="M352.555,343.251c-8.69,-19.49 -16.878,-48.631 -7.332,-77.73l5.536,-5.536c-0,0 -0,45.602 11.343,68.247c-3.154,5.013 -6.33,10.027 -9.547,15.019l0,0Z" style="fill:url(#_Linear20);fill-rule:nonzero;"/><path d="M352.096,251.254l2.089,3.133c0.585,0.857 0.731,1.943 0.397,2.925c-0.857,2.569 -2.758,7.624 -5.473,10.319c-3.719,3.718 -7.437,-5.201 -8.189,-8.189c-0.752,-2.987 4.47,-10.423 5.953,-11.907c1.504,-1.483 7.458,-0.731 5.223,3.719Z" style="fill:url(#_Linear21);fill-rule:nonzero;"/><path d="M380.61,558.058c0,0 1.065,6.058 1.588,12.053c0.209,2.34 -1.609,4.366 -3.948,4.471c-7.98,0.334 -25.047,0.982 -31.168,0.71c-0.919,-0.042 -1.525,-0.982 -1.19,-1.838c0.292,-0.71 0.835,-1.295 1.545,-1.63l28.201,-12.951l4.972,-0.815Z" style="fill:url(#_Linear22);fill-rule:nonzero;"/><path d="M381.487,554.509l-0.856,7.248c-0,0 -4.93,2.298 -8.314,-0.292l2.047,-8.063l7.123,1.107Z" style="fill:url(#_Linear23);fill-rule:nonzero;"/><path d="M380.84,418.352c0.376,1.901 1.985,94.358 -7.896,135.803c-0.167,0.669 0.188,1.379 0.835,1.63c1.525,0.626 4.492,1.525 8.043,1.629c1.107,0.042 2.089,-0.689 2.402,-1.734c2.82,-9.609 22.248,-65.259 24.002,-111.278c1.964,-51.43 -7.039,-26.071 -7.039,-26.071l-20.347,0.021l0,0Z" style="fill:url(#_Linear24);fill-rule:nonzero;"/><path d="M423.538,420.022c8.293,20.91 11.009,24.169 14.706,48.046c4.429,28.618 26.091,8.857 37.643,-0.439c1.463,-1.17 5.808,3.029 6.225,8.941c0.544,7.708 -46.166,44.306 -58.804,18.445c-8.063,-16.523 -10.298,-35.136 -15.667,-45.414c-0.668,-1.274 -1.755,-2.298 -3.092,-2.862l-16.482,-7.06l-4.658,-16.19l40.129,-3.467l0,-0Z" style="fill:url(#_Linear25);fill-rule:nonzero;"/><path d="M432.562,345.758c8.69,-19.49 16.879,-48.631 7.333,-77.73l-5.536,-5.536c-0,0 -0,45.602 -11.343,68.246c3.175,5.014 6.35,10.027 9.546,15.02l0,0Z" style="fill:url(#_Linear26);fill-rule:nonzero;"/><path d="M380.819,338.781l27.282,0c2.736,0 5.368,-1.044 7.353,-2.945c2.549,-2.423 5.807,-6.518 8.126,-12.973c0.355,-0.981 1.4,-1.524 2.402,-1.211c3.51,1.044 11.197,4.011 15.229,10.946c0.376,0.648 0.376,1.462 -0.042,2.089l-17.025,26.342l1.671,64.966c0,0 -42.761,6.706 -48.631,0l-5.87,-59.535c0,-0 -20.952,-12.576 -26.822,-32.692l17.61,-10.069c0,-0 2.047,0.083 3.802,4.805c2.319,6.204 8.293,10.277 14.915,10.277l0,0Z" style="fill:#4cdcff;fill-rule:nonzero;"/><path d="M404.173,318.936l0.627,21.057c0.042,1.357 -0.794,2.569 -2.089,2.987c-2.611,0.877 -7.374,1.943 -12.68,0.794c-1.587,-0.335 -2.59,-1.901 -2.319,-3.51l2.883,-16.586l13.578,-4.742Z" style="fill:url(#_Linear27);fill-rule:nonzero;"/><g><path d="M389.739,299.655c-0.188,0.23 -6.559,17.547 -9.358,25.193c-0.711,1.922 0.334,4.052 2.318,4.679l6.163,1.128c4.073,0.752 8.126,-1.42 9.776,-5.243l7.416,-8.628c4.032,-4.7 2.653,-11.948 -2.862,-14.768c-5.452,-2.779 -11.406,-4.91 -13.453,-2.361Z" style="fill:url(#_Linear28);fill-rule:nonzero;"/><path d="M402.001,318.706l-1.755,-0.877c0,-0 7.04,-11.448 -0.877,-12.325c-7.938,-0.877 -14.978,-2.653 -14.978,-7.04c0,-4.407 0,-12.325 9.693,-8.815c9.693,3.53 8.815,9.693 14.1,10.57c5.285,0.877 9.693,1.755 7.938,7.04c-1.754,5.285 -5.285,8.815 -3.53,10.57c1.734,1.755 -6.183,10.57 -10.591,0.877Z" style="fill:url(#_Linear29);fill-rule:nonzero;"/><path d="M400.121,322.132c0,0 1.462,-7.75 4.742,-7.938c3.28,-0.188 6.267,2.653 2.778,6.852c-4.345,5.222 -7.52,1.086 -7.52,1.086Z" style="fill:url(#_Linear30);fill-rule:nonzero;"/></g><path d="M433.043,253.781l-2.089,3.134c-0.585,0.856 -0.731,1.943 -0.397,2.924c0.857,2.57 2.758,7.625 5.473,10.32c3.719,3.718 7.437,-5.202 8.189,-8.189c0.752,-2.987 -4.47,-10.424 -5.953,-11.907c-1.505,-1.504 -7.458,-0.752 -5.223,3.718Z" style="fill:url(#_Linear31);fill-rule:nonzero;"/></g><g><path d="M388.903,299.843l-0.041,0c-0.042,0 -1.191,-0.251 -1.86,-1.504c-0.71,-1.358 -0.543,-3.342 0.523,-5.87c0.041,-0.084 0.146,-0.125 0.229,-0.104c0.084,0.041 0.126,0.146 0.105,0.229c-1.003,2.382 -1.191,4.304 -0.522,5.557c0.585,1.086 1.608,1.316 1.608,1.316c0.105,0.021 0.167,0.104 0.146,0.209c-0.041,0.125 -0.104,0.167 -0.188,0.167Z" style="fill:#fff;fill-rule:nonzero;"/></g></g><g><path d="M520.698,405.336c0.084,-0.021 40.526,-70.879 45.999,-77.543c0.919,-1.128 2.34,-1.692 3.781,-1.525l11.28,1.337l13.265,28.703l-22.101,-12.868c2.194,15.124 -26.195,37.601 -35.93,45.79c-0.982,0.835 -1.065,2.318 -0.167,3.258l3.885,4.074c-6.371,6.475 -13.745,10.612 -22.059,12.534l2.047,-3.761l0,0.001Z" style="fill:url(#_Linear32);fill-rule:nonzero;"/><path d="M538.451,394.369c-0,-0 2.486,0.793 3.321,3.008c0.397,1.065 -0.02,2.256 -0.961,2.903c-4.094,2.925 -17.568,12.367 -23.772,14.226c-0.501,0.146 -1.003,-0.313 -0.877,-0.836c0.313,-1.441 1.358,-4.324 4.679,-8.543l-0.292,0.605c-0.376,0.773 0.459,1.567 1.19,1.149c4.157,-2.339 12.639,-7.478 16.712,-12.512Z" style="fill:url(#_Linear33);fill-rule:nonzero;"/><path d="M536.466,422.714c0.062,-0.042 6.141,-14.665 6.204,-14.706c5.557,-33.883 19.135,-62.899 23.146,-70.524c0.668,-1.274 1.942,-2.131 3.405,-2.256l11.322,-0.961l18.8,25.423l-24.253,-8.126c5.202,14.372 -18.048,42.113 -25.923,52.119c-0.794,1.024 -0.585,2.486 0.48,3.217l4.637,3.196c-4.929,7.625 -11.301,13.182 -19.051,16.754l1.233,-4.136l-0,-0Z" style="fill:url(#_Linear34);fill-rule:nonzero;"/><path d="M551.631,408.385c0,0 2.591,0.293 3.865,2.277c0.606,0.961 0.418,2.214 -0.334,3.05c-3.405,3.698 -14.686,15.667 -20.409,18.738c-0.46,0.251 -1.045,-0.104 -1.024,-0.627c0.021,-1.483 0.439,-4.512 2.841,-9.316l-0.167,0.647c-0.209,0.815 0.752,1.442 1.4,0.878c3.593,-3.155 10.841,-9.902 13.828,-15.647Z" style="fill:url(#_Linear35);fill-rule:nonzero;"/><g><path d="M633.562,328.9c0,0 10.257,15.25 11.092,22.206c0.836,6.956 -2.841,9.358 -13.557,10.236c-31.919,2.632 -47.649,-6.936 -47.649,-6.936c-2.193,-13.933 -3.739,-17.463 -21.976,-25.025c0,-0 23.062,1.838 27.7,0.021c4.637,-1.797 44.39,-0.502 44.39,-0.502Z" style="fill:url(#_Linear36);fill-rule:nonzero;"/></g><g><path d="M592.702,243.504c0,-0 7.144,-8.44 14.727,1.922c1.379,1.88 6.664,0.334 8.586,4.261c1.003,2.026 3.154,3.175 5.389,2.778c5.536,-1.023 14.581,-1.107 19.052,7.562c3.405,6.622 0.773,10.508 -2.632,12.701c-2.507,1.63 -3.405,4.909 -1.881,7.5c1.463,2.465 1.734,5.807 -2.026,9.818c-8.397,9.003 -25.046,-5.724 -25.046,-5.724l-13.203,-31.209l-2.966,-9.609Z" style="fill:url(#_Linear37);fill-rule:nonzero;"/><path d="M605.842,326.874c0,0 -11.927,-11.364 -17.818,-18.884c-3.176,-4.073 -4.178,-9.421 -2.695,-14.372c2.674,-9.045 7.457,-18.404 7.875,-19.845c0.669,-2.235 14.059,-2.131 14.059,-2.131c-0,0 26.342,17.088 36.682,46.041l-11.615,3.614c0,-0 -6.872,-11.531 -13.661,-18.864c-0,0 11.76,15.521 12.178,21.893l-25.005,2.548Z" style="fill:url(#_Linear38);fill-rule:nonzero;"/><path d="M583.116,331.365l8.962,-9.755l10.361,2.778c0,0 12.074,1.88 18.989,0l6.914,-1.88l15.626,-4.867l2.444,6.935c0.626,1.755 -0,3.719 -1.525,4.805c-1.358,0.961 -2.925,2.005 -3.948,2.465c-2.048,0.898 -47.378,0.292 -47.378,0.292l-10.445,-0.773Z" style="fill:url(#_Linear39);fill-rule:nonzero;"/><path d="M598.072,255.536l9.003,16.733c-0.585,3.655 -9.797,3.76 -11.218,1.566c-0.146,-0.229 -0.23,-0.48 -0.292,-0.731l-5.39,-11.176c-0.23,-1.086 2.758,-4.762 3.74,-5.285l3.572,-1.901c1.399,-0.731 -4.345,-0.793 0.585,0.794Z" style="fill:url(#_Linear40);fill-rule:nonzero;"/><g><path d="M579.878,251.609c-0,0 -1.024,5.64 3.425,12.826c4.45,7.186 8.858,6.852 11.114,4.304c2.256,-2.57 4.93,-6.831 3.718,-13.996c-1.232,-7.166 -16.733,-10.341 -18.257,-3.134Z" style="fill:url(#_Linear41);fill-rule:nonzero;"/><path d="M592.742,255.536c0,0 -7.186,-9.442 -12.722,-1.211l0.084,2.841c-0,-0 -7.186,-0.335 -6.392,-6.957c0.773,-6.622 6.643,-11.134 14.769,-8.878c8.126,2.256 12.868,4.826 13.787,10.487c0.919,5.64 -3.698,4.721 -3.698,4.721c0,-0 -1.754,-3.886 -3.885,-4.157c-2.131,-0.272 -1.358,2.82 -1.358,2.82l-0.585,0.334Z" style="fill:url(#_Linear42);fill-rule:nonzero;"/><path d="M594.397,255.264c-0,0 -3.719,-4.825 -0.335,-5.828c3.384,-1.002 3.259,4.742 3.05,6.873l-2.715,-1.045Z" style="fill:url(#_Linear43);fill-rule:nonzero;"/></g></g><g><path d="M612.796,335.23l-0.104,-0l-41.257,-0.042c-1.024,0 -1.838,-0.836 -1.838,-1.838c-0,-1.024 0.835,-1.859 1.838,-1.839l41.257,0.042c1.023,0 1.838,0.836 1.838,1.839c0.021,0.981 -0.773,1.796 -1.734,1.838Z" style="fill:url(#_Linear44);fill-rule:nonzero;"/><path d="M534.38,297.775l34.342,-0c2.528,-0 4.847,1.462 5.912,3.76l15.876,33.674l-42.698,0c-1.629,0 -3.092,-1.003 -3.697,-2.507l-12.325,-31.167c-0.69,-1.796 0.647,-3.76 2.59,-3.76Z" style="fill:url(#_Linear45);fill-rule:nonzero;"/><path d="M558.57,315.05c0.752,2.319 0.188,4.554 -1.232,5.014c-1.421,0.46 -3.176,-1.045 -3.928,-3.363c-0.752,-2.319 -0.188,-4.554 1.233,-5.014c1.42,-0.459 3.196,1.045 3.927,3.363Z" style="fill:#91b3fa;fill-rule:nonzero;"/></g></g></g><path d="M644.767,480.815c0.375,-0.214 0.803,-0.374 1.177,-0.588c0.535,-0.214 1.07,-0.321 1.659,-0.321c0.856,-0 1.712,0.214 2.408,0.749c0.695,0.588 1.07,1.444 1.016,2.354l0,0.375c2.408,-2.408 4.334,-5.244 5.672,-8.401c-0.161,0.107 -0.321,0.214 -0.482,0.321c-1.07,-0.856 -2.354,-1.498 -3.692,-1.873c-1.391,-0.428 -2.835,-0.642 -4.333,-0.642c-1.927,0 -3.799,0.268 -5.672,0.803c-1.605,0.428 -3.157,1.177 -4.548,2.087c-0.642,0.428 -1.231,0.963 -1.712,1.605c-0.428,0.696 -0.642,1.498 -0.642,2.301l-0,10.968c3.157,-0.321 6.26,-1.23 9.096,-2.675l0.053,-7.063Z" style="fill:#1f3b71;fill-rule:nonzero;"/><path d="M666.275,495.796c-0.053,0.749 0.107,1.498 0.375,2.193c0.214,0.535 0.535,0.963 0.963,1.338c0.481,0.321 1.016,0.535 1.605,0.642c0.695,0.107 1.391,0.161 2.14,0.161c0.803,-0 1.605,-0.054 2.408,-0.161c0.588,-0.054 1.123,-0.161 1.712,-0.321l0,-16.854c0,-0.749 -0.053,-1.552 -0.214,-2.301c-1.98,5.457 -5.029,10.434 -8.935,14.767l-0.054,0.536Z" style="fill:#1f3b71;fill-rule:nonzero;"/><path d="M635.989,497.936c0.214,0.535 0.535,0.963 1.016,1.338c0.482,0.321 1.017,0.535 1.605,0.642c0.696,0.107 1.392,0.161 2.141,0.161c0.802,-0 1.605,-0.054 2.407,-0.161c0.589,-0.053 1.124,-0.16 1.659,-0.321l0,-11.718c-2.836,1.445 -5.939,2.408 -9.096,2.676l0,5.243c-0.107,0.749 0,1.445 0.268,2.14" style="fill:#1f3b71;fill-rule:nonzero;"/><path d="M672.056,475.035c-1.017,-0.803 -2.248,-1.338 -3.478,-1.712c-1.284,-0.375 -2.622,-0.536 -4.013,-0.536c-1.659,-0.053 -3.264,0.215 -4.869,0.696c-1.07,0.375 -2.14,0.856 -3.103,1.445c-1.285,3.157 -3.211,5.992 -5.672,8.4l-0,12.413c-0.054,0.749 0.107,1.499 0.374,2.194c0.215,0.535 0.536,0.963 1.017,1.338c0.482,0.321 1.017,0.535 1.605,0.642c0.696,0.107 1.391,0.16 2.14,0.16c0.803,0 1.552,-0.053 2.355,-0.16c0.588,-0.054 1.177,-0.161 1.765,-0.321l0,-18.192c0,-0.161 0,-0.268 -0.053,-0.428c0.374,-0.321 0.802,-0.535 1.284,-0.749c0.482,-0.214 1.07,-0.321 1.605,-0.321c0.856,-0.054 1.766,0.214 2.461,0.749c0.643,0.588 1.017,1.444 0.91,2.354l0,12.199c3.906,-4.28 6.902,-9.31 8.935,-14.767c-0.106,-0.803 -0.374,-1.605 -0.695,-2.354c-0.696,-1.178 -1.552,-2.248 -2.568,-3.05" style="fill:#1f3b71;fill-rule:nonzero;"/><path d="M613.789,495.796c-0.054,0.749 0.107,1.498 0.374,2.193c0.214,0.535 0.535,0.963 1.017,1.338c0.481,0.321 1.017,0.535 1.605,0.642c0.696,0.107 1.391,0.161 2.14,0.161c0.803,-0 1.606,-0.054 2.408,-0.161c0.589,-0.054 1.124,-0.161 1.659,-0.321l-0,-11.718c-2.836,1.873 -5.886,3.425 -9.096,4.602l-0.107,3.264Z" style="fill:#1f3b71;fill-rule:nonzero;"/><path d="M624.593,480.76c0.642,-0.16 1.391,-0.321 2.14,-0.481c0.749,-0.161 1.498,-0.268 2.301,-0.321c0.803,-0.054 1.552,-0.107 2.301,-0.107c0.214,-0.428 0.428,-0.857 0.535,-1.285c0.16,-0.481 0.214,-0.963 0.214,-1.498c-0,-1.498 -0.482,-2.568 -1.498,-3.264c-1.231,-0.695 -2.622,-1.07 -4.067,-1.016c-1.016,-0 -2.087,0.107 -3.103,0.267c-1.017,0.161 -2.033,0.375 -2.997,0.642c-0.909,0.268 -1.819,0.589 -2.728,1.017c-0.749,0.321 -1.445,0.749 -2.14,1.284c-0.536,0.428 -0.964,0.963 -1.338,1.605c-0.321,0.642 -0.482,1.391 -0.428,2.141l-0,12.734c3.21,-1.177 6.26,-2.729 9.096,-4.602l-0,-6.581c0.588,-0.214 1.123,-0.374 1.712,-0.535" style="fill:#1f3b71;fill-rule:nonzero;"/><path d="M601.265,498.152c0.107,1.284 -0.589,2.515 -1.712,3.103c-1.017,0.535 -2.087,0.803 -3.21,0.91c-2.622,2.14 -5.511,3.959 -8.615,5.457c0.268,0.161 0.482,0.321 0.749,0.428c1.873,0.857 4.388,1.338 7.652,1.338c1.819,0 3.584,-0.214 5.35,-0.642c1.552,-0.375 3.05,-1.07 4.334,-1.98c1.231,-0.909 2.247,-2.086 2.943,-3.424c0.749,-1.498 1.123,-3.21 1.07,-4.923l-0,-14.393c-2.033,5.03 -4.923,9.578 -8.561,13.591l0,0.535Z" style="fill:#1f3b71;fill-rule:nonzero;"/><path d="M592.973,473.375c-0.268,0.054 -0.482,0.107 -0.749,0.214c-1.605,0.482 -3.104,1.284 -4.388,2.354c-1.284,1.071 -2.247,2.462 -2.889,4.013c-0.749,1.82 -1.07,3.746 -1.07,5.672c-0,0.642 0.053,1.231 0.107,1.819c4.494,-3.585 7.651,-8.507 8.989,-14.072" style="fill:#1f3b71;fill-rule:nonzero;"/><path d="M594.953,502.218c-1.391,-0 -2.729,-0.214 -4.066,-0.589c-1.231,-0.374 -2.408,-0.856 -3.532,-1.444c-0.481,0.374 -0.856,0.856 -1.123,1.444c-0.375,0.642 -0.535,1.391 -0.535,2.194c-0.054,1.552 0.695,2.996 2.033,3.852c3.05,-1.498 5.939,-3.317 8.614,-5.457l-1.391,-0" style="fill:#1f3b71;fill-rule:nonzero;"/><path d="M601.105,482.525l-0,7.919c-1.017,0.749 -2.248,1.07 -3.478,1.016c-1.284,0.054 -2.461,-0.481 -3.371,-1.391c-0.107,-0.107 -0.214,-0.267 -0.268,-0.374c-0.642,-0.91 -1.016,-2.248 -1.016,-4.067c-0,-1.819 0.428,-3.21 1.337,-4.227c0.857,-0.963 2.194,-1.498 3.96,-1.498c0.588,0 1.231,0.054 1.819,0.214c0.375,0.107 0.749,0.268 1.124,0.428l-0.107,1.98Zm8.079,-5.244c-0.482,-0.642 -1.017,-1.23 -1.712,-1.658c-1.231,-0.856 -2.622,-1.552 -4.067,-1.98c-0.053,-0 -0.053,-0.054 -0.107,-0.054c-1.819,-0.535 -3.692,-0.802 -5.564,-0.802c-1.605,-0 -3.211,0.214 -4.816,0.588c-1.337,5.565 -4.494,10.488 -8.989,14.019c0.107,1.338 0.428,2.675 0.91,3.959c0.107,0.268 0.214,0.535 0.374,0.749c0.535,1.177 1.338,2.248 2.248,3.157c1.07,1.017 2.407,1.766 3.799,2.247c1.498,0.482 3.049,0.75 4.601,0.696c1.819,0.054 3.639,-0.268 5.351,-0.963l-0,0.267c3.638,-3.959 6.527,-8.561 8.561,-13.59l-0,-4.334c0.107,-0.802 -0.108,-1.605 -0.589,-2.301" style="fill:#1f3b71;fill-rule:nonzero;"/><path d="M615.122,506.389l0.696,0l0,0.856c-0.214,0.054 -0.375,0.054 -0.588,0.054c-0.322,-0 -0.589,-0.107 -0.803,-0.321c-0.214,-0.268 -0.321,-0.589 -0.268,-0.963c0,-0.321 0.107,-0.696 0.321,-0.964c0.214,-0.214 0.535,-0.374 0.856,-0.321c0.268,0 0.589,0.054 0.803,0.214l0.214,-0.481c-0.321,-0.161 -0.642,-0.214 -1.017,-0.214c-0.481,-0.054 -0.963,0.16 -1.284,0.481c-0.321,0.321 -0.481,0.803 -0.481,1.285c-0.054,0.481 0.107,0.909 0.428,1.284c0.321,0.321 0.749,0.481 1.177,0.481c0.428,0 0.803,-0.053 1.231,-0.16l-0,-1.712l-1.285,-0l0,0.481Z" style="fill:#1f3b71;fill-rule:nonzero;"/><rect x="617.103" y="504.143" width="0.535" height="3.638" style="fill:#1f3b71;"/><path d="M619.509,507.352c-0.428,-0 -0.642,-0.268 -0.642,-0.91c0,-0.214 0.054,-0.482 0.161,-0.642c0.107,-0.161 0.321,-0.268 0.481,-0.214c0.428,0 0.642,0.321 0.642,0.91c0.054,0.588 -0.214,0.856 -0.642,0.856Zm0.054,-2.194c-0.321,-0 -0.696,0.107 -0.91,0.374c-0.214,0.268 -0.321,0.643 -0.321,0.964c0,0.267 0.054,0.481 0.161,0.695c0.107,0.214 0.214,0.375 0.428,0.482c0.214,0.107 0.428,0.16 0.642,0.16c0.321,0 0.695,-0.107 0.909,-0.374c0.214,-0.268 0.321,-0.642 0.321,-0.963c0,-0.375 -0.107,-0.696 -0.321,-0.964c-0.267,-0.267 -0.588,-0.374 -0.909,-0.374" style="fill:#1f3b71;fill-rule:nonzero;"/><path d="M622.989,507.141c-0.107,0.161 -0.268,0.214 -0.428,0.214c-0.161,0 -0.375,-0.053 -0.482,-0.214c-0.107,-0.214 -0.16,-0.428 -0.16,-0.695l-0,-0.054c-0,-0.214 0.053,-0.481 0.16,-0.642c0.107,-0.16 0.268,-0.214 0.482,-0.214c0.428,-0 0.588,0.321 0.588,0.856c0,0.321 -0.053,0.535 -0.16,0.749m-0.268,-1.98c-0.321,0 -0.588,0.107 -0.749,0.375l0,-1.338l-0.535,0l-0,3.639l0.428,-0l0.107,-0.321l0.054,-0c0.374,0.428 0.963,0.481 1.391,0.107c0.053,-0.054 0.053,-0.054 0.107,-0.107c0.214,-0.268 0.267,-0.642 0.267,-0.963c0,-0.375 -0.053,-0.696 -0.267,-0.963c-0.268,-0.322 -0.535,-0.429 -0.803,-0.429" style="fill:#1f3b71;fill-rule:nonzero;"/><path d="M625.826,506.765c0,0.161 -0.053,0.321 -0.16,0.482c-0.107,0.107 -0.321,0.16 -0.482,0.16c-0.107,0 -0.214,0 -0.321,-0.107c-0.053,-0.053 -0.107,-0.16 -0.107,-0.267c0,-0.161 0.054,-0.268 0.161,-0.375c0.16,-0.107 0.374,-0.107 0.588,-0.107l0.321,0l0,0.214Zm-0.481,-1.605c-0.161,-0 -0.321,-0 -0.482,0.053c-0.16,0.054 -0.321,0.107 -0.481,0.161l0.16,0.375c0.107,-0.054 0.214,-0.107 0.375,-0.107c0.107,-0.054 0.267,-0.054 0.374,-0.054c0.107,0 0.268,0.054 0.375,0.107c0.107,0.107 0.107,0.214 0.107,0.375l-0,0.16l-0.428,0c-0.321,0 -0.642,0.054 -0.91,0.214c-0.214,0.161 -0.321,0.375 -0.321,0.589c-0,0.214 0.054,0.428 0.214,0.588c0.161,0.161 0.375,0.214 0.589,0.214c0.16,0 0.321,0 0.481,-0.107c0.161,-0.053 0.268,-0.16 0.375,-0.321l0.107,0.375l0.374,-0l0,-1.712c0,-0.268 -0.053,-0.482 -0.267,-0.696c-0.107,-0.161 -0.375,-0.214 -0.642,-0.214" style="fill:#1f3b71;fill-rule:nonzero;"/><rect x="627.11" y="504.143" width="0.535" height="3.638" style="fill:#1f3b71;"/><path d="M630.694,505.963l-0.374,-0l-0,-1.124l0.374,0c0.214,0 0.375,0.054 0.589,0.107c0.16,0.107 0.214,0.268 0.214,0.428c-0,0.161 -0.054,0.321 -0.161,0.428c-0.214,0.108 -0.428,0.161 -0.642,0.161Zm1.338,-0.589c-0,-0.267 -0.107,-0.588 -0.321,-0.749c-0.268,-0.214 -0.642,-0.267 -0.963,-0.267l-0.963,-0l-0,3.424l0.535,0l-0,-1.337l0.535,-0l0.802,1.337l0.642,0l-0.963,-1.498c0.429,-0.161 0.696,-0.482 0.696,-0.91" style="fill:#1f3b71;fill-rule:nonzero;"/><rect x="632.73" y="505.211" width="0.535" height="2.568" style="fill:#1f3b71;"/><path d="M633.051,504.198c-0.107,0 -0.161,0 -0.214,0.054c-0.107,0.107 -0.107,0.321 -0,0.428c0.053,0.053 0.16,0.107 0.214,0.107c0.107,-0 0.16,-0 0.214,-0.107c0.107,-0.107 0.107,-0.321 -0,-0.428c-0.054,-0 -0.161,-0.054 -0.214,-0.054" style="fill:#1f3b71;fill-rule:nonzero;"/><path d="M634.976,506.55c-0.107,-0 -0.268,-0.054 -0.375,-0.108c-0.107,-0.107 -0.107,-0.267 -0.107,-0.374c0,-0.161 0.054,-0.268 0.107,-0.375c0.107,-0.107 0.214,-0.16 0.375,-0.16c0.107,-0 0.267,0.053 0.374,0.16c0.107,0.107 0.107,0.268 0.107,0.375c-0.053,0.267 -0.16,0.482 -0.481,0.482Zm-0.535,1.23l0.749,0c0.16,0 0.321,0 0.428,0.054c0.107,0.053 0.107,0.16 0.107,0.214c-0,0.16 -0.107,0.267 -0.214,0.321c-0.214,0.107 -0.428,0.16 -0.642,0.107c-0.161,-0 -0.321,-0 -0.428,-0.107c-0.107,-0.054 -0.161,-0.161 -0.161,-0.268c0,-0.107 0.054,-0.214 0.161,-0.321Zm0.749,-2.622l-0.214,0c-0.268,0 -0.535,0.054 -0.749,0.214c-0.161,0.161 -0.268,0.428 -0.268,0.642c0,0.161 0.054,0.321 0.107,0.482c0.054,0.107 0.214,0.214 0.321,0.267c-0.107,0.054 -0.16,0.108 -0.267,0.215c-0.054,0.053 -0.107,0.16 -0.054,0.267c0,0.161 0.107,0.321 0.268,0.375c-0.161,0.053 -0.321,0.107 -0.428,0.214c-0.107,0.107 -0.161,0.267 -0.161,0.374c0,0.214 0.107,0.428 0.268,0.535c0.267,0.161 0.535,0.214 0.802,0.161c0.375,-0 0.749,-0.054 1.07,-0.214c0.214,-0.161 0.375,-0.428 0.375,-0.696c-0,-0.214 -0.054,-0.374 -0.214,-0.535c-0.214,-0.107 -0.428,-0.214 -0.642,-0.16l-0.428,-0c-0.107,-0 -0.214,-0 -0.321,-0.054c-0.054,0 -0.107,-0.053 -0.107,-0.107c-0,-0.107 0.053,-0.214 0.16,-0.267l0.214,-0c0.268,-0 0.535,-0.054 0.749,-0.214c0.161,-0.161 0.268,-0.375 0.268,-0.643c-0,-0.16 -0.054,-0.321 -0.161,-0.428l0.428,-0.053l0,-0.321l-0.909,-0c0.053,-0.054 -0.054,-0.054 -0.107,-0.054" style="fill:#1f3b71;fill-rule:nonzero;"/><path d="M638.079,505.161c-0.16,-0 -0.321,0.053 -0.481,0.107c-0.107,0.053 -0.268,0.16 -0.321,0.267l-0.054,0c0,-0.16 0.054,-0.321 0.054,-0.481l-0,-0.91l-0.535,0l-0,3.639l0.535,-0l-0,-1.284c-0,-0.268 0.053,-0.482 0.16,-0.696c0.107,-0.161 0.321,-0.214 0.535,-0.214c0.161,-0 0.268,0.053 0.375,0.16c0.107,0.107 0.16,0.268 0.107,0.428l-0,1.606l0.535,-0l-0,-1.659c0.053,-0.428 -0.268,-0.856 -0.696,-0.963l-0.214,-0" style="fill:#1f3b71;fill-rule:nonzero;"/><path d="M640.486,507.302c-0.054,-0.107 -0.107,-0.214 -0.107,-0.321l-0,-1.392l0.749,0l-0,-0.428l-0.749,0l-0,-0.535l-0.321,0l-0.161,0.535l-0.374,0.214l-0,0.268l0.374,-0l0,1.391c0,0.535 0.268,0.803 0.803,0.803l0.321,-0c0.053,-0 0.16,-0.054 0.214,-0.054l-0,-0.481c-0.107,0.053 -0.268,0.053 -0.375,0.053c-0.214,0.054 -0.321,0 -0.374,-0.053" style="fill:#1f3b71;fill-rule:nonzero;"/><path d="M643.108,506.499c-0.161,-0.107 -0.321,-0.16 -0.482,-0.214c-0.16,-0.053 -0.321,-0.16 -0.481,-0.214c-0.054,-0.053 -0.107,-0.107 -0.107,-0.214c-0,-0.16 0.16,-0.267 0.428,-0.267c0.267,-0 0.481,0.053 0.695,0.16l0.161,-0.428c-0.268,-0.107 -0.589,-0.16 -0.856,-0.16c-0.268,-0 -0.482,0.053 -0.749,0.16c-0.161,0.107 -0.268,0.321 -0.268,0.535c0,0.161 0.054,0.321 0.161,0.428c0.16,0.161 0.374,0.268 0.588,0.321c0.107,0.054 0.268,0.107 0.375,0.161c0.053,0.053 0.107,0.107 0.16,0.16c0.054,0.054 0.054,0.108 0.054,0.161c-0,0.214 -0.161,0.321 -0.535,0.321c-0.268,-0 -0.589,-0.053 -0.856,-0.214l-0,0.482c0.267,0.107 0.535,0.16 0.802,0.16c0.268,0 0.535,-0.053 0.803,-0.214c0.16,-0.107 0.267,-0.375 0.267,-0.588c0,-0.108 0,-0.215 -0.053,-0.322c0.053,-0.107 -0.054,-0.16 -0.107,-0.214" style="fill:#1f3b71;fill-rule:nonzero;"/><path d="M647.013,507.086l-0.963,-2.729l-0.802,0l-0,3.425l0.481,-0l0,-1.659c0,-0.375 0,-0.749 -0.053,-1.177l0.963,2.836l0.481,-0l1.017,-2.836l-0,2.782l0.535,0l-0,-3.424l-0.803,-0l-0.856,2.782Z" style="fill:#1f3b71;fill-rule:nonzero;"/><path d="M651.079,506.765c0,0.161 -0.053,0.375 -0.16,0.482c-0.107,0.107 -0.321,0.16 -0.482,0.16c-0.107,0 -0.214,0 -0.321,-0.107c-0.053,-0.053 -0.107,-0.16 -0.107,-0.267c0,-0.161 0.054,-0.268 0.161,-0.375c0.16,-0.107 0.374,-0.107 0.588,-0.107l0.321,0l0,0.214Zm-0.428,-1.605c-0.16,-0 -0.321,-0 -0.481,0.053c-0.161,0.054 -0.321,0.107 -0.482,0.161l0.161,0.375c0.107,-0.054 0.214,-0.107 0.374,-0.107c0.107,-0.054 0.268,-0.054 0.375,-0.054c0.107,0 0.267,0.054 0.374,0.107c0.107,0.107 0.107,0.214 0.107,0.375l0,0.16l-0.428,0c-0.321,0 -0.642,0.054 -0.909,0.214c-0.214,0.161 -0.321,0.375 -0.321,0.589c-0,0.214 0.053,0.428 0.214,0.588c0.16,0.161 0.374,0.214 0.588,0.214c0.161,0 0.321,0 0.482,-0.107c0.16,-0.053 0.267,-0.16 0.374,-0.321l0.107,0.375l0.375,-0l-0,-1.712c-0,-0.268 -0.054,-0.482 -0.268,-0.696c-0.107,-0.161 -0.374,-0.214 -0.642,-0.214" style="fill:#1f3b71;fill-rule:nonzero;"/><path d="M653.756,505.161c-0.16,-0 -0.321,0.053 -0.481,0.107c-0.161,0.053 -0.268,0.16 -0.321,0.267l-0.054,0l-0.053,-0.321l-0.428,0l-0,2.569l0.535,-0l-0,-1.284c-0,-0.268 0.053,-0.482 0.16,-0.696c0.107,-0.161 0.321,-0.214 0.482,-0.214c0.16,-0 0.267,0.053 0.374,0.16c0.107,0.107 0.107,0.268 0.107,0.428l0,1.606l0.535,-0l0,-1.659c0.054,-0.428 -0.267,-0.856 -0.695,-0.963l-0.161,-0" style="fill:#1f3b71;fill-rule:nonzero;"/><path d="M656.91,506.765c-0,0.161 -0.054,0.375 -0.161,0.482c-0.107,0.107 -0.321,0.16 -0.481,0.16c-0.107,0 -0.214,0 -0.321,-0.107c-0.054,-0.053 -0.107,-0.16 -0.107,-0.267c-0,-0.161 0.053,-0.268 0.16,-0.375c0.161,-0.107 0.375,-0.107 0.535,-0.107l0.321,0l0.054,0.214Zm-0.482,-1.605c-0.16,-0 -0.321,-0 -0.481,0.053c-0.161,0.054 -0.321,0.107 -0.482,0.161l0.161,0.375c0.107,-0.054 0.214,-0.107 0.321,-0.107c0.107,-0.054 0.267,-0.054 0.374,-0.054c0.107,0 0.268,0.054 0.375,0.107c0.107,0.107 0.107,0.214 0.107,0.375l-0,0.16l-0.428,0c-0.321,0 -0.642,0.054 -0.91,0.214c-0.214,0.161 -0.321,0.375 -0.321,0.589c0,0.214 0.054,0.428 0.214,0.588c0.161,0.161 0.375,0.214 0.589,0.214c0.16,0 0.321,0 0.481,-0.107c0.161,-0.053 0.268,-0.16 0.375,-0.321l0.107,0.375l0.374,-0l0,-1.712c0,-0.268 -0.053,-0.482 -0.267,-0.696c-0.054,-0.161 -0.321,-0.267 -0.589,-0.214" style="fill:#1f3b71;fill-rule:nonzero;"/><path d="M659.051,506.55c-0.107,-0 -0.268,-0.054 -0.375,-0.108c-0.107,-0.107 -0.107,-0.267 -0.107,-0.374c0,-0.161 0.054,-0.268 0.107,-0.375c0.214,-0.16 0.535,-0.16 0.696,0c0.107,0.107 0.107,0.268 0.107,0.375c0.053,0.267 -0.107,0.482 -0.428,0.482Zm-0.535,1.23l0.749,0c0.16,0 0.321,0 0.428,0.054c0.107,0.053 0.107,0.16 0.107,0.214c-0,0.16 -0.107,0.267 -0.214,0.321c-0.214,0.107 -0.428,0.16 -0.642,0.107c-0.161,-0 -0.321,-0 -0.428,-0.107c-0.107,-0.054 -0.161,-0.161 -0.161,-0.268c0,-0.107 0.054,-0.214 0.161,-0.321Zm0.802,-2.622l-0.214,0c-0.267,0 -0.535,0.054 -0.749,0.214c-0.16,0.161 -0.267,0.428 -0.267,0.642c-0,0.161 0.053,0.321 0.107,0.482c0.053,0.107 0.214,0.214 0.321,0.267c-0.107,0.054 -0.161,0.108 -0.214,0.215c-0.054,0.053 -0.107,0.16 -0.107,0.267c-0,0.054 -0,0.161 0.053,0.214c0.054,0.054 0.107,0.107 0.161,0.161c-0.161,0.053 -0.321,0.107 -0.429,0.214c-0.106,0.107 -0.16,0.267 -0.16,0.374c-0,0.214 0.107,0.428 0.268,0.535c0.267,0.161 0.535,0.214 0.802,0.161c0.375,-0 0.749,-0.054 1.07,-0.214c0.214,-0.161 0.375,-0.428 0.375,-0.696c-0,-0.214 -0.054,-0.374 -0.214,-0.535c-0.214,-0.107 -0.428,-0.214 -0.642,-0.16l-0.428,-0c-0.107,-0 -0.214,-0 -0.321,-0.054c-0.054,0 -0.107,-0.053 -0.107,-0.107c-0,-0.107 0.053,-0.214 0.16,-0.267l0.214,-0c0.268,-0 0.535,-0.054 0.749,-0.214c0.161,-0.161 0.268,-0.375 0.268,-0.643c-0,-0.107 -0,-0.16 -0.054,-0.267c0,-0.054 -0.053,-0.161 -0.107,-0.214l0.428,-0.054l0,-0.321l-0.909,0c0.053,0 -0,0 -0.054,0" style="fill:#1f3b71;fill-rule:nonzero;"/><path d="M661.302,506.229c-0,-0.161 0.053,-0.375 0.214,-0.482c0.107,-0.107 0.267,-0.16 0.428,-0.16c0.16,-0 0.321,0.053 0.428,0.16c0.107,0.161 0.16,0.321 0.16,0.482l-1.23,-0Zm0.588,-1.071c-0.321,0 -0.642,0.108 -0.856,0.375c-0.214,0.268 -0.321,0.642 -0.321,0.963c0,0.375 0.107,0.696 0.321,0.963c0.268,0.268 0.589,0.375 0.963,0.321c0.161,0 0.321,0 0.482,-0.053c0.16,-0 0.267,-0.054 0.428,-0.107l-0,-0.428c-0.161,0.053 -0.268,0.107 -0.428,0.16c-0.161,0.054 -0.268,0.054 -0.428,0.054c-0.214,-0 -0.375,-0.054 -0.535,-0.214c-0.161,-0.161 -0.214,-0.375 -0.214,-0.589l1.712,0l-0,-0.321c-0,-0.321 -0.107,-0.642 -0.321,-0.856c-0.214,-0.16 -0.535,-0.268 -0.803,-0.268" style="fill:#1f3b71;fill-rule:nonzero;"/><path d="M666.541,505.161c-0.161,-0 -0.321,0.053 -0.482,0.107c-0.107,0.053 -0.267,0.16 -0.321,0.321l-0.053,-0c-0.161,-0.268 -0.482,-0.428 -0.803,-0.428c-0.16,-0 -0.321,0.053 -0.428,0.107c-0.107,0.053 -0.267,0.16 -0.321,0.267l-0.053,-0.321l-0.428,0l-0,2.569l0.535,-0l-0,-1.284c-0,-0.215 0.053,-0.482 0.16,-0.696c0.107,-0.161 0.268,-0.214 0.482,-0.214c0.16,-0 0.267,0.053 0.374,0.16c0.107,0.107 0.107,0.268 0.107,0.428l0,1.606l0.535,-0l0,-1.338c0,-0.214 0.054,-0.428 0.161,-0.589c0.107,-0.16 0.267,-0.214 0.481,-0.214c0.107,0 0.268,0.054 0.375,0.161c0.107,0.107 0.107,0.268 0.107,0.428l-0,1.605l0.535,0l-0,-1.659c-0,-0.267 -0.054,-0.535 -0.214,-0.695c-0.268,-0.268 -0.535,-0.375 -0.749,-0.321" style="fill:#1f3b71;fill-rule:nonzero;"/><path d="M668.576,506.229c0,-0.161 0.054,-0.375 0.161,-0.482c0.107,-0.107 0.267,-0.16 0.428,-0.16c0.161,-0 0.321,0.053 0.428,0.16c0.107,0.161 0.161,0.321 0.161,0.482l-1.178,-0Zm0.642,-1.071c-0.321,0 -0.642,0.108 -0.856,0.375c-0.214,0.268 -0.321,0.642 -0.321,0.963c0,0.375 0.107,0.696 0.321,0.963c0.268,0.268 0.589,0.375 0.964,0.321c0.16,0 0.321,0 0.481,-0.053c0.161,-0 0.268,-0.054 0.428,-0.107l0,-0.428c-0.16,0.053 -0.267,0.107 -0.428,0.16c-0.16,0.054 -0.268,0.054 -0.428,0.054c-0.214,-0 -0.375,-0.054 -0.535,-0.214c-0.161,-0.161 -0.214,-0.375 -0.214,-0.589l1.712,0l0,-0.321c0,-0.321 -0.107,-0.642 -0.321,-0.856c-0.214,-0.16 -0.535,-0.268 -0.803,-0.268" style="fill:#1f3b71;fill-rule:nonzero;"/><path d="M672.266,505.161c-0.16,-0 -0.321,0.053 -0.481,0.107c-0.161,0.053 -0.268,0.16 -0.321,0.267l-0.054,-0.321l-0.428,0l0,2.569l0.535,-0l0,-1.284c0,-0.268 0.054,-0.482 0.161,-0.696c0.107,-0.161 0.321,-0.214 0.481,-0.214c0.161,-0 0.268,0.053 0.375,0.16c0.107,0.107 0.107,0.268 0.107,0.428l-0,1.606l0.535,-0l-0,-1.659c0.053,-0.428 -0.268,-0.856 -0.696,-0.963l-0.214,-0" style="fill:#1f3b71;fill-rule:nonzero;"/><path d="M674.678,507.302c-0.054,-0.054 -0.107,-0.161 -0.107,-0.321l-0,-1.392l0.749,0l-0,-0.428l-0.749,0l-0,-0.535l-0.321,0l-0.161,0.535l-0.374,0.214l-0,0.268l0.374,-0l0,1.391c0,0.535 0.268,0.803 0.803,0.803l0.321,-0c0.053,-0 0.16,-0.054 0.214,-0.054l-0,-0.481c-0.107,0.053 -0.268,0.053 -0.428,0.053c-0.161,0.054 -0.268,0 -0.321,-0.053" style="fill:#1f3b71;fill-rule:nonzero;"/></g><defs><linearGradient id="_Linear1" x1="0" y1="0" x2="1" y2="0" gradientUnits="userSpaceOnUse" gradientTransform="matrix(9.9183,-58.0929,58.0929,9.9183,525.897,318.472)"><stop offset="0" style="stop-color:#febbba;stop-opacity:1"/><stop offset="1" style="stop-color:#ff928e;stop-opacity:1"/></linearGradient><linearGradient id="_Linear2" x1="0" y1="0" x2="1" y2="0" gradientUnits="userSpaceOnUse" gradientTransform="matrix(-13.3923,120.015,-120.015,-13.3923,337.353,131.846)"><stop offset="0" style="stop-color:#09005d;stop-opacity:1"/><stop offset="1" style="stop-color:#1a0f91;stop-opacity:1"/></linearGradient><linearGradient id="_Linear3" x1="0" y1="0" x2="1" y2="0" gradientUnits="userSpaceOnUse" gradientTransform="matrix(-4.703,42.146,-42.146,-4.703,333.762,165.219)"><stop offset="0" style="stop-color:#09005d;stop-opacity:1"/><stop offset="1" style="stop-color:#1a0f91;stop-opacity:1"/></linearGradient><linearGradient id="_Linear4" x1="0" y1="0" x2="1" y2="0" gradientUnits="userSpaceOnUse" gradientTransform="matrix(-17.5095,156.912,-156.912,-17.5095,337.4,319.989)"><stop offset="0" style="stop-color:#09005d;stop-opacity:1"/><stop offset="1" style="stop-color:#1a0f91;stop-opacity:1"/></linearGradient><linearGradient id="_Linear5" x1="0" y1="0" x2="1" y2="0" gradientUnits="userSpaceOnUse" gradientTransform="matrix(-6.14735,55.0898,-55.0898,-6.14735,332.716,364.144)"><stop offset="0" style="stop-color:#09005d;stop-opacity:1"/><stop offset="1" style="stop-color:#1a0f91;stop-opacity:1"/></linearGradient><linearGradient id="_Linear6" x1="0" y1="0" x2="1" y2="0" gradientUnits="userSpaceOnUse" gradientTransform="matrix(3.64122,37.8631,-37.8631,3.64122,175.933,232.278)"><stop offset="0" style="stop-color:#febbba;stop-opacity:1"/><stop offset="1" style="stop-color:#ff928e;stop-opacity:1"/></linearGradient><linearGradient id="_Linear7" x1="0" y1="0" x2="1" y2="0" gradientUnits="userSpaceOnUse" gradientTransform="matrix(-55.4343,-152.429,152.429,-55.4343,198.165,356.697)"><stop offset="0" style="stop-color:#febbba;stop-opacity:1"/><stop offset="1" style="stop-color:#ff928e;stop-opacity:1"/></linearGradient><linearGradient id="_Linear8" x1="0" y1="0" x2="1" y2="0" gradientUnits="userSpaceOnUse" gradientTransform="matrix(129.85,-59.611,59.611,129.85,99.2404,521.309)"><stop offset="0" style="stop-color:#febbba;stop-opacity:1"/><stop offset="1" style="stop-color:#ff928e;stop-opacity:1"/></linearGradient><linearGradient id="_Linear9" x1="0" y1="0" x2="1" y2="0" gradientUnits="userSpaceOnUse" gradientTransform="matrix(174.661,-2041.35,2041.35,174.661,161.113,1011.91)"><stop offset="0" style="stop-color:#febbba;stop-opacity:1"/><stop offset="1" style="stop-color:#ff928e;stop-opacity:1"/></linearGradient><linearGradient id="_Linear10" x1="0" y1="0" x2="1" y2="0" gradientUnits="userSpaceOnUse" gradientTransform="matrix(19.6009,33.1707,-33.1707,19.6009,185.638,536.806)"><stop offset="0" style="stop-color:#53d8ff;stop-opacity:1"/><stop offset="1" style="stop-color:#3840f7;stop-opacity:1"/></linearGradient><linearGradient id="_Linear11" x1="0" y1="0" x2="1" y2="0" gradientUnits="userSpaceOnUse" gradientTransform="matrix(-22.8366,31.0313,-31.0313,-22.8366,140.703,497.806)"><stop offset="0" style="stop-color:#53d8ff;stop-opacity:1"/><stop offset="1" style="stop-color:#3840f7;stop-opacity:1"/></linearGradient><linearGradient id="_Linear12" x1="0" y1="0" x2="1" y2="0" gradientUnits="userSpaceOnUse" gradientTransform="matrix(-17.4751,99.183,-99.183,-17.4751,211.098,365.73)"><stop offset="0" style="stop-color:#09005d;stop-opacity:1"/><stop offset="1" style="stop-color:#1a0f91;stop-opacity:1"/></linearGradient><linearGradient id="_Linear13" x1="0" y1="0" x2="1" y2="0" gradientUnits="userSpaceOnUse" gradientTransform="matrix(1.88923,34.9501,-34.9501,1.88923,198.304,296.328)"><stop offset="0" style="stop-color:#febbba;stop-opacity:1"/><stop offset="1" style="stop-color:#ff928e;stop-opacity:1"/></linearGradient><linearGradient id="_Linear14" x1="0" y1="0" x2="1" y2="0" gradientUnits="userSpaceOnUse" gradientTransform="matrix(-30.9153,-45.2063,45.2063,-30.9153,218.351,309.118)"><stop offset="0" style="stop-color:#febbba;stop-opacity:1"/><stop offset="1" style="stop-color:#ff928e;stop-opacity:1"/></linearGradient><linearGradient id="_Linear15" x1="0" y1="0" x2="1" y2="0" gradientUnits="userSpaceOnUse" gradientTransform="matrix(-114.296,138.384,-138.384,-114.296,230.061,246.51)"><stop offset="0" style="stop-color:#e1473d;stop-opacity:1"/><stop offset="1" style="stop-color:#e9605a;stop-opacity:1"/></linearGradient><linearGradient id="_Linear16" x1="0" y1="0" x2="1" y2="0" gradientUnits="userSpaceOnUse" gradientTransform="matrix(-12.933,35.7718,-35.7718,-12.933,253.729,238.74)"><stop offset="0" style="stop-color:#febbba;stop-opacity:1"/><stop offset="1" style="stop-color:#ff928e;stop-opacity:1"/></linearGradient><linearGradient id="_Linear17" x1="0" y1="0" x2="1" y2="0" gradientUnits="userSpaceOnUse" gradientTransform="matrix(91.559,-133.883,133.883,91.559,201.288,353.737)"><stop offset="0" style="stop-color:#febbba;stop-opacity:1"/><stop offset="1" style="stop-color:#ff928e;stop-opacity:1"/></linearGradient><linearGradient id="_Linear18" x1="0" y1="0" x2="1" y2="0" gradientUnits="userSpaceOnUse" gradientTransform="matrix(39.1538,-34.6129,34.6129,39.1538,-3937.91,4389.32)"><stop offset="0" style="stop-color:#09005d;stop-opacity:1"/><stop offset="1" style="stop-color:#1a0f91;stop-opacity:1"/></linearGradient><linearGradient id="_Linear19" x1="0" y1="0" x2="1" y2="0" gradientUnits="userSpaceOnUse" gradientTransform="matrix(6.70751,6.25624,-6.25624,6.70751,478.352,466.427)"><stop offset="0" style="stop-color:#febbba;stop-opacity:1"/><stop offset="1" style="stop-color:#ff928e;stop-opacity:1"/></linearGradient><linearGradient id="_Linear20" x1="0" y1="0" x2="1" y2="0" gradientUnits="userSpaceOnUse" gradientTransform="matrix(10.9142,109.462,-109.462,10.9142,345.896,256.638)"><stop offset="0" style="stop-color:#febbba;stop-opacity:1"/><stop offset="1" style="stop-color:#ff928e;stop-opacity:1"/></linearGradient><linearGradient id="_Linear21" x1="0" y1="0" x2="1" y2="0" gradientUnits="userSpaceOnUse" gradientTransform="matrix(10.9142,109.462,-109.462,10.9142,347.692,256.459)"><stop offset="0" style="stop-color:#febbba;stop-opacity:1"/><stop offset="1" style="stop-color:#ff928e;stop-opacity:1"/></linearGradient><linearGradient id="_Linear22" x1="0" y1="0" x2="1" y2="0" gradientUnits="userSpaceOnUse" gradientTransform="matrix(-2.1087,24.2506,-24.2506,-2.1087,380.827,378.75)"><stop offset="0" style="stop-color:#09005d;stop-opacity:1"/><stop offset="1" style="stop-color:#1a0f91;stop-opacity:1"/></linearGradient><linearGradient id="_Linear23" x1="0" y1="0" x2="1" y2="0" gradientUnits="userSpaceOnUse" gradientTransform="matrix(-9.1725,1.12331e-15,-1.12331e-15,-9.1725,381.477,558.033)"><stop offset="0" style="stop-color:#febbba;stop-opacity:1"/><stop offset="1" style="stop-color:#ff928e;stop-opacity:1"/></linearGradient><linearGradient id="_Linear24" x1="0" y1="0" x2="1" y2="0" gradientUnits="userSpaceOnUse" gradientTransform="matrix(33.74,175.027,-175.027,33.74,387.125,469.239)"><stop offset="0" style="stop-color:#09005d;stop-opacity:1"/><stop offset="1" style="stop-color:#1a0f91;stop-opacity:1"/></linearGradient><linearGradient id="_Linear25" x1="0" y1="0" x2="1" y2="0" gradientUnits="userSpaceOnUse" gradientTransform="matrix(33.7399,175.026,-175.026,33.7399,434.756,460.054)"><stop offset="0" style="stop-color:#09005d;stop-opacity:1"/><stop offset="1" style="stop-color:#1a0f91;stop-opacity:1"/></linearGradient><linearGradient id="_Linear26" x1="0" y1="0" x2="1" y2="0" gradientUnits="userSpaceOnUse" gradientTransform="matrix(-10.9142,109.462,-109.462,-10.9142,439.232,259.153)"><stop offset="0" style="stop-color:#febbba;stop-opacity:1"/><stop offset="1" style="stop-color:#ff928e;stop-opacity:1"/></linearGradient><linearGradient id="_Linear27" x1="0" y1="0" x2="1" y2="0" gradientUnits="userSpaceOnUse" gradientTransform="matrix(1.88923,-43.4517,43.4517,1.88923,394.961,370.004)"><stop offset="0" style="stop-color:#febbba;stop-opacity:1"/><stop offset="1" style="stop-color:#ff928e;stop-opacity:1"/></linearGradient><linearGradient id="_Linear28" x1="0" y1="0" x2="1" y2="0" gradientUnits="userSpaceOnUse" gradientTransform="matrix(-1.35758,52.2893,-52.2893,-1.35758,394.641,303.839)"><stop offset="0" style="stop-color:#febbba;stop-opacity:1"/><stop offset="1" style="stop-color:#ff928e;stop-opacity:1"/></linearGradient><linearGradient id="_Linear29" x1="0" y1="0" x2="1" y2="0" gradientUnits="userSpaceOnUse" gradientTransform="matrix(-16.87,-37.9575,37.9575,-16.87,697.043,969.15)"><stop offset="0" style="stop-color:#09005d;stop-opacity:1"/><stop offset="1" style="stop-color:#1a0f91;stop-opacity:1"/></linearGradient><linearGradient id="_Linear30" x1="0" y1="0" x2="1" y2="0" gradientUnits="userSpaceOnUse" gradientTransform="matrix(29.2826,-21.7257,21.7257,29.2826,411.775,313.487)"><stop offset="0" style="stop-color:#febbba;stop-opacity:1"/><stop offset="1" style="stop-color:#ff928e;stop-opacity:1"/></linearGradient><linearGradient id="_Linear31" x1="0" y1="0" x2="1" y2="0" gradientUnits="userSpaceOnUse" gradientTransform="matrix(-10.9142,109.462,-109.462,-10.9142,437.436,258.974)"><stop offset="0" style="stop-color:#febbba;stop-opacity:1"/><stop offset="1" style="stop-color:#ff928e;stop-opacity:1"/></linearGradient><linearGradient id="_Linear32" x1="0" y1="0" x2="1" y2="0" gradientUnits="userSpaceOnUse" gradientTransform="matrix(63.7742,36.4013,-36.4013,63.7742,511.007,345.984)"><stop offset="0" style="stop-color:#febbba;stop-opacity:1"/><stop offset="1" style="stop-color:#ff928e;stop-opacity:1"/></linearGradient><linearGradient id="_Linear33" x1="0" y1="0" x2="1" y2="0" gradientUnits="userSpaceOnUse" gradientTransform="matrix(28.7263,69.5252,-69.5252,28.7263,519.345,382.381)"><stop offset="0" style="stop-color:#09005d;stop-opacity:1"/><stop offset="1" style="stop-color:#1a0f91;stop-opacity:1"/></linearGradient><linearGradient id="_Linear34" x1="0" y1="0" x2="1" y2="0" gradientUnits="userSpaceOnUse" gradientTransform="matrix(-218.202,-136.598,136.598,-218.202,517.174,355.063)"><stop offset="0" style="stop-color:#febbba;stop-opacity:1"/><stop offset="1" style="stop-color:#ff928e;stop-opacity:1"/></linearGradient><linearGradient id="_Linear35" x1="0" y1="0" x2="1" y2="0" gradientUnits="userSpaceOnUse" gradientTransform="matrix(42.2008,62.2661,-62.2661,42.2008,530.485,400.52)"><stop offset="0" style="stop-color:#09005d;stop-opacity:1"/><stop offset="1" style="stop-color:#1a0f91;stop-opacity:1"/></linearGradient><linearGradient id="_Linear36" x1="0" y1="0" x2="1" y2="0" gradientUnits="userSpaceOnUse" gradientTransform="matrix(-39.2007,-64.2324,64.2324,-39.2007,1712.4,2155.84)"><stop offset="0" style="stop-color:#4f52ff;stop-opacity:1"/><stop offset="1" style="stop-color:#4042e2;stop-opacity:1"/></linearGradient><linearGradient id="_Linear37" x1="0" y1="0" x2="1" y2="0" gradientUnits="userSpaceOnUse" gradientTransform="matrix(27.7281,32.0106,-32.0106,27.7281,581.768,222.299)"><stop offset="0" style="stop-color:#09005d;stop-opacity:1"/><stop offset="1" style="stop-color:#1a0f91;stop-opacity:1"/></linearGradient><linearGradient id="_Linear38" x1="0" y1="0" x2="1" y2="0" gradientUnits="userSpaceOnUse" gradientTransform="matrix(42.4476,71.2258,-71.2258,42.4476,588.696,265.706)"><stop offset="0" style="stop-color:#4f52ff;stop-opacity:1"/><stop offset="1" style="stop-color:#4042e2;stop-opacity:1"/></linearGradient><linearGradient id="_Linear39" x1="0" y1="0" x2="1" y2="0" gradientUnits="userSpaceOnUse" gradientTransform="matrix(63.5285,0,0,63.5285,622.703,325.002)"><stop offset="0" style="stop-color:#febbba;stop-opacity:1"/><stop offset="1" style="stop-color:#ff928e;stop-opacity:1"/></linearGradient><linearGradient id="_Linear40" x1="0" y1="0" x2="1" y2="0" gradientUnits="userSpaceOnUse" gradientTransform="matrix(1.46844,-22.8829,22.8829,1.46844,596.848,294.639)"><stop offset="0" style="stop-color:#febbba;stop-opacity:1"/><stop offset="1" style="stop-color:#ff928e;stop-opacity:1"/></linearGradient><linearGradient id="_Linear41" x1="0" y1="0" x2="1" y2="0" gradientUnits="userSpaceOnUse" gradientTransform="matrix(-27.6433,-52.9029,52.9029,-27.6433,599.009,275.278)"><stop offset="0" style="stop-color:#febbba;stop-opacity:1"/><stop offset="1" style="stop-color:#ff928e;stop-opacity:1"/></linearGradient><linearGradient id="_Linear42" x1="0" y1="0" x2="1" y2="0" gradientUnits="userSpaceOnUse" gradientTransform="matrix(38.7089,7.76666,-7.76666,38.7089,564.471,245.275)"><stop offset="0" style="stop-color:#09005d;stop-opacity:1"/><stop offset="1" style="stop-color:#1a0f91;stop-opacity:1"/></linearGradient><linearGradient id="_Linear43" x1="0" y1="0" x2="1" y2="0" gradientUnits="userSpaceOnUse" gradientTransform="matrix(-27.6431,-52.9024,52.9024,-27.6431,605.336,271.971)"><stop offset="0" style="stop-color:#febbba;stop-opacity:1"/><stop offset="1" style="stop-color:#ff928e;stop-opacity:1"/></linearGradient><linearGradient id="_Linear44" x1="0" y1="0" x2="1" y2="0" gradientUnits="userSpaceOnUse" gradientTransform="matrix(-32.7438,10.7393,-10.7393,-32.7438,619.79,324.269)"><stop offset="0" style="stop-color:#09005d;stop-opacity:1"/><stop offset="1" style="stop-color:#1a0f91;stop-opacity:1"/></linearGradient><linearGradient id="_Linear45" x1="0" y1="0" x2="1" y2="0" gradientUnits="userSpaceOnUse" gradientTransform="matrix(-51.081,67.6286,-67.6286,-51.081,583.933,287.139)"><stop offset="0" style="stop-color:#09005d;stop-opacity:1"/><stop offset="1" style="stop-color:#1a0f91;stop-opacity:1"/></linearGradient></defs></svg>