<?xml version="1.0" encoding="utf-8"?>
<!-- Generator: Adobe Illustrator 24.0.0, SVG Export Plug-In . SVG Version: 6.00 Build 0)  -->
<svg version="1.1" id="Layer_1" xmlns="http://www.w3.org/2000/svg" xmlns:xlink="http://www.w3.org/1999/xlink" x="0px" y="0px"
	 viewBox="0 0 2800 2000" style="enable-background:new 0 0 2800 2000;" xml:space="preserve">
<style type="text/css">
	.st0{fill:#FFFFFF;}
	.st1{fill:#F7CC7F;}
	.st2{fill:#F47458;}
	.st3{fill:#B75742;}
	.st4{fill:#13375B;}
	.st5{fill:#466EB6;}
	.st6{fill:#355389;}
	.st7{fill:#EFEFEF;}
	.st8{fill:#F48C7F;}
	.st9{fill:#184655;}
	.st10{fill:#3C8F7C;}
	.st11{fill:#96D9C9;}
	.st12{fill:#F7A491;}
	.st13{fill:#FAE0B2;}
	.st14{fill:#FFD09F;}
	.st15{fill:#FFB769;}
	.st16{fill:#FF7700;}
	.st17{fill:#F8A492;}
	.st18{fill:#86B1F2;}
	.st19{fill:#50BFA5;}
	.st20{fill:#9BC1F9;}
	.st21{fill:#07345A;}
</style>
<rect class="st0" width="2800" height="2000"/>
<g>
	<g>
		<path class="st1" d="M638.2,910.4c1.4,0.6,2.8,0.9,4.3,1.2c-0.5-3.3,0-7.2,3.1-11.5c-1.2-1.6-2.5-3.2-3.7-4.8
			C639.3,898.6,636.3,904.3,638.2,910.4z"/>
		<path class="st1" d="M666.3,915.7c-4.9-6.6-10.1-13.5-15.3-20.4c-0.4,0.2-0.6,0.3-0.6,0.3c-2,1.2-2.2,1.4-2.2,1.4
			c-1.3,1-2.1,2.1-2,2c-0.2,0.3-0.5,0.6-0.7,0.9c5.7,7.4,11.4,14.7,16.6,21.3C663.9,919.7,665.3,917.8,666.3,915.7z"/>
		<path class="st1" d="M683.2,951c0-0.1,3.3,7-0.3,11c0,0-4,4.7-7.2-1.5c0,0-0.3-0.4-0.3-0.4c-0.7-0.9-2-1.2-3-0.5
			c-1.1,0.7-1.2,2-0.7,3.2c0.3,0.6,0.8,1.6,2.1,2.7c7.8,6.4,17.3-1.7,16.2-11c-0.7-5.8-8.4-17.7-18.6-31.9c-1.3,1.7-2.8,3.4-4.4,4.9
			C675.4,938.5,681.8,947.2,683.2,951z"/>
		<path class="st1" d="M662.2,921.4c1.6,2.1,3.1,4.1,4.6,6c1.6-1.5,3.1-3.1,4.4-4.9c-1.6-2.2-3.2-4.5-4.9-6.8
			C665.3,917.8,663.9,919.7,662.2,921.4z"/>
		<path class="st1" d="M641.9,895.2c1.6-2.1,3-3.4,3-3.4c0.7-0.6,1.5-1.2,2.2-1.7c-4.5-5.9-8.8-11.7-12.8-17.2c-1,3.2-1.8,6.2-2.5,9
			C635.1,886.3,638.5,890.8,641.9,895.2z"/>
		<path class="st1" d="M625.2,872.9c2.1,2.9,4.3,6,6.6,9.1c0.7-2.8,1.5-5.8,2.5-9c-2.3-3.1-4.4-6.2-6.4-9
			C627.1,867,626.2,869.9,625.2,872.9z"/>
		<path class="st1" d="M639.7,924.1c-3-1.6-15.5-10.3-7.9-42.1c-2.3-3.1-4.5-6.1-6.6-9.1c-1.2,3.5-2.3,7-3.4,10.6
			c-2.5,8.5-4.6,17.6-3.4,26.4c1.6,11.4,9.9,19.7,20.1,23.7c5.3,2.1,11.4,2.6,17.1,0.7c4.2-1.4,8-3.9,11.2-6.9c-1.5-1.9-3-3.9-4.6-6
			C657,926.5,649,928.8,639.7,924.1z"/>
		<path class="st1" d="M627.8,831.7c-7.1-3.7-22.1-4.1-20.9,9.1c0.6,5.9,8.1,18,18.2,32.1c1-3,1.9-6,2.8-9
			c-10.1-14.7-15.6-25.3-9.9-26c3.4-0.4,7.6,1.3,10.2,5.4c2.8,4.3,2.1,10.1,1,15.1c-0.4,1.9-0.9,3.7-1.4,5.6c2,2.9,4.1,5.9,6.4,9
			c0.4-1.4,0.9-2.8,1.4-4.2c3.2-9.1,3.7-20.2,1.4-26.2C637.1,842.6,634.7,835.4,627.8,831.7z"/>
		<path class="st1" d="M653.2,894.6c-0.4,0.1,2.7-0.9,5.6-0.4c-1.2-0.2,6.1-0.2,8.9,8c1.5,4.2,0.8,9.2-1.4,13.5
			c1.7,2.3,3.4,4.6,4.9,6.8c0.2-0.3,0.4-0.6,0.6-0.8c15.3-20.7-7.4-43-24.8-31.5c1.3,1.7,2.6,3.5,3.9,5.2
			C651.6,895.1,652.6,894.7,653.2,894.6z"/>
		<path class="st1" d="M641.9,895.2c1.2,1.6,2.5,3.2,3.7,4.8c0.2-0.3,0.4-0.6,0.7-0.9c0,0,0.8-1,2-2c0,0,0.2-0.2,2.2-1.4
			c-0.1,0,0.2-0.1,0.6-0.3c-1.3-1.7-2.6-3.5-3.9-5.2c-0.8,0.5-1.5,1-2.2,1.7C644.9,891.9,643.5,893.1,641.9,895.2z"/>
		<path class="st1" d="M649.2,906.3c3.1,3.3,3.7,7.8,1.3,10c-2.4,2.2-6.8,1.3-9.9-2c-3.1-3.3-3.7-7.8-1.3-10
			C641.6,902.1,646.1,903,649.2,906.3z"/>
		<path class="st1" d="M681.1,956.3c3.1,3.3,3.7,7.8,1.3,10c-2.4,2.2-6.8,1.3-9.9-2c-3.1-3.3-3.7-7.8-1.3-10
			C673.6,952.1,678,953,681.1,956.3z"/>
	</g>
	<rect x="1485.4" y="1100.9" class="st2" width="134.7" height="265.2"/>
	<path class="st3" d="M1620.1,1238.2c-1.2,0-2.4,0-3.6,0h-131.1v128h134.7V1238.2z"/>
	<path class="st2" d="M1318.9,1563.7v-158.6c0-76.1,61.7-137.8,137.8-137.8h165.5c76.1,0,137.8,61.7,137.8,137.8v158.6
		c0,76.1-61.7,137.8-137.8,137.8h-165.5C1380.6,1701.5,1318.9,1639.8,1318.9,1563.7z"/>
	<path class="st3" d="M1374.2,1550.5v-125.2c0-57.8,46.9-104.7,104.7-104.7h121c57.8,0,104.7,46.9,104.7,104.7v125.2
		c0,57.8-46.9,104.7-104.7,104.7h-121C1421.1,1655.2,1374.2,1608.3,1374.2,1550.5z"/>
	<g>
		<circle class="st2" cx="1487.7" cy="1423.3" r="10.6"/>
		
			<ellipse transform="matrix(0.3827 -0.9239 0.9239 0.3827 -367.3748 2296.8354)" class="st2" cx="1535" cy="1423.3" rx="10.6" ry="10.6"/>
		
			<ellipse transform="matrix(0.9871 -0.1602 0.1602 0.9871 -207.5599 271.841)" class="st2" cx="1582.3" cy="1423.3" rx="10.6" ry="10.6"/>
	</g>
	<g>
		<circle class="st2" cx="1487.7" cy="1461.8" r="10.6"/>
		
			<ellipse transform="matrix(0.3827 -0.9239 0.9239 0.3827 -402.9595 2320.6123)" class="st2" cx="1535" cy="1461.8" rx="10.6" ry="10.6"/>
		
			<ellipse transform="matrix(0.9871 -0.1602 0.1602 0.9871 -213.7296 272.3384)" class="st2" cx="1582.3" cy="1461.8" rx="10.6" ry="10.6"/>
	</g>
	<g>
		<path class="st2" d="M1487.7,1489.7c-5.9,0-10.6,4.8-10.6,10.6c0,5.9,4.8,10.6,10.6,10.6s10.6-4.8,10.6-10.6
			C1498.4,1494.5,1493.6,1489.7,1487.7,1489.7z"/>
		<path class="st2" d="M1535,1489.7c-5.9,0-10.6,4.8-10.6,10.6c0,5.9,4.8,10.6,10.6,10.6c5.9,0,10.6-4.8,10.6-10.6
			C1545.7,1494.5,1540.9,1489.7,1535,1489.7z"/>
		<path class="st2" d="M1582.3,1489.7c-5.9,0-10.6,4.8-10.6,10.6c0,5.9,4.8,10.6,10.6,10.6s10.6-4.8,10.6-10.6
			C1592.9,1494.5,1588.2,1489.7,1582.3,1489.7z"/>
	</g>
	<g>
		<path class="st4" d="M940.9,1701.5L940.9,1701.5c0,2.8,2.7,5,6,5h1485.7c3.3,0,6-2.2,6-5l0,0c0-2.8-2.7-5-6-5H946.9
			C943.6,1696.5,940.9,1698.7,940.9,1701.5z"/>
	</g>
	<g>
		<g>
			<g>
				<path class="st5" d="M1319.2,1697.5c0,0,138.3,4.7,168.6-9.7c30.3-14.4,0.9-33.4,0.9-33.4s65.7-15.6,70-36.1
					c4.3-20.5-27.2-17.3-27.2-17.3s62.9-44,53.9-57.5c-16.8-25.2-88,19.2-88,19.2s23.7-23.6,7-32.3c-25.2-13.2-61.7,50.3-61.7,50.3
					s1.8-15.4-17.5-16.3C1390.4,1562.7,1319.2,1697.5,1319.2,1697.5z"/>
			</g>
			<path class="st6" d="M1423.9,1553.3c19.4,0.9,18.8,27.4,18.8,27.4s36.8-75,62-61.8c16.7,8.8-1.4,40.3-1.4,40.3
				s65.3-40.8,82.1-15.6l-254.7,144.2C1339,1672,1391.5,1551.8,1423.9,1553.3z"/>
		</g>
		<g>
			<g>
				<path class="st5" d="M1314,1697.5c0,0,119-82.8,136.1-119.2c17.1-36.4-15.7-33.4-15.7-33.4s48.9-64.4,37.3-86.7
					s-38.3,4.7-38.3,4.7s24.8-88.6,6.1-94.3c-34.7-10.5-68.7,101.7-68.7,101.7s-13-62.1-35.1-57.5c-33.4,7-0.1,98.8-0.1,98.8
					s-9.8-29.9-28.5-16C1273.8,1520.6,1314,1697.5,1314,1697.5z"/>
			</g>
			<path class="st6" d="M1274.7,1497.1c21-9.9,25.2-30.8,25.2-30.8s0.1-51.9,33.5-58.9c22.1-4.6,37.6,37.1,37.6,37.1
				s33.8-86.3,68.5-75.8l-125.9,327.4C1309.2,1675.2,1249.6,1509,1274.7,1497.1z"/>
		</g>
	</g>
	<g>
		<g>
			<g>
				<path class="st6" d="M748.2,1712c0,0-284.6-149.2-335.2-227.3c-50.7-78,11.2-84.4,11.2-84.4s-132.5-132.3-112.9-187
					c19.6-54.7,89.4-1.3,89.4-1.3S316,1016.7,356.9,998c76.3-35,179.8,173.1,179.8,173.1s-21.7-90.1,30.5-86.5
					c78.6,5.4,72.7,208.5,72.7,208.5s9.9-77.8,57-51.8C781.5,1287.8,748.2,1712,748.2,1712z"/>
			</g>
			<path class="st5" d="M714.5,1210.1c-36.8-21-74.5,38.5-74.5,38.5s5.8-158.6-72.8-164c-52.1-3.6-30.5,86.5-30.5,86.5
				S433.2,963,356.9,998l391.7,710.7C752.1,1659.5,787.3,1251.8,714.5,1210.1z"/>
		</g>
		<g>
			<g>
				<path class="st6" d="M745.8,1711.1c0,0-246.7,23.8-309.6-5.2c-62.9-29-16.4-61.3-16.4-61.3s-136-30.6-145.3-72.9
					c-9.4-42.2,55.8-36.3,55.8-36.3s-130.9-89.3-112.6-117.4c34.1-52.3,182,37.5,182,37.5s-49.4-48.1-15.2-66.5
					c51.7-27.8,128.6,102.4,128.6,102.4s-4.1-31.7,35.8-34.1C620.5,1452.9,745.8,1711.1,745.8,1711.1z"/>
			</g>
			<path class="st5" d="M551.1,1434.4c-39.9,2.4-38.1,56.9-38.1,56.9s-77.7-153.9-129.4-126.1c-34.3,18.4,3.9,83.2,3.9,83.2
				s-135.8-82.7-169.9-30.4l528.9,291.8C729.2,1677.4,618.1,1430.4,551.1,1434.4z"/>
		</g>
	</g>
	<g>
		<g>
			<path class="st1" d="M1820.8,680.3c-6.6,23-30.5,36.4-53.6,29.8c-23-6.6-36.3-30.6-29.8-53.6c6.6-23,30.5-36.4,53.6-29.8
				C1814,633.3,1827.4,657.3,1820.8,680.3z"/>
			<path class="st7" d="M1755,668.7c-3.5,12.3,3.6,25.1,15.9,28.6c12.3,3.5,25.1-3.6,28.6-15.9L1755,668.7z"/>
		</g>
	</g>
	<polygon class="st8" points="1599.3,408.4 1575.4,406.5 1572.1,428.6 1548.4,427.7 1542.7,448.5 1524.9,450.7 1526.1,459.7 
		1549.9,456.7 1555.3,437.1 1579.9,438 1583.1,416.2 1604.8,418 	"/>
	<polygon class="st8" points="690.2,697.4 689,712 665.4,712.7 661,733.8 643.4,737.2 645.1,746.1 668.7,741.5 672.8,721.6 
		697.4,720.8 699.2,698.9 	"/>
	<path class="st9" d="M1321.1,1699.8H994.7c-17,0-30.7-13.7-30.7-30.7v-637.5c0-17,13.7-30.7,30.7-30.7h326.4
		c17,0,30.7,13.7,30.7,30.7v637.5C1351.8,1686,1338.1,1699.8,1321.1,1699.8z"/>
	<path class="st10" d="M994.7,1675.1c-3.3,0-6-2.7-6-6v-637.5c0-3.3,2.7-6,6-6h326.4c3.3,0,6,2.7,6,6v637.5c0,3.3-2.7,6-6,6H994.7z"
		/>
	<g>
		
			<ellipse transform="matrix(0.9659 -0.259 0.259 0.9659 -250.6962 339.9565)" class="st6" cx="1165" cy="1121.5" rx="59.1" ry="59.1"/>
		<path class="st9" d="M1185.6,1121.5c0,11.4-9.2,20.6-20.6,20.6s-20.6-9.2-20.6-20.6c0-11.4,9.2-20.6,20.6-20.6
			S1185.6,1110.1,1185.6,1121.5z"/>
	</g>
	<g>
		
			<ellipse transform="matrix(0.7071 -0.7071 0.7071 0.7071 -613.6242 1219.2559)" class="st6" cx="1165" cy="1350.3" rx="83.7" ry="83.7"/>
		<path class="st9" d="M1194.2,1350.3c0,16.1-13.1,29.2-29.2,29.2s-29.2-13.1-29.2-29.2c0-16.1,13.1-29.2,29.2-29.2
			S1194.2,1334.2,1194.2,1350.3z"/>
	</g>
	<g>
		
			<ellipse transform="matrix(0.9935 -0.1142 0.1142 0.9935 -171.0224 142.4312)" class="st6" cx="1157.9" cy="1564.3" rx="83.7" ry="83.7"/>
		
			<ellipse transform="matrix(3.170251e-02 -0.9995 0.9995 3.170251e-02 -442.254 2672.0076)" class="st9" cx="1157.9" cy="1564.3" rx="29.2" ry="29.2"/>
	</g>
	<g>
		<path class="st11" d="M2014.2,709.8l19.1,1.9c1,0.1,1.8,0.7,2.3,1.5l9.2,16.6c1.2,2.1,4.3,2,5.3-0.2l7.8-17.2
			c0.4-0.9,1.2-1.5,2.2-1.7l18.9-3.5c2.4-0.4,3.3-3.4,1.4-5l-14.3-12.6c-0.7-0.6-1.1-1.6-1-2.5l2.5-18.7c0.3-2.4-2.3-4.1-4.4-2.9
			l-16.6,9.4c-0.8,0.5-1.9,0.5-2.8,0.1l-17.3-8.1c-2.2-1-4.7,0.9-4.2,3.2l4,18.4c0.2,0.9-0.1,1.9-0.7,2.6l-13.2,13.7
			C2010.7,706.7,2011.8,709.6,2014.2,709.8z"/>
		<path class="st1" d="M907.1,923.4l19.1,1.9c1,0.1,1.8,0.7,2.3,1.5l9.2,16.6c1.2,2.1,4.3,2,5.3-0.2l7.8-17.2
			c0.4-0.9,1.2-1.5,2.2-1.7l18.9-3.5c2.4-0.4,3.3-3.4,1.4-5l-14.3-12.6c-0.7-0.6-1.1-1.6-1-2.5l2.5-18.7c0.3-2.4-2.3-4.1-4.4-2.9
			l-16.6,9.4c-0.8,0.5-1.9,0.5-2.8,0.1l-17.3-8.1c-2.2-1-4.7,0.9-4.2,3.2l4,18.4c0.2,0.9-0.1,1.9-0.7,2.6l-13.2,13.7
			C903.5,920.3,904.6,923.2,907.1,923.4z"/>
		<path class="st1" d="M2002.2,910.2l19.1,1.9c1,0.1,1.8,0.7,2.3,1.5l9.2,16.6c1.2,2.1,4.3,2,5.3-0.2l7.8-17.2
			c0.4-0.9,1.2-1.5,2.2-1.7l18.9-3.5c2.4-0.4,3.3-3.4,1.4-5L2054,890c-0.7-0.6-1.1-1.6-1-2.5l2.5-18.7c0.3-2.4-2.3-4.1-4.4-2.9
			l-16.6,9.4c-0.8,0.5-1.9,0.5-2.8,0.1l-17.3-8.1c-2.2-1-4.7,0.9-4.2,3.2l4,18.4c0.2,0.9-0.1,1.9-0.7,2.6l-13.2,13.7
			C1998.6,907.1,1999.7,910,2002.2,910.2z"/>
	</g>
	<g>
		<g>
			<path class="st12" d="M1922.7,1272.6c-0.8,0.3,11.1,15.7,22.7,26.6c9.4,11.7,18.1,25.7,21.2,40.8c4.6,23.1,0.8,137,4.8,145.1
				c34.4,33.6,59.2,117.9,66.2,143.6c1.4,5,4.1,9.5,7.9,13l0,0l-1.5,29.1l-17.1,15.7c0,0,3.8-23.7-3.8-41.2c0,0-86.5-131-91.6-141
				c-9.8-28.5-45.5-174.6-45.5-174.6l-8.3-33.6C1877.7,1296.1,1922.7,1272.7,1922.7,1272.6z"/>
			<path class="st2" d="M2064.2,1651.1c0,0-10.8,16.6-11.7,23.1c-0.9,6.5-6.7,21.2-13,22.1c-1.4,0.2-26.2,2-26-1.1
				c0.1-2.4,9.1-5.7,13.3-8.6c7.2-5,18.4-45.4,18.4-45.4S2063.7,1645.9,2064.2,1651.1z"/>
		</g>
		<path class="st12" d="M1848.8,1323.1c0,0-55.7,119.1-56.1,140.1c-0.3,18,9.7,118.7,6.9,202.5c-0.1,3-3.9,7.1-9.5,9.6
			c-3.1,1.4-18,8.7-18,8.7l-2.4,4.9l52.2-3.7l1.1-12.1l-0.3-2.1c0,0,20.8-125.5,18.7-161c-0.3-5.6-3-38.9-3-38.9l62.8-121.3
			l-39.5-51.9L1848.8,1323.1z"/>
		<g>
			<path class="st4" d="M1976.5,1466.2C1976.5,1466.2,1976.5,1466.2,1976.5,1466.2C1976.5,1466.2,1976.5,1466.2,1976.5,1466.2z"/>
			<path class="st4" d="M1780.6,1409.8l109.3-158c6.7,2.7,13.1,5.1,20.3,6.5c15.7,3,31.4,2.5,47.3,2c0,0.6,0,1.1,0.1,1.6
				c1.8,13,19.1,33.2,22.7,72.7c4,44.9,1.6,122.8,0.2,127.9C1907.8,1453.7,1801.3,1431.4,1780.6,1409.8z"/>
		</g>
		<path class="st12" d="M1923.4,1041.3c-0.4,4.6-2.9,8.1-5.5,7.9c-2.6-0.3-4.3-4.2-3.9-8.8c0.4-4.6,2.9-8.1,5.5-7.9
			C1922.1,1032.7,1923.8,1036.6,1923.4,1041.3z"/>
		<path class="st2" d="M1823.6,1697H1755c-2.4-0.2-3.1-3.3-1.7-4.7c2.2-2.2,10.2-4.3,18.9-8.3c15.2,1.6,48.5-7.4,50.9-10.9
			C1824.5,1680.1,1824.9,1696.7,1823.6,1697z"/>
		<path class="st12" d="M1757.2,1128.5c0.3-0.9,1.1-0.2,2.1,1.3c-1.3-5.4-1.1-12.1-0.1-12.7c1.2-0.7,2,8.6,4.7,13.7
			c2.8,5.1,5.3,11.3,5.7,11c0.6-0.4-3.2-7.3-6-12.5c-2.7-5.2-0.6-29.1,1.9-12c2.5,17.2,19.1,30.3,19.6,25c0.5-5.3-2.3-13.2,1.1-12.1
			c3.4,1.2,4.4,12.9,7.4,21.5c0.3,1,0.4,4,0.4,7.5c0,1.8,1.1,3.5,2.9,4.1l43.6,15.9l28.5-49.6l32.2,6.9c0,0-25.9,67.4-48,77.6
			c-10.1,4.6-57.1-28.4-75.6-44C1759.3,1154.8,1755.8,1132.3,1757.2,1128.5z"/>
		<path class="st1" d="M1883.1,1098.6c-11.4,5.4-40.4,72.7-40.4,72.7l37.3,22.9l11.8-34.2C1891.8,1160,1897.1,1092,1883.1,1098.6z"
			/>
		<path class="st3" d="M1893.9,1043.9c-5.5-13.8-11-27.6-4.8-44.5c5.1-13.7,16.1-22.7,29.9-26.3c39.2-10.3,38.6,16.2,95.4,10.7
			c58.7-5.7,82.3,58.1,76.8,79.2c-26,101-142.6,51.8-158.4,35C1921,1085.5,1897.4,1052.7,1893.9,1043.9z"/>
		<path class="st1" d="M1971,1093c0,0,6.3-0.3,23.3,7.5c17,7.8,53.5,58.4,53.5,58.4l-29.7,23.1l-50.9-33.3
			C1967.2,1148.7,1960.7,1093,1971,1093z"/>
		<path class="st13" d="M1880.1,1260.2c17.5,9.3,84.9,7.8,84.9,7.8c1.7-17.5,10.6-64.4,14.5-102.1c4.9-26.2-3.2-33.8-8.5-72.9
			c0-0.3-27.2-2.2-27.2-2.2l-28.3,0.7c0,0-24.6,2-32.4,7.1c-0.5,0.4-3.7,44.6-1.2,76c1.7,21.4,4.1,38.6,3.9,52.8
			C1885.6,1247.9,1880.1,1260.2,1880.1,1260.2z"/>
		<path class="st13" d="M1874.5,1153.1c0.6,16.7,22.1,32.8,52.8,32.8s55.5-13.6,55.5-30.3s-20.4-40.3-51-40.3
			C1901.1,1115.3,1873.8,1131.9,1874.5,1153.1z"/>
		<path class="st12" d="M1937.2,1049.3c0,0,0.6,4.2,1.5,10.1c1.7,10.7,2.5,28.3,4.7,33.6c1.9,4.7-14.5,49.2-19.9,36.8
			c-9.5-21.7-9.2-28.3-9.7-34c-0.5-5.7-2-25.3-3.1-38.4c-0.6-7.1-1-12.2-1-12.2L1937.2,1049.3z"/>
		<path class="st2" d="M1910.7,1057.1c-0.5-6.9-0.9-12-0.9-12l27.4,4.2c0,0,0.7,4,1.5,9.6
			C1927.5,1065.4,1917.5,1063.4,1910.7,1057.1z"/>
		<path class="st12" d="M1928.6,987.2c0,0,10.8,2.4,17.5,12.6c6.7,10.2,11.3,40.2-10.7,54.2c-22,14-39.1-5.8-39.4-25.1
			C1895.7,1009.6,1899.8,983.8,1928.6,987.2z"/>
		<path class="st12" d="M1890.9,1022.9c1.9,4.7,5.6,7.6,8.3,6.5c2.7-1.1,3.4-5.8,1.5-10.4c-1.9-4.7-5.6-7.6-8.3-6.5
			C1889.7,1013.5,1889.1,1018.2,1890.9,1022.9z"/>
		<path class="st3" d="M1925.3,986.6c0,0,13.8,30.9,25.9,33.7c12.1,2.8,11.9,18.3,11.9,18.3s-0.3-35.9-11.6-44.2
			C1940.2,986.2,1925.3,986.6,1925.3,986.6z"/>
		<path class="st12" d="M1946.4,1026.7c-1.6,5-0.1,10,3.3,11c3.4,1.1,7.4-2.1,9-7.1c1.6-5,0.1-10-3.3-11
			C1952.1,1018.5,1948,1021.7,1946.4,1026.7z"/>
		<g>
			
				<rect x="1705.2" y="1095" transform="matrix(-0.4868 0.8735 -0.8735 -0.4868 3521.8567 124.0255)" class="st14" width="38.6" height="3"/>
			
				<rect x="1705.7" y="1096" transform="matrix(-0.4868 0.8735 -0.8735 -0.4868 3522.958 124.0005)" class="st15" width="38.6" height="1.8"/>
			
				<rect x="1718.5" y="1101.7" transform="matrix(-0.4869 0.8735 -0.8735 -0.4869 3546.9375 122.752)" class="st14" width="37.8" height="3"/>
			
				<rect x="1718.9" y="1102.3" transform="matrix(-0.4869 0.8735 -0.8735 -0.4869 3547.6138 122.7361)" class="st15" width="37.8" height="2.3"/>
			
				<rect x="1731.8" y="1109.1" transform="matrix(-0.4869 0.8735 -0.8735 -0.4869 3573.1599 122.1562)" class="st14" width="37.8" height="3"/>
			
				<rect x="1732.3" y="1110" transform="matrix(-0.4869 0.8735 -0.8735 -0.4869 3574.1855 122.1333)" class="st15" width="37.8" height="1.9"/>
			<path class="st2" d="M1971.9,1326.8c-12-10.9-19.5-33.5-24-42.7c0,0-5.9-11.9-23.5-12.2c-17.6-0.3-37.2-10.8-46.2-30.9
				s12.8-50.5,12.8-50.5l0.9-1.7c0,0,14.4-34.5,36.2-37.5s41.1,8.2,50.6,23c9.5,14.8,22.7,13.5,22.7,13.5c10.1-1,33.3-6.5,48.9-2
				c14.6,4.2,26.1,14.9,33.2,28.5c7.7,14.7,8.9,34.9-2.1,60.1c-0.6,1.4-6.4,13.3-8.4,16.5c-1.7,3.3-8.8,14.6-9.6,15.8
				c-15.7,22.7-33.5,32.2-50.1,33.4C1998.3,1341.1,1983.1,1336.9,1971.9,1326.8z"/>
			<path class="st3" d="M1932.2,1249.9c14.3,8,32.9,2,41.5-13.4c8.6-15.4,3.9-34.4-10.4-42.4c-14.3-8-32.9-2-41.5,13.4
				C1913.2,1223,1917.9,1241.9,1932.2,1249.9z"/>
			<path class="st4" d="M1937.7,1240.1c9.3,5.2,21.4,1.3,27-8.7c5.6-10,2.5-22.3-6.8-27.5c-9.3-5.2-21.4-1.3-27,8.7
				C1925.3,1222.6,1928.4,1234.9,1937.7,1240.1z"/>
			<path class="st16" d="M1713,1069c-11.5,6-18.4,18.3-17.6,31.2l0,0.3l54.2,26.9c2.3-0.7,10.1,1.1,10.1,1.1l10.9-19.6
				c0,0-5.7-5.7-6.3-8L1713,1069L1713,1069z M1752.7,1109.8l-30-18.4c-2.4-1.5-3-4.7-1.5-7.3l0,0c1.6-2.6,4.7-3.5,7.1-2l30,18.4
				c2.4,1.5,3,4.7,1.5,7.3l0,0C1758.3,1110.4,1755.1,1111.3,1752.7,1109.8z M1712.8,1099.1L1712.8,1099.1c1.4-2.7,4.5-3.8,7-2.6
				l31.4,15.8c2.5,1.3,3.4,4.4,2.1,7.1l0,0c-1.4,2.7-4.5,3.8-7,2.6l-31.4-15.8C1712.4,1105,1711.5,1101.8,1712.8,1099.1z"/>
			<path class="st9" d="M1930.9,1212.6c-2.9,5.2-3.5,11-2.1,16.1l-169.1-100.2l10.9-19.6l175.3,92.9
				C1939.9,1202.8,1934.2,1206.6,1930.9,1212.6z"/>
			
				<rect x="1976.1" y="1255.3" transform="matrix(-0.4869 0.8735 -0.8735 -0.4869 4102.5688 113.0105)" class="st3" width="84.1" height="12.5"/>
			<path class="st9" d="M1764.8,1096.3l0.1-0.1c0.5-0.8,0.2-1.8-0.6-2.3l-6.3-3.5c-0.8-0.5-1.8-0.2-2.3,0.6l-0.1,0.1
				c-0.5,0.8-0.2,1.8,0.6,2.3l6.3,3.5C1763.3,1097.4,1764.4,1097.2,1764.8,1096.3z"/>
			<path class="st9" d="M1751.5,1088.9l0.1-0.1c0.5-0.8,0.2-1.8-0.6-2.3l-6.3-3.5c-0.8-0.5-1.8-0.2-2.3,0.6l-0.1,0.1
				c-0.5,0.8-0.2,1.8,0.6,2.3l6.3,3.5C1750,1090,1751,1089.7,1751.5,1088.9z"/>
			<path class="st9" d="M1739.1,1081.3l0.1-0.1c0.5-0.8,0.2-1.8-0.6-2.3l-6.3-3.5c-0.8-0.5-1.8-0.2-2.3,0.6l-0.1,0.1
				c-0.5,0.8-0.2,1.8,0.6,2.3l6.3,3.5C1737.6,1082.4,1738.6,1082.1,1739.1,1081.3z"/>
			<path class="st9" d="M1719.7,1116l0.1-0.1c0.5-0.8,0.2-1.8-0.7-2.3l-6.3-3.5c-0.8-0.5-1.8-0.2-2.3,0.6l-0.1,0.1
				c-0.5,0.8-0.2,1.8,0.6,2.3l6.3,3.5C1718.2,1117.1,1719.2,1116.8,1719.7,1116z"/>
			<path class="st9" d="M1732.6,1122.7l0.1-0.1c0.5-0.8,0.2-1.8-0.6-2.3l-6.3-3.5c-0.8-0.5-1.8-0.2-2.3,0.6l-0.1,0.1
				c-0.5,0.8-0.2,1.8,0.6,2.3l6.3,3.5C1731.1,1123.8,1732.1,1123.5,1732.6,1122.7z"/>
			<path class="st9" d="M1745.6,1130l0.1-0.1c0.5-0.8,0.2-1.8-0.6-2.3l-6.3-3.5c-0.8-0.5-1.8-0.2-2.3,0.7l-0.1,0.1
				c-0.5,0.8-0.2,1.8,0.6,2.3l6.3,3.5C1744.1,1131.1,1745.1,1130.8,1745.6,1130z"/>
			<polygon class="st11" points="1759.7,1128.5 1770.7,1108.9 1772.9,1110.1 1761.9,1129.8 			"/>
			<polygon class="st11" points="1774.8,1137.4 1786.1,1117.1 1787,1117.6 1775.7,1138 			"/>
			<polygon class="st11" points="1788.5,1145.6 1800.2,1124.6 1801.2,1125.1 1789.4,1146.1 			"/>
			<polygon class="st11" points="1800.3,1152.5 1812.3,1131 1813.2,1131.5 1801.2,1153.1 			"/>
			<polygon class="st11" points="1812,1159.5 1824.3,1137.4 1825.2,1137.9 1812.9,1160 			"/>
			<polygon class="st11" points="1822.8,1165.9 1835.4,1143.3 1836.3,1143.8 1823.7,1166.4 			"/>
			<polygon class="st11" points="1833.6,1172.3 1846.5,1149.1 1847.4,1149.6 1834.5,1172.8 			"/>
			<polygon class="st11" points="1842.7,1177.7 1855.9,1154.1 1856.8,1154.6 1843.7,1178.3 			"/>
			<polygon class="st11" points="1851.9,1183.1 1865.3,1159.1 1866.2,1159.6 1852.8,1183.7 			"/>
			<polygon class="st11" points="1860.7,1188.4 1874.4,1163.9 1875.3,1164.4 1861.6,1188.9 			"/>
			<polygon class="st11" points="1869,1193.3 1882.9,1168.4 1883.8,1168.9 1869.9,1193.8 			"/>
			<polygon class="st11" points="1876.8,1197.9 1890.9,1172.7 1891.8,1173.2 1877.7,1198.5 			"/>
			<polygon class="st11" points="1890.9,1206.3 1905.4,1180.4 1906.3,1180.9 1891.8,1206.8 			"/>
			<polygon class="st11" points="1897.8,1210.4 1912.5,1184.1 1913.4,1184.6 1898.7,1210.9 			"/>
			<polygon class="st11" points="1903.4,1213.7 1918.2,1187.2 1919.2,1187.7 1904.4,1214.2 			"/>
			<polygon class="st11" points="1909.4,1217.2 1924.3,1190.4 1925.2,1190.9 1910.3,1217.7 			"/>
			
				<rect x="1727.9" y="1085.9" transform="matrix(-0.4869 0.8734 -0.8734 -0.4869 3521.1921 108.3739)" class="st0" width="1.7" height="4.8"/>
			
				<rect x="1720.5" y="1100.5" transform="matrix(-0.4873 0.8732 -0.8732 -0.4873 3522.6885 137.074)" class="st0" width="1.1" height="4.3"/>
			
				<rect x="1740.9" y="1093" transform="matrix(-0.4873 0.8732 -0.8732 -0.4873 3546.8848 108.8635)" class="st0" width="1.3" height="5.2"/>
			
				<rect x="1733.2" y="1107.2" transform="matrix(-0.4869 0.8734 -0.8734 -0.4869 3547.5146 135.2414)" class="st0" width="1.7" height="4.7"/>
			
				<rect x="1754.2" y="1100.2" transform="matrix(-0.487 0.8734 -0.8734 -0.487 3572.364 106.6248)" class="st0" width="1.4" height="4.5"/>
			
				<rect x="1745.9" y="1116.4" transform="matrix(-0.4862 0.8739 -0.8739 -0.4862 3572.7307 136.2823)" class="st0" width="0.9" height="4.1"/>
			<g>
				<polygon class="st11" points="1883.6,1201.9 1897.8,1176.4 1898.8,1176.8 1884.5,1202.5 				"/>
			</g>
		</g>
		<path class="st12" d="M1956.8,1255.4c0.2,0.4-5.9,1.7-11.5,3.3c-5.5,1.6-14.6,1.6-14.2,2.9c0.3,1,5.9,1.6,11.1,1.2
			c-1.3,0.6-1.9,1.1-1.2,1.5c2.8,1.8,18.9,0.8,33.7-5.5c14.8-6.3,100.9-53.6,92.2-66.9c-3.2-4.9-17-19-24.9-28.7l-22.6,17.6
			l11.6,12.7c-17.8,19.1-45,39.7-46.4,40.7c-3.8,2.7-11,0.4-12.7,0.3c-9-0.2-20.5-0.3-22.4,2.7c-1.9,3,6.4,2,11.4,3.5
			c5,1.5-11.5,14.6-28.7,13.5c-17.2-1.1,2.2,6.6,7.9,5C1945.8,1257.9,1956.5,1254.8,1956.8,1255.4z"/>
		<path class="st12" d="M1840.5,1179.4l-43.6-15.9c-1.7-0.6-2.9-2.3-2.9-4.1c0-3.5,0-6.5-0.4-7.5c-3-8.5-4-20.3-7.4-21.5
			c-3.4-1.2-0.6,6.8-1.1,12.1c-0.5,5.3-17.1-7.8-19.6-25c-2.5-17.2-4.6,6.8-1.9,12c2.7,5.2,6.6,12,6,12.5c-0.4,0.3-2.9-6-5.7-11
			c-2.8-5.1-3.5-14.4-4.7-13.7c-1,0.6-1.2,7.3,0.1,12.7c-1-1.5-1.8-2.2-2.1-1.3c-1.4,3.8,2.1,26.3,20.4,41.7
			c18.5,15.6,65.6,48.6,75.6,44L1840.5,1179.4z"/>
	</g>
	<g>
		<path class="st12" d="M1252.8,747.8c0,0,0.9-2.6,0.2-8.2c-0.9-7-3.6-17.4-4-18.3c-0.7-1.6,21.1-11.4,21.1-11.4s36.1-6.2,41-10.9
			c4.9-4.7,9.3-6.9,7.2-2.4c-3.7,8.1-13,20.5-15.1,22.3c-2.2,1.8-29.5,12.2-30,12.3c-0.5,0.1,1.8,17.8,1.8,17.8L1252.8,747.8z"/>
		<g>
			<path class="st6" d="M1275.4,737.4c0,0-24-1.2-24.1,1.2c-3.3,53.1-2.9,70.5-3.9,71.1c-3.4,2.3-59.8-36.5-68.6-38.5
				c-4.2-0.9-8.6-0.2-12.8,0.5c-10,1.5-6.7,0.8-11.9,1.7l0,0c-0.3,0.1-0.4,0.1-0.4,0.1l1.2,9.4c12.5,8.8,56.8,160.1,58.9,159.8
				c2.4-0.4,55.2,6.4,53.8,2.2c-0.2-0.7-38.2-24.9-52.8-64.6c-4.9-13.3-8.3-27.9-11.6-40.6c12.1,4.4,59.1,21,65.8,17.2
				C1289.8,845.4,1275.4,737.4,1275.4,737.4z"/>
			<path class="st12" d="M1396.2,1001c0,0,52.1,31.7,54.5,38.1c3.4,9.3,45.6-8.5,34.8-9.1c-2.5-0.2-10.5-1.2-11.1-1.5
				c-3.6-1.4-52.1-47.5-52.1-47.5L1396.2,1001z"/>
			<path class="st1" d="M1506,1027.5l-30.7,1.1c0,0-7.8,8.2-24.5,10.6c0,0-1.8,8,0.6,16.7c0.4,1.5,1.2,6.1,2.8,5.9
				c5.6-1.1,20.1-6.6,36.8-12c0,0,22.4-7.6,34.7-17.1C1537.8,1023.2,1506,1027.5,1506,1027.5z"/>
			<path class="st3" d="M1171.4,932.7c0,0,35.6,1.7,73.2-11.9c43.4-15.8,91.7-31.3,107.2-24.6c12.5,5.4,98.3,106.7,98.3,106.7
				l-25.7,23.8l-90.8-80.2c0,0-97.7,49.8-121.2,48.4C1159,991.6,1153.3,949.9,1171.4,932.7z"/>
			<polygon class="st3" points="1207,905.9 1246.8,943.3 1184.4,970.8 1171.4,932.7 			"/>
			<path class="st12" d="M1300.5,1087.2c0,0,4.7,57.9,4.6,67.8c-0.2,9.9,29.1,36.1,24.6,26.3c-1-2.3-3.9-9.8-4-10.5
				c-0.5-3.9,1.3-70.8,1.3-70.8L1300.5,1087.2z"/>
			<path class="st1" d="M1341.5,1198.2l-15.6-26.5c0,0-11-3-20.9-16.6c0,0-7.8,2.2-14.5,8.4c-1.1,1.1-8.9,8.3-8.2,9.7
				c2.8,5,15.8,15,29.9,25.9c0,0,19.7,12.4,33.9,18.7C1360.4,1224.1,1341.5,1198.2,1341.5,1198.2z"/>
			<path class="st2" d="M1343.6,966.7c-14.1-14.8-114.5-18.6-114.5-18.6l-33.7-49.5l-56.3,44.7c0,0,11.8,47.6,17.9,60
				c8.1,16.5,49.1,12.5,74,9.3c22.9-3,65.4-3.3,65.4-3.3l0.7,126.7c0,0,28.6,3,36.3,1.1C1334.1,1136.9,1361.2,985.2,1343.6,966.7z"
				/>
			<path class="st11" d="M1154,773.6l-34.1,5.9c0,0-0.8,0.4-1,0.4c-2.7,0.8,11.7,100.4,18.6,137.5c6.9,37,13.8,52.1,13.8,52.1
				s45.5-13.8,59.1-21c5.6-3,17.9-22.6,17.9-22.6s-17-17.9-28.1-49c-8.6-24-20.8-66.9-25.9-75.5C1162.6,781.5,1154,773.6,1154,773.6
				z"/>
		</g>
		<path class="st12" d="M1117.3,749.2l2.6,30.4c0,0,26.7,35.6,37.5,28.9c9-5.6-2.9-33.7-2.9-33.7s-2.4-6.5-5.7-13.9
			c-2.2-5.2-4.3-10.8-4.7-15.1C1143.2,735.5,1117.3,749.2,1117.3,749.2z"/>
		<g>
			<path class="st9" d="M1135.7,677c0,0,13.3,15.7,15.9,29.9c2.5,14.2,0.7,24.4,0.7,24.4l-41.4-39.1L1135.7,677z"/>
			<path class="st8" d="M1154.9,703.6c1.1,5-0.3,9.5-3.2,10.2c-2.9,0.6-6.1-2.9-7.2-7.8c-1.1-5,0.3-9.5,3.2-10.2
				C1150.6,695.1,1153.8,698.6,1154.9,703.6z"/>
			<path class="st12" d="M1099.9,700.7c-0.9-0.1,4.2,41.7,17.5,50.1s34.4,6.8,39.4-3.9c5.5-11.8-6.2-55-25.3-62.2
				C1112.3,677.4,1099.9,700.7,1099.9,700.7z"/>
			<path class="st9" d="M1093.7,675.1c-8.3,9.2-12,15.6-16.6,30.8c-5.6,18.6,11.8,35.2,25.5,40.9c13.7,5.8,15.8,14.6,15.8,14.6
				l-0.2-5.6c0-4.4-1.6-6.7-3.1-9.2c-1.4-2.2-5.8-9.8-7.4-11.7c-4.3-5.1-5.1-6.2-4-11.7c0.9-4.2-1.8-13-0.4-19.9l16.8-5.8
				c0,0,10.5-3.9,15.2-10.8C1148.8,666.9,1115.5,650.4,1093.7,675.1z"/>
			<path class="st12" d="M1108.4,727.3c2.7,4.3,2.8,9.1,0.3,10.6c-2.5,1.5-6.7-0.7-9.4-5c-2.7-4.3-2.8-9.1-0.3-10.6
				C1101.6,720.7,1105.8,723,1108.4,727.3z"/>
		</g>
		<path class="st17" d="M977.5,626c2.9,7.8,7.9,20.1,7.9,20.1c0.1,3.5,0.8,18.2,1.7,36.1l24.9-13.6c0,0-3.8-29-2.8-30.9
			c0.8-1.6,2.7,0.1,9.4-12.4c1.9-3.6,1.7-9.6,1.7-9.6s-0.4-7.3-2.1-7.8c-1.7-0.5-3.5,0.8-3.9,2.2c-0.4,1.3,0.1,4.2-0.4,5.6
			c-0.4,1.3-4.1,3.3-5.7,3.4c-1.6,0.1-2.4-21.6-2.4-21.6s0.2-6.2,0.4-8.2c0.2-1.7,1.1-6.9,1.1-6.9s1-7.4-1.4-7.7
			c-1.4-0.2-4,6.1-5.6,12.6c-1.7,7-2.3,14.3-3,14.3c-1.7,0-2.2-11.9-2.2-11.9s1-5.6,0.7-8.1c1.2-3.3,1.6-9.2-1.3-9.4
			c-0.5,0-3.3,7.8-3.3,7.8s-0.8,5.3-1.4,7.9c-1,4.4-0.4,11.2-0.8,14.3c-0.3,2.5-1,1.6-1.3,1.7c-0.2,0.1-0.2-3.3-0.4-8.1
			c-0.1-2.4-0.7-5.1-0.3-7.8c0.3-2.6,0.2-6.2,0.1-8.3c-0.3-6.1-4-5.1-4.7,0.7c-0.3,2.2-0.5,4.6-0.8,7c-1,9.4,0.1,18.2-0.9,18.4
			c-1.3,0.2-2.3-15.9-2.3-15.9s-3-8.6-4-0.2c-1.1,9.8,0,17.6,0.1,17.9C975.2,609.7,974.5,618.2,977.5,626z"/>
		<path class="st6" d="M1119.9,779.6c0,0-34.1,2.4-43.4-0.5c-5.6-1.8-53.4-31.8-53.4-31.8l-10.7-94.3l-31,1.3c0,0-3.6,106,3.3,116.8
			c7.1,11.1,76.8,52,92,71.5c8.8,11.2,35.4,163.4,37.9,164.6c17.6,6.6,78,20,76.2,14.9C1140.4,881.8,1119.9,779.6,1119.9,779.6z"/>
		<path class="st12" d="M1264.2,721.5c0,0,9-5.2,11.4-6.3c2.4-1.1,10.4-3.6,10.4-3.6s11-14.4,14.2-15.1c3.2-0.7-5.7,15-5.7,15
			l-3.9,4.7c0,0,6.4-6.9,7.6-7.9c1.2-1,10.1-17.6,12.9-16.9c2.8,0.7-3.2,12.4-6,18.5c-2.9,6.2-18.6,11.6-18.6,11.6L1264.2,721.5z"/>
	</g>
	<g>
		<g>
			<g>
				<g>
					<path class="st18" d="M1294.4,692.1c-0.2-0.3-23.6-25.8-68.2-41.5c-63.7-22.4-172.9,2.2-205.3-68.2
						c-5.8-12.5-6.1-22.4-6.1-22.8c0-1.5,2.2-1.5,2.3,0l0,0c0,0.1,0.3,9.8,5.9,22c31.8,68.8,139.9,44.3,204,66.9
						c32,11.3,58.4,30.2,69.1,42.1C1297.1,691.7,1295.4,693.3,1294.4,692.1z"/>
				</g>
				<g>
					<path class="st18" d="M1293.5,680.1c-0.9-1-22.1-23.7-61.9-37.8c-43.3-15.4-110-11.6-150.1-29.6
						c-24.3-10.9-36.2-26.5-41.9-37.6c-6.2-12.1-6.6-21.6-6.6-22c-0.1-1.5,2.2-1.6,2.3-0.1c0,0.1,0.4,9.5,6.4,21.1
						c5.5,10.8,17.1,25.9,40.8,36.5c39.6,17.7,106.2,14,149.9,29.5c40.3,14.3,61.9,37.4,62.8,38.4c0.4,0.5,0.4,1.2-0.1,1.6
						C1294.6,680.6,1293.9,680.6,1293.5,680.1z"/>
				</g>
				<g>
					<path class="st18" d="M1292.6,668c-9.4-10.3-29-24.7-55.5-34.1c-41.9-15-98.8-14.6-134.5-29.6c-25.5-10.7-38-25.8-44.1-36.6
						c-6.6-11.7-7.1-20.9-7.1-21.2c-0.1-1.5,2.2-1.6,2.3-0.1l0,0c0,0.1,0.5,9.1,6.9,20.4c5.9,10.4,18.1,25.1,42.9,35.5
						c18.1,7.6,41.5,11.1,66.2,14.9c23.4,3.6,47.6,7.3,68.2,14.7c26.9,9.6,46.8,24.2,56.4,34.8
						C1295.3,667.6,1293.6,669.1,1292.6,668z"/>
				</g>
				<g>
					<path class="st18" d="M1291.7,656c-40.5-44.1-122.5-42.4-168.2-60.2c-26.7-10.4-39.9-25-46.3-35.4c-7-11.4-7.6-20.2-7.6-20.6
						c-0.1-1.5,2.2-1.6,2.3-0.1c0,0.2,0.7,8.8,7.4,19.7c6.2,10.1,19.1,24.3,45.1,34.4c45.6,17.7,128,15.9,169.1,60.7
						c0.4,0.5,0.4,1.2-0.1,1.6C1292.9,656.5,1292.1,656.4,1291.7,656z"/>
				</g>
			</g>
		</g>
		<g>
			<path class="st5" d="M1115.7,566.5L1115.7,566.5c-3.8-3.9-8.5-15.3-11.3-22.1c-3.8-9.2-3.4-7.3-4.8-8c-3-0.6-0.5,1.6-24.8,51.3
				c-10.1-13.2-38.9-9.9-38.9,5.4c0,7.9,8.4,15,19.7,14.9c7.8,0,14.8-3.6,17.9-9.1l0,0c0.8-1.5,11.4-23,20.1-40.5
				c3,11.6,16.6,20,25.1,14.4l2.6-1.7l-2.6-1.6C1117.7,568.7,1115.9,566.6,1115.7,566.5z"/>
			<path class="st5" d="M1272.7,614L1272.7,614c-4.6-1.3-13.4-8-18.6-11.9c-5.5-4.2-6.1-4.6-7.5-4.1c-2.9,1,0.1,2.3,3.7,51.1
				c-13.8-5.3-34.4,9.7-27.4,21.5c7.4,12.5,32.3,3,31.9-12.5h0c0-1.5-1.6-26.2-2.7-43.2c7.7,7.2,21.7,11.1,25.8,2.9l1.4-2.8
				C1275.7,614.7,1277.2,615.3,1272.7,614z"/>
			<path class="st5" d="M1197.3,614.3c-0.1-2.1-1.6-24.5-3.4-52.1c-29,3.1-28,3.4-54.7-0.9c0.9,14.2,1.9,28.4,2.7,39.9
				c-14-5.4-31.5,11.1-24.6,22.8c7.5,12.6,30.9-0.6,30.6-16.1c0,0-1.6-12.3-2.9-32l45.1,0.4c0.4,6.1,0.9,18,1.8,29.7
				c-14-5.3-33.5,9.1-26.5,20.8c3.8,6.5,13.8,7.7,22.1,2.7C1193.6,626,1197.5,620,1197.3,614.3L1197.3,614.3z"/>
		</g>
	</g>
	<path class="st19" d="M1782.2,483.5L1782.2,483.5c-4.6,1.4-15.6,0.8-22.1,0.3c-6.9-0.4-7.7-0.5-8.5,0.8c-1.9,2.4-1.7,2.4,28.2,41
		c-14.4,3.2-20.3,26.6-7.9,32.6c13.1,6.4,28.6-15.3,19.7-28.1l0,0c-0.8-1.2-13.8-18-24.2-31.6c10.4,1.8,22.3-5.7,21.1-14.8l-0.4-3.1
		C1785.1,482.4,1786.7,482.1,1782.2,483.5z"/>
	<path class="st11" d="M1195.4,394.8c0.2-2,1.8-24.5,3.7-52.1c-29.1-0.9-28.2-0.5-54.1-8.3c-1,14.2-2,28.4-2.7,39.9
		c-13.2-7.2-32.7,6.7-27.4,19.3c5.7,13.5,31.6,7.3,33.3-8.1l0,0c0.2-1.4,0.9-13.9,2.3-33.6l40.7,6c-0.4,6.1-0.9,14-1.7,25.7
		c-13.1-7.2-32.7,6.7-27.4,19.3c2.9,6.9,12.6,9.5,21.6,5.7C1190.2,405.9,1194.8,400.5,1195.4,394.8L1195.4,394.8z"/>
	<polygon class="st20" points="671.9,556.6 687,568.8 704.7,560.1 720.6,575 736.6,559.9 755.3,576 771.8,563.9 792.3,576.4 
		787.6,584.2 772.3,574.8 754.9,587.5 736.9,572.1 720.6,587.4 703,571 685.7,579.5 671.8,568.2 661.6,576.1 656,568.9 	"/>
	<g>
		<path class="st6" d="M1829.7,877.6c0.3,1.5,0.8,2.8,1.5,4.2c2.4-2.3,6-4.1,11.3-4c0.6-1.9,1.2-3.8,1.8-5.8
			C1840,871.8,1833.6,872.5,1829.7,877.6z"/>
		<path class="st6" d="M1841.3,903.8c2.7-7.8,5.4-16,8.1-24.1c-0.3-0.2-0.6-0.3-0.5-0.3c-2.1-1-2.4-1-2.4-1
			c-1.6-0.5-2.9-0.5-2.8-0.5c-0.4,0-0.8,0-1.1,0c-2.8,8.9-5.6,17.7-8.2,25.8C1836.6,904.1,1839,904.1,1841.3,903.8z"/>
		<path class="st6" d="M1821.8,937.6c0-0.1-3.9,6.6-9.2,6c0,0-6.2-0.6-2.8-6.8c0,0,0.2-0.5,0.2-0.5c0.4-1.1-0.2-2.3-1.3-2.8
			c-1.2-0.5-2.3,0.2-3,1.2c-0.4,0.6-0.9,1.6-1.1,3.3c-0.8,10,11.2,13.3,18.3,7.1c4.4-3.8,9.9-17,15.7-33.4c-2.2-0.1-4.4-0.4-6.5-0.9
			C1827.7,924.1,1824.1,934.4,1821.8,937.6z"/>
		<path class="st6" d="M1834.3,903.6c-0.8,2.5-1.6,4.9-2.3,7.2c2.1,0.5,4.3,0.8,6.5,0.9c0.9-2.6,1.8-5.2,2.8-7.9
			C1839,904.1,1836.6,904.1,1834.3,903.6z"/>
		<path class="st6" d="M1844.3,872c2.6,0.1,4.5,0.6,4.5,0.6c0.9,0.2,1.8,0.5,2.6,0.9c2.3-7,4.7-13.9,6.9-20.3c-3.2,1-6.1,2-8.8,3
			C1847.8,861.4,1846,866.7,1844.3,872z"/>
		<path class="st6" d="M1853.2,845.6c-1.2,3.4-2.5,7-3.7,10.6c2.7-1,5.6-2.1,8.8-3c1.3-3.6,2.6-7.1,3.8-10.4
			C1859.2,843.9,1856.2,844.8,1853.2,845.6z"/>
		<path class="st6" d="M1819.3,886.6c-0.4-3.4-0.3-18.6,30.2-30.4c1.2-3.6,2.5-7.2,3.7-10.6c-3.5,1-7.1,2.1-10.6,3.2
			c-8.5,2.8-17.2,6.2-23.7,12.1c-8.5,7.8-10.6,19.3-8.1,30c1.3,5.6,4.3,10.9,9.1,14.5c3.5,2.6,7.7,4.4,12.1,5.3
			c0.8-2.3,1.5-4.7,2.3-7.2C1827.1,902.2,1820.6,896.9,1819.3,886.6z"/>
		<path class="st6" d="M1888.7,824.5c-0.9-8-9.2-20.5-19.3-12.1c-4.6,3.8-10.3,16.9-16.1,33.2c3-0.9,6-1.8,9-2.8
			c6.4-16.6,12-27.2,15.8-22.9c2.3,2.6,3.3,7,1.4,11.5c-2,4.7-7.2,7.5-11.8,9.4c-1.8,0.7-3.6,1.4-5.4,2c-1.2,3.2-2.5,6.7-3.8,10.4
			c1.4-0.4,2.8-0.8,4.3-1.2c9.3-2.6,18.7-8.4,22.4-13.7C1885,838.3,1889.6,832.2,1888.7,824.5z"/>
		<path class="st6" d="M1851.2,881c-0.3-0.3,2.3,1.8,3.5,4.4c-0.5-1.1,3.6,4.9-1.6,11.9c-2.6,3.6-7.1,5.9-11.9,6.5
			c-0.9,2.7-1.9,5.3-2.8,7.9c0.3,0,0.7,0,1,0c25.7,0.8,31.2-30.4,11.9-38.3c-0.7,2-1.4,4.1-2.1,6.2
			C1849.9,880,1850.8,880.5,1851.2,881z"/>
		<path class="st6" d="M1844.3,872c-0.6,1.9-1.2,3.8-1.8,5.8c0.4,0,0.7,0,1.1,0c0,0,1.3,0.1,2.8,0.5c0,0,0.3,0,2.4,1
			c0,0,0.2,0.1,0.5,0.3c0.7-2.1,1.4-4.1,2.1-6.2c-0.8-0.3-1.7-0.6-2.6-0.9C1848.8,872.6,1846.9,872.2,1844.3,872z"/>
		<path class="st6" d="M1839.3,884.3c-1,4.5-4.3,7.5-7.5,6.8c-3.2-0.7-4.9-4.9-4-9.3c1-4.5,4.3-7.5,7.5-6.8
			C1838.5,875.7,1840.3,879.9,1839.3,884.3z"/>
		<path class="st6" d="M1816.2,939c-1,4.5-4.3,7.5-7.5,6.8c-3.2-0.7-4.9-4.9-4-9.3c1-4.5,4.3-7.5,7.5-6.8
			C1815.4,930.4,1817.2,934.5,1816.2,939z"/>
	</g>
	<g>
		<path class="st3" d="M586.6,1503.1v-114.4c0-115.5,93.6-209.2,209.2-209.2h114.4c115.5,0,209.2,93.6,209.2,209.2v114.4
			c0,115.5-93.6,209.2-209.2,209.2H795.8C680.3,1712.3,586.6,1618.6,586.6,1503.1z"/>
		<path class="st2" d="M715.1,1089.7c0.6-20.7-7-224.1,44.4-384.9c35-109.8,74-157.3,120.8-195.7c2.1-1.7,4.2-3.4,6.4-5
			c2.2-1.6,4.3-3.3,6.5-4.8c0.7-0.5-2.4,1.7,6.6-4.6c152.4-105.8,461.3-110.6,590.9,49.1c47.4,57.5,78.7,150.2,92.5,224
			c23.9,128.3,17.2,268.7,13.8,406.9h-62.5c-11.2-171.8,7.2-387.6-72.2-545.8l-3-5.8c-3.5-4.1-45.8-107.1-182.4-156.5
			c-172.3-58.2-349.3,26.3-408.6,182.8c-54.1,138.7-48.9,301.4-49,440.3H715.1z"/>
		<rect x="668.6" y="984.5" class="st2" width="190.1" height="274.1"/>
		<path class="st3" d="M858.7,1141.9c-13.7-2.7-27.8-4.1-42.3-4.1h-98.3c-17,0-33.6,2-49.5,5.7v115.2h190.1V1141.9z"/>
		<path class="st19" d="M848,514.9c4.4,8.3,13.6,12.1,20.7,8.5c7.2-3.7,9.5-13.5,5.2-22.1c-4.3-8.6-13.7-12.5-20.9-8.9
			c-1.9,1-3.4,2.3-4.6,4l-11.4-24.6l41.9-7.3l19.5,42h0c0,0,0,0.1,0.1,0.1c4.3,8.5,13.7,12.5,20.9,8.9c7.2-3.7,9.5-13.5,5.2-22.1
			c-4.3-8.5-13.7-12.5-20.9-8.9c-1.9,1-3.4,2.3-4.6,4l-20.9-45c-0.7-1.5-2.1-2.3-3.5-2l-52.2,10.6c-1.7,0.4-2.5,2.4-1.7,4.3
			L848,514.9L848,514.9z"/>
		<path class="st2" d="M530.2,1511.6v-131.3c0-110.8,89.9-200.7,200.7-200.7H820c110.9,0,200.7,89.9,200.7,200.7v131.3
			c0,110.9-89.9,200.7-200.7,200.7h-89.1C620.1,1712.3,530.2,1622.4,530.2,1511.6z"/>
		<path class="st3" d="M606.9,1452.4v-58.1c0-58.7,47.6-106.3,106.3-106.3h58.1c58.7,0,106.3,47.6,106.3,106.3v58.1
			c0,58.7-47.6,106.3-106.3,106.3h-58.1C654.5,1558.6,606.9,1511.1,606.9,1452.4z"/>
		<path class="st2" d="M556.8,1452.4v-58.1c0-58.7,47.6-106.3,106.3-106.3h58.1c58.7,0,106.3,47.6,106.3,106.3v58.1
			c0,58.7-47.6,106.3-106.3,106.3H663C604.4,1558.6,556.8,1511.1,556.8,1452.4z"/>
	</g>
	<g>
		<path class="st17" d="M2126.4,932.6c3.1,8.3,8.5,21.4,8.5,21.4c0.1,3.8,0.9,19.4,1.8,38.5l26.6-14.5c0,0-4-30.9-3-33
			c0.9-1.7,2.9,0.1,10-13.2c2.1-3.8,1.8-10.2,1.8-10.2s-0.4-7.8-2.2-8.4c-1.8-0.5-3.7,0.9-4.2,2.3c-0.5,1.4,0.1,4.5-0.4,5.9
			c-0.5,1.4-4.3,3.5-6,3.6c-1.7,0.1-2.5-23-2.5-23s0.2-6.6,0.4-8.8c0.2-1.9,1.2-7.4,1.2-7.4s1-7.9-1.4-8.2c-1.5-0.2-4.3,6.5-6,13.5
			c-1.8,7.5-2.4,15.3-3.2,15.2c-1.8,0-2.4-12.7-2.4-12.7s1.1-6,0.7-8.7c1.3-3.5,1.7-9.8-1.4-10c-0.6,0-3.5,8.3-3.5,8.3
			s-0.9,5.7-1.5,8.4c-1,4.7-0.4,12-0.9,15.2c-0.4,2.7-1.1,1.7-1.4,1.9c-0.2,0.1-0.3-3.6-0.4-8.6c-0.1-2.5-0.7-5.4-0.3-8.4
			c0.3-2.7,0.3-6.6,0.2-8.9c-0.3-6.6-4.3-5.4-5,0.7c-0.3,2.3-0.5,4.9-0.8,7.4c-1,10,0.1,19.4-0.9,19.6c-1.4,0.3-2.5-16.9-2.5-16.9
			s-3.2-9.2-4.3-0.2c-1.2,10.5,0,18.7,0.1,19.1C2124,915.2,2123.3,924.3,2126.4,932.6z"/>
		<path class="st21" d="M2295.3,1027.5c0,0-13.2-13.9-23.7,3c0,0-8.2-4.6-13.9,3.6c0,0-14.7-4.4-18.3,17.6c0,0-7.6-1.4-8.6,7.6
			c-1,9,3.6,15,3.6,15s-4.3,3.2-2.3,11.5c1.6,7,7.5,8.1,7.5,8.1s1.6,11.9,6.7,15.4c5.1,3.6,12.2,1.9,12.2,1.9s1.9,6.4,7.9,5.9
			c6-0.6,13.4-6.3,20.2-3.7c6.7,2.6,24.2-0.1,24.2-0.1s19.6-8.7,13.7-28.7c0,0,10.3-9.3,1.3-20.4c0,0,6.6-17.4-6.4-27.7
			S2295.3,1027.5,2295.3,1027.5z"/>
		<path class="st12" d="M2409.2,914l1.6,26.7l-5.9,45.4l-25.5,0.2c0,0,5.7-28.7,1.8-35.5c-3.1-5.4-6.9-13.7-7.1-16.7
			C2373.1,923.9,2409.2,914,2409.2,914z"/>
		<path class="st2" d="M2376.3,928.7l10.9,20.7c3.2,6.1,10.4,5.9,13.2-0.4l4.3-12C2404.7,937,2386.4,921.4,2376.3,928.7z"/>
		<path class="st1" d="M2298.4,889.2l54.4,5.6c2.8,0.3,5.2,1.9,6.6,4.3l26.2,47.2c3.4,6.1,12.3,5.7,15.2-0.6l22.2-49.2
			c1.1-2.5,3.4-4.3,6.2-4.8l53.8-9.9c6.9-1.3,9.3-9.8,4.1-14.4l-40.7-35.9c-2.1-1.8-3.1-4.5-2.7-7.3l7-53.3
			c0.9-6.8-6.6-11.7-12.6-8.3l-47.3,27c-2.4,1.4-5.4,1.5-7.9,0.3l-49.4-23.1c-6.3-3-13.4,2.5-11.9,9.3l11.4,52.6
			c0.6,2.7-0.2,5.5-2.1,7.5l-37.6,39.1C2288.3,880.2,2291.4,888.5,2298.4,889.2z"/>
		<path class="st12" d="M2204.8,1608.6c0,0-14.3,17.8-17.9,20s1.6,28,11.3,29.7c5.5,1,8.2-6.7,8.2-6.7l-1.3-5.9l20.5-21.1
			L2204.8,1608.6z"/>
		<path class="st12" d="M2278.6,1613c0,0-11.9,19.5-15.2,22.1c-3.3,2.6,5.2,27.6,15,28c5.6,0.2,7.3-7.7,7.3-7.7l-2-5.6l17.6-23.5
			L2278.6,1613z"/>
		<path class="st21" d="M2264.1,1634.3c0,0,6.9,8.7,10.6,12.2c4.8,4.5,11,8.9,11,8.9s7,12.7,8.9,17.2c4.3,9.9,9.1,20.9,8.4,26.4
			c-0.2,1.8-4.2,3.7-7.5,2.6c-13.8-4.3-49.2-36.6-53.7-45.3C2236.6,1646.3,2264.1,1634.3,2264.1,1634.3z"/>
		<path class="st10" d="M2365.1,1338c-1.3-3.6-2.5-6.9-3.7-10.1c-14.7,3.2-31.4,6.7-48.5,10.4l-2.1,62.7c0-4.8,12.9,100,12.9,100
			s-30.2,72.9-53,115.8c9.3,11.6,11.8,13.3,25.3,21.2c35.3-42.3,80.4-116.9,82.3-129.8C2379.5,1500.9,2380.5,1381.2,2365.1,1338z"/>
		<path class="st19" d="M2233.7,1356.1c4.5,48.9,14.5,142.3,13.7,149.8c-2.5,9.4-45.2,95.8-53.2,108.4c6.4,9.6,15.7,18.6,26.3,21.5
			c2.1,0.6,74.2-102.6,78.2-110.9c4.5-9.4,12.1-60.5,12.2-123.8l2.1-62.7C2284.5,1344.4,2258.2,1350.4,2233.7,1356.1z"/>
		<path class="st2" d="M2327.3,1133.4l-33.6,4.6c0,0-26.9,0.7-30.2,0.7c-3.3,0-24.4,122.4-30.5,168.5c-6.1,46.1-1.4,54.2-1.4,54.2
			s42.5,9.6,74,6.8c32.7-2.9,69.6-20.6,69.6-20.6s-26.4-86.5-31.9-114.1C2337.8,1205.8,2327.3,1133.4,2327.3,1133.4z"/>
		<path class="st5" d="M2408.7,985.1c0,0,2.2,91.3-1.3,98.2c-5,10.2-61.3,82.2-61.3,82.2s26.9,112.6,38.2,151.5
			c1.1,3.9,6.2,29.2,6.2,31.7c0,5.5-23.8,12.4-26.6,12c-2.5-0.4-23.3-107.5-36.6-159.9c-4.5-17.8-12.2-34.6-22.7-49.5l-9.2-13.1
			l70.8-70.9c0,0,8.7-79,8.7-85.5C2374.8,980,2405.2,978.7,2408.7,985.1z"/>
		<path class="st5" d="M2264.8,1138.5l-88.3-89.9c0,0-12.3-85-13.2-88.2c-0.9-3.1-22.8-4.8-31.6-5.7c-2.8-0.3,1.5,90.6,5.7,105.8
			c5,18,71.7,100,71.7,100s12,44.4,9.1,77c-4.8,54.1-17.7,128.5-15.4,130.8c14.3,9,69.4,10,72.9,4.4
			C2314.2,1310.6,2264.8,1138.5,2264.8,1138.5z"/>
		<path class="st12" d="M2293.1,1121.7l2.4,17.7c0,0,5.3,25.5-1.5,30.4s-29.2-31.1-29.2-31.1l2.4-44.8L2293.1,1121.7z"/>
		<path class="st2" d="M2266.4,1108.4c5.7,15.3,19.2,24.7,28.8,28.3l-2-15l-26-27.8L2266.4,1108.4z"/>
		<path class="st21" d="M2230.6,1063.4c0,6.8,3.9,12.3,8.7,12.3c4.8,0,8.7-5.5,8.7-12.3s-3.9-12.3-8.7-12.3
			C2234.5,1051.1,2230.6,1056.6,2230.6,1063.4z"/>
		<path class="st21" d="M2256.6,1036.9c0,3.9,4.7,7.1,10.5,7.1c5.8,0,10.5-3.2,10.5-7.1c0-3.9-4.7-7.1-10.5-7.1
			C2261.3,1029.8,2256.6,1033,2256.6,1036.9z"/>
		<path class="st12" d="M2283,1046.8c13.9-4.8,28.8,4.5,30.9,18.8c0.9,6.2,1.8,14.1,1.9,22.7c0.4,20.6-10.3,40.7-19.7,40.7
			c-9.4,0-35.3-13.4-36.2-42.7C2259.4,1068.3,2268.4,1051.9,2283,1046.8z"/>
		<path class="st12" d="M2266.8,1088.7c0,4.6-3,8.2-6.7,8.2c-3.7,0-6.7-3.7-6.7-8.2c0-4.6,3-8.2,6.7-8.2
			C2263.8,1080.5,2266.8,1084.1,2266.8,1088.7z"/>
		<path class="st21" d="M2323.6,1036.6c9.7,7.7,13.1,19.3,7.6,26c-5.5,6.7-17.8,5.9-27.5-1.7s-13.1-19.3-7.6-26
			S2313.9,1028.9,2323.6,1036.6z"/>
		<path class="st21" d="M2298.3,1042.9c0,3.3-4,6-9,6c-5,0-9-2.7-9-6s4-6,9-6C2294.3,1036.8,2298.3,1039.5,2298.3,1042.9z"/>
		<path class="st21" d="M2325,1068.5c0,4.3-3.4,7.8-7.7,7.8c-4.2,0-7.7-3.5-7.7-7.8s3.4-7.8,7.7-7.8
			C2321.6,1060.7,2325,1064.2,2325,1068.5z"/>
		<path class="st12" d="M2381.1,940.5l4.8-7.6c0,0,8.3-7.3,6.1-10.2c-3.6-4.8-16.2,6.9-16.2,6.9S2374.4,940.2,2381.1,940.5z"/>
		<path class="st12" d="M2410.8,940.7c0,0,2.2-18.1,1.8-18.6c-2.4-3-10-8-12.8-6.9c-2.8,1.1,3.6,10.7,3.6,10.7s-4,0.8-4.8,4.4
			C2397.9,933.9,2410.8,940.7,2410.8,940.7z"/>
		<path class="st21" d="M2187.7,1627.9c0,0,5.7,9.6,9,13.5c4.2,5.1,9.8,10.2,9.8,10.2s5.3,13.5,6.7,18.2c3,10.3,6.3,22.8,4.9,28.2
			c-0.4,1.7-4.3,5-7.4,3c-12.1-7.9-44.6-44.9-47.9-54.1C2158.9,1636.3,2187.7,1627.9,2187.7,1627.9z"/>
	</g>
</g>
</svg>
