<?xml version="1.0" encoding="UTF-8" standalone="no"?><!DOCTYPE svg PUBLIC "-//W3C//DTD SVG 1.1//EN" "http://www.w3.org/Graphics/SVG/1.1/DTD/svg11.dtd"><svg width="100%" height="100%" viewBox="0 0 3334 2500" version="1.1" xmlns="http://www.w3.org/2000/svg" xmlns:xlink="http://www.w3.org/1999/xlink" xml:space="preserve" xmlns:serif="http://www.serif.com/" style="fill-rule:evenodd;clip-rule:evenodd;stroke-linejoin:round;stroke-miterlimit:2;"><path d="M3028.17,810.338c-0.95,-360.134 -291.9,-652.03 -651.084,-652.98c-361.083,-0.95 -658.666,294.742 -657.72,653.925c0.95,357.292 296.637,653.93 652.979,654.875c361.083,0.95 656.771,-295.687 655.825,-655.82m-1352.4,-1.896c1.896,-387.617 313.696,-698.471 699.416,-697.521c388.567,0.946 700.367,315.587 699.421,705.1c-1.896,385.725 -316.537,696.575 -703.208,694.683c-388.567,-3.792 -697.525,-315.592 -695.629,-702.262" style="fill:#1f3b71;fill-rule:nonzero;"/><path d="M2372.35,228.438c-321.275,0.945 -582.846,265.362 -580.95,585.691c1.896,317.483 265.358,579.054 582.846,580.004c320.329,0 583.796,-264.416 581.9,-584.741c-0.946,-323.175 -260.621,-581.905 -583.796,-580.955m-631.183,581.901c0.95,-349.709 282.425,-632.13 631.183,-634.971c348.762,-1.9 636.867,285.262 636.867,634.971c-0,348.762 -284.317,633.079 -633.075,633.079c-352.55,0.945 -635.921,-281.475 -634.975,-633.08" style="fill:#1f3b71;fill-rule:nonzero;"/><path d="M2374.24,300.463c-280.525,-0 -510.821,230.295 -510.821,510.82c-0,279.58 232.191,510.821 512.717,510.821c278.629,0 507.979,-229.346 509.874,-507.029c0.946,-285.263 -227.454,-514.613 -511.77,-514.613m-0.946,1071.88c-311.8,-0.95 -560.104,-250.2 -560.104,-564.846c-0,-308.004 253.041,-560.1 561.05,-560.1c310.85,-0 564.841,253.987 563.891,563.891c0,310.855 -253.041,561.055 -564.837,561.055" style="fill:#1f3b71;fill-rule:nonzero;"/><path d="M2376.14,1250.08c240.72,-0.946 438.795,-199.971 437.845,-439.741c-0.945,-241.671 -197.125,-438.796 -438.796,-439.742c-241.666,-0 -441.633,199.971 -439.741,442.583c0.95,240.721 200.916,437.846 440.691,436.9m0.95,50.229c-273.891,0.95 -490.92,-215.133 -491.866,-488.075c-0.95,-271.995 217.975,-492.816 488.075,-493.762c270.1,-0.946 492.812,219.871 493.758,489.971c0.95,271.05 -218.921,490.916 -489.967,491.866" style="fill:#1f3b71;fill-rule:nonzero;"/><path d="M2374.24,1128.77c177.225,-0 320.329,-143.104 320.329,-318.434c-0.946,-175.329 -145.95,-319.383 -321.275,-318.433c-173.434,0 -316.542,143.104 -316.542,316.538c-0.946,178.17 140.263,320.329 317.488,320.329m-1.896,99.508c-232.192,-0.946 -416.046,-186.7 -416.046,-419.837c0.946,-231.246 187.646,-417.946 418.888,-417.946c230.295,-0 418.895,188.6 419.841,418.896c0,233.137 -187.646,419.837 -422.683,418.887" style="fill:#1f3b71;fill-rule:nonzero;"/><path d="M2427.31,810.338c-0.001,-29.38 -23.692,-52.125 -53.071,-51.18c-28.43,0 -53.071,24.642 -52.125,53.075c-0,27.484 26.537,53.071 54.021,53.071c26.537,-1.896 51.175,-27.483 51.175,-54.966m-50.226,282.42c-158.27,0.946 -283.37,-123.204 -284.316,-280.525c-0.95,-157.32 124.15,-285.266 280.525,-285.266c155.425,-0.946 284.316,126.05 286.208,281.475c0,156.375 -126.046,283.366 -282.416,284.316" style="fill:#1f3b71;fill-rule:nonzero;"/><path id="path830" d="M895.183,2383.08c-8.312,-4.508 -11.458,-9.433 -11.458,-17.937c0,-22.575 29.733,-36.063 52.992,-24.038l12.479,6.454l7.491,-25.837c4.121,-14.213 13.763,-44.304 21.43,-66.871c7.666,-22.563 13.941,-41.642 13.941,-42.396c0,-2.537 -78.545,-56.158 -82.258,-56.158c-2.021,-0 -12.796,28.25 -23.942,62.775c-21.962,68.012 -29.387,78.892 -53.85,78.892c-36.562,-0 -43.579,-38.488 -9.091,-49.871c11.316,-3.734 17.275,-3.446 28.862,1.396l14.604,6.104l19.859,-62.296c13.958,-43.784 21.462,-61.683 25.245,-60.233c4.142,1.591 86.001,57.375 92.301,62.904c0.72,0.633 -11.467,41.012 -27.084,89.733c-25.704,80.179 -29.583,89.304 -40.896,96.237c-14.975,9.18 -25.283,9.467 -40.625,1.142Zm396.396,-21.996c-5.467,-4.237 -12.283,-6.896 -15.146,-5.9c-2.866,0.996 -5.208,-1.162 -5.208,-4.791c0,-3.625 1.725,-6.596 3.833,-6.596c2.113,-0 5.054,-5.546 6.546,-12.325c3.646,-16.604 28.159,-37.675 43.825,-37.675l12.25,-0l-17.812,-50.296c-17.409,-49.154 -18.2,-50.467 -34.942,-57.962c-9.421,-4.221 -24.638,-15.18 -33.817,-24.355c-9.175,-9.179 -25.216,-20.462 -35.646,-25.075c-10.433,-4.612 -27.933,-16.541 -38.891,-26.508c-10.963,-9.963 -26.979,-21.325 -35.596,-25.246c-8.617,-3.921 -24.125,-14.929 -34.467,-24.458c-10.341,-9.534 -27.858,-21.525 -38.925,-26.654c-11.071,-5.13 -26.775,-15.975 -34.904,-24.1c-8.125,-8.125 -24.808,-19.8 -37.071,-25.938c-30.933,-15.483 -58.775,-46.446 -79.662,-88.6c-17.45,-35.221 -17.638,-36.062 -17.442,-79.662c0.159,-34.975 2.038,-48.646 9.109,-66.284c12.604,-31.446 38.583,-73.575 63.375,-102.779c17.3,-20.375 60.429,-97.146 56.766,-101.046c-0.537,-0.575 -9.396,0.529 -19.683,2.45c-25.721,4.804 -36.846,0.063 -36.846,-15.704c0,-16.908 13.192,-24.35 27.058,-15.267c5.409,3.546 10.442,10.255 11.18,14.913c1.345,8.458 1.358,8.458 19.225,-0.421c9.837,-4.887 18.808,-7.958 19.937,-6.829c1.133,1.129 -4.542,16.529 -12.604,34.221l-14.658,32.166l33.745,-31.745c18.563,-17.459 68.359,-60.046 110.663,-94.638c53.858,-44.042 75.596,-64.208 72.525,-67.279c-2.413,-2.413 -20.113,-5.213 -39.329,-6.221c-42.784,-2.246 -89.121,6.446 -144.409,27.092c-65.346,24.4 -195.833,92.554 -195.833,102.283c-0,2.475 -1.233,3.263 -2.742,1.754c-5.554,-5.554 -13.925,6.963 -13.925,20.821c0,41.796 -44.621,73.188 -81.891,57.617c-18.055,-7.542 -12.221,-10.679 -80.609,43.321c-50.962,40.245 -96.337,83.741 -92.996,89.15c1.492,2.416 0.555,2.958 -2.195,1.258c-7.171,-4.433 -5.955,0.604 6.125,25.292c11.67,23.85 16.779,52.525 12.437,69.821c-10.887,43.379 -80.325,65.475 -123.408,39.275l-14.35,-8.726l-15.888,18.221c-33.1,37.967 -107.912,137.313 -148.437,197.13c-23.167,34.191 -42.121,59.649 -42.121,56.574c-0,-12.2 100.858,-153.47 172.192,-241.183c25.883,-31.825 30.995,-40.425 27.691,-46.6c-8.379,-15.654 -4.741,-37.233 8.509,-50.483c11.154,-11.159 14.858,-12.4 33.158,-11.138c19.808,1.367 21.404,0.634 41.458,-19.108l20.863,-20.533l-9.092,-16.175c-7.162,-12.742 -10.892,-15.659 -17.562,-13.73c-38.842,11.242 -58.9,15.013 -73.984,13.913c-15.416,-1.121 -19.433,0.546 -32.296,13.404c-30.954,30.946 -83.108,90.579 -126.145,144.246c-24.638,30.717 -44.792,53.8 -44.792,51.296c-0,-8.663 73.983,-99.575 144.708,-177.817l30.125,-33.329l-27.146,-13.779c-14.929,-7.579 -33.429,-20.738 -41.116,-29.242l-13.971,-15.467l-45.05,45.192c-24.775,24.854 -45.988,44.25 -47.133,43.104c-1.146,-1.146 18.195,-22.425 42.983,-47.287l45.062,-45.204l-11.425,-28.559c-9.987,-24.966 -11.137,-32.366 -9.137,-58.825c1.258,-16.646 1.596,-30.262 0.746,-30.262c-1.346,-0 -40.292,31.25 -61.354,49.233c-4.013,3.425 -7.292,4.258 -7.292,1.854c-0,-2.404 16.083,-17.225 35.742,-32.937c35.008,-27.979 36.291,-29.654 62.454,-81.538l26.708,-52.966l-8.696,-14.742c-4.783,-8.104 -9.991,-14.738 -11.571,-14.738c-2.695,0 -67.937,39.109 -93.179,55.855c-6.304,4.183 -11.458,5.6 -11.458,3.154c-0,-2.45 22.967,-18.038 51.042,-34.646c28.07,-16.604 51.579,-30.513 52.233,-30.9c0.658,-0.392 -3.404,-14.55 -9.029,-31.463c-13.617,-40.933 -17.021,-72.166 -11.021,-101.07c5.021,-24.171 21,-48.43 31.908,-48.43c10.642,0 45.825,36.784 59.225,61.925c7.129,13.375 15.029,33.975 17.563,45.78c2.533,11.804 5.354,21.462 6.271,21.462c0.92,0 15.758,-6.971 32.979,-15.492c26.741,-13.233 30.933,-16.733 28.721,-23.962c-3.679,-12.013 -4.546,-12.421 -15.605,-7.383c-8.629,3.933 -10.504,3.22 -14.475,-5.492c-3.924,-8.613 -3.266,-10.683 4.688,-14.825c5.088,-2.646 9.742,-5.204 10.342,-5.683c0.6,-0.484 -2.875,-9.842 -7.721,-20.8c-7.021,-15.871 -7.708,-20.609 -3.375,-23.284c7.787,-4.816 10.537,-1.996 18.575,19.046c6.554,17.163 14.979,23.629 20.067,15.4c1.125,-1.821 -1.58,-11.4 -6.005,-21.292c-9.654,-21.558 -9.625,-21.233 -1.883,-21.233c3.388,0 10.079,7.671 14.863,17.046c7.308,14.325 10.237,16.662 18.358,14.625c12.767,-3.204 17.421,11.258 6.162,19.158c-6.579,4.621 -6.958,6.796 -2.562,14.734l5.158,9.312l25.471,-12.046c38.167,-18.05 177.542,-72.883 219.092,-86.2c27.366,-8.766 36.458,-13.487 36.458,-18.925c0,-3.979 4.279,-12.216 9.513,-18.3c12.795,-14.875 42.404,-18.566 65.475,-8.158c15.795,7.121 17.466,7.079 50.879,-1.292c51.233,-12.829 116.391,-21.621 160.283,-21.621c21.367,0 38.85,-1.62 38.85,-3.6c0,-8.05 22.05,-24.866 36.046,-27.491c11.462,-2.15 19.779,-0.421 35.604,7.412c13.613,6.734 21.213,8.604 22.304,5.492c6.663,-19 22.354,-96.538 19.734,-97.5c-1.8,-0.663 -41.675,-17.908 -88.609,-38.325c-46.937,-20.417 -86.012,-36.446 -86.833,-35.625c-0.821,0.825 -8.663,32.992 -17.429,71.487c-19.229,84.48 -22.367,88.471 -66.65,84.9c-23.9,-1.929 -45.834,-24.55 -45.834,-47.27c0,-33.742 52.725,-46.28 81.388,-19.35l9.375,8.808l12.512,-53.429c6.884,-29.384 16.696,-71.709 21.8,-94.05c5.109,-22.346 11.35,-40.625 13.871,-40.625c3.429,-0 195.204,81.396 201.85,85.671c0.667,0.429 -9.179,46.254 -21.875,101.833c-12.7,55.579 -23.087,103.162 -23.087,105.737c-0,2.58 8.904,9.363 19.791,15.075c23.13,12.142 55.496,42.93 65.538,62.35c8.829,17.075 9.012,44.034 0.433,64.563c-3.629,8.683 -6.662,23.529 -6.746,32.987c-0.079,9.459 -2.825,21.888 -6.1,27.617c-3.275,5.729 -6.104,18.854 -6.287,29.167c-0.179,10.312 -3.029,26.25 -6.333,35.416c-3.305,9.167 -6.034,23.242 -6.067,31.28c-0.033,8.033 -2.025,21.158 -4.425,29.166c-2.396,8.004 -5.229,25.209 -6.296,38.229c-3.217,39.267 -16.912,74.959 -64.292,167.521c-74.812,146.154 -92.441,198.188 -92.77,273.834c-0.096,22.016 1.012,41.95 2.466,44.3c4.938,7.991 112.029,-16.371 207.479,-47.205l44.309,-14.312l-2.171,-27.033c-1.8,-22.417 -1.083,-27.03 4.2,-27.03c3.5,0 7.529,4.217 8.946,9.375c1.421,5.155 6.946,14.65 12.275,21.096l9.696,11.721l68.387,-25.162c69.321,-25.5 115.25,-43.655 118.008,-46.638c0.834,-0.904 -1.983,-23.204 -6.258,-49.558c-11.758,-72.471 -17.45,-63.963 51.425,-76.9c32.654,-6.134 63.321,-12.1 68.138,-13.259c8.191,-1.966 9.245,0.88 16.104,43.492l7.333,45.596l14.108,-4.333c8.95,-2.746 17.13,-9.446 22.371,-18.325c8.088,-13.713 8.796,-13.984 34.371,-13.125c23.367,0.779 37.863,-3.221 137.742,-38.021l111.625,-38.892l-2.867,-35.333l-2.867,-35.329l30.825,2.516c16.955,1.384 58.517,3.734 92.359,5.221c42.879,1.888 62.462,4.308 64.583,7.988c2.413,4.175 13.079,3.341 50.967,-3.971c47.65,-9.196 47.925,-9.317 49.158,-21.592c1.1,-10.946 -0.017,-12.321 -9.887,-12.162c-12.534,0.204 -21.088,-9.821 -17.15,-20.088c3.162,-8.242 20.87,-9.008 27.362,-1.187c2.571,3.095 5.879,14.437 7.354,25.2c2.521,18.391 3.338,19.441 13.546,17.412c19.842,-3.95 76.988,-10.292 118.158,-13.112l40.625,-2.788l0,-38.067l12.5,11.975c6.875,6.588 12.5,15.063 12.5,18.838c0,5.754 8.242,7.587 51.042,11.346c28.071,2.462 51.342,4.179 51.713,3.816c0.366,-0.366 2.012,-7.854 3.654,-16.641c2.816,-15.075 2.429,-15.9 -6.817,-14.584c-6.954,0.988 -10.258,-0.904 -11.367,-6.495c-1.275,-6.421 0.217,-7.421 8.013,-5.384c5.267,1.379 12.021,0.479 15.004,-1.996c6.546,-5.433 7.192,6.796 1.629,30.759c-4.071,17.516 -5.762,16.354 35.046,24.091c13.75,2.609 28.733,5.821 33.3,7.138c7.275,2.1 7.604,1.558 2.658,-4.4c-7.25,-8.733 -3.17,-19.404 7.413,-19.404c10.208,-0 14.758,6.95 13.692,20.916c-0.68,8.938 1.804,11.671 14.808,16.288c27.037,9.596 69.117,29.446 66.971,31.592c-1.134,1.133 -20.021,-5.446 -41.971,-14.617c-21.954,-9.175 -41.538,-16.679 -43.521,-16.679c-5.212,-0 -14.625,26.796 -9.958,28.354c11.866,3.954 74.187,35.712 84.516,43.067c19.384,13.8 10.359,13.7 -11.858,-0.125l-20.217,-12.584l-7.716,15.034c-7.175,13.97 -7.225,15.308 -0.729,18.945c14.179,7.938 49.504,38.759 51.35,44.813c1.05,3.437 -4.421,0.342 -12.163,-6.875c-24.996,-23.317 -45.842,-35.383 -52.121,-30.171c-8.483,7.042 -19.296,1.213 -16.146,-8.704c2.209,-6.967 -1.2,-9.983 -21.337,-18.892c-13.183,-5.829 -36.942,-14.537 -52.804,-19.354c-24.079,-7.317 -29.434,-7.812 -32.479,-3.008c-8.763,13.837 -3.963,19.554 23.995,28.587c32.638,10.542 62.205,25.013 86.217,42.192c22.438,16.054 77.683,70.637 77.683,76.754c0,2.604 -17.345,-12.292 -38.541,-33.104c-41.35,-40.596 -84.342,-67.075 -132.684,-81.708c-24.029,-7.275 -24.625,-7.267 -25.233,0.5c-0.342,4.37 -0.812,10.033 -1.042,12.579c-0.229,2.546 11.046,8.779 25.05,13.85c67.23,24.346 120.525,71.229 159.359,140.192c7.2,12.787 13.091,25.883 13.091,29.1c0,3.216 -7.17,-6.425 -15.933,-21.421c-43.254,-74.017 -89.65,-115.8 -156.25,-140.717c-29.417,-11.008 -31.983,-11.071 -31.983,-0.779c-0,16.392 -33.767,22.933 -36.779,7.129c-0.8,-4.183 1.633,-11.008 5.4,-15.171c6.55,-7.237 5.395,-7.7 -26.23,-10.496c-42.487,-3.762 -115.183,3.905 -171.558,18.092l-43.75,11.008l1.4,17.709c0.925,11.72 -0.283,17.708 -3.571,17.708c-2.733,0 -4.079,-2.342 -2.987,-5.208c3.562,-9.363 -4.634,-23.959 -13.459,-23.959c-10.266,0 -10.579,6.03 -1.862,36.013c5.917,20.362 5.946,23.708 0.267,32.375c-8.705,13.287 -21.571,15.816 -32.93,6.479c-8.816,-7.25 -8.987,-8.371 -2.958,-19.392c3.554,-6.483 11.088,-12.629 16.917,-13.791c10.137,-2.025 10.354,-2.729 6.1,-19.613l-4.417,-17.512l-58.333,22.096c-96.017,36.366 -225.425,98.683 -420.834,202.658c-50.416,26.825 -115.483,60.737 -144.591,75.354c-33.529,16.842 -54.85,30.15 -58.184,36.313c-6.962,12.874 -26.866,22.804 -40.466,20.187c-7.096,-1.362 -24.067,3.488 -48.425,13.846c-74.934,31.862 -147.309,54.312 -194.929,60.467l-19.93,2.575l10.555,12.541c7.15,8.496 10.533,17.484 10.491,27.85c-0.104,24.35 -6.762,29.484 -9.279,7.15c-1.196,-10.596 -5.396,-22.829 -9.337,-27.183c-7.155,-7.904 -43.546,-22.575 -47.125,-18.996c-1.042,1.042 6.212,25.683 16.112,54.758c12.896,37.867 20.138,53.43 25.517,54.834c8.758,2.291 10.225,13.491 1.762,13.491c-3.158,0 -8.066,5.609 -10.904,12.463c-5.975,14.417 -27.571,29.204 -42.654,29.204c-5.725,0 -14.875,-3.471 -20.342,-7.708l0,-0.009Zm153.529,-179.787c35.834,-8.504 95.063,-29.525 139.925,-49.65c26.08,-11.704 26.292,-11.933 24.546,-26.896c-1.496,-12.787 0.284,-17.008 11.634,-27.608c8.537,-7.975 17.791,-12.513 25.533,-12.513c11.129,0 11.908,-0.95 9.387,-11.458c-1.512,-6.3 -3.383,-12.2 -4.158,-13.104c-0.775,-0.909 -34.729,12.616 -75.454,30.05c-88.738,37.987 -160.671,62.4 -211.546,71.796c-20.625,3.808 -43.125,8.229 -50,9.82l-12.5,2.896l26.963,19.925l26.962,19.921l27.204,-2.517c14.963,-1.383 42.642,-6.183 61.504,-10.662Zm-149.67,-9.375c-5.988,-17.954 -6.65,-18.463 -28.38,-21.9l-18.75,-2.967l11.984,12.688c9.237,9.783 32.075,24.85 38.841,25.625c0.455,0.05 -1.208,-5.996 -3.695,-13.446Zm98.704,-42.175c68.212,-18.854 137.858,-45.329 236.325,-89.838c18.721,-8.462 19.537,-9.525 17.054,-22.291c-1.438,-7.371 -4.658,-19.259 -7.163,-26.409l-4.55,-13.008l-91.666,36.958c-50.417,20.325 -93.6,36.959 -95.963,36.963c-2.362,0.004 -6.383,5.541 -8.933,12.304c-5.221,13.829 -27.6,29.333 -42.379,29.354c-5.375,0.009 -14.846,-2.979 -21.042,-6.641c-10.458,-6.175 -14.254,-6.009 -52.729,2.345c-22.8,4.95 -56.925,10.096 -75.829,11.442c-18.909,1.342 -34.375,3.3 -34.375,4.35c-0,6.283 26.804,34.154 34.508,35.879c24.104,5.4 110.117,-1.283 146.742,-11.408Zm-172.917,-1.688c0,-8.42 -25.337,-30.095 -35.183,-30.095c-5.859,-0 -10.65,0.92 -10.65,2.041c-0,2.754 38.758,31.059 42.708,31.188c1.717,0.062 3.125,-1.354 3.125,-3.134Zm-25,-35.82c0,-0.859 -4.85,-10.234 -10.775,-20.834c-9.95,-17.804 -12.017,-19.275 -27.083,-19.275c-8.971,0 -16.309,1.063 -16.309,2.363c0,5.683 23.284,32.175 31.038,35.316c8.937,3.621 23.129,5.109 23.129,2.43Zm133.188,-9.884c29.516,-7.162 31.241,-8.229 33.841,-20.941c1.509,-7.371 5.325,-16.513 8.479,-20.321c7.317,-8.817 29.455,-18.129 43.109,-18.129c9.312,-0 10.55,-1.738 10.55,-14.83c-0,-8.983 -1.671,-13.795 -4.234,-12.212c-2.329,1.442 -2.991,4.833 -1.475,7.537c2.05,3.65 1.459,3.721 -2.287,0.271c-3.763,-3.462 -16.446,-1.066 -49.571,9.363c-49.817,15.679 -123.862,32.862 -160.142,37.158c-13.179,1.563 -23.958,3.696 -23.958,4.742c0,1.046 5.008,10.454 11.133,20.904l11.138,19l46.154,-2.5c25.388,-1.375 60.154,-5.896 77.263,-10.046l-0,0.004Zm558.479,-103.171c21.771,-11.937 67.708,-36.225 102.083,-53.975c34.375,-17.745 63.921,-33.591 65.658,-35.208c1.738,-1.612 -0.141,-10.85 -4.166,-20.521c-5.959,-14.308 -8.946,-17.191 -16.017,-15.475c-4.783,1.159 -40.408,17.367 -79.167,36.013c-113.4,54.558 -257.833,125.216 -259.687,127.041c-0.938,0.93 1.404,5.13 5.208,9.334c7.459,8.237 9.617,38.237 2.754,38.237c-2.291,0 -4.166,-5.946 -4.166,-13.212c-0,-13.409 -9.834,-28.454 -18.6,-28.454c-2.646,-0 -8.1,2.408 -12.125,5.35c-6.942,5.079 -6.959,6.8 -0.271,33.412l7.05,28.063l85.929,-44.45c47.263,-24.446 103.746,-54.217 125.517,-66.155Zm-744.559,89.171c-7.262,-12.487 -20.07,-20.391 -33.041,-20.391c-8.759,-0 -3.492,6.887 16.141,21.108c21.621,15.662 26.313,15.462 16.9,-0.717Zm27.83,-23.516c-0.034,-1.717 -2.58,-11.563 -5.65,-21.875l-5.588,-18.75l-21.433,-1.259c-13.596,-0.8 -21.434,0.417 -21.434,3.329c0,5.15 11.321,28.48 17.696,36.471c4.417,5.533 36.513,7.371 36.409,2.084Zm115.012,-15.446c23.121,-5.563 62.963,-16.875 88.542,-25.146c51.721,-16.721 50.754,-15.479 43.975,-56.454l-2.442,-14.75l-42.304,13.92c-49.221,16.2 -158.404,44.817 -187.096,49.038c-10.887,1.6 -19.792,4.229 -19.792,5.846c0,1.617 2.78,12.3 6.18,23.742l6.175,20.804l32.366,-3.446c17.8,-1.896 51.279,-7.996 74.396,-13.554Zm241.3,-13.909c61.017,-24.571 85.642,-36.7 82.208,-40.495c-1.675,-1.846 -0.737,-2.038 2.08,-0.417c2.816,1.621 9.054,0.841 13.854,-1.729c7.366,-3.942 8.316,-7.15 6.066,-20.475c-2.062,-12.209 -1.187,-16.371 3.85,-18.305c3.588,-1.379 6.525,-0.816 6.525,1.246c0,2.067 5.55,7.709 12.338,12.538l12.337,8.787l17.109,-8.729c9.408,-4.8 39.95,-18.754 67.871,-31.008c121.004,-53.113 117.533,-51.275 116.15,-61.538c-0.7,-5.212 -2.58,-15.458 -4.167,-22.762l-2.888,-13.288l-38.245,15.796c-26.534,10.963 -42.792,20.621 -53.096,31.55c-13.738,14.567 -16.167,15.571 -32.425,13.388c-15.229,-2.042 -27.338,1.7 -90.654,28.012c-40.196,16.7 -92.296,37.667 -115.784,46.596c-36.316,13.804 -42.7,17.6 -42.708,25.408c-0.008,10.721 -8.279,30.404 -12.775,30.404c-1.708,0 -2.067,-7.712 -0.804,-17.141c2.221,-16.554 1.958,-17.034 -7.688,-14.025c-31.612,9.858 -31.521,9.687 -26.141,48.933l2.595,18.934l21.363,-7.45c11.75,-4.096 40.112,-15 63.029,-24.23Zm-402.083,26.342c-0,-1.087 -3.979,-10.167 -8.846,-20.179c-8.325,-17.138 -9.913,-18.246 -27.083,-18.892c-10.03,-0.383 -18.238,0.554 -18.238,2.075c0,6.125 22.288,31.459 30.646,34.834c9.879,3.983 23.521,5.241 23.521,2.162Zm-49.55,-17.821c-8.5,-15.466 -15.55,-21.2 -29.617,-24.087l-14.583,-2.996l8.333,9.45c8.6,9.754 30.833,24.883 36.604,24.908c1.8,0.009 1.467,-3.262 -0.737,-7.275Zm594.254,-3.558c-1.383,-1.383 -4.979,-1.533 -7.988,-0.329c-3.32,1.329 -2.333,2.316 2.521,2.516c4.392,0.184 6.85,-0.804 5.467,-2.187Zm20.325,-16.575c-1.392,-3.625 -2.529,-9.204 -2.529,-12.404c-0,-6.338 -13.317,-16.013 -28.125,-20.434c-16.813,-5.016 -11.571,12.788 7.916,26.905c19.234,13.933 26.538,15.837 22.738,5.933Zm92.325,-37.438c45.225,-21.925 108.008,-52.22 139.521,-67.32c60.9,-29.188 60.512,-28.771 51.762,-55.867l-4.887,-15.138l-44.646,19.304l-44.646,19.301l2.471,15.625c1.625,10.279 0.862,15.625 -2.229,15.625c-2.588,-0 -4.729,-3.28 -4.763,-7.292c-0.175,-19.754 -4.958,-18.604 -102.3,24.546c-52.554,23.295 -96.354,43.029 -97.333,43.846c-0.979,0.816 3.237,6.725 9.375,13.129c6.454,6.741 11.154,16.375 11.154,22.875c0,6.175 0.967,11.229 2.146,11.229c1.183,-0 39.15,-17.938 84.375,-39.863Zm-679.792,22.155c-8.779,-31.963 -11.375,-68.15 -7.141,-99.592c9.558,-71.029 40.27,-135.175 119.316,-249.196c81.721,-117.883 99.454,-149.483 94.429,-168.271c-2.833,-10.596 -3.825,-9.858 -28.562,21.271c-14.096,17.733 -48.588,58.496 -76.646,90.579c-98.567,112.704 -143.421,183.063 -162.046,254.167c-7.554,28.833 -5.433,86.787 4.234,115.758c13.375,40.096 17.45,44.659 39.854,44.659c17.833,-0 18.962,-0.638 16.562,-9.375Zm39.375,6.824l14.859,-2.458l-1.817,-34.575c-3.867,-73.696 12.887,-128.566 80.854,-264.758c55.85,-111.921 69.85,-144.846 74.321,-174.825l2.796,-18.75l-12.4,21.95c-6.821,12.071 -34.634,54.258 -61.8,93.75c-82.996,120.633 -108.704,166.304 -127.2,225.967c-16.45,53.058 -10.896,156.329 8.4,156.204c3.925,-0.034 13.816,-1.15 21.987,-2.505Zm-90.046,-8.908c-16.879,-38.841 -20.262,-54.917 -20.395,-96.875c-0.109,-34.796 1.82,-49.633 9.441,-72.508c23.663,-71.025 63.813,-130.25 171.054,-252.333c19.205,-21.859 47.796,-56.33 63.542,-76.605l28.625,-36.862l-17.587,-24.696l-23.492,24.271c-12.925,13.354 -47.704,47.683 -77.288,76.296c-106.762,103.246 -160.579,166.725 -188.933,222.854c-26.125,51.712 -32.637,110.5 -17.725,159.967c10.629,35.27 37.667,78.308 50.758,80.8c21.413,4.083 25.313,3.32 22,-4.309Zm412.771,-13.466c9.129,-3.563 9.842,-5.151 5.446,-12.188c-5.067,-8.113 -35.917,-27.633 -38.925,-24.625c-0.879,0.879 -0.508,12.179 0.825,25.108c2.342,22.696 2.767,23.371 12.292,19.65c5.425,-2.121 14.591,-5.696 20.362,-7.946Zm-463.846,-3.199c-37.391,-53.009 -47.1,-120.434 -26.116,-181.421c27.083,-78.717 72.133,-136.35 212.621,-272.013c35.425,-34.204 70.833,-69.262 78.691,-77.904c13.784,-15.163 14.025,-16 6.921,-23.854c-15.429,-17.05 -19.887,-15.092 -82.096,36.041c-124.112,102.021 -170.221,144.68 -182.983,169.296c-4.496,8.675 -9.671,14.85 -11.504,13.717c-9.075,-5.608 -50.892,50.808 -74.488,100.496c-13.075,27.529 -15.45,37.171 -16.966,68.821c-2.55,53.4 7.904,86.354 41.8,131.745c22.287,29.846 74.137,63.45 54.12,35.075Zm586.684,-45.012c133.387,-54.2 129.166,-52.129 129.166,-63.379c0,-5.425 1.93,-13.471 4.292,-17.879c5.838,-10.909 27.633,-21.613 37.583,-18.455c8.771,2.784 10.8,-3.97 4.288,-14.262c-3.954,-6.246 -20.867,-1.15 -83.663,25.208l-27.083,11.367l-1.262,18.833c-1.005,14.996 -3.83,20.996 -13.863,29.438c-6.929,5.829 -17.787,10.6 -24.133,10.6c-14.913,-0 -26.963,-13.179 -24.388,-26.663l1.967,-10.291l-27.492,10.491c-15.125,5.771 -45.733,17.104 -68.025,25.188l-40.525,14.696l14.484,17.675c7.966,9.725 14.487,19.958 14.487,22.741c0,6.767 3.75,5.496 104.167,-35.308Zm479.158,-61.254c-8.65,-19.317 -19.642,-27.584 -14.483,-10.892c5.479,17.742 14.771,33.104 18.591,30.742c2.059,-1.271 0.209,-10.204 -4.108,-19.85Zm59.583,-6.604c22.45,-10.842 39.325,-21.359 37.5,-23.363c-1.829,-2.004 -1.237,-2.454 1.317,-0.996c2.554,1.459 35.367,-10.158 72.917,-25.808c37.55,-15.65 78.116,-31.692 90.146,-35.646c20.47,-6.733 21.7,-7.904 19.212,-18.317c-4.992,-20.916 -2.842,-20.983 -72.333,2.371c-66.796,22.45 -203.596,78.296 -211.738,86.438c-2.216,2.216 15.825,35.504 19.113,35.262c1.671,-0.125 21.412,-9.096 43.862,-19.937l0.004,-0.004Zm-88.741,-15.08c-0,-1.595 -12.234,-29.825 -15.096,-34.837c-1.638,-2.871 -43.238,17.175 -43.238,20.829c0,2.142 2.038,11.983 4.525,21.875l4.53,17.979l24.637,-11.937c13.554,-6.563 24.642,-12.825 24.642,-13.909Zm-1474.21,11.196c26.317,-15.541 30.504,-47.55 11.388,-87.037l-9.467,-19.563l-20.146,21.909c-11.079,12.045 -19.058,23.662 -17.733,25.808c1.329,2.142 3.812,3.033 5.525,1.975c1.712,-1.058 3.554,6.596 4.092,17.004c1.112,21.458 -6.725,36.729 -21.209,41.333c-9.175,2.917 -9.212,3.13 -1.154,6.409c10.775,4.387 34.454,0.575 48.704,-7.838Zm1372.24,-22.512c0.216,-10.754 6.979,-16.634 16.408,-14.267c6.929,1.738 10.538,-0.062 13.9,-6.954l4.542,-9.304l2.696,8.983l2.695,8.988l20.45,-8.5c11.246,-4.675 20.45,-10.217 20.45,-12.317c0,-3.221 -11.362,-27.904 -14.6,-31.708c-1.091,-1.284 -71.833,25.275 -109.52,41.12l-22.038,9.263l2.775,19.171c1.529,10.541 3.525,20.475 4.438,22.071c2.708,4.725 57.687,-20.521 57.804,-26.546Zm-113.809,-1.95c31.613,-13.104 36.617,-16.542 36.617,-25.146c0,-8.775 -1.029,-9.421 -8.579,-5.379c-9.929,5.312 -30.404,1.871 -37.142,-6.246c-7.433,-8.958 -37.612,4.392 -37.612,16.642c-0,13.279 4.775,35.304 7.654,35.304c1.346,-0 18.925,-6.829 39.062,-15.175Zm-115.383,-10.313l56.108,-21.316l-2.633,-17.225c-1.45,-9.471 -3.171,-17.863 -3.829,-18.646c-0.654,-0.784 -27.679,3.666 -60.054,9.887l-58.863,11.313l2.079,10.946c1.142,6.02 3.28,18.916 4.75,28.654c1.471,9.741 3.496,17.708 4.505,17.708c1.008,0 27.079,-9.592 57.937,-21.321Zm347.117,18.196c-0.775,-1.717 -4.121,-10.154 -7.434,-18.75c-3.312,-8.592 -8.366,-15.625 -11.225,-15.625c-3.929,0 -3.612,3.825 1.284,15.625c8.458,20.371 9.454,21.875 14.516,21.875c2.35,0 3.634,-1.404 2.859,-3.125Zm15.3,-8.187c2.291,-0.492 38.854,-15.121 81.25,-32.505c99.771,-40.908 184.941,-69.262 250,-83.233c28.646,-6.15 54.425,-11.896 57.291,-12.767c2.863,-0.875 5.209,-7.27 5.209,-14.216c-0,-15.567 -0.142,-15.575 -63.667,-2.354c-84.983,17.683 -115.5,27.116 -115.5,35.712c0,18.425 -27.262,27.463 -42.162,13.979c-6.83,-6.183 -9.592,-5.887 -35.746,3.809c-15.588,5.779 -35.842,12.82 -45.009,15.645c-17.85,5.505 -109.741,40.5 -115.204,43.875c-1.804,1.117 0.779,10.38 5.738,20.584c4.958,10.204 10.054,17.162 11.325,15.462c1.271,-1.704 4.183,-3.5 6.475,-3.991Zm-93.75,-60.684c12.604,-4.766 23.516,-9.083 24.25,-9.596c0.729,-0.512 -2.55,-8.541 -7.296,-17.841l-8.625,-16.913l-48.892,16.859c-26.891,9.27 -54.733,19.3 -61.875,22.283l-12.979,5.425l4.242,20.717l4.246,20.72l42.004,-16.495c23.104,-9.071 52.321,-20.392 64.925,-25.159Zm51.533,8.025c-3.983,-8.358 -9.683,-15.196 -12.667,-15.196c-3.908,0 -2.879,5.242 3.684,18.755c5.037,10.362 10.704,17.158 12.671,15.191c1.966,-1.966 0.316,-10.354 -3.688,-18.75Zm84.842,-12.071c43.291,-16.458 64.912,-26.512 58.766,-27.325c-5.35,-0.704 -13.758,-6.125 -18.687,-12.05l-8.963,-10.77l-55.591,19.52c-30.575,10.738 -57.109,21.046 -58.967,22.9c-3.125,3.125 8.704,33.767 13.033,33.767c1.059,0 32.742,-11.717 70.409,-26.042Zm-414.475,-17.141c45.337,-8.925 57.216,-12.688 52.754,-16.717c-3.054,-2.758 -116.321,19.958 -116.321,23.325c0,4.942 10.321,3.871 63.567,-6.608Zm955.408,5.321c1.538,-2.492 0.913,-6.417 -1.392,-8.721c-4.737,-4.738 -21.75,2.483 -21.75,9.229c0,5.529 19.68,5.096 23.142,-0.508Zm-613.637,-8.35c30.787,-10.35 30.604,-10.209 23.958,-18.217c-3.025,-3.642 -4.121,-10.708 -2.6,-16.767c3.179,-12.671 2.404,-12.716 -29.975,-1.779l-25.733,8.688l6.17,11.937c3.396,6.567 6.092,14.375 5.992,17.35c-0.096,2.979 -3.896,-1.612 -8.433,-10.208c-6.875,-13.025 -16.384,-20.963 -16.384,-13.684c0,5.442 14.525,31.392 17.571,31.392c1.938,0 15.184,-3.921 29.434,-8.712Zm376.583,1.841c29.237,-6.837 29.658,-7.121 20.967,-14.158c-7.58,-6.138 -8.055,-8.158 -3.284,-13.908c3.071,-3.7 4.279,-6.73 2.688,-6.73c-7.604,0 -75.629,17.942 -78.629,20.742c-3.688,3.433 16.095,20.892 23.775,20.979c2.554,0.034 18.07,-3.087 34.483,-6.925Zm-208.108,-16.408c10.966,-3.638 26.929,-11.367 35.479,-17.175c9.662,-6.567 18.821,-9.704 24.216,-8.292c7.834,2.046 8.405,0.979 5.85,-10.95c-1.558,-7.271 -3.37,-13.821 -4.029,-14.558c-0.658,-0.733 -14.971,2.667 -31.804,7.562c-16.833,4.892 -33.892,9.842 -37.9,10.992c-5.008,1.442 -7.292,6.313 -7.292,15.567c0,7.404 -2.25,15.716 -5,18.466c-6.562,6.563 -3.42,6.317 20.48,-1.612Zm382.437,-4.771c32.083,1.021 60.933,2.596 64.113,3.496c3.466,0.983 7.058,-2.9 8.983,-9.704c2.979,-10.546 2.137,-11.571 -12.029,-14.584c-8.379,-1.783 -50.125,-3.225 -92.767,-3.2c-59.833,0.034 -79.117,1.355 -84.475,5.8c-3.817,3.171 -5.954,6.755 -4.746,7.963c1.213,1.208 -0.429,6.212 -3.646,11.117l-5.841,8.916l36.037,-5.829c23.875,-3.867 55.725,-5.208 94.371,-3.975Zm-1972.81,-36.533c14.958,-13.75 49.233,-41.875 76.171,-62.5c47.408,-36.3 48.9,-37.925 46.616,-50.821c-5.2,-29.379 22.934,-65.542 54.7,-70.308l17.709,-2.655l-8.9,-18.316c-4.896,-10.075 -10.642,-18.317 -12.771,-18.317c-9.275,0 -106.521,60.338 -166.396,103.242c-25.858,18.529 -31.842,24.779 -29.813,31.166c4.767,15.03 2.23,48.396 -4.733,62.209c-3.829,7.591 -12.529,19.675 -19.333,26.85c-11.046,11.65 -11.784,14 -6.867,21.875c3.033,4.854 7.046,8.825 8.921,8.825c1.879,-0 2.042,2.346 0.367,5.208c-3.813,6.517 9.416,-4.362 44.329,-36.458Zm1565.55,-2.709c2.346,-21.287 -3.579,-22.825 -43.517,-11.316l-36.729,10.587l0,37.671l39.583,-13.575c33.896,-11.629 39.738,-14.983 40.663,-23.367Zm-1661.39,19.321c6.817,-3.525 12.396,-7.512 12.396,-8.858c0,-5.113 -18.35,-34.838 -21.504,-34.838c-1.817,0 -6.375,4.688 -10.129,10.417c-3.754,5.729 -8.534,10.417 -10.625,10.417c-5.338,-0 -32.742,25.471 -32.742,30.429c0,5.933 47.633,0.175 62.604,-7.567Zm2288.52,3.179c1.154,-4.008 3.363,-10.35 4.908,-14.087c5.246,-12.679 -84.754,-44.175 -151.866,-53.146c-74,-9.892 -94.917,-10.133 -106.242,-1.229c-10.25,8.067 -27.092,8.112 -27.092,0.079c0,-2.129 -12.658,-3.317 -28.125,-2.637l-28.125,1.233l-1.35,14.121l-1.35,14.125l17.634,-2.821c27.916,-4.463 133.271,-3.188 166.921,2.025c36.104,5.592 94.866,24.121 123.116,38.821c24.067,12.525 28.825,13.054 31.571,3.521l0,-0.005Zm-2347.4,-11.008l13.7,-14.133l-14.687,-4.85c-14.288,-4.717 -44.409,-33.296 -44.409,-42.142c0,-2.421 -1.537,-3.45 -3.412,-2.292c-1.879,1.163 -2.604,-3.883 -1.613,-11.212l1.796,-13.321l-21.071,20.45c-20.191,19.596 -20.829,20.896 -15.325,31.25c9.292,17.463 27.121,34.113 45.446,42.438c22.729,10.32 23.725,10.166 39.575,-6.188Zm1935.85,-19.212c25.209,-4.809 49.838,-9.567 54.73,-10.575c11.687,-2.405 16.587,-26.913 5.379,-26.913c-12.15,0 -103.4,16.313 -142.184,25.417c-33.191,7.796 -36.675,9.533 -36.675,18.341c0,21.921 1.942,22.525 38.767,12.121c18.783,-5.304 54.775,-13.579 79.983,-18.391Zm-304.166,16.679c-1.417,-2.292 -5.746,-4.034 -9.621,-3.875c-5.746,0.241 -5.508,0.954 1.287,3.875c11.15,4.791 11.296,4.791 8.334,-0Zm447.091,-2.521c26.075,-1.546 60.859,-0.638 83.809,2.192c31.616,3.895 39.904,3.791 42.704,-0.542c5.962,-9.246 1.867,-17.154 -10.625,-20.492c-22.617,-6.05 -88.988,-8.871 -137.454,-5.841l-48.442,3.029l0,14.691c0,14.159 0.463,14.6 12.717,12.15c6.996,-1.4 32.775,-3.733 57.291,-5.187Zm-305.425,-11.663c32.95,-9.708 33.325,-9.975 32.688,-23.12c-0.358,-7.313 -1.342,-13.988 -2.192,-14.838c-2.196,-2.196 -71.446,15.158 -75.708,18.975c-4.933,4.417 1.029,29.021 7,28.9c2.683,-0.046 19.879,-4.517 38.212,-9.917Zm-1682.74,-0.35c-1.317,-3.433 -0.275,-5.758 2.337,-5.208c11.65,2.45 20.075,-36.7 12.205,-56.7c-2.688,-6.825 -5.246,-5.646 -22.667,10.417l-19.633,18.108l12.545,19.792c12.159,19.179 20.067,26.246 15.213,13.591Zm1574.4,-8.545c11.458,-3.475 27.863,-8.217 36.458,-10.534c13.484,-3.633 15.625,-5.858 15.625,-16.262l0,-12.054l-40.625,-1.325c-22.345,-0.734 -41.32,-0.946 -42.17,-0.475c-2.721,1.495 4.116,47.066 7.054,47.016c1.554,-0.033 12.2,-2.887 23.658,-6.366Zm-1627.36,-12.046l9.512,-10.125l-17.354,-31.442c-9.546,-17.292 -19.437,-32.725 -21.975,-34.296c-10.067,-6.221 -32.087,34.975 -24.796,46.379c2.567,4.021 3.221,6.117 4.367,14.042c1.137,7.863 23.029,25.567 31.612,25.567c5.017,-0 13.405,-4.554 18.634,-10.125Zm1878.66,-26.713c1.579,-15.925 3.325,-15.8 -56.512,-4.041c-48.838,9.6 -49.925,10.35 -44.45,30.733c2.308,8.6 2.346,8.596 50.983,-2.458l48.675,-11.067l1.304,-13.167Zm387.871,11.217c2.517,-7.217 4.575,-13.563 4.575,-14.096c0,-0.537 -4.221,-2.179 -9.375,-3.646c-63.087,-17.95 -183.771,-30.375 -182.133,-18.75c1.691,11.992 -1.088,18.009 -3.813,8.254c-4.304,-15.395 -13.012,-15.833 -13.012,-0.654l-0,12.846l27.591,0c34.588,0 103.488,10.1 139.075,20.392c14.896,4.308 28.305,8.041 29.8,8.304c1.496,0.258 4.775,-5.433 7.292,-12.65Zm-543.342,1.092l29.167,-7.675l-32.3,-1.605c-31.2,-1.554 -32.304,-1.287 -32.292,7.767c0.013,11.188 -1.166,11.138 35.425,1.513Zm187.971,-4.321c11.2,-2.121 40.05,-5.913 64.113,-8.429c56.471,-5.905 79.166,-12.205 79.166,-21.963c0,-6.387 -3.925,-7.425 -28.125,-7.421c-25.183,0.004 -138.841,11.404 -141.641,14.209c-1.279,1.279 3.612,27.454 5.133,27.454c0.55,-0 10.158,-1.734 21.354,-3.85Zm-1851.44,-40.859c-5.05,-13.341 -49.317,-31.945 -66.03,-27.75c-9.183,2.305 -8.983,3.025 9.725,35.034l19.1,32.683l19.571,-17.421c10.767,-9.579 18.7,-19.725 17.634,-22.546Zm-170.363,19.709c8.479,-9.167 17.217,-16.667 19.417,-16.667c2.2,0 4,-3.825 4,-8.5c-0,-11.175 13.541,-37.392 24.375,-47.187l8.591,-7.775l-12.375,-24.517c-6.808,-13.488 -13.854,-24.521 -15.658,-24.521c-4.521,0 -36.921,57.638 -44.542,79.229c-6.629,18.792 -8.587,66.604 -2.729,66.604c1.925,0 10.438,-7.5 18.921,-16.666Zm2181.34,-37.754c-8.075,-4.992 -10.05,-1.08 -3.459,6.862c4.017,4.842 6.142,5.333 7.35,1.7c0.938,-2.808 -0.816,-6.662 -3.891,-8.562Zm-1899.59,-52.713c45.7,-30.258 70.971,-46.075 102.092,-63.9l18.537,-10.617l-11.512,-24.8c-6.329,-13.641 -13.313,-28.979 -15.521,-34.083c-4,-9.258 -4.113,-9.233 -41.513,9.933c-68.683,35.196 -197.458,112.48 -197.779,118.692c-0.075,1.471 4.129,3.742 9.35,5.054c13.925,3.496 42.725,29.579 48.771,44.175l5.242,12.654l19.291,-14.07c10.609,-7.738 38.98,-27.105 63.042,-43.038Zm1704.17,48.946c-0,-6.746 -17.013,-13.967 -21.75,-9.229c-2.304,2.304 -2.929,6.229 -1.392,8.721c3.463,5.604 23.142,6.037 23.142,0.508Zm-1850,-64.717c38.9,-25.183 116.437,-70.612 170.833,-100.083c33.229,-18.004 60.921,-33.046 61.533,-33.425c0.617,-0.375 -5.945,-15.75 -14.583,-34.158l-15.7,-33.475l-59.954,28.687c-32.979,15.779 -62.042,31.367 -64.583,34.646c-2.546,3.275 -9.317,6.558 -15.046,7.296c-8.717,1.121 -10.271,3.354 -9.513,13.675c0.821,11.179 -4.096,18.675 -12.362,18.846c-1.721,0.033 -3.125,-2.638 -3.125,-5.942c-0,-11.367 -8.342,-11.092 -30.184,0.992c-73.225,40.516 -103.158,59.379 -103.125,64.979c0.042,7.008 14.792,27.896 17.996,25.483c1.546,-1.162 1.95,-0.942 0.896,0.496c-1.054,1.433 0.85,7.967 4.238,14.512c6.016,11.634 6.733,11.842 32.125,9.409c16.5,-1.584 31.287,-5.938 40.554,-11.938Zm377.204,-29.204c118.254,-67.187 208.371,-98.717 283.212,-99.092c23.742,-0.129 46.938,1.971 53.913,4.859c11.642,4.816 13.171,4.15 30.767,-13.45l18.52,-18.517l-16.5,-10.917c-49.754,-32.929 -144.679,-28.2 -261.7,13.034l-45.833,16.15l-0.437,24.312c-0.313,17.15 -2.321,25.359 -6.821,27.879c-5.267,2.946 -6.879,-0.42 -9.238,-19.291c-1.571,-12.571 -3.729,-22.859 -4.8,-22.859c-1.071,0 -16.871,6.825 -35.116,15.163c-32.496,14.854 -33.171,15.471 -33.23,30.208c-0.07,18.842 -3.945,33.796 -8.762,33.796c-2.025,0 -3.679,-8.437 -3.679,-18.75c-0,-12.242 -1.809,-18.737 -5.209,-18.712c-5.37,0.05 -48.958,23.862 -48.958,26.758c0,0.892 5.625,13.508 12.496,28.037c6.875,14.53 12.5,28.763 12.5,31.625c0.004,2.867 1.467,5.209 3.25,5.209c1.787,-0 31.321,-15.946 65.625,-35.442Zm419.396,-33.104c1.329,-11.4 0.562,-13.454 -3.713,-9.908c-6.066,5.037 -7.396,24.287 -1.679,24.287c2.042,0 4.467,-6.471 5.392,-14.379Zm-785,-49.917c14.633,-4.646 17.404,-11.483 10.912,-26.929c-5.821,-13.842 -6.125,-13.979 -14.329,-6.554c-5.046,4.562 -9.812,6.046 -11.979,3.721c-5.425,-5.813 -9.746,-22.588 -5.858,-22.742c1.87,-0.079 6.745,-2.667 10.829,-5.762c6.233,-4.73 6.646,-7.334 2.587,-16.238l-4.833,-10.608l-35.142,17.412c-34.966,17.325 -35.129,17.484 -32.6,31.009c2.909,15.541 -4.662,60.116 -13.041,76.82c-3.105,6.192 -5.646,12.221 -5.646,13.405c-0,1.183 20.387,-9.775 45.308,-24.346c24.921,-14.575 49.125,-27.709 53.792,-29.188Zm296.941,30.859c21.521,-10.863 24.409,-13.663 20.884,-20.246c-6.217,-11.613 -21.6,-20.142 -49.288,-27.317c-31.558,-8.175 -30.616,-8.279 -26.321,2.875c9.175,23.842 25.13,57.292 27.321,57.292c1.338,-0 13.671,-5.671 27.404,-12.604Zm484.575,-3.284c5.134,-10.341 3.984,-29.379 -1.883,-31.233c-1.387,-0.438 -7.604,5.25 -13.821,12.637c-11.104,13.192 -11.166,13.609 -3.733,23.53c8.642,11.52 11.646,10.758 19.437,-4.934Zm-15.554,-28.116l11.317,-14.842l-21.208,-21.208l-34.809,31.45l11.692,9.57c15.8,12.925 19.817,12.321 33.008,-4.97Zm-894.058,-13.675l7.437,-16.613l-15.262,8.733c-8.396,4.8 -15.8,9.088 -16.463,9.525c-0.658,0.434 1.075,5.771 3.846,11.859c5.888,12.916 9.759,10.358 20.442,-13.504Zm501.512,7.158l35.817,-17.183l0,-69.017l-14.583,4.475c-8.021,2.462 -14.584,6.15 -14.584,8.192c0,2.041 -1.875,2.554 -4.166,1.137c-2.292,-1.417 -4.167,-0.479 -4.167,2.083c0,2.563 -1.675,3.625 -3.721,2.363c-3.208,-1.988 -66.141,21.183 -82.683,30.442c-4.292,2.4 -1.479,6.095 10.862,14.262c9.163,6.058 21.938,17.638 28.392,25.725c6.454,8.092 12.021,14.708 12.375,14.708c0.354,0 16.758,-7.733 36.458,-17.183l0,-0.004Zm424.709,-14.063l2.525,-16.666l-8.054,12.65c-5.08,7.979 -7.113,16.225 -5.513,22.35c3.196,12.216 7.496,5.079 11.042,-18.334Zm-751.392,-6.829c0,-2.121 -2.862,-10.708 -6.362,-19.083c-5.942,-14.217 -6.825,-14.767 -13.313,-8.283c-6.483,6.487 -6.483,7.916 0.004,21.525c4.788,10.041 8.929,13.816 13.313,12.137c3.496,-1.342 6.358,-4.175 6.358,-6.296Zm-182.308,-3.55c15.033,-6.65 19.266,-10.883 21.362,-21.354c7.809,-39.042 -1.562,-78.683 -18.604,-78.683c-24.292,-0 -35.717,25.529 -31.212,69.741c2.416,23.7 5.733,38.592 8.595,38.592c0.609,0 9.546,-3.733 19.859,-8.296Zm926.987,-4.758c6.317,-10.408 4.879,-33.163 -2.05,-32.479c-1.675,0.166 -8.121,6.425 -14.325,13.912c-10.529,12.7 -10.85,14.225 -4.821,22.834c7.73,11.037 12.496,10.079 21.196,-4.267Zm-309.879,-14.321c65.733,-22.908 117.733,-32.025 171.45,-30.062c39.063,1.425 49.217,3.312 68.75,12.783c12.604,6.108 26.342,13.5 30.525,16.425c6.65,4.642 9.154,3.487 19.792,-9.113c6.7,-7.933 12.183,-15.841 12.183,-17.57c0,-6.063 -29.546,-32.613 -45.154,-40.575c-42.021,-21.438 -114.879,-27.2 -186.592,-14.759c-38.446,6.667 -122.504,29.442 -127.187,34.459c-1.475,1.579 -1.692,17.504 -0.479,35.391c1.879,27.734 3.195,32.142 8.933,29.925c3.7,-1.433 25.2,-9.037 47.779,-16.904Zm-346.9,-17.883c76.121,-36.484 163.163,-72.017 227.725,-92.963c23.488,-7.621 42.708,-15.329 42.708,-17.129c0,-1.804 -3.629,-1.333 -8.058,1.038c-22.029,11.787 -58.529,1.283 -78.121,-22.484l-12.637,-15.333l-69.896,25.571c-66.575,24.358 -170.5,66.771 -194.658,79.441c-8.471,4.442 -10.325,7.48 -7.421,12.146c3.096,4.979 5.454,5.242 11.796,1.313c6.75,-4.184 8.591,-3.459 12.383,4.862c3.692,8.109 3.042,10.721 -3.808,15.325c-8.071,5.429 -8.088,5.954 -0.796,23.221c4.108,9.717 8.583,17.683 9.95,17.708c1.366,0.034 33.241,-14.7 70.833,-32.716Zm232.875,-17.242c2.325,0 4.225,-1.875 4.225,-4.167c0,-2.291 1.404,-3.808 3.125,-3.37c1.717,0.433 9.217,-0.65 16.667,-2.417l13.541,-3.208l0,-69.721l-21.875,6.462c-20.254,5.988 -115.287,41.238 -156.25,57.959c-9.741,3.975 -17.708,8.658 -17.708,10.412c0,3.879 29.529,27.717 49.246,39.75l14.387,8.779l45.209,-20.241c24.866,-11.13 47.112,-20.238 49.433,-20.238Zm443.488,2.083l2.833,-16.666l-9.929,12.116c-8.221,10.025 -9.159,13.75 -5.446,21.617c5.296,11.221 8.471,6.904 12.542,-17.067Zm-789.359,-6.425c-7.662,-14.32 -19.516,-7.329 -14.475,8.542c2.142,6.754 4.134,7.488 10.738,3.954c6.508,-3.483 7.246,-5.941 3.737,-12.496Zm787.575,-20.983c0.013,-3.621 -5.821,-15.396 -12.958,-26.171c-43.079,-65.037 -149.879,-84.95 -295.354,-55.071c-85.434,17.55 -76.884,11.855 -78.304,52.163c-1.096,31.125 -0.505,34.325 5.866,31.879c3.896,-1.492 23.196,-7.212 42.884,-12.704c132.016,-36.829 221.854,-35.971 279.712,2.662c13.917,9.296 28.379,21.592 32.138,27.33l6.837,10.433l9.579,-11.975c5.267,-6.583 9.588,-14.929 9.6,-18.546Zm-795.812,4.388c-0,-9.075 -5.854,-16.563 -12.946,-16.563c-8.829,0 -9.933,5.063 -3.658,16.788c4.008,7.487 16.604,7.316 16.604,-0.225Zm812.312,-47.184c0.438,-27.741 -31.821,-68.462 -69.241,-87.404l-20.155,-10.204l-7.225,9.604c-10.554,14.021 -32.237,20.1 -52.362,14.683c-18.721,-5.041 -37.288,-21.704 -41.096,-36.883l-2.6,-10.354l-44.608,2.708c-37.313,2.267 -112.342,13.671 -169.671,25.788c-13.208,2.796 -13.308,3 -7.292,14.633c3.359,6.492 6.104,20.333 6.104,30.758c0,10.675 1.946,18.959 4.455,18.959c2.45,-0 22.604,-4.542 44.791,-10.096c59.484,-14.892 101.029,-20.258 157.004,-20.283c86.413,-0.05 144.163,23.108 177.084,70.987l14.583,21.213l5.021,-11.117c2.758,-6.117 5.104,-16.463 5.208,-22.992Zm-65.612,-286.75c-1.621,-1.571 -41.95,-19.775 -89.617,-40.458c-73.758,-32 -87.058,-36.579 -89.292,-30.758c-1.441,3.758 -0.879,7.47 1.25,8.241c2.13,0.775 42.275,18.109 89.213,38.525c59.962,26.079 86.237,35.659 88.367,32.213c1.666,-2.696 1.704,-6.192 0.079,-7.763Zm-186.938,1324.66c1.317,-18.904 3.629,-53.3 5.142,-76.434l2.742,-42.058l-13.046,1.917c-37.009,5.429 -69.179,-34.471 -46.267,-57.384c15.496,-15.495 55.95,-7.525 67.046,13.213c3.4,6.35 4,29.675 2.062,80.162c-3.666,95.525 -6.004,114.959 -13.82,114.959c-5.246,-0 -5.867,-5.525 -3.859,-34.375Zm-390.029,-170.834c-30.429,-23.108 -2.712,-81.175 39.433,-82.62c5.271,-0.18 7.23,-1.28 4.35,-2.438c-2.879,-1.162 -4.325,-3.583 -3.212,-5.383c1.112,-1.804 -14.729,-38.663 -35.204,-81.917c-22.179,-46.854 -35.704,-80.162 -33.463,-82.404c2.246,-2.246 9.771,1.5 18.617,9.271c8.167,7.166 29.721,21.616 47.904,32.104c50.521,29.137 69.238,56.521 60.404,88.362c-2.987,10.775 -3.491,10.192 -8.129,-9.429c-7.071,-29.908 -12.317,-37.7 -30.104,-44.691c-24.958,-9.813 -48.563,-13.188 -45.904,-6.563c1.212,3.025 15.758,33.963 32.325,68.75c34.583,72.629 35.471,82.167 9.991,107.646c-12.054,12.054 -17.545,14.521 -32.333,14.521c-9.8,-0 -20.904,-2.342 -24.675,-5.209Zm74.071,-326.062c-19.971,-7.125 -27.138,-15.938 -27.138,-33.383c0,-31.346 47.13,-50.121 78.23,-31.163l13.641,8.321l4.429,-11.463c4.234,-10.95 32.538,-89.266 50.342,-139.279c5.883,-16.525 10.171,-22.987 14.221,-21.429c3.192,1.225 5.804,3.713 5.804,5.529c0,1.817 -16.058,48.021 -35.683,102.679c-28.225,78.596 -38.259,101.771 -47.984,110.834c-6.762,6.304 -15.866,11.458 -20.225,11.458c-4.358,0 -10.425,0.858 -13.475,1.908c-3.054,1.055 -13.025,-0.754 -22.162,-4.012Zm1992.31,-234.008c-10.571,-10.567 4.946,-25.584 21.179,-20.496c5.805,1.821 9.675,-3.438 18.971,-25.763l11.679,-28.046l-15.845,-13.479c-8.717,-7.412 -16.909,-13.508 -18.205,-13.541c-1.3,-0.034 -6.679,10.72 -11.958,23.895c-5.279,13.18 -13.121,27.067 -17.421,30.863c-8.587,7.592 -22.683,5.954 -26.133,-3.033c-2.979,-7.763 13.6,-18.742 24.262,-16.067c7.3,1.829 10.125,-1.663 18.609,-23.029c5.504,-13.854 11.129,-25.134 12.5,-25.059c2.825,0.159 9.775,5.321 28.816,21.434l13.175,11.154l-15.187,36.762c-8.35,20.221 -16.996,39.113 -19.213,41.975c-4.275,5.525 -20.566,7.096 -25.229,2.43Zm-2081.32,-541.084c-15,-12.621 -19.65,-30.116 -13.2,-49.662c9.042,-27.4 48.775,-51.942 75.446,-46.609c8.109,1.621 12.138,0.734 12.154,-2.679c0.013,-2.808 -7.75,-55.454 -17.25,-116.996c-14.395,-93.258 -16.316,-112.487 -11.516,-115.454c3.166,-1.954 6.979,-2.229 8.475,-0.604c1.496,1.621 12.396,66.467 24.225,144.096l21.508,141.15l-11.233,22.2c-6.179,12.208 -12.375,21.996 -13.775,21.75c-1.4,-0.246 -9.513,2.654 -18.034,6.446c-22.616,10.062 -41.991,8.821 -56.8,-3.638Zm180.159,-234.996c-23.579,-10.133 -33.321,-41.92 -20.467,-66.779c14.042,-27.158 58.613,-40.5 86.558,-25.916c8.592,4.487 15.625,7.512 15.625,6.729c0,-0.788 8.438,-54.746 18.75,-119.909c10.313,-65.162 18.75,-119.629 18.75,-121.037c0,-1.408 3.375,-2.563 7.5,-2.563c5.834,0 8.675,5.688 12.792,25.625c2.913,14.092 13.671,44.267 23.913,67.055c24.495,54.504 29.608,76.783 22.812,99.458c-5.879,19.633 -20.671,44.162 -28.475,47.225c-7.958,3.121 -6.2,-9.7 2.913,-21.292c10.587,-13.454 14.866,-42.816 8.816,-60.466c-4.266,-12.442 -44.729,-60.846 -47.704,-57.063c-0.667,0.85 -7.917,44.471 -16.112,96.942c-15.571,99.696 -18.059,107.133 -41.746,124.821c-12.279,9.166 -49.554,13.35 -63.925,7.17Z" style="fill:#1f3b71;fill-rule:nonzero;"/><path d="M2538.21,701.904c4.023,-2.3 8.621,-4.024 12.644,-6.322c5.747,-2.299 11.495,-3.448 17.817,-3.448c9.196,-0 18.391,2.298 25.863,8.046c7.472,6.321 11.494,15.518 10.92,25.288l0,4.023c25.864,-25.863 46.554,-56.324 60.922,-90.234c-1.725,1.15 -3.449,2.3 -5.173,3.449c-11.494,-9.195 -25.288,-16.092 -39.657,-20.116c-14.943,-4.597 -30.46,-6.897 -46.553,-6.897c-20.691,0 -40.806,2.874 -60.922,8.621c-17.242,4.598 -33.91,12.645 -48.853,22.415c-6.897,4.598 -13.218,10.345 -18.391,17.242c-4.599,7.472 -6.897,16.093 -6.897,24.714l0,117.82c33.909,-3.448 67.244,-13.218 97.705,-28.736l0.575,-75.865Z" style="fill:#fff;fill-rule:nonzero;"/><path d="M2769.26,862.831c-0.575,8.045 1.149,16.091 4.023,23.563c2.299,5.748 5.748,10.346 10.345,14.369c5.173,3.449 10.92,5.747 17.242,6.897c7.472,1.149 14.944,1.724 22.99,1.724c8.621,0 17.242,-0.575 25.863,-1.724c6.322,-0.575 12.07,-1.724 18.391,-3.448l0,-181.042c0,-8.048 -0.574,-16.669 -2.298,-24.715c-21.265,58.624 -54.025,112.074 -95.982,158.628l-0.574,5.748Z" style="fill:#fff;fill-rule:nonzero;"/><path d="M2443.95,885.819c2.299,5.748 5.747,10.345 10.92,14.369c5.173,3.448 10.92,5.748 17.242,6.897c7.472,1.149 14.943,1.724 22.99,1.724c8.621,0 17.242,-0.575 25.863,-1.724c6.322,-0.575 12.07,-1.724 17.816,-3.449l0,-125.867c-30.46,15.518 -63.796,25.863 -97.705,28.736l0,56.326c-1.149,8.045 0,15.518 2.874,22.988" style="fill:#fff;fill-rule:nonzero;"/><path d="M2831.33,639.832c-10.92,-8.621 -24.139,-14.369 -37.359,-18.391c-13.793,-4.023 -28.161,-5.748 -43.105,-5.748c-17.816,-0.575 -35.058,2.3 -52.3,7.472c-11.496,4.023 -22.99,9.195 -33.335,15.518c-13.794,33.909 -34.485,64.37 -60.923,90.233l0,133.339c-0.574,8.046 1.15,16.094 4.024,23.564c2.299,5.748 5.748,10.345 10.92,14.369c5.173,3.448 10.919,5.748 17.242,6.897c7.471,1.149 14.943,1.724 22.989,1.724c8.621,0 16.668,-0.575 25.289,-1.724c6.322,-0.575 12.643,-1.724 18.966,-3.449l0,-195.41c0,-1.725 0,-2.874 -0.575,-4.598c4.024,-3.448 8.621,-5.748 13.794,-8.046c5.173,-2.299 11.494,-3.448 17.242,-3.448c9.196,-0.575 18.966,2.298 26.438,8.046c6.897,6.321 10.919,15.518 9.77,25.288l0,131.04c41.957,-45.979 74.142,-100.005 95.981,-158.628c-1.149,-8.621 -4.022,-17.242 -7.471,-25.288c-7.472,-12.644 -16.668,-24.139 -27.587,-32.76" style="fill:#fff;fill-rule:nonzero;"/><path d="M2205.44,862.831c-0.576,8.045 1.149,16.091 4.022,23.563c2.299,5.748 5.748,10.346 10.92,14.369c5.173,3.449 10.921,5.747 17.242,6.897c7.473,1.149 14.943,1.724 22.99,1.724c8.621,0 17.243,-0.575 25.864,-1.724c6.321,-0.575 12.069,-1.724 17.815,-3.448l0,-125.868c-30.46,20.116 -63.22,36.783 -97.704,49.427l-1.149,35.06Z" style="fill:#fff;fill-rule:nonzero;"/><path d="M2321.53,701.329c6.896,-1.725 14.944,-3.449 22.99,-5.173c8.045,-1.724 16.093,-2.873 24.714,-3.448c8.621,-0.574 16.667,-1.149 24.712,-1.149c2.3,-4.598 4.599,-9.197 5.748,-13.794c1.724,-5.173 2.3,-10.345 2.3,-16.093c-0,-16.092 -5.173,-27.588 -16.093,-35.058c-13.219,-7.472 -28.163,-11.496 -43.681,-10.921c-10.919,0 -22.415,1.149 -33.334,2.874c-10.92,1.724 -21.841,4.023 -32.186,6.896c-9.77,2.875 -19.54,6.323 -29.311,10.921c-8.046,3.448 -15.518,8.046 -22.989,13.794c-5.748,4.597 -10.345,10.345 -14.369,17.242c-3.448,6.897 -5.173,14.942 -4.597,22.99l-0,136.786c34.484,-12.643 67.244,-29.312 97.704,-49.427l0,-70.693c6.322,-2.299 12.07,-4.023 18.392,-5.747" style="fill:#fff;fill-rule:nonzero;"/><path d="M2070.95,888.119c1.149,13.793 -6.323,27.012 -18.392,33.335c-10.919,5.746 -22.415,8.621 -34.484,9.77c-28.162,22.99 -59.197,42.53 -92.533,58.623c2.874,1.724 5.173,3.448 8.046,4.597c20.117,9.197 47.129,14.369 82.189,14.369c19.54,0 38.506,-2.299 57.472,-6.897c16.669,-4.023 32.76,-11.494 46.554,-21.265c13.22,-9.77 24.139,-22.415 31.611,-36.782c8.046,-16.094 12.069,-34.485 11.494,-52.877l0,-154.604c-21.839,54.026 -52.875,102.877 -91.957,145.983l0,5.748Z" style="fill:#fff;fill-rule:nonzero;"/><path d="M1981.87,622.015c-2.873,0.575 -5.172,1.15 -8.046,2.299c-17.242,5.173 -33.335,13.794 -47.129,25.288c-13.793,11.496 -24.139,26.439 -31.035,43.106c-8.046,19.541 -11.495,40.232 -11.495,60.922c0,6.897 0.576,13.219 1.149,19.542c48.278,-38.508 82.189,-91.383 96.556,-151.157" style="fill:#fff;fill-rule:nonzero;"/><path d="M2003.13,931.799c-14.943,0 -29.312,-2.299 -43.681,-6.323c-13.218,-4.022 -25.863,-9.195 -37.932,-15.518c-5.173,4.024 -9.195,9.196 -12.07,15.518c-4.022,6.897 -5.746,14.944 -5.746,23.565c-0.575,16.667 7.471,32.185 21.839,41.381c32.76,-16.093 63.796,-35.634 92.533,-58.623l-14.943,0" style="fill:#fff;fill-rule:nonzero;"/><path d="M2069.23,720.295l0,85.061c-10.92,8.046 -24.139,11.495 -37.359,10.921c-13.793,0.574 -26.437,-5.173 -36.208,-14.944c-1.149,-1.149 -2.298,-2.873 -2.873,-4.022c-6.897,-9.772 -10.921,-24.139 -10.921,-43.681c0,-19.541 4.599,-34.484 14.369,-45.404c9.196,-10.346 23.564,-16.092 42.53,-16.092c6.323,-0 13.22,0.574 19.542,2.298c4.023,1.15 8.045,2.874 12.069,4.599l-1.149,21.264Zm86.784,-56.324c-5.172,-6.897 -10.919,-13.218 -18.391,-17.817c-13.218,-9.195 -28.162,-16.667 -43.68,-21.264c-0.574,-0 -0.574,-0.576 -1.149,-0.576c-19.542,-5.747 -39.657,-8.621 -59.772,-8.621c-17.242,0 -34.485,2.3 -51.727,6.322c-14.369,59.774 -48.278,112.649 -96.555,150.581c1.149,14.369 4.597,28.737 9.77,42.531c1.149,2.874 2.299,5.747 4.023,8.047c5.747,12.643 14.368,24.139 24.139,33.909c11.494,10.92 25.863,18.966 40.806,24.139c16.093,5.172 32.76,8.046 49.427,7.472c19.541,0.574 39.083,-2.875 57.474,-10.345l0,2.873c39.082,-42.53 70.118,-91.959 91.958,-145.983l0,-46.554c1.149,-8.621 -1.15,-17.242 -6.323,-24.714" style="fill:#fff;fill-rule:nonzero;"/><path d="M2219.81,976.629l7.472,-0l0,9.194c-2.299,0.576 -4.023,0.576 -6.321,0.576c-3.449,-0 -6.323,-1.149 -8.621,-3.449c-2.3,-2.873 -3.449,-6.321 -2.875,-10.345c-0,-3.449 1.15,-7.472 3.448,-10.345c2.3,-2.3 5.748,-4.024 9.197,-3.449c2.873,0 6.321,0.575 8.621,2.3l2.299,-5.173c-3.448,-1.724 -6.897,-2.299 -10.92,-2.299c-5.173,-0.576 -10.346,1.724 -13.794,5.172c-3.449,3.449 -5.173,8.621 -5.173,13.794c-0.575,5.173 1.149,9.77 4.598,13.794c3.448,3.448 8.047,5.172 12.644,5.172c4.598,0 8.621,-0.575 13.219,-1.724l-0,-18.391l-13.794,-0l0,5.173Z" style="fill:#fff;fill-rule:nonzero;"/><rect x="2241.07" y="952.49" width="5.748" height="39.082" style="fill:#fff;"/><path d="M2266.93,986.974c-4.597,-0 -6.897,-2.875 -6.897,-9.772c0,-2.298 0.575,-5.172 1.724,-6.897c1.149,-1.724 3.449,-2.873 5.173,-2.298c4.597,0 6.897,3.449 6.897,9.771c0.575,6.321 -2.3,9.196 -6.897,9.196Zm0.575,-23.565c-3.448,-0 -7.472,1.15 -9.771,4.023c-2.298,2.873 -3.449,6.897 -3.449,10.346c0,2.873 0.576,5.172 1.725,7.472c1.15,2.298 2.299,4.022 4.598,5.172c2.298,1.149 4.598,1.724 6.897,1.724c3.449,0 7.471,-1.15 9.77,-4.023c2.3,-2.873 3.449,-6.897 3.449,-10.345c-0,-4.024 -1.149,-7.473 -3.449,-10.346c-2.873,-2.873 -6.321,-4.023 -9.77,-4.023" style="fill:#fff;fill-rule:nonzero;"/><path d="M2304.29,984.674c-1.149,1.725 -2.873,2.3 -4.597,2.3c-1.724,-0 -4.024,-0.575 -5.173,-2.3c-1.149,-2.299 -1.724,-4.597 -1.724,-7.472l0,-0.573c0,-2.3 0.575,-5.173 1.724,-6.897c1.149,-1.725 2.874,-2.3 5.173,-2.3c4.597,0 6.322,3.449 6.322,9.197c-0,3.448 -0.574,5.746 -1.725,8.045m-2.873,-21.265c-3.448,-0 -6.321,1.15 -8.046,4.023l0,-14.369l-5.747,0l-0,39.083l4.597,0l1.15,-3.448l0.574,-0c4.024,4.597 10.345,5.173 14.944,1.149c0.574,-0.575 0.574,-0.575 1.149,-1.149c2.3,-2.875 2.874,-6.897 2.874,-10.345c-0,-4.024 -0.574,-7.472 -2.874,-10.346c-2.873,-3.448 -5.748,-4.598 -8.621,-4.598" style="fill:#fff;fill-rule:nonzero;"/><path d="M2334.75,980.651c0,1.724 -0.575,3.448 -1.724,5.172c-1.15,1.151 -3.448,1.725 -5.172,1.725c-1.151,-0 -2.3,-0 -3.449,-1.149c-0.575,-0.576 -1.15,-1.725 -1.15,-2.874c-0,-1.724 0.575,-2.874 1.724,-4.023c1.724,-1.149 4.024,-1.149 6.323,-1.149l3.448,-0l0,2.298Zm-5.172,-17.242c-1.724,-0 -3.449,-0 -5.173,0.575c-1.724,0.575 -3.448,1.149 -5.172,1.724l1.724,4.024c1.149,-0.576 2.298,-1.151 4.022,-1.151c1.15,-0.574 2.875,-0.574 4.024,-0.574c1.149,0 2.873,0.574 4.023,1.149c1.149,1.149 1.149,2.3 1.149,4.024l0,1.724l-4.597,0c-3.449,0 -6.897,0.574 -9.772,2.298c-2.298,1.725 -3.448,4.024 -3.448,6.323c-0,2.298 0.575,4.598 2.299,6.322c1.725,1.724 4.024,2.299 6.322,2.299c1.724,0 3.448,0 5.173,-1.15c1.724,-0.574 2.874,-1.724 4.023,-3.448l1.149,4.023l4.024,0l-0,-18.391c-0,-2.875 -0.575,-5.173 -2.873,-7.472c-1.151,-1.724 -4.024,-2.299 -6.897,-2.299" style="fill:#fff;fill-rule:nonzero;"/><rect x="2348.55" y="952.49" width="5.748" height="39.082" style="fill:#fff;"/><path d="M2387.05,972.03l-4.023,-0l0,-12.07l4.023,0c2.299,0 4.023,0.575 6.323,1.151c1.724,1.149 2.298,2.873 2.298,4.597c-0,1.724 -0.574,3.448 -1.725,4.597c-2.298,1.151 -4.597,1.725 -6.896,1.725Zm14.368,-6.322c0,-2.873 -1.149,-6.322 -3.448,-8.046c-2.873,-2.299 -6.897,-2.874 -10.345,-2.874l-10.345,-0l-0,36.783l5.747,0l0,-14.369l5.747,0l8.621,14.369l6.897,0l-10.346,-16.093c4.599,-1.724 7.472,-5.173 7.472,-9.77" style="fill:#fff;fill-rule:nonzero;"/><rect x="2408.89" y="963.984" width="5.748" height="27.587" style="fill:#fff;"/><path d="M2412.34,953.063c-1.15,0 -1.724,0 -2.299,0.576c-1.15,1.149 -1.15,3.448 -0,4.597c0.575,0.575 1.724,1.15 2.299,1.15c1.149,0 1.724,0 2.298,-1.15c1.15,-1.149 1.15,-3.448 -0,-4.597c-0.574,-0 -1.724,-0.576 -2.298,-0.576" style="fill:#fff;fill-rule:nonzero;"/><path d="M2433.03,978.353c-1.15,-0 -2.874,-0.575 -4.023,-1.151c-1.149,-1.149 -1.149,-2.873 -1.149,-4.022c-0,-1.724 0.574,-2.875 1.149,-4.024c1.149,-1.149 2.299,-1.724 4.023,-1.724c1.149,0 2.874,0.575 4.023,1.724c1.15,1.149 1.15,2.874 1.15,4.024c-0.575,2.873 -1.724,5.173 -5.173,5.173Zm-5.747,13.218l8.045,0c1.725,0 3.449,0 4.599,0.575c1.149,0.574 1.149,1.725 1.149,2.298c0,1.725 -1.149,2.875 -2.299,3.449c-2.298,1.15 -4.598,1.724 -6.897,1.15c-1.724,0 -3.448,0 -4.597,-1.15c-1.149,-0.574 -1.725,-1.724 -1.725,-2.873c0,-1.149 0.576,-2.3 1.725,-3.449Zm8.045,-28.162l-2.298,-0c-2.874,-0 -5.747,0.575 -8.047,2.299c-1.724,1.724 -2.873,4.597 -2.873,6.897c-0,1.724 0.575,3.448 1.149,5.173c0.575,1.149 2.299,2.299 3.448,2.873c-1.149,0.575 -1.724,1.15 -2.873,2.299c-0.575,0.575 -1.149,1.724 -0.575,2.873c-0,1.725 1.15,3.449 2.875,4.024c-1.725,0.575 -3.449,1.149 -4.599,2.299c-1.149,1.149 -1.724,2.874 -1.724,4.023c-0,2.299 1.15,4.598 2.874,5.747c2.873,1.725 5.747,2.3 8.621,1.725c4.022,-0 8.046,-0.576 11.495,-2.3c2.299,-1.724 4.023,-4.597 4.023,-7.47c0,-2.3 -0.575,-4.024 -2.299,-5.748c-2.3,-1.149 -4.598,-2.3 -6.897,-1.724l-4.598,-0c-1.15,-0 -2.299,-0 -3.448,-0.576c-0.575,0 -1.15,-0.573 -1.15,-1.149c-0,-1.149 0.575,-2.299 1.724,-2.873l2.299,0c2.873,0 5.748,-0.575 8.046,-2.299c1.724,-1.724 2.875,-4.024 2.875,-6.897c-0,-1.724 -0.575,-3.449 -1.725,-4.598l4.598,-0.575l-0,-3.448l-9.77,-0c0.574,-0.575 -0.575,-0.575 -1.151,-0.575" style="fill:#fff;fill-rule:nonzero;"/><path d="M2466.37,963.409c-1.724,-0 -3.448,0.575 -5.172,1.15c-1.149,0.574 -2.874,1.724 -3.449,2.873l-0.574,0c0,-1.724 0.574,-3.448 0.574,-5.172l0,-9.77l-5.746,-0l-0,39.081l5.746,0l0,-13.793c0,-2.874 0.575,-5.173 1.724,-7.473c1.151,-1.724 3.449,-2.298 5.748,-2.298c1.724,0 2.873,0.574 4.024,1.725c1.149,1.149 1.724,2.873 1.149,4.597l-0,17.242l5.748,0l-0,-17.817c0.574,-4.598 -2.875,-9.195 -7.472,-10.345l-2.3,-0" style="fill:#fff;fill-rule:nonzero;"/><path d="M2492.23,986.399c-0.573,-1.149 -1.149,-2.3 -1.149,-3.449l0,-14.943l8.046,0l0,-4.598l-8.046,-0l0,-5.747l-3.448,0l-1.724,5.747l-4.024,2.299l0,2.873l4.024,0l-0,14.944c-0,5.747 2.873,8.621 8.621,8.621l3.448,0c0.575,0 1.724,-0.575 2.3,-0.575l-0,-5.172c-1.151,0.575 -2.875,0.575 -4.024,0.575c-2.299,0.574 -3.448,-0 -4.024,-0.575" style="fill:#fff;fill-rule:nonzero;"/><path d="M2520.39,977.778c-1.724,-1.149 -3.448,-1.725 -5.173,-2.3c-1.724,-0.574 -3.448,-1.724 -5.172,-2.298c-0.575,-0.575 -1.149,-1.15 -1.149,-2.299c-0,-1.725 1.724,-2.874 4.597,-2.874c2.873,0 5.173,0.574 7.472,1.725l1.724,-4.599c-2.874,-1.149 -6.323,-1.724 -9.196,-1.724c-2.873,-0 -5.172,0.575 -8.046,1.724c-1.724,1.15 -2.874,3.448 -2.874,5.748c-0,1.724 0.575,3.448 1.724,4.597c1.724,1.724 4.024,2.875 6.323,3.449c1.149,0.575 2.873,1.15 4.022,1.724c0.575,0.575 1.151,1.15 1.724,1.724c0.576,0.575 0.576,1.15 0.576,1.724c-0,2.3 -1.725,3.449 -5.748,3.449c-2.873,-0 -6.322,-0.574 -9.195,-2.298l-0,5.172c2.873,1.149 5.746,1.724 8.621,1.724c2.873,0 5.746,-0.575 8.621,-2.299c1.724,-1.149 2.873,-4.024 2.873,-6.322c0,-1.15 0,-2.299 -0.575,-3.448c0.575,-1.15 -0.574,-1.724 -1.149,-2.299" style="fill:#fff;fill-rule:nonzero;"/><path d="M2562.35,984.099l-10.345,-29.311l-8.621,-0l-0,36.783l5.173,0l-0,-17.817c-0,-4.022 -0,-8.046 -0.576,-12.643l10.346,30.46l5.172,0l10.921,-30.46l-0,29.885l5.746,0l0,-36.782l-8.621,-0l-9.195,29.885Z" style="fill:#fff;fill-rule:nonzero;"/><path d="M2606.03,980.651c0,1.724 -0.574,4.023 -1.724,5.172c-1.149,1.151 -3.448,1.725 -5.173,1.725c-1.149,-0 -2.298,-0 -3.448,-1.149c-0.574,-0.576 -1.149,-1.725 -1.149,-2.874c0,-1.724 0.575,-2.874 1.724,-4.023c1.724,-1.149 4.024,-1.149 6.322,-1.149l3.448,-0l0,2.298Zm-4.597,-17.242c-1.724,-0 -3.449,-0 -5.173,0.575c-1.724,0.575 -3.448,1.149 -5.172,1.724l1.724,4.024c1.149,-0.576 2.299,-1.151 4.023,-1.151c1.149,-0.574 2.874,-0.574 4.023,-0.574c1.15,0 2.874,0.574 4.023,1.149c1.149,1.149 1.149,2.3 1.149,4.024l0,1.724l-4.597,0c-3.449,0 -6.897,0.574 -9.77,2.298c-2.3,1.725 -3.449,4.024 -3.449,6.323c0,2.298 0.574,4.598 2.298,6.322c1.725,1.724 4.024,2.299 6.323,2.299c1.725,0 3.449,0 5.173,-1.15c1.724,-0.574 2.873,-1.724 4.022,-3.448l1.151,4.023l4.022,0l-0,-18.391c-0,-2.875 -0.574,-5.173 -2.873,-7.472c-1.149,-1.724 -4.024,-2.299 -6.897,-2.299" style="fill:#fff;fill-rule:nonzero;"/><path d="M2634.77,963.409c-1.724,-0 -3.448,0.575 -5.173,1.15c-1.724,0.574 -2.874,1.724 -3.448,2.873l-0.575,0l-0.575,-3.448l-4.598,-0l0,27.587l5.748,0l-0,-13.793c-0,-2.874 0.574,-5.173 1.724,-7.473c1.149,-1.724 3.449,-2.298 5.173,-2.298c1.724,0 2.873,0.574 4.022,1.725c1.15,1.149 1.15,2.873 1.15,4.597l0,17.242l5.747,0l-0,-17.817c0.575,-4.598 -2.873,-9.195 -7.471,-10.345l-1.724,-0" style="fill:#fff;fill-rule:nonzero;"/><path d="M2668.68,980.651c0,1.724 -0.575,4.023 -1.724,5.172c-1.149,1.151 -3.449,1.725 -5.173,1.725c-1.149,-0 -2.299,-0 -3.448,-1.149c-0.575,-0.576 -1.149,-1.725 -1.149,-2.874c-0,-1.724 0.574,-2.874 1.724,-4.023c1.724,-1.149 4.022,-1.149 5.746,-1.149l3.449,-0l0.575,2.298Zm-5.173,-17.242c-1.724,-0 -3.448,-0 -5.172,0.575c-1.724,0.575 -3.449,1.149 -5.173,1.724l1.724,4.024c1.149,-0.576 2.3,-1.151 3.449,-1.151c1.149,-0.574 2.873,-0.574 4.023,-0.574c1.149,0 2.874,0.574 4.023,1.149c1.15,1.149 1.15,2.3 1.15,4.024l0,1.724l-4.599,0c-3.448,0 -6.897,0.574 -9.77,2.298c-2.299,1.725 -3.448,4.024 -3.448,6.323c-0,2.298 0.575,4.598 2.299,6.322c1.724,1.724 4.022,2.299 6.322,2.299c1.724,0 3.448,0 5.172,-1.15c1.725,-0.574 2.874,-1.724 4.024,-3.448l1.149,4.023l4.024,0l-0,-18.391c-0,-2.875 -0.576,-5.173 -2.875,-7.472c-0.574,-1.724 -3.448,-2.873 -6.322,-2.299" style="fill:#fff;fill-rule:nonzero;"/><path d="M2691.67,978.353c-1.15,-0 -2.875,-0.575 -4.024,-1.151c-1.149,-1.149 -1.149,-2.873 -1.149,-4.022c0,-1.724 0.574,-2.875 1.149,-4.024c2.3,-1.724 5.748,-1.724 7.472,0c1.149,1.149 1.149,2.874 1.149,4.024c0.576,2.873 -1.149,5.173 -4.597,5.173Zm-5.748,13.218l8.046,0c1.724,0 3.448,0 4.599,0.575c1.149,0.574 1.149,1.725 1.149,2.298c-0,1.725 -1.149,2.875 -2.3,3.449c-2.298,1.15 -4.597,1.724 -6.896,1.15c-1.725,0 -3.449,0 -4.598,-1.15c-1.149,-0.574 -1.724,-1.724 -1.724,-2.873c-0,-1.149 0.575,-2.3 1.724,-3.449Zm8.621,-28.162l-2.299,-0c-2.873,-0 -5.747,0.575 -8.046,2.299c-1.724,1.724 -2.873,4.597 -2.873,6.897c-0,1.724 0.574,3.448 1.149,5.173c0.575,1.149 2.299,2.299 3.448,2.873c-1.149,0.575 -1.724,1.15 -2.299,2.299c-0.574,0.575 -1.149,1.724 -1.149,2.873c-0,0.576 -0,1.725 0.575,2.3c0.574,0.575 1.149,1.149 1.724,1.724c-1.724,0.575 -3.448,1.149 -4.599,2.299c-1.149,1.149 -1.724,2.874 -1.724,4.023c0,2.299 1.151,4.598 2.875,5.747c2.873,1.725 5.746,2.3 8.621,1.725c4.022,-0 8.046,-0.576 11.494,-2.3c2.299,-1.724 4.024,-4.597 4.024,-7.47c-0,-2.3 -0.576,-4.024 -2.3,-5.748c-2.299,-1.149 -4.597,-2.3 -6.897,-1.724l-4.597,-0c-1.15,-0 -2.299,-0 -3.448,-0.576c-0.576,0 -1.151,-0.573 -1.151,-1.149c0,-1.149 0.575,-2.299 1.724,-2.873l2.3,0c2.873,0 5.748,-0.575 8.046,-2.299c1.724,-1.724 2.874,-4.024 2.874,-6.897c0,-1.149 0,-1.724 -0.575,-2.873c0,-0.576 -0.575,-1.725 -1.149,-2.3l4.597,-0.575l0,-3.448l-9.77,-0c0.574,-0 0,-0 -0.575,-0" style="fill:#fff;fill-rule:nonzero;"/><path d="M2715.8,974.904c-0,-1.724 0.574,-4.023 2.298,-5.172c1.15,-1.151 2.875,-1.725 4.599,-1.725c1.724,0 3.448,0.574 4.597,1.725c1.149,1.724 1.724,3.448 1.724,5.172l-13.218,0Zm6.322,-11.495c-3.449,-0 -6.897,1.15 -9.197,4.023c-2.298,2.873 -3.448,6.897 -3.448,10.346c-0,4.023 1.15,7.472 3.448,10.345c2.875,2.873 6.323,4.023 10.346,3.448c1.724,0 3.448,0 5.172,-0.575c1.724,0 2.875,-0.574 4.599,-1.149l0,-4.597c-1.724,0.573 -2.875,1.149 -4.599,1.724c-1.724,0.574 -2.873,0.574 -4.597,0.574c-2.3,-0 -4.024,-0.574 -5.748,-2.298c-1.724,-1.725 -2.298,-4.024 -2.298,-6.323l18.391,-0l0,-3.449c0,-3.448 -1.149,-6.897 -3.448,-9.195c-2.3,-1.724 -5.748,-2.874 -8.621,-2.874" style="fill:#fff;fill-rule:nonzero;"/><path d="M2772.13,963.409c-1.725,-0 -3.449,0.575 -5.173,1.15c-1.149,0.574 -2.873,1.724 -3.448,3.448l-0.576,0c-1.724,-2.874 -5.172,-4.598 -8.621,-4.598c-1.724,-0 -3.448,0.575 -4.597,1.15c-1.149,0.574 -2.873,1.724 -3.448,2.873l-0.576,-3.448l-4.597,-0l-0,27.587l5.748,0l-0,-13.793c-0,-2.3 0.574,-5.173 1.724,-7.473c1.149,-1.724 2.873,-2.298 5.173,-2.298c1.724,0 2.873,0.574 4.022,1.725c1.15,1.149 1.15,2.873 1.15,4.597l0,17.242l5.747,0l-0,-14.369c-0,-2.298 0.575,-4.597 1.724,-6.321c1.15,-1.725 2.874,-2.3 5.172,-2.3c1.151,0 2.875,0.575 4.024,1.724c1.149,1.151 1.149,2.875 1.149,4.599l0,17.242l5.748,0l-0,-17.817c-0,-2.873 -0.575,-5.748 -2.299,-7.472c-2.874,-2.873 -5.747,-4.022 -8.046,-3.448" style="fill:#fff;fill-rule:nonzero;"/><path d="M2793.97,974.904c0,-1.724 0.575,-4.023 1.724,-5.172c1.151,-1.151 2.875,-1.725 4.599,-1.725c1.724,0 3.449,0.574 4.598,1.725c1.149,1.724 1.724,3.448 1.724,5.172l-12.645,0Zm6.897,-11.495c-3.448,-0 -6.897,1.15 -9.195,4.023c-2.299,2.873 -3.448,6.897 -3.448,10.346c-0,4.023 1.149,7.472 3.448,10.345c2.873,2.873 6.322,4.023 10.345,3.448c1.725,0 3.449,0 5.173,-0.575c1.724,0 2.873,-0.574 4.598,-1.149l-0,-4.597c-1.725,0.573 -2.874,1.149 -4.598,1.724c-1.724,0.574 -2.875,0.574 -4.599,0.574c-2.298,-0 -4.022,-0.574 -5.746,-2.298c-1.724,-1.725 -2.3,-4.024 -2.3,-6.323l18.392,-0l-0,-3.449c-0,-3.448 -1.149,-6.897 -3.449,-9.195c-2.298,-1.724 -5.746,-2.874 -8.621,-2.874" style="fill:#fff;fill-rule:nonzero;"/><path d="M2833.62,963.409c-1.724,-0 -3.448,0.575 -5.173,1.15c-1.724,0.574 -2.873,1.724 -3.448,2.873l-0.574,-3.448l-4.599,-0l0,27.587l5.748,0l0,-13.793c0,-2.874 0.575,-5.173 1.724,-7.473c1.149,-1.724 3.449,-2.298 5.173,-2.298c1.724,0 2.873,0.574 4.024,1.725c1.149,1.149 1.149,2.873 1.149,4.597l-0,17.242l5.748,0l-0,-17.817c0.573,-4.598 -2.875,-9.195 -7.473,-10.345l-2.299,-0" style="fill:#fff;fill-rule:nonzero;"/><path d="M2859.49,986.399c-0.574,-0.576 -1.149,-1.725 -1.149,-3.449l0,-14.943l8.046,0l0,-4.598l-8.046,-0l0,-5.747l-3.448,0l-1.724,5.747l-4.024,2.299l-0,2.873l4.024,0l-0,14.944c-0,5.747 2.873,8.621 8.621,8.621l3.448,0c0.575,0 1.724,-0.575 2.299,-0.575l0,-5.172c-1.15,0.575 -2.874,0.575 -4.598,0.575c-1.725,0.574 -2.874,-0 -3.449,-0.575" style="fill:#fff;fill-rule:nonzero;"/></svg>