<?xml version="1.0" encoding="UTF-8" standalone="no"?><!DOCTYPE svg PUBLIC "-//W3C//DTD SVG 1.1//EN" "http://www.w3.org/Graphics/SVG/1.1/DTD/svg11.dtd"><svg width="100%" height="100%" viewBox="0 0 15459 15459" version="1.1" xmlns="http://www.w3.org/2000/svg" xmlns:xlink="http://www.w3.org/1999/xlink" xml:space="preserve" xmlns:serif="http://www.serif.com/" style="fill-rule:evenodd;clip-rule:evenodd;stroke-linejoin:round;stroke-miterlimit:2;"><g id="Illustration"><g><path d="M12221.2,11930.4c-305.417,315 -578.75,500 -787.917,639.583c-2040.42,1362.5 -4373.33,970 -5094.17,835.417c-1163.33,-216.667 -2145.83,-369.167 -2989.58,-1131.67c-1917.5,-1732.08 -1824.17,-5346.25 -359.166,-7584.58c173.75,-265.417 1636.67,-2434.17 3974.17,-2739.58c57.084,-7.5 100,-11.666 137.084,-15.833c361.666,-38.333 2602.5,-240.417 4430,1290.42c261.666,219.166 682.5,614.583 1072.92,1217.08c1427.5,2204.58 1432.08,5618.33 -383.333,7489.17Z" style="fill:#88c9ff;fill-opacity:0.45;fill-rule:nonzero;"/><g><path d="M8680.42,10015.8l63.75,1603.75c11.25,279.584 242.5,500.417 523.333,500l3841.25,-6.25c187.917,-0.416 347.083,-137.916 372.917,-323.333c57.083,-405.417 127.916,-1130.83 36.666,-1810.42l-4837.92,36.25Z" style="fill:#11baff;fill-rule:nonzero;"/><path d="M9378.33,12027.9c-5.833,-0 -10.416,-5 -10.416,-10.834c-0,-5.833 5,-10.833 10.833,-10.833l86.667,0c7.083,-0.833 10.833,5 10.833,10.833c0,5.834 -5,10.834 -10.833,10.834l-87.084,-0Zm288.75,-0.417c-5.833,0 -10.416,-5 -10.416,-10.833c-0,-5.834 5,-10.834 10.833,-10.834l86.667,0c6.25,-0.416 10.833,5 10.833,10.834c-0,5.833 -5,10.833 -10.833,10.833l-87.084,0Zm288.75,-0.833c-5.833,-0 -10.416,-5 -10.416,-10.834c-0,-5.833 5,-10.833 10.833,-10.833l86.667,0c6.666,0.417 10.833,5 10.833,10.833c0,5.834 -5,10.834 -10.833,10.834l-87.084,-0Zm288.75,-0.417c-5.833,0 -10.416,-5 -10.416,-10.833c-0,-5.834 5,-10.834 10.833,-10.834l86.667,0c6.25,0.417 10.833,5 10.833,10.834c-0,5.833 -5,10.833 -10.833,10.833l-87.084,0c0.417,0 0,0 0,0Zm-1064.58,-30.417c-1.25,0 -2.5,-0.416 -3.333,-0.833c-27.5,-10.417 -54.167,-23.333 -79.584,-38.333c-5,-2.917 -6.666,-9.584 -3.75,-15c2.917,-5 9.584,-7.084 15,-3.75c24.167,14.166 50,26.666 76.25,36.666c5.417,2.084 8.334,8.334 6.25,14.167c-2.083,4.583 -6.25,7.5 -10.833,7.083Zm1353.33,30c-5.833,0 -10.416,-5 -10.416,-10.833c-0,-5.833 5,-10.833 10.833,-10.833l86.667,-0c5.833,-0 10.833,5 10.833,10.833c0,5.833 -5,10.833 -10.833,10.833l-87.084,0c0.417,0 0,0 0,0Zm288.75,-0.416c-5.833,-0 -10.416,-5 -10.416,-10.834c-0,-5.833 5,-10.833 10.833,-10.833l86.667,0c6.25,-0.417 10.833,5 10.833,10.833c0,5.834 -5,10.834 -10.833,10.834l-87.084,-0c0.417,-0 0,-0 0,-0Zm288.75,-0.417c-5.833,0 -10.416,-5 -10.416,-10.833c-0,-5.834 5,-10.834 10.833,-10.834l86.667,0c7.083,-0.416 10.833,5 10.833,10.834c0,5.833 -5,10.833 -10.833,10.833l-87.084,0Zm288.75,-0.417c-5.833,0 -10.416,-5 -10.416,-10.833c-0,-5.833 5,-10.833 10.833,-10.833l86.667,-0c6.666,-0.417 10.833,5 10.833,10.833c0,5.833 -5,10.833 -10.833,10.833l-87.084,0Zm289.167,-0.416c-5.833,-0 -10.417,-5 -10.417,-10.834c0,-5.833 5,-10.833 10.834,-10.833l86.666,0c7.084,0.417 10.834,5 10.834,10.833c-0,5.834 -5,10.834 -10.834,10.834l-87.083,-0Zm288.75,-0.834c-5.833,0 -10.417,-5 -10.417,-10.833c0,-5.833 5,-10.833 10.834,-10.833l86.666,-0c6.667,0.833 10.834,5 10.834,10.833c-0,5.833 -5,10.833 -10.834,10.833l-87.083,0Zm288.75,-0.416c-5.833,-0 -10.417,-5 -10.417,-10.834c0,-5.833 5,-10.833 10.834,-10.833l86.666,0c7.084,0.417 10.834,5 10.834,10.833c-0,5.834 -5,10.834 -10.834,10.834l-87.083,-0Zm288.75,-0.417c-5.833,0 -10.417,-5 -10.417,-10.833c0,-5.834 5,-10.834 10.834,-10.834l86.666,0c7.084,-0.416 10.834,5 10.834,10.834c-0,5.833 -5,10.833 -10.834,10.833l-87.083,0Zm288.75,-0.417c-5.833,0 -10.417,-5 -10.417,-10.833c0,-5.833 5,-10.833 10.834,-10.833l86.666,-0c5.834,-0.417 10.834,5 10.834,10.833c-0,5.833 -5,10.833 -10.834,10.833l-87.083,0Zm286.667,-20.416c-4.167,-0 -8.334,-2.917 -10,-7.084c-2.084,-5.833 0.833,-11.666 6.666,-13.75c26.667,-9.166 51.667,-21.666 75.417,-37.083c5,-3.333 11.667,-1.667 15,3.333c3.333,5 1.667,11.667 -3.333,15c-25,16.25 -51.667,29.584 -80,39.167c-1.25,0.417 -2.5,0.417 -3.75,0.417Zm-4177.08,-177.917c-3.333,-0 -6.25,-1.667 -8.333,-4.583c-17.5,-23.75 -32.917,-49.167 -45.833,-75.834c-2.5,-5.416 -0.417,-11.666 5,-14.583c5.416,-2.5 11.666,-0.417 14.583,5c12.5,25.417 27.083,49.583 43.75,72.5c3.333,5 2.5,11.667 -2.5,15c-2.083,2.083 -4.583,2.5 -6.667,2.5Zm4385,-10.833c-1.25,-0 -2.916,-0.417 -4.166,-0.834c-5.417,-2.5 -7.917,-8.75 -5.417,-14.166c11.667,-25.417 20,-52.5 25.417,-80c1.25,-5.834 6.666,-9.584 12.5,-8.75c5.833,1.25 9.583,6.666 8.75,12.5c-5.417,29.166 -14.584,57.916 -27.084,85c-1.666,3.75 -5.833,6.25 -10,6.25Zm-4479.58,-257.5c-5.417,-0 -10.417,-4.584 -10.417,-10.417l-3.333,-86.667c-0.417,-5.833 4.583,-10.833 10.417,-11.25c5.833,-0.416 10.833,4.584 11.25,10.417l3.333,86.25c0.417,5.833 -4.167,11.25 -10.417,11.25c-0.416,0.417 -0.833,0.417 -0.833,0.417Zm4532.08,-25.417l-0.833,0c-5.833,-0.833 -10,-6.25 -9.583,-12.083c3.333,-27.917 6.666,-56.667 9.583,-85.834c0.833,-5.833 6.25,-10.416 12.083,-9.583c5.834,0.833 10.417,5.833 9.584,12.083c-3.334,29.584 -6.25,58.334 -9.584,86.25c-0.833,5.417 -5.833,9.167 -11.25,9.167Zm-4543.75,-263.333c-5.833,-0 -10.416,-4.584 -10.416,-10.417l-3.334,-86.667c-0.416,-5.833 4.584,-10.833 10.417,-11.25c6.25,-0.416 10.833,4.584 11.25,10.417l3.333,86.667c0.417,5.833 -4.583,10.833 -10.416,11.25l-0.834,-0Zm4572.08,-24.167l-0.417,0c-5.833,-0.417 -10.417,-5.833 -10,-11.667c2.5,-28.333 4.583,-57.083 6.667,-86.25c0.416,-5.833 6.25,-10.416 11.666,-10c5.834,0.417 10.417,5.417 10,11.667c-2.083,29.167 -4.166,58.333 -6.666,86.667c-0.417,5.416 -5.417,10 -11.25,9.583Zm-4583.33,-264.167c-5.833,0 -10.416,-4.583 -10.416,-10.416l-3.334,-86.667c-0.416,-5.833 4.584,-10.833 10.417,-11.25c5.833,-0.417 10.833,4.583 11.25,10.417l3.333,86.666c0.417,5.834 -4.583,10.834 -10.416,11.25l-0.834,0Zm4601.67,-23.75c-0.417,0 -0.417,0 0,0c-6.25,-0.416 -10.833,-5.416 -10.417,-11.25c1.25,-28.75 2.5,-57.5 3.334,-86.666c-0,-5.834 6.25,-11.25 11.25,-10.417c5.833,0 10.833,5 10.416,11.25c-0.833,29.167 -2.083,57.917 -3.333,86.667c-0.417,5.833 -5.417,10.416 -11.25,10.416Zm-4613.33,-265c-5.834,0 -10.417,-4.583 -10.417,-10.416l-3.333,-86.667c-0.417,-5.833 4.583,-10.833 10.416,-11.25c5.834,-0.417 10.834,4.583 11.25,10.417l3.334,86.666c0.416,5.834 -4.584,10.834 -10.417,11.25l-0.833,0Zm4619.58,-23.75c-5.833,0 -10.417,-5 -10.417,-10.833c0,-28.75 0,-57.5 -0.416,-86.25c-0,-5.833 4.583,-10.833 10.833,-10.833c5.417,-0 10.833,4.583 10.833,10.833c0.417,29.167 0.417,57.917 0.417,86.667c0,5.416 -5,10.416 -11.25,10.416Zm-4630.83,-264.583c-5.834,0 -10.417,-4.583 -10.417,-10.417l-3.333,-86.666c-0.417,-5.834 4.583,-10.834 10.416,-11.25c5.834,-0.417 10.834,4.583 11.25,10.416l3.334,86.667c0.416,5.833 -4.584,10.833 -10.417,11.25l-0.833,0Zm4623.75,-24.167c-5.417,0 -10.417,-4.583 -10.417,-10.416c-1.25,-28.75 -2.917,-57.5 -5,-86.25c-0.417,-5.834 4.167,-11.25 10,-11.667c6.25,-0.417 11.25,4.167 11.667,10c2.083,28.75 3.75,57.917 5,86.667c0.416,5.833 -4.167,11.25 -10.417,11.25c0,0.416 -0.417,0.416 -0.833,0.416Zm-4635.42,-264.583c-5.833,0 -10.417,-4.583 -10.417,-10.417l-3.75,-97.916l93.334,-0.834c6.666,0.417 10.833,4.584 10.833,10.834c0,5.833 -4.583,10.833 -10.833,10.833l-71.25,0.417l2.916,75.416c0.417,5.834 -4.583,10.834 -10.416,11.25c-0,0.417 -0,0.417 -0.417,0.417Zm281.25,-88.75c-5.833,0 -10.417,-5 -10.417,-10.833c0,-5.834 4.584,-10.834 10.834,-10.834l86.666,-0.833c7.084,0 10.834,4.583 10.834,10.833c-0,5.834 -4.584,10.834 -10.834,10.834l-87.083,0.833Zm288.75,-2.083c-5.833,-0 -10.417,-5 -10.417,-10.834c0,-5.833 4.584,-10.833 10.834,-10.833l86.666,-0.833c6.25,-0 10.834,4.583 10.834,10.833c-0,5.833 -4.584,10.833 -10.834,10.833l-87.083,0.834Zm288.75,-2.084c-5.833,0 -10.417,-5 -10.417,-10.833c0,-5.833 4.584,-10.833 10.834,-10.833l86.666,-0.834c6.25,0.417 10.834,4.584 10.834,10.834c-0,5.833 -4.584,10.833 -10.834,10.833l-87.083,0.833Zm288.75,-2.5c-5.833,0 -10.417,-5 -10.417,-10.833c0,-5.833 4.584,-10.833 10.834,-10.833l86.666,-0.834c6.667,0 10.834,4.584 10.834,10.834c-0,5.833 -4.584,10.833 -10.834,10.833l-87.083,0.833Zm288.75,-2.083c-5.833,0 -10.417,-5 -10.417,-10.833c0,-5.834 4.584,-10.834 10.834,-10.834l86.666,-0.833c6.667,0.833 10.834,4.583 10.834,10.833c-0,5.834 -4.584,10.834 -10.834,10.834l-87.083,0.833Zm288.75,-2.083c-5.833,-0 -10.417,-5 -10.417,-10.834c0,-5.833 4.584,-10.833 10.834,-10.833l86.666,-0.833c6.667,0.416 10.834,4.583 10.834,10.833c-0,5.833 -4.584,10.833 -10.834,10.833l-87.083,0.834c0.417,-0 0,-0 0,-0Zm2887.92,76.25c-5.417,-0 -10,-4.167 -10.417,-9.584c-3.333,-28.75 -6.667,-57.083 -10.417,-85.833c-0.833,-5.833 3.334,-11.25 9.167,-12.083c5.833,-0.834 11.25,3.333 12.083,9.166c3.75,28.75 7.084,57.5 10.417,86.25c0.833,5.834 -3.75,11.25 -9.583,12.084c-0.417,-0 -0.834,-0 -1.25,-0Zm-2599.17,-78.334c-5.833,0 -10.417,-5 -10.417,-10.833c0,-5.833 4.584,-10.833 10.834,-10.833l86.666,-0.834c6.25,0 10.834,4.584 10.834,10.834c-0,5.833 -4.584,10.833 -10.834,10.833l-87.083,0.833c0.417,0 0,0 0,0Zm288.75,-2.083c-5.833,0 -10.417,-5 -10.417,-10.833c0,-5.834 4.584,-10.834 10.834,-10.834l86.666,-0.833c7.084,-0.417 10.834,4.583 10.834,10.833c-0,5.834 -4.584,10.834 -10.834,10.834l-87.083,0.833c0.417,0 0,0 0,0Zm288.75,-2.5c-5.833,0 -10.417,-5 -10.417,-10.833c0,-5.834 4.584,-10.834 10.834,-10.834l86.666,-0.833c6.25,0.417 10.834,4.583 10.834,10.833c-0,5.834 -4.584,10.834 -10.834,10.834l-87.083,0.833Zm288.75,-2.083c-5.833,-0 -10.417,-5 -10.417,-10.834c0,-5.833 4.584,-10.833 10.834,-10.833l86.666,-0.833c6.667,-0 10.834,4.583 10.834,10.833c-0,5.833 -4.584,10.833 -10.834,10.833l-87.083,0.834Zm288.75,-2.084c-5.833,0 -10.417,-5 -10.417,-10.833c0,-5.833 4.584,-10.833 10.834,-10.833l86.666,-0.834c6.667,-0.416 10.834,4.584 10.834,10.834c-0,5.833 -4.584,10.833 -10.834,10.833l-87.083,0.833Zm289.167,-2.083c-5.834,0 -10.417,-5 -10.417,-10.833c0,-5.834 4.583,-10.834 10.833,-10.834l86.667,-0.833c5.833,0 10.833,4.583 10.833,10.833c0,5.834 -4.583,10.834 -10.833,10.834l-87.083,0.833Zm288.75,-2.5c-5.834,0 -10.417,-5 -10.417,-10.833c0,-5.834 4.583,-10.834 10.833,-10.834l86.667,-0.833c6.667,0 10.833,4.583 10.833,10.833c0,5.834 -4.583,10.834 -10.833,10.834l-87.083,0.833c-0,0.417 -0,0 -0,0Zm288.75,-2.083c-5.834,-0 -10.417,-5 -10.417,-10.834c0,-5.833 4.583,-10.833 10.833,-10.833l86.667,-0.833c6.667,-0.417 10.833,4.583 10.833,10.833c0,5.833 -4.583,10.833 -10.833,10.833l-87.083,0.834Zm288.75,-2.084c-5.834,0 -10.417,-5 -10.417,-10.833c0,-5.833 4.583,-10.833 10.833,-10.833l86.667,-0.834c7.083,0.834 10.833,4.584 10.833,10.834c0,5.833 -4.583,10.833 -10.833,10.833l-87.083,0.833Z" style="fill:#fff;fill-rule:nonzero;"/><path d="M9797.08,8843.33l10.417,-123.75c12.917,-29.583 39.583,-50.833 71.667,-56.25c119.583,-20 415.833,-55.833 559.583,50l22.5,143.75l-664.167,-13.75Z" style="fill:#11baff;fill-rule:nonzero;"/><path d="M10170,8721.25c-27.5,7.083 -55,7.083 -82.917,0.417c-33.333,-7.917 -57.5,-37.917 -57.5,-72.084l-2.916,-387.5l197.083,-1.666l2.917,387.083c0.416,35 -22.917,65.417 -56.667,73.75Z" style="fill:#11baff;fill-rule:nonzero;"/><path d="M11706.7,8828.75l10.416,-123.75c12.917,-29.583 39.584,-50.833 71.667,-56.25c119.583,-20 415.833,-55.833 559.583,50l22.5,143.75l-664.166,-13.75Z" style="fill:#11baff;fill-rule:nonzero;"/><path d="M12079.6,8707.08c-27.5,7.084 -55,7.084 -82.916,0.417c-33.334,-7.917 -57.5,-37.917 -57.5,-72.083l-3.334,-428.334l197.084,-1.666l3.333,427.916c-0,34.584 -23.333,65 -56.667,73.75Z" style="fill:#11baff;fill-rule:nonzero;"/><path d="M10007.5,8357.5l2119.17,-86.25c48.333,-2.083 89.166,-37.083 97.083,-84.583c11.25,-66.25 20.417,-165.834 4.583,-268.75c-18.333,-117.084 -119.583,-203.334 -238.75,-205c-395.416,-6.25 -1402.5,1.25 -1955.42,225c-58.334,23.75 -101.667,74.166 -116.25,135.416c-13.75,58.334 -22.5,136.25 -3.334,215.417c10.417,41.667 49.584,70.417 92.917,68.75Z" style="fill:#11baff;fill-rule:nonzero;"/><path d="M9969.17,8267.08c-14.167,-0.416 -26.25,-11.25 -27.917,-25.833c-0.417,-3.333 -9.167,-86.667 12.083,-167.083c17.084,-65 67.917,-117.5 132.917,-137.084c118.75,-35.833 345.833,-97.083 532.5,-103.333c15.833,-0.417 29.167,11.667 30,27.917c0.417,15.833 -12.083,29.166 -27.917,30c-180,6.25 -401.666,66.25 -517.916,101.25c-45.834,13.75 -81.667,50.833 -93.334,96.25c-18.333,69.583 -10.416,145.416 -10.416,146.25c1.666,15.833 -9.584,30 -25.417,31.666c-2.083,0 -3.333,0 -4.583,0Z" style="fill:url(#_Linear1);fill-rule:nonzero;"/><path d="M8813.33,8802.5c685,-13.75 3647.08,-67.5 4508.75,30c74.167,8.333 135,62.083 151.667,134.583c52.5,229.584 158.75,762.917 150.833,1292.08c-1.25,72.083 -53.333,133.333 -124.583,147.083l-1961.67,386.25l-697.916,5.417l-2096.25,-400.417c-73.75,-14.167 -128.75,-76.25 -133.334,-150.833c-15.416,-266.25 -41.666,-890.834 27.5,-1293.75c14.584,-85.417 87.917,-148.75 175,-150.417Z" style="fill:#11baff;fill-rule:nonzero;"/><path d="M10855.4,10639.6l-1.667,0l-85,-16.25c-5.833,-1.25 -9.583,-6.666 -8.75,-12.5c1.25,-5.833 6.667,-9.583 12.5,-8.75l85,16.25c5.833,1.25 9.583,6.667 8.75,12.5c-0.833,5 -5.417,8.75 -10.833,8.75Zm124.583,-0.833c-5.833,0 -10.417,-5 -10.417,-10.833c0,-5.834 4.584,-10.834 10.834,-10.834l86.666,-0.833c5.834,0.417 10.834,4.583 10.834,10.833c-0,5.834 -4.584,10.834 -10.834,10.834l-87.083,0.833c0.417,0 0,0 0,0Zm288.75,-2.5c-5.833,0 -10.417,-5 -10.417,-10.833c0,-5.834 4.584,-10.834 10.834,-10.834l86.666,-0.833c6.667,-0.417 10.834,4.583 10.834,10.833c-0,5.834 -4.584,10.834 -10.834,10.834l-87.083,0.833Zm288.333,-8.75c-5,0 -9.166,-3.75 -10.416,-8.75c-1.25,-5.833 2.5,-11.667 8.333,-12.917l85,-16.666c5.833,-1.25 11.667,2.5 12.917,8.75c1.25,5.833 -2.5,11.666 -8.334,12.916l-85,16.667l-2.5,0Zm-985.416,-42.083l-1.667,-0l-85,-16.25c-5.833,-1.25 -9.583,-6.667 -8.75,-12.5c1.25,-5.834 6.667,-9.584 12.5,-8.75l85,16.25c5.833,1.25 9.583,6.666 8.75,12.5c-0.833,5 -5.417,8.75 -10.833,8.75Zm-283.334,-54.167l-1.666,0l-85,-16.25c-5.834,-1.25 -9.584,-6.667 -8.75,-12.5c0.833,-5.833 6.666,-9.583 12.5,-8.75l85,16.25c5.833,1.25 9.583,6.667 8.75,12.5c-1.25,5 -5.834,8.75 -10.834,8.75Zm1552.08,40.417c-5,-0 -9.167,-3.75 -10.417,-8.75c-1.25,-5.834 2.5,-11.667 8.333,-12.917l85,-16.667c5.834,-1.25 11.667,2.5 12.917,8.75c1.25,5.834 -2.5,11.667 -8.333,12.917l-85,16.667l-2.5,-0Zm-1835.83,-94.584l-1.666,0l-85,-16.25c-5.834,-1.25 -9.584,-6.666 -8.75,-12.5c1.25,-5.833 6.666,-9.583 12.5,-8.75l85,16.25c5.833,1.25 9.583,6.667 8.75,12.5c-0.834,5 -5.834,8.75 -10.834,8.75Zm2119.17,38.75c-5,0 -9.167,-3.75 -10.417,-8.75c-1.25,-5.833 2.5,-11.666 8.334,-12.916l85,-16.667c5.833,-1.25 11.666,2.5 12.916,8.75c1.25,5.833 -2.5,11.667 -8.333,12.917l-85,16.666l-2.5,0Zm-2402.92,-92.916l-1.666,-0l-85,-16.25c-5.834,-1.25 -9.584,-6.667 -8.75,-12.5c1.25,-5.834 6.666,-9.584 12.5,-8.75l85,16.25c5.833,1.25 9.583,6.666 8.75,12.5c-0.834,5 -5.417,8.75 -10.834,8.75Zm2686.25,37.083c-5,0 -9.166,-3.75 -10.416,-8.75c-1.25,-5.833 2.5,-11.667 8.333,-12.917l85,-16.666c5.833,-1.25 11.667,2.5 12.917,8.75c1.25,6.25 -2.5,11.666 -8.334,12.916l-85,16.667l-2.5,0Zm-2970,-91.25l-1.666,0l-85,-16.25c-5.834,-1.25 -9.584,-6.667 -8.75,-12.5c0.833,-5.833 6.666,-9.583 12.5,-8.75l85,16.25c5.833,1.25 9.583,6.667 8.75,12.5c-0.834,5 -5.417,8.75 -10.834,8.75Zm-283.75,-54.167l-1.666,0l-85,-16.25c-5.834,-1.25 -9.584,-6.666 -8.75,-12.5c1.25,-5.833 6.666,-9.583 12.5,-8.75l85,16.25c5.833,1.25 9.583,6.667 8.75,12.5c-0.834,5 -5.417,8.75 -10.834,8.75Zm3537.08,89.584c-5,-0 -9.167,-3.75 -10.417,-8.75c-1.25,-5.834 2.5,-11.667 8.333,-12.917l85,-16.667c5.834,-1.25 11.667,2.5 12.917,8.75c1.25,5.834 -2.5,11.667 -8.333,12.917l-85,16.667l-2.5,-0Zm-3820.42,-143.75l-1.667,-0l-85,-16.25c-5.833,-1.25 -9.583,-6.667 -8.75,-12.5c1.25,-5.834 6.667,-9.584 12.5,-8.75l85,16.25c5.834,1.25 9.584,6.666 8.75,12.5c-1.25,5 -5.833,8.75 -10.833,8.75Zm4103.75,87.916c-5,0 -9.167,-3.75 -10.417,-8.75c-1.25,-5.833 2.5,-11.666 8.334,-12.916l85,-16.667c5.833,-1.25 11.666,2.5 12.916,8.75c1.25,5.833 -2.5,11.667 -8.333,12.917l-85,16.666l-2.5,0Zm283.333,-55.833c-5,0 -9.166,-3.75 -10.416,-8.75c-1.25,-5.833 2.5,-11.667 8.333,-12.917l85,-16.666c5.833,-1.25 11.667,2.5 12.5,8.75c1.25,5.833 -2.5,11.666 -8.333,12.916l-85,16.667l-2.084,0Zm-4487.08,-245.833c-5.833,-0 -10.417,-4.584 -10.417,-10.417c-1.25,-27.5 -2.083,-56.667 -2.916,-86.667c-0,-5.833 4.583,-10.833 10.416,-11.25c6.25,-0.833 10.834,4.584 11.25,10.417c0.834,30 2.084,58.75 2.917,86.667c0.417,5.833 -4.583,10.833 -10.417,11.25l-0.833,-0Zm4685,119.583c-5.833,0 -10.417,-5 -10.417,-10.833c-0.416,-28.75 -0.833,-57.5 -2.083,-86.25c-0,-5.834 4.583,-10.834 10.417,-11.25c5.833,-0.417 10.833,4.583 11.25,10.416c0.833,28.75 1.666,57.917 2.083,86.667c-0,5.833 -4.583,10.833 -10.833,10.833c-0,0.417 -0.417,0.417 -0.417,0.417Zm-4692.5,-408.75c-5.833,0 -10.417,-5 -10.417,-10.833c-0.416,-28.75 -0.416,-57.5 -0.416,-86.667c-0,-5.833 5,-10.833 10.833,-10.833c5.833,0.833 10.833,5 10.833,10.833c0,29.167 0,57.917 0.417,86.667c-0,5.833 -4.583,10.833 -10.833,10.833l-0.417,0Zm4679.17,120.417c-5.417,-0 -10,-4.584 -10.417,-10c-2.083,-29.167 -4.583,-57.917 -7.5,-86.25c-0.417,-5.834 3.75,-11.25 9.583,-11.667c5.834,-0.833 11.25,3.75 11.667,9.583c2.917,28.75 5.417,57.5 7.5,86.667c0.417,5.833 -4.167,11.25 -10,11.667c-0,-0 -0.417,-0 -0.833,-0Zm-4677.08,-409.167c-5.833,0 -10.833,-5 -10.416,-11.25c0.833,-29.167 1.666,-57.917 2.916,-86.667c0.417,-5.833 4.167,-11.25 11.25,-10.416c5.834,0.416 10.417,5.416 10.417,11.25c-1.25,28.75 -2.083,57.5 -2.917,86.25c-0.416,6.25 -5.416,11.25 -11.25,10.833Zm4646.67,122.083c-5.417,0 -9.583,-4.166 -10.417,-9.583c-3.75,-29.167 -7.916,-57.917 -12.083,-85.833c-0.833,-5.834 3.333,-11.25 9.167,-12.084c5.833,-0.833 11.25,3.334 12.083,9.167c4.167,27.917 7.917,56.667 12.083,85.833c0.834,5.834 -3.333,11.25 -9.166,12.084c-0.417,0.416 -1.25,0.416 -1.667,0.416Zm-44.167,-285.833c-5,0 -9.583,-3.75 -10.416,-8.75c-5.417,-29.583 -10.417,-58.333 -15.834,-85c-1.25,-5.833 2.917,-11.667 8.75,-12.5c5.834,-1.25 11.667,2.5 12.5,8.75c5,27.083 10.417,55.417 15.834,85.417c1.25,5.833 -2.917,11.666 -8.75,12.5c-0.834,-0.417 -1.25,-0.417 -2.084,-0.417Zm-4586.25,-124.583l-0.833,-0c-5.833,-0.417 -10.417,-5.834 -9.583,-11.667c2.5,-29.583 5.833,-58.333 9.166,-86.667c0.834,-5.833 6.25,-10 12.084,-9.583c5.833,0.833 10,6.25 9.583,12.083c-3.333,27.917 -6.667,56.667 -9.167,85.834c-0.416,5.833 -5.416,10.416 -11.25,10Zm118.334,-199.584c-5.834,0 -10.417,-5 -10.417,-10.416c-0,-5.834 4.583,-10.834 10.417,-11.25l86.666,-1.667c5.834,0 10.834,4.583 10.834,10.417c-0,5.833 -4.584,10.833 -10.417,11.25l-86.667,1.666l-0.416,0Zm288.75,-5.416c-5.834,-0 -10.417,-5 -10.417,-10.834c-0,-5.833 4.583,-10.833 10.833,-10.833l86.667,-1.667c5.417,0 10.833,4.584 10.833,10.834c0,5.833 -4.583,10.833 -10.833,10.833l-86.667,1.667l-0.416,-0Zm288.75,-4.584c-5.834,0 -10.417,-5 -10.417,-10.833c-0,-5.833 4.583,-10.833 10.833,-10.833l86.667,-1.25c5.833,-0 10.833,4.583 10.833,10.833c0,5.833 -4.583,10.833 -10.833,10.833l-86.667,1.25l-0.416,0Zm289.166,-4.166c-5.833,-0 -10.416,-5 -10.416,-10.834c-0,-5.833 4.583,-10.833 10.833,-10.833l86.667,-1.25c5.416,0.417 10.833,4.583 10.833,10.833c-0,5.834 -4.583,10.834 -10.833,10.834l-86.667,1.25l-0.417,-0Zm288.75,-3.75c-5.833,-0 -10.416,-5 -10.416,-10.834c-0,-5.833 4.583,-10.833 10.833,-10.833l86.667,-0.833c6.666,0.416 10.833,4.583 10.833,10.833c-0,5.833 -4.583,10.833 -10.833,10.833l-87.084,0.834c0.417,-0 0,-0 0,-0Zm288.75,-2.917c-5.833,0 -10.416,-5 -10.416,-10.833c-0,-5.834 4.583,-10.834 10.833,-10.834l86.667,-0.833c5.833,0.417 10.833,4.583 10.833,10.833c-0,5.834 -4.583,10.834 -10.833,10.834l-87.084,0.833Zm289.167,-2.5c-5.833,0 -10.417,-5 -10.417,-10.833c0,-5.834 4.584,-10.834 10.834,-10.834l86.666,-0.416c6.667,-0 10.834,5 10.834,10.833c-0,5.833 -4.584,10.833 -10.834,10.833l-87.083,0.417Zm2677.08,64.583c-5,0 -9.166,-3.333 -10.416,-8.333l-0.417,-2.5c-21.667,-2.5 -44.583,-4.583 -69.167,-7.083c-5.833,-0.417 -10.416,-5.834 -10,-11.667c0.417,-5.833 6.25,-10.833 11.667,-9.583c25.833,2.5 50,5 72.5,7.5c7.5,0.833 13.333,5.833 15,12.5l1.667,6.666c1.25,5.834 -2.5,11.667 -8.334,12.917c-0.416,-0.833 -1.25,-0.417 -2.5,-0.417Zm-2388.33,-66.25c-5.833,0 -10.417,-5 -10.417,-10.833c0,-5.833 5,-10.833 10.834,-10.833l86.666,-0.417c6.667,0.833 10.834,5 10.834,10.833c-0,5.834 -5,10.834 -10.834,10.834l-87.083,0.416Zm288.75,-0.416c-5.833,-0 -10.417,-5 -10.417,-10.834c0,-5.833 5,-10.833 10.834,-10.833l86.666,0c5.834,0.417 10.834,5 10.834,10.833c-0,5.834 -5,10.834 -10.834,10.834l-87.083,-0Zm288.75,-0c-5.833,-0 -10.417,-5 -10.417,-10.834c0,-5.833 5,-10.833 10.834,-10.833l86.666,0.417l0.417,-0c5.833,-0 10.417,5 10.417,10.833c-0,5.833 -5,10.833 -10.834,10.833l-87.083,-0.416Zm288.75,1.666c-5.833,0 -10.417,-5 -10.417,-10.833c0,-5.833 5,-10.833 10.834,-10.833l86.666,0.833c7.084,0.833 10.834,5 10.834,10.833c-0,5.834 -5,10.834 -10.834,10.834l-87.083,-0.834Zm1241.25,32.084c-27.917,-1.667 -56.667,-3.334 -86.667,-4.584c-5.833,-0.416 -10.416,-5.416 -10.416,-11.25c0.416,-5.833 5,-10.833 11.25,-10.416c30,1.666 58.75,3.333 86.666,4.583c5.834,0.417 10.417,5.417 10,11.25c0,6.25 -5,10.833 -10.833,10.417Zm-952.5,-29.167c-5.833,0 -10.417,-5 -10.417,-10.833c0,-5.834 5,-10.834 10.834,-10.834c29.166,0.417 58.333,0.834 86.666,1.25c5.834,0 10.834,5 10.417,10.834c-0,5.833 -5,10.833 -10.833,10.833c-28.334,-0.417 -57.084,-0.833 -86.667,-1.25Zm664.167,15.833c-28.334,-0.833 -57.084,-2.083 -86.667,-2.916c-5.833,-0 -10.833,-5 -10.417,-11.25c0,-5.834 5,-10.834 11.25,-10.417c29.584,0.833 58.334,2.083 86.667,2.917c5.833,0.416 10.833,5.416 10.417,11.25c-0.417,5.833 -5.417,10.416 -11.25,10.416Zm-375.417,-10.833c-5.833,0 -10.833,-5 -10.417,-11.25c0,-5.833 5,-10.833 11.25,-10.417c29.584,0.417 58.334,1.25 86.667,2.084c5.833,-0 10.833,5 10.417,11.25c-0,5.833 -5,10.833 -11.25,10.416c-28.334,-0.833 -57.084,-1.25 -86.667,-2.083Z" style="fill:#fff;fill-rule:nonzero;"/><path d="M11474.6,11086.2l-611.25,4.583c-80,0.417 -147.916,-58.333 -158.333,-137.5l-75,-587.916c-12.083,-93.75 60.833,-176.667 155.833,-177.5l734.584,-5.417c92.916,-0.833 166.25,77.917 158.75,170l-47.917,588.75c-6.667,81.667 -74.583,144.583 -156.667,145Z" style="fill:#ddedff;fill-rule:nonzero;"/><path d="M11398.8,10978.8l-465.417,3.333c-60.833,0.417 -112.5,-44.583 -120.416,-104.583l-57.084,-447.5c-9.166,-71.25 46.25,-134.583 118.75,-135l559.167,-4.167c70.833,-0.416 126.667,59.584 120.833,129.584l-36.666,447.916c-5,62.084 -56.667,110 -119.167,110.417Z" style="fill:#44b0ff;fill-rule:nonzero;"/></g><g><path d="M9582.92,11938.8c-15.834,287.917 -277.084,517.083 -584.167,517.083l-5322.92,0c-307.916,0 -566.666,-229.583 -577.916,-518.333l-352.5,-8931.25c-14.584,-372.083 260,-675 613.75,-673.75l6115,20c352.083,1.25 620.833,304.583 600.416,675.417l-491.666,8910.83Z" style="fill:#eefeff;fill-rule:nonzero;"/><path d="M9476.25,2541.67l-6100,-19.584c-254.583,-0.833 -453.333,217.5 -443.333,485.834l330.833,8932.08c7.917,208.75 194.583,377.083 417.5,377.083l5334.17,0.417c222.083,0 410.833,-167.917 421.666,-376.25l472.917,-8912.08c14.167,-267.5 -180,-486.667 -433.75,-487.5Z" style="fill:#44b0ff;fill-opacity:0.5;fill-rule:nonzero;"/><g><path d="M3907.5,3190.42c3.333,134.166 -97.083,242.5 -224.167,242.083c-127.083,-0.417 -233.75,-109.167 -237.5,-243.333c-4.166,-134.584 96.25,-243.75 224.167,-243.334c127.917,0 234.167,110 237.5,244.584Z" style="fill:#fff;fill-rule:nonzero;"/><path d="M9396.25,3206.67c-6.25,133.75 -114.167,241.666 -240.833,241.666c-126.667,-0.416 -225,-108.75 -219.584,-242.916c5.417,-134.584 113.334,-243.334 240.834,-242.917c127.916,0 225.833,109.583 219.583,244.167Z" style="fill:#fff;fill-rule:nonzero;"/></g><g><path d="M4117.92,11762.9c2.5,106.25 -87.084,191.666 -200,191.666c-112.917,0 -207.5,-85.833 -210.417,-192.083c-3.333,-106.25 86.25,-192.917 200,-192.917c113.333,0.417 207.917,87.084 210.417,193.334Z" style="fill:#fff;fill-rule:nonzero;"/><path d="M8998.33,11764.2c-5,105.833 -100.416,191.666 -212.916,191.666c-112.917,0 -200.834,-85.833 -196.25,-191.666c4.166,-106.25 99.583,-192.5 212.916,-192.5c113.334,-0.417 201.25,86.25 196.25,192.5Z" style="fill:#fff;fill-rule:nonzero;"/></g><g><path d="M7946.67,5400.42c-24.584,861.666 -719.584,1544.58 -1552.92,1542.92c-833.75,-1.666 -1518.75,-687.5 -1529.58,-1550c-10.834,-882.916 685,-1611.67 1555,-1609.58c869.166,2.5 1552.5,734.583 1527.5,1616.67Z" style="fill:#fff;fill-rule:nonzero;"/><path d="M7705.42,5399.58c-18.334,727.917 -604.584,1306.67 -1309.58,1305.42c-705.416,-1.25 -1282.92,-582.917 -1290,-1311.25c-7.083,-742.917 580.417,-1355 1311.25,-1352.92c730.834,2.084 1307.08,616.25 1288.33,1358.75Z" style="fill:url(#_Linear2);fill-rule:nonzero;"/><path d="M7407.92,5399.17c-12.084,562.5 -464.167,1011.67 -1010,1010.83c-546.25,-1.25 -991.25,-452.083 -994.167,-1015c-2.917,-571.667 449.583,-1040 1010.83,-1038.75c561.25,0.833 1005.83,471.667 993.334,1042.92Z" style="fill:#fff;fill-rule:nonzero;"/><path d="M6862.92,5397.92c-3.75,257.5 -209.584,464.583 -460.417,463.75c-250.417,-0.417 -453.333,-208.334 -452.917,-465.834c0.417,-259.166 206.667,-470.416 460.417,-469.583c253.75,0.417 456.25,212.5 452.917,471.667Z" style="fill:url(#_Linear3);fill-rule:nonzero;"/><g><path d="M6120.42,5399.58c-10.834,0 -19.167,-8.75 -19.167,-19.583c0.833,-176.25 141.667,-320.417 314.167,-320c10.416,0 20.833,0.417 30.833,1.667c10.833,1.25 18.333,10.833 17.083,21.666c-1.25,10.834 -10.416,18.75 -21.25,17.917c-8.75,-0.833 -17.916,-1.25 -27.083,-1.25c-151.25,-0.417 -274.583,125.417 -275.417,280c0,10.417 -8.333,19.583 -19.166,19.583Z" style="fill:#91b3fa;fill-rule:nonzero;"/></g></g><g><path d="M8500.42,9476.25c-42.5,1120 -1001.25,2002.08 -2142.92,2001.67c-1142.5,-0.417 -2088.75,-884.167 -2113.75,-2005.83c-25.417,-1158.33 935.833,-2123.75 2146.67,-2121.67c1210,1.666 2153.75,969.166 2110,2125.83Z" style="fill:#fff;fill-rule:nonzero;"/><path d="M8167.5,9475.83c-31.667,947.084 -840.417,1696.25 -1807.5,1695.83c-967.917,-0.417 -1765.83,-751.25 -1782.5,-1699.17c-16.667,-974.167 793.75,-1782.92 1810.42,-1781.25c1015.83,1.667 1812.08,811.25 1779.58,1784.58Z" style="fill:url(#_Linear4);fill-rule:nonzero;"/><path d="M7756.67,9475.42c-20,732.5 -643.75,1315 -1393.75,1314.58c-750.417,-0.417 -1365.42,-584.167 -1374.17,-1317.5c-8.75,-748.75 616.25,-1366.67 1395.42,-1365.42c779.166,1.25 1393.33,620.417 1372.5,1368.33Z" style="fill:#fff;fill-rule:nonzero;"/><path d="M7003.75,9474.58c-5.833,335.834 -290,605.417 -635.417,605c-345.416,-0.416 -625.416,-270.416 -625.833,-606.25c-0.417,-339.166 284.167,-615.833 635.417,-615.833c351.666,0.833 631.666,278.333 625.833,617.083Z" style="fill:url(#_Linear5);fill-rule:nonzero;"/><g><path d="M5978.75,9477.92c-14.583,-0 -26.667,-11.667 -26.667,-25.834c0.417,-230.833 195,-419.166 433.75,-419.166c14.167,-0 28.75,0.833 42.5,2.083c14.584,1.25 25.417,14.167 23.75,28.333c-1.666,14.167 -14.583,24.584 -29.583,23.334c-12.5,-1.25 -25,-1.667 -37.5,-1.667c-208.75,-0.417 -379.583,165 -380,367.083c0.417,14.584 -11.667,25.834 -26.25,25.834Z" style="fill:#91b3fa;fill-rule:nonzero;"/></g></g></g><g><path d="M3230,6839.58c0,0 -115.833,-225.416 -7.083,-292.916c108.75,-67.5 195.833,32.916 239.166,83.333c43.334,50.417 -102.916,247.083 -141.666,263.333c-38.75,15.834 -90.417,-53.75 -90.417,-53.75Z" style="fill:url(#_Linear6);fill-rule:nonzero;"/><path d="M3348.33,6800.42c0,-0 -378.333,994.583 280,1386.25c93.334,55.416 119.167,178.333 60,268.75c-12.916,19.583 -27.083,39.166 -42.916,58.333c-76.25,91.25 -216.25,91.667 -293.334,1.25c-211.25,-247.083 -567.916,-840 -112.083,-1682.08l108.333,-32.5Z" style="fill:url(#_Linear7);fill-rule:nonzero;"/><path d="M3994.17,10876.7l-487.084,-136.25l-122.083,699.166c0,0 -197.917,2.917 -361.25,104.584c-163.333,101.666 -740,634.583 -740,634.583l-100.833,-23.333l-38.75,24.583l-56.25,428.333l161.25,-227.916c25.416,-36.25 95.833,-91.667 94.583,-95.834c311.25,-147.5 1059.58,-575 1258.33,-689.166c32.084,-18.334 57.917,-45.834 74.167,-79.167l317.917,-639.583Z" style="fill:url(#_Linear8);fill-rule:nonzero;"/><path d="M3962.5,12924.6c-4.167,0 -7.917,0.417 -12.083,0c17.916,-225 100.416,-1215.83 182.916,-1587.08c93.334,-420 -140,-1260 -140,-1260l-420,420l233.334,793.333c-48.861,73.291 -65.431,255.186 -64.996,472.507c0.991,494.326 89.973,1171.95 87.079,1171.66l0.417,2.917l-60.834,83.75l7.5,45.416l372.084,219.584l-146.25,-237.5c-23.75,-37.917 -36.667,-80.417 -39.167,-124.584Z" style="fill:url(#_Linear9);fill-rule:nonzero;"/><path d="M4172.08,13321.2l-118.75,0c-22.083,0 -43.333,-10 -56.666,-27.917c-37.084,-47.916 -113.75,-142.083 -150.417,-144.166c-49.167,-3.334 -42.917,172.083 -42.917,172.083l-27.5,0l-35,-217.917c-8.75,-55 18.334,-109.166 67.917,-135c-0,0 11.25,83.334 72.5,120.417c61.25,37.083 248.75,169.167 248.75,169.167c0,-0 22.917,-3.334 48.333,1.25c37.084,6.666 31.667,62.083 -6.25,62.083Z" style="fill:url(#_Linear10);fill-rule:nonzero;"/><path d="M2065.83,12644.6l-46.666,-109.166c-8.75,-20.417 -7.5,-43.75 3.333,-62.917c29.583,-52.917 85.833,-160 73.75,-195c-16.25,-46.667 -175.417,27.917 -175.417,27.917l-10.833,-25.417l186.667,-117.5c47.083,-29.583 107.5,-25.833 150.833,9.583c0,0 -72.5,42.917 -82.5,113.75c-10,70.834 -57.917,295.417 -57.917,295.417c0,0 12.084,20 17.917,45c8.75,36.25 -44.167,53.333 -59.167,18.333Z" style="fill:url(#_Linear11);fill-rule:nonzero;"/><path d="M4100.42,9367.5c-0,0 -13.75,84.167 6.25,315.417c20,231.25 116.25,774.166 96.666,1293.75c0,-0 -273.333,63.75 -747.916,33.333c-0,0 -200.417,-811.25 -151.667,-1119.58c48.75,-308.334 313.75,-529.584 313.75,-529.584l482.917,6.667Z" style="fill:url(#_Linear12);fill-rule:nonzero;"/><path d="M3898.33,7822.08l33.75,392.917l-317.5,0l78.75,-599.583l205,206.666Z" style="fill:url(#_Linear13);fill-rule:nonzero;"/><path d="M3520.42,8160.42c109.583,-5.834 354.166,-17.084 527.916,-7.917c91.25,5 167.917,70.417 186.667,160l42.5,202.917c15.833,75.416 13.333,153.75 -6.667,228.333l-170,623.75c0,0 -151.25,90.833 -482.916,-6.25c-0,0 -291.25,-695 -172.084,-1139.58c8.75,-34.584 39.167,-59.167 74.584,-61.25Z" style="fill:#91b3fa;fill-rule:nonzero;"/><path d="M4032.92,7368.75c11.25,6.667 100.416,321.667 25.833,453.75c-75,132.083 -303.333,-15.833 -365,-206.667c-62.083,-191.25 37.5,-425.416 339.167,-247.083Z" style="fill:url(#_Linear14);fill-rule:nonzero;"/><path d="M3440.83,7615.42c-51.25,251.25 -220.833,182.5 -341.25,294.166c-195,180.834 -473.75,-5.416 -744.583,165.834c-195.833,123.75 -290,440.833 -196.25,696.666c130,354.167 574.583,500 805,392.084c220,-103.334 188.75,-412.084 485,-531.25c125.833,-50.834 187.917,-17.917 263.333,-92.917c131.667,-131.667 96.25,-386.667 82.5,-485c-29.583,-213.333 -101.25,-252.083 -67.083,-345.833c66.667,-182.5 376.667,-144.584 402.5,-273.334c23.333,-117.083 -201.25,-339.583 -412.917,-304.583c-327.5,54.167 -253.333,372.083 -276.25,484.167Z" style="fill:url(#_Linear15);fill-rule:nonzero;"/><path d="M2256.25,8712.08c-3.75,0 -7.5,-2.5 -8.333,-6.666c-42.084,-173.75 -22.917,-316.667 56.666,-424.167c131.667,-178.333 387.917,-195.833 390.417,-196.25c4.167,-0.833 8.75,3.333 9.167,7.917c0.416,4.583 -3.334,8.75 -7.917,9.166c-2.5,0 -250.833,17.5 -377.917,189.167c-76.25,103.333 -94.166,240.833 -53.75,409.583c1.25,4.584 -1.666,9.167 -6.25,10.417c-0.416,0.417 -1.25,0.833 -2.083,0.833Z" style="fill:#fff;fill-opacity:0.6;fill-rule:nonzero;"/><path d="M3095.42,8871.25l-1.25,0c-2.084,-0.417 -3.75,-2.917 -2.917,-5.417c40.833,-156.666 112.5,-265.416 212.917,-323.333c72.916,-42.083 141.25,-46.25 201.666,-49.583c58.334,-3.334 108.334,-6.25 148.75,-42.084c83.75,-74.166 78.75,-252.916 -14.583,-531.25c-0.833,-2.083 0.417,-4.583 2.917,-5.416c2.083,-0.834 4.583,0.416 5.416,2.916c94.167,281.667 98.334,463.75 12.084,540.417c-42.5,37.917 -94.167,40.833 -154.167,44.167c-59.583,3.333 -126.667,7.083 -197.917,48.333c-98.333,56.667 -168.75,163.75 -208.75,317.917c-0.416,2.083 -2.5,3.333 -4.166,3.333Z" style="fill:#fff;fill-opacity:0.72;fill-rule:nonzero;"/><path d="M3562.08,7552.92c-0.416,-0 -0.833,-0 -1.25,-0.417c-2.083,-0.833 -3.333,-3.333 -2.5,-5.417c32.5,-96.666 125.834,-82.083 225,-67.083c62.5,9.583 127.5,19.583 182.5,3.333c40.834,-12.083 65.417,-30.833 72.5,-55.833c12.084,-42.5 -30,-90 -30.416,-90.417c-1.667,-1.666 -1.25,-4.583 0.416,-6.25c1.667,-1.666 4.584,-1.25 5.834,0.417c2.083,2.083 45.833,51.25 32.5,98.75c-7.917,27.917 -34.167,48.75 -78.334,62.083c-56.666,16.667 -122.5,6.667 -186.25,-2.916c-99.583,-15.417 -185.416,-28.334 -215.416,61.25c-1.25,1.666 -2.917,2.5 -4.584,2.5Z" style="fill:#fff;fill-opacity:0.72;fill-rule:nonzero;"/><path d="M4800,6970.83c0,0 167.917,-189.583 79.583,-282.083c-88.333,-92.5 -197.916,-16.667 -252.5,21.25c-54.583,37.917 38.334,265 71.667,290.417c34.167,25 101.25,-29.584 101.25,-29.584Z" style="fill:url(#_Linear16);fill-rule:nonzero;"/><path d="M4695.42,6903.75c-0,0 119.583,1057.5 -615.417,1272.92c-104.167,30.416 -159.583,142.916 -124.583,245.416c7.5,22.084 16.666,44.584 27.083,67.084c51.25,107.5 186.667,142.5 283.75,74.166c265.833,-187.083 758.75,-672.5 526.667,-1601.67l-97.5,-57.917Z" style="fill:url(#_Linear17);fill-rule:nonzero;"/></g><g><g><path d="M9339.58,11062.1c0,0 68.334,-101.25 143.334,-195c29.166,-36.666 80.416,-44.166 112.5,-17.083c108.333,92.083 339.583,290 415.833,368.75c11.25,11.667 6.667,32.917 -9.583,41.25c-13.334,7.083 -28.75,8.75 -42.084,5l-543.75,-153.75l-76.25,-49.167Z" style="fill:url(#_Linear18);fill-rule:nonzero;"/><path d="M9281.25,11104.2l111.25,-93.75c0,-0 103.333,33.75 117.5,117.5l-139.583,90l-89.167,-113.75Z" style="fill:url(#_Linear19);fill-rule:nonzero;"/><path d="M6820,8595.83c-173.333,-388.75 -336.667,-970 -146.25,-1550.42l110.417,-110.417c-0,0 -0,909.583 226.25,1361.25c-62.917,100 -126.25,200 -190.417,299.583Z" style="fill:url(#_Linear20);fill-rule:nonzero;"/><path d="M6810.83,6760.83l41.667,62.5c11.667,17.084 14.583,38.75 7.917,58.334c-17.084,51.25 -55,152.083 -109.167,205.833c-74.167,74.167 -148.333,-103.75 -163.333,-163.333c-15,-59.584 89.166,-207.917 118.75,-237.5c30,-29.584 148.75,-14.584 104.166,74.166Z" style="fill:url(#_Linear21);fill-rule:nonzero;"/><path d="M7379.58,12880.4c0,-0 21.25,120.833 31.667,240.416c4.167,46.667 -32.083,87.084 -78.75,89.167c-159.167,6.667 -499.583,19.583 -621.667,14.167c-18.333,-0.834 -30.416,-19.584 -23.75,-36.667c5.834,-14.167 16.667,-25.833 30.834,-32.5l562.5,-258.333l99.166,-16.25Z" style="fill:url(#_Linear22);fill-rule:nonzero;"/><path d="M7397.08,12809.6l-17.083,144.584c0,-0 -98.333,45.833 -165.833,-5.834l40.833,-160.833l142.083,22.083Z" style="fill:url(#_Linear23);fill-rule:nonzero;"/><path d="M7384.17,10093.8c7.5,37.917 39.583,1882.08 -157.5,2708.75c-3.334,13.333 3.75,27.5 16.666,32.5c30.417,12.5 89.584,30.417 160.417,32.5c22.083,0.833 41.667,-13.75 47.917,-34.583c56.25,-191.667 443.75,-1301.67 478.75,-2219.58c39.166,-1025.83 -140.417,-520 -140.417,-520l-405.833,0.417Z" style="fill:url(#_Linear24);fill-rule:nonzero;"/><path d="M8235.83,10127.1c165.417,417.084 219.584,482.084 293.334,958.334c88.333,570.833 520.416,176.666 750.833,-8.75c29.167,-23.334 115.833,60.416 124.167,178.333c10.833,153.75 -920.834,883.75 -1172.92,367.917c-160.833,-329.584 -205.417,-700.834 -312.5,-905.834c-13.333,-25.416 -35,-45.833 -61.667,-57.083l-328.75,-140.833l-92.916,-322.917l800.416,-69.167Z" style="fill:url(#_Linear25);fill-rule:nonzero;"/><path d="M8415.83,8645.83c173.334,-388.75 336.667,-970 146.25,-1550.42l-110.416,-110.417c-0,0 -0,909.583 -226.25,1361.25c63.333,100 126.666,200 190.416,299.583Z" style="fill:url(#_Linear26);fill-rule:nonzero;"/><path d="M7383.75,8506.67l544.167,-0c54.583,-0 107.083,-20.834 146.666,-58.75c50.834,-48.334 115.834,-130 162.084,-258.75c7.083,-19.584 27.916,-30.417 47.916,-24.167c70,20.833 223.334,80 303.75,218.333c7.5,12.917 7.5,29.167 -0.833,41.667l-339.583,525.417l33.333,1295.83c0,0 -852.917,133.75 -970,0l-117.083,-1187.5c-0,0 -417.917,-250.833 -535,-652.083l351.25,-200.834c-0,0 40.833,1.667 75.833,95.834c46.25,123.75 165.417,205 297.5,205Z" style="fill:#4cdcff;fill-rule:nonzero;"/><path d="M7849.58,8110.83l12.5,420c0.834,27.084 -15.833,51.25 -41.666,59.584c-52.084,17.5 -147.084,38.75 -252.917,15.833c-31.667,-6.667 -51.667,-37.917 -46.25,-70l57.5,-330.833l270.833,-94.584Z" style="fill:url(#_Linear27);fill-rule:nonzero;"/><g><path d="M7561.67,7726.25c-3.75,4.583 -130.834,350 -186.667,502.5c-14.167,38.333 6.667,80.833 46.25,93.333l122.917,22.5c81.25,15 162.083,-28.333 195,-104.583l147.916,-172.083c80.417,-93.75 52.917,-238.334 -57.083,-294.584c-108.75,-55.416 -227.5,-97.916 -268.333,-47.083Z" style="fill:url(#_Linear28);fill-rule:nonzero;"/><path d="M7806.25,8106.25l-35,-17.5c0,0 140.417,-228.333 -17.5,-245.833c-158.333,-17.5 -298.75,-52.917 -298.75,-140.417c0,-87.917 0,-245.833 193.333,-175.833c193.334,70.416 175.834,193.333 281.25,210.833c105.417,17.5 193.334,35 158.334,140.417c-35,105.416 -105.417,175.833 -70.417,210.833c34.583,35 -123.333,210.833 -211.25,17.5Z" style="fill:url(#_Linear29);fill-rule:nonzero;"/><path d="M7768.75,8174.58c0,0 29.167,-154.583 94.583,-158.333c65.417,-3.75 125,52.917 55.417,136.667c-86.667,104.166 -150,21.666 -150,21.666Z" style="fill:url(#_Linear30);fill-rule:nonzero;"/></g><path d="M8425.42,6811.25l-41.667,62.5c-11.667,17.083 -14.583,38.75 -7.917,58.333c17.084,51.25 55,152.084 109.167,205.834c74.167,74.166 148.333,-103.75 163.333,-163.334c15,-59.583 -89.166,-207.916 -118.75,-237.5c-30,-30 -148.75,-15 -104.166,74.167Z" style="fill:url(#_Linear31);fill-rule:nonzero;"/></g><g><path d="M7545,7730l-0.833,0c-0.834,0 -23.75,-5 -37.084,-30c-14.166,-27.083 -10.833,-66.667 10.417,-117.083c0.833,-1.667 2.917,-2.5 4.583,-2.084c1.667,0.834 2.5,2.917 2.084,4.584c-20,47.5 -23.75,85.833 -10.417,110.833c11.667,21.667 32.083,26.25 32.083,26.25c2.084,0.417 3.334,2.083 2.917,4.167c-0.833,2.5 -2.083,3.333 -3.75,3.333Z" style="fill:#fff;fill-rule:nonzero;"/></g></g><g><path d="M10173.8,9834.17c1.667,-0.417 808.333,-1413.75 917.5,-1546.67c18.333,-22.5 46.667,-33.75 75.417,-30.417l225,26.667l264.583,572.5l-440.833,-256.667c43.75,301.667 -522.5,750 -716.667,913.334c-19.583,16.666 -21.25,46.25 -3.333,65l77.5,81.25c-127.084,129.166 -274.167,211.666 -440,250l40.833,-75Z" style="fill:url(#_Linear32);fill-rule:nonzero;"/><path d="M10527.9,9615.42c-0,-0 49.583,15.833 66.25,60c7.916,21.25 -0.417,45 -19.167,57.916c-81.667,58.334 -350.417,246.667 -474.167,283.75c-10,2.917 -20,-6.25 -17.5,-16.666c6.25,-28.75 27.084,-86.25 93.334,-170.417l-5.834,12.083c-7.5,15.417 9.167,31.25 23.75,22.917c82.917,-46.667 252.084,-149.167 333.334,-249.583Z" style="fill:url(#_Linear33);fill-rule:nonzero;"/><path d="M10488.3,10180.8c1.25,-0.833 122.5,-292.5 123.75,-293.333c110.834,-675.833 381.667,-1254.58 461.667,-1406.67c13.333,-25.416 38.75,-42.5 67.917,-45l225.833,-19.166l375,507.083l-483.75,-162.083c103.75,286.666 -360,840 -517.083,1039.58c-15.834,20.417 -11.667,49.583 9.583,64.167l92.5,63.75c-98.333,152.083 -225.417,262.916 -380,334.166l24.583,-82.5Z" style="fill:url(#_Linear34);fill-rule:nonzero;"/><path d="M10790.8,9895c0,0 51.667,5.833 77.084,45.417c12.083,19.166 8.333,44.166 -6.667,60.833c-67.917,73.75 -292.917,312.5 -407.083,373.75c-9.167,5 -20.834,-2.083 -20.417,-12.5c0.417,-29.583 8.75,-90 56.667,-185.833l-3.334,12.916c-4.166,16.25 15,28.75 27.917,17.5c71.667,-62.916 216.25,-197.5 275.833,-312.083Z" style="fill:url(#_Linear35);fill-rule:nonzero;"/><g><path d="M12425,8309.58c0,0 204.583,304.167 221.25,442.917c16.667,138.75 -56.667,186.667 -270.417,204.167c-636.666,52.5 -950.416,-138.334 -950.416,-138.334c-43.75,-277.916 -74.584,-348.333 -438.334,-499.166c0,-0 460,36.666 552.5,0.416c92.5,-35.833 885.417,-10 885.417,-10Z" style="fill:url(#_Linear36);fill-rule:nonzero;"/></g><g><path d="M11610,6606.25c0,0 142.5,-168.333 293.75,38.333c27.5,37.5 132.917,6.667 171.25,85c20,40.417 62.917,63.334 107.5,55.417c110.417,-20.417 290.833,-22.083 380,150.833c67.917,132.084 15.417,209.584 -52.5,253.334c-50,32.5 -67.917,97.916 -37.5,149.583c29.167,49.167 34.583,115.833 -40.417,195.833c-167.5,179.584 -499.583,-114.166 -499.583,-114.166l-263.333,-622.5l-59.167,-191.667Z" style="fill:url(#_Linear37);fill-rule:nonzero;"/><path d="M11872.1,8269.17c0,-0 -237.916,-226.667 -355.416,-376.667c-63.334,-81.25 -83.334,-187.917 -53.75,-286.667c53.333,-180.416 148.75,-367.083 157.083,-395.833c13.333,-44.583 280.417,-42.5 280.417,-42.5c-0,0 525.416,340.833 731.666,918.333l-231.666,72.084c-0,-0 -137.084,-230 -272.5,-376.25c-0,-0 234.583,309.583 242.916,436.666l-498.75,50.834Z" style="fill:url(#_Linear38);fill-rule:nonzero;"/><path d="M11418.8,8358.75l178.75,-194.583l206.667,55.416c-0,0 240.833,37.5 378.75,0l137.916,-37.5l311.667,-97.083l48.75,138.333c12.5,35 0,74.167 -30.417,95.834c-27.083,19.166 -58.333,40 -78.75,49.166c-40.833,17.917 -945,5.834 -945,5.834l-208.333,-15.417Z" style="fill:url(#_Linear39);fill-rule:nonzero;"/><path d="M11717.1,6846.25l179.584,333.75c-11.667,72.917 -195.417,75 -223.75,31.25c-2.917,-4.583 -4.584,-9.583 -5.834,-14.583l-107.5,-222.917c-4.583,-21.667 55,-95 74.584,-105.417l71.25,-37.916c27.916,-14.584 -86.667,-15.834 11.666,15.833Z" style="fill:url(#_Linear40);fill-rule:nonzero;"/><g><path d="M11354.2,6767.92c-0,-0 -20.417,112.5 68.333,255.833c88.75,143.333 176.667,136.667 221.667,85.833c45,-51.25 98.333,-136.25 74.166,-279.166c-24.583,-142.917 -333.75,-206.25 -364.166,-62.5Z" style="fill:url(#_Linear41);fill-rule:nonzero;"/><path d="M11610.8,6846.25c0,0 -143.333,-188.333 -253.75,-24.167l1.667,56.667c0,0 -143.333,-6.667 -127.5,-138.75c15.417,-132.083 132.5,-222.083 294.583,-177.083c162.084,45 256.667,96.25 275,209.166c18.334,112.5 -73.75,94.167 -73.75,94.167c0,-0 -35,-77.5 -77.5,-82.917c-42.5,-5.416 -27.083,56.25 -27.083,56.25l-11.667,6.667Z" style="fill:url(#_Linear42);fill-rule:nonzero;"/><path d="M11643.8,6840.83c0,0 -74.167,-96.25 -6.667,-116.25c67.5,-20 65,94.584 60.834,137.084l-54.167,-20.834Z" style="fill:url(#_Linear43);fill-rule:nonzero;"/></g></g><g><path d="M12010.8,8435.83l-2.083,0l-822.917,-0.833c-20.416,0 -36.666,-16.667 -36.666,-36.667c-0,-20.416 16.666,-37.083 36.666,-36.666l822.917,0.833c20.417,-0 36.667,16.667 36.667,36.667c0.416,19.583 -15.417,35.833 -34.584,36.666Z" style="fill:url(#_Linear44);fill-rule:nonzero;"/><path d="M10446.7,7688.75l685,0c50.416,0 96.666,29.167 117.916,75l316.667,671.667l-851.667,-0c-32.5,-0 -61.666,-20 -73.75,-50l-245.833,-621.667c-13.75,-35.833 12.917,-75 51.667,-75Z" style="fill:url(#_Linear45);fill-rule:nonzero;"/><path d="M10929.2,8033.33c15,46.25 3.75,90.834 -24.584,100c-28.333,9.167 -63.333,-20.833 -78.333,-67.083c-15,-46.25 -3.75,-90.833 24.583,-100c28.334,-9.167 63.75,20.833 78.334,67.083Z" style="fill:#91b3fa;fill-rule:nonzero;"/></g></g></g><path d="M12648.5,11339.7c7.469,-4.27 16.008,-7.471 23.477,-11.739c10.674,-4.269 21.347,-6.403 33.085,-6.403c17.077,0 34.151,4.267 48.026,14.94c13.875,11.739 21.344,28.816 20.278,46.958l-0,7.471c48.025,-48.025 86.446,-104.588 113.125,-167.556c-3.202,2.136 -6.404,4.27 -9.605,6.403c-21.344,-17.073 -46.958,-29.88 -73.639,-37.352c-27.747,-8.537 -56.563,-12.807 -86.446,-12.807c-38.42,0 -75.772,5.336 -113.125,16.009c-32.017,8.537 -62.968,23.48 -90.715,41.622c-12.807,8.537 -24.546,19.21 -34.151,32.017c-8.539,13.875 -12.807,29.883 -12.807,45.892l0,218.78c62.966,-6.403 124.866,-24.545 181.429,-53.36l1.068,-140.875Z" style="fill:#1f3b71;fill-rule:nonzero;"/><path d="M13077.5,11638.5c-1.068,14.94 2.133,29.88 7.469,43.755c4.27,10.673 10.673,19.21 19.21,26.682c9.605,6.403 20.278,10.671 32.017,12.807c13.875,2.133 27.75,3.201 42.69,3.201c16.008,0 32.017,-1.068 48.025,-3.201c11.739,-1.068 22.412,-3.202 34.151,-6.404l-0,-336.177c-0,-14.943 -1.066,-30.952 -4.267,-45.892c-39.489,108.857 -100.321,208.11 -178.23,294.555l-1.065,10.674Z" style="fill:#1f3b71;fill-rule:nonzero;"/><path d="M12473.4,11681.2c4.27,10.673 10.674,19.21 20.279,26.682c9.605,6.403 20.278,10.673 32.017,12.807c13.874,2.133 27.747,3.201 42.69,3.201c16.008,0 32.017,-1.068 48.025,-3.201c11.739,-1.068 22.412,-3.202 33.082,-6.404l0,-233.723c-56.562,28.815 -118.462,48.025 -181.428,53.36l0,104.591c-2.134,14.94 0,28.815 5.335,42.687" style="fill:#1f3b71;fill-rule:nonzero;"/><path d="M13192.8,11224.4c-20.278,-16.008 -44.824,-26.681 -69.372,-34.15c-25.614,-7.472 -52.293,-10.674 -80.042,-10.674c-33.083,-1.068 -65.1,4.27 -97.117,13.875c-21.346,7.469 -42.69,17.074 -61.9,28.816c-25.613,62.965 -64.034,119.528 -113.127,167.553l-0,247.599c-1.066,14.94 2.136,29.883 7.471,43.755c4.27,10.673 10.673,19.21 20.279,26.682c9.605,6.403 20.275,10.673 32.016,12.807c13.873,2.133 27.748,3.201 42.688,3.201c16.008,0 30.951,-1.068 46.96,-3.201c11.739,-1.068 23.477,-3.202 35.218,-6.404l0,-362.859c0,-3.202 0,-5.335 -1.068,-8.537c7.472,-6.404 16.009,-10.673 25.614,-14.941c9.605,-4.269 21.344,-6.403 32.017,-6.403c17.076,-1.068 35.218,4.267 49.093,14.94c12.807,11.739 20.276,28.816 18.142,46.958l0,243.328c77.909,-85.377 137.673,-185.698 178.227,-294.555c-2.133,-16.009 -7.469,-32.017 -13.872,-46.958c-13.875,-23.48 -30.952,-44.823 -51.227,-60.832" style="fill:#1f3b71;fill-rule:nonzero;"/><path d="M12030.6,11638.5c-1.068,14.94 2.134,29.88 7.469,43.755c4.27,10.673 10.673,19.21 20.278,26.682c9.605,6.403 20.279,10.671 32.017,12.807c13.875,2.133 27.747,3.201 42.69,3.201c16.009,0 32.017,-1.068 48.026,-3.201c11.738,-1.068 22.412,-3.202 33.082,-6.404l0,-233.723c-56.562,37.352 -117.394,68.301 -181.428,91.781l-2.134,65.102Z" style="fill:#1f3b71;fill-rule:nonzero;"/><path d="M12246.1,11338.6c12.807,-3.202 27.75,-6.403 42.69,-9.605c14.941,-3.202 29.884,-5.335 45.892,-6.403c16.009,-1.066 30.949,-2.134 45.889,-2.134c4.27,-8.537 8.54,-17.077 10.673,-25.614c3.202,-9.605 4.27,-19.21 4.27,-29.883c0,-29.881 -9.605,-51.227 -29.883,-65.099c-24.546,-13.875 -52.295,-21.347 -81.11,-20.279c-20.276,0 -41.623,2.134 -61.898,5.336c-20.278,3.201 -40.557,7.471 -59.767,12.807c-18.142,5.337 -36.284,11.741 -54.429,20.278c-14.94,6.403 -28.815,14.94 -42.687,25.613c-10.673,8.537 -19.21,19.211 -26.682,32.017c-6.403,12.807 -9.605,27.747 -8.537,42.69l0,254c64.034,-23.478 124.866,-54.429 181.429,-91.781l-0,-131.27c11.738,-4.27 22.412,-7.471 34.15,-10.673" style="fill:#1f3b71;fill-rule:nonzero;"/><path d="M11780.8,11685.5c2.134,25.614 -11.741,50.159 -34.153,61.9c-20.276,10.671 -41.622,16.009 -64.034,18.142c-52.292,42.69 -109.923,78.975 -171.823,108.858c5.335,3.202 9.605,6.403 14.94,8.537c37.355,17.076 87.514,26.681 152.616,26.681c36.284,0 71.503,-4.269 106.721,-12.806c30.952,-7.472 60.833,-21.344 86.446,-39.489c24.548,-18.142 44.824,-41.622 58.699,-68.301c14.94,-29.883 22.412,-64.034 21.343,-98.187l0,-287.084c-40.553,100.321 -98.184,191.033 -170.755,271.076l0,10.673Z" style="fill:#1f3b71;fill-rule:nonzero;"/><path d="M11615.4,11191.3c-5.336,1.068 -9.605,2.136 -14.941,4.27c-32.017,9.605 -61.9,25.614 -87.513,46.957c-25.614,21.347 -44.824,49.094 -57.631,80.043c-14.94,36.286 -21.344,74.707 -21.344,113.127c0,12.807 1.068,24.545 2.134,36.287c89.647,-71.506 152.616,-169.69 179.295,-280.684" style="fill:#1f3b71;fill-rule:nonzero;"/><path d="M11654.9,11766.6c-27.747,0 -54.429,-4.269 -81.11,-11.741c-24.546,-7.469 -48.026,-17.074 -70.438,-28.815c-9.605,7.471 -17.074,17.076 -22.411,28.815c-7.469,12.807 -10.671,27.75 -10.671,43.758c-1.068,30.949 13.872,59.764 40.554,76.841c60.832,-29.883 118.463,-66.17 171.823,-108.858l-27.747,0" style="fill:#1f3b71;fill-rule:nonzero;"/><path d="M11777.6,11373.8l-0,157.951c-20.279,14.94 -44.824,21.343 -69.372,20.278c-25.614,1.065 -49.091,-9.605 -67.236,-27.75c-2.133,-2.133 -4.267,-5.335 -5.335,-7.469c-12.807,-18.144 -20.278,-44.823 -20.278,-81.11c-0,-36.287 8.539,-64.034 26.681,-84.312c17.077,-19.21 43.756,-29.881 78.975,-29.881c11.741,0 24.548,1.066 36.286,4.267c7.472,2.136 14.941,5.338 22.412,8.54l-2.133,39.486Zm161.15,-104.588c-9.605,-12.807 -20.276,-24.546 -34.151,-33.085c-24.545,-17.074 -52.295,-30.949 -81.11,-39.486c-1.066,0 -1.066,-1.068 -2.134,-1.068c-36.287,-10.673 -73.639,-16.009 -110.991,-16.009c-32.017,0 -64.034,4.27 -96.051,11.739c-26.681,110.994 -89.647,209.178 -179.295,279.616c2.134,26.681 8.537,53.36 18.142,78.974c2.134,5.338 4.27,10.673 7.472,14.943c10.671,23.477 26.679,44.823 44.824,62.965c21.343,20.279 48.025,35.219 75.772,44.824c29.883,9.605 60.832,14.941 91.781,13.875c36.287,1.066 72.574,-5.338 106.724,-19.21l0,5.335c72.571,-78.974 130.201,-170.758 170.758,-271.076l-0,-86.445c2.134,-16.009 -2.136,-32.017 -11.741,-45.892" style="fill:#1f3b71;fill-rule:nonzero;"/><path d="M12057.2,11849.8l13.875,0l0,17.074c-4.27,1.068 -7.471,1.068 -11.739,1.068c-6.403,0 -11.741,-2.133 -16.008,-6.403c-4.27,-5.335 -6.403,-11.739 -5.338,-19.21c0,-6.403 2.136,-13.875 6.404,-19.21c4.269,-4.27 10.673,-7.472 17.076,-6.404c5.335,0 11.739,1.068 16.009,4.27l4.269,-9.605c-6.403,-3.202 -12.806,-4.27 -20.278,-4.27c-9.605,-1.068 -19.21,3.202 -25.613,9.605c-6.404,6.404 -9.606,16.009 -9.606,25.614c-1.068,9.605 2.134,18.142 8.537,25.613c6.404,6.404 14.943,9.606 23.48,9.606c8.537,-0 16.009,-1.069 24.546,-3.202l-0,-34.151l-25.614,0l0,9.605Z" style="fill:#1f3b71;fill-rule:nonzero;"/><rect x="12096.7" y="11805" width="10.673" height="72.571" style="fill:#1f3b71;"/><path d="M12144.7,11869c-8.537,-0 -12.807,-5.338 -12.807,-18.145c0,-4.267 1.068,-9.605 3.202,-12.807c2.134,-3.202 6.403,-5.335 9.605,-4.267c8.537,-0 12.807,6.403 12.807,18.142c1.068,11.739 -4.27,17.077 -12.807,17.077Zm1.068,-43.759c-6.403,0 -13.875,2.137 -18.144,7.472c-4.268,5.335 -6.404,12.807 -6.404,19.21c0,5.335 1.068,9.605 3.202,13.875c2.136,4.267 4.27,7.469 8.539,9.605c4.268,2.134 8.537,3.202 12.807,3.202c6.404,-0 13.872,-2.137 18.142,-7.472c4.27,-5.335 6.404,-12.807 6.404,-19.21c-0,-7.471 -2.134,-13.875 -6.404,-19.21c-5.335,-5.335 -11.738,-7.472 -18.142,-7.472" style="fill:#1f3b71;fill-rule:nonzero;"/><path d="M12214.1,11864.8c-2.133,3.201 -5.335,4.27 -8.537,4.27c-3.201,-0 -7.471,-1.069 -9.605,-4.27c-2.133,-4.27 -3.202,-8.537 -3.202,-13.875l0,-1.066c0,-4.269 1.069,-9.605 3.202,-12.806c2.134,-3.202 5.335,-4.27 9.605,-4.27c8.537,-0 11.739,6.403 11.739,17.076c-0,6.404 -1.066,10.671 -3.202,14.941m-5.335,-39.489c-6.403,0 -11.739,2.137 -14.94,7.472l-0,-26.682l-10.674,0l0,72.574l8.537,-0l2.137,-6.404l1.065,0c7.472,8.537 19.21,9.605 27.75,2.134c1.065,-1.068 1.065,-1.068 2.133,-2.134c4.27,-5.338 5.336,-12.807 5.336,-19.21c-0,-7.471 -1.066,-13.875 -5.336,-19.21c-5.335,-6.403 -10.673,-8.54 -16.008,-8.54" style="fill:#1f3b71;fill-rule:nonzero;"/><path d="M12270.7,11857.3c0,3.202 -1.068,6.404 -3.201,9.605c-2.137,2.137 -6.404,3.202 -9.606,3.202c-2.136,0 -4.269,0 -6.403,-2.134c-1.068,-1.068 -2.136,-3.201 -2.136,-5.335c-0,-3.202 1.068,-5.338 3.202,-7.471c3.201,-2.134 7.471,-2.134 11.741,-2.134l6.403,0l0,4.267Zm-9.605,-32.017c-3.202,0 -6.403,0 -9.605,1.068c-3.202,1.069 -6.403,2.134 -9.605,3.202l3.202,7.472c2.133,-1.068 4.267,-2.137 7.469,-2.137c2.136,-1.065 5.337,-1.065 7.471,-1.065c2.134,-0 5.335,1.065 7.472,2.134c2.133,2.133 2.133,4.269 2.133,7.471l0,3.202l-8.537,-0c-6.403,-0 -12.807,1.065 -18.145,4.267c-4.267,3.202 -6.403,7.471 -6.403,11.741c0,4.267 1.068,8.537 4.27,11.739c3.202,3.202 7.471,4.27 11.739,4.27c3.201,-0 6.403,-0 9.605,-2.137c3.201,-1.065 5.338,-3.201 7.471,-6.403l2.134,7.472l7.471,-0l0,-34.151c0,-5.338 -1.068,-9.605 -5.335,-13.875c-2.136,-3.202 -7.472,-4.27 -12.807,-4.27" style="fill:#1f3b71;fill-rule:nonzero;"/><rect x="12296.3" y="11805" width="10.673" height="72.571" style="fill:#1f3b71;"/><path d="M12367.8,11841.3l-7.469,-0l-0,-22.412l7.469,-0c4.269,-0 7.471,1.068 11.741,2.136c3.201,2.134 4.267,5.335 4.267,8.537c-0,3.202 -1.066,6.404 -3.202,8.537c-4.267,2.136 -8.537,3.202 -12.806,3.202Zm26.681,-11.739c0,-5.335 -2.133,-11.739 -6.403,-14.94c-5.336,-4.27 -12.807,-5.338 -19.21,-5.338l-19.211,-0l0,68.304l10.674,-0l-0,-26.682l10.67,-0l16.009,26.682l12.806,-0l-19.21,-29.884c8.54,-3.201 13.875,-9.605 13.875,-18.142" style="fill:#1f3b71;fill-rule:nonzero;"/><rect x="12408.4" y="11826.3" width="10.673" height="51.227" style="fill:#1f3b71;"/><path d="M12414.8,11806.1c-2.136,0 -3.201,0 -4.269,1.068c-2.134,2.134 -2.134,6.404 -0,8.537c1.068,1.068 3.201,2.136 4.269,2.136c2.134,0 3.202,0 4.268,-2.136c2.136,-2.133 2.136,-6.403 -0,-8.537c-1.066,0 -3.202,-1.068 -4.268,-1.068" style="fill:#1f3b71;fill-rule:nonzero;"/><path d="M12453.2,11853c-2.136,0 -5.338,-1.068 -7.472,-2.136c-2.133,-2.134 -2.133,-5.335 -2.133,-7.469c-0,-3.202 1.065,-5.338 2.133,-7.471c2.134,-2.134 4.27,-3.202 7.472,-3.202c2.133,-0 5.335,1.068 7.469,3.202c2.136,2.133 2.136,5.335 2.136,7.471c-1.068,5.335 -3.202,9.605 -9.605,9.605Zm-10.673,24.546l14.94,-0c3.202,-0 6.403,-0 8.539,1.068c2.134,1.065 2.134,3.201 2.134,4.267c0,3.202 -2.134,5.338 -4.27,6.403c-4.267,2.136 -8.537,3.202 -12.806,2.136c-3.202,0 -6.404,0 -8.537,-2.136c-2.134,-1.065 -3.202,-3.201 -3.202,-5.335c-0,-2.134 1.068,-4.27 3.202,-6.403Zm14.94,-52.296l-4.267,0c-5.338,0 -10.673,1.068 -14.943,4.27c-3.202,3.202 -5.336,8.537 -5.336,12.807c0,3.202 1.069,6.403 2.134,9.605c1.068,2.134 4.27,4.27 6.403,5.335c-2.133,1.068 -3.201,2.136 -5.335,4.27c-1.068,1.068 -2.133,3.202 -1.068,5.335c0,3.202 2.136,6.404 5.338,7.472c-3.202,1.068 -6.403,2.133 -8.54,4.27c-2.133,2.133 -3.201,5.335 -3.201,7.469c-0,4.269 2.136,8.539 5.338,10.673c5.335,3.201 10.67,4.269 16.008,3.201c7.469,0 14.94,-1.068 21.344,-4.269c4.27,-3.202 7.471,-8.537 7.471,-13.873c0,-4.269 -1.068,-7.471 -4.27,-10.673c-4.269,-2.133 -8.537,-4.27 -12.806,-3.202l-8.537,0c-2.136,0 -4.27,0 -6.404,-1.068c-1.068,0 -2.136,-1.065 -2.136,-2.133c0,-2.134 1.068,-4.27 3.202,-5.336l4.27,0c5.335,0 10.673,-1.068 14.94,-4.269c3.202,-3.202 5.338,-7.472 5.338,-12.807c-0,-3.202 -1.068,-6.403 -3.202,-8.537l8.537,-1.068l0,-6.404l-18.142,0c1.066,-1.068 -1.068,-1.068 -2.136,-1.068" style="fill:#1f3b71;fill-rule:nonzero;"/><path d="M12515.1,11825.3c-3.201,0 -6.403,1.068 -9.605,2.137c-2.133,1.065 -5.335,3.201 -6.403,5.335l-1.066,-0c0,-3.202 1.066,-6.404 1.066,-9.605l-0,-18.142l-10.671,-0l0,72.571l10.671,-0l-0,-25.614c-0,-5.335 1.068,-9.605 3.202,-13.875c2.136,-3.202 6.403,-4.267 10.673,-4.267c3.201,-0 5.335,1.065 7.471,3.202c2.134,2.133 3.202,5.335 2.134,8.537l-0,32.017l10.673,-0l0,-33.085c1.066,-8.537 -5.338,-17.074 -13.875,-19.211l-4.27,0" style="fill:#1f3b71;fill-rule:nonzero;"/><path d="M12563.1,11868c-1.066,-2.133 -2.134,-4.269 -2.134,-6.403l0,-27.747l14.941,-0l-0,-8.54l-14.941,0l0,-10.67l-6.403,-0l-3.202,10.67l-7.471,4.27l-0,5.335l7.471,0l0,27.75c0,10.671 5.335,16.009 16.009,16.009l6.403,-0c1.068,-0 3.202,-1.068 4.27,-1.068l-0,-9.606c-2.136,1.069 -5.338,1.069 -7.472,1.069c-4.27,1.065 -6.403,-0 -7.471,-1.069" style="fill:#1f3b71;fill-rule:nonzero;"/><path d="M12615.4,11852c-3.202,-2.134 -6.403,-3.202 -9.605,-4.27c-3.202,-1.065 -6.404,-3.201 -9.605,-4.267c-1.068,-1.068 -2.134,-2.136 -2.134,-4.27c0,-3.201 3.202,-5.335 8.537,-5.335c5.335,-0 9.605,1.065 13.875,3.202l3.202,-8.54c-5.338,-2.134 -11.742,-3.202 -17.077,-3.202c-5.335,0 -9.605,1.068 -14.94,3.202c-3.202,2.136 -5.338,6.403 -5.338,10.673c-0,3.202 1.068,6.404 3.202,8.537c3.201,3.202 7.471,5.338 11.741,6.404c2.133,1.068 5.335,2.136 7.469,3.201c1.068,1.068 2.136,2.136 3.201,3.202c1.069,1.068 1.069,2.136 1.069,3.202c-0,4.269 -3.202,6.403 -10.674,6.403c-5.335,0 -11.738,-1.065 -17.074,-4.267l0,9.605c5.336,2.134 10.671,3.202 16.009,3.202c5.335,-0 10.67,-1.068 16.008,-4.27c3.202,-2.134 5.336,-7.472 5.336,-11.739c-0,-2.136 -0,-4.27 -1.068,-6.403c1.068,-2.136 -1.066,-3.202 -2.134,-4.27" style="fill:#1f3b71;fill-rule:nonzero;"/><path d="M12693.3,11863.7l-19.21,-54.429l-16.009,-0l0,68.304l9.605,-0l0,-33.085c0,-7.469 0,-14.941 -1.068,-23.478l19.21,56.563l9.605,-0l20.279,-56.563l-0,55.494l10.67,0l0,-68.301l-16.008,0l-17.074,55.495Z" style="fill:#1f3b71;fill-rule:nonzero;"/><path d="M12774.4,11857.3c-0,3.202 -1.066,7.472 -3.202,9.605c-2.134,2.137 -6.404,3.202 -9.605,3.202c-2.134,0 -4.267,0 -6.404,-2.134c-1.065,-1.068 -2.133,-3.201 -2.133,-5.335c-0,-3.202 1.068,-5.338 3.201,-7.471c3.202,-2.134 7.472,-2.134 11.739,-2.134l6.404,0l-0,4.267Zm-8.537,-32.017c-3.202,0 -6.404,0 -9.606,1.068c-3.201,1.069 -6.403,2.134 -9.605,3.202l3.202,7.472c2.134,-1.068 4.27,-2.137 7.472,-2.137c2.133,-1.065 5.335,-1.065 7.468,-1.065c2.137,-0 5.338,1.065 7.472,2.134c2.134,2.133 2.134,4.269 2.134,7.471l-0,3.202l-8.537,-0c-6.404,-0 -12.807,1.065 -18.143,4.267c-4.269,3.202 -6.403,7.471 -6.403,11.741c0,4.267 1.066,8.537 4.267,11.739c3.202,3.202 7.472,4.27 11.742,4.27c3.201,-0 6.403,-0 9.605,-2.137c3.201,-1.065 5.335,-3.201 7.469,-6.403l2.136,7.472l7.469,-0l-0,-34.151c-0,-5.338 -1.066,-9.605 -5.336,-13.875c-2.133,-3.202 -7.471,-4.27 -12.806,-4.27" style="fill:#1f3b71;fill-rule:nonzero;"/><path d="M12827.8,11825.3c-3.202,0 -6.404,1.068 -9.605,2.137c-3.202,1.065 -5.338,3.201 -6.404,5.335l-1.068,-0l-1.068,-6.404l-8.537,0l0,51.228l10.673,-0l0,-25.614c0,-5.335 1.066,-9.605 3.202,-13.875c2.134,-3.202 6.403,-4.267 9.605,-4.267c3.202,-0 5.335,1.065 7.469,3.202c2.136,2.133 2.136,5.335 2.136,8.537l0,32.017l10.671,-0l-0,-33.085c1.068,-8.537 -5.336,-17.074 -13.873,-19.211l-3.201,0" style="fill:#1f3b71;fill-rule:nonzero;"/><path d="M12890.7,11857.3c-0,3.202 -1.069,7.472 -3.202,9.605c-2.134,2.137 -6.404,3.202 -9.605,3.202c-2.134,0 -4.27,0 -6.404,-2.134c-1.068,-1.068 -2.133,-3.201 -2.133,-5.335c-0,-3.202 1.065,-5.338 3.201,-7.471c3.202,-2.134 7.469,-2.134 10.671,-2.134l6.403,0l1.069,4.267Zm-9.606,-32.017c-3.201,0 -6.403,0 -9.605,1.068c-3.201,1.069 -6.403,2.134 -9.605,3.202l3.202,7.472c2.134,-1.068 4.27,-2.137 6.403,-2.137c2.134,-1.065 5.336,-1.065 7.472,-1.065c2.133,-0 5.335,1.065 7.469,2.134c2.136,2.133 2.136,4.269 2.136,7.471l-0,3.202l-8.54,-0c-6.403,-0 -12.806,1.065 -18.142,4.267c-4.269,3.202 -6.403,7.471 -6.403,11.741c-0,4.267 1.068,8.537 4.27,11.739c3.201,3.202 7.469,4.27 11.738,4.27c3.202,-0 6.404,-0 9.605,-2.137c3.202,-1.065 5.336,-3.201 7.472,-6.403l2.134,7.472l7.471,-0l0,-34.151c0,-5.338 -1.068,-9.605 -5.338,-13.875c-1.065,-3.202 -6.403,-5.335 -11.739,-4.27" style="fill:#1f3b71;fill-rule:nonzero;"/><path d="M12933.4,11853c-2.137,0 -5.338,-1.068 -7.472,-2.136c-2.133,-2.134 -2.133,-5.335 -2.133,-7.469c-0,-3.202 1.065,-5.338 2.133,-7.471c4.27,-3.202 10.673,-3.202 13.875,-0c2.134,2.133 2.134,5.335 2.134,7.471c1.068,5.335 -2.134,9.605 -8.537,9.605Zm-10.674,24.546l14.941,-0c3.202,-0 6.403,-0 8.539,1.068c2.134,1.065 2.134,3.201 2.134,4.267c0,3.202 -2.134,5.338 -4.27,6.403c-4.267,2.136 -8.537,3.202 -12.807,2.136c-3.201,0 -6.403,0 -8.537,-2.136c-2.133,-1.065 -3.201,-3.201 -3.201,-5.335c-0,-2.134 1.068,-4.27 3.201,-6.403Zm16.009,-52.296l-4.27,0c-5.335,0 -10.67,1.068 -14.94,4.27c-3.202,3.202 -5.336,8.537 -5.336,12.807c0,3.202 1.066,6.403 2.134,9.605c1.068,2.134 4.27,4.27 6.403,5.335c-2.133,1.068 -3.201,2.136 -4.269,4.27c-1.066,1.068 -2.134,3.202 -2.134,5.335c0,1.068 0,3.202 1.068,4.27c1.066,1.068 2.134,2.134 3.202,3.202c-3.202,1.068 -6.404,2.133 -8.54,4.27c-2.133,2.133 -3.201,5.335 -3.201,7.469c-0,4.269 2.136,8.539 5.337,10.673c5.336,3.201 10.671,4.269 16.009,3.201c7.469,0 14.94,-1.068 21.344,-4.269c4.269,-3.202 7.471,-8.537 7.471,-13.873c0,-4.269 -1.068,-7.471 -4.27,-10.673c-4.269,-2.133 -8.537,-4.27 -12.806,-3.202l-8.537,0c-2.137,0 -4.27,0 -6.404,-1.068c-1.068,0 -2.136,-1.065 -2.136,-2.133c0,-2.134 1.068,-4.27 3.202,-5.336l4.27,0c5.335,0 10.673,-1.068 14.94,-4.269c3.202,-3.202 5.338,-7.472 5.338,-12.807c-0,-2.134 -0,-3.202 -1.068,-5.335c-0,-1.068 -1.068,-3.202 -2.134,-4.27l8.537,-1.068l0,-6.404l-18.142,0c1.066,0 0,0 -1.068,0" style="fill:#1f3b71;fill-rule:nonzero;"/><path d="M12978.3,11846.6c0,-3.202 1.066,-7.472 4.268,-9.605c2.136,-2.137 5.337,-3.202 8.539,-3.202c3.202,-0 6.403,1.065 8.537,3.202c2.134,3.201 3.202,6.403 3.202,9.605l-24.546,-0Zm11.739,-21.347c-6.403,0 -12.807,2.137 -17.077,7.472c-4.267,5.335 -6.403,12.807 -6.403,19.21c0,7.471 2.136,13.875 6.403,19.21c5.338,5.335 11.742,7.472 19.211,6.404c3.201,-0 6.403,-0 9.605,-1.069c3.201,0 5.338,-1.065 8.539,-2.133l0,-8.537c-3.201,1.065 -5.338,2.133 -8.539,3.202c-3.202,1.065 -5.336,1.065 -8.537,1.065c-4.27,0 -7.472,-1.065 -10.673,-4.267c-3.202,-3.202 -4.268,-7.472 -4.268,-11.741l34.151,-0l-0,-6.404c-0,-6.403 -2.134,-12.807 -6.404,-17.074c-4.269,-3.201 -10.673,-5.338 -16.008,-5.338" style="fill:#1f3b71;fill-rule:nonzero;"/><path d="M13082.8,11825.3c-3.202,0 -6.403,1.068 -9.605,2.137c-2.134,1.065 -5.335,3.201 -6.403,6.403l-1.068,-0c-3.202,-5.338 -9.606,-8.54 -16.009,-8.54c-3.202,0 -6.403,1.068 -8.537,2.137c-2.133,1.065 -5.335,3.201 -6.403,5.335l-1.068,-6.404l-8.537,0l-0,51.228l10.673,-0l-0,-25.614c-0,-4.27 1.065,-9.605 3.202,-13.875c2.133,-3.202 5.335,-4.267 9.605,-4.267c3.201,-0 5.335,1.065 7.468,3.202c2.137,2.133 2.137,5.335 2.137,8.537l-0,32.017l10.67,-0l0,-26.682c0,-4.267 1.068,-8.537 3.202,-11.739c2.136,-3.201 5.338,-4.27 9.605,-4.27c2.136,0 5.338,1.069 7.472,3.202c2.133,2.136 2.133,5.338 2.133,8.54l0,32.017l10.673,-0l0,-33.085c0,-5.336 -1.068,-10.674 -4.27,-13.875c-5.335,-5.336 -10.67,-7.469 -14.94,-6.404" style="fill:#1f3b71;fill-rule:nonzero;"/><path d="M13123.4,11846.6c0,-3.202 1.068,-7.472 3.202,-9.605c2.136,-2.137 5.338,-3.202 8.539,-3.202c3.202,-0 6.404,1.065 8.537,3.202c2.134,3.201 3.202,6.403 3.202,9.605l-23.48,-0Zm12.807,-21.347c-6.404,0 -12.807,2.137 -17.074,7.472c-4.27,5.335 -6.404,12.807 -6.404,19.21c0,7.471 2.134,13.875 6.404,19.21c5.335,5.335 11.739,7.472 19.21,6.404c3.202,-0 6.403,-0 9.605,-1.069c3.202,0 5.335,-1.065 8.537,-2.133l0,-8.537c-3.202,1.065 -5.335,2.133 -8.537,3.202c-3.202,1.065 -5.338,1.065 -8.539,1.065c-4.268,0 -7.469,-1.065 -10.671,-4.267c-3.202,-3.202 -4.27,-7.472 -4.27,-11.741l34.151,-0l-0,-6.404c-0,-6.403 -2.134,-12.807 -6.404,-17.074c-4.267,-3.201 -10.67,-5.338 -16.008,-5.338" style="fill:#1f3b71;fill-rule:nonzero;"/><path d="M13197,11825.3c-3.202,0 -6.403,1.068 -9.605,2.137c-3.202,1.065 -5.335,3.201 -6.403,5.335l-1.066,-6.404l-8.54,0l0,51.228l10.674,-0l-0,-25.614c-0,-5.335 1.068,-9.605 3.201,-13.875c2.134,-3.202 6.404,-4.267 9.605,-4.267c3.202,-0 5.336,1.065 7.472,3.202c2.133,2.133 2.133,5.335 2.133,8.537l0,32.017l10.674,-0l-0,-33.085c1.065,-8.537 -5.338,-17.074 -13.875,-19.211l-4.27,0" style="fill:#1f3b71;fill-rule:nonzero;"/><path d="M13245.1,11868c-1.065,-1.068 -2.133,-3.201 -2.133,-6.403l-0,-27.747l14.94,-0l0,-8.54l-14.94,0l-0,-10.67l-6.404,-0l-3.201,10.67l-7.472,4.27l0,5.335l7.472,0l-0,27.75c-0,10.671 5.335,16.009 16.008,16.009l6.404,-0c1.068,-0 3.201,-1.068 4.269,-1.068l0,-9.606c-2.136,1.069 -5.338,1.069 -8.539,1.069c-3.202,1.065 -5.336,-0 -6.404,-1.069" style="fill:#1f3b71;fill-rule:nonzero;"/></g><defs><linearGradient id="_Linear1" x1="0" y1="0" x2="1" y2="0" gradientUnits="userSpaceOnUse" gradientTransform="matrix(197.832,-1158.73,1158.73,197.832,10277.5,8101.57)"><stop offset="0" style="stop-color:#febbba;stop-opacity:1"/><stop offset="1" style="stop-color:#ff928e;stop-opacity:1"/></linearGradient><linearGradient id="_Linear2" x1="0" y1="0" x2="1" y2="0" gradientUnits="userSpaceOnUse" gradientTransform="matrix(-267.124,2393.84,-2393.84,-267.124,6516.77,4379.11)"><stop offset="0" style="stop-color:#09005d;stop-opacity:1"/><stop offset="1" style="stop-color:#1a0f91;stop-opacity:1"/></linearGradient><linearGradient id="_Linear3" x1="0" y1="0" x2="1" y2="0" gradientUnits="userSpaceOnUse" gradientTransform="matrix(-93.8067,840.65,-840.65,-93.8067,6445.15,5044.76)"><stop offset="0" style="stop-color:#09005d;stop-opacity:1"/><stop offset="1" style="stop-color:#1a0f91;stop-opacity:1"/></linearGradient><linearGradient id="_Linear4" x1="0" y1="0" x2="1" y2="0" gradientUnits="userSpaceOnUse" gradientTransform="matrix(-349.248,3129.79,-3129.79,-349.248,6517.71,8131.83)"><stop offset="0" style="stop-color:#09005d;stop-opacity:1"/><stop offset="1" style="stop-color:#1a0f91;stop-opacity:1"/></linearGradient><linearGradient id="_Linear5" x1="0" y1="0" x2="1" y2="0" gradientUnits="userSpaceOnUse" gradientTransform="matrix(-122.616,1098.83,-1098.83,-122.616,6424.28,9012.56)"><stop offset="0" style="stop-color:#09005d;stop-opacity:1"/><stop offset="1" style="stop-color:#1a0f91;stop-opacity:1"/></linearGradient><linearGradient id="_Linear6" x1="0" y1="0" x2="1" y2="0" gradientUnits="userSpaceOnUse" gradientTransform="matrix(72.6284,755.224,-755.224,72.6284,3297.06,6382.34)"><stop offset="0" style="stop-color:#febbba;stop-opacity:1"/><stop offset="1" style="stop-color:#ff928e;stop-opacity:1"/></linearGradient><linearGradient id="_Linear7" x1="0" y1="0" x2="1" y2="0" gradientUnits="userSpaceOnUse" gradientTransform="matrix(-1105.7,-3040.38,3040.38,-1105.7,3740.51,8864.01)"><stop offset="0" style="stop-color:#febbba;stop-opacity:1"/><stop offset="1" style="stop-color:#ff928e;stop-opacity:1"/></linearGradient><linearGradient id="_Linear8" x1="0" y1="0" x2="1" y2="0" gradientUnits="userSpaceOnUse" gradientTransform="matrix(2590.01,-1189.01,1189.01,2590.01,1767.34,12147.4)"><stop offset="0" style="stop-color:#febbba;stop-opacity:1"/><stop offset="1" style="stop-color:#ff928e;stop-opacity:1"/></linearGradient><linearGradient id="_Linear9" x1="0" y1="0" x2="1" y2="0" gradientUnits="userSpaceOnUse" gradientTransform="matrix(3483.81,-40717.1,40717.1,3483.81,3001.45,21933)"><stop offset="0" style="stop-color:#febbba;stop-opacity:1"/><stop offset="1" style="stop-color:#ff928e;stop-opacity:1"/></linearGradient><linearGradient id="_Linear10" x1="0" y1="0" x2="1" y2="0" gradientUnits="userSpaceOnUse" gradientTransform="matrix(390.962,661.628,-661.628,390.962,3490.63,12456.5)"><stop offset="0" style="stop-color:#53d8ff;stop-opacity:1"/><stop offset="1" style="stop-color:#3840f7;stop-opacity:1"/></linearGradient><linearGradient id="_Linear11" x1="0" y1="0" x2="1" y2="0" gradientUnits="userSpaceOnUse" gradientTransform="matrix(-455.502,618.956,-618.956,-455.502,2594.36,11678.6)"><stop offset="0" style="stop-color:#53d8ff;stop-opacity:1"/><stop offset="1" style="stop-color:#3840f7;stop-opacity:1"/></linearGradient><linearGradient id="_Linear12" x1="0" y1="0" x2="1" y2="0" gradientUnits="userSpaceOnUse" gradientTransform="matrix(-348.56,1978.32,-1978.32,-348.56,3998.47,9044.2)"><stop offset="0" style="stop-color:#09005d;stop-opacity:1"/><stop offset="1" style="stop-color:#1a0f91;stop-opacity:1"/></linearGradient><linearGradient id="_Linear13" x1="0" y1="0" x2="1" y2="0" gradientUnits="userSpaceOnUse" gradientTransform="matrix(37.6829,697.12,-697.12,37.6829,3743.28,7659.88)"><stop offset="0" style="stop-color:#febbba;stop-opacity:1"/><stop offset="1" style="stop-color:#ff928e;stop-opacity:1"/></linearGradient><linearGradient id="_Linear14" x1="0" y1="0" x2="1" y2="0" gradientUnits="userSpaceOnUse" gradientTransform="matrix(-616.641,-901.692,901.692,-616.641,4143.14,7915)"><stop offset="0" style="stop-color:#febbba;stop-opacity:1"/><stop offset="1" style="stop-color:#ff928e;stop-opacity:1"/></linearGradient><linearGradient id="_Linear15" x1="0" y1="0" x2="1" y2="0" gradientUnits="userSpaceOnUse" gradientTransform="matrix(-2279.77,2760.22,-2760.22,-2279.77,4376.71,6666.21)"><stop offset="0" style="stop-color:#e1473d;stop-opacity:1"/><stop offset="1" style="stop-color:#e9605a;stop-opacity:1"/></linearGradient><linearGradient id="_Linear16" x1="0" y1="0" x2="1" y2="0" gradientUnits="userSpaceOnUse" gradientTransform="matrix(-257.964,713.51,-713.51,-257.964,4848.79,6511.23)"><stop offset="0" style="stop-color:#febbba;stop-opacity:1"/><stop offset="1" style="stop-color:#ff928e;stop-opacity:1"/></linearGradient><linearGradient id="_Linear17" x1="0" y1="0" x2="1" y2="0" gradientUnits="userSpaceOnUse" gradientTransform="matrix(1826.25,-2670.46,2670.46,1826.25,3802.8,8804.97)"><stop offset="0" style="stop-color:#febbba;stop-opacity:1"/><stop offset="1" style="stop-color:#ff928e;stop-opacity:1"/></linearGradient><linearGradient id="_Linear18" x1="0" y1="0" x2="1" y2="0" gradientUnits="userSpaceOnUse" gradientTransform="matrix(780.967,-690.394,690.394,780.967,-78758.2,89299.3)"><stop offset="0" style="stop-color:#09005d;stop-opacity:1"/><stop offset="1" style="stop-color:#1a0f91;stop-opacity:1"/></linearGradient><linearGradient id="_Linear19" x1="0" y1="0" x2="1" y2="0" gradientUnits="userSpaceOnUse" gradientTransform="matrix(133.789,124.788,-124.788,133.789,9329.15,11052.7)"><stop offset="0" style="stop-color:#febbba;stop-opacity:1"/><stop offset="1" style="stop-color:#ff928e;stop-opacity:1"/></linearGradient><linearGradient id="_Linear20" x1="0" y1="0" x2="1" y2="0" gradientUnits="userSpaceOnUse" gradientTransform="matrix(217.697,2183.35,-2183.35,217.697,6687.17,6868.22)"><stop offset="0" style="stop-color:#febbba;stop-opacity:1"/><stop offset="1" style="stop-color:#ff928e;stop-opacity:1"/></linearGradient><linearGradient id="_Linear21" x1="0" y1="0" x2="1" y2="0" gradientUnits="userSpaceOnUse" gradientTransform="matrix(217.697,2183.35,-2183.35,217.697,6723,6864.65)"><stop offset="0" style="stop-color:#febbba;stop-opacity:1"/><stop offset="1" style="stop-color:#ff928e;stop-opacity:1"/></linearGradient><linearGradient id="_Linear22" x1="0" y1="0" x2="1" y2="0" gradientUnits="userSpaceOnUse" gradientTransform="matrix(-42.0604,483.707,-483.707,-42.0604,7383.91,9303.9)"><stop offset="0" style="stop-color:#09005d;stop-opacity:1"/><stop offset="1" style="stop-color:#1a0f91;stop-opacity:1"/></linearGradient><linearGradient id="_Linear23" x1="0" y1="0" x2="1" y2="0" gradientUnits="userSpaceOnUse" gradientTransform="matrix(-182.956,2.24056e-14,-2.24056e-14,-182.956,7396.88,12879.9)"><stop offset="0" style="stop-color:#febbba;stop-opacity:1"/><stop offset="1" style="stop-color:#ff928e;stop-opacity:1"/></linearGradient><linearGradient id="_Linear24" x1="0" y1="0" x2="1" y2="0" gradientUnits="userSpaceOnUse" gradientTransform="matrix(672.983,3491.11,-3491.11,672.983,7509.53,11108.8)"><stop offset="0" style="stop-color:#09005d;stop-opacity:1"/><stop offset="1" style="stop-color:#1a0f91;stop-opacity:1"/></linearGradient><linearGradient id="_Linear25" x1="0" y1="0" x2="1" y2="0" gradientUnits="userSpaceOnUse" gradientTransform="matrix(672.981,3491.1,-3491.1,672.981,8459.59,10925.6)"><stop offset="0" style="stop-color:#09005d;stop-opacity:1"/><stop offset="1" style="stop-color:#1a0f91;stop-opacity:1"/></linearGradient><linearGradient id="_Linear26" x1="0" y1="0" x2="1" y2="0" gradientUnits="userSpaceOnUse" gradientTransform="matrix(-217.696,2183.35,-2183.35,-217.696,8548.86,6918.39)"><stop offset="0" style="stop-color:#febbba;stop-opacity:1"/><stop offset="1" style="stop-color:#ff928e;stop-opacity:1"/></linearGradient><linearGradient id="_Linear27" x1="0" y1="0" x2="1" y2="0" gradientUnits="userSpaceOnUse" gradientTransform="matrix(37.6829,-866.694,866.694,37.6829,7665.83,9129.45)"><stop offset="0" style="stop-color:#febbba;stop-opacity:1"/><stop offset="1" style="stop-color:#ff928e;stop-opacity:1"/></linearGradient><linearGradient id="_Linear28" x1="0" y1="0" x2="1" y2="0" gradientUnits="userSpaceOnUse" gradientTransform="matrix(-27.0784,1042.97,-1042.97,-27.0784,7659.45,7809.71)"><stop offset="0" style="stop-color:#febbba;stop-opacity:1"/><stop offset="1" style="stop-color:#ff928e;stop-opacity:1"/></linearGradient><linearGradient id="_Linear29" x1="0" y1="0" x2="1" y2="0" gradientUnits="userSpaceOnUse" gradientTransform="matrix(-336.492,-757.107,757.107,-336.492,13691.2,21080.1)"><stop offset="0" style="stop-color:#09005d;stop-opacity:1"/><stop offset="1" style="stop-color:#1a0f91;stop-opacity:1"/></linearGradient><linearGradient id="_Linear30" x1="0" y1="0" x2="1" y2="0" gradientUnits="userSpaceOnUse" gradientTransform="matrix(584.075,-433.345,433.345,584.075,8001.2,8002.14)"><stop offset="0" style="stop-color:#febbba;stop-opacity:1"/><stop offset="1" style="stop-color:#ff928e;stop-opacity:1"/></linearGradient><linearGradient id="_Linear31" x1="0" y1="0" x2="1" y2="0" gradientUnits="userSpaceOnUse" gradientTransform="matrix(-217.696,2183.35,-2183.35,-217.696,8513.03,6914.82)"><stop offset="0" style="stop-color:#febbba;stop-opacity:1"/><stop offset="1" style="stop-color:#ff928e;stop-opacity:1"/></linearGradient><linearGradient id="_Linear32" x1="0" y1="0" x2="1" y2="0" gradientUnits="userSpaceOnUse" gradientTransform="matrix(1272.05,726.066,-726.066,1272.05,9980.49,8650.34)"><stop offset="0" style="stop-color:#febbba;stop-opacity:1"/><stop offset="1" style="stop-color:#ff928e;stop-opacity:1"/></linearGradient><linearGradient id="_Linear33" x1="0" y1="0" x2="1" y2="0" gradientUnits="userSpaceOnUse" gradientTransform="matrix(572.979,1386.76,-1386.76,572.979,10146.8,9376.31)"><stop offset="0" style="stop-color:#09005d;stop-opacity:1"/><stop offset="1" style="stop-color:#1a0f91;stop-opacity:1"/></linearGradient><linearGradient id="_Linear34" x1="0" y1="0" x2="1" y2="0" gradientUnits="userSpaceOnUse" gradientTransform="matrix(-4352.3,-2724.61,2724.61,-4352.3,10103.5,8831.42)"><stop offset="0" style="stop-color:#febbba;stop-opacity:1"/><stop offset="1" style="stop-color:#ff928e;stop-opacity:1"/></linearGradient><linearGradient id="_Linear35" x1="0" y1="0" x2="1" y2="0" gradientUnits="userSpaceOnUse" gradientTransform="matrix(841.744,1241.97,-1241.97,841.744,10369,9738.11)"><stop offset="0" style="stop-color:#09005d;stop-opacity:1"/><stop offset="1" style="stop-color:#1a0f91;stop-opacity:1"/></linearGradient><linearGradient id="_Linear36" x1="0" y1="0" x2="1" y2="0" gradientUnits="userSpaceOnUse" gradientTransform="matrix(-781.903,-1281.19,1281.19,-781.903,33943.6,44749.9)"><stop offset="0" style="stop-color:#4f52ff;stop-opacity:1"/><stop offset="1" style="stop-color:#4042e2;stop-opacity:1"/></linearGradient><linearGradient id="_Linear37" x1="0" y1="0" x2="1" y2="0" gradientUnits="userSpaceOnUse" gradientTransform="matrix(553.069,638.489,-638.489,553.069,11391.9,6183.29)"><stop offset="0" style="stop-color:#09005d;stop-opacity:1"/><stop offset="1" style="stop-color:#1a0f91;stop-opacity:1"/></linearGradient><linearGradient id="_Linear38" x1="0" y1="0" x2="1" y2="0" gradientUnits="userSpaceOnUse" gradientTransform="matrix(846.666,1420.68,-1420.68,846.666,11530.1,7049.09)"><stop offset="0" style="stop-color:#4f52ff;stop-opacity:1"/><stop offset="1" style="stop-color:#4042e2;stop-opacity:1"/></linearGradient><linearGradient id="_Linear39" x1="0" y1="0" x2="1" y2="0" gradientUnits="userSpaceOnUse" gradientTransform="matrix(1267.15,0,0,1267.15,12208.4,8231.83)"><stop offset="0" style="stop-color:#febbba;stop-opacity:1"/><stop offset="1" style="stop-color:#ff928e;stop-opacity:1"/></linearGradient><linearGradient id="_Linear40" x1="0" y1="0" x2="1" y2="0" gradientUnits="userSpaceOnUse" gradientTransform="matrix(29.2898,-456.425,456.425,29.2898,11692.7,7626.2)"><stop offset="0" style="stop-color:#febbba;stop-opacity:1"/><stop offset="1" style="stop-color:#ff928e;stop-opacity:1"/></linearGradient><linearGradient id="_Linear41" x1="0" y1="0" x2="1" y2="0" gradientUnits="userSpaceOnUse" gradientTransform="matrix(-551.378,-1055.21,1055.21,-551.378,11735.8,7240.02)"><stop offset="0" style="stop-color:#febbba;stop-opacity:1"/><stop offset="1" style="stop-color:#ff928e;stop-opacity:1"/></linearGradient><linearGradient id="_Linear42" x1="0" y1="0" x2="1" y2="0" gradientUnits="userSpaceOnUse" gradientTransform="matrix(772.094,154.915,-154.915,772.094,11046.9,6641.58)"><stop offset="0" style="stop-color:#09005d;stop-opacity:1"/><stop offset="1" style="stop-color:#1a0f91;stop-opacity:1"/></linearGradient><linearGradient id="_Linear43" x1="0" y1="0" x2="1" y2="0" gradientUnits="userSpaceOnUse" gradientTransform="matrix(-551.373,-1055.2,1055.2,-551.373,11862,7174.06)"><stop offset="0" style="stop-color:#febbba;stop-opacity:1"/><stop offset="1" style="stop-color:#ff928e;stop-opacity:1"/></linearGradient><linearGradient id="_Linear44" x1="0" y1="0" x2="1" y2="0" gradientUnits="userSpaceOnUse" gradientTransform="matrix(-653.112,214.207,-214.207,-653.112,12150.3,8217.2)"><stop offset="0" style="stop-color:#09005d;stop-opacity:1"/><stop offset="1" style="stop-color:#1a0f91;stop-opacity:1"/></linearGradient><linearGradient id="_Linear45" x1="0" y1="0" x2="1" y2="0" gradientUnits="userSpaceOnUse" gradientTransform="matrix(-1018.87,1348.93,-1348.93,-1018.87,11435.1,7476.6)"><stop offset="0" style="stop-color:#09005d;stop-opacity:1"/><stop offset="1" style="stop-color:#1a0f91;stop-opacity:1"/></linearGradient></defs></svg>