<?xml version="1.0" encoding="utf-8"?>
<!-- Generator: Adobe Illustrator 24.0.0, SVG Export Plug-In . SVG Version: 6.00 Build 0)  -->
<svg version="1.1" id="Layer_1" xmlns="http://www.w3.org/2000/svg" xmlns:xlink="http://www.w3.org/1999/xlink" x="0px" y="0px"
	 viewBox="0 0 3100 2000" style="enable-background:new 0 0 3100 2000;" xml:space="preserve">
<style type="text/css">
	.st0{fill:#FFFFFF;}
	.st1{fill:#13375B;}
	.st2{fill:#466EB6;}
	.st3{fill:#F7CC7F;}
	.st4{fill:#86B1F2;}
	.st5{fill:#FAE0B2;}
	.st6{fill:#184655;}
	.st7{fill:#355389;}
	.st8{fill:#F7A491;}
	.st9{fill:#3C8F7C;}
	.st10{fill:#50BFA5;}
	.st11{fill:#F48C7F;}
	.st12{fill:#B75742;}
	.st13{fill:#F47458;}
	.st14{fill:#07345A;}
	.st15{fill:#F8A492;}
	.st16{fill:#F79C8D;}
	.st17{fill:#9BC1F9;}
</style>
<rect y="0" class="st0" width="3100" height="2000"/>
<g>
	<g>
		<path class="st1" d="M1185.8,1561.4c11.4-62.3,32.7-122.8,64.3-178.9c8.9-15.9,18.7-31.4,29.1-46.5c4.9-7.1-7.3-13.7-12.2-6.6
			c-37.4,54.1-65.5,113.8-82.7,176c-4.8,17.4-8.7,34.9-11.7,52.6c-0.6,3.4,0.9,6.8,4.8,7.8
			C1180.6,1566.7,1185.2,1564.8,1185.8,1561.4L1185.8,1561.4z"/>
	</g>
	<g>
		<path class="st1" d="M1327.9,1353.2c9.7,8.3,14.6,19.9,18.7,31.2c5,13.7,8.9,27.7,12,41.8c6.2,27.8,9.2,56.2,11,84.5
			c1.1,16.4,1.8,32.9,2.4,49.3c0.3,8.5,14.8,8.6,14.4,0c-2.4-59.3-5-119.8-25.3-176.7c-5.1-14.2-11-29.1-23.6-39.2
			c-2.8-2.2-7-2.5-9.7,0C1325.4,1346.6,1325.2,1350.9,1327.9,1353.2L1327.9,1353.2z"/>
	</g>
	<path class="st1" d="M1349.3,1302.9h-192.2c-13.7,0-24.9,10.2-24.9,22.9l0,0c0,12.6,11.1,24,24.8,24l223.5,8.1
		c12.7,0,27-17.2,30-28.6l57.6-213.2c3.5-13.1-5.3-26.4-19.6-29.4l0,0c-13.9-3-27.9,4.8-31.5,17.6l-52.1,187.3
		C1363.3,1298.3,1356.8,1302.9,1349.3,1302.9z"/>
	<polygon class="st2" points="1285.8,789 1268.3,788.4 1266.7,804.6 1249.5,804.7 1246,820 1233.1,822.2 1234.2,828.7 1251.5,825.8 
		1254.8,811.3 1272.7,811.1 1274.3,795.2 1290.1,795.8 	"/>
	<polygon class="st3" points="1074.8,1086.5 1072.2,1095.8 1086.7,1101.8 1084.5,1115.9 1094.6,1122.1 1091.5,1127.3 1077.9,1118.9 
		1080,1105.6 1064.9,1099.4 1068.9,1085.3 	"/>
	<polygon class="st3" points="1472.5,1039.5 1459.2,1042.5 1450.8,1031.4 1436.1,1035.7 1430.7,1021.2 1413.9,1025.3 1407.3,1012.5 
		1390.4,1013.9 1390.9,1020.3 1403.6,1019.3 1410.5,1032.8 1426.7,1028.8 1432.1,1043.6 1448.3,1038.8 1456.6,1049.6 1468.9,1046.9 
		1472.8,1055.1 1478.6,1052.4 	"/>
	<polygon class="st3" points="1118.6,1080.4 1126.8,1075.1 1123.3,1069.7 1110.1,1078.4 1118.4,1093.1 1109.7,1103.6 1115.1,1115 
		1108,1120.6 1112,1125.7 1123.1,1116.8 1117.2,1104.5 1126.1,1093.8 	"/>
	
		<rect x="933.5" y="1194.9" transform="matrix(-1 -1.224647e-16 1.224647e-16 -1 2121.5249 2473.625)" class="st4" width="254.6" height="83.9"/>
	
		<rect x="828" y="1190.1" transform="matrix(-1 -1.224647e-16 1.224647e-16 -1 1846.3441 2707.4346)" class="st5" width="190.4" height="327.3"/>
	
		<rect x="1176.6" y="1178.4" transform="matrix(-1 -1.224647e-16 1.224647e-16 -1 2380.1338 2737.7344)" class="st6" width="26.9" height="380.9"/>
	
		<rect x="907" y="1516.6" transform="matrix(-1 -1.224647e-16 1.224647e-16 -1 1833.3842 3075.8936)" class="st6" width="19.3" height="42.8"/>
	
		<rect x="799.9" y="1517.2" transform="matrix(-1 -1.224647e-16 1.224647e-16 -1 1619.1572 3076.5303)" class="st6" width="19.3" height="42.1"/>
	<g>
		<path class="st7" d="M962.5,1171.2c0.5,0,0.9,0,1.4-0.2c4-0.9,6.6-5.4,5.8-10.1c0,0-31.6-182.2-34-183.1c-0.8-0.3-2.6-4-2.7-4
			c-0.4,0-0.8,0.1-1.1,0.2c-4,0.9-6.6,5.4-5.8,10.1l29.3,180.1C955.9,1168.3,959,1171.2,962.5,1171.2z"/>
		<path class="st2" d="M1026.6,990.9l29.2,175.6l-90.6,1.3l-32.4-193.9l82.4,4.6C1021.5,978.7,1025.8,986.1,1026.6,990.9z"/>
		<path class="st7" d="M1182.8,1162.7c0,0.1,0,0.2,0,0.3l0,0c0,5.6-3.3,10.2-7.3,10.2l-115,0.3c-4.1,0-7.4-4.5-7.4-10.1
			c0-0.2,0-0.5,0-0.7H1182.8z"/>
		<path class="st7" d="M1149.5,1162.7c0,0.1,0,0.2,0,0.3l0,0c0,5.7-4.9,10.3-11,10.3l-172.3,0.4c-6.1,0-11.1-4.6-11.1-10.3
			c0-0.2,0-0.5,0-0.7H1149.5z"/>
	</g>
	<path class="st8" d="M1113.9,1480.5c-7,13-24.1,55.9-24.8,59.2c-0.2,0.9-2.6,4.1-3.4,4.7c-22.1,2.2-38.3-9.6-50.5-21.3
		c11.6,0.8,29.3-2.2,31.9-2.6c6.7-1.1,6-21.6,9.8-44.6C1082.9,1478.6,1105.2,1472.7,1113.9,1480.5z"/>
	<path class="st7" d="M1089.2,1539.4c-1.8,7.2-9.4,20.4-10.9,20.1c-1.8-0.5-67-23.9-72.6-33.2c-3.5-5.8,14.4-6,28.7-5.3
		C1046.7,1532.6,1085.5,1541.3,1089.2,1539.4z"/>
	<path class="st9" d="M1324.6,1297l-151.7,8.7l-55.3,191.5l-44-8.6c0,0,24.7-198.2,39-214.7c39.2-45.2,176.1-39.9,176.1-39.9
		L1324.6,1297z"/>
	<path class="st8" d="M1207.6,1490.8c-0.6,8.8-2.6,19.5-2.2,29.8c0.3,6.9,2.8,15.3,3.1,16.6c0.2,0.9-0.7,4.8-1.2,5.7
		c-19.2,11.2-38.8,7.2-54.8,1.7c10.9-4.1,18.4-12.2,21.2-15.2c4.6-5,1.3-20.1-4.8-42.5C1175.5,1486.8,1196.4,1487.3,1207.6,1490.8z"
		/>
	<path class="st10" d="M1308.9,1220.6c0,0-141.5,2.7-177.1,54.7c-26.6,38.9,39.6,231,39.6,231l39.9-7.3c0,0-9.2-130.2-15.8-173.1
		c-1.1-7.3-6.3-28.8-6.3-28.8s17.7,5.3,50.5,7.4c45.2,2.9,110.9,2.1,125-5.3c24.5-12.7,34.8-47.3,24-69.9
		C1378.1,1206.8,1308.9,1220.6,1308.9,1220.6z"/>
	<path class="st7" d="M1208.5,1537c2.5,4.6,3.7,22.2,2.3,22.5c-1.8,0.3-76.7,4.5-85.7-1.6c-5.5-3.8,14.2-7.9,27.5-13.2
		C1168.6,1550.1,1207.7,1541.8,1208.5,1537z"/>
	<path class="st11" d="M1200.2,1126.4c0,0-41.2,10.3-61.8,16.9c-20.6,6.6-46.8,8.4-46.8,8.4l-22.2,11.7l47.5,1.4l110.5-9.8l9.4-25.8
		L1200.2,1126.4z"/>
	<path class="st12" d="M1231.1,1043l-19.7,2.8c0,0-7,1.4-12.6,32.3c-5.6,30.9-13.6,47.3-13.6,47.3l48.2,19.2
		C1268.7,1095.9,1292.9,1038.3,1231.1,1043z"/>
	<path class="st13" d="M1230,1015c-12.6,2.2-13.3,12.3-13.3,12.3l-12.9,53.6c0,0-1.2,22.7,1.4,31.4c5.1,16.9,15.3,23.6,32.1,29.3
		c22.3,7.6,31.1,26.8,40.7,38c16.7,19.4,3.1,42.7,3.1,42.7l116.4,16.3c0,0,1.6-22.7-24.8-86.6
		C1349.8,1096.7,1294.9,1003.6,1230,1015z"/>
	<path class="st8" d="M1271.4,1021.5c-14.3-15.7-50.6,3.7-39.3,55.7c0.1,0.3,4.2,54.9,0.7,61.8c-2.1,4.2-52.7,2.1-83.3,8.5
		c0,0-33.1-12.3-44.7-13.1c-8.6-0.6-29.1,5.9-29.1,5.9s-26.4,19.5-22.7,22.7c5.1,4.4,17.5-14.8,27.9-14.8c0,0-19.1,14.7-13.2,15.1
		c5.9,0.3,14-4.1,18.3-5.4c4.2-1.3,19.9,6.6,33.7,8.2c2.3,0.3,11.3-0.2,21.8,1.2c10.6,1.4,22.6,5.3,36.7,5.9
		c37.8,1.8,80.6,5.9,91.2-4.7C1277.2,1160.6,1295.4,1047.9,1271.4,1021.5z"/>
	<path class="st12" d="M1277.8,1136.4c-23.1-3-46.2-11.7-46.2-11.7s-1.9-45.7-2.1-47.5c-1.5-23.9-0.6-43.1,9.4-55.5
		c5-6.2,10.4-7.7,16.8-7.7c6,0,14.3,2.3,18.7,8c16.1,20.6,9.9,80.4,4.9,113.3l-0.2,1.4L1277.8,1136.4z"/>
	<path class="st12" d="M1219.5,926.6c1.8-15.4,1.8-73.9,37.3-72.7c35.6,1.2,35.8,40.4,64.6-6.8c26.7-43.7,76-15.5,71.4,20.7
		c5.1,0.5,10.1,2.2,14.6,5.2c15.6,10.3,19.3,32,8.4,48.5c-1.7,2.6-1.6,5.6-3.8,7.6c1.1,16.3-5.1,33.6-20.5,49.4
		c-42.2,43.2-65.3-15.1-88-16.5c-22.7-1.4-11.6,18.7-33.4,28.6c-21.8,9.9-36.6,3.4-60.9-39.5l-5.8-11.7
		C1203.4,939.3,1217.7,942,1219.5,926.6z"/>
	<path class="st12" d="M1199,915.9c25,17.5,30.6,61.9,7.5,83.2c-15,13.8-44.5,16.2-60.8,2.5c-26.6-22.2-29.5-47.3-20.1-67.1
		C1137.7,909.1,1178.3,901.5,1199,915.9z"/>
	<path class="st8" d="M1206.8,976.2c0,0,7.7,23.9,34.9,37.8c3.3,1.7-37.9,68-37.9,67.2c-0.1-5.1,7.1-35,5.4-38.7
		c-4.8-10-32.8-55.9-32.8-55.9L1206.8,976.2z"/>
	<path class="st13" d="M1191.2,981.6l-14.9,5.1l0,0c0,0,12.3,20.1,22,36.6c3.4-2.8,6.5-6.9,8.9-12.5c3.9-9,4.5-18.3,3-27.1
		c-2.4-4.5-3.4-7.4-3.4-7.4L1191.2,981.6z"/>
	<path class="st8" d="M1151.2,931.3c0,0,13.4-5.7,27.9-0.2c14.5,5.4,40.6,40.8,27.2,71.8c-13.5,31-45.6,15.6-59.9-4.1
		C1132.1,979.1,1117.9,949.5,1151.2,931.3z"/>
	<path class="st12" d="M1209.1,948.8c-11.5-20-24.1-31.7-41.9-27.2c-17.8,4.6-33.7,7.6-34.9,28.4l-1.3,3.6c0,0,25.7-12.6,36.4-2.7
		s33,13,36,19.9c3,6.8,10.3,19.2,10.3,19.2l1.3-7.7C1215.1,982.3,1220.7,968.8,1209.1,948.8z"/>
	<path class="st8" d="M1182,961.1c2.4,6.2,7.8,9.8,12.1,8c4.3-1.8,5.8-8.3,3.4-14.5c-2.4-6.2-7.8-9.8-12.1-8
		C1181.2,948.4,1179.6,954.9,1182,961.1z"/>
	
		<rect x="723.5" y="1190.1" transform="matrix(-1 -1.224647e-16 1.224647e-16 -1 1756.5892 2707.4346)" class="st4" width="309.7" height="327.3"/>
	
		<rect x="1028.8" y="1182.8" transform="matrix(-1 -1.224647e-16 1.224647e-16 -1 2083.196 2742.3037)" class="st6" width="25.6" height="376.7"/>
	
		<rect x="716.7" y="1185.6" transform="matrix(-1 -1.224647e-16 1.224647e-16 -1 1447.8687 2747.9766)" class="st6" width="14.5" height="376.7"/>
	<path class="st6" d="M666.3,1196.4H1224c5.5,0,9.9-4.4,9.9-9.9v-3.4c0-5.5-4.4-9.9-9.9-9.9H666.3c-5.5,0-9.9,4.4-9.9,9.9v3.4
		C656.4,1192,660.9,1196.4,666.3,1196.4z"/>
</g>
<g>
	<path class="st4" d="M2484.6,1564.9c0-3.8-1.9-7-4.2-7H576.9c-2.8,0-5.1,3.1-5.1,7c0,3.8,2.3,7,5.1,7h1903.5
		C2482.7,1571.8,2484.6,1568.7,2484.6,1564.9L2484.6,1564.9z"/>
</g>
<g>
	<path class="st8" d="M1782.8,449.3h268c25.6,0,46.3-20.7,46.3-46.3v-92.5c0-25.6-20.7-46.3-46.3-46.3h-268
		c-25.6,0-46.3,20.7-46.3,46.3v92.5C1736.5,428.6,1757.2,449.3,1782.8,449.3z"/>
	<polygon class="st8" points="2000.9,426.9 2007.7,558 1915.2,423.8 	"/>
</g>
<g>
	<path class="st11" d="M1639.6,830.1l5.9-27.1c0,0,19.5,12.4,30.8,30c11.4,17.6,16.8,64.7,20,66.5c3.2,1.8,39.2-53.6,45.5-62.3
		c7.8-10.8,10.7-23.2,15.5-32.6c4.9-9.4,22-12.6,28.5-11.4c6.5,1.2-8.9,28.7-8.9,28.7s-38.9,67.6-51.9,104.7
		c-13,37.1-53.5,54.7-60,49.4C1658.5,970.7,1639.6,830.1,1639.6,830.1z"/>
	<path class="st8" d="M1757.8,809.8c0,0,1.6-7.1,6-8.6c4.4-1.5,12-0.2,12.5,0c0.5,0.2,8.9-4.4,8.9-4.4l-7,13c0,0-13.6,16-18.1,10
		S1757.8,809.8,1757.8,809.8z"/>
	<path class="st11" d="M1787.6,797.4c0,0,4.9,25,3.7,30.2c-1.2,5.3-4.4,2.4-5,1.3c-2.4-4.7-4.1-20.7-4.1-20.7L1787.6,797.4z"/>
	<path class="st11" d="M1777,818.2c0,0,2.3,15.5,4.7,17.3c1.6,1.2,3.6,0.5,4.2-2.6s-3.1-22.2-3.1-22.2L1777,818.2z"/>
	<path class="st6" d="M1762.7,862.2l-8.1-4l34.6-71l0,0c4.5,2.2,6.4,7.6,4.2,12.1L1762.7,862.2z"/>
	<path class="st1" d="M1675.7,718.8c4.9-22.2,9.7-44.6-3.2-69c-10.4-19.7-28.4-31.1-49.3-33.6c-59.1-7-46.5,48.1-129,60.1
		c-25.7,3.7-49.5,7.3-70.9,20c-38.7,23-53.3,60-27.6,120.2c62.8,147.5,217,22.3,236.1-6.8C1645.9,788.3,1672.6,733.1,1675.7,718.8z"
		/>
	<path class="st8" d="M1439.4,1650.3c0,0-4.2,42.7-15,50.6c-10.8,7.8-25.2,36.9-18,52.6c2.3,4.9,6.8,7.7,11.9,9.3
		c15.2,4.7,31.4-3.2,37.8-17.7c3.6-8.1,6.8-18.9,7.4-32.6c1.6-34.7,12.4-52.4,12.4-52.4L1439.4,1650.3z"/>
	<path class="st8" d="M1605.6,1667.8c0,0,3.4,43.1,0.6,57.1c-1.5,7.5-9.7,22.9-5.9,30c3.8,7.1,8.1,8.8,8.1,8.8l98.1,1.6
		c5.3,0.1,1.8-3.3-2.5-6.5c-7.1-5.2-12.7-8.6-35.3-19.5c-1.5-0.7-6.8-4.1-8.7-5.3c-4.9-3-9.8-7.7-14-12.4c-7-7.8-7.7-45.8-7.7-45.8
		L1605.6,1667.8z"/>
	<path class="st9" d="M1682.3,1094.8c0,0,12.4,70,4.2,115.9c-8.1,45.9-47,471.2-47,471.2l-43.3,2.4c0,0-9.1-177.7-7.4-202.4
		c1.6-24.7,14.5-66,14.5-66l-4.3-143.4l54.6-188.4L1682.3,1094.8z"/>
	<path class="st10" d="M1555.1,1080.1c0,0-34.1,51.2-42.2,93.5c-8.1,42.4,6,172.5-9.6,228c-8.4,30-40.5,76.4-45.3,115.3
		c-4.9,38.8-24,140.5-24,140.5l43.2,8.6l100.5-254l78.8-229.6l20.2-118.2L1555.1,1080.1z"/>
	<path class="st5" d="M1582.7,788.9c0,0-29.8,3.4-47.7,22.8c-17.8,19.4,28.8,175.4,32.1,200.2c3.2,24.7-26.6,82.3-26.6,82.3
		s111.5,20.6,141.8,0.6c0,0,3.2-177.7,0-195.3c-3.2-17.6-30.3-89.4-36.8-96.5C1639,796,1582.7,788.9,1582.7,788.9z"/>
	<path class="st8" d="M1540.5,826.4c2.9-8.7,12.7-12.9,21.1-9.2c11.5,5,27.4,14.4,35.2,30.6c13,27.1,58.4,120,72.5,123.5
		c14.1,3.5,71.4-96.5,71.4-96.5s-1.6-17.6,3.2-27.6c4.9-10,19.5-20.6,21.6-17.1c2.2,3.5-8.1,12.4-8.1,14.1c0,1.8,4.3,2.9,10.3-0.6
		c5.9-3.5,9.2-10.7,9.2-10.7s9.8,17.7-0.5,33.6c-10.3,15.9-14.6,22.4-14.6,22.4s-66.5,147.7-90.9,149.4
		C1648.3,1040,1517.8,895.2,1540.5,826.4z"/>
	<path class="st8" d="M1597.7,728.8c0,0-0.2,1.3-0.7,3.6c-2,10.8-9.8,46.7-15,56.6c-6.3,11.9,21.6,50,48.6,45.3
		c8-1.4-6.8-35-6.1-38.5c1.4-6.8,3.2-16.1,5.1-25.6c1.1-5.4,2.1-10.8,3.2-15.9c2.9-14.5,5.2-26.4,5.2-26.4L1597.7,728.8z"/>
	<path class="st13" d="M1597.1,732.4c0.4-2.3,0.7-3.6,0.7-3.6l40.3-1c0,0-2.3,11.9-5.2,26.4c-1,5.1-2.1,10.5-3.1,15.8
		c-6.2-0.9-12.7-3.9-19.3-9.6c-7.1-6.2-11.8-13.7-14.6-21.7C1596.4,736.2,1596.8,734.1,1597.1,732.4z"/>
	<path class="st8" d="M1622,632.9c0,0-16.5,2.3-28.4,17.7s-24.8,63,4.8,88.8c29.6,25.9,58.9-3.4,63.2-34.5
		C1666,673.9,1665.1,631.8,1622,632.9z"/>
	<path class="st8" d="M1671.1,694.3c-3.5,6.9-9.5,10.7-13.2,8.5c-3.8-2.2-4-9.5-0.5-16.3c3.5-6.9,9.5-10.7,13.2-8.5
		C1674.5,680.2,1674.7,687.5,1671.1,694.3z"/>
	<path class="st1" d="M1627,632.2c0,0-25.4,45.2-43.6,47.3c-18.2,2.1-20.6,26.1-20.6,26.1s6.5-55.4,24.5-66.1
		C1605.4,628.9,1627,632.2,1627,632.2z"/>
	<path class="st8" d="M1589.4,690.3c1.5,8-1.5,15.4-6.6,16.5c-5.1,1.1-10.5-4.6-12-12.6c-1.5-8,1.5-15.4,6.6-16.5
		C1582.5,676.6,1587.9,682.3,1589.4,690.3z"/>
	<path class="st9" d="M1459,1737.4c-23.6,4.3-39.3-9.5-47.4-19.8c-6,11.7-9.7,26.2-5.3,35.8c3.9,8.4,14.4,10.8,23.4,11.1
		c9.4,0.3,18.3-4.6,23-12.8C1454.9,1747.9,1457.1,1743.1,1459,1737.4z"/>
	<path class="st9" d="M1660,1734c-25.9,6.6-45.1,2.1-55.9-2.2c-2.8,7.8-6.4,17.6-4.5,23.3c2.4,6.9,5.8,8.5,8.8,8.6
		c23.7,0.6,86.8,1.5,104.9,1.7c2.5,0,3.9-2.9,2.3-4.8C1711.1,1755.2,1661.9,1735.2,1660,1734z"/>
</g>
<g>
	<path class="st10" d="M588.5,726.6c41.1-57.9,132.5-31.1,135.2,39.8c0,0.8,0.1,1.7,0.1,2.5c1.8,83.9-62,105.8-41.9,165.9
		c20.1,60.2,81,15.3,104.7,113.8c23.7,98.5-57.3,153.1-50,211.4c7.3,58.3,41.9,97.2,40.1,173.2c-1.4,56.5-103.9,231.6-103.9,231.6
		S536,1515.3,532.3,1415c-3.5-95.1,64.6-86.2,68.3-175.6c3.6-89.3-129.5-101.3-64.6-213.4c13.7-23.6,48.8-46.7,48.8-97.7
		s-46.2-128.8-9.7-182.3C579.5,739.4,584,733,588.5,726.6z"/>
	<path class="st9" d="M736.5,1260c-7.3-58.3,73.7-112.9,50-211.4c-23.7-98.5-84.6-53.6-104.7-113.8c-20.1-60.2,43.8-82.1,41.9-165.9
		c0-0.8,0-1.7-0.1-2.5c-1.6-43.6-36.8-70.5-73.1-71.3l-0.2,2.3c0,0-51.1,206.6-17,311.2c34,104.5,60.8,111.8,43.8,252.8
		c-17,141-4.4,403.5-4.4,403.5s102.6-175.1,103.9-231.6C778.5,1357.2,743.8,1318.3,736.5,1260z"/>
	<g>
		<path class="st13" d="M759.5,1732.1H537.4c-28.3-26.7-45.5-63.4-44.9-103.7c0.3-20.3,4.4-38.1,12.8-55.5l286.4,3.3
			c7.9,17.7,12.2,37.1,11.8,57.5C803,1672.1,786.3,1706.7,759.5,1732.1z"/>
	</g>
</g>
<g>
	<path class="st5" d="M1832.1,534.7h-216.2c-20.6,0-37.3-16.7-37.3-37.3v-74.6c0-20.6,16.7-37.3,37.3-37.3h216.2
		c20.6,0,37.3,16.7,37.3,37.3v74.6C1869.4,518,1852.7,534.7,1832.1,534.7z"/>
	<polygon class="st5" points="1671.2,514.1 1642.9,599 1725.3,514.1 	"/>
	<path class="st0" d="M1663.9,465.7c0,7.5-6.5,13.6-14.6,13.6c-8,0-14.6-6.1-14.6-13.6c0-7.5,6.5-13.6,14.6-13.6
		C1657.4,452.1,1663.9,458.2,1663.9,465.7z"/>
	<path class="st0" d="M1738.4,465.7c0,7.5-6.5,13.6-14.6,13.6c-8,0-14.6-6.1-14.6-13.6c0-7.5,6.5-13.6,14.6-13.6
		C1731.9,452.1,1738.4,458.2,1738.4,465.7z"/>
	<path class="st0" d="M1812.8,465.7c0,7.5-6.5,13.6-14.6,13.6s-14.6-6.1-14.6-13.6c0-7.5,6.5-13.6,14.6-13.6
		S1812.8,458.2,1812.8,465.7z"/>
</g>
<g>
	<path class="st7" d="M731.2,1285.1c0,0,120.9-36.3,125.7-35.4c4.8,0.9-14.2,41.2-11.8,54.2c0.8,4.2-103.5,63.8-126.6,59.4
		c-25.3-4.8-122.3-88.3-132.7-106.4c-11.6-20.2-31.8-70.7-18.3-89.7c6.1-8.7,21-20.2,31.4-17.8C640,1159.2,684.4,1232,731.2,1285.1z
		"/>
	<path class="st2" d="M737.8,1423.7c-0.8-3.6-25.9-61.9-27.1-67.9c-16.7-77.7-80.8-191.4-110.5-206c-4.8-2.4-39.1-2.6-39.1-2.6
		l17.7,8.8c20.2,18.4,42.8,39.8,57.2,63.5c41.8,69,70.2,227.9,74,227.7C714.3,1446.8,739.6,1431.7,737.8,1423.7z"/>
	<path class="st3" d="M698.2,1425.8c-58.7-34.1-67.9-114.7-92.7-158c-30.4-53-75.2-58.8-152.3,37.3
		c-94.6,117.8-46.4,354.7,84.1,430.6l313.1-0.7c64.5-23.2,93.2-57.3,116.3-114C1069.7,1368.9,828.7,1501.8,698.2,1425.8z"/>
	<path class="st8" d="M837,1687.5c0,0-2.2,38.6-2.2,38.7c-0.8,4.9-4,17-4,21.5c0,16.7,74.4-14.2,57.7-21.6
		c-1.5-0.7-11.8-9.5-12.3-15.2c-0.8-8.8-0.4-22.7-0.4-22.7L837,1687.5z"/>
	<path class="st14" d="M887.5,1725.2c0,0-17.5,5.1-26.4,6.4c-9,1.3-20.7-9.5-27.1-6.6c-5.2,2.4-7.2,19.6-7.9,28.4
		c-0.2,2.8,1.9,5.2,4.7,5.3c20.6,1.1,98.8,4.7,119.1-1.2C960.5,1754.5,923.2,1737.2,887.5,1725.2z"/>
	<path class="st14" d="M1046.2,1648.8c0,0-17.5,5.1-26.4,6.4c-8.9,1.3-20.7-9.5-27.1-6.6c-5.2,2.4-7.2,19.6-7.9,28.4
		c-0.2,2.8,2.2,5.9,5,6.2c22.8,2.2,98.5,3.8,118.8-2.1C1119.1,1678,1081.9,1660.7,1046.2,1648.8z"/>
	<path class="st8" d="M972.8,1617.5c0,0,20.9,29.4,22.9,35.9c2,6.5,50.5,11.3,50.5-4.7c0-0.2-15-12.4-19.3-18
		c-7.1-9.3-23.7-40.5-23.7-40.5L972.8,1617.5z"/>
	<path class="st14" d="M522.1,976.3c0,0-23.6-16-33.6,12c0,0-13.3-4-19.1,9.7c0,0-22.9-1.7-21,31.5c0,0-11.5,0.4-10.1,13.8
		c1.4,13.4,10,20.7,10,20.7s-5.2,6,0.3,17.5c4.7,9.7,13.5,9.4,13.5,9.4s6.1,16.8,14.8,20.3c8.6,3.6,18.3-1.2,18.3-1.2
		s4.8,8.8,13.3,6c8.6-2.8,17.6-13.5,28.2-11.9c10.6,1.6,35.2-8,35.2-8s25.7-19,10.7-46.3c0,0,12-16.8-4.7-30.2c0,0,4-27.5-18.3-38.3
		C537.5,970.5,522.1,976.3,522.1,976.3z"/>
	<path class="st13" d="M896.6,1393.3c-19.6-9.7-225.7,22.4-225.7,22.4l-24.7-39.4l-80.4,18.2c0,0-22.8,26.2-23.7,37.9
		c-3,38,14.4,101.8,34,108c69.9,22.1,220.2-23.1,241.3-27.9c0,0-0.8,34.1,5.6,103.6c2.5,27.5,5.8,57.8,8.9,84.2
		c18.4,0,36.8-0.4,55.2-2.8C887.1,1697.7,916.3,1402.9,896.6,1393.3z"/>
	<path class="st12" d="M1027.2,1613.4c-35.2-89-111.7-263.7-139.5-268.7c-36.3-6.4-216.9,71-216.9,71l183.1-3.8c0,0,1,1.8,9,40.2
		c6.2,29.9,75.1,135.3,114.4,193.7C995.6,1637.6,1013.5,1630,1027.2,1613.4z"/>
	<path class="st0" d="M562,1147.8c0,0-45.6-0.5-50.5,0.6c-4.8,1.1,3.8,186.1,9.8,255.2c5.9,69.1,15.4,79.4,15.4,79.4
		s65,0.3,110-13.9c46.7-14.8,57.8-69,57.8-69s-42.3-124.1-59.3-162.6c-10.9-24.6-32.5-52.3-54.5-74.9
		C578.4,1149.8,562,1147.8,562,1147.8z"/>
	<path class="st8" d="M549.2,1114.1l9.2,25c0,0,16,35.4,7.5,44.7c-8.4,9.4-52.5-35.9-52.5-35.9l-11-66L549.2,1114.1z"/>
	<path class="st13" d="M506,1103.3c13.2,20.4,35.9,29.7,51,32l-7.8-21.2l-46.8-32.2L506,1103.3z"/>
	<path class="st8" d="M510.4,1008.4c18.7-11.5,43.3-2.8,51.1,17.5c3.4,8.8,7.1,20,10.1,32.4c7.2,29.9-1.9,62.6-15.6,65.6
		c-13.6,3-55.7-8.1-66.5-50.5C482.8,1047.2,490.7,1020.4,510.4,1008.4z"/>
	<path class="st8" d="M500.3,1074.5c1.5,6.6-1.7,13-7.2,14.2c-5.4,1.2-11-3.2-12.5-9.8c-1.5-6.6,1.7-13,7.2-14.2
		C493.3,1063.5,498.8,1067.9,500.3,1074.5z"/>
	<path class="st2" d="M513.3,1147.7c0,0-53-2.1-65,9c-7.7,7.1,7.9,77.9,7.9,77.9s43.2,82.7,49.5,131
		c10.4,80.3,19.9,129.7,24.1,132.3c23.8,8.5,102.5-7.7,105.7-17C671.5,1378.4,513.3,1147.7,513.3,1147.7z"/>
	<path class="st6" d="M769.4,1317.9l35.2-148.4c0.9-3.8,4.3-6.6,8.3-6.6h63.8c5.6,0,9.7,5.3,8.2,10.7l-38.8,146.1
		c-1,3.6-4.2,6.2-7.9,6.3l-60.2,2.4C772.4,1328.6,768.1,1323.3,769.4,1317.9z"/>
	<path class="st15" d="M827.6,1314c-2.7,0.5-7.2,1.5-10.3,2.6c-3.3,1.2-6.8,1.3-9.8,1.9c-5.9,1.2-10.1,2.2-10.1,1.9
		c0.1-0.3-1.2-0.9,1.9-2.1c3.7-1.4,12.2-2.7,17.4-5.2c3-1.4,9.4-4,9.4-4s9-5.6,8.8-6.2c-0.8-3.3-8-1.2-11.8,1.2
		c-3.2,0.3-9.9,3.2-9.9,3.2s-14.8,2.9-15.2,0.8c-0.2-0.9,8.7-3.7,17-7.8c7.7-3.8,14.8-8.8,14.3-10.4c-0.9-2.7-9.8,0.7-9.8,0.7
		s-6.2,2.7-8.3,3.4c-2.5,0.9-10.1,2.9-10.1,2.9s-26.8,5.8-27,3.9c-0.2-2,1.3-7.2,2.8-8.2c1.5-0.9,5.3-1.2,6.8-2.1
		c1.5-0.9,2.8-3.4,1.8-5.3c-1-1.9-10.1-0.2-10.1-0.2s-7.4,1.4-11.4,4.8c-13.9,11.6-11.4,13.4-13.2,14.8c-2.2,1.7-38.8,5.7-38.8,5.7
		s-107.8,12.5-113.7,13l3.8,35.9c6.4,0.7,130.9-21,143.6-23.6c0,0,16.3,2.4,26.6,3.6c10.3,1.2,20.7-2.1,23.6-2.2
		c0.4,0,10.3-0.9,22.1-5.1c10.2-3.7-1.1-4.7-1.1-4.7s-20.1,3.5-20.1,1.9c0-1.2,11.1-2.5,22.5-6.4c2.9-1,5.8-2,8.4-3
		C834.8,1317.4,835.3,1312.5,827.6,1314z"/>
	<path class="st4" d="M582.3,1305.9c0,0,125.8-0.9,130.7,0c4.8,0.9,6.1,33.2,8.5,46.2c0.8,4.2-132.6,19.1-155.7,14.7
		c-25.3-4.8-88.8-74.7-103.6-98.2c-12.4-19.8-38.7-70.1-32.2-92.1c4-13.3,24.5-28.3,35.8-24.9
		C510.5,1165.5,582.3,1305.9,582.3,1305.9z"/>
	<g>
		<path class="st8" d="M867.2,1246.7c2.4-0.9,5.1,0.5,5.6,3c0.5,2.6,0.5,5.7-1.5,7.7c-4,4-30.7,6.9-30.7,3
			C840.7,1257.4,858.9,1250,867.2,1246.7z"/>
		<path class="st8" d="M873.1,1258.3c0,0,3.1,9.8,0.8,10c-2.3,0.2-30.9,4.2-32.3,0.8C840.1,1265.8,869.3,1256.4,873.1,1258.3z"/>
		<path class="st8" d="M874.3,1269.4c0,0,1.1,4.4-1.1,7.1c-2.2,2.7-29,2.8-30.3-1.4C841.6,1270.8,873.1,1266.2,874.3,1269.4z"/>
		<path class="st8" d="M868.2,1279.4c0,0,0.6,3.3-0.6,5c-1.1,1.6-21,2.7-23.6-1.2C841.5,1279.3,865.2,1275.4,868.2,1279.4z"/>
	</g>
</g>
<g>
	<g>
		<path class="st3" d="M2346.5,807.9c27.4-1.5,43,31.4,24.5,51.8c-3.3,3.7-5.1,8.5-5.2,13.4l-0.4,17c-0.1,4.7-3.8,8.5-8.5,8.8
			l-10.4,0.6c-4.7,0.3-8.8-3.1-9.4-7.8c-2.3-17-2-23.4-9-29.6C2307.3,844,2319.1,809.5,2346.5,807.9z"/>
		<g>
			<path class="st0" d="M2358.1,879.2c-1.4-13.8-2.4-29-2.5-34.7c-5.1,0.6-10.2,0.3-15.2-0.9c1.7,11.3,3.1,22.8,4.2,34.2l-1.5,0.1
				c-1.1-11.6-2.6-23.3-4.3-34.8c-3-0.9-6.5-2-8.1-4.6c-0.8-1.2-1-2.8-0.6-4.2c1-3.7,5.5-3.7,7.8-0.7c1.5,2,1.7,4.8,2.3,8.4
				c5,1.3,10.2,1.7,15.4,1c0-2.9,0.4-5.6,2-7.9c5.5-8.1,14.9,6.6-0.5,9.2c0.1,4.5,1.1,20.1,2.5,34.7L2358.1,879.2z M2358.7,836
				c-1.3,1.9-1.7,4.3-1.7,6.8c3.3-0.6,5.4-1.7,6.5-3.5C2365.2,836.4,2361.7,831.7,2358.7,836z M2332.7,833.2
				c-1.5,0.8-1.7,3.2-0.7,4.6c1.3,2.1,4.2,3.1,6.6,3.8c-0.4-2.8-0.7-5.3-1.9-7C2335.8,833.4,2332.9,833.1,2332.7,833.2z"/>
		</g>
		<path class="st9" d="M2365.8,872.8c0,0.1,0,0.3,0,0.4l-0.4,17c-0.1,4.7-3.8,8.5-8.5,8.8l-10.4,0.6c-4.7,0.3-8.8-3.1-9.4-7.8
			c-1-7.6-1.5-13-2.4-17.3L2365.8,872.8z"/>
		<g>
			<path class="st5" d="M2363.4,791.5l4.7-16.2c0.5-1.6-0.4-3.2-2-3.7c-1.6-0.5-3.2,0.4-3.7,2l-4.7,16.2c-0.5,1.6,0.4,3.2,2,3.7
				C2361.3,794,2363,793.1,2363.4,791.5z"/>
		</g>
		<g>
			<path class="st5" d="M2388.5,822.6l16.9-5.4c1.6-0.5,2.4-2.2,1.9-3.7c-0.5-1.6-2.2-2.4-3.7-1.9l-16.9,5.4
				c-1.6,0.5-2.4,2.2-1.9,3.7C2385.3,822.2,2386.9,823,2388.5,822.6z"/>
		</g>
		<g>
			<path class="st5" d="M2417.4,871.6c0.9-1.4,0.4-3.2-0.9-4.1c-5.2-3.2-10.7-6-16.4-8.2c-1.5-0.6-3.2,0.2-3.8,1.7
				c-0.6,1.5,0.2,3.2,1.7,3.8c5.3,2.1,10.5,4.7,15.4,7.7C2414.7,873.4,2416.5,873,2417.4,871.6z"/>
		</g>
		<g>
			<path class="st5" d="M2320.7,800.2c1.4-0.8,2-2.5,1.3-4c-3.6-6.9-6.5-14.1-8.5-21.6c-0.4-1.6-2.1-2.5-3.6-2
				c-1.6,0.4-2.5,2.1-2,3.6c2.2,7.9,5.2,15.5,9,22.7C2317.4,800.4,2319.2,801,2320.7,800.2z"/>
		</g>
		<g>
			<path class="st5" d="M2307.9,826.3c0.1-1.6-1.1-3-2.7-3.2l-19.1-1.4c-1.6-0.1-3,1.1-3.2,2.7c-0.1,1.6,1.1,3,2.7,3.2l19.1,1.4
				C2306.3,829.2,2307.7,828,2307.9,826.3z"/>
		</g>
		<g>
			<path class="st5" d="M2289,880.6c0.3-0.1,0.5-0.2,0.8-0.3c5.8-3.1,11.3-6.9,16.3-11.2c1.2-1.1,1.4-2.9,0.3-4.2
				c-1.1-1.2-2.9-1.4-4.2-0.3c-4.7,4-9.8,7.5-15.3,10.5c-1.4,0.8-2,2.6-1.2,4C2286.4,880.3,2287.8,880.9,2289,880.6z"/>
		</g>
	</g>
	<path class="st3" d="M2536.2,1231.9c-65.6-84.2-104.8-80-132.2-34.7c-22.4,37-31.8,106.4-83.6,134.9
		c-115.2,63.4-265.9,41.3-205.6,221.1c16.8,50.2,42.8,46.3,54.8,46.6l292.9-0.3C2577.8,1536,2616.6,1335.2,2536.2,1231.9z"/>
	<g>
		<g>
			<path class="st7" d="M2474.6,1075.3c6.7-33-8.8-65.6-38.4-77.9c0.2-18.8-7.2-37.6-20-50.4c-25.2-25.3-77.1-36.3-95.6-4
				c-24.5,13.9-22.9,31.1-15.6,58.5c-23.7,24.6-15,65,19.5,86c-0.5,27.6-1.3,69.3,22.8,81.1c5.8,2.8,14.8,6.8,16,8
				c-1.5-1.4,17.8,52.6,78,27.9C2502.6,1179.3,2514.6,1108.3,2474.6,1075.3z"/>
			<path class="st11" d="M2219.7,1297.8c4.8-4.8,13.3-9,12.8-9.7c-2-2.8-23,18.9-21.6,12.8c0.8-3.4,15.8-21.1,21.1-21.8
				c5.2-0.6,38.7-5.9,38.7-5.9l77.4-51.4c0,0,3.8-60.8-12.6-101.8c18-5.5,21.5-6.7,39.9-5.2c10.5,41.6,21.9,111.6,8.2,132
				c-5.8,8.6-106.3,41.8-106.3,41.8s-21.8,8.2-25.8,8.4c-3.1,0.2-11.5-0.5-15.7,0.1c-9.4,1.5-21,15.4-21.8,13.8
				C2213.3,1309.6,2214.8,1302.6,2219.7,1297.8z"/>
			<path class="st13" d="M2326,1115c7.3-13.4,14.8-24.1,14.8-24.1c7.5-13.4,27-20.2,27-20.2s6.5,0.1,14,0.5c0.5,1.2,0.9,2.1,1.4,2.5
				c2.8,2.1,18.9-0.6,29.3,6.5c34.9,30,25.2,175.4,22.5,221.3l-87.1,0.4c0,0-5.8-98.2-27.3-123.6
				C2305.6,1160.5,2315.3,1134.9,2326,1115z"/>
			<path class="st16" d="M2302.2,1626.5c-0.9-1.7-13-30.9-22.9-43.9c-14.4-18.9-138.5-189.8-133.4-231.4c2.2-18.2,56-33.6,62.4-34.7
				c34.2,4.6-1.7,34.1,24,58.3c-16.7,5.7-26.6,12.9-23,17.6c14.5,18.8,91.3,170.5,94.6,172.4c14.9,8.7,20.7,4.7,20.7,4.7
				s-3.4,85.3-10.5,82.6C2307,1649.4,2312.7,1645.9,2302.2,1626.5z"/>
			<path class="st12" d="M2330.9,1570l-14.4,85.9c-3.2,11.1-8.7,11-10,9.5c-2.9-3.1-4.2-26-4.5-39.1c6.5-19.9,5.9-57.4,1.9-61.6
				C2313.6,1565,2330.9,1568.1,2330.9,1570z"/>
			<path class="st8" d="M2279.6,1359.5c-19.3-31.9-18.2-27.9-51.7-42.3c-13.4,5.4-58.4,33.6-64.1,38.8l71.5,51.8
				C2232.9,1402,2257.8,1373.2,2279.6,1359.5z"/>
			<path class="st8" d="M2373.9,1021.4c0,0,5.8,41.8,9.9,52c4.1,10.2-22.4,31.9-44.5,38.5c-22,6.6,6.7-22.5,5.8-33.3
				s-4.9-62.3-4.9-62.3L2373.9,1021.4z"/>
			<path class="st13" d="M2341.4,1031.1c-0.6-8.5-1.1-14.8-1.1-14.8l33.7,5.1c0,0,0.8,4.9,1.8,11.9
				C2362.1,1041.2,2349.8,1038.7,2341.4,1031.1z"/>
			<path class="st8" d="M2363.4,945c0,0,13.3,3,21.5,15.5c8.2,12.5,13.8,49.5-13.2,66.7s-48-7.1-48.3-30.9S2328.1,940.8,2363.4,945z
				"/>
			<path class="st8" d="M2317.2,988.9c2.3,5.7,6.9,9.3,10.2,8c3.3-1.3,4.2-7.1,1.9-12.8c-2.3-5.7-6.9-9.3-10.2-8
				C2315.7,977.4,2314.9,983.2,2317.2,988.9z"/>
			<path class="st8" d="M2385.2,993.6c-2,6.2-0.2,12.3,4,13.6c4.2,1.3,9.1-2.6,11.1-8.8c2-6.2,0.2-12.3-4-13.6
				C2392.2,983.5,2387.2,987.4,2385.2,993.6z"/>
			<path class="st2" d="M2283.6,1304.2c14.9-1.4,64.2-6.4,64.2-6.4l87.4-11.8c0,0,15.5,36.9,16.1,60.1c1.1,40.5-36.2,74.7-68.1,72.7
				c-19-1.2-126.5-3.5-147.4-11.3c-4.3-33-9.3-68.8-31.6-92.5C2239.7,1310.2,2263.3,1306.1,2283.6,1304.2z"/>
			<path class="st8" d="M2282.4,1609.8c-2.4-2.5-21.6-133.7-33.2-188.8c-2.8-13.3-11.2-24.6-23.1-31.1l-62.4-34
				c-21.6,19.8,79.2,241.7,88.4,265c6.4,16,10.3,49.1,10.8,51.1c5.2,22.7-1.6,24.6,4.9,29.4c6.5,4.8,35.4-78.1,35.4-78.1
				S2295.1,1622.9,2282.4,1609.8z"/>
			<path class="st7" d="M2301.2,1309.9L2301.2,1309.9c0,3.3-3,6-6.8,6l-105.9,0.2c-3.8,0-7.5-3.2-8.7-7.3l1.9,1.3c0-3.3,3-6,6.8-6
				l105.9-0.2C2298.2,1304,2301.2,1306.6,2301.2,1309.9z"/>
			<g>
				<path class="st7" d="M2189.6,1314c0.6,0,1.3,0,1.9-0.1c5.5-0.7,9.1-4.2,8-7.8l-40.4-139.9c-1-3.6-6.3-6-11.8-5.3
					c-5.5,0.7-9.1,4.2-8,7.8l40.4,139.9C2180.6,1311.8,2184.8,1314,2189.6,1314z"/>
			</g>
			<path class="st8" d="M2220.8,1295.1c6.1-3,15.5-4.4,15.2-5.2c-1-3.3-28,13.9-24.8,8.5c1.8-3,21.8-18.2,27.1-17.2
				c5.1,1,38.6,6.3,38.6,6.3l86.2-31.1c0,0,16.4-53.6,13.5-97.6c18.8,0.4,31.9,3.5,49,10.6c-2.9,42.8-13.8,112.9-33.1,128
				c-8.1,6.4-114,6.8-114,6.8s-23.2,1-27.2,0c-3-0.8-10.8-4.1-15-4.7c-9.4-1.5-24.8,8.2-25,6.4
				C2211,1304.4,2214.6,1298.2,2220.8,1295.1z"/>
			<path class="st12" d="M2370.6,1111.9c1.2-13.5,2.9-27.2,16.7-33c8.6-3.6,18.8-2.3,26.5,2.7c9.2,5.9,12.9,16.7,14,27.2
				c2.7,23.8,3.9,48.7,2.3,72.6c-17.1-7.1-40.4-3.3-59.1-3.7C2366.8,1156.7,2369,1129.6,2370.6,1111.9z"/>
		</g>
		<path class="st8" d="M2233.6,1282.3c-14.7,3.8-13.9,3.5-14.5,3.9c-10.4,6.6-9.6,9.4,6.4,2.6c0.4-0.2,0.8-0.3,1.3-0.3l7.6,0.1
			c2.9,0,4.3-3.6,2.1-5.6l0,0C2235.7,1282.3,2234.6,1282,2233.6,1282.3z"/>
		<path class="st13" d="M2262.4,1667.2c0,0,0.6,10.4-2.9,18.7c-3.5,8.3-16.9,11.5-13.6,15.8s29.1,0,29.1,0l29.9-73.1
			c1.2-2.7,0.5-5.9-1.7-7.9c-3.6-3.1-10.2-7.6-20.6-10.7C2282.6,1610,2284.2,1655.9,2262.4,1667.2z"/>
	</g>
</g>
<g>
	<path class="st11" d="M1764.5,1125.4c18.2-5.3,18.7-2,21.1-2.7c2.7-0.9,24.8-30.8,24.8-30.8s65.7-87.6,69.1-92.5l20.7-113.4
		l62.2-0.5c0,0-26,122.5-28.5,128.5s-106.7,113.1-115.5,122.8c0,0-5.7,15.8-9.6,25.6c-3.9,9.8-12.3,16.9-13.9,19.5
		c-0.2,0.4-6,8.5-16,16.5c-8.6,6.8-4.1-3.8-4.1-3.8s13.4-15.7,11.8-16.6c-1.2-0.7-7.9,8.3-17.4,16c-2.4,2-4.8,3.9-7.1,5.7
		c-5.9,4.6-10.8,2.2-5.6-3.7c1.8-2.1,5-5.4,7.7-7.5c2.8-2.2,4.6-5.2,6.7-7.5c4.1-4.5,7.2-7.7,6.9-7.7c-0.4-0.1-0.3-1.6-2.9,0.4
		c-3.2,2.4-8.7,9.1-13.7,12.3c-2.8,1.8-8.5,5.9-8.5,5.9s-9.9,4.6-10.5,4.1c-2.9-2.7,2.8-7.8,7.1-9.7c1.9-2.6,8-6.8,8-6.8
		s10.1-11.3,8.4-12.9c-0.8-0.7-7.9,5.5-16,10.3c-7.5,4.5-16,7.8-17.3,6.4c-2.2-2.4,5.5-8.3,5.5-8.3s5.7-3.8,7.4-5.3
		c2.1-1.7,7.8-7.2,7.8-7.2s19-20.2,17.2-21.5c-1.8-1.4-7.7-3.2-9.4-2.4c-1.7,0.8-3.8,3.9-5.4,4.7c-1.7,0.8-4.7,0.4-6.1-1.6
		c-1.4-2,4.8-9.1,4.8-9.1S1759.3,1127,1764.5,1125.4z"/>
	<path class="st8" d="M1867.9,1694.3c0,0,2.2,39.1,2.2,39.2c0.8,5,4,17.2,4,21.8c0,17-75.5-14.4-58.6-21.9
		c1.5-0.7,9.6-5.8,10.1-11.6c0.8-8.9,2.7-26.9,2.7-26.9L1867.9,1694.3z"/>
	<path class="st6" d="M1815.7,1733.2c0,0,17.7,5.2,26.8,6.5c9.1,1.3,21-9.6,27.5-6.7c7.1,3.2,6.4,35.2,6.4,35.2s-94.6,5.6-121.3-3
		C1744.4,1761.8,1779.5,1745.3,1815.7,1733.2z"/>
	<path class="st8" d="M2034.2,1698.1c0,0,2.2,39.1,2.2,39.2c0.8,5,4,17.2,4,21.8c0,17-75.5-14.4-58.6-21.9
		c1.5-0.7,11.9-9.7,12.4-15.4c0.8-8.9,0.4-23.1,0.4-23.1L2034.2,1698.1z"/>
	<path class="st6" d="M1982,1737c0,0,17.7,5.2,26.8,6.5s21-9.6,27.5-6.7c7.1,3.2,7.3,32.5,7.3,32.5s-101.1,7.3-124.9,0.4
		C1908.1,1766.6,1945.8,1749.1,1982,1737z"/>
	<path class="st7" d="M1914.6,1133.3l-31.9,13.8l-67.1,320.6l2.7,240.3l53.8,1.3c0,0,25-210.2,25-226.5
		c0-16.3,115.9-285.1,115.9-285.1L1914.6,1133.3z"/>
	<path class="st2" d="M1939.2,1150.9c0,0,23.5,247,23.5,288.6c0,41.6,19.1,274.7,19.1,274.7l53.9-0.3c0,0,3.9-71,9.7-175.5
		c0.9-16.4-1.2-49.4,0-66.3c8.4-121.9,25-236.6,17.1-282c-1.3-7.3-3.7-26.5-8.3-31.3C2018.8,1122.2,1939.2,1150.9,1939.2,1150.9z"/>
	<path class="st9" d="M1873.4,956l65.3-4.4c0,0,3.2-58.3,3.2-86.2c0-33.8,10.3-83.5,6.3-82.6c-11.3,2.6-30.8,13-39.8,25.6
		C1877,852.1,1873.4,956,1873.4,956z"/>
	<path class="st10" d="M2028,781.5c0,0,37.2,5.2,47,12.4c11,8.1,23.3,26.2,23.3,26.2s-45.7,216-45.8,252.4
		c-0.1,28.1,9.9,97.2,9.9,97.2s-138.1,8.7-190.4-11.9c0,0,16.5-82.1,16.5-103.7s19.8-217.7,24.3-231.3c4.1-12.4,11.5-34.8,36.8-40.3
		C1974.8,777,2028,781.5,2028,781.5z"/>
	<path class="st8" d="M2017.9,723.4l9.2,60.3c0,0-33.6,71.8-53.7,65.6c-16.9-5.2-6.5-68.8-6.5-68.8s9.2-34.1,6.4-51.2
		C1970.5,712.2,2017.9,723.4,2017.9,723.4z"/>
	<path class="st13" d="M1973.3,729.3c-2.8-17.1,44.6-5.9,44.6-5.9l0.8,5c-1.4,3.3-3.1,6.2-5.1,8.4c-10.6,11.3-27.1,18.1-41.4,18.6
		C1973.5,746.2,1974.4,736.3,1973.3,729.3z"/>
	<g>
		<path class="st8" d="M2025.6,638.1c1.3-0.5,10.7,68.7-7.1,87.7c-17.8,19-52.5,25.3-65,10.3c-13.8-16.6-13.1-90.9,14.6-110.5
			C1995.9,606,2025.6,638.1,2025.6,638.1z"/>
		<path class="st1" d="M1978.7,588.5c21.4,4.3,35.3,17.3,40.4,22.9c9.7,1.1,22.9,6.5,36.6,28.9c16.8,27.6,4.4,58.1-15.1,73.1
			c-19.5,15-19.3,32.4-19.3,32.4l-3-9c-2.3-6.8-3.2-14-2.4-21.1c0.5-4.3,1.4-8.9,3.2-12.7c4.7-10-10.1-16.7-14.2-25
			c-3.2-6.4-3.3-21.1-8.4-31.7l-6-8.1c0,0-13.9-10.7-27.4-7.7C1949.3,633.6,1951.3,583,1978.7,588.5z"/>
		<path class="st8" d="M2005.6,690.3c-0.1,8.4,3.7,15.4,8.6,15.4c4.9,0.1,9-6.7,9.1-15.1c0.1-8.4-3.7-15.4-8.6-15.4
			C2009.8,675.1,2005.7,681.9,2005.6,690.3z"/>
	</g>
	<path class="st1" d="M1933.1,1001.3l-0.9,5.2c-0.5,2.7-3,4.4-5.6,4l-106.7-18.5c-2.6-0.5-4.4-3-4-5.6l0.9-5.2c0.5-2.6,3-4.4,5.6-4
		l106.7,18.5C1931.8,996.1,1933.6,998.6,1933.1,1001.3z"/>
	<path class="st8" d="M2084.4,809.4c-12.5-0.4-23.6,82.2-15.7,90.4c7.9,8.1,9.5,109.9,9.5,109.9l-118.1-2.9l0,0
		c-2.3-1.5-27.1-18.2-30.6-21.8c-3.7-3.8-21.8-1.9-26.5,3.3c-4.8,5.2,10.6,1,14.9,3.8c4.2,2.9-3.2,10-3.2,10s-29.9,4.3-35.8-1.8
		c-5.8-6.2-21.4-16.7-23.6-10.5c-1.1,3.2,6.9,12.9,11.5,16.9c-5.7-4.2-12.4-8.7-14.7-7.9c-4.2,1.4-2.5,6.8-0.2,8.4
		c2.3,1.6,26.1,19.7,29.8,21c3.6,1.2,58.9,2.6,68.5,4.7c0,0,155.8,35.5,164.7,33.3c7.8-1.9,15.5-51.8,15.5-90
		C2130.3,938,2123.6,810.5,2084.4,809.4z"/>
	<path class="st10" d="M2068.2,790.5c0,0,21.8,5,44.3,30.3c20.5,23,33.4,151.8,33.4,151.8l-70.7,11.4l-5.6-62.3l-18.9-28.5
		L2068.2,790.5z"/>
</g>
<g>
	<path class="st5" d="M872.6,1052.3H701.7c-16.3,0-29.5-13.2-29.5-29.5v-59c0-16.3,13.2-29.5,29.5-29.5h170.9
		c16.3,0,29.5,13.2,29.5,29.5v59C902.1,1039.1,888.9,1052.3,872.6,1052.3z"/>
	<polygon class="st5" points="745.5,1036 818.3,1151.4 788.2,1036 	"/>
</g>
<path class="st17" d="M2175.9,430.7l-7-16.5l-17.6-3.6c-2-0.4-2.7-2.9-1.1-4.3l13.6-11.8l-2-17.9c-0.2-2,2-3.4,3.7-2.4l15.4,9.3
	l16.4-7.4c1.9-0.8,3.9,0.8,3.4,2.8l-4.1,17.5l12.1,13.3c1.4,1.5,0.4,3.9-1.6,4.1l-17.9,1.5l-8.9,15.6
	C2179.3,432.7,2176.7,432.5,2175.9,430.7z"/>
<path class="st3" d="M1259.4,364l-5.5-13.1l-13.9-2.9c-1.6-0.3-2.1-2.3-0.9-3.4l10.8-9.3l-1.6-14.1c-0.2-1.6,1.6-2.7,3-1.9l12.2,7.3
	l13-5.9c1.5-0.7,3.1,0.6,2.7,2.2l-3.2,13.9l9.6,10.5c1.1,1.2,0.3,3.1-1.3,3.3l-14.2,1.2l-7,12.4C1262.1,365.7,1260,365.5,1259.4,364
	z"/>
<polygon class="st11" points="2376.4,374.4 2371.6,393.6 2339.9,389.3 2329.5,416.5 2305.2,417.2 2305.6,429.5 2338,428.6 
	2347.9,402.8 2380.9,407.2 2388,378.4 "/>
<polygon class="st2" points="1373.8,389 1369,408.2 1337.3,403.9 1326.9,431.1 1302.6,431.8 1303,444.1 1335.4,443.1 1345.3,417.4 
	1378.3,421.8 1385.4,392.9 "/>
<polygon class="st11" points="1601.6,331.2 1583.7,339.6 1567,312.3 1539.4,321.4 1523.5,303 1514.2,311 1535.4,335.6 1561.6,327 
	1579,355.4 1605.9,342.7 "/>
<g>
	<polygon class="st10" points="2170.8,308.9 2141.8,316.8 2135.6,281.7 2145,280 2149.4,304.7 2168.2,299.6 	"/>
</g>
<g>
	<path class="st5" d="M1506.8,477.4l-83.5,0.2c-6.5,0-11.8-5.3-11.8-11.8l0,0l107.2-0.3l0,0C1518.6,472.1,1513.4,477.4,1506.8,477.4
		z"/>
	<g>
		<path class="st5" d="M1509.6,424.2c-9.4,0-16.9,6.1-16.9,13.4c0,7.4,7.6,13.4,17,13.3c9.4,0,16.9-6.1,16.9-13.4
			C1526.6,430.1,1519,424.2,1509.6,424.2z M1509.7,444.9c-5.9,0-10.9-3.3-11-7.3s5-7.4,10.9-7.4c5.9,0,10.9,3.3,11,7.3
			C1520.6,441.5,1515.6,444.9,1509.7,444.9z"/>
	</g>
	<path class="st5" d="M1506.4,412.3c0.1,33.6-19.2,60.9-43.2,61c-23.9,0.1-43.4-27.1-43.5-60.7c0-4.3,19.4-7.8,43.3-7.9
		C1487,404.7,1506.4,408.1,1506.4,412.3z"/>
	<path class="st3" d="M1506.4,412.3c0,4.3-19.4,7.8-43.3,7.9c-23.9,0.1-43.4-3.3-43.4-7.6c0-4.3,19.4-7.8,43.3-7.9
		C1487,404.7,1506.4,408.1,1506.4,412.3z"/>
</g>
</svg>
