<?xml version="1.0" encoding="UTF-8" standalone="no"?><!DOCTYPE svg PUBLIC "-//W3C//DTD SVG 1.1//EN" "http://www.w3.org/Graphics/SVG/1.1/DTD/svg11.dtd"><svg width="100%" height="100%" viewBox="0 0 800 600" version="1.1" xmlns="http://www.w3.org/2000/svg" xmlns:xlink="http://www.w3.org/1999/xlink" xml:space="preserve" xmlns:serif="http://www.serif.com/" style="fill-rule:evenodd;clip-rule:evenodd;stroke-linejoin:round;stroke-miterlimit:2;"><g><path d="M63.669,222.201c0.54,0.231 1.08,0.347 1.659,0.463c-0.193,-1.273 -0,-2.778 1.196,-4.437c-0.463,-0.617 -0.965,-1.234 -1.428,-1.851c-1.003,1.273 -2.16,3.472 -1.427,5.825Z" style="fill:#f7cc7f;fill-rule:nonzero;"/><path d="M74.509,224.245c-1.89,-2.546 -3.896,-5.208 -5.902,-7.869c-0.154,0.077 -0.232,0.115 -0.232,0.115c-0.771,0.463 -0.848,0.54 -0.848,0.54c-0.502,0.386 -0.81,0.811 -0.772,0.772c-0.077,0.116 -0.193,0.231 -0.27,0.347c2.199,2.855 4.398,5.671 6.404,8.217c0.694,-0.579 1.234,-1.312 1.62,-2.122Z" style="fill:#f7cc7f;fill-rule:nonzero;"/><path d="M81.029,237.863c-0,-0.039 1.273,2.7 -0.116,4.243c-0,0 -1.543,1.813 -2.778,-0.578l-0.115,-0.155c-0.27,-0.347 -0.772,-0.463 -1.158,-0.193c-0.424,0.27 -0.463,0.772 -0.27,1.235c0.116,0.231 0.309,0.617 0.81,1.041c3.009,2.469 6.674,-0.655 6.25,-4.243c-0.27,-2.237 -3.241,-6.828 -7.175,-12.306c-0.502,0.656 -1.081,1.312 -1.698,1.89c3.241,4.244 5.709,7.6 6.25,9.066Z" style="fill:#f7cc7f;fill-rule:nonzero;"/><path d="M72.927,226.444c0.618,0.81 1.196,1.582 1.775,2.315c0.617,-0.579 1.196,-1.196 1.697,-1.89c-0.617,-0.849 -1.234,-1.736 -1.89,-2.624c-0.386,0.81 -0.926,1.543 -1.582,2.199Z" style="fill:#f7cc7f;fill-rule:nonzero;"/><path d="M65.096,216.337c0.618,-0.81 1.158,-1.311 1.158,-1.311c0.27,-0.232 0.578,-0.463 0.848,-0.656c-1.736,-2.276 -3.394,-4.514 -4.937,-6.635c-0.386,1.234 -0.695,2.391 -0.965,3.471c1.273,1.698 2.585,3.434 3.896,5.131Z" style="fill:#f7cc7f;fill-rule:nonzero;"/><path d="M58.654,207.735c0.81,1.118 1.659,2.314 2.546,3.51c0.27,-1.08 0.579,-2.237 0.965,-3.472c-0.888,-1.196 -1.698,-2.392 -2.469,-3.472c-0.309,1.158 -0.656,2.276 -1.042,3.434Z" style="fill:#f7cc7f;fill-rule:nonzero;"/><path d="M64.248,227.486c-1.158,-0.617 -5.98,-3.974 -3.048,-16.241c-0.887,-1.196 -1.736,-2.353 -2.546,-3.51c-0.463,1.35 -0.887,2.7 -1.311,4.089c-0.965,3.279 -1.775,6.789 -1.312,10.184c0.617,4.398 3.819,7.599 7.754,9.143c2.044,0.81 4.398,1.002 6.596,0.27c1.621,-0.541 3.087,-1.505 4.321,-2.662c-0.579,-0.733 -1.157,-1.505 -1.775,-2.315c-2.005,1.968 -5.092,2.855 -8.679,1.042Z" style="fill:#f7cc7f;fill-rule:nonzero;"/><path d="M59.657,191.841c-2.739,-1.427 -8.525,-1.582 -8.062,3.51c0.231,2.277 3.124,6.944 7.021,12.384c0.385,-1.158 0.733,-2.315 1.08,-3.472c-3.896,-5.671 -6.018,-9.76 -3.819,-10.03c1.311,-0.155 2.931,0.501 3.934,2.083c1.081,1.659 0.811,3.896 0.386,5.825c-0.154,0.733 -0.347,1.427 -0.54,2.16c0.772,1.119 1.582,2.276 2.469,3.472c0.154,-0.54 0.347,-1.08 0.54,-1.62c1.235,-3.511 1.427,-7.793 0.54,-10.107c0.039,-0 -0.887,-2.778 -3.549,-4.205Z" style="fill:#f7cc7f;fill-rule:nonzero;"/><path d="M69.456,216.106c-0.155,0.038 1.041,-0.348 2.16,-0.155c-0.463,-0.077 2.353,-0.077 3.433,3.086c0.579,1.621 0.309,3.55 -0.54,5.208c0.656,0.888 1.312,1.775 1.89,2.624c0.078,-0.116 0.155,-0.232 0.232,-0.309c5.902,-7.985 -2.855,-16.588 -9.567,-12.152c0.501,0.656 1.003,1.35 1.504,2.006c0.27,-0.115 0.656,-0.27 0.888,-0.308Z" style="fill:#f7cc7f;fill-rule:nonzero;"/><path d="M65.096,216.337c0.463,0.617 0.965,1.235 1.428,1.852c0.077,-0.116 0.154,-0.232 0.27,-0.347c-0,-0 0.308,-0.386 0.771,-0.772c0,0 0.078,-0.077 0.849,-0.54c-0.039,0 0.077,-0.039 0.232,-0.116c-0.502,-0.656 -1.003,-1.35 -1.505,-2.006c-0.309,0.193 -0.579,0.386 -0.849,0.656c-0.038,0 -0.578,0.463 -1.196,1.273Z" style="fill:#f7cc7f;fill-rule:nonzero;"/><path d="M67.913,220.619c1.195,1.273 1.427,3.009 0.501,3.858c-0.926,0.848 -2.623,0.501 -3.819,-0.772c-1.196,-1.273 -1.427,-3.009 -0.502,-3.857c0.888,-0.849 2.624,-0.502 3.82,0.771Z" style="fill:#f7cc7f;fill-rule:nonzero;"/><path d="M80.218,239.907c1.196,1.273 1.428,3.009 0.502,3.858c-0.926,0.849 -2.623,0.502 -3.819,-0.772c-1.196,-1.273 -1.427,-3.008 -0.502,-3.857c0.926,-0.849 2.624,-0.502 3.819,0.771Z" style="fill:#f7cc7f;fill-rule:nonzero;"/></g><rect x="390.489" y="295.689" width="51.963" height="102.305" style="fill:#66beff;"/><path d="M442.452,348.655l-51.963,-0l0,49.378l51.963,-0l-0,-49.378Z" style="fill:#005bee;fill-rule:nonzero;"/><path d="M326.259,474.221l0,-61.182c0,-29.357 23.802,-53.159 53.159,-53.159l63.844,0c29.357,0 53.159,23.802 53.159,53.159l-0,61.182c-0,29.357 -23.802,53.159 -53.159,53.159l-63.844,-0c-29.357,-0 -53.159,-23.802 -53.159,-53.159Z" style="fill:#66beff;fill-rule:nonzero;"/><path d="M347.592,469.129l0,-48.298c0,-22.297 18.093,-40.389 40.39,-40.389l46.678,-0c22.297,-0 40.389,18.092 40.389,40.389l0,48.298c0,22.297 -18.092,40.39 -40.389,40.39l-46.678,-0c-22.297,-0 -40.39,-18.093 -40.39,-40.39Z" style="fill:#005bee;fill-rule:nonzero;"/><g><circle cx="391.377" cy="420.06" r="4.089" style="fill:#66beff;"/><path d="M405.867,418.512c0.864,-2.085 3.258,-3.076 5.343,-2.213c2.085,0.864 3.077,3.258 2.213,5.343c-0.864,2.085 -3.258,3.077 -5.343,2.213c-2.085,-0.863 -3.076,-3.257 -2.213,-5.343Z" style="fill:#66beff;"/><path d="M427.231,416.022c2.228,-0.362 4.33,1.153 4.691,3.381c0.362,2.228 -1.153,4.33 -3.381,4.692c-2.228,0.361 -4.33,-1.154 -4.691,-3.382c-0.362,-2.227 1.153,-4.33 3.381,-4.691Z" style="fill:#66beff;"/></g><g><circle cx="391.377" cy="434.912" r="4.089" style="fill:#66beff;"/><path d="M405.862,433.369c0.863,-2.085 3.257,-3.077 5.342,-2.213c2.086,0.863 3.077,3.257 2.213,5.342c-0.863,2.086 -3.257,3.077 -5.342,2.213c-2.085,-0.863 -3.077,-3.257 -2.213,-5.342Z" style="fill:#66beff;"/><path d="M427.23,430.874c2.228,-0.361 4.33,1.154 4.691,3.381c0.362,2.228 -1.153,4.33 -3.381,4.692c-2.228,0.361 -4.33,-1.154 -4.691,-3.382c-0.362,-2.227 1.153,-4.329 3.381,-4.691Z" style="fill:#66beff;"/></g><g><path d="M391.377,445.675c-2.276,-0 -4.089,1.851 -4.089,4.089c-0,2.276 1.851,4.089 4.089,4.089c2.237,-0 4.089,-1.852 4.089,-4.089c0.038,-2.238 -1.813,-4.089 -4.089,-4.089Z" style="fill:#66beff;fill-rule:nonzero;"/><path d="M409.623,445.675c-2.276,-0 -4.089,1.851 -4.089,4.089c0,2.276 1.852,4.089 4.089,4.089c2.276,-0 4.089,-1.852 4.089,-4.089c0.039,-2.238 -1.813,-4.089 -4.089,-4.089Z" style="fill:#66beff;fill-rule:nonzero;"/><path d="M427.87,445.675c-2.276,-0 -4.089,1.851 -4.089,4.089c-0,2.276 1.852,4.089 4.089,4.089c2.237,-0 4.089,-1.852 4.089,-4.089c0,-2.238 -1.813,-4.089 -4.089,-4.089Z" style="fill:#66beff;fill-rule:nonzero;"/></g><g><path d="M180.44,527.38c0,1.08 1.042,1.928 2.315,1.928l573.131,0c1.273,0 2.315,-0.848 2.315,-1.928c-0,-1.081 -1.042,-1.929 -2.315,-1.929l-573.131,-0c-1.273,-0 -2.315,0.848 -2.315,1.929Z" style="fill:#13375b;fill-rule:nonzero;"/></g><g><g><path d="M519.875,133.436c-2.546,8.873 -11.766,14.042 -20.677,11.496c-8.873,-2.546 -14.003,-11.804 -11.496,-20.677c2.546,-8.873 11.766,-14.042 20.677,-11.496c8.873,2.546 14.042,11.805 11.496,20.677Z" style="fill:#f7cc7f;fill-rule:nonzero;"/><path d="M494.492,128.961c-1.35,4.745 1.388,9.683 6.133,11.033c4.745,1.35 9.683,-1.389 11.033,-6.133l-17.166,-4.9Z" style="fill:#efefef;fill-rule:nonzero;"/></g></g><path d="M434.428,28.547l-9.22,-0.733l-1.273,8.525l-9.142,-0.347l-2.199,8.024l-6.867,0.848l0.463,3.472l9.181,-1.157l2.083,-7.561l9.49,0.347l1.235,-8.409l8.371,0.694l-2.122,-3.703Z" style="fill:#f48c7f;fill-rule:nonzero;"/><path d="M83.729,140.033l-0.463,5.632l-9.104,0.27l-1.697,8.14l-6.79,1.311l0.656,3.434l9.104,-1.775l1.582,-7.677l9.489,-0.308l0.695,-8.449l-3.472,-0.578Z" style="fill:#f48c7f;fill-rule:nonzero;"/><path d="M327.108,526.724l-125.914,-0c-6.558,-0 -11.843,-5.285 -11.843,-11.843l0,-245.926c0,-6.558 5.285,-11.842 11.843,-11.842l125.914,-0c6.558,-0 11.843,5.284 11.843,11.842l0,245.926c0,6.519 -5.285,11.843 -11.843,11.843Z" style="fill:#0b00a2;fill-rule:nonzero;"/><path d="M201.194,517.195c-1.273,0 -2.314,-1.041 -2.314,-2.314l-0,-245.926c-0,-1.273 1.041,-2.314 2.314,-2.314l125.914,-0c1.273,-0 2.315,1.041 2.315,2.314l-0,245.926c-0,1.273 -1.042,2.314 -2.315,2.314l-125.914,0Z" style="fill:#fff;fill-rule:nonzero;"/><g><path d="M261.003,281.606c12.154,-3.259 24.667,3.963 27.926,16.117c3.259,12.153 -3.962,24.667 -16.116,27.926c-12.154,3.259 -24.667,-3.963 -27.926,-16.117c-3.259,-12.154 3.962,-24.667 16.116,-27.926Z" style="fill:#66beff;"/><path d="M274.837,303.636c-0,4.398 -3.549,7.947 -7.947,7.947c-4.397,-0 -7.947,-3.549 -7.947,-7.947c0,-4.398 3.55,-7.947 7.947,-7.947c4.398,0 7.947,3.549 7.947,7.947Z" style="fill:#184655;fill-rule:nonzero;"/></g><g><path d="M244.038,369.061c12.6,-12.601 33.061,-12.601 45.662,-0c12.601,12.6 12.601,33.061 0,45.662c-12.601,12.601 -33.062,12.601 -45.662,-0c-12.601,-12.601 -12.601,-33.062 -0,-45.662Z" style="fill:#66beff;"/><path d="M278.155,391.899c-0,6.211 -5.054,11.264 -11.265,11.264c-6.211,0 -11.264,-5.053 -11.264,-11.264c-0,-6.211 5.053,-11.264 11.264,-11.264c6.211,-0 11.265,5.053 11.265,11.264Z" style="fill:#184655;fill-rule:nonzero;"/></g><g><path d="M260.5,442.386c17.705,-2.035 33.731,10.687 35.766,28.391c2.035,17.705 -10.686,33.731 -28.391,35.766c-17.705,2.035 -33.731,-10.686 -35.766,-28.391c-2.035,-17.705 10.687,-33.731 28.391,-35.766Z" style="fill:#66beff;"/><path d="M252.92,474.087c0.198,-6.214 5.402,-11.098 11.616,-10.901c6.214,0.197 11.099,5.402 10.902,11.616c-0.197,6.213 -5.402,11.098 -11.616,10.901c-6.214,-0.197 -11.099,-5.402 -10.902,-11.616Z" style="fill:#184655;"/></g><g><path d="M594.482,144.816l7.368,0.733c0.386,0.039 0.695,0.27 0.887,0.579l3.549,6.404c0.463,0.81 1.659,0.771 2.045,-0.078l3.009,-6.635c0.154,-0.347 0.463,-0.578 0.849,-0.656l7.291,-1.35c0.925,-0.154 1.273,-1.311 0.54,-1.929l-5.517,-4.86c-0.27,-0.232 -0.424,-0.617 -0.386,-0.965l0.965,-7.213c0.116,-0.926 -0.887,-1.582 -1.697,-1.119l-6.404,3.626c-0.309,0.193 -0.733,0.193 -1.08,0.039l-6.674,-3.125c-0.849,-0.386 -1.813,0.347 -1.62,1.234l1.543,7.098c0.077,0.348 -0.039,0.733 -0.27,1.003l-5.092,5.285c-0.656,0.733 -0.232,1.852 0.694,1.929Z" style="fill:#96d9c9;fill-rule:nonzero;"/><path d="M167.401,227.216l7.369,0.733c0.385,0.038 0.694,0.27 0.887,0.578l3.549,6.404c0.463,0.81 1.659,0.772 2.044,-0.077l3.009,-6.635c0.155,-0.348 0.463,-0.579 0.849,-0.656l7.291,-1.35c0.926,-0.155 1.273,-1.312 0.54,-1.929l-5.516,-4.861c-0.27,-0.231 -0.425,-0.617 -0.386,-0.964l0.964,-7.214c0.116,-0.926 -0.887,-1.582 -1.697,-1.119l-6.404,3.626c-0.308,0.193 -0.733,0.193 -1.08,0.039l-6.674,-3.125c-0.848,-0.385 -1.813,0.348 -1.62,1.235l1.543,7.098c0.077,0.347 -0.038,0.733 -0.27,1.003l-5.092,5.285c-0.694,0.733 -0.27,1.852 0.694,1.929Z" style="fill:#f7cc7f;fill-rule:nonzero;"/><path d="M589.853,222.124l7.368,0.733c0.386,0.038 0.694,0.27 0.887,0.578l3.549,6.404c0.463,0.81 1.659,0.771 2.045,-0.077l3.009,-6.635c0.154,-0.348 0.463,-0.579 0.848,-0.656l7.291,-1.35c0.926,-0.155 1.273,-1.312 0.541,-1.929l-5.556,-4.861c-0.27,-0.231 -0.424,-0.617 -0.385,-0.964l0.964,-7.214c0.116,-0.926 -0.887,-1.582 -1.697,-1.119l-6.404,3.626c-0.309,0.193 -0.733,0.193 -1.08,0.039l-6.674,-3.125c-0.848,-0.385 -1.813,0.347 -1.62,1.235l1.543,7.098c0.077,0.347 -0.039,0.733 -0.27,1.003l-5.092,5.285c-0.656,0.733 -0.232,1.851 0.733,1.929Z" style="fill:#f7cc7f;fill-rule:nonzero;"/></g><g><g><path d="M559.185,361.925c-0.309,0.116 4.282,6.056 8.756,10.261c3.627,4.514 6.983,9.914 8.179,15.739c1.774,8.912 0.308,52.85 1.851,55.975c13.271,12.962 22.838,45.482 25.538,55.396c0.54,1.929 1.582,3.665 3.047,5.015l-0.578,11.226l-6.597,6.056c0,0 1.466,-9.143 -1.466,-15.893c0,-0 -33.368,-50.536 -35.336,-54.393c-3.78,-10.995 -17.552,-67.355 -17.552,-67.355l-3.202,-12.962c0,0 17.36,-9.027 17.36,-9.065Z" style="fill:#f7a491;fill-rule:nonzero;"/><path d="M613.77,507.937c0,0 -4.166,6.404 -4.513,8.911c-0.347,2.508 -2.585,8.178 -5.015,8.526c-0.54,0.077 -10.107,0.771 -10.03,-0.425c0.039,-0.926 3.51,-2.199 5.131,-3.317c2.777,-1.929 7.098,-17.514 7.098,-17.514c-0,-0 7.136,1.813 7.329,3.819Z" style="fill:#f47458;fill-rule:nonzero;"/></g><path d="M530.676,381.406c0,0 -21.487,45.945 -21.641,54.046c-0.116,6.944 3.742,45.79 2.662,78.117c-0.039,1.157 -1.505,2.739 -3.665,3.704c-1.196,0.54 -6.944,3.356 -6.944,3.356l-0.926,1.89l20.137,-1.427l0.425,-4.668l-0.116,-0.81c0,-0 8.024,-48.414 7.214,-62.108c-0.116,-2.161 -1.157,-15.007 -1.157,-15.007l24.226,-46.793l-15.238,-20.021l-4.977,9.721Z" style="fill:#f7a491;fill-rule:nonzero;"/><g><path d="M579.939,436.609l-0,0Z" style="fill:#13375b;fill-rule:nonzero;"/><path d="M504.367,414.852l42.164,-60.951c2.585,1.042 5.054,1.967 7.831,2.507c6.057,1.158 12.113,0.965 18.247,0.772c0,0.231 0,0.424 0.039,0.617c0.694,5.015 7.368,12.808 8.757,28.045c1.543,17.321 0.617,47.372 0.077,49.34c-28.045,-3.395 -69.129,-11.998 -77.115,-20.33Z" style="fill:#13375b;fill-rule:nonzero;"/></g><path d="M559.455,272.697c-0.155,1.775 -1.119,3.125 -2.122,3.048c-1.003,-0.116 -1.659,-1.62 -1.505,-3.395c0.155,-1.774 1.119,-3.124 2.122,-3.047c1.003,0.077 1.659,1.581 1.505,3.394Z" style="fill:#f7a491;fill-rule:nonzero;"/><path d="M520.955,525.644l-26.463,-0c-0.926,-0.078 -1.196,-1.273 -0.656,-1.813c0.849,-0.849 3.935,-1.659 7.291,-3.202c5.863,0.617 18.709,-2.855 19.635,-4.205c0.54,2.7 0.695,9.104 0.193,9.22Z" style="fill:#f47458;fill-rule:nonzero;"/><path d="M495.34,306.336c0.116,-0.347 0.425,-0.077 0.81,0.502c-0.501,-2.083 -0.424,-4.668 -0.038,-4.9c0.463,-0.27 0.771,3.318 1.813,5.285c1.08,1.968 2.045,4.36 2.199,4.244c0.231,-0.154 -1.235,-2.816 -2.315,-4.822c-1.041,-2.006 -0.231,-11.226 0.733,-4.629c0.965,6.635 7.368,11.688 7.561,9.644c0.193,-2.045 -0.887,-5.092 0.425,-4.668c1.311,0.463 1.697,4.976 2.854,8.294c0.116,0.386 0.155,1.543 0.155,2.893c-0,0.695 0.424,1.35 1.118,1.582l16.82,6.133l10.994,-19.134l12.422,2.662c-0,0 -9.992,26.001 -18.517,29.936c-3.896,1.774 -22.027,-10.956 -29.164,-16.974c-7.06,-5.902 -8.41,-14.582 -7.87,-16.048Z" style="fill:#f7a491;fill-rule:nonzero;"/><path d="M543.908,294.802c-4.398,2.083 -15.585,28.045 -15.585,28.045l14.389,8.834l4.552,-13.193c0,-0 2.045,-26.232 -3.356,-23.686Z" style="fill:#f7cc7f;fill-rule:nonzero;"/><path d="M548.074,273.7c-2.121,-5.323 -4.243,-10.647 -1.851,-17.166c1.967,-5.285 6.211,-8.757 11.534,-10.146c15.122,-3.973 14.891,6.25 36.802,4.128c22.645,-2.199 31.749,22.413 29.627,30.553c-10.03,38.962 -55.01,19.982 -61.105,13.501c-4.552,-4.822 -13.656,-17.475 -15.007,-20.87Z" style="fill:#b75742;fill-rule:nonzero;"/><path d="M577.817,292.641c-0,0 2.43,-0.115 8.988,2.894c6.558,3.009 20.639,22.528 20.639,22.528l-11.457,8.912l-19.636,-12.846c0,-0 -2.507,-21.488 1.466,-21.488Z" style="fill:#f7cc7f;fill-rule:nonzero;"/><path d="M542.751,357.141c6.751,3.588 32.751,3.009 32.751,3.009c0.656,-6.751 4.089,-24.843 5.594,-39.386c1.89,-10.107 -1.234,-13.039 -3.279,-28.123c-0,-0.115 -10.493,-0.848 -10.493,-0.848l-10.917,0.27c0,-0 -9.49,0.771 -12.499,2.739c-0.193,0.154 -1.427,17.205 -0.463,29.318c0.656,8.255 1.582,14.89 1.505,20.368c-0.077,7.909 -2.199,12.653 -2.199,12.653Z" style="fill:#fae0b2;fill-rule:nonzero;"/><path d="M540.591,315.826c0.231,6.442 8.525,12.653 20.368,12.653c11.843,0 21.41,-5.246 21.41,-11.689c0,-6.442 -7.87,-15.546 -19.674,-15.546c-11.843,0 -22.374,6.404 -22.104,14.582Z" style="fill:#fae0b2;fill-rule:nonzero;"/><path d="M564.778,275.784c0,-0 0.232,1.62 0.579,3.896c0.656,4.127 0.964,10.917 1.813,12.961c0.733,1.814 -5.594,18.98 -7.677,14.197c-3.665,-8.371 -3.549,-10.918 -3.742,-13.116c-0.193,-2.199 -0.771,-9.76 -1.196,-14.814c-0.231,-2.739 -0.385,-4.706 -0.385,-4.706l10.608,1.582Z" style="fill:#f7a491;fill-rule:nonzero;"/><path d="M554.555,278.793c-0.193,-2.662 -0.347,-4.63 -0.347,-4.63l10.57,1.621c0,-0 0.27,1.543 0.579,3.703c-4.321,2.507 -8.178,1.736 -10.802,-0.694Z" style="fill:#f47458;fill-rule:nonzero;"/><path d="M561.461,251.828c-0,-0 4.166,0.925 6.75,4.86c2.585,3.935 4.36,15.508 -4.127,20.909c-8.487,5.4 -15.084,-2.238 -15.199,-9.683c-0.116,-7.445 1.465,-17.398 12.576,-16.086Z" style="fill:#f7a491;fill-rule:nonzero;"/><path d="M546.917,265.599c0.733,1.813 2.16,2.932 3.202,2.508c1.042,-0.425 1.312,-2.238 0.579,-4.012c-0.733,-1.813 -2.161,-2.932 -3.202,-2.508c-1.042,0.386 -1.273,2.199 -0.579,4.012Z" style="fill:#f7a491;fill-rule:nonzero;"/><path d="M560.188,251.596c-0,0 5.323,11.92 9.991,13c4.668,1.08 4.59,7.06 4.59,7.06c0,-0 -0.115,-13.849 -4.474,-17.051c-4.36,-3.163 -10.107,-3.009 -10.107,-3.009Z" style="fill:#b75742;fill-rule:nonzero;"/><path d="M568.327,267.065c-0.617,1.929 -0.038,3.858 1.273,4.244c1.312,0.424 2.855,-0.81 3.472,-2.739c0.617,-1.929 0.039,-3.858 -1.273,-4.244c-1.273,-0.424 -2.855,0.81 -3.472,2.739Z" style="fill:#f7a491;fill-rule:nonzero;"/><g><path d="M479.637,300.815l7.249,-13.007l-1.011,-0.563l-7.249,13.007l1.011,0.563Z" style="fill:#ffd09f;"/><path d="M479.631,300.786l7.248,-13.006l-0.606,-0.338l-7.249,13.006l0.607,0.338Z" style="fill:#ffb769;"/><path d="M484.639,303.235l7.1,-12.737l-1.011,-0.563l-7.1,12.737l1.011,0.563Z" style="fill:#ffd09f;"/><path d="M484.623,303.251l7.1,-12.737l-0.775,-0.432l-7.1,12.737l0.775,0.432Z" style="fill:#ffb769;"/><path d="M489.763,306.097l7.1,-12.737l-1.011,-0.563l-7.1,12.737l1.011,0.563Z" style="fill:#ffd09f;"/><path d="M489.762,306.088l7.1,-12.737l-0.641,-0.357l-7.099,12.737l0.64,0.357Z" style="fill:#ffb769;"/><path d="M578.164,382.833c-4.629,-4.204 -7.522,-12.923 -9.258,-16.472c-0,0 -2.276,-4.59 -9.066,-4.706c-6.789,-0.116 -14.35,-4.166 -17.822,-11.92c-3.472,-7.754 4.938,-19.481 4.938,-19.481l0.347,-0.656c-0,-0 5.555,-13.309 13.965,-14.466c8.409,-1.158 15.855,3.163 19.519,8.872c3.665,5.71 8.757,5.208 8.757,5.208c3.896,-0.386 12.846,-2.507 18.864,-0.772c5.632,1.621 10.069,5.748 12.808,10.995c2.97,5.671 3.433,13.463 -0.811,23.184c-0.231,0.54 -2.468,5.131 -3.24,6.365c-0.656,1.273 -3.395,5.633 -3.703,6.095c-6.057,8.757 -12.923,12.422 -19.327,12.885c-5.787,0.386 -11.65,-1.234 -15.971,-5.131Z" style="fill:#f47458;fill-rule:nonzero;"/><path d="M562.849,353.168c5.517,3.086 12.692,0.772 16.01,-5.169c3.317,-5.941 1.504,-13.271 -4.012,-16.357c-5.517,-3.086 -12.692,-0.771 -16.01,5.17c-3.317,5.979 -1.504,13.27 4.012,16.356Z" style="fill:#b75742;fill-rule:nonzero;"/><path d="M564.971,349.388c3.588,2.006 8.255,0.501 10.416,-3.357c2.16,-3.857 0.964,-8.602 -2.624,-10.608c-3.587,-2.006 -8.255,-0.502 -10.415,3.356c-2.16,3.858 -0.965,8.603 2.623,10.609Z" style="fill:#13375b;fill-rule:nonzero;"/><path d="M478.29,283.383c-4.437,2.315 -7.099,7.06 -6.79,12.036l0,0.116l20.909,10.377c0.887,-0.27 3.896,0.424 3.896,0.424l4.205,-7.561c-0,0 -2.199,-2.199 -2.431,-3.086l-19.789,-12.306Zm15.314,15.739l-11.573,-7.098c-0.925,-0.578 -1.157,-1.813 -0.578,-2.816c0.617,-1.003 1.813,-1.35 2.739,-0.771l11.573,7.098c0.926,0.578 1.157,1.813 0.578,2.816c-0.578,1.003 -1.813,1.35 -2.739,0.771Zm-15.392,-4.127c0.54,-1.042 1.736,-1.466 2.701,-1.003l12.113,6.095c0.964,0.501 1.311,1.697 0.81,2.739c-0.54,1.041 -1.736,1.466 -2.7,1.003l-12.113,-6.095c-0.965,-0.463 -1.312,-1.698 -0.811,-2.739Z" style="fill:#f70;fill-rule:nonzero;"/><path d="M562.348,338.779c-1.119,2.006 -1.35,4.243 -0.81,6.211l-65.233,-38.654l4.205,-7.561l67.624,35.838c-2.314,0.385 -4.513,1.851 -5.786,4.166Z" style="fill:#184655;fill-rule:nonzero;"/><path d="M590.143,373.031l15.797,-28.339l-4.212,-2.348l-15.797,28.339l4.212,2.348Z" style="fill:#b75742;"/><path d="M498.272,293.915l0.039,-0.039c0.193,-0.309 0.077,-0.694 -0.232,-0.887l-2.43,-1.351c-0.309,-0.192 -0.694,-0.077 -0.887,0.232l-0.039,0.039c-0.193,0.308 -0.077,0.694 0.232,0.887l2.43,1.35c0.309,0.193 0.733,0.116 0.887,-0.231Z" style="fill:#184655;fill-rule:nonzero;"/><path d="M493.142,291.06l0.038,-0.039c0.193,-0.308 0.077,-0.694 -0.231,-0.887l-2.431,-1.35c-0.308,-0.193 -0.694,-0.077 -0.887,0.231l-0.039,0.039c-0.192,0.308 -0.077,0.694 0.232,0.887l2.43,1.35c0.309,0.193 0.695,0.077 0.888,-0.231Z" style="fill:#184655;fill-rule:nonzero;"/><path d="M488.358,288.128l0.039,-0.039c0.192,-0.308 0.077,-0.694 -0.232,-0.887l-2.43,-1.35c-0.309,-0.193 -0.695,-0.077 -0.887,0.231l-0.039,0.039c-0.193,0.309 -0.077,0.694 0.231,0.887l2.431,1.35c0.308,0.193 0.694,0.078 0.887,-0.231Z" style="fill:#184655;fill-rule:nonzero;"/><path d="M480.874,301.514l0.039,-0.039c0.193,-0.308 0.077,-0.694 -0.27,-0.887l-2.431,-1.35c-0.308,-0.193 -0.694,-0.077 -0.887,0.232l-0.038,0.038c-0.193,0.309 -0.078,0.694 0.231,0.887l2.43,1.351c0.348,0.192 0.733,0.077 0.926,-0.232Z" style="fill:#184655;fill-rule:nonzero;"/><path d="M485.851,304.099l0.038,-0.039c0.193,-0.308 0.077,-0.694 -0.231,-0.887l-2.431,-1.35c-0.308,-0.193 -0.694,-0.077 -0.887,0.231l-0.038,0.039c-0.193,0.308 -0.078,0.694 0.231,0.887l2.43,1.35c0.309,0.193 0.695,0.077 0.888,-0.231Z" style="fill:#184655;fill-rule:nonzero;"/><path d="M490.866,306.915l0.038,-0.039c0.193,-0.308 0.077,-0.694 -0.231,-0.887l-2.431,-1.35c-0.308,-0.193 -0.694,-0.077 -0.887,0.27l-0.039,0.038c-0.192,0.309 -0.077,0.695 0.232,0.888l2.43,1.35c0.309,0.154 0.695,0.038 0.888,-0.27Z" style="fill:#184655;fill-rule:nonzero;"/><path d="M496.305,306.336l4.243,-7.561l0.849,0.463l-4.244,7.6l-0.848,-0.502Z" style="fill:#96d9c9;fill-rule:nonzero;"/><path d="M502.13,309.769l4.359,-7.831l0.347,0.193l-4.359,7.87l-0.347,-0.232Z" style="fill:#96d9c9;fill-rule:nonzero;"/><path d="M507.415,312.933l4.513,-8.101l0.386,0.193l-4.552,8.101l-0.347,-0.193Z" style="fill:#96d9c9;fill-rule:nonzero;"/><path d="M511.967,315.595l4.629,-8.294l0.347,0.192l-4.629,8.333l-0.347,-0.231Z" style="fill:#96d9c9;fill-rule:nonzero;"/><path d="M516.48,318.295l4.745,-8.526l0.347,0.193l-4.744,8.526l-0.348,-0.193Z" style="fill:#96d9c9;fill-rule:nonzero;"/><path d="M520.647,320.764l4.86,-8.719l0.347,0.193l-4.86,8.719l-0.347,-0.193Z" style="fill:#96d9c9;fill-rule:nonzero;"/><path d="M524.813,323.233l4.976,-8.95l0.347,0.193l-4.976,8.95l-0.347,-0.193Z" style="fill:#96d9c9;fill-rule:nonzero;"/><path d="M528.323,325.316l5.092,-9.104l0.348,0.193l-5.054,9.142l-0.386,-0.231Z" style="fill:#96d9c9;fill-rule:nonzero;"/><path d="M531.872,327.399l5.17,-9.258l0.347,0.192l-5.169,9.297l-0.348,-0.231Z" style="fill:#96d9c9;fill-rule:nonzero;"/><path d="M535.267,329.443l5.285,-9.451l0.347,0.193l-5.285,9.451l-0.347,-0.193Z" style="fill:#96d9c9;fill-rule:nonzero;"/><path d="M538.469,331.334l5.362,-9.606l0.347,0.193l-5.362,9.606l-0.347,-0.193Z" style="fill:#96d9c9;fill-rule:nonzero;"/><path d="M541.478,333.108l5.439,-9.721l0.347,0.193l-5.439,9.76l-0.347,-0.232Z" style="fill:#96d9c9;fill-rule:nonzero;"/><path d="M546.917,336.349l5.594,-9.992l0.347,0.193l-5.594,9.992l-0.347,-0.193Z" style="fill:#96d9c9;fill-rule:nonzero;"/><path d="M549.579,337.93l5.671,-10.145l0.347,0.193l-5.671,10.145l-0.347,-0.193Z" style="fill:#96d9c9;fill-rule:nonzero;"/><path d="M551.739,339.203l5.71,-10.222l0.385,0.192l-5.709,10.223l-0.386,-0.193Z" style="fill:#96d9c9;fill-rule:nonzero;"/><path d="M554.054,340.554l5.748,-10.339l0.347,0.193l-5.748,10.338l-0.347,-0.192Z" style="fill:#96d9c9;fill-rule:nonzero;"/><path d="M485.089,291.593l0.319,-0.573l-1.617,-0.901l-0.32,0.572l1.618,0.902Z" style="fill:#fff;"/><path d="M482.069,296.924l0.206,-0.37l-1.448,-0.809l-0.207,0.371l1.449,0.808Z" style="fill:#fff;"/><path d="M490.057,294.39l0.244,-0.438l-1.752,-0.977l-0.244,0.438l1.752,0.977Z" style="fill:#fff;"/><path d="M487.071,299.742l0.319,-0.572l-1.583,-0.883l-0.32,0.573l1.584,0.882Z" style="fill:#fff;"/><path d="M495.06,296.95l0.263,-0.472l-1.517,-0.845l-0.263,0.471l1.517,0.846Z" style="fill:#fff;"/><path d="M491.72,303.064l0.169,-0.304l-1.383,-0.769l-0.168,0.304l1.382,0.769Z" style="fill:#fff;"/><g><path d="M544.101,334.651l5.478,-9.837l0.386,0.155l-5.517,9.914l-0.347,-0.232Z" style="fill:#96d9c9;fill-rule:nonzero;"/></g></g><path d="M572.339,355.29c0.077,0.154 -2.276,0.656 -4.436,1.273c-2.122,0.617 -5.632,0.617 -5.478,1.118c0.116,0.386 2.276,0.618 4.282,0.463c-0.502,0.232 -0.733,0.425 -0.463,0.579c1.08,0.694 7.291,0.309 13,-2.122c5.71,-2.43 38.924,-20.677 35.568,-25.807c-1.235,-1.891 -6.558,-7.33 -9.606,-11.072l-8.718,6.79l4.475,4.899c-6.867,7.368 -17.36,15.315 -17.9,15.701c-1.466,1.041 -4.243,0.154 -4.899,0.115c-3.472,-0.077 -7.908,-0.115 -8.641,1.042c-0.733,1.157 2.469,0.771 4.398,1.35c1.929,0.579 -4.437,5.632 -11.072,5.208c-6.635,-0.425 0.849,2.546 3.048,1.929c2.199,-0.502 6.326,-1.698 6.442,-1.466Z" style="fill:#f7a491;fill-rule:nonzero;"/><path d="M527.475,325.972l-16.82,-6.134c-0.656,-0.232 -1.118,-0.887 -1.118,-1.582c-0,-1.35 -0,-2.507 -0.155,-2.893c-1.157,-3.279 -1.543,-7.831 -2.854,-8.294c-1.312,-0.463 -0.232,2.623 -0.425,4.668c-0.193,2.044 -6.596,-3.009 -7.561,-9.644c-0.964,-6.635 -1.774,2.623 -0.733,4.629c1.042,2.006 2.546,4.629 2.315,4.822c-0.154,0.116 -1.119,-2.315 -2.199,-4.243c-1.08,-1.968 -1.35,-5.555 -1.813,-5.285c-0.386,0.231 -0.463,2.816 0.038,4.899c-0.385,-0.579 -0.694,-0.849 -0.81,-0.502c-0.54,1.466 0.81,10.146 7.87,16.087c7.137,6.018 25.306,18.748 29.164,16.973l-4.899,-13.501Z" style="fill:#f7a491;fill-rule:nonzero;"/></g><g><path d="M300.76,159.475c0,0 0.348,-1.003 0.078,-3.163c-0.348,-2.7 -1.389,-6.712 -1.543,-7.059c-0.271,-0.618 8.139,-4.398 8.139,-4.398c0,-0 13.926,-2.392 15.817,-4.205c1.89,-1.813 3.587,-2.662 2.777,-0.926c-1.427,3.125 -5.015,7.908 -5.825,8.603c-0.849,0.694 -11.38,4.706 -11.573,4.745c-0.193,0.038 0.694,6.866 0.694,6.866l-8.564,-0.463Z" style="fill:#f7a491;fill-rule:nonzero;"/><g><path d="M309.479,155.463c-0,0 -9.259,-0.463 -9.297,0.463c-1.273,20.484 -1.119,27.197 -1.505,27.428c-1.311,0.887 -23.068,-14.08 -26.463,-14.852c-1.62,-0.347 -3.318,-0.077 -4.938,0.193c-3.858,0.579 -2.585,0.309 -4.591,0.656c-0.115,0.038 -0.154,0.038 -0.154,0.038l0.463,3.627c4.822,3.394 21.911,61.761 22.722,61.645c0.925,-0.154 21.294,2.469 20.754,0.849c-0.077,-0.27 -14.736,-9.606 -20.369,-24.921c-1.89,-5.13 -3.202,-10.763 -4.475,-15.662c4.668,1.698 22.799,8.101 25.384,6.635c8.024,-4.436 2.469,-46.099 2.469,-46.099Z" style="fill:#355389;fill-rule:nonzero;"/><path d="M356.079,257.151c0,0 20.099,12.229 21.024,14.698c1.312,3.587 17.591,-3.279 13.425,-3.511c-0.964,-0.077 -4.051,-0.463 -4.282,-0.578c-1.389,-0.54 -20.098,-18.324 -20.098,-18.324l-10.069,7.715Z" style="fill:#f7a491;fill-rule:nonzero;"/><path d="M398.436,267.374l-11.843,0.424c0,0 -3.009,3.163 -9.451,4.089c-0,0 -0.694,3.086 0.231,6.443c0.155,0.578 0.463,2.353 1.081,2.276c2.16,-0.425 7.753,-2.546 14.196,-4.63c-0,0 8.641,-2.931 13.386,-6.596c4.667,-3.665 -7.6,-2.006 -7.6,-2.006Z" style="fill:#f7cc7f;fill-rule:nonzero;"/><path d="M269.359,230.803c0,0 13.733,0.656 28.238,-4.59c16.742,-6.095 35.375,-12.075 41.354,-9.49c4.822,2.083 37.921,41.161 37.921,41.161l-9.914,9.181l-35.028,-30.938c0,-0 -37.689,19.211 -46.754,18.671c-20.6,-1.273 -22.799,-17.36 -15.817,-23.995Z" style="fill:#b75742;fill-rule:nonzero;"/><path d="M283.092,220.465l15.354,14.427l-24.072,10.609l-5.015,-14.698l13.733,-10.338Z" style="fill:#b75742;fill-rule:nonzero;"/><path d="M319.161,290.404c0,0 1.814,22.336 1.775,26.155c-0.077,3.819 11.226,13.926 9.49,10.146c-0.386,-0.888 -1.505,-3.781 -1.543,-4.051c-0.193,-1.504 0.501,-27.312 0.501,-27.312l-10.223,-4.938Z" style="fill:#f7a491;fill-rule:nonzero;"/><path d="M334.978,333.224l-6.018,-10.223c-0,0 -4.244,-1.157 -8.063,-6.404c0,0 -3.009,0.849 -5.593,3.241c-0.425,0.424 -3.434,3.202 -3.164,3.742c1.081,1.929 6.096,5.786 11.535,9.991c-0,0 7.599,4.784 13.077,7.214c5.517,2.43 -1.774,-7.561 -1.774,-7.561Z" style="fill:#f7cc7f;fill-rule:nonzero;"/><path d="M335.788,243.919c-5.439,-5.709 -44.17,-7.175 -44.17,-7.175l-13.001,-19.095l-21.718,17.243c-0,0 4.552,18.363 6.905,23.146c3.125,6.365 18.941,4.822 28.547,3.588c8.834,-1.157 25.229,-1.273 25.229,-1.273l0.27,48.876c-0,0 11.033,1.158 14.003,0.425c0.27,-0.077 10.724,-58.598 3.935,-65.735Z" style="fill:#f47458;fill-rule:nonzero;"/><path d="M262.647,169.428l-13.155,2.276c0,0 -0.308,0.154 -0.386,0.154c-1.041,0.309 4.514,38.731 7.176,53.043c2.661,14.273 5.323,20.098 5.323,20.098c0,0 17.553,-5.323 22.799,-8.101c2.16,-1.157 6.905,-8.718 6.905,-8.718c0,0 -6.558,-6.905 -10.84,-18.902c-3.317,-9.259 -8.024,-25.808 -9.991,-29.126c-4.514,-7.676 -7.831,-10.724 -7.831,-10.724Z" style="fill:#96d9c9;fill-rule:nonzero;"/></g><path d="M248.489,160.015l1.003,11.728c0,-0 10.3,13.733 14.466,11.148c3.472,-2.16 -1.118,-13 -1.118,-13c-0,-0 -0.926,-2.507 -2.199,-5.362c-0.849,-2.006 -1.659,-4.166 -1.813,-5.825c-0.347,-3.974 -10.339,1.311 -10.339,1.311Z" style="fill:#f7a491;fill-rule:nonzero;"/><g><path d="M255.587,132.163c0,0 5.131,6.057 6.134,11.535c0.964,5.477 0.27,9.412 0.27,9.412l-15.971,-15.083l9.567,-5.864Z" style="fill:#184655;fill-rule:nonzero;"/><path d="M262.994,142.425c0.424,1.928 -0.116,3.664 -1.234,3.934c-1.119,0.232 -2.354,-1.118 -2.778,-3.009c-0.424,-1.928 0.116,-3.664 1.234,-3.934c1.119,-0.27 2.354,1.08 2.778,3.009Z" style="fill:#f48c7f;fill-rule:nonzero;"/><path d="M241.777,141.306c-0.347,-0.039 1.62,16.086 6.751,19.327c5.13,3.24 13.27,2.623 15.199,-1.505c2.122,-4.552 -2.392,-21.217 -9.76,-23.994c-7.407,-2.817 -12.19,6.172 -12.19,6.172Z" style="fill:#f7a491;fill-rule:nonzero;"/><path d="M239.385,131.43c-3.202,3.549 -4.629,6.018 -6.404,11.882c-2.16,7.175 4.553,13.579 9.837,15.778c5.285,2.237 6.096,5.632 6.096,5.632l-0.078,-2.161c0,-1.697 -0.617,-2.584 -1.195,-3.549c-0.541,-0.848 -2.238,-3.78 -2.855,-4.513c-1.659,-1.967 -1.968,-2.392 -1.543,-4.513c0.347,-1.621 -0.695,-5.015 -0.154,-7.677l6.48,-2.238c0,0 4.051,-1.504 5.864,-4.166c5.208,-7.638 -7.638,-14.003 -16.048,-4.475Z" style="fill:#184655;fill-rule:nonzero;"/><path d="M245.056,151.567c1.041,1.659 1.08,3.511 0.116,4.089c-0.965,0.579 -2.585,-0.27 -3.627,-1.929c-1.041,-1.658 -1.08,-3.51 -0.115,-4.089c1.003,-0.617 2.623,0.27 3.626,1.929Z" style="fill:#f7a491;fill-rule:nonzero;"/></g><path d="M194.559,112.489c1.119,3.009 3.048,7.754 3.048,7.754c0.038,1.35 0.308,7.021 0.656,13.926l9.605,-5.246c0,-0 -1.466,-11.187 -1.08,-11.92c0.309,-0.618 1.042,0.038 3.626,-4.784c0.733,-1.389 0.656,-3.703 0.656,-3.703c0,-0 -0.154,-2.816 -0.81,-3.009c-0.656,-0.193 -1.35,0.308 -1.505,0.848c-0.154,0.502 0.039,1.621 -0.154,2.161c-0.154,0.501 -1.582,1.273 -2.199,1.311c-0.617,0.039 -0.926,-8.332 -0.926,-8.332c0,-0 0.078,-2.392 0.155,-3.163c0.077,-0.656 0.424,-2.662 0.424,-2.662c0,-0 0.386,-2.855 -0.54,-2.971c-0.54,-0.077 -1.543,2.354 -2.16,4.861c-0.656,2.7 -0.888,5.516 -1.158,5.516c-0.655,0 -0.848,-4.59 -0.848,-4.59c-0,-0 0.385,-2.16 0.27,-3.125c0.463,-1.273 0.617,-3.549 -0.502,-3.626c-0.193,-0 -1.273,3.009 -1.273,3.009c0,-0 -0.308,2.044 -0.54,3.047c-0.386,1.698 -0.154,4.321 -0.308,5.517c-0.116,0.964 -0.386,0.617 -0.502,0.656c-0.077,0.038 -0.077,-1.273 -0.154,-3.125c-0.039,-0.926 -0.27,-1.967 -0.116,-3.009c0.116,-1.003 0.077,-2.392 0.039,-3.202c-0.116,-2.353 -1.543,-1.967 -1.813,0.27c-0.116,0.849 -0.193,1.775 -0.309,2.701c-0.386,3.626 0.038,7.021 -0.347,7.098c-0.502,0.077 -0.888,-6.134 -0.888,-6.134c0,0 -1.157,-3.318 -1.543,-0.077c-0.424,3.78 0,6.789 0.039,6.905c0.27,0.81 -0,4.089 1.157,7.098Z" style="fill:#f8a492;fill-rule:nonzero;"/><path d="M249.492,171.743c0,-0 -13.154,0.926 -16.742,-0.193c-2.16,-0.695 -20.6,-12.268 -20.6,-12.268l-4.128,-36.377l-11.958,0.501c-0,0 -1.389,40.891 1.273,45.058c2.739,4.282 29.627,20.059 35.49,27.582c3.395,4.32 13.656,63.034 14.621,63.497c6.789,2.546 30.089,7.715 29.395,5.748c-19.443,-54.123 -27.351,-93.548 -27.351,-93.548Z" style="fill:#355389;fill-rule:nonzero;"/><path d="M305.158,149.33c0,-0 3.472,-2.006 4.398,-2.431c0.926,-0.424 4.012,-1.388 4.012,-1.388c-0,-0 4.243,-5.555 5.478,-5.825c1.234,-0.27 -2.199,5.786 -2.199,5.786l-1.505,1.813c0,0 2.469,-2.662 2.932,-3.047c0.463,-0.386 3.896,-6.79 4.977,-6.52c1.08,0.27 -1.235,4.784 -2.315,7.137c-1.119,2.392 -7.175,4.475 -7.175,4.475l-8.603,-0Z" style="fill:#f7a491;fill-rule:nonzero;"/></g><g><g><g><g><path d="M316.808,137.988c-0.077,-0.116 -9.104,-9.953 -26.309,-16.009c-24.573,-8.641 -66.699,0.849 -79.198,-26.309c-2.237,-4.822 -2.353,-8.641 -2.353,-8.796c0,-0.578 0.849,-0.578 0.888,0c-0,0.039 0.115,3.781 2.276,8.487c12.267,26.541 53.968,17.09 78.696,25.808c12.344,4.359 22.528,11.65 26.656,16.241c0.386,0.424 -0.27,1.041 -0.656,0.578Z" style="fill:#86b1f2;fill-rule:nonzero;"/></g><g><path d="M316.461,133.359c-0.347,-0.386 -8.525,-9.143 -23.879,-14.582c-16.703,-5.941 -42.434,-4.475 -57.903,-11.419c-9.374,-4.204 -13.965,-10.222 -16.164,-14.504c-2.391,-4.668 -2.546,-8.333 -2.546,-8.487c-0.038,-0.579 0.849,-0.617 0.887,-0.039c0,0.039 0.155,3.665 2.469,8.14c2.122,4.166 6.597,9.991 15.74,14.08c15.276,6.828 40.968,5.401 57.826,11.38c15.546,5.517 23.879,14.428 24.226,14.814c0.154,0.193 0.154,0.463 -0.039,0.617c-0.193,0.193 -0.463,0.193 -0.617,0Z" style="fill:#86b1f2;fill-rule:nonzero;"/></g><g><path d="M316.114,128.691c-3.626,-3.973 -11.187,-9.528 -21.41,-13.154c-16.164,-5.787 -38.114,-5.632 -51.886,-11.419c-9.837,-4.128 -14.659,-9.953 -17.012,-14.119c-2.546,-4.513 -2.739,-8.062 -2.739,-8.178c-0.038,-0.579 0.849,-0.617 0.888,-0.039c-0,0.039 0.192,3.511 2.661,7.87c2.276,4.012 6.983,9.683 16.55,13.694c6.982,2.932 16.009,4.282 25.537,5.748c9.027,1.389 18.363,2.816 26.31,5.671c10.377,3.703 18.053,9.336 21.757,13.425c0.385,0.347 -0.27,0.926 -0.656,0.501Z" style="fill:#86b1f2;fill-rule:nonzero;"/></g><g><path d="M315.767,124.062c-15.624,-17.012 -47.257,-16.356 -64.886,-23.223c-10.3,-4.012 -15.392,-9.644 -17.861,-13.656c-2.7,-4.398 -2.932,-7.793 -2.932,-7.947c-0.038,-0.578 0.849,-0.617 0.887,-0.038c0,0.077 0.271,3.394 2.855,7.599c2.392,3.896 7.368,9.374 17.398,13.27c17.591,6.829 49.378,6.134 65.233,23.416c0.154,0.193 0.154,0.463 -0.039,0.618c-0.192,0.154 -0.501,0.115 -0.655,-0.039Z" style="fill:#86b1f2;fill-rule:nonzero;"/></g></g></g><g><path d="M247.872,89.536c-1.466,-1.504 -3.279,-5.902 -4.359,-8.525c-1.466,-3.549 -1.312,-2.816 -1.852,-3.086c-1.157,-0.232 -0.193,0.617 -9.567,19.789c-3.896,-5.092 -15.006,-3.819 -15.006,2.083c-0,3.048 3.24,5.787 7.6,5.748c3.008,0 5.709,-1.388 6.905,-3.51c0.308,-0.579 4.397,-8.873 7.754,-15.624c1.157,4.475 6.403,7.716 9.682,5.555l1.003,-0.655l-1.003,-0.618c-0.385,-0.308 -1.08,-1.118 -1.157,-1.157Z" style="fill:#466eb6;fill-rule:nonzero;"/><path d="M308.437,107.86c-1.774,-0.502 -5.169,-3.086 -7.175,-4.591c-2.122,-1.62 -2.353,-1.774 -2.893,-1.581c-1.119,0.385 0.038,0.887 1.427,19.712c-5.324,-2.044 -13.27,3.742 -10.57,8.294c2.855,4.822 12.46,1.158 12.306,-4.822c-0,-0.578 -0.617,-10.107 -1.042,-16.665c2.971,2.778 8.371,4.282 9.953,1.119l0.54,-1.08c-1.389,-0.116 -0.81,0.115 -2.546,-0.386Z" style="fill:#466eb6;fill-rule:nonzero;"/><path d="M279.35,107.976c-0.038,-0.81 -0.617,-9.452 -1.311,-20.099c-11.187,1.196 -10.802,1.312 -21.102,-0.347c0.348,5.478 0.733,10.956 1.042,15.392c-5.401,-2.083 -12.152,4.282 -9.49,8.796c2.893,4.86 11.92,-0.232 11.805,-6.211c-0,-0 -0.618,-4.745 -1.119,-12.345l17.398,0.155c0.154,2.353 0.347,6.943 0.694,11.457c-5.4,-2.045 -12.923,3.51 -10.222,8.024c1.465,2.507 5.323,2.97 8.525,1.041c2.353,-1.35 3.858,-3.664 3.78,-5.863Z" style="fill:#466eb6;fill-rule:nonzero;"/></g></g><path d="M504.985,57.518c-1.775,0.54 -6.018,0.308 -8.526,0.115c-2.662,-0.154 -2.97,-0.193 -3.279,0.309c-0.733,0.926 -0.656,0.926 10.879,15.816c-5.555,1.235 -7.831,10.262 -3.048,12.576c5.054,2.469 11.033,-5.902 7.6,-10.84c-0.309,-0.463 -5.324,-6.944 -9.336,-12.19c4.012,0.694 8.603,-2.199 8.14,-5.709l-0.154,-1.196c-1.158,0.694 -0.541,0.579 -2.276,1.119Z" style="fill:#50bfa5;fill-rule:nonzero;"/><path d="M278.617,23.3c0.078,-0.771 0.695,-9.451 1.428,-20.098c-11.226,-0.347 -10.879,-0.193 -20.87,-3.202c-0.386,5.478 -0.772,10.956 -1.042,15.392c-5.092,-2.777 -12.614,2.585 -10.57,7.445c2.199,5.208 12.191,2.816 12.846,-3.124c0.078,-0.54 0.348,-5.363 0.888,-12.962l15.7,2.314c-0.154,2.354 -0.347,5.401 -0.656,9.915c-5.053,-2.778 -12.614,2.584 -10.569,7.445c1.118,2.662 4.86,3.665 8.332,2.199c2.508,-1.042 4.282,-3.125 4.513,-5.324Z" style="fill:#96d9c9;fill-rule:nonzero;"/><path d="M76.669,85.717l5.825,4.706l6.829,-3.356l6.133,5.748l6.172,-5.825l7.214,6.211l6.365,-4.668l7.909,4.822l-1.814,3.009l-5.902,-3.626l-6.712,4.899l-6.944,-5.941l-6.288,5.903l-6.789,-6.327l-6.674,3.279l-5.362,-4.359l-3.935,3.047l-2.16,-2.777l6.133,-4.745Z" style="fill:#9bc1f9;fill-rule:nonzero;"/><g><path d="M523.308,209.548c0.116,0.578 0.309,1.08 0.579,1.62c0.926,-0.887 2.315,-1.582 4.359,-1.543c0.232,-0.733 0.463,-1.466 0.695,-2.238c-1.659,-0.077 -4.128,0.193 -5.633,2.161Z" style="fill:#355389;fill-rule:nonzero;"/><path d="M527.783,219.655c1.042,-3.009 2.083,-6.173 3.125,-9.297c-0.116,-0.077 -0.232,-0.116 -0.193,-0.116c-0.81,-0.386 -0.926,-0.386 -0.926,-0.386c-0.617,-0.193 -1.119,-0.193 -1.08,-0.193l-0.424,0c-1.08,3.434 -2.161,6.828 -3.164,9.953c0.849,0.154 1.775,0.154 2.662,0.039Z" style="fill:#355389;fill-rule:nonzero;"/><path d="M520.261,232.694c-0,-0.039 -1.505,2.546 -3.549,2.314c-0,0 -2.392,-0.231 -1.08,-2.623l0.077,-0.193c0.154,-0.424 -0.077,-0.887 -0.502,-1.08c-0.463,-0.193 -0.887,0.077 -1.157,0.463c-0.154,0.231 -0.347,0.617 -0.424,1.273c-0.309,3.858 4.32,5.131 7.059,2.739c1.698,-1.466 3.819,-6.558 6.057,-12.885c-0.849,-0.038 -1.698,-0.154 -2.508,-0.347c-1.697,5.131 -3.086,9.104 -3.973,10.339Z" style="fill:#355389;fill-rule:nonzero;"/><path d="M525.083,219.578c-0.309,0.964 -0.617,1.89 -0.887,2.777c0.81,0.193 1.658,0.309 2.507,0.347c0.347,-1.003 0.694,-2.006 1.08,-3.047c-0.887,0.115 -1.813,0.115 -2.7,-0.077Z" style="fill:#355389;fill-rule:nonzero;"/><path d="M528.941,207.387c1.003,0.039 1.735,0.232 1.735,0.232c0.348,0.077 0.695,0.193 1.003,0.347c0.888,-2.7 1.814,-5.362 2.662,-7.831c-1.234,0.386 -2.353,0.772 -3.394,1.157c-0.656,2.006 -1.351,4.051 -2.006,6.095Z" style="fill:#355389;fill-rule:nonzero;"/><path d="M532.374,197.203c-0.463,1.312 -0.965,2.701 -1.427,4.089c1.041,-0.385 2.16,-0.81 3.394,-1.157c0.502,-1.389 1.003,-2.739 1.466,-4.012c-1.119,0.424 -2.276,0.772 -3.433,1.08Z" style="fill:#355389;fill-rule:nonzero;"/><path d="M519.296,213.02c-0.154,-1.312 -0.115,-7.176 11.651,-11.728c0.462,-1.388 0.964,-2.777 1.427,-4.089c-1.35,0.386 -2.739,0.81 -4.089,1.235c-3.279,1.08 -6.635,2.391 -9.143,4.667c-3.279,3.009 -4.089,7.446 -3.125,11.573c0.502,2.161 1.659,4.205 3.511,5.594c1.35,1.003 2.97,1.697 4.668,2.044c0.308,-0.887 0.578,-1.813 0.887,-2.777c-2.778,-0.502 -5.285,-2.546 -5.787,-6.519Z" style="fill:#355389;fill-rule:nonzero;"/><path d="M546.069,189.064c-0.348,-3.087 -3.55,-7.909 -7.446,-4.668c-1.774,1.466 -3.973,6.519 -6.211,12.807c1.158,-0.347 2.315,-0.694 3.472,-1.08c2.469,-6.404 4.629,-10.493 6.095,-8.834c0.888,1.003 1.273,2.7 0.54,4.436c-0.771,1.813 -2.777,2.894 -4.552,3.626c-0.694,0.271 -1.388,0.541 -2.083,0.772c-0.463,1.234 -0.964,2.585 -1.466,4.012c0.54,-0.154 1.081,-0.309 1.659,-0.463c3.588,-1.003 7.214,-3.24 8.641,-5.285c-0.077,0 1.698,-2.353 1.351,-5.323Z" style="fill:#355389;fill-rule:nonzero;"/><path d="M531.602,210.859c-0.115,-0.115 0.888,0.695 1.35,1.698c-0.192,-0.425 1.389,1.89 -0.617,4.59c-1.003,1.389 -2.739,2.276 -4.59,2.508c-0.348,1.041 -0.733,2.044 -1.08,3.047l0.385,0c9.914,0.309 12.036,-11.727 4.591,-14.775c-0.27,0.772 -0.54,1.582 -0.81,2.392c0.27,0.154 0.617,0.347 0.771,0.54Z" style="fill:#355389;fill-rule:nonzero;"/><path d="M528.941,207.387c-0.232,0.733 -0.463,1.466 -0.695,2.238l0.424,-0c0,-0 0.502,0.038 1.081,0.193c-0,-0 0.115,-0 0.925,0.385c0,0 0.078,0.039 0.193,0.116c0.27,-0.81 0.54,-1.581 0.81,-2.392c-0.308,-0.115 -0.655,-0.231 -1.003,-0.347c0,0.039 -0.732,-0.115 -1.735,-0.193Z" style="fill:#355389;fill-rule:nonzero;"/><path d="M527.012,212.132c-0.386,1.736 -1.659,2.894 -2.894,2.623c-1.234,-0.27 -1.89,-1.89 -1.543,-3.587c0.386,-1.736 1.659,-2.893 2.894,-2.623c1.234,0.27 1.928,1.89 1.543,3.587Z" style="fill:#355389;fill-rule:nonzero;"/><path d="M518.101,233.234c-0.386,1.736 -1.659,2.893 -2.894,2.623c-1.234,-0.27 -1.89,-1.89 -1.543,-3.588c0.386,-1.736 1.659,-2.893 2.893,-2.623c1.235,0.27 1.929,1.852 1.544,3.588Z" style="fill:#355389;fill-rule:nonzero;"/></g><g><path d="M43.764,450.844l-0,-44.132c-0,-44.556 36.107,-80.702 80.702,-80.702l44.131,0c44.556,0 80.702,36.108 80.702,80.702l0,44.132c0,44.556 -36.107,80.702 -80.702,80.702l-44.131,-0c-44.556,-0 -80.702,-36.146 -80.702,-80.702Z" style="fill:#005bee;fill-rule:nonzero;"/><path d="M93.334,291.368c0.232,-7.985 -2.7,-86.45 17.128,-148.481c13.502,-42.357 28.547,-60.68 46.601,-75.494c0.81,-0.656 1.62,-1.311 2.469,-1.929c0.848,-0.617 1.659,-1.273 2.507,-1.851c0.27,-0.193 -0.926,0.655 2.546,-1.775c58.791,-40.814 177.954,-42.665 227.949,18.941c18.285,22.182 30.36,57.942 35.683,86.412c9.22,49.493 6.635,103.655 5.324,156.967l-24.111,0c-4.32,-66.274 2.778,-149.522 -27.852,-210.55l-1.157,-2.238c-1.35,-1.581 -17.668,-41.315 -70.364,-60.372c-66.467,-22.451 -134.747,10.146 -157.623,70.518c-20.87,53.506 -18.864,116.27 -18.903,169.852l-40.197,0Z" style="fill:#66beff;fill-rule:nonzero;"/><rect x="75.396" y="250.786" width="73.334" height="105.738" style="fill:#66beff;"/><path d="M148.73,311.505c-5.285,-1.041 -10.724,-1.581 -16.318,-1.581l-37.92,-0c-6.558,-0 -12.962,0.771 -19.096,2.199l0,44.44l73.334,-0l0,-45.058Z" style="fill:#005bee;fill-rule:nonzero;"/><path d="M144.603,69.631c1.697,3.201 5.246,4.667 7.985,3.279c2.778,-1.428 3.665,-5.208 2.006,-8.526c-1.659,-3.317 -5.285,-4.822 -8.063,-3.433c-0.732,0.386 -1.311,0.887 -1.774,1.543l-4.398,-9.49l16.164,-2.816l7.522,16.202c0,0 0,0.039 0.039,0.039c1.659,3.279 5.285,4.822 8.062,3.433c2.778,-1.427 3.665,-5.208 2.006,-8.525c-1.659,-3.279 -5.285,-4.822 -8.062,-3.434c-0.733,0.386 -1.312,0.888 -1.775,1.543l-8.062,-17.359c-0.27,-0.579 -0.81,-0.887 -1.35,-0.772l-20.137,4.09c-0.656,0.154 -0.965,0.925 -0.656,1.658l10.493,22.568Z" style="fill:#50bfa5;fill-rule:nonzero;"/><path d="M22.006,454.123l0,-50.651c0,-42.743 34.681,-77.423 77.424,-77.423l34.371,-0c42.782,-0 77.423,34.68 77.423,77.423l0,50.651c0,42.781 -34.68,77.423 -77.423,77.423l-34.371,-0c-42.743,-0 -77.424,-34.68 -77.424,-77.423Z" style="fill:#66beff;fill-rule:nonzero;"/><path d="M51.595,431.285l-0,-22.412c-0,-22.645 18.362,-41.007 41.007,-41.007l22.412,-0c22.645,-0 41.007,18.362 41.007,41.007l0,22.412c0,22.645 -18.362,41.007 -41.007,41.007l-22.412,0c-22.645,-0.038 -41.007,-18.362 -41.007,-41.007Z" style="fill:#005bee;fill-rule:nonzero;"/><path d="M32.268,431.285l-0,-22.412c-0,-22.645 18.362,-41.007 41.007,-41.007l22.413,-0c22.644,-0 41.006,18.362 41.006,41.007l0,22.412c0,22.645 -18.362,41.007 -41.006,41.007l-22.452,0c-22.606,-0.038 -40.968,-18.362 -40.968,-41.007Z" style="fill:#66beff;fill-rule:nonzero;"/></g><g><path d="M637.765,230.765c1.196,3.202 3.279,8.255 3.279,8.255c0.038,1.466 0.347,7.484 0.694,14.852l10.262,-5.594c-0,0 -1.543,-11.92 -1.158,-12.73c0.348,-0.656 1.119,0.039 3.858,-5.092c0.81,-1.466 0.694,-3.935 0.694,-3.935c0,0 -0.154,-3.009 -0.848,-3.24c-0.695,-0.193 -1.428,0.347 -1.621,0.887c-0.192,0.54 0.039,1.736 -0.154,2.276c-0.193,0.54 -1.659,1.35 -2.314,1.389c-0.656,0.038 -0.965,-8.873 -0.965,-8.873c0,0 0.077,-2.546 0.154,-3.394c0.078,-0.733 0.463,-2.855 0.463,-2.855c0,-0 0.386,-3.048 -0.54,-3.163c-0.578,-0.078 -1.658,2.507 -2.314,5.207c-0.695,2.894 -0.926,5.903 -1.235,5.864c-0.694,0 -0.926,-4.899 -0.926,-4.899c0,-0 0.425,-2.315 0.27,-3.356c0.502,-1.35 0.656,-3.781 -0.54,-3.858c-0.231,0 -1.35,3.202 -1.35,3.202c0,-0 -0.347,2.199 -0.578,3.24c-0.386,1.813 -0.155,4.63 -0.348,5.864c-0.154,1.042 -0.424,0.656 -0.54,0.733c-0.077,0.039 -0.115,-1.389 -0.154,-3.318c-0.039,-0.964 -0.27,-2.083 -0.116,-3.24c0.116,-1.042 0.116,-2.546 0.077,-3.433c-0.115,-2.546 -1.658,-2.084 -1.928,0.27c-0.116,0.887 -0.193,1.89 -0.309,2.854c-0.386,3.858 0.039,7.484 -0.347,7.561c-0.54,0.116 -0.965,-6.519 -0.965,-6.519c0,-0 -1.234,-3.549 -1.658,-0.077c-0.463,4.05 -0,7.214 0.038,7.368c0.193,1.041 -0.077,4.552 1.119,7.754Z" style="fill:#f8a492;fill-rule:nonzero;"/><path d="M702.921,267.374c-0,-0 -5.092,-5.362 -9.143,1.157c-0,0 -3.163,-1.774 -5.362,1.389c-0,-0 -5.671,-1.697 -7.06,6.789c0,0 -2.931,-0.54 -3.317,2.932c-0.386,3.472 1.389,5.787 1.389,5.787c-0,-0 -1.659,1.234 -0.888,4.436c0.617,2.7 2.894,3.125 2.894,3.125c-0,-0 0.617,4.59 2.584,5.94c1.968,1.389 4.706,0.733 4.706,0.733c0,0 0.733,2.469 3.048,2.276c2.315,-0.231 5.169,-2.43 7.792,-1.427c2.585,1.003 9.336,-0.038 9.336,-0.038c-0,-0 7.561,-3.357 5.285,-11.072c-0,0 3.973,-3.588 0.501,-7.87c0,0 2.547,-6.712 -2.468,-10.685c-5.015,-3.974 -9.297,-3.472 -9.297,-3.472Z" style="fill:#07345a;fill-rule:nonzero;"/><path d="M746.859,223.59l0.618,10.299l-2.277,17.514l-9.837,0.077c0,0 2.199,-11.071 0.695,-13.694c-1.196,-2.083 -2.662,-5.285 -2.739,-6.443c-0.386,-3.934 13.54,-7.753 13.54,-7.753Z" style="fill:#f7a491;fill-rule:nonzero;"/><path d="M734.168,229.26l4.204,7.986c1.235,2.353 4.012,2.276 5.093,-0.155l1.658,-4.629c0,0 -7.059,-6.018 -10.955,-3.202Z" style="fill:#f47458;fill-rule:nonzero;"/><path d="M704.117,214.023l20.985,2.16c1.08,0.116 2.006,0.733 2.546,1.659l10.107,18.208c1.312,2.353 4.745,2.199 5.864,-0.232l8.564,-18.979c0.424,-0.965 1.311,-1.659 2.392,-1.852l20.754,-3.819c2.662,-0.502 3.587,-3.781 1.581,-5.555l-15.7,-13.849c-0.81,-0.694 -1.196,-1.736 -1.042,-2.816l2.701,-20.561c0.347,-2.624 -2.547,-4.514 -4.861,-3.202l-18.247,10.415c-0.926,0.54 -2.083,0.579 -3.047,0.116l-19.057,-8.911c-2.43,-1.157 -5.169,0.964 -4.591,3.587l4.398,20.292c0.231,1.041 -0.077,2.121 -0.81,2.893l-14.505,15.083c-1.929,1.891 -0.733,5.092 1.968,5.363Z" style="fill:#f7cc7f;fill-rule:nonzero;"/><path d="M668.009,491.542c-0,0 -5.517,6.867 -6.905,7.715c-1.389,0.849 0.617,10.802 4.359,11.458c2.122,0.385 3.163,-2.585 3.163,-2.585l-0.501,-2.276l7.908,-8.14l-8.024,-6.172Z" style="fill:#f7a491;fill-rule:nonzero;"/><path d="M696.478,493.239c0,0 -4.59,7.523 -5.863,8.526c-1.273,1.003 2.006,10.647 5.786,10.801c2.16,0.077 2.816,-2.97 2.816,-2.97l-0.771,-2.16l6.789,-9.066l-8.757,-5.131Z" style="fill:#f7a491;fill-rule:nonzero;"/><path d="M690.885,501.456c-0,0 2.662,3.356 4.089,4.707c1.852,1.735 4.243,3.433 4.243,3.433c0,-0 2.701,4.899 3.434,6.635c1.658,3.819 3.51,8.062 3.24,10.184c-0.077,0.695 -1.62,1.428 -2.893,1.003c-5.324,-1.659 -18.98,-14.119 -20.716,-17.475c-2.006,-3.858 8.603,-8.487 8.603,-8.487Z" style="fill:#07345a;fill-rule:nonzero;"/><path d="M729.847,387.154c-0.501,-1.389 -0.964,-2.662 -1.427,-3.896c-5.671,1.234 -12.113,2.584 -18.71,4.012l-0.81,24.187c-0,-1.852 4.976,38.577 4.976,38.577c0,-0 -11.65,28.122 -20.445,44.671c3.587,4.475 4.552,5.131 9.76,8.179c13.617,-16.318 31.015,-45.096 31.748,-50.073c0.463,-2.816 0.849,-48.992 -5.092,-65.657Z" style="fill:#3c8f7c;fill-rule:nonzero;"/><path d="M679.157,394.136c1.736,18.864 5.594,54.895 5.285,57.788c-0.964,3.626 -17.436,36.956 -20.522,41.817c2.469,3.703 6.056,7.175 10.145,8.294c0.811,0.231 28.624,-39.58 30.167,-42.782c1.736,-3.626 4.668,-23.338 4.707,-47.757l0.81,-24.188c-10.995,2.315 -21.14,4.629 -30.592,6.828Z" style="fill:#50bfa5;fill-rule:nonzero;"/><path d="M715.265,308.226l-12.962,1.775c0,-0 -10.377,0.27 -11.65,0.27c-1.273,-0 -9.412,47.218 -11.766,65.001c-2.353,17.784 -0.54,20.909 -0.54,20.909c0,-0 16.395,3.703 28.547,2.623c12.615,-1.119 26.849,-7.947 26.849,-7.947c0,0 -10.184,-33.368 -12.306,-44.016c-2.121,-10.685 -6.172,-38.615 -6.172,-38.615Z" style="fill:#f47458;fill-rule:nonzero;"/><path d="M746.666,251.017c0,0 0.849,35.221 -0.501,37.883c-1.929,3.934 -23.647,31.709 -23.647,31.709c-0,0 10.377,43.438 14.736,58.444c0.424,1.504 2.391,11.264 2.391,12.229c0,2.121 -9.181,4.783 -10.261,4.629c-0.964,-0.154 -8.988,-41.47 -14.119,-61.684c-1.736,-6.867 -4.706,-13.348 -8.757,-19.095l-3.549,-5.054l27.312,-27.351c0,0 3.357,-30.475 3.357,-32.983c-0.039,-0.694 11.688,-1.195 13.038,1.273Z" style="fill:#466eb6;fill-rule:nonzero;"/><path d="M691.155,310.194l-34.063,-34.68c-0,-0 -4.745,-32.791 -5.092,-34.025c-0.348,-1.196 -8.796,-1.852 -12.191,-2.199c-1.08,-0.116 0.579,34.95 2.199,40.814c1.929,6.944 27.66,38.577 27.66,38.577c-0,-0 4.629,17.128 3.51,29.704c-1.852,20.869 -6.828,49.57 -5.941,50.458c5.517,3.472 26.772,3.857 28.123,1.697c14.852,-23.956 -4.205,-90.346 -4.205,-90.346Z" style="fill:#466eb6;fill-rule:nonzero;"/><path d="M702.072,303.713l0.926,6.828c-0,-0 2.044,9.837 -0.579,11.727c-2.623,1.89 -11.264,-11.997 -11.264,-11.997l0.926,-17.282l9.991,10.724Z" style="fill:#f7a491;fill-rule:nonzero;"/><path d="M691.772,298.582c2.199,5.902 7.407,9.529 11.11,10.917l-0.771,-5.786l-10.03,-10.724l-0.309,5.593Z" style="fill:#f47458;fill-rule:nonzero;"/><path d="M677.962,281.223c-0,2.623 1.504,4.745 3.356,4.745c1.851,-0 3.356,-2.122 3.356,-4.745c-0,-2.623 -1.505,-4.745 -3.356,-4.745c-1.852,-0 -3.356,2.122 -3.356,4.745Z" style="fill:#07345a;fill-rule:nonzero;"/><path d="M687.992,271c-0,1.505 1.813,2.739 4.05,2.739c2.237,-0 4.051,-1.234 4.051,-2.739c-0,-1.504 -1.814,-2.739 -4.051,-2.739c-2.237,0 -4.05,1.235 -4.05,2.739Z" style="fill:#07345a;fill-rule:nonzero;"/><path d="M698.176,274.819c5.362,-1.852 11.11,1.736 11.92,7.253c0.347,2.391 0.694,5.439 0.733,8.756c0.154,7.947 -3.974,15.701 -7.6,15.701c-3.626,0 -13.617,-5.169 -13.964,-16.472c-0.193,-6.944 3.279,-13.27 8.911,-15.238Z" style="fill:#f7a491;fill-rule:nonzero;"/><path d="M691.926,290.983c0,1.774 -1.157,3.163 -2.584,3.163c-1.428,-0 -2.585,-1.427 -2.585,-3.163c0,-1.775 1.157,-3.164 2.585,-3.164c1.427,0 2.584,1.389 2.584,3.164Z" style="fill:#f7a491;fill-rule:nonzero;"/><path d="M713.838,270.884c3.742,2.971 5.053,7.446 2.932,10.03c-2.122,2.585 -6.867,2.276 -10.609,-0.656c-3.742,-2.931 -5.053,-7.445 -2.932,-10.029c2.122,-2.585 6.867,-2.315 10.609,0.655Z" style="fill:#07345a;fill-rule:nonzero;"/><path d="M704.078,273.315c-0,1.273 -1.543,2.314 -3.472,2.314c-1.929,0 -3.472,-1.041 -3.472,-2.314c0,-1.273 1.543,-2.315 3.472,-2.315c1.929,-0.039 3.472,1.003 3.472,2.315Z" style="fill:#07345a;fill-rule:nonzero;"/><path d="M714.378,283.19c-0,1.659 -1.312,3.009 -2.971,3.009c-1.62,0 -2.97,-1.35 -2.97,-3.009c0,-1.659 1.312,-3.009 2.97,-3.009c1.659,0 2.971,1.35 2.971,3.009Z" style="fill:#07345a;fill-rule:nonzero;"/><path d="M736.019,233.812l1.852,-2.932c-0,0 3.202,-2.816 2.353,-3.934c-1.389,-1.852 -6.249,2.661 -6.249,2.661c-0,0 -0.54,4.09 2.044,4.205Z" style="fill:#f7a491;fill-rule:nonzero;"/><path d="M747.477,233.889c-0,0 0.848,-6.982 0.694,-7.175c-0.926,-1.157 -3.858,-3.086 -4.938,-2.662c-1.08,0.425 1.389,4.128 1.389,4.128c-0,0 -1.543,0.309 -1.852,1.697c-0.27,1.389 4.707,4.012 4.707,4.012Z" style="fill:#f7a491;fill-rule:nonzero;"/><path d="M661.412,498.987c0,0 2.199,3.704 3.472,5.208c1.62,1.968 3.781,3.935 3.781,3.935c-0,-0 2.044,5.208 2.584,7.021c1.158,3.973 2.431,8.795 1.891,10.878c-0.155,0.656 -1.659,1.929 -2.855,1.158c-4.668,-3.048 -17.205,-17.321 -18.478,-20.87c-1.505,-4.089 9.605,-7.33 9.605,-7.33Z" style="fill:#07345a;fill-rule:nonzero;"/></g></svg>