<?xml version="1.0" encoding="UTF-8" standalone="no"?><!DOCTYPE svg PUBLIC "-//W3C//DTD SVG 1.1//EN" "http://www.w3.org/Graphics/SVG/1.1/DTD/svg11.dtd"><svg viewBox="0 0 1979 649" version="1.1" xmlns="http://www.w3.org/2000/svg" xmlns:xlink="http://www.w3.org/1999/xlink" xml:space="preserve" xmlns:serif="http://www.serif.com/" style="fill-rule:evenodd;clip-rule:evenodd;stroke-miterlimit:10;"><path class="linea-sx" id="Linea_17_SX" d="M822.448,545.813l-812.083,-0" style="fill:none;fill-rule:nonzero;stroke:#bfffff;stroke-width:1.31px;"/><path class="linea-sx" id="Linea_16_SX" d="M793.995,530.934l-95.8,-0l-13.574,-13.574l-674.256,-0" style="fill:none;fill-rule:nonzero;stroke:#bfffff;stroke-width:1.31px;"/><path class="linea-sx" id="Linea_15_SX" d="M725.604,500.393l-715.239,-0" style="fill:none;fill-rule:nonzero;stroke:#bfffff;stroke-width:1.31px;"/><path class="linea-sx" id="Linea_14_SX" d="M713.074,469.329l-105.981,0l-12.008,12.008l-584.72,-0" style="fill:none;fill-rule:nonzero;stroke:#bfffff;stroke-width:1.31px;"/><path class="linea-sx" id="Linea_13_SX" d="M701.588,438.527l-134.172,-0l-15.402,-15.401l-541.649,-0" style="fill:none;fill-rule:nonzero;stroke:#bfffff;stroke-width:1.31px;"/><path class="linea-sx" id="Linea_12_SX" d="M656.168,418.949l-69.958,0l-27.67,-27.931l-548.175,0" style="fill:none;fill-rule:nonzero;stroke:#bfffff;stroke-width:1.31px;"/><path class="linea-sx" id="Linea_11_SX" d="M627.193,362.565l-616.828,0" style="fill:none;fill-rule:nonzero;stroke:#bfffff;stroke-width:1.31px;"/><path class="linea-sx" id="Linea_10_SX" d="M622.755,233.353l-612.39,-0" style="fill:none;fill-rule:nonzero;stroke:#bfffff;stroke-width:1.31px;"/><path class="linea-sx" id="Linea_9_SX" d="M10.365,222.128l452.897,0l11.747,-12.008l166.802,0" style="fill:none;fill-rule:nonzero;stroke:#bfffff;stroke-width:1.31px;"/><path class="linea-sx" id="Linea_8_SX" d="M10.365,201.506l445.066,0l10.964,-10.963l190.817,-0" style="fill:none;fill-rule:nonzero;stroke:#bfffff;stroke-width:1.31px;"/><path class="linea-sx" id="Linea_7_SX" d="M666.609,179.318l-88.752,0l-23.754,-17.489l-543.738,-0" style="fill:none;fill-rule:nonzero;stroke:#bfffff;stroke-width:1.31px;"/><path class="linea-sx" id="Linea_6_SX" d="M10.365,101.79l610.563,0l33.413,24.799l52.99,-0" style="fill:none;fill-rule:nonzero;stroke:#bfffff;stroke-width:1.31px;"/><path class="linea-sx" id="Linea_5_SX" d="M755.884,93.959l-71.002,0l-12.008,-14.357l-662.509,0" style="fill:none;fill-rule:nonzero;stroke:#bfffff;stroke-width:1.31px;"/><path class="linea-sx" id="Linea_4_SX" d="M781.726,67.856l-771.361,-0" style="fill:none;fill-rule:nonzero;stroke:#bfffff;stroke-width:1.31px;"/><path class="linea-sx" id="Linea_3_SX" d="M10.365,31.311l552.352,-0l23.754,23.232l207.002,-0" style="fill:none;fill-rule:nonzero;stroke:#bfffff;stroke-width:1.31px;"/><path class="linea-sx" id="Linea_2_SX" d="M10.365,21.391l557.573,0l24.015,25.06l209.09,-0" style="fill:none;fill-rule:nonzero;stroke:#bfffff;stroke-width:1.31px;"/><path class="linea-sx" id="Linea_1_SX" d="M813.051,36.531l-204.131,0l-28.453,-30.28l-570.102,0" style="fill:none;fill-rule:nonzero;stroke:#bfffff;stroke-width:1.31px;"/><path class="linea-dx" id="Linea_16_DX" d="M1035.45,515.533l932.682,-0" style="fill:none;fill-rule:nonzero;stroke:#bfffff;stroke-width:1.31px;"/><path class="linea-dx" id="Linea_15_DX" d="M1968.13,491.517l-611.085,0l-35.762,-25.842l-108.591,-0l-92.407,-84.837" style="fill:none;fill-rule:nonzero;stroke:#bfffff;stroke-width:1.31px;"/><path class="linea-dx" id="Linea_14_DX" d="M1154.75,376.922l78.05,67.609l84.575,-0l42.549,33.934l608.214,0" style="fill:none;fill-rule:nonzero;stroke:#bfffff;stroke-width:1.31px;"/><path class="linea-dx" id="Linea_13_DX" d="M1200.43,371.963l64.215,58.472l58.472,-0l46.465,37.067l598.555,-0" style="fill:none;fill-rule:nonzero;stroke:#bfffff;stroke-width:1.31px;"/><path class="linea-dx" id="Linea_12_DX" d="M1263.86,373.088l96.061,0l78.311,55.862l529.903,-0" style="fill:none;fill-rule:nonzero;stroke:#bfffff;stroke-width:1.31px;"/><path class="linea-dx" id="Linea_11_DX" d="M1283.96,355.256l88.752,0l72.829,54.035l522.594,-0" style="fill:none;fill-rule:nonzero;stroke:#bfffff;stroke-width:1.31px;"/><path class="linea-dx" id="Linea_10_DX" d="M1317.37,331.241l650.763,-0.522" style="fill:none;fill-rule:nonzero;stroke:#bfffff;stroke-width:1.31px;"/><path class="linea-dx" id="Linea_9_DX" d="M1334.6,293.913l96.061,-0l82.488,-54.035l454.985,0" style="fill:none;fill-rule:nonzero;stroke:#bfffff;stroke-width:1.31px;"/><path class="linea-dx" id="Linea_8_DX" d="M1341.39,275.64l83.792,0l80.138,-51.946l462.817,0" style="fill:none;fill-rule:nonzero;stroke:#bfffff;stroke-width:1.31px;"/><path class="linea-dx" id="Linea_7_DX" d="M1353.39,250.059l63.954,-0l78.311,-52.468l472.475,-0" style="fill:none;fill-rule:nonzero;stroke:#bfffff;stroke-width:1.31px;"/><path class="linea-dx" id="Linea_6_DX" d="M1328.34,187.932l62.649,0l78.31,-68.652l498.84,-0" style="fill:none;fill-rule:nonzero;stroke:#bfffff;stroke-width:1.31px;"/><path class="linea-dx" id="Linea_5_DX" d="M1293.62,160.523l90.58,0l76.222,-67.869l507.715,0" style="fill:none;fill-rule:nonzero;stroke:#bfffff;stroke-width:1.31px;"/><path class="linea-dx" id="Linea_4_DX" d="M1279,147.733l95.278,-0l78.311,-69.697l515.546,0" style="fill:none;fill-rule:nonzero;stroke:#bfffff;stroke-width:1.31px;"/><path class="linea-dx" id="Linea_3_DX" d="M1234.62,101.007l69.958,-44.898l663.553,0" style="fill:none;fill-rule:nonzero;stroke:#bfffff;stroke-width:1.31px;"/><path class="linea-dx" id="Linea_2_DX" d="M1219.22,87.433l78.311,-49.596l670.601,-0" style="fill:none;fill-rule:nonzero;stroke:#bfffff;stroke-width:1.31px;"/><path class="linea-dx" id="Linea_1_DX" d="M1074.87,34.704l105.981,0l26.103,-24.798l761.181,-0" style="fill:none;fill-rule:nonzero;stroke:#bfffff;stroke-width:1.31px;"/><g id="Cervello"><g id="vetri_interni"><path id="vetro-chiaro" d="M707.07,127.894l-40.461,49.597l63.432,12.791l-22.971,-62.388Z" style="fill:#bfffff;fill-opacity:0.4;fill-rule:nonzero;"/><path id="vetro-chiaro1" class="vetro-chiaro" serif:id="vetro-chiaro" d="M754.317,93.437l-47.247,34.457l22.971,62.388l24.276,-96.845Z" style="fill:#bfffff;fill-opacity:0.4;fill-rule:nonzero;"/><path d="M730.041,190.282l-58.472,68.652l-4.96,-81.443l63.432,12.791Z" style="fill:#bfffff;fill-opacity:0;fill-rule:nonzero;"/><path d="M759.277,267.809l-87.708,-8.875l58.472,-68.652l29.236,77.527Z" style="fill:#bfffff;fill-opacity:0;fill-rule:nonzero;"/><path id="vetro-chiaro2" class="vetro-chiaro" serif:id="vetro-chiaro" d="M666.609,177.491l-43.332,58.472l48.292,22.971l-4.96,-81.443Z" style="fill:#bfffff;fill-opacity:0.4;fill-rule:nonzero;"/><path id="vetro-chiaro3" class="vetro-chiaro" serif:id="vetro-chiaro" d="M754.317,93.437l26.626,-30.28l73.612,13.835l-100.238,16.445Z" style="fill:#bfffff;fill-opacity:0.4;fill-rule:nonzero;"/><path id="vetro-chiaro4" class="vetro-chiaro" serif:id="vetro-chiaro" d="M889.012,32.616l-76.222,6.265l-31.847,24.276l108.069,-30.541Z" style="fill:#bfffff;fill-opacity:0.4;fill-rule:nonzero;"/><path d="M854.555,76.992l34.457,-44.376l-108.069,30.541l73.612,13.835Z" style="fill:#bfffff;fill-opacity:0;fill-rule:nonzero;"/><path d="M830.54,135.464l-100.499,54.818l24.276,-96.845l76.223,42.027Z" style="fill:#bfffff;fill-opacity:0;fill-rule:nonzero;"/><path d="M854.555,76.992l-24.015,58.472l-76.223,-42.027l100.238,-16.445Z" style="fill:#bfffff;fill-opacity:0;fill-rule:nonzero;"/><path id="vetro-chiaro5" class="vetro-chiaro" serif:id="vetro-chiaro" d="M671.569,258.934l-48.292,35.501l0,-58.472l48.292,22.971Z" style="fill:#bfffff;fill-opacity:0.4;fill-rule:nonzero;"/><path id="vetro-chiaro6" class="vetro-chiaro" serif:id="vetro-chiaro" d="M759.277,267.809l-44.376,77.528l-43.332,-86.403l87.708,8.875Z" style="fill:#bfffff;fill-opacity:0.4;fill-rule:nonzero;"/><path id="vetro-chiaro7" class="vetro-chiaro" serif:id="vetro-chiaro" d="M628.237,363.088l-4.96,-68.653l48.292,-35.501l-43.332,104.154Z" style="fill:#bfffff;fill-opacity:0.4;fill-rule:nonzero;"/><path d="M714.901,345.337l-86.664,17.751l43.332,-104.154l43.332,86.403Z" style="fill:#bfffff;fill-opacity:0;fill-rule:nonzero;"/><path d="M655.124,416.339l-26.887,-53.251l86.664,-17.751l-59.777,71.002Z" style="fill:#bfffff;fill-opacity:0;fill-rule:nonzero;"/><path id="vetro-chiaro8" class="vetro-chiaro" serif:id="vetro-chiaro" d="M702.11,436.7l-46.986,-20.361l59.777,-71.002l-12.791,91.363Z" style="fill:#bfffff;fill-opacity:0.4;fill-rule:nonzero;"/><path id="vetro-medio" d="M759.277,267.809l95.278,53.252l-139.654,24.276l44.376,-77.528Z" style="fill:#bfffff;fill-opacity:0.8;fill-rule:nonzero;"/><path d="M830.54,135.464l-71.263,132.345l-29.236,-77.527l100.499,-54.818Z" style="fill:#bfffff;fill-opacity:0;fill-rule:nonzero;"/><path d="M830.54,135.464l81.182,108.069l-152.445,24.276l71.263,-132.345Z" style="fill:#bfffff;fill-opacity:0;fill-rule:nonzero;"/><path id="vetro-chiaro9" class="vetro-chiaro" serif:id="vetro-chiaro" d="M854.555,76.992l78.833,-6.265l-102.848,64.737l24.015,-58.472Z" style="fill:#bfffff;fill-opacity:0.4;fill-rule:nonzero;"/><path id="vetro-medio1" class="vetro-medio" serif:id="vetro-medio" d="M911.722,243.533l21.666,-172.806l-102.848,64.737l81.182,108.069Z" style="fill:#bfffff;fill-opacity:0.7;fill-rule:nonzero;"/><path id="vetro-chiaro10" class="vetro-chiaro" serif:id="vetro-chiaro" d="M854.555,321.061l57.167,-77.528l-152.445,24.276l95.278,53.252Z" style="fill:#bfffff;fill-opacity:0.4;fill-rule:nonzero;"/><path d="M933.388,70.727l-44.376,-38.111l-34.457,44.376l78.833,-6.265Z" style="fill:#bfffff;fill-opacity:0;fill-rule:nonzero;"/><path id="vetro-chiaro11" class="vetro-chiaro" serif:id="vetro-chiaro" d="M962.624,10.95l-73.612,21.666l44.376,38.111l29.236,-59.777Z" style="fill:#bfffff;fill-opacity:0.4;fill-rule:nonzero;"/><path id="vetro-chiaro12" class="vetro-chiaro" serif:id="vetro-chiaro" d="M1031.28,32.616l-68.653,-21.666l-29.236,59.777l97.889,-38.111Z" style="fill:#bfffff;fill-opacity:0.4;fill-rule:nonzero;"/><path id="vetro-chiaro13" class="vetro-chiaro" serif:id="vetro-chiaro" d="M1077.22,33.921l-45.942,-1.305l21.666,71.002l24.276,-69.697Z" style="fill:#bfffff;fill-opacity:0.4;fill-rule:nonzero;"/><path d="M1127.86,46.451l-50.641,-12.53l-24.276,69.697l74.917,-57.167Z" style="fill:#bfffff;fill-opacity:0;fill-rule:nonzero;"/><path d="M933.388,70.727l119.555,32.891l-21.666,-71.002l-97.889,38.111Z" style="fill:#bfffff;fill-opacity:0;fill-rule:nonzero;"/><path id="vetro-chiaro14" class="vetro-chiaro" serif:id="vetro-chiaro" d="M1127.86,46.451l59.777,66.303l-134.694,-9.136l74.917,-57.167Z" style="fill:#bfffff;fill-opacity:0.4;fill-rule:nonzero;"/><path d="M1222.09,85.867l-94.234,-39.416l59.777,66.303l34.457,-26.887Z" style="fill:#bfffff;fill-opacity:0;fill-rule:nonzero;"/><path d="M911.722,243.533l141.221,-139.915l-119.555,-32.891l-21.666,172.806Z" style="fill:#bfffff;fill-opacity:0;fill-rule:nonzero;"/><path id="vetro-chiaro15" class="vetro-chiaro" serif:id="vetro-chiaro" d="M1013.53,229.698l-101.804,13.835l141.221,-139.915l-39.417,126.08Z" style="fill:#bfffff;fill-opacity:0.4;fill-rule:nonzero;"/><path id="vetro-medio2" class="vetro-medio" serif:id="vetro-medio" d="M1187.64,112.754l-174.111,116.944l39.417,-126.08l134.694,9.136Z" style="fill:#bfffff;fill-opacity:0.7;fill-rule:nonzero;"/><path id="vetro-chiaro16" class="vetro-chiaro" serif:id="vetro-chiaro" d="M924.513,322.366l-69.958,-1.305l57.167,-77.528l12.791,78.833Z" style="fill:#bfffff;fill-opacity:0.4;fill-rule:nonzero;"/><path id="vetro-medio3" class="vetro-medio" serif:id="vetro-medio" d="M1013.53,229.698l-89.013,92.668l-12.791,-78.833l101.804,-13.835Z" style="fill:#bfffff;fill-opacity:0.7;fill-rule:nonzero;"/><path d="M799.999,426.519l-85.098,-81.182l-12.791,91.363l97.889,-10.181Z" style="fill:#bfffff;fill-opacity:0;fill-rule:nonzero;"/><path d="M924.513,322.366l-124.514,104.153l54.556,-105.458l69.958,1.305Z" style="fill:#bfffff;fill-opacity:0;fill-rule:nonzero;"/><path d="M714.901,345.337l85.098,81.182l54.556,-105.458l-139.654,24.276Z" style="fill:#bfffff;fill-opacity:0;fill-rule:nonzero;"/><path id="vetro-chiaro17" class="vetro-chiaro" serif:id="vetro-chiaro" d="M924.513,322.366l69.958,124.514l-194.472,-20.361l124.514,-104.153Z" style="fill:#bfffff;fill-opacity:0.4;fill-rule:nonzero;"/><path id="vetro-chiaro18" class="vetro-chiaro" serif:id="vetro-chiaro" d="M1013.53,229.698l72.568,93.973l-161.581,-1.305l89.013,-92.668Z" style="fill:#bfffff;fill-opacity:0.4;fill-rule:nonzero;"/><path d="M994.471,446.88l91.623,-123.209l-161.581,-1.305l69.958,124.514Z" style="fill:#bfffff;fill-opacity:0;fill-rule:nonzero;"/><path id="vetro-chiaro19" class="vetro-chiaro" serif:id="vetro-chiaro" d="M1222.09,85.867l58.472,62.388l-92.929,-35.501l34.457,-26.887Z" style="fill:#bfffff;fill-opacity:0.4;fill-rule:nonzero;"/><path d="M1013.53,229.698l124.515,36.806l-51.947,57.167l-72.568,-93.973Z" style="fill:#bfffff;fill-opacity:0;fill-rule:nonzero;"/><path d="M1187.64,112.754l-49.596,153.75l-124.515,-36.806l174.111,-116.944Z" style="fill:#bfffff;fill-opacity:0;fill-rule:nonzero;"/><path d="M1280.57,148.255l-142.525,118.249l49.596,-153.75l92.929,35.501Z" style="fill:#bfffff;fill-opacity:0;fill-rule:nonzero;"/><path id="vetro-chiaro20" class="vetro-chiaro" serif:id="vetro-chiaro" d="M1200.43,370.658l-62.387,-104.154l-51.947,57.167l114.334,46.987Z" style="fill:#bfffff;fill-opacity:0.4;fill-rule:nonzero;"/><path d="M1280.57,148.255l48.292,39.416l-35.762,52.207l-12.53,-91.623Z" style="fill:#bfffff;fill-opacity:0;fill-rule:nonzero;"/><path id="vetro-fluo" class="vetro-fluo" d="M1138.04,266.504l97.888,1.305l-35.501,102.849l-62.387,-104.154Z" style="fill:#bfffff;fill-opacity:0.9;fill-rule:nonzero;"/><path d="M1262.82,370.658l-62.388,-0l35.501,-102.849l26.887,102.849Z" style="fill:#bfffff;fill-opacity:0;fill-rule:nonzero;"/><path id="vetro-chiaro21" class="vetro-chiaro" serif:id="vetro-chiaro" d="M1317.37,331.241l-54.556,39.417l-26.887,-102.849l81.443,63.432Z" style="fill:#6affff;fill-opacity:0.4;fill-rule:nonzero;"/><path d="M1328.86,187.671l24.015,61.083l-59.777,-8.876l35.762,-52.207Z" style="fill:#bfffff;fill-opacity:0;fill-rule:nonzero;"/><path id="vetro-chiaro22" class="vetro-chiaro" serif:id="vetro-chiaro" d="M1280.57,148.255l-44.637,119.554l57.167,-27.931l-12.53,-91.623Z" style="fill:#bfffff;fill-opacity:0.4;fill-rule:nonzero;"/><path d="M1138.04,266.504l97.888,1.305l44.637,-119.554l-142.525,118.249Z" style="fill:#bfffff;fill-opacity:0;fill-rule:nonzero;"/><path d="M1293.1,239.878l24.276,91.363l-81.443,-63.432l57.167,-27.931Z" style="fill:#bfffff;fill-opacity:0;fill-rule:nonzero;"/><path id="vetro-chiaro23" class="vetro-chiaro" serif:id="vetro-chiaro" d="M1352.87,248.754l-35.501,82.487l-24.276,-91.363l59.777,8.876Z" style="fill:#bfffff;fill-opacity:0.4;fill-rule:nonzero;"/><path d="M994.471,446.88l-146.181,37.067l-48.291,-57.428l194.472,20.361Z" style="fill:#bfffff;fill-opacity:0;fill-rule:nonzero;"/><path id="vetro-chiaro24" class="vetro-chiaro" serif:id="vetro-chiaro" d="M702.11,436.7l24.016,61.082l73.873,-71.263l-97.889,10.181Z" style="fill:#bfffff;fill-opacity:0.4;fill-rule:nonzero;"/><path id="vetro-chiaro25" class="vetro-chiaro" serif:id="vetro-chiaro" d="M848.29,483.947l-122.164,13.835l73.873,-71.263l48.291,57.428Z" style="fill:#bfffff;fill-opacity:0.4;fill-rule:nonzero;"/><path d="M848.29,483.947l86.403,38.112l59.778,-75.179l-146.181,37.067Z" style="fill:#bfffff;fill-opacity:0;fill-rule:nonzero;"/><path d="M726.126,497.782l96.844,45.42l25.32,-59.255l-122.164,13.835Z" style="fill:#bfffff;fill-opacity:0;fill-rule:nonzero;"/><path id="vetro-chiaroBFFFFF" d="M934.693,522.059l-111.723,21.143l25.32,-59.255l86.403,38.112Z" style="fill:#bfffff;fill-opacity:0.4;fill-rule:nonzero;"/><path d="M1120.29,380.838l-34.196,-57.167l114.334,46.987l-80.138,10.18Z" style="fill:#bfffff;fill-opacity:0;fill-rule:nonzero;"/><path d="M1120.29,380.838l-34.196,-57.167l-91.623,123.209l125.819,-66.042Z" style="fill:#bfffff;fill-opacity:0;fill-rule:nonzero;"/><path id="vetro-chiaro26" class="vetro-chiaro" serif:id="vetro-chiaro" d="M934.693,522.059l70.48,12.529l-10.702,-87.708l-59.778,75.179Z" style="fill:#bfffff;fill-opacity:0.4;fill-rule:nonzero;"/><path id="vetro-chiaro27" class="vetro-chiaro" serif:id="vetro-chiaro" d="M948.006,575.832l-13.313,-53.773l70.48,12.529l-57.167,41.244Z" style="fill:#bfffff;fill-opacity:0.4;fill-rule:nonzero;"/><path d="M1019.01,589.928l-13.835,-55.34l-57.167,41.244l71.002,14.096Z" style="fill:#bfffff;fill-opacity:0;fill-rule:nonzero;"/><path id="vetro-chiaro28" class="vetro-chiaro" serif:id="vetro-chiaro" d="M1034.93,510.573l-40.46,-63.693l10.702,87.708l29.758,-24.015Z" style="fill:#bfffff;fill-opacity:0.4;fill-rule:nonzero;"/><path id="vetro-chiaro29" class="vetro-chiaro" serif:id="vetro-chiaro" d="M1034.93,510.573l-15.923,79.355l-13.835,-55.34l29.758,-24.015Z" style="fill:#bfffff;fill-opacity:0.4;fill-rule:nonzero;"/><path d="M948.006,575.832l0,66.042l71.002,-51.946l-71.002,-14.096Z" style="fill:#bfffff;fill-opacity:0;fill-rule:nonzero;"/></g><g><path d="M946.962,643.962l0,-67.869l-13.052,-52.729l-111.201,21.144l-97.367,-45.943l-24.015,-61.082l-46.986,-20.361l-26.887,-54.034l-4.96,-68.653l0,-58.994l43.332,-58.733l40.983,-49.858l46.986,-34.196l26.887,-30.541l32.108,-24.276l0.261,-0l76.222,-6.265l73.873,-21.666l68.914,21.666l45.942,1.305l50.902,12.791l94.495,39.677l0.261,0.261l58.473,62.388l48.552,39.416l24.538,61.605l-0.261,0.522l-36.806,82.487l-0.262,0.261l-54.817,39.678l-62.649,-0l-79.877,10.18l-124.514,65.52l40.2,63.171l-16.185,80.138l-0.261,0.261l-72.829,52.729Zm-11.485,-123.209l13.573,55.34l0,63.693l68.914,-50.38l15.923,-78.311l-40.982,-64.476l1.044,-0.522l126.08,-66.303l0.261,-0l80.138,-10.181l62.127,0l54.034,-39.155l35.24,-81.965l-23.754,-60.3l-48.031,-39.155l-58.472,-62.127l-93.973,-39.416l-50.641,-12.53l-45.942,-1.305l-68.392,-21.405l-73.612,21.666l-75.961,6.265l-31.325,24.015l-26.886,30.541l-46.987,34.196l-40.461,49.597l-43.071,57.689l0,58.211l4.96,68.391l26.365,52.73l46.986,20.361l24.277,61.082l95.8,45.159l112.768,-21.405Z" style="fill:#bfffff;fill-rule:nonzero;"/></g><g><path d="M730.824,190.804l-65.52,-13.052l41.766,-50.902l23.754,63.954Zm-63.432,-13.574l61.605,12.268l-22.188,-60.56l-39.417,48.292Z" style="fill:#bfffff;fill-rule:nonzero;"/></g><g><path d="M729.519,190.282l-22.971,-62.649l47.247,-34.457l0.784,0.783l-46.726,34.196l22.71,61.866l-1.044,0.261Z" style="fill:#bfffff;fill-rule:nonzero;"/></g><g><path d="M671.047,260.239l-5.221,-83.531l65.259,13.052l-60.038,70.479Zm-3.916,-82.226l4.96,79.355l56.906,-66.825l-61.866,-12.53Z" style="fill:#bfffff;fill-rule:nonzero;"/></g><g><path d="M760.06,268.331l-89.535,-9.136l59.777,-70.219l29.758,79.355Zm-87.447,-9.919l85.881,8.614l-28.714,-75.961l-57.167,67.347Z" style="fill:#bfffff;fill-rule:nonzero;"/></g><g><path d="M672.091,259.717l-49.858,-23.493l44.637,-60.299l5.221,83.792Zm-48.031,-24.015l46.987,22.188l-4.96,-78.833l-42.027,56.645Z" style="fill:#bfffff;fill-rule:nonzero;"/></g><g><path d="M752.751,94.22l27.931,-31.846l0.261,-0l76.745,14.618l-104.937,17.228Zm28.453,-30.541l-25.581,29.236l95.8,-15.662l-70.219,-13.574Z" style="fill:#bfffff;fill-rule:nonzero;"/></g><g><path d="M778.333,64.462l34.196,-26.103l0.261,-0l76.222,-6.265l0.261,1.044l-110.94,31.324Zm34.457,-25.059l-29.236,22.188l99.715,-28.192l-70.479,6.004Z" style="fill:#bfffff;fill-rule:nonzero;"/></g><g><path d="M854.816,77.514l-0.261,-0l-75.961,-14.357l111.984,-31.585l-35.762,45.942Zm-71.524,-14.618l71.002,13.574l33.152,-42.81l-104.154,29.236Z" style="fill:#bfffff;fill-rule:nonzero;"/></g><g><path d="M730.302,190.543l-0.522,-0.783l99.455,-54.296l-75.179,-41.505l0.523,-0.783l77.005,42.288l-101.282,55.079Z" style="fill:#bfffff;fill-rule:nonzero;"/></g><g><path d="M830.801,136.247l-0.522,-0.261l-77.528,-42.81l102.849,-16.967l-24.799,60.038Zm-74.917,-42.288l74.395,40.983l23.493,-56.906l-97.888,15.923Z" style="fill:#bfffff;fill-rule:nonzero;"/></g><g><path d="M622.755,295.479l0,-60.299l49.858,23.754l-49.858,36.545Zm1.044,-58.733l0,56.645l46.726,-34.457l-46.726,-22.188Z" style="fill:#bfffff;fill-rule:nonzero;"/></g><g><path d="M714.64,346.381l-44.115,-88.23l89.535,9.136l-45.42,79.094Zm-42.027,-86.925l42.288,84.576l43.593,-75.962l-85.881,-8.614Z" style="fill:#bfffff;fill-rule:nonzero;"/></g><g><path d="M627.976,365.437l-5.221,-71.263l0.261,-0.261l49.858,-36.806l-44.898,108.33Zm-4.177,-70.741l4.96,66.042l41.505,-100.238l-46.465,34.196Z" style="fill:#bfffff;fill-rule:nonzero;"/></g><g><path d="M627.454,363.871l44.115,-106.242l44.115,88.23l-88.23,18.012Zm44.115,-103.632l-42.288,102.065l84.837,-17.489l-42.549,-84.576Z" style="fill:#bfffff;fill-rule:nonzero;"/></g><g><path d="M654.602,416.6l-26.626,-53.251l0.783,-0.523l26.887,53.252l-1.044,0.522Z" style="fill:#bfffff;fill-rule:nonzero;"/></g><g><path d="M702.632,437.483l-48.291,-20.883l0.522,-0.522l61.082,-72.568l-13.313,93.973Zm-46.725,-21.144l45.681,19.839l12.269,-89.014l-57.95,69.175Z" style="fill:#bfffff;fill-rule:nonzero;"/></g><g opacity="0.8"><path d="M758.762,267.436l-44.334,77.49l0.907,0.519l44.333,-77.49l-0.906,-0.519Z" style="fill:#bfffff;"/></g><g><path d="M759.277,269.115l-29.758,-79.094l102.587,-55.862l-72.829,134.956Zm-28.453,-78.572l28.714,75.961l69.697,-129.474l-98.411,53.513Z" style="fill:#bfffff;fill-rule:nonzero;"/></g><g><path d="M758.233,268.331l71.785,-133.128l1.044,0.522l-70.741,131.301l151.401,-24.015l0.261,1.044l-153.75,24.276Z" style="fill:#bfffff;fill-rule:nonzero;"/></g><g><path d="M829.235,136.769l25.059,-60.299l81.444,-6.526l-106.503,66.825Zm25.842,-59.255l-23.493,56.645l99.716,-62.649l-76.223,6.004Z" style="fill:#bfffff;fill-rule:nonzero;"/></g><g><path d="M853.511,77.775l35.501,-45.942l45.942,39.416l-81.443,6.526Zm35.501,-44.376l-33.151,43.071l76.222,-6.265l-43.071,-36.806Z" style="fill:#bfffff;fill-rule:nonzero;"/></g><g><path d="M933.649,71.51l-45.681,-39.155l75.961,-22.188l-30.28,61.343Zm-43.593,-38.633l43.071,37.067l28.453,-57.95l-71.524,20.883Z" style="fill:#bfffff;fill-rule:nonzero;"/></g><g><path d="M932.344,71.771l30.019,-61.343l0.522,0.261l70.219,22.188l-100.76,38.894Zm30.541,-60.299l-28.453,58.211l95.018,-37.067l-66.565,-21.144Z" style="fill:#bfffff;fill-rule:nonzero;"/></g><g><path d="M1052.94,105.445l-22.449,-73.612l47.247,1.305l-24.798,72.307Zm-20.883,-72.307l20.883,68.913l23.232,-67.608l-44.115,-1.305Z" style="fill:#bfffff;fill-rule:nonzero;"/></g><g><path d="M1051.9,105.184l24.798,-72.046l52.468,13.052l-77.266,58.994Zm25.581,-70.741l-23.493,67.608l72.568,-55.339l-49.075,-12.269Z" style="fill:#bfffff;fill-rule:nonzero;"/></g><g><path d="M1053.73,104.401l-121.904,-33.674l99.977,-38.894l0.261,0.522l21.666,72.046Zm-118.51,-33.935l116.944,32.368l-21.144,-69.696l-95.8,37.328Z" style="fill:#bfffff;fill-rule:nonzero;"/></g><g><path d="M1188.94,113.276l-137.566,-9.136l76.483,-58.472l61.083,67.608Zm-134.434,-9.919l131.823,8.614l-58.472,-64.737l-73.351,56.123Z" style="fill:#bfffff;fill-rule:nonzero;"/></g><g><path d="M1187.64,113.276l-0.261,-0.261l-61.343,-67.869l97.105,40.721l-35.501,27.409Zm-57.689,-65.259l57.689,63.954l33.152,-25.843l-90.841,-38.111Z" style="fill:#bfffff;fill-rule:nonzero;"/></g><g><path d="M933.679,70.248l-0.278,1.007l119.503,33.056l0.279,-1.006l-119.504,-33.057Z" style="fill:#bfffff;"/></g><g><path d="M1052.39,103.558l-39.455,125.786l0.996,0.313l39.455,-125.786l-0.996,-0.313Z" style="fill:#bfffff;"/></g><g><path d="M925.296,322.888l-0.783,-0l-71.002,-1.305l58.733,-79.355l13.052,80.66Zm-69.696,-2.349l68.13,1.305l-12.53,-77.006l-55.6,75.701Z" style="fill:#bfffff;fill-rule:nonzero;"/></g><g opacity="0.7"><path d="M923.991,322.366l-12.791,-79.355l0.522,-0l101.804,-14.096l0,1.305l-101.021,13.835l12.53,78.311l-1.044,-0Z" style="fill:#bfffff;fill-rule:nonzero;"/></g><g><path d="M701.327,437.483l13.052,-93.19l86.925,83.009l-1.305,0l-98.672,10.181Zm13.835,-91.102l-12.53,89.797l96.062,-9.92l-83.532,-79.877Z" style="fill:#bfffff;fill-rule:nonzero;"/></g><g><path d="M715.185,344.833l-0.721,0.755l85.129,81.315l0.721,-0.755l-85.129,-81.315Z" style="fill:#bfffff;"/></g><g><path d="M1087.14,324.193l-162.626,-1.305l0,-1.044l160.276,1.305l-71.785,-93.19l1.044,-0.783l73.091,95.017Z" style="fill:#bfffff;fill-rule:nonzero;"/></g><g opacity="0.7"><path d="M1085.49,323.478l-91.495,123.236l0.838,0.623l91.495,-123.237l-0.838,-0.622Z" style="fill:#bfffff;"/></g><g><path d="M1282.39,149.56l-95.801,-36.806l35.501,-27.67l60.3,64.476Zm-93.712,-37.067l89.535,34.457l-56.384,-60.3l-33.151,25.843Z" style="fill:#bfffff;fill-rule:nonzero;"/></g><g><path d="M1085.83,324.454l-0.522,-0.522l-73.612,-95.278l127.125,37.589l-52.991,58.211Zm-70.74,-93.973l71.001,92.146l51.163,-56.123l-122.164,-36.023Z" style="fill:#bfffff;fill-rule:nonzero;"/></g><g><path d="M1187.14,112.465l-49.493,153.809l0.994,0.32l49.493,-153.809l-0.994,-0.32Z" style="fill:#bfffff;"/></g><g><path d="M1201.73,371.702l-1.566,-0.522l-115.117,-47.248l53.252,-58.211l0.261,0.522l63.17,105.459Zm-114.855,-48.292l112.245,46.203l-61.082,-102.326l-51.163,56.123Z" style="fill:#bfffff;fill-rule:nonzero;"/></g><g><path d="M1292.84,241.184l-0.261,-1.306l-12.791,-92.928l49.858,40.721l-36.806,53.513Zm-11.486,-91.624l12.269,88.752l34.457,-50.641l-46.726,-38.111Z" style="fill:#bfffff;fill-rule:nonzero;"/></g><g opacity="0.9"><path d="M1200.43,371.963l-63.432,-105.981l99.716,1.305l-36.284,104.676Zm-61.343,-104.937l61.082,102.326l34.979,-101.021l-96.061,-1.305Z" style="fill:#bfffff;fill-rule:nonzero;"/></g><g><path d="M1352.35,248.754l-23.754,-60.039l-34.979,51.424l-0.783,-0.783l36.023,-52.99l24.537,62.127l-1.044,0.261Z" style="fill:#bfffff;fill-rule:nonzero;"/></g><g><path d="M1236.45,267.809l-1.044,-0.261l45.42,-121.643l12.791,93.712l-1.044,0.261l-12.269,-89.535l-43.854,117.466Z" style="fill:#bfffff;fill-rule:nonzero;"/></g><g><path d="M1236.45,268.331l-0.261,0l-99.455,-1.305l1.045,-1.044l143.83,-119.554l-45.159,121.903Zm-96.844,-2.349l96.061,1.305l43.593,-117.205l-139.654,115.9Z" style="fill:#bfffff;fill-rule:nonzero;"/></g><g><path d="M994.392,446.512l-146.308,36.86l0.255,1.013l146.308,-36.86l-0.255,-1.013Z" style="fill:#bfffff;"/></g><g><path d="M726.126,498.826l-24.799,-62.387l100.238,-10.442l-75.439,72.829Zm-23.233,-61.604l23.494,59.516l72.046,-69.436l-95.54,9.92Z" style="fill:#bfffff;fill-rule:nonzero;"/></g><g><path d="M724.82,498.565l75.44,-72.829l49.336,58.472l-1.044,0l-123.732,14.357Zm75.179,-71.263l-72.046,69.697l119.293,-13.574l-47.247,-56.123Z" style="fill:#bfffff;fill-rule:nonzero;"/></g><g><path d="M934.954,522.581l-88.23,-38.895l149.313,-37.589l-61.083,76.484Zm-85.097,-38.634l84.575,37.328l58.473,-73.351l-143.048,36.023Z" style="fill:#bfffff;fill-rule:nonzero;"/></g><g><path d="M823.231,543.986l-98.933,-46.465l124.776,-14.357l-25.843,60.822Zm-95.017,-45.943l94.234,44.376l24.798,-58.211l-119.032,13.835Z" style="fill:#bfffff;fill-rule:nonzero;"/></g><g><path d="M821.926,543.986l26.103,-60.822l0.523,0.261l87.969,38.895l-114.595,21.666Zm26.626,-59.517l-24.799,57.95l109.113,-20.883l-84.314,-37.067Z" style="fill:#bfffff;fill-rule:nonzero;"/></g><g><path d="M1120.03,381.36l-0.261,-0.261l-35.24,-58.733l1.566,0.522l116.423,47.77l-82.488,10.702Zm-32.629,-56.645l33.412,55.601l77.789,-9.919l-111.201,-45.682Z" style="fill:#bfffff;fill-rule:nonzero;"/></g><g><path d="M992.643,448.446l1.306,-1.827l92.145,-123.992l34.979,58.472l-128.43,67.347Zm93.19,-123.731l-89.535,120.599l123.209,-64.737l-33.674,-55.862Z" style="fill:#bfffff;fill-rule:nonzero;"/></g><g><path d="M1005.96,535.371l-0.783,0l-71.524,-12.79l61.083,-76.745l0.261,1.305l10.963,88.23Zm-70.218,-13.835l68.913,12.269l-10.441,-85.62l-58.472,73.351Z" style="fill:#bfffff;fill-rule:nonzero;"/></g><g><path d="M947.745,576.876l-13.835,-55.601l72.568,13.052l-58.733,42.549Zm-12.268,-54.295l13.051,52.468l55.601,-39.939l-68.652,-12.529Z" style="fill:#bfffff;fill-rule:nonzero;"/></g><g><path d="M1019.79,590.711l-73.09,-14.357l58.994,-42.549l14.096,56.906Zm-70.48,-15.14l68.914,13.574l-13.313,-53.774l-55.601,40.2Z" style="fill:#bfffff;fill-rule:nonzero;"/></g><g><path d="M1004.91,535.632l-11.224,-91.101l42.026,66.303l-30.802,24.798Zm-9.658,-86.403l10.441,84.315l28.714,-22.971l-39.155,-61.344Z" style="fill:#bfffff;fill-rule:nonzero;"/></g><g><path d="M1019.01,592.538l-14.357,-57.95l31.324,-25.059l-16.967,83.009Zm-13.052,-57.689l13.052,52.73l15.14,-75.44l-28.192,22.71Z" style="fill:#bfffff;fill-rule:nonzero;"/></g><g><path d="M947.484,642.918l0,-67.608l0.522,-0l72.046,14.357l-72.568,53.251Zm1.044,-66.303l0,64.215l69.175,-50.38l-69.175,-13.835Z" style="fill:#bfffff;fill-rule:nonzero;"/></g><g opacity="0.8"><path d="M854.244,320.969l-55.474,104.727l0.922,0.489l55.475,-104.727l-0.923,-0.489Z" style="fill:#bfffff;"/></g><g id="Pallini_x5F_cervello"><g><g><path d="M1013.53,232.308c4.177,0 4.177,-6.525 0,-6.525c-4.176,-0 -4.176,6.525 0,6.525Z" style="fill:#bfffff;fill-rule:nonzero;"/></g></g><g><g><path d="M1139.09,270.159c4.176,-0 4.176,-6.526 -0,-6.526c-4.177,-0 -4.177,6.526 -0,6.526Z" style="fill:#bfffff;fill-rule:nonzero;"/></g></g><g><g><path d="M910.156,250.059c8.353,-0 8.353,-13.052 0,-13.052c-8.614,0 -8.614,13.052 0,13.052Z" style="fill:#bfffff;fill-rule:nonzero;"/></g></g><g><g><path d="M933.388,78.036c8.353,0 8.353,-13.052 0,-13.052c-8.353,0 -8.353,13.052 0,13.052Z" style="fill:#bfffff;fill-rule:nonzero;"/></g></g><g><g><path d="M959.753,16.693c8.353,-0 8.353,-13.052 -0,-13.052c-8.614,-0 -8.614,13.052 -0,13.052Z" style="fill:#bfffff;fill-rule:nonzero;"/></g></g><g><g><path d="M812.268,44.362c8.353,0 8.353,-13.051 -0,-13.051c-8.354,-0 -8.354,13.051 -0,13.051Z" style="fill:#bfffff;fill-rule:nonzero;"/></g></g><g><g><path d="M781.726,67.856c8.353,-0 8.353,-13.052 0,-13.052c-8.353,-0 -8.353,13.052 0,13.052Z" style="fill:#bfffff;fill-rule:nonzero;"/></g></g><g><g><path d="M1200.43,378.489c8.353,-0 8.353,-13.052 0,-13.052c-8.614,-0 -8.614,13.052 0,13.052Z" style="fill:#bfffff;fill-rule:nonzero;"/></g></g><g><g><path d="M1118.72,390.235c8.353,0 8.353,-13.052 -0,-13.052c-8.614,-0.261 -8.614,13.052 -0,13.052Z" style="fill:#bfffff;fill-rule:nonzero;"/></g></g><g><g><path d="M1035.45,515.533c8.354,-0 8.354,-13.052 0,-13.052c-8.353,-0 -8.353,13.052 0,13.052Z" style="fill:#bfffff;fill-rule:nonzero;"/></g></g><g><g><path d="M933.388,530.151c8.353,-0 8.353,-13.052 0,-13.052c-8.353,-0 -8.353,13.052 0,13.052Z" style="fill:#bfffff;fill-rule:nonzero;"/></g></g><g><g><path d="M822.448,550.511c8.353,0 8.353,-13.051 -0,-13.051c-8.353,-0 -8.353,13.051 -0,13.051Z" style="fill:#bfffff;fill-rule:nonzero;"/></g></g><g><g><path d="M1353.39,256.063c8.354,-0 8.354,-13.052 0,-13.052c-8.353,-0.261 -8.353,13.052 0,13.052Z" style="fill:#bfffff;fill-rule:nonzero;"/></g></g><g><g><path d="M1277.69,155.303c8.353,-0 8.353,-13.052 -0,-13.052c-8.614,-0 -8.614,13.052 -0,13.052Z" style="fill:#bfffff;fill-rule:nonzero;"/></g></g><g><g><path d="M1187.12,121.89c8.354,0 8.354,-13.052 0,-13.052c-8.353,-0.261 -8.353,13.052 0,13.052Z" style="fill:#bfffff;fill-rule:nonzero;"/></g></g><g><g><path d="M758.494,274.857c8.353,0 8.353,-13.052 0,-13.052c-8.614,0 -8.614,13.052 0,13.052Z" style="fill:#bfffff;fill-rule:nonzero;"/></g></g><g><g><path d="M669.481,264.677c8.353,-0 8.353,-13.052 -0,-13.052c-8.614,0 -8.614,13.052 -0,13.052Z" style="fill:#bfffff;fill-rule:nonzero;"/></g></g><g><g><path d="M621.189,241.445c8.353,-0 8.353,-13.052 0,-13.052c-8.353,-0.261 -8.353,13.052 0,13.052Z" style="fill:#bfffff;fill-rule:nonzero;"/></g></g><g><g><path d="M656.168,423.648c8.353,-0 8.353,-13.052 -0,-13.052c-8.353,0 -8.353,13.052 -0,13.052Z" style="fill:#bfffff;fill-rule:nonzero;"/></g></g><g><g><path d="M726.387,505.352c8.353,0 8.353,-13.052 -0,-13.052c-8.615,0 -8.615,13.052 -0,13.052Z" style="fill:#bfffff;fill-rule:nonzero;"/></g></g><g><g><path d="M948.006,585.49c8.353,0 8.353,-13.052 0,-13.052c-8.353,0 -8.353,13.052 0,13.052Z" style="fill:#bfffff;fill-rule:nonzero;"/></g></g><g><g><path d="M945.135,648.4c8.353,-0 8.353,-13.052 -0,-13.052c-8.614,-0.261 -8.614,13.052 -0,13.052Z" style="fill:#bfffff;fill-rule:nonzero;"/></g></g><g><g><path d="M1017.96,597.237c8.353,-0 8.353,-13.052 -0,-13.052c-8.353,0 -8.353,13.052 -0,13.052Z" style="fill:#bfffff;fill-rule:nonzero;"/></g></g><g><g><path d="M1074.87,43.057c8.353,0 8.353,-13.052 -0,-13.052c-8.353,0 -8.353,13.052 -0,13.052Z" style="fill:#bfffff;fill-rule:nonzero;"/></g></g><g><g><path d="M1219.22,92.654c8.353,0 8.353,-13.052 -0,-13.052c-8.353,0 -8.353,13.052 -0,13.052Z" style="fill:#bfffff;fill-rule:nonzero;"/></g></g><g><g><path d="M829.757,140.685c8.353,-0 8.353,-13.052 -0,-13.052c-8.353,-0 -8.353,13.052 -0,13.052Z" style="fill:#bfffff;fill-rule:nonzero;"/></g></g><g><g><path d="M707.331,134.942c8.353,-0 8.353,-13.052 -0,-13.052c-8.353,0 -8.353,13.052 -0,13.052Z" style="fill:#bfffff;fill-rule:nonzero;"/></g></g><g><g><path d="M727.692,197.591c8.353,-0 8.353,-13.052 -0,-13.052c-8.353,-0 -8.353,13.052 -0,13.052Z" style="fill:#bfffff;fill-rule:nonzero;"/></g><g><g><path d="M622.755,297.828c4.177,0 4.177,-6.525 0,-6.525c-4.176,-0 -4.176,6.525 0,6.525Z" style="fill:#bfffff;fill-rule:nonzero;"/></g></g></g><g><g><path d="M627.193,364.915c4.176,-0 4.176,-6.526 -0,-6.526c-4.177,-0 -4.177,6.526 -0,6.526Z" style="fill:#bfffff;fill-rule:nonzero;"/></g></g><g><g><path d="M713.074,350.297c4.176,-0 4.176,-6.526 -0,-6.526c-4.177,-0 -4.177,6.526 -0,6.526Z" style="fill:#bfffff;fill-rule:nonzero;"/></g></g><g><g><path d="M799.216,429.13c4.176,-0 4.176,-6.526 -0,-6.526c-4.177,-0 -4.177,6.526 -0,6.526Z" style="fill:#bfffff;fill-rule:nonzero;"/></g></g><g><g><path d="M926.079,325.498c4.177,0 4.177,-6.526 0,-6.526c-4.176,0 -4.176,6.526 0,6.526Z" style="fill:#bfffff;fill-rule:nonzero;"/></g></g><g><g><path d="M1052.68,110.927c8.353,-0 8.353,-13.052 -0,-13.052c-8.353,-0.261 -8.614,13.052 -0,13.052Z" style="fill:#bfffff;fill-rule:nonzero;"/></g></g><g><g><path d="M993.688,454.45c8.353,0 8.353,-13.052 -0,-13.052c-8.615,-0.261 -8.615,13.052 -0,13.052Z" style="fill:#bfffff;fill-rule:nonzero;"/></g></g><g><g><path d="M848.029,491.517c8.354,0 8.354,-13.052 0,-13.052c-8.353,0 -8.353,13.052 0,13.052Z" style="fill:#bfffff;fill-rule:nonzero;"/></g></g><g><g><path d="M852.467,328.631c8.353,-0 8.353,-13.052 0,-13.052c-8.353,-0.261 -8.353,13.052 0,13.052Z" style="fill:#bfffff;fill-rule:nonzero;"/></g></g><g><g><path d="M666.609,184.017c8.354,-0 8.354,-13.052 0,-13.052c-8.614,-0 -8.614,13.052 0,13.052Z" style="fill:#bfffff;fill-rule:nonzero;"/></g></g><g><g><path d="M888.49,39.664c8.353,-0 8.353,-13.052 0,-13.052c-8.353,-0 -8.353,13.052 0,13.052Z" style="fill:#bfffff;fill-rule:nonzero;"/></g></g><g><g><path d="M1261.51,377.706c8.353,-0 8.353,-13.052 -0,-13.052c-8.353,-0 -8.353,13.052 -0,13.052Z" style="fill:#bfffff;fill-rule:nonzero;"/></g></g><g><g><path d="M1317.37,337.245c8.354,-0 8.354,-13.052 0,-13.052c-8.353,0 -8.353,13.052 0,13.052Z" style="fill:#bfffff;fill-rule:nonzero;"/></g></g><g><g><path d="M1328.34,194.98c8.353,0 8.353,-13.052 -0,-13.052c-8.353,0 -8.353,13.052 -0,13.052Z" style="fill:#bfffff;fill-rule:nonzero;"/></g></g><g><g><path d="M1005.7,543.986c8.353,-0 8.353,-13.052 0,-13.052c-8.614,-0 -8.614,13.052 0,13.052Z" style="fill:#bfffff;fill-rule:nonzero;"/></g></g><g><g><path d="M701.588,443.487c8.353,-0 8.353,-13.052 0,-13.052c-8.614,-0.261 -8.614,13.052 0,13.052Z" style="fill:#bfffff;fill-rule:nonzero;"/></g></g><g><g><path d="M754.056,101.007c8.354,0 8.354,-13.052 0,-13.052c-8.614,0 -8.614,13.052 0,13.052Z" style="fill:#bfffff;fill-rule:nonzero;"/></g></g></g></g></svg>