<?xml version="1.0" encoding="UTF-8" standalone="no"?><!DOCTYPE svg PUBLIC "-//W3C//DTD SVG 1.1//EN" "http://www.w3.org/Graphics/SVG/1.1/DTD/svg11.dtd"><svg width="100%" height="100%" viewBox="0 0 1979 649" version="1.1" xmlns="http://www.w3.org/2000/svg" xmlns:xlink="http://www.w3.org/1999/xlink" xml:space="preserve" xmlns:serif="http://www.serif.com/" style="fill-rule:evenodd;clip-rule:evenodd;stroke-linejoin:round;stroke-miterlimit:2;"><path d="M1978.8,37.1l-0,-2.5l-678.1,-0l-72.7,45.9c-0.2,-0.4 -0.5,-0.7 -0.7,-1c-1.3,-1.5 -3.1,-2.3 -5.3,-2.3c-2,-0 -3.7,0.7 -5,2l-86.8,-36.4l-3.4,-0.9l-1.3,-0.5l0.3,0.3l-31.8,-7.9l89.8,-0l26.4,-25.1l768.7,-0l0,-2.5l-769.9,-0l-26.4,25.1l-98.8,-0l-1.5,-0.4c-1,-2.2 -3.1,-3.8 -6.2,-3.8c-2.5,-0 -4.4,1.1 -5.5,2.7l-38.2,-1.1l-65.7,-20.7l0,-0.2c0,-3.6 -2.4,-7.2 -7,-7.2c-2.2,-0 -4,0.8 -5.3,2.3c-1.1,1.3 -1.7,3.1 -1.7,4.9c0,0.6 0.1,1.2 0.2,1.8l-59.1,17.3c-1.1,-1.9 -3.1,-3.2 -5.9,-3.2c-2.2,-0 -4,0.8 -5.3,2.3c-0.8,0.9 -1.3,2 -1.6,3.2l-63.3,5.3c-0.5,-3.1 -2.8,-6 -6.9,-6c-2.2,-0 -4,0.8 -5.3,2.3c-0.6,0.6 -1,1.4 -1.3,2.2l-197.9,-0l-28.6,-30.1l-0.4,-0.4l-576.7,-0l-0,2.5l575.6,-0l29,30.5l198.9,-0l-0,0.2c-0,1.3 0.3,2.6 0.9,3.7l-4.9,3.7l-211.1,-0l-23.8,-25l-0.4,-0.4l-564.2,-0l-0,2.5l563.1,-0l23.8,25l0.4,0.4l208.9,-0l-7.4,5.6l-205.8,-0l-23.8,-23.1l-0.4,-0.4l-558.8,-0l0,2.5l557.8,-0l23.8,23.1l0.4,0.4l192.8,-0c-0.2,0.2 -0.3,0.3 -0.5,0.5c-1.1,1.3 -1.7,3.1 -1.7,4.9c0,1.5 0.4,2.9 1.2,4.2l-0.5,0.4l0.7,-0.2c0.1,0.1 0.1,0.2 0.2,0.2l-0.7,0.8l-773.4,-0l0,2.5l771.2,-0l-16.7,19c-0.9,-0.4 -1.8,-0.6 -3,-0.6c-3.8,-0 -6.1,2.5 -6.8,5.4l-62.4,-0l-12.1,-14.4l-670.3,-0l0,2.5l669.1,-0l12.1,14.4l63.4,-0c-0,0.5 0.1,0.9 0.2,1.4l-36.1,26.3c-1.1,-0.9 -2.5,-1.4 -4.3,-1.4c-2.2,-0 -4,0.8 -5.3,2.3c-0.5,0.6 -0.9,1.2 -1.1,1.9l-46.6,-0l-33.7,-24.8l-0.2,-0.1l-617.6,-0l0,2.5l616.8,-0l33.8,24.9l46.8,-0l0,0.5c0,1.4 0.4,2.8 1.1,3.9l-32.2,39.2c-0.9,-0.4 -1.9,-0.7 -3.1,-0.7c-2.2,-0 -4,0.8 -5.3,2.3c-1.1,1.3 -1.7,3.1 -1.7,4.9l0,0.5l-82,-0l-24.1,-17.8l-550,-0l0,2.5l549.2,-0l24.1,17.8l83.5,-0c0.2,0.5 0.5,1 0.8,1.5l-5.5,7.4l-191.6,-0l-11.1,11.1l-449.5,-0l0,2.5l450.5,-0l11.1,-11.1l188.8,-0l-12.7,17.7l-168.2,-0l-12.1,12.1l-457.3,-0l0,2.5l458.4,-0l12.1,-12.1l165.3,-0l-13.5,18.2c-1.2,-1.1 -2.7,-1.8 -4.8,-1.8c-3.4,-0 -5.6,2 -6.5,4.5l-611,-0l0,2.5l610.5,-0l0,0.2c0,3.6 2.4,7.2 7,7.2l0.3,-0l0,49.4c-1.7,0.5 -2.6,2.1 -2.6,3.7c0,1.7 1,3.4 2.9,3.8l4.5,60.1c-0.8,0.2 -1.5,0.6 -2,1.2c-0.5,0.6 -0.8,1.4 -0.9,2.3l-619.6,-0l0,2.5l620.2,-0c0.6,1 1.7,1.8 3.2,1.8l0.3,-0l0.2,2.4l0.6,-1.6l23.1,46.3c-1.1,1.3 -1.7,3.1 -1.7,4.9l0,0.5l-63.2,-0l-27.9,-28l-0.2,-0.2l-554.6,-0l0,2.5l553.6,-0l27.9,28l0.2,0.2l64.8,-0c1,2.3 3.1,4.2 6.4,4.2c2.7,-0 4.6,-1.3 5.8,-3l33,14.3c-0.1,0.5 -0.1,0.9 -0.1,1.4l0,0.5l-128,-0l-15.6,-15.6l-548,-0l0,2.5l546.9,-0l15.6,15.6l129.5,-0c1,2.3 3.1,4.2 6.4,4.2c0.5,-0 1.1,-0.1 1.6,-0.2l9.7,24.6l-107.2,-0l-12.2,12.4l-590.4,0l0,2.5l591.4,0l12.2,-12.2l107.2,-0l8.8,22.3c-2,1.3 -3.1,3.7 -3.1,6.1c0,3.6 2.4,7.2 7,7.2c2.9,-0 5,-1.5 6.1,-3.5l58.2,27.4l-92.1,0l-13.7,-13.7l-682,0l0,2.5l681,0l13.7,13.7l97.8,0l0,-0.3l21.6,10.2c-0.2,0.7 -0.3,1.4 -0.3,2.2l0,0.5l-813.8,0l0,2.5l814.4,0c1,2.3 3.1,4.2 6.4,4.2c2.2,0 4,-0.8 5.3,-2.3c1.1,-1.3 1.7,-3.1 1.7,-4.9l0,-0.3l98.1,-18.7c0.6,3 2.9,5.6 6.8,5.6c0.6,0 1.2,-0.1 1.7,-0.2l10.5,42.2c-2.9,1.1 -4.4,3.9 -4.4,6.8c0,3.1 1.8,6.3 5.4,7.1l0,59.6l67.6,-49.4c1.1,1 2.7,1.7 4.7,1.7c2.2,-0 4,-0.8 5.3,-2.3c1.1,-1.3 1.7,-3.1 1.7,-4.9c0,-2.4 -1.1,-4.8 -3.2,-6.2l13.8,-68.4l942.4,-0l0,-2.5l-937.6,-0c1.4,-1.4 2.2,-3.4 2.2,-5.4c0,-1.9 -0.6,-3.6 -1.7,-4.9c-1.3,-1.5 -3.1,-2.3 -5.3,-2.3c-1.4,-0 -2.6,0.3 -3.6,0.9l-32.8,-51.6c0.7,-1.2 1,-2.5 1,-4c-0,-0.7 -0.1,-1.3 -0.2,-2l113.3,-59.5c1,2.2 3.1,3.9 6.3,3.9c3.2,-0 5.3,-1.7 6.3,-4l87.7,80.6l0.4,0.3l109.7,-0l36.1,26.1l618.2,-0l0,-2.5l-617.4,-0l-35.8,-25.8l-0.3,-0.2l-109.6,-0l-88.4,-81.3l-0,-0.4c-0,-0.6 -0.1,-1.1 -0.2,-1.7l29.2,-3.7l78.6,68l0.4,0.3l85.3,-0l42.5,33.8l0.3,0.3l615.3,-0l-0,-2.5l-614.4,-0l-42.5,-33.8l-0.3,-0.3l-85.2,-0l-76.5,-66.2l36.3,-4.6c0.5,3.1 2.9,5.9 6.9,5.9c1.9,-0 3.4,-0.6 4.5,-1.6l59.6,54.4l0.4,0.3l59.1,-0l46.6,37l0.3,0.3l605.5,-0l0,-2.5l-604.8,-0l-46.6,-37l-0.3,-0.3l-59,-0l-59.3,-54.2c0.5,-1 0.8,-2.1 0.9,-3.3l48,-0c0.5,3.2 2.8,6 6.9,6c2.2,-0 4,-0.8 5.3,-2.3c0.4,-0.4 0.7,-0.9 1,-1.5l92.4,-0l78.8,56.1l0.3,0.2l536.2,-0l-0,-2.5l-535.4,-0l-78.8,-56.1l-0.3,-0.2l-92.7,-0c-0,-0.3 0.1,-0.6 0.1,-1c-0,-0.8 -0.1,-1.6 -0.4,-2.4l17.1,-12.4l88,-0l73.5,54.4l528.8,-0l0,-2.3l-527.9,-0l-73.2,-54.1l-0.3,-0.2l-85.4,-0l24.7,-17.8c1.1,0.9 2.6,1.4 4.4,1.4c3.8,-0 6.1,-2.5 6.8,-5.4l650.9,-0.6l0,-2.5l-650.8,0.6c-0.1,-1.6 -0.7,-3.1 -1.7,-4.2c-0.2,-0.3 -0.5,-0.5 -0.7,-0.7l13,-30.3l97.1,-0l83.3,-54.7l459.8,-0l0,-2.5l-460.4,-0l-83.3,54.7l-95.3,-0l6.8,-15.8l83.8,-0l80.8,-52.4l467.7,-0l0,-2.5l-468.4,-0l-80.9,52.3l-82,-0l7.9,-18.4c0.6,0.2 1.3,0.3 2,0.3c3.8,-0 6.1,-2.5 6.8,-5.4l58,-0l79.1,-52.9l477.4,-0l0,-2.5l-478.1,-0l-79.1,52.9l-57,-0c-0.3,-3.4 -2.6,-6.6 -7,-6.6c-0.4,-0 -0.8,-0 -1.2,0.1l-19.4,-49c1.3,-1.2 2,-3 2.2,-4.8l56.8,-0l79.1,-69.2l503.8,-0l0,-2.5l-504.8,-0l-79.1,69.2l-56,-0c-0.7,-2.9 -3,-5.4 -6.8,-5.4c-1.3,-0 -2.5,0.3 -3.5,0.9l-25.4,-20.7l85.8,-0l77.1,-68.5l512.8,-0l0,-2.5l-513.8,-0l-77.1,68.5l-87.9,-0l-12.2,-9.9l0,-0.3l91.1,-0l79.1,-70.5l520.7,-0l0,-2.5l-521.7,-0l-79.1,70.5l-90.4,-0c-0.8,-2.7 -3,-5 -6.7,-5c-0.3,-0 -0.7,-0 -1,0.1l-39.2,-41.8l67.8,-43.4l670.2,-0l0,-2.5l-671,-0l-68.9,44l-10.1,-10.8c0.1,-0.6 0.2,-1.1 0.2,-1.7c0,-0.5 0,-1 -0.1,-1.5l72.6,-45.9l677.4,-0Zm-626.6,207.4c-0.6,0.7 -1.1,1.6 -1.4,2.5l-52.5,-7.8l30.5,-44.7c0.9,0.4 2,0.7 3.2,0.7c0.6,-0 1.1,-0.1 1.6,-0.2l19.3,48.8c-0.2,0.2 -0.4,0.4 -0.7,0.7Zm-36.4,82.1c-0.1,0.1 -0.2,0.2 -0.3,0.4l-75.3,-58.8l0,-0.1l55.4,-27.1l0.2,1.7l0.6,-0.8l21.9,82.9c-1,0.4 -1.8,1 -2.5,1.8Zm-78.2,-225.8l0.2,-0.1l38.8,41.3c-0.3,0.3 -0.6,0.6 -0.9,0.9l-79.2,-30.4c-0.2,-1.3 -0.8,-2.5 -1.6,-3.5l1.7,-1.3l21.8,-16.9c1,0.6 2.2,0.9 3.6,0.9c2.3,-0 4,-0.9 5.2,-2.2l9.7,10.4l0.7,0.9Zm59.9,60l28.6,23.3c-0.6,1.1 -1,2.4 -1,3.8c0,1.9 0.7,3.8 2,5.1l-29.7,43.5l-11.6,-83.4c0.1,-0.1 0.3,-0.3 0.4,-0.4c0.2,-0.2 0.4,-0.5 0.5,-0.7l9.9,8.1l0,0.7l0.9,-0Zm-347.5,428.4c1.3,-0.3 2.4,-1 3.3,-2c1.1,-1.3 1.7,-3.1 1.7,-4.9l0,-0.6l56.8,11.2c-0.1,0.4 -0.1,0.8 -0.1,1.2c0,0.8 0.1,1.7 0.4,2.5l-62.1,45.4l0,-52.8Zm179.9,-542.7l55.6,61.5c-0.7,0.5 -1.3,1.1 -1.7,1.8l-123.2,-8.1c-0.1,-0.8 -0.4,-1.6 -0.8,-2.3l69.5,-53l0.6,0.1Zm107.4,222.5l-33.5,96.9c-0.3,-0 -0.6,-0.1 -0.9,-0.1c-0.7,-0 -1.4,0.1 -2,0.3l-7,-11.7l-50.4,-84.4c0.7,-0.6 1.1,-1.4 1.3,-2.3l30.9,0.4l61.6,0.9Zm-507.7,227.6l21.1,-20.3l46.4,-44.8c0.3,-0 0.5,0.1 0.8,0.1c0.6,-0 1.2,-0.1 1.6,-0.3l42.8,50.7c-1.1,1 -1.7,2.4 -2,3.8l-56.5,6.5l-53.2,6.1c-0.2,-0.7 -0.6,-1.3 -1,-1.8Zm257.5,-46.9l-82.1,20.7l-51.8,13.1c-1.1,-2 -3.1,-3.4 -6,-3.4c-1,-0 -1.9,0.2 -2.7,0.5l-43,-50.8c0.1,-0.1 0.1,-0.2 0.2,-0.4l185.6,19.3c-0.2,0.4 -0.2,0.7 -0.2,1Zm-272.3,-104.7l39.9,-69.5c0.6,0.1 1.2,0.2 1.9,0.2c3.2,-0 5.3,-1.8 6.3,-4.1l83.1,46.5c-0.9,1.3 -1.4,2.9 -1.4,4.4l-129.8,22.5Zm48.8,-76.4l0,-0.5l139.6,-22.1c0.5,1.4 1.3,2.6 2.5,3.5l-49.7,67.4c-1.1,-0.9 -2.6,-1.5 -4.4,-1.5c-2,-0 -3.6,0.7 -4.8,1.8l-83.5,-46.7c0.2,-0.6 0.3,-1.3 0.3,-1.9Zm140.9,-30c-1.1,1.3 -1.7,3.1 -1.7,4.9l-139.7,22.1c-0.3,-0.9 -0.9,-1.7 -1.5,-2.4l66.3,-123.1c0.3,-0 0.6,0.1 1,0.1c1.3,-0 2.5,-0.3 3.4,-0.8l73.7,97.9c-0.6,0.4 -1.1,0.8 -1.5,1.3Zm-47,80.1l50.3,-68.2c0.6,0.2 1.2,0.3 1.9,0.3c0.6,-0 1.2,-0.1 1.7,-0.2l5,31.2l6,37.3c-1,0.7 -1.7,1.7 -2,2.8l-62.2,-1.1c0,-0.8 -0.3,-1.5 -0.7,-2.1Zm-59.1,104.8c-0.9,-0.2 -1.9,-0 -2.7,0.4l-81,-77.3l130,-22.4c0.4,2.1 1.6,4 3.6,5l-49.9,94.3Zm-72.8,-225.8c1.4,-0 2.6,-0.3 3.6,-0.9l24.5,65.1c-1.8,0.7 -3.1,2.2 -3.7,3.9l-76.3,-7.7c0,-0.8 -0.1,-1.6 -0.4,-2.3l49.8,-58.5c0.8,0.3 1.6,0.4 2.5,0.4Zm184.1,38.6c-0.9,-0 -1.8,0.1 -2.5,0.4l-73.7,-98.2c1.5,-1.4 2.3,-3.4 2.3,-5.5c0,-0.4 0,-0.8 -0.1,-1.2l91.9,-57.9c0.9,1.4 2.2,2.4 4,2.8l-19.9,159.8c-0.6,-0.1 -1.3,-0.2 -2,-0.2Zm-85.6,-97.7c0.3,0.3 0.7,0.6 1.1,0.8l-65.9,122.4c-0.8,-0.3 -1.7,-0.5 -2.7,-0.5l-0.1,-0l-25.1,-66.5c0.8,-1.2 1.3,-2.7 1.3,-4.3c0,-0.7 -0.1,-1.3 -0.3,-2l45.9,-25l45.8,-24.9Zm101.4,179.6c-0.3,-0 -0.5,-0 -0.8,0.1l-11.1,-68.6c1.9,-1.3 2.9,-3.4 3.1,-5.7l94.4,-13c0.1,0.2 0.2,0.4 0.4,0.5l-83.6,87.2c-0.6,-0.3 -1.5,-0.5 -2.4,-0.5Zm-252.1,-57.7l76.2,7.7l0,0.3c0,2.3 1,4.5 2.8,5.9l-39.8,69.3l-40.4,-80.9c0.5,-0.6 0.9,-1.4 1.2,-2.3Zm256.1,59.4c-0.1,-0.2 -0.3,-0.3 -0.5,-0.4l83.5,-87.2c0.5,0.3 1.1,0.5 1.8,0.5c0.3,-0 0.5,-0 0.8,-0.1l69.6,90.4l-154.2,-1.3c-0.2,-0.7 -0.6,-1.4 -1,-1.9Zm84.7,-95c-1.1,-0 -2.1,0.4 -2.8,1.2c-0.6,0.7 -0.9,1.5 -0.9,2.4l-94,13c-0.1,-0.5 -0.3,-0.9 -0.5,-1.3l133,-131.8c0.4,0.4 0.9,0.7 1.4,1l-36.2,115.5Zm32.6,-123.4c-0.1,0.4 -0.1,0.9 -0.1,1.4c0,1.5 0.4,3.1 1.3,4.3l-132.9,131.5c-0.5,-0.7 -1.2,-1.2 -2,-1.6l20,-160.2l0.1,-0c3.6,-0 5.9,-2.3 6.7,-5l100,27.6l6.9,2Zm-120.4,-30.9c0,0.4 0.1,0.8 0.2,1.2l-91.7,57.7c-0.3,-0.5 -0.6,-1 -0.9,-1.4c-0.2,-0.2 -0.4,-0.4 -0.6,-0.6l5.4,-13.1l15.7,-38l55.1,-4.4l16.8,-1.4Zm-102.3,309.9l26.7,-50.6l0.8,-0c2.2,-0 4,-0.8 5.3,-2.3c1,-1.2 1.6,-2.7 1.7,-4.4l61.8,1.1c0,0.3 0.1,0.6 0.2,0.9l-119.3,99.9c-0.1,-0.1 -0.1,-0.2 -0.2,-0.3l23,-44.3Zm263.4,-58.2l-69.7,-90.5l119.4,35.3l0,0.3l-0.3,0.3l0.3,-0l-49.7,54.6Zm-98.7,122.5c-0.6,0.7 -1.1,1.6 -1.4,2.5l-185.6,-19.4c0,-0.5 0,-0.9 -0.1,-1.4l119.4,-99.9c0.1,0.2 0.3,0.4 0.4,0.6c1,1.1 2.3,1.7 3.9,1.7c0.4,-0 0.8,-0 1.2,-0.1l64.2,114.4c-0.7,0.4 -1.4,0.9 -2,1.6Zm197,-324.7l-46.2,143.3c-0.6,0.2 -1.1,0.5 -1.5,1c-0.1,0.1 -0.1,0.1 -0.2,0.2l-119.9,-35.4l0,-0.4c0,-0.4 -0.1,-0.7 -0.2,-1.1l165.2,-110.8c0.7,1.3 1.6,2.4 2.8,3.2Zm-188.2,323.3c-1,-0.6 -2.2,-0.9 -3.6,-0.9c-0.7,-0 -1.4,0.1 -2,0.3l-64.2,-114.3c1.7,-0.8 2.6,-2.4 2.9,-4.1l154.4,1.2l-70.4,94.9l-17.1,22.9Zm185,-329.5c0,0.6 0.1,1.2 0.2,1.8l-165.3,110.9c-0.1,-0.2 -0.2,-0.3 -0.3,-0.4c-0.2,-0.2 -0.4,-0.4 -0.6,-0.5l36.2,-115.6c0.3,-0 0.6,0.1 0.9,0.1c4.1,-0 6.5,-3 6.9,-6.2l122.2,8.1c-0.1,0.5 -0.2,1.2 -0.2,1.8Zm97.1,41l-41.6,111.6l-0.3,-0.2l0.1,0.2l-93.5,-1.2c-0.1,-0.2 -0.2,-0.4 -0.3,-0.6l133.3,-110.7c0.6,0.5 1.4,0.8 2.3,0.9Zm-440.7,-46.8l-7.5,18.2c-0.8,-0.3 -1.7,-0.5 -2.7,-0.5c-3,-0 -5,1.5 -6.1,3.6l-63.6,-35c0.1,-0.5 0.1,-1 0.1,-1.5l0,-0.8l92.8,-15.3l-13,31.3Zm-120.4,82.4c0,2 0.7,4 2.1,5.3l-49,57.3c-0.6,-0.7 -1.4,-1.2 -2.2,-1.6l-4.2,-67.6c2.6,-0.5 4.3,-2.4 5,-4.7l48.4,9.7c0,0.5 -0.1,1.1 -0.1,1.6Zm-4.8,160.3c0.3,-0.3 0.4,-0.6 0.6,-1l79.8,76c-0.2,0.5 -0.3,1.1 -0.3,1.7l-87.9,9.1c-0.5,-2 -1.8,-3.8 -3.9,-4.7l11.2,-80.7c0.1,-0.1 0.3,-0.2 0.5,-0.4Zm213.7,-285.3c-0.6,0.8 -0.9,1.8 -1.1,2.9l-16.3,1.3l-53.8,4.3l28.2,-36.6c1,0.6 2.2,0.9 3.5,0.9c2.3,-0 4,-0.9 5.2,-2.2l34.3,29.4Zm-175.3,34.6c3,-0 5,-1.5 6.1,-3.6l63.6,35c-0.1,0.5 -0.1,1 -0.1,1.5c0,1.3 0.3,2.6 0.9,3.7l-91.2,49.7c-0.4,-0.6 -0.9,-1.2 -1.5,-1.7l21.2,-84.6l1,-0Zm114.1,-42.9l-13,16.9l-1.7,-0.3l-64.7,-12.3c0.1,-0.4 0.2,-0.8 0.2,-1.3l94.3,-26.6c0.3,0.8 0.7,1.6 1.3,2.3l-16.4,21.3Zm-238.7,304.5l40,-96.2c1,-0.1 1.9,-0.4 2.6,-0.8l39.9,79.7c-1,0.2 -1.8,0.8 -2.3,1.6l-80,16.5c-0.1,-0.4 -0.1,-0.6 -0.2,-0.8Zm226.5,126.2l0,-0.6c0,-0.5 -0.1,-1.1 -0.2,-1.6l9.3,-2.4l124.1,-31.3c0.3,1 0.8,1.9 1.5,2.7l-23.6,29.7l-28.4,35.6c-1,-0.6 -2.2,-0.9 -3.6,-0.9c-1.8,-0 -3.4,0.6 -4.6,1.7l-41.7,-18.4l-32.8,-14.5Zm159.4,101.2c-0.4,0.5 -0.7,1 -1,1.6l-58,-11.5c-0.3,-0.8 -0.8,-1.6 -1.4,-2.2l8.1,-5.9l38.7,-27.9c1,2.4 3.1,4.3 6.4,4.3c0.3,-0 0.6,-0 1,-0.1l9.8,39.6c-1.5,0.3 -2.7,1 -3.6,2.1Zm90.2,-281l34.7,-38.1c0.6,0.6 1.5,0.9 2.5,0.9l0.3,-0l13.7,22.9l43.8,73.2c-0.4,0.3 -0.8,0.6 -1.2,1c-0.1,0.1 -0.1,0.1 -0.2,0.2l-108.1,-44.4l14.5,-15.7Zm-99.5,225.2c-1.3,0.3 -2.4,1 -3.2,2l-60.9,-10.9c-0.3,-1.1 -0.7,-2.1 -1.5,-3l52,-65.3c1,0.5 2.1,0.8 3.4,0.8l0.7,-0l9.5,76.4Zm27.3,-501.1l19.4,63.9c-1.6,0.6 -2.7,1.8 -3.4,3.2l-107.2,-29.7c0,-0.7 -0.1,-1.4 -0.3,-2.1l91.1,-35.5l0.4,0.2Zm-281.9,67.5l-21,84.1c-0.5,-0.2 -1.1,-0.4 -1.7,-0.5l-4.4,-12l-13.9,-37.8c2.3,-1.3 3.4,-3.8 3.4,-6.3c0,-1 -0.2,-2 -0.6,-2.9l35.7,-26.1c0.7,0.6 1.6,1.2 2.5,1.5Zm-18.5,401.1l109.1,-12.5c0.2,1.9 1.2,3.8 2.8,5l-19.9,46.7c-0.5,-0.1 -1.1,-0.2 -1.7,-0.2c-2.1,-0 -3.8,0.8 -4.9,2l-85.3,-40.3l0,-0.2c0,-0.2 0,-0.3 -0.1,-0.5Zm542.8,-353c0,1.7 0.6,3.5 1.7,4.8l-133,110.4l45.8,-142c0.4,0.1 0.8,0.1 1.2,0.1c2.2,-0 4,-0.8 5.3,-2.3c0.9,-1.1 1.5,-2.4 1.7,-3.9l77.9,29.9c-0.4,1 -0.6,2 -0.6,3Zm-58.7,-65.4c-0.2,0.7 -0.3,1.3 -0.3,2c0,1.7 0.6,3.4 1.6,4.8l-23.4,18.2l-0.2,0.2c-1,-0.5 -2.1,-0.8 -3.5,-0.8c-0.7,-0 -1.3,0.1 -1.9,0.2l-52.5,-58l80.2,33.4Zm-96.4,-31l-60.3,46c-0.4,-0.4 -0.8,-0.7 -1.3,-0.9l10.9,-31.5l8.1,-23.5c2.1,-0 4,-0.8 5.2,-2.3c1,-1.2 1.6,-2.8 1.7,-4.5l43.3,10.8l-7.6,5.9Zm-49.6,-17c0,2.9 1.6,5.9 4.7,6.9l-18.8,54.5c-0.4,-0.1 -0.9,-0.1 -1.3,-0.1l-0.5,-0l-19.3,-63.5l35.4,1c-0.2,0.4 -0.2,0.8 -0.2,1.2Zm-110.7,-19.4l-23.4,47.7c-0.6,-0.1 -1.2,-0.2 -1.8,-0.2c-1.6,-0 -3,0.4 -4.2,1.3l-34.7,-29.7c0.4,-0.9 0.6,-2 0.6,-3l0,-0.8l59.6,-17.4c0.9,1 2.2,1.8 3.9,2.1Zm-177.8,52.4l0,-0.8c2.4,-0.2 4.1,-1.3 5.2,-3l61.3,11.6l-88.7,14.7c-0.2,-0.5 -0.5,-1 -0.8,-1.4l18.5,-21.1l4.5,-0Zm-75.7,67c0.5,-0 0.9,-0 1.4,-0.1l15.1,41l3,8.1c-1.6,0.2 -3,1 -4.1,2.2c-0.3,0.4 -0.6,0.8 -0.8,1.2l-15.8,-3.2l-33,-6.6l0,-0.1c0,-1.5 -0.4,-3.1 -1.3,-4.4l32,-39c1,0.6 2.1,0.9 3.5,0.9Zm-41.9,49.7l4.2,67l-0.5,-0c-2.2,-0 -4,0.8 -5.3,2.3c-0.2,0.2 -0.3,0.4 -0.5,0.6l-36.2,-17.1c0.2,-0.7 0.3,-1.4 0.3,-2.1c0,-0.8 -0.1,-1.6 -0.3,-2.3l36.1,-49c0.6,0.3 1.4,0.5 2.2,0.6Zm-39.7,55.5c0.2,-0.2 0.4,-0.5 0.5,-0.7l11.3,5.4l24.8,11.7c-0.2,0.7 -0.3,1.5 -0.3,2.3c0,1.7 0.6,3.5 1.6,4.8l-35.8,26.4l-3.6,2.6c-0.1,-0.1 -0.1,-0.1 -0.2,-0.2l0,-50.9c0.7,-0.4 1.2,-0.8 1.7,-1.4Zm83.8,109.1c0.1,0.5 0.2,0.9 0.4,1.4l-51.9,61.8c-0.7,-0.2 -1.4,-0.3 -2.2,-0.3c-0.8,-0 -1.5,0.1 -2.2,0.3l-23.4,-46.9l79.3,-16.3Zm-49.3,64.4l51.5,-61.4c0.4,0.1 0.8,0.2 1.2,0.3l-1.9,13.7l-9.1,65.8l-0.4,-0c-2.5,-0 -4.4,1.1 -5.5,2.7l-33.3,-14.4c0,-0.3 0.1,-0.7 0.1,-1c0,-2.2 -0.9,-4.3 -2.6,-5.7Zm46.5,30.5c1,-1.2 1.6,-2.8 1.7,-4.5l0.9,-0.1l87.7,-9.1c0.1,0.1 0.2,0.2 0.2,0.3l-67.1,64.8c-1,-0.6 -2.2,-1 -3.7,-1l-0.7,-0l-19.7,-49.8c0.3,-0.2 0.5,-0.4 0.7,-0.6Zm120.8,97.2l19.9,-46.6c0.6,0.2 1.3,0.3 2,0.3c3.3,-0 5.5,-1.9 6.5,-4.3l15,6.6l58.6,25.8c-0.3,0.6 -0.5,1.2 -0.7,1.8l-99,18.9c-0.5,-1 -1.3,-1.9 -2.3,-2.5Zm115.1,-14l43.8,7.9l15.6,2.8c-0.3,0.9 -0.5,1.8 -0.5,2.8l0,0.5l-21.9,15.8l-26.3,19c-0.6,-0.3 -1.4,-0.5 -2.2,-0.5l-10.7,-43.4c1.3,-1.3 2.1,-3.1 2.2,-4.9Zm69.1,20c2.5,-1.2 3.8,-3.9 3.8,-6.5c0,-1.9 -0.6,-3.6 -1.7,-4.9c-0.2,-0.2 -0.3,-0.4 -0.5,-0.5l21.4,-17.2c0.3,0.2 0.5,0.4 0.8,0.5l-13.9,68.7l-9.9,-40.1Zm20,-35.2c0,1.5 0.4,3.1 1.3,4.4l-21.8,17.5c-0.7,-0.3 -1.5,-0.4 -2.4,-0.5l-9.5,-76.7c0.2,-0.1 0.3,-0.2 0.5,-0.2l32.9,51.6c-0.7,1.2 -1,2.5 -1,3.9Zm57.9,-185.2l30.9,51.5c-3.1,0.9 -4.8,3.9 -4.8,6.8l-113.8,59.8l87.7,-118.1Zm33.4,51.3l-27.2,-45.3l-3.4,-5.6l26.4,10.8l79.8,32.8c-0.1,0.2 -0.1,0.4 -0.2,0.6l-70.5,9c-1.1,-1.3 -2.7,-2.2 -4.9,-2.3Zm-183.5,-314.1l3.3,-6.8l20.5,-41.8c2.4,-0.4 4.1,-1.8 5,-3.6l61.9,19.5l-88.8,34.6c-0.5,-0.8 -1.1,-1.4 -1.9,-1.9Zm-150.3,-6l4.8,-3.6l0.8,-0l0,-0.6l14.8,-11.3c1,0.6 2.3,1 3.7,1c3.7,-0 5.9,-2.3 6.7,-5.1l56.1,-4.7l-86.9,24.5c0.1,-0 0,-0.1 0,-0.2Zm-164.8,240.5c0.9,-0.8 1.3,-1.9 1.3,-3c0,-0.4 -0.1,-0.7 -0.1,-1.1l39.9,-29.4c0.6,0.3 1.2,0.6 1.9,0.7l-38.6,92.8l-4.4,-60Zm660.1,-143.2c0.5,-0.1 1,-0.2 1.5,-0.4l11.8,84.8l-54.6,26.8l41.3,-111.2Zm-74.1,213.3c-0.6,-0.6 -1.2,-1.2 -2,-1.5l32.9,-95.1l24.3,93.7c-1.6,0.3 -2.9,1 -3.9,2.2c-0.6,0.7 -1.1,1.6 -1.4,2.5l-48.9,-0c-0.2,-0.7 -0.5,-1.3 -1,-1.8Zm61.3,-1.3c-1.1,-1 -2.7,-1.7 -4.6,-1.7l-24.7,-95.4l74.7,58.4c-0.5,1 -0.7,2.2 -0.7,3.4c0,1 0.2,1.9 0.5,2.8l-45.2,32.5Zm51.6,-42.6c-0.4,-0 -0.8,-0 -1.2,0.1l-22.1,-83.8l52.9,7.9c0,0.3 -0.1,0.6 -0.1,0.9c0,1.9 0.7,3.7 1.9,5.1l-30.1,69.9c-0.4,-0.1 -0.8,-0.1 -1.3,-0.1Zm-535.6,-269.8c-0.2,-0.2 -0.3,-0.4 -0.5,-0.5l1.2,-0l-0.7,0.5Zm1192.2,-18.6l-180.9,-0l0,-0.1l180.9,-0l0,0.1Zm0,-28.4l-180.9,-0l0,-0.1l180.9,-0l0,0.1Zm0,510.8l-180.9,-0l0,-0.1l180.9,-0l0,0.1Zm0,-24.3l-180.9,-0l0,-0.1l180.9,-0l0,0.1Zm0,-13.3l-180.9,-0l0,-0.1l180.9,-0l0,0.1Zm0,-11.1l-180.9,-0l0,-0.1l180.9,-0l0,0.1Zm0,-38.6l-180.9,-0l0,-0.1l180.9,-0l0,0.1Zm0,-20.2l-180.9,-0l0,-0.1l180.9,-0l0,0.1Zm0,-79.2l-180.9,0.2l0,-0.1l180.9,-0.2l0,0.1Zm0,-91.9l-180.9,-0l0,-0.1l180.9,-0l0,0.1Zm0,-16.1l-180.9,-0l0,-0.1l180.9,-0l0,0.1Zm0,-26.4l-180.9,-0l0,-0.1l180.9,-0l0,0.1Zm0,-79l-180.9,-0l0,-0.1l180.9,-0l0,0.1Zm0,-27.1l-180.9,-0l0,-0.1l180.9,-0l0,0.1Zm0,-14.7l-180.9,-0l0,-0.1l180.9,-0l0,0.1Zm0,-22.1l-180.9,-0l0,-0.1l180.9,-0l0,0.1Z" style="fill:#a1cae7;fill-rule:nonzero;"/></svg>