<?xml version="1.0" encoding="UTF-8" standalone="no"?><!DOCTYPE svg PUBLIC "-//W3C//DTD SVG 1.1//EN" "http://www.w3.org/Graphics/SVG/1.1/DTD/svg11.dtd"><svg width="100%" height="100%" viewBox="0 0 600 600" version="1.1" xmlns="http://www.w3.org/2000/svg" xmlns:xlink="http://www.w3.org/1999/xlink" xml:space="preserve" xmlns:serif="http://www.serif.com/" style="fill-rule:evenodd;clip-rule:evenodd;stroke-linejoin:round;stroke-miterlimit:2;"><path d="M990.628,130.497l0,-1.746l-473.5,-0l-50.764,32.051c-0.14,-0.28 -0.349,-0.489 -0.489,-0.699c-0.908,-1.047 -2.165,-1.606 -3.701,-1.606c-1.396,0 -2.583,0.489 -3.491,1.397l-60.61,-25.417l-2.374,-0.629l-0.908,-0.349l0.209,0.21l-22.205,-5.517l62.705,0l18.435,-17.526l536.763,-0l0,-1.746l-537.601,-0l-18.435,17.527l-68.989,-0l-1.048,-0.28c-0.698,-1.536 -2.164,-2.653 -4.329,-2.653c-1.746,-0 -3.072,0.768 -3.841,1.885l-26.674,-0.768l-45.876,-14.454l-0,-0.14c-0,-2.514 -1.676,-5.027 -4.888,-5.027c-1.536,-0 -2.793,0.558 -3.701,1.606c-0.768,0.907 -1.187,2.164 -1.187,3.421c-0,0.419 0.07,0.838 0.14,1.257l-41.268,12.08c-0.769,-1.327 -2.165,-2.234 -4.12,-2.234c-1.536,-0 -2.793,0.558 -3.701,1.606c-0.559,0.628 -0.908,1.396 -1.117,2.234l-44.201,3.701c-0.349,-2.165 -1.955,-4.19 -4.818,-4.19c-1.536,0 -2.793,0.559 -3.701,1.606c-0.419,0.419 -0.698,0.978 -0.908,1.537l-138.188,-0l-19.971,-21.018l-0.279,-0.28l-402.695,0l-0,1.746l401.927,-0l20.25,21.297l138.886,0l0,0.14c0,0.908 0.21,1.815 0.629,2.584l-3.422,2.583l-147.405,0l-16.619,-17.457l-0.28,-0.279l-393.966,0l-0,1.746l393.198,-0l16.619,17.457l0.279,0.279l145.87,-0l-5.167,3.91l-143.705,0l-16.619,-16.13l-0.279,-0.279l-390.196,-0l-0,1.745l389.497,0l16.619,16.131l0.28,0.279l134.627,-0c-0.14,0.14 -0.21,0.209 -0.349,0.349c-0.768,0.908 -1.187,2.165 -1.187,3.422c-0,1.047 0.279,2.025 0.838,2.932l-0.35,0.28l0.489,-0.14c0.07,0.07 0.07,0.14 0.14,0.14l-0.489,0.558l-540.045,0l-0,1.746l538.509,-0l-11.661,13.267c-0.629,-0.279 -1.257,-0.419 -2.095,-0.419c-2.654,0 -4.26,1.746 -4.748,3.771l-43.573,-0l-8.449,-10.055l-468.053,-0l-0,1.745l467.215,0l8.449,10.056l44.271,-0c-0,0.349 0.07,0.628 0.14,0.977l-25.208,18.365c-0.768,-0.629 -1.746,-0.978 -3.003,-0.978c-1.536,0 -2.793,0.559 -3.701,1.606c-0.349,0.419 -0.628,0.838 -0.768,1.327l-32.539,-0l-23.532,-17.317l-0.14,-0.07l-431.254,-0l0,1.746l430.696,-0l23.601,17.387l32.68,-0l-0,0.349c-0,0.977 0.279,1.955 0.768,2.723l-22.485,27.372c-0.628,-0.279 -1.326,-0.488 -2.164,-0.488c-1.537,-0 -2.793,0.558 -3.701,1.606c-0.768,0.907 -1.187,2.164 -1.187,3.421l-0,0.349l-57.259,0l-16.828,-12.429l-384.051,0l-0,1.746l383.492,-0l16.829,12.429l58.305,-0c0.14,0.349 0.35,0.698 0.559,1.047l-3.84,5.168l-133.79,-0l-7.751,7.75l-313.874,0l0,1.746l314.573,0l7.75,-7.751l131.835,0l-8.868,12.36l-117.45,-0l-8.449,8.449l-319.321,-0l-0,1.746l320.089,-0l8.449,-8.45l115.425,0l-9.427,12.709c-0.838,-0.768 -1.885,-1.257 -3.352,-1.257c-2.374,0 -3.91,1.397 -4.538,3.142l-426.646,0l-0,1.746l426.296,0l0,0.14c0,2.514 1.676,5.027 4.888,5.027l0.21,0l-0,34.495c-1.187,0.349 -1.816,1.466 -1.816,2.584c0,1.187 0.699,2.374 2.025,2.653l3.143,41.966c-0.559,0.14 -1.048,0.419 -1.397,0.838c-0.349,0.419 -0.559,0.978 -0.628,1.606l-432.651,0l-0,1.746l433.069,0c0.419,0.698 1.188,1.257 2.235,1.257l0.209,-0l0.14,1.676l0.419,-1.117l16.13,32.33c-0.768,0.907 -1.187,2.164 -1.187,3.421l0,0.349l-44.131,0l-19.482,-19.551l-0.139,-0.14l-387.263,0l-0,1.746l386.564,-0l19.482,19.551l0.14,0.14l45.248,0c0.698,1.606 2.165,2.933 4.469,2.933c1.885,-0 3.212,-0.908 4.05,-2.095l23.043,9.985c-0.07,0.349 -0.07,0.629 -0.07,0.978l0,0.349l-89.379,0l-10.893,-10.893l-382.654,-0l-0,1.746l381.886,-0l10.893,10.893l90.427,-0c0.698,1.606 2.164,2.932 4.469,2.932c0.349,0 0.768,-0.069 1.117,-0.139l6.773,17.177l-74.855,0l-8.519,8.659l-412.261,-0l-0,1.746l412.959,-0l8.519,-8.519l74.855,-0l6.145,15.571c-1.396,0.908 -2.165,2.584 -2.165,4.26c0,2.513 1.676,5.027 4.888,5.027c2.025,0 3.492,-1.047 4.26,-2.444l40.639,19.133l-64.311,0l-9.566,-9.566l-476.223,-0l-0,1.745l475.525,0l9.566,9.567l68.291,-0l0,-0.21l15.083,7.123c-0.14,0.488 -0.209,0.977 -0.209,1.536l-0,0.349l-568.256,-0l-0,1.746l568.675,-0c0.698,1.606 2.164,2.932 4.468,2.932c1.537,0 2.794,-0.558 3.701,-1.606c0.768,-0.907 1.187,-2.164 1.187,-3.421l0,-0.21l68.501,-13.057c0.419,2.094 2.025,3.91 4.748,3.91c0.419,-0 0.838,-0.07 1.187,-0.14l7.332,29.467c-2.025,0.769 -3.072,2.724 -3.072,4.749c-0,2.164 1.257,4.399 3.771,4.958l-0,41.617l47.203,-34.495c0.768,0.698 1.885,1.187 3.282,1.187c1.536,-0 2.793,-0.559 3.701,-1.606c0.768,-0.908 1.187,-2.165 1.187,-3.422c-0,-1.675 -0.768,-3.351 -2.235,-4.329l9.637,-47.762l658.053,0l0,-1.746l-654.702,0c0.978,-0.977 1.536,-2.374 1.536,-3.77c0,-1.327 -0.419,-2.514 -1.187,-3.422c-0.907,-1.047 -2.164,-1.606 -3.7,-1.606c-0.978,0 -1.816,0.21 -2.514,0.629l-22.904,-36.031c0.489,-0.838 0.699,-1.746 0.699,-2.793c-0,-0.489 -0.07,-0.908 -0.14,-1.397l79.114,-41.547c0.699,1.536 2.165,2.723 4.4,2.723c2.234,-0 3.7,-1.187 4.399,-2.793l61.238,56.281l0.28,0.209l76.6,0l25.208,18.225l431.673,0l0,-1.745l-431.114,-0l-24.999,-18.016l-0.209,-0.14l-76.531,0l-61.727,-56.769l-0,-0.28c-0,-0.419 -0.07,-0.768 -0.14,-1.187l20.39,-2.583l54.884,47.482l0.279,0.21l59.563,-0l29.677,23.602l0.209,0.209l429.649,0l-0,-1.746l-429.02,0l-29.677,-23.601l-0.209,-0.21l-59.493,0l-53.418,-46.226l25.347,-3.212c0.349,2.165 2.025,4.12 4.818,4.12c1.327,0 2.374,-0.419 3.142,-1.117l41.617,37.986l0.28,0.21l41.268,-0l32.539,25.836l0.21,0.209l422.805,0l-0,-1.746l-422.316,0l-32.54,-25.836l-0.209,-0.209l-41.199,-0l-41.407,-37.847c0.349,-0.698 0.558,-1.466 0.628,-2.304l33.517,0c0.349,2.235 1.955,4.19 4.818,4.19c1.537,-0 2.793,-0.559 3.701,-1.606c0.28,-0.28 0.489,-0.629 0.699,-1.048l64.52,0l55.024,39.173l0.21,0.14l374.414,0l0,-1.746l-373.856,0l-55.024,-39.173l-0.209,-0.139l-64.73,-0c-0,-0.21 0.069,-0.419 0.069,-0.699c0,-0.558 -0.069,-1.117 -0.279,-1.676l11.941,-8.658l61.448,-0l51.323,37.986l369.248,-0l-0,-1.606l-368.62,-0l-51.113,-37.777l-0.21,-0.139l-59.632,-0l17.247,-12.43c0.768,0.629 1.816,0.978 3.072,0.978c2.654,-0 4.26,-1.746 4.749,-3.771l454.507,-0.419l-0,-1.745l-454.437,0.419c-0.07,-1.118 -0.489,-2.165 -1.188,-2.933c-0.139,-0.21 -0.349,-0.349 -0.488,-0.489l9.077,-21.158l67.803,0l58.166,-38.195l321.067,-0l-0,-1.746l-321.486,0l-58.166,38.196l-66.546,-0l4.748,-11.033l58.516,-0l56.42,-36.59l326.583,0l0,-1.745l-327.071,-0l-56.491,36.519l-57.258,0l5.516,-12.848c0.419,0.14 0.908,0.21 1.397,0.21c2.653,-0 4.259,-1.746 4.748,-3.771l40.5,-0l55.233,-36.939l333.357,0l-0,-1.745l-333.846,-0l-55.233,36.938l-39.802,0c-0.209,-2.374 -1.815,-4.608 -4.888,-4.608c-0.279,-0 -0.558,-0 -0.838,0.069l-13.546,-34.215c0.908,-0.838 1.397,-2.095 1.536,-3.352l39.662,0l55.234,-48.32l351.79,-0l0,-1.746l-352.489,0l-55.233,48.321l-39.103,-0c-0.489,-2.025 -2.095,-3.771 -4.749,-3.771c-0.908,-0 -1.745,0.209 -2.444,0.628l-17.736,-14.454l59.912,0l53.837,-47.832l358.075,0l0,-1.745l-358.773,-0l-53.837,47.831l-61.379,0l-8.518,-6.913l-0,-0.209l63.612,-0l55.234,-49.228l363.591,-0l0,-1.746l-364.289,-0l-55.234,49.228l-63.124,0c-0.559,-1.885 -2.095,-3.491 -4.678,-3.491c-0.21,-0 -0.489,-0 -0.699,0.07l-27.372,-29.188l47.343,-30.305l467.984,-0l-0,-1.746l-468.543,0l-48.111,30.724l-7.052,-7.541c0.07,-0.419 0.139,-0.768 0.139,-1.187c0,-0.349 0,-0.699 -0.069,-1.048l50.694,-32.05l473.011,-0Zm-437.538,144.822c-0.419,0.488 -0.769,1.117 -0.978,1.745l-36.659,-5.446l21.297,-31.213c0.628,0.279 1.396,0.489 2.234,0.489c0.419,-0 0.769,-0.07 1.118,-0.14l13.476,34.076c-0.139,0.14 -0.279,0.279 -0.488,0.489Zm-25.418,57.328c-0.069,0.07 -0.139,0.14 -0.209,0.279l-52.58,-41.058l-0,-0.07l38.684,-18.923l0.14,1.187l0.419,-0.559l15.292,57.887c-0.698,0.279 -1.257,0.698 -1.746,1.257Zm-54.605,-157.67l0.14,-0.07l27.093,28.839c-0.209,0.209 -0.419,0.418 -0.628,0.628l-55.304,-21.228c-0.139,-0.907 -0.558,-1.745 -1.117,-2.444l1.187,-0.907l15.222,-11.801c0.699,0.419 1.537,0.628 2.514,0.628c1.606,0 2.793,-0.628 3.631,-1.536l6.774,7.262l0.488,0.629Zm41.827,41.896l19.971,16.27c-0.419,0.768 -0.699,1.676 -0.699,2.653c0,1.327 0.489,2.654 1.397,3.562l-20.739,30.374l-8.1,-58.236c0.07,-0.069 0.21,-0.209 0.279,-0.279c0.14,-0.14 0.28,-0.349 0.35,-0.489l6.913,5.656l-0,0.489l0.628,0Zm-242.65,299.141c0.907,-0.21 1.675,-0.698 2.304,-1.397c0.768,-0.907 1.187,-2.164 1.187,-3.421l-0,-0.419l39.662,7.82c-0.07,0.28 -0.07,0.559 -0.07,0.838c0,0.559 0.07,1.187 0.279,1.746l-43.362,31.702l-0,-36.869Zm125.619,-378.954l38.824,42.944c-0.489,0.349 -0.908,0.768 -1.187,1.257l-86.027,-5.656c-0.07,-0.559 -0.28,-1.117 -0.559,-1.606l48.53,-37.009l0.419,0.07Zm74.995,155.366l-23.392,67.663c-0.21,0 -0.419,-0.07 -0.629,-0.07c-0.489,0 -0.977,0.07 -1.396,0.21l-4.888,-8.17l-35.193,-58.934c0.488,-0.419 0.768,-0.978 0.907,-1.606l21.577,0.279l43.014,0.628Zm-354.514,158.928l14.733,-14.175l32.4,-31.283c0.21,-0 0.35,0.07 0.559,0.07c0.419,-0 0.838,-0.07 1.117,-0.21l29.886,35.403c-0.768,0.698 -1.187,1.676 -1.396,2.653l-39.453,4.539l-37.148,4.26c-0.139,-0.489 -0.419,-0.908 -0.698,-1.257Zm179.806,-32.749l-57.329,14.454l-36.17,9.147c-0.768,-1.396 -2.165,-2.374 -4.19,-2.374c-0.698,0 -1.327,0.14 -1.885,0.349l-30.026,-35.472c0.07,-0.07 0.07,-0.14 0.139,-0.279l129.6,13.476c-0.139,0.28 -0.139,0.489 -0.139,0.699Zm-190.141,-73.11l27.862,-48.53c0.419,0.07 0.838,0.14 1.326,0.14c2.235,-0 3.701,-1.257 4.399,-2.863l58.027,32.47c-0.628,0.907 -0.978,2.025 -0.978,3.072l-90.636,15.711Zm34.076,-53.348l0,-0.349l97.479,-15.432c0.349,0.978 0.908,1.816 1.746,2.444l-34.704,47.064c-0.768,-0.629 -1.816,-1.048 -3.073,-1.048c-1.396,0 -2.513,0.489 -3.351,1.257l-58.306,-32.609c0.139,-0.419 0.209,-0.908 0.209,-1.327Zm98.387,-20.948c-0.768,0.908 -1.187,2.164 -1.187,3.421l-97.549,15.432c-0.209,-0.628 -0.628,-1.187 -1.047,-1.676l46.295,-85.957c0.21,-0 0.419,0.07 0.699,0.07c0.907,-0 1.745,-0.21 2.374,-0.559l51.463,68.361c-0.419,0.279 -0.769,0.559 -1.048,0.908Zm-32.819,55.932l35.123,-47.623c0.419,0.14 0.838,0.21 1.327,0.21c0.419,-0 0.838,-0.07 1.187,-0.14l3.492,21.786l4.189,26.046c-0.698,0.489 -1.187,1.187 -1.396,1.955l-43.433,-0.768c-0,-0.559 -0.209,-1.047 -0.489,-1.466Zm-41.268,73.179c-0.628,-0.14 -1.327,-0 -1.885,0.279l-56.56,-53.977l90.775,-15.641c0.28,1.467 1.118,2.793 2.514,3.492l-34.844,65.847Zm-50.834,-157.671c0.977,0 1.815,-0.209 2.514,-0.628l17.107,45.458c-1.257,0.488 -2.164,1.536 -2.583,2.723l-53.279,-5.377c0,-0.558 -0.069,-1.117 -0.279,-1.606l34.774,-40.849c0.559,0.21 1.117,0.279 1.746,0.279Zm128.552,26.954c-0.628,-0 -1.257,0.07 -1.746,0.279l-51.462,-68.57c1.047,-0.978 1.606,-2.375 1.606,-3.841c-0,-0.279 -0,-0.559 -0.07,-0.838l64.171,-40.43c0.629,0.978 1.536,1.676 2.793,1.955l-13.895,111.584c-0.419,-0.069 -0.908,-0.139 -1.397,-0.139Zm-59.772,-68.222c0.209,0.21 0.489,0.419 0.768,0.559l-46.016,85.469c-0.559,-0.21 -1.187,-0.349 -1.886,-0.349l-0.07,-0l-17.526,-46.436c0.558,-0.838 0.908,-1.885 0.908,-3.002c-0,-0.489 -0.07,-0.908 -0.21,-1.397l32.051,-17.457l31.981,-17.387Zm70.805,125.41c-0.21,0 -0.349,0 -0.559,0.07l-7.751,-47.901c1.327,-0.908 2.025,-2.374 2.165,-3.98l65.917,-9.078c0.07,0.14 0.14,0.279 0.279,0.349l-58.375,60.89c-0.419,-0.21 -1.048,-0.35 -1.676,-0.35Zm-176.035,-40.29l53.208,5.377l0,0.209c0,1.606 0.699,3.142 1.956,4.12l-27.792,48.39l-28.21,-56.49c0.349,-0.419 0.628,-0.978 0.838,-1.606Zm178.828,41.478c-0.07,-0.14 -0.21,-0.21 -0.349,-0.28l58.306,-60.889c0.349,0.209 0.768,0.349 1.257,0.349c0.209,-0 0.349,-0 0.558,-0.07l48.6,63.124l-107.674,-0.908c-0.139,-0.489 -0.419,-0.977 -0.698,-1.326Zm59.144,-66.337c-0.768,0 -1.467,0.28 -1.955,0.838c-0.419,0.489 -0.629,1.048 -0.629,1.676l-65.638,9.078c-0.069,-0.349 -0.209,-0.629 -0.349,-0.908l92.871,-92.032c0.279,0.279 0.628,0.488 0.977,0.698l-25.277,80.65Zm22.764,-86.167c-0.07,0.28 -0.07,0.629 -0.07,0.978c-0,1.047 0.279,2.165 0.907,3.003l-92.8,91.823c-0.349,-0.489 -0.838,-0.838 -1.397,-1.118l13.966,-111.863l0.07,-0c2.513,-0 4.119,-1.606 4.678,-3.492l69.827,19.273l4.819,1.396Zm-84.073,-21.576c0,0.279 0.07,0.558 0.14,0.838l-64.032,40.29c-0.209,-0.349 -0.419,-0.698 -0.628,-0.977c-0.14,-0.14 -0.28,-0.28 -0.419,-0.419l3.77,-9.148l10.963,-26.534l38.475,-3.073l11.731,-0.977Zm-71.433,216.395l18.644,-35.333l0.558,0c1.537,0 2.793,-0.558 3.701,-1.606c0.699,-0.838 1.117,-1.885 1.187,-3.072l43.154,0.768c-0,0.209 0.069,0.419 0.139,0.628l-83.304,69.758c-0.07,-0.07 -0.07,-0.14 -0.139,-0.209l16.06,-30.934Zm183.925,-40.64l-48.669,-63.193l83.374,24.649l-0,0.209l-0.21,0.21l0.21,-0l-34.705,38.125Zm-68.919,85.539c-0.419,0.489 -0.768,1.117 -0.978,1.746l-129.6,-13.547c0,-0.349 0,-0.628 -0.07,-0.977l83.374,-69.758c0.07,0.14 0.21,0.279 0.28,0.419c0.698,0.768 1.606,1.187 2.723,1.187c0.279,0 0.559,0 0.838,-0.07l44.829,79.883c-0.489,0.279 -0.977,0.628 -1.396,1.117Zm137.56,-226.73l-32.261,100.063c-0.419,0.14 -0.768,0.349 -1.047,0.698c-0.07,0.07 -0.07,0.07 -0.14,0.14l-83.723,-24.719l0,-0.279c0,-0.28 -0.07,-0.489 -0.139,-0.768l115.355,-77.369c0.488,0.908 1.117,1.676 1.955,2.234Zm-131.416,225.752c-0.698,-0.419 -1.536,-0.628 -2.513,-0.628c-0.489,-0 -0.978,0.07 -1.397,0.209l-44.829,-79.812c1.187,-0.559 1.815,-1.676 2.025,-2.863l107.813,0.838l-49.158,66.266l-11.941,15.99Zm129.181,-230.081c0,0.419 0.07,0.838 0.14,1.257l-115.425,77.439c-0.07,-0.14 -0.14,-0.21 -0.209,-0.28c-0.14,-0.139 -0.28,-0.279 -0.419,-0.349l25.277,-80.72c0.21,-0 0.419,0.069 0.629,0.069c2.863,0 4.538,-2.094 4.818,-4.329l85.329,5.656c-0.07,0.349 -0.14,0.838 -0.14,1.257Zm67.803,28.629l-29.049,77.928l-0.209,-0.14l0.07,0.14l-65.289,-0.838c-0.07,-0.14 -0.14,-0.28 -0.209,-0.419l93.08,-77.299c0.419,0.349 0.977,0.558 1.606,0.628Zm-307.73,-32.679l-5.237,12.709c-0.559,-0.21 -1.187,-0.35 -1.885,-0.35c-2.095,0 -3.492,1.048 -4.26,2.514l-44.41,-24.439c0.07,-0.349 0.07,-0.699 0.07,-1.048l-0,-0.558l64.8,-10.684l-9.078,21.856Zm-84.072,57.538c-0,1.396 0.489,2.793 1.466,3.701l-34.215,40.011c-0.419,-0.489 -0.978,-0.838 -1.536,-1.117l-2.933,-47.204c1.815,-0.349 3.002,-1.676 3.491,-3.282l33.797,6.774c-0,0.349 -0.07,0.768 -0.07,1.117Zm-3.352,111.933c0.21,-0.209 0.279,-0.419 0.419,-0.698l55.722,53.069c-0.139,0.349 -0.209,0.768 -0.209,1.187l-61.378,6.354c-0.35,-1.396 -1.257,-2.653 -2.724,-3.282l7.821,-56.35c0.07,-0.07 0.21,-0.14 0.349,-0.28Zm149.221,-199.217c-0.419,0.558 -0.628,1.256 -0.768,2.025l-11.382,0.907l-37.567,3.003l19.692,-25.557c0.698,0.419 1.536,0.628 2.444,0.628c1.606,0 2.793,-0.628 3.631,-1.536l23.95,20.53Zm-122.407,24.16c2.095,-0 3.491,-1.048 4.259,-2.514l44.411,24.44c-0.07,0.349 -0.07,0.698 -0.07,1.047c-0,0.908 0.209,1.816 0.628,2.584l-63.682,34.704c-0.28,-0.419 -0.629,-0.838 -1.048,-1.187l14.804,-59.074l0.698,-0Zm79.673,-29.956l-9.078,11.801l-1.187,-0.21l-45.178,-8.589c0.07,-0.279 0.14,-0.558 0.14,-0.907l65.847,-18.574c0.209,0.558 0.489,1.117 0.908,1.606l-11.452,14.873Zm-166.678,212.624l27.931,-67.174c0.698,-0.069 1.327,-0.279 1.815,-0.558l27.862,55.652c-0.699,0.14 -1.257,0.559 -1.606,1.118l-55.862,11.521c-0.07,-0.279 -0.07,-0.419 -0.14,-0.559Zm158.159,88.123l0,-0.419c0,-0.349 -0.07,-0.768 -0.14,-1.118l6.494,-1.675l86.656,-21.856c0.21,0.698 0.559,1.326 1.048,1.885l-16.48,20.739l-19.831,24.858c-0.698,-0.419 -1.536,-0.628 -2.513,-0.628c-1.257,-0 -2.375,0.419 -3.212,1.187l-29.119,-12.848l-22.903,-10.125Zm111.305,70.665c-0.279,0.349 -0.489,0.698 -0.698,1.117l-40.5,-8.03c-0.21,-0.559 -0.559,-1.117 -0.978,-1.536l5.656,-4.12l27.023,-19.482c0.699,1.676 2.165,3.003 4.469,3.003c0.21,-0 0.419,-0 0.699,-0.07l6.843,27.652c-1.048,0.209 -1.886,0.698 -2.514,1.466Zm62.984,-196.215l24.23,-26.604c0.419,0.419 1.048,0.628 1.746,0.628l0.21,0l9.566,15.991l30.584,51.113c-0.279,0.21 -0.558,0.419 -0.837,0.699c-0.07,0.069 -0.07,0.069 -0.14,0.139l-75.484,-31.003l10.125,-10.963Zm-69.478,157.251c-0.908,0.21 -1.676,0.699 -2.234,1.397l-42.525,-7.611c-0.21,-0.768 -0.489,-1.467 -1.048,-2.095l36.311,-45.597c0.698,0.349 1.466,0.558 2.374,0.558l0.488,0l6.634,53.348Zm19.063,-349.905l13.546,44.62c-1.117,0.419 -1.885,1.257 -2.374,2.234l-74.855,-20.739c0,-0.488 -0.069,-0.977 -0.209,-1.466l63.613,-24.789l0.279,0.14Zm-196.844,47.134l-14.663,58.724c-0.35,-0.139 -0.768,-0.279 -1.187,-0.349l-3.073,-8.379l-9.706,-26.395c1.606,-0.908 2.374,-2.653 2.374,-4.399c0,-0.698 -0.139,-1.396 -0.419,-2.025l24.929,-18.225c0.488,0.419 1.117,0.838 1.745,1.048Zm-12.918,280.077l76.182,-8.728c0.14,1.327 0.838,2.653 1.955,3.491l-13.895,32.61c-0.35,-0.07 -0.769,-0.14 -1.188,-0.14c-1.466,0 -2.653,0.559 -3.421,1.397l-59.563,-28.141l0,-0.139c0,-0.14 0,-0.21 -0.07,-0.35Zm379.024,-246.49c-0,1.187 0.419,2.443 1.187,3.351l-92.871,77.09l31.981,-99.155c0.28,0.07 0.559,0.07 0.838,0.07c1.536,-0 2.793,-0.559 3.701,-1.606c0.628,-0.769 1.047,-1.676 1.187,-2.724l54.396,20.879c-0.28,0.698 -0.419,1.396 -0.419,2.095Zm-40.989,-45.668c-0.14,0.489 -0.21,0.908 -0.21,1.397c0,1.187 0.419,2.374 1.118,3.352l-16.34,12.708l-0.14,0.14c-0.698,-0.349 -1.466,-0.559 -2.444,-0.559c-0.488,0 -0.907,0.07 -1.326,0.14l-36.66,-40.5l56.002,23.322Zm-67.314,-21.646l-42.106,32.12c-0.279,-0.279 -0.558,-0.488 -0.907,-0.628l7.611,-21.996l5.656,-16.409c1.466,-0 2.793,-0.559 3.631,-1.606c0.698,-0.838 1.117,-1.955 1.187,-3.142l30.235,7.541l-5.307,4.12Zm-34.634,-11.871c-0,2.025 1.117,4.12 3.282,4.818l-13.128,38.056c-0.279,-0.07 -0.628,-0.07 -0.908,-0.07l-0.349,0l-13.476,-44.34l24.719,0.698c-0.14,0.28 -0.14,0.559 -0.14,0.838Zm-77.299,-13.546l-16.34,33.307c-0.419,-0.069 -0.838,-0.139 -1.257,-0.139c-1.117,-0 -2.094,0.279 -2.932,0.907l-24.23,-20.738c0.279,-0.629 0.418,-1.397 0.418,-2.095l0,-0.559l41.618,-12.15c0.628,0.699 1.536,1.257 2.723,1.467Zm-124.153,36.589l-0,-0.558c1.676,-0.14 2.863,-0.908 3.631,-2.095l42.804,8.1l-61.937,10.264c-0.14,-0.349 -0.349,-0.698 -0.559,-0.977l12.918,-14.734l3.143,0Zm-52.86,46.785c0.349,-0 0.629,-0 0.978,-0.07l10.544,28.629l2.095,5.656c-1.118,0.14 -2.095,0.698 -2.863,1.536c-0.21,0.28 -0.419,0.559 -0.559,0.838l-11.033,-2.234l-23.043,-4.609l0,-0.07c0,-1.047 -0.279,-2.164 -0.907,-3.072l22.344,-27.233c0.699,0.419 1.467,0.629 2.444,0.629Zm-29.257,34.704l2.932,46.784l-0.349,0c-1.536,0 -2.793,0.559 -3.701,1.606c-0.139,0.14 -0.209,0.28 -0.349,0.419l-25.277,-11.94c0.139,-0.489 0.209,-0.978 0.209,-1.467c0,-0.558 -0.07,-1.117 -0.209,-1.606l25.207,-34.215c0.419,0.209 0.978,0.349 1.537,0.419Zm-27.722,38.754c0.14,-0.14 0.279,-0.349 0.349,-0.489l7.891,3.771l17.317,8.17c-0.14,0.489 -0.209,1.047 -0.209,1.606c-0,1.187 0.418,2.444 1.117,3.352l-24.998,18.434l-2.514,1.816c-0.07,-0.07 -0.07,-0.07 -0.14,-0.14l0,-35.542c0.489,-0.28 0.838,-0.559 1.187,-0.978Zm58.516,76.182c0.069,0.349 0.139,0.628 0.279,0.977l-36.241,43.154c-0.488,-0.14 -0.977,-0.21 -1.536,-0.21c-0.558,0 -1.047,0.07 -1.536,0.21l-16.34,-32.749l55.374,-11.382Zm-34.425,44.969l35.961,-42.874c0.279,0.07 0.558,0.139 0.838,0.209l-1.327,9.567l-6.354,45.946l-0.28,-0c-1.745,-0 -3.072,0.768 -3.84,1.885l-23.253,-10.055c0,-0.209 0.07,-0.489 0.07,-0.698c0,-1.536 -0.628,-3.003 -1.815,-3.98Zm32.469,21.297c0.699,-0.838 1.118,-1.955 1.187,-3.142l0.629,-0.07l61.239,-6.354c0.069,0.07 0.139,0.139 0.139,0.209l-46.854,45.248c-0.698,-0.419 -1.536,-0.698 -2.584,-0.698l-0.488,0l-13.756,-34.774c0.209,-0.14 0.349,-0.279 0.488,-0.419Zm84.352,67.872l13.896,-32.539c0.419,0.139 0.907,0.209 1.396,0.209c2.304,0 3.841,-1.326 4.539,-3.002l10.474,4.608l40.919,18.016c-0.21,0.419 -0.349,0.838 -0.489,1.257l-69.129,13.197c-0.349,-0.698 -0.908,-1.327 -1.606,-1.746Zm80.371,-9.775l30.585,5.516l10.893,1.955c-0.21,0.629 -0.349,1.257 -0.349,1.955l-0,0.349l-15.293,11.033l-18.364,13.267c-0.419,-0.209 -0.978,-0.349 -1.536,-0.349l-7.472,-30.305c0.908,-0.908 1.467,-2.165 1.536,-3.421Zm48.251,13.965c1.746,-0.838 2.654,-2.723 2.654,-4.539c-0,-1.326 -0.419,-2.514 -1.188,-3.421c-0.139,-0.14 -0.209,-0.28 -0.349,-0.349l14.943,-12.011c0.21,0.14 0.35,0.28 0.559,0.349l-9.706,47.972l-6.913,-28.001Zm13.966,-24.579c-0,1.047 0.279,2.164 0.907,3.072l-15.222,12.22c-0.489,-0.21 -1.047,-0.279 -1.676,-0.349l-6.634,-53.558c0.14,-0.07 0.21,-0.139 0.35,-0.139l22.973,36.03c-0.489,0.838 -0.698,1.746 -0.698,2.724Zm40.43,-129.321l21.576,35.961c-2.164,0.629 -3.351,2.724 -3.351,4.749l-79.464,41.757l61.239,-82.467Zm23.322,35.822l-18.993,-31.632l-2.374,-3.91l18.434,7.541l55.723,22.903c-0.07,0.14 -0.07,0.28 -0.14,0.419l-49.228,6.285c-0.769,-0.908 -1.886,-1.536 -3.422,-1.606Zm-128.133,-219.328l2.304,-4.748l14.315,-29.188c1.675,-0.28 2.863,-1.257 3.491,-2.514l43.223,13.616l-62.007,24.161c-0.349,-0.559 -0.768,-0.978 -1.326,-1.327Zm-104.951,-4.19l3.352,-2.514l0.558,0l0,-0.419l10.335,-7.89c0.698,0.419 1.606,0.698 2.583,0.698c2.584,0 4.12,-1.606 4.679,-3.561l39.173,-3.282l-60.68,17.108c0.07,-0 0,-0.07 0,-0.14Zm-115.076,167.935c0.629,-0.558 0.908,-1.327 0.908,-2.095c0,-0.279 -0.07,-0.488 -0.07,-0.768l27.861,-20.529c0.419,0.209 0.838,0.419 1.327,0.489l-26.953,64.8l-3.073,-41.897Zm460.931,-99.993c0.349,-0.07 0.699,-0.139 1.048,-0.279l8.239,59.214l-38.125,18.713l28.838,-77.648Zm-51.742,148.942c-0.419,-0.419 -0.838,-0.838 -1.396,-1.047l22.973,-66.406l16.968,65.428c-1.117,0.21 -2.025,0.698 -2.723,1.536c-0.419,0.489 -0.768,1.118 -0.978,1.746l-34.146,0c-0.139,-0.489 -0.349,-0.908 -0.698,-1.257Zm42.804,-0.908c-0.768,-0.698 -1.885,-1.187 -3.212,-1.187l-17.247,-66.615l52.161,40.779c-0.349,0.699 -0.489,1.536 -0.489,2.374c0,0.699 0.14,1.327 0.349,1.956l-31.562,22.693Zm36.031,-29.746c-0.279,-0 -0.558,-0 -0.838,0.07l-15.431,-58.516l36.938,5.517c0,0.209 -0.069,0.419 -0.069,0.628c-0,1.327 0.488,2.584 1.326,3.561l-21.018,48.81c-0.279,-0.07 -0.558,-0.07 -0.908,-0.07Zm-373.995,-188.394c-0.14,-0.14 -0.21,-0.28 -0.35,-0.35l0.838,0l-0.488,0.35Zm832.482,-12.988l-126.317,-0l-0,-0.07l126.317,-0l0,0.07Zm0,-19.831l-126.317,-0l-0,-0.07l126.317,-0l0,0.07Zm0,356.678l-126.317,0l-0,-0.07l126.317,0l0,0.07Zm0,-16.968l-126.317,0l-0,-0.07l126.317,0l0,0.07Zm0,-9.287l-126.317,0l-0,-0.07l126.317,0l0,0.07Zm0,-7.751l-126.317,0l-0,-0.07l126.317,0l0,0.07Zm0,-26.953l-126.317,-0l-0,-0.07l126.317,0l0,0.07Zm0,-14.105l-126.317,-0l-0,-0.07l126.317,-0l0,0.07Zm0,-55.304l-126.317,0.14l-0,-0.07l126.317,-0.139l0,0.069Zm0,-64.171l-126.317,-0l-0,-0.07l126.317,0l0,0.07Zm0,-11.242l-126.317,-0l-0,-0.07l126.317,-0l0,0.07Zm0,-18.435l-126.317,0l-0,-0.07l126.317,0l0,0.07Zm0,-55.163l-126.317,-0l-0,-0.07l126.317,-0l0,0.07Zm0,-18.924l-126.317,0l-0,-0.069l126.317,-0l0,0.069Zm0,-10.264l-126.317,-0l-0,-0.07l126.317,-0l0,0.07Zm0,-15.432l-126.317,-0l-0,-0.07l126.317,0l0,0.07Z" style="fill:#a1cae7;fill-rule:nonzero;"/></svg>