<svg id="Livello_1" data-name="Livello 1" xmlns="http://www.w3.org/2000/svg" xmlns:xlink="http://www.w3.org/1999/xlink" viewBox="0 0 384.51 142.38"><defs><style>.cls-1,.cls-3,.cls-4{fill:none;}.cls-2{clip-path:url(#clip-path);}.cls-3,.cls-4{stroke:#fff;}.cls-3{stroke-width:1.71px;}.cls-4{stroke-width:0.86px;}.cls-5{fill:#fff;}</style><clipPath id="clip-path" transform="translate(-105.23 -349.3)"><rect class="cls-1" x="105.23" y="349.3" width="384.51" height="142.38"/></clipPath></defs><title>logo header Bianco</title><g class="cls-2"><rect class="cls-3" x="242.99" y="0.86" width="140.66" height="140.66" rx="25.43"/><path class="cls-4" d="M488.38,462.9V378.07a27.38,27.38,0,0,0-21.85-26.82c1.11,18,.45,61.78-27.7,92.29-19.51,21.16-48.61,32.24-86.5,32.94a27.39,27.39,0,0,0,23.81,13.83H461A27.45,27.45,0,0,0,488.38,462.9Z" transform="translate(-105.23 -349.3)"/><path class="cls-5" d="M471.05,449.4V437.69h-2.59a13.19,13.19,0,0,1-4.77-.75,7.37,7.37,0,0,1-3.09-2.17,8.53,8.53,0,0,1-1.67-3.43,18.31,18.31,0,0,1-.5-4.51v-10h12.62V405.1H458.43V390.89H442V405.1h-6.26v11.7H442v17.55a16.24,16.24,0,0,0,1.34,6.94,12.76,12.76,0,0,0,3.6,4.64,14.57,14.57,0,0,0,5.3,2.63,24.38,24.38,0,0,0,6.48.84Zm-38.78-58.51H415.88V401.5h16.39ZM415.88,449.4h16.39V405.1H415.88ZM380,416.8h7.52a5.41,5.41,0,0,1,3.47,1,6.82,6.82,0,0,1,2,2.6,11.75,11.75,0,0,1,.88,3.38,30.41,30.41,0,0,1,.21,3.43,34.94,34.94,0,0,1-.21,3.88,10.31,10.31,0,0,1-.92,3.35,5.88,5.88,0,0,1-2.05,2.34,6.7,6.7,0,0,1-3.68.87h-3c-1.67,0-2.78-.27-3.34-.83s-.83-1.67-.83-3.34Zm12.37,32.6a21.49,21.49,0,0,0,8.85-1.59,14.05,14.05,0,0,0,5.65-4.47,18,18,0,0,0,3-7,48.13,48.13,0,0,0,0-18.22,18,18,0,0,0-3-7,14.05,14.05,0,0,0-5.65-4.47,21.49,21.49,0,0,0-8.85-1.59H380V390.89H363.56V440.2q0,4.44,2.39,6.81t6.81,2.39Zm-86.43-26.67a9,9,0,0,1,1.3-3.46,6,6,0,0,1,2.67-2.22,14.21,14.21,0,0,1,9.11,0,5.94,5.94,0,0,1,2.68,2.22,8.84,8.84,0,0,1,1.29,3.46,30.15,30.15,0,0,1,0,9,8.83,8.83,0,0,1-1.29,3.47,6,6,0,0,1-2.68,2.21,14,14,0,0,1-9.11,0,6,6,0,0,1-2.67-2.21,9,9,0,0,1-1.3-3.47,31.05,31.05,0,0,1,0-9m-3.26-17.17a17.47,17.47,0,0,0-7.89,3.47,14.37,14.37,0,0,0-4.48,6.93,45.71,45.71,0,0,0,0,22.61,14.37,14.37,0,0,0,4.48,6.9,17.57,17.57,0,0,0,7.89,3.47,72.57,72.57,0,0,0,23.53,0,17.63,17.63,0,0,0,7.94-3.47,14.29,14.29,0,0,0,4.47-6.9,45.71,45.71,0,0,0,0-22.61A14.29,14.29,0,0,0,334.1,409a17.52,17.52,0,0,0-7.94-3.47,72.57,72.57,0,0,0-23.53,0M254.82,449.4h16.39V428.33q0-5.67,2.17-8.69c1.45-2,4.07-3,7.86-3h6.1V405.1H276.56a44.48,44.48,0,0,0-9.41.88,16.72,16.72,0,0,0-6.81,3,13,13,0,0,0-4.14,5.65,24.41,24.41,0,0,0-1.38,8.86Zm-36.35-27.25a7.72,7.72,0,0,1,.58-3.3,4.31,4.31,0,0,1,1.59-1.84,6.15,6.15,0,0,1,2.34-.84,19,19,0,0,1,2.93-.21c.61,0,1.35,0,2.21.09a10.46,10.46,0,0,1,2.43.42,5,5,0,0,1,1.92,1,2.39,2.39,0,0,1,.79,1.88c0,.22,0,.49,0,.79a2.46,2.46,0,0,1-.29.92,1.9,1.9,0,0,1-.8.76,3.35,3.35,0,0,1-1.54.29Zm29.59,27.25V438H226.58q-4.44,0-6.27-1.17t-1.84-4.35h24.15a6.81,6.81,0,0,0,3.55-.83,5.92,5.92,0,0,0,2.14-2.22,9.78,9.78,0,0,0,1-3.13,21.87,21.87,0,0,0,.29-3.68,28.29,28.29,0,0,0-1.38-9.86,10.77,10.77,0,0,0-4.26-5.44,16.69,16.69,0,0,0-7.35-2.29,106,106,0,0,0-10.74-.46,89,89,0,0,0-12.21.67,13.22,13.22,0,0,0-7.23,3A12.26,12.26,0,0,0,203,415a61,61,0,0,0-.92,12,78,78,0,0,0,.66,11.28,14.9,14.9,0,0,0,2.55,6.81,9.56,9.56,0,0,0,5.23,3.39,33.78,33.78,0,0,0,8.69.92Zm-80.74-32.6h7.52a5.41,5.41,0,0,1,3.47,1,6.72,6.72,0,0,1,2,2.6,11.75,11.75,0,0,1,.88,3.38,30.41,30.41,0,0,1,.21,3.43,34.94,34.94,0,0,1-.21,3.88,10.31,10.31,0,0,1-.92,3.35,5.8,5.8,0,0,1-2,2.34,6.7,6.7,0,0,1-3.68.87h-3c-1.68,0-2.79-.27-3.35-.83s-.83-1.67-.83-3.34Zm12.37,32.6a21.54,21.54,0,0,0,8.86-1.59,14.09,14.09,0,0,0,5.64-4.47,18,18,0,0,0,3-7,48.13,48.13,0,0,0,0-18.22,18,18,0,0,0-3-7,14.09,14.09,0,0,0-5.64-4.47,21.54,21.54,0,0,0-8.86-1.59H167.32V390.89H150.93V440.2q0,4.44,2.39,6.81t6.81,2.39Zm-35.11-58.51H128.2V401.5h16.38ZM128.2,449.4h16.38V405.1H128.2Zm-22.73,0h16.38V390.89H105.47Z" transform="translate(-105.23 -349.3)"/><path class="cls-5" d="M331.16,466.05q.06-.12.12-.27c0-.09.09-.13.17-.13a.19.19,0,0,1,.17.13c0,.1.09.19.13.27l1.59,3.87h-3.8Zm-4.07,7.07h1.18l.94-2.29h4.46l.95,2.29h1.18l-3.19-7.59a2,2,0,0,0-.44-.68,1,1,0,0,0-.72-.25,1,1,0,0,0-.73.24,2.21,2.21,0,0,0-.43.69Zm-6,0v-.91h-3.07a3.74,3.74,0,0,1-1.3-.2,2,2,0,0,1-.84-.6,2.56,2.56,0,0,1-.45-1,7.14,7.14,0,0,1-.13-1.48,7,7,0,0,1,.14-1.48,2.52,2.52,0,0,1,.46-1,1.92,1.92,0,0,1,.86-.6,3.84,3.84,0,0,1,1.32-.19H321v-.92h-3.26A4.16,4.16,0,0,0,316,465a2.77,2.77,0,0,0-1.09.9,3.39,3.39,0,0,0-.56,1.33,9.1,9.1,0,0,0,0,3.29,3.56,3.56,0,0,0,.55,1.35,2.74,2.74,0,0,0,1.08.9,4,4,0,0,0,1.74.33Zm-13.7-8.43h-1.12v8.43h1.12Zm-10.72,8.43v-7.51h3.4v-.92h-7.93v.92h3.41v7.51Zm-13.27-7.07q.06-.12.12-.27a.19.19,0,0,1,.17-.13.21.21,0,0,1,.18.13q.06.15.12.27l1.59,3.87h-3.79Zm-4.07,7.07h1.18l.94-2.29H286l1,2.29h1.18l-3.19-7.59a1.83,1.83,0,0,0-.45-.68,1.18,1.18,0,0,0-1.44,0,2,2,0,0,0-.43.69ZM271.83,466a.51.51,0,0,1,.09-.18q.06-.09.12-.09a.16.16,0,0,1,.1,0s.06.09.06.2l0,7.14h1.12v-7.57a.86.86,0,0,0-.29-.7,1.18,1.18,0,0,0-.8-.25,1,1,0,0,0-.79.28,2.35,2.35,0,0,0-.4.68l-2.51,6.24-.1.2a.14.14,0,0,1-.12.09.14.14,0,0,1-.13-.09,1.29,1.29,0,0,1-.09-.2l-2.51-6.24-.18-.38a1.28,1.28,0,0,0-.24-.31,1.08,1.08,0,0,0-.33-.2,1.27,1.27,0,0,0-.46-.07,1.15,1.15,0,0,0-.79.25.89.89,0,0,0-.28.7v7.57h1.12l0-7.14a.33.33,0,0,1,0-.17.15.15,0,0,1,.11-.07s.08,0,.12.09a.52.52,0,0,1,.1.18l2.5,6.24a2.72,2.72,0,0,0,.39.71.81.81,0,0,0,.65.26.78.78,0,0,0,.64-.26,3.06,3.06,0,0,0,.38-.71Zm-22.6,7.11h1.12v-6.93a.57.57,0,0,1,.16-.47.78.78,0,0,1,.45-.11h3a1.82,1.82,0,0,1,.68.11.81.81,0,0,1,.4.32,1.28,1.28,0,0,1,.18.51,4.81,4.81,0,0,1,0,.7c0,.25,0,.49,0,.71a1.84,1.84,0,0,1-.14.56.84.84,0,0,1-.34.36,1.17,1.17,0,0,1-.61.14h-2a.54.54,0,0,0-.38.11.39.39,0,0,0-.13.31v.19a.46.46,0,0,0,.1.29,1.21,1.21,0,0,0,.21.24l3.23,3h1.49L253.15,470v-.06h1.36a1.94,1.94,0,0,0,.91-.19,1.61,1.61,0,0,0,.59-.54,2.59,2.59,0,0,0,.31-.85,5.35,5.35,0,0,0,.1-1.1,4.83,4.83,0,0,0-.1-1.06,2.08,2.08,0,0,0-.34-.8,1.58,1.58,0,0,0-.63-.51,2.23,2.23,0,0,0-1-.19h-3.9a1.1,1.1,0,0,0-1.24,1.28Zm-13.83-5.81a2.23,2.23,0,0,1,.48-1.05,1.84,1.84,0,0,1,.93-.57,6.22,6.22,0,0,1,3,0,1.84,1.84,0,0,1,.93.57,2.23,2.23,0,0,1,.48,1.05,7.91,7.91,0,0,1,.14,1.6,8,8,0,0,1-.14,1.61,2.32,2.32,0,0,1-.48,1.05,1.9,1.9,0,0,1-.93.56,6.57,6.57,0,0,1-3,0,1.9,1.9,0,0,1-.93-.56,2.32,2.32,0,0,1-.48-1.05,8,8,0,0,1-.14-1.61,7.91,7.91,0,0,1,.14-1.6m.94-2.49a2.7,2.7,0,0,0-2,2.06,9.12,9.12,0,0,0,0,4.07,2.67,2.67,0,0,0,2,2.05,7.71,7.71,0,0,0,1.95.22,7.82,7.82,0,0,0,2-.22,2.84,2.84,0,0,0,1.3-.72,3.08,3.08,0,0,0,.71-1.33,9.52,9.52,0,0,0,0-4.07,3.08,3.08,0,0,0-.71-1.33,2.86,2.86,0,0,0-1.3-.73,7.38,7.38,0,0,0-2-.22,7.28,7.28,0,0,0-1.95.22m-13,8.3v-3.77h3.75v-.91H223.3v-2.26a.69.69,0,0,1,.1-.44c.07-.09.22-.13.45-.13h4.59v-.92h-5.08a1.35,1.35,0,0,0-.87.26,1.18,1.18,0,0,0-.31.94v7.23Zm-8.1-8.43h-1.1v6.93a.69.69,0,0,1,0,.13c0,.05-.05.07-.12.07s-.12,0-.14-.07l-.09-.13-4-6.41a2,2,0,0,0-.39-.42,1.07,1.07,0,0,0-.69-.19,1.14,1.14,0,0,0-.37,0,.84.84,0,0,0-.33.16.83.83,0,0,0-.24.31,1,1,0,0,0-.1.48v7.52h1.1v-6.88a.27.27,0,0,1,.06-.2l.1-.05q.12,0,.24.21l4,6.35a1.36,1.36,0,0,0,.5.53,1.27,1.27,0,0,0,.6.14.94.94,0,0,0,1-1.06Zm-14.58,0H199.5v8.43h1.12Zm-20,1.36q.06-.12.12-.27a.19.19,0,0,1,.17-.13c.08,0,.13,0,.18.13l.12.27,1.59,3.87h-3.79Zm-4.06,7.07h1.18l.93-2.29h4.47l.95,2.29h1.18l-3.19-7.59a2,2,0,0,0-.44-.68,1,1,0,0,0-.73-.25,1,1,0,0,0-.72.24,2.21,2.21,0,0,0-.43.69Zm-13.15,0h1.12v-6.93a.54.54,0,0,1,.16-.47.77.77,0,0,1,.44-.11h3a1.82,1.82,0,0,1,.68.11.91.91,0,0,1,.4.32,1.28,1.28,0,0,1,.18.51,4.81,4.81,0,0,1,0,.7c0,.25,0,.49,0,.71a1.84,1.84,0,0,1-.14.56.84.84,0,0,1-.34.36,1.17,1.17,0,0,1-.61.14H166.3a.53.53,0,0,0-.37.11.39.39,0,0,0-.13.31v.19a.52.52,0,0,0,.09.29,1.7,1.7,0,0,0,.22.24l3.23,3h1.49L167.37,470v-.06h1.36a1.92,1.92,0,0,0,.91-.19,1.54,1.54,0,0,0,.59-.54,2.39,2.39,0,0,0,.32-.85,5.35,5.35,0,0,0,.1-1.1,5.54,5.54,0,0,0-.1-1.06,2.25,2.25,0,0,0-.34-.8,1.58,1.58,0,0,0-.63-.51,2.23,2.23,0,0,0-1-.19h-3.9a1.1,1.1,0,0,0-1.24,1.28Zm-9.6,0v-7.51h3.4v-.92h-7.93v.92h3.41v7.51Zm-8.5,0v-.91h-4.67a.55.55,0,0,1-.42-.12.52.52,0,0,1-.11-.39v-7H139v7.42a.89.89,0,0,0,.31.79,1.24,1.24,0,0,0,.76.22Zm-17.05-7.07.12-.27a.19.19,0,0,1,.17-.13c.08,0,.13,0,.18.13s.08.19.12.27l1.59,3.87H126.7Zm-4.06,7.07h1.18l.93-2.29h4.47l.95,2.29H133l-3.19-7.59a2,2,0,0,0-.44-.68,1,1,0,0,0-.73-.25,1,1,0,0,0-.72.24,2.21,2.21,0,0,0-.43.69Zm-7.09-6,1.43-2.11-.84-.53-1.39,2.15Zm-5.61,6v-.91h-4.67a.55.55,0,0,1-.42-.12.52.52,0,0,1-.11-.39v-7h-1.12v7.42a.89.89,0,0,0,.31.79,1.22,1.22,0,0,0,.76.22Z" transform="translate(-105.23 -349.3)"/></g></svg>