<svg id="Livello_1" data-name="Livello 1" xmlns="http://www.w3.org/2000/svg" xmlns:xlink="http://www.w3.org/1999/xlink" viewBox="0 0 1584.06 1584.06"><defs><style>.cls-1{fill:none;}.cls-2{clip-path:url(#clip-path);}.cls-3{fill:#0082c2;}.cls-4{fill:#1f3b71;}</style><clipPath id="clip-path" transform="translate(494.46 371.25)"><rect class="cls-1" x="-494.46" y="-371.25" width="1584.06" height="1584.06"/></clipPath></defs><title>sfondo header completo</title><g class="cls-2"><path class="cls-3" d="M-180.64-371.25c-173.32,0-313.82,140.5-313.82,313.82V899c0,173.33,140.5,313.83,313.82,313.83H775.78c173.31,0,313.81-140.5,313.81-313.83V-57.43c0-173.32-140.5-313.82-313.81-313.82Z" transform="translate(494.46 371.25)"/><path class="cls-4" d="M1089.6,899V-57.44c0-153.67-110.53-281.29-256.38-308.33,22.41,341.48-12.51,1393.9-1290.39,1413.13,52.95,98.46,156.91,165.44,276.54,165.44h956.4c173.33,0,313.83-140.49,313.83-313.82" transform="translate(494.46 371.25)"/></g></svg>