<?xml version="1.0" encoding="UTF-8" standalone="no"?><!DOCTYPE svg PUBLIC "-//W3C//DTD SVG 1.1//EN" "http://www.w3.org/Graphics/SVG/1.1/DTD/svg11.dtd"><svg width="100%" height="100%" viewBox="0 0 1900 1900" version="1.1" xmlns="http://www.w3.org/2000/svg" xmlns:xlink="http://www.w3.org/1999/xlink" xml:space="preserve" xmlns:serif="http://www.serif.com/" style="fill-rule:evenodd;clip-rule:evenodd;stroke-linejoin:round;stroke-miterlimit:2;"><path id="lato-azzuro" d="M379.132,0c-207.886,0 -376.406,168.521 -376.406,376.406l-0,1147.18c-0,207.897 168.52,376.418 376.406,376.418l1147.16,0c207.874,0 376.395,-168.521 376.395,-376.418l-0,-1147.18c-0,-207.885 -168.521,-376.406 -376.395,-376.406l-1147.16,0Z" style="fill:#0082c2;fill-rule:nonzero;"/><path id="lato-blu" d="M1902.69,1523.62l-0,-1147.19c-0,-184.317 -132.574,-337.388 -307.511,-369.821c26.879,409.583 -15.005,1671.89 -1547.74,1694.96c63.51,118.096 188.203,198.434 331.691,198.434l1147.14,0c207.898,0 376.419,-168.509 376.419,-376.406" style="fill:#1f3b71;fill-rule:nonzero;"/></svg>