<?xml version="1.0" encoding="UTF-8" standalone="no"?><!DOCTYPE svg PUBLIC "-//W3C//DTD SVG 1.1//EN" "http://www.w3.org/Graphics/SVG/1.1/DTD/svg11.dtd"><svg width="100%" height="100%" viewBox="0 0 1400 1400" version="1.1" xmlns="http://www.w3.org/2000/svg" xmlns:xlink="http://www.w3.org/1999/xlink" xml:space="preserve" xmlns:serif="http://www.serif.com/" style="fill-rule:evenodd;clip-rule:evenodd;stroke-linejoin:round;stroke-miterlimit:2;"><path d="M221.79,-184.08c-173.32,-0 -313.82,140.5 -313.82,313.82l0,956.43c0,173.33 140.5,313.83 313.82,313.83l956.42,-0c173.31,-0 313.81,-140.5 313.81,-313.83l0,-956.43c0,-173.32 -140.5,-313.82 -313.81,-313.82l-956.42,-0Z" style="fill:#0082c2;fill-rule:nonzero;"/><path d="M1492.03,1086.17l0,-956.44c0,-153.67 -110.53,-281.29 -256.38,-308.33c22.41,341.48 -12.51,1393.9 -1290.39,1413.13c52.95,98.46 156.91,165.44 276.54,165.44l956.4,-0c173.33,-0 313.83,-140.49 313.83,-313.82" style="fill:#1f3b71;fill-rule:nonzero;"/></svg>