<?xml version="1.0" encoding="UTF-8" standalone="no"?><!DOCTYPE svg PUBLIC "-//W3C//DTD SVG 1.1//EN" "http://www.w3.org/Graphics/SVG/1.1/DTD/svg11.dtd"><svg width="100%" height="100%" viewBox="0 0 1039 432" version="1.1" xmlns="http://www.w3.org/2000/svg" xmlns:xlink="http://www.w3.org/1999/xlink" xml:space="preserve" xmlns:serif="http://www.serif.com/" style="fill-rule:evenodd;clip-rule:evenodd;stroke-linejoin:round;stroke-miterlimit:2;"><path d="M780.7,431l1.5,0l0,-1.9l-1.5,0l0,1.9Zm-42,-21c0.4,-10.5 7.4,-18.3 17.3,-18.3c10.6,0 16.3,9.2 16.6,18.3l-33.9,0Zm18.2,22c7,0 12.8,-3.8 16.2,-8.7l-1.4,-1c-3.2,4.5 -8.6,8.1 -14.8,8.1c-9.8,-0 -17.9,-7.4 -18.2,-18.9l35.8,-0l-0,-0.3c-0,-10 -5.8,-21.1 -18.4,-21.1c-11.1,0 -19.2,9 -19.2,20.8l0,0.2c0,12.8 9,20.9 20,20.9m-65.9,-1l1.7,0l-0,-22.2c-0,-9.6 7,-17.2 15.9,-17.2c10.1,-0 15.3,6.9 15.3,16.9l0,22.5l1.7,-0l-0,-22.6c-0,-11 -6,-18.3 -16.8,-18.3c-9.5,0 -14.8,7 -16.1,11.9l-0,-11l-1.7,0l-0,40Zm-32.7,-0.6c-11.2,0 -19.1,-8.8 -19.1,-19.3l0,-0.2c0,-10.5 7.7,-19.3 19,-19.3c11.2,0 19.1,8.8 19.1,19.3l0,0.2c0,10.5 -7.7,19.3 -19,19.3m-0.1,1.6c12.6,0 20.8,-9.8 20.8,-21l0,-0.2c0,-11.2 -8.3,-20.8 -20.8,-20.8c-12.6,0 -20.8,9.8 -20.8,21l0,0.2c0,11.2 8.3,20.8 20.8,20.8m-34.9,-1l1.7,0l-0,-40l-1.7,0l0,40Zm-0.4,-51.4l2.5,0l0,-4.6l-2.5,0l0,4.6Zm-43.6,51.4l33.1,0l0,-1.5l-30.6,0l30.5,-37.5l0,-1l-32,0l0,1.5l29.5,0l-30.5,37.5l0,1Zm-29.1,-0.6c-7,0 -13.3,-3.4 -13.3,-10.5l0,-0.2c0,-7.4 7.1,-11 16.2,-11c6.1,0 10.7,1 15,2.6l0,5.1c0,7.1 -7.2,14 -17.9,14m-0.1,1.6c10.2,0 16.2,-5.8 17.9,-10.4l-0,9.4l1.7,0l-0,-24.9c-0,-5 -1.4,-8.9 -3.9,-11.4c-3,-3 -7.3,-4.4 -12.8,-4.4c-5.2,0 -9.6,1.4 -14,3.5l0.6,1.4c4.2,-2 8.3,-3.4 13.3,-3.4c9.4,0 15.1,4.6 15.1,14.2l-0,3.4c-4,-1.4 -9.4,-2.5 -15,-2.5c-10,0 -17.8,4.3 -17.8,12.7l-0,0.2c-0,8.1 7.1,12.2 14.9,12.2m-33.6,-1l1.7,0l-0,-38.5l14.6,0l-0,-1.5l-14.6,0l-0,-5.4c-0,-7.9 3.5,-11.5 9.2,-11.5c2.1,0 4.1,0.4 5.6,1.1l-0,-1.7c-1.6,-0.7 -3.2,-1.1 -5.6,-1.1c-3.2,-0 -5.8,1 -7.6,2.8c-2.1,2.1 -3.3,5.5 -3.3,10.1l-0,5.8l-6.3,-0l-0,1.5l6.3,-0l-0,38.4Zm-29.7,0.7c8.3,-0 14.5,-4.3 14.5,-10.6l-0,-0.2c-0,-6.9 -6.5,-9.1 -14.4,-11.3c-7,-1.9 -12.7,-3.9 -12.7,-9.2c-0,-4.7 4.9,-8.5 12.2,-8.5c4.2,-0 9,1.5 13,4.3l1,-1.4c-4.2,-3 -9.4,-4.5 -13.9,-4.5c-8.4,-0 -13.9,4.6 -13.9,10.2l-0,0.2c-0,6.3 5.8,8.4 14,10.7c6.5,1.8 13.1,3.6 13.1,9.8l-0,0.2c-0,5.2 -5.4,8.9 -12.6,8.9c-5.2,0 -10.8,-2 -15.2,-5.7l-1,1.4c4.2,3.6 10.3,5.7 15.9,5.7m-29.3,-0.7l1.7,0l-0,-40l-1.7,0l-0,40Zm-0.4,-51.4l2.5,0l-0,-4.6l-2.5,0l-0,4.6Zm-35,50.8c-11,-0 -18.3,-8.7 -18.3,-19.4l-0,-0.2c-0,-10.7 7.4,-19.2 18.3,-19.2c10.8,-0 18.5,9 18.5,19.3l-0,0.2c-0.1,10.4 -7.7,19.3 -18.5,19.3m-0.1,1.6c9.3,-0 16.2,-5.8 18.5,-13.4l-0,12.4l1.7,-0l-0,-58.4l-1.7,-0l-0,30.8c-2.3,-7.6 -9.2,-13.4 -18.5,-13.4c-11.6,-0 -20,9.3 -20,20.9l-0,0.2c-0,11.6 8.4,20.9 20,20.9m-52.3,-1.6c-11,-0 -18.3,-8.7 -18.3,-19.4l-0,-0.2c-0,-10.7 7.4,-19.2 18.3,-19.2c10.8,-0 18.5,9 18.5,19.3l-0,0.2c-0.1,10.4 -7.7,19.3 -18.5,19.3m-0.1,1.6c9.3,-0 16.2,-5.8 18.5,-13.4l-0,12.4l1.7,-0l-0,-58.4l-1.7,-0l-0,30.8c-2.3,-7.6 -9.2,-13.4 -18.5,-13.4c-11.6,-0 -20,9.3 -20,20.9l-0,0.2c-0,11.6 8.4,20.9 20,20.9m-50.1,-1.6c-11.2,-0 -19.1,-8.8 -19.1,-19.3l-0,-0.2c-0,-10.5 7.7,-19.3 19,-19.3c11.2,-0 19.1,8.8 19.1,19.3l-0,0.2c-0,10.5 -7.7,19.3 -19,19.3m-0.1,1.6c12.6,-0 20.8,-9.8 20.8,-21l-0,-0.2c-0,-11.2 -8.3,-20.8 -20.8,-20.8c-12.6,-0 -20.8,9.8 -20.8,21l-0,0.2c-0,11.2 8.3,20.8 20.8,20.8m-44.9,-0.3c8.3,-0 14.5,-4.3 14.5,-10.6l-0,-0.2c-0,-6.9 -6.5,-9.1 -14.4,-11.3c-7,-1.9 -12.7,-3.9 -12.7,-9.2c-0,-4.7 4.9,-8.5 12.2,-8.5c4.2,-0 9,1.5 13,4.3l1,-1.4c-4.2,-3 -9.4,-4.5 -13.9,-4.5c-8.4,-0 -13.9,4.6 -13.9,10.2l-0,0.2c-0,6.3 5.8,8.4 14,10.7c6.5,1.8 13.1,3.6 13.1,9.8l-0,0.2c-0,5.2 -5.4,8.9 -12.6,8.9c-5.2,-0 -10.8,-2 -15.2,-5.7l-1,1.4c4.3,3.6 10.3,5.7 15.9,5.7" style="fill:#283583;fill-rule:nonzero;"/><path d="M840.7,354.5c0.2,-2.6 2,-4.5 4.3,-4.5c2.7,0 4,2.2 4.2,4.5l-8.5,0Zm4.5,6.6c2.2,0 3.6,-0.9 4.8,-2.2l-0.8,-0.7c-1,1 -2.2,1.8 -4,1.8c-2.3,-0 -4.3,-1.7 -4.6,-4.6l9.6,-0l0,-0.5c0,-3.4 -2.1,-6.1 -5.3,-6.1c-3.1,-0 -5.5,2.7 -5.5,6.1c0.1,3.8 2.8,6.2 5.8,6.2m-20.8,-13.8l1,-0l-2,-3l-1.4,0.7l2.4,2.3Zm-0.4,12.8c-1.8,0 -3.4,-1 -3.4,-2.7c0,-1.6 1.4,-2.7 3.8,-2.7c1.7,-0 3,0.3 3.9,0.5l-0,1.3c0.1,2.1 -1.9,3.6 -4.3,3.6m-0.1,1c2.2,-0 3.6,-1.1 4.4,-2.2l-0,1.9l1.1,-0l0,-7.2c0,-1.4 -0.4,-2.5 -1.2,-3.3c-0.8,-0.8 -2.1,-1.3 -3.7,-1.3c-1.6,-0 -2.8,0.4 -4.1,1l0.4,1c1.1,-0.5 2.2,-0.9 3.6,-0.9c2.4,-0 3.8,1.2 3.8,3.6l-0,0.5c-1.1,-0.3 -2.2,-0.5 -3.8,-0.5c-3,-0 -5.1,1.4 -5.1,3.8c0.2,2.4 2.5,3.6 4.6,3.6m-8.7,-0c0.7,-0 1.3,-0.1 1.9,-0.4l0,-1c-0.7,0.3 -1.1,0.4 -1.7,0.4c-1.3,-0 -2.3,-0.6 -2.3,-2.3l0,-7.5l4.1,-0l0,-1l-4.1,-0l0,-3.7l-1.1,-0l0,3.7l-1.7,-0l0,1l1.7,-0l0,7.6c-0.1,2.2 1.4,3.2 3.2,3.2m-9.4,-0.3l1.1,-0l0,-11.6l-1.1,-0l0,11.6Zm-0.1,-14.6l1.4,-0l0,-1.5l-1.4,-0l0,1.5Zm-7.6,14.9c2.2,-0 4,-1.3 4,-3.4c0,-2 -2,-2.7 -3.8,-3.3c-1.7,-0.5 -3.2,-1 -3.2,-2.3c0,-1.2 1,-2 2.6,-2c1.2,0 2.5,0.5 3.6,1.2l0.6,-0.9c-1.2,-0.8 -2.7,-1.3 -4.1,-1.3c-2.3,0 -3.8,1.3 -3.8,3.2c0,2.1 2.1,2.6 4,3.2c1.6,0.5 3.1,1 3.1,2.3c0,1.3 -1.2,2.2 -2.8,2.2c-1.5,0 -2.9,-0.5 -4.2,-1.5l-0.7,0.9c1.1,1 3,1.7 4.7,1.7m-13.2,-1c-2.7,0 -4.8,-2.2 -4.8,-5c0,-2.7 2,-5 4.7,-5c2.7,0 4.8,2.2 4.8,5c0.1,2.7 -1.9,5 -4.7,5m0,1c3.5,0 6,-2.8 6,-6.1c0,-3.3 -2.5,-6 -5.9,-6c-3.5,0 -6,2.8 -6,6.1c-0.1,3.2 2.4,6 5.9,6m-10.7,-0.3l1.1,-0l0,-11.6l-1.1,-0l0,11.6Zm-0.1,-14.6l1.4,-0l0,-1.5l-1.4,-0l0,1.5Zm-9.1,14.6l1.1,-0l0,-4.8c0,-3.8 2.3,-5.8 5,-5.8l0.1,0l0,-1.2c-2.3,-0.1 -4.2,1.4 -5.1,3.5l0,-3.3l-1.1,0l0,11.6Zm-9.6,0.3c2.1,0 3.4,-1.1 4.2,-2.4l0,2.2l1.1,0l0,-11.6l-1.1,0l0,6.7c0,2.4 -1.8,4.1 -4,4.1c-2.3,0 -3.7,-1.6 -3.7,-4l0,-6.9l-1.1,0l0,7.1c0,2.8 1.7,4.8 4.6,4.8m-12.3,-0c2.1,-0 3.6,-1 4.7,-2.3l-0.8,-0.7c-1,1.1 -2.3,1.9 -3.9,1.9c-2.7,-0 -4.8,-2.2 -4.8,-5c0,-2.8 2,-5 4.7,-5c1.7,-0 2.9,0.9 3.9,1.9l0.8,-0.8c-1.1,-1.1 -2.5,-2.1 -4.6,-2.1c-3.3,0 -5.9,2.8 -5.9,6.1c0,3.2 2.6,6 5.9,6m-17.8,2.2c1.4,-0.5 1.9,-1.3 1.9,-2.7l0,-1.7l-1.5,-0l0,1.9l0.6,-0c0.1,0.9 -0.3,1.4 -1.3,1.9l0.3,0.6Zm-12.1,-8.8c0.2,-2.6 2,-4.5 4.3,-4.5c2.7,0 4,2.2 4.2,4.5l-8.5,0Zm4.6,6.6c2.2,0 3.6,-0.9 4.8,-2.2l-0.8,-0.7c-1,1 -2.2,1.8 -4,1.8c-2.3,-0 -4.3,-1.7 -4.6,-4.6l9.6,-0l0,-0.5c0,-3.4 -2.1,-6.1 -5.3,-6.1c-3.1,-0 -5.5,2.7 -5.5,6.1c0.1,3.8 2.7,6.2 5.8,6.2m-13.5,-0.3l1.1,-0l0,-4.8c0,-3.8 2.3,-5.8 5,-5.8l0.1,0l0,-1.2c-2.3,-0.1 -4.2,1.4 -5.1,3.5l0,-3.3l-1.1,0l0,11.6Zm-9.4,-0.7c-2.7,0 -4.8,-2.2 -4.8,-5c0,-2.7 2,-5 4.7,-5c2.7,0 4.8,2.2 4.8,5c0.1,2.7 -1.9,5 -4.7,5m0,1c3.5,0 6,-2.8 6,-6.1c0,-3.3 -2.5,-6 -5.9,-6c-3.5,0 -6,2.8 -6,6.1c-0,3.2 2.5,6 5.9,6m-14.4,-1c-2.4,0 -4.7,-2 -4.7,-5c0,-3 2.3,-5 4.7,-5c2.4,0 4.6,2 4.6,5c0,3.1 -2.1,5 -4.6,5m-5.8,4.4l1.1,0l0,-6.1c1,1.5 2.5,2.8 4.8,2.8c2.8,-0 5.6,-2.3 5.6,-6.1c0,-3.8 -2.8,-6 -5.6,-6c-2.3,-0 -3.8,1.3 -4.8,2.9l0,-2.6l-1.1,-0l-0,15.1Zm-9.5,-3.4c2.1,0 3.4,-1.1 4.2,-2.4l-0,2.2l1.1,0l-0,-11.6l-1.1,0l-0,6.7c-0,2.4 -1.8,4.1 -4,4.1c-2.3,0 -3.7,-1.6 -3.7,-4l-0,-6.9l-1.1,0l0,7.1c-0.1,2.8 1.6,4.8 4.6,4.8m-9.7,0c0.7,0 1.3,-0.1 1.9,-0.4l0,-1c-0.7,0.3 -1.1,0.4 -1.7,0.4c-1.3,0 -2.3,-0.6 -2.3,-2.3l0,-7.5l4.1,0l-0,-1l-4.1,0l0,-3.7l-1.1,0l-0,3.7l-1.7,0l0,1l1.7,0l-0,7.6c0,2.2 1.4,3.2 3.2,3.2m-11.2,0c2.2,0 4,-1.3 4,-3.4c0,-2 -2,-2.7 -3.8,-3.3c-1.7,-0.5 -3.2,-1 -3.2,-2.3c0,-1.2 1,-2 2.6,-2c1.2,0 2.5,0.5 3.6,1.2l0.6,-0.9c-1.2,-0.8 -2.7,-1.3 -4.1,-1.3c-2.3,0 -3.8,1.3 -3.8,3.2c-0,2.1 2.1,2.6 4,3.2c1.6,0.5 3.1,1 3.1,2.3c0,1.3 -1.2,2.2 -2.8,2.2c-1.5,0 -2.9,-0.5 -4.2,-1.5l-0.7,0.9c1.2,1 3,1.7 4.7,1.7m-16.4,2.2c1.4,-0.5 1.9,-1.3 1.9,-2.7l-0,-1.7l-1.5,-0l-0,1.9l0.6,-0c0.1,0.9 -0.3,1.4 -1.3,1.9l0.3,0.6Zm-8.9,-3.2c-1.8,0 -3.4,-1 -3.4,-2.7c-0,-1.6 1.4,-2.7 3.8,-2.7c1.7,-0 3,0.3 3.9,0.5l-0,1.3c0.1,2.1 -1.9,3.6 -4.3,3.6m-0,1c2.2,0 3.6,-1.1 4.4,-2.2l-0,1.9l1.1,-0l-0,-7.2c-0,-1.4 -0.4,-2.5 -1.2,-3.3c-0.8,-0.8 -2.1,-1.3 -3.7,-1.3c-1.6,0 -2.8,0.4 -4.1,1l0.4,1c1.1,-0.5 2.2,-0.9 3.6,-0.9c2.4,0 3.8,1.2 3.8,3.6l0,0.5c-1.1,-0.3 -2.2,-0.5 -3.8,-0.5c-3,0 -5.1,1.4 -5.1,3.8c0.1,2.4 2.4,3.6 4.6,3.6m-8.8,-0c0.7,-0 1.3,-0.1 1.9,-0.4l0,-1c-0.7,0.3 -1.1,0.4 -1.7,0.4c-1.3,-0 -2.3,-0.6 -2.3,-2.3l0,-7.5l4.1,0l-0,-1l-4.1,0l0,-3.7l-1.1,-0l-0,3.7l-1.7,0l0,1l1.7,0l-0,7.6c-0.1,2.2 1.4,3.2 3.2,3.2m-13,-0.3l1.1,-0l0,-4.8c0,-3.8 2.3,-5.8 5,-5.8l0.1,0l-0,-1.2c-2.3,-0.1 -4.2,1.4 -5.1,3.5l0,-3.3l-1.1,0l-0,11.6Zm-12.9,-6.3c0.2,-2.6 2,-4.5 4.3,-4.5c2.7,-0 4,2.2 4.2,4.5l-8.5,-0Zm4.5,6.6c2.2,-0 3.6,-0.9 4.8,-2.2l-0.8,-0.7c-1,1 -2.2,1.8 -4,1.8c-2.3,-0 -4.3,-1.7 -4.6,-4.6l9.6,-0l-0,-0.5c-0,-3.4 -2.1,-6.1 -5.3,-6.1c-3.1,-0 -5.5,2.7 -5.5,6.1c0.1,3.8 2.8,6.2 5.8,6.2m-14.1,-1c-2.4,-0 -4.7,-2 -4.7,-5c0,-3 2.3,-5 4.7,-5c2.4,-0 4.6,2 4.6,5c-0.1,3.1 -2.1,5 -4.6,5m-5.8,4.4l1.1,-0l-0,-6.1c1,1.5 2.5,2.8 4.8,2.8c2.8,-0 5.6,-2.3 5.6,-6.1c-0,-3.8 -2.8,-6 -5.6,-6c-2.3,-0 -3.8,1.3 -4.8,2.9l-0,-2.6l-1.1,-0l-0,15.1Zm-9.4,-4.4c-2.7,0 -4.8,-2.2 -4.8,-5c-0,-2.7 2,-5 4.7,-5c2.7,0 4.8,2.2 4.8,5c-0,2.7 -1.9,5 -4.7,5m-0.1,1c3.5,0 6,-2.8 6,-6.1c-0,-3.3 -2.5,-6 -5.9,-6c-3.5,0 -6,2.8 -6,6.1c-0,3.2 2.5,6 5.9,6m-12.6,0c2.1,0 3.6,-1 4.7,-2.3l-0.8,-0.7c-1,1.1 -2.3,1.9 -3.9,1.9c-2.7,0 -4.8,-2.2 -4.8,-5c-0,-2.8 2,-5 4.7,-5c1.7,0 2.9,0.9 3.9,1.9l0.8,-0.8c-1.1,-1.1 -2.5,-2.1 -4.6,-2.1c-3.3,0 -5.9,2.8 -5.9,6.1c-0.1,3.2 2.5,6 5.9,6m-12.7,0c2.2,0 4,-1.3 4,-3.4c-0,-2 -2,-2.7 -3.8,-3.3c-1.7,-0.5 -3.2,-1 -3.2,-2.3c-0,-1.2 1,-2 2.6,-2c1.2,0 2.5,0.5 3.6,1.2l0.6,-0.9c-1.2,-0.8 -2.7,-1.3 -4.1,-1.3c-2.3,0 -3.8,1.3 -3.8,3.2c-0,2.1 2.1,2.6 4,3.2c1.6,0.5 3.1,1 3.1,2.3c-0,1.3 -1.2,2.2 -2.8,2.2c-1.5,0 -2.9,-0.5 -4.2,-1.5l-0.7,0.9c1.2,1 3,1.7 4.7,1.7m-19.7,-13.8l1,0l-2,-3l-1.4,0.7l2.4,2.3Zm-3.8,7.2c0.2,-2.6 2,-4.5 4.3,-4.5c2.7,0 4,2.2 4.2,4.5l-8.5,0Zm4.5,6.6c2.2,0 3.6,-0.9 4.8,-2.2l-0.8,-0.7c-1,1 -2.2,1.8 -4,1.8c-2.3,-0 -4.3,-1.7 -4.6,-4.6l9.6,-0l-0,-0.5c-0,-3.4 -2.1,-6.1 -5.3,-6.1c-3.1,-0 -5.5,2.7 -5.5,6.1c0.1,3.8 2.7,6.2 5.8,6.2m-17.6,2.2c1.4,-0.5 1.9,-1.3 1.9,-2.7l-0,-1.7l-1.5,-0l-0,1.9l0.6,-0c0.1,0.9 -0.3,1.4 -1.3,1.9l0.3,0.6Zm-12.1,-8.8c0.2,-2.6 2,-4.5 4.3,-4.5c2.7,0 4,2.2 4.2,4.5l-8.5,0Zm4.6,6.6c2.2,0 3.6,-0.9 4.8,-2.2l-0.8,-0.7c-1,1 -2.2,1.8 -4,1.8c-2.3,-0 -4.3,-1.7 -4.6,-4.6l9.6,-0l-0,-0.5c-0,-3.4 -2.1,-6.1 -5.3,-6.1c-3.1,-0 -5.5,2.7 -5.5,6.1c0.1,3.8 2.7,6.2 5.8,6.2m-9.8,0c0.7,0 1.3,-0.1 1.9,-0.4l-0,-1c-0.7,0.3 -1.1,0.4 -1.7,0.4c-1.3,0 -2.3,-0.6 -2.3,-2.3l-0,-7.5l4.1,0l-0,-1l-4.1,0l-0,-3.7l-1.1,0l-0,3.7l-1.7,0l-0,1l1.7,0l-0,7.6c-0.1,2.2 1.4,3.2 3.2,3.2m-17.9,-0.3l1.1,0l-0,-6.7c-0,-2.4 1.8,-4.1 4,-4.1c2.3,0 3.7,1.6 3.7,4l-0,6.9l1.1,0l-0,-7.1c-0,-2.8 -1.7,-4.8 -4.6,-4.8c-2.1,0 -3.4,1.1 -4.2,2.4l-0,-2.2l-1.1,0l-0,11.6Zm-9.4,-0.7c-1.8,0 -3.4,-1 -3.4,-2.7c-0,-1.6 1.4,-2.7 3.8,-2.7c1.7,0 3,0.3 3.9,0.5l-0,1.3c0.1,2.1 -2,3.6 -4.3,3.6m-0.1,1c2.2,0 3.6,-1.1 4.4,-2.2l-0,1.9l1.1,0l-0,-7.2c-0,-1.4 -0.4,-2.5 -1.2,-3.3c-0.8,-0.8 -2.1,-1.3 -3.7,-1.3c-1.6,0 -2.8,0.4 -4.1,1l0.4,1c1.1,-0.5 2.2,-0.9 3.6,-0.9c2.4,0 3.8,1.2 3.8,3.6l-0,0.5c-1.1,-0.3 -2.2,-0.5 -3.8,-0.5c-3,0 -5.1,1.4 -5.1,3.8c0.1,2.4 2.4,3.6 4.6,3.6m-11.1,0c2.2,0 4,-1.3 4,-3.4c-0,-2 -2,-2.7 -3.8,-3.3c-1.7,-0.5 -3.2,-1 -3.2,-2.3c-0,-1.2 1,-2 2.6,-2c1.2,0 2.5,0.5 3.6,1.2l0.6,-0.9c-1.2,-0.8 -2.7,-1.3 -4.1,-1.3c-2.3,0 -3.8,1.3 -3.8,3.2c-0,2.1 2.1,2.6 4,3.2c1.6,0.5 3.1,1 3.1,2.3c-0,1.3 -1.2,2.2 -2.8,2.2c-1.5,0 -2.9,-0.5 -4.2,-1.5l-0.7,0.9c1.2,1 3,1.7 4.7,1.7m-11.1,0c2.2,0 4,-1.3 4,-3.4c-0,-2 -2,-2.7 -3.8,-3.3c-1.7,-0.5 -3.2,-1 -3.2,-2.3c-0,-1.2 1,-2 2.6,-2c1.2,0 2.5,0.5 3.6,1.2l0.6,-0.9c-1.2,-0.8 -2.7,-1.3 -4.1,-1.3c-2.3,0 -3.8,1.3 -3.8,3.2c-0,2.1 2.1,2.6 4,3.2c1.6,0.5 3.1,1 3.1,2.3c-0,1.3 -1.2,2.2 -2.8,2.2c-1.5,0 -2.9,-0.5 -4.2,-1.5l-0.7,0.9c1.2,1 3,1.7 4.7,1.7m-16.7,-6.6c0.2,-2.6 2,-4.5 4.3,-4.5c2.7,0 4,2.2 4.2,4.5l-8.5,0Zm4.5,6.6c2.2,0 3.6,-0.9 4.8,-2.2l-0.8,-0.7c-1,1 -2.2,1.8 -4,1.8c-2.3,0 -4.3,-1.7 -4.6,-4.6l9.6,0l-0,-0.5c-0,-3.4 -2.1,-6.1 -5.3,-6.1c-3.1,0 -5.5,2.7 -5.5,6.1c0.2,3.8 2.8,6.2 5.8,6.2m-13.4,-0.3l1.1,0l-0,-4.8c-0,-3.8 2.3,-5.8 5,-5.8l0.1,0l-0,-1.2c-2.3,-0.1 -4.2,1.4 -5.1,3.5l-0,-3.3l-1.1,0l-0,11.6Zm-12.9,-6.3c0.2,-2.6 2,-4.5 4.3,-4.5c2.7,0 4,2.2 4.2,4.5l-8.5,0Zm4.5,6.6c2.2,0 3.6,-0.9 4.8,-2.2l-0.8,-0.7c-1,1 -2.2,1.8 -4,1.8c-2.3,0 -4.3,-1.7 -4.6,-4.6l9.6,0l-0,-0.5c-0,-3.4 -2.1,-6.1 -5.3,-6.1c-3.1,0 -5.5,2.7 -5.5,6.1c0.1,3.8 2.8,6.2 5.8,6.2m-9.8,0c0.7,0 1.3,-0.1 1.9,-0.4l-0,-1c-0.7,0.3 -1.1,0.4 -1.7,0.4c-1.3,0 -2.3,-0.6 -2.3,-2.3l-0,-7.5l4.1,0l-0,-1l-4.1,0l-0,-3.7l-1.1,0l-0,3.7l-1.7,0l-0,1l1.7,0l-0,7.6c-0,2.2 1.4,3.2 3.2,3.2m-17.8,-0.3l1.1,0l-0,-6.7c-0,-2.4 1.8,-4.1 4,-4.1c2.3,0 3.7,1.6 3.7,4l-0,6.9l1.1,0l-0,-7.1c-0,-2.8 -1.7,-4.8 -4.6,-4.8c-2.1,0 -3.4,1.1 -4.2,2.4l-0,-2.2l-1.1,0l-0,11.6Zm-5.5,0l1.1,0l-0,-11.6l-1.1,0l-0,11.6Zm-0.2,-14.6l1.4,0l-0,-1.5l-1.4,0l-0,1.5Zm-12.7,17.1c1.4,-0.5 1.9,-1.3 1.9,-2.7l-0,-1.7l-1.5,0l-0,1.9l0.6,0c0.1,0.9 -0.3,1.4 -1.3,1.9l0.3,0.6Zm-12,-8.8c0.2,-2.6 2,-4.5 4.3,-4.5c2.7,0 4,2.2 4.2,4.5l-8.5,0Zm4.5,6.6c2.2,0 3.6,-0.9 4.8,-2.2l-0.8,-0.7c-1,1 -2.2,1.8 -4,1.8c-2.3,0 -4.3,-1.7 -4.6,-4.6l9.6,0l-0,-0.5c-0,-3.4 -2.1,-6.1 -5.3,-6.1c-3.1,0 -5.5,2.7 -5.5,6.1c0.1,3.8 2.7,6.2 5.8,6.2m-9.8,0c0.7,0 1.3,-0.1 1.9,-0.4l-0,-1c-0.7,0.3 -1.1,0.4 -1.7,0.4c-1.3,0 -2.3,-0.6 -2.3,-2.3l-0,-7.5l4.1,0l-0,-1l-4.2,0l-0,-3.7l-1.1,0l-0,3.7l-1.7,0l-0,1l1.7,0l-0,7.6c-0,2.2 1.5,3.2 3.3,3.2m-17.8,-0.3l1.1,0l-0,-6.7c-0,-2.4 1.8,-4.1 4,-4.1c2.3,0 3.7,1.6 3.7,4l-0,6.9l1.1,0l-0,-7.1c-0,-2.8 -1.7,-4.8 -4.6,-4.8c-2.1,0 -3.4,1.1 -4.2,2.4l-0,-2.2l-1.1,0l-0,11.6Zm-9.5,-0.7c-1.8,0 -3.4,-1 -3.4,-2.7c-0,-1.6 1.4,-2.7 3.8,-2.7c1.7,0 3,0.3 3.9,0.5l-0,1.3c0.1,2.1 -2,3.6 -4.3,3.6m-0.1,1c2.2,0 3.6,-1.1 4.4,-2.2l-0,1.9l1.1,0l-0,-7.2c-0,-1.4 -0.4,-2.5 -1.2,-3.3c-0.8,-0.8 -2.1,-1.3 -3.7,-1.3c-1.6,0 -2.8,0.4 -4.1,1l0.4,1c1.1,-0.5 2.2,-0.9 3.6,-0.9c2.4,0 3.8,1.2 3.8,3.6l-0,0.5c-1.1,-0.3 -2.2,-0.5 -3.8,-0.5c-3,0 -5.1,1.4 -5.1,3.8c0.1,2.4 2.4,3.6 4.6,3.6m-17.5,-0.3l1.1,0l-0,-6.7c-0,-2.4 1.8,-4.1 4,-4.1c2.3,0 3.7,1.6 3.7,4l-0,6.9l1.1,0l-0,-7.1c-0,-2.8 -1.7,-4.8 -4.6,-4.8c-2.1,0 -3.4,1.1 -4.2,2.4l-0,-2.2l-1.1,0l-0,11.6Zm-9.4,-0.7c-2.7,0 -4.8,-2.2 -4.8,-5c-0,-2.7 2,-5 4.7,-5c2.7,0 4.8,2.2 4.8,5c0.1,2.7 -1.9,5 -4.7,5m-0,1c3.5,0 6,-2.8 6,-6.1c-0,-3.3 -2.5,-6 -5.9,-6c-3.5,0 -6,2.8 -6,6.1c-0,3.2 2.5,6 5.9,6m-10.7,-0.3l1.1,0l-0,-11.6l-1.1,0l-0,11.6Zm-0.1,-14.6l1.4,0l-0,-1.5l-1.4,0l-0,1.5Zm-7.6,14.9c2.2,0 4,-1.3 4,-3.4c-0,-2 -2,-2.7 -3.8,-3.3c-1.7,-0.5 -3.2,-1 -3.2,-2.3c-0,-1.2 1,-2 2.6,-2c1.2,0 2.5,0.5 3.6,1.2l0.6,-0.9c-1.2,-0.8 -2.7,-1.3 -4.1,-1.3c-2.3,0 -3.8,1.3 -3.8,3.2c-0,2.1 2.1,2.6 4,3.2c1.6,0.5 3.1,1 3.1,2.3c-0,1.3 -1.2,2.2 -2.8,2.2c-1.5,0 -2.9,-0.5 -4.2,-1.5l-0.7,0.9c1.2,1 3,1.7 4.7,1.7m-11.1,0c2.2,0 4,-1.3 4,-3.4c-0,-2 -2,-2.7 -3.8,-3.3c-1.7,-0.5 -3.2,-1 -3.2,-2.3c-0,-1.2 1,-2 2.6,-2c1.2,0 2.5,0.5 3.6,1.2l0.6,-0.9c-1.2,-0.8 -2.7,-1.3 -4.1,-1.3c-2.3,0 -3.8,1.3 -3.8,3.2c-0,2.1 2.1,2.6 4,3.2c1.6,0.5 3.1,1 3.1,2.3c-0,1.3 -1.2,2.2 -2.8,2.2c-1.5,0 -2.9,-0.5 -4.2,-1.5l-0.7,0.9c1.2,1 3,1.7 4.7,1.7m-13.2,-1c-1.8,0 -3.4,-1 -3.4,-2.7c-0,-1.6 1.4,-2.7 3.8,-2.7c1.7,0 3,0.3 3.9,0.5l-0,1.3c0.1,2.1 -1.9,3.6 -4.3,3.6m-0.1,1c2.2,0 3.6,-1.1 4.4,-2.2l-0,1.9l1.1,0l-0,-7.2c-0,-1.4 -0.4,-2.5 -1.2,-3.3c-0.8,-0.8 -2.1,-1.3 -3.7,-1.3c-1.6,0 -2.8,0.4 -4.1,1l0.4,1c1.1,-0.5 2.2,-0.9 3.6,-0.9c2.4,0 3.8,1.2 3.8,3.6l-0,0.5c-1.1,-0.3 -2.2,-0.5 -3.8,-0.5c-3,0 -5.1,1.4 -5.1,3.8c0.1,2.4 2.5,3.6 4.6,3.6m-12.7,-1c-2.4,0 -4.7,-2 -4.7,-5c-0,-3 2.3,-5 4.7,-5c2.4,0 4.6,2 4.6,5c-0.1,3.1 -2.1,5 -4.6,5m-5.8,4.4l1.1,0l-0,-6.1c1,1.5 2.5,2.8 4.8,2.8c2.8,0 5.6,-2.3 5.6,-6.1c-0,-3.8 -2.8,-6 -5.6,-6c-2.3,0 -3.8,1.3 -4.8,2.9l-0,-2.6l-1.1,0l-0,15.1Zm-9.3,-4.4c-2.4,0 -4.7,-2 -4.7,-5c-0,-3 2.3,-5 4.7,-5c2.4,0 4.6,2 4.6,5c-0,3.1 -2,5 -4.6,5m-5.8,4.4l1.1,0l-0,-6.1c1,1.5 2.5,2.8 4.8,2.8c2.8,0 5.6,-2.3 5.6,-6.1c-0,-3.8 -2.8,-6 -5.6,-6c-2.3,0 -3.8,1.3 -4.8,2.9l-0,-2.6l-1.1,0l-0,15.1Zm-9.4,-4.4c-1.8,0 -3.4,-1 -3.4,-2.7c-0,-1.6 1.4,-2.7 3.8,-2.7c1.7,0 3,0.3 3.9,0.5l-0,1.3c0.1,2.1 -2,3.6 -4.3,3.6m-0.1,1c2.2,0 3.6,-1.1 4.4,-2.2l-0,1.9l1.1,0l-0,-7.2c-0,-1.4 -0.4,-2.5 -1.2,-3.3c-0.8,-0.8 -2.1,-1.3 -3.7,-1.3c-1.6,0 -2.8,0.4 -4.1,1l0.4,1c1.1,-0.5 2.2,-0.9 3.6,-0.9c2.4,0 3.8,1.2 3.8,3.6l-0,0.5c-1.1,-0.3 -2.2,-0.5 -3.8,-0.5c-3,0 -5.1,1.4 -5.1,3.8c0.1,2.4 2.4,3.6 4.6,3.6" style="fill:#283583;fill-rule:nonzero;"/><path d="M872.7,325.1c1.4,-0.5 1.9,-1.3 1.9,-2.7l0,-1.7l-1.5,-0l0,1.9l0.6,-0c0.1,0.9 -0.3,1.4 -1.3,1.9l0.3,0.6Zm-27.6,-3c-7,0 -13.3,-3.4 -13.3,-10.5l0,-0.2c0,-7.4 7.1,-11 16.2,-11c6.1,-0 10.7,1 15,2.6l0,5.1c-0.1,7.1 -7.2,14 -17.9,14m-0.1,1.6c10.2,-0 16.2,-5.8 17.9,-10.4l0,9.4l1.7,-0l0,-24.9c0,-5 -1.4,-8.9 -3.9,-11.4c-3,-3 -7.3,-4.4 -12.8,-4.4c-5.2,-0 -9.6,1.4 -14,3.5l0.6,1.4c4.2,-2 8.3,-3.4 13.3,-3.4c9.4,-0 15.1,4.6 15.1,14.2l-0,3.4c-4,-1.4 -9.4,-2.5 -15,-2.5c-10,-0 -17.8,4.3 -17.8,12.7l-0,0.2c-0,8.1 7.1,12.2 14.9,12.2m-40,-0.7l1.3,-0l18.4,-40.3l-1.8,-0l-17.3,38.2l-17.4,-38.2l-1.8,-0l18.6,40.3Zm-31.4,-0.3l1.7,-0l-0,-40l-1.7,-0l-0,40Zm-0.4,-51.4l2.5,-0l-0,-4.6l-2.5,-0l-0,4.6Zm-17.5,52.1c2.1,-0 4.2,-0.4 6.1,-1.3l-0,-1.7c-1.9,1 -4.1,1.4 -6.1,1.4c-5.7,-0 -8.6,-3.5 -8.6,-9.5l-0,-28.1l14.8,-0l-0,-1.5l-14.8,-0l-0,-13.8l-1.7,-0l-0,13.8l-6.3,-0l-0,1.5l6.3,-0l-0,28.2c-0,7 3.6,11 10.3,11m-45.6,-1.3c-7,-0 -13.3,-3.4 -13.3,-10.5l-0,-0.2c-0,-7.4 7.1,-11 16.2,-11c6.1,-0 10.7,1 15,2.6l-0,5.1c-0.1,7.1 -7.2,14 -17.9,14m-0.1,1.6c10.2,-0 16.2,-5.8 17.9,-10.4l-0,9.4l1.7,-0l-0,-24.9c-0,-5 -1.4,-8.9 -3.9,-11.4c-3,-3 -7.3,-4.4 -12.8,-4.4c-5.2,-0 -9.6,1.4 -14,3.5l0.6,1.4c4.2,-2 8.3,-3.4 13.3,-3.4c9.4,-0 15.1,4.6 15.1,14.2l-0,3.4c-4,-1.4 -9.4,-2.5 -15,-2.5c-10,-0 -17.8,4.3 -17.8,12.7l-0,0.2c-0.1,8.1 7,12.2 14.9,12.2m-59.2,-22c0.4,-10.5 7.4,-18.3 17.3,-18.3c10.6,-0 16.3,9.2 16.6,18.3l-33.9,-0Zm18.1,22c7,-0 12.8,-3.8 16.2,-8.7l-1.4,-1c-3.2,4.5 -8.6,8.1 -14.8,8.1c-9.8,-0 -17.9,-7.4 -18.2,-18.9l35.8,-0l-0,-0.3c-0,-10 -5.8,-21.1 -18.4,-21.1c-11.1,-0 -19.2,9 -19.2,20.8l-0,0.2c-0,12.8 9.1,20.9 20,20.9m-42,-1l1.7,-0l-0,-20.7c-0,-7.7 6.1,-18.6 16.1,-18.6l0.4,-0l-0,-1.6c-8.9,-0.1 -14.6,7.1 -16.5,13.8l-0,-12.8l-1.7,-0l-0,39.9Zm-27.2,1c7.5,-0 12.6,-3.5 16.3,-7.9l-1.2,-1.1c-3.5,4 -8.2,7.4 -15,7.4c-10.5,-0 -18.7,-9 -18.7,-19.4l-0,-0.2c-0,-10.4 8,-19.2 18.6,-19.2c6.7,-0 11.3,3.1 14.9,7l1.2,-1.1c-4,-4.2 -8.6,-7.4 -16,-7.4c-11.6,-0 -20.5,9.5 -20.5,20.9l-0,0.2c-0,11.2 8.9,20.8 20.4,20.8m-38.9,-14.5l1,-0l-2,-3l-1.4,0.7l2.4,2.3Zm-3.8,7.2c0.2,-2.6 2,-4.5 4.3,-4.5c2.7,-0 4,2.2 4.2,4.5l-8.5,-0Zm4.5,6.6c2.2,-0 3.6,-0.9 4.8,-2.2l-0.8,-0.7c-1,1 -2.2,1.8 -4,1.8c-2.3,-0 -4.3,-1.7 -4.6,-4.6l9.6,-0l-0,-0.5c-0,-3.4 -2.1,-6.1 -5.3,-6.1c-3.1,-0 -5.5,2.7 -5.5,6.1c0.1,3.7 2.8,6.2 5.8,6.2m-17.2,-0.3l1.1,-0l-0,-11.6l-1.1,-0l-0,11.6Zm-0.2,-14.6l1.4,-0l-0,-1.5l-1.4,-0l-0,1.5Zm-9.4,13.8c-2.7,-0 -4.8,-2.2 -4.8,-5c-0,-2.7 2,-5 4.7,-5c2.7,-0 4.8,2.2 4.8,5c0.1,2.8 -1.9,5 -4.7,5m-0,1.1c3.5,-0 6,-2.8 6,-6.1c-0,-3.3 -2.5,-6 -5.9,-6c-3.5,-0 -6,2.8 -6,6.1c-0.1,3.2 2.4,6 5.9,6m-19.1,-0.3l1.1,-0l-0,-6.7c-0,-2.4 1.8,-4.1 4,-4.1c2.3,-0 3.7,1.6 3.7,4l-0,6.9l1.1,-0l-0,-7.1c-0,-2.8 -1.7,-4.8 -4.6,-4.8c-2.1,-0 -3.4,1.1 -4.2,2.4l-0,-2.2l-1.1,-0l-0,11.6Zm-16,-0l1.1,-0l-0,-4.8c-0,-3.8 2.3,-5.8 5,-5.8l0.1,0l-0,-1.2c-2.3,-0.1 -4.2,1.4 -5.1,3.5l-0,-3.3l-1.1,0l-0,11.6Zm-12.9,-6.3c0.2,-2.6 2,-4.5 4.3,-4.5c2.7,-0 4,2.2 4.2,4.5l-8.5,-0Zm4.5,6.6c2.2,-0 3.6,-0.9 4.8,-2.2l-0.8,-0.7c-1,1 -2.2,1.8 -4,1.8c-2.3,-0 -4.4,-1.7 -4.6,-4.6l9.6,-0l-0,-0.5c-0,-3.4 -2.1,-6.1 -5.3,-6.1c-3.1,-0 -5.5,2.7 -5.5,6.1c0.1,3.7 2.8,6.2 5.8,6.2m-14.1,-1.1c-2.4,-0 -4.7,-2 -4.7,-5c-0,-3 2.3,-5 4.7,-5c2.4,-0 4.6,2 4.6,5c-0.1,3.2 -2.1,5 -4.6,5m-5.8,4.5l1.1,-0l-0,-6.1c1,1.5 2.5,2.8 4.8,2.8c2.8,-0 5.6,-2.3 5.6,-6.1c-0,-3.8 -2.8,-6 -5.6,-6c-2.3,-0 -3.8,1.3 -4.8,2.9l-0,-2.6l-1.1,-0l-0,15.1Zm-12.7,-1.3c1.4,-0.5 1.9,-1.3 1.9,-2.7l-0,-1.7l-1.5,-0l-0,1.9l0.6,-0c0.1,0.9 -0.3,1.4 -1.3,1.9l0.3,0.6Zm-8.8,-3.2c-1.8,0 -3.4,-1 -3.4,-2.7c-0,-1.6 1.4,-2.7 3.8,-2.7c1.7,-0 3,0.3 3.9,0.5l-0,1.3c0.1,2.2 -2,3.6 -4.3,3.6m-0.1,1.1c2.2,-0 3.6,-1.1 4.4,-2.2l-0,1.9l1.1,-0l-0,-7.2c-0,-1.4 -0.4,-2.5 -1.2,-3.3c-0.8,-0.8 -2.1,-1.3 -3.7,-1.3c-1.6,-0 -2.8,0.4 -4.1,1l0.4,1c1.1,-0.5 2.2,-0.9 3.6,-0.9c2.4,-0 3.8,1.2 3.8,3.6l-0,0.5c-1.1,-0.3 -2.2,-0.5 -3.8,-0.5c-3,-0 -5.1,1.4 -5.1,3.8c0.1,2.4 2.4,3.6 4.6,3.6m-11.1,-0.1c2.2,-0 4,-1.3 4,-3.4c-0,-2 -2,-2.7 -3.8,-3.3c-1.7,-0.5 -3.2,-1 -3.2,-2.3c-0,-1.2 1,-2 2.6,-2c1.2,0 2.5,0.5 3.6,1.2l0.6,-0.9c-1.2,-0.8 -2.7,-1.3 -4.1,-1.3c-2.3,0 -3.8,1.3 -3.8,3.2c-0,2.1 2.1,2.6 4,3.2c1.6,0.5 3.1,1 3.1,2.3c-0,1.3 -1.2,2.2 -2.8,2.2c-1.5,0 -2.9,-0.5 -4.2,-1.5l-0.7,0.9c1.2,1.1 3,1.7 4.7,1.7m-13.1,-1c-2.7,-0 -4.8,-2.2 -4.8,-5c-0,-2.7 2,-5 4.7,-5c2.7,-0 4.8,2.2 4.8,5c-0,2.8 -2,5 -4.7,5m-0.1,1.1c3.5,-0 6,-2.8 6,-6.1c-0,-3.3 -2.5,-6 -5.9,-6c-3.5,-0 -6,2.8 -6,6.1c-0,3.2 2.5,6 5.9,6m-10.6,-0.3l1.1,-0l-0,-11.6l-1.1,-0l-0,11.6Zm-0.2,-14.6l1.4,0l-0,-1.5l-1.4,0l-0,1.5Zm-9.4,13.8c-2.7,-0 -4.8,-2.2 -4.8,-5c-0,-2.7 2,-5 4.7,-5c2.7,-0 4.8,2.2 4.8,5c0.1,2.8 -1.9,5 -4.7,5m-0,1.1c3.5,-0 6,-2.8 6,-6.1c-0,-3.3 -2.5,-6 -5.9,-6c-3.5,-0 -6,2.8 -6,6.1c-0.1,3.2 2.4,6 5.9,6m-19.1,-0.3l1.1,-0l-0,-6.7c-0,-2.4 1.8,-4.1 4,-4.1c2.3,-0 3.7,1.6 3.7,4l-0,6.9l1.1,-0l-0,-7.1c-0,-2.8 -1.7,-4.8 -4.6,-4.8c-2.1,-0 -3.4,1.1 -4.2,2.4l-0,-2.2l-1.1,-0l-0,11.6Zm-15.9,-13.5l1,-0l-2,-3l-1.4,0.7l2.4,2.3Zm-3.9,7.2c0.2,-2.6 2,-4.5 4.3,-4.5c2.7,0 4,2.2 4.2,4.5l-8.5,0Zm4.5,6.6c2.2,0 3.6,-0.9 4.8,-2.2l-0.8,-0.7c-1,1 -2.2,1.8 -4,1.8c-2.3,-0 -4.3,-1.7 -4.6,-4.6l9.6,-0l-0,-0.5c-0,-3.4 -2.1,-6.1 -5.3,-6.1c-3.1,-0 -5.5,2.7 -5.5,6.1c0.1,3.7 2.8,6.2 5.8,6.2m-25.6,-0.3l1.1,-0l-0,-6.7c-0,-2.4 1.8,-4.1 4,-4.1c2.3,-0 3.7,1.6 3.7,4l-0,6.9l1.1,-0l-0,-7.1c-0,-2.8 -1.7,-4.8 -4.6,-4.8c-2.1,-0 -3.4,1.1 -4.2,2.4l-0,-2.2l-1.1,-0l-0,11.6Zm-9.4,-0.8c-2.7,0 -4.8,-2.2 -4.8,-5c-0,-2.7 2,-5 4.7,-5c2.7,0 4.8,2.2 4.8,5c-0,2.8 -2,5 -4.7,5m-0.1,1.1c3.5,0 6,-2.8 6,-6.1c-0,-3.3 -2.5,-6 -5.9,-6c-3.5,0 -6,2.8 -6,6.1c-0,3.2 2.5,6 5.9,6m-19.1,-0.3l1.1,0l-0,-6.7c-0,-2.4 1.8,-4.1 4,-4.1c2.3,-0 3.7,1.6 3.7,4l-0,6.9l1.1,-0l-0,-7.1c-0,-2.8 -1.7,-4.8 -4.6,-4.8c-2.1,0 -3.4,1.1 -4.2,2.4l-0,-2.2l-1.1,-0l-0,11.6Zm-16.3,-0.8c-1.8,0 -3.4,-1 -3.4,-2.7c-0,-1.6 1.4,-2.7 3.8,-2.7c1.7,0 3,0.3 3.9,0.5l-0,1.3c0.1,2.2 -1.9,3.6 -4.3,3.6m-0.1,1.1c2.2,0 3.6,-1.1 4.4,-2.2l-0,1.9l1.1,0l-0,-7.2c-0,-1.4 -0.4,-2.5 -1.2,-3.3c-0.8,-0.8 -2.1,-1.3 -3.7,-1.3c-1.6,0 -2.8,0.4 -4.1,1l0.4,1c1.1,-0.5 2.2,-0.9 3.6,-0.9c2.4,0 3.8,1.2 3.8,3.6l-0,0.5c-1.1,-0.3 -2.2,-0.5 -3.8,-0.5c-3,0 -5.1,1.4 -5.1,3.8c0.2,2.4 2.5,3.6 4.6,3.6m-11.4,0c2.1,0 3.6,-1 4.7,-2.3l-0.8,-0.7c-1,1.1 -2.3,1.9 -3.9,1.9c-2.7,0 -4.8,-2.2 -4.8,-5c-0,-2.8 2,-5 4.7,-5c1.7,0 2.9,0.9 3.9,1.9l0.8,-0.8c-1.1,-1.1 -2.5,-2.1 -4.6,-2.1c-3.3,0 -5.9,2.8 -5.9,6.1c-0,3.2 2.6,6 5.9,6m-10.6,-0.3l1.1,0l-0,-11.6l-1.1,0l0,11.6Zm-0.1,-14.6l1.4,0l0,-1.5l-1.4,0l0,1.5Zm-5.3,14.8c0.7,0 1.3,-0.1 1.9,-0.4l0,-1c-0.7,0.3 -1.1,0.4 -1.7,0.4c-1.3,0 -2.3,-0.6 -2.3,-2.3l0,-7.5l4.1,0l0,-1l-4.1,0l0,-3.7l-1.1,0l0,3.7l-1.7,0l0,1l1.7,0l0,7.6c-0.1,2.2 1.4,3.2 3.2,3.2m-13.2,-1c-1.8,0 -3.4,-1 -3.4,-2.7c0,-1.6 1.4,-2.7 3.8,-2.7c1.7,-0 3,0.3 3.9,0.5l0,1.3c0.1,2.2 -2,3.6 -4.3,3.6m-0.1,1.1c2.2,0 3.6,-1.1 4.4,-2.2l0,1.9l1.1,-0l0,-7.2c0,-1.4 -0.4,-2.5 -1.2,-3.3c-0.8,-0.8 -2.1,-1.3 -3.7,-1.3c-1.6,0 -2.8,0.4 -4.1,1l0.4,1c1.1,-0.5 2.2,-0.9 3.6,-0.9c2.4,0 3.8,1.2 3.8,3.6l0,0.5c-1.1,-0.3 -2.2,-0.5 -3.8,-0.5c-3,0 -5.1,1.4 -5.1,3.8c0.1,2.4 2.4,3.6 4.6,3.6m-25.3,-0.3l1.2,-0l0,-6.7c0,-2.3 1.6,-4.2 3.7,-4.2c2.1,-0 3.4,1.5 3.4,3.9l0,7l1.1,-0l0,-6.8c0,-2.6 1.7,-4.1 3.7,-4.1c2.1,-0 3.4,1.5 3.4,4l0,6.9l1.1,-0l0,-7c0,-2.9 -1.7,-4.9 -4.5,-4.9c-2.2,-0 -3.4,1.2 -4.2,2.5c-0.6,-1.3 -1.9,-2.5 -3.9,-2.5c-2.1,-0 -3.1,1.1 -3.9,2.3l0,-2.1l-1.1,-0l0,11.7Zm-9,-0l1.1,-0l0,-4.8c0,-3.8 2.3,-5.8 5,-5.8l0.1,0l0,-1.2c-2.3,-0.1 -4.2,1.4 -5.1,3.5l0,-3.3l-1.1,0l0,11.6Zm-9.4,-0.8c-2.7,0 -4.8,-2.2 -4.8,-5c0,-2.7 2,-5 4.7,-5c2.7,0 4.8,2.2 4.8,5c0.1,2.8 -1.9,5 -4.7,5m0,1.1c3.5,0 6,-2.8 6,-6.1c0,-3.3 -2.5,-6 -5.9,-6c-3.5,0 -6,2.8 -6,6.1c-0.1,3.2 2.4,6 5.9,6m-12.5,-0.3l1.1,-0l0,-10.6l4.1,-0l0,-1l-4.1,-0l0,-1.1c0,-2 0.8,-2.9 2.3,-2.9c0.6,-0 1.1,0.1 1.7,0.3l0,-1c-0.5,-0.2 -1,-0.3 -1.7,-0.3c-1,-0 -1.8,0.3 -2.4,0.9c-0.7,0.7 -1,1.7 -1,3l0,1.1l-1.7,-0l0,1l1.7,-0l0,10.6Zm-14.6,-0l1.1,-0l0,-6.7c0,-2.4 1.8,-4.1 4,-4.1c2.3,-0 3.7,1.6 3.7,4l0,6.9l1.1,-0l0,-7.1c0,-2.8 -1.7,-4.8 -4.6,-4.8c-2.1,-0 -3.4,1.1 -4.2,2.4l0,-2.2l-1.1,-0l0,11.6Zm-5.5,0l1.1,0l0,-11.6l-1.1,0l0,11.6Zm-0.2,-14.6l1.4,0l0,-1.5l-1.4,0l0,1.5Zm-5.8,3c1.4,-0.5 1.9,-1.3 1.9,-2.7l0,-1.7l-1.5,0l0,1.9l0.6,0c0.1,0.9 -0.3,1.4 -1.3,1.9l0.3,0.6Zm-12.5,11.6l10.6,0l0,-1.1l-9.4,0l0,-14.8l-1.2,-0l0,15.9Z" style="fill:#283583;fill-rule:nonzero;"/><path d="M626.1,268.6l1.5,-0l0,-1.9l-1.5,-0l0,1.9Zm-8.7,-0.8c-2.7,-0 -4.8,-2.2 -4.8,-5c0,-2.7 2,-5 4.7,-5c2.7,-0 4.8,2.2 4.8,5c0.1,2.7 -1.9,5 -4.7,5m0,1c3.5,-0 6,-2.8 6,-6.1c0,-3.3 -2.5,-6 -5.9,-6c-3.5,-0 -6,2.8 -6,6.1c-0.1,3.3 2.4,6 5.9,6m-10.1,-0c0.7,-0 1.3,-0.1 1.9,-0.4l0,-1c-0.7,0.3 -1.1,0.4 -1.7,0.4c-1.3,-0 -2.3,-0.6 -2.3,-2.3l0,-7.5l4.1,-0l0,-1l-4.1,-0l0,-3.7l-1.1,-0l0,3.7l-1.7,-0l0,1l1.7,-0l0,7.6c0,2.2 1.4,3.2 3.2,3.2m-17.8,-0.2l1.1,-0l0,-6.7c0,-2.4 1.8,-4.1 4,-4.1c2.3,-0 3.7,1.6 3.7,4l0,6.9l1.1,-0l0,-7.1c0,-2.8 -1.7,-4.8 -4.6,-4.8c-2.1,-0 -3.4,1.1 -4.2,2.4l0,-2.2l-1.1,-0l0,11.6Zm-12.9,-6.4c0.2,-2.6 2,-4.5 4.3,-4.5c2.7,-0 4,2.2 4.2,4.5l-8.5,-0Zm4.5,6.6c2.2,-0 3.6,-0.9 4.8,-2.2l-0.8,-0.7c-1,1 -2.2,1.8 -4,1.8c-2.3,-0 -4.4,-1.7 -4.6,-4.6l9.6,-0l0,-0.5c0,-3.4 -2.1,-6.1 -5.3,-6.1c-3.1,-0 -5.5,2.7 -5.5,6.1c0.1,3.8 2.8,6.2 5.8,6.2m-26.6,-0.2l1.2,-0l0,-6.7c0,-2.3 1.6,-4.2 3.7,-4.2c2.1,-0 3.4,1.5 3.4,3.9l0,7l1.1,-0l0,-6.8c0,-2.6 1.7,-4.1 3.7,-4.1c2.1,-0 3.4,1.5 3.4,4l-0,6.9l1.1,-0l0,-7c0,-2.9 -1.7,-4.9 -4.5,-4.9c-2.2,-0 -3.4,1.2 -4.2,2.5c-0.6,-1.3 -1.9,-2.5 -3.9,-2.5c-2.1,-0 -3.1,1.1 -3.9,2.3l0,-2.1l-1.1,-0l0,11.7Zm-5.5,-0l1.1,-0l0,-11.6l-1.1,-0l-0,11.6Zm-0.1,-14.7l1.4,-0l0,-1.5l-1.4,-0l0,1.5Zm-9.1,14.7l1.1,-0l0,-4.8c0,-3.8 2.3,-5.8 5,-5.8l0.1,-0l0,-1.2c-2.3,-0.1 -4.2,1.4 -5.1,3.5l0,-3.3l-1.1,-0l0,11.6Zm-12.9,-6.4c0.2,-2.6 2,-4.5 4.3,-4.5c2.7,-0 4,2.2 4.2,4.5l-8.5,-0Zm4.5,6.6c2.2,-0 3.6,-0.9 4.8,-2.2l-0.8,-0.7c-1,1 -2.2,1.8 -4,1.8c-2.3,-0 -4.3,-1.7 -4.6,-4.6l9.6,-0l0,-0.5c0,-3.4 -2.1,-6.1 -5.3,-6.1c-3.1,-0 -5.5,2.7 -5.5,6.1c0.1,3.8 2.7,6.2 5.8,6.2m-12.3,-0.2l1.1,-0l-0,-10.6l4.1,-0l0,-1l-4.1,-0l-0,-1.1c-0,-2 0.8,-2.9 2.3,-2.9c0.6,-0 1.1,0.1 1.7,0.3l-0,-1c-0.5,-0.2 -1,-0.3 -1.7,-0.3c-1,-0 -1.8,0.3 -2.4,0.9c-0.7,0.7 -1,1.7 -1,3l0,1.1l-1.7,-0l0,1l1.7,-0l0,10.6Zm-6.2,-0l1.1,-0l0,-11.6l-1.1,-0l0,11.6Zm-0.1,-14.7l1.4,-0l0,-1.5l-1.4,-0l0,1.5Zm-9.1,14.7l1.1,-0l0,-4.8c0,-3.8 2.3,-5.8 5,-5.8l0.1,-0l0,-1.2c-2.3,-0.1 -4.2,1.4 -5.1,3.5l0,-3.3l-1.1,-0l0,11.6Zm-12.4,-0l1.1,-0l0,-11.6l-1.1,-0l0,11.6Zm-0.1,-14.7l1.4,-0l0,-1.5l-1.4,-0l0,1.5Zm-10,13.9c-2.4,-0 -4.6,-2 -4.6,-5c0,-3.1 2,-5 4.6,-5c2.4,-0 4.7,2 4.7,5c0,2.9 -2.3,5 -4.7,5m-0.2,1c2.3,-0 3.8,-1.3 4.8,-2.9l0,2.6l1.1,-0l0,-16.6l-1.1,-0l0,7.5c-1,-1.5 -2.5,-2.8 -4.8,-2.8c-2.8,-0 -5.6,2.3 -5.6,6.1c0,3.9 2.8,6.1 5.6,6.1m-17.2,-0.2l1.1,-0l0,-11.6l-1.1,-0l0,11.6Zm-0.1,-14.7l1.4,-0l0,-1.5l-1.4,-0l0,1.5Zm-5.3,14.9c0.7,-0 1.3,-0.1 1.9,-0.4l0,-1c-0.7,0.3 -1.1,0.4 -1.7,0.4c-1.3,-0 -2.3,-0.6 -2.3,-2.3l0,-7.5l4.1,-0l0,-1l-4.1,-0l0,-3.7l-1.1,-0l0,3.7l-1.7,-0l0,1l1.7,-0l0,7.6c0,2.2 1.4,3.2 3.2,3.2m-17.8,-0.2l1.1,-0l0,-6.7c0,-2.4 1.8,-4.1 4,-4.1c2.3,-0 3.7,1.6 3.7,4l0,6.9l1.1,-0l0,-7.1c0,-2.8 -1.7,-4.8 -4.6,-4.8c-2.1,-0 -3.4,1.1 -4.2,2.4l0,-2.2l-1.1,-0l0,11.6Zm-9.6,0.2c2.1,-0 3.4,-1.1 4.2,-2.4l0,2.2l1.1,-0l0,-11.6l-1.1,-0l0,6.7c0,2.4 -1.8,4.1 -4,4.1c-2.3,-0 -3.7,-1.6 -3.7,-4l0,-6.9l-1.1,-0l0,7.1c0,2.8 1.7,4.8 4.6,4.8m-13.6,-1c-2.4,-0 -4.7,-2 -4.7,-5c0,-3 2.3,-5 4.7,-5c2.4,-0 4.6,2 4.6,5c-0.1,3.1 -2.1,5 -4.6,5m-5.8,4.4l1.1,-0l0,-6.1c1,1.5 2.5,2.8 4.8,2.8c2.8,-0 5.6,-2.3 5.6,-6.1c0,-3.8 -2.8,-6 -5.6,-6c-2.3,-0 -3.8,1.3 -4.8,2.9l0,-2.6l-1.1,-0l0,15.1Z" style="fill:#283583;fill-rule:nonzero;"/><path d="M1037.8,234.4l1.1,-0l0,-11.6l-1.1,-0l0,11.6Zm-0.2,-14.6l1.4,-0l0,-1.5l-1.4,-0l0,1.5Zm-9.1,14.6l1.1,-0l0,-4.8c0,-3.8 2.3,-5.8 5,-5.8l0.1,-0l0,-1.2c-2.3,-0.1 -4.2,1.4 -5.1,3.5l0,-3.3l-1.1,-0l0,11.6Zm-5.2,0.2c0.7,-0 1.3,-0.1 1.9,-0.4l0,-1c-0.7,0.3 -1.1,0.4 -1.7,0.4c-1.3,-0 -2.3,-0.6 -2.3,-2.3l0,-7.5l4.1,-0l0,-1l-4.2,-0l0,-3.7l-1.1,-0l0,3.7l-1.7,-0l0,1l1.7,-0l0,7.6c0,2.3 1.5,3.2 3.3,3.2m-11.2,0.1c2.2,0 4,-1.3 4,-3.4c0,-2 -2,-2.7 -3.8,-3.3c-1.7,-0.5 -3.2,-1 -3.2,-2.3c0,-1.2 1,-2 2.6,-2c1.2,0 2.5,0.5 3.6,1.2l0.6,-0.9c-1.2,-0.8 -2.7,-1.3 -4.1,-1.3c-2.3,0 -3.8,1.3 -3.8,3.2c0,2.1 2.1,2.6 4,3.2c1.6,0.5 3.1,1 3.1,2.3c0,1.3 -1.2,2.2 -2.8,2.2c-1.5,0 -2.9,-0.5 -4.2,-1.5l-0.7,0.9c1.1,1 3,1.7 4.7,1.7m-13.2,-1c-2.7,0 -4.8,-2.2 -4.8,-5c0,-2.7 2,-5 4.7,-5c2.7,0 4.8,2.2 4.8,5c0.1,2.7 -1.9,5 -4.7,5m0,1c3.5,0 6,-2.8 6,-6.1c0,-3.3 -2.5,-6 -5.9,-6c-3.5,0 -6,2.8 -6,6.1c-0.1,3.2 2.4,6 5.9,6m-19.1,-0.3l1.1,0l0,-6.7c0,-2.4 1.8,-4.1 4,-4.1c2.3,0 3.7,1.6 3.7,4l0,6.9l1.1,0l0,-7.1c0,-2.8 -1.7,-4.8 -4.6,-4.8c-2.1,0 -3.4,1.1 -4.2,2.4l0,-2.2l-1.1,0l0,11.6Zm-12.4,0l1.1,0l0,-11.6l-1.1,0l0,11.6Zm-0.1,-14.6l1.4,0l0,-1.5l-1.4,0l0,1.5Zm-16.2,13.9c-2.7,0 -4.8,-2.2 -4.8,-5c0,-2.7 2,-5 4.7,-5c2.7,0 4.8,2.2 4.8,5c0,2.7 -2,5 -4.7,5m-0.1,1c3.5,0 6,-2.8 6,-6.1c0,-3.3 -2.5,-6 -5.9,-6c-3.5,0 -6,2.8 -6,6.1c0,3.2 2.5,6 5.9,6m-19.1,-0.3l1.1,0l0,-6.7c0,-2.4 1.8,-4.1 4,-4.1c2.3,0 3.7,1.6 3.7,4l0,6.9l1.1,0l0,-7.1c0,-2.8 -1.7,-4.8 -4.6,-4.8c-2.1,0 -3.4,1.1 -4.2,2.4l0,-2.2l-1.1,-0l0,11.6Zm-9.4,-0.7c-2.7,0 -4.8,-2.2 -4.8,-5c0,-2.7 2,-5 4.7,-5c2.7,0 4.8,2.2 4.8,5c0.1,2.7 -1.9,5 -4.7,5m0,1c3.5,0 6,-2.8 6,-6.1c0,-3.3 -2.5,-6 -5.9,-6c-3.5,0 -6,2.8 -6,6.1c-0.1,3.2 2.4,6 5.9,6m-12.7,0c2.2,0 4,-1.3 4,-3.4c0,-2 -2,-2.7 -3.8,-3.3c-1.7,-0.5 -3.2,-1 -3.2,-2.3c0,-1.2 1,-2 2.6,-2c1.2,0 2.5,0.5 3.6,1.2l0.6,-0.9c-1.2,-0.8 -2.7,-1.3 -4.1,-1.3c-2.3,0 -3.8,1.3 -3.8,3.2c0,2.1 2.1,2.6 4,3.2c1.6,0.5 3.1,1 3.1,2.3c0,1.3 -1.2,2.2 -2.8,2.2c-1.5,0 -2.9,-0.5 -4.2,-1.5l-0.7,0.9c1.1,1 3,1.7 4.7,1.7m-19.7,-13.8l1,0l-2,-3l-1.4,0.7l2.4,2.3Zm-0.4,12.8c-1.8,0 -3.4,-1 -3.4,-2.7c0,-1.6 1.4,-2.7 3.8,-2.7c1.7,0 3,0.3 3.9,0.5l0,1.3c0.1,2.1 -1.9,3.6 -4.3,3.6m-0.1,1c2.2,0 3.6,-1.1 4.4,-2.2l0,1.9l1.1,0l0,-7.2c0,-1.4 -0.4,-2.5 -1.2,-3.3c-0.8,-0.8 -2.1,-1.3 -3.7,-1.3c-1.6,0 -2.8,0.4 -4.1,1l0.4,1c1.1,-0.5 2.2,-0.9 3.6,-0.9c2.4,0 3.8,1.2 3.8,3.6l0,0.5c-1.1,-0.3 -2.2,-0.5 -3.8,-0.5c-3,0 -5.1,1.4 -5.1,3.8c0.2,2.4 2.5,3.6 4.6,3.6m-8.7,-0.1c0.7,0 1.3,-0.1 1.9,-0.4l0,-1c-0.7,0.3 -1.1,0.4 -1.7,0.4c-1.3,0 -2.3,-0.6 -2.3,-2.3l0,-7.5l4.1,0l0,-1l-4.1,0l0,-3.7l-1.1,0l0,3.7l-1.7,0l0,1l1.7,0l0,7.6c-0.1,2.3 1.4,3.2 3.2,3.2m-9.4,-0.2l1.1,0l0,-11.6l-1.1,0l0,11.6Zm-0.1,-14.6l1.4,0l0,-1.5l-1.4,0l0,1.5Zm-5.6,14.6l1.1,0l0,-16.6l-1.1,0l0,16.6Zm-9.6,-0.7c-1.8,0 -3.4,-1 -3.4,-2.7c0,-1.6 1.4,-2.7 3.8,-2.7c1.7,0 3,0.3 3.9,0.5l0,1.3c0.1,2.1 -1.9,3.6 -4.3,3.6m-0.1,1c2.2,0 3.6,-1.1 4.4,-2.2l0,1.9l1.1,0l0,-7.2c0,-1.4 -0.4,-2.5 -1.2,-3.3c-0.8,-0.8 -2.1,-1.3 -3.7,-1.3c-1.6,0 -2.8,0.4 -4.1,1l0.4,1c1.1,-0.5 2.2,-0.9 3.6,-0.9c2.4,0 3.8,1.2 3.8,3.6l0,0.5c-1.1,-0.3 -2.2,-0.5 -3.8,-0.5c-3,0 -5.1,1.4 -5.1,3.8c0.1,2.4 2.5,3.6 4.6,3.6m-13,0c2.1,0 3.4,-1.1 4.2,-2.4l0,2.2l1.1,0l0,-11.6l-1.1,0l0,6.7c0,2.4 -1.8,4.1 -4,4.1c-2.3,0 -3.7,-1.6 -3.7,-4l0,-6.9l-1.1,0l0,7.1c-0.1,2.8 1.6,4.8 4.6,4.8m-14.5,-1.1c-2.4,0 -4.6,-2 -4.6,-5c0,-3.1 2,-5 4.6,-5c2.4,0 4.7,2 4.7,5c0.1,3 -2.3,5 -4.7,5m4.7,4.5l1.1,0l0,-15.3l-1.1,0l0,2.5c-1,-1.5 -2.5,-2.8 -4.8,-2.8c-2.8,0 -5.6,2.3 -5.6,6.1c0,3.8 2.8,6 5.6,6c2.3,0 3.8,-1.3 4.8,-2.9l0,6.4Zm-26,-4.4c-1.8,0 -3.4,-1 -3.4,-2.7c0,-1.6 1.4,-2.7 3.8,-2.7c1.7,0 3,0.3 3.9,0.5l0,1.3c0.1,2.1 -1.9,3.6 -4.3,3.6m-0.1,1c2.2,0 3.6,-1.1 4.4,-2.2l0,1.9l1.1,0l0,-7.2c0,-1.4 -0.4,-2.5 -1.2,-3.3c-0.8,-0.8 -2.1,-1.3 -3.7,-1.3c-1.6,0 -2.8,0.4 -4.1,1l0.4,1c1.1,-0.5 2.2,-0.9 3.6,-0.9c2.4,0 3.8,1.2 3.8,3.6l0,0.5c-1.1,-0.3 -2.2,-0.5 -3.8,-0.5c-3,0 -5.1,1.4 -5.1,3.8c0.1,2.4 2.5,3.6 4.6,3.6m-9,-0.3l1.1,0l0,-16.6l-1.1,0l0,16.6Zm-19.9,-6.3c0.2,-2.6 2,-4.5 4.3,-4.5c2.7,0 4,2.2 4.2,4.5l-8.5,0Zm4.5,6.6c2.2,0 3.6,-0.9 4.8,-2.2l-0.8,-0.7c-1,1 -2.2,1.8 -4,1.8c-2.3,0 -4.4,-1.7 -4.6,-4.6l9.6,0l0,-0.5c0,-3.4 -2.1,-6.1 -5.3,-6.1c-3.1,0 -5.5,2.7 -5.5,6.1c0.1,3.8 2.7,6.2 5.8,6.2m-40,-0.9c-7,0 -13.3,-3.4 -13.3,-10.5l0,-0.2c0,-7.4 7.1,-11 16.2,-11c6.1,0 10.7,1 15,2.6l0,5.1c-0.1,7.1 -7.2,14 -17.9,14m-0.1,1.6c10.2,0 16.2,-5.8 17.9,-10.4l0,9.4l1.7,0l0,-24.9c0,-5 -1.4,-8.9 -3.9,-11.4c-3,-3 -7.3,-4.4 -12.8,-4.4c-5.2,0 -9.6,1.4 -14,3.5l0.6,1.4c4.2,-2 8.3,-3.4 13.3,-3.4c9.4,0 15.1,4.6 15.1,14.2l0,3.4c-4,-1.4 -9.4,-2.5 -15,-2.5c-10,0 -17.8,4.3 -17.8,12.7l0,0.2c0,8.1 7.1,12.2 14.9,12.2m-38.9,0c7.5,0 12.6,-3.5 16.3,-7.9l-1.2,-1.1c-3.5,4 -8.2,7.4 -15,7.4c-10.5,0 -18.7,-9 -18.7,-19.4l0,-0.2c0,-10.4 8,-19.2 18.6,-19.2c6.7,0 11.3,3.1 14.9,7l1.2,-1.1c-4,-4.2 -8.6,-7.4 -16,-7.4c-11.6,0 -20.5,9.5 -20.5,20.9l0,0.2c0,11.3 9,20.8 20.4,20.8m-34.6,-1l1.7,0l0,-40l-1.7,0l0,40Zm-0.4,-51.4l2.5,0l0,-4.6l-2.5,0l0,4.6Zm-48.7,51.4l1.7,0l0,-22.2c0,-9.6 7,-17.2 15.9,-17.2c10.1,0 15.3,6.9 15.3,16.9l0,22.5l1.7,0l0,-22.6c0,-11 -6,-18.3 -16.8,-18.3c-9.5,0 -14.8,7 -16.1,11.9l0,-11l-1.7,0l0,40Zm-27.3,1c7.5,0 12.6,-3.5 16.3,-7.9l-1.2,-1.1c-3.5,4 -8.2,7.4 -15,7.4c-10.5,0 -18.7,-9 -18.7,-19.4l0,-0.2c0,-10.4 8,-19.2 18.6,-19.2c6.7,0 11.3,3.1 14.9,7l1.2,-1.1c-4,-4.2 -8.6,-7.4 -16,-7.4c-11.6,0 -20.5,9.5 -20.5,20.9l0,0.2c0,11.3 9,20.8 20.4,20.8m-65.2,-22c0.4,-10.5 7.4,-18.3 17.3,-18.3c10.6,0 16.3,9.2 16.6,18.3l-33.9,0Zm18.2,22c7,0 12.8,-3.8 16.2,-8.7l-1.4,-1c-3.2,4.5 -8.6,8.1 -14.8,8.1c-9.8,0 -17.9,-7.4 -18.2,-18.9l35.8,0l0,-0.3c0,-10 -5.8,-21.1 -18.4,-21.1c-11.1,0 -19.2,9 -19.2,20.8l0,0.2c0,12.8 9,20.9 20,20.9m-33.5,-0.3c2.1,0 4.2,-0.4 6.1,-1.3l0,-1.8c-1.9,1 -4.1,1.4 -6.1,1.4c-5.7,0 -8.6,-3.5 -8.6,-9.5l0,-28.1l14.8,0l0,-1.4l-14.8,0l0,-13.8l-1.6,0l0,13.8l-6.3,0l0,1.5l6.3,0l0,28.2c0,7 3.6,11 10.2,11m-34,-1.4c-1.8,0 -3.4,-1 -3.4,-2.7c0,-1.6 1.4,-2.7 3.8,-2.7c1.7,0 3,0.3 3.9,0.5l0,1.3c0.1,2.1 -1.9,3.6 -4.3,3.6m-0.1,1c2.2,0 3.6,-1.1 4.4,-2.2l0,1.9l1.1,0l0,-7.2c0,-1.4 -0.4,-2.5 -1.2,-3.3c-0.8,-0.8 -2.1,-1.3 -3.7,-1.3c-1.6,0 -2.8,0.4 -4.1,1l0.4,1c1.1,-0.5 2.2,-0.9 3.6,-0.9c2.4,0 3.8,1.2 3.8,3.6l0,0.5c-1.1,-0.3 -2.2,-0.5 -3.8,-0.5c-3,0 -5.1,1.4 -5.1,3.8c0.1,2.4 2.5,3.6 4.6,3.6m-9,-0.3l1.1,0l0,-16.6l-1.1,0l0,16.6Zm-12.9,2.5c1.4,-0.5 1.9,-1.3 1.9,-2.7l0,-1.7l-1.5,0l0,1.9l0.6,0c0.1,0.9 -0.3,1.4 -1.3,1.9l0.3,0.6Zm-12,-8.8c0.2,-2.6 2,-4.5 4.3,-4.5c2.7,0 4,2.2 4.2,4.5l-8.5,0Zm4.5,6.6c2.2,0 3.6,-0.9 4.8,-2.2l-0.8,-0.7c-1,1 -2.2,1.8 -4,1.8c-2.3,0 -4.4,-1.7 -4.6,-4.6l9.6,0l0,-0.5c0,-3.4 -2.1,-6.1 -5.3,-6.1c-3.1,0 -5.5,2.7 -5.5,6.1c0.1,3.8 2.7,6.2 5.8,6.2m-9.8,-0.1c0.7,0 1.3,-0.1 1.9,-0.4l0,-1c-0.7,0.3 -1.1,0.4 -1.7,0.4c-1.3,0 -2.3,-0.6 -2.3,-2.3l0,-7.5l4.1,0l0,-1l-4.1,0l0,-3.7l-1.1,0l0,3.7l-1.7,0l0,1l1.7,0l0,7.6c-0.1,2.3 1.4,3.2 3.2,3.2m-17.8,-0.2l1.1,0l0,-6.7c0,-2.4 1.8,-4.1 4,-4.1c2.3,0 3.7,1.6 3.7,4l0,6.9l1.1,0l0,-7.1c0,-2.8 -1.7,-4.8 -4.6,-4.8c-2.1,0 -3.4,1.1 -4.2,2.4l0,-2.2l-1.1,-0l0,11.6Zm-13,-6.3c0.2,-2.6 2,-4.5 4.3,-4.5c2.7,0 4,2.2 4.2,4.5l-8.5,0Zm4.6,6.6c2.2,0 3.6,-0.9 4.8,-2.2l-0.8,-0.7c-1,1 -2.2,1.8 -4,1.8c-2.3,0 -4.3,-1.7 -4.6,-4.6l9.6,0l0,-0.5c0,-3.4 -2.1,-6.1 -5.3,-6.1c-3.1,0 -5.5,2.7 -5.5,6.1c0.1,3.8 2.7,6.2 5.8,6.2m-10.5,-0.3l1.1,0l0,-11.6l-1.1,0l0,11.6Zm-0.1,-14.6l1.4,0l0,-1.5l-1.4,0l0,1.5Zm-5.5,14.6l1.1,0l0,-16.6l-1.1,0l0,16.6Zm-8.1,0.3c2.1,0 3.6,-1 4.7,-2.3l-0.8,-0.7c-1,1.1 -2.3,1.9 -3.9,1.9c-2.7,0 -4.8,-2.2 -4.8,-5c0,-2.8 2,-5 4.7,-5c1.7,0 2.9,0.9 3.9,1.9l0.8,-0.8c-1.1,-1.1 -2.5,-2.1 -4.6,-2.1c-3.3,-0 -5.9,2.8 -5.9,6.1c0,3.2 2.6,6 5.9,6m-17.4,-0.3l1.1,0l0,-16.6l-1.1,0l0,16.6Zm-5.7,0l1.1,0l0,-11.6l-1.1,0l0,11.6Zm-0.1,-14.6l1.4,0l0,-1.5l-1.4,0l0,1.5Zm-12.8,17.1c1.4,-0.5 1.9,-1.3 1.9,-2.7l0,-1.7l-1.5,0l0,1.9l0.6,0c0.1,0.9 -0.3,1.4 -1.3,1.9l0.3,0.6Zm-26.7,-3.1c-11.2,0 -19.1,-8.8 -19.1,-19.3l0,-0.2c0,-10.5 7.7,-19.3 19,-19.3c11.2,0 19.1,8.8 19.1,19.3l0,0.2c-0.1,10.5 -7.7,19.3 -19,19.3m-0.1,1.6c12.6,0 20.8,-9.8 20.8,-21l0,-0.2c0,-11.2 -8.3,-20.8 -20.8,-20.8c-12.6,0 -20.8,9.8 -20.8,21l0,0.2c0,11.2 8.3,20.8 20.8,20.8m-34.2,-0.3c2.1,0 4.2,-0.4 6.1,-1.3l0,-1.8c-1.9,1 -4.1,1.4 -6.1,1.4c-5.7,0 -8.6,-3.5 -8.6,-9.5l0,-28.1l14.8,-0l0,-1.4l-14.7,0l0,-13.8l-1.7,0l0,13.8l-6.3,0l0,1.5l6.3,0l0,28.2c0,7 3.6,11 10.2,11m-29,0c2.1,0 4.2,-0.4 6.1,-1.3l0,-1.8c-1.9,1 -4.1,1.4 -6.1,1.4c-5.7,0 -8.6,-3.5 -8.6,-9.5l0,-28.1l14.8,0l0,-1.4l-14.8,0l0,-13.8l-1.7,0l0,13.8l-6.3,0l0,1.5l6.3,0l0,28.2c0.1,7 3.7,11 10.3,11m-60,-21.7c0.4,-10.5 7.4,-18.3 17.3,-18.3c10.6,0 16.3,9.2 16.6,18.3l-33.9,0Zm18.2,22c7,0 12.8,-3.8 16.2,-8.7l-1.4,-1c-3.2,4.5 -8.6,8.1 -14.8,8.1c-9.8,0 -17.9,-7.4 -18.2,-18.9l35.8,0l0,-0.3c0,-10 -5.8,-21.1 -18.4,-21.1c-11.1,0 -19.2,9 -19.2,20.8l0,0.2c0,12.8 9,20.9 20,20.9m-51.7,-5.5c-10,0 -18,-7.8 -18,-17.4l0,-0.2c0,-9.5 8,-17.3 18,-17.3c10,0 18.1,8.1 18.1,17.4l0,0.2c0,9.4 -8.1,17.3 -18.1,17.3m0.1,17.6c5.9,0 11,-1.8 14.3,-5.1c3.3,-3.3 5.1,-8 5.1,-14l0,-34l-1.7,0l0,10.6c-3,-6.8 -9.8,-11.6 -18,-11.6c-10.9,0 -19.8,8.6 -19.8,19l0,0.2c0,10.4 8.9,18.9 19.8,18.9c8.2,0 15,-4.8 18,-11.6l0,8.2c0,11.8 -7.1,17.8 -17.8,17.8c-6.4,0 -12,-2 -17.1,-5.9l-1,1.4c5.6,4 11.5,6.1 18.2,6.1m-50,-13.7c-11.2,0 -19.1,-8.8 -19.1,-19.3l0,-0.2c0,-10.5 7.7,-19.3 19,-19.3c11.2,0 19.1,8.8 19.1,19.3l0,0.2c-0.1,10.5 -7.8,19.3 -19,19.3m-0.1,1.6c12.6,0 20.8,-9.8 20.8,-21l0,-0.2c0,-11.2 -8.3,-20.8 -20.8,-20.8c-12.6,0 -20.8,9.8 -20.8,21l0,0.2c0,11.2 8.3,20.8 20.8,20.8m-42.7,-1l1.7,0l0,-20.7c0,-7.7 6.1,-18.6 16.1,-18.6l0.4,0l0,-1.6c-8.9,-0.1 -14.6,7.1 -16.5,13.8l0,-12.9l-1.7,0l0,40Zm-32.4,-0.6c-10.8,0 -18.5,-9 -18.5,-19.3l0,-0.2c0,-10.4 7.6,-19.3 18.5,-19.3c11,0 18.3,8.7 18.3,19.4l0,0.2c0.1,10.7 -7.3,19.2 -18.3,19.2m-20,13.4l1.7,0l0,-25.2c2.3,7.6 9.2,13.4 18.5,13.4c11.6,0 20,-9.3 20,-20.9l0,-0.2c0,-11.6 -8.4,-20.9 -20,-20.9c-9.3,0 -16.2,5.8 -18.5,13.4l0,-12.4l-1.7,0l0,52.8Zm-17.7,-12.8l1.1,0l0,-16.6l-1.1,0l0,16.6Zm-6,0l1.2,0l0,-15.9l-1.2,0l0,15.9Z" style="fill:#283583;fill-rule:nonzero;"/><path d="M954.9,170.3l1.5,-0l0,-1.9l-1.5,-0l0,1.9Zm-8.6,-0.8c-2.7,-0 -4.8,-2.2 -4.8,-5c0,-2.7 2,-5 4.7,-5c2.7,-0 4.8,2.2 4.8,5c0,2.8 -2,5 -4.7,5m-0.1,1.1c3.5,-0 6,-2.8 6,-6.1c0,-3.3 -2.5,-6 -5.9,-6c-3.5,-0 -6,2.8 -6,6.1c0,3.2 2.5,6 5.9,6m-13.7,-0.3l1.1,-0l0,-4.8c0,-3.8 2.3,-5.8 5,-5.8l0.1,-0l0,-1.2c-2.3,-0.1 -4.2,1.4 -5.1,3.5l0,-3.3l-1.1,-0l0,11.6Zm-9.4,-0.8c-2.7,0 -4.8,-2.2 -4.8,-5c0,-2.7 2,-5 4.7,-5c2.7,0 4.8,2.2 4.8,5c0.1,2.8 -1.9,5 -4.7,5m0,1.1c3.5,0 6,-2.8 6,-6.1c0,-3.3 -2.5,-6 -5.9,-6c-3.5,-0 -6,2.8 -6,6.1c0,3.2 2.5,6 5.9,6m-13.7,-0.2l1,0l5.2,-11.7l-1.3,0l-4.4,10.4l-4.4,-10.4l-1.3,0l5.2,11.7Zm-13,-0.9c-1.8,0 -3.4,-1 -3.4,-2.7c-0,-1.6 1.4,-2.7 3.8,-2.7c1.7,0 3,0.3 3.9,0.5l0,1.3c0.1,2.2 -2,3.6 -4.3,3.6m-0.1,1.1c2.2,-0 3.6,-1.1 4.4,-2.2l0,1.9l1.1,-0l0,-7.2c0,-1.4 -0.4,-2.5 -1.2,-3.3c-0.8,-0.8 -2.1,-1.3 -3.7,-1.3c-1.6,-0 -2.8,0.4 -4.1,1l0.4,1c1.1,-0.5 2.2,-0.9 3.6,-0.9c2.4,-0 3.8,1.2 3.8,3.6l0,0.5c-1.1,-0.3 -2.2,-0.5 -3.8,-0.5c-3,0 -5.1,1.4 -5.1,3.8c0.1,2.3 2.4,3.6 4.6,3.6m-9,-0.3l1.1,-0l0,-16.6l-1.1,-0l0,16.6Zm-12.5,-0l1.1,-0l0,-11.6l-1.1,-0l0,11.6Zm-0.2,-14.7l1.4,-0l0,-1.5l-1.4,-0l0,1.5Zm-10,13.9c-2.4,0 -4.6,-2 -4.6,-5c0,-3.1 2,-5 4.6,-5c2.4,0 4.7,2 4.7,5c0,3 -2.3,5 -4.7,5m-0.1,1.1c2.3,-0 3.8,-1.3 4.8,-2.9l0,2.6l1.1,0l0,-16.6l-1.1,0l0,7.5c-1,-1.5 -2.5,-2.8 -4.8,-2.8c-2.8,0 -5.6,2.3 -5.6,6.1c-0.1,3.8 2.8,6.1 5.6,6.1m-21.2,-1.1c-1.8,0 -3.4,-1 -3.4,-2.7c0,-1.6 1.4,-2.7 3.8,-2.7c1.7,0 3,0.3 3.9,0.5l0,1.3c0.1,2.2 -2,3.6 -4.3,3.6m-0.1,1.1c2.2,-0 3.6,-1.1 4.4,-2.2l0,1.9l1.1,-0l0,-7.2c0,-1.4 -0.4,-2.5 -1.2,-3.3c-0.8,-0.8 -2.1,-1.3 -3.7,-1.3c-1.6,-0 -2.8,0.4 -4.1,1l0.4,1c1.1,-0.5 2.2,-0.9 3.6,-0.9c2.4,-0 3.8,1.2 3.8,3.6l0,0.5c-1.1,-0.3 -2.2,-0.5 -3.8,-0.5c-3,0 -5.1,1.4 -5.1,3.8c0.1,2.3 2.4,3.6 4.6,3.6m-9,-0.3l1.1,-0l0,-11.6l-1.1,-0l0,11.6Zm-0.2,-14.7l1.4,-0l0,-1.5l-1.4,-0l0,1.5Zm-10.1,12.7c-2.4,-0 -4.5,-1.8 -4.5,-4.4c0,-2.7 2,-4.4 4.5,-4.4c2.4,0 4.8,1.7 4.8,4.4c0,2.7 -2.4,4.4 -4.8,4.4m0.2,5.7c1.7,0 3.2,-0.5 4.2,-1.5c0.9,-0.9 1.5,-2.3 1.5,-3.9l0,-9.8l-1.1,0l0,2.3c-1,-1.4 -2.5,-2.6 -4.8,-2.6c-2.8,0 -5.6,2.2 -5.6,5.5c0,3.3 2.8,5.5 5.6,5.5c2.3,0 3.8,-1.3 4.8,-2.7l0,1.7c0,3 -1.9,4.5 -4.6,4.5c-1.7,0 -3.3,-0.6 -4.7,-1.6l-0.7,0.9c1.6,1.1 3.4,1.7 5.4,1.7m-14.5,-4.5c-2.7,0 -4.8,-2.2 -4.8,-5c0,-2.7 2,-5 4.7,-5c2.7,0 4.8,2.2 4.8,5c0,2.8 -2,5 -4.7,5m-0.1,1.1c3.5,0 6,-2.8 6,-6.1c0,-3.3 -2.5,-6 -5.9,-6c-3.5,-0 -6,2.8 -6,6.1c0,3.2 2.5,6 5.9,6m-10.6,-0.3l1.1,0l0,-16.6l-1.1,-0l0,16.6Zm-9.6,-0.8c-2.7,0 -4.8,-2.2 -4.8,-5c0,-2.7 2,-5 4.7,-5c2.7,0 4.8,2.2 4.8,5c0.1,2.8 -1.9,5 -4.7,5m0,1.1c3.5,0 6,-2.8 6,-6.1c0,-3.3 -2.5,-6 -5.9,-6c-3.5,0 -6,2.8 -6,6.1c0,3.2 2.5,6 5.9,6m-15.2,-1.1c-2.4,0 -4.6,-2 -4.6,-5c0,-3.1 2,-5 4.6,-5c2.4,0 4.7,2 4.7,5c0.1,3 -2.3,5 -4.7,5m-0.1,1.1c2.3,0 3.8,-1.3 4.8,-2.9l0,2.6l1.1,0l0,-16.6l-1.1,0l0,7.5c-1,-1.5 -2.5,-2.8 -4.8,-2.8c-2.8,0 -5.6,2.3 -5.6,6.1c0,3.8 2.8,6.1 5.6,6.1m-14.3,-1.1c-2.7,0 -4.8,-2.2 -4.8,-5c0,-2.7 2,-5 4.7,-5c2.7,0 4.8,2.2 4.8,5c0.1,2.8 -1.9,5 -4.7,5m0,1.1c3.5,0 6,-2.8 6,-6.1c0,-3.3 -2.5,-6 -5.9,-6c-3.5,0 -6,2.8 -6,6.1c0,3.2 2.5,6 5.9,6m-10,-0.1c0.7,0 1.3,-0.1 1.9,-0.4l0,-1c-0.7,0.3 -1.1,0.4 -1.7,0.4c-1.3,0 -2.3,-0.6 -2.3,-2.3l0,-7.5l4.1,0l0,-1l-4.1,0l0,-3.7l-1.1,0l0,3.7l-1.7,0l0,1l1.7,0l0,7.6c-0.1,2.2 1.4,3.2 3.2,3.2m-16.8,-6.6c0.2,-2.6 2,-4.5 4.3,-4.5c2.7,0 4,2.2 4.2,4.5l-8.5,0Zm4.5,6.7c2.2,0 3.6,-0.9 4.8,-2.2l-0.8,-0.7c-1,1 -2.2,1.8 -4,1.8c-2.3,0 -4.4,-1.7 -4.6,-4.6l9.6,0l0,-0.5c0,-3.4 -2.1,-6.1 -5.3,-6.1c-3.1,0 -5.5,2.7 -5.5,6.1c0.1,3.7 2.7,6.2 5.8,6.2m-26.7,-0.3l1.2,0l0,-6.7c0,-2.3 1.6,-4.2 3.7,-4.2c2.1,0 3.4,1.5 3.4,3.9l0,7l1.1,0l0,-6.8c0,-2.6 1.7,-4.1 3.7,-4.1c2.1,0 3.4,1.5 3.4,4l0,6.9l1.1,-0l0,-7c0,-2.9 -1.7,-4.9 -4.5,-4.9c-2.2,0 -3.4,1.2 -4.2,2.5c-0.6,-1.3 -1.9,-2.5 -3.9,-2.5c-2.1,0 -3.1,1.1 -3.9,2.3l0,-2.1l-1.1,-0l0,11.7Zm-16.2,-0.8c-1.8,0 -3.4,-1 -3.4,-2.7c0,-1.6 1.4,-2.7 3.8,-2.7c1.7,0 3,0.3 3.9,0.5l0,1.3c0.1,2.2 -1.9,3.6 -4.3,3.6m0,1.1c2.2,0 3.6,-1.1 4.4,-2.2l0,1.9l1.1,0l0,-7.2c0,-1.4 -0.4,-2.5 -1.2,-3.3c-0.8,-0.8 -2.1,-1.3 -3.7,-1.3c-1.6,0 -2.8,0.4 -4.1,1l0.4,1c1.1,-0.5 2.2,-0.9 3.6,-0.9c2.4,0 3.8,1.2 3.8,3.6l0,0.5c-1.1,-0.3 -2.2,-0.5 -3.8,-0.5c-3,0 -5.1,1.4 -5.1,3.8c0.1,2.3 2.4,3.6 4.6,3.6m-17.5,-0.3l1.1,0l0,-6.7c0,-2.4 1.8,-4.1 4,-4.1c2.3,0 3.7,1.6 3.7,4l0,6.9l1.1,-0l0,-7.1c0,-2.8 -1.7,-4.8 -4.6,-4.8c-2.1,-0 -3.4,1.1 -4.2,2.4l0,-2.2l-1.1,-0l0,11.6Zm-9.6,0.3c2.1,0 3.4,-1.1 4.2,-2.4l0,2.2l1.1,0l0,-11.6l-1.1,0l0,6.7c0,2.4 -1.8,4.1 -4,4.1c-2.3,0 -3.7,-1.6 -3.7,-4l0,-6.9l-1.1,0l0,7.1c0,2.8 1.7,4.8 4.6,4.8m-17.1,2.1c1.4,-0.5 1.9,-1.3 1.9,-2.7l0,-1.7l-1.5,0l0,1.9l0.6,0c0.1,0.9 -0.3,1.4 -1.3,1.9l0.3,0.6Zm-12,-8.8c0.2,-2.6 2,-4.5 4.3,-4.5c2.7,0 4,2.2 4.2,4.5l-8.5,0Zm4.5,6.7c2.2,0 3.6,-0.9 4.8,-2.2l-0.8,-0.7c-1,1 -2.2,1.8 -4,1.8c-2.3,0 -4.3,-1.7 -4.6,-4.6l9.6,0l0,-0.5c0,-3.4 -2.1,-6.1 -5.3,-6.1c-3.1,-0 -5.5,2.7 -5.5,6.1c0.1,3.7 2.7,6.2 5.8,6.2m-13.5,-0.3l1.1,0l0,-4.8c0,-3.8 2.3,-5.8 5,-5.8l0.1,0l0,-1.2c-2.3,-0.1 -4.2,1.4 -5.1,3.5l0,-3.3l-1.1,0l0,11.6Zm-12.9,-6.4c0.2,-2.6 2,-4.5 4.3,-4.5c2.7,0 4,2.2 4.2,4.5l-8.5,0Zm4.5,6.7c2.2,0 3.6,-0.9 4.8,-2.2l-0.8,-0.7c-1,1 -2.2,1.8 -4,1.8c-2.3,0 -4.3,-1.7 -4.6,-4.6l9.6,0l0,-0.5c0,-3.4 -2.1,-6.1 -5.3,-6.1c-3.1,0 -5.5,2.7 -5.5,6.1c0.1,3.7 2.8,6.2 5.8,6.2m-12.4,-0.1c2.2,0 4,-1.3 4,-3.4c0,-2 -2,-2.7 -3.8,-3.3c-1.7,-0.5 -3.2,-1 -3.2,-2.3c0,-1.2 1,-2 2.6,-2c1.2,0 2.5,0.5 3.6,1.2l0.6,-0.9c-1.2,-0.8 -2.7,-1.3 -4.1,-1.3c-2.3,0 -3.8,1.3 -3.8,3.2c0,2.1 2.1,2.6 4,3.2c1.6,0.5 3.1,1 3.1,2.3c0,1.3 -1.2,2.2 -2.8,2.2c-1.5,0 -2.9,-0.5 -4.2,-1.5l-0.7,0.9c1.1,1 3,1.7 4.7,1.7m-11.1,0c2.2,0 4,-1.3 4,-3.4c0,-2 -2,-2.7 -3.8,-3.3c-1.7,-0.5 -3.2,-1 -3.2,-2.3c0,-1.2 1,-2 2.6,-2c1.2,0 2.5,0.5 3.6,1.2l0.6,-0.9c-1.2,-0.8 -2.7,-1.3 -4.1,-1.3c-2.3,0 -3.8,1.3 -3.8,3.2c0,2.1 2.1,2.6 4,3.2c1.6,0.5 3.1,1 3.1,2.3c0,1.3 -1.2,2.2 -2.8,2.2c-1.5,0 -2.9,-0.5 -4.2,-1.5l-0.7,0.9c1.1,1 3,1.7 4.7,1.7m-16.7,-6.6c0.2,-2.6 2,-4.5 4.3,-4.5c2.7,0 4,2.2 4.2,4.5l-8.5,0Zm4.5,6.7c2.2,0 3.6,-0.9 4.8,-2.2l-0.8,-0.7c-1,1 -2.2,1.8 -4,1.8c-2.3,0 -4.3,-1.7 -4.6,-4.6l9.6,0l0,-0.5c0,-3.4 -2.1,-6.1 -5.3,-6.1c-3.1,0 -5.5,2.7 -5.5,6.1c0.1,3.7 2.8,6.2 5.8,6.2m-17.2,-0.3l1.1,0l0,-11.6l-1.1,0l0,11.6Zm-0.2,-14.7l1.4,0l0,-1.5l-1.4,0l0,1.5Zm-10,13.9c-2.4,0 -4.6,-2 -4.6,-5c0,-3.1 2,-5 4.6,-5c2.4,0 4.7,2 4.7,5c0,3 -2.3,5 -4.7,5m-0.1,1.1c2.3,0 3.8,-1.3 4.8,-2.9l0,2.6l1.1,0l0,-16.6l-1.1,0l0,7.5c-1,-1.5 -2.5,-2.8 -4.8,-2.8c-2.8,0 -5.6,2.3 -5.6,6.1c-0.1,3.8 2.8,6.1 5.6,6.1m-21.1,-1.1c-2.7,0 -4.8,-2.2 -4.8,-5c0,-2.7 2,-5 4.7,-5c2.7,0 4.8,2.2 4.8,5c0,2.8 -2,5 -4.7,5m-0.1,1.1c3.5,0 6,-2.8 6,-6.1c0,-3.3 -2.5,-6 -5.9,-6c-3.5,0 -6,2.8 -6,6.1c0,3.2 2.5,6 5.9,6m-15.1,-1.1c-2.4,0 -4.6,-2 -4.6,-5c0,-3.1 2,-5 4.6,-5c2.4,0 4.7,2 4.7,5c0,3 -2.3,5 -4.7,5m-0.1,1.1c2.3,0 3.8,-1.3 4.8,-2.9l0,2.6l1.1,0l0,-16.6l-1.1,0l0,7.5c-1,-1.5 -2.5,-2.8 -4.8,-2.8c-2.8,0 -5.6,2.3 -5.6,6.1c-0.1,3.8 2.8,6.1 5.6,6.1m-14.3,-1.1c-2.7,0 -4.8,-2.2 -4.8,-5c0,-2.7 2,-5 4.7,-5c2.7,0 4.8,2.2 4.8,5c0,2.8 -2,5 -4.7,5m-0.1,1.1c3.5,0 6,-2.8 6,-6.1c0,-3.3 -2.5,-6 -5.9,-6c-3.5,0 -6,2.8 -6,6.1c0,3.2 2.5,6 5.9,6m-26.8,-0.3l1.1,0l0,-6.7c0,-2.3 1.6,-4.2 3.7,-4.2c2.1,0 3.4,1.5 3.4,3.9l0,7l1.1,0l0,-6.8c0,-2.6 1.7,-4.1 3.7,-4.1c2.1,0 3.4,1.5 3.4,4l0,6.9l1.1,0l0,-7c0,-2.9 -1.7,-4.9 -4.5,-4.9c-2.2,0 -3.4,1.2 -4.2,2.5c-0.6,-1.3 -1.9,-2.5 -3.9,-2.5c-2.1,0 -3.1,1.1 -3.9,2.3l0,-2.1l-1,0l0,11.7Zm-20.8,0l1.1,0l0,-6.7c0,-2.4 1.8,-4.1 4,-4.1c2.3,0 3.7,1.6 3.7,4l0,6.9l1.1,0l0,-7.1c0,-2.8 -1.7,-4.8 -4.6,-4.8c-2.1,0 -3.4,1.1 -4.2,2.4l0,-2.2l-1.1,0l0,11.6Zm-9.5,0.3c2.1,0 3.4,-1.1 4.2,-2.4l0,2.2l1.1,0l0,-11.6l-1.1,0l0,6.7c0,2.4 -1.8,4.1 -4,4.1c-2.3,0 -3.7,-1.6 -3.7,-4l0,-6.9l-1.1,0l0,7.1c0,2.8 1.7,4.8 4.6,4.8m-17.1,2.1c1.4,-0.5 1.9,-1.3 1.9,-2.7l0,-1.7l-1.5,0l0,1.9l0.6,0c0.1,0.9 -0.3,1.4 -1.3,1.9l0.3,0.6Zm-27.7,-3.1c-7,0 -13.3,-3.4 -13.3,-10.5l0,-0.2c0,-7.4 7.1,-11 16.2,-11c6.1,0 10.7,1 15,2.6l0,5.1c0,7.2 -7.1,14 -17.9,14m0,1.6c10.2,0 16.2,-5.8 17.9,-10.4l0,9.4l1.7,0l0,-24.8c0,-5 -1.4,-8.9 -3.9,-11.4c-3,-3 -7.3,-4.4 -12.8,-4.4c-5.2,0 -9.6,1.4 -14,3.5l0.6,1.4c4.2,-2 8.3,-3.4 13.3,-3.4c9.4,0 15.1,4.6 15.1,14.2l0,3.4c-4,-1.4 -9.4,-2.5 -15,-2.5c-10,0 -17.8,4.3 -17.8,12.7l0,0.2c-0.1,8.1 7,12.1 14.9,12.1m-59.2,-22c0.4,-10.5 7.4,-18.3 17.3,-18.3c10.6,0 16.3,9.2 16.6,18.3l-33.9,0Zm18.1,22c7,0 12.8,-3.8 16.2,-8.7l-1.4,-1c-3.2,4.5 -8.6,8.1 -14.8,8.1c-9.8,0 -17.9,-7.4 -18.2,-18.9l35.8,0l0,-0.3c0,-10 -5.8,-21.1 -18.4,-21.1c-11.1,0 -19.2,9 -19.2,20.8l0,0.2c0,12.9 9.1,20.9 20,20.9m-52.1,-1.6c-11,0 -18.3,-8.7 -18.3,-19.4l0,-0.2c0,-10.7 7.4,-19.2 18.3,-19.2c10.8,0 18.5,9 18.5,19.3l0,0.2c-0.1,10.5 -7.7,19.3 -18.5,19.3m-0.1,1.6c9.3,0 16.2,-5.8 18.5,-13.4l0,12.4l1.7,0l0,-58.4l-1.7,0l0,30.8c-2.3,-7.6 -9.2,-13.4 -18.5,-13.4c-11.6,0 -20,9.3 -20,20.9l0,0.2c0,11.7 8.4,20.9 20,20.9m-34.4,-0.9l1.7,0l0,-40l-1.7,0l0,40Zm-0.4,-51.5l2.5,0l0,-4.6l-2.5,0l0,4.6Zm-71.1,51.5l1.7,0l0,-22.2c0,-9.6 7,-17.2 15.9,-17.2c10.1,0 15.3,6.9 15.3,16.9l0,22.5l1.7,0l0,-22.6c0,-11 -6,-18.3 -16.8,-18.3c-9.5,0 -14.8,7 -16.1,11.9l0,-11l-1.7,0l0,40Zm-32.7,0.9c9.5,0 14.8,-7 16.1,-11.9l0,11l1.7,0l0,-40l-1.7,0l0,22.1c0,9.6 -7,17.2 -15.9,17.2c-10.1,0 -15.3,-6.9 -15.3,-16.9l0,-22.5l-1.7,0l0,22.6c0,11.2 6,18.4 16.8,18.4m-68.9,-48.5l1.1,0l-7,-9l-1.9,0.9l7.8,8.1Zm-17.1,26.5c0.4,-10.5 7.4,-18.3 17.3,-18.3c10.6,0 16.3,9.2 16.6,18.3l-33.9,0Zm18.2,22c7,0 12.8,-3.8 16.2,-8.7l-1.4,-1c-3.2,4.5 -8.6,8.1 -14.8,8.1c-9.8,0 -17.9,-7.4 -18.2,-18.9l35.8,0l0,-0.3c0,-10 -5.8,-21.1 -18.4,-21.1c-11.1,0 -19.2,9 -19.2,20.8l0,0.2c0,12.9 9,20.9 20,20.9" style="fill:#283583;fill-rule:nonzero;"/><path d="M619.4,124.1l1.5,-0l0,-1.9l-1.5,-0l0,1.9Zm-5.2,-0l1.5,-0l0,-1.9l-1.5,-0l0,1.9Zm-5.3,-0l1.5,-0l0,-1.9l-1.5,-0l0,1.9Zm-9.2,-0.7c-1.8,-0 -3.4,-1 -3.4,-2.7c0,-1.6 1.4,-2.7 3.8,-2.7c1.7,-0 3,0.3 3.9,0.5l0,1.3c0.1,2.1 -1.9,3.6 -4.3,3.6m0,1c2.2,-0 3.6,-1.1 4.4,-2.2l0,1.9l1.1,-0l0,-7.2c0,-1.4 -0.4,-2.5 -1.2,-3.3c-0.8,-0.8 -2.1,-1.3 -3.7,-1.3c-1.6,-0 -2.8,0.4 -4.1,1l0.4,1c1.1,-0.5 2.2,-0.9 3.6,-0.9c2.4,-0 3.8,1.2 3.8,3.6l0,0.5c-1.1,-0.3 -2.2,-0.5 -3.8,-0.5c-3,-0 -5.1,1.4 -5.1,3.8c0.1,2.4 2.4,3.6 4.6,3.6m-13.6,-1.1c-2.4,-0 -4.6,-2 -4.6,-5c0,-3.1 2,-5 4.6,-5c2.4,-0 4.7,2 4.7,5c0,3 -2.3,5 -4.7,5m-0.1,1.1c2.3,-0 3.8,-1.3 4.8,-2.9l0,2.6l1.1,0l0,-16.6l-1.1,0l0,7.5c-1,-1.5 -2.5,-2.8 -4.8,-2.8c-2.8,-0 -5.6,2.3 -5.6,6.1c-0.1,3.9 2.8,6.1 5.6,6.1m-18.9,-0.3l1.1,-0l0,-6.7c0,-2.4 1.8,-4.1 4,-4.1c2.3,-0 3.7,1.6 3.7,4l0,6.9l1.1,-0l0,-7.1c0,-2.8 -1.7,-4.8 -4.6,-4.8c-2.1,-0 -3.4,1.1 -4.2,2.4l0,-2.2l-1.1,-0l0,11.6Zm-12.9,-6.3c0.2,-2.6 2,-4.5 4.3,-4.5c2.7,-0 4,2.2 4.2,4.5l-8.5,-0Zm4.5,6.6c2.2,-0 3.6,-0.9 4.8,-2.2l-0.8,-0.7c-1,1 -2.2,1.8 -4,1.8c-2.3,0 -4.3,-1.7 -4.6,-4.6l9.6,-0l0,-0.5c0,-3.4 -2.1,-6.1 -5.3,-6.1c-3.1,-0 -5.5,2.7 -5.5,6.1c0.1,3.8 2.8,6.2 5.8,6.2m-10.4,-0.3l1.1,-0l0,-11.6l-1.1,-0l0,11.6Zm-0.1,-14.6l1.4,-0l0,-1.5l-1.4,-0l0,1.5Zm-13.4,14.6l10,-0l0,-1l-8.4,-0l8.4,-10l0,-0.6l-9.7,-0l0,1l8.1,-0l-8.4,10l0,0.6Zm-8.7,-0.7c-1.8,-0 -3.4,-1 -3.4,-2.7c0,-1.6 1.4,-2.7 3.8,-2.7c1.7,0 3,0.3 3.9,0.5l0,1.3c0.1,2.1 -2,3.6 -4.3,3.6m-0.1,1c2.2,-0 3.6,-1.1 4.4,-2.2l0,1.9l1.1,-0l0,-7.2c0,-1.4 -0.4,-2.5 -1.2,-3.3c-0.8,-0.8 -2.1,-1.3 -3.7,-1.3c-1.6,-0 -2.8,0.4 -4.1,1l0.4,1c1.1,-0.5 2.2,-0.9 3.6,-0.9c2.4,-0 3.8,1.2 3.8,3.6l0,0.5c-1.1,-0.3 -2.2,-0.5 -3.8,-0.5c-3,0 -5.1,1.4 -5.1,3.8c0.1,2.4 2.4,3.6 4.6,3.6m-24.3,-0.3l1.1,-0l0,-6.7c0,-2.4 1.8,-4.1 4,-4.1c2.3,-0 3.7,1.6 3.7,4l0,6.9l1.1,-0l0,-7.1c0,-2.8 -1.7,-4.8 -4.6,-4.8c-2.1,-0 -3.4,1.1 -4.2,2.4l0,-2.2l-1.1,-0l0,11.6Zm-9.6,0.3c2.1,-0 3.4,-1.1 4.2,-2.4l0,2.2l1.1,0l0,-11.6l-1.1,-0l0,6.7c0,2.4 -1.8,4.1 -4,4.1c-2.3,-0 -3.7,-1.6 -3.7,-4l0,-6.9l-1.1,0l0,7.1c0,2.8 1.7,4.8 4.6,4.8m-20.3,-13.8l1,-0l-2,-3l-1.4,0.7l2.4,2.3Zm-3.8,7.2c0.2,-2.6 2,-4.5 4.3,-4.5c2.7,-0 4,2.2 4.2,4.5l-8.5,-0Zm4.5,6.6c2.2,0 3.6,-0.9 4.8,-2.2l-0.8,-0.7c-1,1 -2.2,1.8 -4,1.8c-2.3,0 -4.4,-1.7 -4.6,-4.6l9.6,0l0,-0.5c0,-3.4 -2.1,-6.1 -5.3,-6.1c-3.1,-0 -5.5,2.7 -5.5,6.1c0.1,3.8 2.7,6.2 5.8,6.2m-25.7,-0.3l1.1,-0l0,-6.7c0,-2.4 1.8,-4.1 4,-4.1c2.3,-0 3.7,1.6 3.7,4l0,6.9l1.1,-0l0,-7.1c0,-2.8 -1.7,-4.8 -4.6,-4.8c-2.1,-0 -3.4,1.1 -4.2,2.4l0,-2.2l-1.1,-0l0,11.6Zm-9.4,-0.7c-2.7,-0 -4.8,-2.2 -4.8,-5c0,-2.7 2,-5 4.7,-5c2.7,-0 4.8,2.2 4.8,5c0.1,2.7 -1.9,5 -4.7,5m0,1c3.5,-0 6,-2.8 6,-6.1c0,-3.3 -2.5,-6 -5.9,-6c-3.5,-0 -6,2.8 -6,6.1c-0.1,3.2 2.4,6 5.9,6m-19.1,-0.3l1.1,-0l0,-6.7c0,-2.4 1.8,-4.1 4,-4.1c2.3,-0 3.7,1.6 3.7,4l0,6.9l1.1,-0l0,-7.1c0,-2.8 -1.7,-4.8 -4.6,-4.8c-2.1,-0 -3.4,1.1 -4.2,2.4l0,-2.2l-1.1,-0l0,11.6Z" style="fill:#283583;fill-rule:nonzero;"/><path d="M762.6,89.1c3.1,-0 6.2,-0.6 9.1,-1.9l0,-2.6c-2.9,1.4 -6.1,2.2 -9.1,2.2c-8.5,-0 -12.8,-5.3 -12.8,-14.3l0,-42.1l22.2,-0l0,-2.3l-22.2,-0l0,-20.8l-2.5,-0l0,20.8l-9.5,-0l0,2.3l9.5,-0l0,42.4c-0.1,10.3 5.3,16.3 15.3,16.3m-44.2,-1.1l2.5,-0l0,-60l-2.5,-0l0,60Zm-0.6,-77.2l3.7,-0l0,-6.8l-3.7,-0l0,6.8Zm-83.1,74.8l0,-38.9l35.8,-0c13.8,-0 25.3,6.7 25.3,19.4l0,0.2c0,12.1 -10.1,19.2 -27.4,19.2l-33.7,-0l0,0.1Zm0,-41.3l0,-37.9l31.7,-0c15.7,-0 25,7.4 25,18.8l0,0.2c0,12.8 -10.4,18.8 -22.9,18.8l-33.8,-0l0,0.1Zm-2.7,43.7l36.4,-0c19,-0 30,-7.9 30,-21.7l0,-0.2c0,-11.3 -9.1,-19.2 -20.6,-20.9c9.6,-2.2 16.2,-9.5 16.2,-19.8l0,-0.2c0,-5.8 -1.9,-10.4 -5.4,-13.9c-4.7,-4.7 -12.4,-7.2 -22.1,-7.2l-34.4,0l0,83.9l-0.1,-0Zm-50.4,-1c-16.8,-0 -28.7,-13.2 -28.7,-28.9l0,-0.2c0,-15.7 11.5,-28.9 28.4,-28.9c16.8,0 28.7,13.2 28.7,28.9l0,0.2c0.1,15.7 -11.4,28.9 -28.4,28.9m-0.1,2.4c18.8,-0 31.2,-14.6 31.2,-31.4l0,-0.2c0,-16.8 -12.5,-31.2 -31.2,-31.2c-18.8,-0 -31.2,14.6 -31.2,31.4l0,0.2c0,16.8 12.5,31.2 31.2,31.2m-64.1,-1.4l2.5,-0l0,-31.1c0,-11.5 9.1,-28 24.1,-28l0.6,-0l0,-2.4c-13.3,-0.1 -22,10.7 -24.7,20.6l0,-19.2l-2.5,-0l0,60.1Zm-71.4,-31.6c0.6,-15.7 11,-27.5 25.9,-27.5c15.8,-0 24.5,13.8 25,27.5l-50.9,-0Zm27.3,33c10.6,-0 19.2,-5.6 24.4,-13.1l-2,-1.4c-4.8,6.7 -13,12.1 -22.2,12.1c-14.8,-0 -26.9,-11 -27.4,-28.3l53.6,-0l0,-0.5c0,-15 -8.6,-31.7 -27.6,-31.7c-16.7,-0 -28.8,13.4 -28.8,31.2l0,0.2c0,19.4 13.5,31.5 30,31.5m-74.3,-2.4c-16.2,-0 -27.7,-13.4 -27.7,-28.9l0,-0.2c0,-15.6 11.4,-28.9 27.7,-28.9c16.4,0 27.5,13.1 27.5,29l0,0.2c0,16.1 -11.1,28.8 -27.5,28.8m0.1,2.4c17.4,-0 30,-13.9 30,-31.3l0,-0.2c0,-17.4 -12.6,-31.3 -30,-31.3c-13.9,-0 -24.2,8.6 -27.7,20l0,-46.2l-2.5,-0l0,87.6l2.5,-0l0,-18.6c3.5,11.4 13.8,20 27.7,20m-55.8,-1.4l2.5,-0l0,-60l-2.5,-0l0,60Zm-0.6,-77.2l3.7,-0l0,-6.8l-3.7,-0l0,6.8Zm-68.9,77.2l54.3,-0l0,-2.4l-51.6,0l0,-81.6l-2.6,0l0,84l-0.1,-0Z" style="fill:#283583;fill-rule:nonzero;"/></svg>