<?xml version="1.0" encoding="utf-8"?>
<!-- Generator: Adobe Illustrator 24.0.0, SVG Export Plug-In . SVG Version: 6.00 Build 0)  -->
<svg version="1.1" id="Livello_1" xmlns="http://www.w3.org/2000/svg" xmlns:xlink="http://www.w3.org/1999/xlink" x="0px" y="0px"
	 viewBox="0 0 1047 433.2" style="enable-background:new 0 0 1047 433.2;" xml:space="preserve">
<style type="text/css">
	.st0{fill:#283583;}
</style>
<g>
	<path class="st0" d="M278.2,2.6h2.6v81.6h51.6v2.4h-54.2V2.6z"/>
	<path class="st0" d="M347.1,2.6h3.7v6.8h-3.7V2.6z M347.7,26.6h2.5v60h-2.5V26.6z"/>
	<path class="st0" d="M375.8,68v18.6h-2.5V-1h2.5v46.2c3.5-11.4,13.8-20,27.7-20c17.4,0,30,13.9,30,31.3v0.2
		c0,17.4-12.6,31.3-30,31.3C389.6,88,379.2,79.4,375.8,68z M430.8,56.8v-0.2c0-16-11-29-27.5-29c-16.3,0-27.7,13.3-27.7,28.9v0.2
		c0,15.5,11.5,28.9,27.7,28.9C419.8,85.6,430.8,72.9,430.8,56.8z"/>
	<path class="st0" d="M447.6,56.6v-0.2c0-17.8,12.1-31.2,28.8-31.2c19,0,27.6,16.7,27.6,31.7v0.5h-53.6
		c0.5,17.3,12.6,28.3,27.4,28.3c9.2,0,17.4-5.4,22.2-12.1l2,1.4c-5.2,7.4-13.8,13.1-24.4,13.1C461.2,88,447.6,75.9,447.6,56.6z
		 M501.3,55c-0.5-13.7-9.1-27.5-25-27.5c-14.9,0-25.3,11.8-25.9,27.5H501.3z"/>
	<path class="st0" d="M521.8,26.6h2.5v19.2c2.8-10,11.4-20.8,24.7-20.6v2.4h-0.6c-15,0-24.1,16.4-24.1,28v31.1h-2.5V26.6z"/>
	<path class="st0" d="M554.8,56.8v-0.2c0-16.8,12.4-31.4,31.2-31.4c18.7,0,31.2,14.4,31.2,31.2v0.2c0,16.8-12.4,31.4-31.2,31.4
		C567.3,88,554.8,73.6,554.8,56.8z M614.6,56.7v-0.2c0-15.7-11.9-28.9-28.7-28.9c-16.9,0-28.4,13.2-28.4,28.9v0.2
		c0,15.7,11.9,28.9,28.7,28.9C603,85.6,614.6,72.4,614.6,56.7z"/>
	<path class="st0" d="M636.5,2.6H671c9.7,0,17.4,2.5,22.1,7.2c3.5,3.5,5.4,8.2,5.4,13.9v0.2c0,10.3-6.6,17.6-16.2,19.8
		c11.5,1.7,20.6,9.6,20.6,20.9v0.2c0,13.8-11,21.7-30,21.7h-36.4V2.6z M672.9,42.9c12.5,0,22.9-6,22.9-18.8v-0.2
		c0-11.4-9.2-18.8-25-18.8h-31.7v37.9H672.9z M672.9,84.2c17.3,0,27.4-7.1,27.4-19.2v-0.2c0-12.7-11.5-19.4-25.3-19.4h-35.8v38.9
		H672.9z"/>
	<path class="st0" d="M722.3,2.6h3.7v6.8h-3.7V2.6z M722.9,26.6h2.5v60h-2.5V26.6z"/>
	<path class="st0" d="M751.7,71.2V28.9h-9.5v-2.3h9.5V5.8h2.5v20.8h22.2v2.3h-22.2V71c0,9,4.3,14.3,12.8,14.3c3,0,6.2-0.7,9.1-2.2
		v2.6c-2.9,1.3-6,1.9-9.1,1.9C757.1,87.7,751.7,81.7,751.7,71.2z"/>
</g>
<g>
	<path class="st0" d="M422.6,111.1h1.1v2.2c0.8-1.4,2.1-2.4,4.2-2.4c2.9,0,4.6,2,4.6,4.8v7.1h-1.1v-6.9c0-2.4-1.3-4-3.7-4
		c-2.3,0-4,1.7-4,4.1v6.7h-1.1V111.1z"/>
	<path class="st0" d="M435.8,117L435.8,117c0-3.3,2.5-6.1,6-6.1c3.4,0,5.9,2.8,5.9,6v0c0,3.3-2.5,6.1-6,6.1
		C438.3,123,435.8,120.2,435.8,117z M446.5,117L446.5,117c0-2.8-2.1-5.1-4.8-5.1c-2.8,0-4.7,2.3-4.7,5v0c0,2.8,2.1,5,4.8,5
		C444.5,121.9,446.5,119.7,446.5,117z"/>
	<path class="st0" d="M451.2,111.1h1.1v2.2c0.8-1.4,2.1-2.4,4.2-2.4c2.9,0,4.6,2,4.6,4.8v7.1H460v-6.9c0-2.4-1.3-4-3.7-4
		c-2.3,0-4,1.7-4,4.1v6.7h-1.1V111.1z"/>
	<path class="st0" d="M471.2,116.9L471.2,116.9c0-3.4,2.4-6.1,5.5-6.1c3.3,0,5.3,2.6,5.3,6.1c0,0.2,0,0.3,0,0.5h-9.6
		c0.2,2.9,2.3,4.6,4.6,4.6c1.8,0,3-0.8,4-1.8l0.8,0.7c-1.2,1.3-2.6,2.2-4.8,2.2C473.8,123,471.2,120.6,471.2,116.9z M480.8,116.4
		c-0.2-2.3-1.5-4.5-4.2-4.5c-2.3,0-4.1,1.9-4.3,4.5H480.8z M473.8,106.8l1.4-0.7l2,3h-1L473.8,106.8z"/>
	<path class="st0" d="M491.9,118.2v-7.1h1.1v6.9c0,2.4,1.3,4,3.7,4c2.3,0,4-1.7,4-4.1v-6.7h1.1v11.6h-1.1v-2.2
		c-0.8,1.4-2.1,2.4-4.2,2.4C493.6,123,491.9,121,491.9,118.2z"/>
	<path class="st0" d="M506.1,111.1h1.1v2.2c0.8-1.4,2.1-2.4,4.2-2.4c2.9,0,4.6,2,4.6,4.8v7.1h-1.1v-6.9c0-2.4-1.3-4-3.7-4
		c-2.3,0-4,1.7-4,4.1v6.7h-1.1V111.1z"/>
	<path class="st0" d="M525.9,119.3L525.9,119.3c0-2.5,2.1-3.8,5.1-3.8c1.6,0,2.7,0.2,3.8,0.5v-0.5c0-2.3-1.4-3.6-3.8-3.6
		c-1.4,0-2.6,0.4-3.6,0.9l-0.4-1c1.3-0.6,2.5-1,4.1-1c1.6,0,2.8,0.4,3.7,1.3c0.8,0.8,1.2,1.8,1.2,3.3v7.2h-1.1v-1.9
		c-0.8,1.1-2.2,2.2-4.4,2.2C528.2,123,525.9,121.8,525.9,119.3z M534.8,118.4V117c-1-0.2-2.3-0.5-3.9-0.5c-2.5,0-3.8,1.1-3.8,2.7v0
		c0,1.7,1.6,2.7,3.4,2.7C532.8,121.9,534.8,120.5,534.8,118.4z"/>
	<path class="st0" d="M539.1,122.1l8.4-10h-8.1v-1h9.7v0.6l-8.4,10h8.4v1h-10V122.1z"/>
	<path class="st0" d="M552.6,106.6h1.4v1.5h-1.4V106.6z M552.7,111.1h1.1v11.6h-1.1V111.1z"/>
	<path class="st0" d="M557.4,116.9L557.4,116.9c0-3.4,2.4-6.1,5.5-6.1c3.3,0,5.3,2.6,5.3,6.1c0,0.2,0,0.3,0,0.5h-9.6
		c0.2,2.9,2.3,4.6,4.6,4.6c1.8,0,3-0.8,4-1.8l0.8,0.7c-1.2,1.3-2.6,2.2-4.8,2.2C560,123,557.4,120.6,557.4,116.9z M567,116.4
		c-0.2-2.3-1.5-4.5-4.2-4.5c-2.3,0-4.1,1.9-4.3,4.5H567z"/>
	<path class="st0" d="M571.5,111.1h1.1v2.2c0.8-1.4,2.1-2.4,4.2-2.4c2.9,0,4.6,2,4.6,4.8v7.1h-1.1v-6.9c0-2.4-1.3-4-3.7-4
		c-2.3,0-4,1.7-4,4.1v6.7h-1.1V111.1z"/>
	<path class="st0" d="M584.7,117L584.7,117c0-3.8,2.8-6.1,5.6-6.1c2.3,0,3.8,1.3,4.8,2.8v-7.5h1.1v16.6h-1.1v-2.6
		c-1,1.5-2.5,2.9-4.8,2.9C587.6,123,584.7,120.7,584.7,117z M595.2,116.9L595.2,116.9c0-3-2.3-5-4.7-5c-2.5,0-4.6,1.8-4.6,5v0
		c0,3.1,2.1,5,4.6,5C592.9,121.9,595.2,119.9,595.2,116.9z"/>
	<path class="st0" d="M599.5,119.3L599.5,119.3c0-2.5,2.1-3.8,5.1-3.8c1.6,0,2.7,0.2,3.8,0.5v-0.5c0-2.3-1.4-3.6-3.8-3.6
		c-1.4,0-2.6,0.4-3.6,0.9l-0.4-1c1.3-0.6,2.5-1,4.1-1c1.6,0,2.8,0.4,3.7,1.3c0.8,0.8,1.2,1.8,1.2,3.3v7.2h-1.1v-1.9
		c-0.8,1.1-2.2,2.2-4.4,2.2C601.9,123,599.5,121.8,599.5,119.3z M608.5,118.4V117c-1-0.2-2.3-0.5-3.9-0.5c-2.5,0-3.8,1.1-3.8,2.7v0
		c0,1.7,1.6,2.7,3.4,2.7C606.5,121.9,608.5,120.5,608.5,118.4z"/>
	<path class="st0" d="M613.3,120.8h1.5v1.9h-1.5V120.8z"/>
	<path class="st0" d="M618.5,120.8h1.5v1.9h-1.5V120.8z"/>
	<path class="st0" d="M623.8,120.8h1.5v1.9h-1.5V120.8z"/>
</g>
<g>
	<path class="st0" d="M89.6,148.9v-0.2c0-11.8,8.1-20.8,19.2-20.8c12.6,0,18.4,11.1,18.4,21.1v0.3H91.5c0.3,11.5,8.4,18.9,18.2,18.9
		c6.2,0,11.6-3.6,14.8-8.1l1.4,1c-3.4,5-9.2,8.7-16.2,8.7C98.7,169.8,89.6,161.7,89.6,148.9z M125.4,147.8
		c-0.3-9.1-6.1-18.3-16.6-18.3c-9.9,0-16.9,7.8-17.3,18.3H125.4z M100.8,113.1l1.9-0.9l7,9h-1.1L100.8,113.1z"/>
	<path class="st0" d="M160.7,151.5v-22.6h1.7v22.5c0,10,5.2,16.9,15.3,16.9c8.9,0,15.9-7.6,15.9-17.2v-22.2h1.7v40h-1.7v-11
		c-1.3,4.9-6.6,11.9-16.1,11.9C166.7,169.8,160.7,162.5,160.7,151.5z"/>
	<path class="st0" d="M210.1,128.9h1.7v11c1.3-4.9,6.6-11.9,16.1-11.9c10.8,0,16.8,7.3,16.8,18.3v22.6H243v-22.5
		c0-10-5.2-16.9-15.3-16.9c-8.9,0-15.9,7.6-15.9,17.2v22.2h-1.7V128.9z"/>
	<path class="st0" d="M281.2,112.9h2.5v4.6h-2.5V112.9z M281.6,128.9h1.7v40h-1.7V128.9z"/>
	<path class="st0" d="M296,148.9v-0.2c0-11.6,8.4-20.9,20-20.9c9.3,0,16.2,5.8,18.5,13.4v-30.8h1.7v58.4h-1.7v-12.4
		c-2.3,7.6-9.2,13.4-18.5,13.4C304.4,169.8,296,160.5,296,148.9z M334.6,148.9v-0.2c0-10.3-7.7-19.3-18.5-19.3
		c-11,0-18.3,8.5-18.3,19.2v0.2c0,10.6,7.4,19.4,18.3,19.4C327,168.2,334.6,159.3,334.6,148.9z"/>
	<path class="st0" d="M348.3,148.9v-0.2c0-11.8,8.1-20.8,19.2-20.8c12.6,0,18.4,11.1,18.4,21.1v0.3h-35.8
		c0.3,11.5,8.4,18.9,18.2,18.9c6.2,0,11.6-3.6,14.8-8.1l1.4,1c-3.4,5-9.2,8.7-16.2,8.7C357.3,169.8,348.3,161.7,348.3,148.9z
		 M384,147.8c-0.3-9.1-6.1-18.3-16.6-18.3c-9.9,0-16.9,7.8-17.3,18.3H384z"/>
	<path class="st0" d="M394.4,157.8v-0.2c0-8.4,7.8-12.7,17.8-12.7c5.6,0,11,1,15,2.5v-3.4c0-9.7-5.8-14.2-15.1-14.2
		c-5,0-9.1,1.4-13.3,3.4l-0.6-1.4c4.4-2.2,8.8-3.5,14-3.5c5.5,0,9.8,1.4,12.8,4.4c2.5,2.5,3.9,6.4,3.9,11.4v24.9h-1.7v-9.4
		c-1.7,4.6-7.7,10.4-17.9,10.4C401.5,169.8,394.4,165.7,394.4,157.8z M427.2,154.2v-5.1c-4.2-1.6-8.9-2.6-15-2.6
		c-9,0-16.2,3.7-16.2,11v0.2c0,7,6.2,10.5,13.3,10.5C420.1,168.2,427.2,161.3,427.2,154.2z"/>
</g>
<g>
	<path class="st0" d="M436.8,170.7c1-0.5,1.3-1,1.3-1.9h-0.6v-1.9h1.5v1.7c0,1.4-0.5,2.2-1.9,2.7L436.8,170.7z"/>
	<path class="st0" d="M449.5,164.4v-7.1h1.1v6.9c0,2.4,1.3,4,3.7,4c2.3,0,4-1.7,4-4.1v-6.7h1.1v11.6h-1.1v-2.2
		c-0.8,1.4-2.1,2.4-4.2,2.4C451.2,169.1,449.5,167.1,449.5,164.4z"/>
	<path class="st0" d="M463.7,157.2h1.1v2.2c0.8-1.4,2.1-2.4,4.2-2.4c2.9,0,4.6,2,4.6,4.8v7.1h-1.1V162c0-2.4-1.3-4-3.7-4
		c-2.3,0-4,1.7-4,4.1v6.7h-1.1V157.2z"/>
	<path class="st0" d="M484.5,157.2h1.1v2.1c0.8-1.2,1.8-2.3,3.9-2.3c2,0,3.3,1.2,3.9,2.5c0.8-1.3,2-2.5,4.2-2.5
		c2.8,0,4.5,1.9,4.5,4.8v7h-1.1V162c0-2.5-1.3-4-3.4-4c-2,0-3.7,1.5-3.7,4.1v6.8h-1.1v-7c0-2.4-1.3-3.9-3.4-3.9
		c-2.1,0-3.7,1.8-3.7,4.2v6.7h-1.1V157.2z"/>
	<path class="st0" d="M505.4,163.1L505.4,163.1c0-3.3,2.5-6.1,6-6.1c3.4,0,5.9,2.8,5.9,6v0c0,3.3-2.5,6.1-6,6.1
		C507.9,169.1,505.4,166.4,505.4,163.1z M516.1,163.1L516.1,163.1c0-2.8-2.1-5.1-4.8-5.1c-2.8,0-4.7,2.3-4.7,5v0c0,2.8,2.1,5,4.8,5
		C514.1,168.1,516.1,165.8,516.1,163.1z"/>
	<path class="st0" d="M520,163.1L520,163.1c0-3.8,2.8-6.1,5.6-6.1c2.3,0,3.8,1.3,4.8,2.8v-7.5h1.1v16.6h-1.1v-2.6
		c-1,1.5-2.5,2.9-4.8,2.9C522.8,169.1,520,166.9,520,163.1z M530.5,163.1L530.5,163.1c0-3-2.3-5-4.7-5c-2.5,0-4.6,1.8-4.6,5v0
		c0,3.1,2.1,5,4.6,5C528.1,168.1,530.5,166,530.5,163.1z"/>
	<path class="st0" d="M535,163.1L535,163.1c0-3.3,2.5-6.1,6-6.1c3.4,0,5.9,2.8,5.9,6v0c0,3.3-2.5,6.1-6,6.1
		C537.5,169.1,535,166.4,535,163.1z M545.7,163.1L545.7,163.1c0-2.8-2.1-5.1-4.8-5.1c-2.8,0-4.7,2.3-4.7,5v0c0,2.8,2.1,5,4.8,5
		C543.7,168.1,545.7,165.8,545.7,163.1z"/>
	<path class="st0" d="M556.4,163.1L556.4,163.1c0-3.8,2.8-6.1,5.6-6.1c2.3,0,3.8,1.3,4.8,2.8v-7.5h1.1v16.6h-1.1v-2.6
		c-1,1.5-2.5,2.9-4.8,2.9C559.3,169.1,556.4,166.9,556.4,163.1z M566.9,163.1L566.9,163.1c0-3-2.3-5-4.7-5c-2.5,0-4.6,1.8-4.6,5v0
		c0,3.1,2.1,5,4.6,5C564.6,168.1,566.9,166,566.9,163.1z"/>
	<path class="st0" d="M572.2,152.7h1.4v1.5h-1.4V152.7z M572.3,157.2h1.1v11.6h-1.1V157.2z"/>
	<path class="st0" d="M583.9,163.1L583.9,163.1c0-3.4,2.4-6.1,5.5-6.1c3.3,0,5.3,2.6,5.3,6.1c0,0.2,0,0.3,0,0.5h-9.6
		c0.2,2.9,2.3,4.6,4.6,4.6c1.8,0,3-0.8,4-1.8l0.8,0.7c-1.2,1.3-2.6,2.2-4.8,2.2C586.5,169.1,583.9,166.7,583.9,163.1z M593.5,162.5
		c-0.2-2.3-1.5-4.5-4.2-4.5c-2.3,0-4.1,1.9-4.3,4.5H593.5z"/>
	<path class="st0" d="M597,167.4l0.7-0.9c1.3,1,2.7,1.5,4.2,1.5c1.6,0,2.8-0.9,2.8-2.2v0c0-1.4-1.5-1.9-3.1-2.3
		c-1.9-0.5-4-1.1-4-3.2v0c0-1.9,1.6-3.2,3.8-3.2c1.4,0,3,0.5,4.1,1.3l-0.6,0.9c-1.1-0.7-2.3-1.2-3.6-1.2c-1.6,0-2.6,0.9-2.6,2v0
		c0,1.3,1.6,1.8,3.2,2.3c1.9,0.5,3.8,1.2,3.8,3.3v0c0,2.1-1.8,3.4-4,3.4C600.1,169.1,598.2,168.4,597,167.4z"/>
	<path class="st0" d="M608.1,167.4l0.7-0.9c1.3,1,2.7,1.5,4.2,1.5c1.6,0,2.8-0.9,2.8-2.2v0c0-1.4-1.5-1.9-3.1-2.3
		c-1.9-0.5-4-1.1-4-3.2v0c0-1.9,1.6-3.2,3.8-3.2c1.4,0,3,0.5,4.1,1.3l-0.6,0.9c-1.1-0.7-2.3-1.2-3.6-1.2c-1.6,0-2.6,0.9-2.6,2v0
		c0,1.3,1.6,1.8,3.2,2.3c1.9,0.5,3.8,1.2,3.8,3.3v0c0,2.1-1.8,3.4-4,3.4C611.2,169.1,609.3,168.4,608.1,167.4z"/>
	<path class="st0" d="M619.6,163.1L619.6,163.1c0-3.4,2.4-6.1,5.5-6.1c3.3,0,5.3,2.6,5.3,6.1c0,0.2,0,0.3,0,0.5h-9.6
		c0.2,2.9,2.3,4.6,4.6,4.6c1.8,0,3-0.8,4-1.8l0.8,0.7c-1.2,1.3-2.6,2.2-4.8,2.2C622.3,169.1,619.6,166.7,619.6,163.1z M629.3,162.5
		c-0.2-2.3-1.5-4.5-4.2-4.5c-2.3,0-4.1,1.9-4.3,4.5H629.3z"/>
	<path class="st0" d="M633.7,157.2h1.1v3.3c0.9-2.1,2.8-3.6,5.1-3.5v1.2h-0.1c-2.7,0-5,2-5,5.8v4.8h-1.1V157.2z"/>
	<path class="st0" d="M641.5,163.1L641.5,163.1c0-3.4,2.4-6.1,5.5-6.1c3.3,0,5.3,2.6,5.3,6.1c0,0.2,0,0.3,0,0.5h-9.6
		c0.2,2.9,2.3,4.6,4.6,4.6c1.8,0,3-0.8,4-1.8l0.8,0.7c-1.2,1.3-2.6,2.2-4.8,2.2C644.1,169.1,641.5,166.7,641.5,163.1z M651.1,162.5
		c-0.2-2.3-1.5-4.5-4.2-4.5c-2.3,0-4.1,1.9-4.3,4.5H651.1z"/>
	<path class="st0" d="M654.4,170.7c1-0.5,1.3-1,1.3-1.9h-0.6v-1.9h1.5v1.7c0,1.4-0.5,2.2-1.9,2.7L654.4,170.7z"/>
	<path class="st0" d="M667.2,164.4v-7.1h1.1v6.9c0,2.4,1.3,4,3.7,4c2.3,0,4-1.7,4-4.1v-6.7h1.1v11.6H676v-2.2
		c-0.8,1.4-2.1,2.4-4.2,2.4C668.9,169.1,667.2,167.1,667.2,164.4z"/>
	<path class="st0" d="M681.4,157.2h1.1v2.2c0.8-1.4,2.1-2.4,4.2-2.4c2.9,0,4.6,2,4.6,4.8v7.1h-1.1V162c0-2.4-1.3-4-3.7-4
		c-2.3,0-4,1.7-4,4.1v6.7h-1.1V157.2z"/>
	<path class="st0" d="M694.4,165.5L694.4,165.5c0-2.5,2.1-3.8,5.1-3.8c1.6,0,2.7,0.2,3.8,0.5v-0.5c0-2.3-1.4-3.6-3.8-3.6
		c-1.4,0-2.6,0.4-3.6,0.9l-0.4-1c1.3-0.6,2.5-1,4.1-1c1.6,0,2.8,0.4,3.7,1.3c0.8,0.8,1.2,1.8,1.2,3.3v7.2h-1.1v-1.9
		c-0.8,1.1-2.2,2.2-4.4,2.2C696.7,169.1,694.4,167.9,694.4,165.5z M703.3,164.5v-1.3c-1-0.2-2.3-0.5-3.9-0.5c-2.5,0-3.8,1.1-3.8,2.7
		v0c0,1.7,1.6,2.7,3.4,2.7C701.3,168.1,703.3,166.6,703.3,164.5z"/>
	<path class="st0" d="M715.2,157.2h1.1v2.1c0.8-1.2,1.8-2.3,3.9-2.3c2,0,3.3,1.2,3.9,2.5c0.8-1.3,2-2.5,4.2-2.5
		c2.8,0,4.5,1.9,4.5,4.8v7h-1.1V162c0-2.5-1.3-4-3.4-4c-2,0-3.7,1.5-3.7,4.1v6.8h-1.1v-7c0-2.4-1.3-3.9-3.4-3.9
		c-2.1,0-3.7,1.8-3.7,4.2v6.7h-1.1V157.2z"/>
	<path class="st0" d="M736.1,163.1L736.1,163.1c0-3.4,2.4-6.1,5.5-6.1c3.3,0,5.3,2.6,5.3,6.1c0,0.2,0,0.3,0,0.5h-9.6
		c0.2,2.9,2.3,4.6,4.6,4.6c1.8,0,3-0.8,4-1.8l0.8,0.7c-1.2,1.3-2.6,2.2-4.8,2.2C738.7,169.1,736.1,166.7,736.1,163.1z M745.7,162.5
		c-0.2-2.3-1.5-4.5-4.2-4.5c-2.3,0-4.1,1.9-4.3,4.5H745.7z"/>
	<path class="st0" d="M750.8,165.9v-7.6h-1.7v-1h1.7v-3.7h1.1v3.7h4.1v1h-4.1v7.5c0,1.7,1,2.3,2.3,2.3c0.6,0,1-0.1,1.7-0.4v1
		c-0.6,0.3-1.2,0.4-1.9,0.4C752.3,169.1,750.8,168.1,750.8,165.9z"/>
	<path class="st0" d="M758.2,163.1L758.2,163.1c0-3.3,2.5-6.1,6-6.1c3.4,0,5.9,2.8,5.9,6v0c0,3.3-2.5,6.1-6,6.1
		C760.7,169.1,758.2,166.4,758.2,163.1z M768.9,163.1L768.9,163.1c0-2.8-2.1-5.1-4.8-5.1c-2.8,0-4.7,2.3-4.7,5v0c0,2.8,2.1,5,4.8,5
		C766.9,168.1,768.9,165.8,768.9,163.1z"/>
	<path class="st0" d="M772.8,163.1L772.8,163.1c0-3.8,2.8-6.1,5.6-6.1c2.3,0,3.8,1.3,4.8,2.8v-7.5h1.1v16.6h-1.1v-2.6
		c-1,1.5-2.5,2.9-4.8,2.9C775.7,169.1,772.8,166.9,772.8,163.1z M783.3,163.1L783.3,163.1c0-3-2.3-5-4.7-5c-2.5,0-4.6,1.8-4.6,5v0
		c0,3.1,2.1,5,4.6,5C781,168.1,783.3,166,783.3,163.1z"/>
	<path class="st0" d="M787.8,163.1L787.8,163.1c0-3.3,2.5-6.1,6-6.1c3.4,0,5.9,2.8,5.9,6v0c0,3.3-2.5,6.1-6,6.1
		C790.3,169.1,787.8,166.4,787.8,163.1z M798.5,163.1L798.5,163.1c0-2.8-2.1-5.1-4.8-5.1c-2.8,0-4.7,2.3-4.7,5v0c0,2.8,2.1,5,4.8,5
		C796.5,168.1,798.5,165.8,798.5,163.1z"/>
	<path class="st0" d="M803.3,152.2h1.1v16.6h-1.1V152.2z"/>
	<path class="st0" d="M808,163.1L808,163.1c0-3.3,2.5-6.1,6-6.1c3.4,0,5.9,2.8,5.9,6v0c0,3.3-2.5,6.1-6,6.1
		C810.5,169.1,808,166.4,808,163.1z M818.8,163.1L818.8,163.1c0-2.8-2.1-5.1-4.8-5.1c-2.8,0-4.7,2.3-4.7,5v0c0,2.8,2.1,5,4.8,5
		C816.8,168.1,818.8,165.8,818.8,163.1z"/>
	<path class="st0" d="M823.2,170.8l0.7-0.9c1.4,1.1,3,1.6,4.7,1.6c2.7,0,4.6-1.5,4.6-4.5v-1.7c-1,1.4-2.5,2.7-4.8,2.7
		c-2.8,0-5.6-2.1-5.6-5.5v0c0-3.3,2.8-5.5,5.6-5.5c2.3,0,3.9,1.2,4.8,2.6v-2.3h1.1v9.8c0,1.7-0.5,3-1.5,3.9c-1,1-2.5,1.5-4.2,1.5
		C826.6,172.5,824.8,172,823.2,170.8z M833.1,162.5L833.1,162.5c0-2.7-2.4-4.5-4.8-4.5c-2.4,0-4.5,1.7-4.5,4.4v0
		c0,2.6,2.1,4.4,4.5,4.4C830.8,166.9,833.1,165.1,833.1,162.5z"/>
	<path class="st0" d="M838.5,152.7h1.4v1.5h-1.4V152.7z M838.6,157.2h1.1v11.6h-1.1V157.2z"/>
	<path class="st0" d="M843.1,165.5L843.1,165.5c0-2.5,2.1-3.8,5.1-3.8c1.6,0,2.7,0.2,3.8,0.5v-0.5c0-2.3-1.4-3.6-3.8-3.6
		c-1.4,0-2.6,0.4-3.6,0.9l-0.4-1c1.3-0.6,2.5-1,4.1-1c1.6,0,2.8,0.4,3.7,1.3c0.8,0.8,1.2,1.8,1.2,3.3v7.2h-1.1v-1.9
		c-0.8,1.1-2.2,2.2-4.4,2.2C845.5,169.1,843.1,167.9,843.1,165.5z M852.1,164.5v-1.3c-1-0.2-2.3-0.5-3.9-0.5c-2.5,0-3.8,1.1-3.8,2.7
		v0c0,1.7,1.6,2.7,3.4,2.7C850.1,168.1,852.1,166.6,852.1,164.5z"/>
	<path class="st0" d="M863.3,163.1L863.3,163.1c0-3.8,2.8-6.1,5.6-6.1c2.3,0,3.8,1.3,4.8,2.8v-7.5h1.1v16.6h-1.1v-2.6
		c-1,1.5-2.5,2.9-4.8,2.9C866.1,169.1,863.3,166.9,863.3,163.1z M873.8,163.1L873.8,163.1c0-3-2.3-5-4.7-5c-2.5,0-4.6,1.8-4.6,5v0
		c0,3.1,2.1,5,4.6,5C871.4,168.1,873.8,166,873.8,163.1z"/>
	<path class="st0" d="M879.1,152.7h1.4v1.5h-1.4V152.7z M879.2,157.2h1.1v11.6h-1.1V157.2z"/>
	<path class="st0" d="M891.7,152.2h1.1v16.6h-1.1V152.2z"/>
	<path class="st0" d="M896.2,165.5L896.2,165.5c0-2.5,2.1-3.8,5.1-3.8c1.6,0,2.7,0.2,3.8,0.5v-0.5c0-2.3-1.4-3.6-3.8-3.6
		c-1.4,0-2.6,0.4-3.6,0.9l-0.4-1c1.3-0.6,2.5-1,4.1-1c1.6,0,2.8,0.4,3.7,1.3c0.8,0.8,1.2,1.8,1.2,3.3v7.2h-1.1v-1.9
		c-0.8,1.1-2.2,2.2-4.4,2.2C898.6,169.1,896.2,167.9,896.2,165.5z M905.2,164.5v-1.3c-1-0.2-2.3-0.5-3.9-0.5c-2.5,0-3.8,1.1-3.8,2.7
		v0c0,1.7,1.6,2.7,3.4,2.7C903.2,168.1,905.2,166.6,905.2,164.5z"/>
	<path class="st0" d="M908.7,157.2h1.3l4.4,10.4l4.4-10.4h1.3l-5.2,11.7h-1L908.7,157.2z"/>
	<path class="st0" d="M921.6,163.1L921.6,163.1c0-3.3,2.5-6.1,6-6.1c3.4,0,5.9,2.8,5.9,6v0c0,3.3-2.5,6.1-6,6.1
		C924.1,169.1,921.6,166.4,921.6,163.1z M932.4,163.1L932.4,163.1c0-2.8-2.1-5.1-4.8-5.1c-2.8,0-4.7,2.3-4.7,5v0c0,2.8,2.1,5,4.8,5
		C930.4,168.1,932.4,165.8,932.4,163.1z"/>
	<path class="st0" d="M937,157.2h1.1v3.3c0.9-2.1,2.8-3.6,5.1-3.5v1.2h-0.1c-2.7,0-5,2-5,5.8v4.8H937V157.2z"/>
	<path class="st0" d="M944.8,163.1L944.8,163.1c0-3.3,2.5-6.1,6-6.1c3.4,0,5.9,2.8,5.9,6v0c0,3.3-2.5,6.1-6,6.1
		C947.3,169.1,944.8,166.4,944.8,163.1z M955.5,163.1L955.5,163.1c0-2.8-2.1-5.1-4.8-5.1c-2.8,0-4.7,2.3-4.7,5v0c0,2.8,2.1,5,4.8,5
		C953.5,168.1,955.5,165.8,955.5,163.1z"/>
	<path class="st0" d="M959.4,166.9h1.5v1.9h-1.5V166.9z"/>
</g>
<g>
	<path class="st0" d="M4.7,217.1h1.2V233H4.7V217.1z"/>
	<path class="st0" d="M10.7,216.4h1.1V233h-1.1V216.4z"/>
</g>
<g>
	<path class="st0" d="M28.3,193H30v12.4c2.3-7.6,9.2-13.4,18.5-13.4c11.6,0,20,9.3,20,20.9v0.2c0,11.6-8.4,20.9-20,20.9
		c-9.3,0-16.2-5.8-18.5-13.4v25.2h-1.7V193z M66.7,213.2V213c0-10.6-7.4-19.4-18.3-19.4c-10.9,0-18.5,8.9-18.5,19.3v0.2
		c0,10.3,7.7,19.3,18.5,19.3C59.4,232.4,66.7,223.9,66.7,213.2z"/>
	<path class="st0" d="M80.7,193h1.7v12.8c1.8-6.6,7.6-13.8,16.5-13.8v1.6h-0.4c-10,0-16.1,11-16.1,18.6V233h-1.7V193z"/>
	<path class="st0" d="M102.7,213.2V213c0-11.2,8.2-21,20.8-21c12.5,0,20.8,9.6,20.8,20.8v0.2c0,11.2-8.2,21-20.8,21
		C111,234,102.7,224.4,102.7,213.2z M142.6,213.1v-0.2c0-10.5-7.9-19.3-19.1-19.3c-11.3,0-19,8.8-19,19.3v0.2
		c0,10.5,7.9,19.3,19.1,19.3C134.9,232.4,142.6,223.6,142.6,213.1z"/>
	<path class="st0" d="M155.5,239.9l1-1.4c5.1,3.9,10.7,5.9,17.1,5.9c10.6,0,17.8-6.1,17.8-17.8v-8.2c-3,6.8-9.8,11.6-18,11.6
		c-10.9,0-19.8-8.5-19.8-18.9V211c0-10.4,8.9-19,19.8-19c8.2,0,15,4.8,18,11.6V193h1.7v33.9c0,6-1.8,10.7-5.1,14
		c-3.4,3.4-8.4,5.1-14.3,5.1C167,246,161,244,155.5,239.9z M191.6,211.2v-0.2c0-9.4-8.1-17.4-18.1-17.4c-10,0-18,7.8-18,17.3v0.2
		c0,9.5,8,17.4,18,17.4C183.5,228.4,191.6,220.6,191.6,211.2z"/>
	<path class="st0" d="M205.2,213v-0.2c0-11.8,8.1-20.8,19.2-20.8c12.6,0,18.4,11.1,18.4,21.1v0.3H207c0.3,11.5,8.4,18.9,18.2,18.9
		c6.2,0,11.6-3.6,14.8-8.1l1.4,1c-3.4,5-9.2,8.7-16.2,8.7C214.2,234,205.2,225.9,205.2,213z M241,212c-0.3-9.1-6.1-18.3-16.6-18.3
		c-9.9,0-16.9,7.8-17.3,18.3H241z"/>
	<path class="st0" d="M256.8,222.8v-28.2h-6.3V193h6.3v-13.8h1.7V193h14.8v1.5h-14.8v28.1c0,6,2.9,9.5,8.6,9.5c2,0,4.2-0.5,6.1-1.4
		v1.8c-1.9,0.9-4,1.3-6.1,1.3C260.4,233.7,256.8,229.7,256.8,222.8z"/>
	<path class="st0" d="M285.9,222.8v-28.2h-6.3V193h6.3v-13.8h1.7V193h14.8v1.5h-14.8v28.1c0,6,2.9,9.5,8.6,9.5c2,0,4.2-0.5,6.1-1.4
		v1.8c-1.9,0.9-4,1.3-6.1,1.3C289.5,233.7,285.9,229.7,285.9,222.8z"/>
	<path class="st0" d="M309.5,213.2V213c0-11.2,8.2-21,20.8-21c12.5,0,20.8,9.6,20.8,20.8v0.2c0,11.2-8.2,21-20.8,21
		C317.8,234,309.5,224.4,309.5,213.2z M349.4,213.1v-0.2c0-10.5-7.9-19.3-19.1-19.3c-11.3,0-19,8.8-19,19.3v0.2
		c0,10.5,7.9,19.3,19.1,19.3C341.7,232.4,349.4,223.6,349.4,213.1z"/>
</g>
<g>
	<path class="st0" d="M356.7,234.9c1-0.5,1.3-1,1.3-1.9h-0.6v-1.9h1.5v1.7c0,1.4-0.5,2.2-1.9,2.7L356.7,234.9z"/>
	<path class="st0" d="M369.7,216.8h1.4v1.5h-1.4V216.8z M369.9,221.4h1.1V233h-1.1V221.4z"/>
	<path class="st0" d="M375.5,216.4h1.1V233h-1.1V216.4z"/>
	<path class="st0" d="M387.1,227.2L387.1,227.2c0-3.3,2.6-6.1,5.9-6.1c2.2,0,3.6,1,4.6,2.1l-0.8,0.8c-1-1-2.1-1.9-3.9-1.9
		c-2.6,0-4.7,2.2-4.7,5v0c0,2.8,2.1,5,4.8,5c1.6,0,2.9-0.8,3.9-1.9l0.8,0.7c-1.2,1.3-2.6,2.3-4.7,2.3
		C389.7,233.3,387.1,230.5,387.1,227.2z"/>
	<path class="st0" d="M401,216.4h1.1V233H401V216.4z"/>
	<path class="st0" d="M406.6,216.8h1.4v1.5h-1.4V216.8z M406.7,221.4h1.1V233h-1.1V221.4z"/>
	<path class="st0" d="M411.4,227.2L411.4,227.2c0-3.4,2.4-6.1,5.5-6.1c3.3,0,5.3,2.6,5.3,6.1c0,0.2,0,0.3,0,0.5h-9.6
		c0.2,2.9,2.3,4.6,4.6,4.6c1.8,0,3-0.8,4-1.8l0.8,0.7c-1.2,1.3-2.6,2.2-4.8,2.2C414.1,233.3,411.4,230.8,411.4,227.2z M421.1,226.6
		c-0.2-2.3-1.5-4.5-4.2-4.5c-2.3,0-4.1,1.9-4.3,4.5H421.1z"/>
	<path class="st0" d="M425.5,221.4h1.1v2.2c0.8-1.4,2.1-2.4,4.2-2.4c2.9,0,4.6,2,4.6,4.8v7.1h-1.1v-6.9c0-2.4-1.3-4-3.7-4
		c-2.3,0-4,1.7-4,4.1v6.7h-1.1V221.4z"/>
	<path class="st0" d="M440.1,230v-7.6h-1.7v-1h1.7v-3.7h1.1v3.7h4.1v1h-4.1v7.5c0,1.7,1,2.3,2.3,2.3c0.6,0,1-0.1,1.7-0.4v1
		c-0.6,0.3-1.2,0.4-1.9,0.4C441.6,233.2,440.1,232.2,440.1,230z"/>
	<path class="st0" d="M447.5,227.2L447.5,227.2c0-3.4,2.4-6.1,5.5-6.1c3.3,0,5.3,2.6,5.3,6.1c0,0.2,0,0.3,0,0.5h-9.6
		c0.2,2.9,2.3,4.6,4.6,4.6c1.8,0,3-0.8,4-1.8l0.8,0.7c-1.2,1.3-2.6,2.2-4.8,2.2C450.1,233.3,447.5,230.8,447.5,227.2z M457.1,226.6
		c-0.2-2.3-1.5-4.5-4.2-4.5c-2.3,0-4.1,1.9-4.3,4.5H457.1z"/>
	<path class="st0" d="M460.4,234.9c1-0.5,1.3-1,1.3-1.9h-0.6v-1.9h1.5v1.7c0,1.4-0.5,2.2-1.9,2.7L460.4,234.9z"/>
	<path class="st0" d="M473.6,216.4h1.1V233h-1.1V216.4z"/>
	<path class="st0" d="M478.1,229.6L478.1,229.6c0-2.5,2.1-3.8,5.1-3.8c1.6,0,2.7,0.2,3.8,0.5v-0.5c0-2.3-1.4-3.6-3.8-3.6
		c-1.4,0-2.6,0.4-3.6,0.9l-0.4-1c1.3-0.6,2.5-1,4.1-1c1.6,0,2.8,0.4,3.7,1.3c0.8,0.8,1.2,1.8,1.2,3.3v7.2h-1.1v-1.9
		c-0.8,1.1-2.2,2.2-4.4,2.2C480.4,233.3,478.1,232,478.1,229.6z M487.1,228.7v-1.3c-1-0.2-2.3-0.5-3.9-0.5c-2.5,0-3.8,1.1-3.8,2.7v0
		c0,1.7,1.6,2.7,3.4,2.7C485,232.2,487.1,230.8,487.1,228.7z"/>
</g>
<g>
	<path class="st0" d="M506.4,222.8v-28.2h-6.3V193h6.3v-13.8h1.7V193h14.8v1.5h-14.8v28.1c0,6,2.9,9.5,8.6,9.5c2,0,4.2-0.5,6.1-1.4
		v1.8c-1.9,0.9-4,1.3-6.1,1.3C510,233.7,506.4,229.7,506.4,222.8z"/>
	<path class="st0" d="M530.2,213v-0.2c0-11.8,8.1-20.8,19.2-20.8c12.6,0,18.4,11.1,18.4,21.1v0.3H532c0.3,11.5,8.4,18.9,18.2,18.9
		c6.2,0,11.6-3.6,14.8-8.1l1.4,1c-3.4,5-9.2,8.7-16.2,8.7C539.2,234,530.2,225.9,530.2,213z M566,212c-0.3-9.1-6.1-18.3-16.6-18.3
		c-9.9,0-16.9,7.8-17.3,18.3H566z"/>
	<path class="st0" d="M576.8,213.1v-0.2c0-11.4,8.9-20.9,20.5-20.9c7.4,0,12,3.2,16,7.4l-1.2,1.1c-3.6-3.8-8.2-7-14.9-7
		c-10.6,0-18.6,8.8-18.6,19.2v0.2c0,10.4,8.2,19.4,18.7,19.4c6.9,0,11.5-3.4,15-7.4l1.2,1.1c-3.8,4.4-8.8,7.9-16.3,7.9
		C585.8,234,576.8,224.4,576.8,213.1z"/>
	<path class="st0" d="M624.5,193h1.7v11c1.3-4.9,6.6-11.9,16.1-11.9c10.8,0,16.8,7.3,16.8,18.3V233h-1.7v-22.5
		c0-10-5.2-16.9-15.3-16.9c-8.9,0-15.9,7.6-15.9,17.2V233h-1.7V193z"/>
	<path class="st0" d="M673.2,177h2.5v4.6h-2.5V177z M673.6,193h1.7v40h-1.7V193z"/>
	<path class="st0" d="M687.9,213.1v-0.2c0-11.4,8.9-20.9,20.5-20.9c7.4,0,12,3.2,16,7.4l-1.2,1.1c-3.6-3.8-8.2-7-14.9-7
		c-10.6,0-18.6,8.8-18.6,19.2v0.2c0,10.4,8.2,19.4,18.7,19.4c6.9,0,11.5-3.4,15-7.4l1.2,1.1c-3.8,4.4-8.8,7.9-16.3,7.9
		C696.8,234,687.9,224.4,687.9,213.1z"/>
	<path class="st0" d="M732.2,222v-0.2c0-8.4,7.8-12.7,17.8-12.7c5.6,0,11,1,15,2.5v-3.4c0-9.7-5.8-14.2-15.1-14.2
		c-5,0-9.1,1.4-13.3,3.4l-0.6-1.4c4.4-2.2,8.8-3.5,14-3.5c5.5,0,9.8,1.4,12.8,4.4c2.5,2.5,3.9,6.4,3.9,11.4V233h-1.7v-9.4
		c-1.7,4.6-7.7,10.4-17.9,10.4C739.3,234,732.2,229.9,732.2,222z M765.1,218.4v-5.1c-4.2-1.6-8.9-2.6-15-2.6c-9,0-16.2,3.7-16.2,11
		v0.2c0,7,6.2,10.5,13.3,10.5C758,232.4,765.1,225.5,765.1,218.4z"/>
</g>
<g>
	<path class="st0" d="M781.5,227.2L781.5,227.2c0-3.4,2.4-6.1,5.5-6.1c3.3,0,5.3,2.6,5.3,6.1c0,0.2,0,0.3,0,0.5h-9.6
		c0.2,2.9,2.3,4.6,4.6,4.6c1.8,0,3-0.8,4-1.8l0.8,0.7c-1.2,1.3-2.6,2.2-4.8,2.2C784.1,233.3,781.5,230.8,781.5,227.2z M791.1,226.6
		c-0.2-2.3-1.5-4.5-4.2-4.5c-2.3,0-4.1,1.9-4.3,4.5H791.1z"/>
	<path class="st0" d="M802.6,216.4h1.1V233h-1.1V216.4z"/>
	<path class="st0" d="M807.1,229.6L807.1,229.6c0-2.5,2.1-3.8,5.1-3.8c1.6,0,2.7,0.2,3.8,0.5v-0.5c0-2.3-1.4-3.6-3.8-3.6
		c-1.4,0-2.6,0.4-3.6,0.9l-0.4-1c1.3-0.6,2.5-1,4.1-1c1.6,0,2.8,0.4,3.7,1.3c0.8,0.8,1.2,1.8,1.2,3.3v7.2H816v-1.9
		c-0.8,1.1-2.2,2.2-4.4,2.2C809.4,233.3,807.1,232,807.1,229.6z M816.1,228.7v-1.3c-1-0.2-2.3-0.5-3.9-0.5c-2.5,0-3.8,1.1-3.8,2.7v0
		c0,1.7,1.6,2.7,3.4,2.7C814,232.2,816.1,230.8,816.1,228.7z"/>
	<path class="st0" d="M837.6,230.4c-1,1.5-2.5,2.9-4.8,2.9c-2.8,0-5.6-2.3-5.6-6v0c0-3.8,2.8-6.1,5.6-6.1c2.3,0,3.8,1.3,4.8,2.8
		v-2.5h1.1v15.3h-1.1V230.4z M837.7,227.2L837.7,227.2c0-3-2.3-5-4.7-5c-2.5,0-4.6,1.8-4.6,5v0c0,3.1,2.1,5,4.6,5
		C835.4,232.2,837.7,230.2,837.7,227.2z"/>
	<path class="st0" d="M842.8,228.5v-7.1h1.1v6.9c0,2.4,1.3,4,3.7,4c2.3,0,4-1.7,4-4.1v-6.7h1.1V233h-1.1v-2.2
		c-0.8,1.4-2.1,2.4-4.2,2.4C844.5,233.3,842.8,231.3,842.8,228.5z"/>
	<path class="st0" d="M856,229.6L856,229.6c0-2.5,2.1-3.8,5.1-3.8c1.6,0,2.7,0.2,3.8,0.5v-0.5c0-2.3-1.4-3.6-3.8-3.6
		c-1.4,0-2.6,0.4-3.6,0.9l-0.4-1c1.3-0.6,2.5-1,4.1-1c1.6,0,2.8,0.4,3.7,1.3c0.8,0.8,1.2,1.8,1.2,3.3v7.2h-1.1v-1.9
		c-0.8,1.1-2.2,2.2-4.4,2.2C858.3,233.3,856,232,856,229.6z M864.9,228.7v-1.3c-1-0.2-2.3-0.5-3.9-0.5c-2.5,0-3.8,1.1-3.8,2.7v0
		c0,1.7,1.6,2.7,3.4,2.7C862.9,232.2,864.9,230.8,864.9,228.7z"/>
	<path class="st0" d="M870.2,216.4h1.1V233h-1.1V216.4z"/>
	<path class="st0" d="M875.7,216.8h1.4v1.5h-1.4V216.8z M875.9,221.4h1.1V233h-1.1V221.4z"/>
	<path class="st0" d="M882,230v-7.6h-1.7v-1h1.7v-3.7h1.1v3.7h4.1v1h-4.1v7.5c0,1.7,1,2.3,2.3,2.3c0.6,0,1-0.1,1.7-0.4v1
		c-0.6,0.3-1.2,0.4-1.9,0.4C883.4,233.2,882,232.2,882,230z"/>
	<path class="st0" d="M889.5,229.6L889.5,229.6c0-2.5,2.1-3.8,5.1-3.8c1.6,0,2.7,0.2,3.8,0.5v-0.5c0-2.3-1.4-3.6-3.8-3.6
		c-1.4,0-2.6,0.4-3.6,0.9l-0.4-1c1.3-0.6,2.5-1,4.1-1c1.6,0,2.8,0.4,3.7,1.3c0.8,0.8,1.2,1.8,1.2,3.3v7.2h-1.1v-1.9
		c-0.8,1.1-2.2,2.2-4.4,2.2C891.8,233.3,889.5,232,889.5,229.6z M898.5,228.7v-1.3c-1-0.2-2.3-0.5-3.9-0.5c-2.5,0-3.8,1.1-3.8,2.7v0
		c0,1.7,1.6,2.7,3.4,2.7C896.4,232.2,898.5,230.8,898.5,228.7z M892,217.1l1.4-0.7l2,3h-1L892,217.1z"/>
	<path class="st0" d="M909.4,231.5l0.7-0.9c1.3,1,2.7,1.5,4.2,1.5c1.6,0,2.8-0.9,2.8-2.2v0c0-1.4-1.5-1.9-3.1-2.3
		c-1.9-0.5-4-1.1-4-3.2v0c0-1.9,1.6-3.2,3.8-3.2c1.4,0,3,0.5,4.1,1.3l-0.6,0.9c-1.1-0.7-2.3-1.2-3.6-1.2c-1.6,0-2.6,0.9-2.6,2v0
		c0,1.3,1.6,1.8,3.2,2.3c1.9,0.5,3.8,1.2,3.8,3.3v0c0,2.1-1.8,3.4-4,3.4C912.5,233.2,910.6,232.5,909.4,231.5z"/>
	<path class="st0" d="M920.9,227.2L920.9,227.2c0-3.3,2.5-6.1,6-6.1c3.4,0,5.9,2.8,5.9,6v0c0,3.3-2.5,6.1-6,6.1
		C923.4,233.3,920.9,230.5,920.9,227.2z M931.6,227.2L931.6,227.2c0-2.8-2.1-5.1-4.8-5.1c-2.8,0-4.7,2.3-4.7,5v0c0,2.8,2.1,5,4.8,5
		C929.6,232.2,931.6,230,931.6,227.2z"/>
	<path class="st0" d="M936.3,221.4h1.1v2.2c0.8-1.4,2.1-2.4,4.2-2.4c2.9,0,4.6,2,4.6,4.8v7.1h-1.1v-6.9c0-2.4-1.3-4-3.7-4
		c-2.3,0-4,1.7-4,4.1v6.7h-1.1V221.4z"/>
	<path class="st0" d="M949.4,227.2L949.4,227.2c0-3.3,2.5-6.1,6-6.1c3.4,0,5.9,2.8,5.9,6v0c0,3.3-2.5,6.1-6,6.1
		C951.9,233.3,949.4,230.5,949.4,227.2z M960.2,227.2L960.2,227.2c0-2.8-2.1-5.1-4.8-5.1c-2.8,0-4.7,2.3-4.7,5v0c0,2.8,2.1,5,4.8,5
		C958.2,232.2,960.2,230,960.2,227.2z"/>
	<path class="st0" d="M971.7,216.8h1.4v1.5h-1.4V216.8z M971.8,221.4h1.1V233h-1.1V221.4z"/>
	<path class="st0" d="M984.1,221.4h1.1v2.2c0.8-1.4,2.1-2.4,4.2-2.4c2.9,0,4.6,2,4.6,4.8v7.1H993v-6.9c0-2.4-1.3-4-3.7-4
		c-2.3,0-4,1.7-4,4.1v6.7h-1.1V221.4z"/>
	<path class="st0" d="M997.3,227.2L997.3,227.2c0-3.3,2.5-6.1,6-6.1c3.4,0,5.9,2.8,5.9,6v0c0,3.3-2.5,6.1-6,6.1
		C999.8,233.3,997.3,230.5,997.3,227.2z M1008,227.2L1008,227.2c0-2.8-2.1-5.1-4.8-5.1c-2.8,0-4.7,2.3-4.7,5v0c0,2.8,2.1,5,4.8,5
		C1006,232.2,1008,230,1008,227.2z"/>
	<path class="st0" d="M1011.7,231.5l0.7-0.9c1.3,1,2.7,1.5,4.2,1.5c1.6,0,2.8-0.9,2.8-2.2v0c0-1.4-1.5-1.9-3.1-2.3
		c-1.9-0.5-4-1.1-4-3.2v0c0-1.9,1.6-3.2,3.8-3.2c1.4,0,3,0.5,4.1,1.3l-0.6,0.9c-1.1-0.7-2.3-1.2-3.6-1.2c-1.6,0-2.6,0.9-2.6,2v0
		c0,1.3,1.6,1.8,3.2,2.3c1.9,0.5,3.8,1.2,3.8,3.3v0c0,2.1-1.8,3.4-4,3.4C1014.7,233.2,1012.9,232.5,1011.7,231.5z"/>
	<path class="st0" d="M1024.4,230v-7.6h-1.7v-1h1.7v-3.7h1.1v3.7h4.1v1h-4.1v7.5c0,1.7,1,2.3,2.3,2.3c0.6,0,1-0.1,1.7-0.4v1
		c-0.6,0.3-1.2,0.4-1.9,0.4C1025.8,233.2,1024.4,232.2,1024.4,230z"/>
	<path class="st0" d="M1032.9,221.4h1.1v3.3c0.9-2.1,2.8-3.6,5.1-3.5v1.2h-0.1c-2.7,0-5,2-5,5.8v4.8h-1.1V221.4z"/>
	<path class="st0" d="M1042,216.8h1.4v1.5h-1.4V216.8z M1042.1,221.4h1.1V233h-1.1V221.4z"/>
</g>
<g>
	<path class="st0" d="M416,255.5h1.1v2.6c1-1.5,2.5-2.9,4.8-2.9c2.8,0,5.6,2.3,5.6,6v0c0,3.8-2.8,6.1-5.6,6.1
		c-2.3,0-3.8-1.3-4.8-2.8v6.1H416V255.5z M426.3,261.4L426.3,261.4c0-3.1-2.1-5.1-4.6-5.1c-2.4,0-4.7,2-4.7,5v0c0,3,2.3,5,4.7,5
		C424.3,266.3,426.3,264.5,426.3,261.4z"/>
	<path class="st0" d="M430.8,262.6v-7.1h1.1v6.9c0,2.4,1.3,4,3.7,4c2.3,0,4-1.7,4-4.1v-6.7h1.1v11.6h-1.1V265
		c-0.8,1.4-2.1,2.4-4.2,2.4C432.5,267.4,430.8,265.4,430.8,262.6z"/>
	<path class="st0" d="M444.9,255.5h1.1v2.2c0.8-1.4,2.1-2.4,4.2-2.4c2.9,0,4.6,2,4.6,4.8v7.1h-1.1v-6.9c0-2.4-1.3-4-3.7-4
		c-2.3,0-4,1.7-4,4.1v6.7h-1.1V255.5z"/>
	<path class="st0" d="M459.5,264.2v-7.6h-1.7v-1h1.7v-3.7h1.1v3.7h4.1v1h-4.1v7.5c0,1.7,1,2.3,2.3,2.3c0.6,0,1-0.1,1.7-0.4v1
		c-0.6,0.3-1.2,0.4-1.9,0.4C461,267.3,459.5,266.4,459.5,264.2z"/>
	<path class="st0" d="M468,251h1.4v1.5H468V251z M468.2,255.5h1.1v11.6h-1.1V255.5z"/>
	<path class="st0" d="M479.8,261.4L479.8,261.4c0-3.8,2.8-6.1,5.6-6.1c2.3,0,3.8,1.3,4.8,2.8v-7.5h1.1v16.6h-1.1v-2.6
		c-1,1.5-2.5,2.9-4.8,2.9C482.6,267.4,479.8,265.2,479.8,261.4z M490.3,261.4L490.3,261.4c0-3-2.3-5-4.7-5c-2.5,0-4.6,1.8-4.6,5v0
		c0,3.1,2.1,5,4.6,5C487.9,266.3,490.3,264.3,490.3,261.4z"/>
	<path class="st0" d="M495.6,251h1.4v1.5h-1.4V251z M495.7,255.5h1.1v11.6h-1.1V255.5z"/>
</g>
<g>
	<path class="st0" d="M508,255.5h1.1v3.3c0.9-2.1,2.8-3.6,5.1-3.5v1.2h-0.1c-2.7,0-5,2-5,5.8v4.8H508V255.5z"/>
	<path class="st0" d="M517.2,251h1.4v1.5h-1.4V251z M517.3,255.5h1.1v11.6h-1.1V255.5z"/>
	<path class="st0" d="M523.5,256.5h-1.7v-1h1.7v-1.1c0-1.3,0.4-2.4,1-3c0.6-0.6,1.4-0.9,2.4-0.9c0.7,0,1.2,0.1,1.7,0.3v1
		c-0.7-0.2-1.1-0.3-1.7-0.3c-1.6,0-2.3,1-2.3,2.9v1.1h4.1v1h-4.1v10.6h-1.1V256.5z"/>
	<path class="st0" d="M530,261.4L530,261.4c0-3.4,2.4-6.1,5.5-6.1c3.3,0,5.3,2.6,5.3,6.1c0,0.2,0,0.3,0,0.5h-9.6
		c0.2,2.9,2.3,4.6,4.6,4.6c1.8,0,3-0.8,4-1.8l0.8,0.7c-1.2,1.3-2.6,2.2-4.8,2.2C532.7,267.4,530,265,530,261.4z M539.7,260.8
		c-0.2-2.3-1.5-4.5-4.2-4.5c-2.3,0-4.1,1.9-4.3,4.5H539.7z"/>
	<path class="st0" d="M544.1,255.5h1.1v3.3c0.9-2.1,2.8-3.6,5.1-3.5v1.2h-0.1c-2.7,0-5,2-5,5.8v4.8h-1.1V255.5z"/>
	<path class="st0" d="M553.3,251h1.4v1.5h-1.4V251z M553.4,255.5h1.1v11.6h-1.1V255.5z"/>
	<path class="st0" d="M558.9,255.5h1.1v2.1c0.8-1.2,1.8-2.3,3.9-2.3c2,0,3.3,1.2,3.9,2.5c0.8-1.3,2-2.5,4.2-2.5
		c2.8,0,4.5,1.9,4.5,4.8v7h-1.1v-6.9c0-2.5-1.3-4-3.4-4c-2,0-3.7,1.5-3.7,4.1v6.8h-1.1v-7c0-2.4-1.3-3.9-3.4-3.9
		c-2.1,0-3.7,1.8-3.7,4.2v6.7h-1.1V255.5z"/>
	<path class="st0" d="M579.8,261.4L579.8,261.4c0-3.4,2.4-6.1,5.5-6.1c3.3,0,5.3,2.6,5.3,6.1c0,0.2,0,0.3,0,0.5H581
		c0.2,2.9,2.3,4.6,4.6,4.6c1.8,0,3-0.8,4-1.8l0.8,0.7c-1.2,1.3-2.6,2.2-4.8,2.2C582.4,267.4,579.8,265,579.8,261.4z M589.4,260.8
		c-0.2-2.3-1.5-4.5-4.2-4.5c-2.3,0-4.1,1.9-4.3,4.5H589.4z"/>
	<path class="st0" d="M593.9,255.5h1.1v2.2c0.8-1.4,2.1-2.4,4.2-2.4c2.9,0,4.6,2,4.6,4.8v7.1h-1.1v-6.9c0-2.4-1.3-4-3.7-4
		c-2.3,0-4,1.7-4,4.1v6.7h-1.1V255.5z"/>
	<path class="st0" d="M608.4,264.2v-7.6h-1.7v-1h1.7v-3.7h1.1v3.7h4.1v1h-4.1v7.5c0,1.7,1,2.3,2.3,2.3c0.6,0,1-0.1,1.7-0.4v1
		c-0.6,0.3-1.2,0.4-1.9,0.4C609.9,267.3,608.4,266.4,608.4,264.2z"/>
	<path class="st0" d="M615.8,261.4L615.8,261.4c0-3.3,2.5-6.1,6-6.1c3.4,0,5.9,2.8,5.9,6v0c0,3.3-2.5,6.1-6,6.1
		C618.3,267.4,615.8,264.6,615.8,261.4z M626.5,261.4L626.5,261.4c0-2.8-2.1-5.1-4.8-5.1c-2.8,0-4.7,2.3-4.7,5v0c0,2.8,2.1,5,4.8,5
		C624.5,266.4,626.5,264.1,626.5,261.4z"/>
	<path class="st0" d="M630.5,265.2h1.5v1.9h-1.5V265.2z"/>
</g>
<g>
	<path class="st0" d="M246.5,305.4h1.2v14.8h9.4v1.1h-10.5V305.4z"/>
	<path class="st0" d="M258.7,309.2c1-0.5,1.3-1,1.3-1.9h-0.6v-1.9h1.5v1.7c0,1.4-0.5,2.2-1.9,2.7L258.7,309.2z"/>
	<path class="st0" d="M264.8,305.1h1.4v1.5h-1.4V305.1z M264.9,309.7h1.1v11.6h-1.1V309.7z"/>
	<path class="st0" d="M270.4,309.7h1.1v2.2c0.8-1.4,2.1-2.4,4.2-2.4c2.9,0,4.6,2,4.6,4.8v7.1h-1.1v-6.9c0-2.4-1.3-4-3.7-4
		c-2.3,0-4,1.7-4,4.1v6.7h-1.1V309.7z"/>
	<path class="st0" d="M285,310.7h-1.7v-1h1.7v-1.1c0-1.3,0.4-2.4,1-3c0.6-0.6,1.4-0.9,2.4-0.9c0.7,0,1.2,0.1,1.7,0.3v1
		c-0.7-0.2-1.1-0.3-1.7-0.3c-1.6,0-2.3,1-2.3,2.9v1.1h4.1v1h-4.1v10.6H285V310.7z"/>
	<path class="st0" d="M291.6,315.5L291.6,315.5c0-3.3,2.5-6.1,6-6.1c3.4,0,5.9,2.8,5.9,6v0c0,3.3-2.5,6.1-6,6.1
		C294.1,321.6,291.6,318.8,291.6,315.5z M302.3,315.5L302.3,315.5c0-2.8-2.1-5.1-4.8-5.1c-2.8,0-4.7,2.3-4.7,5v0c0,2.8,2.1,5,4.8,5
		C300.3,320.5,302.3,318.3,302.3,315.5z"/>
	<path class="st0" d="M306.9,309.7h1.1v3.3c0.9-2.1,2.8-3.6,5.1-3.5v1.2h-0.1c-2.7,0-5,2-5,5.8v4.8h-1.1V309.7z"/>
	<path class="st0" d="M316.1,309.7h1.1v2.1c0.8-1.2,1.8-2.3,3.9-2.3c2,0,3.3,1.2,3.9,2.5c0.8-1.3,2-2.5,4.2-2.5
		c2.8,0,4.5,1.9,4.5,4.8v7h-1.1v-6.9c0-2.5-1.3-4-3.4-4c-2,0-3.7,1.5-3.7,4.1v6.8h-1.1v-7c0-2.4-1.3-3.9-3.4-3.9
		c-2.1,0-3.7,1.8-3.7,4.2v6.7h-1.1V309.7z"/>
	<path class="st0" d="M336.8,317.9L336.8,317.9c0-2.5,2.1-3.8,5.1-3.8c1.6,0,2.7,0.2,3.8,0.5v-0.5c0-2.3-1.4-3.6-3.8-3.6
		c-1.4,0-2.6,0.4-3.6,0.9l-0.4-1c1.3-0.6,2.5-1,4.1-1c1.6,0,2.8,0.4,3.7,1.3c0.8,0.8,1.2,1.8,1.2,3.3v7.2h-1.1v-1.9
		c-0.8,1.1-2.2,2.2-4.4,2.2C339.1,321.6,336.8,320.3,336.8,317.9z M345.7,316.9v-1.3c-1-0.2-2.3-0.5-3.9-0.5c-2.5,0-3.8,1.1-3.8,2.7
		v0c0,1.7,1.6,2.7,3.4,2.7C343.7,320.5,345.7,319.1,345.7,316.9z"/>
	<path class="st0" d="M351.3,318.3v-7.6h-1.7v-1h1.7V306h1.1v3.7h4.1v1h-4.1v7.5c0,1.7,1,2.3,2.3,2.3c0.6,0,1-0.1,1.7-0.4v1
		c-0.6,0.3-1.2,0.4-1.9,0.4C352.8,321.5,351.3,320.5,351.3,318.3z"/>
	<path class="st0" d="M359.8,305.1h1.4v1.5h-1.4V305.1z M360,309.7h1.1v11.6H360V309.7z"/>
	<path class="st0" d="M364.7,315.5L364.7,315.5c0-3.3,2.6-6.1,5.9-6.1c2.2,0,3.6,1,4.6,2.1l-0.8,0.8c-1-1-2.1-1.9-3.9-1.9
		c-2.6,0-4.7,2.2-4.7,5v0c0,2.8,2.1,5,4.8,5c1.6,0,2.9-0.8,3.9-1.9l0.8,0.7c-1.2,1.3-2.6,2.3-4.7,2.3
		C367.2,321.6,364.7,318.8,364.7,315.5z"/>
	<path class="st0" d="M377.5,317.9L377.5,317.9c0-2.5,2.1-3.8,5.1-3.8c1.6,0,2.7,0.2,3.8,0.5v-0.5c0-2.3-1.4-3.6-3.8-3.6
		c-1.4,0-2.6,0.4-3.6,0.9l-0.4-1c1.3-0.6,2.5-1,4.1-1c1.6,0,2.8,0.4,3.7,1.3c0.8,0.8,1.2,1.8,1.2,3.3v7.2h-1.1v-1.9
		c-0.8,1.1-2.2,2.2-4.4,2.2C379.8,321.6,377.5,320.3,377.5,317.9z M386.5,316.9v-1.3c-1-0.2-2.3-0.5-3.9-0.5c-2.5,0-3.8,1.1-3.8,2.7
		v0c0,1.7,1.6,2.7,3.4,2.7C384.4,320.5,386.5,319.1,386.5,316.9z"/>
	<path class="st0" d="M398.4,309.7h1.1v2.6c1-1.5,2.5-2.9,4.8-2.9c2.8,0,5.6,2.3,5.6,6v0c0,3.8-2.8,6.1-5.6,6.1
		c-2.3,0-3.8-1.3-4.8-2.8v6.1h-1.1V309.7z M408.7,315.5L408.7,315.5c0-3.1-2.1-5.1-4.6-5.1c-2.4,0-4.7,2-4.7,5v0c0,3,2.3,5,4.7,5
		C406.7,320.5,408.7,318.6,408.7,315.5z"/>
	<path class="st0" d="M412.6,315.5L412.6,315.5c0-3.4,2.4-6.1,5.5-6.1c3.3,0,5.3,2.6,5.3,6.1c0,0.2,0,0.3,0,0.5h-9.6
		c0.2,2.9,2.3,4.6,4.6,4.6c1.8,0,3-0.8,4-1.8l0.8,0.7c-1.2,1.3-2.6,2.2-4.8,2.2C415.2,321.6,412.6,319.1,412.6,315.5z M422.2,314.9
		c-0.2-2.3-1.5-4.5-4.2-4.5c-2.3,0-4.1,1.9-4.3,4.5H422.2z"/>
	<path class="st0" d="M426.7,309.7h1.1v3.3c0.9-2.1,2.8-3.6,5.1-3.5v1.2h-0.1c-2.7,0-5,2-5,5.8v4.8h-1.1V309.7z"/>
	<path class="st0" d="M442.6,309.7h1.1v2.2c0.8-1.4,2.1-2.4,4.2-2.4c2.9,0,4.6,2,4.6,4.8v7.1h-1.1v-6.9c0-2.4-1.3-4-3.7-4
		c-2.3,0-4,1.7-4,4.1v6.7h-1.1V309.7z"/>
	<path class="st0" d="M455.8,315.5L455.8,315.5c0-3.3,2.5-6.1,6-6.1c3.4,0,5.9,2.8,5.9,6v0c0,3.3-2.5,6.1-6,6.1
		C458.3,321.6,455.8,318.8,455.8,315.5z M466.5,315.5L466.5,315.5c0-2.8-2.1-5.1-4.8-5.1c-2.8,0-4.7,2.3-4.7,5v0c0,2.8,2.1,5,4.8,5
		C464.5,320.5,466.5,318.3,466.5,315.5z"/>
	<path class="st0" d="M471.2,305.1h1.4v1.5h-1.4V305.1z M471.3,309.7h1.1v11.6h-1.1V309.7z"/>
	<path class="st0" d="M482.9,315.5L482.9,315.5c0-3.4,2.4-6.1,5.5-6.1c3.3,0,5.3,2.6,5.3,6.1c0,0.2,0,0.3,0,0.5h-9.6
		c0.2,2.9,2.3,4.6,4.6,4.6c1.8,0,3-0.8,4-1.8l0.8,0.7c-1.2,1.3-2.6,2.2-4.8,2.2C485.5,321.6,482.9,319.1,482.9,315.5z M492.5,314.9
		c-0.2-2.3-1.5-4.5-4.2-4.5c-2.3,0-4.1,1.9-4.3,4.5H492.5z M485.5,305.4l1.4-0.7l2,3h-1L485.5,305.4z"/>
</g>
<g>
	<path class="st0" d="M506.3,301.4v-0.2c0-11.4,8.9-20.9,20.5-20.9c7.4,0,12,3.2,16,7.4l-1.2,1.1c-3.6-3.8-8.2-7-14.9-7
		c-10.6,0-18.6,8.8-18.6,19.2v0.2c0,10.4,8.2,19.4,18.7,19.4c6.9,0,11.5-3.4,15-7.4l1.2,1.1c-3.8,4.4-8.8,7.9-16.3,7.9
		C515.2,322.2,506.3,312.7,506.3,301.4z"/>
	<path class="st0" d="M554,281.3h1.7v12.8c1.8-6.6,7.6-13.8,16.5-13.8v1.6h-0.4c-10,0-16.1,11-16.1,18.6v20.7H554V281.3z"/>
	<path class="st0" d="M576,301.3v-0.2c0-11.8,8.1-20.8,19.2-20.8c12.6,0,18.4,11.1,18.4,21.1v0.3h-35.8c0.3,11.5,8.4,18.9,18.2,18.9
		c6.2,0,11.6-3.6,14.8-8.1l1.4,1c-3.4,5-9.2,8.7-16.2,8.7C585.1,322.2,576,314.2,576,301.3z M611.8,300.2
		c-0.3-9.1-6.1-18.3-16.6-18.3c-9.9,0-16.9,7.8-17.3,18.3H611.8z"/>
	<path class="st0" d="M622.1,310.2v-0.2c0-8.4,7.8-12.7,17.8-12.7c5.6,0,11,1,15,2.5v-3.4c0-9.7-5.8-14.2-15.1-14.2
		c-5,0-9.1,1.4-13.3,3.4l-0.6-1.4c4.4-2.2,8.8-3.5,14-3.5c5.5,0,9.8,1.4,12.8,4.4c2.5,2.5,3.9,6.4,3.9,11.4v24.9H655v-9.4
		c-1.7,4.6-7.7,10.4-17.9,10.4C629.2,322.2,622.1,318.2,622.1,310.2z M655,306.6v-5.1c-4.2-1.6-8.9-2.6-15-2.6
		c-9,0-16.2,3.7-16.2,11v0.2c0,7,6.2,10.5,13.3,10.5C647.9,320.6,655,313.8,655,306.6z"/>
	<path class="st0" d="M672.5,311v-28.2h-6.3v-1.5h6.3v-13.8h1.7v13.8H689v1.5h-14.8v28.1c0,6,2.9,9.5,8.6,9.5c2,0,4.2-0.5,6.1-1.4
		v1.8c-1.9,0.9-4,1.3-6.1,1.3C676.1,322,672.5,318,672.5,311z"/>
	<path class="st0" d="M700.3,265.3h2.5v4.6h-2.5V265.3z M700.7,281.3h1.7v40h-1.7V281.3z"/>
	<path class="st0" d="M713.6,281.3h1.8l17.4,38.2l17.3-38.2h1.8l-18.4,40.3h-1.3L713.6,281.3z"/>
	<path class="st0" d="M757.2,310.2v-0.2c0-8.4,7.8-12.7,17.8-12.7c5.6,0,11,1,15,2.5v-3.4c0-9.7-5.8-14.2-15.1-14.2
		c-5,0-9.1,1.4-13.3,3.4l-0.6-1.4c4.4-2.2,8.8-3.5,14-3.5c5.5,0,9.8,1.4,12.8,4.4c2.5,2.5,3.9,6.4,3.9,11.4v24.9H790v-9.4
		c-1.7,4.6-7.7,10.4-17.9,10.4C764.3,322.2,757.2,318.2,757.2,310.2z M790,306.6v-5.1c-4.2-1.6-8.9-2.6-15-2.6
		c-9,0-16.2,3.7-16.2,11v0.2c0,7,6.2,10.5,13.3,10.5C782.9,320.6,790,313.8,790,306.6z"/>
</g>
<g>
	<path class="st0" d="M799.5,323.1c1-0.5,1.3-1,1.3-1.9h-0.6v-1.9h1.5v1.7c0,1.4-0.5,2.2-1.9,2.7L799.5,323.1z"/>
</g>
<g>
	<path class="st0" d="M193,356.1L193,356.1c0-2.5,2.1-3.8,5.1-3.8c1.6,0,2.7,0.2,3.8,0.5v-0.5c0-2.3-1.4-3.6-3.8-3.6
		c-1.4,0-2.6,0.4-3.6,0.9l-0.4-1c1.3-0.6,2.5-1,4.1-1c1.6,0,2.8,0.4,3.7,1.3c0.8,0.8,1.2,1.8,1.2,3.3v7.2h-1.1v-1.9
		c-0.8,1.1-2.2,2.2-4.4,2.2C195.3,359.7,193,358.5,193,356.1z M201.9,355.1v-1.3c-1-0.2-2.3-0.5-3.9-0.5c-2.5,0-3.8,1.1-3.8,2.7v0
		c0,1.7,1.6,2.7,3.4,2.7C199.9,358.7,201.9,357.2,201.9,355.1z"/>
	<path class="st0" d="M207,347.8h1.1v2.6c1-1.5,2.5-2.9,4.8-2.9c2.8,0,5.6,2.3,5.6,6v0c0,3.8-2.8,6.1-5.6,6.1
		c-2.3,0-3.8-1.3-4.8-2.8v6.1H207V347.8z M217.3,353.7L217.3,353.7c0-3.1-2.1-5.1-4.6-5.1c-2.4,0-4.7,2-4.7,5v0c0,3,2.3,5,4.7,5
		C215.3,358.6,217.3,356.8,217.3,353.7z"/>
	<path class="st0" d="M222,347.8h1.1v2.6c1-1.5,2.5-2.9,4.8-2.9c2.8,0,5.6,2.3,5.6,6v0c0,3.8-2.8,6.1-5.6,6.1
		c-2.3,0-3.8-1.3-4.8-2.8v6.1H222V347.8z M232.4,353.7L232.4,353.7c0-3.1-2.1-5.1-4.6-5.1c-2.4,0-4.7,2-4.7,5v0c0,3,2.3,5,4.7,5
		C230.3,358.6,232.4,356.8,232.4,353.7z"/>
	<path class="st0" d="M236.1,356.1L236.1,356.1c0-2.5,2.1-3.8,5.1-3.8c1.6,0,2.7,0.2,3.8,0.5v-0.5c0-2.3-1.4-3.6-3.8-3.6
		c-1.4,0-2.6,0.4-3.6,0.9l-0.4-1c1.3-0.6,2.5-1,4.1-1c1.6,0,2.8,0.4,3.7,1.3c0.8,0.8,1.2,1.8,1.2,3.3v7.2H245v-1.9
		c-0.8,1.1-2.2,2.2-4.4,2.2C238.4,359.7,236.1,358.5,236.1,356.1z M245.1,355.1v-1.3c-1-0.2-2.3-0.5-3.9-0.5c-2.5,0-3.8,1.1-3.8,2.7
		v0c0,1.7,1.6,2.7,3.4,2.7C243,358.7,245.1,357.2,245.1,355.1z"/>
	<path class="st0" d="M249.1,358l0.7-0.9c1.3,1,2.7,1.5,4.2,1.5c1.6,0,2.8-0.9,2.8-2.2v0c0-1.4-1.5-1.9-3.1-2.3
		c-1.9-0.5-4-1.1-4-3.2v0c0-1.9,1.6-3.2,3.8-3.2c1.4,0,3,0.5,4.1,1.3l-0.6,0.9c-1.1-0.7-2.3-1.2-3.6-1.2c-1.6,0-2.6,0.9-2.6,2v0
		c0,1.3,1.6,1.8,3.2,2.3c1.9,0.5,3.8,1.2,3.8,3.3v0c0,2.1-1.8,3.4-4,3.4C252.2,359.7,250.4,359,249.1,358z"/>
	<path class="st0" d="M260.2,358l0.7-0.9c1.3,1,2.7,1.5,4.2,1.5c1.6,0,2.8-0.9,2.8-2.2v0c0-1.4-1.5-1.9-3.1-2.3
		c-1.9-0.5-4-1.1-4-3.2v0c0-1.9,1.6-3.2,3.8-3.2c1.4,0,3,0.5,4.1,1.3l-0.6,0.9c-1.1-0.7-2.3-1.2-3.6-1.2c-1.6,0-2.6,0.9-2.6,2v0
		c0,1.3,1.6,1.8,3.2,2.3c1.9,0.5,3.8,1.2,3.8,3.3v0c0,2.1-1.8,3.4-4,3.4C263.3,359.7,261.5,359,260.2,358z"/>
	<path class="st0" d="M272.6,343.3h1.4v1.5h-1.4V343.3z M272.7,347.8h1.1v11.6h-1.1V347.8z"/>
	<path class="st0" d="M277.4,353.7L277.4,353.7c0-3.3,2.5-6.1,6-6.1c3.4,0,5.9,2.8,5.9,6v0c0,3.3-2.5,6.1-6,6.1
		C279.9,359.7,277.4,356.9,277.4,353.7z M288.2,353.7L288.2,353.7c0-2.8-2.1-5.1-4.8-5.1c-2.8,0-4.7,2.3-4.7,5v0c0,2.8,2.1,5,4.8,5
		C286.2,358.7,288.2,356.4,288.2,353.7z"/>
	<path class="st0" d="M292.8,347.8h1.1v2.2c0.8-1.4,2.1-2.4,4.2-2.4c2.9,0,4.6,2,4.6,4.8v7.1h-1.1v-6.9c0-2.4-1.3-4-3.7-4
		c-2.3,0-4,1.7-4,4.1v6.7h-1.1V347.8z"/>
	<path class="st0" d="M305.8,356.1L305.8,356.1c0-2.5,2.1-3.8,5.1-3.8c1.6,0,2.7,0.2,3.8,0.5v-0.5c0-2.3-1.4-3.6-3.8-3.6
		c-1.4,0-2.6,0.4-3.6,0.9l-0.4-1c1.3-0.6,2.5-1,4.1-1c1.6,0,2.8,0.4,3.7,1.3c0.8,0.8,1.2,1.8,1.2,3.3v7.2h-1.1v-1.9
		c-0.8,1.1-2.2,2.2-4.4,2.2C308.1,359.7,305.8,358.5,305.8,356.1z M314.8,355.1v-1.3c-1-0.2-2.3-0.5-3.9-0.5c-2.5,0-3.8,1.1-3.8,2.7
		v0c0,1.7,1.6,2.7,3.4,2.7C312.7,358.7,314.8,357.2,314.8,355.1z"/>
	<path class="st0" d="M319.8,347.8h1.1v2.2c0.8-1.4,2.1-2.4,4.2-2.4c2.9,0,4.6,2,4.6,4.8v7.1h-1.1v-6.9c0-2.4-1.3-4-3.7-4
		c-2.3,0-4,1.7-4,4.1v6.7h-1.1V347.8z"/>
	<path class="st0" d="M334.4,356.4v-7.6h-1.7v-1h1.7v-3.7h1.1v3.7h4.1v1h-4.1v7.5c0,1.7,1,2.3,2.3,2.3c0.6,0,1-0.1,1.7-0.4v1
		c-0.6,0.3-1.2,0.4-1.9,0.4C335.9,359.6,334.4,358.7,334.4,356.4z"/>
	<path class="st0" d="M341.8,353.6L341.8,353.6c0-3.4,2.4-6.1,5.5-6.1c3.3,0,5.3,2.6,5.3,6.1c0,0.2,0,0.3,0,0.5H343
		c0.2,2.9,2.3,4.6,4.6,4.6c1.8,0,3-0.8,4-1.8l0.8,0.7c-1.2,1.3-2.6,2.2-4.8,2.2C344.4,359.7,341.8,357.3,341.8,353.6z M351.4,353.1
		c-0.2-2.3-1.5-4.5-4.2-4.5c-2.3,0-4.1,1.9-4.3,4.5H351.4z"/>
	<path class="st0" d="M354.8,361.3c1-0.5,1.3-1,1.3-1.9h-0.6v-1.9h1.5v1.7c0,1.4-0.5,2.2-1.9,2.7L354.8,361.3z"/>
	<path class="st0" d="M367.8,343.3h1.4v1.5h-1.4V343.3z M367.9,347.8h1.1v11.6h-1.1V347.8z"/>
	<path class="st0" d="M373.4,347.8h1.1v2.2c0.8-1.4,2.1-2.4,4.2-2.4c2.9,0,4.6,2,4.6,4.8v7.1h-1.1v-6.9c0-2.4-1.3-4-3.7-4
		c-2.3,0-4,1.7-4,4.1v6.7h-1.1V347.8z"/>
	<path class="st0" d="M388,356.4v-7.6h-1.7v-1h1.7v-3.7h1.1v3.7h4.1v1h-4.1v7.5c0,1.7,1,2.3,2.3,2.3c0.6,0,1-0.1,1.7-0.4v1
		c-0.6,0.3-1.2,0.4-1.9,0.4C389.5,359.6,388,358.7,388,356.4z"/>
	<path class="st0" d="M395.3,353.6L395.3,353.6c0-3.4,2.4-6.1,5.5-6.1c3.3,0,5.3,2.6,5.3,6.1c0,0.2,0,0.3,0,0.5h-9.6
		c0.2,2.9,2.3,4.6,4.6,4.6c1.8,0,3-0.8,4-1.8l0.8,0.7c-1.2,1.3-2.6,2.2-4.8,2.2C398,359.7,395.3,357.3,395.3,353.6z M405,353.1
		c-0.2-2.3-1.5-4.5-4.2-4.5c-2.3,0-4.1,1.9-4.3,4.5H405z"/>
	<path class="st0" d="M409.4,347.8h1.1v3.3c0.9-2.1,2.8-3.6,5.1-3.5v1.2h-0.1c-2.7,0-5,2-5,5.8v4.8h-1.1V347.8z"/>
	<path class="st0" d="M417.2,353.6L417.2,353.6c0-3.4,2.4-6.1,5.5-6.1c3.3,0,5.3,2.6,5.3,6.1c0,0.2,0,0.3,0,0.5h-9.6
		c0.2,2.9,2.3,4.6,4.6,4.6c1.8,0,3-0.8,4-1.8l0.8,0.7c-1.2,1.3-2.6,2.2-4.8,2.2C419.9,359.7,417.2,357.3,417.2,353.6z M426.8,353.1
		c-0.2-2.3-1.5-4.5-4.2-4.5c-2.3,0-4.1,1.9-4.3,4.5H426.8z"/>
	<path class="st0" d="M430.3,358l0.7-0.9c1.3,1,2.7,1.5,4.2,1.5c1.6,0,2.8-0.9,2.8-2.2v0c0-1.4-1.5-1.9-3.1-2.3
		c-1.9-0.5-4-1.1-4-3.2v0c0-1.9,1.6-3.2,3.8-3.2c1.4,0,3,0.5,4.1,1.3l-0.6,0.9c-1.1-0.7-2.3-1.2-3.6-1.2c-1.6,0-2.6,0.9-2.6,2v0
		c0,1.3,1.6,1.8,3.2,2.3c1.9,0.5,3.8,1.2,3.8,3.3v0c0,2.1-1.8,3.4-4,3.4C433.4,359.7,431.5,359,430.3,358z"/>
	<path class="st0" d="M441.4,358l0.7-0.9c1.3,1,2.7,1.5,4.2,1.5c1.6,0,2.8-0.9,2.8-2.2v0c0-1.4-1.5-1.9-3.1-2.3
		c-1.9-0.5-4-1.1-4-3.2v0c0-1.9,1.6-3.2,3.8-3.2c1.4,0,3,0.5,4.1,1.3l-0.6,0.9c-1.1-0.7-2.3-1.2-3.6-1.2c-1.6,0-2.6,0.9-2.6,2v0
		c0,1.3,1.6,1.8,3.2,2.3c1.9,0.5,3.8,1.2,3.8,3.3v0c0,2.1-1.8,3.4-4,3.4C444.5,359.7,442.6,359,441.4,358z"/>
	<path class="st0" d="M452.8,356.1L452.8,356.1c0-2.5,2.1-3.8,5.1-3.8c1.6,0,2.7,0.2,3.8,0.5v-0.5c0-2.3-1.4-3.6-3.8-3.6
		c-1.4,0-2.6,0.4-3.6,0.9l-0.4-1c1.3-0.6,2.5-1,4.1-1c1.6,0,2.8,0.4,3.7,1.3c0.8,0.8,1.2,1.8,1.2,3.3v7.2h-1.1v-1.9
		c-0.8,1.1-2.2,2.2-4.4,2.2C455.1,359.7,452.8,358.5,452.8,356.1z M461.7,355.1v-1.3c-1-0.2-2.3-0.5-3.9-0.5c-2.5,0-3.8,1.1-3.8,2.7
		v0c0,1.7,1.6,2.7,3.4,2.7C459.7,358.7,461.7,357.2,461.7,355.1z"/>
	<path class="st0" d="M466.8,347.8h1.1v2.2c0.8-1.4,2.1-2.4,4.2-2.4c2.9,0,4.6,2,4.6,4.8v7.1h-1.1v-6.9c0-2.4-1.3-4-3.7-4
		c-2.3,0-4,1.7-4,4.1v6.7h-1.1V347.8z"/>
	<path class="st0" d="M481.4,356.4v-7.6h-1.7v-1h1.7v-3.7h1.1v3.7h4.1v1h-4.1v7.5c0,1.7,1,2.3,2.3,2.3c0.6,0,1-0.1,1.7-0.4v1
		c-0.6,0.3-1.2,0.4-1.9,0.4C482.8,359.6,481.4,358.7,481.4,356.4z"/>
	<path class="st0" d="M488.7,353.6L488.7,353.6c0-3.4,2.4-6.1,5.5-6.1c3.3,0,5.3,2.6,5.3,6.1c0,0.2,0,0.3,0,0.5h-9.6
		c0.2,2.9,2.3,4.6,4.6,4.6c1.8,0,3-0.8,4-1.8l0.8,0.7c-1.2,1.3-2.6,2.2-4.8,2.2C491.4,359.7,488.7,357.3,488.7,353.6z M498.4,353.1
		c-0.2-2.3-1.5-4.5-4.2-4.5c-2.3,0-4.1,1.9-4.3,4.5H498.4z"/>
	<path class="st0" d="M501.7,361.3c1-0.5,1.3-1,1.3-1.9h-0.6v-1.9h1.5v1.7c0,1.4-0.5,2.2-1.9,2.7L501.7,361.3z"/>
	<path class="st0" d="M513.9,353.6L513.9,353.6c0-3.4,2.4-6.1,5.5-6.1c3.3,0,5.3,2.6,5.3,6.1c0,0.2,0,0.3,0,0.5h-9.6
		c0.2,2.9,2.3,4.6,4.6,4.6c1.8,0,3-0.8,4-1.8l0.8,0.7c-1.2,1.3-2.6,2.2-4.8,2.2C516.5,359.7,513.9,357.3,513.9,353.6z M523.5,353.1
		c-0.2-2.3-1.5-4.5-4.2-4.5c-2.3,0-4.1,1.9-4.3,4.5H523.5z M516.5,343.5l1.4-0.7l2,3h-1L516.5,343.5z"/>
	<path class="st0" d="M533.8,358l0.7-0.9c1.3,1,2.7,1.5,4.2,1.5c1.6,0,2.8-0.9,2.8-2.2v0c0-1.4-1.5-1.9-3.1-2.3
		c-1.9-0.5-4-1.1-4-3.2v0c0-1.9,1.6-3.2,3.8-3.2c1.4,0,3,0.5,4.1,1.3l-0.6,0.9c-1.1-0.7-2.3-1.2-3.6-1.2c-1.6,0-2.6,0.9-2.6,2v0
		c0,1.3,1.6,1.8,3.2,2.3c1.9,0.5,3.8,1.2,3.8,3.3v0c0,2.1-1.8,3.4-4,3.4C536.9,359.7,535.1,359,533.8,358z"/>
	<path class="st0" d="M545.3,353.7L545.3,353.7c0-3.3,2.6-6.1,5.9-6.1c2.2,0,3.6,1,4.6,2.1l-0.8,0.8c-1-1-2.1-1.9-3.9-1.9
		c-2.6,0-4.7,2.2-4.7,5v0c0,2.8,2.1,5,4.8,5c1.6,0,2.9-0.8,3.9-1.9l0.8,0.7c-1.2,1.3-2.6,2.3-4.7,2.3
		C547.9,359.7,545.3,356.9,545.3,353.7z"/>
	<path class="st0" d="M558,353.7L558,353.7c0-3.3,2.5-6.1,6-6.1c3.4,0,5.9,2.8,5.9,6v0c0,3.3-2.5,6.1-6,6.1
		C560.5,359.7,558,356.9,558,353.7z M568.8,353.7L568.8,353.7c0-2.8-2.1-5.1-4.8-5.1c-2.8,0-4.7,2.3-4.7,5v0c0,2.8,2.1,5,4.8,5
		C566.8,358.7,568.8,356.4,568.8,353.7z"/>
	<path class="st0" d="M573.4,347.8h1.1v2.6c1-1.5,2.5-2.9,4.8-2.9c2.8,0,5.6,2.3,5.6,6v0c0,3.8-2.8,6.1-5.6,6.1
		c-2.3,0-3.8-1.3-4.8-2.8v6.1h-1.1V347.8z M583.7,353.7L583.7,353.7c0-3.1-2.1-5.1-4.6-5.1c-2.4,0-4.7,2-4.7,5v0c0,3,2.3,5,4.7,5
		C581.7,358.6,583.7,356.8,583.7,353.7z"/>
	<path class="st0" d="M587.6,353.6L587.6,353.6c0-3.4,2.4-6.1,5.5-6.1c3.3,0,5.3,2.6,5.3,6.1c0,0.2,0,0.3,0,0.5h-9.6
		c0.2,2.9,2.3,4.6,4.6,4.6c1.8,0,3-0.8,4-1.8l0.8,0.7c-1.2,1.3-2.6,2.2-4.8,2.2C590.3,359.7,587.6,357.3,587.6,353.6z M597.3,353.1
		c-0.2-2.3-1.5-4.5-4.2-4.5c-2.3,0-4.1,1.9-4.3,4.5H597.3z"/>
	<path class="st0" d="M601.7,347.8h1.1v3.3c0.9-2.1,2.8-3.6,5.1-3.5v1.2h-0.1c-2.7,0-5,2-5,5.8v4.8h-1.1V347.8z"/>
	<path class="st0" d="M611.5,356.4v-7.6h-1.7v-1h1.7v-3.7h1.1v3.7h4.1v1h-4.1v7.5c0,1.7,1,2.3,2.3,2.3c0.6,0,1-0.1,1.7-0.4v1
		c-0.6,0.3-1.2,0.4-1.9,0.4C612.9,359.6,611.5,358.7,611.5,356.4z"/>
	<path class="st0" d="M619,356.1L619,356.1c0-2.5,2.1-3.8,5.1-3.8c1.6,0,2.7,0.2,3.8,0.5v-0.5c0-2.3-1.4-3.6-3.8-3.6
		c-1.4,0-2.6,0.4-3.6,0.9l-0.4-1c1.3-0.6,2.5-1,4.1-1c1.6,0,2.8,0.4,3.7,1.3c0.8,0.8,1.2,1.8,1.2,3.3v7.2h-1.1v-1.9
		c-0.8,1.1-2.2,2.2-4.4,2.2C621.3,359.7,619,358.5,619,356.1z M627.9,355.1v-1.3c-1-0.2-2.3-0.5-3.9-0.5c-2.5,0-3.8,1.1-3.8,2.7v0
		c0,1.7,1.6,2.7,3.4,2.7C625.9,358.7,627.9,357.2,627.9,355.1z"/>
	<path class="st0" d="M632.1,361.3c1-0.5,1.3-1,1.3-1.9h-0.6v-1.9h1.5v1.7c0,1.4-0.5,2.2-1.9,2.7L632.1,361.3z"/>
	<path class="st0" d="M644.1,358l0.7-0.9c1.3,1,2.7,1.5,4.2,1.5c1.6,0,2.8-0.9,2.8-2.2v0c0-1.4-1.5-1.9-3.1-2.3
		c-1.9-0.5-4-1.1-4-3.2v0c0-1.9,1.6-3.2,3.8-3.2c1.4,0,3,0.5,4.1,1.3l-0.6,0.9c-1.1-0.7-2.3-1.2-3.6-1.2c-1.6,0-2.6,0.9-2.6,2v0
		c0,1.3,1.6,1.8,3.2,2.3c1.9,0.5,3.8,1.2,3.8,3.3v0c0,2.1-1.8,3.4-4,3.4C647.2,359.7,645.3,359,644.1,358z"/>
	<path class="st0" d="M656.8,356.4v-7.6h-1.7v-1h1.7v-3.7h1.1v3.7h4.1v1h-4.1v7.5c0,1.7,1,2.3,2.3,2.3c0.6,0,1-0.1,1.7-0.4v1
		c-0.6,0.3-1.2,0.4-1.9,0.4C658.3,359.6,656.8,358.7,656.8,356.4z"/>
	<path class="st0" d="M665.1,354.9v-7.1h1.1v6.9c0,2.4,1.3,4,3.7,4c2.3,0,4-1.7,4-4.1v-6.7h1.1v11.6h-1.1v-2.2
		c-0.8,1.4-2.1,2.4-4.2,2.4C666.8,359.7,665.1,357.7,665.1,354.9z"/>
	<path class="st0" d="M679.3,347.8h1.1v2.6c1-1.5,2.5-2.9,4.8-2.9c2.8,0,5.6,2.3,5.6,6v0c0,3.8-2.8,6.1-5.6,6.1
		c-2.3,0-3.8-1.3-4.8-2.8v6.1h-1.1V347.8z M689.6,353.7L689.6,353.7c0-3.1-2.1-5.1-4.6-5.1c-2.4,0-4.7,2-4.7,5v0c0,3,2.3,5,4.7,5
		C687.6,358.6,689.6,356.8,689.6,353.7z"/>
	<path class="st0" d="M693.5,353.7L693.5,353.7c0-3.3,2.5-6.1,6-6.1c3.4,0,5.9,2.8,5.9,6v0c0,3.3-2.5,6.1-6,6.1
		C696,359.7,693.5,356.9,693.5,353.7z M704.2,353.7L704.2,353.7c0-2.8-2.1-5.1-4.8-5.1c-2.8,0-4.7,2.3-4.7,5v0c0,2.8,2.1,5,4.8,5
		C702.2,358.7,704.2,356.4,704.2,353.7z"/>
	<path class="st0" d="M708.9,347.8h1.1v3.3c0.9-2.1,2.8-3.6,5.1-3.5v1.2H715c-2.7,0-5,2-5,5.8v4.8h-1.1V347.8z"/>
	<path class="st0" d="M716.6,353.6L716.6,353.6c0-3.4,2.4-6.1,5.5-6.1c3.3,0,5.3,2.6,5.3,6.1c0,0.2,0,0.3,0,0.5h-9.6
		c0.2,2.9,2.3,4.6,4.6,4.6c1.8,0,3-0.8,4-1.8l0.8,0.7c-1.2,1.3-2.6,2.2-4.8,2.2C719.3,359.7,716.6,357.3,716.6,353.6z M726.2,353.1
		c-0.2-2.3-1.5-4.5-4.2-4.5c-2.3,0-4.1,1.9-4.3,4.5H726.2z"/>
	<path class="st0" d="M729.6,361.3c1-0.5,1.3-1,1.3-1.9h-0.6v-1.9h1.5v1.7c0,1.4-0.5,2.2-1.9,2.7L729.6,361.3z"/>
	<path class="st0" d="M741.8,353.7L741.8,353.7c0-3.3,2.6-6.1,5.9-6.1c2.2,0,3.6,1,4.6,2.1l-0.8,0.8c-1-1-2.1-1.9-3.9-1.9
		c-2.6,0-4.7,2.2-4.7,5v0c0,2.8,2.1,5,4.8,5c1.6,0,2.9-0.8,3.9-1.9l0.8,0.7c-1.2,1.3-2.6,2.3-4.7,2.3
		C744.3,359.7,741.8,356.9,741.8,353.7z"/>
	<path class="st0" d="M755.3,354.9v-7.1h1.1v6.9c0,2.4,1.3,4,3.7,4c2.3,0,4-1.7,4-4.1v-6.7h1.1v11.6h-1.1v-2.2
		c-0.8,1.4-2.1,2.4-4.2,2.4C757,359.7,755.3,357.7,755.3,354.9z"/>
	<path class="st0" d="M769.5,347.8h1.1v3.3c0.9-2.1,2.8-3.6,5.1-3.5v1.2h-0.1c-2.7,0-5,2-5,5.8v4.8h-1.1V347.8z"/>
	<path class="st0" d="M778.6,343.3h1.4v1.5h-1.4V343.3z M778.8,347.8h1.1v11.6h-1.1V347.8z"/>
	<path class="st0" d="M783.5,353.7L783.5,353.7c0-3.3,2.5-6.1,6-6.1c3.4,0,5.9,2.8,5.9,6v0c0,3.3-2.5,6.1-6,6.1
		C786,359.7,783.5,356.9,783.5,353.7z M794.2,353.7L794.2,353.7c0-2.8-2.1-5.1-4.8-5.1c-2.8,0-4.7,2.3-4.7,5v0c0,2.8,2.1,5,4.8,5
		C792.2,358.7,794.2,356.4,794.2,353.7z"/>
	<path class="st0" d="M797.9,358l0.7-0.9c1.3,1,2.7,1.5,4.2,1.5c1.6,0,2.8-0.9,2.8-2.2v0c0-1.4-1.5-1.9-3.1-2.3
		c-1.9-0.5-4-1.1-4-3.2v0c0-1.9,1.6-3.2,3.8-3.2c1.4,0,3,0.5,4.1,1.3l-0.6,0.9c-1.1-0.7-2.3-1.2-3.6-1.2c-1.6,0-2.6,0.9-2.6,2v0
		c0,1.3,1.6,1.8,3.2,2.3c1.9,0.5,3.8,1.2,3.8,3.3v0c0,2.1-1.8,3.4-4,3.4C800.9,359.7,799.1,359,797.9,358z"/>
	<path class="st0" d="M810.2,343.3h1.4v1.5h-1.4V343.3z M810.3,347.8h1.1v11.6h-1.1V347.8z"/>
	<path class="st0" d="M816.5,356.4v-7.6h-1.7v-1h1.7v-3.7h1.1v3.7h4.1v1h-4.1v7.5c0,1.7,1,2.3,2.3,2.3c0.6,0,1-0.1,1.7-0.4v1
		c-0.6,0.3-1.2,0.4-1.9,0.4C817.9,359.6,816.5,358.7,816.5,356.4z"/>
	<path class="st0" d="M824,356.1L824,356.1c0-2.5,2.1-3.8,5.1-3.8c1.6,0,2.7,0.2,3.8,0.5v-0.5c0-2.3-1.4-3.6-3.8-3.6
		c-1.4,0-2.6,0.4-3.6,0.9l-0.4-1c1.3-0.6,2.5-1,4.1-1c1.6,0,2.8,0.4,3.7,1.3c0.8,0.8,1.2,1.8,1.2,3.3v7.2h-1.1v-1.9
		c-0.8,1.1-2.2,2.2-4.4,2.2C826.3,359.7,824,358.5,824,356.1z M832.9,355.1v-1.3c-1-0.2-2.3-0.5-3.9-0.5c-2.5,0-3.8,1.1-3.8,2.7v0
		c0,1.7,1.6,2.7,3.4,2.7C830.9,358.7,832.9,357.2,832.9,355.1z M826.5,343.5l1.4-0.7l2,3h-1L826.5,343.5z"/>
	<path class="st0" d="M844.1,353.6L844.1,353.6c0-3.4,2.4-6.1,5.5-6.1c3.3,0,5.3,2.6,5.3,6.1c0,0.2,0,0.3,0,0.5h-9.6
		c0.2,2.9,2.3,4.6,4.6,4.6c1.8,0,3-0.8,4-1.8l0.8,0.7c-1.2,1.3-2.6,2.2-4.8,2.2C846.7,359.7,844.1,357.3,844.1,353.6z M853.7,353.1
		c-0.2-2.3-1.5-4.5-4.2-4.5c-2.3,0-4.1,1.9-4.3,4.5H853.7z"/>
</g>
<g>
	<path class="st0" d="M257.5,424.4l1-1.4c4.4,3.7,10,5.7,15.2,5.7c7.2,0,12.6-3.7,12.6-8.9v-0.2c0-6.2-6.6-7.9-13.1-9.8
		c-8.2-2.3-14-4.4-14-10.7V399c0-5.6,5.5-10.2,13.9-10.2c4.5,0,9.7,1.5,13.9,4.5l-1,1.4c-3.9-2.8-8.7-4.3-13-4.3
		c-7.3,0-12.2,3.8-12.2,8.5v0.2c0,5.3,5.8,7.3,12.7,9.2c7.9,2.2,14.4,4.4,14.4,11.3v0.2c0,6.2-6.2,10.6-14.5,10.6
		C268.1,430.3,262,428.1,257.5,424.4z"/>
	<path class="st0" d="M297.7,409.7v-0.2c0-11.2,8.2-21,20.8-21c12.5,0,20.8,9.6,20.8,20.8v0.2c0,11.2-8.2,21-20.8,21
		C306.1,430.5,297.7,420.9,297.7,409.7z M337.6,409.6v-0.2c0-10.5-7.9-19.3-19.1-19.3c-11.3,0-19,8.8-19,19.3v0.2
		c0,10.5,7.9,19.3,19.1,19.3C329.9,428.9,337.6,420.1,337.6,409.6z"/>
	<path class="st0" d="M348.7,409.6v-0.2c0-11.6,8.4-20.9,20-20.9c9.3,0,16.2,5.8,18.5,13.4v-30.8h1.7v58.4h-1.7v-12.4
		c-2.3,7.6-9.2,13.4-18.5,13.4C357.1,430.5,348.7,421.2,348.7,409.6z M387.3,409.6v-0.2c0-10.3-7.7-19.3-18.5-19.3
		c-11,0-18.3,8.5-18.3,19.2v0.2c0,10.6,7.4,19.4,18.3,19.4C379.7,428.9,387.3,420,387.3,409.6z"/>
	<path class="st0" d="M401.1,409.6v-0.2c0-11.6,8.4-20.9,20-20.9c9.3,0,16.2,5.8,18.5,13.4v-30.8h1.7v58.4h-1.7v-12.4
		c-2.3,7.6-9.2,13.4-18.5,13.4C409.5,430.5,401.1,421.2,401.1,409.6z M439.7,409.6v-0.2c0-10.3-7.7-19.3-18.5-19.3
		c-11,0-18.3,8.5-18.3,19.2v0.2c0,10.6,7.4,19.4,18.3,19.4C432.1,428.9,439.7,420,439.7,409.6z"/>
	<path class="st0" d="M456.2,373.6h2.5v4.6h-2.5V373.6z M456.6,389.6h1.7v40h-1.7V389.6z"/>
	<path class="st0" d="M469.7,424.4l1-1.4c4.4,3.7,10,5.7,15.2,5.7c7.2,0,12.6-3.7,12.6-8.9v-0.2c0-6.2-6.6-7.9-13.1-9.8
		c-8.2-2.3-14-4.4-14-10.7V399c0-5.6,5.5-10.2,13.9-10.2c4.5,0,9.7,1.5,13.9,4.5l-1,1.4c-3.9-2.8-8.7-4.3-13-4.3
		c-7.3,0-12.2,3.8-12.2,8.5v0.2c0,5.3,5.8,7.3,12.7,9.2c7.9,2.2,14.4,4.4,14.4,11.3v0.2c0,6.2-6.2,10.6-14.5,10.6
		C480.3,430.3,474.2,428.1,469.7,424.4z"/>
	<path class="st0" d="M515.7,391.1h-6.3v-1.5h6.3v-5.8c0-4.6,1.2-8,3.3-10.1c1.8-1.8,4.4-2.8,7.6-2.8c2.4,0,4,0.4,5.6,1.1v1.7
		c-1.5-0.7-3.5-1.1-5.6-1.1c-5.7,0-9.2,3.6-9.2,11.5v5.4H532v1.5h-14.6v38.5h-1.7V391.1z"/>
	<path class="st0" d="M534.3,418.5v-0.2c0-8.4,7.8-12.7,17.8-12.7c5.6,0,11,1,15,2.5v-3.4c0-9.7-5.8-14.2-15.1-14.2
		c-5,0-9.1,1.4-13.3,3.4l-0.6-1.4c4.4-2.2,8.8-3.5,14-3.5c5.5,0,9.8,1.4,12.8,4.4c2.5,2.5,3.9,6.4,3.9,11.4v24.9h-1.7v-9.4
		c-1.7,4.6-7.7,10.4-17.9,10.4C541.4,430.5,534.3,426.4,534.3,418.5z M567.2,414.9v-5.1c-4.2-1.6-8.9-2.6-15-2.6
		c-9,0-16.2,3.7-16.2,11v0.2c0,7,6.2,10.5,13.3,10.5C560.1,428.9,567.2,422,567.2,414.9z"/>
	<path class="st0" d="M578.4,428.6l30.5-37.5h-29.5v-1.5h32v1L580.9,428h30.6v1.5h-33.1V428.6z"/>
	<path class="st0" d="M622,373.6h2.5v4.6H622V373.6z M622.4,389.6h1.7v40h-1.7V389.6z"/>
	<path class="st0" d="M636.5,409.7v-0.2c0-11.2,8.2-21,20.8-21c12.5,0,20.8,9.6,20.8,20.8v0.2c0,11.2-8.2,21-20.8,21
		C644.9,430.5,636.5,420.9,636.5,409.7z M676.4,409.6v-0.2c0-10.5-7.9-19.3-19.1-19.3c-11.3,0-19,8.8-19,19.3v0.2
		c0,10.5,7.9,19.3,19.1,19.3C668.7,428.9,676.4,420.1,676.4,409.6z"/>
	<path class="st0" d="M690.1,389.6h1.7v11c1.3-4.9,6.6-11.9,16.1-11.9c10.8,0,16.8,7.3,16.8,18.3v22.6H723v-22.5
		c0-10-5.2-16.9-15.3-16.9c-8.9,0-15.9,7.6-15.9,17.2v22.2h-1.7V389.6z"/>
	<path class="st0" d="M736,409.6v-0.2c0-11.8,8.1-20.8,19.2-20.8c12.6,0,18.4,11.1,18.4,21.1v0.3h-35.8c0.3,11.5,8.4,18.9,18.2,18.9
		c6.2,0,11.6-3.6,14.8-8.1l1.4,1c-3.4,5-9.2,8.7-16.2,8.7C745,430.5,736,422.4,736,409.6z M771.7,408.5c-0.3-9.1-6.1-18.3-16.6-18.3
		c-9.9,0-16.9,7.8-17.3,18.3H771.7z"/>
</g>
<g>
	<path class="st0" d="M779.8,427.6h1.5v1.9h-1.5V427.6z"/>
	<path class="st0" d="M785.1,427.6h1.5v1.9h-1.5V427.6z"/>
	<path class="st0" d="M790.3,427.6h1.5v1.9h-1.5V427.6z"/>
</g>
</svg>
