<?xml version="1.0" encoding="utf-8"?>
<!-- Generator: Adobe Illustrator 24.0.0, SVG Export Plug-In . SVG Version: 6.00 Build 0)  -->
<svg version="1.1" id="Livello_1" xmlns="http://www.w3.org/2000/svg" xmlns:xlink="http://www.w3.org/1999/xlink" x="0px" y="0px"
	 viewBox="0 0 183.1 244.4" style="enable-background:new 0 0 183.1 244.4;" xml:space="preserve">
<style type="text/css">
	.st0{fill:#283583;}
</style>
<g>
	<path class="st0" d="M8.4,5.4h0.9V33h17.5v0.8H8.4V5.4z"/>
	<path class="st0" d="M31.7,5.4H33v2.3h-1.3V5.4z M31.9,13.5h0.9v20.3h-0.9V13.5z"/>
	<path class="st0" d="M41.4,27.5v6.3h-0.9V4.2h0.9v15.6c1.2-3.9,4.7-6.8,9.4-6.8c5.9,0,10.2,4.7,10.2,10.6v0.1
		c0,5.9-4.3,10.6-10.2,10.6C46.1,34.3,42.6,31.4,41.4,27.5z M60,23.8L60,23.8c0-5.5-3.7-9.9-9.3-9.9c-5.5,0-9.4,4.5-9.4,9.8v0.1
		c0,5.2,3.9,9.8,9.4,9.8C56.3,33.5,60,29.2,60,23.8z"/>
	<path class="st0" d="M65.7,23.7L65.7,23.7c0-6.1,4.1-10.6,9.7-10.6c6.4,0,9.3,5.6,9.3,10.7v0.2H66.7c0.2,5.8,4.3,9.6,9.3,9.6
		c3.1,0,5.9-1.8,7.5-4.1l0.7,0.5c-1.7,2.5-4.7,4.4-8.2,4.4C70.3,34.3,65.7,30.2,65.7,23.7z M83.9,23.2c-0.2-4.6-3.1-9.3-8.4-9.3
		c-5,0-8.6,4-8.8,9.3H83.9z"/>
	<path class="st0" d="M90.8,13.5h0.9V20c0.9-3.4,3.9-7,8.4-7v0.8h-0.2c-5.1,0-8.2,5.6-8.2,9.5v10.5h-0.9V13.5z"/>
	<path class="st0" d="M102,23.8L102,23.8c0-5.8,4.2-10.7,10.6-10.7c6.3,0,10.6,4.9,10.6,10.6v0.1c0,5.7-4.2,10.6-10.6,10.6
		C106.2,34.3,102,29.5,102,23.8z M122.2,23.7L122.2,23.7c0-5.4-4-9.9-9.7-9.9c-5.7,0-9.6,4.5-9.6,9.8v0.1c0,5.3,4,9.8,9.7,9.8
		C118.3,33.5,122.2,29.1,122.2,23.7z"/>
	<path class="st0" d="M129.6,5.4h11.7c3.3,0,5.9,0.9,7.5,2.4c1.2,1.2,1.8,2.8,1.8,4.7v0.1c0,3.5-2.2,6-5.5,6.7c3.9,0.6,7,3.2,7,7.1
		v0.1c0,4.7-3.7,7.3-10.2,7.3h-12.3V5.4z M142,19.1c4.2,0,7.8-2,7.8-6.4v-0.1c0-3.9-3.1-6.4-8.4-6.4h-10.7v12.8H142z M142,33
		c5.8,0,9.3-2.4,9.3-6.5v-0.1c0-4.3-3.9-6.6-8.6-6.6h-12.1V33H142z"/>
	<path class="st0" d="M158.7,5.4h1.3v2.3h-1.3V5.4z M158.9,13.5h0.9v20.3h-0.9V13.5z"/>
	<path class="st0" d="M168.6,28.6V14.3h-3.2v-0.8h3.2v-7h0.9v7h7.5v0.8h-7.5v14.3c0,3,1.5,4.8,4.3,4.8c1,0,2.1-0.2,3.1-0.7v0.9
		c-1,0.4-2,0.6-3.1,0.6C170.5,34.2,168.6,32.2,168.6,28.6z"/>
</g>
<g>
	<path class="st0" d="M57.3,42.1h0.4v0.7c0.3-0.5,0.7-0.8,1.4-0.8c1,0,1.6,0.7,1.6,1.6v2.4h-0.4v-2.3c0-0.8-0.5-1.3-1.2-1.3
		c-0.8,0-1.4,0.6-1.4,1.4v2.3h-0.4V42.1z"/>
	<path class="st0" d="M61.7,44.1L61.7,44.1c0-1.1,0.9-2.1,2-2.1c1.2,0,2,0.9,2,2v0c0,1.1-0.9,2.1-2,2.1
		C62.6,46.2,61.7,45.2,61.7,44.1z M65.4,44.1L65.4,44.1c0-1-0.7-1.7-1.6-1.7c-0.9,0-1.6,0.8-1.6,1.7v0c0,0.9,0.7,1.7,1.6,1.7
		C64.7,45.8,65.4,45,65.4,44.1z"/>
	<path class="st0" d="M66.9,42.1h0.4v0.7c0.3-0.5,0.7-0.8,1.4-0.8c1,0,1.6,0.7,1.6,1.6v2.4h-0.4v-2.3c0-0.8-0.5-1.3-1.2-1.3
		c-0.8,0-1.4,0.6-1.4,1.4v2.3h-0.4V42.1z"/>
	<path class="st0" d="M73.7,44.1L73.7,44.1c0-1.2,0.8-2.1,1.9-2.1c1.1,0,1.8,0.9,1.8,2.1c0,0.1,0,0.1,0,0.2h-3.3
		c0.1,1,0.8,1.5,1.5,1.5c0.6,0,1-0.3,1.3-0.6l0.3,0.2c-0.4,0.4-0.9,0.7-1.6,0.7C74.6,46.2,73.7,45.3,73.7,44.1z M77,43.9
		c-0.1-0.8-0.5-1.5-1.4-1.5c-0.8,0-1.4,0.7-1.4,1.5H77z M74.6,40.7l0.5-0.2l0.7,1h-0.3L74.6,40.7z"/>
	<path class="st0" d="M80.7,44.5v-2.4h0.4v2.3c0,0.8,0.5,1.3,1.2,1.3c0.8,0,1.4-0.6,1.4-1.4v-2.3h0.4v3.9h-0.4v-0.7
		c-0.3,0.5-0.7,0.8-1.4,0.8C81.3,46.2,80.7,45.5,80.7,44.5z"/>
	<path class="st0" d="M85.5,42.1h0.4v0.7c0.3-0.5,0.7-0.8,1.4-0.8c1,0,1.6,0.7,1.6,1.6v2.4h-0.4v-2.3c0-0.8-0.5-1.3-1.2-1.3
		c-0.8,0-1.4,0.6-1.4,1.4v2.3h-0.4V42.1z"/>
	<path class="st0" d="M92.2,44.9L92.2,44.9c0-0.8,0.7-1.3,1.7-1.3c0.5,0,0.9,0.1,1.3,0.2v-0.2c0-0.8-0.5-1.2-1.3-1.2
		c-0.5,0-0.9,0.1-1.2,0.3l-0.1-0.3c0.4-0.2,0.9-0.3,1.4-0.3c0.5,0,1,0.1,1.2,0.4c0.3,0.3,0.4,0.6,0.4,1.1v2.5h-0.4v-0.7
		c-0.3,0.4-0.8,0.7-1.5,0.7C93,46.2,92.2,45.8,92.2,44.9z M95.2,44.6v-0.4c-0.3-0.1-0.8-0.2-1.3-0.2c-0.8,0-1.3,0.4-1.3,0.9v0
		c0,0.6,0.5,0.9,1.1,0.9C94.6,45.8,95.2,45.3,95.2,44.6z"/>
	<path class="st0" d="M96.7,45.9l2.8-3.4h-2.7v-0.3h3.3v0.2l-2.8,3.4h2.8v0.3h-3.4V45.9z"/>
	<path class="st0" d="M101.2,40.6h0.5v0.5h-0.5V40.6z M101.3,42.1h0.4v3.9h-0.4V42.1z"/>
	<path class="st0" d="M102.9,44.1L102.9,44.1c0-1.2,0.8-2.1,1.9-2.1c1.1,0,1.8,0.9,1.8,2.1c0,0.1,0,0.1,0,0.2h-3.3
		c0.1,1,0.8,1.5,1.5,1.5c0.6,0,1-0.3,1.3-0.6l0.3,0.2c-0.4,0.4-0.9,0.7-1.6,0.7C103.8,46.2,102.9,45.3,102.9,44.1z M106.1,43.9
		c-0.1-0.8-0.5-1.5-1.4-1.5c-0.8,0-1.4,0.7-1.4,1.5H106.1z"/>
	<path class="st0" d="M107.6,42.1h0.4v0.7c0.3-0.5,0.7-0.8,1.4-0.8c1,0,1.6,0.7,1.6,1.6v2.4h-0.4v-2.3c0-0.8-0.5-1.3-1.2-1.3
		c-0.8,0-1.4,0.6-1.4,1.4v2.3h-0.4V42.1z"/>
	<path class="st0" d="M112.1,44.1L112.1,44.1c0-1.3,1-2.1,1.9-2.1c0.8,0,1.3,0.4,1.6,0.9v-2.5h0.4v5.6h-0.4v-0.9
		c-0.3,0.5-0.8,1-1.6,1C113.1,46.2,112.1,45.4,112.1,44.1z M115.7,44.1L115.7,44.1c0-1-0.8-1.7-1.6-1.7c-0.9,0-1.5,0.6-1.5,1.7v0
		c0,1,0.7,1.7,1.5,1.7C114.9,45.8,115.7,45.1,115.7,44.1z"/>
	<path class="st0" d="M117.1,44.9L117.1,44.9c0-0.8,0.7-1.3,1.7-1.3c0.5,0,0.9,0.1,1.3,0.2v-0.2c0-0.8-0.5-1.2-1.3-1.2
		c-0.5,0-0.9,0.1-1.2,0.3l-0.1-0.3c0.4-0.2,0.9-0.3,1.4-0.3c0.5,0,1,0.1,1.2,0.4c0.3,0.3,0.4,0.6,0.4,1.1v2.5h-0.4v-0.7
		c-0.3,0.4-0.8,0.7-1.5,0.7C117.9,46.2,117.1,45.8,117.1,44.9z M120.2,44.6v-0.4c-0.3-0.1-0.8-0.2-1.3-0.2c-0.8,0-1.3,0.4-1.3,0.9v0
		c0,0.6,0.5,0.9,1.1,0.9C119.5,45.8,120.2,45.3,120.2,44.6z"/>
	<path class="st0" d="M121.8,45.4h0.5v0.7h-0.5V45.4z"/>
	<path class="st0" d="M123.6,45.4h0.5v0.7h-0.5V45.4z"/>
	<path class="st0" d="M125.3,45.4h0.5v0.7h-0.5V45.4z"/>
</g>
<g>
	<path class="st0" d="M32.9,60.9L32.9,60.9c0-4.1,2.7-7.1,6.5-7.1c4.3,0,6.2,3.8,6.2,7.1v0.1H33.5c0.1,3.9,2.8,6.4,6.2,6.4
		c2.1,0,3.9-1.2,5-2.7l0.5,0.3c-1.2,1.7-3.1,3-5.5,3C35.9,68,32.9,65.3,32.9,60.9z M45,60.6c-0.1-3.1-2.1-6.2-5.6-6.2
		c-3.4,0-5.7,2.7-5.8,6.2H45z M36.7,48.8l0.6-0.3l2.4,3.1h-0.4L36.7,48.8z"/>
	<path class="st0" d="M56.9,61.8v-7.7h0.6v7.6c0,3.4,1.8,5.7,5.2,5.7c3,0,5.4-2.6,5.4-5.8v-7.5h0.6v13.5h-0.6V64
		c-0.4,1.7-2.2,4-5.4,4C59,68,56.9,65.6,56.9,61.8z"/>
	<path class="st0" d="M73.7,54.2h0.6v3.7c0.4-1.7,2.2-4,5.4-4c3.7,0,5.7,2.5,5.7,6.2v7.7h-0.6v-7.6c0-3.4-1.8-5.7-5.2-5.7
		c-3,0-5.4,2.6-5.4,5.8v7.5h-0.6V54.2z"/>
	<path class="st0" d="M97.7,48.7h0.8v1.5h-0.8V48.7z M97.9,54.2h0.6v13.5h-0.6V54.2z"/>
	<path class="st0" d="M102.7,60.9L102.7,60.9c0-4,2.8-7.1,6.8-7.1c3.1,0,5.5,1.9,6.3,4.5V47.9h0.6v19.8h-0.6v-4.2
		c-0.8,2.6-3.1,4.5-6.3,4.5C105.6,68,102.7,64.9,102.7,60.9z M115.8,60.9L115.8,60.9c0-3.5-2.6-6.6-6.3-6.6c-3.7,0-6.2,2.9-6.2,6.5
		v0.1c0,3.6,2.5,6.6,6.2,6.6C113.2,67.5,115.8,64.5,115.8,60.9z"/>
	<path class="st0" d="M120.4,60.9L120.4,60.9c0-4.1,2.7-7.1,6.5-7.1c4.3,0,6.2,3.8,6.2,7.1v0.1H121c0.1,3.9,2.8,6.4,6.2,6.4
		c2.1,0,3.9-1.2,5-2.7l0.5,0.3c-1.2,1.7-3.1,3-5.5,3C123.5,68,120.4,65.3,120.4,60.9z M132.5,60.6c-0.1-3.1-2.1-6.2-5.6-6.2
		c-3.4,0-5.7,2.7-5.8,6.2H132.5z"/>
	<path class="st0" d="M136,64L136,64c0-2.9,2.7-4.4,6-4.4c1.9,0,3.7,0.4,5.1,0.8v-1.1c0-3.3-1.9-4.8-5.1-4.8c-1.7,0-3.1,0.5-4.5,1.1
		l-0.2-0.5c1.5-0.7,3-1.2,4.7-1.2c1.9,0,3.3,0.5,4.3,1.5c0.8,0.8,1.3,2.2,1.3,3.8v8.4h-0.6v-3.2c-0.6,1.6-2.6,3.5-6.1,3.5
		C138.4,68,136,66.6,136,64z M147.1,62.7V61c-1.4-0.5-3-0.9-5.1-0.9c-3.1,0-5.5,1.2-5.5,3.7v0.1c0,2.4,2.1,3.5,4.5,3.5
		C144.7,67.5,147.1,65.1,147.1,62.7z"/>
</g>
<g>
	<path class="st0" d="M150.4,68.3c0.3-0.2,0.5-0.3,0.4-0.6h-0.2V67h0.5v0.6c0,0.5-0.2,0.7-0.6,0.9L150.4,68.3z"/>
</g>
<g>
	<path class="st0" d="M56.5,75.8v-2.4h0.4v2.3c0,0.8,0.5,1.3,1.2,1.3c0.8,0,1.4-0.6,1.4-1.4v-2.3h0.4v3.9h-0.4v-0.7
		c-0.3,0.5-0.7,0.8-1.4,0.8C57.1,77.4,56.5,76.7,56.5,75.8z"/>
	<path class="st0" d="M61.3,73.4h0.4v0.7c0.3-0.5,0.7-0.8,1.4-0.8c1,0,1.6,0.7,1.6,1.6v2.4h-0.4V75c0-0.8-0.5-1.3-1.2-1.3
		c-0.8,0-1.4,0.6-1.4,1.4v2.3h-0.4V73.4z"/>
	<path class="st0" d="M68.3,73.4h0.4v0.7c0.3-0.4,0.6-0.8,1.3-0.8c0.7,0,1.1,0.4,1.3,0.8c0.3-0.4,0.7-0.8,1.4-0.8
		c0.9,0,1.5,0.7,1.5,1.6v2.4h-0.4V75c0-0.8-0.4-1.3-1.2-1.3c-0.7,0-1.2,0.5-1.2,1.4v2.3h-0.4v-2.4c0-0.8-0.4-1.3-1.1-1.3
		s-1.3,0.6-1.3,1.4v2.3h-0.4V73.4z"/>
	<path class="st0" d="M75.4,75.4L75.4,75.4c0-1.1,0.9-2.1,2-2.1c1.2,0,2,0.9,2,2v0c0,1.1-0.9,2.1-2,2.1
		C76.2,77.4,75.4,76.5,75.4,75.4z M79,75.4L79,75.4c0-1-0.7-1.7-1.6-1.7c-0.9,0-1.6,0.8-1.6,1.7v0c0,0.9,0.7,1.7,1.6,1.7
		C78.3,77,79,76.3,79,75.4z"/>
	<path class="st0" d="M80.3,75.4L80.3,75.4c0-1.3,1-2.1,1.9-2.1c0.8,0,1.3,0.4,1.6,0.9v-2.5h0.4v5.6h-0.4v-0.9c-0.3,0.5-0.8,1-1.6,1
		C81.3,77.4,80.3,76.6,80.3,75.4z M83.9,75.3L83.9,75.3c0-1-0.8-1.7-1.6-1.7c-0.9,0-1.5,0.6-1.5,1.7v0c0,1,0.7,1.7,1.5,1.7
		C83.1,77,83.9,76.4,83.9,75.3z"/>
	<path class="st0" d="M85.4,75.4L85.4,75.4c0-1.1,0.9-2.1,2-2.1c1.2,0,2,0.9,2,2v0c0,1.1-0.9,2.1-2,2.1
		C86.2,77.4,85.4,76.5,85.4,75.4z M89,75.4L89,75.4c0-1-0.7-1.7-1.6-1.7c-0.9,0-1.6,0.8-1.6,1.7v0c0,0.9,0.7,1.7,1.6,1.7
		C88.4,77,89,76.3,89,75.4z"/>
	<path class="st0" d="M92.7,75.4L92.7,75.4c0-1.3,1-2.1,1.9-2.1c0.8,0,1.3,0.4,1.6,0.9v-2.5h0.4v5.6h-0.4v-0.9c-0.3,0.5-0.8,1-1.6,1
		C93.6,77.4,92.7,76.6,92.7,75.4z M96.2,75.3L96.2,75.3c0-1-0.8-1.7-1.6-1.7c-0.9,0-1.5,0.6-1.5,1.7v0c0,1,0.7,1.7,1.5,1.7
		C95.4,77,96.2,76.4,96.2,75.3z"/>
	<path class="st0" d="M98,71.8h0.5v0.5H98V71.8z M98.1,73.4h0.4v3.9h-0.4V73.4z"/>
	<path class="st0" d="M102,75.3L102,75.3c0-1.2,0.8-2.1,1.9-2.1c1.1,0,1.8,0.9,1.8,2.1c0,0.1,0,0.1,0,0.2h-3.3
		c0.1,1,0.8,1.5,1.5,1.5c0.6,0,1-0.3,1.3-0.6l0.3,0.2c-0.4,0.4-0.9,0.7-1.6,0.7C102.9,77.4,102,76.6,102,75.3z M105.2,75.2
		c-0.1-0.8-0.5-1.5-1.4-1.5c-0.8,0-1.4,0.7-1.4,1.5H105.2z"/>
	<path class="st0" d="M106.4,76.8l0.2-0.3c0.4,0.3,0.9,0.5,1.4,0.5c0.5,0,0.9-0.3,0.9-0.7v0c0-0.5-0.5-0.6-1-0.8
		c-0.6-0.2-1.3-0.4-1.3-1.1v0c0-0.6,0.5-1.1,1.3-1.1c0.5,0,1,0.2,1.4,0.4l-0.2,0.3c-0.4-0.2-0.8-0.4-1.2-0.4c-0.5,0-0.9,0.3-0.9,0.7
		v0c0,0.4,0.5,0.6,1.1,0.8c0.6,0.2,1.3,0.4,1.3,1.1v0c0,0.7-0.6,1.1-1.4,1.1C107.4,77.4,106.8,77.2,106.4,76.8z"/>
	<path class="st0" d="M110.1,76.8l0.2-0.3c0.4,0.3,0.9,0.5,1.4,0.5c0.5,0,0.9-0.3,0.9-0.7v0c0-0.5-0.5-0.6-1-0.8
		c-0.6-0.2-1.3-0.4-1.3-1.1v0c0-0.6,0.5-1.1,1.3-1.1c0.5,0,1,0.2,1.4,0.4l-0.2,0.3c-0.4-0.2-0.8-0.4-1.2-0.4c-0.5,0-0.9,0.3-0.9,0.7
		v0c0,0.4,0.5,0.6,1.1,0.8c0.6,0.2,1.3,0.4,1.3,1.1v0c0,0.7-0.6,1.1-1.4,1.1C111.2,77.4,110.6,77.2,110.1,76.8z"/>
	<path class="st0" d="M114,75.3L114,75.3c0-1.2,0.8-2.1,1.9-2.1c1.1,0,1.8,0.9,1.8,2.1c0,0.1,0,0.1,0,0.2h-3.3
		c0.1,1,0.8,1.5,1.5,1.5c0.6,0,1-0.3,1.3-0.6l0.3,0.2c-0.4,0.4-0.9,0.7-1.6,0.7C114.9,77.4,114,76.6,114,75.3z M117.3,75.2
		c-0.1-0.8-0.5-1.5-1.4-1.5c-0.8,0-1.4,0.7-1.4,1.5H117.3z"/>
	<path class="st0" d="M118.8,73.4h0.4v1.1c0.3-0.7,1-1.2,1.7-1.2v0.4h0c-0.9,0-1.7,0.7-1.7,2v1.6h-0.4V73.4z"/>
	<path class="st0" d="M121.4,75.3L121.4,75.3c0-1.2,0.8-2.1,1.9-2.1c1.1,0,1.8,0.9,1.8,2.1c0,0.1,0,0.1,0,0.2h-3.3
		c0.1,1,0.8,1.5,1.5,1.5c0.6,0,1-0.3,1.3-0.6l0.3,0.2c-0.4,0.4-0.9,0.7-1.6,0.7C122.3,77.4,121.4,76.6,121.4,75.3z M124.7,75.2
		c-0.1-0.8-0.5-1.5-1.4-1.5c-0.8,0-1.4,0.7-1.4,1.5H124.7z"/>
	<path class="st0" d="M125.8,77.9c0.3-0.2,0.5-0.3,0.4-0.6h-0.2v-0.7h0.5v0.6c0,0.5-0.2,0.7-0.6,0.9L125.8,77.9z"/>
</g>
<g>
	<path class="st0" d="M41.8,85.4V83h0.4v2.3c0,0.8,0.5,1.3,1.2,1.3c0.8,0,1.4-0.6,1.4-1.4V83h0.4v3.9h-0.4v-0.7
		c-0.3,0.5-0.7,0.8-1.4,0.8C42.4,87,41.8,86.3,41.8,85.4z"/>
	<path class="st0" d="M46.6,83H47v0.7c0.3-0.5,0.7-0.8,1.4-0.8c1,0,1.6,0.7,1.6,1.6v2.4h-0.4v-2.3c0-0.8-0.5-1.3-1.2-1.3
		c-0.8,0-1.4,0.6-1.4,1.4v2.3h-0.4V83z"/>
	<path class="st0" d="M51,85.8L51,85.8c0-0.8,0.7-1.3,1.7-1.3c0.5,0,0.9,0.1,1.3,0.2v-0.2c0-0.8-0.5-1.2-1.3-1.2
		c-0.5,0-0.9,0.1-1.2,0.3l-0.1-0.3c0.4-0.2,0.9-0.3,1.4-0.3c0.5,0,1,0.1,1.2,0.4c0.3,0.3,0.4,0.6,0.4,1.1v2.5H54v-0.7
		c-0.3,0.4-0.8,0.7-1.5,0.7C51.8,87,51,86.6,51,85.8z M54.1,85.5V85c-0.3-0.1-0.8-0.2-1.3-0.2c-0.8,0-1.3,0.4-1.3,0.9v0
		c0,0.6,0.5,0.9,1.1,0.9C53.4,86.7,54.1,86.2,54.1,85.5z"/>
	<path class="st0" d="M58.1,83h0.4v0.7c0.3-0.4,0.6-0.8,1.3-0.8c0.7,0,1.1,0.4,1.3,0.8c0.3-0.4,0.7-0.8,1.4-0.8
		c0.9,0,1.5,0.7,1.5,1.6v2.4h-0.4v-2.3c0-0.8-0.4-1.3-1.2-1.3c-0.7,0-1.2,0.5-1.2,1.4v2.3h-0.4v-2.4c0-0.8-0.4-1.3-1.1-1.3
		s-1.3,0.6-1.3,1.4v2.3h-0.4V83z"/>
	<path class="st0" d="M65.1,85L65.1,85c0-1.2,0.8-2.1,1.9-2.1c1.1,0,1.8,0.9,1.8,2.1c0,0.1,0,0.1,0,0.2h-3.3c0.1,1,0.8,1.5,1.5,1.5
		c0.6,0,1-0.3,1.3-0.6l0.3,0.2c-0.4,0.4-0.9,0.7-1.6,0.7C66,87,65.1,86.2,65.1,85z M68.4,84.8c-0.1-0.8-0.5-1.5-1.4-1.5
		c-0.8,0-1.4,0.7-1.4,1.5H68.4z"/>
	<path class="st0" d="M70.1,85.9v-2.6h-0.6V83h0.6v-1.3h0.4V83h1.4v0.3h-1.4v2.5c0,0.6,0.3,0.8,0.8,0.8c0.2,0,0.4,0,0.6-0.1v0.4
		c-0.2,0.1-0.4,0.1-0.6,0.1C70.6,87,70.1,86.7,70.1,85.9z"/>
	<path class="st0" d="M72.6,85L72.6,85c0-1.1,0.9-2.1,2-2.1c1.2,0,2,0.9,2,2v0c0,1.1-0.9,2.1-2,2.1C73.5,87,72.6,86.1,72.6,85z
		 M76.3,85L76.3,85c0-1-0.7-1.7-1.6-1.7c-0.9,0-1.6,0.8-1.6,1.7v0c0,0.9,0.7,1.7,1.6,1.7C75.6,86.7,76.3,85.9,76.3,85z"/>
	<path class="st0" d="M77.6,85L77.6,85c0-1.3,1-2.1,1.9-2.1c0.8,0,1.3,0.4,1.6,0.9v-2.5h0.4v5.6h-0.4V86c-0.3,0.5-0.8,1-1.6,1
		C78.5,87,77.6,86.3,77.6,85z M81.1,85L81.1,85c0-1-0.8-1.7-1.6-1.7c-0.9,0-1.5,0.6-1.5,1.7v0c0,1,0.7,1.7,1.5,1.7
		C80.3,86.7,81.1,86,81.1,85z"/>
	<path class="st0" d="M82.6,85L82.6,85c0-1.1,0.9-2.1,2-2.1c1.2,0,2,0.9,2,2v0c0,1.1-0.9,2.1-2,2.1C83.5,87,82.6,86.1,82.6,85z
		 M86.3,85L86.3,85c0-1-0.7-1.7-1.6-1.7c-0.9,0-1.6,0.8-1.6,1.7v0c0,0.9,0.7,1.7,1.6,1.7C85.6,86.7,86.3,85.9,86.3,85z"/>
	<path class="st0" d="M87.9,81.3h0.4v5.6h-0.4V81.3z"/>
	<path class="st0" d="M89.5,85L89.5,85c0-1.1,0.9-2.1,2-2.1c1.2,0,2,0.9,2,2v0c0,1.1-0.9,2.1-2,2.1C90.3,87,89.5,86.1,89.5,85z
		 M93.1,85L93.1,85c0-1-0.7-1.7-1.6-1.7c-0.9,0-1.6,0.8-1.6,1.7v0c0,0.9,0.7,1.7,1.6,1.7C92.4,86.7,93.1,85.9,93.1,85z"/>
	<path class="st0" d="M94.6,87.6l0.2-0.3c0.5,0.4,1,0.6,1.6,0.6c0.9,0,1.5-0.5,1.5-1.5v-0.6c-0.3,0.5-0.9,0.9-1.6,0.9
		c-0.9,0-1.9-0.7-1.9-1.8v0c0-1.1,0.9-1.9,1.9-1.9c0.8,0,1.3,0.4,1.6,0.9V83h0.4v3.3c0,0.6-0.2,1-0.5,1.3c-0.3,0.3-0.8,0.5-1.4,0.5
		C95.8,88.2,95.2,88,94.6,87.6z M98,84.8L98,84.8c0-0.9-0.8-1.5-1.6-1.5c-0.8,0-1.5,0.6-1.5,1.5v0c0,0.9,0.7,1.5,1.5,1.5
		C97.2,86.3,98,85.7,98,84.8z"/>
	<path class="st0" d="M99.8,81.5h0.5V82h-0.5V81.5z M99.8,83h0.4v3.9h-0.4V83z"/>
	<path class="st0" d="M101.4,85.8L101.4,85.8c0-0.8,0.7-1.3,1.7-1.3c0.5,0,0.9,0.1,1.3,0.2v-0.2c0-0.8-0.5-1.2-1.3-1.2
		c-0.5,0-0.9,0.1-1.2,0.3l-0.1-0.3c0.4-0.2,0.9-0.3,1.4-0.3c0.5,0,1,0.1,1.2,0.4c0.3,0.3,0.4,0.6,0.4,1.1v2.5h-0.4v-0.7
		c-0.3,0.4-0.8,0.7-1.5,0.7C102.2,87,101.4,86.6,101.4,85.8z M104.4,85.5V85c-0.3-0.1-0.8-0.2-1.3-0.2c-0.8,0-1.3,0.4-1.3,0.9v0
		c0,0.6,0.5,0.9,1.1,0.9C103.7,86.7,104.4,86.2,104.4,85.5z"/>
	<path class="st0" d="M108.2,85L108.2,85c0-1.3,1-2.1,1.9-2.1c0.8,0,1.3,0.4,1.6,0.9v-2.5h0.4v5.6h-0.4V86c-0.3,0.5-0.8,1-1.6,1
		C109.1,87,108.2,86.3,108.2,85z M111.7,85L111.7,85c0-1-0.8-1.7-1.6-1.7c-0.9,0-1.5,0.6-1.5,1.7v0c0,1,0.7,1.7,1.5,1.7
		C110.9,86.7,111.7,86,111.7,85z"/>
	<path class="st0" d="M113.5,81.5h0.5V82h-0.5V81.5z M113.6,83h0.4v3.9h-0.4V83z"/>
	<path class="st0" d="M117.8,81.3h0.4v5.6h-0.4V81.3z"/>
	<path class="st0" d="M119.3,85.8L119.3,85.8c0-0.8,0.7-1.3,1.7-1.3c0.5,0,0.9,0.1,1.3,0.2v-0.2c0-0.8-0.5-1.2-1.3-1.2
		c-0.5,0-0.9,0.1-1.2,0.3l-0.1-0.3c0.4-0.2,0.9-0.3,1.4-0.3c0.5,0,1,0.1,1.2,0.4c0.3,0.3,0.4,0.6,0.4,1.1v2.5h-0.4v-0.7
		c-0.3,0.4-0.8,0.7-1.5,0.7C120.1,87,119.3,86.6,119.3,85.8z M122.4,85.5V85c-0.3-0.1-0.8-0.2-1.3-0.2c-0.8,0-1.3,0.4-1.3,0.9v0
		c0,0.6,0.5,0.9,1.1,0.9C121.7,86.7,122.4,86.2,122.4,85.5z"/>
	<path class="st0" d="M123.5,83h0.4l1.5,3.5L127,83h0.4l-1.8,4h-0.3L123.5,83z"/>
	<path class="st0" d="M127.9,85L127.9,85c0-1.1,0.9-2.1,2-2.1c1.2,0,2,0.9,2,2v0c0,1.1-0.9,2.1-2,2.1C128.8,87,127.9,86.1,127.9,85z
		 M131.6,85L131.6,85c0-1-0.7-1.7-1.6-1.7c-0.9,0-1.6,0.8-1.6,1.7v0c0,0.9,0.7,1.7,1.6,1.7C130.9,86.7,131.6,85.9,131.6,85z"/>
	<path class="st0" d="M133.1,83h0.4v1.1c0.3-0.7,1-1.2,1.7-1.2v0.4h0c-0.9,0-1.7,0.7-1.7,2v1.6h-0.4V83z"/>
	<path class="st0" d="M135.8,85L135.8,85c0-1.1,0.9-2.1,2-2.1c1.2,0,2,0.9,2,2v0c0,1.1-0.9,2.1-2,2.1C136.6,87,135.8,86.1,135.8,85z
		 M139.4,85L139.4,85c0-1-0.7-1.7-1.6-1.7c-0.9,0-1.6,0.8-1.6,1.7v0c0,0.9,0.7,1.7,1.6,1.7C138.7,86.7,139.4,85.9,139.4,85z"/>
	<path class="st0" d="M140.7,86.3h0.5v0.7h-0.5V86.3z"/>
</g>
<g>
	<path class="st0" d="M31.7,103.2h0.4v5.4h-0.4V103.2z"/>
	<path class="st0" d="M33.7,103h0.4v5.6h-0.4V103z"/>
</g>
<g>
	<path class="st0" d="M39.7,95.1h0.6v4.2c0.8-2.6,3.1-4.5,6.3-4.5c3.9,0,6.8,3.1,6.8,7.1v0.1c0,3.9-2.8,7.1-6.8,7.1
		c-3.1,0-5.5-1.9-6.3-4.5v8.5h-0.6V95.1z M52.7,101.9L52.7,101.9c0-3.7-2.5-6.6-6.2-6.6c-3.7,0-6.3,3-6.3,6.5v0.1
		c0,3.5,2.6,6.5,6.3,6.5C50.2,108.4,52.7,105.5,52.7,101.9z"/>
	<path class="st0" d="M57.4,95.1H58v4.3c0.6-2.2,2.6-4.7,5.6-4.7v0.5h-0.1c-3.4,0-5.4,3.7-5.4,6.3v7h-0.6V95.1z"/>
	<path class="st0" d="M64.9,101.9L64.9,101.9c0-3.8,2.8-7.1,7-7.1c4.2,0,7,3.2,7,7v0.1c0,3.8-2.8,7.1-7,7.1
		C67.7,108.9,64.9,105.7,64.9,101.9z M78.4,101.9L78.4,101.9c0-3.6-2.7-6.6-6.5-6.6c-3.8,0-6.4,3-6.4,6.5v0.1c0,3.5,2.7,6.5,6.5,6.5
		C75.8,108.4,78.4,105.4,78.4,101.9z"/>
	<path class="st0" d="M82.7,111l0.4-0.5c1.7,1.3,3.6,2,5.8,2c3.6,0,6-2.1,6-6v-2.8c-1,2.3-3.3,3.9-6.1,3.9c-3.7,0-6.7-2.9-6.7-6.4
		v-0.1c0-3.5,3-6.4,6.7-6.4c2.8,0,5.1,1.6,6.1,3.9v-3.6h0.6v11.5c0,2-0.6,3.6-1.7,4.7c-1.1,1.1-2.8,1.7-4.8,1.7
		C86.6,113,84.6,112.3,82.7,111z M95,101.3L95,101.3c0-3.2-2.7-6-6.1-6c-3.4,0-6.1,2.6-6.1,5.8v0.1c0,3.2,2.7,5.9,6.1,5.9
		C92.2,107.1,95,104.4,95,101.3z"/>
	<path class="st0" d="M99.6,101.9L99.6,101.9c0-4.1,2.7-7.1,6.5-7.1c4.3,0,6.2,3.8,6.2,7.1v0.1h-12.1c0.1,3.9,2.8,6.4,6.2,6.4
		c2.1,0,3.9-1.2,5-2.7l0.5,0.3c-1.2,1.7-3.1,3-5.5,3C102.6,108.9,99.6,106.2,99.6,101.9z M111.7,101.5c-0.1-3.1-2.1-6.2-5.6-6.2
		c-3.4,0-5.7,2.7-5.8,6.2H111.7z"/>
	<path class="st0" d="M117,105.2v-9.6h-2.1v-0.5h2.1v-4.7h0.6v4.7h5v0.5h-5v9.5c0,2,1,3.2,2.9,3.2c0.7,0,1.4-0.2,2.1-0.5v0.6
		c-0.6,0.3-1.4,0.4-2.1,0.4C118.2,108.9,117,107.5,117,105.2z"/>
	<path class="st0" d="M126.9,105.2v-9.6h-2.1v-0.5h2.1v-4.7h0.6v4.7h5v0.5h-5v9.5c0,2,1,3.2,2.9,3.2c0.7,0,1.4-0.2,2.1-0.5v0.6
		c-0.7,0.3-1.4,0.4-2.1,0.4C128.1,108.9,126.9,107.5,126.9,105.2z"/>
	<path class="st0" d="M134.9,101.9L134.9,101.9c0-3.8,2.8-7.1,7-7.1c4.2,0,7,3.2,7,7v0.1c0,3.8-2.8,7.1-7,7.1
		C137.7,108.9,134.9,105.7,134.9,101.9z M148.3,101.9L148.3,101.9c0-3.6-2.7-6.6-6.5-6.6c-3.8,0-6.4,3-6.4,6.5v0.1
		c0,3.5,2.7,6.5,6.5,6.5C145.7,108.4,148.3,105.4,148.3,101.9z"/>
</g>
<g>
	<path class="st0" d="M150.8,109.3c0.3-0.2,0.5-0.3,0.4-0.6h-0.2V108h0.5v0.6c0,0.5-0.2,0.7-0.6,0.9L150.8,109.3z"/>
</g>
<g>
	<path class="st0" d="M75.9,116.9h0.5v0.5h-0.5V116.9z M75.9,118.4h0.4v3.9h-0.4V118.4z"/>
	<path class="st0" d="M77.8,116.7h0.4v5.6h-0.4V116.7z"/>
	<path class="st0" d="M81.7,120.4L81.7,120.4c0-1.1,0.9-2.1,2-2.1c0.7,0,1.2,0.3,1.6,0.7l-0.3,0.3c-0.3-0.3-0.7-0.6-1.3-0.6
		c-0.9,0-1.6,0.7-1.6,1.7v0c0,0.9,0.7,1.7,1.6,1.7c0.6,0,1-0.3,1.3-0.7l0.3,0.2c-0.4,0.5-0.9,0.8-1.6,0.8
		C82.6,122.4,81.7,121.5,81.7,120.4z"/>
	<path class="st0" d="M86.5,116.7h0.4v5.6h-0.4V116.7z"/>
	<path class="st0" d="M88.3,116.9h0.5v0.5h-0.5V116.9z M88.4,118.4h0.4v3.9h-0.4V118.4z"/>
	<path class="st0" d="M90,120.4L90,120.4c0-1.2,0.8-2.1,1.9-2.1c1.1,0,1.8,0.9,1.8,2.1c0,0.1,0,0.1,0,0.2h-3.3
		c0.1,1,0.8,1.5,1.5,1.5c0.6,0,1-0.3,1.3-0.6l0.3,0.2c-0.4,0.4-0.9,0.7-1.6,0.7C90.9,122.4,90,121.6,90,120.4z M93.2,120.2
		c-0.1-0.8-0.5-1.5-1.4-1.5c-0.8,0-1.4,0.7-1.4,1.5H93.2z"/>
	<path class="st0" d="M94.7,118.4h0.4v0.7c0.3-0.5,0.7-0.8,1.4-0.8c1,0,1.6,0.7,1.6,1.6v2.4h-0.4V120c0-0.8-0.5-1.3-1.2-1.3
		c-0.8,0-1.4,0.6-1.4,1.4v2.3h-0.4V118.4z"/>
	<path class="st0" d="M99.7,121.3v-2.6h-0.6v-0.3h0.6v-1.3h0.4v1.3h1.4v0.3H100v2.5c0,0.6,0.3,0.8,0.8,0.8c0.2,0,0.4,0,0.6-0.1v0.4
		c-0.2,0.1-0.4,0.1-0.6,0.1C100.2,122.4,99.7,122.1,99.7,121.3z"/>
	<path class="st0" d="M102.2,120.4L102.2,120.4c0-1.2,0.8-2.1,1.9-2.1c1.1,0,1.8,0.9,1.8,2.1c0,0.1,0,0.1,0,0.2h-3.3
		c0.1,1,0.8,1.5,1.5,1.5c0.6,0,1-0.3,1.3-0.6l0.3,0.2c-0.4,0.4-0.9,0.7-1.6,0.7C103.1,122.4,102.2,121.6,102.2,120.4z M105.4,120.2
		c-0.1-0.8-0.5-1.5-1.4-1.5c-0.8,0-1.4,0.7-1.4,1.5H105.4z"/>
	<path class="st0" d="M106.6,123c0.3-0.2,0.5-0.3,0.4-0.6h-0.2v-0.7h0.5v0.6c0,0.5-0.2,0.7-0.6,0.9L106.6,123z"/>
</g>
<g>
	<path class="st0" d="M41.2,136.4h0.4v5.6h-0.4V136.4z"/>
	<path class="st0" d="M42.7,140.9L42.7,140.9c0-0.8,0.7-1.3,1.7-1.3c0.5,0,0.9,0.1,1.3,0.2v-0.2c0-0.8-0.5-1.2-1.3-1.2
		c-0.5,0-0.9,0.1-1.2,0.3l-0.1-0.3c0.4-0.2,0.9-0.3,1.4-0.3c0.5,0,1,0.1,1.2,0.4c0.3,0.3,0.4,0.6,0.4,1.1v2.5h-0.4v-0.7
		c-0.3,0.4-0.8,0.7-1.5,0.7C43.5,142.1,42.7,141.7,42.7,140.9z M45.7,140.6v-0.4c-0.3-0.1-0.8-0.2-1.3-0.2c-0.8,0-1.3,0.4-1.3,0.9v0
		c0,0.6,0.5,0.9,1.1,0.9C45.1,141.8,45.7,141.3,45.7,140.6z"/>
</g>
<g>
	<path class="st0" d="M52.3,138.6V129h-2.1v-0.5h2.1v-4.7h0.6v4.7h5v0.5h-5v9.5c0,2,1,3.2,2.9,3.2c0.7,0,1.4-0.2,2.1-0.5v0.6
		c-0.7,0.3-1.4,0.4-2.1,0.4C53.5,142.3,52.3,140.9,52.3,138.6z"/>
	<path class="st0" d="M60.4,135.3L60.4,135.3c0-4.1,2.7-7.1,6.5-7.1c4.3,0,6.2,3.8,6.2,7.1v0.1H61c0.1,3.9,2.8,6.4,6.2,6.4
		c2.1,0,3.9-1.2,5-2.7l0.5,0.3c-1.2,1.7-3.1,3-5.5,3C63.4,142.4,60.4,139.6,60.4,135.3z M72.5,134.9c-0.1-3.1-2.1-6.2-5.6-6.2
		c-3.4,0-5.7,2.7-5.8,6.2H72.5z"/>
	<path class="st0" d="M76.1,135.3L76.1,135.3c0-3.9,3-7.1,6.9-7.1c2.5,0,4.1,1.1,5.4,2.5l-0.4,0.4c-1.2-1.3-2.8-2.4-5-2.4
		c-3.6,0-6.3,3-6.3,6.5v0.1c0,3.5,2.8,6.6,6.3,6.6c2.3,0,3.9-1.2,5.1-2.5l0.4,0.4c-1.3,1.5-3,2.7-5.5,2.7
		C79.2,142.4,76.1,139.1,76.1,135.3z"/>
	<path class="st0" d="M92.3,128.5h0.6v3.7c0.4-1.7,2.2-4,5.4-4c3.7,0,5.7,2.5,5.7,6.2v7.7h-0.6v-7.6c0-3.4-1.8-5.7-5.2-5.7
		c-3,0-5.4,2.6-5.4,5.8v7.5h-0.6V128.5z"/>
	<path class="st0" d="M108.8,123.1h0.8v1.5h-0.8V123.1z M108.9,128.5h0.6V142h-0.6V128.5z"/>
	<path class="st0" d="M113.7,135.3L113.7,135.3c0-3.9,3-7.1,6.9-7.1c2.5,0,4.1,1.1,5.4,2.5l-0.4,0.4c-1.2-1.3-2.8-2.4-5-2.4
		c-3.6,0-6.3,3-6.3,6.5v0.1c0,3.5,2.8,6.6,6.3,6.6c2.3,0,3.9-1.2,5.1-2.5l0.4,0.4c-1.3,1.5-3,2.7-5.5,2.7
		C116.7,142.4,113.7,139.1,113.7,135.3z"/>
	<path class="st0" d="M128.7,138.3L128.7,138.3c0-2.9,2.7-4.4,6-4.4c1.9,0,3.7,0.4,5.1,0.8v-1.1c0-3.3-1.9-4.8-5.1-4.8
		c-1.7,0-3.1,0.5-4.5,1.1l-0.2-0.5c1.5-0.7,3-1.2,4.7-1.2c1.9,0,3.3,0.5,4.3,1.5c0.8,0.8,1.3,2.2,1.3,3.8v8.4h-0.6v-3.2
		c-0.6,1.6-2.6,3.5-6.1,3.5C131.1,142.4,128.7,141,128.7,138.3z M139.8,137.1v-1.7c-1.4-0.5-3-0.9-5.1-0.9c-3.1,0-5.5,1.2-5.5,3.7
		v0.1c0,2.4,2.1,3.5,4.5,3.5C137.4,141.8,139.8,139.5,139.8,137.1z"/>
</g>
<g>
	<path class="st0" d="M47.1,151.8L47.1,151.8c0-1.2,0.8-2.1,1.9-2.1c1.1,0,1.8,0.9,1.8,2.1c0,0.1,0,0.1,0,0.2h-3.3
		c0.1,1,0.8,1.5,1.5,1.5c0.6,0,1-0.3,1.3-0.6l0.3,0.2c-0.4,0.4-0.9,0.7-1.6,0.7C48,153.8,47.1,153,47.1,151.8z M50.3,151.6
		c-0.1-0.8-0.5-1.5-1.4-1.5c-0.8,0-1.4,0.7-1.4,1.5H50.3z"/>
	<path class="st0" d="M54.2,148.1h0.4v5.6h-0.4V148.1z"/>
	<path class="st0" d="M55.7,152.6L55.7,152.6c0-0.8,0.7-1.3,1.7-1.3c0.5,0,0.9,0.1,1.3,0.2v-0.2c0-0.8-0.5-1.2-1.3-1.2
		c-0.5,0-0.9,0.1-1.2,0.3l-0.1-0.3c0.4-0.2,0.9-0.3,1.4-0.3c0.5,0,1,0.1,1.2,0.4c0.3,0.3,0.4,0.6,0.4,1.1v2.5h-0.4v-0.7
		c-0.3,0.4-0.8,0.7-1.5,0.7C56.5,153.8,55.7,153.4,55.7,152.6z M58.8,152.3v-0.4c-0.3-0.1-0.8-0.2-1.3-0.2c-0.8,0-1.3,0.4-1.3,0.9v0
		c0,0.6,0.5,0.9,1.1,0.9C58.1,153.5,58.8,153,58.8,152.3z"/>
	<path class="st0" d="M66.1,152.9c-0.3,0.5-0.8,1-1.6,1c-0.9,0-1.9-0.8-1.9-2v0c0-1.3,1-2.1,1.9-2.1c0.8,0,1.3,0.4,1.6,0.9v-0.8h0.4
		v5.2h-0.4V152.9z M66.1,151.8L66.1,151.8c0-1-0.8-1.7-1.6-1.7c-0.9,0-1.5,0.6-1.5,1.7v0c0,1,0.7,1.7,1.5,1.7
		C65.3,153.5,66.1,152.8,66.1,151.8z"/>
	<path class="st0" d="M67.8,152.2v-2.4h0.4v2.3c0,0.8,0.5,1.3,1.2,1.3c0.8,0,1.4-0.6,1.4-1.4v-2.3h0.4v3.9h-0.4V153
		c-0.3,0.5-0.7,0.8-1.4,0.8C68.4,153.8,67.8,153.2,67.8,152.2z"/>
	<path class="st0" d="M72.3,152.6L72.3,152.6c0-0.8,0.7-1.3,1.7-1.3c0.5,0,0.9,0.1,1.3,0.2v-0.2c0-0.8-0.5-1.2-1.3-1.2
		c-0.5,0-0.9,0.1-1.2,0.3l-0.1-0.3c0.4-0.2,0.9-0.3,1.4-0.3c0.5,0,1,0.1,1.2,0.4c0.3,0.3,0.4,0.6,0.4,1.1v2.5h-0.4v-0.7
		c-0.3,0.4-0.8,0.7-1.5,0.7C73.1,153.8,72.3,153.4,72.3,152.6z M75.3,152.3v-0.4c-0.3-0.1-0.8-0.2-1.3-0.2c-0.8,0-1.3,0.4-1.3,0.9v0
		c0,0.6,0.5,0.9,1.1,0.9C74.6,153.5,75.3,153,75.3,152.3z"/>
	<path class="st0" d="M77.1,148.1h0.4v5.6h-0.4V148.1z"/>
	<path class="st0" d="M79,148.3h0.5v0.5H79V148.3z M79,149.8h0.4v3.9H79V149.8z"/>
	<path class="st0" d="M81.1,152.7v-2.6h-0.6v-0.3h0.6v-1.3h0.4v1.3h1.4v0.3h-1.4v2.5c0,0.6,0.3,0.8,0.8,0.8c0.2,0,0.4,0,0.6-0.1v0.4
		c-0.2,0.1-0.4,0.1-0.6,0.1C81.6,153.8,81.1,153.5,81.1,152.7z"/>
	<path class="st0" d="M83.6,152.6L83.6,152.6c0-0.8,0.7-1.3,1.7-1.3c0.5,0,0.9,0.1,1.3,0.2v-0.2c0-0.8-0.5-1.2-1.3-1.2
		c-0.5,0-0.9,0.1-1.2,0.3l-0.1-0.3c0.4-0.2,0.9-0.3,1.4-0.3c0.5,0,1,0.1,1.2,0.4c0.3,0.3,0.4,0.6,0.4,1.1v2.5h-0.4v-0.7
		c-0.3,0.4-0.8,0.7-1.5,0.7C84.4,153.8,83.6,153.4,83.6,152.6z M86.7,152.3v-0.4c-0.3-0.1-0.8-0.2-1.3-0.2c-0.8,0-1.3,0.4-1.3,0.9v0
		c0,0.6,0.5,0.9,1.1,0.9C86,153.5,86.7,153,86.7,152.3z M84.5,148.4l0.5-0.2l0.7,1h-0.3L84.5,148.4z"/>
	<path class="st0" d="M90.3,153.2l0.2-0.3c0.4,0.3,0.9,0.5,1.4,0.5c0.5,0,0.9-0.3,0.9-0.7v0c0-0.5-0.5-0.6-1-0.8
		c-0.6-0.2-1.3-0.4-1.3-1.1v0c0-0.6,0.5-1.1,1.3-1.1c0.5,0,1,0.2,1.4,0.4l-0.2,0.3c-0.4-0.2-0.8-0.4-1.2-0.4c-0.5,0-0.9,0.3-0.9,0.7
		v0c0,0.4,0.5,0.6,1.1,0.8c0.6,0.2,1.3,0.4,1.3,1.1v0c0,0.7-0.6,1.1-1.4,1.1C91.4,153.8,90.8,153.6,90.3,153.2z"/>
	<path class="st0" d="M94.2,151.8L94.2,151.8c0-1.1,0.9-2.1,2-2.1c1.2,0,2,0.9,2,2v0c0,1.1-0.9,2.1-2,2.1
		C95.1,153.8,94.2,152.9,94.2,151.8z M97.9,151.8L97.9,151.8c0-1-0.7-1.7-1.6-1.7c-0.9,0-1.6,0.8-1.6,1.7v0c0,0.9,0.7,1.7,1.6,1.7
		C97.2,153.5,97.9,152.7,97.9,151.8z"/>
	<path class="st0" d="M99.4,149.8h0.4v0.7c0.3-0.5,0.7-0.8,1.4-0.8c1,0,1.6,0.7,1.6,1.6v2.4h-0.4v-2.3c0-0.8-0.5-1.3-1.2-1.3
		c-0.8,0-1.4,0.6-1.4,1.4v2.3h-0.4V149.8z"/>
	<path class="st0" d="M103.9,151.8L103.9,151.8c0-1.1,0.9-2.1,2-2.1c1.2,0,2,0.9,2,2v0c0,1.1-0.9,2.1-2,2.1
		C104.7,153.8,103.9,152.9,103.9,151.8z M107.5,151.8L107.5,151.8c0-1-0.7-1.7-1.6-1.7c-0.9,0-1.6,0.8-1.6,1.7v0
		c0,0.9,0.7,1.7,1.6,1.7C106.9,153.5,107.5,152.7,107.5,151.8z"/>
	<path class="st0" d="M111.4,148.3h0.5v0.5h-0.5V148.3z M111.5,149.8h0.4v3.9h-0.4V149.8z"/>
	<path class="st0" d="M115.6,149.8h0.4v0.7c0.3-0.5,0.7-0.8,1.4-0.8c1,0,1.6,0.7,1.6,1.6v2.4h-0.4v-2.3c0-0.8-0.5-1.3-1.2-1.3
		c-0.8,0-1.4,0.6-1.4,1.4v2.3h-0.4V149.8z"/>
	<path class="st0" d="M120.1,151.8L120.1,151.8c0-1.1,0.9-2.1,2-2.1c1.2,0,2,0.9,2,2v0c0,1.1-0.9,2.1-2,2.1
		C120.9,153.8,120.1,152.9,120.1,151.8z M123.7,151.8L123.7,151.8c0-1-0.7-1.7-1.6-1.7c-0.9,0-1.6,0.8-1.6,1.7v0
		c0,0.9,0.7,1.7,1.6,1.7C123.1,153.5,123.7,152.7,123.7,151.8z"/>
	<path class="st0" d="M125,153.2l0.2-0.3c0.4,0.3,0.9,0.5,1.4,0.5c0.5,0,0.9-0.3,0.9-0.7v0c0-0.5-0.5-0.6-1-0.8
		c-0.6-0.2-1.3-0.4-1.3-1.1v0c0-0.6,0.5-1.1,1.3-1.1c0.5,0,1,0.2,1.4,0.4l-0.2,0.3c-0.4-0.2-0.8-0.4-1.2-0.4c-0.5,0-0.9,0.3-0.9,0.7
		v0c0,0.4,0.5,0.6,1.1,0.8c0.6,0.2,1.3,0.4,1.3,1.1v0c0,0.7-0.6,1.1-1.4,1.1C126,153.8,125.4,153.6,125,153.2z"/>
	<path class="st0" d="M129.3,152.7v-2.6h-0.6v-0.3h0.6v-1.3h0.4v1.3h1.4v0.3h-1.4v2.5c0,0.6,0.3,0.8,0.8,0.8c0.2,0,0.4,0,0.6-0.1
		v0.4c-0.2,0.1-0.4,0.1-0.6,0.1C129.8,153.8,129.3,153.5,129.3,152.7z"/>
	<path class="st0" d="M132.1,149.8h0.4v1.1c0.3-0.7,1-1.2,1.7-1.2v0.4h0c-0.9,0-1.7,0.7-1.7,2v1.6h-0.4V149.8z"/>
	<path class="st0" d="M135.2,148.3h0.5v0.5h-0.5V148.3z M135.3,149.8h0.4v3.9h-0.4V149.8z"/>
</g>
<g>
	<path class="st0" d="M55,161.4h0.4v0.9c0.3-0.5,0.8-1,1.6-1c0.9,0,1.9,0.8,1.9,2v0c0,1.3-1,2.1-1.9,2.1c-0.8,0-1.3-0.4-1.6-0.9v2.1
		H55V161.4z M58.5,163.3L58.5,163.3c0-1-0.7-1.7-1.5-1.7c-0.8,0-1.6,0.7-1.6,1.7v0c0,1,0.8,1.7,1.6,1.7
		C57.8,165,58.5,164.4,58.5,163.3z"/>
	<path class="st0" d="M60,163.8v-2.4h0.4v2.3c0,0.8,0.5,1.3,1.2,1.3c0.8,0,1.4-0.6,1.4-1.4v-2.3h0.4v3.9H63v-0.7
		c-0.3,0.5-0.7,0.8-1.4,0.8C60.6,165.4,60,164.7,60,163.8z"/>
	<path class="st0" d="M64.8,161.4h0.4v0.7c0.3-0.5,0.7-0.8,1.4-0.8c1,0,1.6,0.7,1.6,1.6v2.4h-0.4V163c0-0.8-0.5-1.3-1.2-1.3
		c-0.8,0-1.4,0.6-1.4,1.4v2.3h-0.4V161.4z"/>
	<path class="st0" d="M69.7,164.3v-2.6h-0.6v-0.3h0.6v-1.3h0.4v1.3h1.4v0.3h-1.4v2.5c0,0.6,0.3,0.8,0.8,0.8c0.2,0,0.4,0,0.6-0.1v0.4
		c-0.2,0.1-0.4,0.1-0.6,0.1C70.2,165.4,69.7,165,69.7,164.3z"/>
	<path class="st0" d="M72.6,159.8h0.5v0.5h-0.5V159.8z M72.7,161.4h0.4v3.9h-0.4V161.4z"/>
	<path class="st0" d="M76.6,163.3L76.6,163.3c0-1.3,1-2.1,1.9-2.1c0.8,0,1.3,0.4,1.6,0.9v-2.5h0.4v5.6h-0.4v-0.9
		c-0.3,0.5-0.8,1-1.6,1C77.6,165.4,76.6,164.6,76.6,163.3z M80.1,163.3L80.1,163.3c0-1-0.8-1.7-1.6-1.7c-0.9,0-1.5,0.6-1.5,1.7v0
		c0,1,0.7,1.7,1.5,1.7C79.4,165,80.1,164.3,80.1,163.3z"/>
	<path class="st0" d="M81.9,159.8h0.5v0.5h-0.5V159.8z M82,161.4h0.4v3.9H82V161.4z"/>
</g>
<g>
	<path class="st0" d="M86.2,161.4h0.4v1.1c0.3-0.7,1-1.2,1.7-1.2v0.4h0c-0.9,0-1.7,0.7-1.7,2v1.6h-0.4V161.4z"/>
	<path class="st0" d="M89.3,159.8h0.5v0.5h-0.5V159.8z M89.3,161.4h0.4v3.9h-0.4V161.4z"/>
	<path class="st0" d="M91.4,161.7h-0.6v-0.3h0.6V161c0-0.4,0.1-0.8,0.3-1c0.2-0.2,0.5-0.3,0.8-0.3c0.2,0,0.4,0,0.6,0.1v0.4
		c-0.2-0.1-0.4-0.1-0.6-0.1c-0.5,0-0.8,0.3-0.8,1v0.4h1.4v0.3h-1.4v3.6h-0.4V161.7z"/>
	<path class="st0" d="M93.6,163.3L93.6,163.3c0-1.2,0.8-2.1,1.9-2.1c1.1,0,1.8,0.9,1.8,2.1c0,0.1,0,0.1,0,0.2H94
		c0.1,1,0.8,1.5,1.5,1.5c0.6,0,1-0.3,1.3-0.6l0.3,0.2c-0.4,0.4-0.9,0.7-1.6,0.7C94.5,165.4,93.6,164.6,93.6,163.3z M96.9,163.1
		c-0.1-0.8-0.5-1.5-1.4-1.5c-0.8,0-1.4,0.7-1.4,1.5H96.9z"/>
	<path class="st0" d="M98.4,161.4h0.4v1.1c0.3-0.7,1-1.2,1.7-1.2v0.4h0c-0.9,0-1.7,0.7-1.7,2v1.6h-0.4V161.4z"/>
	<path class="st0" d="M101.5,159.8h0.5v0.5h-0.5V159.8z M101.5,161.4h0.4v3.9h-0.4V161.4z"/>
	<path class="st0" d="M103.4,161.4h0.4v0.7c0.3-0.4,0.6-0.8,1.3-0.8c0.7,0,1.1,0.4,1.3,0.8c0.3-0.4,0.7-0.8,1.4-0.8
		c0.9,0,1.5,0.7,1.5,1.6v2.4H109V163c0-0.8-0.4-1.3-1.2-1.3c-0.7,0-1.2,0.5-1.2,1.4v2.3h-0.4v-2.4c0-0.8-0.4-1.3-1.1-1.3
		s-1.3,0.6-1.3,1.4v2.3h-0.4V161.4z"/>
	<path class="st0" d="M110.5,163.3L110.5,163.3c0-1.2,0.8-2.1,1.9-2.1c1.1,0,1.8,0.9,1.8,2.1c0,0.1,0,0.1,0,0.2h-3.3
		c0.1,1,0.8,1.5,1.5,1.5c0.6,0,1-0.3,1.3-0.6l0.3,0.2c-0.4,0.4-0.9,0.7-1.6,0.7C111.3,165.4,110.5,164.6,110.5,163.3z M113.7,163.1
		c-0.1-0.8-0.5-1.5-1.4-1.5c-0.8,0-1.4,0.7-1.4,1.5H113.7z"/>
	<path class="st0" d="M115.2,161.4h0.4v0.7c0.3-0.5,0.7-0.8,1.4-0.8c1,0,1.6,0.7,1.6,1.6v2.4h-0.4V163c0-0.8-0.5-1.3-1.2-1.3
		c-0.8,0-1.4,0.6-1.4,1.4v2.3h-0.4V161.4z"/>
	<path class="st0" d="M120.2,164.3v-2.6h-0.6v-0.3h0.6v-1.3h0.4v1.3h1.4v0.3h-1.4v2.5c0,0.6,0.3,0.8,0.8,0.8c0.2,0,0.4,0,0.6-0.1
		v0.4c-0.2,0.1-0.4,0.1-0.6,0.1C120.6,165.4,120.2,165,120.2,164.3z"/>
	<path class="st0" d="M122.6,163.3L122.6,163.3c0-1.1,0.9-2.1,2-2.1c1.2,0,2,0.9,2,2v0c0,1.1-0.9,2.1-2,2.1
		C123.5,165.4,122.6,164.4,122.6,163.3z M126.3,163.3L126.3,163.3c0-1-0.7-1.7-1.6-1.7c-0.9,0-1.6,0.8-1.6,1.7v0
		c0,0.9,0.7,1.7,1.6,1.7C125.6,165,126.3,164.3,126.3,163.3z"/>
	<path class="st0" d="M127.6,164.6h0.5v0.7h-0.5V164.6z"/>
</g>
<g>
	<path class="st0" d="M41.6,170.2H42v5h3.2v0.4h-3.6V170.2z"/>
	<path class="st0" d="M45.7,171.5c0.3-0.2,0.5-0.3,0.4-0.6h-0.2v-0.7h0.5v0.6c0,0.5-0.2,0.7-0.6,0.9L45.7,171.5z"/>
	<path class="st0" d="M47.7,170.1h0.5v0.5h-0.5V170.1z M47.8,171.7h0.4v3.9h-0.4V171.7z"/>
	<path class="st0" d="M49.6,171.7H50v0.7c0.3-0.5,0.7-0.8,1.4-0.8c1,0,1.6,0.7,1.6,1.6v2.4h-0.4v-2.3c0-0.8-0.5-1.3-1.2-1.3
		c-0.8,0-1.4,0.6-1.4,1.4v2.3h-0.4V171.7z"/>
	<path class="st0" d="M54.6,172H54v-0.3h0.6v-0.4c0-0.4,0.1-0.8,0.3-1c0.2-0.2,0.5-0.3,0.8-0.3c0.2,0,0.4,0,0.6,0.1v0.4
		c-0.2-0.1-0.4-0.1-0.6-0.1c-0.5,0-0.8,0.3-0.8,1v0.4h1.4v0.3H55v3.6h-0.4V172z"/>
	<path class="st0" d="M56.8,173.7L56.8,173.7c0-1.1,0.9-2.1,2-2.1c1.2,0,2,0.9,2,2v0c0,1.1-0.9,2.1-2,2.1
		C57.7,175.7,56.8,174.8,56.8,173.7z M60.5,173.7L60.5,173.7c0-1-0.7-1.7-1.6-1.7c-0.9,0-1.6,0.8-1.6,1.7v0c0,0.9,0.7,1.7,1.6,1.7
		C59.8,175.4,60.5,174.6,60.5,173.7z"/>
	<path class="st0" d="M62,171.7h0.4v1.1c0.3-0.7,1-1.2,1.7-1.2v0.4h0c-0.9,0-1.7,0.7-1.7,2v1.6H62V171.7z"/>
	<path class="st0" d="M65.1,171.7h0.4v0.7c0.3-0.4,0.6-0.8,1.3-0.8c0.7,0,1.1,0.4,1.3,0.8c0.3-0.4,0.7-0.8,1.4-0.8
		c0.9,0,1.5,0.7,1.5,1.6v2.4h-0.4v-2.3c0-0.8-0.4-1.3-1.2-1.3c-0.7,0-1.2,0.5-1.2,1.4v2.3h-0.4v-2.4c0-0.8-0.4-1.3-1.1-1.3
		s-1.3,0.6-1.3,1.4v2.3h-0.4V171.7z"/>
	<path class="st0" d="M72.1,174.5L72.1,174.5c0-0.8,0.7-1.3,1.7-1.3c0.5,0,0.9,0.1,1.3,0.2v-0.2c0-0.8-0.5-1.2-1.3-1.2
		c-0.5,0-0.9,0.1-1.2,0.3l-0.1-0.3c0.4-0.2,0.9-0.3,1.4-0.3c0.5,0,1,0.1,1.2,0.4c0.3,0.3,0.4,0.6,0.4,1.1v2.5h-0.4V175
		c-0.3,0.4-0.8,0.7-1.5,0.7C72.9,175.7,72.1,175.3,72.1,174.5z M75.1,174.1v-0.4c-0.3-0.1-0.8-0.2-1.3-0.2c-0.8,0-1.3,0.4-1.3,0.9v0
		c0,0.6,0.5,0.9,1.1,0.9C74.5,175.4,75.1,174.9,75.1,174.1z"/>
	<path class="st0" d="M77,174.6V172h-0.6v-0.3H77v-1.3h0.4v1.3h1.4v0.3h-1.4v2.5c0,0.6,0.3,0.8,0.8,0.8c0.2,0,0.4,0,0.6-0.1v0.4
		c-0.2,0.1-0.4,0.1-0.6,0.1C77.5,175.7,77,175.4,77,174.6z"/>
	<path class="st0" d="M79.9,170.1h0.5v0.5h-0.5V170.1z M80,171.7h0.4v3.9H80V171.7z"/>
	<path class="st0" d="M81.6,173.7L81.6,173.7c0-1.1,0.9-2.1,2-2.1c0.7,0,1.2,0.3,1.6,0.7l-0.3,0.3c-0.3-0.3-0.7-0.6-1.3-0.6
		c-0.9,0-1.6,0.7-1.6,1.7v0c0,0.9,0.7,1.7,1.6,1.7c0.6,0,1-0.3,1.3-0.7l0.3,0.2c-0.4,0.5-0.9,0.8-1.6,0.8
		C82.4,175.7,81.6,174.8,81.6,173.7z"/>
	<path class="st0" d="M85.9,174.5L85.9,174.5c0-0.8,0.7-1.3,1.7-1.3c0.5,0,0.9,0.1,1.3,0.2v-0.2c0-0.8-0.5-1.2-1.3-1.2
		c-0.5,0-0.9,0.1-1.2,0.3l-0.1-0.3c0.4-0.2,0.9-0.3,1.4-0.3c0.5,0,1,0.1,1.2,0.4c0.3,0.3,0.4,0.6,0.4,1.1v2.5h-0.4V175
		c-0.3,0.4-0.8,0.7-1.5,0.7C86.7,175.7,85.9,175.3,85.9,174.5z M88.9,174.1v-0.4c-0.3-0.1-0.8-0.2-1.3-0.2c-0.8,0-1.3,0.4-1.3,0.9v0
		c0,0.6,0.5,0.9,1.1,0.9C88.2,175.4,88.9,174.9,88.9,174.1z"/>
	<path class="st0" d="M93,171.7h0.4v0.7c0.3-0.5,0.7-0.8,1.4-0.8c1,0,1.6,0.7,1.6,1.6v2.4H96v-2.3c0-0.8-0.5-1.3-1.2-1.3
		c-0.8,0-1.4,0.6-1.4,1.4v2.3H93V171.7z"/>
	<path class="st0" d="M97.4,173.7L97.4,173.7c0-1.1,0.9-2.1,2-2.1c1.2,0,2,0.9,2,2v0c0,1.1-0.9,2.1-2,2.1
		C98.3,175.7,97.4,174.8,97.4,173.7z M101,173.7L101,173.7c0-1-0.7-1.7-1.6-1.7c-0.9,0-1.6,0.8-1.6,1.7v0c0,0.9,0.7,1.7,1.6,1.7
		C100.4,175.4,101,174.6,101,173.7z"/>
	<path class="st0" d="M102.6,171.7h0.4v0.7c0.3-0.5,0.7-0.8,1.4-0.8c1,0,1.6,0.7,1.6,1.6v2.4h-0.4v-2.3c0-0.8-0.5-1.3-1.2-1.3
		c-0.8,0-1.4,0.6-1.4,1.4v2.3h-0.4V171.7z"/>
	<path class="st0" d="M109.4,173.7L109.4,173.7c0-1.2,0.8-2.1,1.9-2.1c1.1,0,1.8,0.9,1.8,2.1c0,0.1,0,0.1,0,0.2h-3.3
		c0.1,1,0.8,1.5,1.5,1.5c0.6,0,1-0.3,1.3-0.6l0.3,0.2c-0.4,0.4-0.9,0.7-1.6,0.7C110.3,175.7,109.4,174.9,109.4,173.7z M112.6,173.5
		c-0.1-0.8-0.5-1.5-1.4-1.5c-0.8,0-1.4,0.7-1.4,1.5H112.6z M110.3,170.2l0.5-0.2l0.7,1h-0.3L110.3,170.2z"/>
	<path class="st0" d="M116.5,171.7h0.4v0.7c0.3-0.5,0.7-0.8,1.4-0.8c1,0,1.6,0.7,1.6,1.6v2.4h-0.4v-2.3c0-0.8-0.5-1.3-1.2-1.3
		c-0.8,0-1.4,0.6-1.4,1.4v2.3h-0.4V171.7z"/>
	<path class="st0" d="M120.9,173.7L120.9,173.7c0-1.1,0.9-2.1,2-2.1c1.2,0,2,0.9,2,2v0c0,1.1-0.9,2.1-2,2.1
		C121.8,175.7,120.9,174.8,120.9,173.7z M124.6,173.7L124.6,173.7c0-1-0.7-1.7-1.6-1.7c-0.9,0-1.6,0.8-1.6,1.7v0
		c0,0.9,0.7,1.7,1.6,1.7C123.9,175.4,124.6,174.6,124.6,173.7z"/>
	<path class="st0" d="M126.1,170.1h0.5v0.5h-0.5V170.1z M126.2,171.7h0.4v3.9h-0.4V171.7z"/>
	<path class="st0" d="M127.8,173.7L127.8,173.7c0-1.1,0.9-2.1,2-2.1c1.2,0,2,0.9,2,2v0c0,1.1-0.9,2.1-2,2.1
		C128.6,175.7,127.8,174.8,127.8,173.7z M131.4,173.7L131.4,173.7c0-1-0.7-1.7-1.6-1.7c-0.9,0-1.6,0.8-1.6,1.7v0
		c0,0.9,0.7,1.7,1.6,1.7C130.7,175.4,131.4,174.6,131.4,173.7z"/>
	<path class="st0" d="M132.6,175.1l0.2-0.3c0.4,0.3,0.9,0.5,1.4,0.5c0.5,0,0.9-0.3,0.9-0.7v0c0-0.5-0.5-0.6-1-0.8
		c-0.6-0.2-1.3-0.4-1.3-1.1v0c0-0.6,0.5-1.1,1.3-1.1c0.5,0,1,0.2,1.4,0.4l-0.2,0.3c-0.4-0.2-0.8-0.4-1.2-0.4c-0.5,0-0.9,0.3-0.9,0.7
		v0c0,0.4,0.5,0.6,1.1,0.8c0.6,0.2,1.3,0.4,1.3,1.1v0c0,0.7-0.6,1.1-1.4,1.1C133.7,175.7,133.1,175.5,132.6,175.1z"/>
	<path class="st0" d="M136.5,174.5L136.5,174.5c0-0.8,0.7-1.3,1.7-1.3c0.5,0,0.9,0.1,1.3,0.2v-0.2c0-0.8-0.5-1.2-1.3-1.2
		c-0.5,0-0.9,0.1-1.2,0.3l-0.1-0.3c0.4-0.2,0.9-0.3,1.4-0.3c0.5,0,1,0.1,1.2,0.4c0.3,0.3,0.4,0.6,0.4,1.1v2.5h-0.4V175
		c-0.3,0.4-0.8,0.7-1.5,0.7C137.3,175.7,136.5,175.3,136.5,174.5z M139.5,174.1v-0.4c-0.3-0.1-0.8-0.2-1.3-0.2
		c-0.8,0-1.3,0.4-1.3,0.9v0c0,0.6,0.5,0.9,1.1,0.9C138.8,175.4,139.5,174.9,139.5,174.1z"/>
	<path class="st0" d="M140.9,176.2c0.3-0.2,0.5-0.3,0.4-0.6h-0.2V175h0.5v0.6c0,0.5-0.2,0.7-0.6,0.9L140.9,176.2z"/>
</g>
<g>
	<path class="st0" d="M23.3,192h0.4v0.9c0.3-0.5,0.8-1,1.6-1c0.9,0,1.9,0.8,1.9,2v0c0,1.3-1,2.1-1.9,2.1c-0.8,0-1.3-0.4-1.6-0.9v2.1
		h-0.4V192z M26.8,194L26.8,194c0-1-0.7-1.7-1.5-1.7c-0.8,0-1.6,0.7-1.6,1.7v0c0,1,0.8,1.7,1.6,1.7C26.1,195.7,26.8,195,26.8,194z"
		/>
	<path class="st0" d="M28.1,194L28.1,194c0-1.2,0.8-2.1,1.9-2.1c1.1,0,1.8,0.9,1.8,2.1c0,0.1,0,0.1,0,0.2h-3.3
		c0.1,1,0.8,1.5,1.5,1.5c0.6,0,1-0.3,1.3-0.6l0.3,0.2c-0.4,0.4-0.9,0.7-1.6,0.7C29,196,28.1,195.2,28.1,194z M31.4,193.8
		c-0.1-0.8-0.5-1.5-1.4-1.5c-0.8,0-1.4,0.7-1.4,1.5H31.4z"/>
	<path class="st0" d="M32.9,192h0.4v1.1c0.3-0.7,1-1.2,1.7-1.2v0.4h0c-0.9,0-1.7,0.7-1.7,2v1.6h-0.4V192z"/>
	<path class="st0" d="M38.3,192h0.4v0.7c0.3-0.5,0.7-0.8,1.4-0.8c1,0,1.6,0.7,1.6,1.6v2.4h-0.4v-2.3c0-0.8-0.5-1.3-1.2-1.3
		c-0.8,0-1.4,0.6-1.4,1.4v2.3h-0.4V192z"/>
	<path class="st0" d="M42.8,194L42.8,194c0-1.1,0.9-2.1,2-2.1c1.2,0,2,0.9,2,2v0c0,1.1-0.9,2.1-2,2.1C43.6,196,42.8,195.1,42.8,194z
		 M46.4,194L46.4,194c0-1-0.7-1.7-1.6-1.7c-0.9,0-1.6,0.8-1.6,1.7v0c0,0.9,0.7,1.7,1.6,1.7C45.7,195.7,46.4,194.9,46.4,194z"/>
	<path class="st0" d="M48,190.5h0.5v0.5H48V190.5z M48,192h0.4v3.9H48V192z"/>
	<path class="st0" d="M51.9,194L51.9,194c0-1.2,0.8-2.1,1.9-2.1c1.1,0,1.8,0.9,1.8,2.1c0,0.1,0,0.1,0,0.2h-3.3
		c0.1,1,0.8,1.5,1.5,1.5c0.6,0,1-0.3,1.3-0.6l0.3,0.2c-0.4,0.4-0.9,0.7-1.6,0.7C52.8,196,51.9,195.2,51.9,194z M55.2,193.8
		c-0.1-0.8-0.5-1.5-1.4-1.5c-0.8,0-1.4,0.7-1.4,1.5H55.2z M52.8,190.6l0.5-0.2l0.7,1h-0.3L52.8,190.6z"/>
</g>
<g>
	<path class="st0" d="M59.8,189.2L59.8,189.2c0-3.9,3-7.1,6.9-7.1c2.5,0,4.1,1.1,5.4,2.5l-0.4,0.4c-1.2-1.3-2.8-2.4-5-2.4
		c-3.6,0-6.3,3-6.3,6.5v0.1c0,3.5,2.8,6.6,6.3,6.6c2.3,0,3.9-1.2,5.1-2.5l0.4,0.4c-1.3,1.5-3,2.7-5.5,2.7
		C62.9,196.3,59.8,193,59.8,189.2z"/>
	<path class="st0" d="M76,182.4h0.6v4.3c0.6-2.2,2.6-4.7,5.6-4.7v0.5H82c-3.4,0-5.4,3.7-5.4,6.3v7H76V182.4z"/>
	<path class="st0" d="M83.5,189.2L83.5,189.2c0-4.1,2.7-7.1,6.5-7.1c4.3,0,6.2,3.8,6.2,7.1v0.1H84.1c0.1,3.9,2.8,6.4,6.2,6.4
		c2.1,0,3.9-1.2,5-2.7l0.5,0.3c-1.2,1.7-3.1,3-5.5,3C86.5,196.3,83.5,193.5,83.5,189.2z M95.6,188.8c-0.1-3.1-2.1-6.2-5.6-6.2
		c-3.4,0-5.7,2.7-5.8,6.2H95.6z"/>
	<path class="st0" d="M99,192.2L99,192.2c0-2.9,2.7-4.4,6-4.4c1.9,0,3.7,0.4,5.1,0.8v-1.1c0-3.3-1.9-4.8-5.1-4.8
		c-1.7,0-3.1,0.5-4.5,1.1l-0.2-0.5c1.5-0.7,3-1.2,4.7-1.2c1.9,0,3.3,0.5,4.3,1.5c0.8,0.8,1.3,2.2,1.3,3.8v8.4h-0.6v-3.2
		c-0.6,1.6-2.6,3.5-6.1,3.5C101.5,196.3,99,194.9,99,192.2z M110.2,191v-1.7c-1.4-0.5-3-0.9-5.1-0.9c-3.1,0-5.5,1.2-5.5,3.7v0.1
		c0,2.4,2.1,3.5,4.5,3.5C107.8,195.7,110.2,193.4,110.2,191z"/>
	<path class="st0" d="M116.1,192.5v-9.6H114v-0.5h2.1v-4.7h0.6v4.7h5v0.5h-5v9.5c0,2,1,3.2,2.9,3.2c0.7,0,1.4-0.2,2.1-0.5v0.6
		c-0.6,0.3-1.4,0.4-2.1,0.4C117.3,196.2,116.1,194.8,116.1,192.5z"/>
	<path class="st0" d="M125.5,177h0.8v1.5h-0.8V177z M125.6,182.4h0.6v13.5h-0.6V182.4z"/>
	<path class="st0" d="M130,182.4h0.6l5.9,12.9l5.8-12.9h0.6l-6.2,13.6h-0.4L130,182.4z"/>
	<path class="st0" d="M144.7,192.2L144.7,192.2c0-2.9,2.7-4.4,6-4.4c1.9,0,3.7,0.4,5.1,0.8v-1.1c0-3.3-1.9-4.8-5.1-4.8
		c-1.7,0-3.1,0.5-4.5,1.1l-0.2-0.5c1.5-0.7,3-1.2,4.7-1.2c1.9,0,3.3,0.5,4.3,1.5c0.8,0.8,1.3,2.2,1.3,3.8v8.4h-0.6v-3.2
		c-0.6,1.6-2.6,3.5-6.1,3.5C147.2,196.3,144.7,194.9,144.7,192.2z M155.9,191v-1.7c-1.4-0.5-3-0.9-5.1-0.9c-3.1,0-5.5,1.2-5.5,3.7
		v0.1c0,2.4,2.1,3.5,4.5,3.5C153.5,195.7,155.9,193.4,155.9,191z"/>
</g>
<g>
	<path class="st0" d="M159.1,196.6c0.3-0.2,0.5-0.3,0.4-0.6h-0.2v-0.7h0.5v0.6c0,0.5-0.2,0.7-0.6,0.9L159.1,196.6z"/>
</g>
<g>
	<path class="st0" d="M38.8,205.7L38.8,205.7c0-0.8,0.7-1.3,1.7-1.3c0.5,0,0.9,0.1,1.3,0.2v-0.2c0-0.8-0.5-1.2-1.3-1.2
		c-0.5,0-0.9,0.1-1.2,0.3l-0.1-0.3c0.4-0.2,0.9-0.3,1.4-0.3c0.5,0,1,0.1,1.2,0.4c0.3,0.3,0.4,0.6,0.4,1.1v2.5h-0.4v-0.7
		c-0.3,0.4-0.8,0.7-1.5,0.7C39.6,206.9,38.8,206.5,38.8,205.7z M41.8,205.4v-0.4c-0.3-0.1-0.8-0.2-1.3-0.2c-0.8,0-1.3,0.4-1.3,0.9v0
		c0,0.6,0.5,0.9,1.1,0.9C41.2,206.6,41.8,206.1,41.8,205.4z"/>
	<path class="st0" d="M43.6,202.9h0.4v0.9c0.3-0.5,0.8-1,1.6-1c0.9,0,1.9,0.8,1.9,2v0c0,1.3-1,2.1-1.9,2.1c-0.8,0-1.3-0.4-1.6-0.9
		v2.1h-0.4V202.9z M47.1,204.9L47.1,204.9c0-1-0.7-1.7-1.5-1.7c-0.8,0-1.6,0.7-1.6,1.7v0c0,1,0.8,1.7,1.6,1.7
		C46.4,206.6,47.1,206,47.1,204.9z"/>
	<path class="st0" d="M48.6,202.9H49v0.9c0.3-0.5,0.8-1,1.6-1c0.9,0,1.9,0.8,1.9,2v0c0,1.3-1,2.1-1.9,2.1c-0.8,0-1.3-0.4-1.6-0.9
		v2.1h-0.4V202.9z M52.1,204.9L52.1,204.9c0-1-0.7-1.7-1.5-1.7c-0.8,0-1.6,0.7-1.6,1.7v0c0,1,0.8,1.7,1.6,1.7
		C51.5,206.6,52.1,206,52.1,204.9z"/>
	<path class="st0" d="M53.4,205.7L53.4,205.7c0-0.8,0.7-1.3,1.7-1.3c0.5,0,0.9,0.1,1.3,0.2v-0.2c0-0.8-0.5-1.2-1.3-1.2
		c-0.5,0-0.9,0.1-1.2,0.3l-0.1-0.3c0.4-0.2,0.9-0.3,1.4-0.3c0.5,0,1,0.1,1.2,0.4c0.3,0.3,0.4,0.6,0.4,1.1v2.5h-0.4v-0.7
		c-0.3,0.4-0.8,0.7-1.5,0.7C54.2,206.9,53.4,206.5,53.4,205.7z M56.4,205.4v-0.4c-0.3-0.1-0.8-0.2-1.3-0.2c-0.8,0-1.3,0.4-1.3,0.9v0
		c0,0.6,0.5,0.9,1.1,0.9C55.8,206.6,56.4,206.1,56.4,205.4z"/>
	<path class="st0" d="M57.8,206.4l0.2-0.3c0.4,0.3,0.9,0.5,1.4,0.5c0.5,0,0.9-0.3,0.9-0.7v0c0-0.5-0.5-0.6-1-0.8
		c-0.6-0.2-1.3-0.4-1.3-1.1v0c0-0.6,0.5-1.1,1.3-1.1c0.5,0,1,0.2,1.4,0.4l-0.2,0.3c-0.4-0.2-0.8-0.4-1.2-0.4c-0.5,0-0.9,0.3-0.9,0.7
		v0c0,0.4,0.5,0.6,1.1,0.8c0.6,0.2,1.3,0.4,1.3,1.1v0c0,0.7-0.6,1.1-1.4,1.1C58.9,206.9,58.2,206.7,57.8,206.4z"/>
	<path class="st0" d="M61.6,206.4l0.2-0.3c0.4,0.3,0.9,0.5,1.4,0.5c0.5,0,0.9-0.3,0.9-0.7v0c0-0.5-0.5-0.6-1-0.8
		c-0.6-0.2-1.3-0.4-1.3-1.1v0c0-0.6,0.5-1.1,1.3-1.1c0.5,0,1,0.2,1.4,0.4l-0.2,0.3c-0.4-0.2-0.8-0.4-1.2-0.4c-0.5,0-0.9,0.3-0.9,0.7
		v0c0,0.4,0.5,0.6,1.1,0.8c0.6,0.2,1.3,0.4,1.3,1.1v0c0,0.7-0.6,1.1-1.4,1.1C62.6,206.9,62,206.7,61.6,206.4z"/>
	<path class="st0" d="M65.7,201.4h0.5v0.5h-0.5V201.4z M65.8,202.9h0.4v3.9h-0.4V202.9z"/>
	<path class="st0" d="M67.4,204.9L67.4,204.9c0-1.1,0.9-2.1,2-2.1c1.2,0,2,0.9,2,2v0c0,1.1-0.9,2.1-2,2.1
		C68.2,206.9,67.4,206,67.4,204.9z M71,204.9L71,204.9c0-1-0.7-1.7-1.6-1.7c-0.9,0-1.6,0.8-1.6,1.7v0c0,0.9,0.7,1.7,1.6,1.7
		C70.3,206.6,71,205.8,71,204.9z"/>
	<path class="st0" d="M72.6,202.9H73v0.7c0.3-0.5,0.7-0.8,1.4-0.8c1,0,1.6,0.7,1.6,1.6v2.4h-0.4v-2.3c0-0.8-0.5-1.3-1.2-1.3
		c-0.8,0-1.4,0.6-1.4,1.4v2.3h-0.4V202.9z"/>
	<path class="st0" d="M77,205.7L77,205.7c0-0.8,0.7-1.3,1.7-1.3c0.5,0,0.9,0.1,1.3,0.2v-0.2c0-0.8-0.5-1.2-1.3-1.2
		c-0.5,0-0.9,0.1-1.2,0.3l-0.1-0.3c0.4-0.2,0.9-0.3,1.4-0.3c0.5,0,1,0.1,1.2,0.4c0.3,0.3,0.4,0.6,0.4,1.1v2.5H80v-0.7
		c-0.3,0.4-0.8,0.7-1.5,0.7C77.8,206.9,77,206.5,77,205.7z M80,205.4v-0.4c-0.3-0.1-0.8-0.2-1.3-0.2c-0.8,0-1.3,0.4-1.3,0.9v0
		c0,0.6,0.5,0.9,1.1,0.9C79.3,206.6,80,206.1,80,205.4z"/>
	<path class="st0" d="M81.7,202.9h0.4v0.7c0.3-0.5,0.7-0.8,1.4-0.8c1,0,1.6,0.7,1.6,1.6v2.4h-0.4v-2.3c0-0.8-0.5-1.3-1.2-1.3
		c-0.8,0-1.4,0.6-1.4,1.4v2.3h-0.4V202.9z"/>
	<path class="st0" d="M86.7,205.8v-2.6h-0.6v-0.3h0.6v-1.3H87v1.3h1.4v0.3H87v2.5c0,0.6,0.3,0.8,0.8,0.8c0.2,0,0.4,0,0.6-0.1v0.4
		c-0.2,0.1-0.4,0.1-0.6,0.1C87.2,206.9,86.7,206.6,86.7,205.8z"/>
	<path class="st0" d="M89.2,204.9L89.2,204.9c0-1.2,0.8-2.1,1.9-2.1c1.1,0,1.8,0.9,1.8,2.1c0,0.1,0,0.1,0,0.2h-3.3
		c0.1,1,0.8,1.5,1.5,1.5c0.6,0,1-0.3,1.3-0.6l0.3,0.2c-0.4,0.4-0.9,0.7-1.6,0.7C90.1,206.9,89.2,206.1,89.2,204.9z M92.4,204.7
		c-0.1-0.8-0.5-1.5-1.4-1.5c-0.8,0-1.4,0.7-1.4,1.5H92.4z"/>
	<path class="st0" d="M93.6,207.5c0.3-0.2,0.5-0.3,0.4-0.6h-0.2v-0.7h0.5v0.6c0,0.5-0.2,0.7-0.6,0.9L93.6,207.5z"/>
	<path class="st0" d="M98,201.4h0.5v0.5H98V201.4z M98,202.9h0.4v3.9H98V202.9z"/>
	<path class="st0" d="M99.9,202.9h0.4v0.7c0.3-0.5,0.7-0.8,1.4-0.8c1,0,1.6,0.7,1.6,1.6v2.4h-0.4v-2.3c0-0.8-0.5-1.3-1.2-1.3
		c-0.8,0-1.4,0.6-1.4,1.4v2.3h-0.4V202.9z"/>
	<path class="st0" d="M104.8,205.8v-2.6h-0.6v-0.3h0.6v-1.3h0.4v1.3h1.4v0.3h-1.4v2.5c0,0.6,0.3,0.8,0.8,0.8c0.2,0,0.4,0,0.6-0.1
		v0.4c-0.2,0.1-0.4,0.1-0.6,0.1C105.3,206.9,104.8,206.6,104.8,205.8z"/>
	<path class="st0" d="M107.3,204.9L107.3,204.9c0-1.2,0.8-2.1,1.9-2.1c1.1,0,1.8,0.9,1.8,2.1c0,0.1,0,0.1,0,0.2h-3.3
		c0.1,1,0.8,1.5,1.5,1.5c0.6,0,1-0.3,1.3-0.6l0.3,0.2c-0.4,0.4-0.9,0.7-1.6,0.7C108.2,206.9,107.3,206.1,107.3,204.9z M110.6,204.7
		c-0.1-0.8-0.5-1.5-1.4-1.5c-0.8,0-1.4,0.7-1.4,1.5H110.6z"/>
	<path class="st0" d="M112.1,202.9h0.4v1.1c0.3-0.7,1-1.2,1.7-1.2v0.4h0c-0.9,0-1.7,0.7-1.7,2v1.6h-0.4V202.9z"/>
	<path class="st0" d="M114.7,204.9L114.7,204.9c0-1.2,0.8-2.1,1.9-2.1c1.1,0,1.8,0.9,1.8,2.1c0,0.1,0,0.1,0,0.2h-3.3
		c0.1,1,0.8,1.5,1.5,1.5c0.6,0,1-0.3,1.3-0.6l0.3,0.2c-0.4,0.4-0.9,0.7-1.6,0.7C115.6,206.9,114.7,206.1,114.7,204.9z M117.9,204.7
		c-0.1-0.8-0.5-1.5-1.4-1.5c-0.8,0-1.4,0.7-1.4,1.5H117.9z"/>
	<path class="st0" d="M119.1,206.4l0.2-0.3c0.4,0.3,0.9,0.5,1.4,0.5c0.5,0,0.9-0.3,0.9-0.7v0c0-0.5-0.5-0.6-1-0.8
		c-0.6-0.2-1.3-0.4-1.3-1.1v0c0-0.6,0.5-1.1,1.3-1.1c0.5,0,1,0.2,1.4,0.4l-0.2,0.3c-0.4-0.2-0.8-0.4-1.2-0.4c-0.5,0-0.9,0.3-0.9,0.7
		v0c0,0.4,0.5,0.6,1.1,0.8c0.6,0.2,1.3,0.4,1.3,1.1v0c0,0.7-0.6,1.1-1.4,1.1C120.2,206.9,119.5,206.7,119.1,206.4z"/>
	<path class="st0" d="M122.9,206.4l0.2-0.3c0.4,0.3,0.9,0.5,1.4,0.5c0.5,0,0.9-0.3,0.9-0.7v0c0-0.5-0.5-0.6-1-0.8
		c-0.6-0.2-1.3-0.4-1.3-1.1v0c0-0.6,0.5-1.1,1.3-1.1c0.5,0,1,0.2,1.4,0.4l-0.2,0.3c-0.4-0.2-0.8-0.4-1.2-0.4c-0.5,0-0.9,0.3-0.9,0.7
		v0c0,0.4,0.5,0.6,1.1,0.8c0.6,0.2,1.3,0.4,1.3,1.1v0c0,0.7-0.6,1.1-1.4,1.1C123.9,206.9,123.3,206.7,122.9,206.4z"/>
	<path class="st0" d="M126.7,205.7L126.7,205.7c0-0.8,0.7-1.3,1.7-1.3c0.5,0,0.9,0.1,1.3,0.2v-0.2c0-0.8-0.5-1.2-1.3-1.2
		c-0.5,0-0.9,0.1-1.2,0.3l-0.1-0.3c0.4-0.2,0.9-0.3,1.4-0.3c0.5,0,1,0.1,1.2,0.4c0.3,0.3,0.4,0.6,0.4,1.1v2.5h-0.4v-0.7
		c-0.3,0.4-0.8,0.7-1.5,0.7C127.5,206.9,126.7,206.5,126.7,205.7z M129.7,205.4v-0.4c-0.3-0.1-0.8-0.2-1.3-0.2
		c-0.8,0-1.3,0.4-1.3,0.9v0c0,0.6,0.5,0.9,1.1,0.9C129.1,206.6,129.7,206.1,129.7,205.4z"/>
	<path class="st0" d="M131.5,202.9h0.4v0.7c0.3-0.5,0.7-0.8,1.4-0.8c1,0,1.6,0.7,1.6,1.6v2.4h-0.4v-2.3c0-0.8-0.5-1.3-1.2-1.3
		c-0.8,0-1.4,0.6-1.4,1.4v2.3h-0.4V202.9z"/>
	<path class="st0" d="M136.4,205.8v-2.6h-0.6v-0.3h0.6v-1.3h0.4v1.3h1.4v0.3h-1.4v2.5c0,0.6,0.3,0.8,0.8,0.8c0.2,0,0.4,0,0.6-0.1
		v0.4c-0.2,0.1-0.4,0.1-0.6,0.1C136.9,206.9,136.4,206.6,136.4,205.8z"/>
	<path class="st0" d="M138.9,204.9L138.9,204.9c0-1.2,0.8-2.1,1.9-2.1c1.1,0,1.8,0.9,1.8,2.1c0,0.1,0,0.1,0,0.2h-3.3
		c0.1,1,0.8,1.5,1.5,1.5c0.6,0,1-0.3,1.3-0.6l0.3,0.2c-0.4,0.4-0.9,0.7-1.6,0.7C139.8,206.9,138.9,206.1,138.9,204.9z M142.1,204.7
		c-0.1-0.8-0.5-1.5-1.4-1.5c-0.8,0-1.4,0.7-1.4,1.5H142.1z"/>
	<path class="st0" d="M143.3,207.5c0.3-0.2,0.5-0.3,0.4-0.6h-0.2v-0.7h0.5v0.6c0,0.5-0.2,0.7-0.6,0.9L143.3,207.5z"/>
</g>
<g>
	<path class="st0" d="M33.9,215.8L33.9,215.8c0-1.2,0.8-2.1,1.9-2.1c1.1,0,1.8,0.9,1.8,2.1c0,0.1,0,0.1,0,0.2h-3.3
		c0.1,1,0.8,1.5,1.5,1.5c0.6,0,1-0.3,1.3-0.6l0.3,0.2c-0.4,0.4-0.9,0.7-1.6,0.7C34.8,217.8,33.9,217,33.9,215.8z M37.1,215.6
		c-0.1-0.8-0.5-1.5-1.4-1.5c-0.8,0-1.4,0.7-1.4,1.5H37.1z M34.7,212.4l0.5-0.2l0.7,1h-0.3L34.7,212.4z"/>
	<path class="st0" d="M40.6,217.3l0.2-0.3c0.4,0.3,0.9,0.5,1.4,0.5c0.5,0,0.9-0.3,0.9-0.7v0c0-0.5-0.5-0.6-1-0.8
		c-0.6-0.2-1.3-0.4-1.3-1.1v0c0-0.6,0.5-1.1,1.3-1.1c0.5,0,1,0.2,1.4,0.4l-0.2,0.3c-0.4-0.2-0.8-0.4-1.2-0.4c-0.5,0-0.9,0.3-0.9,0.7
		v0c0,0.4,0.5,0.6,1.1,0.8c0.6,0.2,1.3,0.4,1.3,1.1v0c0,0.7-0.6,1.1-1.4,1.1C41.6,217.8,41,217.6,40.6,217.3z"/>
	<path class="st0" d="M44.5,215.8L44.5,215.8c0-1.1,0.9-2.1,2-2.1c0.7,0,1.2,0.3,1.6,0.7l-0.3,0.3c-0.3-0.3-0.7-0.6-1.3-0.6
		c-0.9,0-1.6,0.7-1.6,1.7v0c0,0.9,0.7,1.7,1.6,1.7c0.6,0,1-0.3,1.3-0.7l0.3,0.2c-0.4,0.5-0.9,0.8-1.6,0.8
		C45.4,217.8,44.5,216.9,44.5,215.8z"/>
	<path class="st0" d="M48.8,215.8L48.8,215.8c0-1.1,0.9-2.1,2-2.1c1.2,0,2,0.9,2,2v0c0,1.1-0.9,2.1-2,2.1
		C49.6,217.8,48.8,216.9,48.8,215.8z M52.4,215.8L52.4,215.8c0-1-0.7-1.7-1.6-1.7c-0.9,0-1.6,0.8-1.6,1.7v0c0,0.9,0.7,1.7,1.6,1.7
		C51.7,217.5,52.4,216.7,52.4,215.8z"/>
	<path class="st0" d="M54,213.8h0.4v0.9c0.3-0.5,0.8-1,1.6-1c0.9,0,1.9,0.8,1.9,2v0c0,1.3-1,2.1-1.9,2.1c-0.8,0-1.3-0.4-1.6-0.9v2.1
		H54V213.8z M57.5,215.8L57.5,215.8c0-1-0.7-1.7-1.5-1.7c-0.8,0-1.6,0.7-1.6,1.7v0c0,1,0.8,1.7,1.6,1.7
		C56.8,217.5,57.5,216.9,57.5,215.8z"/>
	<path class="st0" d="M58.8,215.8L58.8,215.8c0-1.2,0.8-2.1,1.9-2.1c1.1,0,1.8,0.9,1.8,2.1c0,0.1,0,0.1,0,0.2h-3.3
		c0.1,1,0.8,1.5,1.5,1.5c0.6,0,1-0.3,1.3-0.6l0.3,0.2c-0.4,0.4-0.9,0.7-1.6,0.7C59.7,217.8,58.8,217,58.8,215.8z M62.1,215.6
		c-0.1-0.8-0.5-1.5-1.4-1.5c-0.8,0-1.4,0.7-1.4,1.5H62.1z"/>
	<path class="st0" d="M63.6,213.8H64v1.1c0.3-0.7,1-1.2,1.7-1.2v0.4h0c-0.9,0-1.7,0.7-1.7,2v1.6h-0.4V213.8z"/>
	<path class="st0" d="M66.9,216.7v-2.6h-0.6v-0.3h0.6v-1.3h0.4v1.3h1.4v0.3h-1.4v2.5c0,0.6,0.3,0.8,0.8,0.8c0.2,0,0.4,0,0.6-0.1v0.4
		c-0.2,0.1-0.4,0.1-0.6,0.1C67.4,217.8,66.9,217.5,66.9,216.7z"/>
	<path class="st0" d="M69.4,216.6L69.4,216.6c0-0.8,0.7-1.3,1.7-1.3c0.5,0,0.9,0.1,1.3,0.2v-0.2c0-0.8-0.5-1.2-1.3-1.2
		c-0.5,0-0.9,0.1-1.2,0.3l-0.1-0.3c0.4-0.2,0.9-0.3,1.4-0.3c0.5,0,1,0.1,1.2,0.4c0.3,0.3,0.4,0.6,0.4,1.1v2.5h-0.4v-0.7
		c-0.3,0.4-0.8,0.7-1.5,0.7C70.2,217.8,69.4,217.4,69.4,216.6z M72.4,216.3v-0.4c-0.3-0.1-0.8-0.2-1.3-0.2c-0.8,0-1.3,0.4-1.3,0.9v0
		c0,0.6,0.5,0.9,1.1,0.9C71.8,217.5,72.4,217,72.4,216.3z"/>
	<path class="st0" d="M73.9,218.4c0.3-0.2,0.5-0.3,0.4-0.6h-0.2v-0.7h0.5v0.6c0,0.5-0.2,0.7-0.6,0.9L73.9,218.4z"/>
	<path class="st0" d="M77.9,217.3l0.2-0.3c0.4,0.3,0.9,0.5,1.4,0.5c0.5,0,0.9-0.3,0.9-0.7v0c0-0.5-0.5-0.6-1-0.8
		c-0.6-0.2-1.3-0.4-1.3-1.1v0c0-0.6,0.5-1.1,1.3-1.1c0.5,0,1,0.2,1.4,0.4l-0.2,0.3c-0.4-0.2-0.8-0.4-1.2-0.4c-0.5,0-0.9,0.3-0.9,0.7
		v0c0,0.4,0.5,0.6,1.1,0.8c0.6,0.2,1.3,0.4,1.3,1.1v0c0,0.7-0.6,1.1-1.4,1.1C78.9,217.8,78.3,217.6,77.9,217.3z"/>
	<path class="st0" d="M82.2,216.7v-2.6h-0.6v-0.3h0.6v-1.3h0.4v1.3H84v0.3h-1.4v2.5c0,0.6,0.3,0.8,0.8,0.8c0.2,0,0.4,0,0.6-0.1v0.4
		c-0.2,0.1-0.4,0.1-0.6,0.1C82.7,217.8,82.2,217.5,82.2,216.7z"/>
	<path class="st0" d="M85,216.2v-2.4h0.4v2.3c0,0.8,0.5,1.3,1.2,1.3c0.8,0,1.4-0.6,1.4-1.4v-2.3h0.4v3.9H88V217
		c-0.3,0.5-0.7,0.8-1.4,0.8C85.6,217.8,85,217.2,85,216.2z"/>
	<path class="st0" d="M89.8,213.8h0.4v0.9c0.3-0.5,0.8-1,1.6-1c0.9,0,1.9,0.8,1.9,2v0c0,1.3-1,2.1-1.9,2.1c-0.8,0-1.3-0.4-1.6-0.9
		v2.1h-0.4V213.8z M93.3,215.8L93.3,215.8c0-1-0.7-1.7-1.5-1.7c-0.8,0-1.6,0.7-1.6,1.7v0c0,1,0.8,1.7,1.6,1.7
		C92.6,217.5,93.3,216.9,93.3,215.8z"/>
	<path class="st0" d="M94.6,215.8L94.6,215.8c0-1.1,0.9-2.1,2-2.1c1.2,0,2,0.9,2,2v0c0,1.1-0.9,2.1-2,2.1
		C95.5,217.8,94.6,216.9,94.6,215.8z M98.3,215.8L98.3,215.8c0-1-0.7-1.7-1.6-1.7c-0.9,0-1.6,0.8-1.6,1.7v0c0,0.9,0.7,1.7,1.6,1.7
		C97.6,217.5,98.3,216.7,98.3,215.8z"/>
	<path class="st0" d="M99.8,213.8h0.4v1.1c0.3-0.7,1-1.2,1.7-1.2v0.4h0c-0.9,0-1.7,0.7-1.7,2v1.6h-0.4V213.8z"/>
	<path class="st0" d="M102.5,215.8L102.5,215.8c0-1.2,0.8-2.1,1.9-2.1c1.1,0,1.8,0.9,1.8,2.1c0,0.1,0,0.1,0,0.2h-3.3
		c0.1,1,0.8,1.5,1.5,1.5c0.6,0,1-0.3,1.3-0.6l0.3,0.2c-0.4,0.4-0.9,0.7-1.6,0.7C103.3,217.8,102.5,217,102.5,215.8z M105.7,215.6
		c-0.1-0.8-0.5-1.5-1.4-1.5c-0.8,0-1.4,0.7-1.4,1.5H105.7z"/>
	<path class="st0" d="M106.8,218.4c0.3-0.2,0.5-0.3,0.4-0.6h-0.2v-0.7h0.5v0.6c0,0.5-0.2,0.7-0.6,0.9L106.8,218.4z"/>
	<path class="st0" d="M111,215.8L111,215.8c0-1.1,0.9-2.1,2-2.1c0.7,0,1.2,0.3,1.6,0.7l-0.3,0.3c-0.3-0.3-0.7-0.6-1.3-0.6
		c-0.9,0-1.6,0.7-1.6,1.7v0c0,0.9,0.7,1.7,1.6,1.7c0.6,0,1-0.3,1.3-0.7l0.3,0.2c-0.4,0.5-0.9,0.8-1.6,0.8
		C111.8,217.8,111,216.9,111,215.8z"/>
	<path class="st0" d="M115.6,216.2v-2.4h0.4v2.3c0,0.8,0.5,1.3,1.2,1.3c0.8,0,1.4-0.6,1.4-1.4v-2.3h0.4v3.9h-0.4V217
		c-0.3,0.5-0.7,0.8-1.4,0.8C116.1,217.8,115.6,217.2,115.6,216.2z"/>
	<path class="st0" d="M120.4,213.8h0.4v1.1c0.3-0.7,1-1.2,1.7-1.2v0.4h0c-0.9,0-1.7,0.7-1.7,2v1.6h-0.4V213.8z"/>
	<path class="st0" d="M123.4,212.3h0.5v0.5h-0.5V212.3z M123.5,213.8h0.4v3.9h-0.4V213.8z"/>
	<path class="st0" d="M125.1,215.8L125.1,215.8c0-1.1,0.9-2.1,2-2.1c1.2,0,2,0.9,2,2v0c0,1.1-0.9,2.1-2,2.1
		C125.9,217.8,125.1,216.9,125.1,215.8z M128.7,215.8L128.7,215.8c0-1-0.7-1.7-1.6-1.7c-0.9,0-1.6,0.8-1.6,1.7v0
		c0,0.9,0.7,1.7,1.6,1.7C128,217.5,128.7,216.7,128.7,215.8z"/>
	<path class="st0" d="M129.9,217.3l0.2-0.3c0.4,0.3,0.9,0.5,1.4,0.5c0.5,0,0.9-0.3,0.9-0.7v0c0-0.5-0.5-0.6-1-0.8
		c-0.6-0.2-1.3-0.4-1.3-1.1v0c0-0.6,0.5-1.1,1.3-1.1c0.5,0,1,0.2,1.4,0.4l-0.2,0.3c-0.4-0.2-0.8-0.4-1.2-0.4c-0.5,0-0.9,0.3-0.9,0.7
		v0c0,0.4,0.5,0.6,1.1,0.8c0.6,0.2,1.3,0.4,1.3,1.1v0c0,0.7-0.6,1.1-1.4,1.1C131,217.8,130.4,217.6,129.9,217.3z"/>
	<path class="st0" d="M134.1,212.3h0.5v0.5h-0.5V212.3z M134.2,213.8h0.4v3.9h-0.4V213.8z"/>
	<path class="st0" d="M136.2,216.7v-2.6h-0.6v-0.3h0.6v-1.3h0.4v1.3h1.4v0.3h-1.4v2.5c0,0.6,0.3,0.8,0.8,0.8c0.2,0,0.4,0,0.6-0.1
		v0.4c-0.2,0.1-0.4,0.1-0.6,0.1C136.7,217.8,136.2,217.5,136.2,216.7z"/>
	<path class="st0" d="M138.8,216.6L138.8,216.6c0-0.8,0.7-1.3,1.7-1.3c0.5,0,0.9,0.1,1.3,0.2v-0.2c0-0.8-0.5-1.2-1.3-1.2
		c-0.5,0-0.9,0.1-1.2,0.3l-0.1-0.3c0.4-0.2,0.9-0.3,1.4-0.3c0.5,0,1,0.1,1.2,0.4c0.3,0.3,0.4,0.6,0.4,1.1v2.5h-0.4v-0.7
		c-0.3,0.4-0.8,0.7-1.5,0.7C139.6,217.8,138.8,217.4,138.8,216.6z M141.8,216.3v-0.4c-0.3-0.1-0.8-0.2-1.3-0.2
		c-0.8,0-1.3,0.4-1.3,0.9v0c0,0.6,0.5,0.9,1.1,0.9C141.1,217.5,141.8,217,141.8,216.3z M139.6,212.4l0.5-0.2l0.7,1h-0.3L139.6,212.4
		z"/>
	<path class="st0" d="M145.6,215.8L145.6,215.8c0-1.2,0.8-2.1,1.9-2.1c1.1,0,1.8,0.9,1.8,2.1c0,0.1,0,0.1,0,0.2H146
		c0.1,1,0.8,1.5,1.5,1.5c0.6,0,1-0.3,1.3-0.6l0.3,0.2c-0.4,0.4-0.9,0.7-1.6,0.7C146.5,217.8,145.6,217,145.6,215.8z M148.8,215.6
		c-0.1-0.8-0.5-1.5-1.4-1.5c-0.8,0-1.4,0.7-1.4,1.5H148.8z"/>
</g>
<g>
	<path class="st0" d="M3.2,239.7l0.4-0.5c1.5,1.2,3.4,1.9,5.1,1.9c2.4,0,4.3-1.2,4.3-3v-0.1c0-2.1-2.2-2.7-4.4-3.3
		c-2.8-0.8-4.7-1.5-4.7-3.6v-0.1c0-1.9,1.9-3.4,4.7-3.4c1.5,0,3.3,0.5,4.7,1.5l-0.3,0.5c-1.3-0.9-3-1.5-4.4-1.5
		c-2.5,0-4.1,1.3-4.1,2.9v0.1c0,1.8,1.9,2.5,4.3,3.1c2.7,0.7,4.9,1.5,4.9,3.8v0.1c0,2.1-2.1,3.6-4.9,3.6
		C6.7,241.7,4.7,241,3.2,239.7z"/>
	<path class="st0" d="M16.8,234.8L16.8,234.8c0-3.8,2.8-7.1,7-7.1c4.2,0,7,3.2,7,7v0.1c0,3.8-2.8,7.1-7,7.1
		C19.6,241.8,16.8,238.6,16.8,234.8z M30.3,234.8L30.3,234.8c0-3.6-2.7-6.6-6.5-6.6c-3.8,0-6.4,3-6.4,6.5v0.1c0,3.5,2.7,6.5,6.5,6.5
		C27.7,241.3,30.3,238.3,30.3,234.8z"/>
	<path class="st0" d="M34,234.8L34,234.8c0-4,2.8-7.1,6.8-7.1c3.1,0,5.5,1.9,6.3,4.5v-10.4h0.6v19.8H47v-4.2
		c-0.8,2.6-3.1,4.5-6.3,4.5C36.9,241.8,34,238.7,34,234.8z M47.1,234.8L47.1,234.8c0-3.5-2.6-6.6-6.3-6.6c-3.7,0-6.2,2.9-6.2,6.5
		v0.1c0,3.6,2.5,6.6,6.2,6.6C44.5,241.3,47.1,238.3,47.1,234.8z"/>
	<path class="st0" d="M51.8,234.8L51.8,234.8c0-4,2.8-7.1,6.8-7.1c3.1,0,5.5,1.9,6.3,4.5v-10.4h0.6v19.8h-0.6v-4.2
		c-0.8,2.6-3.1,4.5-6.3,4.5C54.6,241.8,51.8,238.7,51.8,234.8z M64.8,234.8L64.8,234.8c0-3.5-2.6-6.6-6.3-6.6
		c-3.7,0-6.2,2.9-6.2,6.5v0.1c0,3.6,2.5,6.6,6.2,6.6C62.2,241.3,64.8,238.3,64.8,234.8z"/>
	<path class="st0" d="M70.4,222.5h0.8v1.5h-0.8V222.5z M70.5,228h0.6v13.5h-0.6V228z"/>
	<path class="st0" d="M75,239.7l0.4-0.5c1.5,1.2,3.4,1.9,5.1,1.9c2.4,0,4.3-1.2,4.3-3v-0.1c0-2.1-2.2-2.7-4.4-3.3
		c-2.8-0.8-4.7-1.5-4.7-3.6v-0.1c0-1.9,1.9-3.4,4.7-3.4c1.5,0,3.3,0.5,4.7,1.5l-0.3,0.5c-1.3-0.9-3-1.5-4.4-1.5
		c-2.5,0-4.1,1.3-4.1,2.9v0.1c0,1.8,1.9,2.5,4.3,3.1c2.7,0.7,4.9,1.5,4.9,3.8v0.1c0,2.1-2.1,3.6-4.9,3.6
		C78.6,241.7,76.5,241,75,239.7z"/>
	<path class="st0" d="M90.5,228.5h-2.1V228h2.1V226c0-1.5,0.4-2.7,1.1-3.4c0.6-0.6,1.5-0.9,2.6-0.9c0.8,0,1.4,0.1,1.9,0.4v0.6
		c-0.5-0.2-1.2-0.4-1.9-0.4c-1.9,0-3.1,1.2-3.1,3.9v1.8h5v0.5h-5v13h-0.6V228.5z"/>
	<path class="st0" d="M96.9,237.8L96.9,237.8c0-2.9,2.7-4.4,6-4.4c1.9,0,3.7,0.4,5.1,0.8v-1.1c0-3.3-1.9-4.8-5.1-4.8
		c-1.7,0-3.1,0.5-4.5,1.1l-0.2-0.5c1.5-0.7,3-1.2,4.7-1.2c1.9,0,3.3,0.5,4.3,1.5c0.8,0.8,1.3,2.2,1.3,3.8v8.4H108v-3.2
		c-0.6,1.6-2.6,3.5-6.1,3.5C99.3,241.8,96.9,240.4,96.9,237.8z M108,236.5v-1.7c-1.4-0.5-3-0.9-5.1-0.9c-3.1,0-5.5,1.2-5.5,3.7v0.1
		c0,2.4,2.1,3.5,4.5,3.5C105.6,241.3,108,238.9,108,236.5z"/>
	<path class="st0" d="M111.8,241.2l10.3-12.7h-10V228h10.8v0.3L112.6,241H123v0.5h-11.2V241.2z"/>
	<path class="st0" d="M126.5,222.5h0.8v1.5h-0.8V222.5z M126.7,228h0.6v13.5h-0.6V228z"/>
	<path class="st0" d="M131.5,234.8L131.5,234.8c0-3.8,2.8-7.1,7-7.1c4.2,0,7,3.2,7,7v0.1c0,3.8-2.8,7.1-7,7.1
		C134.3,241.8,131.5,238.6,131.5,234.8z M144.9,234.8L144.9,234.8c0-3.6-2.7-6.6-6.5-6.6c-3.8,0-6.4,3-6.4,6.5v0.1
		c0,3.5,2.7,6.5,6.5,6.5C142.3,241.3,144.9,238.3,144.9,234.8z"/>
	<path class="st0" d="M149.6,228h0.6v3.7c0.4-1.7,2.2-4,5.4-4c3.7,0,5.7,2.5,5.7,6.2v7.7h-0.6v-7.6c0-3.4-1.8-5.7-5.2-5.7
		c-3,0-5.4,2.6-5.4,5.8v7.5h-0.6V228z"/>
	<path class="st0" d="M165.1,234.7L165.1,234.7c0-4.1,2.7-7.1,6.5-7.1c4.3,0,6.2,3.8,6.2,7.1v0.1h-12.1c0.1,3.9,2.8,6.4,6.2,6.4
		c2.1,0,3.9-1.2,5-2.7l0.5,0.3c-1.2,1.7-3.1,3-5.5,3C168.2,241.8,165.1,239.1,165.1,234.7z M177.2,234.4c-0.1-3.1-2.1-6.2-5.6-6.2
		c-3.4,0-5.7,2.7-5.8,6.2H177.2z"/>
</g>
<g>
	<path class="st0" d="M179.9,240.8h0.5v0.7h-0.5V240.8z"/>
</g>
</svg>
