<?xml version="1.0" encoding="utf-8"?>
<!-- Generator: Adobe Illustrator 24.0.0, SVG Export Plug-In . SVG Version: 6.00 Build 0)  -->
<svg version="1.1" id="Livello_1" xmlns="http://www.w3.org/2000/svg" xmlns:xlink="http://www.w3.org/1999/xlink" x="0px" y="0px"
	 viewBox="0 0 177.3 249.4" style="enable-background:new 0 0 177.3 249.4;" xml:space="preserve">
<style type="text/css">
	.st0{fill:#283583;}
</style>
<g>
	<path class="st0" d="M6.4,7.3h0.9v27.6h17.5v0.8H6.4V7.3z"/>
	<path class="st0" d="M29.7,7.3H31v2.3h-1.3V7.3z M29.9,15.4h0.9v20.3h-0.9V15.4z"/>
	<path class="st0" d="M39.4,29.4v6.3h-0.9V6.1h0.9v15.6c1.2-3.9,4.7-6.8,9.4-6.8c5.9,0,10.2,4.7,10.2,10.6v0.1
		c0,5.9-4.3,10.6-10.2,10.6C44.1,36.2,40.6,33.3,39.4,29.4z M58.1,25.7L58.1,25.7c0-5.5-3.7-9.9-9.3-9.9c-5.5,0-9.4,4.5-9.4,9.8v0.1
		c0,5.2,3.9,9.8,9.4,9.8C54.3,35.4,58.1,31.1,58.1,25.7z"/>
	<path class="st0" d="M63.8,25.6L63.8,25.6c0-6.1,4.1-10.6,9.7-10.6c6.4,0,9.3,5.6,9.3,10.7v0.2H64.7c0.2,5.8,4.3,9.6,9.3,9.6
		c3.1,0,5.9-1.8,7.5-4.1l0.7,0.5c-1.7,2.5-4.7,4.4-8.2,4.4C68.4,36.2,63.8,32.1,63.8,25.6z M81.9,25c-0.2-4.6-3.1-9.3-8.4-9.3
		c-5,0-8.6,4-8.8,9.3H81.9z"/>
	<path class="st0" d="M88.9,15.4h0.9v6.5c0.9-3.4,3.9-7,8.4-7v0.8h-0.2c-5.1,0-8.2,5.6-8.2,9.5v10.5h-0.9V15.4z"/>
	<path class="st0" d="M100,25.7L100,25.7c0-5.8,4.2-10.7,10.6-10.7c6.3,0,10.6,4.9,10.6,10.6v0.1c0,5.7-4.2,10.6-10.6,10.6
		C104.2,36.2,100,31.3,100,25.7z M120.2,25.6L120.2,25.6c0-5.4-4-9.9-9.7-9.9c-5.7,0-9.6,4.5-9.6,9.8v0.1c0,5.3,4,9.8,9.7,9.8
		C116.3,35.4,120.2,30.9,120.2,25.6z"/>
	<path class="st0" d="M127.7,7.3h11.7c3.3,0,5.9,0.9,7.5,2.4c1.2,1.2,1.8,2.8,1.8,4.7v0.1c0,3.5-2.2,6-5.5,6.7c3.9,0.6,7,3.2,7,7.1
		v0.1c0,4.7-3.7,7.3-10.2,7.3h-12.3V7.3z M140,20.9c4.2,0,7.8-2,7.8-6.4v-0.1c0-3.9-3.1-6.4-8.4-6.4h-10.7v12.8H140z M140,34.9
		c5.8,0,9.3-2.4,9.3-6.5v-0.1c0-4.3-3.9-6.6-8.6-6.6h-12.1v13.2H140z"/>
	<path class="st0" d="M156.7,7.3h1.3v2.3h-1.3V7.3z M156.9,15.4h0.9v20.3h-0.9V15.4z"/>
	<path class="st0" d="M166.7,30.5V16.2h-3.2v-0.8h3.2v-7h0.9v7h7.5v0.8h-7.5v14.3c0,3,1.5,4.8,4.3,4.8c1,0,2.1-0.2,3.1-0.7v0.9
		c-1,0.4-2,0.6-3.1,0.6C168.5,36.1,166.7,34.1,166.7,30.5z"/>
</g>
<g>
	<path class="st0" d="M55.3,44h0.4v0.7c0.3-0.5,0.7-0.8,1.4-0.8c1,0,1.6,0.7,1.6,1.6V48h-0.4v-2.3c0-0.8-0.5-1.3-1.2-1.3
		c-0.8,0-1.4,0.6-1.4,1.4V48h-0.4V44z"/>
	<path class="st0" d="M59.8,46L59.8,46c0-1.1,0.9-2.1,2-2.1c1.2,0,2,0.9,2,2v0c0,1.1-0.9,2.1-2,2.1C60.6,48.1,59.8,47.1,59.8,46z
		 M63.4,46L63.4,46c0-1-0.7-1.7-1.6-1.7c-0.9,0-1.6,0.8-1.6,1.7v0c0,0.9,0.7,1.7,1.6,1.7C62.7,47.7,63.4,46.9,63.4,46z"/>
	<path class="st0" d="M65,44h0.4v0.7c0.3-0.5,0.7-0.8,1.4-0.8c1,0,1.6,0.7,1.6,1.6V48h-0.4v-2.3c0-0.8-0.5-1.3-1.2-1.3
		c-0.8,0-1.4,0.6-1.4,1.4V48H65V44z"/>
	<path class="st0" d="M71.7,46L71.7,46c0-1.2,0.8-2.1,1.9-2.1c1.1,0,1.8,0.9,1.8,2.1c0,0.1,0,0.1,0,0.2h-3.3c0.1,1,0.8,1.5,1.5,1.5
		c0.6,0,1-0.3,1.3-0.6l0.3,0.2c-0.4,0.4-0.9,0.7-1.6,0.7C72.6,48.1,71.7,47.2,71.7,46z M75,45.8c-0.1-0.8-0.5-1.5-1.4-1.5
		c-0.8,0-1.4,0.7-1.4,1.5H75z M72.6,42.6l0.5-0.2l0.7,1h-0.3L72.6,42.6z"/>
	<path class="st0" d="M78.7,46.4V44h0.4v2.3c0,0.8,0.5,1.3,1.2,1.3c0.8,0,1.4-0.6,1.4-1.4V44h0.4V48h-0.4v-0.7
		c-0.3,0.5-0.7,0.8-1.4,0.8C79.3,48.1,78.7,47.4,78.7,46.4z"/>
	<path class="st0" d="M83.5,44h0.4v0.7c0.3-0.5,0.7-0.8,1.4-0.8c1,0,1.6,0.7,1.6,1.6V48h-0.4v-2.3c0-0.8-0.5-1.3-1.2-1.3
		c-0.8,0-1.4,0.6-1.4,1.4V48h-0.4V44z"/>
	<path class="st0" d="M90.2,46.8L90.2,46.8c0-0.8,0.7-1.3,1.7-1.3c0.5,0,0.9,0.1,1.3,0.2v-0.2c0-0.8-0.5-1.2-1.3-1.2
		c-0.5,0-0.9,0.1-1.2,0.3l-0.1-0.3C91,44.1,91.5,44,92,44c0.5,0,1,0.1,1.2,0.4c0.3,0.3,0.4,0.6,0.4,1.1V48h-0.4v-0.7
		c-0.3,0.4-0.8,0.7-1.5,0.7C91,48.1,90.2,47.6,90.2,46.8z M93.3,46.5V46c-0.3-0.1-0.8-0.2-1.3-0.2c-0.8,0-1.3,0.4-1.3,0.9v0
		c0,0.6,0.5,0.9,1.1,0.9C92.6,47.7,93.3,47.2,93.3,46.5z"/>
	<path class="st0" d="M94.7,47.7l2.8-3.4h-2.7V44h3.3v0.2l-2.8,3.4h2.8V48h-3.4V47.7z"/>
	<path class="st0" d="M99.3,42.5h0.5V43h-0.5V42.5z M99.3,44h0.4V48h-0.4V44z"/>
	<path class="st0" d="M100.9,46L100.9,46c0-1.2,0.8-2.1,1.9-2.1c1.1,0,1.8,0.9,1.8,2.1c0,0.1,0,0.1,0,0.2h-3.3
		c0.1,1,0.8,1.5,1.5,1.5c0.6,0,1-0.3,1.3-0.6l0.3,0.2c-0.4,0.4-0.9,0.7-1.6,0.7C101.8,48.1,100.9,47.2,100.9,46z M104.2,45.8
		c-0.1-0.8-0.5-1.5-1.4-1.5c-0.8,0-1.4,0.7-1.4,1.5H104.2z"/>
	<path class="st0" d="M105.7,44h0.4v0.7c0.3-0.5,0.7-0.8,1.4-0.8c1,0,1.6,0.7,1.6,1.6V48h-0.4v-2.3c0-0.8-0.5-1.3-1.2-1.3
		c-0.8,0-1.4,0.6-1.4,1.4V48h-0.4V44z"/>
	<path class="st0" d="M110.1,46L110.1,46c0-1.3,1-2.1,1.9-2.1c0.8,0,1.3,0.4,1.6,0.9v-2.5h0.4V48h-0.4v-0.9c-0.3,0.5-0.8,1-1.6,1
		C111.1,48.1,110.1,47.3,110.1,46z M113.7,46L113.7,46c0-1-0.8-1.7-1.6-1.7c-0.9,0-1.5,0.6-1.5,1.7v0c0,1,0.7,1.7,1.5,1.7
		C112.9,47.7,113.7,47,113.7,46z"/>
	<path class="st0" d="M115.2,46.8L115.2,46.8c0-0.8,0.7-1.3,1.7-1.3c0.5,0,0.9,0.1,1.3,0.2v-0.2c0-0.8-0.5-1.2-1.3-1.2
		c-0.5,0-0.9,0.1-1.2,0.3l-0.1-0.3c0.4-0.2,0.9-0.3,1.4-0.3c0.5,0,1,0.1,1.2,0.4c0.3,0.3,0.4,0.6,0.4,1.1V48h-0.4v-0.7
		c-0.3,0.4-0.8,0.7-1.5,0.7C116,48.1,115.2,47.6,115.2,46.8z M118.2,46.5V46c-0.3-0.1-0.8-0.2-1.3-0.2c-0.8,0-1.3,0.4-1.3,0.9v0
		c0,0.6,0.5,0.9,1.1,0.9C117.5,47.7,118.2,47.2,118.2,46.5z"/>
	<path class="st0" d="M119.8,47.3h0.5V48h-0.5V47.3z"/>
	<path class="st0" d="M121.6,47.3h0.5V48h-0.5V47.3z"/>
	<path class="st0" d="M123.4,47.3h0.5V48h-0.5V47.3z"/>
</g>
<g>
	<path class="st0" d="M30.9,62.8L30.9,62.8c0-4.1,2.7-7.1,6.5-7.1c4.3,0,6.2,3.8,6.2,7.1V63H31.5c0.1,3.9,2.8,6.4,6.2,6.4
		c2.1,0,3.9-1.2,5-2.7l0.5,0.3c-1.2,1.7-3.1,3-5.5,3C34,69.9,30.9,67.2,30.9,62.8z M43,62.5c-0.1-3.1-2.1-6.2-5.6-6.2
		c-3.4,0-5.7,2.7-5.8,6.2H43z M34.7,50.7l0.6-0.3l2.4,3.1h-0.4L34.7,50.7z"/>
	<path class="st0" d="M55,63.7V56h0.6v7.6c0,3.4,1.8,5.7,5.2,5.7c3,0,5.4-2.6,5.4-5.8V56h0.6v13.5h-0.6v-3.7c-0.4,1.7-2.2,4-5.4,4
		C57,69.9,55,67.4,55,63.7z"/>
	<path class="st0" d="M71.7,56h0.6v3.7c0.4-1.7,2.2-4,5.4-4c3.7,0,5.7,2.5,5.7,6.2v7.7h-0.6V62c0-3.4-1.8-5.7-5.2-5.7
		c-3,0-5.4,2.6-5.4,5.8v7.5h-0.6V56z"/>
	<path class="st0" d="M95.8,50.6h0.8v1.5h-0.8V50.6z M95.9,56h0.6v13.5h-0.6V56z"/>
	<path class="st0" d="M100.8,62.8L100.8,62.8c0-4,2.8-7.1,6.8-7.1c3.1,0,5.5,1.9,6.3,4.5V49.8h0.6v19.8h-0.6v-4.2
		c-0.8,2.6-3.1,4.5-6.3,4.5C103.6,69.9,100.8,66.8,100.8,62.8z M113.8,62.8L113.8,62.8c0-3.5-2.6-6.6-6.3-6.6
		c-3.7,0-6.2,2.9-6.2,6.5v0.1c0,3.6,2.5,6.6,6.2,6.6C111.2,69.4,113.8,66.4,113.8,62.8z"/>
	<path class="st0" d="M118.4,62.8L118.4,62.8c0-4.1,2.7-7.1,6.5-7.1c4.3,0,6.2,3.8,6.2,7.1V63h-12.1c0.1,3.9,2.8,6.4,6.2,6.4
		c2.1,0,3.9-1.2,5-2.7l0.5,0.3c-1.2,1.7-3.1,3-5.5,3C121.5,69.9,118.4,67.2,118.4,62.8z M130.5,62.5c-0.1-3.1-2.1-6.2-5.6-6.2
		c-3.4,0-5.7,2.7-5.8,6.2H130.5z"/>
	<path class="st0" d="M134,65.8L134,65.8c0-2.9,2.7-4.4,6-4.4c1.9,0,3.7,0.4,5.1,0.8v-1.1c0-3.3-1.9-4.8-5.1-4.8
		c-1.7,0-3.1,0.5-4.5,1.1l-0.2-0.5c1.5-0.7,3-1.2,4.7-1.2c1.9,0,3.3,0.5,4.3,1.5c0.8,0.8,1.3,2.2,1.3,3.8v8.4h-0.6v-3.2
		c-0.6,1.6-2.6,3.5-6.1,3.5C136.4,69.9,134,68.5,134,65.8z M145.2,64.6v-1.7c-1.4-0.5-3-0.9-5.1-0.9c-3.1,0-5.5,1.2-5.5,3.7v0.1
		c0,2.4,2.1,3.5,4.5,3.5C142.8,69.4,145.2,67,145.2,64.6z"/>
</g>
<g>
	<path class="st0" d="M148.4,70.2c0.3-0.2,0.5-0.3,0.4-0.6h-0.2v-0.7h0.5v0.6c0,0.5-0.2,0.7-0.6,0.9L148.4,70.2z"/>
</g>
<g>
	<path class="st0" d="M54.5,77.7v-2.4h0.4v2.3c0,0.8,0.5,1.3,1.2,1.3c0.8,0,1.4-0.6,1.4-1.4v-2.3h0.4v3.9h-0.4v-0.7
		c-0.3,0.5-0.7,0.8-1.4,0.8C55.1,79.3,54.5,78.6,54.5,77.7z"/>
	<path class="st0" d="M59.3,75.3h0.4V76c0.3-0.5,0.7-0.8,1.4-0.8c1,0,1.6,0.7,1.6,1.6v2.4h-0.4v-2.3c0-0.8-0.5-1.3-1.2-1.3
		c-0.8,0-1.4,0.6-1.4,1.4v2.3h-0.4V75.3z"/>
	<path class="st0" d="M66.4,75.3h0.4V76c0.3-0.4,0.6-0.8,1.3-0.8c0.7,0,1.1,0.4,1.3,0.8c0.3-0.4,0.7-0.8,1.4-0.8
		c0.9,0,1.5,0.7,1.5,1.6v2.4h-0.4v-2.3c0-0.8-0.4-1.3-1.2-1.3c-0.7,0-1.2,0.5-1.2,1.4v2.3h-0.4v-2.4c0-0.8-0.4-1.3-1.1-1.3
		s-1.3,0.6-1.3,1.4v2.3h-0.4V75.3z"/>
	<path class="st0" d="M73.4,77.2L73.4,77.2c0-1.1,0.9-2.1,2-2.1c1.2,0,2,0.9,2,2v0c0,1.1-0.9,2.1-2,2.1
		C74.3,79.3,73.4,78.3,73.4,77.2z M77,77.2L77,77.2c0-1-0.7-1.7-1.6-1.7c-0.9,0-1.6,0.8-1.6,1.7v0c0,0.9,0.7,1.7,1.6,1.7
		C76.4,78.9,77,78.2,77,77.2z"/>
	<path class="st0" d="M78.4,77.2L78.4,77.2c0-1.3,1-2.1,1.9-2.1c0.8,0,1.3,0.4,1.6,0.9v-2.5h0.4v5.6h-0.4v-0.9c-0.3,0.5-0.8,1-1.6,1
		C79.3,79.3,78.4,78.5,78.4,77.2z M81.9,77.2L81.9,77.2c0-1-0.8-1.7-1.6-1.7c-0.9,0-1.5,0.6-1.5,1.7v0c0,1,0.7,1.7,1.5,1.7
		C81.1,78.9,81.9,78.2,81.9,77.2z"/>
	<path class="st0" d="M83.4,77.2L83.4,77.2c0-1.1,0.9-2.1,2-2.1c1.2,0,2,0.9,2,2v0c0,1.1-0.9,2.1-2,2.1
		C84.3,79.3,83.4,78.3,83.4,77.2z M87.1,77.2L87.1,77.2c0-1-0.7-1.7-1.6-1.7c-0.9,0-1.6,0.8-1.6,1.7v0c0,0.9,0.7,1.7,1.6,1.7
		C86.4,78.9,87.1,78.2,87.1,77.2z"/>
	<path class="st0" d="M90.7,77.2L90.7,77.2c0-1.3,1-2.1,1.9-2.1c0.8,0,1.3,0.4,1.6,0.9v-2.5h0.4v5.6h-0.4v-0.9c-0.3,0.5-0.8,1-1.6,1
		C91.7,79.3,90.7,78.5,90.7,77.2z M94.2,77.2L94.2,77.2c0-1-0.8-1.7-1.6-1.7c-0.9,0-1.5,0.6-1.5,1.7v0c0,1,0.7,1.7,1.5,1.7
		C93.5,78.9,94.2,78.2,94.2,77.2z"/>
	<path class="st0" d="M96,73.7h0.5v0.5H96V73.7z M96.1,75.3h0.4v3.9h-0.4V75.3z"/>
	<path class="st0" d="M100,77.2L100,77.2c0-1.2,0.8-2.1,1.9-2.1c1.1,0,1.8,0.9,1.8,2.1c0,0.1,0,0.1,0,0.2h-3.3
		c0.1,1,0.8,1.5,1.5,1.5c0.6,0,1-0.3,1.3-0.6l0.3,0.2c-0.4,0.4-0.9,0.7-1.6,0.7C100.9,79.3,100,78.5,100,77.2z M103.3,77
		c-0.1-0.8-0.5-1.5-1.4-1.5c-0.8,0-1.4,0.7-1.4,1.5H103.3z"/>
	<path class="st0" d="M104.4,78.7l0.2-0.3c0.4,0.3,0.9,0.5,1.4,0.5c0.5,0,0.9-0.3,0.9-0.7v0c0-0.5-0.5-0.6-1-0.8
		c-0.6-0.2-1.3-0.4-1.3-1.1v0c0-0.6,0.5-1.1,1.3-1.1c0.5,0,1,0.2,1.4,0.4l-0.2,0.3c-0.4-0.2-0.8-0.4-1.2-0.4c-0.5,0-0.9,0.3-0.9,0.7
		v0c0,0.4,0.5,0.6,1.1,0.8c0.6,0.2,1.3,0.4,1.3,1.1v0c0,0.7-0.6,1.1-1.4,1.1C105.5,79.3,104.8,79,104.4,78.7z"/>
	<path class="st0" d="M108.2,78.7l0.2-0.3c0.4,0.3,0.9,0.5,1.4,0.5c0.5,0,0.9-0.3,0.9-0.7v0c0-0.5-0.5-0.6-1-0.8
		c-0.6-0.2-1.3-0.4-1.3-1.1v0c0-0.6,0.5-1.1,1.3-1.1c0.5,0,1,0.2,1.4,0.4l-0.2,0.3c-0.4-0.2-0.8-0.4-1.2-0.4c-0.5,0-0.9,0.3-0.9,0.7
		v0c0,0.4,0.5,0.6,1.1,0.8c0.6,0.2,1.3,0.4,1.3,1.1v0c0,0.7-0.6,1.1-1.4,1.1C109.2,79.3,108.6,79,108.2,78.7z"/>
	<path class="st0" d="M112.1,77.2L112.1,77.2c0-1.2,0.8-2.1,1.9-2.1c1.1,0,1.8,0.9,1.8,2.1c0,0.1,0,0.1,0,0.2h-3.3
		c0.1,1,0.8,1.5,1.5,1.5c0.6,0,1-0.3,1.3-0.6l0.3,0.2c-0.4,0.4-0.9,0.7-1.6,0.7C113,79.3,112.1,78.5,112.1,77.2z M115.3,77
		c-0.1-0.8-0.5-1.5-1.4-1.5c-0.8,0-1.4,0.7-1.4,1.5H115.3z"/>
	<path class="st0" d="M116.8,75.3h0.4v1.1c0.3-0.7,1-1.2,1.7-1.2v0.4h0c-0.9,0-1.7,0.7-1.7,2v1.6h-0.4V75.3z"/>
	<path class="st0" d="M119.5,77.2L119.5,77.2c0-1.2,0.8-2.1,1.9-2.1c1.1,0,1.8,0.9,1.8,2.1c0,0.1,0,0.1,0,0.2h-3.3
		c0.1,1,0.8,1.5,1.5,1.5c0.6,0,1-0.3,1.3-0.6l0.3,0.2c-0.4,0.4-0.9,0.7-1.6,0.7C120.4,79.3,119.5,78.5,119.5,77.2z M122.7,77
		c-0.1-0.8-0.5-1.5-1.4-1.5c-0.8,0-1.4,0.7-1.4,1.5H122.7z"/>
	<path class="st0" d="M123.9,79.8c0.3-0.2,0.5-0.3,0.4-0.6h-0.2v-0.7h0.5v0.6c0,0.5-0.2,0.7-0.6,0.9L123.9,79.8z"/>
</g>
<g>
	<path class="st0" d="M39.9,87.3v-2.4h0.4v2.3c0,0.8,0.5,1.3,1.2,1.3c0.8,0,1.4-0.6,1.4-1.4v-2.3h0.4v3.9h-0.4v-0.7
		c-0.3,0.5-0.7,0.8-1.4,0.8C40.4,88.9,39.9,88.2,39.9,87.3z"/>
	<path class="st0" d="M44.7,84.9H45v0.7c0.3-0.5,0.7-0.8,1.4-0.8c1,0,1.6,0.7,1.6,1.6v2.4h-0.4v-2.3c0-0.8-0.5-1.3-1.2-1.3
		c-0.8,0-1.4,0.6-1.4,1.4v2.3h-0.4V84.9z"/>
	<path class="st0" d="M49.1,87.7L49.1,87.7c0-0.8,0.7-1.3,1.7-1.3c0.5,0,0.9,0.1,1.3,0.2v-0.2c0-0.8-0.5-1.2-1.3-1.2
		c-0.5,0-0.9,0.1-1.2,0.3l-0.1-0.3c0.4-0.2,0.9-0.3,1.4-0.3c0.5,0,1,0.1,1.2,0.4c0.3,0.3,0.4,0.6,0.4,1.1v2.5h-0.4v-0.7
		c-0.3,0.4-0.8,0.7-1.5,0.7C49.8,88.9,49.1,88.5,49.1,87.7z M52.1,87.3v-0.4c-0.3-0.1-0.8-0.2-1.3-0.2c-0.8,0-1.3,0.4-1.3,0.9v0
		c0,0.6,0.5,0.9,1.1,0.9C51.4,88.5,52.1,88.1,52.1,87.3z"/>
	<path class="st0" d="M56.1,84.9h0.4v0.7c0.3-0.4,0.6-0.8,1.3-0.8c0.7,0,1.1,0.4,1.3,0.8c0.3-0.4,0.7-0.8,1.4-0.8
		c0.9,0,1.5,0.7,1.5,1.6v2.4h-0.4v-2.3c0-0.8-0.4-1.3-1.2-1.3c-0.7,0-1.2,0.5-1.2,1.4v2.3h-0.4v-2.4c0-0.8-0.4-1.3-1.1-1.3
		s-1.3,0.6-1.3,1.4v2.3h-0.4V84.9z"/>
	<path class="st0" d="M63.2,86.9L63.2,86.9c0-1.2,0.8-2.1,1.9-2.1c1.1,0,1.8,0.9,1.8,2.1c0,0.1,0,0.1,0,0.2h-3.3
		c0.1,1,0.8,1.5,1.5,1.5c0.6,0,1-0.3,1.3-0.6l0.3,0.2c-0.4,0.4-0.9,0.7-1.6,0.7C64.1,88.9,63.2,88.1,63.2,86.9z M66.4,86.7
		c-0.1-0.8-0.5-1.5-1.4-1.5c-0.8,0-1.4,0.7-1.4,1.5H66.4z"/>
	<path class="st0" d="M68.2,87.8v-2.6h-0.6v-0.3h0.6v-1.3h0.4v1.3h1.4v0.3h-1.4v2.5c0,0.6,0.3,0.8,0.8,0.8c0.2,0,0.4,0,0.6-0.1v0.4
		c-0.2,0.1-0.4,0.1-0.6,0.1C68.6,88.9,68.2,88.5,68.2,87.8z"/>
	<path class="st0" d="M70.7,86.9L70.7,86.9c0-1.1,0.9-2.1,2-2.1c1.2,0,2,0.9,2,2v0c0,1.1-0.9,2.1-2,2.1C71.5,88.9,70.7,88,70.7,86.9
		z M74.3,86.9L74.3,86.9c0-1-0.7-1.7-1.6-1.7c-0.9,0-1.6,0.8-1.6,1.7v0c0,0.9,0.7,1.7,1.6,1.7C73.6,88.5,74.3,87.8,74.3,86.9z"/>
	<path class="st0" d="M75.6,86.9L75.6,86.9c0-1.3,1-2.1,1.9-2.1c0.8,0,1.3,0.4,1.6,0.9v-2.5h0.4v5.6h-0.4v-0.9c-0.3,0.5-0.8,1-1.6,1
		C76.6,88.9,75.6,88.1,75.6,86.9z M79.2,86.9L79.2,86.9c0-1-0.8-1.7-1.6-1.7c-0.9,0-1.5,0.6-1.5,1.7v0c0,1,0.7,1.7,1.5,1.7
		C78.4,88.5,79.2,87.9,79.2,86.9z"/>
	<path class="st0" d="M80.7,86.9L80.7,86.9c0-1.1,0.9-2.1,2-2.1c1.2,0,2,0.9,2,2v0c0,1.1-0.9,2.1-2,2.1C81.5,88.9,80.7,88,80.7,86.9
		z M84.3,86.9L84.3,86.9c0-1-0.7-1.7-1.6-1.7c-0.9,0-1.6,0.8-1.6,1.7v0c0,0.9,0.7,1.7,1.6,1.7C83.6,88.5,84.3,87.8,84.3,86.9z"/>
	<path class="st0" d="M85.9,83.2h0.4v5.6h-0.4V83.2z"/>
	<path class="st0" d="M87.5,86.9L87.5,86.9c0-1.1,0.9-2.1,2-2.1c1.2,0,2,0.9,2,2v0c0,1.1-0.9,2.1-2,2.1C88.4,88.9,87.5,88,87.5,86.9
		z M91.2,86.9L91.2,86.9c0-1-0.7-1.7-1.6-1.7c-0.9,0-1.6,0.8-1.6,1.7v0c0,0.9,0.7,1.7,1.6,1.7C90.5,88.5,91.2,87.8,91.2,86.9z"/>
	<path class="st0" d="M92.6,89.5l0.2-0.3c0.5,0.4,1,0.6,1.6,0.6c0.9,0,1.5-0.5,1.5-1.5v-0.6c-0.3,0.5-0.9,0.9-1.6,0.9
		c-0.9,0-1.9-0.7-1.9-1.8v0c0-1.1,0.9-1.9,1.9-1.9c0.8,0,1.3,0.4,1.6,0.9v-0.8h0.4v3.3c0,0.6-0.2,1-0.5,1.3
		c-0.3,0.3-0.8,0.5-1.4,0.5C93.8,90.1,93.2,89.9,92.6,89.5z M96,86.7L96,86.7c0-0.9-0.8-1.5-1.6-1.5c-0.8,0-1.5,0.6-1.5,1.5v0
		c0,0.9,0.7,1.5,1.5,1.5C95.2,88.2,96,87.6,96,86.7z"/>
	<path class="st0" d="M97.8,83.3h0.5v0.5h-0.5V83.3z M97.9,84.9h0.4v3.9h-0.4V84.9z"/>
	<path class="st0" d="M99.4,87.7L99.4,87.7c0-0.8,0.7-1.3,1.7-1.3c0.5,0,0.9,0.1,1.3,0.2v-0.2c0-0.8-0.5-1.2-1.3-1.2
		c-0.5,0-0.9,0.1-1.2,0.3l-0.1-0.3c0.4-0.2,0.9-0.3,1.4-0.3c0.5,0,1,0.1,1.2,0.4c0.3,0.3,0.4,0.6,0.4,1.1v2.5h-0.4v-0.7
		c-0.3,0.4-0.8,0.7-1.5,0.7C100.2,88.9,99.4,88.5,99.4,87.7z M102.4,87.3v-0.4c-0.3-0.1-0.8-0.2-1.3-0.2c-0.8,0-1.3,0.4-1.3,0.9v0
		c0,0.6,0.5,0.9,1.1,0.9C101.7,88.5,102.4,88.1,102.4,87.3z"/>
	<path class="st0" d="M106.2,86.9L106.2,86.9c0-1.3,1-2.1,1.9-2.1c0.8,0,1.3,0.4,1.6,0.9v-2.5h0.4v5.6h-0.4v-0.9
		c-0.3,0.5-0.8,1-1.6,1C107.2,88.9,106.2,88.1,106.2,86.9z M109.8,86.9L109.8,86.9c0-1-0.8-1.7-1.6-1.7c-0.9,0-1.5,0.6-1.5,1.7v0
		c0,1,0.7,1.7,1.5,1.7C109,88.5,109.8,87.9,109.8,86.9z"/>
	<path class="st0" d="M111.6,83.3h0.5v0.5h-0.5V83.3z M111.6,84.9h0.4v3.9h-0.4V84.9z"/>
	<path class="st0" d="M115.8,83.2h0.4v5.6h-0.4V83.2z"/>
	<path class="st0" d="M117.4,87.7L117.4,87.7c0-0.8,0.7-1.3,1.7-1.3c0.5,0,0.9,0.1,1.3,0.2v-0.2c0-0.8-0.5-1.2-1.3-1.2
		c-0.5,0-0.9,0.1-1.2,0.3l-0.1-0.3c0.4-0.2,0.9-0.3,1.4-0.3c0.5,0,1,0.1,1.2,0.4c0.3,0.3,0.4,0.6,0.4,1.1v2.5h-0.4v-0.7
		c-0.3,0.4-0.8,0.7-1.5,0.7C118.2,88.9,117.4,88.5,117.4,87.7z M120.4,87.3v-0.4c-0.3-0.1-0.8-0.2-1.3-0.2c-0.8,0-1.3,0.4-1.3,0.9v0
		c0,0.6,0.5,0.9,1.1,0.9C119.7,88.5,120.4,88.1,120.4,87.3z"/>
	<path class="st0" d="M121.6,84.9h0.4l1.5,3.5l1.5-3.5h0.4l-1.8,4h-0.3L121.6,84.9z"/>
	<path class="st0" d="M126,86.9L126,86.9c0-1.1,0.9-2.1,2-2.1c1.2,0,2,0.9,2,2v0c0,1.1-0.9,2.1-2,2.1C126.8,88.9,126,88,126,86.9z
		 M129.6,86.9L129.6,86.9c0-1-0.7-1.7-1.6-1.7c-0.9,0-1.6,0.8-1.6,1.7v0c0,0.9,0.7,1.7,1.6,1.7C128.9,88.5,129.6,87.8,129.6,86.9z"
		/>
	<path class="st0" d="M131.2,84.9h0.4V86c0.3-0.7,1-1.2,1.7-1.2v0.4h0c-0.9,0-1.7,0.7-1.7,2v1.6h-0.4V84.9z"/>
	<path class="st0" d="M133.8,86.9L133.8,86.9c0-1.1,0.9-2.1,2-2.1c1.2,0,2,0.9,2,2v0c0,1.1-0.9,2.1-2,2.1
		C134.6,88.9,133.8,88,133.8,86.9z M137.4,86.9L137.4,86.9c0-1-0.7-1.7-1.6-1.7c-0.9,0-1.6,0.8-1.6,1.7v0c0,0.9,0.7,1.7,1.6,1.7
		C136.8,88.5,137.4,87.8,137.4,86.9z"/>
	<path class="st0" d="M138.8,88.2h0.5v0.7h-0.5V88.2z"/>
</g>
<g>
	<path class="st0" d="M29.7,105.1h0.4v5.4h-0.4V105.1z"/>
	<path class="st0" d="M31.7,104.9h0.4v5.6h-0.4V104.9z"/>
</g>
<g>
	<path class="st0" d="M37.7,97h0.6v4.2c0.8-2.6,3.1-4.5,6.3-4.5c3.9,0,6.8,3.1,6.8,7.1v0.1c0,3.9-2.8,7.1-6.8,7.1
		c-3.1,0-5.5-1.9-6.3-4.5v8.5h-0.6V97z M50.7,103.8L50.7,103.8c0-3.7-2.5-6.6-6.2-6.6c-3.7,0-6.3,3-6.3,6.5v0.1
		c0,3.5,2.6,6.5,6.3,6.5C48.2,110.3,50.7,107.4,50.7,103.8z"/>
	<path class="st0" d="M55.5,97H56v4.3c0.6-2.2,2.6-4.7,5.6-4.7v0.5h-0.1c-3.4,0-5.4,3.7-5.4,6.3v7h-0.6V97z"/>
	<path class="st0" d="M62.9,103.8L62.9,103.8c0-3.8,2.8-7.1,7-7.1c4.2,0,7,3.2,7,7v0.1c0,3.8-2.8,7.1-7,7.1
		C65.7,110.8,62.9,107.6,62.9,103.8z M76.4,103.8L76.4,103.8c0-3.6-2.7-6.6-6.5-6.6c-3.8,0-6.4,3-6.4,6.5v0.1c0,3.5,2.7,6.5,6.5,6.5
		C73.8,110.3,76.4,107.3,76.4,103.8z"/>
	<path class="st0" d="M80.8,112.8l0.4-0.5c1.7,1.3,3.6,2,5.8,2c3.6,0,6-2.1,6-6v-2.8c-1,2.3-3.3,3.9-6.1,3.9c-3.7,0-6.7-2.9-6.7-6.4
		v-0.1c0-3.5,3-6.4,6.7-6.4c2.8,0,5.1,1.6,6.1,3.9V97h0.6v11.5c0,2-0.6,3.6-1.7,4.7c-1.1,1.1-2.8,1.7-4.8,1.7
		C84.6,114.9,82.6,114.2,80.8,112.8z M93,103.1L93,103.1c0-3.2-2.7-6-6.1-6c-3.4,0-6.1,2.6-6.1,5.8v0.1c0,3.2,2.7,5.9,6.1,5.9
		C90.2,109,93,106.3,93,103.1z"/>
	<path class="st0" d="M97.6,103.7L97.6,103.7c0-4.1,2.7-7.1,6.5-7.1c4.3,0,6.2,3.8,6.2,7.1v0.1H98.2c0.1,3.9,2.8,6.4,6.2,6.4
		c2.1,0,3.9-1.2,5-2.7l0.5,0.3c-1.2,1.7-3.1,3-5.5,3C100.6,110.8,97.6,108.1,97.6,103.7z M109.7,103.4c-0.1-3.1-2.1-6.2-5.6-6.2
		c-3.4,0-5.7,2.7-5.8,6.2H109.7z"/>
	<path class="st0" d="M115,107v-9.6h-2.1V97h2.1v-4.7h0.6V97h5v0.5h-5v9.5c0,2,1,3.2,2.9,3.2c0.7,0,1.4-0.2,2.1-0.5v0.6
		c-0.6,0.3-1.4,0.4-2.1,0.4C116.3,110.8,115,109.4,115,107z"/>
	<path class="st0" d="M124.9,107v-9.6h-2.1V97h2.1v-4.7h0.6V97h5v0.5h-5v9.5c0,2,1,3.2,2.9,3.2c0.7,0,1.4-0.2,2.1-0.5v0.6
		c-0.7,0.3-1.4,0.4-2.1,0.4C126.1,110.8,124.9,109.4,124.9,107z"/>
	<path class="st0" d="M132.9,103.8L132.9,103.8c0-3.8,2.8-7.1,7-7.1c4.2,0,7,3.2,7,7v0.1c0,3.8-2.8,7.1-7,7.1
		C135.7,110.8,132.9,107.6,132.9,103.8z M146.4,103.8L146.4,103.8c0-3.6-2.7-6.6-6.5-6.6c-3.8,0-6.4,3-6.4,6.5v0.1
		c0,3.5,2.7,6.5,6.5,6.5C143.8,110.3,146.4,107.3,146.4,103.8z"/>
</g>
<g>
	<path class="st0" d="M148.9,111.1c0.3-0.2,0.5-0.3,0.4-0.6h-0.2v-0.7h0.5v0.6c0,0.5-0.2,0.7-0.6,0.9L148.9,111.1z"/>
</g>
<g>
	<path class="st0" d="M73.9,118.7h0.5v0.5h-0.5V118.7z M73.9,120.3h0.4v3.9h-0.4V120.3z"/>
	<path class="st0" d="M75.9,118.6h0.4v5.6h-0.4V118.6z"/>
	<path class="st0" d="M79.8,122.3L79.8,122.3c0-1.1,0.9-2.1,2-2.1c0.7,0,1.2,0.3,1.6,0.7l-0.3,0.3c-0.3-0.3-0.7-0.6-1.3-0.6
		c-0.9,0-1.6,0.7-1.6,1.7v0c0,0.9,0.7,1.7,1.6,1.7c0.6,0,1-0.3,1.3-0.7l0.3,0.2c-0.4,0.5-0.9,0.8-1.6,0.8
		C80.6,124.3,79.8,123.4,79.8,122.3z"/>
	<path class="st0" d="M84.5,118.6h0.4v5.6h-0.4V118.6z"/>
	<path class="st0" d="M86.4,118.7h0.5v0.5h-0.5V118.7z M86.4,120.3h0.4v3.9h-0.4V120.3z"/>
	<path class="st0" d="M88,122.3L88,122.3c0-1.2,0.8-2.1,1.9-2.1c1.1,0,1.8,0.9,1.8,2.1c0,0.1,0,0.1,0,0.2h-3.3
		c0.1,1,0.8,1.5,1.5,1.5c0.6,0,1-0.3,1.3-0.6l0.3,0.2c-0.4,0.4-0.9,0.7-1.6,0.7C88.9,124.3,88,123.5,88,122.3z M91.3,122.1
		c-0.1-0.8-0.5-1.5-1.4-1.5c-0.8,0-1.4,0.7-1.4,1.5H91.3z"/>
	<path class="st0" d="M92.8,120.3h0.4v0.7c0.3-0.5,0.7-0.8,1.4-0.8c1,0,1.6,0.7,1.6,1.6v2.4h-0.4v-2.3c0-0.8-0.5-1.3-1.2-1.3
		c-0.8,0-1.4,0.6-1.4,1.4v2.3h-0.4V120.3z"/>
	<path class="st0" d="M97.7,123.2v-2.6h-0.6v-0.3h0.6V119h0.4v1.3h1.4v0.3h-1.4v2.5c0,0.6,0.3,0.8,0.8,0.8c0.2,0,0.4,0,0.6-0.1v0.4
		c-0.2,0.1-0.4,0.1-0.6,0.1C98.2,124.3,97.7,124,97.7,123.2z"/>
	<path class="st0" d="M100.2,122.3L100.2,122.3c0-1.2,0.8-2.1,1.9-2.1c1.1,0,1.8,0.9,1.8,2.1c0,0.1,0,0.1,0,0.2h-3.3
		c0.1,1,0.8,1.5,1.5,1.5c0.6,0,1-0.3,1.3-0.6l0.3,0.2c-0.4,0.4-0.9,0.7-1.6,0.7C101.1,124.3,100.2,123.5,100.2,122.3z M103.5,122.1
		c-0.1-0.8-0.5-1.5-1.4-1.5c-0.8,0-1.4,0.7-1.4,1.5H103.5z"/>
	<path class="st0" d="M104.6,124.9c0.3-0.2,0.5-0.3,0.4-0.6h-0.2v-0.7h0.5v0.6c0,0.5-0.2,0.7-0.6,0.9L104.6,124.9z"/>
</g>
<g>
	<path class="st0" d="M39.2,138.3h0.4v5.6h-0.4V138.3z"/>
	<path class="st0" d="M40.8,142.8L40.8,142.8c0-0.8,0.7-1.3,1.7-1.3c0.5,0,0.9,0.1,1.3,0.2v-0.2c0-0.8-0.5-1.2-1.3-1.2
		c-0.5,0-0.9,0.1-1.2,0.3l-0.1-0.3c0.4-0.2,0.9-0.3,1.4-0.3c0.5,0,1,0.1,1.2,0.4c0.3,0.3,0.4,0.6,0.4,1.1v2.5h-0.4v-0.7
		c-0.3,0.4-0.8,0.7-1.5,0.7C41.5,144,40.8,143.6,40.8,142.8z M43.8,142.5V142c-0.3-0.1-0.8-0.2-1.3-0.2c-0.8,0-1.3,0.4-1.3,0.9v0
		c0,0.6,0.5,0.9,1.1,0.9C43.1,143.7,43.8,143.2,43.8,142.5z"/>
</g>
<g>
	<path class="st0" d="M50.3,140.5v-9.6h-2.1v-0.5h2.1v-4.7h0.6v4.7h5v0.5h-5v9.5c0,2,1,3.2,2.9,3.2c0.7,0,1.4-0.2,2.1-0.5v0.6
		c-0.7,0.3-1.4,0.4-2.1,0.4C51.6,144.2,50.3,142.8,50.3,140.5z"/>
	<path class="st0" d="M58.4,137.2L58.4,137.2c0-4.1,2.7-7.1,6.5-7.1c4.3,0,6.2,3.8,6.2,7.1v0.1H59c0.1,3.9,2.8,6.4,6.2,6.4
		c2.1,0,3.9-1.2,5-2.7l0.5,0.3c-1.2,1.7-3.1,3-5.5,3C61.4,144.2,58.4,141.5,58.4,137.2z M70.5,136.8c-0.1-3.1-2.1-6.2-5.6-6.2
		c-3.4,0-5.7,2.7-5.8,6.2H70.5z"/>
	<path class="st0" d="M74.2,137.2L74.2,137.2c0-3.9,3-7.1,6.9-7.1c2.5,0,4.1,1.1,5.4,2.5l-0.4,0.4c-1.2-1.3-2.8-2.4-5-2.4
		c-3.6,0-6.3,3-6.3,6.5v0.1c0,3.5,2.8,6.6,6.3,6.6c2.3,0,3.9-1.2,5.1-2.5l0.4,0.4c-1.3,1.5-3,2.7-5.5,2.7
		C77.2,144.2,74.2,141,74.2,137.2z"/>
	<path class="st0" d="M90.3,130.4h0.6v3.7c0.4-1.7,2.2-4,5.4-4c3.7,0,5.7,2.5,5.7,6.2v7.7h-0.6v-7.6c0-3.4-1.8-5.7-5.2-5.7
		c-3,0-5.4,2.6-5.4,5.8v7.5h-0.6V130.4z"/>
	<path class="st0" d="M106.8,125h0.8v1.5h-0.8V125z M106.9,130.4h0.6v13.5h-0.6V130.4z"/>
	<path class="st0" d="M111.7,137.2L111.7,137.2c0-3.9,3-7.1,6.9-7.1c2.5,0,4.1,1.1,5.4,2.5l-0.4,0.4c-1.2-1.3-2.8-2.4-5-2.4
		c-3.6,0-6.3,3-6.3,6.5v0.1c0,3.5,2.8,6.6,6.3,6.6c2.3,0,3.9-1.2,5.1-2.5l0.4,0.4c-1.3,1.5-3,2.7-5.5,2.7
		C114.8,144.2,111.7,141,111.7,137.2z"/>
	<path class="st0" d="M126.7,140.2L126.7,140.2c0-2.9,2.7-4.4,6-4.4c1.9,0,3.7,0.4,5.1,0.8v-1.1c0-3.3-1.9-4.8-5.1-4.8
		c-1.7,0-3.1,0.5-4.5,1.1l-0.2-0.5c1.5-0.7,3-1.2,4.7-1.2c1.9,0,3.3,0.5,4.3,1.5c0.8,0.8,1.3,2.2,1.3,3.8v8.4h-0.6v-3.2
		c-0.6,1.6-2.6,3.5-6.1,3.5C129.2,144.2,126.7,142.9,126.7,140.2z M137.9,139v-1.7c-1.4-0.5-3-0.9-5.1-0.9c-3.1,0-5.5,1.2-5.5,3.7
		v0.1c0,2.4,2.1,3.5,4.5,3.5C135.5,143.7,137.9,141.4,137.9,139z"/>
</g>
<g>
	<path class="st0" d="M45.1,153.7L45.1,153.7c0-1.2,0.8-2.1,1.9-2.1c1.1,0,1.8,0.9,1.8,2.1c0,0.1,0,0.1,0,0.2h-3.3
		c0.1,1,0.8,1.5,1.5,1.5c0.6,0,1-0.3,1.3-0.6l0.3,0.2c-0.4,0.4-0.9,0.7-1.6,0.7C46,155.7,45.1,154.9,45.1,153.7z M48.4,153.5
		c-0.1-0.8-0.5-1.5-1.4-1.5c-0.8,0-1.4,0.7-1.4,1.5H48.4z"/>
	<path class="st0" d="M52.2,150h0.4v5.6h-0.4V150z"/>
	<path class="st0" d="M53.8,154.5L53.8,154.5c0-0.8,0.7-1.3,1.7-1.3c0.5,0,0.9,0.1,1.3,0.2v-0.2c0-0.8-0.5-1.2-1.3-1.2
		c-0.5,0-0.9,0.1-1.2,0.3l-0.1-0.3c0.4-0.2,0.9-0.3,1.4-0.3c0.5,0,1,0.1,1.2,0.4c0.3,0.3,0.4,0.6,0.4,1.1v2.5h-0.4V155
		c-0.3,0.4-0.8,0.7-1.5,0.7C54.6,155.7,53.8,155.3,53.8,154.5z M56.8,154.2v-0.4c-0.3-0.1-0.8-0.2-1.3-0.2c-0.8,0-1.3,0.4-1.3,0.9v0
		c0,0.6,0.5,0.9,1.1,0.9C56.1,155.4,56.8,154.9,56.8,154.2z"/>
	<path class="st0" d="M64.1,154.7c-0.3,0.5-0.8,1-1.6,1c-0.9,0-1.9-0.8-1.9-2v0c0-1.3,1-2.1,1.9-2.1c0.8,0,1.3,0.4,1.6,0.9v-0.8h0.4
		v5.2h-0.4V154.7z M64.1,153.7L64.1,153.7c0-1-0.8-1.7-1.6-1.7c-0.9,0-1.5,0.6-1.5,1.7v0c0,1,0.7,1.7,1.5,1.7
		C63.3,155.4,64.1,154.7,64.1,153.7z"/>
	<path class="st0" d="M65.8,154.1v-2.4h0.4v2.3c0,0.8,0.5,1.3,1.2,1.3c0.8,0,1.4-0.6,1.4-1.4v-2.3h0.4v3.9h-0.4v-0.7
		c-0.3,0.5-0.7,0.8-1.4,0.8C66.4,155.7,65.8,155,65.8,154.1z"/>
	<path class="st0" d="M70.3,154.5L70.3,154.5c0-0.8,0.7-1.3,1.7-1.3c0.5,0,0.9,0.1,1.3,0.2v-0.2c0-0.8-0.5-1.2-1.3-1.2
		c-0.5,0-0.9,0.1-1.2,0.3l-0.1-0.3c0.4-0.2,0.9-0.3,1.4-0.3c0.5,0,1,0.1,1.2,0.4c0.3,0.3,0.4,0.6,0.4,1.1v2.5h-0.4V155
		c-0.3,0.4-0.8,0.7-1.5,0.7C71.1,155.7,70.3,155.3,70.3,154.5z M73.3,154.2v-0.4c-0.3-0.1-0.8-0.2-1.3-0.2c-0.8,0-1.3,0.4-1.3,0.9v0
		c0,0.6,0.5,0.9,1.1,0.9C72.7,155.4,73.3,154.9,73.3,154.2z"/>
	<path class="st0" d="M75.1,150h0.4v5.6h-0.4V150z"/>
	<path class="st0" d="M77,150.2h0.5v0.5H77V150.2z M77,151.7h0.4v3.9H77V151.7z"/>
	<path class="st0" d="M79.1,154.6V152h-0.6v-0.3h0.6v-1.3h0.4v1.3h1.4v0.3h-1.4v2.5c0,0.6,0.3,0.8,0.8,0.8c0.2,0,0.4,0,0.6-0.1v0.4
		c-0.2,0.1-0.4,0.1-0.6,0.1C79.6,155.7,79.1,155.4,79.1,154.6z"/>
	<path class="st0" d="M81.7,154.5L81.7,154.5c0-0.8,0.7-1.3,1.7-1.3c0.5,0,0.9,0.1,1.3,0.2v-0.2c0-0.8-0.5-1.2-1.3-1.2
		c-0.5,0-0.9,0.1-1.2,0.3L82,152c0.4-0.2,0.9-0.3,1.4-0.3c0.5,0,1,0.1,1.2,0.4c0.3,0.3,0.4,0.6,0.4,1.1v2.5h-0.4V155
		c-0.3,0.4-0.8,0.7-1.5,0.7C82.4,155.7,81.7,155.3,81.7,154.5z M84.7,154.2v-0.4c-0.3-0.1-0.8-0.2-1.3-0.2c-0.8,0-1.3,0.4-1.3,0.9v0
		c0,0.6,0.5,0.9,1.1,0.9C84,155.4,84.7,154.9,84.7,154.2z M82.5,150.2L83,150l0.7,1h-0.3L82.5,150.2z"/>
	<path class="st0" d="M88.4,155.1l0.2-0.3c0.4,0.3,0.9,0.5,1.4,0.5c0.5,0,0.9-0.3,0.9-0.7v0c0-0.5-0.5-0.6-1-0.8
		c-0.6-0.2-1.3-0.4-1.3-1.1v0c0-0.6,0.5-1.1,1.3-1.1c0.5,0,1,0.2,1.4,0.4l-0.2,0.3c-0.4-0.2-0.8-0.4-1.2-0.4c-0.5,0-0.9,0.3-0.9,0.7
		v0c0,0.4,0.5,0.6,1.1,0.8c0.6,0.2,1.3,0.4,1.3,1.1v0c0,0.7-0.6,1.1-1.4,1.1C89.4,155.7,88.8,155.5,88.4,155.1z"/>
	<path class="st0" d="M92.3,153.7L92.3,153.7c0-1.1,0.9-2.1,2-2.1c1.2,0,2,0.9,2,2v0c0,1.1-0.9,2.1-2,2.1
		C93.1,155.7,92.3,154.8,92.3,153.7z M95.9,153.7L95.9,153.7c0-1-0.7-1.7-1.6-1.7c-0.9,0-1.6,0.8-1.6,1.7v0c0,0.9,0.7,1.7,1.6,1.7
		C95.2,155.4,95.9,154.6,95.9,153.7z"/>
	<path class="st0" d="M97.5,151.7h0.4v0.7c0.3-0.5,0.7-0.8,1.4-0.8c1,0,1.6,0.7,1.6,1.6v2.4h-0.4v-2.3c0-0.8-0.5-1.3-1.2-1.3
		c-0.8,0-1.4,0.6-1.4,1.4v2.3h-0.4V151.7z"/>
	<path class="st0" d="M101.9,153.7L101.9,153.7c0-1.1,0.9-2.1,2-2.1c1.2,0,2,0.9,2,2v0c0,1.1-0.9,2.1-2,2.1
		C102.8,155.7,101.9,154.8,101.9,153.7z M105.6,153.7L105.6,153.7c0-1-0.7-1.7-1.6-1.7c-0.9,0-1.6,0.8-1.6,1.7v0
		c0,0.9,0.7,1.7,1.6,1.7C104.9,155.4,105.6,154.6,105.6,153.7z"/>
	<path class="st0" d="M109.5,150.2h0.5v0.5h-0.5V150.2z M109.5,151.7h0.4v3.9h-0.4V151.7z"/>
	<path class="st0" d="M113.7,151.7h0.4v0.7c0.3-0.5,0.7-0.8,1.4-0.8c1,0,1.6,0.7,1.6,1.6v2.4h-0.4v-2.3c0-0.8-0.5-1.3-1.2-1.3
		c-0.8,0-1.4,0.6-1.4,1.4v2.3h-0.4V151.7z"/>
	<path class="st0" d="M118.1,153.7L118.1,153.7c0-1.1,0.9-2.1,2-2.1c1.2,0,2,0.9,2,2v0c0,1.1-0.9,2.1-2,2.1
		C119,155.7,118.1,154.8,118.1,153.7z M121.8,153.7L121.8,153.7c0-1-0.7-1.7-1.6-1.7c-0.9,0-1.6,0.8-1.6,1.7v0
		c0,0.9,0.7,1.7,1.6,1.7C121.1,155.4,121.8,154.6,121.8,153.7z"/>
	<path class="st0" d="M123,155.1l0.2-0.3c0.4,0.3,0.9,0.5,1.4,0.5c0.5,0,0.9-0.3,0.9-0.7v0c0-0.5-0.5-0.6-1-0.8
		c-0.6-0.2-1.3-0.4-1.3-1.1v0c0-0.6,0.5-1.1,1.3-1.1c0.5,0,1,0.2,1.4,0.4l-0.2,0.3c-0.4-0.2-0.8-0.4-1.2-0.4c-0.5,0-0.9,0.3-0.9,0.7
		v0c0,0.4,0.5,0.6,1.1,0.8c0.6,0.2,1.3,0.4,1.3,1.1v0c0,0.7-0.6,1.1-1.4,1.1C124,155.7,123.4,155.5,123,155.1z"/>
	<path class="st0" d="M127.3,154.6V152h-0.6v-0.3h0.6v-1.3h0.4v1.3h1.4v0.3h-1.4v2.5c0,0.6,0.3,0.8,0.8,0.8c0.2,0,0.4,0,0.6-0.1v0.4
		c-0.2,0.1-0.4,0.1-0.6,0.1C127.8,155.7,127.3,155.4,127.3,154.6z"/>
	<path class="st0" d="M130.2,151.7h0.4v1.1c0.3-0.7,1-1.2,1.7-1.2v0.4h0c-0.9,0-1.7,0.7-1.7,2v1.6h-0.4V151.7z"/>
	<path class="st0" d="M133.3,150.2h0.5v0.5h-0.5V150.2z M133.3,151.7h0.4v3.9h-0.4V151.7z"/>
</g>
<g>
	<path class="st0" d="M53,163.2h0.4v0.9c0.3-0.5,0.8-1,1.6-1c0.9,0,1.9,0.8,1.9,2v0c0,1.3-1,2.1-1.9,2.1c-0.8,0-1.3-0.4-1.6-0.9v2.1
		H53V163.2z M56.5,165.2L56.5,165.2c0-1-0.7-1.7-1.5-1.7c-0.8,0-1.6,0.7-1.6,1.7v0c0,1,0.8,1.7,1.6,1.7
		C55.8,166.9,56.5,166.3,56.5,165.2z"/>
	<path class="st0" d="M58,165.7v-2.4h0.4v2.3c0,0.8,0.5,1.3,1.2,1.3c0.8,0,1.4-0.6,1.4-1.4v-2.3h0.4v3.9H61v-0.7
		c-0.3,0.5-0.7,0.8-1.4,0.8C58.6,167.3,58,166.6,58,165.7z"/>
	<path class="st0" d="M62.8,163.2h0.4v0.7c0.3-0.5,0.7-0.8,1.4-0.8c1,0,1.6,0.7,1.6,1.6v2.4h-0.4v-2.3c0-0.8-0.5-1.3-1.2-1.3
		c-0.8,0-1.4,0.6-1.4,1.4v2.3h-0.4V163.2z"/>
	<path class="st0" d="M67.8,166.2v-2.6h-0.6v-0.3h0.6V162h0.4v1.3h1.4v0.3h-1.4v2.5c0,0.6,0.3,0.8,0.8,0.8c0.2,0,0.4,0,0.6-0.1v0.4
		c-0.2,0.1-0.4,0.1-0.6,0.1C68.3,167.2,67.8,166.9,67.8,166.2z"/>
	<path class="st0" d="M70.7,161.7h0.5v0.5h-0.5V161.7z M70.7,163.2h0.4v3.9h-0.4V163.2z"/>
	<path class="st0" d="M74.6,165.2L74.6,165.2c0-1.3,1-2.1,1.9-2.1c0.8,0,1.3,0.4,1.6,0.9v-2.5h0.4v5.6h-0.4v-0.9
		c-0.3,0.5-0.8,1-1.6,1C75.6,167.3,74.6,166.5,74.6,165.2z M78.2,165.2L78.2,165.2c0-1-0.8-1.7-1.6-1.7c-0.9,0-1.5,0.6-1.5,1.7v0
		c0,1,0.7,1.7,1.5,1.7C77.4,166.9,78.2,166.2,78.2,165.2z"/>
	<path class="st0" d="M80,161.7h0.5v0.5H80V161.7z M80,163.2h0.4v3.9H80V163.2z"/>
</g>
<g>
	<path class="st0" d="M84.2,163.2h0.4v1.1c0.3-0.7,1-1.2,1.7-1.2v0.4h0c-0.9,0-1.7,0.7-1.7,2v1.6h-0.4V163.2z"/>
	<path class="st0" d="M87.3,161.7h0.5v0.5h-0.5V161.7z M87.3,163.2h0.4v3.9h-0.4V163.2z"/>
	<path class="st0" d="M89.4,163.6h-0.6v-0.3h0.6v-0.4c0-0.4,0.1-0.8,0.3-1c0.2-0.2,0.5-0.3,0.8-0.3c0.2,0,0.4,0,0.6,0.1v0.4
		c-0.2-0.1-0.4-0.1-0.6-0.1c-0.5,0-0.8,0.3-0.8,1v0.4h1.4v0.3h-1.4v3.6h-0.4V163.6z"/>
	<path class="st0" d="M91.7,165.2L91.7,165.2c0-1.2,0.8-2.1,1.9-2.1c1.1,0,1.8,0.9,1.8,2.1c0,0.1,0,0.1,0,0.2h-3.3
		c0.1,1,0.8,1.5,1.5,1.5c0.6,0,1-0.3,1.3-0.6l0.3,0.2c-0.4,0.4-0.9,0.7-1.6,0.7C92.5,167.3,91.7,166.4,91.7,165.2z M94.9,165
		c-0.1-0.8-0.5-1.5-1.4-1.5c-0.8,0-1.4,0.7-1.4,1.5H94.9z"/>
	<path class="st0" d="M96.4,163.2h0.4v1.1c0.3-0.7,1-1.2,1.7-1.2v0.4h0c-0.9,0-1.7,0.7-1.7,2v1.6h-0.4V163.2z"/>
	<path class="st0" d="M99.5,161.7h0.5v0.5h-0.5V161.7z M99.6,163.2h0.4v3.9h-0.4V163.2z"/>
	<path class="st0" d="M101.4,163.2h0.4v0.7c0.3-0.4,0.6-0.8,1.3-0.8c0.7,0,1.1,0.4,1.3,0.8c0.3-0.4,0.7-0.8,1.4-0.8
		c0.9,0,1.5,0.7,1.5,1.6v2.4H107v-2.3c0-0.8-0.4-1.3-1.2-1.3c-0.7,0-1.2,0.5-1.2,1.4v2.3h-0.4v-2.4c0-0.8-0.4-1.3-1.1-1.3
		s-1.3,0.6-1.3,1.4v2.3h-0.4V163.2z"/>
	<path class="st0" d="M108.5,165.2L108.5,165.2c0-1.2,0.8-2.1,1.9-2.1c1.1,0,1.8,0.9,1.8,2.1c0,0.1,0,0.1,0,0.2h-3.3
		c0.1,1,0.8,1.5,1.5,1.5c0.6,0,1-0.3,1.3-0.6l0.3,0.2c-0.4,0.4-0.9,0.7-1.6,0.7C109.4,167.3,108.5,166.4,108.5,165.2z M111.7,165
		c-0.1-0.8-0.5-1.5-1.4-1.5c-0.8,0-1.4,0.7-1.4,1.5H111.7z"/>
	<path class="st0" d="M113.3,163.2h0.4v0.7c0.3-0.5,0.7-0.8,1.4-0.8c1,0,1.6,0.7,1.6,1.6v2.4h-0.4v-2.3c0-0.8-0.5-1.3-1.2-1.3
		c-0.8,0-1.4,0.6-1.4,1.4v2.3h-0.4V163.2z"/>
	<path class="st0" d="M118.2,166.2v-2.6h-0.6v-0.3h0.6V162h0.4v1.3h1.4v0.3h-1.4v2.5c0,0.6,0.3,0.8,0.8,0.8c0.2,0,0.4,0,0.6-0.1v0.4
		c-0.2,0.1-0.4,0.1-0.6,0.1C118.7,167.2,118.2,166.9,118.2,166.2z"/>
	<path class="st0" d="M120.7,165.2L120.7,165.2c0-1.1,0.9-2.1,2-2.1c1.2,0,2,0.9,2,2v0c0,1.1-0.9,2.1-2,2.1
		C121.5,167.3,120.7,166.3,120.7,165.2z M124.3,165.2L124.3,165.2c0-1-0.7-1.7-1.6-1.7c-0.9,0-1.6,0.8-1.6,1.7v0
		c0,0.9,0.7,1.7,1.6,1.7C123.6,166.9,124.3,166.2,124.3,165.2z"/>
	<path class="st0" d="M125.6,166.5h0.5v0.7h-0.5V166.5z"/>
</g>
<g>
	<path class="st0" d="M47.9,178.1h0.4v5h3.2v0.4h-3.6V178.1z"/>
	<path class="st0" d="M52.1,179.4c0.3-0.2,0.5-0.3,0.4-0.6h-0.2v-0.7h0.5v0.6c0,0.5-0.2,0.7-0.6,0.9L52.1,179.4z"/>
	<path class="st0" d="M54.1,178h0.5v0.5h-0.5V178z M54.1,179.6h0.4v3.9h-0.4V179.6z"/>
	<path class="st0" d="M56,179.6h0.4v0.7c0.3-0.5,0.7-0.8,1.4-0.8c1,0,1.6,0.7,1.6,1.6v2.4H59v-2.3c0-0.8-0.5-1.3-1.2-1.3
		c-0.8,0-1.4,0.6-1.4,1.4v2.3H56V179.6z"/>
	<path class="st0" d="M61,179.9h-0.6v-0.3H61v-0.4c0-0.4,0.1-0.8,0.3-1c0.2-0.2,0.5-0.3,0.8-0.3c0.2,0,0.4,0,0.6,0.1v0.4
		c-0.2-0.1-0.4-0.1-0.6-0.1c-0.5,0-0.8,0.3-0.8,1v0.4h1.4v0.3h-1.4v3.6H61V179.9z"/>
	<path class="st0" d="M63.2,181.6L63.2,181.6c0-1.1,0.9-2.1,2-2.1c1.2,0,2,0.9,2,2v0c0,1.1-0.9,2.1-2,2.1
		C64,183.6,63.2,182.7,63.2,181.6z M66.8,181.6L66.8,181.6c0-1-0.7-1.7-1.6-1.7c-0.9,0-1.6,0.8-1.6,1.7v0c0,0.9,0.7,1.7,1.6,1.7
		C66.1,183.2,66.8,182.5,66.8,181.6z"/>
	<path class="st0" d="M68.4,179.6h0.4v1.1c0.3-0.7,1-1.2,1.7-1.2v0.4h0c-0.9,0-1.7,0.7-1.7,2v1.6h-0.4V179.6z"/>
	<path class="st0" d="M71.5,179.6h0.4v0.7c0.3-0.4,0.6-0.8,1.3-0.8c0.7,0,1.1,0.4,1.3,0.8c0.3-0.4,0.7-0.8,1.4-0.8
		c0.9,0,1.5,0.7,1.5,1.6v2.4H77v-2.3c0-0.8-0.4-1.3-1.2-1.3c-0.7,0-1.2,0.5-1.2,1.4v2.3h-0.4v-2.4c0-0.8-0.4-1.3-1.1-1.3
		s-1.3,0.6-1.3,1.4v2.3h-0.4V179.6z"/>
	<path class="st0" d="M78.5,182.4L78.5,182.4c0-0.8,0.7-1.3,1.7-1.3c0.5,0,0.9,0.1,1.3,0.2v-0.2c0-0.8-0.5-1.2-1.3-1.2
		c-0.5,0-0.9,0.1-1.2,0.3l-0.1-0.3c0.4-0.2,0.9-0.3,1.4-0.3c0.5,0,1,0.1,1.2,0.4c0.3,0.3,0.4,0.6,0.4,1.1v2.4h-0.4v-0.7
		c-0.3,0.4-0.8,0.7-1.5,0.7C79.3,183.6,78.5,183.2,78.5,182.4z M81.5,182v-0.4c-0.3-0.1-0.8-0.2-1.3-0.2c-0.8,0-1.3,0.4-1.3,0.9v0
		c0,0.6,0.5,0.9,1.1,0.9C80.8,183.2,81.5,182.7,81.5,182z"/>
	<path class="st0" d="M83.4,182.5v-2.6h-0.6v-0.3h0.6v-1.3h0.4v1.3h1.4v0.3h-1.4v2.5c0,0.6,0.3,0.8,0.8,0.8c0.2,0,0.4,0,0.6-0.1v0.4
		c-0.2,0.1-0.4,0.1-0.6,0.1C83.9,183.6,83.4,183.2,83.4,182.5z"/>
	<path class="st0" d="M86.3,178h0.5v0.5h-0.5V178z M86.3,179.6h0.4v3.9h-0.4V179.6z"/>
	<path class="st0" d="M87.9,181.6L87.9,181.6c0-1.1,0.9-2.1,2-2.1c0.7,0,1.2,0.3,1.6,0.7l-0.3,0.3c-0.3-0.3-0.7-0.6-1.3-0.6
		c-0.9,0-1.6,0.7-1.6,1.7v0c0,0.9,0.7,1.7,1.6,1.7c0.6,0,1-0.3,1.3-0.7l0.3,0.2c-0.4,0.5-0.9,0.8-1.6,0.8
		C88.8,183.6,87.9,182.7,87.9,181.6z"/>
	<path class="st0" d="M92.3,182.4L92.3,182.4c0-0.8,0.7-1.3,1.7-1.3c0.5,0,0.9,0.1,1.3,0.2v-0.2c0-0.8-0.5-1.2-1.3-1.2
		c-0.5,0-0.9,0.1-1.2,0.3l-0.1-0.3c0.4-0.2,0.9-0.3,1.4-0.3c0.5,0,1,0.1,1.2,0.4c0.3,0.3,0.4,0.6,0.4,1.1v2.4h-0.4v-0.7
		c-0.3,0.4-0.8,0.7-1.5,0.7C93.1,183.6,92.3,183.2,92.3,182.4z M95.3,182v-0.4c-0.3-0.1-0.8-0.2-1.3-0.2c-0.8,0-1.3,0.4-1.3,0.9v0
		c0,0.6,0.5,0.9,1.1,0.9C94.6,183.2,95.3,182.7,95.3,182z"/>
</g>
<g>
	<path class="st0" d="M99.3,179.6h0.4v0.9c0.3-0.5,0.8-1,1.6-1c0.9,0,1.9,0.8,1.9,2v0c0,1.3-1,2.1-1.9,2.1c-0.8,0-1.3-0.4-1.6-0.9
		v2.1h-0.4V179.6z M102.8,181.6L102.8,181.6c0-1-0.7-1.7-1.5-1.7c-0.8,0-1.6,0.7-1.6,1.7v0c0,1,0.8,1.7,1.6,1.7
		C102.1,183.2,102.8,182.6,102.8,181.6z"/>
	<path class="st0" d="M104.1,181.5L104.1,181.5c0-1.2,0.8-2.1,1.9-2.1c1.1,0,1.8,0.9,1.8,2.1c0,0.1,0,0.1,0,0.2h-3.3
		c0.1,1,0.8,1.5,1.5,1.5c0.6,0,1-0.3,1.3-0.6l0.3,0.2c-0.4,0.4-0.9,0.7-1.6,0.7C105,183.6,104.1,182.8,104.1,181.5z M107.4,181.4
		c-0.1-0.8-0.5-1.5-1.4-1.5c-0.8,0-1.4,0.7-1.4,1.5H107.4z"/>
	<path class="st0" d="M108.9,179.6h0.4v1.1c0.3-0.7,1-1.2,1.7-1.2v0.4h0c-0.9,0-1.7,0.7-1.7,2v1.6h-0.4V179.6z"/>
	<path class="st0" d="M114.3,179.6h0.4v0.7c0.3-0.5,0.7-0.8,1.4-0.8c1,0,1.6,0.7,1.6,1.6v2.4h-0.4v-2.3c0-0.8-0.5-1.3-1.2-1.3
		c-0.8,0-1.4,0.6-1.4,1.4v2.3h-0.4V179.6z"/>
	<path class="st0" d="M118.7,181.6L118.7,181.6c0-1.1,0.9-2.1,2-2.1c1.2,0,2,0.9,2,2v0c0,1.1-0.9,2.1-2,2.1
		C119.6,183.6,118.7,182.7,118.7,181.6z M122.4,181.6L122.4,181.6c0-1-0.7-1.7-1.6-1.7c-0.9,0-1.6,0.8-1.6,1.7v0
		c0,0.9,0.7,1.7,1.6,1.7C121.7,183.2,122.4,182.5,122.4,181.6z"/>
	<path class="st0" d="M123.9,178h0.5v0.5h-0.5V178z M124,179.6h0.4v3.9H124V179.6z"/>
	<path class="st0" d="M127.9,181.5L127.9,181.5c0-1.2,0.8-2.1,1.9-2.1c1.1,0,1.8,0.9,1.8,2.1c0,0.1,0,0.1,0,0.2h-3.3
		c0.1,1,0.8,1.5,1.5,1.5c0.6,0,1-0.3,1.3-0.6l0.3,0.2c-0.4,0.4-0.9,0.7-1.6,0.7C128.8,183.6,127.9,182.8,127.9,181.5z M131.2,181.4
		c-0.1-0.8-0.5-1.5-1.4-1.5c-0.8,0-1.4,0.7-1.4,1.5H131.2z M128.8,178.1l0.5-0.2l0.7,1h-0.3L128.8,178.1z"/>
</g>
<g>
	<path class="st0" d="M40,197.1L40,197.1c0-3.9,3-7.1,6.9-7.1c2.5,0,4.1,1.1,5.4,2.5l-0.4,0.4c-1.2-1.3-2.8-2.4-5-2.4
		c-3.6,0-6.3,3-6.3,6.5v0.1c0,3.5,2.8,6.6,6.3,6.6c2.3,0,3.9-1.2,5.1-2.5l0.4,0.4c-1.3,1.5-3,2.7-5.5,2.7
		C43.1,204.2,40,200.9,40,197.1z"/>
	<path class="st0" d="M56.2,190.3h0.6v4.3c0.6-2.2,2.6-4.7,5.6-4.7v0.5h-0.1c-3.4,0-5.4,3.7-5.4,6.3v7h-0.6V190.3z"/>
	<path class="st0" d="M63.6,197.1L63.6,197.1c0-4.1,2.7-7.1,6.5-7.1c4.3,0,6.2,3.8,6.2,7.1v0.1H64.3c0.1,3.9,2.8,6.4,6.2,6.4
		c2.1,0,3.9-1.2,5-2.7l0.5,0.3c-1.2,1.7-3.1,3-5.5,3C66.7,204.2,63.6,201.4,63.6,197.1z M75.7,196.7c-0.1-3.1-2.1-6.2-5.6-6.2
		c-3.4,0-5.7,2.7-5.8,6.2H75.7z"/>
	<path class="st0" d="M79.2,200.1L79.2,200.1c0-2.9,2.7-4.4,6-4.4c1.9,0,3.7,0.4,5.1,0.8v-1.1c0-3.3-1.9-4.8-5.1-4.8
		c-1.7,0-3.1,0.5-4.5,1.1l-0.2-0.5c1.5-0.7,3-1.2,4.7-1.2c1.9,0,3.3,0.5,4.3,1.5c0.8,0.8,1.3,2.2,1.3,3.8v8.4h-0.6v-3.2
		c-0.6,1.6-2.6,3.5-6.1,3.5C81.7,204.2,79.2,202.8,79.2,200.1z M90.4,198.9v-1.7c-1.4-0.5-3-0.9-5.1-0.9c-3.1,0-5.5,1.2-5.5,3.7v0.1
		c0,2.4,2.1,3.5,4.5,3.5C88,203.6,90.4,201.3,90.4,198.9z"/>
	<path class="st0" d="M96.3,200.4v-9.6h-2.1v-0.5h2.1v-4.7h0.6v4.7h5v0.5h-5v9.5c0,2,1,3.2,2.9,3.2c0.7,0,1.4-0.2,2.1-0.5v0.6
		c-0.7,0.3-1.4,0.4-2.1,0.4C97.5,204.1,96.3,202.7,96.3,200.4z"/>
	<path class="st0" d="M105.7,184.9h0.8v1.5h-0.8V184.9z M105.8,190.3h0.6v13.5h-0.6V190.3z"/>
	<path class="st0" d="M110.2,190.3h0.6l5.9,12.9l5.8-12.9h0.6l-6.2,13.6h-0.4L110.2,190.3z"/>
	<path class="st0" d="M125,200.1L125,200.1c0-2.9,2.7-4.4,6-4.4c1.9,0,3.7,0.4,5.1,0.8v-1.1c0-3.3-1.9-4.8-5.1-4.8
		c-1.7,0-3.1,0.5-4.5,1.1l-0.2-0.5c1.5-0.7,3-1.2,4.7-1.2c1.9,0,3.3,0.5,4.3,1.5c0.8,0.8,1.3,2.2,1.3,3.8v8.4h-0.6v-3.2
		c-0.6,1.6-2.6,3.5-6.1,3.5C127.4,204.2,125,202.8,125,200.1z M136.1,198.9v-1.7c-1.4-0.5-3-0.9-5.1-0.9c-3.1,0-5.5,1.2-5.5,3.7v0.1
		c0,2.4,2.1,3.5,4.5,3.5C133.7,203.6,136.1,201.3,136.1,198.9z"/>
</g>
<g>
	<path class="st0" d="M139.3,204.5c0.3-0.2,0.5-0.3,0.4-0.6h-0.2v-0.7h0.5v0.6c0,0.5-0.2,0.7-0.6,0.9L139.3,204.5z"/>
</g>
<g>
	<path class="st0" d="M36.8,213.6L36.8,213.6c0-0.8,0.7-1.3,1.7-1.3c0.5,0,0.9,0.1,1.3,0.2v-0.2c0-0.8-0.5-1.2-1.3-1.2
		c-0.5,0-0.9,0.1-1.2,0.3l-0.1-0.3c0.4-0.2,0.9-0.3,1.4-0.3c0.5,0,1,0.1,1.2,0.4c0.3,0.3,0.4,0.6,0.4,1.1v2.5h-0.4v-0.7
		c-0.3,0.4-0.8,0.7-1.5,0.7C37.6,214.8,36.8,214.4,36.8,213.6z M39.9,213.3v-0.4c-0.3-0.1-0.8-0.2-1.3-0.2c-0.8,0-1.3,0.4-1.3,0.9v0
		c0,0.6,0.5,0.9,1.1,0.9C39.2,214.5,39.9,214,39.9,213.3z"/>
	<path class="st0" d="M41.6,210.8H42v0.9c0.3-0.5,0.8-1,1.6-1c0.9,0,1.9,0.8,1.9,2v0c0,1.3-1,2.1-1.9,2.1c-0.8,0-1.3-0.4-1.6-0.9
		v2.1h-0.4V210.8z M45.1,212.8L45.1,212.8c0-1-0.7-1.7-1.5-1.7c-0.8,0-1.6,0.7-1.6,1.7v0c0,1,0.8,1.7,1.6,1.7
		C44.4,214.5,45.1,213.8,45.1,212.8z"/>
	<path class="st0" d="M46.7,210.8h0.4v0.9c0.3-0.5,0.8-1,1.6-1c0.9,0,1.9,0.8,1.9,2v0c0,1.3-1,2.1-1.9,2.1c-0.8,0-1.3-0.4-1.6-0.9
		v2.1h-0.4V210.8z M50.2,212.8L50.2,212.8c0-1-0.7-1.7-1.5-1.7c-0.8,0-1.6,0.7-1.6,1.7v0c0,1,0.8,1.7,1.6,1.7
		C49.5,214.5,50.2,213.8,50.2,212.8z"/>
	<path class="st0" d="M51.4,213.6L51.4,213.6c0-0.8,0.7-1.3,1.7-1.3c0.5,0,0.9,0.1,1.3,0.2v-0.2c0-0.8-0.5-1.2-1.3-1.2
		c-0.5,0-0.9,0.1-1.2,0.3l-0.1-0.3c0.4-0.2,0.9-0.3,1.4-0.3c0.5,0,1,0.1,1.2,0.4c0.3,0.3,0.4,0.6,0.4,1.1v2.5h-0.4v-0.7
		c-0.3,0.4-0.8,0.7-1.5,0.7C52.2,214.8,51.4,214.4,51.4,213.6z M54.5,213.3v-0.4c-0.3-0.1-0.8-0.2-1.3-0.2c-0.8,0-1.3,0.4-1.3,0.9v0
		c0,0.6,0.5,0.9,1.1,0.9C53.8,214.5,54.5,214,54.5,213.3z"/>
	<path class="st0" d="M55.9,214.2l0.2-0.3c0.4,0.3,0.9,0.5,1.4,0.5c0.5,0,0.9-0.3,0.9-0.7v0c0-0.5-0.5-0.6-1-0.8
		c-0.6-0.2-1.3-0.4-1.3-1.1v0c0-0.6,0.5-1.1,1.3-1.1c0.5,0,1,0.2,1.4,0.4l-0.2,0.3c-0.4-0.2-0.8-0.4-1.2-0.4c-0.5,0-0.9,0.3-0.9,0.7
		v0c0,0.4,0.5,0.6,1.1,0.8c0.6,0.2,1.3,0.4,1.3,1.1v0c0,0.7-0.6,1.1-1.4,1.1C56.9,214.8,56.3,214.6,55.9,214.2z"/>
	<path class="st0" d="M59.6,214.2l0.2-0.3c0.4,0.3,0.9,0.5,1.4,0.5c0.5,0,0.9-0.3,0.9-0.7v0c0-0.5-0.5-0.6-1-0.8
		c-0.6-0.2-1.3-0.4-1.3-1.1v0c0-0.6,0.5-1.1,1.3-1.1c0.5,0,1,0.2,1.4,0.4l-0.2,0.3c-0.4-0.2-0.8-0.4-1.2-0.4c-0.5,0-0.9,0.3-0.9,0.7
		v0c0,0.4,0.5,0.6,1.1,0.8c0.6,0.2,1.3,0.4,1.3,1.1v0c0,0.7-0.6,1.1-1.4,1.1C60.6,214.8,60,214.6,59.6,214.2z"/>
	<path class="st0" d="M63.8,209.3h0.5v0.5h-0.5V209.3z M63.8,210.8h0.4v3.9h-0.4V210.8z"/>
	<path class="st0" d="M65.4,212.8L65.4,212.8c0-1.1,0.9-2.1,2-2.1c1.2,0,2,0.9,2,2v0c0,1.1-0.9,2.1-2,2.1
		C66.3,214.8,65.4,213.9,65.4,212.8z M69.1,212.8L69.1,212.8c0-1-0.7-1.7-1.6-1.7c-0.9,0-1.6,0.8-1.6,1.7v0c0,0.9,0.7,1.7,1.6,1.7
		C68.4,214.5,69.1,213.7,69.1,212.8z"/>
	<path class="st0" d="M70.6,210.8H71v0.7c0.3-0.5,0.7-0.8,1.4-0.8c1,0,1.6,0.7,1.6,1.6v2.4h-0.4v-2.3c0-0.8-0.5-1.3-1.2-1.3
		c-0.8,0-1.4,0.6-1.4,1.4v2.3h-0.4V210.8z"/>
	<path class="st0" d="M75,213.6L75,213.6c0-0.8,0.7-1.3,1.7-1.3c0.5,0,0.9,0.1,1.3,0.2v-0.2c0-0.8-0.5-1.2-1.3-1.2
		c-0.5,0-0.9,0.1-1.2,0.3l-0.1-0.3c0.4-0.2,0.9-0.3,1.4-0.3c0.5,0,1,0.1,1.2,0.4c0.3,0.3,0.4,0.6,0.4,1.1v2.5H78v-0.7
		c-0.3,0.4-0.8,0.7-1.5,0.7C75.8,214.8,75,214.4,75,213.6z M78.1,213.3v-0.4c-0.3-0.1-0.8-0.2-1.3-0.2c-0.8,0-1.3,0.4-1.3,0.9v0
		c0,0.6,0.5,0.9,1.1,0.9C77.4,214.5,78.1,214,78.1,213.3z"/>
	<path class="st0" d="M79.8,210.8h0.4v0.7c0.3-0.5,0.7-0.8,1.4-0.8c1,0,1.6,0.7,1.6,1.6v2.4h-0.4v-2.3c0-0.8-0.5-1.3-1.2-1.3
		c-0.8,0-1.4,0.6-1.4,1.4v2.3h-0.4V210.8z"/>
	<path class="st0" d="M84.7,213.7v-2.6h-0.6v-0.3h0.6v-1.3h0.4v1.3h1.4v0.3h-1.4v2.5c0,0.6,0.3,0.8,0.8,0.8c0.2,0,0.4,0,0.6-0.1v0.4
		c-0.2,0.1-0.4,0.1-0.6,0.1C85.2,214.8,84.7,214.5,84.7,213.7z"/>
	<path class="st0" d="M87.2,212.8L87.2,212.8c0-1.2,0.8-2.1,1.9-2.1c1.1,0,1.8,0.9,1.8,2.1c0,0.1,0,0.1,0,0.2h-3.3
		c0.1,1,0.8,1.5,1.5,1.5c0.6,0,1-0.3,1.3-0.6l0.3,0.2c-0.4,0.4-0.9,0.7-1.6,0.7C88.1,214.8,87.2,214,87.2,212.8z M90.5,212.6
		c-0.1-0.8-0.5-1.5-1.4-1.5c-0.8,0-1.4,0.7-1.4,1.5H90.5z"/>
	<path class="st0" d="M91.6,215.4c0.3-0.2,0.5-0.3,0.4-0.6h-0.2v-0.7h0.5v0.6c0,0.5-0.2,0.7-0.6,0.9L91.6,215.4z"/>
	<path class="st0" d="M96,209.3h0.5v0.5H96V209.3z M96,210.8h0.4v3.9H96V210.8z"/>
	<path class="st0" d="M97.9,210.8h0.4v0.7c0.3-0.5,0.7-0.8,1.4-0.8c1,0,1.6,0.7,1.6,1.6v2.4h-0.4v-2.3c0-0.8-0.5-1.3-1.2-1.3
		c-0.8,0-1.4,0.6-1.4,1.4v2.3h-0.4V210.8z"/>
	<path class="st0" d="M102.8,213.7v-2.6h-0.6v-0.3h0.6v-1.3h0.4v1.3h1.4v0.3h-1.4v2.5c0,0.6,0.3,0.8,0.8,0.8c0.2,0,0.4,0,0.6-0.1
		v0.4c-0.2,0.1-0.4,0.1-0.6,0.1C103.3,214.8,102.8,214.5,102.8,213.7z"/>
	<path class="st0" d="M105.3,212.8L105.3,212.8c0-1.2,0.8-2.1,1.9-2.1c1.1,0,1.8,0.9,1.8,2.1c0,0.1,0,0.1,0,0.2h-3.3
		c0.1,1,0.8,1.5,1.5,1.5c0.6,0,1-0.3,1.3-0.6l0.3,0.2c-0.4,0.4-0.9,0.7-1.6,0.7C106.2,214.8,105.3,214,105.3,212.8z M108.6,212.6
		c-0.1-0.8-0.5-1.5-1.4-1.5c-0.8,0-1.4,0.7-1.4,1.5H108.6z"/>
	<path class="st0" d="M110.1,210.8h0.4v1.1c0.3-0.7,1-1.2,1.7-1.2v0.4h0c-0.9,0-1.7,0.7-1.7,2v1.6h-0.4V210.8z"/>
	<path class="st0" d="M112.7,212.8L112.7,212.8c0-1.2,0.8-2.1,1.9-2.1c1.1,0,1.8,0.9,1.8,2.1c0,0.1,0,0.1,0,0.2h-3.3
		c0.1,1,0.8,1.5,1.5,1.5c0.6,0,1-0.3,1.3-0.6l0.3,0.2c-0.4,0.4-0.9,0.7-1.6,0.7C113.6,214.8,112.7,214,112.7,212.8z M116,212.6
		c-0.1-0.8-0.5-1.5-1.4-1.5c-0.8,0-1.4,0.7-1.4,1.5H116z"/>
	<path class="st0" d="M117.2,214.2l0.2-0.3c0.4,0.3,0.9,0.5,1.4,0.5c0.5,0,0.9-0.3,0.9-0.7v0c0-0.5-0.5-0.6-1-0.8
		c-0.6-0.2-1.3-0.4-1.3-1.1v0c0-0.6,0.5-1.1,1.3-1.1c0.5,0,1,0.2,1.4,0.4l-0.2,0.3c-0.4-0.2-0.8-0.4-1.2-0.4c-0.5,0-0.9,0.3-0.9,0.7
		v0c0,0.4,0.5,0.6,1.1,0.8c0.6,0.2,1.3,0.4,1.3,1.1v0c0,0.7-0.6,1.1-1.4,1.1C118.2,214.8,117.6,214.6,117.2,214.2z"/>
	<path class="st0" d="M120.9,214.2l0.2-0.3c0.4,0.3,0.9,0.5,1.4,0.5c0.5,0,0.9-0.3,0.9-0.7v0c0-0.5-0.5-0.6-1-0.8
		c-0.6-0.2-1.3-0.4-1.3-1.1v0c0-0.6,0.5-1.1,1.3-1.1c0.5,0,1,0.2,1.4,0.4l-0.2,0.3c-0.4-0.2-0.8-0.4-1.2-0.4c-0.5,0-0.9,0.3-0.9,0.7
		v0c0,0.4,0.5,0.6,1.1,0.8c0.6,0.2,1.3,0.4,1.3,1.1v0c0,0.7-0.6,1.1-1.4,1.1C121.9,214.8,121.3,214.6,120.9,214.2z"/>
	<path class="st0" d="M124.8,213.6L124.8,213.6c0-0.8,0.7-1.3,1.7-1.3c0.5,0,0.9,0.1,1.3,0.2v-0.2c0-0.8-0.5-1.2-1.3-1.2
		c-0.5,0-0.9,0.1-1.2,0.3l-0.1-0.3c0.4-0.2,0.9-0.3,1.4-0.3c0.5,0,1,0.1,1.2,0.4c0.3,0.3,0.4,0.6,0.4,1.1v2.5h-0.4v-0.7
		c-0.3,0.4-0.8,0.7-1.5,0.7C125.5,214.8,124.8,214.4,124.8,213.6z M127.8,213.3v-0.4c-0.3-0.1-0.8-0.2-1.3-0.2
		c-0.8,0-1.3,0.4-1.3,0.9v0c0,0.6,0.5,0.9,1.1,0.9C127.1,214.5,127.8,214,127.8,213.3z"/>
	<path class="st0" d="M129.5,210.8h0.4v0.7c0.3-0.5,0.7-0.8,1.4-0.8c1,0,1.6,0.7,1.6,1.6v2.4h-0.4v-2.3c0-0.8-0.5-1.3-1.2-1.3
		c-0.8,0-1.4,0.6-1.4,1.4v2.3h-0.4V210.8z"/>
	<path class="st0" d="M134.4,213.7v-2.6h-0.6v-0.3h0.6v-1.3h0.4v1.3h1.4v0.3h-1.4v2.5c0,0.6,0.3,0.8,0.8,0.8c0.2,0,0.4,0,0.6-0.1
		v0.4c-0.2,0.1-0.4,0.1-0.6,0.1C134.9,214.8,134.4,214.5,134.4,213.7z"/>
	<path class="st0" d="M136.9,212.8L136.9,212.8c0-1.2,0.8-2.1,1.9-2.1c1.1,0,1.8,0.9,1.8,2.1c0,0.1,0,0.1,0,0.2h-3.3
		c0.1,1,0.8,1.5,1.5,1.5c0.6,0,1-0.3,1.3-0.6l0.3,0.2c-0.4,0.4-0.9,0.7-1.6,0.7C137.8,214.8,136.9,214,136.9,212.8z M140.2,212.6
		c-0.1-0.8-0.5-1.5-1.4-1.5c-0.8,0-1.4,0.7-1.4,1.5H140.2z"/>
	<path class="st0" d="M141.3,215.4c0.3-0.2,0.5-0.3,0.4-0.6h-0.2v-0.7h0.5v0.6c0,0.5-0.2,0.7-0.6,0.9L141.3,215.4z"/>
</g>
<g>
	<path class="st0" d="M31.9,223.7L31.9,223.7c0-1.2,0.8-2.1,1.9-2.1c1.1,0,1.8,0.9,1.8,2.1c0,0.1,0,0.1,0,0.2h-3.3
		c0.1,1,0.8,1.5,1.5,1.5c0.6,0,1-0.3,1.3-0.6l0.3,0.2c-0.4,0.4-0.9,0.7-1.6,0.7C32.8,225.7,31.9,224.9,31.9,223.7z M35.2,223.5
		c-0.1-0.8-0.5-1.5-1.4-1.5c-0.8,0-1.4,0.7-1.4,1.5H35.2z M32.8,220.3l0.5-0.2l0.7,1h-0.3L32.8,220.3z"/>
	<path class="st0" d="M38.6,225.1l0.2-0.3c0.4,0.3,0.9,0.5,1.4,0.5c0.5,0,0.9-0.3,0.9-0.7v0c0-0.5-0.5-0.6-1-0.8
		c-0.6-0.2-1.3-0.4-1.3-1.1v0c0-0.6,0.5-1.1,1.3-1.1c0.5,0,1,0.2,1.4,0.4l-0.2,0.3c-0.4-0.2-0.8-0.4-1.2-0.4c-0.5,0-0.9,0.3-0.9,0.7
		v0c0,0.4,0.5,0.6,1.1,0.8c0.6,0.2,1.3,0.4,1.3,1.1v0c0,0.7-0.6,1.1-1.4,1.1C39.7,225.7,39.1,225.5,38.6,225.1z"/>
	<path class="st0" d="M42.5,223.7L42.5,223.7c0-1.1,0.9-2.1,2-2.1c0.7,0,1.2,0.3,1.6,0.7l-0.3,0.3c-0.3-0.3-0.7-0.6-1.3-0.6
		c-0.9,0-1.6,0.7-1.6,1.7v0c0,0.9,0.7,1.7,1.6,1.7c0.6,0,1-0.3,1.3-0.7l0.3,0.2c-0.4,0.5-0.9,0.8-1.6,0.8
		C43.4,225.7,42.5,224.8,42.5,223.7z"/>
	<path class="st0" d="M46.8,223.7L46.8,223.7c0-1.1,0.9-2.1,2-2.1c1.2,0,2,0.9,2,2v0c0,1.1-0.9,2.1-2,2.1
		C47.7,225.7,46.8,224.8,46.8,223.7z M50.4,223.7L50.4,223.7c0-1-0.7-1.7-1.6-1.7c-0.9,0-1.6,0.8-1.6,1.7v0c0,0.9,0.7,1.7,1.6,1.7
		C49.8,225.4,50.4,224.6,50.4,223.7z"/>
	<path class="st0" d="M52,221.7h0.4v0.9c0.3-0.5,0.8-1,1.6-1c0.9,0,1.9,0.8,1.9,2v0c0,1.3-1,2.1-1.9,2.1c-0.8,0-1.3-0.4-1.6-0.9v2.1
		H52V221.7z M55.5,223.7L55.5,223.7c0-1-0.7-1.7-1.5-1.7c-0.8,0-1.6,0.7-1.6,1.7v0c0,1,0.8,1.7,1.6,1.7
		C54.8,225.4,55.5,224.7,55.5,223.7z"/>
	<path class="st0" d="M56.8,223.7L56.8,223.7c0-1.2,0.8-2.1,1.9-2.1c1.1,0,1.8,0.9,1.8,2.1c0,0.1,0,0.1,0,0.2h-3.3
		c0.1,1,0.8,1.5,1.5,1.5c0.6,0,1-0.3,1.3-0.6l0.3,0.2c-0.4,0.4-0.9,0.7-1.6,0.7C57.7,225.7,56.8,224.9,56.8,223.7z M60.1,223.5
		c-0.1-0.8-0.5-1.5-1.4-1.5c-0.8,0-1.4,0.7-1.4,1.5H60.1z"/>
	<path class="st0" d="M61.6,221.7H62v1.1c0.3-0.7,1-1.2,1.7-1.2v0.4h0c-0.9,0-1.7,0.7-1.7,2v1.6h-0.4V221.7z"/>
	<path class="st0" d="M64.9,224.6v-2.6h-0.6v-0.3h0.6v-1.3h0.4v1.3h1.4v0.3h-1.4v2.5c0,0.6,0.3,0.8,0.8,0.8c0.2,0,0.4,0,0.6-0.1v0.4
		c-0.2,0.1-0.4,0.1-0.6,0.1C65.4,225.7,64.9,225.4,64.9,224.6z"/>
	<path class="st0" d="M67.4,224.5L67.4,224.5c0-0.8,0.7-1.3,1.7-1.3c0.5,0,0.9,0.1,1.3,0.2v-0.2c0-0.8-0.5-1.2-1.3-1.2
		c-0.5,0-0.9,0.1-1.2,0.3l-0.1-0.3c0.4-0.2,0.9-0.3,1.4-0.3c0.5,0,1,0.1,1.2,0.4c0.3,0.3,0.4,0.6,0.4,1.1v2.5h-0.4V225
		c-0.3,0.4-0.8,0.7-1.5,0.7C68.2,225.7,67.4,225.3,67.4,224.5z M70.5,224.2v-0.4c-0.3-0.1-0.8-0.2-1.3-0.2c-0.8,0-1.3,0.4-1.3,0.9v0
		c0,0.6,0.5,0.9,1.1,0.9C69.8,225.4,70.5,224.9,70.5,224.2z"/>
	<path class="st0" d="M71.9,226.3c0.3-0.2,0.5-0.3,0.4-0.6h-0.2V225h0.5v0.6c0,0.5-0.2,0.7-0.6,0.9L71.9,226.3z"/>
	<path class="st0" d="M75.9,225.1l0.2-0.3c0.4,0.3,0.9,0.5,1.4,0.5c0.5,0,0.9-0.3,0.9-0.7v0c0-0.5-0.5-0.6-1-0.8
		c-0.6-0.2-1.3-0.4-1.3-1.1v0c0-0.6,0.5-1.1,1.3-1.1c0.5,0,1,0.2,1.4,0.4l-0.2,0.3c-0.4-0.2-0.8-0.4-1.2-0.4c-0.5,0-0.9,0.3-0.9,0.7
		v0c0,0.4,0.5,0.6,1.1,0.8c0.6,0.2,1.3,0.4,1.3,1.1v0c0,0.7-0.6,1.1-1.4,1.1C77,225.7,76.4,225.5,75.9,225.1z"/>
	<path class="st0" d="M80.2,224.6v-2.6h-0.6v-0.3h0.6v-1.3h0.4v1.3H82v0.3h-1.4v2.5c0,0.6,0.3,0.8,0.8,0.8c0.2,0,0.4,0,0.6-0.1v0.4
		c-0.2,0.1-0.4,0.1-0.6,0.1C80.7,225.7,80.2,225.4,80.2,224.6z"/>
	<path class="st0" d="M83,224.1v-2.4h0.4v2.3c0,0.8,0.5,1.3,1.2,1.3c0.8,0,1.4-0.6,1.4-1.4v-2.3h0.4v3.9H86v-0.7
		c-0.3,0.5-0.7,0.8-1.4,0.8C83.6,225.7,83,225,83,224.1z"/>
	<path class="st0" d="M87.8,221.7h0.4v0.9c0.3-0.5,0.8-1,1.6-1c0.9,0,1.9,0.8,1.9,2v0c0,1.3-1,2.1-1.9,2.1c-0.8,0-1.3-0.4-1.6-0.9
		v2.1h-0.4V221.7z M91.3,223.7L91.3,223.7c0-1-0.7-1.7-1.5-1.7c-0.8,0-1.6,0.7-1.6,1.7v0c0,1,0.8,1.7,1.6,1.7
		C90.7,225.4,91.3,224.7,91.3,223.7z"/>
	<path class="st0" d="M92.7,223.7L92.7,223.7c0-1.1,0.9-2.1,2-2.1c1.2,0,2,0.9,2,2v0c0,1.1-0.9,2.1-2,2.1
		C93.5,225.7,92.7,224.8,92.7,223.7z M96.3,223.7L96.3,223.7c0-1-0.7-1.7-1.6-1.7c-0.9,0-1.6,0.8-1.6,1.7v0c0,0.9,0.7,1.7,1.6,1.7
		C95.6,225.4,96.3,224.6,96.3,223.7z"/>
	<path class="st0" d="M97.9,221.7h0.4v1.1c0.3-0.7,1-1.2,1.7-1.2v0.4h0c-0.9,0-1.7,0.7-1.7,2v1.6h-0.4V221.7z"/>
	<path class="st0" d="M100.5,223.7L100.5,223.7c0-1.2,0.8-2.1,1.9-2.1c1.1,0,1.8,0.9,1.8,2.1c0,0.1,0,0.1,0,0.2h-3.3
		c0.1,1,0.8,1.5,1.5,1.5c0.6,0,1-0.3,1.3-0.6l0.3,0.2c-0.4,0.4-0.9,0.7-1.6,0.7C101.4,225.7,100.5,224.9,100.5,223.7z M103.7,223.5
		c-0.1-0.8-0.5-1.5-1.4-1.5c-0.8,0-1.4,0.7-1.4,1.5H103.7z"/>
	<path class="st0" d="M104.9,226.3c0.3-0.2,0.5-0.3,0.4-0.6h-0.2V225h0.5v0.6c0,0.5-0.2,0.7-0.6,0.9L104.9,226.3z"/>
	<path class="st0" d="M109,223.7L109,223.7c0-1.1,0.9-2.1,2-2.1c0.7,0,1.2,0.3,1.6,0.7l-0.3,0.3c-0.3-0.3-0.7-0.6-1.3-0.6
		c-0.9,0-1.6,0.7-1.6,1.7v0c0,0.9,0.7,1.7,1.6,1.7c0.6,0,1-0.3,1.3-0.7l0.3,0.2c-0.4,0.5-0.9,0.8-1.6,0.8
		C109.9,225.7,109,224.8,109,223.7z"/>
	<path class="st0" d="M113.6,224.1v-2.4h0.4v2.3c0,0.8,0.5,1.3,1.2,1.3c0.8,0,1.4-0.6,1.4-1.4v-2.3h0.4v3.9h-0.4v-0.7
		c-0.3,0.5-0.7,0.8-1.4,0.8C114.2,225.7,113.6,225,113.6,224.1z"/>
	<path class="st0" d="M118.4,221.7h0.4v1.1c0.3-0.7,1-1.2,1.7-1.2v0.4h0c-0.9,0-1.7,0.7-1.7,2v1.6h-0.4V221.7z"/>
	<path class="st0" d="M121.5,220.2h0.5v0.5h-0.5V220.2z M121.5,221.7h0.4v3.9h-0.4V221.7z"/>
	<path class="st0" d="M123.1,223.7L123.1,223.7c0-1.1,0.9-2.1,2-2.1c1.2,0,2,0.9,2,2v0c0,1.1-0.9,2.1-2,2.1
		C124,225.7,123.1,224.8,123.1,223.7z M126.7,223.7L126.7,223.7c0-1-0.7-1.7-1.6-1.7c-0.9,0-1.6,0.8-1.6,1.7v0
		c0,0.9,0.7,1.7,1.6,1.7C126.1,225.4,126.7,224.6,126.7,223.7z"/>
	<path class="st0" d="M128,225.1l0.2-0.3c0.4,0.3,0.9,0.5,1.4,0.5c0.5,0,0.9-0.3,0.9-0.7v0c0-0.5-0.5-0.6-1-0.8
		c-0.6-0.2-1.3-0.4-1.3-1.1v0c0-0.6,0.5-1.1,1.3-1.1c0.5,0,1,0.2,1.4,0.4l-0.2,0.3c-0.4-0.2-0.8-0.4-1.2-0.4c-0.5,0-0.9,0.3-0.9,0.7
		v0c0,0.4,0.5,0.6,1.1,0.8c0.6,0.2,1.3,0.4,1.3,1.1v0c0,0.7-0.6,1.1-1.4,1.1C129,225.7,128.4,225.5,128,225.1z"/>
	<path class="st0" d="M132.2,220.2h0.5v0.5h-0.5V220.2z M132.2,221.7h0.4v3.9h-0.4V221.7z"/>
	<path class="st0" d="M134.3,224.6v-2.6h-0.6v-0.3h0.6v-1.3h0.4v1.3h1.4v0.3h-1.4v2.5c0,0.6,0.3,0.8,0.8,0.8c0.2,0,0.4,0,0.6-0.1
		v0.4c-0.2,0.1-0.4,0.1-0.6,0.1C134.8,225.7,134.3,225.4,134.3,224.6z"/>
	<path class="st0" d="M136.8,224.5L136.8,224.5c0-0.8,0.7-1.3,1.7-1.3c0.5,0,0.9,0.1,1.3,0.2v-0.2c0-0.8-0.5-1.2-1.3-1.2
		c-0.5,0-0.9,0.1-1.2,0.3l-0.1-0.3c0.4-0.2,0.9-0.3,1.4-0.3c0.5,0,1,0.1,1.2,0.4c0.3,0.3,0.4,0.6,0.4,1.1v2.5h-0.4V225
		c-0.3,0.4-0.8,0.7-1.5,0.7C137.6,225.7,136.8,225.3,136.8,224.5z M139.9,224.2v-0.4c-0.3-0.1-0.8-0.2-1.3-0.2
		c-0.8,0-1.3,0.4-1.3,0.9v0c0,0.6,0.5,0.9,1.1,0.9C139.2,225.4,139.9,224.9,139.9,224.2z M137.7,220.3l0.5-0.2l0.7,1h-0.3
		L137.7,220.3z"/>
	<path class="st0" d="M143.6,223.7L143.6,223.7c0-1.2,0.8-2.1,1.9-2.1c1.1,0,1.8,0.9,1.8,2.1c0,0.1,0,0.1,0,0.2H144
		c0.1,1,0.8,1.5,1.5,1.5c0.6,0,1-0.3,1.3-0.6l0.3,0.2c-0.4,0.4-0.9,0.7-1.6,0.7C144.5,225.7,143.6,224.9,143.6,223.7z M146.9,223.5
		c-0.1-0.8-0.5-1.5-1.4-1.5c-0.8,0-1.4,0.7-1.4,1.5H146.9z"/>
</g>
<g>
	<path class="st0" d="M1.2,247.6l0.4-0.5c1.5,1.2,3.4,1.9,5.1,1.9c2.4,0,4.3-1.2,4.3-3V246c0-2.1-2.2-2.7-4.4-3.3
		c-2.8-0.8-4.7-1.5-4.7-3.6V239c0-1.9,1.9-3.4,4.7-3.4c1.5,0,3.3,0.5,4.7,1.5l-0.3,0.5c-1.3-0.9-3-1.5-4.4-1.5
		c-2.5,0-4.1,1.3-4.1,2.9v0.1c0,1.8,1.9,2.5,4.3,3.1c2.7,0.7,4.9,1.5,4.9,3.8v0.1c0,2.1-2.1,3.6-4.9,3.6
		C4.8,249.6,2.7,248.9,1.2,247.6z"/>
	<path class="st0" d="M14.8,242.7L14.8,242.7c0-3.8,2.8-7.1,7-7.1c4.2,0,7,3.2,7,7v0.1c0,3.8-2.8,7.1-7,7.1
		C17.6,249.7,14.8,246.5,14.8,242.7z M28.3,242.6L28.3,242.6c0-3.6-2.7-6.6-6.5-6.6c-3.8,0-6.4,3-6.4,6.5v0.1c0,3.5,2.7,6.5,6.5,6.5
		C25.7,249.2,28.3,246.2,28.3,242.6z"/>
	<path class="st0" d="M32.1,242.6L32.1,242.6c0-4,2.8-7.1,6.8-7.1c3.1,0,5.5,1.9,6.3,4.5v-10.4h0.6v19.8h-0.6v-4.2
		c-0.8,2.6-3.1,4.5-6.3,4.5C34.9,249.7,32.1,246.6,32.1,242.6z M45.1,242.6L45.1,242.6c0-3.5-2.6-6.6-6.3-6.6
		c-3.7,0-6.2,2.9-6.2,6.5v0.1c0,3.6,2.5,6.6,6.2,6.6C42.5,249.2,45.1,246.2,45.1,242.6z"/>
	<path class="st0" d="M49.8,242.6L49.8,242.6c0-4,2.8-7.1,6.8-7.1c3.1,0,5.5,1.9,6.3,4.5v-10.4h0.6v19.8h-0.6v-4.2
		c-0.8,2.6-3.1,4.5-6.3,4.5C52.6,249.7,49.8,246.6,49.8,242.6z M62.8,242.6L62.8,242.6c0-3.5-2.6-6.6-6.3-6.6
		c-3.7,0-6.2,2.9-6.2,6.5v0.1c0,3.6,2.5,6.6,6.2,6.6C60.3,249.2,62.8,246.2,62.8,242.6z"/>
	<path class="st0" d="M68.4,230.4h0.8v1.5h-0.8V230.4z M68.6,235.8h0.6v13.5h-0.6V235.8z"/>
	<path class="st0" d="M73,247.6l0.4-0.5c1.5,1.2,3.4,1.9,5.1,1.9c2.4,0,4.3-1.2,4.3-3V246c0-2.1-2.2-2.7-4.4-3.3
		c-2.8-0.8-4.7-1.5-4.7-3.6V239c0-1.9,1.9-3.4,4.7-3.4c1.5,0,3.3,0.5,4.7,1.5l-0.3,0.5c-1.3-0.9-3-1.5-4.4-1.5
		c-2.5,0-4.1,1.3-4.1,2.9v0.1c0,1.8,1.9,2.5,4.3,3.1c2.7,0.7,4.9,1.5,4.9,3.8v0.1c0,2.1-2.1,3.6-4.9,3.6
		C76.6,249.6,74.5,248.9,73,247.6z"/>
	<path class="st0" d="M88.6,236.4h-2.1v-0.5h2.1v-1.9c0-1.5,0.4-2.7,1.1-3.4c0.6-0.6,1.5-0.9,2.6-0.9c0.8,0,1.4,0.1,1.9,0.4v0.6
		c-0.5-0.2-1.2-0.4-1.9-0.4c-1.9,0-3.1,1.2-3.1,3.9v1.8h5v0.5h-5v13h-0.6V236.4z"/>
	<path class="st0" d="M94.9,245.6L94.9,245.6c0-2.9,2.7-4.4,6-4.4c1.9,0,3.7,0.4,5.1,0.8V241c0-3.3-1.9-4.8-5.1-4.8
		c-1.7,0-3.1,0.5-4.5,1.1l-0.2-0.5c1.5-0.7,3-1.2,4.7-1.2c1.9,0,3.3,0.5,4.3,1.5c0.8,0.8,1.3,2.2,1.3,3.8v8.4H106v-3.2
		c-0.6,1.6-2.6,3.5-6.1,3.5C97.3,249.7,94.9,248.3,94.9,245.6z M106,244.4v-1.7c-1.4-0.5-3-0.9-5.1-0.9c-3.1,0-5.5,1.2-5.5,3.7v0.1
		c0,2.4,2.1,3.5,4.5,3.5C103.6,249.2,106,246.8,106,244.4z"/>
	<path class="st0" d="M109.8,249.1l10.3-12.7h-10v-0.5H121v0.3l-10.3,12.7H121v0.5h-11.2V249.1z"/>
	<path class="st0" d="M124.6,230.4h0.8v1.5h-0.8V230.4z M124.7,235.8h0.6v13.5h-0.6V235.8z"/>
	<path class="st0" d="M129.5,242.7L129.5,242.7c0-3.8,2.8-7.1,7-7.1c4.2,0,7,3.2,7,7v0.1c0,3.8-2.8,7.1-7,7.1
		C132.3,249.7,129.5,246.5,129.5,242.7z M143,242.6L143,242.6c0-3.6-2.7-6.6-6.5-6.6c-3.8,0-6.4,3-6.4,6.5v0.1
		c0,3.5,2.7,6.5,6.5,6.5C140.4,249.2,143,246.2,143,242.6z"/>
	<path class="st0" d="M147.6,235.8h0.6v3.7c0.4-1.7,2.2-4,5.4-4c3.7,0,5.7,2.5,5.7,6.2v7.7h-0.6v-7.6c0-3.4-1.8-5.7-5.2-5.7
		c-3,0-5.4,2.6-5.4,5.8v7.5h-0.6V235.8z"/>
	<path class="st0" d="M163.1,242.6L163.1,242.6c0-4.1,2.7-7.1,6.5-7.1c4.3,0,6.2,3.8,6.2,7.1v0.1h-12.1c0.1,3.9,2.8,6.4,6.2,6.4
		c2.1,0,3.9-1.2,5-2.7l0.5,0.3c-1.2,1.7-3.1,3-5.5,3C166.2,249.7,163.1,247,163.1,242.6z M175.2,242.3c-0.1-3.1-2.1-6.2-5.6-6.2
		c-3.4,0-5.7,2.7-5.8,6.2H175.2z"/>
</g>
<g>
	<path class="st0" d="M178,248.7h0.5v0.7H178V248.7z"/>
</g>
</svg>
