<?xml version="1.0" encoding="UTF-8" standalone="no"?><!DOCTYPE svg PUBLIC "-//W3C//DTD SVG 1.1//EN" "http://www.w3.org/Graphics/SVG/1.1/DTD/svg11.dtd"><svg width="100%" height="100%" viewBox="0 0 12500 8334" version="1.1" xmlns="http://www.w3.org/2000/svg" xmlns:xlink="http://www.w3.org/1999/xlink" xml:space="preserve" xmlns:serif="http://www.serif.com/" style="fill-rule:evenodd;clip-rule:evenodd;stroke-linejoin:round;stroke-miterlimit:2;"><g id="BACKGROUND"></g><g id="OBJECTS"><g><g><path d="M9672.92,3195.83c-797.084,-2450.42 -5080.83,-2557.08 -5410,192.5c-0,0 -253.75,50.417 -477.917,15.834c-1221.25,-187.084 -3358.75,2152.08 -1718.33,3939.58l9160.42,0c990.834,-1706.67 279.167,-3453.33 -1554.17,-4147.92Z" style="fill:#009cff;fill-opacity:0.29;fill-rule:nonzero;"/><g><g><g><path d="M7471.67,4730.42l-15.834,-15.417c1022.5,-1051.25 1062.92,-1626.25 1124.58,-2496.25c21.666,-308.333 46.25,-656.667 117.083,-1077.5c-484.167,225 -876.667,536.667 -1167.08,926.667c-235,316.25 -404.167,684.166 -502.084,1093.75c-167.083,698.333 -68.333,1282.92 -67.5,1288.75l-21.666,3.75c-0.834,-5.834 -100.417,-594.584 67.5,-1297.08c98.75,-412.916 268.75,-783.75 505.833,-1102.08c296.25,-398.333 698.333,-715.417 1194.58,-942.917l19.167,-8.75l-3.333,20.417c-73.334,428.75 -98.334,783.333 -120.417,1095.83c-61.667,875.834 -102.5,1454.17 -1130.83,2510.83Z" style="fill:#009cff;fill-opacity:0.29;fill-rule:nonzero;"/><g><path d="M7279.17,4504.58l-21.25,-5.416c4.166,-15.834 411.25,-1587.5 923.333,-2460l19.167,11.25c-510.834,870 -917.5,2438.75 -921.25,2454.17Z" style="fill:#009cff;fill-opacity:0.29;fill-rule:nonzero;"/><path d="M7843.75,2777.92l-22.083,-0.834c-0,-3.333 9.166,-318.75 -155.417,-622.5l19.583,-10.416c167.5,309.166 157.917,630.416 157.917,633.75Z" style="fill:#009cff;fill-opacity:0.29;fill-rule:nonzero;"/><path d="M7608.75,3417.08l-15.417,-15.833c234.167,-232.5 540.417,-304.583 543.334,-305.417l5,21.667c-3.334,0.833 -303.334,71.25 -532.917,299.583Z" style="fill:#009cff;fill-opacity:0.29;fill-rule:nonzero;"/></g></g><g><path d="M8249.58,5404.17l-2.083,-22.084c398.75,-39.583 722.083,-306.666 988.75,-816.666c236.25,-452.084 398.333,-1029.17 555.417,-1587.92c101.666,-362.083 197.916,-704.583 310.416,-1000.83c-1147.5,286.666 -1622.92,1196.25 -1627.5,1205.42l-19.583,-10c4.583,-9.166 490,-938.333 1662.5,-1222.08l20.417,-5l-7.5,19.583c-115,300 -213.334,649.167 -317.084,1018.75c-157.083,559.584 -319.583,1137.92 -557.083,1592.08c-271.25,517.5 -600,788.333 -1006.67,828.75Z" style="fill:#009cff;fill-opacity:0.29;fill-rule:nonzero;"/><path d="M8151.67,4862.5l-20,-8.75c6.666,-15 676.666,-1515.83 1240,-1952.5l13.333,17.5c-230.833,178.75 -517.083,571.667 -827.917,1135.42c-235.416,426.666 -403.75,804.583 -405.416,808.333Z" style="fill:#009cff;fill-opacity:0.29;fill-rule:nonzero;"/><path d="M8892.5,3486.25l-21.667,-4.167c0.417,-1.666 31.25,-171.666 59.167,-582.083l22.083,1.667c-27.916,411.666 -59.583,582.916 -59.583,584.583Z" style="fill:#009cff;fill-opacity:0.29;fill-rule:nonzero;"/><path d="M8516.67,4125.42l-12.5,-18.334c2.916,-2.083 309.166,-210.833 711.25,-302.5l5,21.667c-397.917,90.417 -700.834,297.083 -703.75,299.167Z" style="fill:#009cff;fill-opacity:0.29;fill-rule:nonzero;"/></g></g><g><g><path d="M3178.33,6844.58c-990,-1017.92 -1029.58,-1574.58 -1089.17,-2417.5c-21.25,-301.25 -45.417,-642.5 -115.834,-1055.42l-3.333,-20.417l19.167,8.75c1083.33,495.833 1488.33,1345 1637.5,1969.58c161.666,676.667 65.833,1243.33 65,1249.17l-21.667,-3.75c0.833,-5.417 95.833,-568.75 -65,-1240.83c-147.5,-615.834 -545.833,-1451.67 -1606.25,-1945c67.917,405 91.667,740.416 112.917,1037.08c59.166,837.917 98.333,1391.67 1082.92,2403.75l-16.25,14.583Z" style="fill:#009cff;fill-opacity:0.29;fill-rule:nonzero;"/><g><path d="M3363.75,6627.08c-3.75,-15 -395.417,-1525.83 -887.083,-2363.33l19.166,-11.25c493.334,840.417 885.417,2353.75 889.584,2369.17l-21.667,5.416Z" style="fill:#009cff;fill-opacity:0.29;fill-rule:nonzero;"/><path d="M2820,4964.17c0,-2.917 -9.167,-312.5 152.5,-610.417l19.583,10.417c-158.75,292.5 -150,595.833 -149.583,599.166l-22.5,0.834Z" style="fill:#009cff;fill-opacity:0.29;fill-rule:nonzero;"/><path d="M3046.67,5579.58c-221.25,-219.583 -510,-287.5 -512.917,-288.333l5,-21.667c2.917,0.834 297.917,70 523.75,294.167l-15.833,15.833Z" style="fill:#009cff;fill-opacity:0.29;fill-rule:nonzero;"/></g></g><g><path d="M2497.92,7231.25c-850.834,-79.167 -1191.25,-1022.08 -1491.67,-1854.17c-101.667,-281.25 -197.5,-546.666 -308.75,-775.416l-10,-20l22.083,4.583c574.584,119.583 970.834,370.417 1201.67,559.583c250.833,205.417 367.083,385 368.333,387.084l-18.75,12.083c-4.583,-7.083 -459.166,-700.417 -1534.17,-932.083c107.5,225 201.25,483.75 300,757.5c298.333,825.833 636.25,1761.67 1472.92,1839.58l-1.666,21.25Z" style="fill:#009cff;fill-opacity:0.29;fill-rule:nonzero;"/><path d="M2582.5,6821.67c-6.25,-11.667 -649.167,-1152.5 -1176.67,-1487.08l11.667,-18.75c532.083,337.5 1177.5,1483.75 1183.75,1495l-18.75,10.834Z" style="fill:#009cff;fill-opacity:0.29;fill-rule:nonzero;"/><path d="M1872.92,5768.75c-0.417,-1.25 -31.667,-131.25 -62.5,-444.583l22.083,-2.084c30.833,311.25 61.667,440 62.083,441.25l-21.666,5.417Z" style="fill:#009cff;fill-opacity:0.29;fill-rule:nonzero;"/><path d="M2232.92,6259.17c-2.917,-1.667 -288.75,-161.667 -662.084,-235.417l4.167,-21.667c377.083,74.167 665.833,236.25 668.75,237.917l-10.833,19.167Z" style="fill:#009cff;fill-opacity:0.29;fill-rule:nonzero;"/></g></g><g><g><path d="M10406.7,7329.17l-5.417,-21.25c936.667,-228.75 1113.33,-1235 1284.17,-2207.92c60,-341.667 122.083,-694.583 216.666,-1000c-932.5,178.75 -1460.42,822.5 -1740,1332.92c-305,557.5 -387.916,1080.42 -388.333,1085.83l-21.667,-3.333c0.834,-5.417 83.75,-531.667 390.834,-1092.5c283.333,-517.917 821.25,-1172.5 1773.33,-1347.92l17.917,-3.333l-5.417,17.5c-97.5,307.916 -160.417,667.083 -221.25,1014.58c-172.5,980 -350.417,1993.33 -1300.83,2225.42Z" style="fill:#009cff;fill-opacity:0.29;fill-rule:nonzero;"/><path d="M10326.2,6777.5l-21.25,-5.833c3.333,-12.5 348.75,-1240 910.417,-1725l14.583,16.666c-556.667,480.417 -900,1702.08 -903.75,1714.17Z" style="fill:#009cff;fill-opacity:0.29;fill-rule:nonzero;"/><path d="M10723.3,5747.92l-21.666,-4.584c0.416,-2.5 50.833,-252.5 33.333,-620l22.083,-1.25c17.917,370.834 -33.333,623.334 -33.75,625.834Z" style="fill:#009cff;fill-opacity:0.29;fill-rule:nonzero;"/><path d="M10426.2,6282.5l-13.333,-17.5c2.916,-2.5 311.25,-240.417 737.083,-391.667l7.5,20.834c-422.5,150 -727.917,385.833 -731.25,388.333Z" style="fill:#009cff;fill-opacity:0.29;fill-rule:nonzero;"/></g></g></g><g><path d="M8245.42,2821.25c-39.584,0 -71.667,-32.083 -71.667,-71.667c0,-39.583 32.083,-71.666 71.667,-71.666c39.583,-0 71.666,32.083 71.666,71.666c0,39.584 -32.083,71.667 -71.666,71.667Zm-0,-121.25c-27.5,0 -49.584,22.083 -49.584,49.583c0,27.5 22.084,49.584 49.584,49.584c27.5,-0 49.583,-22.084 49.583,-49.584c0,-27.5 -22.083,-49.583 -49.583,-49.583Z" style="fill:#009cff;fill-opacity:0.29;fill-rule:nonzero;"/><path d="M2305,3929.17c-39.583,-0 -71.667,-32.084 -71.667,-71.667c0,-39.583 32.084,-71.667 71.667,-71.667c39.583,0 71.667,32.084 71.667,71.667c-0,39.583 -32.084,71.667 -71.667,71.667Zm0,-121.25c-27.5,-0 -49.583,22.083 -49.583,49.583c-0,27.5 22.083,49.583 49.583,49.583c27.5,0 49.583,-22.083 49.583,-49.583c0,-27.5 -22.083,-49.583 -49.583,-49.583Z" style="fill:#009cff;fill-opacity:0.29;fill-rule:nonzero;"/><path d="M8950.83,5525.42c-39.583,-0 -71.666,-32.084 -71.666,-71.667c-0,-39.583 32.083,-71.667 71.666,-71.667c39.584,0 71.667,32.084 71.667,71.667c0,39.583 -32.083,71.667 -71.667,71.667Zm0,-121.25c-27.5,-0 -49.583,22.083 -49.583,49.583c0,27.5 22.083,49.583 49.583,49.583c27.5,0 49.584,-22.083 49.584,-49.583c-0,-27.5 -22.084,-49.583 -49.584,-49.583Z" style="fill:#009cff;fill-opacity:0.29;fill-rule:nonzero;"/><path d="M11388.8,4761.25c-39.583,0 -71.667,-32.083 -71.667,-71.667c0,-39.583 32.084,-71.666 71.667,-71.666c39.583,-0 71.667,32.083 71.667,71.666c-0.417,39.584 -32.5,71.667 -71.667,71.667Zm0,-121.25c-27.5,0 -49.583,22.083 -49.583,49.583c-0,27.5 22.083,49.584 49.583,49.584c27.5,-0 49.583,-22.084 49.583,-49.584c0,-27.5 -22.5,-49.583 -49.583,-49.583Z" style="fill:#009cff;fill-opacity:0.29;fill-rule:nonzero;"/><circle cx="8714.17" cy="4507.5" r="49.583" style="fill:#009cff;fill-opacity:0.29;"/><circle cx="10997.1" cy="6333.75" r="49.583" style="fill:#009cff;fill-opacity:0.29;"/><path d="M7297.71,3091.09c0.038,-27.366 22.287,-49.552 49.653,-49.513c27.366,0.039 49.552,22.288 49.513,49.653c-0.039,27.366 -22.288,49.552 -49.653,49.513c-27.366,-0.038 -49.552,-22.287 -49.513,-49.653Z" style="fill:#009cff;fill-opacity:0.29;"/><circle cx="1871.67" cy="6495.42" r="49.583" style="fill:#009cff;fill-opacity:0.29;"/></g><path d="M3283.75,3120.42c-6.25,-0 -12.917,-0.834 -19.167,-2.917l-137.083,-40.833c-17.083,-5 -31.25,-16.667 -39.583,-32.5c-8.334,-15.834 -10.417,-33.75 -5,-50.834l46.666,-155c-57.916,-30.833 -111.25,-69.583 -158.333,-115l-133.75,90.417c-30.417,20.417 -72.083,12.5 -92.917,-17.917l-80,-118.333c-10,-14.583 -13.75,-32.5 -10.416,-50c3.333,-17.5 13.333,-32.5 28.333,-42.5l132.083,-89.167c-27.916,-65.833 -45.416,-135.833 -52.083,-207.916l-156.667,-17.917c-17.916,-2.083 -33.75,-10.833 -44.583,-25c-11.25,-13.75 -15.833,-31.25 -14.167,-49.167l16.25,-141.666c4.167,-36.667 37.5,-62.917 74.167,-58.75l154.583,17.916c20.834,-65 50.834,-126.25 89.584,-182.5l-106.667,-110.416c-12.5,-12.917 -19.167,-29.584 -18.75,-47.5c0.417,-17.917 7.5,-34.584 20.417,-46.667l103.333,-98.75c26.667,-25.417 68.75,-24.583 94.583,1.667l105.834,110c60,-38.334 125.416,-67.5 194.166,-85.834l-10,-151.25c-2.5,-36.666 25.417,-68.333 62.5,-70.833l142.917,-9.167c37.083,-2.5 68.75,25.417 70.833,62.084l10,151.25c70.834,9.583 139.167,29.583 203.75,60l90.834,-122.5c21.666,-29.584 63.75,-35.834 93.333,-14.167l115,84.583c14.167,10.417 23.75,26.25 26.25,43.75c2.5,17.5 -1.667,35 -12.5,49.584l-91.667,123.75c45.834,50.833 83.334,107.916 112.5,169.583l151.25,-37.5c35.834,-8.75 72.084,12.917 80.834,48.333l34.583,138.334c4.167,17.083 1.667,35 -7.5,50.416c-9.167,15.417 -23.75,26.25 -41.25,30.417l-152.917,37.917c2.917,72.083 -5.416,143.75 -25,212.916l142.5,71.25c15.834,7.917 27.917,21.667 33.334,38.75c5.416,17.084 4.166,35 -3.75,50.834l-64.167,127.5c-16.667,32.916 -56.667,46.25 -89.583,29.583l-144.167,-72.083c-40.833,51.25 -88.333,96.666 -142.083,134.583l66.25,147.917c7.5,16.25 7.916,34.166 1.666,50.833c-6.25,16.667 -18.75,30 -35,37.083l-130.416,58.334c-33.75,15 -73.334,-0 -88.334,-33.334l-66.666,-148.333c-35,7.5 -70.417,12.917 -106.25,15c-35.834,2.5 -71.667,2.083 -107.084,-1.25l-47.083,155.833c-8.333,28.334 -35,47.084 -63.75,47.084Zm-310,-425.417l6.25,6.25c49.167,48.75 105.833,90 167.5,121.667l8.333,4.166l-51.666,172.917c-3.334,11.25 -2.084,23.333 3.333,33.75c5.833,10.417 15,18.333 26.667,21.667l137.083,40.833c23.75,7.083 48.75,-6.25 55.833,-30l52.084,-173.333l9.166,0.833c37.5,3.75 75,4.583 112.5,2.083c37.5,-2.5 75,-7.916 111.25,-16.666l8.75,-2.084l74.167,165c10,22.5 36.667,32.5 59.167,22.5l130.416,-58.333c10.834,-5 19.167,-13.75 23.75,-25c4.167,-11.25 3.75,-23.333 -0.833,-34.167l-73.75,-163.75l7.5,-5.416c57.083,-39.584 107.917,-87.5 150.417,-142.5l5.416,-7.084l160.417,80c22.083,11.25 49.167,2.084 60,-20l64.167,-127.5c5.416,-10.833 6.25,-22.916 2.5,-34.166c-3.75,-11.25 -11.667,-20.417 -22.5,-25.834l-159.167,-79.583l2.5,-8.75c21.25,-72.083 30,-147.5 26.25,-223.333l-0.417,-9.167l170.834,-42.5c11.666,-2.917 21.25,-10 27.5,-20.417c6.25,-10 7.916,-22.083 5,-33.75l-34.584,-138.333c-5.833,-23.75 -30.416,-38.333 -54.166,-32.5l-168.75,42.083l-3.75,-8.333c-29.584,-65.417 -69.584,-125.417 -118.75,-178.75l-6.25,-6.667l102.5,-138.333c7.083,-9.583 10,-21.25 8.333,-33.333c-1.667,-11.667 -7.917,-22.084 -17.5,-29.167l-115,-84.583c-20,-14.584 -47.917,-10.417 -62.5,9.583l-101.667,137.5l-8.333,-4.167c-67.5,-32.916 -139.583,-54.166 -214.167,-62.916l-9.166,-1.25l-10.834,-169.584c-1.666,-24.583 -22.916,-43.333 -47.5,-41.666l-142.916,9.166c-24.584,1.667 -43.334,22.917 -41.667,47.5l11.25,169.584l-8.75,2.083c-72.917,18.75 -141.25,48.75 -204.167,90.417l-7.5,5l-118.75,-122.917c-17.083,-17.917 -45.416,-18.333 -63.333,-1.25l-103.333,98.75c-8.75,8.333 -13.334,19.583 -13.75,31.25c-0.417,12.083 4.166,23.333 12.5,31.667l119.583,123.75l-5.417,7.5c-41.666,58.75 -73.333,123.75 -94.583,192.5l-2.5,8.75l-172.917,-20c-24.583,-2.917 -46.666,14.583 -49.583,39.166l-16.25,141.667c-1.25,11.667 2.083,23.333 9.167,32.917c7.5,9.583 17.916,15.416 30,16.666l174.583,20l0.833,9.167c5.834,75.833 24.584,149.167 55,217.917l3.75,8.333l-147.5,99.583c-10,6.667 -16.666,16.667 -18.75,28.334c-2.083,11.666 0,23.75 7.084,33.333l80,118.333c13.75,20.417 41.666,25.834 62.083,12.084l147.5,-99.167Zm483.333,-65.417c-209.166,0 -385.833,-162.5 -399.583,-373.75c-14.167,-220 153.333,-410.416 374.167,-425c106.666,-7.083 210,27.917 290.416,98.334c80.417,70.416 128.75,167.916 135.417,274.583c7.083,106.667 -28.333,209.583 -98.75,289.583c-70.833,80.417 -168.333,128.334 -275.417,135.417c-8.75,0.417 -17.5,0.833 -26.25,0.833Zm0.834,-777.5c-8.334,0 -16.667,0.417 -25.417,0.834c-208.333,13.75 -367.083,193.75 -353.75,401.666c13.333,207.917 194.167,365.834 402.5,352.5c100.833,-6.666 193.333,-52.083 260,-127.916c66.667,-75.834 100,-172.917 93.333,-273.75c-6.666,-100.834 -52.083,-192.917 -127.916,-259.167c-69.167,-61.667 -156.667,-94.167 -248.75,-94.167Z" style="fill:#009cff;fill-opacity:0.29;fill-rule:nonzero;"/></g><g><path d="M6827.92,7332.92l-3279.17,-0c-113.333,-0 -205.417,-92.084 -205.417,-205.417l0,-4792.5c0,-113.333 92.084,-205.417 205.417,-205.417l3279.17,0c113.333,0 205.416,92.084 205.416,205.417l0,4792.92c0,113.333 -91.666,205 -205.416,205Z" style="fill:#007fff;fill-rule:nonzero;"/><rect x="4538.33" y="2358.33" width="1300.42" height="218.333" style="fill:#d3dfff;"/><rect x="3711.67" y="2909.58" width="2953.75" height="655" style="fill:#dadada;"/><rect x="3840.83" y="2999.17" width="2695.42" height="475.833" style="fill:#fff;"/><g><path d="M5895,4132.92l-200.833,-0c-60.417,-0 -109.167,-48.75 -109.167,-109.167l0,-46.25c0,-60.417 48.75,-109.167 109.167,-109.167l200.833,0c60.417,0 109.167,48.75 109.167,109.167l-0,46.25c-0,60.417 -48.75,109.167 -109.167,109.167Z" style="fill:#1f3c88;fill-rule:nonzero;"/><path d="M6556.25,4132.92l-200.833,-0c-60.417,-0 -109.167,-48.75 -109.167,-109.167l0,-46.25c0,-60.417 48.75,-109.167 109.167,-109.167l200.833,0c60.417,0 109.167,48.75 109.167,109.167l-0,46.25c-0,60.417 -48.75,109.167 -109.167,109.167Z" style="fill:#1f3c88;fill-rule:nonzero;"/></g><g><path d="M6613.33,4797.92l-402.916,-0c-28.75,-0 -52.084,-23.334 -52.084,-52.084l0,-241.666c0,-28.75 23.334,-52.084 52.084,-52.084l402.916,0c28.75,0 52.084,23.334 52.084,52.084l-0,241.666c-0,28.75 -23.334,52.084 -52.084,52.084Z" style="fill:#1f3c88;fill-rule:nonzero;"/><path d="M5804.58,4797.92l-402.916,-0c-28.75,-0 -52.084,-23.334 -52.084,-52.084l0,-241.666c0,-28.75 23.334,-52.084 52.084,-52.084l402.916,0c28.75,0 52.084,23.334 52.084,52.084l-0,241.666c-0,28.75 -23.334,52.084 -52.084,52.084Z" style="fill:#1f3c88;fill-rule:nonzero;"/><path d="M4995.83,4797.92l-402.916,-0c-28.75,-0 -52.084,-23.334 -52.084,-52.084l0,-241.666c0,-28.75 23.334,-52.084 52.084,-52.084l402.916,0c28.75,0 52.084,23.334 52.084,52.084l-0,241.666c-0,28.75 -23.334,52.084 -52.084,52.084Z" style="fill:#1f3c88;fill-rule:nonzero;"/><path d="M4187.08,4797.92l-402.916,-0c-28.75,-0 -52.084,-23.334 -52.084,-52.084l0,-241.666c0,-28.75 23.334,-52.084 52.084,-52.084l402.916,0c28.75,0 52.084,23.334 52.084,52.084l-0,241.666c-0.417,28.75 -23.334,52.084 -52.084,52.084Z" style="fill:#1f3c88;fill-rule:nonzero;"/></g><g><path d="M6613.33,5422.5l-402.916,0c-28.75,0 -52.084,-23.333 -52.084,-52.083l0,-241.667c0,-28.75 23.334,-52.083 52.084,-52.083l402.916,-0c28.75,-0 52.084,23.333 52.084,52.083l-0,241.667c-0,28.75 -23.334,52.083 -52.084,52.083Z" style="fill:#1f3c88;fill-rule:nonzero;"/><path d="M5804.58,5422.5l-402.916,0c-28.75,0 -52.084,-23.333 -52.084,-52.083l0,-241.667c0,-28.75 23.334,-52.083 52.084,-52.083l402.916,-0c28.75,-0 52.084,23.333 52.084,52.083l-0,241.667c-0,28.75 -23.334,52.083 -52.084,52.083Z" style="fill:#d3dfff;fill-rule:nonzero;"/><path d="M4995.83,5422.5l-402.916,0c-28.75,0 -52.084,-23.333 -52.084,-52.083l0,-241.667c0,-28.75 23.334,-52.083 52.084,-52.083l402.916,-0c28.75,-0 52.084,23.333 52.084,52.083l-0,241.667c-0,28.75 -23.334,52.083 -52.084,52.083Z" style="fill:#d3dfff;fill-rule:nonzero;"/><path d="M4187.08,5422.5l-402.916,0c-28.75,0 -52.084,-23.333 -52.084,-52.083l0,-241.667c0,-28.75 23.334,-52.083 52.084,-52.083l402.916,-0c28.75,-0 52.084,23.333 52.084,52.083l-0,241.667c-0.417,28.75 -23.334,52.083 -52.084,52.083Z" style="fill:#d3dfff;fill-rule:nonzero;"/></g><g><path d="M6613.33,6047.08l-402.916,0c-28.75,0 -52.084,-23.333 -52.084,-52.083l0,-241.667c0,-28.75 23.334,-52.083 52.084,-52.083l402.916,-0c28.75,-0 52.084,23.333 52.084,52.083l-0,241.667c-0,28.75 -23.334,52.083 -52.084,52.083Z" style="fill:#1f3c88;fill-rule:nonzero;"/><path d="M5804.58,6047.08l-402.916,0c-28.75,0 -52.084,-23.333 -52.084,-52.083l0,-241.667c0,-28.75 23.334,-52.083 52.084,-52.083l402.916,-0c28.75,-0 52.084,23.333 52.084,52.083l-0,241.667c-0,28.75 -23.334,52.083 -52.084,52.083Z" style="fill:#d3dfff;fill-rule:nonzero;"/><path d="M4995.83,6047.08l-402.916,0c-28.75,0 -52.084,-23.333 -52.084,-52.083l0,-241.667c0,-28.75 23.334,-52.083 52.084,-52.083l402.916,-0c28.75,-0 52.084,23.333 52.084,52.083l-0,241.667c-0,28.75 -23.334,52.083 -52.084,52.083Z" style="fill:#d3dfff;fill-rule:nonzero;"/><path d="M4187.08,6047.08l-402.916,0c-28.75,0 -52.084,-23.333 -52.084,-52.083l0,-241.667c0,-28.75 23.334,-52.083 52.084,-52.083l402.916,-0c28.75,-0 52.084,23.333 52.084,52.083l-0,241.667c-0.417,28.75 -23.334,52.083 -52.084,52.083Z" style="fill:#d3dfff;fill-rule:nonzero;"/></g><g><path d="M6613.33,6693.75l-402.916,0c-28.75,0 -52.084,-23.333 -52.084,-52.083l0,-241.667c0,-28.75 23.334,-52.083 52.084,-52.083l402.916,-0c28.75,-0 52.084,23.333 52.084,52.083l-0,241.667c-0,28.75 -23.334,52.083 -52.084,52.083Z" style="fill:#fbc343;fill-rule:nonzero;"/><path d="M5804.58,6693.75l-402.916,0c-28.75,0 -52.084,-23.333 -52.084,-52.083l0,-241.667c0,-28.75 23.334,-52.083 52.084,-52.083l402.916,-0c28.75,-0 52.084,23.333 52.084,52.083l-0,241.667c-0,28.75 -23.334,52.083 -52.084,52.083Z" style="fill:#d3dfff;fill-rule:nonzero;"/><path d="M4995.83,6693.75l-402.916,0c-28.75,0 -52.084,-23.333 -52.084,-52.083l0,-241.667c0,-28.75 23.334,-52.083 52.084,-52.083l402.916,-0c28.75,-0 52.084,23.333 52.084,52.083l-0,241.667c-0,28.75 -23.334,52.083 -52.084,52.083Z" style="fill:#d3dfff;fill-rule:nonzero;"/><path d="M4187.08,6693.75l-402.916,0c-28.75,0 -52.084,-23.333 -52.084,-52.083l0,-241.667c0,-28.75 23.334,-52.083 52.084,-52.083l402.916,-0c28.75,-0 52.084,23.333 52.084,52.083l-0,241.667c-0.417,28.75 -23.334,52.083 -52.084,52.083Z" style="fill:#d3dfff;fill-rule:nonzero;"/></g><g><path d="M5949.17,3345c7.916,0.833 16.666,0 29.166,-1.25c20.834,-2.917 40.417,-11.667 55.834,-25.833c17.5,-15.834 30.416,-39.167 35.416,-70.834l-1.25,0c-14.583,17.917 -36.25,28.75 -62.5,28.75c-47.916,0 -78.75,-36.25 -78.75,-81.666c0,-50.417 36.667,-94.584 90.834,-94.584c54.166,0 87.916,44.167 87.916,112.084c0,58.75 -19.583,99.583 -45.833,125c-20.417,20 -48.75,32.5 -77.5,35.833c-12.917,2.083 -24.583,2.5 -33.333,2.083l-0,-29.583Zm13.333,-153.333c-0,33.333 20,56.666 51.25,56.666c24.167,0 42.917,-12.083 52.5,-27.916c2.083,-3.334 3.333,-7.5 3.333,-12.917c0,-45.417 -16.666,-80.417 -54.583,-80.417c-30.833,0 -52.5,26.667 -52.5,64.584Z" style="fill:#3a6bea;fill-rule:nonzero;"/><path d="M6159.58,3345c7.917,0.833 16.667,0 29.167,-1.25c20.833,-2.917 40.417,-11.667 55.833,-25.833c17.5,-15.834 30.417,-39.167 35.417,-70.834l-1.25,0c-14.583,17.917 -36.25,28.75 -62.5,28.75c-47.917,0 -78.75,-36.25 -78.75,-81.666c-0,-50.417 36.667,-94.584 90.833,-94.584c54.584,0 87.917,44.167 87.917,112.084c-0,58.75 -19.583,99.583 -45.833,125c-20.417,20 -48.75,32.5 -77.5,35.833c-12.917,2.083 -24.584,2.5 -33.334,2.083l0,-29.583Zm13.334,-153.333c-0,33.333 20,56.666 51.25,56.666c24.166,0 42.916,-12.083 52.5,-27.916c2.083,-3.334 3.333,-7.5 3.333,-12.917c-0,-45.417 -16.667,-80.417 -54.583,-80.417c-30.834,0 -52.5,26.667 -52.5,64.584Z" style="fill:#3a6bea;fill-rule:nonzero;"/></g></g><g><g><path d="M8037.92,4154.17l-134.167,411.666l-10,30.417l-62.083,191.25l-0.417,1.25l-200.417,-4.583l-768.75,-17.5l-56.25,-160.834l-9.583,-27.083l-148.75,-425c461.667,160.417 842.083,-189.167 1390.42,0.417Z" style="fill:#43aafb;fill-rule:nonzero;"/><path d="M7893.75,4596.25l-62.083,191.25l-200.834,-2.917l-768.75,-17.5l-56.25,-160.833c264.167,-5 718.75,-11.25 1087.92,-10Z" style="fill:#fff;fill-rule:nonzero;"/><path d="M8752.92,6920.42c-39.584,126.25 -117.917,232.083 -218.75,306.25c-101.25,74.583 -225.834,117.083 -357.917,117.083l-1741.25,0c-251.667,0 -472.5,-168.333 -539.583,-411.25c-38.75,-140.417 -59.167,-282.917 -62.5,-424.583c-0.417,-13.75 -0.417,-27.5 -0.417,-40.834c0,-16.25 0.417,-32.5 0.833,-48.333c14.167,-513.75 265.417,-992.083 668.334,-1311.25l416.666,-330l953.334,22.083l524.166,501.667c73.75,70.417 139.584,149.583 192.084,236.667c63.333,104.583 114.166,215.416 152.916,329.583c113.75,336.25 121.25,705 12.084,1052.92Z" style="fill:#43aafb;fill-rule:nonzero;"/><path d="M8028.75,4955.83l-1348.75,0c-55.833,0 -101.25,-45.833 -101.25,-101.25l0,-43.333c0,-55.833 45.833,-101.25 101.25,-101.25l1348.75,0c55.833,0 101.25,45.833 101.25,101.25l0,43.333c0,55.417 -45.417,101.25 -101.25,101.25Z" style="fill:#d3eaee;fill-rule:nonzero;"/><path d="M8752.92,6920.42c-39.584,126.25 -117.917,232.083 -218.75,306.25c-101.25,74.583 -225.834,117.083 -357.917,117.083l-1741.25,0c-251.667,0 -472.5,-168.333 -539.583,-411.25c-38.75,-140.417 -59.167,-282.917 -62.5,-424.583c287.916,274.583 627.5,633.75 1421.25,645c985.416,13.75 1410,-448.334 1486.25,-1285.83c114.166,336.667 121.666,705.417 12.5,1053.33Z" style="fill:#3135e4;fill-opacity:0.4;fill-rule:nonzero;"/></g></g><g><g><g><path d="M1989.17,7039.17l-176.25,-66.25l-409.584,360l484.584,-0l101.25,-293.75Z" style="fill:#102048;fill-rule:nonzero;"/><path d="M1989.17,7039.17l389.166,-0l-43.75,279.166l-446.666,14.584l101.25,-293.75Z" style="fill:#f9b384;fill-rule:nonzero;"/><path d="M3552.08,5473.75l-14.166,97.5l-8.75,58.75l-61.667,422.917l-23.75,161.666l-20.833,144.167l-55,375.833l-38.334,260.417c-28.75,195.833 -196.666,341.25 -394.583,341.25l-861.25,0l1.25,-10.833l27.917,-286.667l4.166,-40.417l600.834,-115.833l80.833,-585.833c-39.583,-170.417 -30,-334.584 -12.917,-449.584c14.584,-97.916 35,-160.416 35,-160.416l267.917,-77.084l473.333,-135.833Z" style="fill:#1f3c88;fill-rule:nonzero;"/><path d="M3368.33,6735l-38.333,260.417c-28.75,195.833 -196.667,341.25 -394.583,341.25l-44.167,-0c394.583,-70.834 317.5,-575 477.083,-601.667Z" style="fill:#102048;fill-rule:nonzero;"/><path d="M1767.11,7191.39l-84.48,135.888l18.756,11.66l84.48,-135.888l-18.756,-11.66Z" style="fill:#fff;"/></g><path d="M3467.5,6053.33l-44.583,305.834c-124.167,-35.417 -287.917,-212.917 -287.917,-212.917l332.5,-92.917Z" style="fill:#102048;fill-rule:nonzero;"/><g><path d="M4380.42,6833.33c-0,0 -209.584,107.5 -584.167,38.75l311.25,-206.666l272.917,167.916Z" style="fill:#102048;fill-rule:nonzero;"/><path d="M4265.42,6981.67l-335,7.5l-2.084,-72.5l-5,-198.334l297.5,22.084l14.167,76.666l30.417,164.584Z" style="fill:#f9b384;fill-rule:nonzero;"/><path d="M4235,6817.08l-306.667,99.584l-5,-198.334l297.5,22.084l14.167,76.666Z" style="fill:#e28b6d;fill-rule:nonzero;"/><path d="M4645,7335.83l-369.167,-297.5l-10.416,-56.666l-335,7.5l9.166,346.666l705.417,0Z" style="fill:#102048;fill-rule:nonzero;"/><path d="M4393.34,7121.57l-132.178,82.544l11.698,18.732l132.178,-82.545l-11.698,-18.731Z" style="fill:#fff;"/><path d="M2810,5687.08l1198.33,-190.416c55.834,-8.75 113.334,-1.25 165.417,21.666c102.917,45.834 170.833,146.667 174.167,259.167l32.916,1055.83c0,0 -341.666,-71.666 -584.166,38.75l-22.084,-722.083c-146.666,66.667 -400.416,80.833 -657.5,55l-307.083,-517.917Z" style="fill:#1f3c88;fill-rule:nonzero;"/><path d="M4211.67,6800.42l-22.084,-0c0,-182.5 4.584,-334.167 8.334,-467.917c9.583,-325.833 14.583,-505.417 -68.334,-581.25c-67.083,-61.667 -201.25,-59.583 -396.25,-36.667c-208.75,24.167 -292.083,-197.916 -292.5,-200l20.834,-7.5c2.916,8.334 77.916,208.75 269.583,185.834c206.25,-24.167 340,-25.417 413.75,42.083c90.417,82.917 85.417,255 75.417,597.917c-4.167,133.75 -8.75,285 -8.75,467.5Z" style="fill:#3a6bea;fill-rule:nonzero;"/><path d="M3796.67,6738.75l-7.917,-20.417c2.917,-1.25 282.083,-105 590.833,-27.916l-5.416,21.25c-301.25,-75.417 -574.584,26.25 -577.5,27.083Z" style="fill:#3a6bea;fill-rule:nonzero;"/></g><path d="M2195.83,7340c-34.166,-68.75 18.75,-353.333 21.25,-365l21.667,4.167c-15,80.416 -48.75,299.583 -22.917,351.25l-20,9.583Z" style="fill:#3a6bea;fill-rule:nonzero;"/><path d="M3432.92,5598.75c-0,0 -84.584,180 -275.417,301.25c-65,40.833 -128.333,59.583 -185.417,60c-86.25,0.417 -157.916,-41.667 -196.666,-112.5c14.583,-97.917 35,-160.417 35,-160.417l267.916,-77.083l270.417,-8.75l84.167,-2.5Z" style="fill:#102048;fill-rule:nonzero;"/></g><g><path d="M3217.92,4513.33l-0,255l249.583,0l0,-220.416l-249.583,-34.584Z" style="fill:#ed7545;fill-rule:nonzero;"/><path d="M3467.5,4390l-249.583,0l-0,123.333l249.583,34.584l0,-157.917Z" style="fill:#f9b384;fill-rule:nonzero;"/><path d="M3291.25,4425c5.417,0 60.417,85.833 176.25,122.917l-1.667,-133.75l-174.583,10.833Z" style="fill:#102048;fill-rule:nonzero;"/><path d="M3497.08,4085c0,0 137.917,371.25 -40.416,395c-178.334,23.75 -205.834,-57.083 -205.834,-57.083l-55,-196.667l122.917,-165.417l178.333,24.167Z" style="fill:#f9b384;fill-rule:nonzero;"/><path d="M3504.06,4262.74c0.396,-21.382 18.077,-38.421 39.459,-38.025c21.383,0.396 38.421,18.077 38.025,39.46c-0.396,21.382 -18.077,38.421 -39.459,38.025c-21.383,-0.396 -38.421,-18.077 -38.025,-39.46Z" style="fill:#f9b384;"/><path d="M3309.58,4261.67c0,-0 9.167,-198.334 187.5,-176.25c0,-0 -120,-154.167 -277.916,-94.167c-80.417,30.417 -133.75,107.083 -141.667,192.5c-10,110.417 54.167,236.25 144.167,258.333c-0,0 29.583,-67.916 78.75,-154.166l9.166,-26.25Z" style="fill:#102048;fill-rule:nonzero;"/><path d="M3276.52,4217.82c27.055,-12.717 61.093,2.64 75.963,34.274c14.869,31.634 4.976,67.642 -22.079,80.359c-27.056,12.718 -61.093,-2.64 -75.963,-34.274c-14.87,-31.634 -4.977,-67.641 22.079,-80.359Z" style="fill:#f9b384;"/><path d="M3386.2,4284.57c0.397,-27.823 23.308,-50.089 51.131,-49.692c27.823,0.397 50.089,23.309 49.692,51.132c-0.397,27.823 -23.309,50.089 -51.132,49.691c-27.823,-0.397 -50.089,-23.308 -49.691,-51.131Z" style="fill:#eb5d60;fill-opacity:0.4;"/><path d="M3314.58,4296.25c-2.916,0 -5.416,-2.5 -5.416,-5.417c-0,-1.25 -0.834,-32.083 -34.584,-36.666c-2.916,-0.417 -5,-3.334 -4.583,-6.25c0.417,-2.917 3.333,-5 6.25,-4.584c43.75,6.25 44.167,47.5 44.167,47.917c-0.417,2.5 -2.917,5 -5.834,5Z" style="fill:#102048;fill-rule:nonzero;"/></g><g><path d="M4149.17,4149.58c-0,0 192.5,14.584 297.5,137.917l-238.75,58.75l-58.75,-196.667Z" style="fill:#ba5c36;fill-rule:nonzero;"/><path d="M4490.42,4043.75c0.833,17.5 -47.5,105.417 -83.334,167.917c-20.833,35.833 -37.083,63.333 -37.083,63.333l-128.333,37.5l-91.667,-138.333l-4.583,-6.667c-0,0 1.25,-5.833 3.75,-16.667l-0,-0.416c0.416,-0.417 0.416,-0.834 0.416,-1.25c15.417,-65.417 70,-288.75 101.667,-296.25c27.917,-6.25 11.667,115.833 11.667,115.833c-0,0 68.75,-198.75 109.166,-190.417c32.5,6.25 -31.25,196.667 -31.25,196.667c0,0 22.5,-23.75 45.834,-16.25c24.583,8.333 27.5,31.25 27.5,31.25c-0,0 16.25,-11.667 32.5,-1.667c16.25,10 14.583,40.834 14.583,40.834c-0,-0 27.5,-12.917 29.167,14.583Z" style="fill:#f9b384;fill-rule:nonzero;"/><path d="M3159.58,4678.75l-87.083,341.25l-135.417,529.167c-92.083,40.833 -188.75,55.833 -265.833,42.916c-89.167,-14.583 -151.667,-66.666 -147.5,-158.75c10.833,-247.916 635.833,-754.583 635.833,-754.583Z" style="fill:#ed7545;fill-rule:nonzero;"/><path d="M3142.5,4775.83l-70.417,244.167l-135.416,529.167c-92.084,40.833 -188.75,55.833 -265.834,42.916c196.25,-562.5 471.667,-816.25 471.667,-816.25Z" style="fill:#ba5c36;fill-rule:nonzero;"/><path d="M3688.33,5547.92c-181.666,12.5 -755,486.25 -892.916,180.416c-0,0 19.166,-1140.42 607.916,-1119.58c104.167,3.75 195.834,73.333 227.084,172.5c14.166,45 28.333,103.75 39.166,179.167c11.25,76.666 19.584,170.416 22.5,285c2.917,88.333 1.667,188.75 -3.75,302.5Z" style="fill:#ed7545;fill-rule:nonzero;"/><path d="M3692.5,5245.42c-90.833,-58.75 -186.25,-236.25 -186.25,-236.25l163.75,-48.334c11.25,76.25 19.583,170.417 22.5,284.584Z" style="fill:#ba5c36;fill-rule:nonzero;"/><path d="M4407.08,4211.67c-20.833,35.833 -37.083,63.333 -37.083,63.333l-128.333,37.5l-91.667,-138.333l-0.833,-23.334l-0,-1.666l0.416,-0l257.5,62.5Z" style="fill:#e28b6d;fill-rule:nonzero;"/><path d="M3403.33,4609.17c0,-0 282.917,20 453.75,52.916l292.084,-512.5c89.166,71.25 188.333,117.5 297.5,137.917l-255.417,602.5c-56.25,114.583 -171.25,188.333 -298.333,192.917l-437.917,15l-51.667,-488.75Z" style="fill:#ed7545;fill-rule:nonzero;"/><path d="M3857.08,4670.42l-1.666,-0c-5.417,-0.834 -539.167,-98.75 -630.417,-18.334c-3.333,2.917 -8.75,2.5 -11.667,-0.833c-2.916,-3.333 -2.5,-8.75 0.834,-11.667c97.083,-85.833 622.083,10.417 644.166,14.584c4.584,0.833 7.5,5 6.667,9.583c-0.417,3.75 -4.167,6.667 -7.917,6.667Z" style="fill:#ba5c36;fill-rule:nonzero;"/></g></g><g><g><path d="M9707.92,6862.92l36.666,470l-611.666,-0l308.333,-212.917l-5.417,-294.167l272.084,37.084Z" style="fill:#102048;fill-rule:nonzero;"/><path d="M10609.6,6662.5l165.417,402.5l-418.75,352.5l60.417,-396.667l-82.5,-264.583l275.416,-93.75Z" style="fill:#102048;fill-rule:nonzero;"/><path d="M9869.58,4393.75c-5.416,15.417 -10.416,35.417 -15.416,58.75c-8.334,40.833 -15,92.917 -21.25,154.167c-19.584,200 -27.5,497.5 -29.584,813.333c-4.583,711.25 22.084,1516.25 22.084,1516.25l-112.084,-1.667l-275.416,-4.166l-97.5,-1.667c-147.5,-1127.08 -105.417,-2078.75 -83.334,-2410c0.834,-11.667 1.667,-22.083 2.084,-32.083c4.583,-60.834 7.916,-93.334 7.916,-93.334l602.5,0l0,0.417Z" style="fill:#1f3c88;fill-rule:nonzero;"/><path d="M10714.6,6767.08l-55.833,13.75l-293.75,73.334l-179.583,45c-0,-0 -212.5,-788.334 -382.084,-1479.58c-81.666,-333.333 -153.333,-643.75 -186.666,-832.5c-11.667,-66.666 -18.334,-117.916 -19.167,-149.583l256.667,14.583l324.166,18.334c0,-0 7.917,46.666 23.334,130c61.666,333.75 242.5,1255.83 512.916,2166.67Z" style="fill:#1f3c88;fill-rule:nonzero;"/><path d="M10201.2,4600.83c-130.417,10.834 -255,11.25 -368.75,5.417c-77.5,-4.167 -150,-10.833 -216.25,-18.75c-164.167,-20.417 -290.417,-50.417 -359.583,-68.75c-37.5,-10 -58.334,-16.667 -58.334,-16.667l60,-15.416l371.25,-93.334l239.167,0c-5.417,15.417 -10.417,35.417 -15.417,58.75l324.167,18.334c0.417,0.416 8.333,47.083 23.75,130.416Z" style="fill:#102048;fill-rule:nonzero;"/><path d="M9814.58,5505.83c-17.916,-74.583 -102.083,-428.75 -112.916,-488.75l-170.417,-63.75l7.917,-20.833l183.333,68.75l0,7.5c1.25,16.25 68.75,302.917 113.75,491.667l-21.667,5.416Z" style="fill:#3a6bea;fill-rule:nonzero;"/><path d="M9382.08,5828.33c-80,0 -131.25,-20 -133.75,-20.833l8.334,-20.417c0.833,0.417 90.833,35 217.916,10.417l4.167,21.667c-35.417,6.666 -67.917,9.166 -96.667,9.166Z" style="fill:#3a6bea;fill-rule:nonzero;"/><path d="M10020,5812.92c-51.25,-0 -94.583,-7.917 -97.917,-8.75l4.167,-21.667c1.667,0.417 150.417,27.917 219.583,-20.417l12.5,17.917c-36.25,26.25 -90.833,32.917 -138.333,32.917Z" style="fill:#3a6bea;fill-rule:nonzero;"/><path d="M9448.65,7111.53l-13.431,17.529l86.326,66.142l13.431,-17.53l-86.326,-66.142Z" style="fill:#fff;"/><path d="M10421.1,7010.56l-8.31,20.46l117.743,47.821l8.31,-20.46l-117.743,-47.821Z" style="fill:#fff;"/></g><g><path d="M9546.25,3188.75c0,0 -378.333,47.917 -473.75,473.75l113.75,507.083l-51.25,337.917c0,0 514.167,51.25 1043.33,-36.667l-160.833,-861.666l-471.25,-420.417Z" style="fill:#ed7545;fill-rule:nonzero;"/><path d="M9781.25,4268.75c0,0 -113.75,-83.75 35,-450l99.167,360.833l-134.167,89.167Z" style="fill:#6e3620;fill-rule:nonzero;"/><path d="M9337.5,3808.33l-27.5,-52.083l423.333,-224.167c11.667,-6.25 26.667,-1.666 32.917,10l5,9.167c6.25,11.667 1.667,26.667 -10,32.917l-423.75,224.166Z" style="fill:#102048;fill-rule:nonzero;"/><path d="M9876.67,4149.58l-11.25,-6.25l-146.25,-78.75l-245,-132.5c-4.584,-29.583 -1.25,-54.583 16.666,-71.666l-12.083,-5c-20,-8.334 -34.583,-26.25 -38.333,-47.5l-0.417,-2.5c-6.25,-21.25 -3.333,-41.25 -1.25,-52.084l5.833,-7.5c14.167,-18.75 20.834,-28.333 39.167,-42.916l-31.25,1.666c0,0 -77.083,21.25 -41.25,-28.333c24.583,-34.583 80,-63.333 111.667,-77.917c13.333,-6.25 29.166,-3.333 39.583,7.084c105.833,110 292.5,241.666 292.5,241.666l2.083,27.084l17.917,247.5l1.667,27.916Z" style="fill:#f9b384;fill-rule:nonzero;"/><g><path d="M9587.92,3728.33l-66.667,-32.5c-7.083,-3.333 -14.583,-4.583 -22.5,-3.333l-71.25,12.5l-2.083,-10.833l71.25,-12.5c10,-1.667 20,-0.417 29.166,4.166l66.667,32.5l-4.583,10Z" style="fill:#e28b6d;fill-rule:nonzero;"/><path d="M9575.42,3790.83l-80,-30.833c-3.75,-1.25 -7.5,-2.083 -11.25,-2.083l-45.417,-0l0,-10.834l45.417,0c5,0 10.416,0.834 15,2.917l80,30.833l-3.75,10Z" style="fill:#e28b6d;fill-rule:nonzero;"/><path d="M9564.17,3853.33l-72.5,-27.5c-5.834,-2.083 -12.084,-2.916 -17.917,-2.083l-29.583,3.333l-1.25,-10.833l29.583,-3.333c7.917,-0.834 15.833,-0 23.333,2.916l72.5,27.5l-4.166,10Z" style="fill:#e28b6d;fill-rule:nonzero;"/></g><path d="M9874.58,4120.83l-9.166,22.5l-146.25,-79.166l97.083,-245.417l40.417,54.583l17.916,247.5Z" style="fill:#e28b6d;fill-rule:nonzero;"/><path d="M9781.25,4268.75c0,0 218.75,207.5 396.667,202.083l-51.25,-244.166l-345.417,42.083Z" style="fill:#ba5c36;fill-rule:nonzero;"/><path d="M9546.25,3188.75c0,0 27.083,-2.917 71.667,-1.25c441.25,15 779.166,394.583 757.916,835.833c-8.75,182.5 -56.25,363.334 -208.75,367.084l-385.833,-121.25c36.25,-136.25 63.75,-277.917 35,-450l179.167,85.416l-449.167,-715.833Z" style="fill:#ed7545;fill-rule:nonzero;"/><path d="M9672.08,4252.08l-539.166,12.917l-15,-45.417l-54.167,-166.666l-157.083,-482.084l539.583,-13.333l225.833,694.583Z" style="fill:#d3dfff;fill-rule:nonzero;"/><path d="M9178.33,3995c0,0 -0.833,149.167 -60,224.583l-54.166,-166.666l114.166,-57.917Z" style="fill:#1f3c88;fill-opacity:0.3;fill-rule:nonzero;"/><g><path d="M8916.67,3983.33c17.083,-55 47.916,-105.416 82.083,-151.25c10.833,-14.583 34.583,-50.416 57.083,-45c45.834,10.834 0,91.667 0,91.667c0,0 44.167,-66.25 60.417,-32.917c16.667,32.917 -7.5,70 -7.5,70c-0,0 70,-45.833 44.167,45.834c-0,-0 57.083,-7.5 22.083,55c-25,44.583 -40.833,94.166 -72.083,135.416c-31.25,41.25 -90.417,64.584 -139.584,40.834c-57.5,-27.5 -65,-101.25 -57.916,-157.5c2.083,-17.5 6.25,-35 11.25,-52.084Z" style="fill:#f9b384;fill-rule:nonzero;"/><path d="M9015.83,3969.17c-0.833,-0 -1.666,-0 -2.083,-0.417c-2.917,-1.25 -4.167,-4.583 -2.917,-7.083l52.5,-118.334c1.25,-2.916 4.584,-4.166 7.084,-2.916c2.916,1.25 4.166,4.583 2.916,7.083l-52.5,118.333c-0.833,2.084 -2.916,3.334 -5,3.334Z" style="fill:#e28b6d;fill-rule:nonzero;"/><path d="M9069.58,4012.92c-0.833,-0 -1.666,-0 -2.5,-0.417c-2.916,-1.25 -3.75,-4.583 -2.5,-7.5l49.584,-106.25c1.25,-2.917 4.583,-3.75 7.5,-2.5c2.916,1.25 3.75,4.583 2.5,7.5l-49.584,106.25c-1.25,1.667 -2.916,2.917 -5,2.917Z" style="fill:#e28b6d;fill-rule:nonzero;"/><path d="M9110.83,4048.75c-0.833,0 -1.666,0 -2.5,-0.833c-2.5,-1.25 -3.75,-4.584 -2.5,-7.5l42.917,-81.25c1.25,-2.5 4.583,-3.75 7.5,-2.5c2.5,1.25 3.75,4.583 2.5,7.5l-42.917,81.25c-1.25,2.5 -2.916,3.333 -5,3.333Z" style="fill:#e28b6d;fill-rule:nonzero;"/></g><path d="M9288.75,3605.83l-192.5,0l-33.333,-66.25l192.916,0l32.917,66.25Z" style="fill:#102048;fill-rule:nonzero;"/><path d="M9540.83,3404.17c-57.083,-0 -95,-28.334 -95.416,-28.75c-3.75,-2.917 -4.167,-7.917 -1.667,-11.667c2.917,-3.75 7.917,-4.167 11.667,-1.667c3.333,2.5 77.916,57.917 177.916,-2.5c3.75,-2.5 9.167,-1.25 11.25,2.917c2.5,3.75 1.25,9.167 -2.916,11.25c-36.667,22.917 -71.25,30.417 -100.834,30.417Z" style="fill:#ba5c36;fill-rule:nonzero;"/><path d="M9781.25,4277.08c-0.833,0 -1.667,0 -2.5,-0.416c-4.167,-1.25 -6.667,-5.834 -5.417,-10.417c79.167,-268.333 35.417,-443.75 35,-445.833l-3.333,-12.5l341.25,57.083c4.583,0.833 7.5,5 6.667,9.583c-0.834,4.584 -5.417,7.5 -9.584,6.667l-316.666,-52.917c8.333,45 31.25,210 -37.5,442.084c-0.834,4.166 -4.167,6.666 -7.917,6.666Z" style="fill:#ba5c36;fill-rule:nonzero;"/><path d="M10031.2,3860l-0.417,0c-4.583,-0.417 -7.916,-4.167 -7.916,-8.75c-0,-1.667 9.166,-179.583 -114.167,-362.083c-2.5,-3.75 -1.667,-8.75 2.083,-11.667c3.75,-2.5 8.75,-1.667 11.667,2.083c126.667,187.5 117.083,370.834 117.083,372.5c-0.416,4.584 -4.166,7.917 -8.333,7.917Z" style="fill:#ba5c36;fill-rule:nonzero;"/></g><g><path d="M9697.5,2985.83l0,212.917c0,68.75 -53.333,124.167 -119.583,124.167c-65.834,-0 -119.584,-55.417 -119.584,-124.167l0,-212.917l239.167,0Z" style="fill:#f9b384;fill-rule:nonzero;"/><path d="M9584.58,3014.17c0,-0 -12.5,131.25 -126.25,169.583l0,-186.667l126.25,17.084Z" style="fill:#102048;fill-rule:nonzero;"/><path d="M9368.33,2743.33c0,0 -37.083,298.334 79.167,333.75c116.25,35.417 222.5,-67.5 222.5,-67.5l-22.083,-246.25l-172.084,-101.25l-107.5,81.25Z" style="fill:#f9b384;fill-rule:nonzero;"/><path d="M10030,3323.33l-229.583,15.417c-29.167,-32.083 -45.417,-77.083 -56.25,-127.5c-9.584,52.083 -2.084,95.417 23.75,130l-62.084,4.167c-55,-82.5 -101.25,-265 -46.666,-421.25l6.25,-36.667c-0,0 -39.167,-118.75 -96.25,-123.75c-0,0 -195,131.667 -282.084,-15.417c-65,-109.166 -10,-252.916 145.834,-147.083c-0,0 374.583,-175.833 373.75,184.583c-0.417,64.584 24.166,127.917 71.666,171.25c4.167,4.167 8.334,7.917 12.917,11.25c84.583,66.25 175,198.75 138.75,355Z" style="fill:#102048;fill-rule:nonzero;"/><path d="M9617.49,2871.69c11.07,-34.364 43.869,-54.593 73.199,-45.145c29.33,9.448 44.155,45.018 33.086,79.382c-11.07,34.364 -43.869,54.593 -73.199,45.145c-29.33,-9.448 -44.155,-45.018 -33.086,-79.382Z" style="fill:#f9b384;"/><path d="M9663.75,2909.58c-2.917,0 -5.417,-2.5 -5.417,-5.416c0,-23.75 18.75,-45 40.834,-45.834l0.416,0c2.917,0 5.417,2.084 5.417,5.417c0,2.917 -2.083,5.833 -5.417,5.833c-14.583,0.834 -30.416,15 -30.416,35c-0,2.5 -2.5,5 -5.417,5Z" style="fill:#102048;fill-rule:nonzero;"/><path d="M9409.17,2857.08c-0,7.5 -6.25,13.75 -13.75,13.75c-7.5,0 -13.75,-6.25 -13.75,-13.75c-0,-7.5 6.25,-13.75 13.75,-13.75c7.5,0 13.75,6.25 13.75,13.75Z" style="fill:#102048;fill-rule:nonzero;"/><path d="M9492.5,2850c0,7.5 -6.25,13.75 -13.75,13.75c-7.5,0 -13.75,-6.25 -13.75,-13.75c-0,-7.5 6.25,-13.75 13.75,-13.75c7.5,0 13.75,6.25 13.75,13.75Z" style="fill:#102048;fill-rule:nonzero;"/><path d="M9429.17,2949.58c-1.25,0 -2.917,-0.416 -3.75,-1.666c-11.25,-10.834 -15.834,-21.25 -13.75,-30.834c2.083,-9.583 10.833,-15.416 15.833,-17.916l-1.25,-27.084c0,-2.916 2.083,-5.416 5.417,-5.833c2.916,0 5.416,2.083 5.833,5.417l1.667,35l-3.75,1.25c-2.917,1.25 -11.25,5 -12.5,11.666c-1.667,7.084 5,15 10.416,20.417c2.084,2.083 2.084,5.417 0,7.917c-1.25,0.833 -2.916,1.666 -4.166,1.666Z" style="fill:#102048;fill-rule:nonzero;"/><path d="M9440,2989.17c-4.583,-0 -7.5,-0.417 -7.917,-0.417c-2.916,-0.417 -5,-3.333 -4.583,-6.25c0.417,-2.917 3.333,-5 6.25,-4.583c0.417,-0 28.333,4.166 52.917,-17.5c2.083,-2.084 5.833,-1.667 7.916,0.416c2.084,2.5 1.667,5.834 -0.416,7.917c-20.417,17.5 -42.5,20.417 -54.167,20.417Z" style="fill:#102048;fill-rule:nonzero;"/><circle cx="9547.08" cy="2913.33" r="36.25" style="fill:#eb5d60;fill-opacity:0.4;"/></g></g><rect x="407.917" y="7322.08" width="11762.9" height="22.083" style="fill:#102048;"/></g></g></svg>