<?xml version="1.0" encoding="UTF-8" standalone="no"?><!DOCTYPE svg PUBLIC "-//W3C//DTD SVG 1.1//EN" "http://www.w3.org/Graphics/SVG/1.1/DTD/svg11.dtd"><svg width="100%" height="100%" viewBox="0 0 800 450" version="1.1" xmlns="http://www.w3.org/2000/svg" xmlns:xlink="http://www.w3.org/1999/xlink" xml:space="preserve" xmlns:serif="http://www.serif.com/" style="fill-rule:evenodd;clip-rule:evenodd;stroke-linejoin:round;stroke-miterlimit:2;"><g id="OBJECTS"><g><g><path d="M630.117,152.597c-54.21,-166.654 -345.55,-173.908 -367.937,13.092c0,-0 -17.257,3.429 -32.503,1.077c-83.058,-12.724 -228.43,146.363 -116.864,267.932l623.004,0c67.387,-116.071 18.986,-234.862 -105.7,-282.102l-0,0.001Z" style="fill:#009cff;fill-opacity:0.29;fill-rule:nonzero;"/><g><g><g><path d="M480.409,256.965l-1.077,-1.049c69.541,-71.496 72.29,-110.602 76.483,-169.771c1.474,-20.97 3.146,-44.66 7.963,-73.281c-32.928,15.302 -59.622,36.499 -79.374,63.023c-15.982,21.508 -27.487,46.53 -34.146,74.386c-11.364,47.494 -4.648,87.252 -4.591,87.649l-1.474,0.255c-0.056,-0.397 -6.829,-40.438 4.591,-88.215c6.716,-28.083 18.278,-53.303 34.402,-74.953c20.148,-27.091 47.494,-48.656 81.244,-64.128l1.303,-0.595l-0.226,1.388c-4.988,29.16 -6.688,53.275 -8.19,74.528c-4.194,59.566 -6.971,98.899 -76.908,170.763l-0,-0Z" style="fill:#009cff;fill-opacity:0.29;fill-rule:nonzero;"/><g><path d="M467.317,241.605l-1.445,-0.368c0.283,-1.077 27.969,-107.967 62.796,-167.306l1.304,0.765c-34.742,59.17 -62.4,165.861 -62.655,166.91l-0,-0.001Z" style="fill:#009cff;fill-opacity:0.29;fill-rule:nonzero;"/><path d="M505.714,124.174l-1.502,-0.056c0,-0.227 0.624,-21.679 -10.57,-42.337l1.332,-0.708c11.392,21.026 10.74,42.875 10.74,43.101Z" style="fill:#009cff;fill-opacity:0.29;fill-rule:nonzero;"/><path d="M489.732,167.644l-1.049,-1.077c15.926,-15.812 36.754,-20.715 36.953,-20.771l0.34,1.473c-0.227,0.057 -20.63,4.846 -36.244,20.375Z" style="fill:#009cff;fill-opacity:0.29;fill-rule:nonzero;"/></g></g><g><path d="M533.315,302.787l-0.142,-1.502c27.119,-2.692 49.109,-20.857 67.246,-55.542c16.067,-30.746 27.09,-69.994 37.774,-107.995c6.914,-24.625 13.46,-47.919 21.111,-68.067c-78.042,19.496 -110.375,81.358 -110.687,81.981l-1.332,-0.68c0.312,-0.623 33.326,-63.816 113.068,-83.114l1.388,-0.34l-0.51,1.332c-7.821,20.403 -14.509,44.15 -21.565,69.285c-10.683,38.058 -21.735,77.391 -37.887,108.278c-18.448,35.196 -40.806,53.615 -68.464,56.364l-0,-0Z" style="fill:#009cff;fill-opacity:0.29;fill-rule:nonzero;"/><path d="M526.656,265.948l-1.36,-0.595c0.453,-1.021 46.02,-103.093 84.333,-132.791l0.907,1.19c-15.699,12.157 -35.167,38.88 -56.307,77.221c-16.011,29.017 -27.46,54.72 -27.573,54.975l0,-0Z" style="fill:#009cff;fill-opacity:0.29;fill-rule:nonzero;"/><path d="M577.04,172.348l-1.473,-0.283c0.028,-0.113 2.125,-11.675 4.024,-39.588l1.501,0.114c-1.898,27.997 -4.052,39.644 -4.052,39.757Z" style="fill:#009cff;fill-opacity:0.29;fill-rule:nonzero;"/><path d="M551.48,215.818l-0.85,-1.246c0.198,-0.142 21.026,-14.339 48.372,-20.574l0.34,1.474c-27.062,6.149 -47.664,20.205 -47.862,20.346Z" style="fill:#009cff;fill-opacity:0.29;fill-rule:nonzero;"/></g></g><g><g><path d="M188.417,400.75c-67.33,-69.229 -70.022,-107.088 -74.075,-164.415c-1.445,-20.489 -3.089,-43.697 -7.878,-71.78l-0.227,-1.389l1.304,0.595c73.678,33.722 101.222,91.475 111.367,133.952c10.995,46.021 4.477,84.56 4.421,84.957l-1.474,-0.255c0.057,-0.368 6.518,-38.681 -4.42,-84.389c-10.032,-41.884 -37.123,-98.729 -109.242,-132.281c4.619,27.545 6.234,50.356 7.679,70.533c4.024,56.987 6.688,94.648 73.65,163.48l-1.105,0.991l0,0.001Z" style="fill:#009cff;fill-opacity:0.29;fill-rule:nonzero;"/><g><path d="M201.028,385.957c-0.256,-1.02 -26.893,-103.772 -60.331,-160.731l1.303,-0.765c33.552,57.157 60.218,160.08 60.501,161.129l-1.473,0.368l-0,-0.001Z" style="fill:#009cff;fill-opacity:0.29;fill-rule:nonzero;"/><path d="M164.047,272.862c-0,-0.198 -0.624,-21.253 10.371,-41.514l1.332,0.708c-10.796,19.893 -10.201,40.523 -10.173,40.75l-1.53,0.056Z" style="fill:#009cff;fill-opacity:0.29;fill-rule:nonzero;"/><path d="M179.463,314.717c-15.048,-14.934 -34.686,-19.553 -34.884,-19.61l0.34,-1.474c0.198,0.057 20.262,4.761 35.621,20.007l-1.077,1.077Z" style="fill:#009cff;fill-opacity:0.29;fill-rule:nonzero;"/></g></g><g><path d="M142.142,427.047c-57.866,-5.384 -81.017,-69.512 -101.449,-126.103c-6.915,-19.128 -13.432,-37.179 -20.998,-52.736l-0.68,-1.36l1.501,0.312c39.078,8.132 66.027,25.192 81.727,38.057c17.059,13.971 24.965,26.184 25.05,26.326l-1.275,0.822c-0.312,-0.482 -31.228,-47.636 -104.34,-63.392c7.311,15.303 13.687,32.9 20.403,51.518c20.29,56.165 43.272,119.812 100.174,125.111l-0.113,1.445l0,0Z" style="fill:#009cff;fill-opacity:0.29;fill-rule:nonzero;"/><path d="M147.894,399.192c-0.425,-0.794 -44.15,-78.382 -80.025,-101.137l0.793,-1.276c36.187,22.954 80.082,100.911 80.507,101.676l-1.275,0.737l0,-0Z" style="fill:#009cff;fill-opacity:0.29;fill-rule:nonzero;"/><path d="M99.635,327.582c-0.028,-0.085 -2.153,-8.926 -4.25,-30.236l1.502,-0.142c2.097,21.168 4.194,29.925 4.222,30.01l-1.474,0.368Z" style="fill:#009cff;fill-opacity:0.29;fill-rule:nonzero;"/><path d="M124.119,360.936c-0.198,-0.114 -19.638,-10.995 -45.028,-16.011l0.283,-1.474c25.646,5.044 45.284,16.068 45.482,16.181l-0.737,1.304Z" style="fill:#009cff;fill-opacity:0.29;fill-rule:nonzero;"/></g></g><g><g><path d="M680.022,433.707l-0.369,-1.445c63.703,-15.558 75.718,-83.993 87.337,-150.162c4.081,-23.237 8.303,-47.239 14.736,-68.01c-63.42,12.157 -99.324,55.938 -118.338,90.652c-20.744,37.916 -26.383,73.48 -26.411,73.848l-1.474,-0.227c0.057,-0.368 5.696,-36.159 26.581,-74.301c19.27,-35.224 55.854,-79.742 120.605,-91.673l1.219,-0.226l-0.369,1.19c-6.631,20.941 -10.91,45.368 -15.047,69.002c-11.732,66.65 -23.832,135.567 -88.47,151.352l-0,-0Z" style="fill:#009cff;fill-opacity:0.29;fill-rule:nonzero;"/><path d="M674.547,396.188l-1.445,-0.397c0.226,-0.85 23.718,-84.333 61.917,-117.318l0.992,1.133c-37.859,32.674 -61.209,115.76 -61.464,116.582l-0,-0Z" style="fill:#009cff;fill-opacity:0.29;fill-rule:nonzero;"/><path d="M701.554,326.165l-1.474,-0.311c0.029,-0.17 3.457,-17.173 2.267,-42.167l1.502,-0.085c1.219,25.221 -2.267,42.393 -2.295,42.563Z" style="fill:#009cff;fill-opacity:0.29;fill-rule:nonzero;"/><path d="M681.348,362.522l-0.907,-1.19c0.198,-0.17 21.168,-16.351 50.129,-26.637l0.51,1.417c-28.734,10.201 -49.505,26.24 -49.732,26.41Z" style="fill:#009cff;fill-opacity:0.29;fill-rule:nonzero;"/></g></g></g><g><path d="M533.032,127.121c-2.692,0 -4.874,-2.182 -4.874,-4.874c-0,-2.692 2.182,-4.874 4.874,-4.874c2.692,0 4.874,2.182 4.874,4.874c0,2.692 -2.182,4.874 -4.874,4.874Zm0,-8.246c-1.87,0 -3.372,1.502 -3.372,3.372c-0,1.87 1.502,3.372 3.372,3.372c1.87,0 3.372,-1.502 3.372,-3.372c0,-1.87 -1.502,-3.372 -3.372,-3.372Z" style="fill:#009cff;fill-opacity:0.29;fill-rule:nonzero;"/><path d="M129.021,202.471c-2.692,0 -4.874,-2.182 -4.874,-4.874c0,-2.692 2.182,-4.874 4.874,-4.874c2.693,0 4.875,2.182 4.875,4.874c-0,2.692 -2.182,4.874 -4.875,4.874Zm0,-8.246c-1.87,0 -3.372,1.502 -3.372,3.372c0,1.871 1.502,3.372 3.372,3.372c1.871,0 3.373,-1.501 3.373,-3.372c-0,-1.87 -1.502,-3.372 -3.373,-3.372Z" style="fill:#009cff;fill-opacity:0.29;fill-rule:nonzero;"/><path d="M581.007,311.033c-2.692,0 -4.874,-2.182 -4.874,-4.874c0,-2.692 2.182,-4.874 4.874,-4.874c2.692,-0 4.874,2.182 4.874,4.874c0,2.692 -2.182,4.874 -4.874,4.874Zm0,-8.246c-1.87,-0 -3.372,1.502 -3.372,3.372c0,1.87 1.502,3.372 3.372,3.372c1.871,0 3.372,-1.502 3.372,-3.372c0,-1.87 -1.501,-3.372 -3.372,-3.372Z" style="fill:#009cff;fill-opacity:0.29;fill-rule:nonzero;"/><path d="M746.815,259.062c-2.692,-0 -4.874,-2.182 -4.874,-4.875c-0,-2.692 2.182,-4.874 4.874,-4.874c2.692,0 4.874,2.182 4.874,4.874c-0.029,2.693 -2.211,4.875 -4.874,4.875Zm-0,-8.247c-1.871,0 -3.372,1.502 -3.372,3.372c-0,1.871 1.501,3.373 3.372,3.373c1.87,-0 3.372,-1.502 3.372,-3.373c-0,-1.87 -1.53,-3.372 -3.372,-3.372Z" style="fill:#009cff;fill-opacity:0.29;fill-rule:nonzero;"/><circle cx="564.912" cy="241.804" r="3.372" style="fill:#009cff;fill-opacity:0.29;"/><circle cx="720.175" cy="366.008" r="3.372" style="fill:#009cff;fill-opacity:0.29;"/><path d="M468.578,145.473c0.002,-1.861 1.516,-3.37 3.377,-3.367c1.861,0.003 3.37,1.516 3.367,3.377c-0.002,1.861 -1.516,3.37 -3.377,3.367c-1.861,-0.002 -3.37,-1.516 -3.367,-3.377Z" style="fill:#009cff;fill-opacity:0.29;"/><circle cx="99.55" cy="377.003" r="3.372" style="fill:#009cff;fill-opacity:0.29;"/></g><path d="M195.587,147.468c-0.425,-0 -0.879,-0.057 -1.304,-0.198l-9.323,-2.777c-1.162,-0.341 -2.125,-1.134 -2.692,-2.211c-0.567,-1.077 -0.708,-2.295 -0.34,-3.457l3.174,-10.542c-3.939,-2.097 -7.566,-4.732 -10.769,-7.821l-9.096,6.149c-2.069,1.389 -4.902,0.851 -6.319,-1.218l-5.441,-8.048c-0.68,-0.992 -0.935,-2.21 -0.709,-3.401c0.227,-1.19 0.907,-2.21 1.927,-2.89l8.983,-6.064c-1.898,-4.478 -3.088,-9.238 -3.542,-14.141l-10.655,-1.218c-1.218,-0.142 -2.295,-0.737 -3.032,-1.7c-0.765,-0.936 -1.077,-2.126 -0.963,-3.344l1.105,-9.635c0.283,-2.494 2.55,-4.279 5.044,-3.996l10.513,1.219c1.417,-4.421 3.457,-8.587 6.093,-12.412l-7.255,-7.51c-0.85,-0.878 -1.303,-2.012 -1.275,-3.23c0.029,-1.219 0.51,-2.352 1.389,-3.174l7.027,-6.716c1.814,-1.729 4.676,-1.672 6.433,0.113l7.198,7.482c4.081,-2.608 8.529,-4.591 13.205,-5.838l-0.68,-10.287c-0.17,-2.493 1.729,-4.647 4.251,-4.817l9.72,-0.623c2.522,-0.171 4.675,1.728 4.817,4.222l0.68,10.286c4.818,0.652 9.465,2.012 13.857,4.081l6.178,-8.331c1.473,-2.012 4.336,-2.437 6.348,-0.964l7.821,5.753c0.963,0.708 1.615,1.785 1.785,2.975c0.17,1.19 -0.113,2.381 -0.85,3.373l-6.234,8.416c3.117,3.457 5.667,7.339 7.651,11.533l10.286,-2.55c2.437,-0.595 4.903,0.878 5.498,3.287l2.352,9.408c0.283,1.162 0.113,2.38 -0.51,3.429c-0.624,1.048 -1.615,1.785 -2.806,2.069l-10.4,2.578c0.199,4.903 -0.368,9.777 -1.7,14.481l9.692,4.846c1.076,0.538 1.898,1.473 2.267,2.635c0.368,1.162 0.283,2.38 -0.255,3.457l-4.364,8.672c-1.134,2.238 -3.854,3.145 -6.093,2.012l-9.805,-4.903c-2.777,3.486 -6.007,6.574 -9.663,9.153l4.506,10.06c0.51,1.105 0.538,2.324 0.113,3.457c-0.425,1.134 -1.275,2.041 -2.38,2.522l-8.87,3.968c-2.295,1.02 -4.987,-0 -6.008,-2.267l-4.534,-10.089c-2.38,0.51 -4.789,0.879 -7.226,1.021c-2.437,0.17 -4.874,0.141 -7.283,-0.085l-3.202,10.598c-0.566,1.927 -2.38,3.202 -4.335,3.202Zm-21.084,-28.933l0.425,0.425c3.344,3.316 7.198,6.121 11.392,8.275l0.567,0.283l-3.514,11.76c-0.227,0.766 -0.142,1.587 0.227,2.296c0.397,0.708 1.02,1.247 1.813,1.473l9.324,2.777c1.615,0.482 3.315,-0.425 3.797,-2.04l3.542,-11.788l0.623,0.056c2.551,0.255 5.101,0.312 7.652,0.142c2.55,-0.17 5.1,-0.538 7.566,-1.134l0.595,-0.141l5.044,11.221c0.68,1.531 2.494,2.211 4.024,1.531l8.87,-3.968c0.736,-0.34 1.303,-0.935 1.615,-1.7c0.283,-0.765 0.255,-1.587 -0.057,-2.324l-5.016,-11.136l0.51,-0.369c3.883,-2.692 7.34,-5.95 10.23,-9.691l0.369,-0.482l10.91,5.441c1.502,0.765 3.344,0.142 4.08,-1.36l4.364,-8.672c0.369,-0.736 0.426,-1.558 0.17,-2.323c-0.255,-0.765 -0.793,-1.389 -1.53,-1.757l-10.825,-5.413l0.17,-0.595c1.445,-4.902 2.041,-10.031 1.786,-15.189l-0.029,-0.623l11.619,-2.891c0.793,-0.198 1.445,-0.68 1.87,-1.388c0.425,-0.68 0.538,-1.502 0.34,-2.296l-2.352,-9.408c-0.397,-1.615 -2.069,-2.607 -3.684,-2.21l-11.477,2.862l-0.255,-0.567c-2.012,-4.449 -4.732,-8.529 -8.076,-12.156l-0.425,-0.454l6.971,-9.408c0.482,-0.652 0.68,-1.445 0.567,-2.267c-0.114,-0.793 -0.539,-1.502 -1.19,-1.984l-7.822,-5.752c-1.36,-0.992 -3.258,-0.709 -4.25,0.652l-6.915,9.351l-0.566,-0.283c-4.591,-2.239 -9.494,-3.684 -14.566,-4.279l-0.623,-0.085l-0.737,-11.534c-0.114,-1.672 -1.559,-2.947 -3.231,-2.834l-9.72,0.624c-1.671,0.113 -2.947,1.558 -2.833,3.23l0.765,11.534l-0.595,0.141c-4.959,1.276 -9.607,3.316 -13.886,6.15l-0.51,0.34l-8.076,-8.36c-1.162,-1.218 -3.089,-1.247 -4.307,-0.085l-7.028,6.716c-0.595,0.567 -0.907,1.332 -0.935,2.126c-0.029,0.821 0.283,1.586 0.85,2.153l8.133,8.417l-0.369,0.51c-2.833,3.995 -4.987,8.416 -6.432,13.092l-0.17,0.595l-11.76,-1.361c-1.672,-0.198 -3.174,0.992 -3.373,2.664l-1.105,9.635c-0.085,0.793 0.142,1.587 0.624,2.239c0.51,0.651 1.218,1.048 2.04,1.133l11.873,1.36l0.057,0.624c0.397,5.157 1.672,10.145 3.741,14.82l0.255,0.567l-10.032,6.773c-0.68,0.453 -1.133,1.133 -1.275,1.927c-0.142,0.793 -0,1.615 0.482,2.267l5.441,8.048c0.935,1.388 2.833,1.757 4.222,0.822l10.031,-6.745Zm32.872,-4.449c-14.225,0 -26.241,-11.052 -27.176,-25.419c-0.963,-14.962 10.429,-27.912 25.448,-28.904c7.254,-0.482 14.282,1.898 19.751,6.688c5.469,4.789 8.756,11.42 9.21,18.674c0.481,7.255 -1.927,14.254 -6.716,19.695c-4.818,5.469 -11.449,8.728 -18.732,9.21c-0.595,0.028 -1.19,0.056 -1.785,0.056Zm0.057,-52.878c-0.567,0 -1.134,0.028 -1.729,0.057c-14.169,0.935 -24.965,13.177 -24.058,27.317c0.906,14.141 13.205,24.881 27.374,23.974c6.857,-0.453 13.148,-3.542 17.682,-8.7c4.534,-5.157 6.801,-11.76 6.348,-18.618c-0.453,-6.857 -3.542,-13.12 -8.7,-17.626c-4.704,-4.194 -10.655,-6.404 -16.917,-6.404Z" style="fill:#009cff;fill-opacity:0.29;fill-rule:nonzero;"/></g><g><path d="M436.627,433.962l-223.018,-0c-7.707,-0 -13.97,-6.263 -13.97,-13.971l-0,-325.94c-0,-7.707 6.263,-13.97 13.97,-13.97l223.018,-0c7.708,-0 13.971,6.263 13.971,13.97l-0,325.969c-0,7.708 -6.235,13.942 -13.971,13.942l0,-0Z" style="fill:#007fff;fill-rule:nonzero;"/><rect x="280.911" y="95.638" width="88.442" height="14.849" style="fill:#d3dfff;"/><rect x="224.69" y="133.129" width="200.886" height="44.547" style="fill:#dadada;"/><g transform="matrix(1,0,0,1,-3616.14,-2862.28)"><text x="3847.89px" y="3014.08px" style="font-family:'Arial-BoldMT', 'Arial', sans-serif;font-weight:700;font-size:20.833px;fill:#1b56ae;">PREVENTIV<tspan x="3964.43px 3977.93px 3990.28px 4006.49px " y="3014.08px 3014.08px 3014.08px 3014.08px ">ATOR</tspan>E</text><text x="3956.72px" y="3035.6px" style="font-family:'Arial-BoldMT', 'Arial', sans-serif;font-weight:700;font-size:20.833px;fill:#1b56ae;">ONLINE</text></g><g><path d="M373.179,216.329l-13.659,-0c-4.109,-0 -7.424,-3.316 -7.424,-7.425l-0,-3.145c-0,-4.109 3.315,-7.425 7.424,-7.425l13.659,0c4.109,0 7.424,3.316 7.424,7.425l0,3.145c0,4.109 -3.315,7.425 -7.424,7.425Z" style="fill:#1f3c88;fill-rule:nonzero;"/><path d="M418.151,216.329l-13.659,-0c-4.109,-0 -7.424,-3.316 -7.424,-7.425l-0,-3.145c-0,-4.109 3.315,-7.425 7.424,-7.425l13.659,0c4.109,0 7.424,3.316 7.424,7.425l0,3.145c0,4.109 -3.315,7.425 -7.424,7.425Z" style="fill:#1f3c88;fill-rule:nonzero;"/></g><g><path d="M422.033,261.556l-27.403,-0c-1.955,-0 -3.542,-1.587 -3.542,-3.543l0,-16.436c0,-1.955 1.587,-3.542 3.542,-3.542l27.403,0c1.955,0 3.542,1.587 3.542,3.542l0,16.436c0,1.956 -1.587,3.543 -3.542,3.543Z" style="fill:#1f3c88;fill-rule:nonzero;"/><path d="M367.029,261.556l-27.402,-0c-1.955,-0 -3.542,-1.587 -3.542,-3.543l-0,-16.436c-0,-1.955 1.587,-3.542 3.542,-3.542l27.402,0c1.956,0 3.543,1.587 3.543,3.542l-0,16.436c-0,1.956 -1.587,3.543 -3.543,3.543Z" style="fill:#1f3c88;fill-rule:nonzero;"/><path d="M312.026,261.556l-27.403,-0c-1.955,-0 -3.542,-1.587 -3.542,-3.543l0,-16.436c0,-1.955 1.587,-3.542 3.542,-3.542l27.403,0c1.955,0 3.542,1.587 3.542,3.542l0,16.436c0,1.956 -1.587,3.543 -3.542,3.543Z" style="fill:#1f3c88;fill-rule:nonzero;"/><path d="M257.023,261.556l-27.403,-0c-1.955,-0 -3.542,-1.587 -3.542,-3.543l-0,-16.436c-0,-1.955 1.587,-3.542 3.542,-3.542l27.403,0c1.955,0 3.542,1.587 3.542,3.542l-0,16.436c-0.029,1.956 -1.587,3.543 -3.542,3.543Z" style="fill:#1f3c88;fill-rule:nonzero;"/></g><g><path d="M422.033,304.033l-27.403,0c-1.955,0 -3.542,-1.586 -3.542,-3.542l0,-16.436c0,-1.955 1.587,-3.542 3.542,-3.542l27.403,0c1.955,0 3.542,1.587 3.542,3.542l0,16.436c0,1.956 -1.587,3.542 -3.542,3.542Z" style="fill:#1f3c88;fill-rule:nonzero;"/><path d="M367.029,304.033l-27.402,0c-1.955,0 -3.542,-1.586 -3.542,-3.542l-0,-16.436c-0,-1.955 1.587,-3.542 3.542,-3.542l27.402,0c1.956,0 3.543,1.587 3.543,3.542l-0,16.436c-0,1.956 -1.587,3.542 -3.543,3.542Z" style="fill:#d3dfff;fill-rule:nonzero;"/><path d="M312.026,304.033l-27.403,0c-1.955,0 -3.542,-1.586 -3.542,-3.542l0,-16.436c0,-1.955 1.587,-3.542 3.542,-3.542l27.403,0c1.955,0 3.542,1.587 3.542,3.542l0,16.436c0,1.956 -1.587,3.542 -3.542,3.542Z" style="fill:#d3dfff;fill-rule:nonzero;"/><path d="M257.023,304.033l-27.403,0c-1.955,0 -3.542,-1.586 -3.542,-3.542l-0,-16.436c-0,-1.955 1.587,-3.542 3.542,-3.542l27.403,0c1.955,0 3.542,1.587 3.542,3.542l-0,16.436c-0.029,1.956 -1.587,3.542 -3.542,3.542Z" style="fill:#d3dfff;fill-rule:nonzero;"/></g><g><path d="M422.033,346.511l-27.403,0c-1.955,0 -3.542,-1.586 -3.542,-3.542l0,-16.436c0,-1.955 1.587,-3.542 3.542,-3.542l27.403,0c1.955,0 3.542,1.587 3.542,3.542l0,16.436c0,1.956 -1.587,3.542 -3.542,3.542Z" style="fill:#1f3c88;fill-rule:nonzero;"/><path d="M367.029,346.511l-27.402,0c-1.955,0 -3.542,-1.586 -3.542,-3.542l-0,-16.436c-0,-1.955 1.587,-3.542 3.542,-3.542l27.402,0c1.956,0 3.543,1.587 3.543,3.542l-0,16.436c-0,1.956 -1.587,3.542 -3.543,3.542Z" style="fill:#d3dfff;fill-rule:nonzero;"/><path d="M312.026,346.511l-27.403,0c-1.955,0 -3.542,-1.586 -3.542,-3.542l0,-16.436c0,-1.955 1.587,-3.542 3.542,-3.542l27.403,0c1.955,0 3.542,1.587 3.542,3.542l0,16.436c0,1.956 -1.587,3.542 -3.542,3.542Z" style="fill:#d3dfff;fill-rule:nonzero;"/><path d="M257.023,346.511l-27.403,0c-1.955,0 -3.542,-1.586 -3.542,-3.542l-0,-16.436c-0,-1.955 1.587,-3.542 3.542,-3.542l27.403,0c1.955,0 3.542,1.587 3.542,3.542l-0,16.436c-0.029,1.956 -1.587,3.542 -3.542,3.542Z" style="fill:#d3dfff;fill-rule:nonzero;"/></g><g><path d="M422.033,390.492l-27.403,-0c-1.955,-0 -3.542,-1.587 -3.542,-3.542l0,-16.436c0,-1.956 1.587,-3.543 3.542,-3.543l27.403,0c1.955,0 3.542,1.587 3.542,3.543l0,16.436c0,1.955 -1.587,3.542 -3.542,3.542Z" style="fill:#fbc343;fill-rule:nonzero;"/><path d="M367.029,390.492l-27.402,-0c-1.955,-0 -3.542,-1.587 -3.542,-3.542l-0,-16.436c-0,-1.956 1.587,-3.543 3.542,-3.543l27.402,0c1.956,0 3.543,1.587 3.543,3.543l-0,16.436c-0,1.955 -1.587,3.542 -3.543,3.542Z" style="fill:#d3dfff;fill-rule:nonzero;"/><path d="M312.026,390.492l-27.403,-0c-1.955,-0 -3.542,-1.587 -3.542,-3.542l0,-16.436c0,-1.956 1.587,-3.543 3.542,-3.543l27.403,0c1.955,0 3.542,1.587 3.542,3.543l0,16.436c0,1.955 -1.587,3.542 -3.542,3.542Z" style="fill:#d3dfff;fill-rule:nonzero;"/><path d="M257.023,390.492l-27.403,-0c-1.955,-0 -3.542,-1.587 -3.542,-3.542l-0,-16.436c-0,-1.956 1.587,-3.543 3.542,-3.543l27.403,0c1.955,0 3.542,1.587 3.542,3.543l-0,16.436c-0.029,1.955 -1.587,3.542 -3.542,3.542Z" style="fill:#d3dfff;fill-rule:nonzero;"/></g></g><g><g><path d="M518.92,217.774l-9.125,27.997l-0.68,2.069l-4.222,13.007l-0.029,0.085l-13.63,-0.312l-52.283,-1.19l-3.826,-10.938l-0.651,-1.842l-10.117,-28.905c31.398,10.91 57.27,-12.865 94.563,0.029l-0,-0Z" style="fill:#43aafb;fill-rule:nonzero;"/><path d="M509.115,247.84l-4.222,13.007l-13.659,-0.199l-52.283,-1.19l-3.826,-10.938c17.966,-0.34 48.883,-0.765 73.99,-0.68l-0,-0Z" style="fill:#fff;fill-rule:nonzero;"/><path d="M567.547,405.908c-2.692,8.586 -8.019,15.784 -14.877,20.828c-6.886,5.072 -15.359,7.963 -24.342,7.963l-118.423,-0c-17.116,-0 -32.135,-11.449 -36.698,-27.97c-2.635,-9.549 -4.023,-19.241 -4.25,-28.876c-0.029,-0.935 -0.029,-1.87 -0.029,-2.777c0,-1.105 0.029,-2.21 0.057,-3.287c0.964,-34.94 18.051,-67.472 45.454,-89.179l28.337,-22.443l64.837,1.502l35.649,34.118c5.016,4.789 9.493,10.174 13.064,16.096c4.307,7.113 7.764,14.651 10.399,22.415c7.737,22.869 8.247,47.948 0.822,71.61l0,-0Z" style="fill:#43aafb;fill-rule:nonzero;"/><path d="M518.296,272.295l-91.729,0c-3.797,0 -6.886,-3.117 -6.886,-6.886l0,-2.947c0,-3.797 3.117,-6.886 6.886,-6.886l91.729,-0c3.797,-0 6.886,3.117 6.886,6.886l0,2.947c0,3.769 -3.089,6.886 -6.886,6.886Z" style="fill:#d3eaee;fill-rule:nonzero;"/><path d="M567.547,405.908c-2.692,8.586 -8.019,15.784 -14.877,20.828c-6.886,5.072 -15.359,7.963 -24.342,7.963l-118.423,-0c-17.116,-0 -32.135,-11.449 -36.698,-27.97c-2.635,-9.549 -4.023,-19.241 -4.25,-28.876c19.581,18.675 42.676,43.102 96.66,43.867c67.018,0.935 95.894,-30.491 101.08,-87.45c7.765,22.897 8.275,47.976 0.85,71.638Z" style="fill:#3135e4;fill-opacity:0.4;fill-rule:nonzero;"/></g></g><g><g><g><path d="M107.542,413.984l-11.987,-4.506l-27.856,24.484l32.957,-0l6.886,-19.978Z" style="fill:#102048;fill-rule:nonzero;"/><path d="M107.542,413.984l26.467,-0l-2.975,18.986l-30.378,0.992l6.886,-19.978Z" style="fill:#f9b384;fill-rule:nonzero;"/><path d="M213.836,307.519l-0.964,6.631l-0.595,3.996l-4.194,28.762l-1.615,10.995l-1.417,9.805l-3.74,25.561l-2.607,17.711c-1.956,13.319 -13.376,23.208 -26.836,23.208l-58.574,0l0.085,-0.736l1.898,-19.497l0.284,-2.748l40.863,-7.878l5.497,-39.843c-2.692,-11.59 -2.04,-22.755 -0.878,-30.576c0.992,-6.66 2.38,-10.91 2.38,-10.91l18.221,-5.243l32.192,-9.238Z" style="fill:#1f3c88;fill-rule:nonzero;"/><path d="M201.339,393.297l-2.607,17.711c-1.955,13.319 -13.375,23.209 -26.836,23.209l-3.004,-0c26.836,-4.818 21.594,-39.106 32.447,-40.92Z" style="fill:#102048;fill-rule:nonzero;"/><path d="M92.439,424.336l-5.745,9.242l1.275,0.793l5.746,-9.242l-1.276,-0.793Z" style="fill:#fff;"/></g><path d="M208.084,346.936l-3.033,20.8c-8.444,-2.408 -19.581,-14.48 -19.581,-14.48l22.614,-6.32Z" style="fill:#102048;fill-rule:nonzero;"/><g><path d="M270.172,399.985c-0,-0 -14.254,7.311 -39.73,2.635l21.168,-14.055l18.562,11.42Z" style="fill:#102048;fill-rule:nonzero;"/><path d="M262.35,410.073l-22.783,0.51l-0.142,-4.93l-0.34,-13.489l20.233,1.502l0.964,5.214l2.068,11.193Z" style="fill:#f9b384;fill-rule:nonzero;"/><path d="M260.282,398.879l-20.857,6.773l-0.34,-13.489l20.233,1.502l0.964,5.214Z" style="fill:#e28b6d;fill-rule:nonzero;"/><path d="M288.166,434.16l-25.107,-20.233l-0.709,-3.854l-22.783,0.51l0.623,23.577l47.976,-0Z" style="fill:#102048;fill-rule:nonzero;"/><path d="M271.05,419.588l-8.989,5.614l0.795,1.274l8.99,-5.614l-0.796,-1.274Z" style="fill:#fff;"/><path d="M163.367,322.028l81.499,-12.951c3.797,-0.595 7.708,-0.085 11.25,1.474c6.999,3.117 11.618,9.975 11.845,17.626l2.239,71.807c-0,0 -23.237,-4.874 -39.73,2.636l-1.502,-49.109c-9.975,4.534 -27.232,5.497 -44.717,3.74l-20.884,-35.224l-0,0.001Z" style="fill:#1f3c88;fill-rule:nonzero;"/><path d="M258.695,397.746l-1.502,0c-0,-12.411 0.312,-22.726 0.567,-31.823c0.652,-22.16 0.992,-34.373 -4.648,-39.531c-4.562,-4.194 -13.687,-4.052 -26.949,-2.494c-14.197,1.644 -19.864,-13.46 -19.893,-13.602l1.417,-0.51c0.198,0.567 5.299,14.197 18.335,12.639c14.027,-1.644 23.123,-1.729 28.139,2.862c6.149,5.639 5.809,17.343 5.129,40.665c-0.283,9.096 -0.595,19.383 -0.595,31.794Z" style="fill:#3a6bea;fill-rule:nonzero;"/><path d="M230.471,393.552l-0.539,-1.388c0.199,-0.085 19.185,-7.141 40.183,-1.899l-0.368,1.445c-20.489,-5.129 -39.078,1.786 -39.276,1.842Z" style="fill:#3a6bea;fill-rule:nonzero;"/></g><path d="M121.597,434.443c-2.324,-4.675 1.275,-24.03 1.445,-24.823l1.474,0.283c-1.021,5.469 -3.316,20.375 -1.559,23.889l-1.36,0.651Z" style="fill:#3a6bea;fill-rule:nonzero;"/><path d="M205.732,316.02c-0,0 -5.753,12.242 -18.731,20.488c-4.421,2.778 -8.728,4.053 -12.611,4.081c-5.866,0.028 -10.74,-2.834 -13.375,-7.651c0.992,-6.659 2.38,-10.91 2.38,-10.91l18.221,-5.243l18.392,-0.595l5.724,-0.17Z" style="fill:#102048;fill-rule:nonzero;"/></g><g><path d="M191.11,242.2l-0,17.343l16.974,0l-0,-14.991l-16.974,-2.352Z" style="fill:#ed7545;fill-rule:nonzero;"/><path d="M208.084,233.813l-16.975,-0l0,8.388l16.975,2.352l-0,-10.74Z" style="fill:#f9b384;fill-rule:nonzero;"/><path d="M196.097,236.193c0.368,0 4.109,5.838 11.987,8.36l-0.114,-9.097l-11.873,0.737Z" style="fill:#102048;fill-rule:nonzero;"/><path d="M210.095,213.07c0,-0 9.38,25.248 -2.748,26.864c-12.129,1.615 -13.999,-3.883 -13.999,-3.883l-3.741,-13.375l8.36,-11.25l12.128,1.644Z" style="fill:#f9b384;fill-rule:nonzero;"/><path d="M210.57,225.158c0.027,-1.455 1.229,-2.613 2.684,-2.586c1.454,0.027 2.613,1.229 2.586,2.683c-0.027,1.454 -1.23,2.613 -2.684,2.586c-1.454,-0.027 -2.613,-1.229 -2.586,-2.683Z" style="fill:#f9b384;"/><path d="M197.343,225.085c0,-0 0.624,-13.489 12.752,-11.987c0,0 -8.161,-10.485 -18.901,-6.404c-5.469,2.068 -9.096,7.282 -9.635,13.092c-0.68,7.509 3.684,16.067 9.805,17.569c0,0 2.012,-4.619 5.356,-10.485l0.623,-1.785Z" style="fill:#102048;fill-rule:nonzero;"/><path d="M195.095,222.103c1.84,-0.865 4.155,0.179 5.166,2.331c1.011,2.151 0.339,4.6 -1.501,5.465c-1.84,0.865 -4.155,-0.18 -5.167,-2.331c-1.011,-2.152 -0.338,-4.6 1.502,-5.465Z" style="fill:#f9b384;"/><path d="M202.554,226.642c0.027,-1.892 1.586,-3.406 3.478,-3.379c1.892,0.027 3.406,1.585 3.379,3.477c-0.027,1.893 -1.585,3.407 -3.477,3.38c-1.892,-0.027 -3.407,-1.585 -3.38,-3.478Z" style="fill:#eb5d60;fill-opacity:0.4;"/><path d="M197.683,227.437c-0.198,-0 -0.368,-0.17 -0.368,-0.369c0,-0.085 -0.057,-2.182 -2.352,-2.493c-0.198,-0.029 -0.34,-0.227 -0.312,-0.425c0.029,-0.199 0.227,-0.34 0.425,-0.312c2.976,0.425 3.004,3.23 3.004,3.259c-0.028,0.17 -0.198,0.34 -0.397,0.34Z" style="fill:#102048;fill-rule:nonzero;"/></g><g><path d="M254.444,217.462c0,-0 13.092,0.991 20.233,9.379l-16.237,3.996l-3.996,-13.375Z" style="fill:#ba5c36;fill-rule:nonzero;"/><path d="M277.653,210.264c0.056,1.19 -3.231,7.17 -5.668,11.42c-1.417,2.437 -2.522,4.307 -2.522,4.307l-8.728,2.551l-6.234,-9.408l-0.312,-0.454c0,0 0.085,-0.396 0.255,-1.133l0,-0.028c0.029,-0.029 0.029,-0.057 0.029,-0.085c1.048,-4.45 4.76,-19.638 6.914,-20.149c1.899,-0.425 0.793,7.878 0.793,7.878c0,0 4.676,-13.517 7.425,-12.95c2.21,0.425 -2.125,13.375 -2.125,13.375c-0,0 1.53,-1.615 3.117,-1.105c1.672,0.567 1.87,2.126 1.87,2.126c0,-0 1.105,-0.794 2.21,-0.114c1.106,0.68 0.992,2.777 0.992,2.777c0,0 1.87,-0.878 1.984,0.992Z" style="fill:#f9b384;fill-rule:nonzero;"/><path d="M187.142,253.451l-5.923,23.208l-9.21,35.989c-6.262,2.777 -12.836,3.797 -18.079,2.919c-6.064,-0.992 -10.315,-4.534 -10.031,-10.797c0.736,-16.861 43.243,-51.319 43.243,-51.319Z" style="fill:#ed7545;fill-rule:nonzero;"/><path d="M185.98,260.053l-4.789,16.606l-9.21,35.989c-6.262,2.777 -12.837,3.797 -18.079,2.919c13.347,-38.256 32.078,-55.514 32.078,-55.514Z" style="fill:#ba5c36;fill-rule:nonzero;"/><path d="M223.102,312.563c-12.355,0.85 -51.348,33.07 -60.727,12.271c-0,-0 1.303,-77.561 41.344,-76.144c7.085,0.255 13.319,4.988 15.444,11.732c0.964,3.061 1.927,7.056 2.664,12.185c0.765,5.214 1.332,11.59 1.53,19.383c0.199,6.008 0.114,12.837 -0.255,20.574l0,-0.001Z" style="fill:#ed7545;fill-rule:nonzero;"/><path d="M223.386,291.99c-6.178,-3.995 -12.667,-16.067 -12.667,-16.067l11.137,-3.288c0.765,5.186 1.332,11.591 1.53,19.355Z" style="fill:#ba5c36;fill-rule:nonzero;"/><path d="M271.985,221.684c-1.417,2.437 -2.522,4.308 -2.522,4.308l-8.728,2.55l-6.234,-9.408l-0.057,-1.587l-0,-0.113l0.028,-0l17.513,4.25Z" style="fill:#e28b6d;fill-rule:nonzero;"/><path d="M203.719,248.719c0,-0 19.242,1.36 30.86,3.598l19.865,-34.855c6.064,4.846 12.808,7.991 20.233,9.38l-17.371,40.976c-3.826,7.793 -11.647,12.809 -20.29,13.12l-29.783,1.021l-3.514,-33.24Z" style="fill:#ed7545;fill-rule:nonzero;"/><path d="M234.579,252.884l-0.113,0c-0.369,-0.057 -36.669,-6.716 -42.875,-1.247c-0.227,0.199 -0.595,0.17 -0.794,-0.056c-0.198,-0.227 -0.17,-0.595 0.057,-0.794c6.603,-5.837 42.308,0.709 43.81,0.992c0.312,0.057 0.51,0.34 0.454,0.652c-0.029,0.255 -0.284,0.453 -0.539,0.453Z" style="fill:#ba5c36;fill-rule:nonzero;"/></g></g><g><g><path d="M632.497,401.997l2.494,31.965l-41.6,-0l20.97,-14.481l-0.368,-20.006l18.504,2.522Z" style="fill:#102048;fill-rule:nonzero;"/><path d="M693.821,388.366l11.25,27.375l-28.479,23.973l4.109,-26.977l-5.611,-17.995l18.731,-6.376Z" style="fill:#102048;fill-rule:nonzero;"/><path d="M643.492,234.068c-0.368,1.048 -0.709,2.408 -1.049,3.995c-0.566,2.777 -1.02,6.32 -1.445,10.485c-1.332,13.602 -1.87,33.836 -2.012,55.315c-0.312,48.373 1.502,103.121 1.502,103.121l-7.623,-0.113l-18.731,-0.283l-6.631,-0.114c-10.031,-76.653 -7.169,-141.377 -5.668,-163.905c0.057,-0.793 0.114,-1.502 0.142,-2.182c0.312,-4.137 0.539,-6.348 0.539,-6.348l40.976,0l-0,0.029Z" style="fill:#1f3c88;fill-rule:nonzero;"/><path d="M700.962,395.479l-3.797,0.935l-19.978,4.988l-12.214,3.06c0,0 -14.452,-53.615 -25.985,-100.627c-5.555,-22.67 -10.429,-43.782 -12.696,-56.619c-0.793,-4.534 -1.247,-8.019 -1.303,-10.173l17.456,0.992l22.046,1.247c0,-0 0.539,3.174 1.587,8.841c4.194,22.699 16.493,85.41 34.884,147.356l0,-0Z" style="fill:#1f3c88;fill-rule:nonzero;"/><path d="M666.045,248.151c-8.869,0.737 -17.342,0.765 -25.078,0.369c-5.271,-0.284 -10.202,-0.737 -14.708,-1.275c-11.165,-1.389 -19.751,-3.429 -24.455,-4.676c-2.55,-0.68 -3.967,-1.134 -3.967,-1.134l4.08,-1.048l25.249,-6.348l16.266,0c-0.368,1.049 -0.708,2.409 -1.049,3.996l22.047,1.247c0.029,0.028 0.567,3.202 1.615,8.869Z" style="fill:#102048;fill-rule:nonzero;"/><path d="M639.751,309.701c-1.218,-5.073 -6.942,-29.16 -7.679,-33.24l-11.59,-4.336l0.538,-1.417l12.469,4.676l-0,0.51c0.085,1.105 4.675,20.601 7.736,33.438l-1.474,0.369Z" style="fill:#3a6bea;fill-rule:nonzero;"/><path d="M610.337,331.634c-5.441,0 -8.927,-1.36 -9.097,-1.417l0.567,-1.388c0.057,0.028 6.178,2.38 14.821,0.708l0.283,1.474c-2.409,0.453 -4.619,0.623 -6.574,0.623Z" style="fill:#3a6bea;fill-rule:nonzero;"/><path d="M653.722,330.586c-3.486,0 -6.433,-0.538 -6.659,-0.595l0.283,-1.474c0.113,0.029 10.23,1.899 14.934,-1.388l0.85,1.218c-2.465,1.786 -6.178,2.239 -9.408,2.239Z" style="fill:#3a6bea;fill-rule:nonzero;"/><path d="M614.864,418.905l-0.913,1.192l5.871,4.499l0.913,-1.193l-5.871,-4.498l0,0Z" style="fill:#fff;"/><path d="M681.001,412.038l-0.565,1.392l8.008,3.252l0.565,-1.392l-8.008,-3.252Z" style="fill:#fff;"/></g><g><path d="M621.502,152.115c0,0 -25.731,3.259 -32.22,32.22l7.736,34.487l-3.485,22.982c-0,-0 34.968,3.485 70.957,-2.494l-10.938,-58.602l-32.05,-28.593l0,0Z" style="fill:#ed7545;fill-rule:nonzero;"/><path d="M637.484,225.566c0,0 -7.736,-5.695 2.381,-30.604l6.744,24.54l-9.125,6.064Z" style="fill:#6e3620;fill-rule:nonzero;"/><path d="M607.305,194.253l-1.87,-3.542l28.791,-15.246c0.793,-0.425 1.813,-0.113 2.238,0.68l0.34,0.624c0.425,0.793 0.114,1.813 -0.68,2.238l-28.819,15.246Z" style="fill:#102048;fill-rule:nonzero;"/><path d="M643.974,217.462l-0.765,-0.425l-9.947,-5.356l-16.662,-9.012c-0.312,-2.012 -0.085,-3.712 1.133,-4.874l-0.821,-0.34c-1.361,-0.567 -2.352,-1.785 -2.608,-3.23l-0.028,-0.17c-0.425,-1.445 -0.227,-2.806 -0.085,-3.543l0.397,-0.51c0.963,-1.275 1.417,-1.927 2.664,-2.918l-2.126,0.113c0,-0 -5.242,1.445 -2.805,-1.927c1.672,-2.352 5.441,-4.307 7.594,-5.299c0.907,-0.425 1.984,-0.227 2.692,0.482c7.198,7.481 19.893,16.435 19.893,16.435l0.142,1.842l1.219,16.833l0.113,1.899Z" style="fill:#f9b384;fill-rule:nonzero;"/><g><path d="M624.336,188.812l-4.534,-2.21c-0.482,-0.227 -0.992,-0.312 -1.53,-0.227l-4.846,0.85l-0.142,-0.736l4.846,-0.851c0.68,-0.113 1.36,-0.028 1.984,0.284l4.534,2.21l-0.312,0.68Z" style="fill:#e28b6d;fill-rule:nonzero;"/><path d="M623.486,193.063l-5.441,-2.097c-0.255,-0.085 -0.51,-0.142 -0.765,-0.142l-3.089,0l0,-0.737l3.089,0c0.34,0 0.708,0.057 1.02,0.199l5.441,2.097l-0.255,0.68Z" style="fill:#e28b6d;fill-rule:nonzero;"/><path d="M622.721,197.314l-4.931,-1.871c-0.397,-0.141 -0.822,-0.198 -1.219,-0.141l-2.011,0.226l-0.085,-0.737l2.011,-0.226c0.539,-0.057 1.077,-0 1.587,0.198l4.931,1.87l-0.283,0.681Z" style="fill:#e28b6d;fill-rule:nonzero;"/></g><path d="M643.832,215.506l-0.623,1.531l-9.947,-5.385l6.603,-16.69l2.748,3.712l1.219,16.832Z" style="fill:#e28b6d;fill-rule:nonzero;"/><path d="M637.484,225.566c0,0 14.878,14.113 26.978,13.744l-3.486,-16.606l-23.492,2.862Z" style="fill:#ba5c36;fill-rule:nonzero;"/><path d="M621.502,152.115c0,0 1.842,-0.198 4.874,-0.085c30.01,1.02 52.992,26.836 51.546,56.846c-0.595,12.411 -3.825,24.71 -14.197,24.965l-26.241,-8.246c2.466,-9.267 4.336,-18.901 2.381,-30.605l12.185,5.809l-30.548,-48.684Z" style="fill:#ed7545;fill-rule:nonzero;"/><path d="M630.06,224.433l-36.669,0.878l-1.02,-3.089l-3.684,-11.335l-10.683,-32.786l36.697,-0.907l15.359,47.239Z" style="fill:#d3dfff;fill-rule:nonzero;"/><path d="M596.48,206.949c-0,-0 -0.057,10.144 -4.081,15.274l-3.684,-11.335l7.765,-3.939Z" style="fill:#1f3c88;fill-opacity:0.3;fill-rule:nonzero;"/><g><path d="M578.684,206.155c1.162,-3.741 3.259,-7.17 5.583,-10.287c0.736,-0.991 2.352,-3.429 3.882,-3.06c3.117,0.737 -0,6.234 -0,6.234c-0,0 3.004,-4.506 4.109,-2.239c1.133,2.239 -0.51,4.761 -0.51,4.761c-0,0 4.76,-3.117 3.003,3.117c0,0 3.883,-0.51 1.502,3.741c-1.7,3.032 -2.777,6.404 -4.902,9.21c-2.125,2.805 -6.149,4.392 -9.493,2.777c-3.911,-1.871 -4.421,-6.886 -3.939,-10.712c0.142,-1.19 0.425,-2.38 0.765,-3.542Z" style="fill:#f9b384;fill-rule:nonzero;"/><path d="M585.428,205.192c-0.057,-0 -0.113,-0 -0.142,-0.029c-0.198,-0.085 -0.283,-0.311 -0.198,-0.481l3.57,-8.048c0.085,-0.198 0.312,-0.283 0.482,-0.198c0.199,0.085 0.284,0.311 0.199,0.481l-3.571,8.048c-0.057,0.142 -0.198,0.227 -0.34,0.227Z" style="fill:#e28b6d;fill-rule:nonzero;"/><path d="M589.084,208.167c-0.057,0 -0.114,0 -0.171,-0.028c-0.198,-0.085 -0.255,-0.312 -0.17,-0.51l3.373,-7.226c0.085,-0.199 0.311,-0.255 0.51,-0.17c0.198,0.085 0.255,0.311 0.17,0.51l-3.372,7.226c-0.085,0.113 -0.199,0.198 -0.34,0.198Z" style="fill:#e28b6d;fill-rule:nonzero;"/><path d="M591.889,210.604c-0.057,0 -0.113,0 -0.17,-0.057c-0.17,-0.085 -0.255,-0.311 -0.17,-0.51l2.919,-5.525c0.085,-0.17 0.311,-0.255 0.51,-0.17c0.17,0.085 0.255,0.311 0.17,0.51l-2.919,5.525c-0.085,0.17 -0.198,0.227 -0.34,0.227Z" style="fill:#e28b6d;fill-rule:nonzero;"/></g><path d="M603.989,180.481l-13.092,-0l-2.267,-4.506l13.121,0l2.238,4.506Z" style="fill:#102048;fill-rule:nonzero;"/><path d="M621.133,166.766c-3.882,-0 -6.461,-1.927 -6.489,-1.955c-0.255,-0.199 -0.283,-0.539 -0.113,-0.794c0.198,-0.255 0.538,-0.283 0.793,-0.113c0.227,0.17 5.299,3.939 12.1,-0.17c0.255,-0.17 0.624,-0.085 0.766,0.198c0.17,0.255 0.085,0.624 -0.199,0.765c-2.494,1.559 -4.846,2.069 -6.858,2.069Z" style="fill:#ba5c36;fill-rule:nonzero;"/><path d="M637.484,226.133c-0.056,-0 -0.113,-0 -0.17,-0.028c-0.283,-0.085 -0.453,-0.397 -0.368,-0.709c5.384,-18.249 2.409,-30.179 2.38,-30.321l-0.226,-0.85l23.208,3.882c0.312,0.057 0.51,0.34 0.454,0.652c-0.057,0.312 -0.369,0.51 -0.652,0.453l-21.537,-3.599c0.567,3.061 2.126,14.282 -2.55,30.067c-0.057,0.283 -0.283,0.453 -0.539,0.453Z" style="fill:#ba5c36;fill-rule:nonzero;"/><path d="M654.484,197.767l-0.029,0c-0.311,-0.028 -0.538,-0.283 -0.538,-0.595c-0,-0.113 0.623,-12.213 -7.765,-24.625c-0.17,-0.255 -0.113,-0.595 0.142,-0.794c0.255,-0.17 0.595,-0.113 0.794,0.142c8.614,12.752 7.962,25.22 7.962,25.334c-0.028,0.311 -0.283,0.538 -0.566,0.538Z" style="fill:#ba5c36;fill-rule:nonzero;"/></g><g><path d="M631.789,138.314l-0,14.481c-0,4.676 -3.628,8.445 -8.133,8.445c-4.478,-0 -8.133,-3.769 -8.133,-8.445l-0,-14.481l16.266,0Z" style="fill:#f9b384;fill-rule:nonzero;"/><path d="M624.109,140.242c-0,-0 -0.85,8.926 -8.586,11.533l-0,-12.695l8.586,1.162Z" style="fill:#102048;fill-rule:nonzero;"/><path d="M609.402,121.822c-0,-0 -2.522,20.29 5.384,22.698c7.906,2.409 15.132,-4.59 15.132,-4.59l-1.502,-16.748l-11.703,-6.886l-7.311,5.526Z" style="fill:#f9b384;fill-rule:nonzero;"/><path d="M654.402,161.268l-15.614,1.049c-1.984,-2.182 -3.089,-5.243 -3.826,-8.672c-0.651,3.542 -0.141,6.49 1.616,8.842l-4.223,0.283c-3.74,-5.611 -6.886,-18.023 -3.173,-28.649l0.425,-2.494c-0,-0 -2.664,-8.076 -6.546,-8.416c-0,-0 -13.262,8.954 -19.185,-1.049c-4.421,-7.424 -0.68,-17.201 9.918,-10.003c0,-0 25.476,-11.959 25.419,12.553c-0.028,4.393 1.644,8.7 4.874,11.647c0.284,0.284 0.567,0.539 0.879,0.765c5.752,4.506 11.901,13.517 9.436,24.144Z" style="fill:#102048;fill-rule:nonzero;"/><path d="M626.347,130.552c0.753,-2.337 2.984,-3.713 4.978,-3.071c1.995,0.643 3.003,3.062 2.251,5.399c-0.753,2.337 -2.984,3.713 -4.979,3.071c-1.994,-0.643 -3.003,-3.062 -2.25,-5.399Z" style="fill:#f9b384;"/><path d="M629.493,133.129c-0.198,-0 -0.368,-0.17 -0.368,-0.369c-0,-1.615 1.275,-3.06 2.777,-3.117l0.028,0c0.199,0 0.369,0.142 0.369,0.369c-0,0.198 -0.142,0.396 -0.369,0.396c-0.992,0.057 -2.068,1.02 -2.068,2.381c-0,0.17 -0.17,0.34 -0.369,0.34Z" style="fill:#102048;fill-rule:nonzero;"/><path d="M612.179,129.558c0,0.51 -0.425,0.935 -0.935,0.935c-0.51,0 -0.935,-0.425 -0.935,-0.935c-0,-0.51 0.425,-0.935 0.935,-0.935c0.51,-0 0.935,0.425 0.935,0.935Z" style="fill:#102048;fill-rule:nonzero;"/><path d="M617.846,129.077c0,0.51 -0.425,0.935 -0.935,0.935c-0.51,-0 -0.935,-0.425 -0.935,-0.935c0,-0.51 0.425,-0.936 0.935,-0.936c0.51,0 0.935,0.426 0.935,0.936Z" style="fill:#102048;fill-rule:nonzero;"/><path d="M613.539,135.849c-0.085,0 -0.198,-0.028 -0.255,-0.113c-0.765,-0.737 -1.077,-1.445 -0.935,-2.097c0.142,-0.652 0.737,-1.049 1.077,-1.219l-0.085,-1.842c-0,-0.198 0.142,-0.368 0.368,-0.396c0.199,-0 0.369,0.141 0.397,0.368l0.113,2.38l-0.255,0.085c-0.198,0.085 -0.765,0.34 -0.85,0.794c-0.113,0.482 0.34,1.02 0.709,1.388c0.141,0.142 0.141,0.369 -0,0.539c-0.085,0.056 -0.199,0.113 -0.284,0.113Z" style="fill:#102048;fill-rule:nonzero;"/><path d="M614.276,138.542c-0.312,-0 -0.51,-0.029 -0.539,-0.029c-0.198,-0.028 -0.34,-0.226 -0.311,-0.425c0.028,-0.198 0.226,-0.34 0.425,-0.311c0.028,-0 1.927,0.283 3.599,-1.191c0.141,-0.141 0.396,-0.113 0.538,0.029c0.142,0.17 0.114,0.396 -0.028,0.538c-1.389,1.19 -2.891,1.389 -3.684,1.389Z" style="fill:#102048;fill-rule:nonzero;"/><circle cx="621.558" cy="133.384" r="2.465" style="fill:#eb5d60;fill-opacity:0.4;"/></g></g><rect x="0" y="433.225" width="800" height="1.502" style="fill:#102048;"/><path d="M433.204,359.017l-16.053,-9.875l-0,20.091l16.053,9.924l-0,-20.14Z" style="fill:#1f3b71;fill-rule:nonzero;"/><path d="M433.107,380.47l-8.611,-5.302l0,10.799l8.611,5.302l-0,-10.799Z" style="fill:#1f3b71;fill-rule:nonzero;"/><path d="M423.426,374.584l-4.864,-3.016l-0,6.081l4.864,3.016l0,-6.081Z" style="fill:#1f3b71;fill-rule:nonzero;"/><path d="M423.913,381.735l-2.676,-1.654l0,3.356l2.676,1.654l-0,-3.356Z" style="fill:#1f3b71;fill-rule:nonzero;"/><path d="M435.831,359.017l16.053,-9.875l0,20.091l-16.053,9.924l-0,-20.14Z" style="fill:#1f3b71;fill-rule:nonzero;"/><path d="M453.1,348.704l8.27,-5.108l-0,10.411l-8.27,5.108l0,-10.411Z" style="fill:#1f3b71;fill-rule:nonzero;"/><path d="M453.1,360.525l5.157,-3.21l-0,6.47l-5.157,3.21l0,-6.47Z" style="fill:#1f3b71;fill-rule:nonzero;"/><path d="M458.743,356.342l2.384,-1.46l-0,3.016l-2.384,1.46l0,-3.016Z" style="fill:#1f3b71;fill-rule:nonzero;"/><path d="M417.151,345.834l17.366,-10.751l17.367,10.751l-17.367,10.702l-17.366,-10.702Z" style="fill:#1f3b71;fill-rule:nonzero;"/><path d="M406.4,338.781l9.632,-5.935l9.68,5.935l-9.68,5.983l-9.632,-5.983Z" style="fill:#1f3b71;fill-rule:nonzero;"/><path d="M422.064,335.083l4.67,-2.918l4.719,2.918l-4.719,2.919l-4.67,-2.919Z" style="fill:#1f3b71;fill-rule:nonzero;"/><path d="M417.637,333.138l3.357,-2.092l3.356,2.092l-3.356,2.091l-3.357,-2.091Z" style="fill:#1f3b71;fill-rule:nonzero;"/><path d="M419.437,368.99l0.098,-2.238l5.351,-2.627c0.048,-0.049 0.194,-0.097 0.437,-0.195c0.195,-0.097 0.341,-0.145 0.438,-0.194c0.049,-0.049 0.195,-0.097 0.389,-0.195c0.195,-0.097 0.292,-0.194 0.39,-0.243c0.048,-0.049 0.145,-0.195 0.291,-0.292c0.098,-0.146 0.195,-0.243 0.244,-0.389c0.048,-0.146 0.097,-0.292 0.146,-0.486c0.048,-0.195 0.097,-0.39 0.097,-0.584c0.048,-0.633 -0.146,-1.265 -0.487,-1.897c-0.34,-0.633 -0.875,-1.168 -1.605,-1.606c-0.438,-0.243 -0.778,-0.389 -1.07,-0.389c-0.292,0 -0.535,0.049 -0.73,0.243c-0.146,0.195 -0.292,0.438 -0.389,0.681c-0.097,0.292 -0.146,0.584 -0.146,0.973l0,0.535l-2.919,-1.702l0,-0.535c0.049,-1.46 0.535,-2.335 1.362,-2.676c0.876,-0.34 2.189,0 3.941,1.022c1.654,0.973 2.918,2.043 3.794,3.259c0.827,1.216 1.265,2.481 1.216,3.746c0,0.486 -0.097,0.875 -0.243,1.265c-0.146,0.34 -0.341,0.632 -0.584,0.875c-0.243,0.243 -0.486,0.438 -0.681,0.584c-0.194,0.146 -0.486,0.292 -0.875,0.486l-5.351,2.044l7.345,4.183l-0.097,2.238l-10.362,-5.886Z" style="fill:#ebeced;fill-rule:nonzero;"/><path d="M443.76,372.881c-1.897,1.119 -3.308,1.606 -4.329,1.411c-0.973,-0.195 -1.508,-0.973 -1.508,-2.384l-0,-0.583l3.308,-1.946c-0,0.389 -0,0.681 0.048,0.924c0.049,0.243 0.097,0.487 0.195,0.681c0.097,0.243 0.243,0.341 0.389,0.438c0.194,0.049 0.438,0.049 0.73,-0c0.292,-0.097 0.681,-0.243 1.118,-0.487c0.438,-0.243 0.827,-0.535 1.119,-0.827c0.292,-0.291 0.535,-0.583 0.73,-0.827c0.195,-0.291 0.292,-0.583 0.389,-0.924c0.097,-0.34 0.146,-0.632 0.195,-0.924c0.048,-0.292 0.048,-0.632 0.048,-0.973c0,-0.973 -0.243,-1.557 -0.778,-1.8c-0.535,-0.194 -1.362,0 -2.578,0.73l-0,-2.433c1.216,-0.729 2.092,-1.41 2.578,-2.043c0.487,-0.681 0.778,-1.41 0.778,-2.335c0,-0.778 -0.194,-1.313 -0.535,-1.508c-0.34,-0.194 -1.021,0 -1.946,0.535c-0.437,0.244 -0.826,0.536 -1.118,0.827c-0.292,0.292 -0.536,0.584 -0.73,0.827c-0.195,0.292 -0.292,0.584 -0.389,0.925c-0.098,0.34 -0.146,0.632 -0.195,0.924c-0.048,0.292 -0.048,0.632 -0.048,0.973l-3.308,1.946l-0,-0.584c-0,-1.362 0.486,-2.773 1.508,-4.135c1.021,-1.362 2.432,-2.627 4.329,-3.697c1.897,-1.119 3.357,-1.605 4.33,-1.411c0.973,0.195 1.508,0.973 1.508,2.384c-0,0.973 -0.292,1.897 -0.876,2.87c-0.584,0.973 -1.411,1.849 -2.432,2.724c1.07,-0.389 1.897,-0.389 2.481,0c0.583,0.389 0.827,1.119 0.827,2.238c-0,1.605 -0.487,3.113 -1.411,4.524c-0.924,1.459 -2.432,2.724 -4.427,3.94" style="fill:#ebeced;fill-rule:nonzero;"/><rect x="433.204" y="338.148" width="2.676" height="14.691" style="fill:#ebeced;"/><path d="M467.84,359.552l-2.627,-10.361l1.411,-0l1.216,5.254c0.292,1.313 0.584,2.578 0.778,3.599l0.049,0c0.146,-1.021 0.486,-2.286 0.827,-3.599l1.362,-5.254l1.411,-0l1.264,5.254c0.292,1.216 0.584,2.48 0.73,3.551l0.049,-0c0.194,-1.119 0.486,-2.287 0.827,-3.6l1.362,-5.254l1.362,0l-2.919,10.362l-1.411,-0l-1.313,-5.4c-0.341,-1.313 -0.535,-2.335 -0.681,-3.405l-0.049,-0c-0.194,1.021 -0.437,2.043 -0.778,3.405l-1.459,5.4l-1.411,-0l-0,0.048Z" style="fill:#1f3b71;fill-rule:nonzero;"/><path d="M483.358,355.126c-0,-0.876 -0.341,-2.19 -1.897,-2.19c-1.362,0 -1.946,1.265 -2.092,2.19l3.989,-0Zm-3.989,0.924c0.049,1.848 1.216,2.578 2.578,2.578c0.973,0 1.557,-0.146 2.043,-0.389l0.243,0.973c-0.486,0.194 -1.313,0.438 -2.48,0.438c-2.287,-0 -3.649,-1.508 -3.649,-3.746c0,-2.238 1.314,-4.038 3.503,-4.038c2.432,0 3.064,2.141 3.064,3.503c0,0.292 -0.048,0.486 -0.048,0.632l-5.254,0l-0,0.049Z" style="fill:#1f3b71;fill-rule:nonzero;"/><path d="M487.687,356.585c0,0.146 0.049,0.34 0.049,0.486c0.243,0.925 1.07,1.606 2.043,1.606c1.411,-0 2.238,-1.168 2.238,-2.87c-0,-1.508 -0.779,-2.773 -2.238,-2.773c-0.924,-0 -1.8,0.632 -2.043,1.654c-0.049,0.146 -0.097,0.34 -0.097,0.535l-0,1.362l0.048,-0Zm-1.41,2.967c0.048,-0.486 0.048,-1.265 0.048,-1.946l0,-8.999l1.362,0l0,4.67l0.049,0c0.486,-0.827 1.362,-1.362 2.53,-1.362c1.848,-0 3.162,1.557 3.162,3.794c-0,2.676 -1.654,3.989 -3.357,3.989c-1.07,0 -1.946,-0.438 -2.481,-1.411l-0.049,0l-0.048,1.217l-1.216,-0l-0,0.048Z" style="fill:#1f3b71;fill-rule:nonzero;"/><path d="M496.492,358.531c0.244,0.048 0.633,0.048 1.119,0.048c1.362,0 2.676,-0.486 2.676,-1.994c-0,-1.411 -1.216,-1.995 -2.676,-1.995l-1.119,0l0,3.941Zm0,-4.962l1.216,-0c1.411,-0 2.238,-0.73 2.238,-1.751c0,-1.217 -0.924,-1.703 -2.286,-1.703c-0.633,-0 -0.973,0.049 -1.168,0.097l0,3.357Zm-1.362,-4.232c0.584,-0.146 1.508,-0.195 2.432,-0.195c1.363,0 2.19,0.243 2.871,0.73c0.535,0.389 0.875,1.021 0.875,1.848c0,1.022 -0.681,1.897 -1.751,2.287l-0,0.048c0.973,0.244 2.14,1.071 2.14,2.579c0,0.875 -0.34,1.556 -0.875,2.091c-0.73,0.681 -1.897,0.973 -3.6,0.973c-0.924,0 -1.654,-0.048 -2.092,-0.146l0,-10.215Z" style="fill:#1f3b71;fill-rule:nonzero;"/><path d="M503.449,354.445c-0,-0.876 -0,-1.654 -0.049,-2.335l1.168,-0l0.048,1.459l0.049,-0c0.34,-1.022 1.167,-1.654 2.043,-1.654c0.146,-0 0.243,-0 0.389,0.049l0,1.264c-0.146,-0.048 -0.292,-0.048 -0.438,-0.048c-0.973,-0 -1.654,0.729 -1.8,1.751c-0.048,0.195 -0.048,0.389 -0.048,0.632l-0,3.989l-1.362,0l-0,-5.107Z" style="fill:#1f3b71;fill-rule:nonzero;"/><path d="M509.14,355.855c0,1.654 0.924,2.87 2.287,2.87c1.313,0 2.286,-1.216 2.286,-2.87c-0,-1.265 -0.632,-2.87 -2.238,-2.87c-1.654,-0.049 -2.335,1.46 -2.335,2.87m5.935,-0.097c0,2.773 -1.897,3.94 -3.697,3.94c-1.995,0 -3.551,-1.459 -3.551,-3.843c-0,-2.481 1.654,-3.94 3.697,-3.94c2.092,-0 3.551,1.557 3.551,3.843" style="fill:#1f3b71;fill-rule:nonzero;"/><path d="M518.091,355.515c0.195,-0.244 0.487,-0.584 0.681,-0.827l2.189,-2.578l1.654,-0l-2.87,3.064l3.259,4.378l-1.654,0l-2.578,-3.551l-0.681,0.779l0,2.821l-1.362,-0l0,-10.945l1.362,-0l0,6.859Z" style="fill:#1f3b71;fill-rule:nonzero;"/><path d="M528.696,355.126c-0,-0.876 -0.341,-2.19 -1.898,-2.19c-1.362,0 -1.945,1.265 -2.091,2.19l3.989,-0Zm-3.941,0.924c0.049,1.848 1.216,2.578 2.579,2.578c0.972,0 1.556,-0.146 2.043,-0.389l0.243,0.973c-0.487,0.194 -1.314,0.438 -2.481,0.438c-2.286,-0 -3.649,-1.508 -3.649,-3.746c0,-2.238 1.314,-4.038 3.503,-4.038c2.432,0 3.065,2.141 3.065,3.503c-0,0.292 -0.049,0.486 -0.049,0.632l-5.254,0l0,0.049Z" style="fill:#1f3b71;fill-rule:nonzero;"/><path d="M531.712,354.445c0,-0.876 0,-1.654 -0.048,-2.335l1.167,-0l0.049,1.459l0.049,-0c0.34,-1.022 1.167,-1.654 2.043,-1.654c0.146,-0 0.243,-0 0.389,0.049l-0,1.264c-0.146,-0.048 -0.292,-0.048 -0.438,-0.048c-0.973,-0 -1.654,0.729 -1.8,1.751c-0.048,0.195 -0.048,0.389 -0.048,0.632l-0,3.989l-1.363,0l0,-5.107Z" style="fill:#1f3b71;fill-rule:nonzero;"/></g></g></svg>