<?xml version="1.0" encoding="UTF-8" standalone="no"?><!DOCTYPE svg PUBLIC "-//W3C//DTD SVG 1.1//EN" "http://www.w3.org/Graphics/SVG/1.1/DTD/svg11.dtd"><svg width="100%" height="100%" viewBox="0 0 179046 119359" version="1.1" xmlns="http://www.w3.org/2000/svg" xmlns:xlink="http://www.w3.org/1999/xlink" xml:space="preserve" xmlns:serif="http://www.serif.com/" style="fill-rule:evenodd;clip-rule:evenodd;stroke-linejoin:round;stroke-miterlimit:2;"><g><path d="M93960.4,107400c-10884.7,0 -24147.6,-366.025 -28680.9,-539.637c-812.708,-31.109 -1522.13,-530.971 -1937.71,-1276.04c-233.367,-418.838 -374.063,-914.358 -388.384,-1448.21c-376.095,-14013.3 411.821,-53556.2 654.655,-65020c39.787,-1874.48 1293.12,-3407.33 2892.58,-3528.63c1266.2,-96.146 2821.62,-138.679 4579.42,-138.679c10554.6,0 28372.2,1534.79 34231.6,2220.55c1585.66,185.559 2832.03,1664.79 2965.85,3522.43c240.175,3328.06 407.275,7499.29 519.396,12120.4c273.437,11289.3 218.47,25254.7 102.012,36099.7c-1.458,196.042 -3.629,389.183 -5.8,582.325c-8.679,797.154 -18.087,1577.69 -27.483,2337.24c-50.642,4142.06 -107.792,7683.75 -153.367,10240.9c-26.754,1524.88 -668.404,2872.53 -1649.3,3716.72c-499.846,430.421 -1088.68,730.609 -1728.14,855.767c-164.933,32.55 -334.204,52.796 -504.916,61.475c-2850.85,139.617 -6684.04,193.871 -10869.5,193.871l-0,0.054l0.025,-0.15Zm-21707,-67825c-1289.93,-0 -2418.1,26.2 -3329.43,84.358c-1368.56,87.379 -2457.03,1371.8 -2515.54,2973.73c-337.763,9253.04 -1403.37,40035.9 -1065.19,51418.3c49.409,1663.77 1170.36,3009.25 2591.01,3106.2c4130.78,282.829 15299,806.558 24525,806.558c3837.52,0 7338.67,-90.412 9858.92,-326.25c1544.43,-145.396 2756.83,-1606.61 2840,-3417.24c435.471,-9439.38 1683.3,-38102.8 1359.24,-49357.9c-52.084,-1795.43 -1240.61,-3261.86 -2769.83,-3422.45c-5537.46,-581.666 -22465.3,-1865.17 -31494.2,-1865.17l0.083,0.017l-0.017,-0.175Zm8368.5,-2664.06c-334.912,0 -657.533,5.73 -961.37,18.455c-303.092,12.658 -541.809,306.354 -541.809,660.958c0,351.7 234.375,641.854 534.584,660.154c1482.92,90.85 5658.25,347.867 7524.58,474.6c11.583,0.729 23.162,1.163 34.012,1.163c351.563,-0 620.642,-376.23 553.384,-786.525l-12.309,-72.346c-47.012,-288.838 -252.445,-506.284 -502.741,-533.125c-1108.94,-118.921 -4186.92,-423.334 -6628.33,-423.334Z" style="fill:#003690;"/><path d="M92459.6,97964.6c-9226,0 -20394.2,-523.729 -24525,-806.562c-1420.64,-96.942 -2541.6,-1442.43 -2591.01,-3106.2c-338.179,-11382.4 727.429,-42165.4 1065.19,-51418.3c58.504,-1601.93 1146.98,-2886.36 2515.54,-2973.73c911.321,-58.158 2039.5,-84.358 3329.43,-84.358c9028.96,0 25956.8,1283.51 31494.2,1865.17c1529.22,160.592 2717.75,1627.01 2769.83,3422.45c324.063,11255.3 -923.766,39918.6 -1359.24,49357.9c-83.175,1810.62 -1295.57,3271.84 -2840,3417.24c-2520.24,235.833 -6021.42,326.25 -9858.92,326.25l-0.083,-0.021l0.012,0.175Zm-21397,-40540.8c-279.288,-0 -549.775,105.97 -755.434,298.541c-229.95,215.346 -356.771,518.438 -349.462,833.4c214.133,9291.96 -448.125,21832.3 15033,31475.7c178.679,110.679 381.941,167.1 585.937,167.1c161.317,-0 322.638,-34.721 472.375,-106.338c3106.18,-1471.35 18083,-9806.12 15701.7,-32809.2c-55.692,-539.634 -495.5,-959.913 -1037.33,-989.721c-2618.63,-143.958 -10162.8,-848.388 -14714.2,-4249.88c-202.55,-151.25 -478.888,-271.979 -727.725,-271.979c-151.196,-0 -292.238,44.912 -400.033,154.95c-3774.6,3862.05 -9394.54,5537.17 -12877.9,5537.17c-293.196,0 -571.338,-11.854 -831.892,-35.291c-33.054,-2.971 -66.042,-4.413 -98.958,-4.413l-0,-0.05l-0.025,0.009Z" style="fill:#90edff;fill-opacity:0;"/><path d="M87212.1,38726.6c-10.854,0 -22.433,-0.433 -34.012,-1.162c-348.3,-23.654 -777.025,-51.842 -1253.66,-82.642c-749.425,-48.429 -1617.29,-103.308 -2477.24,-157.154c-1523.76,-95.413 -3022.66,-187.567 -3793.69,-234.804c-300.208,-18.3 -534.583,-308.454 -534.583,-660.159c0,-354.6 238.717,-648.295 541.804,-660.954c303.838,-12.725 626.459,-18.454 961.375,-18.454c2441.4,0 5519.38,304.408 6628.33,423.333c250.295,26.842 455.729,244.288 502.741,533.125l12.309,72.342c67.258,410.296 -201.821,786.529 -553.384,786.529Z" style="fill:#fff;"/><path d="M78470,67592.1l-3205.05,-1971.58l0,4011.16l3205.05,1981.3l0,-4020.89Z" style="fill:#1f3b71;fill-rule:nonzero;"/><path d="M78450.8,71875l-1719.06,-1058.61l-0,2156.11l1719.06,1058.62l0,-2156.12Z" style="fill:#1f3b71;fill-rule:nonzero;"/><path d="M76517.9,70700l-971.23,-602.171l0,1214.05l971.23,602.154l-0,-1214.03Z" style="fill:#1f3b71;fill-rule:nonzero;"/><path d="M76615,72127.9l-534.183,-330.225l-0,670.154l534.183,330.208l0,-670.137Z" style="fill:#1f3b71;fill-rule:nonzero;"/><path d="M78994.6,67592.1l3205.04,-1971.58l-0,4011.16l-3205.04,1981.3l0,-4020.89Z" style="fill:#1f3b71;fill-rule:nonzero;"/><path d="M82442.5,65532.9l1651.08,-1019.79l0,2078.44l-1651.08,1019.79l0,-2078.44Z" style="fill:#1f3b71;fill-rule:nonzero;"/><path d="M82442.5,67893.3l1029.5,-641.008l-0,1291.74l-1029.5,641.008l0,-1291.74Z" style="fill:#1f3b71;fill-rule:nonzero;"/><path d="M83569.2,67057.9l475.921,-291.371l-0,602.15l-475.921,291.371l-0,-602.15Z" style="fill:#1f3b71;fill-rule:nonzero;"/><path d="M75265,64960l3467.28,-2146.43l3467.28,2146.43l-3467.28,2136.68l-3467.28,-2136.68Z" style="fill:#1f3b71;fill-rule:nonzero;"/><path d="M73118.8,63551.7l1923.04,-1184.88l1932.72,1184.88l-1932.72,1194.62l-1923.04,-1194.62Z" style="fill:#1f3b71;fill-rule:nonzero;"/><path d="M76245.8,62813.8l932.38,-582.725l942.083,582.725l-942.083,582.742l-932.38,-582.742Z" style="fill:#1f3b71;fill-rule:nonzero;"/><path d="M75362.5,62425l670.142,-417.642l670.154,417.642l-670.154,417.621l-670.142,-417.621Z" style="fill:#1f3b71;fill-rule:nonzero;"/><path d="M75721.7,69583.3l19.425,-446.77l1068.35,-524.459c9.725,-9.708 38.854,-19.429 87.416,-38.837c38.855,-19.446 67.984,-29.134 87.396,-38.854c9.721,-9.725 38.871,-19.43 77.688,-38.855c38.875,-19.429 58.283,-38.837 77.729,-48.558c9.687,-9.725 29.129,-38.854 58.262,-58.283c19.425,-29.134 38.838,-48.542 48.559,-77.675c9.72,-29.146 19.408,-58.279 29.133,-97.134c9.721,-38.854 19.425,-77.691 19.425,-116.545c9.704,-126.267 -29.15,-252.517 -97.117,-378.784c-67.987,-126.271 -174.808,-233.091 -320.504,-320.504c-87.412,-48.558 -155.4,-77.692 -213.679,-77.692c-58.267,0 -106.825,9.705 -145.679,48.559c-29.133,38.854 -58.279,87.412 -77.692,135.954c-19.442,58.283 -29.129,116.546 -29.129,194.271l-0,106.825l-582.746,-339.934l0,-106.837c9.708,-291.371 106.825,-466.2 271.929,-534.167c174.825,-67.987 437.05,0 786.7,203.959c330.225,194.237 582.725,407.916 757.554,650.712c165.121,242.813 252.534,495.329 242.813,747.863c-0,97.1 -19.413,174.808 -48.558,252.5c-29.134,68.004 -67.988,126.266 -116.546,174.829c-48.579,48.558 -97.121,87.412 -135.992,116.541c-38.817,29.134 -97.1,58.284 -174.808,97.138l-1068.35,407.917l1466.56,835.241l-19.446,446.771l-2068.7,-1175.19Z" style="fill:#ebeced;fill-rule:nonzero;"/><path d="M80577.9,70360c-378.788,223.383 -660.454,320.5 -864.413,281.667c-194.233,-38.855 -301.075,-194.271 -301.075,-475.905l0,-116.562l660.433,-388.487c0,77.708 0,135.987 9.726,184.529c9.687,48.558 19.408,97.137 38.833,135.971c19.429,48.579 48.579,67.987 77.708,87.412c38.838,9.725 87.417,9.725 145.679,0c58.28,-19.425 135.971,-48.558 223.384,-97.117c87.416,-48.575 165.104,-106.837 223.371,-165.121c58.279,-58.262 106.854,-116.545 145.675,-165.104c38.87,-58.262 58.283,-116.545 77.724,-184.529c19.413,-67.971 29.134,-126.25 38.838,-184.516c9.704,-58.28 9.704,-126.267 9.704,-194.271c0,-194.238 -48.542,-310.78 -155.4,-359.342c-106.821,-38.85 -271.925,0 -514.737,145.696l-0,-485.625c242.812,-145.696 417.637,-281.65 514.737,-407.917c97.138,-135.971 155.4,-281.65 155.4,-466.196c0,-155.383 -38.854,-262.225 -106.821,-301.062c-67.987,-38.854 -203.958,-0 -388.491,106.825c-87.413,48.558 -165.105,106.821 -223.384,165.104c-58.266,58.279 -106.841,116.546 -145.679,165.121c-38.854,58.283 -58.279,116.546 -77.708,184.512c-19.425,68.005 -29.15,126.271 -38.834,184.55c-9.725,58.263 -9.725,126.267 -9.725,194.238l-660.433,388.487l0,-116.545c0,-271.942 97.117,-553.592 301.075,-825.538c203.959,-271.925 485.625,-524.462 864.413,-738.125c378.766,-223.4 670.137,-320.504 864.375,-281.667c194.233,38.855 301.091,194.255 301.091,475.905c0,194.237 -58.279,378.783 -174.825,573.02c-116.545,194.255 -281.666,369.08 -485.625,543.905c213.68,-77.725 378.784,-77.725 495.33,-0c116.545,77.691 165.12,223.37 165.12,446.737c0,320.504 -97.133,621.596 -281.666,903.246c-184.529,291.371 -485.609,543.908 -883.8,786.704" style="fill:#ebeced;fill-rule:nonzero;"/><rect x="78470" y="63425.4" width="534.183" height="2933.09" style="fill:#ebeced;"/><path d="M85385.4,67699.2l-524.459,-2068.72l281.646,0l242.813,1048.92c58.266,262.221 116.546,514.742 155.383,718.7l9.704,0c29.15,-203.958 97.138,-456.479 165.104,-718.7l271.963,-1048.92l281.65,0l252.533,1048.92c58.263,242.796 116.546,495.329 145.679,708.975l9.688,0c38.871,-223.367 97.133,-456.458 165.137,-718.696l271.925,-1048.92l271.946,0l-582.741,2068.72l-281.634,-0l-262.237,-1078.08c-67.988,-262.221 -106.859,-466.179 -135.992,-679.863l-9.687,0c-38.871,203.959 -87.413,407.917 -155.417,679.863l-291.354,1078.08l-281.65,-0l-0,9.721Z" style="fill:#1f3b71;fill-rule:nonzero;"/><path d="M88483.3,66815c0,-174.808 -67.97,-437.05 -378.787,-437.05c-271.925,0 -388.471,252.521 -417.604,437.05l796.391,0Zm-796.391,184.55c9.687,369.063 242.779,514.738 514.741,514.738c194.234,-0 310.78,-29.13 407.917,-77.692l48.542,194.237c-97.1,38.855 -262.225,87.413 -495.313,87.413c-456.475,-0 -728.421,-301.092 -728.421,-747.829c0,-446.771 262.221,-806.146 699.271,-806.146c485.642,-0 611.875,427.362 611.875,699.287c0,58.284 -9.687,97.138 -9.687,126.267l-1048.92,-0l-0,9.725Z" style="fill:#1f3b71;fill-rule:nonzero;"/><path d="M89347.9,67106.2c-0,29.15 9.687,68.004 9.687,97.133c48.575,184.517 213.679,320.505 407.917,320.505c281.667,-0 446.771,-233.092 446.771,-573.038c-0,-301.058 -155.4,-553.596 -446.771,-553.596c-184.513,0 -359.342,126.267 -407.917,330.225c-9.687,29.134 -19.408,67.988 -19.408,106.825l-0,271.946l9.721,0Zm-281.684,592.463c9.721,-97.134 9.721,-252.534 9.721,-388.505l0,-1796.75l271.963,0l-0,932.379l9.687,0c97.138,-165.125 271.946,-271.962 505.054,-271.962c369.042,-0 631.284,310.779 631.284,757.567c-0,534.166 -330.209,796.408 -670.142,796.408c-213.663,-0 -388.488,-87.413 -495.329,-281.667l-9.704,0l-9.721,242.813l-242.813,-0l0,9.721Z" style="fill:#1f3b71;fill-rule:nonzero;"/><path d="M91105.8,67495c48.575,9.688 126.267,9.688 223.405,9.688c271.925,-0 534.15,-97.1 534.15,-398.196c-0,-281.65 -242.796,-398.196 -534.15,-398.196l-223.405,-0l0,786.704Zm0,-990.662l242.813,-0c281.65,-0 446.771,-145.675 446.771,-349.634c-0,-242.812 -184.55,-339.95 -456.492,-339.95c-126.25,0 -194.237,9.725 -233.092,19.446l0,670.138Zm-271.925,-844.963c116.542,-29.133 301.059,-38.854 485.605,-38.854c271.945,-0 437.05,48.558 573.004,145.675c106.858,77.692 174.829,203.958 174.829,369.062c-0,203.959 -135.958,378.788 -349.638,456.496l0,9.704c194.255,48.575 427.346,213.663 427.346,514.754c0,174.83 -67.987,310.784 -174.812,417.625c-145.692,135.971 -378.784,194.25 -718.734,194.25c-184.512,0 -330.187,-9.72 -417.604,-29.129l0.004,-2039.58Z" style="fill:#1f3b71;fill-rule:nonzero;"/><path d="M92494.6,66679.2c0,-174.825 0,-330.225 -9.72,-466.2l233.091,0.004l9.721,291.371l9.688,-0c68.004,-203.959 233.108,-330.23 407.916,-330.23c29.15,0 48.575,0 77.725,9.726l0,252.516c-29.15,-9.721 -58.279,-9.721 -87.412,-9.721c-194.271,0 -330.225,145.675 -359.359,349.634c-9.72,38.854 -9.72,77.725 -9.72,126.266l-0,796.425l-271.93,0l0,-1019.79Z" style="fill:#1f3b71;fill-rule:nonzero;"/><path d="M93631.2,66960.8c0,330.23 184.517,573.021 456.458,573.021c262.242,0 456.48,-242.796 456.48,-573.021c-0,-252.516 -126.25,-573.02 -446.755,-573.02c-330.225,-9.721 -466.183,291.375 -466.183,573.02m1184.88,-19.425c0,553.613 -378.766,786.7 -738.141,786.7c-398.196,0 -708.975,-291.37 -708.975,-767.275c-0,-495.329 330.208,-786.7 738.125,-786.7c417.62,0 708.991,310.784 708.991,767.275" style="fill:#1f3b71;fill-rule:nonzero;"/><path d="M95417.9,66892.5c38.854,-48.542 97.137,-116.546 135.991,-165.087l437.05,-514.755l330.209,-0.004l-573.021,611.879l650.729,874.113l-330.229,-0l-514.738,-709.013l-135.991,155.4l-0,563.3l-271.925,0l-0,-2185.26l271.925,-0l-0,1369.43Z" style="fill:#1f3b71;fill-rule:nonzero;"/><path d="M97535.4,66815c-0,-174.808 -67.984,-437.05 -378.767,-437.05c-271.962,0 -388.508,252.521 -417.637,437.05l796.404,0Zm-786.684,184.55c9.688,369.063 242.796,514.738 514.742,514.738c194.233,-0 310.779,-29.13 407.917,-77.692l48.541,194.237c-97.1,38.855 -262.225,87.413 -495.312,87.413c-456.475,-0 -728.421,-301.092 -728.421,-747.829c0,-446.771 262.221,-806.146 699.271,-806.146c485.642,-0 611.875,427.362 611.875,699.287c-0,58.284 -9.688,97.138 -9.688,126.267l-1048.92,-0l0,9.725Z" style="fill:#1f3b71;fill-rule:nonzero;"/><path d="M98137.5,66679.2c0,-174.825 0,-330.225 -9.725,-466.2l233.092,0.004l9.721,291.371l9.724,-0c67.967,-203.959 233.088,-330.23 407.917,-330.23c29.129,0 48.542,0 77.692,9.726l-0,252.516c-29.15,-9.721 -58.284,-9.721 -87.417,-9.721c-194.233,0 -330.225,145.675 -359.354,349.634c-9.708,38.854 -9.708,77.725 -9.708,126.266l-0,796.425l-271.942,0l0,-1019.79Z" style="fill:#1f3b71;fill-rule:nonzero;"/><path d="M85630,88561.2c-95.483,0 -190.971,-26.771 -274.167,-80.296c-5961.38,-3810.77 -9848.17,-8369.5 -11881.5,-13935.9c-1814.53,-4967.54 -1903.21,-10015.3 -1981.41,-14469l-10.571,-592.012c-2.516,-136.721 48.838,-265.559 144.463,-362.988c96.283,-98.158 225.416,-152.133 363.35,-152.133c3649.24,-0 9126.67,-1611.9 13145.8,-5213.04c95.471,-85.571 216.288,-129.254 337.813,-129.254c96.929,0.004 194.583,27.85 279.95,84.479c4419.83,2932.59 10735,3787.12 14105.9,4035.59c248.838,18.229 444.88,212.396 467.313,461.233c789.183,9010.54 -1086.53,16632.2 -5576.54,22653.7c-3355.03,4500.12 -7334.38,6844.62 -8889.62,7643.96c-72.341,36.892 -151.179,55.696 -230.746,55.696l-0.037,-0.025Zm-156.25,-34504.3c-18.087,-0 -36.179,6.65 -50.642,19.671c-4103.73,3676.88 -9701.96,5322.83 -13429.8,5322.83c-32.187,-0 -50.783,14.621 -59.325,23.212c-9.983,10.209 -21.771,27.709 -21.267,53.471l10.555,592.521c77.625,4419.71 165.591,9429.17 1955.45,14328.9c1999.41,5474.54 5829.71,9963.12 11709.3,13721c13.021,7.955 27.5,12.292 41.963,12.292c11.562,0 23.854,-2.879 33.995,-7.95c1528.51,-785.592 5440.54,-3091.01 8741.33,-7518.08c4424.92,-5934.58 6272.42,-13457.2 5492.62,-22359.2c-3.625,-37.62 -32.55,-66.841 -70.171,-69.741c-3412.9,-251.371 -9810.46,-1119.22 -14312,-4105.97c-13.037,-8.679 -27.5,-13.021 -41.962,-13.021l-0,-0.017l-0.017,0.034Z" style="fill:url(#_Linear1);"/><path d="M136850,42929.6c-320.45,0 -639.459,-11.075 -954.13,-32.845c-137.45,-9.48 -273.437,-20.971 -409.429,-34.446c-5578,-553.663 -10166.4,-4468.29 -11712.2,-9690.17c-364.583,-1229.18 -559.912,-2530.83 -559.912,-3878.04c-0,-5071.17 2769.11,-9495.96 6876.46,-11845.2c1992.92,-1139.33 4299.75,-1790.37 6759.25,-1790.37c235.817,-0 469.479,6.008 702.413,17.795c2824.07,143.455 5421,1145.62 7535.46,2750.94c1678.98,1274.74 3053.38,2929.69 3995.15,4836.54c897.796,1818.05 1402.71,3865.45 1402.71,6030.33c0,3031.32 -988.941,5831.46 -2662.03,8095.54c-2484.08,3360.61 -6474.25,5539.92 -10973.7,5539.92l-0.025,0.004Zm-0,-26817.7c-7280.08,0 -13182.1,5901.92 -13182.1,13182.2c-0,7280.29 5902.04,13182.1 13182.1,13182.1c7280.12,0.004 13182.2,-5901.83 13182.2,-13182.1c0,-7280.25 -5902.04,-13182.2 -13182.2,-13182.2Z" style="fill:url(#_Linear2);"/><path d="M150032,29294.1c0,7280.29 -5902.04,13182.1 -13182.2,13182.1c-7280.08,0 -13182.1,-5901.83 -13182.1,-13182.1c0,-7280.25 5902.04,-13182.2 13182.1,-13182.2c7280.12,-0 13182.2,5901.92 13182.2,13182.2Z" style="fill:#7db5f4;fill-rule:nonzero;"/><path d="M124699,28787.7c-0,-0 -7.971,-0.159 -7.971,-0.159c-76.667,-4.112 -135.258,-69.65 -131.65,-146.337c27.483,-518.296 87.537,-1038.4 178.683,-1546.08c12.292,-67.483 70.883,-114.446 138.158,-114.446c7.95,0 15.921,0.663 23.871,2.1c75.954,13.75 125.871,86.079 112.138,161.825c-88.996,496.163 -148.3,1004.57 -174.342,1511.01c-4.358,74.425 -65.833,132.084 -138.887,132.084Z" style="fill:#e2e8fd;fill-rule:nonzero;"/><path d="M125980,23957.5c-20.987,0 -41.962,-4.775 -62.221,-14.983c-68.716,-34.654 -96.216,-118.475 -61.496,-186.979c2107.21,-4175.42 6320.17,-6769.25 10993.9,-6769.25c745.817,-0 1492.33,67.133 2220.05,199.862c75.971,13.75 125.867,86.23 112.134,161.98c-12.309,66.754 -70.175,114.512 -135.28,114.512c-8.679,0 -17.358,-0.8 -26.77,-2.604c-711.075,-129.567 -1441.68,-195.242 -2170.14,-195.242c-4568.12,0 -8685.62,2535.22 -10745.8,6616.12c-23.87,48.525 -73.054,76.6 -124.408,76.6l0,-0.021Z" style="fill:#e2e8fd;fill-rule:nonzero;"/><path d="M137138,40738.4c-6161.75,0 -11156.7,-4995.21 -11156.7,-11157c0,-6161.88 4994.92,-11157.1 11156.7,-11157.1c6161.75,-0 11157.4,4995.21 11157.4,11157.1c-0,6161.83 -4995.67,11157 -11157.4,11157Z" style="fill:#e2e8fd;fill-rule:nonzero;"/><path d="M135894,23151.6c-0,933.734 -757.375,1690.68 -1690.54,1690.68c-933.887,-0 -1691.27,-756.946 -1691.27,-1690.68c-0,-933.733 757.379,-1690.61 1691.27,-1690.61c933.163,0 1690.54,756.875 1690.54,1690.61Z" style="fill:url(#_Linear3);"/><path d="M136874,30880.2l-805.121,0l0,-5554.96l414.496,0c215.554,0 390.625,174.829 390.625,390.608l0,5164.38l0,-0.025Z" style="fill:url(#_Linear4);"/><path d="M131533,30880.2l805.104,0l-0,-5554.96l-414.479,0c-215.571,0 -390.625,174.829 -390.625,390.608l-0,5164.38l-0,-0.025Z" style="fill:url(#_Linear5);"/><rect x="132644" y="25325.3" width="3095.33" height="5902.54" style="fill:url(#_Linear6);"/><path d="M133672,37562.5c0,0 -682.883,0 -682.883,0c-177.95,0 -321.892,-144.096 -321.892,-321.842l0,-6516.58l1325.94,0l-0,6516.58c-0,177.746 -143.942,321.842 -321.163,321.842Z" style="fill:url(#_Linear7);"/><path d="M135441,37562.5c0,0 -682.883,0 -682.883,0c-177.95,0 -321.909,-144.096 -321.909,-321.842l0,-6516.58l1326.68,0l-0,6516.58c-0,177.746 -144.671,321.842 -321.892,321.842Z" style="fill:url(#_Linear8);"/><path d="M141852,23151.6c0,933.734 -757.375,1690.68 -1691.27,1690.68c-933.159,-0 -1690.54,-756.946 -1690.54,-1690.68c0,-933.733 757.379,-1690.61 1690.54,-1690.61c933.891,0 1691.27,756.875 1691.27,1690.61Z" style="fill:url(#_Linear9);"/><path d="M142831,30880.2l-805.121,0l0,-5554.96l414.496,0c215.575,0 390.625,174.829 390.625,390.608l0,5164.38l0,-0.025Z" style="fill:url(#_Linear10);"/><path d="M137491,30880.2l805.121,0l0,-5554.96l-414.512,0c-215.555,0 -390.609,174.829 -390.609,390.608l0,5164.38l0,-0.025Z" style="fill:url(#_Linear11);"/><path d="M142099,33859l-3901.93,-0l403.662,-8533.79l3095.35,0.004l402.917,8533.75l-0,0.038Z" style="fill:url(#_Linear12);"/><path d="M139630,37562.5l-682.862,0c-177.242,0 -321.913,-144.096 -321.913,-321.842l0,-6516.58l1326.67,0l0,6516.58c0,177.746 -143.958,321.842 -321.892,321.842Z" style="fill:url(#_Linear13);"/><path d="M141398,37562.5l-682.862,0c-177.221,0 -321.163,-144.096 -321.163,-321.842l0,-6516.58l1325.94,0l-0,6516.58c-0,177.746 -143.942,321.842 -321.913,321.842Z" style="fill:url(#_Linear14);"/><path d="M152918,75642.9c-143.229,-0 -285.729,-2.1 -428.229,-6.509c-277.067,-8.679 -553.388,-25.329 -826.096,-50.641c-5000.71,-455.729 -9220.92,-3612.19 -11190.7,-7998.04c-507.084,-1128.56 -864.446,-2337.97 -1048.18,-3604.33c-94.03,-645.104 -142.5,-1304.98 -142.5,-1976.06c-0,-4344.04 2031.98,-8213.88 5196.75,-10710.9c2321.34,-1831.74 5252.38,-2924.55 8438.96,-2924.55c2146.28,-0 4176.08,495.729 5982.38,1379.05c4531.96,2216.16 7653.38,6871.83 7653.38,12256.5c-0,7530.75 -6105.33,13635.6 -13635.7,13635.6l-0.037,-0.046Zm0,-26817.7c-7280.08,0 -13182.1,5901.83 -13182.1,13182.1c0,7280.33 5902.04,13182.1 13182.1,13182.1c7280.12,0 13182.2,-5901.75 13182.2,-13182.1c-0,-7280.21 -5902.04,-13182.1 -13182.2,-13182.1Z" style="fill:#fff;"/><path d="M166100,62007.5c0,7280.33 -5902.04,13182.1 -13182.2,13182.1c-7280.08,0 -13182.1,-5901.75 -13182.1,-13182.1c-0,-7280.21 5902.04,-13182.1 13182.1,-13182.1c7280.12,-0 13182.2,5901.83 13182.2,13182.1Z" style="fill:#7db5f4;fill-rule:nonzero;"/><path d="M140766,61500.8c0,0 -7.95,-0.137 -7.95,-0.137c-76.683,-4.046 -135.279,-69.671 -131.666,-146.338c27.5,-517.866 87.533,-1037.99 179.408,-1545.94c11.563,-67.275 70.158,-114.517 136.721,-114.517c7.95,0.004 16.633,0.663 24.583,2.171c75.954,13.75 125.867,86.096 112.133,161.825c-88.975,496.458 -148.295,1004.84 -174.337,1510.85c-4.342,74.446 -65.833,132.083 -138.892,132.083Z" style="fill:#e2e8fd;fill-rule:nonzero;"/><path d="M142047,56670.8c-20.987,0 -41.958,-4.775 -62.204,-14.983c-68.733,-34.654 -96.216,-118.421 -61.508,-186.996c2107.2,-4175.42 6320.21,-6769.25 10993.9,-6769.25c745.816,0 1492.35,67.138 2220.07,199.95c75.938,13.663 125.867,86.146 112.117,161.963c-12.292,66.979 -70.171,114.358 -135.987,114.358c-8.7,-0 -17.363,-0.8 -26.059,-2.45c-711.058,-129.633 -1441.68,-195.313 -2170.14,-195.313c-4568.12,0 -8685.62,2535.3 -10745.8,6616.17c-23.854,48.542 -73.058,76.546 -124.413,76.546l0,0.008Z" style="fill:#e2e8fd;fill-rule:nonzero;"/><path d="M153205,73452.1c-6161.75,0 -11156.7,-4995.29 -11156.7,-11157.2c-0,-6161.88 4994.92,-11157 11156.7,-11157c6161.75,0 11157.4,4995.17 11157.4,11157c0,6161.92 -4995.67,11157.2 -11157.4,11157.2Z" style="fill:#e2e8fd;fill-rule:nonzero;"/><path d="M160424,59966.7l-14422,-0l7210.67,-5494.08l7211.38,5494.08Z" style="fill:url(#_Linear15);"/><path d="M147718,60359.2l0,9320.38l3629.91,-0l-0,-6475.25l3826.67,-0l0,6475.25l3531.55,-0l0,-9320.38l-10988.1,-0Z" style="fill:url(#_Linear16);"/><path d="M52407.1,72967.9c0,-0 -769.962,374.725 -911.525,804.412c-113.579,345.05 -964.912,389.896 -1049.05,1068.42c-43.405,350.85 -302.813,631.508 -651.913,685.05c-869.496,133.179 -2209.5,584.479 -2423.9,2094.18c-163.629,1152.35 423.767,1589.25 1040.3,1740.45c452.758,111.388 753.696,551.925 662.116,1009.11c-87.9,438.367 43.109,945.45 802.725,1346.2c1702.26,897.725 3402.2,-2128.18 3402.2,-2128.18l348.387,-5283.5l-1219.34,-1336.17l0,0.013Z" style="fill:url(#_Linear17);"/><path d="M60420,70181.2c0,0 -2190.4,5970.92 -5922.54,7837.25c0,0 1242.19,2026.91 1890.42,2149.88c0,0 3986.98,-5102.71 4393.38,-9283.54l-361.25,-703.559l0,-0.029Z" style="fill:url(#_Linear18);"/><path d="M45410.4,106099l-110.154,905.663c-20.921,172.17 -156.113,307.445 -328.055,327.691c-290.296,32.55 -756.15,66.563 -1211.96,18.817c-200.021,-20.988 -329.933,-224.254 -268.942,-415.954c111.109,-349.392 314.375,-873.838 607.413,-1182.73l1004.5,-0c185.745,-0 329.637,162.05 307.204,346.508Z" style="fill:url(#_Linear19);"/><path d="M53278.3,95491.2l169.48,997.533c-0.001,0 -567.709,5750.88 -668.767,8051.21c-15.834,360.971 77.55,717.587 266.787,1025.03l987.346,1603l-2509.19,-1480.76l-49.98,-305.992l410.73,-564.946l-537.971,-6442.42c-31.613,-378.313 46.512,-758.088 224.966,-1093.75l518.942,-974.392l1187.65,-814.513l0,-0.008Z" style="fill:url(#_Linear20);"/><path d="M54198.3,107400l-800.712,0c-149.892,0 -291.229,-68.717 -382.671,-187.362c-249.637,-324.792 -766.858,-957.034 -1014.1,-973.663c-332.9,-22.429 -290.366,1161.03 -290.366,1161.03l-186.563,0l-236.404,-1470.62c-59.463,-369.654 124.562,-736.408 456.892,-910.021c-0,0 76.02,562.796 488.645,811.634c412.605,248.837 1679.18,1140.76 1679.18,1140.76c-0,0 155.154,-22.413 325.433,8.683c252.604,45.571 217.379,419.567 -39.342,419.567Z" style="fill:url(#_Linear21);"/><path d="M49841.2,95965c0,0 -3326.25,6309.33 -3854.97,7750.29c-528.733,1440.25 -713.975,2642.5 -721.075,2756.08c-11.058,177.95 -232.275,347.95 -841.929,347.95c-314.6,-0 -468.75,-125.867 -544.2,-248.125c-64.392,-104.167 -67.708,-234.375 -13.454,-344.325c192.412,-389.183 803.021,-1633.4 1029.15,-2197.64c270.033,-674.183 850.833,-3728.3 1169.34,-4789.5c318.509,-1061.91 678.525,-2213.54 2065.61,-3274.74c-0,-0 952.187,-932.429 1711.53,-0l-0,0.008Z" style="fill:url(#_Linear22);"/><path d="M51942.5,85626.2c858.075,-3635.69 -1315.61,-5692.25 -1315.61,-5692.25c1371.53,-1316.55 3870.43,-1915.5 3870.43,-1915.5c0,-0 2384.48,1743.35 2101.56,3107.64c-165.73,800.054 -1676.06,4790.21 -1676.06,4790.21c0,-0 -1396.49,661.162 -2980.33,-290.088l0,-0.004Z" style="fill:url(#_Linear23);"/><path d="M50040.4,87426.2c349.166,-1051.79 1902.34,-1799.78 1902.34,-1799.78c1583.84,951.25 2980.33,290.087 2980.33,290.087c-0,0 313.212,1197.19 97.066,2309.74c-216.216,1112.57 -1572.41,8262.46 -1572.41,8262.46c-2136.86,432.588 -5423.38,-435.47 -5423.38,-435.47c1361.11,-2416.82 1666.88,-7575.25 2016.06,-8627.04l-0.008,0.004Z" style="fill:url(#_Linear24);"/><path d="M52938.3,75616.2c0,0 -697.55,3132.95 -697.55,3132.95c-66.841,276.338 184.755,230.763 463.834,178.679c456.962,-86.075 1045.94,-264.025 1242.85,-619.216c20.033,-36.163 30.016,-77.396 35.729,-118.63l299.687,-2172.31c23.734,-172.883 -69.445,-339.912 -228.508,-410.158l-578.35,-256.804c-222.658,-98.3 -480.4,28.3 -537.692,265.487Z" style="fill:url(#_Linear25);"/><path d="M50627.1,79934.2c0,-0 -4868.79,3483.8 -622.691,7144.08c-0,0 161.962,183.021 480.4,277.775c160.883,48.475 636.491,407.988 877.675,596.079c77.55,60.034 189.529,39.775 241.683,-43.404c40.796,-65.833 45.642,-146.858 12.725,-217.012l-602.796,-1274.61c-167.379,-155.516 -423.541,-167.1 -603.8,-26.041c-115.021,90.416 -283.491,52.816 -347.796,-78.854c-328.266,-668.4 -948.075,-2634.55 1588.75,-4856.04c95.346,-83.904 119.513,-222.083 60.988,-334.2c-178.246,-342.154 -585.867,-1022.13 -1085.14,-1187.8l0,0.017Z" style="fill:url(#_Linear26);"/><path d="M53757.1,72632.5c0,0 826.184,348.663 1387.95,1542.97c561.787,1193.58 142.22,1744.79 -384.688,1820.75c-526.912,75.954 -1314.97,64.375 -2148.51,-707.396c-833.559,-771.2 71.25,-3069.74 1145.24,-2656.32Z" style="fill:url(#_Linear27);"/><path d="M53172.1,74651.2c0,0 -623.35,-1746.25 925.192,-1767.22l364.375,254.638c0,-0 568.213,-968.18 -364.375,-1430.49c-932.567,-462.308 -2024.01,-80.367 -2420.94,1175.85c-396.841,1256.58 -464.549,2097.88 195.68,2698.93c660.312,601.129 932.358,-80.296 932.358,-80.296c0,0 -359.512,-562.779 -213.175,-863.646c146.338,-300.191 483.942,62.221 483.942,62.221l96.941,-49.983Z" style="fill:url(#_Linear28);"/><path d="M52998.3,74845.8c0,0 -315.191,-899.95 -735.608,-541.162c-420.433,358.071 341.721,831.25 640.038,983.871l95.57,-442.709Z" style="fill:url(#_Linear29);"/><path d="M60630,71268.3c33.421,106.267 -353.592,268.005 -581.458,-166.529c-7.95,-208.246 -134.617,-1100.33 -10.121,-1269.96c662.692,-903.58 1947.55,-2036.16 1947.55,-2036.16c217.154,214.271 38.267,424.771 38.267,424.771l-623.267,649.375c130.367,235.608 289.358,434.463 363.875,719.396c56.492,215.779 21.979,446.475 -87.034,642.879c-109.445,197.05 -258.679,453.267 -399.808,653.854c-267.154,379.479 -648.004,382.379 -648.004,382.379Z" style="fill:url(#_Linear30);"/><path d="M60957.1,70825.8c0,0 -137.083,-24.445 -137.083,-24.445c17.729,-98.75 176.371,-970.275 306.146,-1181.36c47.883,-77.916 66.771,-141.716 54.758,-184.687c-6.075,-21.542 -20.991,-40.938 -45.504,-59.025l-515.987,437.358l-172.017,462.379l-130.571,-48.679l184.825,-496.371l617.258,-523.229l41.3,21.042c84.359,42.967 134.913,98.383 154.809,168.767c23.437,83.695 0.437,180.279 -70.313,295.362c-98.087,159.654 -240.883,871.896 -287.621,1132.88Z" style="fill:url(#_Linear31);"/><path d="M147022,89875.4c0,7530.38 -6104.62,13635.7 -13635.7,13635.7c-7530.38,0 -13635,-6105.33 -13635,-13635.7c-0,-7530.38 6104.58,-13635.7 13635,-13635.7c7531.12,0 13635.7,6105.33 13635.7,13635.7Z" style="fill:#fff;"/><path d="M146569,89875.4c-0,7280.12 -5902.08,13182.2 -13182.2,13182.2c-7280.08,0 -13182.1,-5902.04 -13182.1,-13182.2c-0,-7280.08 5902.04,-13182.1 13182.1,-13182.1c7280.08,-0 13182.2,5902.04 13182.2,13182.1Z" style="fill:#7db5f4;fill-rule:nonzero;"/><path d="M121235,89369.2l-7.242,-0c-77.396,-4.342 -135.987,-70.175 -132.379,-146.859c27.483,-517.933 87.537,-1038.04 179.391,-1545.85c13.021,-75.241 86.08,-125.866 161.321,-112.133c75.954,13.75 125.871,86.092 112.117,162.046c-88.958,496.233 -147.567,1004.05 -174.321,1510.42c-3.629,74.496 -65.104,132.38 -138.887,132.38Z" style="fill:url(#_Linear32);"/><path d="M122518,84539.2c-21.704,-0 -42.675,-5.054 -62.933,-15.192c-68.717,-34.725 -96.217,-118.629 -61.496,-186.633c2107.2,-4176.04 6320.17,-6769.38 10993.9,-6769.38c745.816,-0 1493.05,67.275 2220.05,199.654c75.975,13.733 126.6,86.075 112.137,162.029c-13.75,75.225 -86.096,126.6 -161.321,111.408c-711.075,-129.495 -1441.7,-194.6 -2170.87,-194.6c-4568.12,0 -8685.62,2534.72 -10745.1,6616.04c-24.6,48.454 -73.783,76.667 -124.425,76.667l0.021,-0Z" style="fill:url(#_Linear33);"/><path d="M144831,90162.9c0,6161.75 -4995.67,11157.4 -11157.4,11157.4c-6161.75,0 -11156.7,-4995.67 -11156.7,-11157.4c0,-6161.75 4994.92,-11156.7 11156.7,-11156.7c6161.75,0 11157.4,4994.92 11157.4,11156.7Z" style="fill:url(#_Linear34);"/><path d="M139465,87610.8l-2758.27,0l-0,-2758.97c-0,-727.708 -590.259,-1317.99 -1318.71,-1317.99l-3371.67,-0c-728.437,-0 -1318.72,590.279 -1318.72,1317.99l-0,2758.97l-2758.25,0c-728.438,0 -1318.73,590.28 -1318.73,1318.72l-0,3371.68c-0,727.709 590.295,1317.99 1318.73,1317.99l2758.25,-0l-0,2758.97c-0,728.437 590.279,1318.72 1318.72,1318.72l3371.67,0c728.454,0 1318.71,-590.279 1318.71,-1318.72l-0,-2758.97l2758.27,-0c728.438,-0 1318.71,-590.279 1318.71,-1317.99l-0,-3371.68c-0,-728.438 -590.275,-1318.72 -1318.71,-1318.72Z" style="fill:url(#_Linear35);"/></g><defs><linearGradient id="_Linear1" x1="0" y1="0" x2="1" y2="0" gradientUnits="userSpaceOnUse" gradientTransform="matrix(32048.6,0,0,32048.6,69957.5,70984.6)"><stop offset="0" style="stop-color:#11137d;stop-opacity:1"/><stop offset="1" style="stop-color:#000858;stop-opacity:1"/></linearGradient><linearGradient id="_Linear2" x1="0" y1="0" x2="1" y2="0" gradientUnits="userSpaceOnUse" gradientTransform="matrix(128008,0,0,128008,22478.1,37229.9)"><stop offset="0" style="stop-color:#fff;stop-opacity:1"/><stop offset="1" style="stop-color:#fff;stop-opacity:1"/></linearGradient><linearGradient id="_Linear3" x1="0" y1="0" x2="1" y2="0" gradientUnits="userSpaceOnUse" gradientTransform="matrix(-23148.1,17361.1,-17361.1,-23148.1,157319,5814.42)"><stop offset="0" style="stop-color:#1528a5;stop-opacity:1"/><stop offset="1" style="stop-color:#07107a;stop-opacity:1"/></linearGradient><linearGradient id="_Linear4" x1="0" y1="0" x2="1" y2="0" gradientUnits="userSpaceOnUse" gradientTransform="matrix(-23148.1,17361.1,-17361.1,-23148.1,160512,10071.7)"><stop offset="0" style="stop-color:#1528a5;stop-opacity:1"/><stop offset="1" style="stop-color:#07107a;stop-opacity:1"/></linearGradient><linearGradient id="_Linear5" x1="0" y1="0" x2="1" y2="0" gradientUnits="userSpaceOnUse" gradientTransform="matrix(-23148.1,17361.1,-17361.1,-23148.1,158927,7957.25)"><stop offset="0" style="stop-color:#1528a5;stop-opacity:1"/><stop offset="1" style="stop-color:#07107a;stop-opacity:1"/></linearGradient><linearGradient id="_Linear6" x1="0" y1="0" x2="1" y2="0" gradientUnits="userSpaceOnUse" gradientTransform="matrix(-23148.1,17361.1,-17361.1,-23148.1,159775,9088.67)"><stop offset="0" style="stop-color:#1528a5;stop-opacity:1"/><stop offset="1" style="stop-color:#07107a;stop-opacity:1"/></linearGradient><linearGradient id="_Linear7" x1="0" y1="0" x2="1" y2="0" gradientUnits="userSpaceOnUse" gradientTransform="matrix(-23148.3,17361.1,-17361.1,-23148.3,162242,12378.8)"><stop offset="0" style="stop-color:#1528a5;stop-opacity:1"/><stop offset="1" style="stop-color:#07107a;stop-opacity:1"/></linearGradient><linearGradient id="_Linear8" x1="0" y1="0" x2="1" y2="0" gradientUnits="userSpaceOnUse" gradientTransform="matrix(-23148.1,17361.1,-17361.1,-23148.1,162880,13227.9)"><stop offset="0" style="stop-color:#1528a5;stop-opacity:1"/><stop offset="1" style="stop-color:#07107a;stop-opacity:1"/></linearGradient><linearGradient id="_Linear9" x1="0" y1="0" x2="1" y2="0" gradientUnits="userSpaceOnUse" gradientTransform="matrix(-23148.1,17361.1,-17361.1,-23148.1,159464,8674.04)"><stop offset="0" style="stop-color:#1528a5;stop-opacity:1"/><stop offset="1" style="stop-color:#07107a;stop-opacity:1"/></linearGradient><linearGradient id="_Linear10" x1="0" y1="0" x2="1" y2="0" gradientUnits="userSpaceOnUse" gradientTransform="matrix(-23148.1,17361.1,-17361.1,-23148.1,162657,12931.3)"><stop offset="0" style="stop-color:#1528a5;stop-opacity:1"/><stop offset="1" style="stop-color:#07107a;stop-opacity:1"/></linearGradient><linearGradient id="_Linear11" x1="0" y1="0" x2="1" y2="0" gradientUnits="userSpaceOnUse" gradientTransform="matrix(-23148.1,17361.1,-17361.1,-23148.1,161071,10816.8)"><stop offset="0" style="stop-color:#1528a5;stop-opacity:1"/><stop offset="1" style="stop-color:#07107a;stop-opacity:1"/></linearGradient><linearGradient id="_Linear12" x1="0" y1="0" x2="1" y2="0" gradientUnits="userSpaceOnUse" gradientTransform="matrix(-23148.1,17361.1,-17361.1,-23148.1,162624,12886.9)"><stop offset="0" style="stop-color:#1528a5;stop-opacity:1"/><stop offset="1" style="stop-color:#07107a;stop-opacity:1"/></linearGradient><linearGradient id="_Linear13" x1="0" y1="0" x2="1" y2="0" gradientUnits="userSpaceOnUse" gradientTransform="matrix(-23148.1,17361.1,-17361.1,-23148.1,164388,15238.5)"><stop offset="0" style="stop-color:#1528a5;stop-opacity:1"/><stop offset="1" style="stop-color:#07107a;stop-opacity:1"/></linearGradient><linearGradient id="_Linear14" x1="0" y1="0" x2="1" y2="0" gradientUnits="userSpaceOnUse" gradientTransform="matrix(-23148.1,17361.1,-17361.1,-23148.1,165024,16087.5)"><stop offset="0" style="stop-color:#1528a5;stop-opacity:1"/><stop offset="1" style="stop-color:#07107a;stop-opacity:1"/></linearGradient><linearGradient id="_Linear15" x1="0" y1="0" x2="1" y2="0" gradientUnits="userSpaceOnUse" gradientTransform="matrix(-9259.25,11284.7,-11284.7,-9259.25,167282,42820.4)"><stop offset="0" style="stop-color:#1528a5;stop-opacity:1"/><stop offset="1" style="stop-color:#07107a;stop-opacity:1"/></linearGradient><linearGradient id="_Linear16" x1="0" y1="0" x2="1" y2="0" gradientUnits="userSpaceOnUse" gradientTransform="matrix(-9259.25,11284.7,-11284.7,-9259.25,169759,44853.3)"><stop offset="0" style="stop-color:#1528a5;stop-opacity:1"/><stop offset="1" style="stop-color:#07107a;stop-opacity:1"/></linearGradient><linearGradient id="_Linear17" x1="0" y1="0" x2="1" y2="0" gradientUnits="userSpaceOnUse" gradientTransform="matrix(-2283.84,-5728.96,5728.96,-2283.84,53761.3,69886.3)"><stop offset="0" style="stop-color:#08005d;stop-opacity:1"/><stop offset="1" style="stop-color:#1a0e90;stop-opacity:1"/></linearGradient><linearGradient id="_Linear18" x1="0" y1="0" x2="1" y2="0" gradientUnits="userSpaceOnUse" gradientTransform="matrix(-4219.29,-9599.87,9599.87,-4219.29,58473.3,73195.8)"><stop offset="0" style="stop-color:#b887b0;stop-opacity:1"/><stop offset="1" style="stop-color:#af7ca9;stop-opacity:1"/></linearGradient><linearGradient id="_Linear19" x1="0" y1="0" x2="1" y2="0" gradientUnits="userSpaceOnUse" gradientTransform="matrix(1446.76,-13744.2,13744.2,1446.76,46280,123986)"><stop offset="0" style="stop-color:#08005d;stop-opacity:1"/><stop offset="1" style="stop-color:#1a0e90;stop-opacity:1"/></linearGradient><linearGradient id="_Linear20" x1="0" y1="0" x2="1" y2="0" gradientUnits="userSpaceOnUse" gradientTransform="matrix(-2786.91,32572,-32572,-2786.91,53595.8,114201)"><stop offset="0" style="stop-color:#b887b0;stop-opacity:1"/><stop offset="1" style="stop-color:#af7ca9;stop-opacity:1"/></linearGradient><linearGradient id="_Linear21" x1="0" y1="0" x2="1" y2="0" gradientUnits="userSpaceOnUse" gradientTransform="matrix(1446.76,-13744.2,13744.2,1446.76,54591.2,123110)"><stop offset="0" style="stop-color:#08005d;stop-opacity:1"/><stop offset="1" style="stop-color:#1a0e90;stop-opacity:1"/></linearGradient><linearGradient id="_Linear22" x1="0" y1="0" x2="1" y2="0" gradientUnits="userSpaceOnUse" gradientTransform="matrix(-2787.64,32580.5,-32580.5,-2787.64,47989.6,114685)"><stop offset="0" style="stop-color:#b887b0;stop-opacity:1"/><stop offset="1" style="stop-color:#af7ca9;stop-opacity:1"/></linearGradient><linearGradient id="_Linear23" x1="0" y1="0" x2="1" y2="0" gradientUnits="userSpaceOnUse" gradientTransform="matrix(-1393.52,-12928.8,12928.8,-1393.52,53527.1,81353.3)"><stop offset="0" style="stop-color:#1528a5;stop-opacity:1"/><stop offset="1" style="stop-color:#07107a;stop-opacity:1"/></linearGradient><linearGradient id="_Linear24" x1="0" y1="0" x2="1" y2="0" gradientUnits="userSpaceOnUse" gradientTransform="matrix(-4629.63,17939.8,-17939.8,-4629.63,60718.8,57172.9)"><stop offset="0" style="stop-color:#08005d;stop-opacity:1"/><stop offset="1" style="stop-color:#1a0e90;stop-opacity:1"/></linearGradient><linearGradient id="_Linear25" x1="0" y1="0" x2="1" y2="0" gradientUnits="userSpaceOnUse" gradientTransform="matrix(-523.513,3829.9,-3829.9,-523.513,53901.2,82094.2)"><stop offset="0" style="stop-color:#b887b0;stop-opacity:1"/><stop offset="1" style="stop-color:#af7ca9;stop-opacity:1"/></linearGradient><linearGradient id="_Linear26" x1="0" y1="0" x2="1" y2="0" gradientUnits="userSpaceOnUse" gradientTransform="matrix(-3477.66,4.2589e-13,-4.2589e-13,-3477.66,51743.8,83960.4)"><stop offset="0" style="stop-color:#b887b0;stop-opacity:1"/><stop offset="1" style="stop-color:#af7ca9;stop-opacity:1"/></linearGradient><linearGradient id="_Linear27" x1="0" y1="0" x2="1" y2="0" gradientUnits="userSpaceOnUse" gradientTransform="matrix(-4567.67,8128.92,-8128.92,-4567.67,55222.9,77156.2)"><stop offset="0" style="stop-color:#b887b0;stop-opacity:1"/><stop offset="1" style="stop-color:#af7ca9;stop-opacity:1"/></linearGradient><linearGradient id="_Linear28" x1="0" y1="0" x2="1" y2="0" gradientUnits="userSpaceOnUse" gradientTransform="matrix(-2283.84,-5728.96,5728.96,-2283.84,54240.4,70077.1)"><stop offset="0" style="stop-color:#08005d;stop-opacity:1"/><stop offset="1" style="stop-color:#1a0e90;stop-opacity:1"/></linearGradient><linearGradient id="_Linear29" x1="0" y1="0" x2="1" y2="0" gradientUnits="userSpaceOnUse" gradientTransform="matrix(-4567.67,8128.92,-8128.92,-4567.67,54250.4,77702.5)"><stop offset="0" style="stop-color:#b887b0;stop-opacity:1"/><stop offset="1" style="stop-color:#af7ca9;stop-opacity:1"/></linearGradient><linearGradient id="_Linear30" x1="0" y1="0" x2="1" y2="0" gradientUnits="userSpaceOnUse" gradientTransform="matrix(-4219.29,-9599.87,9599.87,-4219.29,59307.1,73562.5)"><stop offset="0" style="stop-color:#b887b0;stop-opacity:1"/><stop offset="1" style="stop-color:#af7ca9;stop-opacity:1"/></linearGradient><linearGradient id="_Linear31" x1="0" y1="0" x2="1" y2="0" gradientUnits="userSpaceOnUse" gradientTransform="matrix(-1007,1.23321e-13,-1.23321e-13,-1007,61323.8,70017.1)"><stop offset="0" style="stop-color:#b887b0;stop-opacity:1"/><stop offset="1" style="stop-color:#af7ca9;stop-opacity:1"/></linearGradient><linearGradient id="_Linear32" x1="0" y1="0" x2="1" y2="0" gradientUnits="userSpaceOnUse" gradientTransform="matrix(455.321,0,0,455.321,121096,88465.8)"><stop offset="0" style="stop-color:#dae2fd;stop-opacity:1"/><stop offset="1" style="stop-color:#e8effd;stop-opacity:1"/></linearGradient><linearGradient id="_Linear33" x1="0" y1="0" x2="1" y2="0" gradientUnits="userSpaceOnUse" gradientTransform="matrix(13343.8,0,0,13343.8,122378,81053.3)"><stop offset="0" style="stop-color:#dae2fd;stop-opacity:1"/><stop offset="1" style="stop-color:#e8effd;stop-opacity:1"/></linearGradient><linearGradient id="_Linear34" x1="0" y1="0" x2="1" y2="0" gradientUnits="userSpaceOnUse" gradientTransform="matrix(22314.1,0,0,22314.1,122518,90162.9)"><stop offset="0" style="stop-color:#dae2fd;stop-opacity:1"/><stop offset="1" style="stop-color:#e8effd;stop-opacity:1"/></linearGradient><linearGradient id="_Linear35" x1="0" y1="0" x2="1" y2="0" gradientUnits="userSpaceOnUse" gradientTransform="matrix(-8391.21,14178.3,-14178.3,-8391.21,145177,71227.1)"><stop offset="0" style="stop-color:#1528a5;stop-opacity:1"/><stop offset="1" style="stop-color:#07107a;stop-opacity:1"/></linearGradient></defs></svg>