<?xml version="1.0" encoding="UTF-8" standalone="no"?><!DOCTYPE svg PUBLIC "-//W3C//DTD SVG 1.1//EN" "http://www.w3.org/Graphics/SVG/1.1/DTD/svg11.dtd"><svg width="100%" height="100%" viewBox="0 0 3334 2500" version="1.1" xmlns="http://www.w3.org/2000/svg" xmlns:xlink="http://www.w3.org/1999/xlink" xml:space="preserve" xmlns:serif="http://www.serif.com/" style="fill-rule:evenodd;clip-rule:evenodd;stroke-linejoin:round;stroke-miterlimit:2;"><path d="M1731.75,2321.36c-151.216,-0 -267.058,-23.928 -302.178,-31.679c-4.396,-0.973 -9.032,-1.999 -13.898,-3.09l662.855,-12.043c-122.455,35.526 -242.962,46.812 -346.779,46.812Zm466.69,-89.751c8.605,-14.282 13.202,-31.198 12.291,-49.14l-71.518,-1404.57c11.914,-13.094 24.724,-23.407 38.651,-31.826c-23.138,142.124 31.112,310.443 71.417,408.827c6.366,15.538 11.49,32.023 15.689,48.795l14.802,-6.958c-4.482,-11.544 -8.565,-21.182 -11.415,-28.015c-16.058,-38.489 -43.944,-79.745 -27.15,-184.786c16.801,-105.041 239.446,-93.242 390.501,-153.007c8.544,-3.38 16.585,-7.216 24.132,-11.454c147.133,348.214 172.851,855.83 -154.683,1201.47c-92.341,97.451 -196.463,164.82 -302.717,210.666Zm-1459.32,-435.589c-142.203,-288.801 -126.64,-647.784 -0,-940.83l-0,940.83Zm1370.1,-1317.49c-20.845,-33.426 -57.935,-55.513 -99.97,-55.513l-945.319,-0c117.413,-97.01 275.868,-187.162 479.63,-220.391c7.93,-1.292 58.208,-8.752 134.638,-8.752c117.191,-0 295.917,17.554 477.76,101.764c-23.762,50.73 -37.348,114.371 -46.739,182.892Z" style="fill:#90c7ff;fill-opacity:0.56;"/><path d="M2065.54,934.932c-23.985,86.969 -64.344,200.421 -105.858,297.004l-14.932,-2.627c52.14,-116.186 109.745,-277.745 135.18,-471.179c25.657,-195.075 19.589,-438.467 127.755,-535.197c90.027,-80.503 404.715,-39.545 507.749,-23.537c12.879,1.999 17.62,18.072 7.866,26.713c-48.07,42.602 -150.678,142.805 -175.474,241.702c-32.691,130.357 -153.531,215.927 -263.068,241.125c-109.548,25.198 -170.239,48.44 -219.218,225.996Z" style="fill:#d3e9ff;fill-opacity:0.73;fill-rule:nonzero;"/><path d="M2572.7,258.415c-65.977,4.92 -130.777,23.221 -189.982,53.49c-29.641,15.046 -57.433,33.964 -82.423,56.148c-24.807,22.363 -46.858,48.092 -64.086,76.86l-6.405,10.816c-2.107,3.617 -3.876,7.421 -5.839,11.128c-1.855,3.732 -3.868,7.474 -5.59,11.203l-5.189,11.185c-6.94,14.896 -13.812,29.827 -20.54,44.827c-13.482,29.981 -26.49,60.178 -39.025,90.568c-25.097,60.785 -48.325,122.319 -67.753,185.264c-0.47,1.507 0.373,3.107 1.884,3.577c1.461,0.449 3.004,-0.322 3.531,-1.74l0.029,-0.086c11.339,-30.667 23.292,-61.226 35.802,-91.494c12.38,-30.341 25.129,-60.53 38.206,-90.572l19.758,-44.996l20.263,-44.773c6.743,-14.931 13.636,-29.791 20.609,-44.615l5.203,-11.131c1.73,-3.718 3.632,-7.191 5.437,-10.798c1.855,-3.556 3.527,-7.219 5.533,-10.697l6.082,-10.395c16.31,-27.725 37.485,-52.323 60.989,-74.292c12,-10.729 24.402,-21.096 37.747,-30.211l4.934,-3.513l5.071,-3.315c3.387,-2.2 6.728,-4.486 10.158,-6.614c6.944,-4.163 13.83,-8.415 20.993,-12.204c28.37,-15.692 58.646,-27.915 89.621,-37.858c30.972,-9.904 63.027,-17.239 95.28,-21.172l0.147,-0.018c1.263,-0.154 2.16,-1.299 2.006,-2.558c-0.154,-1.221 -1.242,-2.1 -2.451,-2.014Z" style="fill:#d3e9ff;fill-opacity:0.73;"/><path d="M2241.21,983.932c-16.794,105.041 11.092,146.297 27.15,184.786c2.85,6.833 6.933,16.471 11.415,28.015l-14.802,6.958c-4.199,-16.772 -9.323,-33.257 -15.689,-48.795c-43.685,-106.627 -103.738,-295.418 -63.91,-443.968c39.832,-148.544 133.619,-204.473 302.982,-166.059c141.133,32.009 224.661,42.38 265.993,32.181c10.238,-2.526 19.973,5.792 19.36,16.313c-3.255,56.016 -23.58,190.715 -141.998,237.562c-151.055,59.765 -373.7,47.966 -390.501,153.007Z" style="fill:#d3e9ff;fill-opacity:0.73;fill-rule:nonzero;"/><path d="M2215.35,1041.07c-1.08,0 -2.067,-0.71 -2.376,-1.798c-6.57,-23.504 -12.57,-47.256 -16.453,-71.485c-0.943,-6.061 -2.267,-12.068 -2.799,-18.204l-1.966,-18.34c-0.513,-6.129 -0.667,-12.305 -1.012,-18.463c-0.1,-3.082 -0.423,-6.154 -0.337,-9.247l0.143,-9.269c0.384,-24.692 3.205,-49.686 10.557,-73.671c7.202,-23.988 18.671,-46.847 33.796,-66.895l11.874,-14.58l12.933,-13.593l13.812,-12.624c2.368,-2.06 5.035,-3.976 7.539,-5.961c2.534,-1.977 5.3,-3.609 7.952,-5.425c10.841,-6.84 22.539,-12.104 34.535,-16.066c12.036,-3.889 24.38,-6.488 36.76,-8.149c11.874,-1.554 23.77,-2.261 35.644,-2.261c12.926,0 25.805,0.829 38.562,2.29c12.247,1.342 24.39,3.427 36.404,5.953c12.036,2.551 23.903,5.472 35.655,9.377c1.227,0.416 1.977,1.7 1.694,2.996c-0.27,1.195 -1.328,2.009 -2.505,2.009c-0.187,0 -0.37,-0.025 -0.56,-0.061l-0.079,-0.025c-11.698,-2.605 -23.662,-4.697 -35.583,-6.398c-11.953,-1.683 -23.956,-2.781 -35.938,-3.592c-8.321,-0.506 -16.65,-0.789 -24.954,-0.789c-15.628,-0 -31.194,0.997 -46.474,3.401c-11.687,1.823 -23.195,4.536 -34.244,8.351c-11.063,3.739 -21.671,8.626 -31.363,14.841c-2.361,1.648 -4.852,3.119 -7.094,4.895c-2.24,1.816 -4.522,3.47 -6.743,5.401l-13.191,11.928l-12.298,12.778l-11.246,13.661c-14.196,18.8 -25.327,39.875 -32.461,62.421c-7.116,22.539 -10.808,46.23 -11.799,70.114l-0.405,8.972c-0.176,2.989 0.061,5.992 0.061,8.989c0.169,5.996 0.14,12.003 0.459,18.003c0.998,11.982 1.658,24.01 3.348,35.974c2.613,24.021 7.694,47.737 12.56,71.51l0.014,0.086c0.251,1.256 -0.499,2.512 -1.755,2.857c-0.222,0.061 -0.445,0.089 -0.667,0.089Z" style="fill:#d3e9ff;fill-opacity:0.73;fill-rule:nonzero;"/><path d="M831.946,2274.85c0.887,-6.044 2.091,-24.164 3.354,-45.991c2.228,-38.526 4.636,-88.6 5.791,-104.204l0.129,-147.871c339.294,-0 1112.69,225.78 1252.98,217.484c22.686,-1.349 40.015,-20.752 38.806,-43.445l-87.96,-1655.04c-1.026,-19.212 -16.937,-33.964 -35.852,-33.964c-0.926,-0 -1.863,0.035 -2.806,0.107c-88.276,6.779 -180.226,9.592 -272.136,9.592c-291.736,0 -582.819,-28.381 -752.502,-48.501l1027.51,-0c42.035,-0 79.125,22.087 99.97,55.513c10.249,16.431 16.571,35.601 17.619,56.241l12.373,243.124l71.518,1404.57c0.911,17.942 -3.686,34.858 -12.291,49.14c-14.877,24.707 -41.758,41.515 -72.849,42.082l-47.062,0.857l-662.855,12.043l-583.729,-11.741Zm-74.704,-1.866c-4.109,-0.102 -13.91,0.692 -19.543,-5.467c-5.81,-6.354 -7.39,-19.666 -7.39,-19.666l8.817,-1691.19c-0,-61.825 41.985,-113.846 98.998,-129.108c-3.761,6.007 -5.939,13.134 -5.893,20.827l8.989,1528.4c0.946,134.248 -3.587,210.406 -5.92,252.075c-1.99,35.543 -3.069,45.997 -3.069,45.997c-23.877,-0 -51.275,-1.28 -74.989,-1.872Z" style="fill:url(#_Linear1);"/><path d="M832.231,448.376c-0.14,-23.612 20.63,-41.887 44.03,-38.715c155.197,21.046 688.883,86.14 1130.12,52.265c20.12,-1.543 37.589,13.704 38.658,33.857l87.96,1655.04c1.209,22.693 -16.12,42.096 -38.806,43.445c-185.583,10.981 -949.854,53.435 -1222.46,24.886c-16.589,-1.741 -29.185,-15.707 -29.282,-32.393l-10.227,-1738.38Z" style="fill:#91b3fa;fill-rule:nonzero;"/><path d="M850.511,489.851c-0.133,-22.725 19.855,-40.312 42.372,-37.258c149.354,20.253 662.938,82.896 1087.57,50.299c19.366,-1.486 36.168,13.184 37.201,32.579l84.648,1592.72c1.155,21.842 -15.513,40.513 -37.349,41.808c-178.589,10.565 -914.085,51.419 -1176.42,23.95c-15.965,-1.673 -28.087,-15.118 -28.18,-31.177l-9.843,-1672.92Z" style="fill:#bdd0fb;fill-rule:nonzero;"/><path d="M1268.81,978.384c-118.989,0 -242.269,-2.411 -294.352,-3.563c-14.486,-0.319 -26.181,-9.351 -26.852,-20.705l-20.221,-341.465c-0.778,-13.198 12.671,-24.154 29.368,-24.154c0.348,0 0.7,0.004 1.051,0.015l476.455,13.069c16.316,0.448 30.107,9.667 33.103,22.255c18.606,77.912 12.689,264.303 9.983,328.342c-0.528,12.592 -13.223,22.776 -29.267,23.433c-50.195,2.045 -114.08,2.773 -179.268,2.773Z" style="fill:#f1f5fe;fill-rule:nonzero;"/><path d="M1933.85,642.371l-419.578,-0c-1.869,-0 -3.908,-1.443 -4.536,-3.205l-8.54,-24.279c-0.621,-1.737 0.373,-3.14 2.2,-3.14l0.068,-0l429.711,7.654c1.87,0.032 3.449,1.593 3.502,3.463l0.467,16.112c0.061,1.87 -1.425,3.395 -3.294,3.395Z" style="fill:#e5ecfd;fill-rule:nonzero;"/><path d="M1933.85,706.026l-419.578,-0c-1.869,-0 -3.908,-1.443 -4.536,-3.205l-8.54,-24.275c-0.621,-1.741 0.373,-3.151 2.207,-3.151c0.014,-0 0.036,0.007 0.061,0.007l429.711,7.654c1.87,0.04 3.449,1.594 3.502,3.463l0.467,16.112c0.061,1.87 -1.425,3.395 -3.294,3.395Z" style="fill:#e5ecfd;fill-rule:nonzero;"/><path d="M1933.85,770.607l-419.578,-0c-1.869,-0 -3.908,-1.439 -4.536,-3.201l-8.54,-24.279c-0.621,-1.737 0.373,-3.147 2.2,-3.147l0.068,-0l429.711,7.661c1.87,0.029 3.449,1.593 3.502,3.463l0.467,16.112c0.061,1.869 -1.425,3.391 -3.294,3.391Z" style="fill:#e5ecfd;fill-rule:nonzero;"/><path d="M1973.66,1082.05l-957.161,0c-1.869,0 -4.352,-1.195 -5.519,-2.655l-20.199,-25.367c-1.159,-1.457 -0.596,-2.637 1.249,-2.637l0.032,-0l980.087,7.729c1.87,0.011 3.503,1.55 3.625,3.42l1.066,16.126c0.122,1.859 -1.31,3.384 -3.18,3.384Z" style="fill:#e5ecfd;fill-rule:nonzero;"/><path d="M1973.66,1145.71l-957.161,0c-1.869,0 -4.352,-1.195 -5.519,-2.659l-20.199,-25.367c-1.159,-1.457 -0.596,-2.634 1.249,-2.634l0.032,0l980.087,7.73c1.87,0.007 3.503,1.547 3.625,3.416l1.066,16.127c0.122,1.862 -1.31,3.387 -3.18,3.387Z" style="fill:#e5ecfd;fill-rule:nonzero;"/><path d="M1027.26,1450.9c-3.219,0.222 -6.155,1.647 -8.06,3.914c-1.572,1.87 -2.304,4.17 -2.063,6.46l7.123,68c0.764,7.299 7.69,12.872 16.105,12.955l81.044,0.782l0.162,0c7.851,0 14.357,-5.541 14.533,-12.405c0.789,-30.997 1.163,-60.045 -2.835,-74.855c-1.794,-6.628 -8.695,-11.246 -16.611,-11.271c-14.784,0.183 -41.339,2.444 -62.672,4.259c-10.205,0.876 -19.847,1.694 -26.726,2.161Zm94.311,98.33l-0.223,-0l-81.044,-0.779c-11.58,-0.108 -21.136,-8.077 -22.234,-18.527l-7.123,-68.001c-0.42,-3.99 0.821,-7.934 3.487,-11.113c2.986,-3.549 7.507,-5.778 12.402,-6.115c6.825,-0.466 16.442,-1.285 26.623,-2.153c21.433,-1.83 48.11,-4.098 63.124,-4.281c10.887,-0.061 20.127,6.387 22.693,15.872c4.22,15.606 3.854,45.157 3.047,76.634c-0.259,10.22 -9.553,18.463 -20.752,18.463Z" style="fill:#fff;fill-rule:nonzero;"/><path d="M1111.51,1536.49l-0.154,-0l-64.764,-0.621c-7.963,-0.075 -14.576,-5.508 -15.319,-12.581l-5.691,-54.34c-0.589,-5.623 4.083,-10.593 10.395,-11.031c17.028,-1.155 54.028,-4.919 71.579,-5.135c0.075,-0.007 0.154,-0.007 0.222,-0.007c7.346,0 13.751,4.468 15.484,10.859c3.384,12.516 2.932,37.485 2.344,60.522c-0.169,6.854 -6.427,12.334 -14.096,12.334Z" style="fill:#e5ecfd;fill-rule:nonzero;"/><path d="M1212.2,1519.07c-9.129,-0 -17.12,-6.151 -19.456,-14.992c-3.366,-12.765 6.265,-25.252 19.456,-25.252l0.094,-0l749.878,3.416c8.243,0.039 14.96,6.642 15.147,14.888c0.183,8.48 -6.606,15.474 -15.086,15.553l-749.864,6.387l-0.169,-0Z" style="fill:#e5ecfd;fill-rule:nonzero;"/><path d="M1039.42,1468.58c6.018,-3.531 13.762,-1.424 17.16,4.672l15.983,28.654c1.6,2.864 5.791,2.688 7.13,-0.309l39.656,-88.268c1.977,-4.406 8.533,-2.914 8.458,1.906c-0.406,27.006 -7.568,78.328 -50.709,121.282c0,-0 -23.773,-9.237 -42.917,-51.283c-2.767,-6.068 -0.513,-13.277 5.239,-16.654Z" style="fill:url(#_Linear2);"/><path d="M1027.26,1624.6c-3.219,0.223 -6.155,1.647 -8.06,3.915c-1.572,1.87 -2.304,4.159 -2.063,6.459l7.123,67.998c0.764,7.302 7.69,12.871 16.105,12.957l81.044,0.772l0.162,-0c7.851,-0 14.357,-5.53 14.533,-12.394c0.789,-31.005 1.163,-60.049 -2.835,-74.859c-1.801,-6.624 -8.795,-11.397 -16.611,-11.267c-14.784,0.183 -41.339,2.443 -62.672,4.259c-10.205,0.872 -19.847,1.694 -26.726,2.16Zm94.311,98.33l-0.223,0l-81.044,-0.782c-11.58,-0.107 -21.136,-8.074 -22.234,-18.523l-7.123,-68.001c-0.42,-3.998 0.821,-7.938 3.487,-11.117c2.986,-3.545 7.507,-5.785 12.402,-6.122c6.825,-0.459 16.442,-1.277 26.623,-2.142c21.433,-1.834 48.11,-4.102 63.124,-4.292l0.323,-0c10.654,-0 19.826,6.488 22.37,15.875c4.22,15.613 3.854,45.161 3.047,76.635c-0.259,10.227 -9.553,18.469 -20.752,18.469Z" style="fill:#fff;fill-rule:nonzero;"/><path d="M1111.51,1710.19l-0.154,-0l-64.764,-0.621c-7.963,-0.079 -14.576,-5.509 -15.319,-12.581l-5.691,-54.34c-0.589,-5.623 4.083,-10.604 10.395,-11.031c17.028,-1.166 54.028,-4.92 71.579,-5.142l0.222,-0c7.346,-0 13.751,4.468 15.484,10.848c3.384,12.527 2.932,37.495 2.344,60.53c-0.169,6.857 -6.427,12.337 -14.096,12.337Z" style="fill:#e5ecfd;fill-rule:nonzero;"/><path d="M1212.2,1692.77c-9.129,-0 -17.12,-6.154 -19.456,-14.993c-3.366,-12.771 6.265,-25.252 19.449,-25.252l0.101,0l749.878,3.417c8.243,0.039 14.96,6.642 15.147,14.884c0.183,8.483 -6.606,15.477 -15.086,15.546l-749.864,6.398l-0.169,-0Z" style="fill:#e5ecfd;fill-rule:nonzero;"/><path d="M1039.42,1642.28c6.018,-3.531 13.762,-1.424 17.16,4.669l15.983,28.657c1.6,2.867 5.791,2.692 7.13,-0.312l39.656,-88.265c1.977,-4.403 8.533,-2.917 8.458,1.909c-0.406,26.996 -7.568,78.325 -50.709,121.282c0,0 -23.773,-9.24 -42.917,-51.282c-2.767,-6.075 -0.513,-13.277 5.239,-16.658Z" style="fill:url(#_Linear3);"/><path d="M1027.26,1798.3c-3.219,0.212 -6.155,1.647 -8.06,3.911c-1.572,1.87 -2.304,4.163 -2.063,6.46l7.123,68c0.764,7.303 7.69,12.872 16.101,12.955l81.048,0.775l0.162,-0c7.851,-0 14.357,-5.534 14.533,-12.395c0.789,-31.007 1.163,-60.056 -2.835,-74.858c-1.801,-6.635 -8.795,-11.422 -16.611,-11.279c-14.784,0.194 -41.339,2.455 -62.672,4.271c-10.205,0.865 -19.847,1.683 -26.726,2.16Zm94.311,98.319l-0.223,0l-81.044,-0.771c-11.58,-0.108 -21.136,-8.074 -22.234,-18.524l-7.123,-68c-0.42,-3.994 0.821,-7.945 3.487,-11.117c2.99,-3.557 7.507,-5.785 12.402,-6.122c6.825,-0.467 16.442,-1.288 26.623,-2.153c21.433,-1.823 48.11,-4.091 63.124,-4.281l0.323,-0c10.654,-0 19.826,6.488 22.37,15.871c4.22,15.614 3.854,45.157 3.047,76.635c-0.259,10.227 -9.553,18.462 -20.752,18.462Z" style="fill:#fff;fill-rule:nonzero;"/><path d="M1111.52,1883.89l-0.162,-0l-64.764,-0.621c-7.963,-0.075 -14.576,-5.508 -15.319,-12.578l-5.691,-54.343c-0.589,-5.623 4.083,-10.6 10.395,-11.031c17.028,-1.162 54.028,-4.916 71.579,-5.138l0.23,-0c7.338,-0 13.743,4.464 15.476,10.848c3.384,12.523 2.932,37.484 2.344,60.529c-0.169,6.858 -6.427,12.334 -14.088,12.334Z" style="fill:#e5ecfd;fill-rule:nonzero;"/><path d="M1212.2,1866.47c-9.129,-0 -17.12,-6.151 -19.456,-14.993c-3.366,-12.771 6.265,-25.259 19.456,-25.259l0.094,0l749.878,3.427c8.243,0.036 14.96,6.632 15.147,14.885c0.183,8.48 -6.606,15.473 -15.086,15.545l-749.864,6.395l-0.169,-0Z" style="fill:#e5ecfd;fill-rule:nonzero;"/><path d="M1039.42,1815.98c6.018,-3.531 13.762,-1.424 17.16,4.665l15.983,28.661c1.6,2.863 5.791,2.68 7.13,-0.316l39.656,-88.268c1.977,-4.4 8.533,-2.914 8.458,1.912c-0.406,27 -7.568,78.322 -50.709,121.286c0,-0 -23.773,-9.24 -42.917,-51.286c-2.767,-6.075 -0.513,-13.274 5.239,-16.654Z" style="fill:url(#_Linear4);"/><path d="M1027.26,1972c-3.219,0.215 -6.155,1.647 -8.06,3.908c-1.572,1.869 -2.304,4.166 -2.063,6.466l7.123,68.001c0.764,7.299 7.69,12.868 16.101,12.947l81.048,0.779l0.162,-0c7.851,-0 14.357,-5.53 14.533,-12.402c0.789,-30.997 1.163,-60.049 -2.835,-74.847c-1.801,-6.635 -8.795,-11.447 -16.611,-11.279c-14.784,0.183 -41.339,2.444 -62.672,4.26c-10.205,0.872 -19.847,1.693 -26.726,2.167Zm94.311,98.323l-0.223,0l-81.044,-0.775c-11.58,-0.115 -21.136,-8.074 -22.234,-18.531l-7.123,-68c-0.42,-3.991 0.821,-7.938 3.487,-11.107c2.99,-3.556 7.507,-5.784 12.402,-6.122c6.825,-0.466 16.442,-1.288 26.623,-2.153c21.433,-1.823 48.11,-4.098 63.124,-4.284c0.107,-0 0.215,-0.007 0.323,-0.007c10.654,-0 19.826,6.498 22.37,15.882c4.22,15.606 3.854,45.153 3.047,76.635c-0.259,10.219 -9.553,18.462 -20.752,18.462Z" style="fill:#fff;fill-rule:nonzero;"/><path d="M1123.49,1985.64c-1.349,-0.495 -2.767,-0.85 -4.245,-1.026c-19.611,-2.365 -49.667,-4.059 -85.451,-5.254c0.699,-0.168 1.428,-0.29 2.181,-0.337c17.028,-1.166 54.028,-4.927 71.579,-5.142l0.222,-0c7.346,-0 13.751,4.467 15.484,10.848c0.076,0.301 0.162,0.606 0.23,0.911Z" style="fill:#e5ecfd;fill-rule:nonzero;"/><path d="M1212.2,2040.16c-9.129,0 -17.12,-6.143 -19.456,-14.985c-3.366,-12.771 6.265,-25.259 19.456,-25.259l0.094,0l749.878,3.423c8.243,0.04 14.96,6.635 15.147,14.878c0.183,8.483 -6.606,15.477 -15.086,15.552l-749.864,6.391l-0.169,0Z" style="fill:#e5ecfd;fill-rule:nonzero;"/><path d="M1016.03,1280.93c-3.218,0.215 -6.157,1.647 -8.059,3.915c-1.576,1.862 -2.308,4.162 -2.067,6.459l7.123,68.001c0.764,7.299 7.69,12.871 16.105,12.947l81.044,0.782l0.162,0c7.851,0 14.357,-5.533 14.533,-12.405c0.79,-30.997 1.166,-60.045 -2.835,-74.848c-1.801,-6.635 -8.795,-11.447 -16.607,-11.278c-14.788,0.183 -41.342,2.451 -62.672,4.267c-10.209,0.868 -19.848,1.686 -26.727,2.16Zm94.308,98.323l-0.223,-0l-81.044,-0.772c-11.58,-0.114 -21.136,-8.077 -22.234,-18.534l-7.123,-67.99c-0.417,-4.001 0.821,-7.945 3.491,-11.117c2.986,-3.556 7.504,-5.784 12.398,-6.122c6.829,-0.466 16.446,-1.288 26.623,-2.153c21.434,-1.823 48.117,-4.091 63.124,-4.281c0.108,0 0.215,-0.011 0.323,-0.011c10.665,0 19.826,6.499 22.37,15.883c4.22,15.606 3.854,45.157 3.05,76.634c-0.261,10.227 -9.556,18.463 -20.755,18.463Z" style="fill:#fff;fill-rule:nonzero;"/><path d="M1100.28,1366.52l-0.162,0l-64.76,-0.628c-7.967,-0.068 -14.58,-5.501 -15.319,-12.574l-5.695,-54.347c-0.589,-5.615 4.087,-10.593 10.396,-11.023c17.027,-1.166 54.027,-4.927 71.578,-5.142l0.23,-0c7.342,-0 13.754,4.467 15.477,10.851c3.387,12.524 2.935,37.485 2.35,60.53c-0.176,6.846 -6.434,12.333 -14.095,12.333Z" style="fill:#e5ecfd;fill-rule:nonzero;"/><path d="M1200.98,1349.1c-9.132,0 -17.124,-6.15 -19.46,-14.992c-3.362,-12.771 6.266,-25.259 19.46,-25.259l0.09,-0l749.878,3.423c8.25,0.04 14.961,6.635 15.147,14.881c0.183,8.48 -6.606,15.481 -15.086,15.549l-749.853,6.391c-0.061,0.007 -0.122,0.007 -0.176,0.007Z" style="fill:#e5ecfd;fill-rule:nonzero;"/><path d="M1028.2,1298.61c6.014,-3.531 13.758,-1.425 17.156,4.665l15.99,28.653c1.593,2.871 5.785,2.688 7.127,-0.308l39.652,-88.272c1.977,-4.396 8.533,-2.911 8.458,1.916c-0.398,26.999 -7.568,78.321 -50.708,121.285c-0,0 -23.774,-9.247 -42.918,-51.286c-2.767,-6.075 -0.513,-13.284 5.243,-16.653Z" style="fill:url(#_Linear5);"/><path d="M1454.79,293.783c-17.755,0 -32.152,-14.393 -32.152,-32.152c-0,-17.759 14.397,-32.153 32.152,-32.153c17.759,0 32.156,14.394 32.156,32.153c0,17.759 -14.397,32.152 -32.156,32.152Zm56.708,-95.42c-41.048,-28.56 -76.749,-27.993 -101.868,-20.58c-22.923,6.765 -37.787,28.894 -35.601,52.693l10.833,118.278l128.951,11.444c-0,-0 78.195,-105.827 -2.315,-161.835Z" style="fill:url(#_Linear6);"/><path d="M1394.36,262.086c-1.586,0 -2.943,-1.212 -3.097,-2.827l-1.31,-14.3c-2.074,-22.672 12.19,-43.783 33.925,-50.195c15.391,-4.543 31.241,-5.193 47.124,-1.938c1.686,0.345 2.774,1.992 2.429,3.675c-0.344,1.679 -1.977,2.756 -3.678,2.422c-14.878,-3.047 -29.72,-2.44 -44.12,1.808c-18.886,5.577 -31.287,23.939 -29.479,43.661l1.31,14.3c0.158,1.711 -1.105,3.226 -2.813,3.384c-0.101,0.007 -0.191,0.01 -0.291,0.01Zm3.387,36.915c-1.593,-0 -2.949,-1.213 -3.096,-2.828l-1.723,-18.839c-0.161,-1.708 1.102,-3.223 2.81,-3.381c1.747,-0.165 3.226,1.102 3.38,2.817l1.73,18.836c0.154,1.712 -1.102,3.226 -2.817,3.384c-0.093,0.007 -0.194,0.011 -0.284,0.011Z" style="fill:#91b3fa;fill-rule:nonzero;"/><path d="M1208.87,425.191l0,-59.463c0,-20.53 17.013,-36.972 37.532,-36.269l410,14.049c18.193,0.621 32.927,14.985 34.022,33.157l3.423,57.139l-484.977,-8.613Z" style="fill:url(#_Linear7);"/><path d="M1361.74,351.865l-17.627,0c-1.715,0 -3.111,-1.388 -3.111,-3.111c0,-1.719 1.396,-3.111 3.111,-3.111l17.627,0c1.726,0 3.118,1.392 3.118,3.111c-0,1.723 -1.392,3.111 -3.118,3.111Z" style="fill:#91b3fa;fill-rule:nonzero;"/><path d="M1231.06,406.521c-1.719,-0 -3.112,-1.392 -3.112,-3.111l0,-24.057c0,-18.588 15.122,-33.71 33.71,-33.71l64.818,0c1.726,0 3.118,1.392 3.118,3.111c0,1.723 -1.392,3.111 -3.118,3.111l-64.818,0c-15.154,0 -27.491,12.334 -27.491,27.488l0,24.057c0,1.719 -1.392,3.111 -3.107,3.111Z" style="fill:#91b3fa;fill-rule:nonzero;"/><path d="M1041.81,440.209c0.991,-20.594 17.978,-36.778 38.594,-36.781l716.958,-0.018c25.779,-0 47.82,18.552 52.215,43.951l0.607,3.506c4.819,27.824 -16.611,53.274 -44.841,53.274l-735.557,-0c-16.902,-0 -30.369,-14.132 -29.558,-31.012l1.582,-32.92Z" style="fill:#6fb0ff;fill-rule:nonzero;"/><path d="M1454.95,949.096c9.713,-9.101 22.861,-13.629 36.132,-12.434c141.904,12.764 406.673,-55.596 579.707,-232.646c12.022,-12.294 33.922,-5.346 47.691,4.942c192.447,143.831 511.448,173.619 622.187,179.708c22.909,1.263 41.493,19.03 43.862,41.852c100.706,972.663 -532.592,1325.12 -663.936,1387.34c-14.357,6.804 -31.266,5.817 -44.748,-2.58c-654.627,-407.757 -626.626,-938.027 -635.673,-1330.93c-0.305,-13.314 5.057,-26.139 14.778,-35.242Z" style="fill:#003690;fill-opacity:0.65;"/><path d="M1526.24,1014.74c-2.466,-0 -4.644,0.911 -6.266,2.566c-1.593,1.621 -2.454,3.775 -2.415,6.05l0.452,25.054c3.287,187.298 7.019,399.594 82.994,607.594c84.977,232.631 247.63,423.277 497.252,582.851c2.552,1.629 5.799,1.791 8.473,0.42c64.965,-33.394 231.195,-131.358 371.442,-319.453c187.894,-251.998 266.377,-571.304 233.266,-949.058c-0.369,-4.177 -3.664,-7.432 -7.83,-7.737c-143.799,-10.604 -413.319,-47.141 -602.638,-172.765c-3.226,-2.139 -7.492,-1.834 -10.374,0.75c-172.482,154.554 -407.725,223.728 -564.349,223.728l-0.007,-0Zm576.636,1233.11c-3.04,-0 -6.09,-0.858 -8.742,-2.552c-251.086,-160.507 -414.74,-352.409 -500.317,-586.666c-76.419,-209.209 -80.158,-422.186 -83.453,-610.084l-0.452,-25.043c-0.075,-4.353 1.558,-8.458 4.608,-11.562c3.071,-3.126 7.184,-4.848 11.59,-4.848l0.008,-0c155.296,-0 388.394,-68.575 559.375,-221.773c5.476,-4.905 13.568,-5.493 19.704,-1.428c187.866,124.655 455.914,160.963 598.967,171.502c7.931,0.585 14.189,6.764 14.889,14.702c33.279,379.678 -45.699,700.757 -234.745,954.301c-141.201,189.372 -308.645,288.047 -374.076,321.681c-2.307,1.181 -4.834,1.77 -7.356,1.77Z" style="fill:#91b3fa;fill-rule:nonzero;"/><path d="M2315.17,1110.71l151.708,305.06l195.013,-433.346l-202.567,224.273l-144.154,-95.987Z" style="fill:url(#_Linear8);"/><path d="M1741.71,1209.64c-0.987,3.133 10.428,7.906 17.146,-4.912c0.24,-6.144 3.968,-32.461 0.301,-37.463c-19.546,-26.645 -57.444,-60.056 -57.444,-60.056c-6.405,6.322 -1.126,12.527 -1.126,12.527l18.387,19.151c-3.847,6.951 -8.544,12.818 -10.74,21.222c-1.665,6.366 -0.646,13.17 2.572,18.962c3.226,5.816 7.629,13.377 11.792,19.291c7.873,11.192 19.112,11.278 19.112,11.278Z" style="fill:url(#_Linear9);"/><path d="M1727.01,1151.31l16.758,14.203l5.261,14.146l-14.939,16.567c0,0 -5.024,-28.054 -8.756,-34.129c-3.732,-6.075 -1.801,-9.007 1.676,-10.787Z" style="fill:url(#_Linear10);"/><path d="M2070.8,2255.58c-0,0 4.238,23.964 6.312,47.683c0.814,9.273 -6.334,17.322 -15.635,17.706c-31.589,1.317 -99.152,3.875 -123.399,2.795c-3.646,-0.169 -6.029,-3.897 -4.679,-7.285c1.134,-2.842 3.308,-5.142 6.089,-6.412l111.608,-51.3l19.704,-3.187Z" style="fill:url(#_Linear11);"/><path d="M2074.27,2241.51l-3.402,28.661c-0,0 -19.55,9.104 -32.902,-1.148l8.095,-31.941l28.209,4.428Z" style="fill:url(#_Linear12);"/><path d="M2071.71,1702.67c1.471,7.485 7.891,373.509 -31.234,537.533c-0.642,2.673 0.715,5.432 3.262,6.473c6,2.455 17.767,6 31.866,6.474c4.367,0.147 8.282,-2.688 9.513,-6.879c11.185,-38.059 64.774,-228.731 71.761,-410.872c7.816,-203.533 0,-6.933 0,-6.933l-4.579,-125.811l-80.589,0.015Z" style="fill:url(#_Linear13);"/><path d="M2199.19,2268.09c-0,-0 6.739,12.096 13.259,44.242c1.181,5.799 -2.871,11.361 -8.77,11.935c-10.428,1.026 -26.486,2.343 -39.347,2.261c-5.932,-0.047 -10.558,-5.204 -9.847,-11.092c1.425,-11.731 5.867,-30.983 19.575,-45.983l25.13,-1.363Z" style="fill:url(#_Linear14);"/><path d="M2205.11,2231.22l-7.945,43.349c-0,-0 -7.862,5.838 -23.404,1.6l3.8,-46.632l27.549,1.683Z" style="fill:url(#_Linear15);"/><path d="M2226.58,1713.91c31.99,193.115 -6.94,477.294 -20.074,532.914c-0.804,3.409 -3.553,6.014 -7.008,6.589c-5.86,0.972 -15.513,1.762 -25.03,-0.998c-3.272,-0.955 -5.576,-3.911 -5.716,-7.324c-1.762,-44.97 1.41,-321.028 -28.399,-430.131c-1.518,-5.523 -4.887,-10.349 -9.559,-13.668l-57.875,-41.138l-4.435,-66.508l158.096,20.264Z" style="fill:url(#_Linear16);"/><path d="M2022.67,1347.99c95.893,-1.586 201.702,25.18 201.702,25.18c28.585,166.784 5.002,359.163 5.002,359.163c-74.241,19.464 -157.988,-11.906 -157.988,-11.906c-12.333,-69.709 -69.906,-265.91 -69.906,-265.91c-46.854,-5.814 -85.451,-19.328 -117.238,-37.202c24.247,-28.101 35.676,-63.863 40.643,-85.002c33.9,10.535 68.212,16.165 97.785,15.677Z" style="fill:url(#_Linear17);"/><path d="M1739.42,1206.74c9.423,-11.379 21.344,-6 21.344,-6c14.113,59.611 88.103,107.943 164.124,131.57c-4.967,21.139 -16.396,56.901 -40.643,85.002c-126.155,-70.936 -144.825,-210.572 -144.825,-210.572Z" style="fill:url(#_Linear18);"/><path d="M2187.59,1466.02l36.782,-92.855c-0,0 89.574,60.853 104.308,138.015c-16.926,1.249 -47.722,5.656 -77.869,20.878c-6.627,-36.437 -63.221,-66.038 -63.221,-66.038Z" style="fill:url(#_Linear19);"/><path d="M2119.81,1270.13l30.516,88.243c0.506,1.46 -0.1,3.079 -1.45,3.829c-8.318,4.597 -38.288,17.888 -74.395,-5.01c-3.761,-2.382 -6.319,-6.276 -6.897,-10.686l-9.883,-76.376l62.109,-0Z" style="fill:url(#_Linear20);"/><path d="M2053.42,1188.42c0,-0 -33.501,63.073 -29.213,88.548c4.299,25.478 45.821,23.648 82.082,2.957l25.345,-68.102l-78.214,-23.403Z" style="fill:url(#_Linear21);"/><path d="M2104.69,1246.49c-1.471,-0.653 -2.016,-2.462 -1.134,-3.807c2.681,-4.102 7.715,-12.467 9.323,-19.791c0,0 6.021,-3.861 -15.33,-8.971c-21.358,-5.11 -53.198,-13.047 -59.894,-31.219c-6.528,-17.72 10.618,-62.284 37.976,-26.777c1.041,1.349 3.079,1.382 4.123,0.025c4.482,-5.831 16.27,-17.949 32.637,-10.604c15.319,6.872 17.045,18.097 16.837,23.759c-0.068,1.662 1.425,2.957 3.057,2.642c7.744,-1.479 26.332,-2.742 35.006,16.32c7.144,15.703 2.504,24.591 -1.727,28.94c-1.37,1.411 -0.771,3.725 1.106,4.299c5.092,1.565 11.666,5.878 11.009,17.806c-0.911,16.478 -19.345,15.029 -24.595,14.279c-0.858,-0.122 -1.723,0.168 -2.304,0.814c-4.496,4.977 -24.778,26.124 -46.718,28.675c-1.902,0.212 -3.373,-1.654 -2.752,-3.463l9.502,-27.605c0.434,-1.285 -0.176,-2.688 -1.41,-3.241l-4.712,-2.081Z" style="fill:url(#_Linear22);"/><path d="M2100.87,1250.4c-0,-0 23.856,-16.367 25.596,-2.584c1.744,13.783 -21.484,19.966 -32.988,14.824l7.392,-12.24Z" style="fill:url(#_Linear23);"/><path d="M2250.81,1532.06c0,-0 31.302,141.233 2.95,220.631c34.765,16.119 28.338,13.087 28.338,13.087c0,-0 68.783,-200.959 46.581,-254.596c-43.786,-4.643 -65.496,7.127 -77.869,20.878Z" style="fill:url(#_Linear24);"/><path d="M2253.76,1752.69c0,-0 -17.92,23.192 -16.489,32.421c1.436,9.241 1.78,13.001 1.78,13.001c0,0 9,-6.157 8.433,-14.027c-1.249,24.976 -9.606,53.36 -2.006,51.997c7.6,-1.371 46.933,-37.625 38.037,-76.283c-20.177,-14.017 -25.833,-12.495 -29.755,-7.109Z" style="fill:url(#_Linear25);"/><path d="M1035.12,774.834l-64.545,-39.706l0,80.779l64.545,39.904l0,-80.977Z" style="fill:#1f3b71;fill-rule:nonzero;"/><path d="M1034.73,861.089l-34.621,-21.319l0,43.424l34.621,21.319l0,-43.424Z" style="fill:#1f3b71;fill-rule:nonzero;"/><path d="M995.807,837.424l-19.557,-12.126l-0,24.448l19.557,12.126l-0,-24.448Z" style="fill:#1f3b71;fill-rule:nonzero;"/><path d="M997.762,866.174l-10.758,-6.649l0,13.496l10.758,6.649l0,-13.496Z" style="fill:#1f3b71;fill-rule:nonzero;"/><path d="M1045.68,774.834l64.545,-39.706l0,80.779l-64.545,39.904l0,-80.977Z" style="fill:#1f3b71;fill-rule:nonzero;"/><path d="M1115.12,733.37l33.251,-20.537l-0,41.856l-33.251,20.536l0,-41.855Z" style="fill:#1f3b71;fill-rule:nonzero;"/><path d="M1115.12,780.899l20.731,-12.912l-0,26.016l-20.731,12.908l0,-26.012Z" style="fill:#1f3b71;fill-rule:nonzero;"/><path d="M1137.8,764.076l9.585,-5.867l0,12.129l-9.585,5.867l0,-12.129Z" style="fill:#1f3b71;fill-rule:nonzero;"/><path d="M970.576,721.829l69.828,-43.226l69.823,43.226l-69.823,43.029l-69.828,-43.029Z" style="fill:#1f3b71;fill-rule:nonzero;"/><path d="M927.35,693.47l38.726,-23.863l38.924,23.863l-38.924,24.057l-38.726,-24.057Z" style="fill:#1f3b71;fill-rule:nonzero;"/><path d="M990.331,678.603l18.778,-11.734l18.972,11.734l-18.972,11.738l-18.778,-11.738Z" style="fill:#1f3b71;fill-rule:nonzero;"/><path d="M972.532,670.78l13.496,-8.411l13.496,8.411l-13.496,8.412l-13.496,-8.412Z" style="fill:#1f3b71;fill-rule:nonzero;"/><path d="M979.77,814.931l0.391,-8.996l21.513,-10.564c0.197,-0.194 0.782,-0.391 1.762,-0.783c0.782,-0.391 1.367,-0.585 1.758,-0.782c0.197,-0.194 0.786,-0.391 1.564,-0.782c0.786,-0.391 1.174,-0.782 1.569,-0.976c0.193,-0.198 0.584,-0.782 1.173,-1.174c0.391,-0.588 0.782,-0.979 0.976,-1.564c0.197,-0.589 0.391,-1.174 0.589,-1.956c0.193,-0.786 0.391,-1.564 0.391,-2.35c0.193,-2.541 -0.589,-5.085 -1.956,-7.626c-1.371,-2.544 -3.52,-4.693 -6.456,-6.455c-1.762,-0.976 -3.129,-1.565 -4.302,-1.565c-1.174,0 -2.153,0.194 -2.935,0.98c-0.585,0.782 -1.174,1.758 -1.565,2.738c-0.391,1.173 -0.585,2.347 -0.585,3.911l0,2.15l-11.738,-6.844l0,-2.153c0.198,-5.867 2.153,-9.387 5.476,-10.758c3.52,-1.367 8.803,0 15.843,4.109c6.653,3.911 11.738,8.214 15.258,13.105c3.327,4.887 5.085,9.972 4.891,15.061c0,1.955 -0.391,3.52 -0.979,5.084c-0.585,1.368 -1.371,2.541 -2.347,3.521c-0.98,0.976 -1.956,1.762 -2.738,2.347c-0.783,0.588 -1.956,1.173 -3.52,1.955l-21.517,8.214l29.537,16.823l-0.395,8.996l-41.658,-23.666Z" style="fill:#ebeced;fill-rule:nonzero;"/><path d="M1077.57,830.577c-7.629,4.5 -13.302,6.455 -17.407,5.673c-3.911,-0.782 -6.065,-3.911 -6.065,-9.585l0,-2.346l13.299,-7.823c0,1.564 0,2.738 0.198,3.717c0.193,0.976 0.391,1.956 0.782,2.738c0.391,0.976 0.976,1.368 1.564,1.759c0.783,0.197 1.762,0.197 2.936,-0c1.173,-0.391 2.738,-0.976 4.496,-1.956c1.762,-0.976 3.327,-2.149 4.5,-3.326c1.173,-1.174 2.149,-2.347 2.932,-3.323c0.782,-1.174 1.173,-2.347 1.564,-3.718c0.391,-1.367 0.589,-2.541 0.783,-3.714c0.197,-1.173 0.197,-2.544 0.197,-3.911c-0,-3.915 -0.98,-6.262 -3.129,-7.238c-2.153,-0.783 -5.476,-0 -10.367,2.935l-0,-9.782c4.891,-2.932 8.411,-5.673 10.367,-8.214c1.955,-2.738 3.129,-5.673 3.129,-9.387c-0,-3.129 -0.782,-5.282 -2.153,-6.065c-1.367,-0.782 -4.105,0 -7.823,2.153c-1.758,0.976 -3.323,2.15 -4.496,3.323c-1.174,1.174 -2.153,2.347 -2.936,3.327c-0.782,1.173 -1.173,2.347 -1.564,3.714c-0.391,1.371 -0.589,2.544 -0.782,3.717c-0.198,1.174 -0.198,2.545 -0.198,3.912l-13.299,7.823l0,-2.347c0,-5.476 1.956,-11.15 6.065,-16.626c4.105,-5.475 9.778,-10.56 17.407,-14.863c7.626,-4.5 13.496,-6.455 17.408,-5.673c3.911,0.782 6.061,3.911 6.061,9.585c-0,3.911 -1.174,7.629 -3.521,11.54c-2.346,3.911 -5.669,7.432 -9.778,10.952c4.303,-1.565 7.629,-1.565 9.976,-0c2.347,1.564 3.323,4.5 3.323,8.996c-0,6.456 -1.956,12.52 -5.67,18.19c-3.718,5.871 -9.782,10.955 -17.799,15.843" style="fill:#ebeced;fill-rule:nonzero;"/><rect x="1035.12" y="690.926" width="10.758" height="59.069" style="fill:#ebeced;"/><path d="M1174.38,776.987l-10.56,-41.662l5.669,0l4.891,21.126c1.174,5.278 2.347,10.363 3.129,14.472l0.198,-0c0.585,-4.109 1.955,-9.194 3.323,-14.472l5.476,-21.126l5.673,0l5.085,21.126c1.173,4.887 2.347,9.972 2.935,14.278l0.194,-0c0.782,-4.5 1.956,-9.194 3.326,-14.476l5.476,-21.125l5.476,0l-11.734,41.662l-5.673,-0l-5.279,-21.71c-1.371,-5.282 -2.153,-9.388 -2.741,-13.69l-0.194,-0c-0.782,4.105 -1.758,8.214 -3.129,13.69l-5.867,21.71l-5.674,-0l0,0.197Z" style="fill:#1f3b71;fill-rule:nonzero;"/><path d="M1236.77,759.188c0,-3.52 -1.367,-8.802 -7.625,-8.802c-5.476,0 -7.823,5.085 -8.411,8.802l16.036,0Zm-16.036,3.715c0.193,7.435 4.891,10.367 10.367,10.367c3.911,-0 6.258,-0.585 8.214,-1.565l0.979,3.911c-1.955,0.783 -5.282,1.762 -9.976,1.762c-9.193,0 -14.669,-6.064 -14.669,-15.06c-0,-8.997 5.278,-16.234 14.081,-16.234c9.782,-0 12.323,8.605 12.323,14.081c-0,1.173 -0.194,1.955 -0.194,2.544l-21.125,-0l-0,0.194Z" style="fill:#1f3b71;fill-rule:nonzero;"/><path d="M1254.18,765.056c0,0.584 0.194,1.367 0.194,1.955c0.98,3.718 4.303,6.456 8.214,6.456c5.674,-0 9,-4.694 9,-11.541c-0,-6.064 -3.133,-11.149 -9,-11.149c-3.714,0 -7.234,2.544 -8.214,6.65c-0.194,0.588 -0.391,1.37 -0.391,2.153l0,5.476l0.197,-0Zm-5.673,11.931c0.194,-1.956 0.194,-5.085 0.194,-7.823l-0,-36.185l5.479,-0l0,18.778l0.194,-0c1.956,-3.327 5.476,-5.48 10.17,-5.48c7.432,0 12.714,6.259 12.714,15.258c-0,10.758 -6.65,16.037 -13.496,16.037c-4.303,0 -7.823,-1.758 -9.976,-5.67l-0.194,0l-0.197,4.888l-4.888,-0l0,0.197Z" style="fill:#1f3b71;fill-rule:nonzero;"/><path d="M1289.58,772.878c0.98,0.198 2.545,0.198 4.5,0.198c5.476,-0 10.755,-1.956 10.755,-8.02c-0,-5.674 -4.888,-8.021 -10.755,-8.021l-4.5,0l0,15.843Zm0,-19.948l4.891,0c5.67,0 8.997,-2.935 8.997,-7.044c-0,-4.887 -3.718,-6.843 -9.194,-6.843c-2.541,0 -3.911,0.194 -4.694,0.391l0,13.496Zm-5.476,-17.016c2.347,-0.589 6.065,-0.786 9.779,-0.786c5.476,0 8.802,0.98 11.54,2.935c2.153,1.565 3.521,4.109 3.521,7.432c-0,4.109 -2.738,7.629 -7.041,9.194l0,0.197c3.911,0.976 8.605,4.302 8.605,10.363c0,3.524 -1.367,6.262 -3.52,8.412c-2.932,2.738 -7.629,3.911 -14.472,3.911c-3.718,0 -6.653,-0.194 -8.412,-0.585l0,-41.073Z" style="fill:#1f3b71;fill-rule:nonzero;"/><path d="M1317.55,756.451c-0,-3.521 -0,-6.653 -0.194,-9.391l4.694,-0l0.197,5.87l0.194,0c1.37,-4.108 4.693,-6.653 8.214,-6.653c0.588,0 0.979,0 1.564,0.198l0,5.084c-0.585,-0.197 -1.173,-0.197 -1.758,-0.197c-3.912,0 -6.65,2.935 -7.238,7.044c-0.194,0.782 -0.194,1.565 -0.194,2.541l0,16.04l-5.479,0l-0,-20.536Z" style="fill:#1f3b71;fill-rule:nonzero;"/><path d="M1340.44,762.12c-0,6.653 3.714,11.541 9.19,11.541c5.282,-0 9.193,-4.888 9.193,-11.541c0,-5.085 -2.54,-11.54 -8.996,-11.54c-6.649,-0.194 -9.387,5.871 -9.387,11.54m23.859,-0.391c0,11.149 -7.625,15.843 -14.863,15.843c-8.02,0 -14.279,-5.867 -14.279,-15.452c0,-9.976 6.65,-15.843 14.864,-15.843c8.411,0 14.278,6.259 14.278,15.452" style="fill:#1f3b71;fill-rule:nonzero;"/><path d="M1376.43,760.753c0.782,-0.98 1.956,-2.347 2.738,-3.326l8.802,-10.367l6.65,-0l-11.541,12.322l13.105,17.605l-6.649,0l-10.367,-14.278l-2.738,3.129l0,11.343l-5.476,-0l0,-44.009l5.476,0l0,27.581Z" style="fill:#1f3b71;fill-rule:nonzero;"/><path d="M1419.07,759.188c-0,-3.52 -1.371,-8.802 -7.629,-8.802c-5.476,0 -7.823,5.085 -8.411,8.802l16.04,0Zm-15.843,3.715c0.194,7.435 4.887,10.367 10.367,10.367c3.911,-0 6.258,-0.585 8.214,-1.565l0.976,3.911c-1.956,0.783 -5.279,1.762 -9.976,1.762c-9.19,0 -14.666,-6.064 -14.666,-15.06c0,-8.997 5.279,-16.234 14.081,-16.234c9.779,-0 12.323,8.605 12.323,14.081c-0,1.173 -0.198,1.955 -0.198,2.544l-21.121,-0l-0,0.194Z" style="fill:#1f3b71;fill-rule:nonzero;"/><path d="M1431.19,756.451c-0,-3.521 -0,-6.653 -0.198,-9.391l4.698,-0l0.193,5.87l0.198,0c1.367,-4.108 4.693,-6.653 8.214,-6.653c0.585,0 0.976,0 1.564,0.198l0,5.084c-0.588,-0.197 -1.173,-0.197 -1.762,-0.197c-3.911,0 -6.649,2.935 -7.234,7.044c-0.197,0.782 -0.197,1.565 -0.197,2.541l-0,16.04l-5.476,0l-0,-20.536Z" style="fill:#1f3b71;fill-rule:nonzero;"/><defs><linearGradient id="_Linear1" x1="0" y1="0" x2="1" y2="0" gradientUnits="userSpaceOnUse" gradientTransform="matrix(-104.525,-3093.99,3093.99,-104.525,1474.51,2186.68)"><stop offset="0" style="stop-color:#08005d;stop-opacity:1"/><stop offset="1" style="stop-color:#1a0e90;stop-opacity:1"/></linearGradient><linearGradient id="_Linear2" x1="0" y1="0" x2="1" y2="0" gradientUnits="userSpaceOnUse" gradientTransform="matrix(-413.84,706.326,-706.326,-413.84,1277.39,1132.53)"><stop offset="0" style="stop-color:#001be9;stop-opacity:1"/><stop offset="1" style="stop-color:#060065;stop-opacity:1"/></linearGradient><linearGradient id="_Linear3" x1="0" y1="0" x2="1" y2="0" gradientUnits="userSpaceOnUse" gradientTransform="matrix(-413.84,706.329,-706.329,-413.84,1353.15,1176.92)"><stop offset="0" style="stop-color:#001be9;stop-opacity:1"/><stop offset="1" style="stop-color:#060065;stop-opacity:1"/></linearGradient><linearGradient id="_Linear4" x1="0" y1="0" x2="1" y2="0" gradientUnits="userSpaceOnUse" gradientTransform="matrix(-544.527,759.226,-759.226,-544.527,1416.86,1351.04)"><stop offset="0" style="stop-color:#001be9;stop-opacity:1"/><stop offset="1" style="stop-color:#060065;stop-opacity:1"/></linearGradient><linearGradient id="_Linear5" x1="0" y1="0" x2="1" y2="0" gradientUnits="userSpaceOnUse" gradientTransform="matrix(-413.84,706.329,-706.329,-413.84,1493.45,574.628)"><stop offset="0" style="stop-color:#001be9;stop-opacity:1"/><stop offset="1" style="stop-color:#060065;stop-opacity:1"/></linearGradient><linearGradient id="_Linear6" x1="0" y1="0" x2="1" y2="0" gradientUnits="userSpaceOnUse" gradientTransform="matrix(-522.745,687.659,-687.659,-522.745,1638.29,28.7216)"><stop offset="0" style="stop-color:#08005d;stop-opacity:1"/><stop offset="1" style="stop-color:#1a0e90;stop-opacity:1"/></linearGradient><linearGradient id="_Linear7" x1="0" y1="0" x2="1" y2="0" gradientUnits="userSpaceOnUse" gradientTransform="matrix(-522.745,687.659,-687.659,-522.745,1695.63,72.3096)"><stop offset="0" style="stop-color:#08005d;stop-opacity:1"/><stop offset="1" style="stop-color:#1a0e90;stop-opacity:1"/></linearGradient><linearGradient id="_Linear8" x1="0" y1="0" x2="1" y2="0" gradientUnits="userSpaceOnUse" gradientTransform="matrix(934.22,-1130.48,1130.48,934.22,2265.01,1415.73)"><stop offset="0" style="stop-color:#08005d;stop-opacity:1"/><stop offset="1" style="stop-color:#1a0e90;stop-opacity:1"/></linearGradient><linearGradient id="_Linear9" x1="0" y1="0" x2="1" y2="0" gradientUnits="userSpaceOnUse" gradientTransform="matrix(64.051,183.004,-183.004,64.051,1713.27,1111.47)"><stop offset="0" style="stop-color:#fdbaba;stop-opacity:1"/><stop offset="1" style="stop-color:#ff918e;stop-opacity:1"/></linearGradient><linearGradient id="_Linear10" x1="0" y1="0" x2="1" y2="0" gradientUnits="userSpaceOnUse" gradientTransform="matrix(-48.2468,-97.3251,97.3251,-48.2468,1762.48,1228.39)"><stop offset="0" style="stop-color:#fdbaba;stop-opacity:1"/><stop offset="1" style="stop-color:#ff918e;stop-opacity:1"/></linearGradient><linearGradient id="_Linear11" x1="0" y1="0" x2="1" y2="0" gradientUnits="userSpaceOnUse" gradientTransform="matrix(408.701,-444.553,444.553,408.701,1941.61,2222.47)"><stop offset="0" style="stop-color:#08005d;stop-opacity:1"/><stop offset="1" style="stop-color:#1a0e90;stop-opacity:1"/></linearGradient><linearGradient id="_Linear12" x1="0" y1="0" x2="1" y2="0" gradientUnits="userSpaceOnUse" gradientTransform="matrix(-36.3027,4.4458e-15,-4.4458e-15,-36.3027,2074.27,2255.49)"><stop offset="0" style="stop-color:#fdbaba;stop-opacity:1"/><stop offset="1" style="stop-color:#ff918e;stop-opacity:1"/></linearGradient><linearGradient id="_Linear13" x1="0" y1="0" x2="1" y2="0" gradientUnits="userSpaceOnUse" gradientTransform="matrix(-2080.4,2339.46,-2339.46,-2080.4,3580.04,286.546)"><stop offset="0" style="stop-color:#08005d;stop-opacity:1"/><stop offset="1" style="stop-color:#1a0e90;stop-opacity:1"/></linearGradient><linearGradient id="_Linear14" x1="0" y1="0" x2="1" y2="0" gradientUnits="userSpaceOnUse" gradientTransform="matrix(408.697,-444.549,444.549,408.697,2033.3,2138.18)"><stop offset="0" style="stop-color:#08005d;stop-opacity:1"/><stop offset="1" style="stop-color:#1a0e90;stop-opacity:1"/></linearGradient><linearGradient id="_Linear15" x1="0" y1="0" x2="1" y2="0" gradientUnits="userSpaceOnUse" gradientTransform="matrix(-31.3442,3.83856e-15,-3.83856e-15,-31.3442,2205.11,2253.62)"><stop offset="0" style="stop-color:#fdbaba;stop-opacity:1"/><stop offset="1" style="stop-color:#ff918e;stop-opacity:1"/></linearGradient><linearGradient id="_Linear16" x1="0" y1="0" x2="1" y2="0" gradientUnits="userSpaceOnUse" gradientTransform="matrix(-2080.4,2339.46,-2339.46,-2080.4,3610.97,314.054)"><stop offset="0" style="stop-color:#08005d;stop-opacity:1"/><stop offset="1" style="stop-color:#1a0e90;stop-opacity:1"/></linearGradient><linearGradient id="_Linear17" x1="0" y1="0" x2="1" y2="0" gradientUnits="userSpaceOnUse" gradientTransform="matrix(-345.39,1051.87,-1051.87,-345.39,2424.37,455.452)"><stop offset="0" style="stop-color:#001be9;stop-opacity:1"/><stop offset="1" style="stop-color:#060065;stop-opacity:1"/></linearGradient><linearGradient id="_Linear18" x1="0" y1="0" x2="1" y2="0" gradientUnits="userSpaceOnUse" gradientTransform="matrix(64.0514,183.005,-183.005,64.0514,1768.02,1092.31)"><stop offset="0" style="stop-color:#fdbaba;stop-opacity:1"/><stop offset="1" style="stop-color:#ff918e;stop-opacity:1"/></linearGradient><linearGradient id="_Linear19" x1="0" y1="0" x2="1" y2="0" gradientUnits="userSpaceOnUse" gradientTransform="matrix(-345.39,1051.87,-1051.87,-345.39,2580.54,506.734)"><stop offset="0" style="stop-color:#001be9;stop-opacity:1"/><stop offset="1" style="stop-color:#060065;stop-opacity:1"/></linearGradient><linearGradient id="_Linear20" x1="0" y1="0" x2="1" y2="0" gradientUnits="userSpaceOnUse" gradientTransform="matrix(-92.7951,1.13641e-14,-1.13641e-14,-92.7951,2150.5,1320.19)"><stop offset="0" style="stop-color:#fdbaba;stop-opacity:1"/><stop offset="1" style="stop-color:#ff918e;stop-opacity:1"/></linearGradient><linearGradient id="_Linear21" x1="0" y1="0" x2="1" y2="0" gradientUnits="userSpaceOnUse" gradientTransform="matrix(102.028,62.2299,-62.2299,102.028,2035.63,1261.15)"><stop offset="0" style="stop-color:#fdbaba;stop-opacity:1"/><stop offset="1" style="stop-color:#ff918e;stop-opacity:1"/></linearGradient><linearGradient id="_Linear22" x1="0" y1="0" x2="1" y2="0" gradientUnits="userSpaceOnUse" gradientTransform="matrix(-131.809,-104.107,104.107,-131.809,2191.67,1133.32)"><stop offset="0" style="stop-color:#08005d;stop-opacity:1"/><stop offset="1" style="stop-color:#1a0e90;stop-opacity:1"/></linearGradient><linearGradient id="_Linear23" x1="0" y1="0" x2="1" y2="0" gradientUnits="userSpaceOnUse" gradientTransform="matrix(91.7968,55.9893,-55.9893,91.7968,2062.44,1284.36)"><stop offset="0" style="stop-color:#fdbaba;stop-opacity:1"/><stop offset="1" style="stop-color:#ff918e;stop-opacity:1"/></linearGradient><linearGradient id="_Linear24" x1="0" y1="0" x2="1" y2="0" gradientUnits="userSpaceOnUse" gradientTransform="matrix(75.4407,541.803,-541.803,75.4407,2228.2,2002.48)"><stop offset="0" style="stop-color:#fdbaba;stop-opacity:1"/><stop offset="1" style="stop-color:#ff918e;stop-opacity:1"/></linearGradient><linearGradient id="_Linear25" x1="0" y1="0" x2="1" y2="0" gradientUnits="userSpaceOnUse" gradientTransform="matrix(60.2017,432.36,-432.36,60.2017,2237.19,1950.36)"><stop offset="0" style="stop-color:#fdbaba;stop-opacity:1"/><stop offset="1" style="stop-color:#ff918e;stop-opacity:1"/></linearGradient></defs></svg>