<?xml version="1.0" encoding="UTF-8" standalone="no"?><!DOCTYPE svg PUBLIC "-//W3C//DTD SVG 1.1//EN" "http://www.w3.org/Graphics/SVG/1.1/DTD/svg11.dtd"><svg width="100%" height="100%" viewBox="0 0 554 455" version="1.1" xmlns="http://www.w3.org/2000/svg" xmlns:xlink="http://www.w3.org/1999/xlink" xml:space="preserve" xmlns:serif="http://www.serif.com/" style="fill-rule:evenodd;clip-rule:evenodd;stroke-linejoin:round;stroke-miterlimit:2;"><g id="OBJECTS"><g><g><path d="M495.9,282.1c10.9,-10.9 28.7,-10.9 39.7,0c10.9,10.9 10.9,28.7 0,39.7c-10.9,10.9 -28.7,10.9 -39.7,0c-11,-11 -11,-28.8 -0,-39.7Z" style="fill:#2ca5ff;fill-opacity:0.07;"/><path d="M23.8,75.8c16.7,-16.7 43.8,-16.7 60.6,0c16.7,16.7 16.7,43.8 0,60.6c-16.7,16.7 -43.8,16.7 -60.6,0c-16.7,-16.7 -16.7,-43.9 -0,-60.6Z" style="fill:#2ca5ff;fill-opacity:0.07;"/><circle cx="202.1" cy="42.6" r="22.3" style="fill:#2ca5ff;fill-opacity:0.07;"/><path d="M170.1,53.7c-1.4,-0 -2.8,-0.1 -4.1,-0.3l0.1,-0.9c1.3,0.2 2.7,0.3 4,0.3l0.2,-0l0,0.9l-0.2,-0Zm4.5,-0.4l-0.1,-0.9c1.4,-0.2 2.7,-0.6 4,-1l0.3,0.8c-1.4,0.5 -2.8,0.8 -4.2,1.1Zm-12.8,-1c-1.4,-0.4 -2.7,-1 -4,-1.7l0.4,-0.7c1.2,0.6 2.5,1.2 3.8,1.6l-0.2,0.8Zm20.9,-1.8l-0.4,-0.7c1.2,-0.6 2.4,-1.4 3.5,-2.2l0.5,0.7c-1.1,0.8 -2.3,1.5 -3.6,2.2Zm-28.5,-2.1c-1.2,-0.9 -2.2,-1.8 -3.3,-2.8l0.6,-0.6c1,1 2,1.9 3.2,2.8c-0,-0.1 -0.5,0.6 -0.5,0.6Zm35.4,-3.1l-0.6,-0.6c1,-1 1.8,-2.1 2.6,-3.3l0.7,0.5c-0.8,1.2 -1.7,2.4 -2.7,3.4Zm-41.4,-3.1c-0.8,-1.2 -1.6,-2.4 -2.2,-3.7l0.8,-0.4c0.6,1.3 1.3,2.5 2.1,3.6l-0.7,0.5Zm46.2,-4l-0.8,-0.4c0.6,-1.3 1.1,-2.6 1.5,-3.9l0.8,0.2c-0.3,1.5 -0.8,2.8 -1.5,4.1Zm-50,-3.7c-0.4,-1.4 -0.7,-2.8 -0.9,-4.2l0.9,-0.1c0.2,1.4 0.5,2.8 0.9,4.1l-0.9,0.2Zm52.4,-4.6l-0.9,-0.1c0.1,-1 0.2,-2 0.2,-3l-0,-1.2l0.9,0l-0,1.2c-0,1 -0.1,2.1 -0.2,3.1Zm-52.7,-3.9l-0.9,0c-0,-1.4 0.2,-2.9 0.5,-4.3l0.9,0.2c-0.3,1.3 -0.4,2.7 -0.5,4.1Zm51.5,-4.5c-0.3,-1.4 -0.7,-2.7 -1.2,-4l0.8,-0.3c0.5,1.4 0.9,2.8 1.2,4.1l-0.8,0.2Zm-49.8,-3.7l-0.8,-0.3c0.5,-1.4 1.1,-2.7 1.8,-3.9l0.7,0.4c-0.7,1.2 -1.2,2.5 -1.7,3.8Zm48.5,-0.5c-0.5,-1.3 -1.1,-2.6 -1.8,-3.7l0.7,-0.4c0.7,1.2 1.4,2.6 1.9,3.9l-0.8,0.2Zm-44.4,-6.7l-0.7,-0.5c0.9,-1.1 1.9,-2.2 3,-3.1l0.6,0.6c-1.1,0.9 -2.1,1.9 -2.9,3Zm40.2,-0.4c-0.9,-1.1 -1.9,-2.1 -2.9,-3l0.5,-0.6c1.1,1 2.1,2 3,3.1l-0.6,0.5Zm-34.1,-5.2l-0.5,-0.7c1.2,-0.8 2.5,-1.5 3.8,-2l0.3,0.8c-1.2,0.5 -2.4,1.1 -3.6,1.9Zm27.8,-0.3c-1.2,-0.7 -2.4,-1.4 -3.7,-1.9l0.3,-0.8c1.3,0.5 2.6,1.2 3.8,2l-0.4,0.7Zm-20.1,-3l-0.2,-0.8c1.4,-0.4 2.8,-0.6 4.3,-0.7l0.1,0.9c-1.5,-0.1 -2.9,0.2 -4.2,0.6Zm12.4,-0.2c-1.4,-0.3 -2.8,-0.5 -4.1,-0.6l0.1,-0.9c1.4,0.1 2.9,0.3 4.3,0.6c-0.1,0.1 -0.3,0.9 -0.3,0.9Z" style="fill:#2ca5ff;fill-opacity:0.17;fill-rule:nonzero;"/><path d="M438,350.8l0,-0.9c1.4,-0 2.8,-0.1 4.2,-0.2l0.1,0.9c-1.5,0.1 -2.9,0.2 -4.3,0.2Zm-4.3,-0c-1.4,-0 -2.9,-0.1 -4.3,-0.2l0.1,-0.9c1.4,0.1 2.8,0.2 4.2,0.2l0,0.9Zm12.8,-0.6l-0.1,-0.9c1.4,-0.2 2.8,-0.3 4.2,-0.6l0.1,0.9c-1.4,0.3 -2.8,0.5 -4.2,0.6Zm-21.3,-0.1c-1.4,-0.2 -2.8,-0.4 -4.2,-0.6l0.1,-0.9c1.4,0.2 2.8,0.4 4.2,0.6l-0.1,0.9Zm29.7,-1.2l-0.2,-0.8c1.4,-0.3 2.8,-0.6 4.1,-1l0.2,0.8c-1.3,0.4 -2.7,0.7 -4.1,1Zm-38.1,-0.2c-1.4,-0.3 -2.8,-0.6 -4.1,-1l0.2,-0.8c1.4,0.4 2.7,0.7 4.1,1l-0.2,0.8Zm46.4,-1.9l-0.2,-0.8c1.3,-0.4 2.7,-0.9 4,-1.4l0.3,0.8c-1.4,0.5 -2.7,1 -4.1,1.4Zm-54.6,-0.3c-1.4,-0.4 -2.7,-0.9 -4,-1.4l0.3,-0.8c1.3,0.5 2.7,1 4,1.4l-0.3,0.8Zm62.6,-2.6l-0.3,-0.8c1.3,-0.5 2.6,-1.1 3.8,-1.7l0.4,0.8c-1.3,0.6 -2.6,1.1 -3.9,1.7Zm-70.7,-0.5c-1.3,-0.6 -2.6,-1.2 -3.9,-1.8l0.4,-0.7c1.3,0.6 2.6,1.2 3.8,1.8l-0.3,0.7Zm78.4,-3.2l-0.4,-0.7c1.2,-0.6 2.5,-1.4 3.7,-2.1l0.4,0.7c-1.2,0.8 -2.4,1.5 -3.7,2.1Zm-86.1,-0.5c-1.3,-0.7 -2.5,-1.4 -3.7,-2.1l0.4,-0.7c1.2,0.7 2.4,1.5 3.7,2.1l-0.4,0.7Zm93.5,-3.8l-0.5,-0.7c1.2,-0.8 2.3,-1.6 3.5,-2.4l0.5,0.7c-1.2,0.8 -2.3,1.6 -3.5,2.4Zm-100.7,-0.7c-1.2,-0.8 -2.3,-1.6 -3.5,-2.5l0.5,-0.7c1.1,0.9 2.3,1.7 3.4,2.4l-0.4,0.8Zm107.5,-4.3l-0.5,-0.6c1.1,-0.9 2.2,-1.8 3.2,-2.7l0.6,0.6c-1.1,0.9 -2.1,1.8 -3.3,2.7Zm-114.4,-0.8c-1.1,-0.9 -2.2,-1.8 -3.2,-2.8l0.6,-0.6c1.1,1 2.1,1.9 3.2,2.8l-0.6,0.6Zm120.8,-4.9l-0.6,-0.6c1,-1 2,-2 3,-3l0.6,0.6c-0.9,1 -1.9,2 -3,3Zm-127.1,-0.8c-1,-1 -2,-2 -3,-3.1l0.6,-0.6c1,1 1.9,2.1 2.9,3.1l-0.5,0.6Zm133,-5.4l-0.6,-0.5c0.9,-1.1 1.8,-2.2 2.7,-3.3l0.7,0.5c-1,1.1 -1.9,2.2 -2.8,3.3Zm-138.8,-0.9c-0.9,-1.1 -1.8,-2.2 -2.7,-3.3l0.7,-0.5c0.9,1.1 1.7,2.2 2.6,3.3l-0.6,0.5Zm144,-5.9l-0.7,-0.5c0.8,-1.2 1.6,-2.3 2.3,-3.5l0.7,0.4c-0.6,1.3 -1.5,2.5 -2.3,3.6Zm-149.1,-0.9c-0.8,-1.2 -1.6,-2.4 -2.3,-3.6l0.7,-0.4c0.7,1.2 1.5,2.4 2.3,3.5l-0.7,0.5Zm153.7,-6.3l-0.7,-0.4c0.7,-1.2 1.4,-2.5 2,-3.7l0.7,0.4c-0.6,1.2 -1.3,2.5 -2,3.7Zm-158.2,-1c-0.7,-1.2 -1.4,-2.5 -2,-3.8l0.7,-0.4c0.6,1.3 1.3,2.5 2,3.7l-0.7,0.5Zm162.1,-6.6l-0.8,-0.3c0.6,-1.3 1.1,-2.6 1.7,-3.9l0.8,0.3c-0.6,1.3 -1.1,2.6 -1.7,3.9Zm-165.9,-1c-0.6,-1.3 -1.1,-2.6 -1.6,-3.9l0.8,-0.3c0.5,1.3 1,2.6 1.6,3.9l-0.8,0.3Zm169,-7l-0.8,-0.3c0.4,-1.3 0.9,-2.7 1.3,-4l0.8,0.2c-0.4,1.4 -0.8,2.8 -1.3,4.1Zm-172,-1c-0.4,-1.4 -0.9,-2.7 -1.2,-4.1l0.8,-0.2c0.4,1.4 0.8,2.7 1.2,4l-0.8,0.3Zm174.4,-7.2l-0.8,-0.2c0.3,-1.4 0.6,-2.8 0.9,-4.1l0.9,0.2c-0.4,1.4 -0.7,2.8 -1,4.1Zm-176.7,-1c-0.3,-1.4 -0.6,-2.8 -0.9,-4.2l0.9,-0.1c0.2,1.4 0.5,2.8 0.9,4.1l-0.9,0.2Zm178.3,-7.3l-0.9,-0.1c0.2,-1.4 0.4,-2.8 0.5,-4.2l0.9,0.1c-0.1,1.4 -0.3,2.8 -0.5,4.2Zm-179.8,-1.1c-0.2,-1.4 -0.3,-2.8 -0.4,-4.3l0.9,-0.1c0.1,1.4 0.3,2.8 0.4,4.2l-0.9,0.2Zm180.6,-7.4l-0.9,0c0.1,-1.4 0.1,-2.8 0.1,-4.2l0.9,0c0,1.3 0,2.7 -0.1,4.2Zm-181.3,-1.1c0,-1.1 -0.1,-2.1 -0.1,-3.2l0,-1.1l0.9,0l0,1.1c0,1.1 0,2.1 0.1,3.2l-0.9,0Zm180.5,-5.3c0,-1.4 -0.1,-2.8 -0.2,-4.2l0.9,-0.1c0.1,1.4 0.2,2.9 0.2,4.3l-0.9,0Zm-179.5,-3.2l-0.9,0c0.1,-1.4 0.2,-2.9 0.3,-4.3l0.9,0.1c-0.1,1.4 -0.2,2.8 -0.3,4.2Zm178.9,-5.2c-0.2,-1.4 -0.4,-2.8 -0.6,-4.2l0.9,-0.1c0.2,1.4 0.4,2.8 0.6,4.2l-0.9,0.1Zm-178,-3.2l-0.9,-0.1c0.2,-1.4 0.5,-2.8 0.7,-4.2l0.9,0.2c-0.3,1.3 -0.5,2.7 -0.7,4.1Zm176.7,-5.2c-0.3,-1.4 -0.6,-2.8 -1,-4.1l0.8,-0.2c0.4,1.4 0.7,2.8 1,4.1l-0.8,0.2Zm-175.1,-3.1l-0.8,-0.2c0.3,-1.4 0.7,-2.8 1.2,-4.1l0.8,0.2c-0.4,1.4 -0.8,2.8 -1.2,4.1Zm172.9,-5.1c-0.4,-1.3 -0.9,-2.7 -1.4,-4l0.8,-0.3c0.5,1.3 1,2.7 1.4,4l-0.8,0.3Zm-170.4,-3l-0.8,-0.3c0.5,-1.3 1,-2.7 1.5,-4l0.8,0.3c-0.5,1.3 -1,2.7 -1.5,4Zm167.5,-4.9c-0.5,-1.3 -1.1,-2.6 -1.7,-3.8l0.8,-0.4c0.6,1.3 1.2,2.6 1.8,3.9l-0.9,0.3Zm-164.3,-2.9l-0.8,-0.4c0.6,-1.3 1.2,-2.6 1.9,-3.8l0.7,0.4c-0.6,1.2 -1.2,2.5 -1.8,3.8Zm160.6,-4.7c-0.6,-1.2 -1.4,-2.4 -2.1,-3.7l0.7,-0.4c0.7,1.2 1.4,2.4 2.1,3.7l-0.7,0.4Zm-156.7,-2.8l-0.7,-0.4c0.7,-1.2 1.5,-2.4 2.2,-3.6l0.7,0.5c-0.7,1 -1.4,2.3 -2.2,3.5Zm152.4,-4.4c-0.8,-1.2 -1.6,-2.3 -2.4,-3.5l0.7,-0.5c0.9,1.2 1.7,2.3 2.4,3.5l-0.7,0.5Zm-147.7,-2.7l-0.7,-0.5c0.8,-1.2 1.7,-2.3 2.6,-3.4l0.7,0.5c-0.9,1.1 -1.8,2.3 -2.6,3.4Zm142.7,-4.1c-0.9,-1.1 -1.8,-2.2 -2.8,-3.2l0.6,-0.6c1,1.1 1.9,2.1 2.8,3.3l-0.6,0.5Zm-137.5,-2.6l-0.6,-0.5c0.9,-1.1 1.9,-2.1 2.9,-3.2l0.6,0.6c-1,1 -1.9,2.1 -2.9,3.1Zm131.9,-3.7c-1,-1 -2,-2 -3,-3l0.6,-0.6c1,1 2.1,2 3.1,3l-0.7,0.6Zm-126,-2.3l-0.6,-0.6c1,-1 2.1,-1.9 3.2,-2.9l0.5,0.6c-1,0.9 -2.1,1.9 -3.1,2.9Zm119.7,-3.5c-1.1,-0.9 -2.2,-1.8 -3.3,-2.7l0.5,-0.7c1.1,0.9 2.2,1.8 3.3,2.7l-0.5,0.7Zm-113.3,-2.1l-0.5,-0.7c1.1,-0.9 2.3,-1.7 3.4,-2.6l0.5,0.7c-1.1,0.9 -2.3,1.8 -3.4,2.6Zm106.6,-3c-1.2,-0.8 -2.3,-1.6 -3.5,-2.3l0.4,-0.7c1.2,0.7 2.4,1.5 3.6,2.3l-0.5,0.7Zm-99.7,-1.8l-0.5,-0.7c1.2,-0.7 2.4,-1.5 3.6,-2.2l0.4,0.7c-1.1,0.7 -2.3,1.4 -3.5,2.2Zm92.6,-2.7c-1.2,-0.7 -2.5,-1.4 -3.7,-2l0.4,-0.7c1.3,0.6 2.6,1.3 3.8,2l-0.5,0.7Zm-85.3,-1.6l-0.4,-0.7c1.3,-0.6 2.6,-1.3 3.8,-1.9l0.3,0.8c-1.2,0.5 -2.4,1.2 -3.7,1.8Zm77.7,-2.2c-1.3,-0.6 -2.6,-1.1 -3.9,-1.6l0.3,-0.8c1.3,0.5 2.7,1.1 3.9,1.6l-0.3,0.8Zm-70,-1.3l-0.3,-0.8c1.3,-0.5 2.7,-1 4,-1.5l0.3,0.8c-1.4,0.5 -2.7,1 -4,1.5Zm62.1,-1.8c-1.3,-0.4 -2.7,-0.9 -4,-1.3l0.2,-0.8c1.4,0.4 2.7,0.8 4.1,1.3l-0.3,0.8Zm-54.1,-1l-0.2,-0.8c1.4,-0.4 2.8,-0.8 4.1,-1.1l0.2,0.8c-1.4,0.4 -2.8,0.7 -4.1,1.1Zm45.9,-1.3c-1.4,-0.3 -2.8,-0.6 -4.1,-0.9l0.2,-0.9c1.4,0.3 2.8,0.5 4.2,0.9l-0.3,0.9Zm-37.7,-0.7l-0.2,-0.9c1.4,-0.3 2.8,-0.5 4.2,-0.7l0.1,0.9c-1.3,0.2 -2.7,0.4 -4.1,0.7Zm29.5,-0.8c-1.4,-0.2 -2.8,-0.3 -4.2,-0.5l0.1,-0.9c1.4,0.1 2.8,0.3 4.3,0.5l-0.2,0.9Zm-21.2,-0.4l-0.1,-0.9c1.4,-0.1 2.8,-0.2 4.3,-0.3l0,0.9c-1.3,-0 -2.8,0.1 -4.2,0.3Zm12.7,-0.4c-1.2,0 -2.5,-0.1 -3.7,-0.1l-0.5,-0l0,-0.9l0.5,0c1.3,0 2.5,0 3.8,0.1l-0.1,0.9Z" style="fill:#2ca5ff;fill-opacity:0.17;fill-rule:nonzero;"/><path d="M68.4,251.3c-1.4,0 -2.9,-0.1 -4.3,-0.2l0.1,-0.9c1.4,0.1 2.8,0.2 4.2,0.2l0,0.9Zm4.3,-0.1l-0.1,-0.9c1.4,-0.1 2.8,-0.2 4.2,-0.4l0.1,0.9c-1.4,0.2 -2.8,0.3 -4.2,0.4Zm-12.8,-0.5c-1.4,-0.2 -2.8,-0.5 -4.2,-0.8l0.2,-0.8c1.4,0.3 2.8,0.6 4.1,0.8l-0.1,0.8Zm21.2,-0.6l-0.2,-0.8c1.4,-0.3 2.8,-0.6 4.1,-1l0.2,0.8c-1.3,0.3 -2.7,0.6 -4.1,1Zm-29.6,-1.3c-1.4,-0.4 -2.7,-0.9 -4,-1.4l0.3,-0.8c1.3,0.5 2.7,1 4,1.4l-0.3,0.8Zm37.9,-1.1l-0.3,-0.8c1.3,-0.5 2.6,-1 3.9,-1.6l0.3,0.8c-1.3,0.6 -2.6,1.1 -3.9,1.6Zm-45.9,-1.9c-1.3,-0.6 -2.6,-1.3 -3.8,-1.9l0.4,-0.7c1.2,0.7 2.5,1.3 3.8,1.9l-0.4,0.7Zm53.6,-1.6l-0.4,-0.7c1.2,-0.7 2.4,-1.4 3.6,-2.1l0.4,0.7c-1.1,0.6 -2.3,1.4 -3.6,2.1Zm-61.1,-2.6c-1.2,-0.8 -2.3,-1.6 -3.5,-2.5l0.5,-0.7c1.1,0.9 2.3,1.7 3.4,2.4c0.1,0.1 -0.4,0.8 -0.4,0.8Zm68.4,-2.1l-0.5,-0.7c1.1,-0.9 2.2,-1.7 3.3,-2.7l0.5,0.6c-1.1,1.1 -2.2,2 -3.3,2.8Zm-75.2,-3.1c-1.1,-1 -2.1,-1.9 -3.1,-3l0.6,-0.6c1,1 2,2 3.1,2.9l-0.6,0.7Zm81.6,-2.4l-0.6,-0.6c1,-1 2,-2 2.9,-3.1l0.6,0.5c-0.9,1.1 -1.9,2.2 -2.9,3.2Zm-87.6,-3.7c-0.9,-1.1 -1.8,-2.2 -2.7,-3.4l0.7,-0.5c0.8,1.1 1.7,2.2 2.6,3.3c0.1,-0 -0.6,0.6 -0.6,0.6Zm93.3,-2.8l-0.7,-0.5c0.9,-1.1 1.7,-2.3 2.4,-3.5l0.7,0.5c-0.8,1.2 -1.6,2.4 -2.4,3.5Zm-98.3,-4.1c-0.7,-1.2 -1.5,-2.4 -2.1,-3.7l0.7,-0.4c0.6,1.2 1.4,2.4 2.1,3.6l-0.7,0.5Zm102.9,-3l-0.7,-0.4c0.7,-1.2 1.3,-2.5 1.9,-3.8l0.8,0.3c-0.7,1.3 -1.3,2.6 -2,3.9Zm-107,-4.5c-0.6,-1.3 -1.1,-2.6 -1.6,-4l0.8,-0.3c0.5,1.3 1,2.6 1.6,3.9l-0.8,0.4Zm110.6,-3.3l-0.8,-0.3c0.5,-1.3 1,-2.7 1.3,-4l0.8,0.2c-0.4,1.4 -0.8,2.8 -1.3,4.1Zm-113.5,-4.8c-0.4,-1.4 -0.7,-2.8 -1,-4.1l0.8,-0.2c0.3,1.4 0.6,2.8 1,4.1l-0.8,0.2Zm115.9,-3.5l-0.8,-0.2c0.3,-1.4 0.5,-2.8 0.7,-4.1l0.9,0.1c-0.3,1.5 -0.5,2.9 -0.8,4.2Zm-117.6,-4.9c-0.2,-1.4 -0.3,-2.8 -0.4,-4.3l0.9,-0c0.1,1.4 0.2,2.8 0.4,4.2l-0.9,0.1Zm118.8,-3.5l-0.9,-0.1c0.1,-1.4 0.1,-2.8 0.1,-4.2l0.9,-0c0.1,1.5 0,2.9 -0.1,4.3Zm-118.4,-5l-0.9,-0c-0,-1.4 0.1,-2.9 0.2,-4.3l0.9,0.1c-0.2,1.4 -0.2,2.8 -0.2,4.2Zm117.6,-2.1c-0.1,-1.4 -0.2,-2.8 -0.3,-4.2l0.9,-0.1c0.2,1.4 0.3,2.9 0.3,4.3l-0.9,-0Zm-116.9,-6.3l-0.9,-0.1c0.2,-1.4 0.5,-2.8 0.8,-4.2l0.8,0.2c-0.3,1.4 -0.5,2.8 -0.7,4.1Zm115.9,-2.1c-0.3,-1.4 -0.6,-2.8 -1,-4.1l0.8,-0.2c0.4,1.4 0.7,2.8 1,4.2l-0.8,0.1Zm-114,-6.1l-0.8,-0.2c0.4,-1.4 0.9,-2.7 1.4,-4l0.8,0.3c-0.6,1.2 -1,2.6 -1.4,3.9Zm111.8,-2c-0.5,-1.3 -1,-2.7 -1.5,-3.9l0.8,-0.3c0.6,1.3 1.1,2.7 1.6,4l-0.9,0.2Zm-108.8,-5.9l-0.8,-0.4c0.6,-1.3 1.3,-2.6 2,-3.8l0.7,0.4c-0.7,1.3 -1.3,2.6 -1.9,3.8Zm105.5,-1.8c-0.6,-1.3 -1.3,-2.5 -2.1,-3.7l0.7,-0.4c0.7,1.2 1.5,2.4 2.1,3.7l-0.7,0.4Zm-101.3,-5.5l-0.7,-0.5c0.8,-1.2 1.6,-2.3 2.5,-3.5l0.7,0.5c-0.9,1.2 -1.8,2.3 -2.5,3.5Zm96.9,-1.8c-0.8,-1.1 -1.7,-2.2 -2.6,-3.3l0.6,-0.5c0.9,1.1 1.8,2.2 2.6,3.4c0.1,-0 -0.6,0.4 -0.6,0.4Zm-91.8,-4.9l-0.6,-0.6c1,-1.1 1.9,-2.1 3,-3.1l0.6,0.6c-1.1,1 -2,2.1 -3,3.1Zm86.4,-1.5c-1,-1 -2,-2 -3,-2.9l0.6,-0.6c1.1,1 2.1,2 3.1,3l-0.7,0.5Zm-80.3,-4.4l-0.5,-0.6c1.1,-0.9 2.2,-1.8 3.4,-2.6l0.5,0.7c-1.2,0.8 -2.4,1.6 -3.4,2.5Zm74.1,-1.3c-1.1,-0.9 -2.2,-1.7 -3.4,-2.5l0.5,-0.7c1.2,0.8 2.3,1.6 3.5,2.5l-0.6,0.7Zm-67.3,-3.6l-0.4,-0.7c1.2,-0.7 2.4,-1.5 3.7,-2.1l0.4,0.7c-1.3,0.6 -2.5,1.4 -3.7,2.1Zm60.3,-1.1c-1.2,-0.7 -2.5,-1.4 -3.7,-2l0.4,-0.8c1.3,0.6 2.6,1.3 3.8,2l-0.5,0.8Zm-52.9,-2.8l-0.3,-0.8c1.3,-0.6 2.7,-1.1 4,-1.6l0.3,0.8c-1.4,0.5 -2.7,1 -4,1.6Zm45.2,-0.9c-1.3,-0.5 -2.7,-1 -4,-1.4l0.2,-0.8c1.4,0.4 2.7,0.9 4,1.4c0.1,0.1 -0.2,0.8 -0.2,0.8Zm-37.2,-1.9l-0.2,-0.8c1.4,-0.4 2.8,-0.7 4.1,-1l0.2,0.9c-1.4,0.2 -2.8,0.5 -4.1,0.9Zm29.2,-0.6c-1.4,-0.3 -2.8,-0.6 -4.1,-0.8l0.1,-0.9c1.4,0.2 2.8,0.5 4.2,0.8l-0.2,0.9Zm-20.9,-1.1l-0.1,-0.9c1.4,-0.2 2.9,-0.3 4.3,-0.4l-0,0.9c-1.4,0.1 -2.9,0.2 -4.2,0.4Zm12.6,-0.2c-1.4,-0.1 -2.8,-0.2 -4.2,-0.2l-0,-0.9c1.4,0 2.9,0.1 4.3,0.2l-0.1,0.9Z" style="fill:#2ca5ff;fill-opacity:0.17;fill-rule:nonzero;"/><path d="M307.9,48.5c-7.9,0 -14.4,-6.4 -14.4,-14.4c-0,-7.9 6.4,-14.4 14.4,-14.4c7.9,-0 14.4,6.4 14.4,14.4c-0.1,7.9 -6.6,14.4 -14.4,14.4Zm-0,-28.1c-7.5,0 -13.7,6.2 -13.7,13.7c-0,7.5 6.2,13.7 13.7,13.7c7.5,-0 13.7,-6.2 13.7,-13.7c0,-7.6 -6.2,-13.7 -13.7,-13.7Z" style="fill:#2ca5ff;fill-opacity:0.17;fill-rule:nonzero;"/></g><g><g><g><path d="M484,87l0,258.5c0,5.4 -4.4,9.7 -9.7,9.7l-375.7,0c-5.4,0 -9.7,-4.4 -9.7,-9.7l-0,-258.5c-0,-5.4 4.4,-9.8 9.7,-9.8l375.7,-0c5.4,-0 9.7,4.4 9.7,9.8Z" style="fill:#fff;fill-opacity:0.55;fill-rule:nonzero;"/><path d="M474.3,355.7l-375.7,0c-5.6,0 -10.2,-4.6 -10.2,-10.2l-0,-258.5c-0,-5.6 4.6,-10.2 10.2,-10.2l375.7,0c5.6,0 10.2,4.6 10.2,10.2l-0,258.5c-0.1,5.6 -4.6,10.2 -10.2,10.2Zm-375.7,-278c-5.1,0 -9.3,4.2 -9.3,9.3l-0,258.5c-0,5.1 4.2,9.3 9.3,9.3l375.7,-0c5.1,-0 9.3,-4.2 9.3,-9.3l-0,-258.5c-0,-5.1 -4.2,-9.3 -9.3,-9.3l-375.7,-0Z" style="fill:#9192ff;fill-rule:nonzero;"/></g><g><path d="M484,87l0,15.3l-395.1,0l0,-15.3c0,-5.4 4.4,-9.8 9.7,-9.8l375.7,-0c5.4,-0 9.7,4.4 9.7,9.8Z" style="fill:#fff;fill-rule:nonzero;"/><path d="M484.5,102.8l-396,0l0,-15.8c0,-5.6 4.6,-10.2 10.2,-10.2l375.7,0c5.6,0 10.2,4.6 10.2,10.2l-0.1,15.8Zm-395.2,-0.9l394.3,-0l0,-14.9c0,-5.1 -4.2,-9.3 -9.3,-9.3l-375.7,0c-5.1,0 -9.3,4.2 -9.3,9.3l0,14.9Z" style="fill:#9192ff;fill-rule:nonzero;"/></g><circle cx="110.8" cy="89.8" r="4.5" style="fill:#3335cf;"/><path d="M128.1,85.3c-2.5,0 -4.5,2 -4.5,4.5c0,2.5 2,4.5 4.5,4.5c2.5,0 4.5,-2 4.5,-4.5c0,-2.5 -2,-4.5 -4.5,-4.5Z" style="fill:#3335cf;fill-rule:nonzero;"/><path d="M145.4,94.3c-2.5,0 -4.5,-2 -4.5,-4.5c0,-2.5 2,-4.5 4.5,-4.5c2.5,0 4.5,2 4.5,4.5c0,2.5 -2,4.5 -4.5,4.5Zm0,-8.2c-2,0 -3.7,1.7 -3.7,3.7c0,2 1.7,3.7 3.7,3.7c2,0 3.7,-1.7 3.7,-3.7c0,-2 -1.7,-3.7 -3.7,-3.7Z" style="fill:#9192ff;fill-rule:nonzero;"/><path d="M257,94.8l-84.3,0c-2.8,0 -5,-2.3 -5,-5c0,-2.8 2.3,-5 5,-5l84.3,0c2.8,0 5,2.3 5,5c0,2.8 -2.3,5 -5,5Zm-84.3,-9.2c-2.3,0 -4.2,1.9 -4.2,4.2c0,2.3 1.9,4.2 4.2,4.2l84.3,0c2.3,0 4.2,-1.9 4.2,-4.2c0,-2.3 -1.9,-4.2 -4.2,-4.2l-84.3,0Z" style="fill:#9192ff;fill-rule:nonzero;"/></g><g><path d="M364.1,222.6c0,40.7 -33,73.7 -73.7,73.7c-40.7,0 -73.7,-33 -73.7,-73.7c0,-38.2 29,-69.6 66.2,-73.4l2.4,24.2c-24.9,2.5 -44.4,23.6 -44.4,49.1c0,27.3 22.1,49.4 49.4,49.4c27.3,0 49.4,-22.1 49.4,-49.4c0,-4.8 -0.7,-9.4 -1.9,-13.7l23.4,-6.7c1.9,6.6 2.9,13.4 2.9,20.5Z" style="fill:#64b0ff;fill-rule:nonzero;"/><circle cx="290.4" cy="222.6" r="59.5" style="fill:#fff;"/><ellipse cx="288.6" cy="222.6" rx="61.4" ry="59.5" style="fill:#379eff;fill-opacity:0.5;"/></g><g><path d="M328.5,197l4.5,2.8l0.2,0.1l-15.2,20.2l-38.6,-21.4l-36.9,42.4l6.9,2.2l31.6,-36.3l38.8,21.6l18.9,-25.1l0.1,0l4.4,2.8l3.9,-20.3l-18.6,11Z" style="fill:#004b7a;fill-rule:nonzero;"/></g><g><g><rect x="392.5" y="26.8" width="160.4" height="98" style="fill:#fff;fill-opacity:0.61;"/><path d="M553.2,125.3l-161.2,0l0,-98.9l161.2,0l0,98.9Zm-160.3,-0.8l159.5,0l-0,-97.2l-159.5,0l-0,97.2Z" style="fill:#9192ff;fill-rule:nonzero;"/></g><g><g><rect x="408.9" y="93.7" width="9.2" height="16.9" style="fill:#379eff;"/><rect x="427.4" y="85.9" width="9.2" height="24.7" style="fill:#379eff;"/><rect x="445.8" y="92.2" width="9.2" height="18.4" style="fill:#379eff;"/><rect x="464.3" y="79.3" width="9.2" height="31.3" style="fill:#379eff;"/><rect x="482.8" y="71.1" width="9.2" height="39.6" style="fill:#379eff;"/><rect x="501.2" y="59.3" width="9.2" height="51.4" style="fill:#379eff;"/><rect x="519.7" y="41.1" width="9.2" height="69.5" style="fill:#379eff;"/></g><g><rect x="408.9" y="49.3" width="7.3" height="8.3" style="fill:#379eff;"/><rect x="427.6" y="53.2" width="49.7" height="2.1" style="fill:#379eff;"/></g></g></g><g><path d="M404.8,174.6l-10.2,-28.1c-11.5,4.1 -19.7,15.1 -19.7,28.1c0,16.5 13.4,29.8 29.8,29.8c16.5,0 29.8,-13.4 29.8,-29.8c0,-5 -1.2,-9.6 -3.4,-13.7l-26.3,13.7Z" style="fill:#379eff;fill-rule:nonzero;"/><path d="M439,150.2c-5,-9.6 -15,-16.1 -26.5,-16.1c-3.6,-0 -7,0.6 -10.2,1.8l10.2,28.1l26.5,-13.8Z" style="fill:#64b0ff;fill-rule:nonzero;"/></g><g><rect x="380.2" y="270.2" width="70.6" height="67.2" style="fill:#bce7ff;"/><rect x="391.2" y="288" width="39.5" height="2.8" style="fill:#fff;"/><rect x="391.2" y="296.5" width="39.5" height="2.8" style="fill:#fff;"/></g><g><rect x="120" y="141.8" width="61.4" height="103.7" style="fill:#c8e6ff;"/><g><rect x="129.4" y="156.8" width="40.2" height="36.8" style="fill:#fff;"/><path d="M129.7,156.5l-0.6,0.6l40.2,36.8l0.6,-0.6l-40.2,-36.8Z" style="fill:#ebebff;"/><path d="M169.3,156.5l-40.2,36.8l0.6,0.6l40.2,-36.8l-0.6,-0.6Z" style="fill:#ebebff;"/></g></g><g><g><rect x="9.1" y="184.2" width="140.4" height="92.5" style="fill:#fff;fill-opacity:0.59;"/><path d="M149.9,277.1l-141.2,0l0,-93.3l141.2,0l-0,93.3Zm-140.3,-0.9l139.5,-0l0,-91.7l-139.5,-0l0,91.7Z" style="fill:#9192ff;fill-rule:nonzero;"/></g><g><g><path d="M51.9,255.6l-18.8,-17.6l-8.8,16.5l-0.7,-0.4l9.3,-17.5l18.6,17.5l12.5,-36.3l23.5,25.8l14.9,-6.1l27.7,-36.2l0.7,0.5l-27.8,36.4l-15.7,6.4l-0.2,-0.2l-22.8,-25l-12.4,36.2Z" style="fill:#379aff;fill-rule:nonzero;"/></g><circle cx="33.1" cy="237.2" r="2.3" style="fill:#2ca5ff;fill-opacity:0.17;"/><circle cx="51.6" cy="254.4" r="2.3" style="fill:#2ca5ff;fill-opacity:0.17;"/><circle cx="64.3" cy="218.7" r="2.3" style="fill:#2ca5ff;fill-opacity:0.17;"/></g><g><path d="M49.6,199.3l59.5,0" style="fill:none;fill-rule:nonzero;"/><rect x="49.6" y="198.9" width="59.5" height="0.9" style="fill:#4eb0ff;"/></g></g></g><g><g><path d="M316,420.7c-2.5,-16.5 1,-33.8 9.6,-48.1c8.6,-14.2 22.4,-25.3 38.2,-30.7c-8.9,6.3 -14.4,16.4 -18.2,26.6c-3.8,10.2 -6.3,20.9 -11,30.8c-4.7,9.9 -12.1,19 -22.4,22.7l3.8,-1.3Z" style="fill:#64b0ff;fill-rule:nonzero;"/><path d="M313.5,420.8c-0.3,-19 -4,-38.1 -10.9,-55.8c-2.4,-6.3 -5.3,-12.6 -10.1,-17.5c-4.7,-4.8 -11.6,-8 -18.3,-6.8c8.3,6.2 12.6,16.4 15,26.5c2.4,10.1 3.4,20.5 6.8,30.3c3.4,9.8 9.9,19.2 19.7,22.7l-2.2,0.6Z" style="fill:#64b0ff;fill-rule:nonzero;"/><path d="M308.5,422c-4.7,-12.8 -9.9,-25.9 -19.5,-35.6c-9.6,-9.7 -24.7,-15.3 -37.1,-9.9c10.1,2.3 19.4,8.2 25.8,16.3c4.7,6 7.9,13.1 12.7,18.9c4.8,5.9 12.2,10.6 19.7,9.2l-1.6,1.1Z" style="fill:#379eff;fill-rule:nonzero;"/><path d="M306.9,421.2c-1.9,-14 -3.9,-28.3 -1.8,-42.3c2,-14 8.7,-28 20.5,-35.7c-6.6,6.4 -8.8,16.2 -8.8,25.4c-0,9.2 1.9,18.3 2,27.5c0.2,9.2 -1.7,19 -7.9,25.7l-4,-0.6Z" style="fill:#379eff;fill-rule:nonzero;"/><path d="M313.5,419.1c4.6,-11.6 9.4,-23.6 18.7,-31.9c6,-5.3 13.5,-8.8 21.4,-9.9c-5.5,4.4 -9,10.9 -11.9,17.4c-2.9,6.5 -5.4,13.3 -9.6,19c-4.2,5.7 -10.4,10.5 -17.5,10.8l-1.1,-5.4Z" style="fill:#379eff;fill-rule:nonzero;"/></g><g><path d="M340.3,454.4l-51,-0l-7.9,-39.3l66.8,0l-7.9,39.3Z" style="fill:#fff;fill-opacity:0.65;fill-rule:nonzero;"/><path d="M340.7,454.8l-51.8,-0l-8.1,-40.1l67.8,-0l-7.9,40.1Zm-51.1,-0.8l50.4,0l7.7,-38.4l-65.8,0l7.7,38.4Z" style="fill:#9192ff;fill-rule:nonzero;"/></g></g><g><g><g><path d="M431.8,430.8l0,23.6l-30.6,-0l14,-11.4l0.7,-14.4l15.9,2.2Z" style="fill:#d1d1ff;fill-rule:nonzero;"/><path d="M415.4,442.6l-0.6,0.6l5.8,5.6l0.6,-0.6l-5.8,-5.6Z" style="fill:#1b1b43;"/><rect x="418.3" y="437" width="10.5" height="0.9" style="fill:#1b1b43;"/></g><g><path d="M467.6,431.9l1.1,22.5l-30.7,-0l12.9,-11.1l-0,-13.7l16.7,2.3Z" style="fill:#d1d1ff;fill-rule:nonzero;"/><path d="M451.2,442.9l-0.6,0.6l4.8,4.2l0.6,-0.6l-4.8,-4.2Z" style="fill:#1b1b43;"/><rect x="454.4" y="437.4" width="10.3" height="0.9" style="fill:#1b1b43;"/></g><path d="M434.8,294.9c0.5,47.1 4.4,93.4 11.9,139l25.8,-0c-5.4,-34.8 -7.8,-77.1 -4.8,-133.2l-18.6,-15.2l-14.3,9.4Z" style="fill:#6fb9ff;fill-rule:nonzero;"/><path d="M414.4,301.2l-11.7,52c-2.8,12.5 -3,25.4 -0.6,38l8.2,42.4l25.8,0l-7.8,-55.7l18.7,-84.9l-32.6,8.2Z" style="fill:#6fb9ff;fill-rule:nonzero;"/><path d="M436.6,351c-0.1,-1.1 -1.5,-25 -1.7,-28l-6.7,-2.4l0.3,-0.8l7.3,2.7l0,0.3c0,0.5 1.1,18.7 1.7,28.2l-0.9,0Z" style="fill:#6fb9ff;fill-rule:nonzero;"/></g><g><path d="M492.5,183.9l1.4,-3.3c0,-0 -5,-10.5 -3.4,-11.9c1.6,-1.4 4.1,2.6 4.1,2.6c0,0 -0.7,-12.8 1.7,-12.9c2.1,-0.1 1.9,3.6 2.1,9.1c0,0 1.3,-1.7 3.6,0.1c1.1,-1.8 3.3,-0.6 3.9,0.5c0.7,-0.9 3.8,-0.6 3.4,3c-0.5,4.6 -2.7,13.1 -2.7,13.1l-6.8,5.6l-7.3,-5.9Z" style="fill:#ffbc96;fill-rule:nonzero;"/><path d="M437.8,227.9l10.3,-0.1c18.1,-1.6 32.3,-16.4 32.3,-16.4l12,-27.5l14.2,0.2l-8.4,32.4c-1.2,4.7 -3.8,8.8 -7.4,12l-29.7,25.8l-23.3,-26.4Z" style="fill:#3335cf;fill-rule:nonzero;"/><path d="M409.5,251.3l4.9,49.9l53.3,-0.5l-1.9,-60.1l-28.1,-12.8l-19.4,8.2l-8.8,15.3Z" style="fill:#3335cf;fill-rule:nonzero;"/><g><path d="M376.5,256.2c-0.9,-0.8 -2,-1.3 -3.1,-1.3c-5.9,-0.5 -24.3,-1.9 -24.1,-0.5c0.2,1.7 14.2,8.1 14.2,8.1c3,3.4 6,6.8 9,10.1l8.2,-12.7l-4.2,-3.7Z" style="fill:#ffbc96;fill-rule:nonzero;"/><path d="M416.7,232.7c-3.8,0.7 -7.1,3.1 -8.8,6.5l-15.7,30.9l-11.5,-10.2l-8.2,12.7c1,1.1 2,2.2 3,3.4c4.5,5 9.7,11.7 16.6,13.2c3.5,0.7 6.8,-0.7 9.4,-3.2c1.9,-1.8 3.5,-4 4.9,-6.2l6.3,-10.3l20,-39.6l-16,2.8Z" style="fill:#3335cf;fill-rule:nonzero;"/></g><path d="M409.9,251.3l-0.8,0.1l3,30.7l0.8,-0.1l-3,-30.7Z" style="fill:#d1d1ff;"/><path d="M466.2,249.8l-5,4.5l5.3,8.8l-0.3,-13.3Z" style="fill:#1b1b43;fill-rule:nonzero;"/><path d="M500.3,173.8c-2,0 -2.2,-2.6 -2.2,-6.3l0.6,0c-0,4.4 0.4,5.7 1.5,5.7c0.2,0 0.4,-0.1 0.6,-0.3c0.6,-0.6 0.8,-2 0.9,-3.3l-0,-2.1l0.6,-0c-0,0.1 0.1,1 -0,2c0.1,1.7 0.4,3.4 1,3.6c0.3,0.1 0.6,0.1 0.9,-0.1c0.7,-0.5 1.1,-1.9 1.3,-3.2c-0,-0.5 0.1,-1.2 0.2,-1.9l0.6,0.1c-0,0.1 -0,0.8 -0.2,1.7c-0,1.3 0.1,2.6 0.6,2.8c0.4,0.2 0.7,0.2 1,0c0.7,-0.4 1,-1.9 1,-2.5l0.6,0c-0,0.1 -0.2,2.3 -1.3,3c-0.4,0.3 -1,0.3 -1.6,0c-0.1,-0.1 -0.6,-0.3 -0.9,-1.3c-0.2,0.7 -0.6,1.3 -1.1,1.7c-0.4,0.3 -0.9,0.4 -1.4,0.2c-0.5,-0.2 -0.9,-0.9 -1.1,-1.8c-0.2,0.5 -0.4,1.1 -0.7,1.4c-0.1,0.5 -0.5,0.6 -0.9,0.6Z" style="fill:#d28572;fill-rule:nonzero;"/></g><g><path d="M433.4,240c-4.5,0.4 -8.5,-3 -8.9,-7.5l-0.1,-1.2l-1.3,-16.1l10,-0.8l6.4,-0.5l1.4,17.2c0.3,4.5 -3,8.5 -7.5,8.9Z" style="fill:#ffbc96;fill-rule:nonzero;"/><path d="M436.3,219.9c-3.1,5.5 -7.5,9.4 -11.9,11.4l-1.3,-16.1l10,-0.8l3.2,5.5Z" style="fill:#1b1b43;fill-rule:nonzero;"/><path d="M439.6,203.1l-2,16.7c0,0 -6.4,6.1 -15.7,5.8c-3.4,-0.1 -5.4,-3.3 -6.6,-7.4c-0.5,-1.7 -0.8,-3.6 -1.1,-5.4c-0.8,-6.2 -0.4,-12.2 -0.4,-12.2l14.5,-4.8l11.3,7.3Z" style="fill:#ffbc96;fill-rule:nonzero;"/><path d="M437.4,210c-1.5,-5.4 -4.2,-8.1 -7.9,-8.6c-11.6,6.3 -19.2,2.6 -24.7,-4.5c13.5,2.6 19.4,-16.5 32.2,-3.7c9.6,2.9 9.4,12 4,19.5l-3.6,-2.7Z" style="fill:#1b1b43;fill-rule:nonzero;"/><g><path d="M435.4,210.5c0.5,-2.5 2.7,-4.2 4.9,-3.8c2.2,0.4 3.6,2.8 3.1,5.3c-0.5,2.5 -2.7,4.2 -4.9,3.8c-2.2,-0.4 -3.6,-2.8 -3.1,-5.3Z" style="fill:#ffbc96;"/><path d="M440.9,209.5c-0.7,0.1 -1.1,0.6 -1.4,1.2c-0.3,0.6 -0.5,1.2 -0.6,1.9l-0.2,-0c-0.1,-0.4 -0.1,-0.8 -0,-1.2c0.1,-0.4 0.2,-0.7 0.4,-1.1c0.2,-0.3 0.4,-0.6 0.8,-0.9c0.3,-0.2 0.8,-0.3 1.2,-0.2l-0.2,0.3Z" style="fill:#1b1b43;fill-rule:nonzero;"/></g><g><path d="M417.2,210.6c0,0.7 -0.3,1.3 -0.8,1.3c-0.4,0 -0.8,-0.6 -0.8,-1.3c0,-0.7 0.3,-1.3 0.8,-1.3c0.5,0 0.8,0.6 0.8,1.3Z" style="fill:#1b1b43;fill-rule:nonzero;"/><path d="M423.7,210.1c0,0.8 -0.4,1.4 -0.9,1.4c-0.5,0 -0.9,-0.6 -0.9,-1.4c0,-0.8 0.4,-1.4 0.9,-1.4c0.5,0 0.9,0.6 0.9,1.4Z" style="fill:#1b1b43;fill-rule:nonzero;"/><path d="M419,211.7c0,0.2 -0.1,0.5 -0.2,0.7c-0.1,0.2 -0.3,0.4 -0.4,0.5c-0.3,0.3 -0.6,0.6 -0.6,1c-0.1,0.3 0,0.6 0.3,1c0.3,0.4 0.6,0.6 0.9,0.9l-0.1,0.2c-0.4,-0.2 -0.8,-0.4 -1.2,-0.7c-0.2,-0.2 -0.3,-0.4 -0.4,-0.6c-0.1,-0.3 -0.1,-0.5 -0.1,-0.9c0.1,-0.3 0.2,-0.5 0.4,-0.7c0.2,-0.2 0.3,-0.3 0.5,-0.5c0.3,-0.3 0.6,-0.5 0.8,-0.9l0.1,-0Z" style="fill:#1b1b43;fill-rule:nonzero;"/><path d="M419.6,218.8c0.9,-0.2 1.7,-0.5 2.5,-1c0.4,-0.2 0.7,-0.5 1.1,-0.8c0.3,-0.3 0.6,-0.6 1,-0.9l0.2,0.1c-0.4,0.9 -1.1,1.6 -1.9,2.1c-0.8,0.5 -1.8,0.7 -2.8,0.6l-0.1,-0.1Z" style="fill:#1b1b43;fill-rule:nonzero;"/><path d="M421.8,206.6c-0.2,1 2.8,1.3 3.4,1.4c0.4,0.1 1.1,0.1 1.2,-0.5c0.1,-0.9 -0.8,-0.9 -1.3,-1.1c-0.6,-0.1 -3.1,-0.7 -3.3,0.2Z" style="fill:#1b1b43;fill-rule:nonzero;"/><path d="M417.6,207.2c0,0.9 -2.4,1 -2.9,1.1c-0.4,0 -0.9,0 -0.8,-0.6c0,-0.8 0.8,-0.8 1.2,-0.9c0.4,-0.1 2.5,-0.5 2.5,0.4Z" style="fill:#1b1b43;fill-rule:nonzero;"/></g><circle cx="428.9" cy="213" r="3.1" style="fill:#fe5b52;fill-opacity:0.2;"/><path d="M416.5,215.7c0,1 -0.5,1.9 -1.2,2.4c-0.5,-1.7 -0.8,-3.6 -1.1,-5.4c1.3,0.4 2.3,1.6 2.3,3Z" style="fill:#fe5b52;fill-opacity:0.2;fill-rule:nonzero;"/></g></g><g><g><rect x="137.7" y="315" width="59.1" height="4" style="fill:#004a85;"/><g><path d="M196.8,315l-50,0l18.9,-46.1l49.9,0l-18.8,46.1Z" style="fill:#fff;fill-rule:nonzero;"/><path d="M197.1,315.5l-50.8,0l19.3,-47l50.9,0l-19.4,47Zm-49.6,-0.9l49,0l18.6,-45.3l-49,0l-18.6,45.3Z" style="fill:#0066a6;fill-rule:nonzero;"/></g><path d="M192.5,311.2l-39.2,0l14.9,-36.3l39.2,0l-14.9,36.3Z" style="fill:#a6dfff;fill-rule:nonzero;"/></g><g><rect x="176.1" y="320.3" width="0.9" height="134.3" style="fill:#1b1b43;"/><rect x="125.1" y="319" width="95.4" height="7.6" style="fill:#379eff;"/></g><g><rect x="51" y="376.7" width="0.9" height="77.9" style="fill:#1b1b43;"/><path d="M71,380.3l-46.7,-0c1,-4.7 5.2,-8.1 10,-8.1l26.7,-0c4.9,0 9,3.4 10,8.1Z" style="fill:#379eff;fill-rule:nonzero;"/><path d="M59.8,454.4l-24.2,-0c-0,-3 2.4,-5.3 5.3,-5.3l13.6,0c2.9,-0.1 5.3,2.3 5.3,5.3Z" style="fill:#379eff;fill-rule:nonzero;"/></g><g><g><path d="M87.4,261.1c1.2,1.7 2.9,4.1 3.1,6.3c0.3,3.1 -4.7,0.9 -4.7,1.2c-0.1,0 1.6,-7.5 1.6,-7.5Z" style="fill:#d28572;fill-rule:nonzero;"/><g><rect x="64.2" y="264.7" width="15.6" height="22.9" style="fill:#ffbc96;"/><path d="M79.8,268.7l0,16.3c-4.9,-3.1 -9.2,-7.7 -12.9,-13l12.9,-3.3Z" style="fill:#1b1b43;fill-rule:nonzero;"/></g><path d="M88.6,262.5c-0.5,7.9 -3.5,16.8 -11.8,14.7c-6.5,-1.7 -13.7,-7.2 -13.7,-15.1c-0,-7.9 5.5,-14.4 12.2,-14.4c4.2,0 9.6,2 12,6c1.6,2.3 1.5,5.4 1.3,8.8Z" style="fill:#ffbc96;fill-rule:nonzero;"/><path d="M74.8,260.2c2.2,-5.8 7.3,-6.4 7.3,-6.4c0,0 11.7,11.6 11,-0.4c-0.6,-9.5 -9.9,-8.6 -9.9,-8.6c-4.6,-5.9 -11.8,-3.6 -14.5,-0.2c-2.7,3.4 -1.7,1.5 -8,3.7c-6.3,2.2 -2.9,11.7 -4,12.4c-8.3,0 -6.8,8.2 -6.8,8.2l19.7,6.4l4.7,-13l0.5,-2.1Z" style="fill:#1b1b43;fill-rule:nonzero;"/><g><path d="M71.7,258.7c1.6,-0.9 3.9,0 5.2,2.1c1.2,2.1 0.9,4.6 -0.7,5.5c-1.6,0.9 -3.9,0 -5.2,-2.1c-1.3,-2 -0.9,-4.5 0.7,-5.5Z" style="fill:#ffbc96;"/><path d="M74.3,263.4c-0.3,-0.5 -0.5,-1.1 -0.9,-1.4c-0.2,-0.2 -0.4,-0.3 -0.6,-0.5c-0.2,-0.1 -0.5,-0.2 -0.8,-0.4l0,-0.2c0.3,0 0.6,0 1,0.1c0.3,0.1 0.6,0.3 0.9,0.5c0.2,0.2 0.4,0.5 0.5,0.9c0.1,0.3 0.2,0.6 0.2,0.9l-0.3,0.1Z" style="fill:#1b1b43;fill-rule:nonzero;"/></g><path d="M66.3,234.9c3.7,-0.2 6.8,2.9 7,6.9c0.2,4 -2.6,7.3 -6.3,7.5c-3.7,0.2 -6.8,-2.9 -7,-6.9c-0.2,-3.9 2.6,-7.3 6.3,-7.5Z" style="fill:#1b1b43;"/><circle cx="81.8" cy="267" r="3" style="fill:#fe5b52;fill-opacity:0.2;"/></g><g><path d="M93.5,343.9l-50,-6.4l9.4,-49.7c0.6,-3.5 3,-6.4 6.2,-7.9c2.7,-1.2 5.7,-1.3 8.5,-0.2l17,7.6c3.3,1.5 5.5,4.6 6,8.1l1,16.3l1.1,18.4l0.8,13.8Z" style="fill:#2c7fff;fill-rule:nonzero;"/><path d="M139.3,308.2l13.2,-3.9c1,-0.3 2,-0.1 2.8,0.4c3.6,2.4 13.3,9.2 10.8,12c-1.2,1.4 -12.3,-1.9 -12.3,-1.9l-16,4.5l1.5,-11.1Z" style="fill:#ffbc96;fill-rule:nonzero;"/><path d="M92.7,330c-4.2,-5.3 -6.6,-12.3 -7.5,-21l6.4,2.6l1.1,18.4Z" style="fill:#1b1b43;fill-rule:nonzero;"/><path d="M83.2,286.7l2,0.9c4.1,1.8 7.8,4.4 10.8,7.7l16.4,18.1l26.9,-5.1l3.5,14.5l-33.8,10.4c-2.7,0.5 -5.4,-0.4 -7.2,-2.4l-24.4,-26.6l5.8,-17.5Z" style="fill:#2c7fff;fill-rule:nonzero;"/><path d="M112,313.6c-0.1,-0.1 -8.1,-8.8 -15,-16.6c-6.9,-7.7 -17.3,-11.4 -17.4,-11.5l0.3,-0.8c0.1,0 10.7,3.8 17.8,11.7c6.9,7.8 14.9,16.5 15,16.6l-0.7,0.6Z" style="fill:#1b1b43;fill-rule:nonzero;"/><path d="M79.4,307l-0.6,0.6l22.7,23.4l0.6,-0.6l-22.7,-23.4Z" style="fill:#1b1b43;"/></g><g><g><g><path d="M91.7,419.1l-10.8,21l27.2,14l-7.2,-16.6l5.9,-13.1l-15.1,-5.3Z" style="fill:#d1d1ff;fill-rule:nonzero;"/><path d="M100.8,437.1l-7.7,2.3l0.2,0.8l7.7,-2.3l-0.2,-0.8Z" style="fill:#1b1b43;"/></g><path d="M108.7,433l-24.7,-9.2l16.9,-52.6c2.9,-7.8 11.9,-11.6 20,-8.6c8.1,3 12.4,11.8 9.5,19.6l-21.7,50.8Z" style="fill:#26289c;fill-rule:nonzero;"/></g><g><g><path d="M132.6,429.4l2.4,25l30.6,-0l-14,-11.4l-3.3,-14.4l-15.7,0.8Z" style="fill:#d1d1ff;fill-rule:nonzero;"/><path d="M151.4,442.5l-7.3,4l0.4,0.7l7.3,-4l-0.4,-0.7Z" style="fill:#1b1b43;"/></g><path d="M154.7,432.3l-26.8,4.3l-18.3,-53.9l-3.3,-9.8l-45.5,0.4c-11.3,0.3 -20.2,-9.4 -19.1,-20.6l1.9,-15l45.1,5.7l29.6,3.3c12.3,2.1 16.1,9.6 18.7,19.2l17.7,66.4Z" style="fill:#3335cf;fill-rule:nonzero;"/><path d="M109.6,382.7l-3.3,-9.8l6.2,-0.2c0.5,3.6 -1,7.8 -2.9,10Z" style="fill:#1b1b43;fill-rule:nonzero;"/></g></g></g></g><rect x="0" y="454" width="516.1" height="0.9" style="fill:#1b1b43;"/></g></g></svg>