<?xml version="1.0" encoding="UTF-8" standalone="no"?><!DOCTYPE svg PUBLIC "-//W3C//DTD SVG 1.1//EN" "http://www.w3.org/Graphics/SVG/1.1/DTD/svg11.dtd"><svg width="100%" height="100%" viewBox="0 0 800 600" version="1.1" xmlns="http://www.w3.org/2000/svg" xmlns:xlink="http://www.w3.org/1999/xlink" xml:space="preserve" xmlns:serif="http://www.serif.com/" style="fill-rule:evenodd;clip-rule:evenodd;stroke-linejoin:round;stroke-miterlimit:2;"><path d="M570.679,255.552c87.948,50.798 87.948,133.158 -0.001,183.956c-87.948,50.798 -230.539,50.799 -318.487,0.001c-87.946,-50.799 -87.946,-133.158 0.001,-183.957c87.949,-50.799 230.54,-50.799 318.487,-0Z" style="fill:#85c4ff;fill-opacity:0.48;fill-rule:nonzero;"/><path d="M263.864,378.298l-64.809,-37.418c-2.263,-1.306 -2.263,-3.423 -0,-4.729l117.136,-67.648c2.263,-1.305 5.93,-1.305 8.192,0l64.809,37.419c2.262,1.305 2.262,3.422 -0,4.729l-117.137,67.647c-2.261,1.305 -5.929,1.305 -8.191,-0Z" style="fill:#d7d9d9;fill-opacity:0.21;fill-rule:nonzero;"/><path d="M594.141,357.235c22.085,12.751 22.085,33.425 0,46.176c-22.086,12.751 -57.894,12.751 -79.979,-0c-22.087,-12.751 -22.086,-33.425 0,-46.176c22.085,-12.751 57.893,-12.751 79.979,-0Z" style="fill:#d7d9d9;fill-opacity:0.12;fill-rule:nonzero;"/><path d="M374.554,394.296c22.086,12.752 22.085,33.426 -0.001,46.178c-22.085,12.751 -57.893,12.751 -79.979,-0c-22.085,-12.752 -22.085,-33.426 0,-46.177c22.086,-12.751 57.895,-12.752 79.98,-0.001Z" style="fill:#d7d9d9;fill-opacity:0.11;fill-rule:nonzero;"/><path d="M310.138,55.449c0.145,-0.078 0.287,-0.116 0.422,-0.116c0.078,0 0.154,0.013 0.224,0.038l0.047,0.023c-0.086,-0.038 -0.179,-0.057 -0.276,-0.057c-0.132,-0 -0.271,0.035 -0.412,0.109c-0.002,0.001 -0.003,0.001 -0.005,0.003Z" style="fill:#92d4d2;fill-rule:nonzero;"/><path d="M276.638,55.027l0.048,-0.194c0.094,-0.291 0.222,-0.568 0.379,-0.804l0.12,-0.154l0.177,-0.194l4.673,-4.194c0.187,-0.177 0.389,-0.259 0.587,-0.272c-0.198,0.013 -0.4,0.095 -0.587,0.272l-4.673,4.194l-0.177,0.194l-0.12,0.154c-0.157,0.236 -0.285,0.513 -0.379,0.804l-0.048,0.194Zm26.148,-0.729l0.01,-0.033l1.787,-1.355c0.154,-0.114 0.308,-0.18 0.455,-0.204c-0.147,0.026 -0.301,0.094 -0.455,0.207l-1.788,1.356l-0.009,0.029Z" style="fill:#92d4d2;fill-rule:nonzero;"/><path d="M287.457,52.093c0.192,-0.159 0.396,-0.236 0.587,-0.238c-0.191,0.002 -0.395,0.079 -0.587,0.238Z" style="fill:#92d4d2;fill-rule:nonzero;"/><path d="M288.055,51.855l-0.003,0l0.003,0Zm-5.082,-2.576c-0.001,-0.001 -0.002,-0.001 -0.003,-0.002c0.001,0.001 0.002,0.001 0.003,0.002Zm-0.337,-0.065c0.011,-0.001 0.023,-0.001 0.034,-0.001c-0.011,0 -0.023,0 -0.034,0.001Zm0.04,-0.001l-0.006,0l0.006,0Z" style="fill:#92d4d2;fill-rule:nonzero;"/><path d="M298.248,48.236c0.276,-0.56 0.935,-0.956 1.559,-0.96c-0.624,0.004 -1.283,0.4 -1.559,0.96Z" style="fill:#92d4d2;fill-rule:nonzero;"/><path d="M299.816,47.276l-0.001,-0l0.001,-0Zm-6.936,-1.7c0.272,-0.552 0.923,-0.942 1.547,-0.947c-0.624,0.005 -1.275,0.395 -1.547,0.947Zm5.462,-0.291c-0.108,-0.054 -0.223,-0.097 -0.353,-0.115l-3.332,-0.524c-0.004,-0.001 -0.008,-0.002 -0.013,-0.002c0.005,0 0.009,0.001 0.013,0.002l3.332,0.524c0.13,0.018 0.245,0.061 0.353,0.115Zm-3.71,-0.643c-0.003,0 -0.005,-0.001 -0.008,-0.001c0.003,0 0.005,0.001 0.008,0.001Z" style="fill:#92d4d2;fill-rule:nonzero;"/><path d="M223.068,168.76c0.271,-0.947 -0.178,-2.145 -0.901,-2.812c-0.445,-0.411 -0.868,-0.861 -1.258,-1.359c-0.623,-0.769 -1.662,-0.975 -2.445,-0.386l-3.28,2.481l-2.046,6.904c-0.224,0.755 0.097,1.473 0.727,1.8l-0.011,0.012l7.428,3.656c-0.642,-0.338 -0.952,-1.057 -0.728,-1.81l2.514,-8.486Zm5.639,-69.138c-0.16,-0.073 -0.329,-0.11 -0.507,-0.098c-0.273,0.019 -0.552,0.132 -0.809,0.375l-6.435,5.777c-0.09,0.078 -0.168,0.167 -0.245,0.267l-0.164,0.214c-0.217,0.323 -0.395,0.705 -0.523,1.107c-0.018,0.085 -0.048,0.181 -0.066,0.266l0.012,0c-0.093,0.387 -0.152,0.772 -0.106,1.103l0.831,6.428c0.124,0.981 -0.27,2.401 -0.85,3.191c-1.027,1.403 -1.979,2.872 -2.869,4.372c-0.3,0.509 -0.83,0.962 -1.418,1.251c-0.197,0.096 -0.383,0.168 -0.582,0.217c-0.094,0.03 -0.187,0.06 -0.282,0.066c-0.129,0.032 -0.259,0.053 -0.39,0.05l-4.369,0.075l-0.106,0.006c-0.119,0.009 -0.237,0.028 -0.354,0.06c-0.107,0.018 -0.211,0.05 -0.316,0.092l-0.035,0.015c-0.116,0.043 -0.231,0.098 -0.346,0.165c-0.218,0.122 -0.424,0.267 -0.603,0.433c-0.281,0.269 -0.509,0.594 -0.642,0.937l-3.485,9.455c-0.314,0.842 0.056,1.749 0.834,2.161l5.025,2.468c0.182,0.393 0.258,0.829 0.191,1.251c-0.236,1.493 -0.399,2.982 -0.47,4.428c-0.043,0.981 -0.583,2.363 -1.263,3.076l-0.067,0.063l-5.583,5.853c-0.101,0.101 -0.189,0.214 -0.264,0.338l-0.031,0.062c-0.088,0.124 -0.162,0.26 -0.212,0.407c-0.336,0.69 -0.47,1.556 -0.306,2.225l1.573,6.475c0.098,0.411 0.308,0.695 0.581,0.856l7.378,3.623c-0.26,-0.149 -0.458,-0.435 -0.555,-0.833l-1.561,-6.476c-0.097,-0.375 -0.091,-0.828 -0.012,-1.262c0.122,-0.676 0.411,-1.338 0.824,-1.771l5.572,-5.851l0.067,-0.064c0.68,-0.713 1.22,-2.095 1.274,-3.076c0.072,-1.447 0.223,-2.934 0.47,-4.428c0.15,-0.976 -0.443,-2.021 -1.371,-2.353l-3.623,-1.262c-0.928,-0.332 -1.412,-1.348 -1.068,-2.265l3.486,-9.455c0.132,-0.342 0.35,-0.666 0.641,-0.936c0.483,-0.449 1.142,-0.767 1.761,-0.771l4.381,-0.077c0.405,-0.002 0.838,-0.126 1.241,-0.332c0.589,-0.288 1.119,-0.741 1.419,-1.25c0.89,-1.501 1.853,-2.971 2.869,-4.373c0.591,-0.79 0.974,-2.209 0.849,-3.191l-0.829,-6.416c-0.047,-0.342 -0.013,-0.738 0.092,-1.126c0.167,-0.715 0.537,-1.418 1.01,-1.843l6.423,-5.776c0.438,-0.398 0.933,-0.478 1.329,-0.278l-7.416,-3.645Zm13.597,73.837c-0.2,-0.142 -0.37,-0.357 -0.473,-0.661l-1.867,-4.977c-0.335,-0.919 -1.311,-1.272 -2.2,-0.832c-0.912,0.443 -1.829,0.813 -2.728,1.099c-0.279,0.09 -0.568,0.241 -0.853,0.426l0.244,0.639c0.145,0.371 0.363,0.619 0.634,0.745l0.001,0.012l7.242,3.549Zm7.549,-79.359l0.001,0.011c-0.148,-0.074 -0.307,-0.134 -0.487,-0.158l-4.589,-0.722c-0.975,-0.149 -2.091,0.461 -2.484,1.356l-3.723,8.398c-0.176,0.406 -0.497,0.785 -0.878,1.143l-0.011,0.001c-0.213,0.205 -0.441,0.387 -0.692,0.535l1.621,4.337c0.347,0.919 1.324,1.259 2.2,0.832c0.925,-0.443 1.842,-0.813 2.729,-1.098c0.525,-0.178 1.086,-0.525 1.558,-0.949c0.382,-0.347 0.713,-0.751 0.888,-1.156l3.711,-8.397c0.406,-0.897 1.522,-1.507 2.485,-1.356l4.601,0.721c0.168,0.024 0.327,0.073 0.462,0.136l-7.392,-3.634Zm2.051,32.972c-1.165,-4.81 -4.423,-7.038 -8.423,-6.439c0.409,0.783 0.757,1.714 1.019,2.793c1.839,7.625 -2.325,18.888 -9.288,25.153c-2.566,2.303 -5.148,3.606 -7.474,3.95c2.751,5.014 8.883,5.098 14.89,-0.305c6.962,-6.265 11.115,-17.528 9.276,-25.152Zm7.784,-22.659l0.001,0.012c-0.345,-0.18 -0.795,-0.138 -1.239,0.189l-2.462,1.867l-0.468,1.58c-0.283,0.949 0.166,2.146 0.89,2.814c0.444,0.411 0.867,0.86 1.269,1.357c0.623,0.758 1.661,0.976 2.444,0.375l5.743,-4.348c0.432,-0.315 0.869,-0.379 1.213,-0.212l-7.391,-3.634Z" style="fill:#00b2a7;fill-rule:nonzero;"/><path d="M221.282,179.056l-7.428,-3.656l0.011,-0.012c-0.494,-0.258 -0.799,-0.755 -0.799,-1.322c0,-0.155 0.024,-0.315 0.072,-0.478l2.045,-6.9l3.277,-2.481c0.309,-0.234 0.657,-0.343 1.004,-0.343c0.535,-0 1.067,0.261 1.441,0.727c0.087,0.108 0.175,0.213 0.264,0.318c0.316,0.373 0.651,0.717 0.998,1.039c0.55,0.507 0.942,1.322 0.978,2.1c0.001,0.032 0.002,0.066 0.002,0.098c0.001,0.211 -0.026,0.417 -0.084,0.613l-2.514,8.481c-0.049,0.166 -0.072,0.33 -0.071,0.489c0.001,0.359 0.123,0.69 0.338,0.951c0.125,0.151 0.282,0.28 0.466,0.376Z" style="fill:#9befff;fill-rule:nonzero;"/><path d="M242.304,173.459l-7.242,-3.549l-0.001,-0.012c-0.271,-0.126 -0.489,-0.374 -0.634,-0.745l-0.244,-0.639c0.16,-0.104 0.321,-0.197 0.48,-0.275c0.127,-0.059 0.255,-0.11 0.379,-0.151c0.129,-0.041 0.259,-0.085 0.39,-0.131c0.772,-0.265 1.554,-0.591 2.332,-0.968c0.258,-0.127 0.523,-0.188 0.777,-0.188c0.624,0 1.186,0.367 1.423,1.02l1.867,4.977c0.103,0.304 0.273,0.519 0.473,0.661Z" style="fill:#9befff;fill-rule:nonzero;"/><path d="M211.417,168.723l-7.361,-3.614c-0.273,-0.161 -0.483,-0.445 -0.581,-0.856l-1.573,-6.475c-0.047,-0.193 -0.07,-0.402 -0.07,-0.62c0,-0.534 0.137,-1.114 0.376,-1.605c0.05,-0.147 0.124,-0.283 0.212,-0.407l0.031,-0.062c0.075,-0.124 0.163,-0.237 0.264,-0.338l5.583,-5.853l0.067,-0.063c0.68,-0.713 1.22,-2.095 1.263,-3.076c0.071,-1.446 0.234,-2.935 0.47,-4.428c0.016,-0.103 0.023,-0.205 0.023,-0.308c0,-0.322 -0.076,-0.645 -0.214,-0.943l-5.025,-2.468c-0.59,-0.313 -0.946,-0.908 -0.947,-1.546c0,-0.204 0.037,-0.411 0.113,-0.615l3.485,-9.455c0.133,-0.343 0.361,-0.668 0.642,-0.937c0.179,-0.166 0.385,-0.311 0.603,-0.433c0.115,-0.067 0.23,-0.122 0.346,-0.165l0.035,-0.015c0.105,-0.042 0.209,-0.074 0.316,-0.092c0.117,-0.032 0.235,-0.051 0.354,-0.06l0.106,-0.006l4.369,-0.075l0.015,0l-0.015,0l-4.369,0.075l-0.106,0.006c-0.119,0.009 -0.237,0.028 -0.354,0.06c-0.107,0.018 -0.211,0.05 -0.316,0.092l-0.035,0.015c-0.116,0.043 -0.231,0.098 -0.346,0.165c-0.218,0.122 -0.424,0.267 -0.603,0.433l7.403,3.646c-0.291,0.27 -0.509,0.594 -0.641,0.936l-3.298,8.945l-0.187,0.507c-0.003,0.008 -0.006,0.015 -0.008,0.023c-0.07,0.194 -0.104,0.392 -0.104,0.588c0,0.246 0.053,0.488 0.152,0.71c0.114,0.258 0.291,0.488 0.519,0.666c0.149,0.118 0.319,0.213 0.508,0.281l1.737,0.605l1.882,0.66c0.831,0.291 1.394,1.16 1.393,2.037c0,0.103 -0.008,0.207 -0.024,0.309c-0.238,1.5 -0.394,2.982 -0.465,4.432c-0.002,0.041 -0.005,0.084 -0.008,0.127c-0.091,0.971 -0.614,2.267 -1.265,2.949l-0.067,0.064l-7.404,-3.646l-5.583,5.853c-0.101,0.101 -0.189,0.214 -0.264,0.338l-0.031,0.062c-0.088,0.124 -0.162,0.26 -0.212,0.407c-0.135,0.307 -0.232,0.635 -0.294,0.973l7.391,3.634c-0.019,0.103 -0.033,0.205 -0.042,0.307c-0.011,0.113 -0.017,0.226 -0.017,0.337c0,0.217 0.023,0.425 0.07,0.615l0.001,-0l0.161,0.67l1.401,5.81c0.073,0.299 0.203,0.534 0.373,0.696c0.051,0.05 0.107,0.093 0.165,0.128Zm11.544,-41.203l-7.403,-3.645c0.588,-0.289 1.118,-0.742 1.418,-1.251c0.89,-1.5 1.842,-2.969 2.869,-4.372c0.507,-0.691 0.873,-1.865 0.873,-2.804c-0,-0.134 -0.008,-0.264 -0.023,-0.387l-0.831,-6.428c-0.011,-0.08 -0.016,-0.163 -0.016,-0.25c0.001,-0.266 0.05,-0.556 0.121,-0.847l7.383,3.623c-0.037,0.158 -0.065,0.316 -0.082,0.47c-0.015,0.117 -0.021,0.232 -0.021,0.344c-0.001,0.11 0.006,0.216 0.02,0.317l0.829,6.416c0.016,0.127 0.025,0.261 0.024,0.4c-0,0.432 -0.077,0.913 -0.209,1.373c-0.077,0.266 -0.173,0.526 -0.283,0.765c-0.112,0.244 -0.241,0.466 -0.381,0.653c-0.461,0.637 -0.911,1.288 -1.349,1.948c-0.177,0.268 -0.352,0.538 -0.525,0.809c-0.341,0.533 -0.672,1.073 -0.995,1.616c-0.3,0.509 -0.83,0.962 -1.419,1.25Zm-8.63,-3.312l-0.002,0l0.002,0Zm0.003,0c0.103,0 0.207,-0.015 0.309,-0.038c-0.102,0.023 -0.206,0.038 -0.309,0.038Zm0.313,-0.039c0.005,-0.001 0.011,-0.002 0.016,-0.004c-0.005,0.002 -0.011,0.003 -0.016,0.004Zm5.311,-16.639c0.018,-0.085 0.048,-0.181 0.066,-0.266c0.128,-0.402 0.306,-0.784 0.523,-1.107l0.164,-0.214c0.077,-0.1 0.155,-0.189 0.245,-0.267l6.435,-5.777c0.257,-0.243 0.536,-0.356 0.809,-0.375c0.021,-0.001 0.043,-0.002 0.064,-0.002c-0.021,0 -0.043,0.001 -0.064,0.002c-0.273,0.019 -0.552,0.132 -0.809,0.375l-6.435,5.777c-0.09,0.078 -0.168,0.167 -0.245,0.267l-0.164,0.214c-0.217,0.323 -0.395,0.705 -0.523,1.107c-0.018,0.085 -0.048,0.181 -0.066,0.266Zm14.836,-3.985c0.006,-0.004 0.011,-0.009 0.016,-0.015c-0.005,0.006 -0.01,0.011 -0.016,0.015Zm0.022,-0.019c0.003,-0.003 0.006,-0.006 0.009,-0.009c-0.003,0.003 -0.006,0.006 -0.009,0.009Zm0.018,-0.016c0.001,-0 0.001,-0.001 0.001,-0.001c-0,-0 -0,0.001 -0.001,0.001Zm0.011,-0.009c0.003,-0.002 0.005,-0.005 0.008,-0.007c-0.003,0.002 -0.005,0.005 -0.008,0.007Zm0.014,-0.013c0.265,-0.218 0.547,-0.325 0.814,-0.327c-0.267,0.002 -0.549,0.109 -0.814,0.327Zm0.824,-0.327l-0.003,-0l0.003,-0Zm-7.014,-3.556c-0.005,-0.002 -0.01,-0.004 -0.015,-0.005c0.005,0.001 0.01,0.003 0.015,0.005Zm-0.397,-0.083l-0.007,0l0.007,0Z" style="fill:#9befff;fill-rule:nonzero;"/><path d="M233.871,156.282c-0.326,0 -0.645,-0.02 -0.957,-0.06c-2.168,-0.281 -3.987,-1.527 -5.176,-3.693c2.326,-0.344 4.908,-1.647 7.474,-3.95c5.848,-5.262 9.721,-14.049 9.723,-21.245c-0,-1.373 -0.141,-2.688 -0.435,-3.908c-0.262,-1.079 -0.61,-2.01 -1.019,-2.793c0.425,-0.063 0.842,-0.095 1.249,-0.095c0.381,-0 0.752,0.027 1.113,0.082c0.002,0.001 0.005,0.001 0.006,0.002l0.001,-0c0.883,0.136 1.704,0.434 2.447,0.891c1.687,1.042 2.965,2.908 3.607,5.559c0.294,1.221 0.435,2.535 0.435,3.907c0,1.866 -0.259,3.838 -0.745,5.828c-0.001,0 -0.001,0.001 -0.001,0.002l0,0.001c-1.392,5.687 -4.637,11.517 -8.97,15.414c-3.036,2.728 -6.105,4.058 -8.752,4.058Z" style="fill:#9befff;fill-rule:nonzero;"/><path d="M259.122,112.953c-0.409,-0 -0.816,-0.153 -1.154,-0.43c-0.104,-0.087 -0.201,-0.185 -0.29,-0.296c-0.035,-0.044 -0.07,-0.087 -0.106,-0.131c0.036,0.043 0.071,0.087 0.106,0.13c0.378,0.467 0.909,0.727 1.445,0.727c0.108,-0 0.218,-0.012 0.326,-0.033c-0.108,0.022 -0.218,0.033 -0.327,0.033Zm-1.557,-0.865c-0.004,-0.005 -0.009,-0.01 -0.013,-0.016c0.004,0.006 0.009,0.011 0.013,0.016Zm-0.018,-0.021c-0.341,-0.412 -0.702,-0.793 -1.079,-1.145c0.384,0.352 0.737,0.732 1.079,1.145Zm8.587,-3.972c0.189,-0.097 0.375,-0.143 0.55,-0.143c0.106,-0 0.209,0.017 0.306,0.052l0.058,0.029c-0.115,-0.051 -0.241,-0.077 -0.372,-0.077c-0.173,0 -0.357,0.046 -0.542,0.139Zm-10.189,-1.462l0.044,-0.153l2.461,-1.866c0.209,-0.154 0.419,-0.245 0.619,-0.279c-0.2,0.037 -0.41,0.131 -0.619,0.284l-2.462,1.868l-0.043,0.146Z" style="fill:#92d4d2;fill-rule:nonzero;"/><path d="M240.044,110.016c-0.263,-0 -0.516,-0.065 -0.74,-0.19c-0.303,-0.17 -0.548,-0.451 -0.69,-0.828l-1.163,-3.101l-0.461,-1.233c0.251,-0.148 0.479,-0.33 0.692,-0.535l0.011,-0.001c0.381,-0.358 0.702,-0.737 0.878,-1.143l3.723,-8.398c0.002,-0.006 0.005,-0.012 0.008,-0.017c-0.003,0.005 -0.006,0.011 -0.008,0.017l-3.723,8.398c-0.176,0.406 -0.497,0.785 -0.878,1.143l7.405,3.657c-0.042,0.038 -0.084,0.075 -0.128,0.112c-0.256,0.216 -0.534,0.407 -0.815,0.563c-0.206,0.112 -0.413,0.204 -0.612,0.269c-0.608,0.198 -1.222,0.431 -1.841,0.699c-0.296,0.127 -0.593,0.263 -0.891,0.405c-0.253,0.123 -0.514,0.183 -0.767,0.183Zm9.677,-11.831c0.377,-0.776 1.287,-1.327 2.151,-1.331c-0.864,0.004 -1.774,0.555 -2.151,1.331Zm7.524,-0.451l-7.392,-3.634l7.392,3.634Zm-5.063,-0.857c-0.008,-0.001 -0.016,-0.002 -0.024,-0.004c0.008,0.002 0.016,0.003 0.024,0.004Zm-0.299,-0.023l-0,0l0,0Zm-9.575,-2.298c0.003,-0.008 0.007,-0.016 0.011,-0.024c-0.004,0.008 -0.008,0.016 -0.011,0.024Zm0.016,-0.035c0.374,-0.767 1.28,-1.31 2.147,-1.312c-0.867,0.002 -1.773,0.545 -2.147,1.312Zm7.53,-0.41c-0.148,-0.074 -0.307,-0.134 -0.487,-0.158l-4.589,-0.722c-0.004,-0 -0.01,-0.001 -0.015,-0.002c0.005,0.001 0.011,0.002 0.015,0.002l4.589,0.722c0.18,0.024 0.339,0.084 0.487,0.158Zm-5.376,-0.902l-0.001,0l0.001,0Z" style="fill:#9befff;fill-rule:nonzero;"/><path d="M215.702,152.539l-5.572,5.851c-0.413,0.433 -0.702,1.095 -0.824,1.771l-7.392,-3.635c0.062,-0.338 0.159,-0.666 0.294,-0.973c0.05,-0.147 0.124,-0.283 0.212,-0.407l0.031,-0.062c0.075,-0.124 0.163,-0.237 0.264,-0.338l5.583,-5.853l7.404,3.646Z" style="fill:#649dff;fill-rule:nonzero;"/><path d="M222.961,127.52c-0.403,0.206 -0.836,0.33 -1.241,0.332l-4.381,0.077c-0.619,0.004 -1.278,0.322 -1.761,0.771l-7.403,-3.646c0.179,-0.166 0.385,-0.311 0.603,-0.433c0.115,-0.067 0.23,-0.122 0.346,-0.165l0.035,-0.015c0.105,-0.042 0.209,-0.074 0.316,-0.092c0.117,-0.032 0.235,-0.051 0.354,-0.06l0.106,-0.006l4.369,-0.075c0.131,0.003 0.261,-0.018 0.39,-0.05c0.094,-0.018 0.188,-0.036 0.282,-0.066c0.186,-0.06 0.371,-0.143 0.557,-0.227l0.025,0.01l7.403,3.645Z" style="fill:#649dff;fill-rule:nonzero;"/><path d="M267.079,108.041c-0.345,-0.168 -0.782,-0.103 -1.213,0.223l-5.743,4.349c-0.783,0.588 -1.822,0.382 -2.445,-0.387c-0.402,-0.497 -0.813,-0.947 -1.269,-1.358c-0.724,-0.667 -1.173,-1.865 -0.89,-2.813l0.469,-1.568l2.462,-1.868c0.444,-0.326 0.893,-0.38 1.238,-0.201l-0.001,-0.011l7.392,3.634Z" style="fill:#649dff;fill-rule:nonzero;"/><path d="M257.245,97.734c-0.135,-0.063 -0.294,-0.112 -0.462,-0.136l-4.601,-0.721c-0.963,-0.151 -2.079,0.459 -2.485,1.356l-3.711,8.397c-0.175,0.405 -0.506,0.809 -0.888,1.156l-7.405,-3.658c0.381,-0.358 0.702,-0.737 0.878,-1.143l3.723,-8.398c0.393,-0.895 1.509,-1.505 2.484,-1.356l4.589,0.722c0.18,0.024 0.339,0.084 0.487,0.158l-0.001,-0.011l7.392,3.634Z" style="fill:#649dff;fill-rule:nonzero;"/><path d="M236.123,103.267c-0.396,-0.2 -0.891,-0.12 -1.329,0.278l-6.423,5.776c-0.473,0.425 -0.843,1.128 -1.01,1.843l-7.403,-3.634c0.018,-0.085 0.048,-0.181 0.066,-0.266c0.128,-0.402 0.306,-0.784 0.523,-1.107l0.164,-0.214c0.077,-0.1 0.155,-0.189 0.245,-0.267l6.435,-5.777c0.257,-0.243 0.536,-0.356 0.809,-0.375c0.178,-0.012 0.347,0.025 0.507,0.098l7.416,3.645Z" style="fill:#649dff;fill-rule:nonzero;"/><path d="M209.305,160.16l-7.391,-3.634c0.062,-0.338 0.159,-0.666 0.294,-0.973c0.05,-0.147 0.124,-0.283 0.212,-0.407l0.031,-0.062c0.075,-0.124 0.163,-0.237 0.264,-0.338l5.583,-5.853l7.404,3.646l-5.572,5.851c-0.2,0.209 -0.371,0.474 -0.508,0.766c-0.148,0.312 -0.256,0.658 -0.317,1.004Z" style="fill:#9befff;fill-rule:nonzero;"/><path d="M215.578,128.7l-7.403,-3.646c0.179,-0.166 0.385,-0.311 0.603,-0.433c0.115,-0.067 0.23,-0.122 0.346,-0.165l0.035,-0.015c0.105,-0.042 0.209,-0.074 0.316,-0.092c0.117,-0.032 0.235,-0.051 0.354,-0.06l0.106,-0.006l4.369,-0.075l0.027,0c0.122,0 0.243,-0.019 0.363,-0.05c0.094,-0.018 0.188,-0.036 0.282,-0.066c0.186,-0.06 0.371,-0.143 0.557,-0.227l0.025,0.01l7.403,3.645c-0.067,0.035 -0.134,0.066 -0.201,0.095c-0.27,0.114 -0.547,0.192 -0.815,0.224c-0.075,0.009 -0.15,0.013 -0.225,0.013l-4.381,0.077c-0.619,0.004 -1.278,0.322 -1.761,0.771Z" style="fill:#9befff;fill-rule:nonzero;"/><path d="M259.123,112.953c-0.536,-0 -1.067,-0.26 -1.445,-0.727c-0.035,-0.043 -0.07,-0.087 -0.106,-0.13c-0.002,-0.002 -0.004,-0.005 -0.007,-0.008c-0.004,-0.005 -0.009,-0.01 -0.013,-0.016c-0.001,-0.002 -0.003,-0.003 -0.005,-0.005c-0.342,-0.413 -0.695,-0.793 -1.079,-1.145c-0.018,-0.017 -0.036,-0.033 -0.054,-0.05c-0.575,-0.529 -0.976,-1.393 -0.977,-2.199c-0.001,-0.211 0.026,-0.417 0.084,-0.613l0.424,-1.427l0.043,-0.146l2.462,-1.868c0.278,-0.205 0.558,-0.302 0.814,-0.302c0.153,-0 0.296,0.034 0.424,0.101l-0.001,-0.011l7.392,3.634c-0.03,-0.014 -0.059,-0.027 -0.089,-0.037c-0.097,-0.035 -0.2,-0.052 -0.306,-0.052c-0.175,-0 -0.361,0.046 -0.55,0.143c-0.091,0.046 -0.18,0.101 -0.269,0.169l-5.741,4.347c-0.091,0.07 -0.187,0.128 -0.284,0.176c-0.231,0.112 -0.475,0.166 -0.717,0.166Z" style="fill:#9befff;fill-rule:nonzero;"/><path d="M245.098,107.785l-7.405,-3.657c0.381,-0.358 0.702,-0.737 0.878,-1.143l3.723,-8.398c0.353,-0.804 1.289,-1.378 2.183,-1.378c0.101,0 0.202,0.007 0.301,0.022l4.589,0.722c0.18,0.024 0.339,0.084 0.487,0.158l-0.001,-0.011l7.392,3.634c-0.022,-0.01 -0.044,-0.02 -0.066,-0.029c-0.124,-0.051 -0.258,-0.089 -0.401,-0.112l-2.253,-0.349l-2.343,-0.367c-0.098,-0.015 -0.198,-0.023 -0.299,-0.023l-0,0c-0.885,0 -1.822,0.574 -2.186,1.379l-2.403,5.44l-1.309,2.953c-0.179,0.405 -0.502,0.809 -0.887,1.159Z" style="fill:#9befff;fill-rule:nonzero;"/><path d="M227.352,111.159l-7.394,-3.629c0.018,-0.085 0.048,-0.181 0.066,-0.266c0.128,-0.402 0.306,-0.784 0.523,-1.107l0.164,-0.214c0.077,-0.1 0.155,-0.189 0.245,-0.267l6.435,-5.777c0.257,-0.243 0.536,-0.356 0.809,-0.375c0.022,-0.002 0.044,-0.002 0.065,-0.002c0.154,0 0.301,0.037 0.442,0.1l7.379,3.626c-0.025,-0.011 -0.05,-0.021 -0.075,-0.029c-0.001,-0 -0.001,-0 -0.001,-0.001l-0.002,-0c-0.104,-0.038 -0.214,-0.056 -0.325,-0.057l-0.003,-0c-0.29,-0 -0.6,0.125 -0.886,0.384l-1.951,1.755l-4.475,4.022c-0.472,0.427 -0.845,1.129 -1.016,1.837Z" style="fill:#9befff;fill-rule:nonzero;"/><path d="M242.623,152.224c-6.965,6.263 -14.104,5.154 -15.944,-2.475c-1.84,-7.63 2.316,-18.891 9.282,-25.154c6.965,-6.263 14.103,-5.156 15.943,2.474c1.84,7.629 -2.315,18.891 -9.281,25.155Zm26.644,-36.826l-1.563,-6.477c-0.23,-0.957 -1.054,-1.252 -1.839,-0.657l-5.741,4.347c-0.786,0.595 -1.829,0.384 -2.446,-0.384c-0.396,-0.493 -0.819,-0.945 -1.264,-1.355c-0.725,-0.667 -1.173,-1.868 -0.893,-2.812l2.514,-8.483c0.28,-0.944 -0.282,-1.832 -1.257,-1.984l-4.59,-0.712c-0.974,-0.15 -2.087,0.457 -2.486,1.358l-3.717,8.387c-0.399,0.9 -1.505,1.797 -2.442,2.103c-0.896,0.292 -1.806,0.659 -2.726,1.105c-0.886,0.429 -1.858,0.086 -2.203,-0.836l-1.866,-4.975c-0.346,-0.924 -1.22,-1.138 -1.952,-0.479l-6.428,5.778c-0.732,0.659 -1.223,1.985 -1.097,2.962l0.831,6.423c0.127,0.978 -0.267,2.397 -0.848,3.192c-1.023,1.402 -1.983,2.866 -2.872,4.375c-0.501,0.848 -1.682,1.564 -2.667,1.581l-4.372,0.074c-0.985,0.016 -2.06,0.778 -2.4,1.703l-3.491,9.456c-0.341,0.924 0.137,1.938 1.066,2.264l3.62,1.269c0.93,0.326 1.524,1.373 1.369,2.346c-0.238,1.5 -0.394,2.982 -0.465,4.432c-0.047,0.984 -0.592,2.361 -1.271,3.075l-5.641,5.92c-0.681,0.713 -1.044,2.068 -0.813,3.025l1.562,6.477c0.23,0.958 1.054,1.252 1.839,0.658l5.742,-4.347c0.786,-0.595 1.829,-0.384 2.445,0.384c0.397,0.494 0.819,0.945 1.265,1.355c0.724,0.668 1.172,1.868 0.893,2.813l-2.514,8.481c-0.28,0.945 0.283,1.833 1.257,1.984l4.589,0.712c0.974,0.151 2.087,-0.456 2.486,-1.357l3.718,-8.387c0.399,-0.901 1.505,-1.797 2.443,-2.104c0.895,-0.291 1.804,-0.659 2.724,-1.104c0.887,-0.429 1.858,-0.087 2.204,0.836l1.866,4.975c0.346,0.923 1.221,1.137 1.953,0.478l6.426,-5.778c0.733,-0.659 1.224,-1.985 1.098,-2.961l-0.832,-6.424c-0.126,-0.977 0.268,-2.396 0.849,-3.191c1.023,-1.403 1.983,-2.867 2.872,-4.376c0.501,-0.848 1.682,-1.564 2.667,-1.58l4.372,-0.074c0.985,-0.016 2.06,-0.779 2.401,-1.704l3.49,-9.456c0.341,-0.924 -0.136,-1.938 -1.066,-2.263l-3.62,-1.269c-0.931,-0.326 -1.524,-1.374 -1.369,-2.347c0.238,-1.499 0.394,-2.981 0.464,-4.431c0.048,-0.985 0.592,-2.361 1.272,-3.074l5.641,-5.921c0.68,-0.713 1.044,-2.068 0.813,-3.026Z" style="fill:#16a5ff;fill-rule:nonzero;"/><path d="M226.699,179.959c-0.103,0 -0.204,-0.007 -0.304,-0.023l-4.589,-0.712c-0.416,-0.065 -0.757,-0.263 -0.989,-0.544c-0.216,-0.261 -0.338,-0.592 -0.339,-0.951c-0.001,-0.159 0.022,-0.323 0.071,-0.489l2.514,-8.481c0.058,-0.196 0.085,-0.402 0.084,-0.613c-0.002,-0.807 -0.402,-1.67 -0.977,-2.2c-0.348,-0.32 -0.683,-0.666 -1.001,-1.037c-0.089,-0.105 -0.177,-0.21 -0.264,-0.318c-0.374,-0.466 -0.906,-0.727 -1.441,-0.727c-0.347,-0 -0.695,0.109 -1.004,0.343l-3.277,2.481l-2.465,1.866c-0.274,0.208 -0.554,0.307 -0.811,0.307c-0.477,-0 -0.878,-0.343 -1.028,-0.965l-1.401,-5.807l-0.161,-0.67l-0.001,-0c-0.046,-0.195 -0.069,-0.405 -0.069,-0.624c-0.001,-0.857 0.341,-1.833 0.883,-2.401l5.641,-5.92c0.679,-0.714 1.224,-2.091 1.271,-3.075c0.071,-1.45 0.227,-2.932 0.465,-4.432c0.016,-0.102 0.025,-0.206 0.025,-0.309c0,-0.877 -0.563,-1.746 -1.394,-2.037l-3.62,-1.269c-0.189,-0.066 -0.358,-0.16 -0.507,-0.277c-0.228,-0.178 -0.405,-0.408 -0.519,-0.666c-0.098,-0.222 -0.15,-0.463 -0.15,-0.709c0,-0.203 0.035,-0.41 0.11,-0.612l3.491,-9.456c0.34,-0.925 1.415,-1.687 2.401,-1.703l4.371,-0.074c0.985,-0.017 2.166,-0.733 2.667,-1.581c0.889,-1.509 1.849,-2.973 2.872,-4.375c0.508,-0.697 0.873,-1.869 0.871,-2.806c0,-0.134 -0.007,-0.263 -0.023,-0.386l-0.831,-6.423c-0.014,-0.103 -0.02,-0.21 -0.02,-0.319c-0,-0.929 0.462,-2.053 1.117,-2.643l6.428,-5.778c0.287,-0.257 0.595,-0.382 0.886,-0.382c0.45,-0 0.856,0.3 1.066,0.861l1.866,4.975c0.246,0.657 0.809,1.02 1.432,1.02c0.252,-0 0.516,-0.06 0.771,-0.184c0.92,-0.446 1.83,-0.813 2.726,-1.105c0.937,-0.306 2.043,-1.203 2.442,-2.103l3.717,-8.387c0.358,-0.808 1.291,-1.381 2.181,-1.381c0.103,0 0.204,0.007 0.305,0.023l4.59,0.712c0.807,0.126 1.331,0.757 1.328,1.506c0,0.155 -0.023,0.316 -0.071,0.478l-2.514,8.483c-0.058,0.196 -0.085,0.402 -0.084,0.613c0.001,0.806 0.402,1.67 0.977,2.199c0.445,0.41 0.868,0.862 1.264,1.355c0.375,0.466 0.907,0.727 1.442,0.727c0.347,0 0.695,-0.109 1.004,-0.343l5.741,-4.347c0.274,-0.208 0.554,-0.308 0.811,-0.308c0.479,0 0.879,0.343 1.029,0.965l1.562,6.477c0.047,0.195 0.069,0.405 0.069,0.624c0.001,0.858 -0.34,1.833 -0.882,2.402l-5.641,5.921c-0.68,0.713 -1.224,2.089 -1.272,3.074c-0.07,1.45 -0.226,2.932 -0.464,4.431c-0.017,0.103 -0.024,0.206 -0.024,0.309c-0.002,0.877 0.561,1.747 1.393,2.038l0.527,0.185l-2.159,1.247c-0.022,0.012 -0.043,0.025 -0.065,0.039l-0.401,0.231c-0.339,0.227 -0.654,0.465 -0.949,0.711c-1.575,1.3 -2.689,3.023 -3.255,4.982c-0.285,0.9 -0.395,1.708 -0.412,2.469l0,5.181c-0.633,0.289 -1.215,0.769 -1.529,1.301c-0.89,1.51 -1.85,2.973 -2.873,4.376c-0.508,0.696 -0.873,1.868 -0.872,2.805c-0,0.134 0.008,0.264 0.023,0.386l0.832,6.424c0.013,0.102 0.02,0.209 0.02,0.319c-0,0.929 -0.463,2.053 -1.118,2.642l-6.426,5.778c-0.287,0.259 -0.596,0.382 -0.887,0.382c-0.45,0 -0.856,-0.298 -1.066,-0.86l-1.866,-4.975c-0.247,-0.656 -0.809,-1.019 -1.432,-1.019c-0.253,-0 -0.516,0.059 -0.772,0.183c-0.786,0.38 -1.565,0.704 -2.334,0.973c-0.131,0.046 -0.261,0.09 -0.39,0.132c-0.124,0.04 -0.252,0.091 -0.379,0.15c-0.839,0.392 -1.718,1.171 -2.064,1.953l-3.718,8.387c-0.358,0.808 -1.291,1.38 -2.182,1.38Zm-0.455,-34.12c-0,1.373 0.14,2.688 0.435,3.91c1.039,4.305 3.763,6.533 7.192,6.533c2.647,0 5.717,-1.33 8.752,-4.058c5.85,-5.261 9.717,-14.048 9.716,-21.246c0,-1.372 -0.14,-2.687 -0.435,-3.909c-0.639,-2.651 -1.918,-4.515 -3.607,-5.556c-0.743,-0.457 -1.564,-0.755 -2.447,-0.891l-0.001,-0c-0.001,-0.001 -0.004,-0.001 -0.006,-0.002c-0.367,-0.056 -0.744,-0.084 -1.129,-0.084c-2.648,0 -5.717,1.33 -8.753,4.059c-5.85,5.26 -9.718,14.045 -9.717,21.244Z" style="fill:#9befff;fill-opacity:0.65;fill-rule:nonzero;"/><path d="M355.147,81.156l-94.333,54.473c-3.062,1.768 -4.898,4.873 -5.082,8.432l0.006,219.319c-0,3.456 2.134,7.489 4.766,9.008c2.63,1.52 7.189,1.352 10.181,-0.376l93.993,-54.266c2.98,-1.72 5.418,-5.943 5.418,-9.384l-0.002,-218.576c0,-3.455 -2.133,-7.487 -4.765,-9.007c-2.631,-1.519 -7.189,-1.35 -10.182,0.377Z" style="fill:#16a5ff;fill-rule:nonzero;"/><path d="M264.999,373.428c-1.679,-0 -3.291,-0.343 -4.499,-1.04c-1.676,-0.967 -3.152,-2.96 -4.001,-5.173l0.001,0c0.849,2.212 2.325,4.204 4.004,5.173c1.205,0.697 2.815,1.039 4.493,1.039c1.372,-0 2.788,-0.229 4.069,-0.678c-1.278,0.45 -2.695,0.679 -4.067,0.679Z" style="fill:#7c8082;fill-rule:nonzero;"/><path d="M256.499,367.215c-0.482,-1.256 -0.761,-2.584 -0.761,-3.836l-0,-0.065l-0,0.066c-0,1.252 0.28,2.579 0.762,3.835l-0.001,0Z" style="fill:#00907c;fill-rule:nonzero;"/><path d="M255.735,253.55l-0.003,-104.308l0.003,104.307l0,0.001Z" style="fill:#909394;fill-rule:nonzero;"/><path d="M255.736,303.416l-0.001,-49.867l0.002,49.867l-0.001,0Z" style="fill:#898d8e;fill-rule:nonzero;"/><path d="M255.737,317.097c0,0 0,-0.001 -0.001,-0.002l0,-13.679l0.001,0l0,13.681Z" style="fill:#7c8082;fill-rule:nonzero;"/><path d="M255.732,149.242l0,-5.181l0,5.181Z" style="fill:#66918d;fill-rule:nonzero;"/><path d="M255.737,328.066l0,-0.002l-0.001,-10.969c0.001,0.001 0.001,0.002 0.001,0.002l0,10.969Z" style="fill:#007261;fill-rule:nonzero;"/><path d="M255.737,329.201l0,-1.137l0,0.002l0,1.135Z" style="fill:#909394;fill-rule:nonzero;"/><path d="M255.738,361.151c-0,-0.001 -0,-0.001 -0.001,-0.002l0,-31.949l0.001,31.951Z" style="fill:#00907c;fill-rule:nonzero;"/><path d="M255.738,363.315l-0.001,-2.166c0.001,0.001 0.001,0.001 0.001,0.002l-0,2.164Z" style="fill:#909394;fill-rule:nonzero;"/><path d="M255.732,144.061c0.017,-0.761 0.127,-1.569 0.412,-2.469c-0.228,0.789 -0.368,1.616 -0.412,2.469Z" style="fill:#66918d;fill-rule:nonzero;"/><path d="M264.997,373.427c-1.678,-0 -3.288,-0.342 -4.493,-1.039c-1.679,-0.969 -3.155,-2.961 -4.004,-5.173c-0.482,-1.256 -0.762,-2.583 -0.762,-3.835l-0,-2.229l-0.001,-31.95l0,-25.785l-0.002,-49.867l-0.003,-104.307l0,-5.181c0.044,-0.853 0.184,-1.68 0.412,-2.469c0.211,-0.669 0.519,-1.388 0.956,-2.174l8.744,4.96c-1.498,1.799 -2.522,4.22 -2.522,6.314l-0.001,217.086c0,3.315 1.669,5.239 4.085,5.239c0.586,-0 1.218,-0.114 1.88,-0.348c-0.073,0.027 -0.147,0.054 -0.22,0.08c-1.281,0.449 -2.697,0.678 -4.069,0.678Z" style="fill:#16a5ff;fill-rule:nonzero;"/><path d="M268.1,142.417c-2.628,1.517 -4.778,5.24 -4.778,8.275l-0.001,217.086c0,4.667 3.308,6.577 7.349,4.243l94.008,-54.275c2.98,-1.72 5.418,-5.943 5.418,-9.384l-0.002,-218.576c0,-3.441 -2.437,-4.848 -5.418,-3.127l-96.576,55.758Z" style="fill:#16a5ff;fill-rule:nonzero;"/><path d="M267.406,373.017c-2.416,-0 -4.085,-1.924 -4.085,-5.239l0.001,-217.086c0,-2.094 1.024,-4.515 2.522,-6.314c0.003,-0.004 0.005,-0.007 0.008,-0.01c0.231,-0.277 0.473,-0.539 0.726,-0.783c0.532,-0.505 1.064,-0.887 1.376,-1.081c0.048,-0.03 0.097,-0.059 0.146,-0.087l96.579,-55.758c0.864,-0.498 1.68,-0.734 2.406,-0.734c1.666,0 2.849,1.245 2.99,3.408c-0.003,-0.07 -0.008,-0.14 -0.014,-0.211c0.022,0.212 0.033,0.434 0.033,0.664l0.002,218.576c-0,3.441 -2.438,7.664 -5.418,9.384l-94.008,54.275c-1.17,0.676 -2.28,0.996 -3.264,0.996Zm0.445,-208.311l0.001,186.797c-0,2.329 1.159,3.676 2.848,3.676c0.692,-0 1.473,-0.226 2.3,-0.704l88.43,-51.059c2.832,-1.635 5.148,-5.649 5.148,-8.918l-0.001,-186.798c0,-2.321 -1.169,-3.67 -2.861,-3.67c-0.69,0 -1.467,0.224 -2.288,0.698l-88.429,51.061c-2.843,1.641 -5.148,5.634 -5.148,8.917Z" style="fill:#16a5ff;fill-rule:nonzero;"/><path d="M270.7,355.179c-1.689,-0 -2.848,-1.347 -2.848,-3.676l-0.001,-186.797l0.001,184.689l87.06,-50.27c2.832,-1.635 5.149,-5.648 5.149,-8.918l-0.001,-184.689l-87.061,50.271c-2.843,1.641 -5.148,5.634 -5.148,8.917c-0,-3.283 2.305,-7.276 5.148,-8.917l88.429,-51.061c0.821,-0.474 1.598,-0.698 2.288,-0.698c1.692,0 2.861,1.349 2.861,3.67l0.001,186.798c0,3.269 -2.316,7.283 -5.148,8.918l-88.43,51.059c-0.827,0.478 -1.608,0.704 -2.3,0.704Z" style="fill:#16a5ff;fill-rule:nonzero;"/><path d="M360.061,290.207l-0.001,-184.689l-87.061,50.271c-2.843,1.641 -5.148,5.634 -5.148,8.917l0.001,184.689l87.06,-50.27c2.832,-1.635 5.149,-5.648 5.149,-8.918Z" style="fill:#16a5ff;fill-rule:nonzero;"/><path d="M267.852,349.395l-0.001,-184.689c-0,-3.283 2.305,-7.276 5.148,-8.917l87.061,-50.271l0.001,184.689c0,3.27 -2.317,7.283 -5.149,8.918l-87.06,50.27Z" style="fill:#fff;fill-rule:nonzero;"/><path d="M309.846,125.404l15.673,-9.049c0.935,-0.54 1.693,-0.156 1.693,0.856c0,1.013 -0.758,2.272 -1.693,2.811l-15.673,9.049c-0.936,0.54 -1.693,0.158 -1.693,-0.856c-0,-1.013 0.757,-2.271 1.693,-2.811Z" style="fill:#335863;fill-rule:nonzero;"/><path d="M336.739,109.854c0.877,-0.506 1.588,-0.096 1.588,0.917c0,1.013 -0.711,2.244 -1.588,2.751c-0.877,0.506 -1.588,0.096 -1.588,-0.917c0,-1.014 0.711,-2.245 1.588,-2.751Z" style="fill:#335863;fill-rule:nonzero;"/><path d="M343.097,106.188c0.876,-0.506 1.588,-0.096 1.588,0.918c0,1.012 -0.711,2.243 -1.588,2.751c-0.877,0.506 -1.589,0.095 -1.589,-0.918c0,-1.013 0.712,-2.245 1.589,-2.751Z" style="fill:#335863;fill-rule:nonzero;"/><path d="M292.268,135.533c0.877,-0.507 1.588,-0.096 1.588,0.917c0,1.013 -0.711,2.244 -1.588,2.75c-0.878,0.507 -1.589,0.096 -1.589,-0.917c-0,-1.012 0.711,-2.243 1.589,-2.75Z" style="fill:#335863;fill-rule:nonzero;"/><path d="M298.625,131.867c0.877,-0.505 1.588,-0.096 1.588,0.918c-0,1.012 -0.711,2.244 -1.588,2.75c-0.877,0.507 -1.588,0.096 -1.588,-0.916c-0,-1.014 0.711,-2.245 1.588,-2.752Z" style="fill:#335863;fill-rule:nonzero;"/><path d="M259.399,136.61c0.295,-0.246 0.61,-0.484 0.949,-0.711l0.401,-0.231c-0.482,0.281 -0.932,0.597 -1.35,0.942Z" style="fill:#75aba6;fill-rule:nonzero;"/><path d="M269.091,130.85l86.056,-49.697c1.621,-0.935 3.702,-1.412 5.686,-1.412c1.68,-0 3.29,0.341 4.495,1.037c0.155,0.09 0.307,0.187 0.457,0.292c-0.149,-0.105 -0.302,-0.202 -0.456,-0.291c-1.205,-0.696 -2.815,-1.037 -4.492,-1.037c-1.986,-0 -4.068,0.478 -5.69,1.414l-86.056,49.694Zm96.706,-49.771c-0.002,-0.002 -0.005,-0.004 -0.007,-0.005c0.002,0.001 0.005,0.003 0.007,0.005Z" style="fill:#a8abab;fill-rule:nonzero;"/><path d="M265.844,144.378l-8.744,-4.96c0.544,-1.028 1.299,-1.971 2.299,-2.808c0.418,-0.345 0.868,-0.661 1.35,-0.942l8.342,-4.818l86.056,-49.694c1.622,-0.936 3.704,-1.414 5.69,-1.414c1.677,-0 3.287,0.341 4.492,1.037c0.154,0.089 0.307,0.186 0.456,0.291c0.002,0.001 0.003,0.003 0.005,0.004c0.002,0.001 0.005,0.003 0.007,0.005c2.249,1.587 4.036,4.962 4.264,8.043c-0.203,-2.034 -1.365,-3.198 -2.977,-3.198c-0.726,0 -1.544,0.236 -2.408,0.735l-96.576,55.758c-0.041,0.022 -0.09,0.051 -0.146,0.087c-0.479,0.294 -0.942,0.659 -1.376,1.081c-0.25,0.236 -0.499,0.5 -0.726,0.783c-0.003,0.003 -0.005,0.006 -0.008,0.01Z" style="fill:#16a5ff;fill-rule:nonzero;"/><path d="M265.844,144.378c0.003,-0.004 0.005,-0.007 0.008,-0.01c-0.003,0.003 -0.005,0.006 -0.008,0.01Zm0.734,-0.793c0.434,-0.422 0.897,-0.787 1.376,-1.081c-0.312,0.194 -0.844,0.576 -1.376,1.081Zm1.522,-1.168l96.576,-55.758c0.864,-0.499 1.682,-0.735 2.408,-0.735c1.612,0 2.774,1.164 2.977,3.198c0.006,0.071 0.011,0.141 0.014,0.211c-0.141,-2.163 -1.324,-3.408 -2.99,-3.408c-0.726,0 -1.542,0.236 -2.406,0.734l-96.579,55.758Z" style="fill:#008673;fill-rule:nonzero;"/><path d="M403.377,110.033c-0,-10.707 7.518,-23.728 16.791,-29.082c4.642,-2.681 8.845,-2.931 11.884,-1.168l4.269,2.494c-0,0 2.819,4.395 2.819,9.659c-0,10.708 -7.518,23.728 -16.79,29.083c-4.582,2.645 -9.774,2.388 -9.774,2.388l-4.281,-2.503c-3.038,-1.755 -4.918,-5.517 -4.918,-10.871Z" style="fill:#16a5ff;fill-rule:nonzero;"/><path d="M413.044,123.413c1.345,-0.007 5.359,-0.215 9.049,-2.25c-3.69,2.035 -7.704,2.243 -9.049,2.25Zm9.075,-2.264c0.004,-0.002 0.008,-0.004 0.012,-0.007c-0.004,0.003 -0.008,0.005 -0.012,0.007Zm0.062,-0.035c0.012,-0.007 0.025,-0.013 0.036,-0.02c-0.011,0.007 -0.024,0.013 -0.036,0.02Zm0.095,-0.053c0.01,-0.006 0.019,-0.011 0.028,-0.016c-0.009,0.005 -0.018,0.01 -0.028,0.016Zm-18.899,-11.028l-0,-0.031l-0,0.031Zm-0,-0.039l-0,-0.023l-0,0.023Zm-0,-0.039c0.001,-0.005 0.001,-0.01 0.001,-0.016c-0,0.006 -0,0.011 -0.001,0.016Zm0.001,-0.037l-0,-0.009l-0,0.009Zm-0,-0.033l-0,-0.008l-0,0.008Zm-0,-0.029l-0,-0.01l-0,0.01Zm-0,-0.033l-0,-0.008l-0,0.008Zm0.001,-0.036l-0,-0.003l-0,0.003Zm-0,-0.033l-0,-0.001l-0,0.001Z" style="fill:#d1d3d2;fill-rule:nonzero;"/><path d="M412.963,123.413c-0.25,0 -0.387,-0.006 -0.387,-0.006l-4.281,-2.503c-3.038,-1.755 -4.918,-5.517 -4.918,-10.871l-0,-0.078c0.001,-0.005 0.001,-0.01 0.001,-0.016l-0,-0.124c0.001,-0.01 0.001,-0.019 0.001,-0.028l-0,-0.034c0.064,-5.233 1.899,-10.994 4.839,-16.131l0.002,0.001c-2.231,3.898 -3.827,8.154 -4.494,12.267l22.037,12.755c3.229,-2.634 6.117,-6.145 8.376,-10.025l-16.648,-9.633l16.648,9.633l0.002,0.001c-3.032,5.205 -7.195,9.744 -11.791,12.398c-0.016,0.008 -0.031,0.017 -0.046,0.026c-0.009,0.005 -0.018,0.01 -0.028,0.016c-0.019,0.011 -0.04,0.022 -0.059,0.033c-0.011,0.007 -0.024,0.013 -0.036,0.02c-0.016,0.009 -0.033,0.019 -0.05,0.028c-0.004,0.003 -0.008,0.005 -0.012,0.007c-0.009,0.005 -0.017,0.01 -0.026,0.014c-3.69,2.035 -7.704,2.243 -9.049,2.25l-0.081,0Z" style="fill:#16a5ff;fill-rule:nonzero;"/><path d="M439.14,92.035l-0,-0.004l-0,0.004Zm-0,-0.035l-0,-0.001l-0,0.001Zm-0,-0.018l-0,-0.046l-0,0.046Zm-2.819,-9.705l-4.269,-2.494c-1.116,-0.647 -2.388,-1.023 -3.782,-1.107c1.394,0.084 2.666,0.459 3.782,1.106l4.269,2.495Z" style="fill:#fff;fill-rule:nonzero;"/><path d="M434.14,108.62l-16.649,-9.633l-9.271,-5.364c3.044,-5.319 7.27,-9.972 11.948,-12.672c2.695,-1.556 5.241,-2.293 7.498,-2.293c0.204,0 0.406,0.006 0.604,0.018c1.394,0.084 2.666,0.46 3.782,1.107l4.269,2.494c-0,0 2.819,4.395 2.819,9.659l-0,0.063l-0,0.001l-0,0.035c-0.024,5.375 -1.934,11.32 -5.001,16.585" style="fill:#16a5ff;fill-rule:nonzero;"/><path d="M434.139,108.62l-16.648,-9.633l16.649,9.633l-0.001,-0Z" style="fill:#43c0ba;fill-rule:nonzero;"/><path d="M417.491,98.987l-9.271,-5.364l9.271,5.364Z" style="fill:#00b2a7;fill-rule:nonzero;"/><path d="M425.763,118.645l-22.037,-12.755c0.667,-4.113 2.263,-8.369 4.494,-12.267l9.271,5.364l16.648,9.633c-2.259,3.88 -5.147,7.391 -8.376,10.025Z" style="fill:#16a5ff;fill-rule:nonzero;"/><path d="M407.658,112.537c-0,-10.709 7.518,-23.73 16.79,-29.082c9.274,-5.355 16.791,-1.015 16.791,9.694c-0,10.707 -7.517,23.728 -16.791,29.082c-9.272,5.353 -16.79,1.013 -16.79,-9.694Z" style="fill:#16a5ff;fill-rule:nonzero;"/><path d="M398.281,112.804l0.421,-0.037c-0.074,-0.848 -0.11,-1.704 -0.11,-2.566c-0.001,-6.874 2.31,-14.105 6.172,-20.331c3.86,-6.226 9.268,-11.442 15.42,-14.311c3.28,-1.53 6.455,-2.249 9.383,-2.249c4.378,0.002 8.21,1.595 11.086,4.52c2.872,2.926 4.79,7.199 5.26,12.585c0.075,0.848 0.111,1.704 0.111,2.567c0.001,6.873 -2.311,14.104 -6.172,20.33c-3.861,6.226 -9.268,11.441 -15.421,14.311c-3.279,1.53 -6.454,2.249 -9.384,2.249c-4.376,-0.002 -8.208,-1.596 -11.084,-4.52c-2.873,-2.926 -4.791,-7.199 -5.261,-12.585l-0.421,0.037l-0.421,0.037c0.482,5.544 2.468,10.016 5.5,13.103c3.031,3.088 7.105,4.776 11.687,4.773c3.069,-0 6.365,-0.752 9.742,-2.329c6.335,-2.957 11.845,-8.287 15.781,-14.631c3.934,-6.346 6.298,-13.713 6.299,-20.775c0,-0.886 -0.037,-1.767 -0.113,-2.641c-0.483,-5.543 -2.468,-10.016 -5.5,-13.103c-3.031,-3.088 -7.105,-4.776 -11.689,-4.774c-3.068,0 -6.363,0.753 -9.74,2.329c-6.336,2.958 -11.846,8.288 -15.781,14.632c-3.935,6.346 -6.298,13.713 -6.299,20.776c-0,0.886 0.037,1.766 0.113,2.64l0.421,-0.037Z" style="fill:#00b2a7;fill-rule:nonzero;"/><path d="M430.32,106.608c-0.391,0.226 -0.776,0.202 -1.017,-0.119c-1.029,-1.375 -2.719,-1.576 -4.516,-0.537c-1.769,1.021 -3.033,3.316 -4.066,5.832c-0.399,0.97 -1.172,1.586 -1.727,1.374c-0.556,-0.21 -0.682,-1.167 -0.284,-2.137c1.497,-3.645 3.513,-6.889 6.077,-8.369c2.607,-1.505 5.054,-1.215 6.548,0.776c0.39,0.522 0.253,1.629 -0.307,2.475c-0.216,0.325 -0.463,0.564 -0.708,0.705Z" style="fill:#f9f9f9;fill-rule:nonzero;"/><path d="M416.425,110.665c-0.277,0.159 -0.554,0.198 -0.785,0.077c-0.527,-0.274 -0.521,-1.236 -0.169,-2.224c2.175,-6.102 5.597,-9.606 9.316,-11.753c3.712,-2.143 7.196,-1.965 9.562,0.49c0.435,0.451 0.361,1.535 -0.167,2.419c-0.526,0.883 -1.306,1.235 -1.742,0.784c-1.893,-1.965 -4.683,-2.108 -7.653,-0.393c-2.977,1.718 -5.574,4.914 -7.405,9.446c-0.222,0.547 -0.599,0.948 -0.957,1.154Z" style="fill:#f9f9f9;fill-rule:nonzero;"/><path d="M413.052,108.064c-0.287,0.168 -0.578,0.2 -0.812,0.063c-0.515,-0.302 -0.495,-1.283 -0.118,-2.259c3.312,-8.587 7.811,-12.188 12.665,-14.991c4.819,-2.782 9.414,-2.67 12.606,0.308c0.452,0.422 0.403,1.493 -0.11,2.391c-0.511,0.899 -1.294,1.286 -1.747,0.863c-2.721,-2.538 -6.639,-2.634 -10.749,-0.262c-4.139,2.39 -8.328,6.437 -10.801,12.784c-0.207,0.532 -0.589,0.904 -0.934,1.103Z" style="fill:#f9f9f9;fill-rule:nonzero;"/><path d="M422.479,113.991c0,-1.7 1.034,-3.674 2.308,-4.41c1.275,-0.735 2.308,0.046 2.308,1.745c-0,1.699 -1.033,3.673 -2.308,4.409c-1.274,0.736 -2.308,-0.045 -2.308,-1.744Z" style="fill:#f9f9f9;fill-rule:nonzero;"/><path d="M446.645,93.995l55.942,-32.299l-0.422,-0.732l-55.944,32.299" style="fill:#00b2a7;fill-rule:nonzero;"/><path d="M498.29,63.573c-0,-2.472 1.736,-5.479 3.877,-6.716c2.141,-1.236 3.877,-0.233 3.877,2.239c-0,2.473 -1.736,5.48 -3.877,6.716c-2.141,1.236 -3.877,0.234 -3.877,-2.239Z" style="fill:#16a5ff;fill-rule:nonzero;"/><path d="M461.802,92.276l32.006,-18.361c0.557,-0.321 1.008,-0.093 1.008,0.51c0,0.602 -0.451,1.351 -1.008,1.672l-32.006,18.361c-0.557,0.321 -1.008,0.093 -1.008,-0.51c0,-0.603 0.451,-1.351 1.008,-1.672Z" style="fill:#335863;fill-rule:nonzero;"/><path d="M461.802,98.822l32.006,-18.359c0.557,-0.322 1.008,-0.093 1.008,0.51c0,0.602 -0.451,1.351 -1.008,1.672l-32.006,18.36c-0.557,0.322 -1.008,0.094 -1.008,-0.509c0,-0.603 0.451,-1.352 1.008,-1.674Z" style="fill:#335863;fill-rule:nonzero;"/><path d="M461.802,105.37l32.006,-18.36c0.557,-0.322 1.008,-0.093 1.008,0.509c0,0.604 -0.451,1.352 -1.008,1.674l-32.006,18.359c-0.557,0.321 -1.008,0.093 -1.008,-0.509c0,-0.603 0.451,-1.352 1.008,-1.673Z" style="fill:#335863;fill-rule:nonzero;"/><path d="M403.377,179.681c-0,-10.708 7.518,-23.728 16.791,-29.082c4.642,-2.681 8.845,-2.931 11.884,-1.169l4.269,2.495c-0,0 2.819,4.393 2.819,9.659c-0,10.708 -7.518,23.728 -16.79,29.083c-4.582,2.644 -9.774,2.387 -9.774,2.387l-4.281,-2.503c-3.038,-1.754 -4.918,-5.516 -4.918,-10.87Z" style="fill:#16a5ff;fill-rule:nonzero;"/><path d="M412.963,193.061l-0.001,-0l0.001,-0Zm0.081,-0c1.368,-0.008 5.494,-0.222 9.233,-2.353c-3.74,2.131 -7.866,2.345 -9.233,2.353Zm9.262,-2.369c0.014,-0.009 0.029,-0.017 0.044,-0.025c-0.015,0.008 -0.03,0.016 -0.044,0.025Zm-18.929,-11.011l-0,-0.032l-0,0.032Zm-0,-0.039l-0,-0.023l-0,0.023Zm-0,-0.039c0.001,-0.006 0.001,-0.01 0.001,-0.016c-0,0.006 -0,0.01 -0.001,0.016Zm0.001,-0.037l-0,-0.01l-0,0.01Zm-0,-0.033l-0,-0.008l-0,0.008Zm-0,-0.03l-0,-0.009l-0,0.009Zm-0,-0.032l-0,-0.009l-0,0.009Zm0.001,-0.036l-0,-0.003l-0,0.003Zm-0,-0.033l-0,-0.002l-0,0.002Z" style="fill:#d1d3d2;fill-rule:nonzero;"/><path d="M413.044,193.061l-0.082,-0c-0.249,-0 -0.386,-0.007 -0.386,-0.007l-4.281,-2.503c-3.038,-1.754 -4.918,-5.516 -4.918,-10.87l-0,-0.078c0.001,-0.006 0.001,-0.01 0.001,-0.016l-0,-0.125c0.001,-0.009 0.001,-0.017 0.001,-0.027l-0,-0.035c0.064,-5.233 1.899,-10.993 4.839,-16.13l0.002,0.001c-2.231,3.898 -3.827,8.153 -4.494,12.267l22.037,12.755c3.229,-2.635 6.117,-6.145 8.376,-10.026l-9.27,-5.364l9.27,5.364l0.002,0.001c-3.032,5.206 -7.195,9.745 -11.791,12.399c-0.015,0.008 -0.03,0.016 -0.044,0.025c-0.01,0.004 -0.02,0.01 -0.029,0.016c-3.739,2.131 -7.865,2.345 -9.233,2.353Z" style="fill:#16a5ff;fill-rule:nonzero;"/><path d="M439.14,161.682l-0,-0.003l-0,0.003Zm-0,-0.034l-0,-0.001l-0,0.001Zm-0,-0.019l-0,-0.045l-0,0.045Zm-21.262,-9.53c0.001,-0.001 0.003,-0.002 0.004,-0.003c-0.001,0.001 -0.002,0.002 -0.004,0.003Zm0.022,-0.016c0.741,-0.543 1.498,-1.04 2.268,-1.485c1.112,-0.642 2.201,-1.146 3.254,-1.514c-1.053,0.368 -2.142,0.872 -3.254,1.515c-0.77,0.444 -1.527,0.941 -2.268,1.484Z" style="fill:#fff;fill-rule:nonzero;"/><path d="M434.139,178.267l-9.27,-5.364l-16.649,-9.632c2.538,-4.436 5.9,-8.409 9.658,-11.172c0.002,-0.001 0.003,-0.002 0.004,-0.003c0.006,-0.004 0.012,-0.008 0.018,-0.013c0.741,-0.543 1.498,-1.04 2.268,-1.484c1.112,-0.643 2.201,-1.147 3.254,-1.515c1.495,-0.525 2.92,-0.778 4.244,-0.778c1.632,-0 3.111,0.384 4.386,1.124l4.269,2.495c-0,0 2.819,4.393 2.819,9.659l-0,0.063l-0,0.001l-0,0.034c-0.024,5.374 -1.934,11.321 -5.001,16.585Z" style="fill:#16a5ff;fill-rule:nonzero;"/><path d="M434.139,178.267l-9.27,-5.364l9.27,5.364Z" style="fill:#43c0ba;fill-rule:nonzero;"/><path d="M424.869,172.903l-16.649,-9.632l16.649,9.632Z" style="fill:#00b2a7;fill-rule:nonzero;"/><path d="M425.763,188.293l-22.037,-12.755c0.667,-4.114 2.263,-8.369 4.494,-12.267l16.649,9.632l9.27,5.364c-2.259,3.881 -5.147,7.391 -8.376,10.026Z" style="fill:#16a5ff;fill-rule:nonzero;"/><path d="M407.658,182.183c-0,-10.707 7.518,-23.728 16.79,-29.082c9.274,-5.353 16.791,-1.013 16.791,9.694c-0,10.709 -7.517,23.729 -16.791,29.083c-9.272,5.354 -16.79,1.014 -16.79,-9.695Z" style="fill:#16a5ff;fill-rule:nonzero;"/><path d="M398.281,182.451l0.421,-0.036c-0.074,-0.849 -0.11,-1.705 -0.11,-2.567c-0.001,-6.873 2.31,-14.105 6.172,-20.33c3.86,-6.227 9.268,-11.442 15.42,-14.312c3.28,-1.53 6.455,-2.249 9.383,-2.249c4.378,0.003 8.21,1.596 11.086,4.521c2.872,2.925 4.79,7.198 5.26,12.584c0.075,0.848 0.111,1.705 0.111,2.567c0.001,6.873 -2.311,14.105 -6.172,20.329c-3.861,6.227 -9.268,11.442 -15.421,14.312c-3.279,1.531 -6.454,2.249 -9.384,2.249c-4.376,-0.002 -8.208,-1.596 -11.084,-4.521c-2.873,-2.925 -4.791,-7.198 -5.261,-12.583l-0.421,0.036l-0.421,0.037c0.482,5.543 2.468,10.016 5.5,13.103c3.031,3.088 7.105,4.775 11.687,4.773c3.069,0 6.365,-0.752 9.742,-2.328c6.335,-2.957 11.845,-8.287 15.781,-14.632c3.934,-6.345 6.298,-13.712 6.299,-20.775c0,-0.886 -0.037,-1.767 -0.113,-2.64c-0.483,-5.544 -2.468,-10.016 -5.5,-13.104c-3.031,-3.088 -7.105,-4.775 -11.689,-4.773c-3.068,-0 -6.363,0.753 -9.74,2.328c-6.336,2.959 -11.846,8.287 -15.781,14.632c-3.935,6.347 -6.298,13.713 -6.299,20.776c-0,0.885 0.037,1.767 0.113,2.64l0.421,-0.037Z" style="fill:#00b2a7;fill-rule:nonzero;"/><path d="M446.658,163.537l55.929,-32.291l-0.422,-0.731l-55.93,32.29" style="fill:#00b2a7;fill-rule:nonzero;"/><path d="M498.499,133.119c0,-2.473 1.736,-5.479 3.877,-6.716c2.141,-1.235 3.877,-0.234 3.877,2.239c0,2.472 -1.736,5.479 -3.877,6.716c-2.141,1.235 -3.877,0.233 -3.877,-2.239Z" style="fill:#16a5ff;fill-rule:nonzero;"/><path d="M434.657,175.956l-20.416,11.788c-0.436,0.251 -0.79,-0.016 -0.79,-0.597l0,-16.313l10.399,5.639c0.353,0.158 0.844,-0.125 1.198,-0.691l10.398,-17.647l0,16.314c0,0.581 -0.354,1.255 -0.789,1.507Z" style="fill:#f9f9f9;fill-rule:nonzero;"/><path d="M413.451,169.84l21.995,-12.699l-10.431,15.838c-0.341,0.515 -0.794,0.777 -1.133,0.653l-10.431,-3.792Z" style="fill:#f9f9f9;fill-rule:nonzero;"/><path d="M461.802,161.825l32.006,-18.36c0.557,-0.321 1.008,-0.093 1.008,0.51c0,0.603 -0.451,1.351 -1.008,1.673l-32.006,18.36c-0.557,0.321 -1.008,0.093 -1.008,-0.51c0,-0.602 0.451,-1.351 1.008,-1.673Z" style="fill:#335863;fill-rule:nonzero;"/><path d="M461.802,168.373l32.006,-18.36c0.557,-0.321 1.008,-0.093 1.008,0.509c0,0.603 -0.451,1.352 -1.008,1.673l-32.006,18.361c-0.557,0.321 -1.008,0.092 -1.008,-0.51c0,-0.603 0.451,-1.352 1.008,-1.673Z" style="fill:#335863;fill-rule:nonzero;"/><path d="M461.802,174.92l32.006,-18.36c0.557,-0.322 1.008,-0.093 1.008,0.509c0,0.603 -0.451,1.352 -1.008,1.674l-32.006,18.359c-0.557,0.322 -1.008,0.094 -1.008,-0.509c0,-0.603 0.451,-1.352 1.008,-1.673Z" style="fill:#335863;fill-rule:nonzero;"/><path d="M403.377,249.328c-0,-10.707 7.518,-23.728 16.791,-29.082c4.642,-2.681 8.845,-2.931 11.884,-1.168l4.269,2.495c-0,0 2.819,4.394 2.819,9.658c-0,10.709 -7.518,23.728 -16.79,29.083c-4.582,2.645 -9.774,2.388 -9.774,2.388l-4.281,-2.503c-3.038,-1.754 -4.918,-5.516 -4.918,-10.871Z" style="fill:#16a5ff;fill-rule:nonzero;"/><path d="M413.044,262.709c1.345,-0.008 5.359,-0.215 9.049,-2.251c-3.69,2.036 -7.704,2.243 -9.049,2.251Zm9.075,-2.265c0.004,-0.001 0.008,-0.004 0.012,-0.006c-0.004,0.002 -0.008,0.005 -0.012,0.006Zm0.062,-0.035c0.012,-0.006 0.025,-0.013 0.036,-0.019c-0.011,0.006 -0.024,0.013 -0.036,0.019Zm0.095,-0.053c0.01,-0.006 0.019,-0.011 0.028,-0.016c-0.009,0.005 -0.018,0.01 -0.028,0.016Zm-18.899,-11.028l-0,-0.03l-0,0.03Zm-0,-0.039l-0,-0.023l-0,0.023Zm-0,-0.039c0.001,-0.004 0.001,-0.01 0.001,-0.016c-0,0.006 -0,0.011 -0.001,0.016Zm0.001,-0.037l-0,-0.009l-0,0.009Zm-0,-0.032l-0,-0.008l-0,0.008Zm-0,-0.03l-0,-0.01l-0,0.01Zm-0,-0.033l-0,-0.008l-0,0.008Zm0.001,-0.036l-0,-0.003l-0,0.003Zm-0,-0.033l-0,-0.001l-0,0.001Z" style="fill:#c7c9c9;fill-rule:nonzero;"/><path d="M412.963,262.709c-0.25,-0 -0.387,-0.007 -0.387,-0.007l-4.281,-2.503c-3.038,-1.754 -4.918,-5.516 -4.918,-10.871l-0,-0.078c0.001,-0.005 0.001,-0.01 0.001,-0.016l-0,-0.124c0.001,-0.01 0.001,-0.018 0.001,-0.028l-0,-0.034c0.064,-5.233 1.899,-10.994 4.839,-16.131l0.002,0.002c-2.231,3.898 -3.827,8.153 -4.494,12.266l22.037,12.755c3.229,-2.634 6.117,-6.145 8.376,-10.025l-16.648,-9.633l16.648,9.633l0.002,0.001c-3.032,5.206 -7.195,9.744 -11.791,12.398c-0.016,0.009 -0.031,0.017 -0.046,0.026c-0.009,0.005 -0.018,0.01 -0.028,0.016c-0.019,0.011 -0.04,0.022 -0.059,0.034c-0.011,0.006 -0.024,0.013 -0.036,0.019c-0.016,0.009 -0.033,0.02 -0.05,0.029c-0.004,0.002 -0.008,0.005 -0.012,0.006c-0.009,0.005 -0.017,0.01 -0.026,0.014c-3.69,2.036 -7.704,2.243 -9.049,2.251l-0.081,-0Z" style="fill:#00ae9d;fill-rule:nonzero;"/><path d="M439.14,231.33l-0,-0.004l-0,0.004Zm-0,-0.035l-0,-0.001l-0,0.001Zm-0,-0.018l-0,-0.046l-0,0.046Zm-21.184,-9.587c0.006,-0.005 0.013,-0.01 0.019,-0.013c-0.006,0.003 -0.013,0.008 -0.019,0.013Zm0.021,-0.015c0.716,-0.522 1.448,-1 2.191,-1.429c1.118,-0.645 2.212,-1.151 3.269,-1.52c-1.057,0.37 -2.151,0.875 -3.269,1.52c-0.743,0.429 -1.475,0.907 -2.191,1.429Zm13.955,-2.666c-0.016,-0.009 -0.031,-0.017 -0.046,-0.025c0.015,0.008 0.03,0.016 0.046,0.025Z" style="fill:#f8f8f8;fill-rule:nonzero;"/><path d="M434.14,247.915l-16.649,-9.633l-9.271,-5.364c2.556,-4.466 5.946,-8.462 9.736,-11.228c0.006,-0.005 0.013,-0.01 0.019,-0.013c0.001,-0.001 0.001,-0.001 0.002,-0.002c0.716,-0.522 1.448,-1 2.191,-1.429c1.118,-0.645 2.212,-1.15 3.269,-1.52c1.49,-0.52 2.91,-0.773 4.229,-0.773c1.561,0 2.983,0.352 4.22,1.031c0.015,0.008 0.03,0.016 0.046,0.025c0.04,0.023 0.08,0.045 0.12,0.069l4.269,2.495c-0,0 2.819,4.394 2.819,9.658l-0,0.099c-0.024,5.375 -1.934,11.321 -5.001,16.585" style="fill:#16a5ff;fill-rule:nonzero;"/><path d="M434.139,247.915l-16.648,-9.633l16.649,9.633l-0.001,-0Z" style="fill:#43c0ba;fill-rule:nonzero;"/><path d="M417.491,238.282l-9.271,-5.363l-0,-0.001l9.271,5.364Z" style="fill:#00b2a7;fill-rule:nonzero;"/><path d="M425.763,257.94l-22.037,-12.755c0.667,-4.113 2.263,-8.368 4.494,-12.267l9.271,5.364l16.648,9.633c-2.259,3.88 -5.147,7.391 -8.376,10.025Z" style="fill:#16a5ff;fill-rule:nonzero;"/><path d="M407.658,251.832c-0,-10.709 7.518,-23.729 16.79,-29.082c9.274,-5.355 16.791,-1.015 16.791,9.694c-0,10.707 -7.517,23.728 -16.791,29.082c-9.272,5.353 -16.79,1.013 -16.79,-9.694Z" style="fill:#16a5ff;fill-rule:nonzero;"/><path d="M398.281,252.099l0.421,-0.036c-0.074,-0.849 -0.11,-1.705 -0.11,-2.567c-0.001,-6.873 2.31,-14.105 6.172,-20.331c3.86,-6.226 9.268,-11.441 15.42,-14.31c3.28,-1.531 6.455,-2.25 9.383,-2.25c4.378,0.002 8.21,1.595 11.086,4.52c2.872,2.926 4.79,7.199 5.26,12.585c0.075,0.848 0.111,1.705 0.111,2.567c0.001,6.873 -2.311,14.104 -6.172,20.33c-3.861,6.227 -9.268,11.441 -15.421,14.311c-3.279,1.53 -6.454,2.249 -9.384,2.249c-4.376,-0.002 -8.208,-1.595 -11.084,-4.52c-2.873,-2.926 -4.791,-7.199 -5.261,-12.584l-0.421,0.036l-0.421,0.037c0.482,5.544 2.468,10.016 5.5,13.103c3.031,3.088 7.105,4.776 11.687,4.773c3.069,-0 6.365,-0.752 9.742,-2.328c6.335,-2.958 11.845,-8.287 15.781,-14.632c3.934,-6.346 6.298,-13.713 6.299,-20.775c0,-0.886 -0.037,-1.767 -0.113,-2.641c-0.483,-5.543 -2.468,-10.016 -5.5,-13.103c-3.031,-3.088 -7.105,-4.775 -11.689,-4.774c-3.068,0 -6.363,0.753 -9.74,2.33c-6.336,2.957 -11.846,8.287 -15.781,14.631c-3.935,6.346 -6.298,13.713 -6.299,20.776c-0,0.886 0.037,1.766 0.113,2.64l0.421,-0.037Z" style="fill:#00b2a7;fill-rule:nonzero;"/><path d="M446.655,233.09l55.933,-32.293l-0.422,-0.732l-55.933,32.292" style="fill:#00b2a7;fill-rule:nonzero;"/><path d="M498.596,202.669c0,-2.472 1.736,-5.479 3.878,-6.716c2.141,-1.236 3.877,-0.233 3.877,2.239c-0,2.473 -1.736,5.48 -3.877,6.715c-2.142,1.236 -3.878,0.235 -3.878,-2.238Z" style="fill:#16a5ff;fill-rule:nonzero;"/><path d="M426.633,241.216l0,5.383l-4.37,2.524l0,-5.384l-1.965,1.136l4.15,-7.795l4.149,3.002l-1.964,1.134Zm7.687,-6.524l-0.213,0.123l-0,-1.64c-0,-3.676 -2.234,-5.366 -4.991,-3.773c-1.289,0.743 -2.426,2.26 -3.11,3.967c-0.493,-3.101 -2.725,-4.369 -5.407,-2.82c-3.312,1.912 -5.997,7.041 -5.997,11.457l-0,4.07l-0.025,0.015c-2.105,1.214 -3.81,4.474 -3.81,7.28c-0,2.807 1.705,4.096 3.81,2.881l19.743,-11.398c2.105,-1.215 3.811,-4.475 3.811,-7.281c-0,-2.806 -1.706,-4.095 -3.811,-2.881Z" style="fill:#f9f9f9;fill-rule:nonzero;"/><path d="M461.802,231.375l32.006,-18.359c0.557,-0.321 1.008,-0.093 1.008,0.51c0,0.602 -0.451,1.351 -1.008,1.672l-32.006,18.36c-0.557,0.322 -1.008,0.094 -1.008,-0.509c0,-0.603 0.451,-1.353 1.008,-1.674Z" style="fill:#335863;fill-rule:nonzero;"/><path d="M461.802,237.923l32.006,-18.361c0.557,-0.321 1.008,-0.092 1.008,0.51c0,0.603 -0.451,1.353 -1.008,1.674l-32.006,18.359c-0.557,0.321 -1.008,0.093 -1.008,-0.509c0,-0.603 0.451,-1.352 1.008,-1.673Z" style="fill:#335863;fill-rule:nonzero;"/><path d="M461.802,244.47l32.006,-18.36c0.557,-0.321 1.008,-0.093 1.008,0.51c0,0.602 -0.451,1.351 -1.008,1.673l-32.006,18.36c-0.557,0.321 -1.008,0.093 -1.008,-0.51c0,-0.603 0.451,-1.351 1.008,-1.673Z" style="fill:#335863;fill-rule:nonzero;"/><path d="M559.225,118.312c-0.106,-0.06 -0.197,-0.149 -0.267,-0.268l-3.332,-5.773l-0,-3.178l9.813,-3.836l-0,3.178l-1.189,3.434l5.832,-3.367l0.353,1.971l-3.473,11.341c-0.159,0.459 -0.683,0.606 -1.053,0.392c-0.104,-0.06 -6.314,-3.681 -6.684,-3.894Z" style="fill:#16a5ff;fill-rule:nonzero;"/><path d="M565.896,122.198c-0.339,-0.196 -6.309,-3.678 -6.671,-3.886c-0.106,-0.06 -0.197,-0.149 -0.267,-0.268l-0.354,-0.615l3.331,-1.914l3.71,6.423c0.065,0.114 0.152,0.201 0.251,0.26Z" style="fill:#16a5ff;fill-rule:nonzero;"/><path d="M570.082,108.502l0.353,1.971l-3.473,11.341c-0.204,0.589 -1.006,0.665 -1.317,0.124l-3.768,-6.524l0.435,-2.426l7.77,-4.486Z" style="fill:#16a5ff;fill-rule:nonzero;"/><path d="M566.273,122.303c-0.243,0 -0.487,-0.118 -0.628,-0.365l-3.71,-6.423l8.443,-4.853l-3.416,11.152c-0.11,0.32 -0.399,0.489 -0.689,0.489Z" style="fill:#16a5ff;fill-rule:nonzero;"/><path d="M583.612,60.073c-0,-2.026 -1.423,-4.49 -3.178,-5.503l0.002,0.006c-1.753,-1.014 -4.598,-1.014 -6.353,-0l-29.759,17.06c-1.755,1.014 -3.177,3.477 -3.177,5.503l-0,39.351c-0,2.026 1.422,4.489 3.177,5.502l-0.003,-0.005c1.754,1.013 4.598,1.013 6.353,-0l30.057,-17.278c2.854,-1.626 2.881,-3.259 2.881,-5.285l-0,-39.351Z" style="fill:#16a5ff;fill-rule:nonzero;"/><path d="M549.058,122.586c0.377,-0.081 0.738,-0.192 1.073,-0.333c-0.308,0.117 -0.602,0.173 -0.872,0.173c-1.044,0 -1.762,-0.835 -1.762,-2.272l0,-39.352c0,-1.013 0.356,-2.135 0.931,-3.131l-6.351,-3.663c-0.319,0.553 -0.57,1.144 -0.731,1.734c0.45,-1.654 1.613,-3.318 2.978,-4.106l29.759,-17.06c0.878,-0.508 2.028,-0.761 3.177,-0.761c1.15,0 2.3,0.253 3.176,0.761l-0.002,-0.006c1.755,1.013 3.178,3.477 3.178,5.503l-0,39.351c-0,2.026 -0.027,3.659 -2.881,5.285l-10.353,5.953l-8.443,4.853l-3.331,1.914l-7.93,4.558c-0.474,0.273 -1.026,0.474 -1.616,0.599Zm-4.329,-0.39c-0.142,-0.064 -0.278,-0.134 -0.408,-0.209c0.13,0.075 0.266,0.145 0.408,0.209Zm-3.582,-5.706l-0,-39.411l-0,39.411Z" style="fill:#16a5ff;fill-rule:nonzero;"/><path d="M547.496,122.748c-0.978,0 -1.956,-0.184 -2.767,-0.552c0.81,0.368 1.789,0.551 2.768,0.551c0.53,0 1.058,-0.054 1.561,-0.161c-0.503,0.108 -1.032,0.162 -1.562,0.162Zm-6.349,-45.669c0.006,-0.433 0.076,-0.885 0.199,-1.337c-0.123,0.452 -0.193,0.904 -0.199,1.337Z" style="fill:#c3c5c5;fill-rule:nonzero;"/><path d="M547.497,122.747c-0.979,0 -1.958,-0.183 -2.768,-0.551c-0.142,-0.064 -0.278,-0.134 -0.408,-0.209l0.003,0.005c-1.755,-1.013 -3.177,-3.476 -3.177,-5.502l-0,-39.411c0.006,-0.433 0.076,-0.885 0.199,-1.337c0.161,-0.59 0.412,-1.181 0.731,-1.734l6.351,3.663c-0.575,0.996 -0.931,2.118 -0.931,3.131l0,39.352c0,1.437 0.718,2.272 1.762,2.272c0.27,0 0.564,-0.056 0.872,-0.173c-0.335,0.141 -0.696,0.252 -1.073,0.333c-0.503,0.107 -1.031,0.161 -1.561,0.161Z" style="fill:#16a5ff;fill-rule:nonzero;"/><path d="M583.506,59.17c-0.37,-1.349 -1.599,-1.779 -3.067,-0.934l-29.767,17.067c-0.874,0.504 -1.675,1.364 -2.238,2.371l-6.347,-3.659c0.578,-1.008 1.363,-1.867 2.238,-2.371l29.752,-17.067c1.764,-1.007 4.609,-1.007 6.358,0l0.004,-0.001c1.497,0.859 2.757,2.786 3.067,4.594Z" style="fill:#16a5ff;fill-rule:nonzero;"/><path d="M568.382,104.215c0,0.352 -0.082,0.703 -0.249,1.055c-0.166,0.351 -0.362,0.592 -0.591,0.724l-3.919,2.262c-0.23,0.133 -0.425,0.119 -0.592,-0.041c-0.165,-0.16 -0.248,-0.414 -0.248,-0.767l-0,-4.837c-0,-0.352 0.083,-0.703 0.248,-1.054c0.167,-0.351 0.362,-0.592 0.592,-0.725l3.919,-2.263c0.229,-0.131 0.425,-0.117 0.591,0.042c0.167,0.159 0.249,0.415 0.249,0.766l0,4.838Zm-2.706,-31.152c1.161,-0.67 2.256,-1.054 3.282,-1.152c1.027,-0.098 1.917,0.074 2.676,0.514c0.756,0.443 1.353,1.135 1.788,2.081c0.436,0.946 0.655,2.138 0.655,3.575c-0,1.149 -0.126,2.227 -0.374,3.233c-0.249,1.006 -0.566,1.97 -0.949,2.894c-0.384,0.925 -0.805,1.798 -1.261,2.62c-0.456,0.822 -0.897,1.628 -1.322,2.416c-0.425,0.789 -0.809,1.577 -1.151,2.365c-0.342,0.789 -0.574,1.569 -0.7,2.345c-0.061,0.387 -0.161,0.747 -0.295,1.079c-0.136,0.335 -0.317,0.567 -0.543,0.698l-3.797,2.192c-0.228,0.132 -0.426,0.118 -0.591,-0.042c-0.167,-0.158 -0.25,-0.414 -0.25,-0.766c0,-1.054 0.141,-2.077 0.421,-3.069c0.279,-0.993 0.626,-1.951 1.041,-2.878c0.415,-0.925 0.866,-1.816 1.355,-2.672c0.487,-0.856 0.937,-1.668 1.353,-2.435c0.415,-0.766 0.762,-1.501 1.042,-2.204c0.28,-0.706 0.42,-1.377 0.42,-2.016c0,-0.926 -0.229,-1.522 -0.685,-1.784c-0.456,-0.264 -1.161,-0.119 -2.115,0.431c-0.933,0.539 -1.602,1.14 -2.007,1.804c-0.404,0.666 -0.7,1.308 -0.886,1.926c-0.187,0.619 -0.348,1.182 -0.482,1.691c-0.135,0.51 -0.399,0.876 -0.794,1.105l-3.795,2.191c-0.188,0.107 -0.348,0.105 -0.482,-0.01c-0.136,-0.113 -0.203,-0.33 -0.203,-0.649c0.021,-1.128 0.227,-2.422 0.622,-3.879c0.394,-1.457 0.959,-2.917 1.695,-4.379c0.737,-1.464 1.635,-2.837 2.693,-4.118c1.057,-1.281 2.269,-2.316 3.639,-3.107Z" style="fill:#f9f9f9;fill-rule:nonzero;"/><path d="M575.357,183.286c8.027,-2.084 13.528,1.104 15.896,9.146c2.223,7.549 6.794,25.975 7.972,30.856c0.528,2.186 -16.257,21.253 -15.661,20.972c0.182,-0.086 -5.264,-9.475 -5.264,-9.475l8.184,-12.245l-4.853,-13.473l-6.274,-25.781Z" style="fill:#f69da3;fill-rule:nonzero;"/><path d="M558.837,178.372l1.504,15.674l14.01,-0.871l-1.121,-17.383l-14.393,2.58Z" style="fill:#f69da3;fill-rule:nonzero;"/><path d="M548.444,161.171c0,0 -3.102,4.611 -2.697,5.097c0.404,0.488 2.376,1.007 2.376,1.007l0.321,-6.104Z" style="fill:#f48a8f;fill-rule:nonzero;"/><path d="M581.849,147.44c-0.021,-0.424 -0.059,-0.844 -0.217,-1.261c-0.309,-0.815 -0.873,-1.568 -1.458,-2.202c-1.19,-1.291 -2.741,-2.233 -4.359,-2.886c-2.525,-1.02 -5.267,-1.433 -7.983,-1.357c-2.611,0.074 -5.056,0.586 -7.68,0.109c-1.973,-0.358 -3.924,-0.919 -5.928,-0.976c-2.005,-0.058 -4.144,0.474 -5.49,1.959c-0.983,1.083 -1.443,2.575 -1.445,4.036c-0.004,1.463 0.421,2.899 1.026,4.229c-1.949,1.387 -2.402,4.242 -1.569,6.484c1.142,3.071 4.101,4.937 6.494,6.957c1.879,1.588 3.68,3.267 5.394,5.032c0.818,0.841 1.699,1.685 2.425,2.607l0.135,0.191c-0.992,0.198 -1.974,-0.158 -1.974,-0.158c-0,-0 -0.386,6.947 4.535,9.187c-0,-0 4.639,1.066 9.671,-0.556c3.187,-2.353 6.127,-5.907 8.575,-9.968c4.872,-8.082 3.989,-16.643 -0.152,-21.427Z" style="fill:#0c2b34;fill-rule:nonzero;"/><path d="M563.707,168.826c-0.636,0.936 -1.534,1.343 -2.506,1.535c-0.996,0.204 -1.978,-0.155 -1.978,-0.155c-0,-0 -0.289,5.264 2.877,8.083c-0.648,0.263 -1.235,0.468 -1.739,0.623c-2.818,0.852 -8.239,0.493 -9.282,-0.491c-1.56,-1.476 -4.103,-5.361 -2.723,-16.575c0.563,-4.581 1.798,-7.736 3.274,-9.967c0.229,1.595 1.318,3.034 2.782,3.67c-0.815,1.103 -1.103,2.578 -0.755,3.898c0.408,1.583 1.607,2.831 2.759,3.982c0.072,0.072 0.143,0.143 0.24,0.168c0.167,0.06 0.887,-0 0.995,-0.145c0.995,-1.463 2.363,-3.166 5.049,-2.278c3.106,1.019 2.951,4.81 1.007,7.652Z" style="fill:#f69da3;fill-rule:nonzero;"/><path d="M551.364,178.618c1.27,0.699 4.871,0.988 7.553,0.597l-0.08,-2.013c0,-0 -1.501,0.694 -3.574,1.164c-2.062,0.467 -3.876,0.255 -3.899,0.252Z" style="fill:#f48a8f;fill-rule:nonzero;"/><path d="M556.202,167.384c-1.378,-0.489 -2.092,-1.984 -1.593,-3.338c0.497,-1.354 2.018,-2.056 3.395,-1.566l-1.802,4.904Z" style="fill:#0c2b34;fill-rule:nonzero;"/><path d="M587.449,136.818c-1.536,-0.367 -3.071,-0.278 -4.475,0.165c-0.687,-0.871 -1.643,-1.538 -2.807,-1.816c-2.744,-0.654 -5.5,1.04 -6.155,3.785c-0.595,2.495 0.761,4.98 3.071,5.908c-0.066,3.641 2.251,6.979 5.792,8.137c0.093,2.227 1.623,4.216 3.898,4.758c2.745,0.655 5.501,-1.039 6.156,-3.785c0.337,-1.408 0.046,-2.814 -0.679,-3.942c0.663,-0.89 1.16,-1.924 1.433,-3.071c1.079,-4.521 -1.713,-9.062 -6.234,-10.139Z" style="fill:#0c2b34;fill-rule:nonzero;"/><path d="M559.868,381.361c0,0 0.872,2.482 1.36,4.657c0.387,1.729 0.949,4.621 0.367,5.94c-0.584,1.318 -3.144,2.25 -6.783,2.785c-2.924,0.43 -5.292,1.752 -8.997,3.249c-2.787,1.126 -5.192,1.932 -10.169,1.655c-4.732,-0.261 -6.773,-2.468 -7.328,-3.813c-0.555,-1.345 -1.038,-3.193 7.765,-6.202c0.073,-0.025 10.65,-3.702 14.301,-7.891l9.484,-0.38Z" style="fill:#0c2b34;fill-rule:nonzero;"/><path d="M559.873,381.606l-1.695,-0.178l-7.794,0.313c-3.651,4.189 -14.228,7.866 -14.301,7.891c-0.5,0.172 -0.967,0.338 -1.408,0.502c-1.512,1.27 -0.17,3.358 3.495,3.612c3.663,0.253 14.97,-3.802 17.468,-5.065c2.497,-1.263 4.3,-3.726 4.235,-7.075Z" style="fill:#f69da3;fill-rule:nonzero;"/><path d="M559.808,378.256c-0,-0 0.031,2.132 0.065,3.35c0.034,1.217 -1.369,3.061 -5.095,3c-2.617,-0.043 -4.457,-0.71 -4.394,-2.865l-0.062,-3.105l9.486,-0.38Z" style="fill:#f69da3;fill-rule:nonzero;"/><path d="M584.605,366.366c0.525,0.05 0.671,0.781 1.079,3.813c0.259,1.926 0.73,4.554 -1.144,5.864c-2.512,1.757 -6.449,1.225 -7.893,-0.615c-1.802,-2.297 -3.016,-4.317 -5.592,-7.122c-2.233,-2.435 -5.126,-4.609 -6.168,-7.961c-1.165,-3.756 -0.055,-5.474 2.481,-5.733c2.142,-0.218 4.727,0.563 7.132,2.474c1.014,0.595 1.928,1.124 2.626,1.324c1.936,0.557 6.758,7.889 7.479,7.956Z" style="fill:#0c2b34;fill-rule:nonzero;"/><path d="M584.62,364.491l-0.024,3.15c0,-0 -2.028,4.164 -7.962,0.156c-0.135,-0.304 -0.778,-6.386 -0.778,-6.386l8.764,3.08Z" style="fill:#f69da3;fill-rule:nonzero;"/><path d="M577.126,358.41c-0.697,-0.2 -1.612,-0.729 -2.625,-1.324c-2.376,-0.71 -7.331,0.262 -5.024,3.649c2.482,3.64 5,5.506 7.158,7.062c2.673,1.254 3.569,-0.382 3.569,-0.382l-1.081,-7.364c-0.78,-0.857 -1.49,-1.495 -1.997,-1.641Z" style="fill:#f69da3;fill-rule:nonzero;"/><path d="M588.043,320.847c-1.365,-10.303 -3.725,-16.23 -3.725,-16.23c-0,-0 1.709,-13.938 3.009,-27.306c3.051,-31.375 0.599,-31.832 -4.039,-42.628c-0,-0 -40.233,-4.378 -41.585,12.345c-1.683,20.826 0.049,61.109 0.547,68.475c0.499,7.366 1.159,10.686 3.649,26.088c1.896,11.718 3.978,37.386 3.978,37.386c5.322,2.928 10.316,-0.729 10.316,-0.729c0,0 4.411,-31.702 4.128,-40.198c-0.345,-10.375 -3.084,-18.563 -3.084,-18.563c0,-0 2.748,-33.939 3.516,-39.34c0,-0 1.177,10.782 1.676,18.147c0.499,7.365 2.633,14.413 4.66,28.102c1.76,11.874 4.784,36.68 4.784,36.68c5.322,2.929 8.97,1.48 8.97,1.48c-0,-0 4.566,-33.407 3.2,-43.709Z" style="fill:#fff;fill-rule:nonzero;"/><path d="M554.252,380.112c-1.358,0 -2.854,-0.298 -4.375,-1.135c0,0 -2.082,-25.668 -3.978,-37.386c-2.49,-15.402 -3.15,-18.722 -3.649,-26.088c-0.342,-5.057 -1.266,-25.628 -1.266,-44.767c-0,-8.739 0.191,-17.18 0.719,-23.708c0.888,-10.976 18.526,-12.863 30.542,-12.863c6.292,0 11.043,0.518 11.043,0.518c3.222,7.501 5.39,10.011 5.389,21.369c-0,4.989 -0.419,11.685 -1.35,21.259c-1.3,13.368 -3.009,27.306 -3.009,27.306c-0,-0 2.36,5.927 3.725,16.23c0.178,1.338 0.255,3.066 0.255,5.06c0.002,13.357 -3.455,38.649 -3.455,38.649c-0,-0 -0.902,0.358 -2.464,0.358c-0.727,-0 -1.597,-0.077 -2.587,-0.305c-1.157,-0.267 -2.477,-0.739 -3.919,-1.533c-0,-0 -0.267,-2.196 -0.69,-5.593c-0.997,-8.023 -2.857,-22.745 -4.094,-31.087c-2.027,-13.689 -4.161,-20.737 -4.66,-28.102c-0.016,-0.234 -0.033,-0.472 -0.05,-0.713c0.046,0.605 0.092,1.21 0.137,1.816l0.431,-16.604l1.782,-15.103c10.619,-2.547 13.146,-7.948 13.146,-7.948c-6.772,5.463 -13.932,5.729 -15.261,5.729c-0.143,0 -0.218,-0.003 -0.218,-0.003l-1.643,14.679c-0.768,5.401 -3.516,39.34 -3.516,39.34c0,-0 2.739,8.188 3.084,18.563c0.01,0.266 0.013,0.554 0.013,0.863c-0.002,9.583 -4.141,39.335 -4.141,39.335c0,0 -2.546,1.864 -5.941,1.864Z" style="fill:#fff;fill-rule:nonzero;"/><path d="M565.724,289.794c-0.481,-5.161 -0.971,-9.647 -0.971,-9.647c0.353,3.199 0.676,6.415 0.971,9.647Z" style="fill:#00907c;fill-rule:nonzero;"/><path d="M566.379,297.581c-0.2,-2.606 -0.419,-5.202 -0.655,-7.787c0.242,2.586 0.481,5.341 0.655,7.787Z" style="fill:#c7c9c9;fill-rule:nonzero;"/><path d="M566.516,299.397c-0.045,-0.606 -0.091,-1.211 -0.137,-1.816c-0.174,-2.446 -0.413,-5.201 -0.655,-7.787c-0.295,-3.232 -0.618,-6.448 -0.971,-9.647l1.643,-14.679c-0,-0 0.075,0.003 0.218,0.003c1.329,0 8.489,-0.266 15.261,-5.729c0,-0 -2.527,5.401 -13.146,7.948l-1.782,15.103l-0.431,16.604Z" style="fill-opacity:0.05;fill-rule:nonzero;"/><path d="M585.134,189.083c-1.364,-4.044 -5.252,-6.826 -9.972,-5.768l-1.469,0.314c-0.431,2.251 -7.683,4.173 -14.214,1.867l-6.189,0.985c-5.777,2.692 -9.987,9.572 -13.025,16.407c-2.135,4.8 -1.165,9.748 3.193,13.549c0,-0 -0.537,8.196 -0.818,12.787c-0.418,6.855 -0.865,13.709 -1.341,20.564c-0,-0 10.223,5.478 26.36,3.358c14.441,-1.897 20.85,-10.403 20.353,-9.311c-0,0 -2.996,-10.422 -8.249,-21.013c7.605,-18.683 7.394,-27.737 5.371,-33.739Z" style="fill:#004fff;fill-rule:nonzero;"/><path d="M516.847,220.893c-3.552,-2.861 -6.953,-5.912 -10.41,-8.888c-2.757,-2.374 -5.532,-4.728 -8.325,-7.062c-0.693,-0.58 -1.37,-1.202 -2.093,-1.743c-0.662,-0.496 -1.45,-0.861 -2.174,-1.269c-1.584,-0.891 -3.169,-1.784 -4.766,-2.655c-0.983,-0.535 -1.863,-0.986 -2.765,-1.697c-0.952,-0.75 -1.858,-1.558 -2.713,-2.417c-0.678,-0.682 -1.341,-1.429 -1.625,-2.349c-0.186,-0.604 -0.197,-1.249 -0.19,-1.882c0.005,-0.6 0.028,-1.217 0.262,-1.77c0.383,-0.903 1.333,-1.163 1.797,-1.921c0.427,-0.696 0.12,-1.661 0.709,-2.326c0.333,-0.374 0.842,-0.521 1.298,-0.723c0.9,-0.397 1.058,-0.888 0.662,-1.708c-0.386,-0.8 -0.808,-1.584 -1.24,-2.361c-1.319,-2.377 -1.81,-4.276 -0.643,-4.897c1.621,-0.861 3.034,1.599 4.937,4.418c1.917,2.841 3.521,5.697 6.224,7.887c0.212,-1.524 0.423,-3.047 0.633,-4.571c0.082,-0.593 0.174,-1.213 0.525,-1.7c0.35,-0.486 1.046,-0.781 1.567,-0.486c0.448,0.253 0.602,0.811 0.716,1.312c0.332,1.472 0.666,2.945 0.999,4.418c0.393,1.732 0.793,3.489 1.637,5.052c1.174,2.178 3.119,3.823 5.07,5.345c5.563,4.339 11.405,8.281 17.292,12.135l0.036,0.023c-0,-0 14.103,-13.421 18.007,-17.086c3.903,-3.664 6.323,-5.144 12.176,-5.664c-0,-0 4.655,10.58 -1.961,18.759c-0,-0 -21.416,16.329 -25.527,18.135c-3.472,1.526 -6.488,0.611 -10.115,-2.309Z" style="fill:#f69da3;fill-rule:nonzero;"/><path d="M559.705,253.63c2.466,0.029 5.136,-0.105 7.996,-0.481c13.168,-1.729 19.789,-8.944 20.337,-9.382c-0.194,-0.888 -3.22,-10.837 -8.233,-20.942c3.843,-9.44 5.688,-16.419 6.315,-21.792c-0.628,3.916 -6.418,19.087 -13.99,23.638c-0,-0 4.273,0.664 7.929,5.684c3.652,5.011 0.657,22.198 -20.354,23.275Z" style="fill:#004fff;fill-rule:nonzero;"/><path d="M252.689,222.653c0.038,-1.433 0.213,-2.867 0.484,-4.276c0.252,-1.303 0.876,-2.662 1.808,-3.416c0.449,-0.362 0.751,-0.362 0.751,-0.362l0.002,4.994c0.597,1.545 1.802,2.801 3.217,3.636c0.258,0.153 0.529,0.293 0.822,0.352c0.294,0.058 0.617,0.028 0.864,-0.143c0.492,-0.336 0.292,-0.81 0.127,-1.263c-0.505,-1.4 -0.697,-2.911 -0.556,-4.393c0.036,-0.387 0.102,-0.788 0.332,-1.101c0.231,-0.312 0.671,-0.501 1.02,-0.331c0.263,0.128 0.404,0.413 0.526,0.678c0.745,1.612 1.355,3.385 2.454,4.78c2.113,2.678 2.01,4.889 4.073,7.481c0.769,0.97 9.355,8.368 16.12,13.663c12.723,-12.828 20.02,-22.016 24.932,-20.001c5.513,1.143 8.789,7.405 1.988,14.17c-5.473,5.443 -17.963,15.31 -22.376,18.168c-3.478,2.254 -6.646,4.088 -10.993,-0.288c-5.605,-5.643 -8.72,-9.882 -11.054,-12.559c-1.842,-2.108 -4.101,-3.899 -6.428,-5.466c-1.029,-0.693 -2.089,-1.338 -3.109,-2.043c-0.893,-0.618 -1.599,-1.41 -2.234,-2.294c-1.239,-1.724 -2.044,-3.745 -2.445,-5.824c-0.265,-1.371 -0.36,-2.766 -0.325,-4.162Z" style="fill:#f69da3;fill-rule:nonzero;"/><path d="M284.733,242.952c-1.81,1.359 -3.483,5.259 -3.483,5.259c0,-0 -0.01,-3.646 2.172,-6.301l1.311,1.042Z" style="fill:#f48a8f;fill-rule:nonzero;"/><path d="M314.482,224.268c-3.15,-2.467 -7.921,-3.491 -12.793,0.671c-4.512,3.854 -14.357,13.797 -14.357,13.797c-0,0 -0.227,3.903 2.678,8.201c2.905,4.298 5.308,4.848 5.308,4.848l15.794,-12.813l3.37,-14.704Z" style="fill:#fff;fill-rule:nonzero;"/><path d="M365.297,433.984c0.46,2.284 -0.366,3.476 -3.313,5.177c-2.947,1.702 -7.574,2.287 -12.44,0.87c-4.866,-1.415 -7.192,-3.539 -9.215,-4.044c-2.023,-0.506 -7.026,-0.55 -9.024,-1.134c-1.999,-0.586 -1.969,-1.61 -1.958,-4.013l35.95,3.144Z" style="fill:#335863;fill-rule:nonzero;"/><path d="M331.305,419.257c0,-0 -0.949,2.877 -1.461,5.395c-0.407,1.999 -0.989,5.342 -0.288,6.847c0.7,1.505 3.432,2.476 7.668,2.444c2.744,-0.021 7.019,1.841 9.947,3.475c3.023,1.688 6.305,1.694 9.502,1.318c3.77,-0.442 7.674,-2.628 8.283,-4.189c0.609,-1.56 0.767,-2.732 -8.115,-6.516c-0.081,-0.035 -10.307,-3.808 -14.604,-8.551l-10.932,-0.223Z" style="fill:#fff;fill-rule:nonzero;"/><path d="M353.598,438.937c-2.189,0 -4.368,-0.369 -6.427,-1.519c-2.911,-1.624 -7.156,-3.475 -9.901,-3.475l-0.046,-0c-0.069,0.001 -0.138,0.001 -0.207,0.001c-4.118,-0 -6.773,-0.965 -7.461,-2.445c-0.238,-0.508 -0.328,-1.227 -0.328,-2.033c-0,-1.578 0.346,-3.491 0.616,-4.814c0.512,-2.518 1.461,-5.395 1.461,-5.395l10.932,0.223c4.297,4.743 14.523,8.516 14.604,8.551c6.939,2.956 8.361,4.318 8.36,5.516c0,0.336 -0.112,0.659 -0.245,1c-0.609,1.561 -4.513,3.747 -8.283,4.189c-1.02,0.12 -2.048,0.201 -3.075,0.201Z" style="fill:#fff;fill-rule:nonzero;"/><path d="M348.383,438.001c0,-0 0.762,-7.626 6.961,-9.808c5.604,-1.972 10.498,2.182 9.953,5.791c-0.367,2.428 -7.189,7.944 -16.914,4.017Z" style="fill:#f9f9f9;fill-rule:nonzero;"/><path d="M353.775,426.765c0,-0 -1.998,-0 -4.231,1.879c-1.788,1.504 -1.84,2.504 -1.84,2.504c-0.408,0.625 -1.721,0.283 -1.616,-0.773c-0,-0 0.416,-3.847 5.478,-4.635c-0,0 1.392,-0.347 2.209,1.025Z" style="fill:#f9f9f9;fill-rule:nonzero;"/><path d="M350.23,425.068c-0,-0 -2.039,-0.182 -4.273,1.697c-1.787,1.504 -1.798,2.686 -1.798,2.686c-0.408,0.625 -1.721,0.283 -1.617,-0.774c-0,0 0.417,-3.847 5.478,-4.634c0,-0 1.393,-0.347 2.21,1.025Z" style="fill:#f9f9f9;fill-rule:nonzero;"/><path d="M346.712,423.059c-0,0 -2.022,-0.321 -4.378,1.403c-1.887,1.377 -1.978,2.555 -1.978,2.555c-0.45,0.598 -1.736,0.165 -1.561,-0.881c0,-0 0.679,-3.809 5.783,-4.25c0,-0 1.413,-0.251 2.134,1.173Z" style="fill:#f9f9f9;fill-rule:nonzero;"/><path d="M331.305,412.786c0,-0 0.012,5.35 0,6.753c-0.013,1.403 1.644,3.494 5.934,3.341c3.014,-0.107 5.117,-0.918 4.998,-3.4l-0,-6.142l-10.932,-0.552Z" style="fill:#f69da3;fill-rule:nonzero;"/><path d="M326.89,394.148c0.153,1.932 0.4,3.669 -0.351,5.793c-1.075,3.051 -3.352,4.447 -4.687,5.65c-1.335,1.202 -2.823,2.981 -3.893,4.717c-0.95,1.544 -2.028,3.316 -4.062,5.079c-1.269,1.1 -4.842,1.197 -6.563,0.473c-1.724,-0.724 -2.301,-1.372 -2.194,-4.123c0.104,-2.689 8.446,-3.689 8.446,-3.689l13.304,-13.9Z" style="fill:#335863;fill-rule:nonzero;"/><path d="M306.219,403.533c-0.712,0.269 -0.892,1.624 -0.999,4.319c-0.082,2.039 -0.939,5.024 1.869,6.31c2.266,1.037 5.887,0.347 7.419,-1.576c1.91,-2.398 3.201,-4.509 5.928,-7.437c2.365,-2.539 4.828,-3.395 5.878,-8.47c0.676,-3.262 0.144,-4.614 -2.051,-5.549c-3.019,-1.287 -7.762,2.917 -10.127,3.579c-2.038,0.569 -7.206,8.554 -7.917,8.824Z" style="fill:#fff;fill-rule:nonzero;"/><path d="M309.522,414.643c-0.874,0 -1.721,-0.155 -2.433,-0.481c-1.695,-0.776 -2.055,-2.171 -2.056,-3.603c-0.001,-0.941 0.154,-1.899 0.187,-2.707c0.107,-2.695 0.287,-4.05 0.999,-4.319c0.711,-0.27 5.879,-8.255 7.917,-8.824c2.055,-0.575 5.903,-3.823 8.858,-3.823c0.447,-0 0.873,0.074 1.269,0.244c1.612,0.686 2.327,1.598 2.326,3.326c-0.001,0.625 -0.095,1.356 -0.275,2.223c-1.05,5.075 -3.513,5.931 -5.878,8.47c-2.727,2.928 -4.018,5.039 -5.928,7.437c-1.05,1.319 -3.082,2.057 -4.986,2.057Z" style="fill:#fff;fill-rule:nonzero;"/><path d="M314.136,394.709c0.126,-0.036 0.262,-0.086 0.402,-0.14c4.357,0.379 6.098,3.379 6.535,4.286c0.404,0.888 -0.837,1.58 -1.575,0.888c-1.688,-3.352 -5.152,-4.094 -6.531,-4.26c0.445,-0.397 0.848,-0.685 1.169,-0.774Z" style="fill:#f9f9f9;fill-rule:nonzero;"/><path d="M312.184,396.245c4.024,0.54 5.65,3.374 6.072,4.25c0.402,0.888 -0.839,1.579 -1.577,0.888c-1.336,-2.658 -3.797,-3.677 -5.447,-4.067c0.325,-0.382 0.645,-0.746 0.952,-1.071Z" style="fill:#f9f9f9;fill-rule:nonzero;"/><path d="M305.813,398.664l0.406,5.682c-0,-0 3.439,2.644 8.36,0.226c0.146,-0.319 0.564,-5.399 0.564,-5.399l-9.33,-0.509Z" style="fill:#f69da3;fill-rule:nonzero;"/><path d="M324.929,400.436c-0,-0 -0.238,-6.042 -8.402,-6.881l-0.469,0.265c0,0 1.301,-2.369 4.017,-3.102c2.716,-0.731 4.858,-0.029 6.283,1.807c1.425,1.835 -0.019,6.732 -1.429,7.911Z" style="fill:#f9f9f9;fill-rule:nonzero;"/><path d="M303,360.042c1.166,-9.947 3.228,-15.887 3.228,-15.887c0,-0 -1.39,-13.612 -2.201,-26.53c-0.357,-5.68 -0.535,-11.961 -0.646,-17.645c-0.16,-8.278 0.717,-15.156 1.419,-18.823c-0,-0 39.975,-9.418 41.142,6.709c1.314,18.14 1.421,58.991 1.155,64.05c-0.372,7.104 -0.388,14.491 -1.595,26.019c-1.189,11.378 -3.185,36.997 -3.185,36.997c-5.763,2.069 -12.045,-0 -12.045,-0c0,-0 -3.341,-30.926 -3.192,-39.117c0.182,-10.001 2.702,-17.931 2.702,-17.931l-5.379,-44.962c-0,-0 -0.539,19.998 -0.911,27.103c-0.373,7.105 -1.349,11.439 -3.103,24.658c-1.523,11.469 -5.473,34.594 -5.473,34.594c-5.27,2.103 -9.572,0 -9.572,0c0,0 -3.509,-29.287 -2.344,-39.235Z" style="fill:#004fff;fill-rule:nonzero;"/><path d="M309.178,304.252c0,0 5.241,7.045 11.982,10.068c-0,0 2.931,24.761 2.908,24.269l0.764,-24.919c-0,-0 -10.073,-4.682 -15.654,-9.418Z" style="fill:#0c2b34;fill-opacity:0.32;fill-rule:nonzero;"/><path d="M330.273,217.279l-0.69,14.738l-14.61,-0.781l0.451,-17.128l14.849,3.171Z" style="fill:#f69da3;fill-rule:nonzero;"/><path d="M301.019,230.847c1.223,-4.021 6.082,-9.474 11.171,-8.647c1.182,0.192 1.437,0.36 2.558,0.558c0.61,2.484 8.212,3.411 14.716,1.88c1.961,0.514 8.648,2.882 10.281,3.424c4.674,1.552 5.47,6.139 6.197,21.387c0,-0 0.741,30.992 0.794,43.546c-13.295,6.171 -23.4,4.667 -30.129,3.356c-14.006,-2.731 -13.315,-4.997 -13.315,-4.997c0.596,-8.366 0.235,-15.084 0,-23.345c-0.175,-6.204 -0.746,-10.695 -2.173,-17.601c-1.92,-9.304 -0.939,-16.801 -0.1,-19.561Z" style="fill:#004fff;fill-rule:nonzero;"/><path d="M411.141,264.23c-0.035,-0.523 -0.453,-0.958 -0.93,-1.173c-0.479,-0.215 -1.014,-0.254 -1.537,-0.299c-3.121,-0.266 -6.216,-0.842 -9.223,-1.719c-0.801,-0.233 -1.714,-0.606 -1.919,-1.413c-0.25,-0.977 0.68,-1.798 1.334,-2.565c0.734,-0.859 1.197,-1.942 1.33,-3.064c0.079,-0.667 -0.131,-2.073 -1.21,-1.376c-0.496,0.319 -1.832,1.342 -4.961,2.684c-3.137,1.34 -4.489,2.838 -7.541,4.128c-1.139,0.482 -11.834,3.365 -20.307,4.778c-11.304,-13.227 -19.572,-33.075 -24.849,-33.655c-5.389,-1.635 -9.015,9.935 -5.191,18.065c3.285,6.985 16.5,21.15 19.256,24.246c2.755,3.096 4.773,6.773 10.682,5.01c7.622,-2.273 12.385,-4.505 15.717,-5.74c2.155,-0.804 4.652,-1.983 6.961,-2.234c1.26,-0.138 2.35,-0.219 3.577,0.056c1.335,0.298 2.666,0.616 3.993,0.953c2.027,0.515 4.066,0.791 6.169,0.857c0.991,0.031 2.027,-0.007 2.9,-0.476c0.643,-0.346 1.137,-0.895 1.585,-1.459c0.399,-0.499 0.938,-0.821 1.349,-1.317c0.575,-0.696 0.904,-1.664 0.614,-2.519c0.504,-0.107 1.021,-0.219 1.456,-0.496c0.436,-0.276 0.779,-0.756 0.745,-1.272Z" style="fill:#f69da3;fill-rule:nonzero;"/><path d="M340.174,228.81c4.87,0.958 5.474,2.877 8.676,8.305c3.2,5.429 10.337,17.726 10.337,17.726c-0,0 -2.006,7.232 -11.096,10.658c0,0 -8.472,-9.699 -12.132,-16.222c-3.66,-6.521 -3.085,-17.093 4.215,-20.467Z" style="fill:#fff;fill-rule:nonzero;"/><path d="M340.1,199.196c0,0 3.482,5.284 3.086,5.804c-0.397,0.519 -2.959,0.987 -2.959,0.987l-0.127,-6.791Z" style="fill:#f48a8f;fill-rule:nonzero;"/><path d="M330.43,184.578c7.048,1.487 9.083,4.584 9.746,15.78c0.694,11.697 -0.5,15.375 -2.037,16.951c-1.037,1.062 -6.802,1.254 -9.71,0.452c-3.641,-1.003 -11.866,-3.918 -15.719,-9.802c-4.532,-6.924 -5.723,-16.306 -0.871,-20.155c6.829,-5.417 15.723,-3.831 18.591,-3.226Z" style="fill:#f69da3;fill-rule:nonzero;"/><path d="M330.146,218.087c-0,0 -1.972,-0.348 -3.713,-0.936c0,0 1.02,1.382 3.538,2.039l0.175,-1.103Z" style="fill:#f48a8f;fill-rule:nonzero;"/><path d="M341.6,188.902c-0.525,0.557 -1.156,1.008 -1.799,1.425c-0.943,0.609 -1.927,1.156 -2.944,1.634c-0.954,0.449 -1.999,0.724 -2.862,1.339c-1.278,0.912 -1.442,2.12 -1.476,3.59c-0.022,0.962 -0.018,2.155 -0.032,3.449c-0.022,1.941 -1.262,3.419 -1.867,0.816c0,0 -1.115,-4.324 -4.759,-3.781c-3.667,0.547 -3.964,4.651 -2.227,7.875c1.057,1.96 3.889,1.447 3.889,1.447c0,0 0.642,5.39 -3.806,9.805c-0,-0 -2.89,1.51 -8.621,0.289c-3.931,-5.403 -6.4,-8.027 -8.494,-12.69c-4.43,-9.865 -2.292,-16.053 1.133,-18.661c0.681,-4.545 4.261,-6.583 8.34,-7.52c6.102,-1.402 11.807,2.221 17.841,0.869c0.981,-0.219 1.996,-0.455 2.944,-0.772c0.387,-0.129 0.822,-0.258 1.191,-0.082c0.468,0.224 0.605,0.831 0.569,1.349c-0.077,1.164 -0.764,2.27 -1.773,2.857c0.123,-0.072 0.709,0.088 0.873,0.098c0.336,0.023 0.676,0.028 1.014,0.036c0.654,0.016 1.325,-0.08 1.981,-0.141c0.458,-0.041 0.927,-0.082 1.368,0.047c1.013,0.294 1.593,1.432 1.564,2.484c-0.031,1.054 -0.538,2.031 -1.088,2.929c-0.223,0.363 -0.455,0.722 -0.728,1.049c-0.074,0.089 -0.151,0.176 -0.231,0.26Z" style="fill:#0c2b34;fill-rule:nonzero;"/><path d="M307.627,186.961l-4.217,-2.487c0.686,-1.164 2.187,-1.551 3.352,-0.864c1.165,0.686 1.551,2.186 0.865,3.351Z" style="fill:#0c2b34;fill-rule:nonzero;"/></svg>