<?xml version="1.0" encoding="utf-8"?>
<!-- Generator: Adobe Illustrator 24.0.0, SVG Export Plug-In . SVG Version: 6.00 Build 0)  -->
<svg version="1.1" id="Livello_1" xmlns="http://www.w3.org/2000/svg" xmlns:xlink="http://www.w3.org/1999/xlink" x="0px" y="0px"
	 viewBox="0 0 1681.5 3414.7" style="enable-background:new 0 0 1681.5 3414.7;" xml:space="preserve">
<style type="text/css">
	.st0{clip-path:url(#SVGID_2_);}
	.st1{clip-path:url(#SVGID_4_);fill:#D3E4F5;}
	.st2{clip-path:url(#SVGID_4_);fill:#B2D1ED;}
	.st3{opacity:0.44;clip-path:url(#SVGID_4_);}
	.st4{clip-path:url(#SVGID_6_);fill:#FFFFFF;}
	.st5{clip-path:url(#SVGID_6_);fill:none;stroke:#92C9EC;stroke-width:4.407;stroke-miterlimit:10;}
</style>
<g>
	<defs>
		<rect id="SVGID_1_" x="0" width="1681.5" height="3414.7"/>
	</defs>
	<clipPath id="SVGID_2_">
		<use xlink:href="#SVGID_1_"  style="overflow:visible;"/>
	</clipPath>
	<g class="st0">
		<defs>
			<rect id="SVGID_3_" x="0" y="0" width="1681.5" height="3414.7"/>
		</defs>
		<clipPath id="SVGID_4_">
			<use xlink:href="#SVGID_3_"  style="overflow:visible;"/>
		</clipPath>
		<path class="st1" d="M333.1,0C149.1,0,0,149.1,0,333.1v1015.2c0,184,149.1,333.1,333.1,333.1h1015.3
			c184,0,333.1-149.1,333.1-333.1V333.1c0-184-149.1-333.1-333.1-333.1H333.1z"/>
		<path class="st2" d="M1681.5,1348.4V333.1c0-163.1-117.3-298.6-272.1-327.3c23.8,362.5-13.3,1479.6-1369.8,1500.1
			c2,3.6,4,7.3,6.1,10.8H12.9v1898h1628.5v-1898h-5.5C1664.9,1467.3,1681.5,1409.8,1681.5,1348.4"/>
		<g class="st3">
			<g>
				<defs>
					<rect id="SVGID_5_" x="79.7" y="878.5" width="507.3" height="319.2"/>
				</defs>
				<clipPath id="SVGID_6_">
					<use xlink:href="#SVGID_5_"  style="overflow:visible;"/>
				</clipPath>
				<path class="st4" d="M371.2,937.8c-1.5-1.7-2.9-3.3-4.2-4.8c-29.4-33.9-66.3-49.2-110.9-44.4c-35.3,3.8-63.8,20.5-85.4,48.6
					c-17.4,22.6-25.9,48.5-25.8,77.1c0,5.3-1.8,7.7-6.2,10.3c-7.9,4.9-16,10.1-22.3,16.8c-20.6,21.5-28.7,47.5-24.2,77.2
					c3,20,12.1,37.1,26.7,51c18,17,39.6,24.9,64.3,24.9c100.3-0.1,200.6,0,300.9-0.1c5.2,0,10.5-0.4,15.6-1.1
					c40.9-5.6,74.4-41.9,76.1-83.4c1.5-36.3-13.3-64.8-44.5-83.4c-7.2-4.3-9.4-8.9-10.3-16.4c-7.4-63.1-73.4-102.9-132.4-80.1
					C382.7,932.2,377.2,935,371.2,937.8"/>
				<path class="st5" d="M371.2,937.8c-1.5-1.7-2.9-3.3-4.2-4.8c-29.4-33.9-66.3-49.2-110.9-44.4c-35.3,3.8-63.8,20.5-85.4,48.6
					c-17.4,22.6-25.9,48.5-25.8,77.1c0,5.3-1.8,7.7-6.2,10.3c-7.9,4.9-16,10.1-22.3,16.8c-20.6,21.5-28.7,47.5-24.2,77.2
					c3,20,12.1,37.1,26.7,51c18,17,39.6,24.9,64.3,24.9c100.3-0.1,200.6,0,300.9-0.1c5.2,0,10.5-0.4,15.6-1.1
					c40.9-5.6,74.4-41.9,76.1-83.4c1.5-36.3-13.3-64.8-44.5-83.4c-7.2-4.3-9.4-8.9-10.3-16.4c-7.4-63.1-73.4-102.9-132.4-80.1
					C382.7,932.2,377.2,935,371.2,937.8z"/>
			</g>
		</g>
	</g>
</g>
</svg>
