<?xml version="1.0" encoding="UTF-8" standalone="no"?><!DOCTYPE svg PUBLIC "-//W3C//DTD SVG 1.1//EN" "http://www.w3.org/Graphics/SVG/1.1/DTD/svg11.dtd"><svg width="100%" height="100%" viewBox="0 0 29196 59284" version="1.1" xmlns="http://www.w3.org/2000/svg" xmlns:xlink="http://www.w3.org/1999/xlink" xml:space="preserve" xmlns:serif="http://www.serif.com/" style="fill-rule:evenodd;clip-rule:evenodd;stroke-linejoin:round;stroke-miterlimit:2;"><g><g><path d="M0,-2071.51c-3194.45,0 -1508.58,4754.21 -1508.58,7948.67l-0,17907.5c-0,3194.45 4097.12,5406.33 7291.58,5406.33l17626.8,0c3194.45,0 5783,-2588.54 5783,-5783l0,-17625c0,-3194.45 -1971.46,-6177.92 -5165.92,-6177.92l-24026.8,-1676.58l-0.042,-0.005Z" style="fill:#d3e4f5;fill-rule:nonzero;"/><path d="M29192.7,23409.7l2448.16,-21299c-0,-2831.6 -4484.63,-2453.39 -7172.13,-2951.66c413.196,6293.42 -1147.15,26644.9 -24697.5,27000.8c34.725,62.5 0,0 0,0l-1279.83,33123.1l31963.6,-0l1807.87,-31746.1l959.104,-1581.88c503.471,-857.637 -4029.31,-1479.26 -4029.31,-2545.24" style="fill:#b2d1ed;fill-rule:nonzero;"/></g></g></svg>