<?xml version="1.0" encoding="UTF-8" standalone="no"?><!DOCTYPE svg PUBLIC "-//W3C//DTD SVG 1.1//EN" "http://www.w3.org/Graphics/SVG/1.1/DTD/svg11.dtd"><svg width="100%" height="100%" viewBox="0 0 7007 14228" version="1.1" xmlns="http://www.w3.org/2000/svg" xmlns:xlink="http://www.w3.org/1999/xlink" xml:space="preserve" xmlns:serif="http://www.serif.com/" style="fill-rule:evenodd;clip-rule:evenodd;stroke-miterlimit:10;"><g><g><path d="M0,-497.163c-766.667,-0 -362.06,1141.01 -362.06,1907.68l0,4297.8c0,766.667 -766.666,3792.38 0,3792.38l5980.39,-2494.86c766.667,0 1387.92,-621.25 1387.92,-1387.92l0,-4230c0,-766.667 -473.15,-1482.7 -1239.82,-1482.7l-5766.43,-402.379Z" style="fill:#d3e4f5;fill-rule:nonzero;"/><path d="M7006.25,5618.33l587.557,-5111.75c-0,-679.583 -1076.31,-588.814 -1721.31,-708.398c99.167,1510.42 -449.665,8371.04 -6101.75,8456.46c8.334,15 16.628,-747.86 16.628,-747.86l-149.439,6721.14l7671.27,-0l433.888,-7619.07l230.185,-379.652c120.833,-205.833 -967.035,-355.023 -967.035,-610.857" style="fill:#b2d1ed;fill-rule:nonzero;"/></g><g opacity="0.29"><g><path d="M1518.18,5675.78c-0.288,6.042 -1.151,12.946 -1.438,20.138c-0.864,18.125 10.069,31.358 27.33,33.085c16.398,1.438 29.632,-9.782 31.933,-27.619c6.905,-55.236 -3.452,-107.308 -29.344,-156.215c-84.005,-159.667 -292.292,-193.902 -422.615,-69.045c-63.579,61.278 -90.622,137.228 -81.704,225.26c1.727,17.549 16.686,29.345 33.085,27.331c17.549,-2.302 27.618,-16.686 26.755,-34.811c-0.863,-17.261 -1.439,-35.098 0.575,-52.071c15.535,-119.679 131.186,-201.383 249.139,-176.929c96.376,20.138 170.024,112.774 166.284,210.876m139.817,140.68c-40.564,-9.206 -80.553,-18.412 -120.254,-27.33c-52.072,-11.796 -103.856,-23.303 -155.928,-34.811c-26.467,-5.754 -52.934,-13.234 -79.689,-15.823c-59.552,-5.754 -112.199,13.234 -156.791,52.935c-6.617,5.754 -12.946,8.918 -21.864,10.069c-51.497,5.466 -102.993,11.508 -154.489,17.549c-5.179,0.576 -7.768,-0.288 -9.782,-5.466c-11.507,-28.193 -33.084,-45.455 -62.141,-53.51c-37.687,-10.357 -75.374,-20.714 -113.061,-30.783c-6.905,-1.726 -8.919,-5.466 -9.782,-12.37c-3.164,-37.688 -2.589,-75.087 2.014,-112.487c2.302,-19.275 12.658,-29.344 31.934,-29.919c22.152,-0.576 44.304,-0.288 66.743,-0.288c19.851,-0 27.906,-7.192 35.098,-25.892c9.207,-25.029 19.276,-49.483 30.495,-73.649c10.07,-21.576 9.494,-31.07 -7.479,-48.331c-14.96,-14.96 -29.632,-29.632 -44.592,-44.592c-12.946,-12.946 -13.809,-27.906 -2.589,-42.29c24.453,-31.358 52.071,-59.84 82.854,-85.156c17.549,-14.385 31.358,-13.522 47.469,2.589c14.384,14.384 28.769,28.769 43.441,43.441c13.809,14.097 26.179,15.823 43.153,6.041c27.618,-15.823 56.675,-28.193 87.17,-37.399c18.124,-5.466 25.316,-15.248 25.316,-34.523l0,-64.73c0,-20.426 9.782,-31.07 29.92,-33.66c39.414,-4.89 79.115,-5.178 118.816,-1.438c18.987,1.726 29.344,12.946 29.632,32.221c0.287,21.865 -0,43.729 -0,65.881c-0,18.412 7.767,28.769 25.316,33.372c31.646,8.631 61.853,20.426 90.335,36.249c13.521,7.48 27.042,5.754 38.262,-5.179c16.399,-16.11 32.509,-32.796 49.195,-48.907c14.097,-13.809 27.906,-14.672 43.441,-2.589c31.646,24.454 60.415,52.359 85.444,83.717c12.658,15.536 11.795,29.92 -2.014,44.305c-14.96,15.535 -30.495,30.782 -46.03,45.742c-12.659,12.371 -14.96,25.604 -6.042,40.852c16.398,28.769 29.345,58.689 38.838,90.334c4.891,15.823 14.672,23.303 31.358,23.303c21.577,0.288 43.154,0 64.73,0c23.879,0 33.66,8.918 36.537,32.797c4.315,37.399 4.603,75.087 1.438,112.486c-0.575,6.905 -4.315,8.055 -9.206,9.494c-34.81,9.494 -69.333,19.85 -104.431,28.481c-33.947,8.343 -59.264,25.317 -72.785,59.264" style="fill:#fff;fill-rule:nonzero;"/><path d="M1518.18,5675.78c-0.288,6.042 -1.151,12.946 -1.438,20.138c-0.864,18.125 10.069,31.358 27.33,33.085c16.398,1.438 29.632,-9.782 31.933,-27.619c6.905,-55.236 -3.452,-107.308 -29.344,-156.215c-84.005,-159.667 -292.292,-193.902 -422.615,-69.045c-63.579,61.278 -90.622,137.228 -81.704,225.26c1.727,17.549 16.686,29.345 33.085,27.331c17.549,-2.302 27.618,-16.686 26.755,-34.811c-0.863,-17.261 -1.439,-35.098 0.575,-52.071c15.535,-119.679 131.186,-201.383 249.139,-176.929c96.376,20.138 170.024,112.774 166.284,210.876Zm139.817,140.68c-40.564,-9.206 -80.553,-18.412 -120.254,-27.33c-52.072,-11.796 -103.856,-23.303 -155.928,-34.811c-26.467,-5.754 -52.934,-13.234 -79.689,-15.823c-59.552,-5.754 -112.199,13.234 -156.791,52.935c-6.617,5.754 -12.946,8.918 -21.864,10.069c-51.497,5.466 -102.993,11.508 -154.489,17.549c-5.179,0.576 -7.768,-0.288 -9.782,-5.466c-11.507,-28.193 -33.084,-45.455 -62.141,-53.51c-37.687,-10.357 -75.374,-20.714 -113.061,-30.783c-6.905,-1.726 -8.919,-5.466 -9.782,-12.37c-3.164,-37.688 -2.589,-75.087 2.014,-112.487c2.302,-19.275 12.658,-29.344 31.934,-29.919c22.152,-0.576 44.304,-0.288 66.743,-0.288c19.851,-0 27.906,-7.192 35.098,-25.892c9.207,-25.029 19.276,-49.483 30.495,-73.649c10.07,-21.576 9.494,-31.07 -7.479,-48.331c-14.96,-14.96 -29.632,-29.632 -44.592,-44.592c-12.946,-12.946 -13.809,-27.906 -2.589,-42.29c24.453,-31.358 52.071,-59.84 82.854,-85.156c17.549,-14.385 31.358,-13.522 47.469,2.589c14.384,14.384 28.769,28.769 43.441,43.441c13.809,14.097 26.179,15.823 43.153,6.041c27.618,-15.823 56.675,-28.193 87.17,-37.399c18.124,-5.466 25.316,-15.248 25.316,-34.523l0,-64.73c0,-20.426 9.782,-31.07 29.92,-33.66c39.414,-4.89 79.115,-5.178 118.816,-1.438c18.987,1.726 29.344,12.946 29.632,32.221c0.287,21.865 -0,43.729 -0,65.881c-0,18.412 7.767,28.769 25.316,33.372c31.646,8.631 61.853,20.426 90.335,36.249c13.521,7.48 27.042,5.754 38.262,-5.179c16.399,-16.11 32.509,-32.796 49.195,-48.907c14.097,-13.809 27.906,-14.672 43.441,-2.589c31.646,24.454 60.415,52.359 85.444,83.717c12.658,15.536 11.795,29.92 -2.014,44.305c-14.96,15.535 -30.495,30.782 -46.03,45.742c-12.659,12.371 -14.96,25.604 -6.042,40.852c16.398,28.769 29.345,58.689 38.838,90.334c4.891,15.823 14.672,23.303 31.358,23.303c21.577,0.288 43.154,0 64.73,0c23.879,0 33.66,8.918 36.537,32.797c4.315,37.399 4.603,75.087 1.438,112.486c-0.575,6.905 -4.315,8.055 -9.206,9.494c-34.81,9.494 -69.333,19.85 -104.431,28.481c-33.947,8.343 -59.264,25.317 -72.785,59.264Z" style="fill:none;fill-rule:nonzero;stroke:#92c9ec;stroke-width:16.89px;"/><path d="M1090.1,5865.94c-9.782,16.686 -18.7,31.646 -27.618,46.606c-14.673,24.741 -29.345,49.483 -44.017,74.224c-10.644,17.837 -8.055,31.933 8.056,45.455c73.648,61.853 186.997,49.77 246.261,-26.468c7.193,-9.206 14.097,-18.124 21.865,-27.906c12.658,9.782 24.741,18.988 36.824,28.482c99.253,76.813 198.505,153.626 297.758,230.439c10.357,8.055 17.261,17.261 14.097,31.07c-3.453,14.672 -12.371,24.741 -27.043,29.057c-9.781,2.876 -17.837,-1.439 -25.317,-7.193c-60.99,-47.468 -122.268,-94.649 -183.258,-141.83c-14.096,-10.933 -29.632,-11.22 -41.427,-0.863c-14.097,12.37 -13.233,34.235 2.302,46.605c33.947,26.755 68.182,52.935 102.417,79.402c24.166,18.7 48.044,37.4 72.21,56.1c15.247,11.795 16.974,28.193 4.603,44.304c-12.371,16.11 -28.769,18.987 -44.016,7.192c-49.483,-37.975 -98.678,-76.525 -148.16,-114.788c-15.823,-12.37 -31.646,-24.741 -47.757,-37.112c-15.247,-11.507 -33.659,-9.493 -44.304,4.316c-10.644,14.096 -7.48,31.933 7.768,43.728c50.345,39.126 100.691,77.964 151.037,116.802c1.438,1.151 2.876,2.302 4.315,3.452c10.069,7.193 16.686,16.399 13.809,29.345c-3.165,14.384 -11.508,24.741 -25.604,29.344c-9.494,3.164 -18.125,0.575 -25.605,-5.466c-37.112,-28.769 -73.936,-57.25 -111.048,-86.019c-22.727,-17.549 -45.167,-35.386 -67.894,-52.935c-15.535,-12.083 -33.948,-10.644 -45.167,3.452c-10.933,13.522 -7.768,31.934 8.055,44.304c36.536,28.482 73.073,56.675 109.609,84.869c10.07,7.767 17.262,16.398 14.385,29.919c-2.877,14.097 -11.22,24.166 -24.741,29.057c-10.07,3.74 -18.988,0.575 -27.331,-5.754c-58.113,-45.167 -116.514,-90.334 -174.915,-135.501c-63.291,-48.908 -126.295,-98.102 -189.875,-146.434c-7.479,-5.754 -9.493,-10.357 -6.904,-19.851c28.193,-101.266 56.099,-202.82 83.717,-304.375c2.302,-8.343 5.754,-11.795 14.673,-12.658c34.81,-3.164 69.333,-7.768 104.143,-11.507c4.028,-0.288 7.768,-0.288 14.097,-0.864" style="fill:#fff;fill-rule:nonzero;"/><path d="M1090.1,5865.94c-9.782,16.686 -18.7,31.646 -27.618,46.606c-14.673,24.741 -29.345,49.483 -44.017,74.224c-10.644,17.837 -8.055,31.933 8.056,45.455c73.648,61.853 186.997,49.77 246.261,-26.468c7.193,-9.206 14.097,-18.124 21.865,-27.906c12.658,9.782 24.741,18.988 36.824,28.482c99.253,76.813 198.505,153.626 297.758,230.439c10.357,8.055 17.261,17.261 14.097,31.07c-3.453,14.672 -12.371,24.741 -27.043,29.057c-9.781,2.876 -17.837,-1.439 -25.317,-7.193c-60.99,-47.468 -122.268,-94.649 -183.258,-141.83c-14.096,-10.933 -29.632,-11.22 -41.427,-0.863c-14.097,12.37 -13.233,34.235 2.302,46.605c33.947,26.755 68.182,52.935 102.417,79.402c24.166,18.7 48.044,37.4 72.21,56.1c15.247,11.795 16.974,28.193 4.603,44.304c-12.371,16.11 -28.769,18.987 -44.016,7.192c-49.483,-37.975 -98.678,-76.525 -148.16,-114.788c-15.823,-12.37 -31.646,-24.741 -47.757,-37.112c-15.247,-11.507 -33.659,-9.493 -44.304,4.316c-10.644,14.096 -7.48,31.933 7.768,43.728c50.345,39.126 100.691,77.964 151.037,116.802c1.438,1.151 2.876,2.302 4.315,3.452c10.069,7.193 16.686,16.399 13.809,29.345c-3.165,14.384 -11.508,24.741 -25.604,29.344c-9.494,3.164 -18.125,0.575 -25.605,-5.466c-37.112,-28.769 -73.936,-57.25 -111.048,-86.019c-22.727,-17.549 -45.167,-35.386 -67.894,-52.935c-15.535,-12.083 -33.948,-10.644 -45.167,3.452c-10.933,13.522 -7.768,31.934 8.055,44.304c36.536,28.482 73.073,56.675 109.609,84.869c10.07,7.767 17.262,16.398 14.385,29.919c-2.877,14.097 -11.22,24.166 -24.741,29.057c-10.07,3.74 -18.988,0.575 -27.331,-5.754c-58.113,-45.167 -116.514,-90.334 -174.915,-135.501c-63.291,-48.908 -126.295,-98.102 -189.875,-146.434c-7.479,-5.754 -9.493,-10.357 -6.904,-19.851c28.193,-101.266 56.099,-202.82 83.717,-304.375c2.302,-8.343 5.754,-11.795 14.673,-12.658c34.81,-3.164 69.333,-7.768 104.143,-11.507c4.028,-0.288 7.768,-0.288 14.097,-0.864Z" style="fill:none;fill-rule:nonzero;stroke:#92c9ec;stroke-width:16.89px;"/><path d="M1747.47,6205.99c-18.7,12.37 -43.729,11.22 -63.579,-3.452c-26.18,-19.563 -51.784,-39.701 -77.388,-59.552c-97.239,-75.087 -194.191,-150.461 -291.142,-225.548c-18.124,-14.097 -35.961,-28.194 -54.085,-41.715c-19.563,-14.672 -45.167,-4.603 -48.907,18.987c-1.727,11.508 2.589,21.002 11.507,28.194c7.192,6.041 14.96,11.507 22.44,17.261c-23.878,38.263 -53.223,67.895 -101.267,71.059c-21.864,1.439 -42.29,-3.164 -62.716,-13.809c6.905,-12.083 13.522,-23.59 20.426,-35.385c16.686,-28.194 33.947,-56.1 50.346,-84.581c29.632,-51.496 73.936,-78.827 133.2,-80.553c15.535,-0.288 31.645,4.028 47.181,7.48c105.006,23.591 210.013,47.469 315.019,71.059c6.905,1.439 10.357,4.316 12.083,11.508c28.194,103.855 56.675,207.711 85.156,311.567c0.863,2.589 1.151,5.178 1.726,7.48" style="fill:#fff;fill-rule:nonzero;"/><path d="M1747.47,6205.99c-18.7,12.37 -43.729,11.22 -63.579,-3.452c-26.18,-19.563 -51.784,-39.701 -77.388,-59.552c-97.239,-75.087 -194.191,-150.461 -291.142,-225.548c-18.124,-14.097 -35.961,-28.194 -54.085,-41.715c-19.563,-14.672 -45.167,-4.603 -48.907,18.987c-1.727,11.508 2.589,21.002 11.507,28.194c7.192,6.041 14.96,11.507 22.44,17.261c-23.878,38.263 -53.223,67.895 -101.267,71.059c-21.864,1.439 -42.29,-3.164 -62.716,-13.809c6.905,-12.083 13.522,-23.59 20.426,-35.385c16.686,-28.194 33.947,-56.1 50.346,-84.581c29.632,-51.496 73.936,-78.827 133.2,-80.553c15.535,-0.288 31.645,4.028 47.181,7.48c105.006,23.591 210.013,47.469 315.019,71.059c6.905,1.439 10.357,4.316 12.083,11.508c28.194,103.855 56.675,207.711 85.156,311.567c0.863,2.589 1.151,5.178 1.726,7.48Z" style="fill:none;fill-rule:nonzero;stroke:#92c9ec;stroke-width:16.89px;"/><path d="M630.088,6181.82c36.824,-134.638 73.648,-268.126 110.473,-402.477c19.275,5.466 37.975,10.357 56.674,15.535c28.194,7.768 56.387,15.535 84.581,23.303c19.275,5.466 27.618,20.138 22.152,39.701c-31.07,113.35 -62.141,226.411 -93.211,339.761c-6.042,22.44 -21.289,27.906 -36.824,23.59c-47.469,-12.658 -94.938,-25.892 -143.845,-39.413" style="fill:#fff;fill-rule:nonzero;"/><path d="M630.088,6181.82c36.824,-134.638 73.648,-268.126 110.473,-402.477c19.275,5.466 37.975,10.357 56.674,15.535c28.194,7.768 56.387,15.535 84.581,23.303c19.275,5.466 27.618,20.138 22.152,39.701c-31.07,113.35 -62.141,226.411 -93.211,339.761c-6.042,22.44 -21.289,27.906 -36.824,23.59c-47.469,-12.658 -94.938,-25.892 -143.845,-39.413Z" style="fill:none;fill-rule:nonzero;stroke:#92c9ec;stroke-width:16.89px;"/><path d="M1878.37,5779.34c36.824,134.351 73.36,267.839 110.472,402.189c-15.535,4.316 -30.495,8.631 -45.455,12.946c-30.782,8.631 -61.565,16.974 -92.348,25.317c-23.878,6.329 -37.112,-1.439 -43.729,-25.317c-30.495,-111.048 -61.277,-222.383 -91.772,-333.719c-6.617,-23.59 1.438,-37.112 25.316,-43.729c44.017,-12.083 87.745,-24.166 131.762,-36.248c1.151,-0.288 2.877,-0.576 5.754,-1.439" style="fill:#fff;fill-rule:nonzero;"/><path d="M1878.37,5779.34c36.824,134.351 73.36,267.839 110.472,402.189c-15.535,4.316 -30.495,8.631 -45.455,12.946c-30.782,8.631 -61.565,16.974 -92.348,25.317c-23.878,6.329 -37.112,-1.439 -43.729,-25.317c-30.495,-111.048 -61.277,-222.383 -91.772,-333.719c-6.617,-23.59 1.438,-37.112 25.316,-43.729c44.017,-12.083 87.745,-24.166 131.762,-36.248c1.151,-0.288 2.877,-0.576 5.754,-1.439Z" style="fill:none;fill-rule:nonzero;stroke:#92c9ec;stroke-width:16.89px;"/></g></g></g></svg>