<?xml version="1.0" encoding="UTF-8" standalone="no"?><!DOCTYPE svg PUBLIC "-//W3C//DTD SVG 1.1//EN" "http://www.w3.org/Graphics/SVG/1.1/DTD/svg11.dtd"><svg width="100%" height="100%" viewBox="0 0 121650 247017" version="1.1" xmlns="http://www.w3.org/2000/svg" xmlns:xlink="http://www.w3.org/1999/xlink" xml:space="preserve" xmlns:serif="http://www.serif.com/" style="fill-rule:evenodd;clip-rule:evenodd;stroke-linejoin:round;stroke-miterlimit:2;"><g><g><path d="M1516.19,-20558.4c-15790,-0 -7456.85,44963.8 -7456.85,75175.9l-0,169363c-0,30212.1 20251.9,51131.3 36042,51131.3l87128.5,-0c15790,-0 28585.1,-24481.6 28585.1,-54693.7l0,-166692c0,-30212.1 -9744.85,-58428.8 -25534.9,-58428.8l-118763,-15856.5l-0.208,-0.048l-0.188,0.048Z" style="fill:#d3e4f5;fill-rule:nonzero;"/><path d="M146093,233035l12298.6,-96195.5c0,-12788.7 -22529,-11080.6 -36029.9,-13331c2075.73,28423.8 -5762.82,120340 -124070,121947c174.444,282.277 0,0 0,0l-6429.35,149598l160572,0l9082.01,-143379l4818.15,-7144.46c2529.24,-3873.46 -20241.6,-6680.98 -20241.6,-11495.4" style="fill:#b2d1ed;fill-rule:nonzero;"/></g></g></svg>