<?xml version="1.0" encoding="UTF-8" standalone="no"?><!DOCTYPE svg PUBLIC "-//W3C//DTD SVG 1.1//EN" "http://www.w3.org/Graphics/SVG/1.1/DTD/svg11.dtd"><svg width="100%" height="100%" viewBox="0 0 7007 14228" version="1.1" xmlns="http://www.w3.org/2000/svg" xmlns:xlink="http://www.w3.org/1999/xlink" xml:space="preserve" xmlns:serif="http://www.serif.com/" style="fill-rule:evenodd;clip-rule:evenodd;stroke-miterlimit:10;"><g><g><path d="M0,-497.163c-766.667,-0 -362.06,1141.01 -362.06,1907.68l0,4297.8c0,766.667 983.31,1297.52 1749.98,1297.52l4230.42,0c766.667,0 1387.92,-621.25 1387.92,-1387.92l0,-4230c0,-766.667 -473.15,-1482.7 -1239.82,-1482.7l-5766.43,-402.379Z" style="fill:#d3e4f5;fill-rule:nonzero;"/><path d="M7006.25,5618.33l587.557,-5111.75c-0,-679.583 -1076.31,-588.814 -1721.31,-708.398c99.167,1510.42 -275.316,6394.78 -5927.4,6480.19c8.334,15 0,-0 0,-0l-307.16,7949.54l7671.27,-0l433.888,-7619.07l230.185,-379.652c120.833,-205.833 -967.035,-355.023 -967.035,-610.857" style="fill:#b2d1ed;fill-rule:nonzero;"/><g opacity="0.29"><g><path d="M1518.18,4046.61c-0.288,6.042 -1.151,12.946 -1.438,20.139c-0.864,18.124 10.069,31.358 27.33,33.084c16.398,1.438 29.632,-9.782 31.933,-27.618c6.905,-55.237 -3.452,-107.308 -29.344,-156.215c-84.005,-159.668 -292.292,-193.903 -422.615,-69.046c-63.579,61.278 -90.622,137.228 -81.704,225.261c1.727,17.549 16.686,29.344 33.085,27.33c17.549,-2.301 27.618,-16.686 26.755,-34.81c-0.863,-17.262 -1.439,-35.098 0.575,-52.072c15.535,-119.679 131.186,-201.382 249.139,-176.929c96.376,20.139 170.024,112.774 166.284,210.876m139.817,140.68c-40.564,-9.206 -80.553,-18.412 -120.254,-27.33c-52.072,-11.795 -103.856,-23.303 -155.928,-34.811c-26.467,-5.753 -52.934,-13.233 -79.689,-15.822c-59.552,-5.754 -112.199,13.233 -156.791,52.934c-6.617,5.754 -12.946,8.919 -21.864,10.069c-51.497,5.467 -102.993,11.508 -154.489,17.549c-5.179,0.576 -7.768,-0.287 -9.782,-5.466c-11.507,-28.193 -33.084,-45.454 -62.141,-53.51c-37.687,-10.357 -75.374,-20.713 -113.061,-30.782c-6.905,-1.727 -8.919,-5.467 -9.782,-12.371c-3.164,-37.687 -2.589,-75.087 2.014,-112.486c2.302,-19.276 12.658,-29.345 31.934,-29.92c22.152,-0.576 44.304,-0.288 66.743,-0.288c19.851,0 27.906,-7.192 35.098,-25.892c9.207,-25.029 19.276,-49.482 30.495,-73.648c10.07,-21.577 9.494,-31.071 -7.479,-48.332c-14.96,-14.96 -29.632,-29.632 -44.592,-44.592c-12.946,-12.946 -13.809,-27.906 -2.589,-42.29c24.453,-31.358 52.071,-59.839 82.854,-85.156c17.549,-14.384 31.358,-13.521 47.469,2.589c14.384,14.385 28.769,28.769 43.441,43.441c13.809,14.097 26.179,15.823 43.153,6.042c27.618,-15.823 56.675,-28.194 87.17,-37.4c18.124,-5.466 25.316,-15.247 25.316,-34.523l0,-64.73c0,-20.425 9.782,-31.07 29.92,-33.659c39.414,-4.891 79.115,-5.179 118.816,-1.439c18.987,1.727 29.344,12.946 29.632,32.222c0.287,21.864 -0,43.728 -0,65.88c-0,18.412 7.767,28.769 25.316,33.372c31.646,8.631 61.853,20.426 90.335,36.249c13.521,7.48 27.042,5.754 38.262,-5.178c16.399,-16.111 32.509,-32.797 49.195,-48.907c14.097,-13.81 27.906,-14.673 43.441,-2.59c31.646,24.454 60.415,52.36 85.444,83.718c12.658,15.535 11.795,29.919 -2.014,44.304c-14.96,15.535 -30.495,30.783 -46.03,45.742c-12.659,12.371 -14.96,25.605 -6.042,40.852c16.398,28.769 29.345,58.689 38.838,90.335c4.891,15.823 14.672,23.302 31.358,23.302c21.577,0.288 43.154,0 64.73,0c23.879,0 33.66,8.919 36.537,32.797c4.315,37.4 4.603,75.087 1.438,112.486c-0.575,6.905 -4.315,8.056 -9.206,9.494c-34.81,9.494 -69.333,19.851 -104.431,28.481c-33.947,8.343 -59.264,25.317 -72.785,59.264" style="fill:#fff;fill-rule:nonzero;"/><path d="M1518.18,4046.61c-0.288,6.042 -1.151,12.946 -1.438,20.139c-0.864,18.124 10.069,31.358 27.33,33.084c16.398,1.438 29.632,-9.782 31.933,-27.618c6.905,-55.237 -3.452,-107.308 -29.344,-156.215c-84.005,-159.668 -292.292,-193.903 -422.615,-69.046c-63.579,61.278 -90.622,137.228 -81.704,225.261c1.727,17.549 16.686,29.344 33.085,27.33c17.549,-2.301 27.618,-16.686 26.755,-34.81c-0.863,-17.262 -1.439,-35.098 0.575,-52.072c15.535,-119.679 131.186,-201.382 249.139,-176.929c96.376,20.139 170.024,112.774 166.284,210.876Zm139.817,140.68c-40.564,-9.206 -80.553,-18.412 -120.254,-27.33c-52.072,-11.795 -103.856,-23.303 -155.928,-34.811c-26.467,-5.753 -52.934,-13.233 -79.689,-15.822c-59.552,-5.754 -112.199,13.233 -156.791,52.934c-6.617,5.754 -12.946,8.919 -21.864,10.069c-51.497,5.467 -102.993,11.508 -154.489,17.549c-5.179,0.576 -7.768,-0.287 -9.782,-5.466c-11.507,-28.193 -33.084,-45.454 -62.141,-53.51c-37.687,-10.357 -75.374,-20.713 -113.061,-30.782c-6.905,-1.727 -8.919,-5.467 -9.782,-12.371c-3.164,-37.687 -2.589,-75.087 2.014,-112.486c2.302,-19.276 12.658,-29.345 31.934,-29.92c22.152,-0.576 44.304,-0.288 66.743,-0.288c19.851,0 27.906,-7.192 35.098,-25.892c9.207,-25.029 19.276,-49.482 30.495,-73.648c10.07,-21.577 9.494,-31.071 -7.479,-48.332c-14.96,-14.96 -29.632,-29.632 -44.592,-44.592c-12.946,-12.946 -13.809,-27.906 -2.589,-42.29c24.453,-31.358 52.071,-59.839 82.854,-85.156c17.549,-14.384 31.358,-13.521 47.469,2.589c14.384,14.385 28.769,28.769 43.441,43.441c13.809,14.097 26.179,15.823 43.153,6.042c27.618,-15.823 56.675,-28.194 87.17,-37.4c18.124,-5.466 25.316,-15.247 25.316,-34.523l0,-64.73c0,-20.425 9.782,-31.07 29.92,-33.659c39.414,-4.891 79.115,-5.179 118.816,-1.439c18.987,1.727 29.344,12.946 29.632,32.222c0.287,21.864 -0,43.728 -0,65.88c-0,18.412 7.767,28.769 25.316,33.372c31.646,8.631 61.853,20.426 90.335,36.249c13.521,7.48 27.042,5.754 38.262,-5.178c16.399,-16.111 32.509,-32.797 49.195,-48.907c14.097,-13.81 27.906,-14.673 43.441,-2.59c31.646,24.454 60.415,52.36 85.444,83.718c12.658,15.535 11.795,29.919 -2.014,44.304c-14.96,15.535 -30.495,30.783 -46.03,45.742c-12.659,12.371 -14.96,25.605 -6.042,40.852c16.398,28.769 29.345,58.689 38.838,90.335c4.891,15.823 14.672,23.302 31.358,23.302c21.577,0.288 43.154,0 64.73,0c23.879,0 33.66,8.919 36.537,32.797c4.315,37.4 4.603,75.087 1.438,112.486c-0.575,6.905 -4.315,8.056 -9.206,9.494c-34.81,9.494 -69.333,19.851 -104.431,28.481c-33.947,8.343 -59.264,25.317 -72.785,59.264Z" style="fill:none;fill-rule:nonzero;stroke:#92c9ec;stroke-width:16.89px;"/><path d="M1090.1,4236.77c-9.782,16.686 -18.7,31.646 -27.618,46.605c-14.673,24.742 -29.345,49.483 -44.017,74.224c-10.644,17.837 -8.055,31.934 8.056,45.455c73.648,61.853 186.997,49.77 246.261,-26.467c7.193,-9.206 14.097,-18.125 21.865,-27.906c12.658,9.781 24.741,18.987 36.824,28.481c99.253,76.813 198.505,153.626 297.758,230.439c10.357,8.055 17.261,17.261 14.097,31.07c-3.453,14.672 -12.371,24.742 -27.043,29.057c-9.781,2.877 -17.837,-1.439 -25.317,-7.192c-60.99,-47.469 -122.268,-94.65 -183.258,-141.831c-14.096,-10.932 -29.632,-11.22 -41.427,-0.863c-14.097,12.371 -13.233,34.235 2.302,46.606c33.947,26.755 68.182,52.934 102.417,79.402c24.166,18.7 48.044,37.399 72.21,56.099c15.247,11.795 16.974,28.194 4.603,44.304c-12.371,16.111 -28.769,18.988 -44.016,7.192c-49.483,-37.975 -98.678,-76.525 -148.16,-114.788c-15.823,-12.37 -31.646,-24.741 -47.757,-37.111c-15.247,-11.508 -33.659,-9.494 -44.304,4.315c-10.644,14.097 -7.48,31.933 7.768,43.729c50.345,39.125 100.691,77.963 151.037,116.801c1.438,1.151 2.876,2.302 4.315,3.453c10.069,7.192 16.686,16.398 13.809,29.344c-3.165,14.384 -11.508,24.741 -25.604,29.344c-9.494,3.165 -18.125,0.576 -25.605,-5.466c-37.112,-28.769 -73.936,-57.25 -111.048,-86.019c-22.727,-17.549 -45.167,-35.386 -67.894,-52.935c-15.535,-12.083 -33.948,-10.644 -45.167,3.453c-10.933,13.521 -7.768,31.933 8.055,44.304c36.536,28.481 73.073,56.674 109.609,84.868c10.07,7.768 17.262,16.398 14.385,29.92c-2.877,14.096 -11.22,24.166 -24.741,29.056c-10.07,3.74 -18.988,0.576 -27.331,-5.754c-58.113,-45.167 -116.514,-90.334 -174.915,-135.501c-63.291,-48.907 -126.295,-98.102 -189.875,-146.434c-7.479,-5.754 -9.493,-10.357 -6.904,-19.85c28.193,-101.267 56.099,-202.821 83.717,-304.375c2.302,-8.343 5.754,-11.796 14.673,-12.659c34.81,-3.164 69.333,-7.767 104.143,-11.507c4.028,-0.288 7.768,-0.288 14.097,-0.863" style="fill:#fff;fill-rule:nonzero;"/><path d="M1090.1,4236.77c-9.782,16.686 -18.7,31.646 -27.618,46.605c-14.673,24.742 -29.345,49.483 -44.017,74.224c-10.644,17.837 -8.055,31.934 8.056,45.455c73.648,61.853 186.997,49.77 246.261,-26.467c7.193,-9.206 14.097,-18.125 21.865,-27.906c12.658,9.781 24.741,18.987 36.824,28.481c99.253,76.813 198.505,153.626 297.758,230.439c10.357,8.055 17.261,17.261 14.097,31.07c-3.453,14.672 -12.371,24.742 -27.043,29.057c-9.781,2.877 -17.837,-1.439 -25.317,-7.192c-60.99,-47.469 -122.268,-94.65 -183.258,-141.831c-14.096,-10.932 -29.632,-11.22 -41.427,-0.863c-14.097,12.371 -13.233,34.235 2.302,46.606c33.947,26.755 68.182,52.934 102.417,79.402c24.166,18.7 48.044,37.399 72.21,56.099c15.247,11.795 16.974,28.194 4.603,44.304c-12.371,16.111 -28.769,18.988 -44.016,7.192c-49.483,-37.975 -98.678,-76.525 -148.16,-114.788c-15.823,-12.37 -31.646,-24.741 -47.757,-37.111c-15.247,-11.508 -33.659,-9.494 -44.304,4.315c-10.644,14.097 -7.48,31.933 7.768,43.729c50.345,39.125 100.691,77.963 151.037,116.801c1.438,1.151 2.876,2.302 4.315,3.453c10.069,7.192 16.686,16.398 13.809,29.344c-3.165,14.384 -11.508,24.741 -25.604,29.344c-9.494,3.165 -18.125,0.576 -25.605,-5.466c-37.112,-28.769 -73.936,-57.25 -111.048,-86.019c-22.727,-17.549 -45.167,-35.386 -67.894,-52.935c-15.535,-12.083 -33.948,-10.644 -45.167,3.453c-10.933,13.521 -7.768,31.933 8.055,44.304c36.536,28.481 73.073,56.674 109.609,84.868c10.07,7.768 17.262,16.398 14.385,29.92c-2.877,14.096 -11.22,24.166 -24.741,29.056c-10.07,3.74 -18.988,0.576 -27.331,-5.754c-58.113,-45.167 -116.514,-90.334 -174.915,-135.501c-63.291,-48.907 -126.295,-98.102 -189.875,-146.434c-7.479,-5.754 -9.493,-10.357 -6.904,-19.85c28.193,-101.267 56.099,-202.821 83.717,-304.375c2.302,-8.343 5.754,-11.796 14.673,-12.659c34.81,-3.164 69.333,-7.767 104.143,-11.507c4.028,-0.288 7.768,-0.288 14.097,-0.863Z" style="fill:none;fill-rule:nonzero;stroke:#92c9ec;stroke-width:16.89px;"/><path d="M1747.47,4576.82c-18.7,12.371 -43.729,11.22 -63.579,-3.452c-26.18,-19.563 -51.784,-39.701 -77.388,-59.552c-97.239,-75.087 -194.191,-150.461 -291.142,-225.548c-18.124,-14.097 -35.961,-28.193 -54.085,-41.715c-19.563,-14.672 -45.167,-4.603 -48.907,18.988c-1.727,11.507 2.589,21.001 11.507,28.193c7.192,6.042 14.96,11.508 22.44,17.262c-23.878,38.262 -53.223,67.894 -101.267,71.059c-21.864,1.438 -42.29,-3.165 -62.716,-13.809c6.905,-12.083 13.522,-23.591 20.426,-35.386c16.686,-28.194 33.947,-56.099 50.346,-84.581c29.632,-51.496 73.936,-78.826 133.2,-80.553c15.535,-0.287 31.645,4.028 47.181,7.48c105.006,23.591 210.013,47.469 315.019,71.06c6.905,1.438 10.357,4.315 12.083,11.507c28.194,103.856 56.675,207.712 85.156,311.567c0.863,2.589 1.151,5.179 1.726,7.48" style="fill:#fff;fill-rule:nonzero;"/><path d="M1747.47,4576.82c-18.7,12.371 -43.729,11.22 -63.579,-3.452c-26.18,-19.563 -51.784,-39.701 -77.388,-59.552c-97.239,-75.087 -194.191,-150.461 -291.142,-225.548c-18.124,-14.097 -35.961,-28.193 -54.085,-41.715c-19.563,-14.672 -45.167,-4.603 -48.907,18.988c-1.727,11.507 2.589,21.001 11.507,28.193c7.192,6.042 14.96,11.508 22.44,17.262c-23.878,38.262 -53.223,67.894 -101.267,71.059c-21.864,1.438 -42.29,-3.165 -62.716,-13.809c6.905,-12.083 13.522,-23.591 20.426,-35.386c16.686,-28.194 33.947,-56.099 50.346,-84.581c29.632,-51.496 73.936,-78.826 133.2,-80.553c15.535,-0.287 31.645,4.028 47.181,7.48c105.006,23.591 210.013,47.469 315.019,71.06c6.905,1.438 10.357,4.315 12.083,11.507c28.194,103.856 56.675,207.712 85.156,311.567c0.863,2.589 1.151,5.179 1.726,7.48Z" style="fill:none;fill-rule:nonzero;stroke:#92c9ec;stroke-width:16.89px;"/><path d="M630.088,4552.65c36.824,-134.638 73.648,-268.126 110.473,-402.477c19.275,5.467 37.975,10.357 56.674,15.536c28.194,7.767 56.387,15.535 84.581,23.302c19.275,5.467 27.618,20.139 22.152,39.702c-31.07,113.349 -62.141,226.411 -93.211,339.76c-6.042,22.44 -21.289,27.906 -36.824,23.591c-47.469,-12.659 -94.938,-25.892 -143.845,-39.414" style="fill:#fff;fill-rule:nonzero;"/><path d="M630.088,4552.65c36.824,-134.638 73.648,-268.126 110.473,-402.477c19.275,5.467 37.975,10.357 56.674,15.536c28.194,7.767 56.387,15.535 84.581,23.302c19.275,5.467 27.618,20.139 22.152,39.702c-31.07,113.349 -62.141,226.411 -93.211,339.76c-6.042,22.44 -21.289,27.906 -36.824,23.591c-47.469,-12.659 -94.938,-25.892 -143.845,-39.414Z" style="fill:none;fill-rule:nonzero;stroke:#92c9ec;stroke-width:16.89px;"/><path d="M1878.37,4150.18c36.824,134.351 73.36,267.839 110.472,402.19c-15.535,4.315 -30.495,8.63 -45.455,12.946c-30.782,8.63 -61.565,16.973 -92.348,25.316c-23.878,6.329 -37.112,-1.438 -43.729,-25.316c-30.495,-111.048 -61.277,-222.384 -91.772,-333.72c-6.617,-23.59 1.438,-37.111 25.316,-43.728c44.017,-12.083 87.745,-24.166 131.762,-36.249c1.151,-0.288 2.877,-0.576 5.754,-1.439" style="fill:#fff;fill-rule:nonzero;"/><path d="M1878.37,4150.18c36.824,134.351 73.36,267.839 110.472,402.19c-15.535,4.315 -30.495,8.63 -45.455,12.946c-30.782,8.63 -61.565,16.973 -92.348,25.316c-23.878,6.329 -37.112,-1.438 -43.729,-25.316c-30.495,-111.048 -61.277,-222.384 -91.772,-333.72c-6.617,-23.59 1.438,-37.111 25.316,-43.728c44.017,-12.083 87.745,-24.166 131.762,-36.249c1.151,-0.288 2.877,-0.576 5.754,-1.439Z" style="fill:none;fill-rule:nonzero;stroke:#92c9ec;stroke-width:16.89px;"/></g></g></g></g></svg>