<?xml version="1.0" encoding="utf-8"?>
<!-- Generator: Adobe Illustrator 24.0.0, SVG Export Plug-In . SVG Version: 6.00 Build 0)  -->
<svg version="1.1" id="Livello_1" xmlns="http://www.w3.org/2000/svg" xmlns:xlink="http://www.w3.org/1999/xlink" x="0px" y="0px"
	 viewBox="0 0 1681.5 3414.7" style="enable-background:new 0 0 1681.5 3414.7;" xml:space="preserve">
<style type="text/css">
	.st0{clip-path:url(#SVGID_2_);}
	.st1{clip-path:url(#SVGID_4_);fill:#D3E4F5;}
	.st2{clip-path:url(#SVGID_4_);fill:#B2D1ED;}
	.st3{clip-path:url(#SVGID_4_);}
	.st4{clip-path:url(#SVGID_6_);}
	.st5{opacity:0.29;clip-path:url(#SVGID_8_);}
	.st6{clip-path:url(#SVGID_10_);fill:#FFFFFF;}
	.st7{clip-path:url(#SVGID_10_);fill:none;stroke:#92C9EC;stroke-width:5.872;stroke-miterlimit:10;}
</style>
<g>
	<defs>
		<rect id="SVGID_1_" x="0" width="1681.5" height="3414.7"/>
	</defs>
	<clipPath id="SVGID_2_">
		<use xlink:href="#SVGID_1_"  style="overflow:visible;"/>
	</clipPath>
	<g class="st0">
		<defs>
			<rect id="SVGID_3_" x="0" y="0" width="1681.5" height="3414.7"/>
		</defs>
		<clipPath id="SVGID_4_">
			<use xlink:href="#SVGID_3_"  style="overflow:visible;"/>
		</clipPath>
		<path class="st1" d="M333.1,0C149.1,0,0,149.1,0,333.1v1015.2c0,184,149.1,333.1,333.1,333.1h1015.3
			c184,0,333.1-149.1,333.1-333.1V333.1c0-184-149.1-333.1-333.1-333.1H333.1z"/>
		<path class="st2" d="M1681.5,1348.4V333.1c0-163.1-117.3-298.6-272.1-327.3c23.8,362.5-13.3,1479.6-1369.8,1500.1
			c2,3.6,4,7.3,6.1,10.8H12.9v1898h1628.5v-1898h-5.5C1664.9,1467.3,1681.5,1409.8,1681.5,1348.4"/>
		<g class="st3">
			<defs>
				<rect id="SVGID_5_" x="88.2" y="833.8" width="479.5" height="483"/>
			</defs>
			<clipPath id="SVGID_6_">
				<use xlink:href="#SVGID_5_"  style="overflow:visible;"/>
			</clipPath>
			<g class="st4">
				<defs>
					<rect id="SVGID_7_" x="88.2" y="833.8" width="479.5" height="483"/>
				</defs>
				<clipPath id="SVGID_8_">
					<use xlink:href="#SVGID_7_"  style="overflow:visible;"/>
				</clipPath>
				<g class="st5">
					<g>
						<defs>
							<rect id="SVGID_9_" x="71.2" y="820.8" width="513.5" height="497"/>
						</defs>
						<clipPath id="SVGID_10_">
							<use xlink:href="#SVGID_9_"  style="overflow:visible;"/>
						</clipPath>
						<path class="st6" d="M400.5,1025.7c-0.1,2.1-0.4,4.5-0.5,7c-0.3,6.3,3.5,10.9,9.5,11.5c5.7,0.5,10.3-3.4,11.1-9.6
							c2.4-19.2-1.2-37.3-10.2-54.3c-29.2-55.5-101.6-67.4-146.9-24c-22.1,21.3-31.5,47.7-28.4,78.3c0.6,6.1,5.8,10.2,11.5,9.5
							c6.1-0.8,9.6-5.8,9.3-12.1c-0.3-6-0.5-12.2,0.2-18.1c5.4-41.6,45.6-70,86.6-61.5C376.2,959.4,401.8,991.6,400.5,1025.7
							 M449.1,1074.6c-14.1-3.2-28-6.4-41.8-9.5c-18.1-4.1-36.1-8.1-54.2-12.1c-9.2-2-18.4-4.6-27.7-5.5c-20.7-2-39,4.6-54.5,18.4
							c-2.3,2-4.5,3.1-7.6,3.5c-17.9,1.9-35.8,4-53.7,6.1c-1.8,0.2-2.7-0.1-3.4-1.9c-4-9.8-11.5-15.8-21.6-18.6
							c-13.1-3.6-26.2-7.2-39.3-10.7c-2.4-0.6-3.1-1.9-3.4-4.3c-1.1-13.1-0.9-26.1,0.7-39.1c0.8-6.7,4.4-10.2,11.1-10.4
							c7.7-0.2,15.4-0.1,23.2-0.1c6.9,0,9.7-2.5,12.2-9c3.2-8.7,6.7-17.2,10.6-25.6c3.5-7.5,3.3-10.8-2.6-16.8
							c-5.2-5.2-10.3-10.3-15.5-15.5c-4.5-4.5-4.8-9.7-0.9-14.7c8.5-10.9,18.1-20.8,28.8-29.6c6.1-5,10.9-4.7,16.5,0.9
							c5,5,10,10,15.1,15.1c4.8,4.9,9.1,5.5,15,2.1c9.6-5.5,19.7-9.8,30.3-13c6.3-1.9,8.8-5.3,8.8-12c0-7.5,0-15,0-22.5
							c0-7.1,3.4-10.8,10.4-11.7c13.7-1.7,27.5-1.8,41.3-0.5c6.6,0.6,10.2,4.5,10.3,11.2c0.1,7.6,0,15.2,0,22.9
							c0,6.4,2.7,10,8.8,11.6c11,3,21.5,7.1,31.4,12.6c4.7,2.6,9.4,2,13.3-1.8c5.7-5.6,11.3-11.4,17.1-17c4.9-4.8,9.7-5.1,15.1-0.9
							c11,8.5,21,18.2,29.7,29.1c4.4,5.4,4.1,10.4-0.7,15.4c-5.2,5.4-10.6,10.7-16,15.9c-4.4,4.3-5.2,8.9-2.1,14.2
							c5.7,10,10.2,20.4,13.5,31.4c1.7,5.5,5.1,8.1,10.9,8.1c7.5,0.1,15,0,22.5,0c8.3,0,11.7,3.1,12.7,11.4
							c1.5,13,1.6,26.1,0.5,39.1c-0.2,2.4-1.5,2.8-3.2,3.3c-12.1,3.3-24.1,6.9-36.3,9.9C462.6,1056.9,453.8,1062.8,449.1,1074.6"/>
						<path class="st7" d="M400.5,1025.7c-0.1,2.1-0.4,4.5-0.5,7c-0.3,6.3,3.5,10.9,9.5,11.5c5.7,0.5,10.3-3.4,11.1-9.6
							c2.4-19.2-1.2-37.3-10.2-54.3c-29.2-55.5-101.6-67.4-146.9-24c-22.1,21.3-31.5,47.7-28.4,78.3c0.6,6.1,5.8,10.2,11.5,9.5
							c6.1-0.8,9.6-5.8,9.3-12.1c-0.3-6-0.5-12.2,0.2-18.1c5.4-41.6,45.6-70,86.6-61.5C376.2,959.4,401.8,991.6,400.5,1025.7z
							 M449.1,1074.6c-14.1-3.2-28-6.4-41.8-9.5c-18.1-4.1-36.1-8.1-54.2-12.1c-9.2-2-18.4-4.6-27.7-5.5c-20.7-2-39,4.6-54.5,18.4
							c-2.3,2-4.5,3.1-7.6,3.5c-17.9,1.9-35.8,4-53.7,6.1c-1.8,0.2-2.7-0.1-3.4-1.9c-4-9.8-11.5-15.8-21.6-18.6
							c-13.1-3.6-26.2-7.2-39.3-10.7c-2.4-0.6-3.1-1.9-3.4-4.3c-1.1-13.1-0.9-26.1,0.7-39.1c0.8-6.7,4.4-10.2,11.1-10.4
							c7.7-0.2,15.4-0.1,23.2-0.1c6.9,0,9.7-2.5,12.2-9c3.2-8.7,6.7-17.2,10.6-25.6c3.5-7.5,3.3-10.8-2.6-16.8
							c-5.2-5.2-10.3-10.3-15.5-15.5c-4.5-4.5-4.8-9.7-0.9-14.7c8.5-10.9,18.1-20.8,28.8-29.6c6.1-5,10.9-4.7,16.5,0.9
							c5,5,10,10,15.1,15.1c4.8,4.9,9.1,5.5,15,2.1c9.6-5.5,19.7-9.8,30.3-13c6.3-1.9,8.8-5.3,8.8-12c0-7.5,0-15,0-22.5
							c0-7.1,3.4-10.8,10.4-11.7c13.7-1.7,27.5-1.8,41.3-0.5c6.6,0.6,10.2,4.5,10.3,11.2c0.1,7.6,0,15.2,0,22.9
							c0,6.4,2.7,10,8.8,11.6c11,3,21.5,7.1,31.4,12.6c4.7,2.6,9.4,2,13.3-1.8c5.7-5.6,11.3-11.4,17.1-17c4.9-4.8,9.7-5.1,15.1-0.9
							c11,8.5,21,18.2,29.7,29.1c4.4,5.4,4.1,10.4-0.7,15.4c-5.2,5.4-10.6,10.7-16,15.9c-4.4,4.3-5.2,8.9-2.1,14.2
							c5.7,10,10.2,20.4,13.5,31.4c1.7,5.5,5.1,8.1,10.9,8.1c7.5,0.1,15,0,22.5,0c8.3,0,11.7,3.1,12.7,11.4
							c1.5,13,1.6,26.1,0.5,39.1c-0.2,2.4-1.5,2.8-3.2,3.3c-12.1,3.3-24.1,6.9-36.3,9.9C462.6,1056.9,453.8,1062.8,449.1,1074.6z"/>
						<path class="st6" d="M251.7,1091.8c-3.4,5.8-6.5,11-9.6,16.2c-5.1,8.6-10.2,17.2-15.3,25.8c-3.7,6.2-2.8,11.1,2.8,15.8
							c25.6,21.5,65,17.3,85.6-9.2c2.5-3.2,4.9-6.3,7.6-9.7c4.4,3.4,8.6,6.6,12.8,9.9c34.5,26.7,69,53.4,103.5,80.1
							c3.6,2.8,6,6,4.9,10.8c-1.2,5.1-4.3,8.6-9.4,10.1c-3.4,1-6.2-0.5-8.8-2.5c-21.2-16.5-42.5-32.9-63.7-49.3
							c-4.9-3.8-10.3-3.9-14.4-0.3c-4.9,4.3-4.6,11.9,0.8,16.2c11.8,9.3,23.7,18.4,35.6,27.6c8.4,6.5,16.7,13,25.1,19.5
							c5.3,4.1,5.9,9.8,1.6,15.4c-4.3,5.6-10,6.6-15.3,2.5c-17.2-13.2-34.3-26.6-51.5-39.9c-5.5-4.3-11-8.6-16.6-12.9
							c-5.3-4-11.7-3.3-15.4,1.5c-3.7,4.9-2.6,11.1,2.7,15.2c17.5,13.6,35,27.1,52.5,40.6c0.5,0.4,1,0.8,1.5,1.2
							c3.5,2.5,5.8,5.7,4.8,10.2c-1.1,5-4,8.6-8.9,10.2c-3.3,1.1-6.3,0.2-8.9-1.9c-12.9-10-25.7-19.9-38.6-29.9
							c-7.9-6.1-15.7-12.3-23.6-18.4c-5.4-4.2-11.8-3.7-15.7,1.2c-3.8,4.7-2.7,11.1,2.8,15.4c12.7,9.9,25.4,19.7,38.1,29.5
							c3.5,2.7,6,5.7,5,10.4c-1,4.9-3.9,8.4-8.6,10.1c-3.5,1.3-6.6,0.2-9.5-2c-20.2-15.7-40.5-31.4-60.8-47.1
							c-22-17-43.9-34.1-66-50.9c-2.6-2-3.3-3.6-2.4-6.9c9.8-35.2,19.5-70.5,29.1-105.8c0.8-2.9,2-4.1,5.1-4.4
							c12.1-1.1,24.1-2.7,36.2-4C248.2,1092,249.5,1092,251.7,1091.8"/>
						<path class="st7" d="M251.7,1091.8c-3.4,5.8-6.5,11-9.6,16.2c-5.1,8.6-10.2,17.2-15.3,25.8c-3.7,6.2-2.8,11.1,2.8,15.8
							c25.6,21.5,65,17.3,85.6-9.2c2.5-3.2,4.9-6.3,7.6-9.7c4.4,3.4,8.6,6.6,12.8,9.9c34.5,26.7,69,53.4,103.5,80.1
							c3.6,2.8,6,6,4.9,10.8c-1.2,5.1-4.3,8.6-9.4,10.1c-3.4,1-6.2-0.5-8.8-2.5c-21.2-16.5-42.5-32.9-63.7-49.3
							c-4.9-3.8-10.3-3.9-14.4-0.3c-4.9,4.3-4.6,11.9,0.8,16.2c11.8,9.3,23.7,18.4,35.6,27.6c8.4,6.5,16.7,13,25.1,19.5
							c5.3,4.1,5.9,9.8,1.6,15.4c-4.3,5.6-10,6.6-15.3,2.5c-17.2-13.2-34.3-26.6-51.5-39.9c-5.5-4.3-11-8.6-16.6-12.9
							c-5.3-4-11.7-3.3-15.4,1.5c-3.7,4.9-2.6,11.1,2.7,15.2c17.5,13.6,35,27.1,52.5,40.6c0.5,0.4,1,0.8,1.5,1.2
							c3.5,2.5,5.8,5.7,4.8,10.2c-1.1,5-4,8.6-8.9,10.2c-3.3,1.1-6.3,0.2-8.9-1.9c-12.9-10-25.7-19.9-38.6-29.9
							c-7.9-6.1-15.7-12.3-23.6-18.4c-5.4-4.2-11.8-3.7-15.7,1.2c-3.8,4.7-2.7,11.1,2.8,15.4c12.7,9.9,25.4,19.7,38.1,29.5
							c3.5,2.7,6,5.7,5,10.4c-1,4.9-3.9,8.4-8.6,10.1c-3.5,1.3-6.6,0.2-9.5-2c-20.2-15.7-40.5-31.4-60.8-47.1
							c-22-17-43.9-34.1-66-50.9c-2.6-2-3.3-3.6-2.4-6.9c9.8-35.2,19.5-70.5,29.1-105.8c0.8-2.9,2-4.1,5.1-4.4
							c12.1-1.1,24.1-2.7,36.2-4C248.2,1092,249.5,1092,251.7,1091.8z"/>
						<path class="st6" d="M480.2,1210c-6.5,4.3-15.2,3.9-22.1-1.2c-9.1-6.8-18-13.8-26.9-20.7c-33.8-26.1-67.5-52.3-101.2-78.4
							c-6.3-4.9-12.5-9.8-18.8-14.5c-6.8-5.1-15.7-1.6-17,6.6c-0.6,4,0.9,7.3,4,9.8c2.5,2.1,5.2,4,7.8,6
							c-8.3,13.3-18.5,23.6-35.2,24.7c-7.6,0.5-14.7-1.1-21.8-4.8c2.4-4.2,4.7-8.2,7.1-12.3c5.8-9.8,11.8-19.5,17.5-29.4
							c10.3-17.9,25.7-27.4,46.3-28c5.4-0.1,11,1.4,16.4,2.6c36.5,8.2,73,16.5,109.5,24.7c2.4,0.5,3.6,1.5,4.2,4
							c9.8,36.1,19.7,72.2,29.6,108.3C479.9,1208.3,480,1209.2,480.2,1210"/>
						<path class="st7" d="M480.2,1210c-6.5,4.3-15.2,3.9-22.1-1.2c-9.1-6.8-18-13.8-26.9-20.7c-33.8-26.1-67.5-52.3-101.2-78.4
							c-6.3-4.9-12.5-9.8-18.8-14.5c-6.8-5.1-15.7-1.6-17,6.6c-0.6,4,0.9,7.3,4,9.8c2.5,2.1,5.2,4,7.8,6
							c-8.3,13.3-18.5,23.6-35.2,24.7c-7.6,0.5-14.7-1.1-21.8-4.8c2.4-4.2,4.7-8.2,7.1-12.3c5.8-9.8,11.8-19.5,17.5-29.4
							c10.3-17.9,25.7-27.4,46.3-28c5.4-0.1,11,1.4,16.4,2.6c36.5,8.2,73,16.5,109.5,24.7c2.4,0.5,3.6,1.5,4.2,4
							c9.8,36.1,19.7,72.2,29.6,108.3C479.9,1208.3,480,1209.2,480.2,1210z"/>
						<path class="st6" d="M91.8,1201.6c12.8-46.8,25.6-93.2,38.4-139.9c6.7,1.9,13.2,3.6,19.7,5.4c9.8,2.7,19.6,5.4,29.4,8.1
							c6.7,1.9,9.6,7,7.7,13.8c-10.8,39.4-21.6,78.7-32.4,118.1c-2.1,7.8-7.4,9.7-12.8,8.2C125.3,1210.9,108.8,1206.3,91.8,1201.6"
							/>
						<path class="st7" d="M91.8,1201.6c12.8-46.8,25.6-93.2,38.4-139.9c6.7,1.9,13.2,3.6,19.7,5.4c9.8,2.7,19.6,5.4,29.4,8.1
							c6.7,1.9,9.6,7,7.7,13.8c-10.8,39.4-21.6,78.7-32.4,118.1c-2.1,7.8-7.4,9.7-12.8,8.2C125.3,1210.9,108.8,1206.3,91.8,1201.6z"
							/>
						<path class="st6" d="M525.7,1061.7c12.8,46.7,25.5,93.1,38.4,139.8c-5.4,1.5-10.6,3-15.8,4.5c-10.7,3-21.4,5.9-32.1,8.8
							c-8.3,2.2-12.9-0.5-15.2-8.8c-10.6-38.6-21.3-77.3-31.9-116c-2.3-8.2,0.5-12.9,8.8-15.2c15.3-4.2,30.5-8.4,45.8-12.6
							C524.1,1062.1,524.7,1062,525.7,1061.7"/>
						<path class="st7" d="M525.7,1061.7c12.8,46.7,25.5,93.1,38.4,139.8c-5.4,1.5-10.6,3-15.8,4.5c-10.7,3-21.4,5.9-32.1,8.8
							c-8.3,2.2-12.9-0.5-15.2-8.8c-10.6-38.6-21.3-77.3-31.9-116c-2.3-8.2,0.5-12.9,8.8-15.2c15.3-4.2,30.5-8.4,45.8-12.6
							C524.1,1062.1,524.7,1062,525.7,1061.7z"/>
					</g>
				</g>
			</g>
		</g>
	</g>
</g>
</svg>
