<?xml version="1.0" encoding="utf-8"?>
<!-- Generator: Adobe Illustrator 24.0.0, SVG Export Plug-In . SVG Version: 6.00 Build 0)  -->
<svg version="1.1" id="Livello_1" xmlns="http://www.w3.org/2000/svg" xmlns:xlink="http://www.w3.org/1999/xlink" x="0px" y="0px"
	 viewBox="0 0 1681.5 3414.7" style="enable-background:new 0 0 1681.5 3414.7;" xml:space="preserve">
<style type="text/css">
	.st0{clip-path:url(#SVGID_2_);}
	.st1{clip-path:url(#SVGID_4_);fill:#D3E4F5;}
	.st2{clip-path:url(#SVGID_4_);fill:#B2D1ED;}
	.st3{clip-path:url(#SVGID_4_);}
	.st4{clip-path:url(#SVGID_6_);}
	.st5{opacity:0.34;clip-path:url(#SVGID_8_);}
	.st6{clip-path:url(#SVGID_10_);fill:#FFFFFF;}
	.st7{clip-path:url(#SVGID_10_);fill:none;stroke:#92C9EC;stroke-width:6.06;stroke-miterlimit:10;}
</style>
<g>
	<defs>
		<rect id="SVGID_1_" x="0" width="1681.5" height="3414.7"/>
	</defs>
	<clipPath id="SVGID_2_">
		<use xlink:href="#SVGID_1_"  style="overflow:visible;"/>
	</clipPath>
	<g class="st0">
		<defs>
			<rect id="SVGID_3_" x="0" y="0" width="1681.5" height="3414.7"/>
		</defs>
		<clipPath id="SVGID_4_">
			<use xlink:href="#SVGID_3_"  style="overflow:visible;"/>
		</clipPath>
		<path class="st1" d="M333.1,0C149.1,0,0,149.1,0,333.1v1015.2c0,184,149.1,333.1,333.1,333.1h1015.3
			c184,0,333.1-149.1,333.1-333.1V333.1c0-184-149.1-333.1-333.1-333.1H333.1z"/>
		<path class="st2" d="M1681.5,1348.4V333.1c0-163.1-117.3-298.6-272.1-327.3c23.8,362.5-13.3,1479.6-1369.8,1500.1
			c2,3.6,4,7.3,6.1,10.8H12.9v1898h1628.5v-1898h-5.5C1664.9,1467.3,1681.5,1409.8,1681.5,1348.4"/>
		<g class="st3">
			<defs>
				<rect id="SVGID_5_" x="109.9" y="841.8" width="425.6" height="529.5"/>
			</defs>
			<clipPath id="SVGID_6_">
				<use xlink:href="#SVGID_5_"  style="overflow:visible;"/>
			</clipPath>
			<g class="st4">
				<defs>
					<rect id="SVGID_7_" x="109.9" y="841.8" width="425.6" height="529.5"/>
				</defs>
				<clipPath id="SVGID_8_">
					<use xlink:href="#SVGID_7_"  style="overflow:visible;"/>
				</clipPath>
				<g class="st5">
					<g>
						<defs>
							<rect id="SVGID_9_" x="92.9" y="828.8" width="459.6" height="543.5"/>
						</defs>
						<clipPath id="SVGID_10_">
							<use xlink:href="#SVGID_9_"  style="overflow:visible;"/>
						</clipPath>
						<path class="st6" d="M309,1066.5c-2.8-3.3-4.9-6.2-7.3-8.6c-15.4-15.4-30.8-30.7-46.3-46c-5-4.9-11.6-5-16-0.5
							c-4.3,4.3-4.5,10.8,0.2,15.5c20.8,20.8,41.7,41.6,62.8,62.3c5.3,5.2,11.6,4.7,16.7-0.7c1.3-1.4,2.6-2.9,3.8-4.4
							c27.4-32.1,54.8-64.2,82.2-96.3c11.3-13.2,22.7-26.2,34.1-39.4c1.3-1.5,2.5-2.9,3.7-4.4c4.2-5.6,3.7-11.9-1.2-15.9
							c-4.8-4-11.5-3.4-16,1.8c-13,15.1-25.8,30.4-38.7,45.6c-13.1,15.4-26.3,30.8-39.4,46.2C335,1036.2,322.6,1050.6,309,1066.5
							 M323.1,1157.1c6.7-0.6,13.4-0.9,20-1.8c5.4-0.7,10.8-1.9,16-3.4c74.7-21.6,114-99.7,86.7-172.1c-3.5-9.2-9.2-12.9-15.9-10.4
							c-6.7,2.5-8.2,9-4.9,18.2c14.1,39.2,8.9,75.8-17.8,107.9c-26.4,31.8-61.6,44.7-102.4,37.5c-43.5-7.6-73.1-33.6-85.6-75.6
							c-12.6-42.3-1.7-79.8,30.7-110.4c20-18.8,44.4-28.1,71.9-28.5c25.7-0.4,48.9,7.5,69.1,23.3c3.5,2.7,7.1,4.6,11.6,3.4
							c4.3-1.1,7.1-3.8,8.1-8.2c1.1-5.3-1.3-9.1-5.4-12.2c-30.7-23.7-65.4-32.8-103.7-26.5c-66.9,11.1-114.6,71.8-108.9,138
							C198.4,1105,254.5,1156.7,323.1,1157.1 M153,1101.6c1.2-7.2,2.3-14.5,3.5-21.7c2-11.8-1.4-22.1-8.3-31.6
							c-3.2-4.4-6.3-8.8-9.5-13.2c-4.2-5.7-4.2-11.3,0-16.9c2.9-3.9,5.7-8,8.7-11.9c8.8-11.2,11.4-23.7,8.5-37.5
							c-1-4.8-1.7-9.6-2.5-14.5c-1.2-6.5,1.1-11.3,6.9-14.4c5.3-2.8,10.5-5.8,15.7-8.6c10.6-5.7,17.6-14.3,20.8-25.9
							c1.7-5.9,3.4-11.7,5.2-17.6c1.8-6.1,5.9-9.2,12.4-9.5c7.2-0.3,14.4-0.9,21.6-1.5c9.9-0.9,18.2-5.3,24.9-12.4
							c4.4-4.7,8.8-9.5,13.1-14.4c4.7-5.3,10.2-6.4,16.6-3.7c4.7,2,9.4,3.9,14.1,5.9c12.5,5.5,24.9,5.5,37.4,0
							c5.2-2.2,10.4-4.4,15.6-6.4c5.3-2,10.1-1.3,14,3c3.9,4.3,7.9,8.5,11.6,12.9c8.8,10.4,20.2,15.4,33.7,15.8
							c5.6,0.2,11.2,0.6,16.9,1c5.1,0.4,8.6,2.9,10.2,7.7c1.7,5.1,3.5,10.3,4.7,15.5c3.4,14.1,11.5,24.5,24.6,31
							c4.6,2.3,8.9,4.9,13.4,7.3c5.4,3,7.6,7.5,6.6,13.6c-0.9,5.2-1.6,10.4-2.6,15.5c-2.7,13.4-0.2,25.7,8.2,36.6
							c2.9,3.7,5.6,7.7,8.4,11.4c4.8,6.2,4.9,12.4,0.1,18.7c-2.7,3.5-5,7.2-7.7,10.6c-9.1,11.5-11.9,24.2-8.8,38.5
							c1.1,4.9,1.7,10,2.5,15c0.9,5.8-1.2,10.2-6.5,13.1c-5.5,3-11.1,6.1-16.6,9.2c-12.5,7-19.5,17.5-21.7,31.6
							c-0.9,5.6-3.4,10.9-5.4,16.3c-0.5,1.3-2,2.9-3.3,3.1c-6.5,1.1-13.1,2.3-19.7,2.5c-12.3,0.3-23.9,2.5-32.8,11.7
							c-5.1,5.3-10.1,10.7-15,16.2c-4.6,5.1-9.9,6.1-16.2,3.4c-5-2.2-10.1-4.2-15.1-6.3c-11.8-5-23.6-5.1-35.4-0.1
							c-5.2,2.2-10.4,4.2-15.6,6.4c-6.1,2.6-11.3,1.6-15.7-3.3c-3.5-3.9-7.2-7.7-10.6-11.7c-8.4-9.9-18.8-15.6-32-16.1
							c-5.3-0.2-10.5-0.7-15.8-0.7c-8,0.1-12.6-2.7-15-10.3c-1.4-4.5-2.2-9.1-3.3-13.7c-3-12-8.9-22-20.1-28.3
							c-6.3-3.5-12.6-7-18.8-10.6C154.8,1110.1,152.5,1106.6,153,1101.6"/>
						<path class="st7" d="M309,1066.5c-2.8-3.3-4.9-6.2-7.3-8.6c-15.4-15.4-30.8-30.7-46.3-46c-5-4.9-11.6-5-16-0.5
							c-4.3,4.3-4.5,10.8,0.2,15.5c20.8,20.8,41.7,41.6,62.8,62.3c5.3,5.2,11.6,4.7,16.7-0.7c1.3-1.4,2.6-2.9,3.8-4.4
							c27.4-32.1,54.8-64.2,82.2-96.3c11.3-13.2,22.7-26.2,34.1-39.4c1.3-1.5,2.5-2.9,3.7-4.4c4.2-5.6,3.7-11.9-1.2-15.9
							c-4.8-4-11.5-3.4-16,1.8c-13,15.1-25.8,30.4-38.7,45.6c-13.1,15.4-26.3,30.8-39.4,46.2C335,1036.2,322.6,1050.6,309,1066.5z
							 M323.1,1157.1c6.7-0.6,13.4-0.9,20-1.8c5.4-0.7,10.8-1.9,16-3.4c74.7-21.6,114-99.7,86.7-172.1c-3.5-9.2-9.2-12.9-15.9-10.4
							c-6.7,2.5-8.2,9-4.9,18.2c14.1,39.2,8.9,75.8-17.8,107.9c-26.4,31.8-61.6,44.7-102.4,37.5c-43.5-7.6-73.1-33.6-85.6-75.6
							c-12.6-42.3-1.7-79.8,30.7-110.4c20-18.8,44.4-28.1,71.9-28.5c25.7-0.4,48.9,7.5,69.1,23.3c3.5,2.7,7.1,4.6,11.6,3.4
							c4.3-1.1,7.1-3.8,8.1-8.2c1.1-5.3-1.3-9.1-5.4-12.2c-30.7-23.7-65.4-32.8-103.7-26.5c-66.9,11.1-114.6,71.8-108.9,138
							C198.4,1105,254.5,1156.7,323.1,1157.1z M153,1101.6c1.2-7.2,2.3-14.5,3.5-21.7c2-11.8-1.4-22.1-8.3-31.6
							c-3.2-4.4-6.3-8.8-9.5-13.2c-4.2-5.7-4.2-11.3,0-16.9c2.9-3.9,5.7-8,8.7-11.9c8.8-11.2,11.4-23.7,8.5-37.5
							c-1-4.8-1.7-9.6-2.5-14.5c-1.2-6.5,1.1-11.3,6.9-14.4c5.3-2.8,10.5-5.8,15.7-8.6c10.6-5.7,17.6-14.3,20.8-25.9
							c1.7-5.9,3.4-11.7,5.2-17.6c1.8-6.1,5.9-9.2,12.4-9.5c7.2-0.3,14.4-0.9,21.6-1.5c9.9-0.9,18.2-5.3,24.9-12.4
							c4.4-4.7,8.8-9.5,13.1-14.4c4.7-5.3,10.2-6.4,16.6-3.7c4.7,2,9.4,3.9,14.1,5.9c12.5,5.5,24.9,5.5,37.4,0
							c5.2-2.2,10.4-4.4,15.6-6.4c5.3-2,10.1-1.3,14,3c3.9,4.3,7.9,8.5,11.6,12.9c8.8,10.4,20.2,15.4,33.7,15.8
							c5.6,0.2,11.2,0.6,16.9,1c5.1,0.4,8.6,2.9,10.2,7.7c1.7,5.1,3.5,10.3,4.7,15.5c3.4,14.1,11.5,24.5,24.6,31
							c4.6,2.3,8.9,4.9,13.4,7.3c5.4,3,7.6,7.5,6.6,13.6c-0.9,5.2-1.6,10.4-2.6,15.5c-2.7,13.4-0.2,25.7,8.2,36.6
							c2.9,3.7,5.6,7.7,8.4,11.4c4.8,6.2,4.9,12.4,0.1,18.7c-2.7,3.5-5,7.2-7.7,10.6c-9.1,11.5-11.9,24.2-8.8,38.5
							c1.1,4.9,1.7,10,2.5,15c0.9,5.8-1.2,10.2-6.5,13.1c-5.5,3-11.1,6.1-16.6,9.2c-12.5,7-19.5,17.5-21.7,31.6
							c-0.9,5.6-3.4,10.9-5.4,16.3c-0.5,1.3-2,2.9-3.3,3.1c-6.5,1.1-13.1,2.3-19.7,2.5c-12.3,0.3-23.9,2.5-32.8,11.7
							c-5.1,5.3-10.1,10.7-15,16.2c-4.6,5.1-9.9,6.1-16.2,3.4c-5-2.2-10.1-4.2-15.1-6.3c-11.8-5-23.6-5.1-35.4-0.1
							c-5.2,2.2-10.4,4.2-15.6,6.4c-6.1,2.6-11.3,1.6-15.7-3.3c-3.5-3.9-7.2-7.7-10.6-11.7c-8.4-9.9-18.8-15.6-32-16.1
							c-5.3-0.2-10.5-0.7-15.8-0.7c-8,0.1-12.6-2.7-15-10.3c-1.4-4.5-2.2-9.1-3.3-13.7c-3-12-8.9-22-20.1-28.3
							c-6.3-3.5-12.6-7-18.8-10.6C154.8,1110.1,152.5,1106.6,153,1101.6z"/>
						<path class="st6" d="M451,1364.4c-8.7-15.2-17.2-28.4-24.2-42.5c-15.8-31.8-30.7-63.9-46.1-95.9c-1.7-3.4-1.4-5.5,1.7-8.3
							c5.5-5,10.3-10.6,15.2-16.2c4.8-5.5,10.4-8.8,17.9-8.7c2.5,0,5.1-0.5,7.6-0.4c18.1,0.5,32.2-6.2,41.7-23
							c10.6,22.5,20.3,44.5,31.2,65.9c10.9,21.4,23,42.2,34.8,63.8c-1.6,0.2-3.1,0.4-4.6,0.5c-13.7,0.3-27.5,0.6-41.2,0.9
							c-7.8,0.2-11,2.5-13.7,9.9c-5.8,15.8-11.6,31.6-17.5,47.4C453.2,1359.6,452.4,1361.1,451,1364.4"/>
						<path class="st7" d="M451,1364.4c-8.7-15.2-17.2-28.4-24.2-42.5c-15.8-31.8-30.7-63.9-46.1-95.9c-1.7-3.4-1.4-5.5,1.7-8.3
							c5.5-5,10.3-10.6,15.2-16.2c4.8-5.5,10.4-8.8,17.9-8.7c2.5,0,5.1-0.5,7.6-0.4c18.1,0.5,32.2-6.2,41.7-23
							c10.6,22.5,20.3,44.5,31.2,65.9c10.9,21.4,23,42.2,34.8,63.8c-1.6,0.2-3.1,0.4-4.6,0.5c-13.7,0.3-27.5,0.6-41.2,0.9
							c-7.8,0.2-11,2.5-13.7,9.9c-5.8,15.8-11.6,31.6-17.5,47.4C453.2,1359.6,452.4,1361.1,451,1364.4z"/>
						<path class="st6" d="M195.2,1364c-5.3-14.2-10.1-27.2-15-40.2c-1.6-4.2-3.1-8.5-4.6-12.7c-3-8.2-5.8-10.3-14.4-10.4
							c-15-0.1-30,0-46.1,0c12.4-22.6,24.5-43.5,35.5-65c11-21.4,20.8-43.4,31.3-65.4c2.3,3.3,4.1,6.6,6.6,9.4
							c7.4,8.3,17.1,12.1,28.1,12.7c4,0.2,8,0.8,11.9,0.6c10-0.5,17.2,4,23.2,11.6c3.9,4.9,8.3,9.5,13,13.7c2.7,2.4,3.1,4.2,1.6,7.3
							c-11.2,23.9-21.6,48.2-33.5,71.7c-10.6,21-22.7,41.1-34.2,61.6C197.8,1360.4,196.8,1361.7,195.2,1364"/>
						<path class="st7" d="M195.2,1364c-5.3-14.2-10.1-27.2-15-40.2c-1.6-4.2-3.1-8.5-4.6-12.7c-3-8.2-5.8-10.3-14.4-10.4
							c-15-0.1-30,0-46.1,0c12.4-22.6,24.5-43.5,35.5-65c11-21.4,20.8-43.4,31.3-65.4c2.3,3.3,4.1,6.6,6.6,9.4
							c7.4,8.3,17.1,12.1,28.1,12.7c4,0.2,8,0.8,11.9,0.6c10-0.5,17.2,4,23.2,11.6c3.9,4.9,8.3,9.5,13,13.7c2.7,2.4,3.1,4.2,1.6,7.3
							c-11.2,23.9-21.6,48.2-33.5,71.7c-10.6,21-22.7,41.1-34.2,61.6C197.8,1360.4,196.8,1361.7,195.2,1364z"/>
					</g>
				</g>
			</g>
		</g>
	</g>
</g>
</svg>
