<?xml version="1.0" encoding="UTF-8" standalone="no"?><!DOCTYPE svg PUBLIC "-//W3C//DTD SVG 1.1//EN" "http://www.w3.org/Graphics/SVG/1.1/DTD/svg11.dtd"><svg width="100%" height="100%" viewBox="0 0 8959 9030" version="1.1" xmlns="http://www.w3.org/2000/svg" xmlns:xlink="http://www.w3.org/1999/xlink" xml:space="preserve" xmlns:serif="http://www.serif.com/" style="fill-rule:evenodd;clip-rule:evenodd;stroke-linejoin:round;stroke-miterlimit:2;"><g opacity="0.29"><path d="M5157.41,2688.53c-28.035,-30.84 -50.464,-58.875 -75.696,-86.911c-524.266,-599.962 -1180.3,-871.907 -1973.71,-787.801c-627.998,67.286 -1135.44,364.463 -1522.33,860.694c-311.196,400.909 -462.588,860.693 -459.784,1365.33c-0,92.518 -33.643,134.571 -112.143,182.232c-140.178,86.91 -283.159,179.428 -398.106,297.177c-367.266,381.285 -510.248,843.873 -431.748,1368.14c53.268,353.248 215.874,658.837 476.605,902.746c319.607,302.785 703.694,440.16 1143.85,440.16c1785.87,-2.804 3571.74,-0 5357.61,-2.804c92.518,0 185.035,-5.607 277.553,-19.625c728.926,-98.125 1323.28,-742.944 1354.12,-1477.48c25.232,-644.819 -235.499,-1146.66 -793.408,-1477.48c-126.16,-75.696 -168.214,-156.999 -182.231,-291.57c-131.768,-1118.62 -1306.46,-1822.32 -2357.8,-1418.6c-95.321,47.661 -193.446,98.125 -302.785,145.786" style="fill:#fff;fill-opacity:0;fill-rule:nonzero;stroke:#92c9ec;stroke-width:102.08px;"/></g></svg>