<?xml version="1.0" encoding="utf-8"?>
<!-- Generator: Adobe Illustrator 24.0.0, SVG Export Plug-In . SVG Version: 6.00 Build 0)  -->
<svg version="1.1" id="Livello_1" xmlns="http://www.w3.org/2000/svg" xmlns:xlink="http://www.w3.org/1999/xlink" x="0px" y="0px"
	 viewBox="0 0 286.3 125.7" style="enable-background:new 0 0 286.3 125.7;" xml:space="preserve">
<style type="text/css">
	.st0{clip-path:url(#SVGID_2_);}
	.st1{opacity:0.81;clip-path:url(#SVGID_4_);}
	.st2{clip-path:url(#SVGID_6_);fill:none;stroke:#FFFFFF;stroke-width:1.014;}
	.st3{clip-path:url(#SVGID_6_);fill:none;stroke:#FFFFFF;stroke-width:0.507;}
	.st4{clip-path:url(#SVGID_6_);fill:#FFFFFF;}
	.st5{clip-path:url(#SVGID_8_);}
	.st6{fill:#FFFFFF;}
</style>
<g>
	<defs>
		<rect id="SVGID_1_" x="-67.7" width="422.7" height="119.6"/>
	</defs>
	<clipPath id="SVGID_2_">
		<use xlink:href="#SVGID_1_"  style="overflow:visible;"/>
	</clipPath>
	<g class="st0">
		<defs>
			<rect id="SVGID_3_" x="-67.7" width="422.7" height="119.6"/>
		</defs>
		<clipPath id="SVGID_4_">
			<use xlink:href="#SVGID_3_"  style="overflow:visible;"/>
		</clipPath>
		<g class="st1">
			<g>
				<defs>
					<rect id="SVGID_5_" x="12.9" y="22.3" width="261.6" height="98.3"/>
				</defs>
				<clipPath id="SVGID_6_">
					<use xlink:href="#SVGID_5_"  style="overflow:visible;"/>
				</clipPath>
				<path class="st2" d="M188.8,35.8c-8.3,0-15.1,6.7-15.1,15.1v53.2c0,8.3,6.7,15.1,15.1,15.1h53.2c8.3,0,15.1-6.7,15.1-15.1V50.9
					c0-8.3-6.7-15.1-15.1-15.1H188.8z"/>
				<path class="st3" d="M256.7,102.6V52.4c0-7.7-5.4-14.3-12.9-15.9c0.7,10.7,0.3,36.6-16.4,54.6c-11.6,12.5-28.8,19.1-51.2,19.5
					c2.9,5.1,8.3,8.2,14.1,8.2h50.2C249.4,118.8,256.7,111.5,256.7,102.6z"/>
				<path class="st4" d="M246.4,94.6v-6.9h-1.5c-1.1,0-2.1-0.1-2.8-0.4c-0.8-0.3-1.4-0.7-1.8-1.3c-0.5-0.6-0.8-1.2-1-2
					c-0.2-0.8-0.3-1.7-0.3-2.7v-5.9h7.5v-6.9H239v-8.4h-9.7v8.4h-3.7v6.9h3.7v10.4c0,1.6,0.3,3,0.8,4.1c0.5,1.1,1.2,2,2.1,2.7
					c0.9,0.7,1.9,1.2,3.1,1.6c1.2,0.3,2.5,0.5,3.8,0.5H246.4z M223.5,59.9h-9.7v6.3h9.7V59.9z M213.8,94.6h9.7V68.4h-9.7V94.6z
					 M192.5,75.3h4.5c0.9,0,1.5,0.2,2.1,0.6c0.5,0.4,0.9,0.9,1.2,1.5c0.3,0.6,0.4,1.3,0.5,2c0.1,0.7,0.1,1.4,0.1,2
					c0,0.8,0,1.6-0.1,2.3c-0.1,0.7-0.3,1.4-0.5,2c-0.3,0.6-0.7,1-1.2,1.4c-0.5,0.3-1.3,0.5-2.2,0.5H195c-1,0-1.6-0.2-2-0.5
					c-0.3-0.3-0.5-1-0.5-2V75.3z M199.8,94.6c2.1,0,3.9-0.3,5.2-0.9c1.4-0.6,2.5-1.5,3.3-2.6c0.8-1.1,1.4-2.5,1.8-4.1
					c0.3-1.6,0.5-3.4,0.5-5.4c0-2-0.2-3.8-0.5-5.4c-0.3-1.6-0.9-3-1.8-4.1s-2-2-3.3-2.6c-1.4-0.6-3.1-0.9-5.2-0.9h-7.3v-8.4h-9.7
					v29.2c0,1.7,0.5,3.1,1.4,4c0.9,0.9,2.3,1.4,4,1.4H199.8z M148.7,78.8c0.1-0.8,0.4-1.5,0.8-2.1c0.4-0.6,0.9-1,1.6-1.3
					s1.6-0.4,2.7-0.4c1.1,0,2,0.1,2.7,0.4c0.7,0.3,1.2,0.7,1.6,1.3c0.4,0.6,0.6,1.3,0.8,2.1c0.1,0.8,0.2,1.7,0.2,2.7
					c0,1-0.1,1.9-0.2,2.7c-0.1,0.8-0.4,1.5-0.8,2.1c-0.4,0.6-0.9,1-1.6,1.3c-0.7,0.3-1.6,0.4-2.7,0.4c-1.1,0-2-0.1-2.7-0.4
					c-0.7-0.3-1.2-0.7-1.6-1.3c-0.4-0.6-0.6-1.3-0.8-2.1c-0.1-0.8-0.2-1.7-0.2-2.7C148.5,80.5,148.5,79.6,148.7,78.8 M146.7,68.6
					c-1.9,0.4-3.5,1.1-4.7,2.1c-1.2,1-2.1,2.4-2.6,4.1c-0.6,1.7-0.8,4-0.8,6.7c0,2.7,0.3,5,0.8,6.7c0.6,1.7,1.4,3.1,2.6,4.1
					c1.2,1,2.8,1.7,4.7,2.1c1.9,0.4,4.2,0.6,7,0.6c2.7,0,5-0.2,7-0.6c1.9-0.4,3.5-1.1,4.7-2.1c1.2-1,2.1-2.3,2.6-4.1
					c0.6-1.7,0.8-4,0.8-6.7c0-2.7-0.3-4.9-0.8-6.7s-1.4-3.1-2.6-4.1c-1.2-1-2.8-1.7-4.7-2.1c-1.9-0.4-4.2-0.6-7-0.6
					C151,68.1,148.6,68.3,146.7,68.6 M118.4,94.6h9.7V82.1c0-2.2,0.4-4,1.3-5.1c0.9-1.2,2.4-1.8,4.7-1.8h3.6v-6.8h-6.4
					c-2.1,0-4,0.2-5.6,0.5c-1.6,0.3-2.9,0.9-4,1.8c-1.1,0.8-1.9,2-2.4,3.3c-0.5,1.4-0.8,3.1-0.8,5.2V94.6z M96.9,78.5
					c0-0.8,0.1-1.5,0.3-2c0.2-0.5,0.5-0.8,0.9-1.1c0.4-0.2,0.9-0.4,1.4-0.5c0.5-0.1,1.1-0.1,1.7-0.1c0.4,0,0.8,0,1.3,0
					c0.5,0,1,0.1,1.4,0.2c0.4,0.1,0.8,0.3,1.1,0.6c0.3,0.3,0.5,0.7,0.5,1.1c0,0.1,0,0.3,0,0.5c0,0.2-0.1,0.4-0.2,0.5
					s-0.3,0.3-0.5,0.4c-0.2,0.1-0.5,0.2-0.9,0.2H96.9z M114.4,94.6v-6.7h-12.7c-1.7,0-3-0.2-3.7-0.7c-0.7-0.5-1.1-1.3-1.1-2.6h14.3
					c0.9,0,1.6-0.2,2.1-0.5c0.5-0.3,1-0.8,1.3-1.3c0.3-0.5,0.5-1.2,0.6-1.9c0.1-0.7,0.2-1.4,0.2-2.2c0-2.5-0.3-4.4-0.8-5.8
					c-0.5-1.4-1.4-2.5-2.5-3.2c-1.1-0.7-2.6-1.2-4.4-1.4c-1.8-0.2-3.9-0.3-6.4-0.3c-3,0-5.4,0.1-7.2,0.4c-1.8,0.3-3.3,0.9-4.3,1.8
					c-1,0.9-1.7,2.3-2.1,4c-0.4,1.7-0.5,4.1-0.5,7.1c0,2.7,0.1,5,0.4,6.7c0.3,1.7,0.8,3.1,1.5,4c0.7,1,1.8,1.6,3.1,2
					c1.3,0.4,3,0.5,5.1,0.5H114.4z M66.6,75.3h4.5c0.9,0,1.5,0.2,2.1,0.6c0.5,0.4,0.9,0.9,1.2,1.5c0.3,0.6,0.4,1.3,0.5,2
					c0.1,0.7,0.1,1.4,0.1,2c0,0.8,0,1.6-0.1,2.3c-0.1,0.7-0.3,1.4-0.5,2c-0.3,0.6-0.7,1-1.2,1.4c-0.5,0.3-1.3,0.5-2.2,0.5h-1.8
					c-1,0-1.7-0.2-2-0.5c-0.3-0.3-0.5-1-0.5-2V75.3z M74,94.6c2.1,0,3.9-0.3,5.2-0.9c1.4-0.6,2.5-1.5,3.3-2.6
					c0.8-1.1,1.4-2.5,1.8-4.1c0.3-1.6,0.5-3.4,0.5-5.4c0-2-0.2-3.8-0.5-5.4c-0.3-1.6-0.9-3-1.8-4.1s-2-2-3.3-2.6
					c-1.4-0.6-3.1-0.9-5.2-0.9h-7.3v-8.4h-9.7v29.2c0,1.7,0.5,3.1,1.4,4c0.9,0.9,2.3,1.4,4,1.4H74z M53.2,59.9h-9.7v6.3h9.7V59.9z
					 M43.5,94.6h9.7V68.4h-9.7V94.6z M30,94.6h9.7V59.9H30V94.6z"/>
				<path class="st4" d="M163.6,104.4c0-0.1,0-0.1,0.1-0.2c0-0.1,0.1-0.1,0.1-0.1c0,0,0.1,0,0.1,0.1s0.1,0.1,0.1,0.2l0.9,2.3h-2.2
					L163.6,104.4z M161.2,108.6h0.7l0.6-1.4h2.6l0.6,1.4h0.7l-1.9-4.5c-0.1-0.2-0.2-0.3-0.3-0.4c-0.1-0.1-0.2-0.1-0.4-0.1
					c-0.2,0-0.3,0-0.4,0.1c-0.1,0.1-0.2,0.2-0.3,0.4L161.2,108.6z M157.7,108.6v-0.5h-1.8c-0.3,0-0.6,0-0.8-0.1
					c-0.2-0.1-0.4-0.2-0.5-0.4c-0.1-0.2-0.2-0.4-0.3-0.6c-0.1-0.2-0.1-0.5-0.1-0.9s0-0.6,0.1-0.9c0.1-0.2,0.1-0.4,0.3-0.6
					c0.1-0.2,0.3-0.3,0.5-0.4c0.2-0.1,0.5-0.1,0.8-0.1h1.7v-0.5h-1.9c-0.4,0-0.8,0.1-1.1,0.2c-0.3,0.1-0.5,0.3-0.6,0.5
					c-0.2,0.2-0.3,0.5-0.3,0.8c-0.1,0.3-0.1,0.6-0.1,1s0,0.7,0.1,1c0.1,0.3,0.2,0.6,0.3,0.8c0.2,0.2,0.4,0.4,0.6,0.5
					c0.3,0.1,0.6,0.2,1,0.2H157.7z M149.6,103.6h-0.7v5h0.7V103.6z M143.2,108.6v-4.4h2v-0.5h-4.7v0.5h2v4.4H143.2z M135.4,104.4
					c0-0.1,0-0.1,0.1-0.2c0-0.1,0.1-0.1,0.1-0.1c0,0,0.1,0,0.1,0.1c0,0.1,0.1,0.1,0.1,0.2l0.9,2.3h-2.2L135.4,104.4z M133,108.6h0.7
					l0.6-1.4h2.6l0.6,1.4h0.7l-1.9-4.5c-0.1-0.2-0.2-0.3-0.3-0.4c-0.1-0.1-0.2-0.1-0.4-0.1c-0.2,0-0.3,0-0.4,0.1s-0.2,0.2-0.3,0.4
					L133,108.6z M128.5,104.4c0,0,0-0.1,0.1-0.1s0-0.1,0.1-0.1c0,0,0,0,0.1,0c0,0,0,0.1,0,0.1l0,4.2h0.7v-4.5c0-0.2-0.1-0.3-0.2-0.4
					s-0.3-0.1-0.5-0.1c-0.2,0-0.4,0.1-0.5,0.2c-0.1,0.1-0.2,0.2-0.2,0.4l-1.5,3.7c0,0,0,0.1-0.1,0.1c0,0,0,0.1-0.1,0.1
					c0,0-0.1,0-0.1-0.1c0,0,0-0.1-0.1-0.1l-1.5-3.7c0-0.1-0.1-0.2-0.1-0.2c0-0.1-0.1-0.1-0.1-0.2c-0.1,0-0.1-0.1-0.2-0.1
					c-0.1,0-0.2,0-0.3,0c-0.2,0-0.4,0-0.5,0.1c-0.1,0.1-0.2,0.2-0.2,0.4v4.5h0.7l0-4.2c0,0,0-0.1,0-0.1c0,0,0,0,0.1,0
					c0,0,0,0,0.1,0.1s0,0.1,0.1,0.1l1.5,3.7c0.1,0.2,0.1,0.3,0.2,0.4c0.1,0.1,0.2,0.2,0.4,0.2c0.2,0,0.3-0.1,0.4-0.2
					c0.1-0.1,0.2-0.2,0.2-0.4L128.5,104.4z M115.1,108.6h0.7v-4.1c0-0.1,0-0.2,0.1-0.3c0.1,0,0.1-0.1,0.3-0.1h1.8
					c0.2,0,0.3,0,0.4,0.1c0.1,0,0.2,0.1,0.2,0.2c0.1,0.1,0.1,0.2,0.1,0.3c0,0.1,0,0.3,0,0.4c0,0.2,0,0.3,0,0.4c0,0.1,0,0.2-0.1,0.3
					c0,0.1-0.1,0.2-0.2,0.2c-0.1,0.1-0.2,0.1-0.4,0.1h-1.2c-0.1,0-0.2,0-0.2,0.1s-0.1,0.1-0.1,0.2v0.1c0,0.1,0,0.1,0.1,0.2
					c0,0.1,0.1,0.1,0.1,0.1l1.9,1.8h0.9l-2-1.9v0h0.8c0.2,0,0.4,0,0.5-0.1c0.1-0.1,0.3-0.2,0.3-0.3s0.2-0.3,0.2-0.5
					c0-0.2,0.1-0.4,0.1-0.7c0-0.2,0-0.4-0.1-0.6c0-0.2-0.1-0.3-0.2-0.5c-0.1-0.1-0.2-0.2-0.4-0.3c-0.2-0.1-0.3-0.1-0.6-0.1h-2.3
					c-0.2,0-0.4,0.1-0.5,0.2c-0.1,0.1-0.2,0.3-0.2,0.6V108.6z M106.9,105.2c0.1-0.3,0.2-0.5,0.3-0.6c0.1-0.2,0.3-0.3,0.5-0.3
					c0.2-0.1,0.5-0.1,0.9-0.1s0.6,0,0.9,0.1c0.2,0.1,0.4,0.2,0.5,0.3c0.1,0.2,0.2,0.4,0.3,0.6c0.1,0.3,0.1,0.6,0.1,0.9
					c0,0.4,0,0.7-0.1,1c-0.1,0.3-0.2,0.5-0.3,0.6c-0.1,0.2-0.3,0.3-0.5,0.3c-0.2,0.1-0.5,0.1-0.9,0.1s-0.6,0-0.9-0.1
					c-0.2-0.1-0.4-0.2-0.5-0.3c-0.1-0.2-0.2-0.4-0.3-0.6c-0.1-0.3-0.1-0.6-0.1-1C106.8,105.8,106.9,105.4,106.9,105.2 M107.5,103.7
					c-0.3,0.1-0.6,0.2-0.8,0.4c-0.2,0.2-0.3,0.5-0.4,0.8c-0.1,0.3-0.1,0.7-0.1,1.2c0,0.5,0,0.9,0.1,1.2c0.1,0.3,0.2,0.6,0.4,0.8
					c0.2,0.2,0.5,0.3,0.8,0.4c0.3,0.1,0.7,0.1,1.2,0.1c0.5,0,0.8,0,1.2-0.1c0.3-0.1,0.6-0.2,0.8-0.4c0.2-0.2,0.3-0.5,0.4-0.8
					c0.1-0.3,0.1-0.7,0.1-1.2c0-0.5,0-0.9-0.1-1.2c-0.1-0.3-0.2-0.6-0.4-0.8c-0.2-0.2-0.4-0.3-0.8-0.4c-0.3-0.1-0.7-0.1-1.2-0.1
					C108.2,103.6,107.8,103.6,107.5,103.7 M99.8,108.6v-2.2h2.2v-0.5h-2.2v-1.3c0-0.1,0-0.2,0.1-0.3c0,0,0.1-0.1,0.3-0.1h2.7v-0.5
					h-3c-0.2,0-0.4,0.1-0.5,0.2c-0.1,0.1-0.2,0.3-0.2,0.6v4.3H99.8z M95,103.6h-0.6v4.1c0,0,0,0,0,0.1c0,0,0,0-0.1,0
					c0,0-0.1,0-0.1,0s0-0.1-0.1-0.1l-2.4-3.8c-0.1-0.1-0.1-0.2-0.2-0.3c-0.1-0.1-0.2-0.1-0.4-0.1c-0.1,0-0.1,0-0.2,0
					c-0.1,0-0.1,0.1-0.2,0.1c-0.1,0-0.1,0.1-0.1,0.2c0,0.1-0.1,0.2-0.1,0.3v4.5h0.6v-4.1c0-0.1,0-0.1,0-0.1c0,0,0,0,0.1,0
					c0,0,0.1,0,0.1,0.1l2.4,3.8c0.1,0.2,0.2,0.3,0.3,0.3c0.1,0.1,0.2,0.1,0.4,0.1c0.2,0,0.3-0.1,0.4-0.2c0.1-0.1,0.2-0.3,0.2-0.5
					V103.6z M86.3,103.6h-0.7v5h0.7V103.6z M74.5,104.4c0-0.1,0-0.1,0.1-0.2s0.1-0.1,0.1-0.1c0,0,0.1,0,0.1,0.1s0.1,0.1,0.1,0.2
					l0.9,2.3h-2.2L74.5,104.4z M72.1,108.6h0.7l0.6-1.4H76l0.6,1.4h0.7l-1.9-4.5c-0.1-0.2-0.2-0.3-0.3-0.4c-0.1-0.1-0.2-0.1-0.4-0.1
					c-0.2,0-0.3,0-0.4,0.1s-0.2,0.2-0.3,0.4L72.1,108.6z M64.3,108.6H65v-4.1c0-0.1,0-0.2,0.1-0.3c0.1,0,0.1-0.1,0.3-0.1h1.8
					c0.2,0,0.3,0,0.4,0.1c0.1,0,0.2,0.1,0.2,0.2c0.1,0.1,0.1,0.2,0.1,0.3c0,0.1,0,0.3,0,0.4c0,0.2,0,0.3,0,0.4c0,0.1,0,0.2-0.1,0.3
					c0,0.1-0.1,0.2-0.2,0.2c-0.1,0.1-0.2,0.1-0.4,0.1H66c-0.1,0-0.2,0-0.2,0.1c-0.1,0-0.1,0.1-0.1,0.2v0.1c0,0.1,0,0.1,0.1,0.2
					c0,0.1,0.1,0.1,0.1,0.1l1.9,1.8h0.9l-2-1.9v0h0.8c0.2,0,0.4,0,0.5-0.1c0.1-0.1,0.3-0.2,0.3-0.3s0.2-0.3,0.2-0.5
					c0-0.2,0.1-0.4,0.1-0.7c0-0.2,0-0.4-0.1-0.6c0-0.2-0.1-0.3-0.2-0.5c-0.1-0.1-0.2-0.2-0.4-0.3c-0.2-0.1-0.3-0.1-0.6-0.1h-2.3
					c-0.2,0-0.4,0.1-0.5,0.2c-0.1,0.1-0.2,0.3-0.2,0.6V108.6z M58.7,108.6v-4.4h2v-0.5H56v0.5h2v4.4H58.7z M53.6,108.6v-0.5h-2.8
					c-0.1,0-0.2,0-0.2-0.1c0,0-0.1-0.1-0.1-0.2v-4.1h-0.7v4.4c0,0.2,0.1,0.4,0.2,0.5c0.1,0.1,0.3,0.1,0.5,0.1H53.6z M43.5,104.4
					c0-0.1,0-0.1,0.1-0.2c0-0.1,0.1-0.1,0.1-0.1c0,0,0.1,0,0.1,0.1s0.1,0.1,0.1,0.2l0.9,2.3h-2.2L43.5,104.4z M41.1,108.6h0.7
					l0.6-1.4H45l0.6,1.4h0.7l-1.9-4.5c-0.1-0.2-0.2-0.3-0.3-0.4c-0.1-0.1-0.2-0.1-0.4-0.1c-0.2,0-0.3,0-0.4,0.1s-0.2,0.2-0.3,0.4
					L41.1,108.6z M36.9,105.1l0.8-1.3l-0.5-0.3l-0.8,1.3L36.9,105.1z M33.6,108.6v-0.5h-2.8c-0.1,0-0.2,0-0.2-0.1
					c0,0-0.1-0.1-0.1-0.2v-4.1h-0.7v4.4c0,0.2,0.1,0.4,0.2,0.5c0.1,0.1,0.3,0.1,0.5,0.1H33.6z"/>
			</g>
		</g>
		<g class="st1">
			<g>
				<defs>
					<rect id="SVGID_7_" x="-67.7" width="422.7" height="38.5"/>
				</defs>
				<clipPath id="SVGID_8_">
					<use xlink:href="#SVGID_7_"  style="overflow:visible;"/>
				</clipPath>
				<g class="st5">
					<path class="st6" d="M0.8,21l1.8-2.2c1.3,1,2.6,1.7,4.2,1.7c1.3,0,2-0.5,2-1.3v0c0-0.8-0.5-1.2-2.8-1.8
						c-2.8-0.7-4.6-1.5-4.6-4.3v0c0-2.5,2-4.2,4.9-4.2c2,0,3.8,0.6,5.2,1.8l-1.6,2.3c-1.2-0.9-2.5-1.4-3.6-1.4
						c-1.2,0-1.8,0.5-1.8,1.2v0c0,0.9,0.6,1.2,3,1.8c2.8,0.7,4.4,1.8,4.4,4.2v0c0,2.8-2.1,4.3-5.1,4.3C4.7,23.2,2.5,22.5,0.8,21z"/>
					<path class="st6" d="M17.6,16L17.6,16c0-4,3.1-7.3,7.5-7.3c4.3,0,7.4,3.2,7.4,7.2v0c0,4-3.1,7.2-7.5,7.2
						C20.7,23.2,17.6,20,17.6,16z M29.2,16L29.2,16c0-2.4-1.8-4.4-4.2-4.4s-4.2,2-4.2,4.4v0c0,2.4,1.8,4.4,4.2,4.4
						S29.2,18.4,29.2,16z"/>
					<path class="st6" d="M38.8,9h3.1v11.2h7V23H38.8V9z"/>
					<path class="st6" d="M54.1,17V9h3.1v7.9c0,2.3,1.1,3.5,3,3.5s3-1.1,3-3.4V9h3.1v7.9c0,4.2-2.4,6.3-6.1,6.3S54.1,21.1,54.1,17z"
						/>
					<path class="st6" d="M72.7,20.7l7.7-9h-7.5V9h11.4v2.3l-7.7,9h7.7V23H72.7V20.7z"/>
					<path class="st6" d="M91,9H94v14H91V9z"/>
					<path class="st6" d="M100.5,16L100.5,16c0-4,3.1-7.3,7.5-7.3c4.3,0,7.4,3.2,7.4,7.2v0c0,4-3.1,7.2-7.5,7.2
						C103.6,23.2,100.5,20,100.5,16z M112.2,16L112.2,16c0-2.4-1.8-4.4-4.2-4.4s-4.2,2-4.2,4.4v0c0,2.4,1.8,4.4,4.2,4.4
						S112.2,18.4,112.2,16z"/>
					<path class="st6" d="M121.7,9h2.8l6.6,8.6V9h3v14h-2.6l-6.8-8.9V23h-3V9z"/>
					<path class="st6" d="M141.2,9h3.1v14h-3.1V9z"/>
					<path class="st6" d="M161.1,9h3.1v14h-3.1V9z"/>
					<path class="st6" d="M171.3,9h2.8l6.6,8.6V9h3v14h-2.6l-6.8-8.9V23h-3V9z"/>
					<path class="st6" d="M199.7,16L199.7,16c0-4,3-7.3,7.3-7.3c2.6,0,4.2,0.9,5.5,2.2l-2,2.3c-1.1-1-2.2-1.6-3.6-1.6
						c-2.4,0-4.1,2-4.1,4.4v0c0,2.4,1.7,4.4,4.1,4.4c1.6,0,2.6-0.6,3.7-1.6l2,2c-1.4,1.5-3,2.5-5.7,2.5
						C202.7,23.2,199.7,20.1,199.7,16z"/>
					<path class="st6" d="M218.7,9h3.1v11.2h7V23h-10.1V9z"/>
					<path class="st6" d="M233.2,16L233.2,16c0-4,3.1-7.3,7.5-7.3c4.3,0,7.4,3.2,7.4,7.2v0c0,4-3.1,7.2-7.5,7.2
						C236.3,23.2,233.2,20,233.2,16z M244.9,16L244.9,16c0-2.4-1.8-4.4-4.2-4.4s-4.2,2-4.2,4.4v0c0,2.4,1.8,4.4,4.2,4.4
						S244.9,18.4,244.9,16z"/>
					<path class="st6" d="M254.2,17V9h3.1v7.9c0,2.3,1.1,3.5,3,3.5c1.9,0,3-1.1,3-3.4V9h3.1v7.9c0,4.2-2.4,6.3-6.1,6.3
						S254.2,21.1,254.2,17z"/>
					<path class="st6" d="M273.2,9h5.5c4.4,0,7.4,3,7.4,7v0c0,3.9-3,7-7.4,7h-5.5V9z M278.6,20.2c2.5,0,4.2-1.7,4.2-4.2v0
						c0-2.5-1.7-4.2-4.2-4.2h-2.4v8.4H278.6z"/>
				</g>
			</g>
		</g>
	</g>
</g>
</svg>
