<?xml version="1.0" encoding="UTF-8" standalone="no"?><!DOCTYPE svg PUBLIC "-//W3C//DTD SVG 1.1//EN" "http://www.w3.org/Graphics/SVG/1.1/DTD/svg11.dtd"><svg width="100%" height="100%" viewBox="0 0 516 520" version="1.1" xmlns="http://www.w3.org/2000/svg" xmlns:xlink="http://www.w3.org/1999/xlink" xml:space="preserve" xmlns:serif="http://www.serif.com/" style="fill-rule:evenodd;clip-rule:evenodd;stroke-miterlimit:10;"><g><path d="M334.941,207.466c-0.106,2.227 -0.424,4.772 -0.53,7.424c-0.318,6.681 3.712,11.56 10.075,12.196c6.045,0.53 10.924,-3.606 11.772,-10.181c2.545,-20.363 -1.273,-39.558 -10.817,-57.588c-30.968,-58.86 -107.752,-71.48 -155.794,-25.453c-23.438,22.59 -33.407,50.588 -30.12,83.041c0.637,6.469 6.151,10.817 12.197,10.075c6.469,-0.848 10.181,-6.151 9.863,-12.832c-0.318,-6.364 -0.531,-12.939 0.212,-19.196c5.726,-44.119 48.36,-74.238 91.843,-65.224c35.528,7.424 62.678,41.573 61.299,77.738m51.543,51.861c-14.954,-3.394 -29.696,-6.788 -44.331,-10.075c-19.196,-4.349 -38.286,-8.591 -57.482,-12.833c-9.757,-2.121 -19.513,-4.879 -29.376,-5.833c-21.954,-2.121 -41.362,4.878 -57.8,19.514c-2.44,2.121 -4.773,3.288 -8.06,3.712c-18.984,2.015 -37.968,4.242 -56.952,6.469c-1.909,0.212 -2.863,-0.106 -3.606,-2.015c-4.242,-10.393 -12.196,-16.756 -22.907,-19.726c-13.893,-3.818 -27.786,-7.636 -41.68,-11.348c-2.545,-0.636 -3.287,-2.015 -3.606,-4.56c-1.166,-13.893 -0.954,-27.68 0.743,-41.467c0.848,-7.106 4.666,-10.818 11.772,-11.03c8.166,-0.212 16.332,-0.106 24.604,-0.106c7.318,-0 10.288,-2.652 12.939,-9.545c3.394,-9.227 7.106,-18.241 11.242,-27.15c3.712,-7.954 3.5,-11.454 -2.757,-17.817c-5.515,-5.515 -10.924,-10.924 -16.439,-16.439c-4.772,-4.772 -5.09,-10.287 -0.954,-15.59c9.014,-11.559 19.195,-22.059 30.543,-31.392c6.47,-5.302 11.56,-4.984 17.499,0.955c5.303,5.303 10.606,10.605 16.015,16.014c5.09,5.197 9.65,5.833 15.908,2.227c10.181,-5.833 20.892,-10.393 32.134,-13.787c6.681,-2.015 9.333,-5.621 9.333,-12.727l-0,-23.862c-0,-7.529 3.606,-11.454 11.03,-12.408c14.529,-1.803 29.165,-1.909 43.8,-0.53c7,0.636 10.818,4.772 10.924,11.878c0.106,8.06 -0,16.12 -0,24.286c-0,6.788 2.863,10.606 9.332,12.302c11.666,3.182 22.802,7.53 33.302,13.363c4.984,2.758 9.969,2.122 14.105,-1.908c6.045,-5.94 11.984,-12.091 18.135,-18.03c5.197,-5.091 10.287,-5.409 16.014,-0.954c11.666,9.014 22.272,19.302 31.499,30.862c4.666,5.726 4.348,11.029 -0.743,16.332c-5.515,5.727 -11.242,11.348 -16.969,16.862c-4.666,4.561 -5.514,9.439 -2.227,15.06c6.045,10.606 10.818,21.635 14.317,33.301c1.804,5.834 5.409,8.591 11.56,8.591c7.955,0.106 15.909,-0 23.863,-0c8.802,-0 12.408,3.288 13.469,12.09c1.59,13.787 1.697,27.68 0.53,41.467c-0.212,2.546 -1.591,2.97 -3.394,3.5c-12.832,3.5 -25.559,7.318 -38.498,10.499c-12.514,3.076 -21.847,9.333 -26.831,21.848" style="fill:#fff;fill-rule:nonzero;"/><path d="M334.941,207.466c-0.106,2.227 -0.424,4.772 -0.53,7.424c-0.318,6.681 3.712,11.56 10.075,12.196c6.045,0.53 10.924,-3.606 11.772,-10.181c2.545,-20.363 -1.273,-39.558 -10.817,-57.588c-30.968,-58.86 -107.752,-71.48 -155.794,-25.453c-23.438,22.59 -33.407,50.588 -30.12,83.041c0.637,6.469 6.151,10.817 12.197,10.075c6.469,-0.848 10.181,-6.151 9.863,-12.832c-0.318,-6.364 -0.531,-12.939 0.212,-19.196c5.726,-44.119 48.36,-74.238 91.843,-65.224c35.528,7.424 62.678,41.573 61.299,77.738Zm51.543,51.861c-14.954,-3.394 -29.696,-6.788 -44.331,-10.075c-19.196,-4.349 -38.286,-8.591 -57.482,-12.833c-9.757,-2.121 -19.513,-4.879 -29.376,-5.833c-21.954,-2.121 -41.362,4.878 -57.8,19.514c-2.44,2.121 -4.773,3.288 -8.06,3.712c-18.984,2.015 -37.968,4.242 -56.952,6.469c-1.909,0.212 -2.863,-0.106 -3.606,-2.015c-4.242,-10.393 -12.196,-16.756 -22.907,-19.726c-13.893,-3.818 -27.786,-7.636 -41.68,-11.348c-2.545,-0.636 -3.287,-2.015 -3.606,-4.56c-1.166,-13.893 -0.954,-27.68 0.743,-41.467c0.848,-7.106 4.666,-10.818 11.772,-11.03c8.166,-0.212 16.332,-0.106 24.604,-0.106c7.318,-0 10.288,-2.652 12.939,-9.545c3.394,-9.227 7.106,-18.241 11.242,-27.15c3.712,-7.954 3.5,-11.454 -2.757,-17.817c-5.515,-5.515 -10.924,-10.924 -16.439,-16.439c-4.772,-4.772 -5.09,-10.287 -0.954,-15.59c9.014,-11.559 19.195,-22.059 30.543,-31.392c6.47,-5.302 11.56,-4.984 17.499,0.955c5.303,5.303 10.606,10.605 16.015,16.014c5.09,5.197 9.65,5.833 15.908,2.227c10.181,-5.833 20.892,-10.393 32.134,-13.787c6.681,-2.015 9.333,-5.621 9.333,-12.727l-0,-23.862c-0,-7.529 3.606,-11.454 11.03,-12.408c14.529,-1.803 29.165,-1.909 43.8,-0.53c7,0.636 10.818,4.772 10.924,11.878c0.106,8.06 -0,16.12 -0,24.286c-0,6.788 2.863,10.606 9.332,12.302c11.666,3.182 22.802,7.53 33.302,13.363c4.984,2.758 9.969,2.122 14.105,-1.908c6.045,-5.94 11.984,-12.091 18.135,-18.03c5.197,-5.091 10.287,-5.409 16.014,-0.954c11.666,9.014 22.272,19.302 31.499,30.862c4.666,5.726 4.348,11.029 -0.743,16.332c-5.515,5.727 -11.242,11.348 -16.969,16.862c-4.666,4.561 -5.514,9.439 -2.227,15.06c6.045,10.606 10.818,21.635 14.317,33.301c1.804,5.834 5.409,8.591 11.56,8.591c7.955,0.106 15.909,-0 23.863,-0c8.802,-0 12.408,3.288 13.469,12.09c1.59,13.787 1.697,27.68 0.53,41.467c-0.212,2.546 -1.591,2.97 -3.394,3.5c-12.832,3.5 -25.559,7.318 -38.498,10.499c-12.514,3.076 -21.847,9.333 -26.831,21.848Z" style="fill:none;fill-rule:nonzero;stroke:#92c9ec;stroke-width:6.23px;"/><path d="M177.133,277.567c-3.606,6.151 -6.894,11.666 -10.181,17.181c-5.41,9.12 -10.818,18.241 -16.227,27.362c-3.924,6.575 -2.969,11.772 2.97,16.756c27.15,22.802 68.935,18.348 90.782,-9.757c2.652,-3.393 5.197,-6.681 8.06,-10.287c4.667,3.606 9.121,7 13.575,10.499c36.589,28.317 73.178,56.634 109.767,84.95c3.818,2.969 6.363,6.363 5.196,11.454c-1.273,5.408 -4.56,9.121 -9.969,10.711c-3.606,1.061 -6.575,-0.53 -9.333,-2.651c-22.483,-17.499 -45.073,-34.892 -67.556,-52.285c-5.197,-4.03 -10.924,-4.136 -15.272,-0.318c-5.197,4.561 -4.878,12.621 0.848,17.181c12.515,9.863 25.135,19.514 37.756,29.271c8.908,6.894 17.711,13.787 26.619,20.68c5.621,4.349 6.258,10.394 1.697,16.333c-4.56,5.939 -10.605,7 -16.226,2.651c-18.241,-13.999 -36.377,-28.21 -54.618,-42.316c-5.833,-4.56 -11.666,-9.12 -17.605,-13.68c-5.621,-4.243 -12.408,-3.5 -16.333,1.59c-3.923,5.197 -2.757,11.772 2.864,16.121c18.559,14.423 37.119,28.74 55.679,43.058c0.53,0.424 1.06,0.848 1.59,1.272c3.712,2.652 6.152,6.045 5.091,10.818c-1.167,5.302 -4.242,9.12 -9.439,10.817c-3.5,1.167 -6.681,0.213 -9.439,-2.015c-13.681,-10.605 -27.256,-21.104 -40.937,-31.71c-8.378,-6.469 -16.65,-13.045 -25.029,-19.514c-5.726,-4.454 -12.514,-3.924 -16.65,1.273c-4.03,4.984 -2.864,11.772 2.969,16.332c13.469,10.5 26.938,20.893 40.407,31.286c3.712,2.864 6.363,6.045 5.303,11.03c-1.061,5.196 -4.136,8.909 -9.121,10.711c-3.712,1.379 -7,0.213 -10.075,-2.121c-21.423,-16.65 -42.952,-33.301 -64.481,-49.951c-23.332,-18.03 -46.558,-36.165 -69.996,-53.982c-2.757,-2.121 -3.5,-3.818 -2.545,-7.318c10.393,-37.331 20.68,-74.768 30.861,-112.205c0.849,-3.076 2.122,-4.349 5.409,-4.667c12.833,-1.166 25.56,-2.863 38.392,-4.242c1.485,-0.106 2.864,-0.106 5.197,-0.318" style="fill:#fff;fill-rule:nonzero;"/><path d="M177.133,277.567c-3.606,6.151 -6.894,11.666 -10.181,17.181c-5.41,9.12 -10.818,18.241 -16.227,27.362c-3.924,6.575 -2.969,11.772 2.97,16.756c27.15,22.802 68.935,18.348 90.782,-9.757c2.652,-3.393 5.197,-6.681 8.06,-10.287c4.667,3.606 9.121,7 13.575,10.499c36.589,28.317 73.178,56.634 109.767,84.95c3.818,2.969 6.363,6.363 5.196,11.454c-1.273,5.408 -4.56,9.121 -9.969,10.711c-3.606,1.061 -6.575,-0.53 -9.333,-2.651c-22.483,-17.499 -45.073,-34.892 -67.556,-52.285c-5.197,-4.03 -10.924,-4.136 -15.272,-0.318c-5.197,4.561 -4.878,12.621 0.848,17.181c12.515,9.863 25.135,19.514 37.756,29.271c8.908,6.894 17.711,13.787 26.619,20.68c5.621,4.349 6.258,10.394 1.697,16.333c-4.56,5.939 -10.605,7 -16.226,2.651c-18.241,-13.999 -36.377,-28.21 -54.618,-42.316c-5.833,-4.56 -11.666,-9.12 -17.605,-13.68c-5.621,-4.243 -12.408,-3.5 -16.333,1.59c-3.923,5.197 -2.757,11.772 2.864,16.121c18.559,14.423 37.119,28.74 55.679,43.058c0.53,0.424 1.06,0.848 1.59,1.272c3.712,2.652 6.152,6.045 5.091,10.818c-1.167,5.302 -4.242,9.12 -9.439,10.817c-3.5,1.167 -6.681,0.213 -9.439,-2.015c-13.681,-10.605 -27.256,-21.104 -40.937,-31.71c-8.378,-6.469 -16.65,-13.045 -25.029,-19.514c-5.726,-4.454 -12.514,-3.924 -16.65,1.273c-4.03,4.984 -2.864,11.772 2.969,16.332c13.469,10.5 26.938,20.893 40.407,31.286c3.712,2.864 6.363,6.045 5.303,11.03c-1.061,5.196 -4.136,8.909 -9.121,10.711c-3.712,1.379 -7,0.213 -10.075,-2.121c-21.423,-16.65 -42.952,-33.301 -64.481,-49.951c-23.332,-18.03 -46.558,-36.165 -69.996,-53.982c-2.757,-2.121 -3.5,-3.818 -2.545,-7.318c10.393,-37.331 20.68,-74.768 30.861,-112.205c0.849,-3.076 2.122,-4.349 5.409,-4.667c12.833,-1.166 25.56,-2.863 38.392,-4.242c1.485,-0.106 2.864,-0.106 5.197,-0.318Z" style="fill:none;fill-rule:nonzero;stroke:#92c9ec;stroke-width:6.23px;"/><path d="M419.467,402.924c-6.893,4.56 -16.12,4.136 -23.438,-1.273c-9.651,-7.211 -19.089,-14.635 -28.528,-21.953c-35.847,-27.68 -71.587,-55.466 -107.327,-83.147c-6.682,-5.196 -13.257,-10.393 -19.939,-15.378c-7.211,-5.408 -16.65,-1.696 -18.029,7c-0.636,4.242 0.955,7.742 4.242,10.393c2.652,2.228 5.515,4.243 8.273,6.364c-8.803,14.105 -19.621,25.028 -37.332,26.195c-8.06,0.53 -15.59,-1.167 -23.12,-5.09c2.546,-4.455 4.985,-8.697 7.53,-13.045c6.152,-10.394 12.515,-20.681 18.56,-31.18c10.924,-18.984 27.256,-29.059 49.103,-29.696c5.727,-0.105 11.666,1.485 17.393,2.758c38.71,8.696 77.42,17.499 116.13,26.196c2.545,0.53 3.818,1.59 4.454,4.242c10.393,38.285 20.893,76.571 31.392,114.856c0.318,0.955 0.424,1.91 0.636,2.758" style="fill:#fff;fill-rule:nonzero;"/><path d="M419.467,402.924c-6.893,4.56 -16.12,4.136 -23.438,-1.273c-9.651,-7.211 -19.089,-14.635 -28.528,-21.953c-35.847,-27.68 -71.587,-55.466 -107.327,-83.147c-6.682,-5.196 -13.257,-10.393 -19.939,-15.378c-7.211,-5.408 -16.65,-1.696 -18.029,7c-0.636,4.242 0.955,7.742 4.242,10.393c2.652,2.228 5.515,4.243 8.273,6.364c-8.803,14.105 -19.621,25.028 -37.332,26.195c-8.06,0.53 -15.59,-1.167 -23.12,-5.09c2.546,-4.455 4.985,-8.697 7.53,-13.045c6.152,-10.394 12.515,-20.681 18.56,-31.18c10.924,-18.984 27.256,-29.059 49.103,-29.696c5.727,-0.105 11.666,1.485 17.393,2.758c38.71,8.696 77.42,17.499 116.13,26.196c2.545,0.53 3.818,1.59 4.454,4.242c10.393,38.285 20.893,76.571 31.392,114.856c0.318,0.955 0.424,1.91 0.636,2.758Z" style="fill:none;fill-rule:nonzero;stroke:#92c9ec;stroke-width:6.23px;"/><path d="M7.553,394.014c13.575,-49.634 27.15,-98.843 40.725,-148.37c7.105,2.015 13.999,3.818 20.892,5.727c10.394,2.863 20.787,5.727 31.18,8.59c7.106,2.015 10.182,7.424 8.167,14.636c-11.454,41.785 -22.908,83.465 -34.362,125.25c-2.227,8.272 -7.848,10.287 -13.575,8.696c-17.499,-4.666 -34.998,-9.544 -53.027,-14.529" style="fill:#fff;fill-rule:nonzero;"/><path d="M7.553,394.014c13.575,-49.634 27.15,-98.843 40.725,-148.37c7.105,2.015 13.999,3.818 20.892,5.727c10.394,2.863 20.787,5.727 31.18,8.59c7.106,2.015 10.182,7.424 8.167,14.636c-11.454,41.785 -22.908,83.465 -34.362,125.25c-2.227,8.272 -7.848,10.287 -13.575,8.696c-17.499,-4.666 -34.998,-9.544 -53.027,-14.529Z" style="fill:none;fill-rule:nonzero;stroke:#92c9ec;stroke-width:6.23px;"/><path d="M467.723,245.646c13.574,49.528 27.043,98.737 40.724,148.265c-5.727,1.59 -11.241,3.181 -16.756,4.772c-11.348,3.181 -22.696,6.257 -34.044,9.333c-8.802,2.333 -13.681,-0.531 -16.12,-9.333c-11.242,-40.937 -22.589,-81.98 -33.831,-123.023c-2.44,-8.697 0.53,-13.681 9.332,-16.12c16.227,-4.455 32.347,-8.909 48.573,-13.363c0.425,-0.106 1.061,-0.213 2.122,-0.531" style="fill:#fff;fill-rule:nonzero;"/><path d="M467.723,245.646c13.574,49.528 27.043,98.737 40.724,148.265c-5.727,1.59 -11.241,3.181 -16.756,4.772c-11.348,3.181 -22.696,6.257 -34.044,9.333c-8.802,2.333 -13.681,-0.531 -16.12,-9.333c-11.242,-40.937 -22.589,-81.98 -33.831,-123.023c-2.44,-8.697 0.53,-13.681 9.332,-16.12c16.227,-4.455 32.347,-8.909 48.573,-13.363c0.425,-0.106 1.061,-0.213 2.122,-0.531Z" style="fill:none;fill-rule:nonzero;stroke:#92c9ec;stroke-width:6.23px;"/></g></svg>