<?xml version="1.0" encoding="utf-8"?>
<!-- Generator: Adobe Illustrator 24.0.0, SVG Export Plug-In . SVG Version: 6.00 Build 0)  -->
<svg version="1.1" id="Livello_1" xmlns="http://www.w3.org/2000/svg" xmlns:xlink="http://www.w3.org/1999/xlink" x="0px" y="0px"
	 viewBox="0 0 261.4 114.7" style="enable-background:new 0 0 261.4 114.7;" xml:space="preserve">
<style type="text/css">
	.st0{clip-path:url(#SVGID_2_);}
	.st1{opacity:0.81;clip-path:url(#SVGID_4_);}
	.st2{clip-path:url(#SVGID_6_);fill:none;stroke:#FFFFFF;stroke-width:1.014;}
	.st3{clip-path:url(#SVGID_6_);fill:none;stroke:#FFFFFF;stroke-width:0.507;}
	.st4{clip-path:url(#SVGID_6_);fill:#FFFFFF;}
	.st5{clip-path:url(#SVGID_8_);}
	.st6{fill:#FFFFFF;}
</style>
<g>
	<defs>
		<rect id="SVGID_1_" x="-80.7" y="-5.9" width="422.7" height="119.6"/>
	</defs>
	<clipPath id="SVGID_2_">
		<use xlink:href="#SVGID_1_"  style="overflow:visible;"/>
	</clipPath>
	<g class="st0">
		<defs>
			<rect id="SVGID_3_" x="-80.7" y="-5.9" width="422.7" height="119.6"/>
		</defs>
		<clipPath id="SVGID_4_">
			<use xlink:href="#SVGID_3_"  style="overflow:visible;"/>
		</clipPath>
		<g class="st1">
			<g>
				<defs>
					<rect id="SVGID_5_" x="-0.2" y="16.4" width="261.6" height="98.3"/>
				</defs>
				<clipPath id="SVGID_6_">
					<use xlink:href="#SVGID_5_"  style="overflow:visible;"/>
				</clipPath>
				<path class="st2" d="M175.7,29.9c-8.3,0-15.1,6.7-15.1,15.1v53.2c0,8.3,6.7,15.1,15.1,15.1h53.2c8.3,0,15.1-6.7,15.1-15.1V45
					c0-8.3-6.7-15.1-15.1-15.1H175.7z"/>
				<path class="st3" d="M243.6,96.7V46.4c0-7.7-5.4-14.3-12.9-15.9c0.7,10.7,0.3,36.6-16.4,54.6c-11.6,12.5-28.8,19.1-51.2,19.5
					c2.9,5.1,8.3,8.2,14.1,8.2h50.2C236.3,112.9,243.6,105.6,243.6,96.7z"/>
				<path class="st4" d="M233.4,88.7v-6.9h-1.5c-1.1,0-2.1-0.1-2.8-0.4c-0.8-0.3-1.4-0.7-1.8-1.3c-0.5-0.6-0.8-1.2-1-2
					c-0.2-0.8-0.3-1.7-0.3-2.7v-5.9h7.5v-6.9h-7.5V54h-9.7v8.4h-3.7v6.9h3.7v10.4c0,1.6,0.3,3,0.8,4.1c0.5,1.1,1.2,2,2.1,2.7
					c0.9,0.7,1.9,1.2,3.1,1.6c1.2,0.3,2.5,0.5,3.8,0.5H233.4z M210.4,54h-9.7v6.3h9.7V54z M200.7,88.7h9.7V62.4h-9.7V88.7z
					 M179.4,69.4h4.5c0.9,0,1.5,0.2,2.1,0.6c0.5,0.4,0.9,0.9,1.2,1.5c0.3,0.6,0.4,1.3,0.5,2c0.1,0.7,0.1,1.4,0.1,2
					c0,0.8,0,1.6-0.1,2.3c-0.1,0.7-0.3,1.4-0.5,2c-0.3,0.6-0.7,1-1.2,1.4c-0.5,0.3-1.3,0.5-2.2,0.5h-1.8c-1,0-1.6-0.2-2-0.5
					c-0.3-0.3-0.5-1-0.5-2V69.4z M186.8,88.7c2.1,0,3.9-0.3,5.2-0.9c1.4-0.6,2.5-1.5,3.3-2.6c0.8-1.1,1.4-2.5,1.8-4.1
					c0.3-1.6,0.5-3.4,0.5-5.4c0-2-0.2-3.8-0.5-5.4c-0.3-1.6-0.9-3-1.8-4.1s-2-2-3.3-2.6c-1.4-0.6-3.1-0.9-5.2-0.9h-7.3V54h-9.7v29.2
					c0,1.7,0.5,3.1,1.4,4c0.9,0.9,2.3,1.4,4,1.4H186.8z M135.6,72.9c0.1-0.8,0.4-1.5,0.8-2.1c0.4-0.6,0.9-1,1.6-1.3s1.6-0.4,2.7-0.4
					c1.1,0,2,0.1,2.7,0.4c0.7,0.3,1.2,0.7,1.6,1.3c0.4,0.6,0.6,1.3,0.8,2.1c0.1,0.8,0.2,1.7,0.2,2.7c0,1-0.1,1.9-0.2,2.7
					c-0.1,0.8-0.4,1.5-0.8,2.1c-0.4,0.6-0.9,1-1.6,1.3c-0.7,0.3-1.6,0.4-2.7,0.4c-1.1,0-2-0.1-2.7-0.4c-0.7-0.3-1.2-0.7-1.6-1.3
					c-0.4-0.6-0.6-1.3-0.8-2.1c-0.1-0.8-0.2-1.7-0.2-2.7C135.4,74.6,135.5,73.7,135.6,72.9 M133.7,62.7c-1.9,0.4-3.5,1.1-4.7,2.1
					c-1.2,1-2.1,2.4-2.6,4.1c-0.6,1.7-0.8,4-0.8,6.7c0,2.7,0.3,5,0.8,6.7c0.6,1.7,1.4,3.1,2.6,4.1c1.2,1,2.8,1.7,4.7,2.1
					c1.9,0.4,4.2,0.6,7,0.6c2.7,0,5-0.2,7-0.6c1.9-0.4,3.5-1.1,4.7-2.1c1.2-1,2.1-2.3,2.6-4.1c0.6-1.7,0.8-4,0.8-6.7
					c0-2.7-0.3-4.9-0.8-6.7s-1.4-3.1-2.6-4.1c-1.2-1-2.8-1.7-4.7-2.1c-1.9-0.4-4.2-0.6-7-0.6C137.9,62.1,135.6,62.3,133.7,62.7
					 M105.4,88.7h9.7V76.2c0-2.2,0.4-4,1.3-5.1c0.9-1.2,2.4-1.8,4.7-1.8h3.6v-6.8h-6.4c-2.1,0-4,0.2-5.6,0.5c-1.6,0.3-2.9,0.9-4,1.8
					c-1.1,0.8-1.9,2-2.4,3.3c-0.5,1.4-0.8,3.1-0.8,5.2V88.7z M83.8,72.5c0-0.8,0.1-1.5,0.3-2c0.2-0.5,0.5-0.8,0.9-1.1
					c0.4-0.2,0.9-0.4,1.4-0.5c0.5-0.1,1.1-0.1,1.7-0.1c0.4,0,0.8,0,1.3,0c0.5,0,1,0.1,1.4,0.2c0.4,0.1,0.8,0.3,1.1,0.6
					c0.3,0.3,0.5,0.7,0.5,1.1c0,0.1,0,0.3,0,0.5c0,0.2-0.1,0.4-0.2,0.5s-0.3,0.3-0.5,0.4c-0.2,0.1-0.5,0.2-0.9,0.2H83.8z
					 M101.4,88.7v-6.7H88.6c-1.7,0-3-0.2-3.7-0.7c-0.7-0.5-1.1-1.3-1.1-2.6h14.3c0.9,0,1.6-0.2,2.1-0.5c0.5-0.3,1-0.8,1.3-1.3
					c0.3-0.5,0.5-1.2,0.6-1.9c0.1-0.7,0.2-1.4,0.2-2.2c0-2.5-0.3-4.4-0.8-5.8c-0.5-1.4-1.4-2.5-2.5-3.2c-1.1-0.7-2.6-1.2-4.4-1.4
					c-1.8-0.2-3.9-0.3-6.4-0.3c-3,0-5.4,0.1-7.2,0.4c-1.8,0.3-3.3,0.9-4.3,1.8c-1,0.9-1.7,2.3-2.1,4c-0.4,1.7-0.5,4.1-0.5,7.1
					c0,2.7,0.1,5,0.4,6.7c0.3,1.7,0.8,3.1,1.5,4c0.7,1,1.8,1.6,3.1,2c1.3,0.4,3,0.5,5.1,0.5H101.4z M53.6,69.4H58
					c0.9,0,1.5,0.2,2.1,0.6c0.5,0.4,0.9,0.9,1.2,1.5c0.3,0.6,0.4,1.3,0.5,2c0.1,0.7,0.1,1.4,0.1,2c0,0.8,0,1.6-0.1,2.3
					c-0.1,0.7-0.3,1.4-0.5,2c-0.3,0.6-0.7,1-1.2,1.4c-0.5,0.3-1.3,0.5-2.2,0.5H56c-1,0-1.7-0.2-2-0.5c-0.3-0.3-0.5-1-0.5-2V69.4z
					 M60.9,88.7c2.1,0,3.9-0.3,5.2-0.9c1.4-0.6,2.5-1.5,3.3-2.6c0.8-1.1,1.4-2.5,1.8-4.1c0.3-1.6,0.5-3.4,0.5-5.4
					c0-2-0.2-3.8-0.5-5.4c-0.3-1.6-0.9-3-1.8-4.1s-2-2-3.3-2.6c-1.4-0.6-3.1-0.9-5.2-0.9h-7.3V54h-9.7v29.2c0,1.7,0.5,3.1,1.4,4
					c0.9,0.9,2.3,1.4,4,1.4H60.9z M40.1,54h-9.7v6.3h9.7V54z M30.4,88.7h9.7V62.4h-9.7V88.7z M16.9,88.7h9.7V54h-9.7V88.7z"/>
				<path class="st4" d="M150.6,98.5c0-0.1,0-0.1,0.1-0.2c0-0.1,0.1-0.1,0.1-0.1c0,0,0.1,0,0.1,0.1s0.1,0.1,0.1,0.2l0.9,2.3h-2.2
					L150.6,98.5z M148.1,102.7h0.7l0.6-1.4h2.6l0.6,1.4h0.7l-1.9-4.5c-0.1-0.2-0.2-0.3-0.3-0.4c-0.1-0.1-0.2-0.1-0.4-0.1
					c-0.2,0-0.3,0-0.4,0.1c-0.1,0.1-0.2,0.2-0.3,0.4L148.1,102.7z M144.6,102.7v-0.5h-1.8c-0.3,0-0.6,0-0.8-0.1
					c-0.2-0.1-0.4-0.2-0.5-0.4c-0.1-0.2-0.2-0.4-0.3-0.6c-0.1-0.2-0.1-0.5-0.1-0.9s0-0.6,0.1-0.9c0.1-0.2,0.1-0.4,0.3-0.6
					c0.1-0.2,0.3-0.3,0.5-0.4c0.2-0.1,0.5-0.1,0.8-0.1h1.7v-0.5h-1.9c-0.4,0-0.8,0.1-1.1,0.2c-0.3,0.1-0.5,0.3-0.6,0.5
					c-0.2,0.2-0.3,0.5-0.3,0.8c-0.1,0.3-0.1,0.6-0.1,1s0,0.7,0.1,1c0.1,0.3,0.2,0.6,0.3,0.8c0.2,0.2,0.4,0.4,0.6,0.5
					c0.3,0.1,0.6,0.2,1,0.2H144.6z M136.5,97.7h-0.7v5h0.7V97.7z M130.2,102.7v-4.4h2v-0.5h-4.7v0.5h2v4.4H130.2z M122.3,98.5
					c0-0.1,0-0.1,0.1-0.2c0-0.1,0.1-0.1,0.1-0.1c0,0,0.1,0,0.1,0.1c0,0.1,0.1,0.1,0.1,0.2l0.9,2.3h-2.2L122.3,98.5z M119.9,102.7
					h0.7l0.6-1.4h2.6l0.6,1.4h0.7l-1.9-4.5c-0.1-0.2-0.2-0.3-0.3-0.4c-0.1-0.1-0.2-0.1-0.4-0.1c-0.2,0-0.3,0-0.4,0.1
					s-0.2,0.2-0.3,0.4L119.9,102.7z M115.4,98.5c0,0,0-0.1,0.1-0.1s0-0.1,0.1-0.1c0,0,0,0,0.1,0c0,0,0,0.1,0,0.1l0,4.2h0.7v-4.5
					c0-0.2-0.1-0.3-0.2-0.4s-0.3-0.1-0.5-0.1c-0.2,0-0.4,0.1-0.5,0.2c-0.1,0.1-0.2,0.2-0.2,0.4l-1.5,3.7c0,0,0,0.1-0.1,0.1
					c0,0,0,0.1-0.1,0.1c0,0-0.1,0-0.1-0.1c0,0,0-0.1-0.1-0.1l-1.5-3.7c0-0.1-0.1-0.2-0.1-0.2c0-0.1-0.1-0.1-0.1-0.2
					c-0.1,0-0.1-0.1-0.2-0.1c-0.1,0-0.2,0-0.3,0c-0.2,0-0.4,0-0.5,0.1c-0.1,0.1-0.2,0.2-0.2,0.4v4.5h0.7l0-4.2c0,0,0-0.1,0-0.1
					c0,0,0,0,0.1,0c0,0,0,0,0.1,0.1s0,0.1,0.1,0.1l1.5,3.7c0.1,0.2,0.1,0.3,0.2,0.4c0.1,0.1,0.2,0.2,0.4,0.2c0.2,0,0.3-0.1,0.4-0.2
					c0.1-0.1,0.2-0.2,0.2-0.4L115.4,98.5z M102.1,102.7h0.7v-4.1c0-0.1,0-0.2,0.1-0.3c0.1,0,0.1-0.1,0.3-0.1h1.8
					c0.2,0,0.3,0,0.4,0.1c0.1,0,0.2,0.1,0.2,0.2c0.1,0.1,0.1,0.2,0.1,0.3c0,0.1,0,0.3,0,0.4c0,0.2,0,0.3,0,0.4c0,0.1,0,0.2-0.1,0.3
					c0,0.1-0.1,0.2-0.2,0.2c-0.1,0.1-0.2,0.1-0.4,0.1h-1.2c-0.1,0-0.2,0-0.2,0.1s-0.1,0.1-0.1,0.2v0.1c0,0.1,0,0.1,0.1,0.2
					c0,0.1,0.1,0.1,0.1,0.1l1.9,1.8h0.9l-2-1.9v0h0.8c0.2,0,0.4,0,0.5-0.1c0.1-0.1,0.3-0.2,0.3-0.3s0.2-0.3,0.2-0.5
					c0-0.2,0.1-0.4,0.1-0.7c0-0.2,0-0.4-0.1-0.6c0-0.2-0.1-0.3-0.2-0.5c-0.1-0.1-0.2-0.2-0.4-0.3c-0.2-0.1-0.3-0.1-0.6-0.1h-2.3
					c-0.2,0-0.4,0.1-0.5,0.2c-0.1,0.1-0.2,0.3-0.2,0.6V102.7z M93.9,99.3c0.1-0.3,0.2-0.5,0.3-0.6c0.1-0.2,0.3-0.3,0.5-0.3
					c0.2-0.1,0.5-0.1,0.9-0.1s0.6,0,0.9,0.1c0.2,0.1,0.4,0.2,0.5,0.3c0.1,0.2,0.2,0.4,0.3,0.6c0.1,0.3,0.1,0.6,0.1,0.9
					c0,0.4,0,0.7-0.1,1c-0.1,0.3-0.2,0.5-0.3,0.6c-0.1,0.2-0.3,0.3-0.5,0.3c-0.2,0.1-0.5,0.1-0.9,0.1s-0.6,0-0.9-0.1
					c-0.2-0.1-0.4-0.2-0.5-0.3c-0.1-0.2-0.2-0.4-0.3-0.6c-0.1-0.3-0.1-0.6-0.1-1C93.8,99.8,93.8,99.5,93.9,99.3 M94.4,97.8
					c-0.3,0.1-0.6,0.2-0.8,0.4c-0.2,0.2-0.3,0.5-0.4,0.8c-0.1,0.3-0.1,0.7-0.1,1.2c0,0.5,0,0.9,0.1,1.2c0.1,0.3,0.2,0.6,0.4,0.8
					c0.2,0.2,0.5,0.3,0.8,0.4c0.3,0.1,0.7,0.1,1.2,0.1c0.5,0,0.8,0,1.2-0.1c0.3-0.1,0.6-0.2,0.8-0.4c0.2-0.2,0.3-0.5,0.4-0.8
					c0.1-0.3,0.1-0.7,0.1-1.2c0-0.5,0-0.9-0.1-1.2c-0.1-0.3-0.2-0.6-0.4-0.8c-0.2-0.2-0.4-0.3-0.8-0.4c-0.3-0.1-0.7-0.1-1.2-0.1
					C95.1,97.7,94.7,97.7,94.4,97.8 M86.7,102.7v-2.2h2.2v-0.5h-2.2v-1.3c0-0.1,0-0.2,0.1-0.3c0-0.1,0.1-0.1,0.3-0.1h2.7v-0.5h-3
					c-0.2,0-0.4,0.1-0.5,0.2C86.1,98,86,98.2,86,98.4v4.3H86.7z M81.9,97.7h-0.6v4.1c0,0,0,0,0,0.1c0,0,0,0-0.1,0c0,0-0.1,0-0.1,0
					c0,0,0-0.1-0.1-0.1L78.7,98c-0.1-0.1-0.1-0.2-0.2-0.3c-0.1-0.1-0.2-0.1-0.4-0.1c-0.1,0-0.1,0-0.2,0c-0.1,0-0.1,0.1-0.2,0.1
					c-0.1,0-0.1,0.1-0.1,0.2c0,0.1-0.1,0.2-0.1,0.3v4.5h0.6v-4.1c0-0.1,0-0.1,0-0.1c0,0,0,0,0.1,0c0,0,0.1,0,0.1,0.1l2.4,3.8
					c0.1,0.2,0.2,0.3,0.3,0.3c0.1,0.1,0.2,0.1,0.4,0.1c0.2,0,0.3-0.1,0.4-0.2c0.1-0.1,0.2-0.3,0.2-0.5V97.7z M73.3,97.7h-0.7v5h0.7
					V97.7z M61.5,98.5c0-0.1,0-0.1,0.1-0.2s0.1-0.1,0.1-0.1c0,0,0.1,0,0.1,0.1s0.1,0.1,0.1,0.2l0.9,2.3h-2.2L61.5,98.5z M59.1,102.7
					h0.7l0.6-1.4H63l0.6,1.4h0.7l-1.9-4.5c-0.1-0.2-0.2-0.3-0.3-0.4c-0.1-0.1-0.2-0.1-0.4-0.1c-0.2,0-0.3,0-0.4,0.1S61,98,61,98.2
					L59.1,102.7z M51.3,102.7h0.7v-4.1c0-0.1,0-0.2,0.1-0.3c0.1,0,0.1-0.1,0.3-0.1h1.8c0.2,0,0.3,0,0.4,0.1c0.1,0,0.2,0.1,0.2,0.2
					c0.1,0.1,0.1,0.2,0.1,0.3c0,0.1,0,0.3,0,0.4c0,0.2,0,0.3,0,0.4c0,0.1,0,0.2-0.1,0.3c0,0.1-0.1,0.2-0.2,0.2
					c-0.1,0.1-0.2,0.1-0.4,0.1H53c-0.1,0-0.2,0-0.2,0.1c-0.1,0-0.1,0.1-0.1,0.2v0.1c0,0.1,0,0.1,0.1,0.2c0,0.1,0.1,0.1,0.1,0.1
					l1.9,1.8h0.9l-2-1.9v0h0.8c0.2,0,0.4,0,0.5-0.1c0.1-0.1,0.3-0.2,0.3-0.3s0.2-0.3,0.2-0.5c0-0.2,0.1-0.4,0.1-0.7
					c0-0.2,0-0.4-0.1-0.6c0-0.2-0.1-0.3-0.2-0.5c-0.1-0.1-0.2-0.2-0.4-0.3c-0.2-0.1-0.3-0.1-0.6-0.1H52c-0.2,0-0.4,0.1-0.5,0.2
					c-0.1,0.1-0.2,0.3-0.2,0.6V102.7z M45.6,102.7v-4.4h2v-0.5h-4.7v0.5h2v4.4H45.6z M40.6,102.7v-0.5h-2.8c-0.1,0-0.2,0-0.2-0.1
					c0,0-0.1-0.1-0.1-0.2v-4.1h-0.7v4.4c0,0.2,0.1,0.4,0.2,0.5c0.1,0.1,0.3,0.1,0.5,0.1H40.6z M30.5,98.5c0-0.1,0-0.1,0.1-0.2
					c0-0.1,0.1-0.1,0.1-0.1c0,0,0.1,0,0.1,0.1s0.1,0.1,0.1,0.2l0.9,2.3h-2.2L30.5,98.5z M28.1,102.7h0.7l0.6-1.4H32l0.6,1.4h0.7
					l-1.9-4.5c-0.1-0.2-0.2-0.3-0.3-0.4c-0.1-0.1-0.2-0.1-0.4-0.1c-0.2,0-0.3,0-0.4,0.1S30,98,30,98.2L28.1,102.7z M23.9,99.2
					l0.8-1.3l-0.5-0.3l-0.8,1.3L23.9,99.2z M20.5,102.7v-0.5h-2.8c-0.1,0-0.2,0-0.2-0.1c0,0-0.1-0.1-0.1-0.2v-4.1h-0.7v4.4
					c0,0.2,0.1,0.4,0.2,0.5c0.1,0.1,0.3,0.1,0.5,0.1H20.5z"/>
			</g>
		</g>
		<g class="st1">
			<g>
				<defs>
					<rect id="SVGID_7_" x="-80.7" y="-5.9" width="422.7" height="38.5"/>
				</defs>
				<clipPath id="SVGID_8_">
					<use xlink:href="#SVGID_7_"  style="overflow:visible;"/>
				</clipPath>
				<g class="st5">
					<path class="st6" d="M40.8,3.1h5.7c3.3,0,5.4,2,5.4,4.8v0c0,3.2-2.5,4.9-5.7,4.9h-2.3v4.2h-3.1V3.1z M46.4,10.1
						c1.5,0,2.4-0.9,2.4-2.1v0c0-1.4-1-2.1-2.5-2.1h-2.4v4.3H46.4z"/>
					<path class="st6" d="M61.2,3H64l6,14.1h-3.2l-1.3-3.1h-5.9l-1.3,3.1h-3.1L61.2,3z M64.4,11.2l-1.9-4.5l-1.9,4.5H64.4z"/>
					<path class="st6" d="M75.8,3.1h6.4c1.8,0,3.2,0.5,4.1,1.4c0.8,0.8,1.2,1.9,1.2,3.2v0c0,2.3-1.2,3.7-3,4.3l3.4,5h-3.6l-3-4.5
						h-2.4v4.5h-3.1V3.1z M82,9.9c1.5,0,2.4-0.8,2.4-2v0c0-1.3-0.9-2-2.4-2h-3.1v4H82z"/>
					<path class="st6" d="M97.1,5.9h-4.3V3.1h11.6v2.8h-4.3v11.2h-3.1V5.9z"/>
					<path class="st6" d="M110.4,3.1h2.8l6.6,8.6V3.1h3v14h-2.6l-6.8-8.9v8.9h-3V3.1z"/>
					<path class="st6" d="M129.8,3.1h10.6v2.7h-7.5v2.8h6.6v2.7h-6.6v2.9h7.6v2.7h-10.7V3.1z"/>
					<path class="st6" d="M146.8,3.1h6.4c1.8,0,3.2,0.5,4.1,1.4c0.8,0.8,1.2,1.9,1.2,3.2v0c0,2.3-1.2,3.7-3,4.3l3.4,5h-3.6l-3-4.5
						h-2.4v4.5h-3.1V3.1z M153,9.9c1.5,0,2.4-0.8,2.4-2v0c0-1.3-0.9-2-2.4-2h-3.1v4H153z"/>
					<path class="st6" d="M163.9,15l1.8-2.2c1.3,1,2.6,1.7,4.2,1.7c1.3,0,2-0.5,2-1.3v0c0-0.8-0.5-1.2-2.8-1.8
						c-2.8-0.7-4.6-1.5-4.6-4.3v0c0-2.5,2-4.2,4.9-4.2c2,0,3.8,0.6,5.2,1.8L172.9,7c-1.2-0.9-2.5-1.4-3.6-1.4s-1.8,0.5-1.8,1.2v0
						c0,0.9,0.6,1.2,3,1.8c2.8,0.7,4.4,1.8,4.4,4.2v0c0,2.8-2.1,4.3-5.1,4.3C167.7,17.3,165.5,16.5,163.9,15z"/>
					<path class="st6" d="M181.2,3.1h3.1v5.5h5.7V3.1h3.1v14H190v-5.6h-5.7v5.6h-3.1V3.1z"/>
					<path class="st6" d="M200.1,3.1h3.1v14h-3.1V3.1z"/>
					<path class="st6" d="M210.3,3.1h5.7c3.3,0,5.4,2,5.4,4.8v0c0,3.2-2.5,4.9-5.7,4.9h-2.3v4.2h-3.1V3.1z M215.8,10.1
						c1.5,0,2.4-0.9,2.4-2.1v0c0-1.4-1-2.1-2.5-2.1h-2.4v4.3H215.8z"/>
				</g>
			</g>
		</g>
	</g>
</g>
</svg>
