<?xml version="1.0" encoding="UTF-8" standalone="no"?><!DOCTYPE svg PUBLIC "-//W3C//DTD SVG 1.1//EN" "http://www.w3.org/Graphics/SVG/1.1/DTD/svg11.dtd"><svg width="100%" height="100%" viewBox="0 0 2150 2167" version="1.1" xmlns="http://www.w3.org/2000/svg" xmlns:xlink="http://www.w3.org/1999/xlink" xml:space="preserve" xmlns:serif="http://www.serif.com/" style="fill-rule:evenodd;clip-rule:evenodd;stroke-miterlimit:10;"><g opacity="0.29"><g><path d="M1372.92,876.935c-0.417,8.75 -1.667,18.75 -2.084,29.167c-1.25,26.25 14.584,45.417 39.584,47.917c23.75,2.083 42.916,-14.167 46.25,-40c10,-80 -5,-155.417 -42.5,-226.25c-121.667,-231.25 -423.334,-280.834 -612.084,-100c-92.083,88.75 -131.25,198.75 -118.333,326.25c2.5,25.416 24.167,42.5 47.917,39.583c25.416,-3.333 40,-24.167 38.75,-50.417c-1.25,-25 -2.084,-50.833 0.833,-75.416c22.5,-173.334 190,-291.667 360.833,-256.25c139.584,29.166 246.25,163.333 240.834,305.416m202.5,203.75c-58.75,-13.333 -116.667,-26.666 -174.167,-39.583c-75.417,-17.083 -150.417,-33.75 -225.833,-50.417c-38.334,-8.333 -76.667,-19.166 -115.417,-22.916c-86.25,-8.334 -162.5,19.166 -227.083,76.666c-9.584,8.334 -18.75,12.917 -31.667,14.584c-74.583,7.916 -149.167,16.666 -223.75,25.416c-7.5,0.834 -11.25,-0.416 -14.167,-7.916c-16.666,-40.834 -47.916,-65.834 -90,-77.5c-54.583,-15 -109.166,-30 -163.75,-44.584c-10,-2.5 -12.916,-7.916 -14.166,-17.916c-4.584,-54.584 -3.75,-108.75 2.916,-162.917c3.334,-27.917 18.334,-42.5 46.25,-43.333c32.084,-0.834 64.167,-0.417 96.667,-0.417c28.75,0 40.417,-10.417 50.833,-37.5c13.334,-36.25 27.917,-71.667 44.167,-106.667c14.583,-31.25 13.75,-45 -10.833,-70c-21.667,-21.666 -42.917,-42.916 -64.584,-64.583c-18.75,-18.75 -20,-40.417 -3.75,-61.25c35.417,-45.417 75.417,-86.667 120,-123.333c25.417,-20.834 45.417,-19.584 68.75,3.75c20.834,20.833 41.667,41.666 62.917,62.916c20,20.417 37.917,22.917 62.5,8.75c40,-22.916 82.083,-40.833 126.25,-54.166c26.25,-7.917 36.667,-22.084 36.667,-50l-0,-93.75c-0,-29.584 14.166,-45 43.333,-48.75c57.083,-7.084 114.583,-7.5 172.083,-2.084c27.5,2.5 42.5,18.75 42.917,46.667c0.417,31.667 0,63.333 0,95.417c0,26.666 11.25,41.666 36.667,48.333c45.833,12.5 89.583,29.583 130.833,52.5c19.583,10.833 39.167,8.333 55.417,-7.5c23.75,-23.333 47.083,-47.5 71.25,-70.833c20.416,-20 40.416,-21.25 62.916,-3.75c45.834,35.416 87.5,75.833 123.75,121.25c18.334,22.5 17.084,43.333 -2.916,64.166c-21.667,22.5 -44.167,44.584 -66.667,66.25c-18.333,17.917 -21.667,37.084 -8.75,59.167c23.75,41.667 42.5,85 56.25,130.833c7.083,22.917 21.25,33.75 45.417,33.75c31.25,0.417 62.5,0 93.75,0c34.583,0 48.75,12.917 52.916,47.5c6.25,54.167 6.667,108.75 2.084,162.917c-0.834,10 -6.25,11.667 -13.334,13.75c-50.416,13.75 -100.416,28.75 -151.25,41.25c-49.166,12.083 -85.833,36.667 -105.416,85.833" style="fill:#fff;fill-rule:nonzero;"/><path d="M1372.92,876.935c-0.417,8.75 -1.667,18.75 -2.084,29.167c-1.25,26.25 14.584,45.417 39.584,47.917c23.75,2.083 42.916,-14.167 46.25,-40c10,-80 -5,-155.417 -42.5,-226.25c-121.667,-231.25 -423.334,-280.834 -612.084,-100c-92.083,88.75 -131.25,198.75 -118.333,326.25c2.5,25.416 24.167,42.5 47.917,39.583c25.416,-3.333 40,-24.167 38.75,-50.417c-1.25,-25 -2.084,-50.833 0.833,-75.416c22.5,-173.334 190,-291.667 360.833,-256.25c139.584,29.166 246.25,163.333 240.834,305.416Zm202.5,203.75c-58.75,-13.333 -116.667,-26.666 -174.167,-39.583c-75.417,-17.083 -150.417,-33.75 -225.833,-50.417c-38.334,-8.333 -76.667,-19.166 -115.417,-22.916c-86.25,-8.334 -162.5,19.166 -227.083,76.666c-9.584,8.334 -18.75,12.917 -31.667,14.584c-74.583,7.916 -149.167,16.666 -223.75,25.416c-7.5,0.834 -11.25,-0.416 -14.167,-7.916c-16.666,-40.834 -47.916,-65.834 -90,-77.5c-54.583,-15 -109.166,-30 -163.75,-44.584c-10,-2.5 -12.916,-7.916 -14.166,-17.916c-4.584,-54.584 -3.75,-108.75 2.916,-162.917c3.334,-27.917 18.334,-42.5 46.25,-43.333c32.084,-0.834 64.167,-0.417 96.667,-0.417c28.75,0 40.417,-10.417 50.833,-37.5c13.334,-36.25 27.917,-71.667 44.167,-106.667c14.583,-31.25 13.75,-45 -10.833,-70c-21.667,-21.666 -42.917,-42.916 -64.584,-64.583c-18.75,-18.75 -20,-40.417 -3.75,-61.25c35.417,-45.417 75.417,-86.667 120,-123.333c25.417,-20.834 45.417,-19.584 68.75,3.75c20.834,20.833 41.667,41.666 62.917,62.916c20,20.417 37.917,22.917 62.5,8.75c40,-22.916 82.083,-40.833 126.25,-54.166c26.25,-7.917 36.667,-22.084 36.667,-50l-0,-93.75c-0,-29.584 14.166,-45 43.333,-48.75c57.083,-7.084 114.583,-7.5 172.083,-2.084c27.5,2.5 42.5,18.75 42.917,46.667c0.417,31.667 0,63.333 0,95.417c0,26.666 11.25,41.666 36.667,48.333c45.833,12.5 89.583,29.583 130.833,52.5c19.583,10.833 39.167,8.333 55.417,-7.5c23.75,-23.333 47.083,-47.5 71.25,-70.833c20.416,-20 40.416,-21.25 62.916,-3.75c45.834,35.416 87.5,75.833 123.75,121.25c18.334,22.5 17.084,43.333 -2.916,64.166c-21.667,22.5 -44.167,44.584 -66.667,66.25c-18.333,17.917 -21.667,37.084 -8.75,59.167c23.75,41.667 42.5,85 56.25,130.833c7.083,22.917 21.25,33.75 45.417,33.75c31.25,0.417 62.5,0 93.75,0c34.583,0 48.75,12.917 52.916,47.5c6.25,54.167 6.667,108.75 2.084,162.917c-0.834,10 -6.25,11.667 -13.334,13.75c-50.416,13.75 -100.416,28.75 -151.25,41.25c-49.166,12.083 -85.833,36.667 -105.416,85.833Z" style="fill:none;fill-rule:nonzero;stroke:#92c9ec;stroke-width:24.47px;"/><path d="M752.917,1152.35c-14.167,24.167 -27.084,45.833 -40,67.5c-21.25,35.833 -42.5,71.667 -63.75,107.5c-15.417,25.833 -11.667,46.25 11.666,65.833c106.667,89.584 270.834,72.084 356.667,-38.333c10.417,-13.333 20.417,-26.25 31.667,-40.417c18.333,14.167 35.833,27.5 53.333,41.25c143.75,111.25 287.5,222.5 431.25,333.75c15,11.667 25,25 20.417,45c-5,21.25 -17.917,35.834 -39.167,42.084c-14.167,4.166 -25.833,-2.084 -36.667,-10.417c-88.333,-68.75 -177.083,-137.083 -265.416,-205.417c-20.417,-15.833 -42.917,-16.25 -60,-1.25c-20.417,17.917 -19.167,49.584 3.333,67.5c49.167,38.75 98.75,76.667 148.333,115c35,27.084 69.584,54.167 104.584,81.25c22.083,17.084 24.583,40.834 6.666,64.167c-17.916,23.333 -41.666,27.5 -63.75,10.417c-71.666,-55 -142.916,-110.834 -214.583,-166.25c-22.917,-17.917 -45.833,-35.834 -69.167,-53.75c-22.083,-16.667 -48.75,-13.75 -64.166,6.25c-15.417,20.416 -10.834,46.25 11.25,63.333c72.916,56.667 145.833,112.917 218.75,169.167c2.083,1.666 4.166,3.333 6.25,5c14.583,10.416 24.166,23.75 20,42.5c-4.584,20.833 -16.667,35.833 -37.084,42.5c-13.75,4.583 -26.25,0.833 -37.083,-7.917c-53.75,-41.667 -107.083,-82.917 -160.833,-124.583c-32.917,-25.417 -65.417,-51.25 -98.334,-76.667c-22.5,-17.5 -49.166,-15.417 -65.416,5c-15.834,19.583 -11.25,46.25 11.666,64.167c52.917,41.25 105.834,82.083 158.75,122.916c14.584,11.25 25,23.75 20.834,43.334c-4.167,20.416 -16.25,35 -35.834,42.083c-14.583,5.417 -27.5,0.833 -39.583,-8.333c-84.167,-65.417 -168.75,-130.834 -253.333,-196.25c-91.667,-70.834 -182.917,-142.084 -275,-212.084c-10.834,-8.333 -13.75,-15 -10,-28.75c40.833,-146.666 81.25,-293.75 121.25,-440.833c3.333,-12.083 8.333,-17.083 21.25,-18.333c50.416,-4.584 100.416,-11.25 150.833,-16.667c5.833,-0.417 11.25,-0.417 20.417,-1.25" style="fill:#fff;fill-rule:nonzero;"/><path d="M752.917,1152.35c-14.167,24.167 -27.084,45.833 -40,67.5c-21.25,35.833 -42.5,71.667 -63.75,107.5c-15.417,25.833 -11.667,46.25 11.666,65.833c106.667,89.584 270.834,72.084 356.667,-38.333c10.417,-13.333 20.417,-26.25 31.667,-40.417c18.333,14.167 35.833,27.5 53.333,41.25c143.75,111.25 287.5,222.5 431.25,333.75c15,11.667 25,25 20.417,45c-5,21.25 -17.917,35.834 -39.167,42.084c-14.167,4.166 -25.833,-2.084 -36.667,-10.417c-88.333,-68.75 -177.083,-137.083 -265.416,-205.417c-20.417,-15.833 -42.917,-16.25 -60,-1.25c-20.417,17.917 -19.167,49.584 3.333,67.5c49.167,38.75 98.75,76.667 148.333,115c35,27.084 69.584,54.167 104.584,81.25c22.083,17.084 24.583,40.834 6.666,64.167c-17.916,23.333 -41.666,27.5 -63.75,10.417c-71.666,-55 -142.916,-110.834 -214.583,-166.25c-22.917,-17.917 -45.833,-35.834 -69.167,-53.75c-22.083,-16.667 -48.75,-13.75 -64.166,6.25c-15.417,20.416 -10.834,46.25 11.25,63.333c72.916,56.667 145.833,112.917 218.75,169.167c2.083,1.666 4.166,3.333 6.25,5c14.583,10.416 24.166,23.75 20,42.5c-4.584,20.833 -16.667,35.833 -37.084,42.5c-13.75,4.583 -26.25,0.833 -37.083,-7.917c-53.75,-41.667 -107.083,-82.917 -160.833,-124.583c-32.917,-25.417 -65.417,-51.25 -98.334,-76.667c-22.5,-17.5 -49.166,-15.417 -65.416,5c-15.834,19.583 -11.25,46.25 11.666,64.167c52.917,41.25 105.834,82.083 158.75,122.916c14.584,11.25 25,23.75 20.834,43.334c-4.167,20.416 -16.25,35 -35.834,42.083c-14.583,5.417 -27.5,0.833 -39.583,-8.333c-84.167,-65.417 -168.75,-130.834 -253.333,-196.25c-91.667,-70.834 -182.917,-142.084 -275,-212.084c-10.834,-8.333 -13.75,-15 -10,-28.75c40.833,-146.666 81.25,-293.75 121.25,-440.833c3.333,-12.083 8.333,-17.083 21.25,-18.333c50.416,-4.584 100.416,-11.25 150.833,-16.667c5.833,-0.417 11.25,-0.417 20.417,-1.25Z" style="fill:none;fill-rule:nonzero;stroke:#92c9ec;stroke-width:24.47px;"/><path d="M1705,1644.85c-27.083,17.917 -63.333,16.25 -92.083,-5c-37.917,-28.333 -75,-57.5 -112.084,-86.25c-140.833,-108.75 -281.25,-217.917 -421.666,-326.667c-26.25,-20.416 -52.084,-40.833 -78.334,-60.416c-28.333,-21.25 -65.416,-6.667 -70.833,27.5c-2.5,16.666 3.75,30.416 16.667,40.833c10.416,8.75 21.666,16.667 32.5,25c-34.584,55.417 -77.084,98.333 -146.667,102.917c-31.667,2.083 -61.25,-4.584 -90.833,-20c10,-17.5 19.583,-34.167 29.583,-51.25c24.167,-40.834 49.167,-81.25 72.917,-122.5c42.916,-74.584 107.083,-114.167 192.916,-116.667c22.5,-0.417 45.834,5.833 68.334,10.833c152.083,34.167 304.166,68.75 456.25,102.917c10,2.083 15,6.25 17.5,16.667c40.833,150.416 82.083,300.833 123.333,451.25c1.25,3.75 1.667,7.5 2.5,10.833" style="fill:#fff;fill-rule:nonzero;"/><path d="M1705,1644.85c-27.083,17.917 -63.333,16.25 -92.083,-5c-37.917,-28.333 -75,-57.5 -112.084,-86.25c-140.833,-108.75 -281.25,-217.917 -421.666,-326.667c-26.25,-20.416 -52.084,-40.833 -78.334,-60.416c-28.333,-21.25 -65.416,-6.667 -70.833,27.5c-2.5,16.666 3.75,30.416 16.667,40.833c10.416,8.75 21.666,16.667 32.5,25c-34.584,55.417 -77.084,98.333 -146.667,102.917c-31.667,2.083 -61.25,-4.584 -90.833,-20c10,-17.5 19.583,-34.167 29.583,-51.25c24.167,-40.834 49.167,-81.25 72.917,-122.5c42.916,-74.584 107.083,-114.167 192.916,-116.667c22.5,-0.417 45.834,5.833 68.334,10.833c152.083,34.167 304.166,68.75 456.25,102.917c10,2.083 15,6.25 17.5,16.667c40.833,150.416 82.083,300.833 123.333,451.25c1.25,3.75 1.667,7.5 2.5,10.833Z" style="fill:none;fill-rule:nonzero;stroke:#92c9ec;stroke-width:24.47px;"/><path d="M86.667,1609.85c53.333,-195 106.666,-388.333 160,-582.917c27.916,7.917 55,15 82.083,22.5c40.833,11.25 81.667,22.5 122.5,33.75c27.917,7.917 40,29.167 32.083,57.5c-45,164.167 -90,327.917 -135,492.084c-8.75,32.5 -30.833,40.416 -53.333,34.166c-68.75,-18.333 -137.5,-37.5 -208.333,-57.083" style="fill:#fff;fill-rule:nonzero;"/><path d="M86.667,1609.85c53.333,-195 106.666,-388.333 160,-582.917c27.916,7.917 55,15 82.083,22.5c40.833,11.25 81.667,22.5 122.5,33.75c27.917,7.917 40,29.167 32.083,57.5c-45,164.167 -90,327.917 -135,492.084c-8.75,32.5 -30.833,40.416 -53.333,34.166c-68.75,-18.333 -137.5,-37.5 -208.333,-57.083Z" style="fill:none;fill-rule:nonzero;stroke:#92c9ec;stroke-width:24.47px;"/><path d="M1894.58,1026.93c53.334,194.584 106.25,387.917 160,582.5c-22.5,6.25 -44.166,12.5 -65.833,18.75c-44.583,12.5 -89.167,24.584 -133.75,36.667c-34.583,9.167 -53.75,-2.083 -63.333,-36.667c-44.167,-160.833 -88.75,-322.083 -132.917,-483.333c-9.583,-34.167 2.083,-53.75 36.667,-63.333c63.75,-17.5 127.083,-35 190.833,-52.5c1.667,-0.417 4.167,-0.834 8.333,-2.084" style="fill:#fff;fill-rule:nonzero;"/><path d="M1894.58,1026.93c53.334,194.584 106.25,387.917 160,582.5c-22.5,6.25 -44.166,12.5 -65.833,18.75c-44.583,12.5 -89.167,24.584 -133.75,36.667c-34.583,9.167 -53.75,-2.083 -63.333,-36.667c-44.167,-160.833 -88.75,-322.083 -132.917,-483.333c-9.583,-34.167 2.083,-53.75 36.667,-63.333c63.75,-17.5 127.083,-35 190.833,-52.5c1.667,-0.417 4.167,-0.834 8.333,-2.084Z" style="fill:none;fill-rule:nonzero;stroke:#92c9ec;stroke-width:24.47px;"/></g></g></svg>