<?xml version="1.0" encoding="utf-8"?>
<!-- Generator: Adobe Illustrator 24.0.0, SVG Export Plug-In . SVG Version: 6.00 Build 0)  -->
<svg version="1.1" id="Livello_1" xmlns="http://www.w3.org/2000/svg" xmlns:xlink="http://www.w3.org/1999/xlink" x="0px" y="0px"
	 viewBox="0 0 286.3 125.7" style="enable-background:new 0 0 286.3 125.7;" xml:space="preserve">
<style type="text/css">
	.st0{clip-path:url(#SVGID_2_);}
	.st1{opacity:0.81;clip-path:url(#SVGID_4_);}
	.st2{clip-path:url(#SVGID_6_);fill:none;stroke:#FFFFFF;stroke-width:1.014;}
	.st3{clip-path:url(#SVGID_6_);fill:none;stroke:#FFFFFF;stroke-width:0.507;}
	.st4{clip-path:url(#SVGID_6_);fill:#FFFFFF;}
	.st5{clip-path:url(#SVGID_8_);}
	.st6{fill:#FFFFFF;}
</style>
<g>
	<defs>
		<rect id="SVGID_1_" x="-68.2" y="3" width="422.7" height="119.6"/>
	</defs>
	<clipPath id="SVGID_2_">
		<use xlink:href="#SVGID_1_"  style="overflow:visible;"/>
	</clipPath>
	<g class="st0">
		<defs>
			<rect id="SVGID_3_" x="-68.2" y="3" width="422.7" height="119.6"/>
		</defs>
		<clipPath id="SVGID_4_">
			<use xlink:href="#SVGID_3_"  style="overflow:visible;"/>
		</clipPath>
		<g class="st1">
			<g>
				<defs>
					<rect id="SVGID_5_" x="12.3" y="25.4" width="261.6" height="98.3"/>
				</defs>
				<clipPath id="SVGID_6_">
					<use xlink:href="#SVGID_5_"  style="overflow:visible;"/>
				</clipPath>
				<path class="st2" d="M188.2,38.9c-8.3,0-15.1,6.7-15.1,15.1v53.2c0,8.3,6.7,15.1,15.1,15.1h53.2c8.3,0,15.1-6.7,15.1-15.1V53.9
					c0-8.3-6.7-15.1-15.1-15.1H188.2z"/>
				<path class="st3" d="M256.2,105.6V55.4c0-7.7-5.4-14.3-12.9-15.9c0.7,10.7,0.3,36.6-16.4,54.6c-11.6,12.5-28.8,19.1-51.2,19.5
					c2.9,5.1,8.3,8.2,14.1,8.2h50.2C248.9,121.8,256.2,114.6,256.2,105.6z"/>
				<path class="st4" d="M245.9,97.6v-6.9h-1.5c-1.1,0-2.1-0.1-2.8-0.4c-0.8-0.3-1.4-0.7-1.8-1.3c-0.5-0.6-0.8-1.2-1-2
					c-0.2-0.8-0.3-1.7-0.3-2.7v-5.9h7.5v-6.9h-7.5V63h-9.7v8.4H225v6.9h3.7v10.4c0,1.6,0.3,3,0.8,4.1c0.5,1.1,1.2,2,2.1,2.7
					c0.9,0.7,1.9,1.2,3.1,1.6c1.2,0.3,2.5,0.5,3.8,0.5H245.9z M222.9,63h-9.7v6.3h9.7V63z M213.3,97.6h9.7V71.4h-9.7V97.6z
					 M192,78.3h4.5c0.9,0,1.5,0.2,2.1,0.6c0.5,0.4,0.9,0.9,1.2,1.5c0.3,0.6,0.4,1.3,0.5,2c0.1,0.7,0.1,1.4,0.1,2
					c0,0.8,0,1.6-0.1,2.3c-0.1,0.7-0.3,1.4-0.5,2c-0.3,0.6-0.7,1-1.2,1.4c-0.5,0.3-1.3,0.5-2.2,0.5h-1.8c-1,0-1.6-0.2-2-0.5
					c-0.3-0.3-0.5-1-0.5-2V78.3z M199.3,97.6c2.1,0,3.9-0.3,5.2-0.9c1.4-0.6,2.5-1.5,3.3-2.6s1.4-2.5,1.8-4.1
					c0.3-1.6,0.5-3.4,0.5-5.4c0-2-0.2-3.8-0.5-5.4c-0.3-1.6-0.9-3-1.8-4.1s-2-2-3.3-2.6c-1.4-0.6-3.1-0.9-5.2-0.9H192V63h-9.7v29.2
					c0,1.7,0.5,3.1,1.4,4c0.9,0.9,2.3,1.4,4,1.4H199.3z M148.1,81.8c0.1-0.8,0.4-1.5,0.8-2.1c0.4-0.6,0.9-1,1.6-1.3
					c0.7-0.3,1.6-0.4,2.7-0.4c1.1,0,2,0.1,2.7,0.4c0.7,0.3,1.2,0.7,1.6,1.3c0.4,0.6,0.6,1.3,0.8,2.1c0.1,0.8,0.2,1.7,0.2,2.7
					c0,1-0.1,1.9-0.2,2.7c-0.1,0.8-0.4,1.5-0.8,2.1c-0.4,0.6-0.9,1-1.6,1.3c-0.7,0.3-1.6,0.4-2.7,0.4c-1.1,0-2-0.1-2.7-0.4
					c-0.7-0.3-1.2-0.7-1.6-1.3c-0.4-0.6-0.6-1.3-0.8-2.1c-0.1-0.8-0.2-1.7-0.2-2.7C147.9,83.5,148,82.6,148.1,81.8 M146.2,71.7
					c-1.9,0.4-3.5,1.1-4.7,2.1c-1.2,1-2.1,2.4-2.6,4.1c-0.6,1.7-0.8,4-0.8,6.7c0,2.7,0.3,5,0.8,6.7c0.6,1.7,1.4,3.1,2.6,4.1
					c1.2,1,2.8,1.7,4.7,2.1c1.9,0.4,4.2,0.6,7,0.6c2.7,0,5-0.2,7-0.6c1.9-0.4,3.5-1.1,4.7-2.1c1.2-1,2.1-2.4,2.6-4.1
					c0.6-1.7,0.8-4,0.8-6.7c0-2.7-0.3-4.9-0.8-6.7s-1.4-3.1-2.6-4.1c-1.2-1-2.8-1.7-4.7-2.1c-1.9-0.4-4.2-0.6-7-0.6
					C150.4,71.1,148.1,71.3,146.2,71.7 M117.9,97.6h9.7V85.1c0-2.2,0.4-4,1.3-5.1c0.9-1.2,2.4-1.8,4.7-1.8h3.6v-6.8h-6.4
					c-2.1,0-4,0.2-5.6,0.5c-1.6,0.3-2.9,0.9-4,1.8c-1.1,0.8-1.9,2-2.4,3.3c-0.5,1.4-0.8,3.1-0.8,5.2V97.6z M96.4,81.5
					c0-0.8,0.1-1.5,0.3-2c0.2-0.5,0.5-0.8,0.9-1.1c0.4-0.2,0.9-0.4,1.4-0.5c0.5-0.1,1.1-0.1,1.7-0.1c0.4,0,0.8,0,1.3,0
					c0.5,0,1,0.1,1.4,0.2c0.4,0.1,0.8,0.3,1.1,0.6c0.3,0.3,0.5,0.7,0.5,1.1c0,0.1,0,0.3,0,0.5c0,0.2-0.1,0.4-0.2,0.5
					s-0.3,0.3-0.5,0.4c-0.2,0.1-0.5,0.2-0.9,0.2H96.4z M113.9,97.6v-6.7h-12.7c-1.7,0-3-0.2-3.7-0.7c-0.7-0.5-1.1-1.3-1.1-2.6h14.3
					c0.9,0,1.6-0.2,2.1-0.5c0.5-0.3,1-0.8,1.3-1.3c0.3-0.5,0.5-1.2,0.6-1.9c0.1-0.7,0.2-1.4,0.2-2.2c0-2.5-0.3-4.4-0.8-5.8
					c-0.5-1.4-1.4-2.5-2.5-3.2c-1.1-0.7-2.6-1.2-4.4-1.4c-1.8-0.2-3.9-0.3-6.4-0.3c-3,0-5.4,0.1-7.2,0.4c-1.8,0.3-3.3,0.9-4.3,1.8
					c-1,0.9-1.7,2.3-2.1,4c-0.4,1.7-0.5,4.1-0.5,7.1c0,2.7,0.1,5,0.4,6.7c0.3,1.7,0.8,3.1,1.5,4c0.7,1,1.8,1.6,3.1,2
					c1.3,0.4,3,0.5,5.1,0.5H113.9z M66.1,78.3h4.5c0.9,0,1.5,0.2,2.1,0.6c0.5,0.4,0.9,0.9,1.2,1.5c0.3,0.6,0.4,1.3,0.5,2
					c0.1,0.7,0.1,1.4,0.1,2c0,0.8,0,1.6-0.1,2.3c-0.1,0.7-0.3,1.4-0.5,2c-0.3,0.6-0.7,1-1.2,1.4c-0.5,0.3-1.3,0.5-2.2,0.5h-1.8
					c-1,0-1.7-0.2-2-0.5c-0.3-0.3-0.5-1-0.5-2V78.3z M73.4,97.6c2.1,0,3.9-0.3,5.2-0.9c1.4-0.6,2.5-1.5,3.3-2.6s1.4-2.5,1.8-4.1
					c0.3-1.6,0.5-3.4,0.5-5.4c0-2-0.2-3.8-0.5-5.4c-0.3-1.6-0.9-3-1.8-4.1s-2-2-3.3-2.6c-1.4-0.6-3.1-0.9-5.2-0.9h-7.3V63h-9.7v29.2
					c0,1.7,0.5,3.1,1.4,4c0.9,0.9,2.3,1.4,4,1.4H73.4z M52.6,63h-9.7v6.3h9.7V63z M42.9,97.6h9.7V71.4h-9.7V97.6z M29.5,97.6h9.7V63
					h-9.7V97.6z"/>
				<path class="st4" d="M163.1,107.5c0-0.1,0-0.1,0.1-0.2c0-0.1,0.1-0.1,0.1-0.1c0,0,0.1,0,0.1,0.1c0,0.1,0.1,0.1,0.1,0.2l0.9,2.3
					h-2.2L163.1,107.5z M160.7,111.7h0.7l0.6-1.4h2.6l0.6,1.4h0.7l-1.9-4.5c-0.1-0.2-0.2-0.3-0.3-0.4c-0.1-0.1-0.2-0.1-0.4-0.1
					c-0.2,0-0.3,0-0.4,0.1c-0.1,0.1-0.2,0.2-0.3,0.4L160.7,111.7z M157.2,111.7v-0.5h-1.8c-0.3,0-0.6,0-0.8-0.1
					c-0.2-0.1-0.4-0.2-0.5-0.4c-0.1-0.2-0.2-0.4-0.3-0.6c-0.1-0.2-0.1-0.5-0.1-0.9s0-0.6,0.1-0.9c0.1-0.2,0.1-0.4,0.3-0.6
					c0.1-0.2,0.3-0.3,0.5-0.4c0.2-0.1,0.5-0.1,0.8-0.1h1.7v-0.5h-1.9c-0.4,0-0.8,0.1-1.1,0.2c-0.3,0.1-0.5,0.3-0.6,0.5
					c-0.2,0.2-0.3,0.5-0.3,0.8c-0.1,0.3-0.1,0.6-0.1,1s0,0.7,0.1,1c0.1,0.3,0.2,0.6,0.3,0.8c0.2,0.2,0.4,0.4,0.6,0.5
					c0.3,0.1,0.6,0.2,1,0.2H157.2z M149,106.7h-0.7v5h0.7V106.7z M142.7,111.7v-4.4h2v-0.5H140v0.5h2v4.4H142.7z M134.8,107.5
					c0-0.1,0-0.1,0.1-0.2c0-0.1,0.1-0.1,0.1-0.1c0,0,0.1,0,0.1,0.1c0,0.1,0.1,0.1,0.1,0.2l0.9,2.3h-2.2L134.8,107.5z M132.4,111.7
					h0.7l0.6-1.4h2.6l0.6,1.4h0.7l-1.9-4.5c-0.1-0.2-0.2-0.3-0.3-0.4c-0.1-0.1-0.2-0.1-0.4-0.1c-0.2,0-0.3,0-0.4,0.1
					s-0.2,0.2-0.3,0.4L132.4,111.7z M128,107.5c0,0,0-0.1,0.1-0.1c0,0,0,0,0.1,0c0,0,0,0,0.1,0c0,0,0,0.1,0,0.1l0,4.2h0.7v-4.5
					c0-0.2-0.1-0.3-0.2-0.4c-0.1-0.1-0.3-0.1-0.5-0.1c-0.2,0-0.4,0.1-0.5,0.2c-0.1,0.1-0.2,0.2-0.2,0.4l-1.5,3.7c0,0,0,0.1-0.1,0.1
					c0,0,0,0-0.1,0c0,0-0.1,0-0.1,0c0,0,0-0.1-0.1-0.1l-1.5-3.7c0-0.1-0.1-0.2-0.1-0.2c0-0.1-0.1-0.1-0.1-0.2
					c-0.1,0-0.1-0.1-0.2-0.1c-0.1,0-0.2,0-0.3,0c-0.2,0-0.4,0-0.5,0.1c-0.1,0.1-0.2,0.2-0.2,0.4v4.5h0.7l0-4.2c0,0,0-0.1,0-0.1
					c0,0,0,0,0.1,0c0,0,0,0,0.1,0c0,0,0,0.1,0.1,0.1l1.5,3.7c0.1,0.2,0.1,0.3,0.2,0.4c0.1,0.1,0.2,0.2,0.4,0.2
					c0.2,0,0.3-0.1,0.4-0.2c0.1-0.1,0.2-0.2,0.2-0.4L128,107.5z M114.6,111.7h0.7v-4.1c0-0.1,0-0.2,0.1-0.3c0.1,0,0.1-0.1,0.3-0.1
					h1.8c0.2,0,0.3,0,0.4,0.1c0.1,0,0.2,0.1,0.2,0.2c0.1,0.1,0.1,0.2,0.1,0.3c0,0.1,0,0.3,0,0.4c0,0.2,0,0.3,0,0.4
					c0,0.1,0,0.2-0.1,0.3c0,0.1-0.1,0.2-0.2,0.2c-0.1,0.1-0.2,0.1-0.4,0.1h-1.2c-0.1,0-0.2,0-0.2,0.1s-0.1,0.1-0.1,0.2v0.1
					c0,0.1,0,0.1,0.1,0.2c0,0.1,0.1,0.1,0.1,0.1l1.9,1.8h0.9l-2-1.9v0h0.8c0.2,0,0.4,0,0.5-0.1c0.1-0.1,0.3-0.2,0.3-0.3
					s0.2-0.3,0.2-0.5c0-0.2,0.1-0.4,0.1-0.7c0-0.2,0-0.4-0.1-0.6c0-0.2-0.1-0.3-0.2-0.5c-0.1-0.1-0.2-0.2-0.4-0.3s-0.3-0.1-0.6-0.1
					h-2.3c-0.2,0-0.4,0.1-0.5,0.2c-0.1,0.1-0.2,0.3-0.2,0.6V111.7z M106.4,108.2c0.1-0.3,0.2-0.5,0.3-0.6c0.1-0.2,0.3-0.3,0.5-0.3
					c0.2-0.1,0.5-0.1,0.9-0.1s0.6,0,0.9,0.1c0.2,0.1,0.4,0.2,0.5,0.3c0.1,0.2,0.2,0.4,0.3,0.6c0.1,0.3,0.1,0.6,0.1,0.9
					c0,0.4,0,0.7-0.1,1c-0.1,0.3-0.2,0.5-0.3,0.6c-0.1,0.2-0.3,0.3-0.5,0.3c-0.2,0.1-0.5,0.1-0.9,0.1s-0.6,0-0.9-0.1
					c-0.2-0.1-0.4-0.2-0.5-0.3c-0.1-0.2-0.2-0.4-0.3-0.6c-0.1-0.3-0.1-0.6-0.1-1C106.3,108.8,106.3,108.5,106.4,108.2 M107,106.7
					c-0.3,0.1-0.6,0.2-0.8,0.4c-0.2,0.2-0.3,0.5-0.4,0.8c-0.1,0.3-0.1,0.7-0.1,1.2c0,0.5,0,0.9,0.1,1.2c0.1,0.3,0.2,0.6,0.4,0.8
					c0.2,0.2,0.5,0.3,0.8,0.4c0.3,0.1,0.7,0.1,1.2,0.1c0.5,0,0.8,0,1.2-0.1c0.3-0.1,0.6-0.2,0.8-0.4c0.2-0.2,0.3-0.5,0.4-0.8
					c0.1-0.3,0.1-0.7,0.1-1.2c0-0.5,0-0.9-0.1-1.2c-0.1-0.3-0.2-0.6-0.4-0.8c-0.2-0.2-0.4-0.3-0.8-0.4c-0.3-0.1-0.7-0.1-1.2-0.1
					C107.7,106.6,107.3,106.7,107,106.7 M99.2,111.7v-2.2h2.2v-0.5h-2.2v-1.3c0-0.1,0-0.2,0.1-0.3c0,0,0.1-0.1,0.3-0.1h2.7v-0.5h-3
					c-0.2,0-0.4,0.1-0.5,0.2c-0.1,0.1-0.2,0.3-0.2,0.6v4.3H99.2z M94.4,106.7h-0.6v4.1c0,0,0,0.1,0,0.1c0,0,0,0-0.1,0
					c0,0-0.1,0-0.1,0s0-0.1-0.1-0.1l-2.4-3.8c-0.1-0.1-0.1-0.2-0.2-0.3c-0.1-0.1-0.2-0.1-0.4-0.1c-0.1,0-0.1,0-0.2,0
					c-0.1,0-0.1,0.1-0.2,0.1c-0.1,0-0.1,0.1-0.1,0.2c0,0.1-0.1,0.2-0.1,0.3v4.5h0.6v-4.1c0-0.1,0-0.1,0-0.1c0,0,0,0,0.1,0
					c0,0,0.1,0,0.1,0.1l2.4,3.8c0.1,0.2,0.2,0.3,0.3,0.3c0.1,0.1,0.2,0.1,0.4,0.1c0.2,0,0.3-0.1,0.4-0.2c0.1-0.1,0.2-0.3,0.2-0.5
					V106.7z M85.8,106.7h-0.7v5h0.7V106.7z M74,107.5c0-0.1,0-0.1,0.1-0.2c0-0.1,0.1-0.1,0.1-0.1c0,0,0.1,0,0.1,0.1
					c0,0.1,0.1,0.1,0.1,0.2l0.9,2.3h-2.2L74,107.5z M71.6,111.7h0.7l0.6-1.4h2.6l0.6,1.4h0.7l-1.9-4.5c-0.1-0.2-0.2-0.3-0.3-0.4
					c-0.1-0.1-0.2-0.1-0.4-0.1c-0.2,0-0.3,0-0.4,0.1s-0.2,0.2-0.3,0.4L71.6,111.7z M63.8,111.7h0.7v-4.1c0-0.1,0-0.2,0.1-0.3
					c0.1,0,0.1-0.1,0.3-0.1h1.8c0.2,0,0.3,0,0.4,0.1c0.1,0,0.2,0.1,0.2,0.2c0.1,0.1,0.1,0.2,0.1,0.3c0,0.1,0,0.3,0,0.4
					c0,0.2,0,0.3,0,0.4c0,0.1,0,0.2-0.1,0.3c0,0.1-0.1,0.2-0.2,0.2c-0.1,0.1-0.2,0.1-0.4,0.1h-1.2c-0.1,0-0.2,0-0.2,0.1
					c-0.1,0-0.1,0.1-0.1,0.2v0.1c0,0.1,0,0.1,0.1,0.2c0,0.1,0.1,0.1,0.1,0.1l1.9,1.8h0.9l-2-1.9v0h0.8c0.2,0,0.4,0,0.5-0.1
					c0.1-0.1,0.3-0.2,0.3-0.3s0.2-0.3,0.2-0.5c0-0.2,0.1-0.4,0.1-0.7c0-0.2,0-0.4-0.1-0.6c0-0.2-0.1-0.3-0.2-0.5
					c-0.1-0.1-0.2-0.2-0.4-0.3s-0.3-0.1-0.6-0.1h-2.3c-0.2,0-0.4,0.1-0.5,0.2c-0.1,0.1-0.2,0.3-0.2,0.6V111.7z M58.1,111.7v-4.4h2
					v-0.5h-4.7v0.5h2v4.4H58.1z M53.1,111.7v-0.5h-2.8c-0.1,0-0.2,0-0.2-0.1c0,0-0.1-0.1-0.1-0.2v-4.1h-0.7v4.4
					c0,0.2,0.1,0.4,0.2,0.5c0.1,0.1,0.3,0.1,0.5,0.1H53.1z M43,107.5c0-0.1,0-0.1,0.1-0.2c0-0.1,0.1-0.1,0.1-0.1c0,0,0.1,0,0.1,0.1
					c0,0.1,0.1,0.1,0.1,0.2l0.9,2.3h-2.2L43,107.5z M40.6,111.7h0.7l0.6-1.4h2.6l0.6,1.4h0.7l-1.9-4.5c-0.1-0.2-0.2-0.3-0.3-0.4
					c-0.1-0.1-0.2-0.1-0.4-0.1c-0.2,0-0.3,0-0.4,0.1s-0.2,0.2-0.3,0.4L40.6,111.7z M36.4,108.1l0.8-1.3l-0.5-0.3l-0.8,1.3
					L36.4,108.1z M33.1,111.7v-0.5h-2.8c-0.1,0-0.2,0-0.2-0.1c0,0-0.1-0.1-0.1-0.2v-4.1h-0.7v4.4c0,0.2,0.1,0.4,0.2,0.5
					c0.1,0.1,0.3,0.1,0.5,0.1H33.1z"/>
			</g>
		</g>
		<g class="st1">
			<g>
				<defs>
					<rect id="SVGID_7_" x="-68.2" y="3" width="422.7" height="38.5"/>
				</defs>
				<clipPath id="SVGID_8_">
					<use xlink:href="#SVGID_7_"  style="overflow:visible;"/>
				</clipPath>
				<g class="st5">
					<path class="st6" d="M67.6,12H74c1.8,0,3.2,0.5,4.1,1.4c0.8,0.8,1.2,1.9,1.2,3.2v0c0,2.3-1.2,3.7-3,4.3l3.4,5h-3.6l-3-4.5h-2.4
						V26h-3.1V12z M73.8,18.8c1.5,0,2.4-0.8,2.4-2v0c0-1.3-0.9-2-2.4-2h-3.1v4H73.8z"/>
					<path class="st6" d="M85.7,12h10.6v2.7h-7.5v2.8h6.6v2.7h-6.6v2.9h7.6V26H85.7V12z"/>
					<path class="st6" d="M102.7,12h10.7v2.8h-7.6v3h6.7v2.8h-6.7V26h-3.1V12z"/>
					<path class="st6" d="M119.4,12H130v2.7h-7.5v2.8h6.6v2.7h-6.6v2.9h7.6V26h-10.7V12z"/>
					<path class="st6" d="M136.4,12h6.4c1.8,0,3.2,0.5,4.1,1.4c0.8,0.8,1.2,1.9,1.2,3.2v0c0,2.3-1.2,3.7-3,4.3l3.4,5h-3.6l-3-4.5
						h-2.4V26h-3.1V12z M142.6,18.8c1.5,0,2.4-0.8,2.4-2v0c0-1.3-0.9-2-2.4-2h-3.1v4H142.6z"/>
					<path class="st6" d="M154.5,12H165v2.7h-7.5v2.8h6.6v2.7h-6.6v2.9h7.6V26h-10.7V12z"/>
					<path class="st6" d="M171.4,12h2.8l6.6,8.6V12h3v14h-2.6l-6.8-8.9V26h-3V12z"/>
					<path class="st6" d="M190.4,23.7l7.7-9h-7.5V12h11.4v2.3l-7.7,9h7.7V26h-11.7V23.7z"/>
					<path class="st6" d="M208.6,12h10.6v2.7h-7.5v2.8h6.6v2.7h-6.6v2.9h7.6V26h-10.7V12z"/>
				</g>
			</g>
		</g>
	</g>
</g>
</svg>
