<?xml version="1.0" encoding="UTF-8" standalone="no"?><!DOCTYPE svg PUBLIC "-//W3C//DTD SVG 1.1//EN" "http://www.w3.org/Graphics/SVG/1.1/DTD/svg11.dtd"><svg width="100%" height="100%" viewBox="0 0 8959 9030" version="1.1" xmlns="http://www.w3.org/2000/svg" xmlns:xlink="http://www.w3.org/1999/xlink" xml:space="preserve" xmlns:serif="http://www.serif.com/" style="fill-rule:evenodd;clip-rule:evenodd;stroke-miterlimit:10;"><g opacity="0.29"><g><path d="M4252.59,3911.81c-43.941,-52.181 -76.897,-98.868 -115.346,-137.317c-244.423,-247.17 -488.846,-491.593 -736.016,-736.017c-79.644,-79.643 -184.004,-79.643 -255.409,-8.239c-68.658,68.659 -71.404,173.019 2.746,247.17c329.56,332.306 661.866,664.612 996.918,996.918c82.39,82.39 184.005,74.151 263.648,-10.985c21.971,-21.971 41.195,-46.688 60.42,-68.658c433.92,-513.564 870.586,-1027.13 1304.51,-1540.69c178.511,-211.467 359.769,-420.188 541.027,-628.91c19.224,-21.97 41.195,-46.687 57.673,-71.404c65.912,-90.629 57.673,-189.497 -19.225,-255.409c-76.897,-63.166 -184.004,-54.927 -252.662,27.463c-205.975,241.677 -409.203,486.101 -615.178,727.778c-208.721,247.17 -417.442,494.34 -626.164,738.763c-192.243,236.184 -389.978,466.876 -606.939,719.539m227.946,1452.81c107.107,-8.239 211.467,-13.732 315.828,-30.21c85.136,-10.985 170.272,-30.21 252.662,-54.927c1186.41,-346.037 1809.83,-1595.62 1375.91,-2754.57c-54.927,-148.302 -145.556,-205.975 -252.662,-167.527c-107.107,38.449 -129.078,142.81 -76.898,291.112c225.199,626.163 140.063,1213.88 -282.872,1727.44c-420.188,508.071 -977.694,716.792 -1625.83,601.446c-689.329,-123.585 -1158.95,-538.281 -1359.43,-1208.39c-200.482,-678.343 -27.464,-1277.04 488.847,-1765.89c318.574,-302.097 705.807,-450.398 1142.47,-455.891c409.203,-5.493 777.212,120.838 1098.53,373.501c54.927,43.941 112.6,74.151 184.005,54.926c68.658,-16.477 112.599,-60.419 129.077,-131.823c19.224,-85.137 -21.97,-145.556 -85.136,-194.99c-488.847,-378.994 -1038.11,-524.549 -1647.8,-422.935c-1062.83,178.512 -1820.82,1147.97 -1730.19,2208.05c90.629,1095.79 983.187,1922.43 2073.48,1930.67m-2702.39,-889.812c19.225,-115.345 35.703,-230.691 54.927,-348.784c30.21,-186.75 -21.971,-354.276 -131.824,-505.324c-49.434,-71.405 -98.868,-142.81 -151.048,-211.468c-65.912,-90.629 -65.912,-181.258 -0,-271.887c46.688,-63.165 90.629,-129.077 137.316,-189.496c140.063,-178.512 181.258,-378.994 134.571,-601.447c-16.478,-76.897 -27.464,-153.794 -41.195,-230.692c-19.225,-104.36 16.478,-181.257 109.853,-230.691c82.39,-43.942 167.526,-93.376 249.916,-137.317c167.526,-90.629 280.126,-227.945 329.56,-414.696c27.463,-93.375 54.926,-186.75 82.39,-282.872c30.209,-96.122 93.375,-145.555 197.735,-151.048c115.346,-5.493 227.946,-13.732 343.292,-24.717c156.541,-13.732 288.365,-85.136 395.471,-200.482c71.405,-76.898 140.063,-153.795 208.722,-230.692c74.151,-85.136 162.033,-104.361 263.647,-57.673c74.151,32.956 151.049,63.166 225.199,96.122c197.736,87.882 395.472,87.882 593.208,-0c82.39,-35.703 164.78,-71.405 247.17,-101.615c82.39,-32.956 159.287,-19.224 222.452,46.688c63.166,68.658 126.332,134.57 184.005,205.975c140.062,167.526 321.32,247.17 535.534,252.662c90.629,2.747 178.512,10.986 266.394,16.478c79.644,5.493 137.317,46.688 162.034,123.585c27.463,82.39 54.926,164.78 74.151,249.916c54.926,225.199 181.257,392.725 389.979,497.086c71.404,35.702 142.809,76.897 214.213,118.092c85.137,46.688 120.839,120.839 104.361,216.96c-13.732,82.39 -24.717,164.78 -41.195,247.17c-43.941,214.214 -2.746,409.203 131.824,584.969c46.687,60.419 87.882,123.584 134.57,184.004c76.897,98.868 76.897,197.736 0,299.35c-41.195,54.926 -79.644,115.346 -123.585,170.272c-145.555,184.004 -189.497,387.233 -140.063,615.178c16.478,79.644 27.464,159.288 38.449,238.931c13.732,93.375 -19.224,164.78 -101.614,208.721c-87.883,49.434 -175.765,98.868 -263.648,148.302c-197.736,112.6 -310.335,280.126 -346.038,505.325c-13.731,90.629 -54.926,175.765 -85.136,260.901c-8.239,21.971 -32.956,46.688 -52.18,49.434c-104.361,16.478 -208.721,35.703 -313.082,38.449c-194.989,5.493 -378.994,41.195 -521.803,186.75c-82.39,85.137 -159.287,173.019 -238.931,258.156c-74.151,82.389 -156.54,98.867 -255.408,54.926c-79.644,-35.702 -159.288,-65.912 -238.931,-101.614c-186.751,-79.644 -373.501,-79.644 -562.998,-0c-82.39,35.702 -164.78,68.658 -247.17,104.361c-96.121,41.194 -178.511,27.463 -249.916,-52.181c-54.926,-63.165 -112.599,-123.585 -167.526,-186.75c-131.824,-156.541 -299.35,-249.916 -508.071,-258.155c-82.39,-2.747 -167.526,-10.986 -249.916,-10.986c-126.331,2.747 -200.482,-43.941 -238.931,-164.78c-21.971,-71.404 -35.702,-145.555 -52.18,-219.706c-46.688,-192.243 -142.809,-351.53 -318.575,-453.145c-98.868,-57.672 -200.482,-112.599 -299.35,-170.272c-63.165,-32.956 -98.868,-90.629 -90.629,-170.273" style="fill:#fff;fill-rule:nonzero;"/><path d="M4252.59,3911.81c-43.941,-52.181 -76.897,-98.868 -115.346,-137.317c-244.423,-247.17 -488.846,-491.593 -736.016,-736.017c-79.644,-79.643 -184.004,-79.643 -255.409,-8.239c-68.658,68.659 -71.404,173.019 2.746,247.17c329.56,332.306 661.866,664.612 996.918,996.918c82.39,82.39 184.005,74.151 263.648,-10.985c21.971,-21.971 41.195,-46.688 60.42,-68.658c433.92,-513.564 870.586,-1027.13 1304.51,-1540.69c178.511,-211.467 359.769,-420.188 541.027,-628.91c19.224,-21.97 41.195,-46.687 57.673,-71.404c65.912,-90.629 57.673,-189.497 -19.225,-255.409c-76.897,-63.166 -184.004,-54.927 -252.662,27.463c-205.975,241.677 -409.203,486.101 -615.178,727.778c-208.721,247.17 -417.442,494.34 -626.164,738.763c-192.243,236.184 -389.978,466.876 -606.939,719.539Zm227.946,1452.81c107.107,-8.239 211.467,-13.732 315.828,-30.21c85.136,-10.985 170.272,-30.21 252.662,-54.927c1186.41,-346.037 1809.83,-1595.62 1375.91,-2754.57c-54.927,-148.302 -145.556,-205.975 -252.662,-167.527c-107.107,38.449 -129.078,142.81 -76.898,291.112c225.199,626.163 140.063,1213.88 -282.872,1727.44c-420.188,508.071 -977.694,716.792 -1625.83,601.446c-689.329,-123.585 -1158.95,-538.281 -1359.43,-1208.39c-200.482,-678.343 -27.464,-1277.04 488.847,-1765.89c318.574,-302.097 705.807,-450.398 1142.47,-455.891c409.203,-5.493 777.212,120.838 1098.53,373.501c54.927,43.941 112.6,74.151 184.005,54.926c68.658,-16.477 112.599,-60.419 129.077,-131.823c19.224,-85.137 -21.97,-145.556 -85.136,-194.99c-488.847,-378.994 -1038.11,-524.549 -1647.8,-422.935c-1062.83,178.512 -1820.82,1147.97 -1730.19,2208.05c90.629,1095.79 983.187,1922.43 2073.48,1930.67Zm-2702.39,-889.812c19.225,-115.345 35.703,-230.691 54.927,-348.784c30.21,-186.75 -21.971,-354.276 -131.824,-505.324c-49.434,-71.405 -98.868,-142.81 -151.048,-211.468c-65.912,-90.629 -65.912,-181.258 -0,-271.887c46.688,-63.165 90.629,-129.077 137.316,-189.496c140.063,-178.512 181.258,-378.994 134.571,-601.447c-16.478,-76.897 -27.464,-153.794 -41.195,-230.692c-19.225,-104.36 16.478,-181.257 109.853,-230.691c82.39,-43.942 167.526,-93.376 249.916,-137.317c167.526,-90.629 280.126,-227.945 329.56,-414.696c27.463,-93.375 54.926,-186.75 82.39,-282.872c30.209,-96.122 93.375,-145.555 197.735,-151.048c115.346,-5.493 227.946,-13.732 343.292,-24.717c156.541,-13.732 288.365,-85.136 395.471,-200.482c71.405,-76.898 140.063,-153.795 208.722,-230.692c74.151,-85.136 162.033,-104.361 263.647,-57.673c74.151,32.956 151.049,63.166 225.199,96.122c197.736,87.882 395.472,87.882 593.208,-0c82.39,-35.703 164.78,-71.405 247.17,-101.615c82.39,-32.956 159.287,-19.224 222.452,46.688c63.166,68.658 126.332,134.57 184.005,205.975c140.062,167.526 321.32,247.17 535.534,252.662c90.629,2.747 178.512,10.986 266.394,16.478c79.644,5.493 137.317,46.688 162.034,123.585c27.463,82.39 54.926,164.78 74.151,249.916c54.926,225.199 181.257,392.725 389.979,497.086c71.404,35.702 142.809,76.897 214.213,118.092c85.137,46.688 120.839,120.839 104.361,216.96c-13.732,82.39 -24.717,164.78 -41.195,247.17c-43.941,214.214 -2.746,409.203 131.824,584.969c46.687,60.419 87.882,123.584 134.57,184.004c76.897,98.868 76.897,197.736 0,299.35c-41.195,54.926 -79.644,115.346 -123.585,170.272c-145.555,184.004 -189.497,387.233 -140.063,615.178c16.478,79.644 27.464,159.288 38.449,238.931c13.732,93.375 -19.224,164.78 -101.614,208.721c-87.883,49.434 -175.765,98.868 -263.648,148.302c-197.736,112.6 -310.335,280.126 -346.038,505.325c-13.731,90.629 -54.926,175.765 -85.136,260.901c-8.239,21.971 -32.956,46.688 -52.18,49.434c-104.361,16.478 -208.721,35.703 -313.082,38.449c-194.989,5.493 -378.994,41.195 -521.803,186.75c-82.39,85.137 -159.287,173.019 -238.931,258.156c-74.151,82.389 -156.54,98.867 -255.408,54.926c-79.644,-35.702 -159.288,-65.912 -238.931,-101.614c-186.751,-79.644 -373.501,-79.644 -562.998,-0c-82.39,35.702 -164.78,68.658 -247.17,104.361c-96.121,41.194 -178.511,27.463 -249.916,-52.181c-54.926,-63.165 -112.599,-123.585 -167.526,-186.75c-131.824,-156.541 -299.35,-249.916 -508.071,-258.155c-82.39,-2.747 -167.526,-10.986 -249.916,-10.986c-126.331,2.747 -200.482,-43.941 -238.931,-164.78c-21.971,-71.404 -35.702,-145.555 -52.18,-219.706c-46.688,-192.243 -142.809,-351.53 -318.575,-453.145c-98.868,-57.672 -200.482,-112.599 -299.35,-170.272c-63.165,-32.956 -98.868,-90.629 -90.629,-170.273Z" style="fill:none;fill-rule:nonzero;stroke:#92c9ec;stroke-width:166.43px;"/><path d="M6526.56,8668.45c-134.57,-233.438 -266.394,-439.412 -373.501,-656.373c-244.423,-488.846 -475.115,-985.932 -714.046,-1480.27c-24.717,-52.18 -21.97,-85.136 24.717,-126.331c85.136,-76.897 159.287,-164.78 236.185,-249.916c74.151,-85.136 162.033,-134.57 277.379,-134.57c38.449,-0 76.897,-8.239 118.092,-5.493c280.126,8.239 499.832,-96.122 645.388,-354.277c164.78,346.038 313.082,686.583 483.354,1016.14c167.526,329.559 354.277,650.88 538.281,983.186c-24.717,2.746 -49.434,5.493 -71.405,8.239c-211.467,5.493 -425.681,8.239 -637.148,13.732c-120.839,2.746 -170.273,38.448 -211.468,153.794c-90.629,244.424 -181.258,488.847 -269.14,730.524c-13.732,27.464 -24.717,52.181 -46.688,101.614" style="fill:#fff;fill-rule:nonzero;"/><path d="M6526.56,8668.45c-134.57,-233.438 -266.394,-439.412 -373.501,-656.373c-244.423,-488.846 -475.115,-985.932 -714.046,-1480.27c-24.717,-52.18 -21.97,-85.136 24.717,-126.331c85.136,-76.897 159.287,-164.78 236.185,-249.916c74.151,-85.136 162.033,-134.57 277.379,-134.57c38.449,-0 76.897,-8.239 118.092,-5.493c280.126,8.239 499.832,-96.122 645.388,-354.277c164.78,346.038 313.082,686.583 483.354,1016.14c167.526,329.559 354.277,650.88 538.281,983.186c-24.717,2.746 -49.434,5.493 -71.405,8.239c-211.467,5.493 -425.681,8.239 -637.148,13.732c-120.839,2.746 -170.273,38.448 -211.468,153.794c-90.629,244.424 -181.258,488.847 -269.14,730.524c-13.732,27.464 -24.717,52.181 -46.688,101.614Z" style="fill:none;fill-rule:nonzero;stroke:#92c9ec;stroke-width:166.43px;"/><path d="M2431.78,8662.96c-82.39,-219.707 -156.541,-420.189 -230.692,-620.671c-24.717,-65.912 -46.687,-131.824 -71.404,-197.736c-46.688,-126.331 -90.629,-159.287 -222.453,-159.287l-711.3,0c192.243,-348.784 378.994,-672.851 549.266,-1005.16c170.273,-329.56 321.321,-670.105 483.355,-1010.65c35.702,52.181 63.165,101.615 101.614,145.556c115.346,129.077 263.648,186.75 433.92,197.736c60.419,2.746 123.585,10.985 184.004,8.239c153.795,-8.239 266.394,63.165 357.023,178.511c60.42,76.897 129.078,148.302 200.482,211.468c41.195,35.702 46.688,63.165 24.717,112.599c-173.018,370.755 -335.052,744.256 -516.31,1109.52c-164.78,324.067 -351.53,634.402 -530.042,952.977c-10.985,21.97 -27.463,41.195 -52.18,76.897" style="fill:#fff;fill-rule:nonzero;"/><path d="M2431.78,8662.96c-82.39,-219.707 -156.541,-420.189 -230.692,-620.671c-24.717,-65.912 -46.687,-131.824 -71.404,-197.736c-46.688,-126.331 -90.629,-159.287 -222.453,-159.287l-711.3,0c192.243,-348.784 378.994,-672.851 549.266,-1005.16c170.273,-329.56 321.321,-670.105 483.355,-1010.65c35.702,52.181 63.165,101.615 101.614,145.556c115.346,129.077 263.648,186.75 433.92,197.736c60.419,2.746 123.585,10.985 184.004,8.239c153.795,-8.239 266.394,63.165 357.023,178.511c60.42,76.897 129.078,148.302 200.482,211.468c41.195,35.702 46.688,63.165 24.717,112.599c-173.018,370.755 -335.052,744.256 -516.31,1109.52c-164.78,324.067 -351.53,634.402 -530.042,952.977c-10.985,21.97 -27.463,41.195 -52.18,76.897Z" style="fill:none;fill-rule:nonzero;stroke:#92c9ec;stroke-width:166.43px;"/></g></g></svg>