<?xml version="1.0" encoding="utf-8"?>
<!-- Generator: Adobe Illustrator 24.0.0, SVG Export Plug-In . SVG Version: 6.00 Build 0)  -->
<svg version="1.1" id="Livello_1" xmlns="http://www.w3.org/2000/svg" xmlns:xlink="http://www.w3.org/1999/xlink" x="0px" y="0px"
	 viewBox="0 0 133.7 133.8" style="enable-background:new 0 0 133.7 133.8;" xml:space="preserve">
<style type="text/css">
	.st0{display:none;}
	.st1{display:inline;fill:#FFFFFF;}
	.st2{clip-path:url(#SVGID_2_);fill:#1F3B71;}
	.st3{clip-path:url(#SVGID_2_);fill:#0082C2;}
</style>
<g class="st0">
	<path class="st1" d="M-268-1183.6l2.4,0.2l-2.5,30.5l19.2,1.6l-0.2,2.2l-21.7-1.8L-268-1183.6z"/>
	<path class="st1" d="M-239-1181.2l23.3,1.9l-0.2,2.2l-20.9-1.7l-1.1,12.9l18.8,1.6l-0.2,2.2l-18.8-1.6l-1.1,13.2l21.1,1.7l-0.2,2.2
		l-23.6-1.9L-239-1181.2z"/>
	<path class="st1" d="M-195-1177.6l2.3,0.2l20.3,30.4l2.4-28.5l2.3,0.2l-2.7,32.8l-1.8-0.2l-20.7-31l-2.4,29.1l-2.3-0.2L-195-1177.6
		z"/>
	<path class="st1" d="M-160.8-1158.1L-160.8-1158.1c0.7-9,8-16.5,17.9-15.7c9.9,0.8,15.8,9.3,15,18.2l0,0.1
		c-0.7,8.9-8,16.4-17.9,15.6C-155.7-1140.7-161.5-1149.2-160.8-1158.1z M-130.3-1155.6L-130.3-1155.6c0.7-8.2-4.7-15.3-12.8-16
		c-8.1-0.7-14.5,5.4-15.1,13.5l0,0.1c-0.7,8.1,4.7,15.2,12.8,15.9C-137.4-1141.4-131-1147.5-130.3-1155.6z"/>
	<path class="st1" d="M-122.8-1143.4l1.7-1.7c3.3,3.6,6.5,5.4,11.4,5.8c4.9,0.4,8.5-2.1,8.8-5.8l0-0.1c0.3-3.5-1.4-5.6-8.7-7.7
		c-7.7-2.2-10.7-5.2-10.3-10.1l0-0.1c0.4-4.9,5.2-8.2,11.3-7.7c4.8,0.4,7.8,2,10.9,4.9l-1.7,1.8c-2.9-2.9-5.9-4.2-9.5-4.5
		c-4.8-0.4-8.2,2.1-8.5,5.5l0,0.1c-0.3,3.5,1.3,5.7,9,8c7.5,2.2,10.4,5.2,10,9.9l0,0.1c-0.4,5.3-5.3,8.6-11.6,8
		C-115.2-1137.5-119.1-1139.6-122.8-1143.4z"/>
	<path class="st1" d="M-80.2-1165.8l-11.4-0.9l0.2-2.2l25.3,2.1l-0.2,2.2l-11.4-0.9l-2.5,30.5l-2.4-0.2L-80.2-1165.8z"/>
	<path class="st1" d="M-58.7-1166.3l13.8,1.1c4,0.3,7.2,1.9,9,4c1.4,1.7,2.2,4,2,6.3l0,0.1c-0.5,5.5-4.8,8.3-10.4,8.6l9.7,14.9
		l-3.1-0.3l-9.3-14.4l-10.7-0.9l-1.1,13.6l-2.4-0.2L-58.7-1166.3z M-46.6-1148.2c5.5,0.5,9.8-2,10.2-6.7l0-0.1
		c0.4-4.4-2.9-7.5-8.8-7.9l-11.2-0.9l-1.2,14.8L-46.6-1148.2z"/>
	<path class="st1" d="M-24.9-1163.5l23.3,1.9l-0.2,2.2l-20.9-1.7l-1.1,12.9l18.8,1.6l-0.2,2.2l-18.8-1.6l-1.1,13.2l21.1,1.7
		l-0.2,2.2l-23.6-1.9L-24.9-1163.5z"/>
</g>
<g class="st0">
	<path class="st1" d="M18.1-1160l13.4,1.1c7.8,0.6,12.2,5.7,11.6,12.4l0,0.1c-0.6,7.6-6.9,11-14.2,10.4l-5.5-0.5l-0.8,9.8l-7.2-0.6
		L18.1-1160z M29.7-1142.3c3.6,0.3,5.9-1.7,6.1-4.5l0-0.1c0.3-3.2-1.8-5.1-5.4-5.4l-5.6-0.5l-0.8,10L29.7-1142.3z"/>
	<path class="st1" d="M57.4-1156.9l6.7,0.5l11.3,34.2l-7.5-0.6l-2.4-7.6l-13.9-1.1l-3.6,7.1l-7.4-0.6L57.4-1156.9z M63.4-1137
		l-3.5-11l-5.2,10.3L63.4-1137z"/>
	<path class="st1" d="M83.2-1154.6l15,1.2c4.2,0.3,7.3,1.8,9.3,4.1c1.7,2,2.4,4.6,2.2,7.7l0,0.1c-0.4,5.3-3.6,8.4-7.9,9.6l7,12.4
		l-8.4-0.7l-6.2-11.1l-5.7-0.5l-0.9,10.5l-7.2-0.6L83.2-1154.6z M96.4-1137.4c3.5,0.3,5.7-1.4,5.9-4.2l0-0.1
		c0.3-3.1-1.8-4.9-5.3-5.2l-7.2-0.6l-0.8,9.4L96.4-1137.4z"/>
	<path class="st1" d="M124.1-1144.5l-10-0.8l0.5-6.7l27.2,2.2l-0.5,6.7l-10-0.8l-2.2,26.1l-7.2-0.6L124.1-1144.5z"/>
	<path class="st1" d="M147.4-1149.3l6.7,0.5l13.7,21.5l1.7-20.2l7.1,0.6l-2.7,32.8l-6.1-0.5l-14.2-22.2l-1.7,20.8l-7.1-0.6
		L147.4-1149.3z"/>
	<path class="st1" d="M184.4-1146.2l24.7,2l-0.5,6.4l-17.6-1.5l-0.5,6.7l15.5,1.3l-0.5,6.4l-15.5-1.3l-0.6,6.9l17.8,1.5l-0.5,6.4
		l-25-2.1L184.4-1146.2z"/>
	<path class="st1" d="M215.8-1143.6l15,1.2c4.2,0.3,7.3,1.8,9.3,4.1c1.7,2,2.4,4.6,2.2,7.7l0,0.1c-0.4,5.3-3.6,8.4-7.9,9.6l7,12.4
		l-8.4-0.7l-6.2-11.1l-5.7-0.5l-0.9,10.5l-7.2-0.6L215.8-1143.6z M229-1126.5c3.5,0.3,5.7-1.4,5.9-4.2l0-0.1
		c0.3-3.1-1.8-4.9-5.3-5.2l-7.2-0.6l-0.8,9.4L229-1126.5z"/>
	<path class="st1" d="M245.1-1113l4.7-4.8c2.7,2.7,5.7,4.5,9.5,4.8c3,0.2,4.8-0.8,5-2.7l0-0.1c0.2-1.8-0.9-2.9-6.3-4.7
		c-6.5-2.2-10.6-4.4-10-10.9l0-0.1c0.5-5.9,5.6-9.5,12.3-8.9c4.8,0.4,8.7,2.2,11.8,5.2l-4.2,5.1c-2.7-2.3-5.5-3.7-8.3-3.9
		c-2.8-0.2-4.3,0.9-4.5,2.5l0,0.1c-0.2,2.2,1.2,3,6.7,4.9c6.5,2.3,10.1,5,9.6,10.7l0,0.1c-0.5,6.5-5.8,9.8-12.9,9.2
		C253.6-1107,248.7-1109.2,245.1-1113z"/>
	<path class="st1" d="M279.6-1138.3l7.2,0.6l-1.1,13l13.3,1.1l1.1-13l7.2,0.6l-2.7,32.8l-7.2-0.6l1.1-13.2l-13.3-1.1l-1.1,13.2
		l-7.2-0.6L279.6-1138.3z"/>
	<path class="st1" d="M315.5-1135.4l7.2,0.6L320-1102l-7.2-0.6L315.5-1135.4z"/>
	<path class="st1" d="M330.9-1134.1l13.4,1.1c7.8,0.6,12.2,5.7,11.6,12.4l0,0.1c-0.6,7.6-6.9,11-14.2,10.4l-5.5-0.5l-0.8,9.8
		l-7.2-0.6L330.9-1134.1z M342.5-1116.5c3.6,0.3,5.9-1.7,6.1-4.5l0-0.1c0.3-3.2-1.8-5.2-5.4-5.4l-5.6-0.5l-0.8,10L342.5-1116.5z"/>
</g>
<g class="st0">
	<path class="st1" d="M-502-1423.6l2.4-0.3l4.3,30.3l19.1-2.7l0.3,2.2l-21.5,3L-502-1423.6z"/>
	<path class="st1" d="M-473.2-1427.6l23.2-3.3l0.3,2.2l-20.8,2.9l1.8,12.8l18.7-2.6l0.3,2.2l-18.7,2.6l1.8,13.1l21-3l0.3,2.2
		l-23.4,3.3L-473.2-1427.6z"/>
	<path class="st1" d="M-428.1-1434l2.3-0.3l26.5,25.2l-4-28.3l2.3-0.3l4.6,32.6l-1.8,0.3l-27-25.7l4.1,28.9l-2.3,0.3L-428.1-1434z"
		/>
	<path class="st1" d="M-390.5-1422.5L-390.5-1422.5c-1.3-9,4.2-17.9,14-19.2c9.9-1.4,17.4,5.6,18.7,14.5l0,0.1
		c1.2,8.9-4.2,17.8-14.1,19.2C-381.6-1406.7-389.2-1413.7-390.5-1422.5z M-360.2-1426.8L-360.2-1426.8c-1.1-8.1-7.9-13.9-16-12.8
		c-8.1,1.1-12.9,8.5-11.8,16.5l0,0.1c1.1,8.1,7.9,13.8,16,12.7C-363.9-1411.4-359.1-1418.7-360.2-1426.8z"/>
	<path class="st1" d="M-350.1-1416.5l1.3-2c4,2.8,7.6,3.9,12.4,3.2c4.9-0.7,7.9-3.9,7.3-7.6l0-0.1c-0.5-3.4-2.6-5.2-10.2-5.6
		c-8-0.5-11.6-2.7-12.3-7.6l0-0.1c-0.7-4.8,3.2-9.2,9.3-10c4.7-0.7,8,0.2,11.7,2.4l-1.3,2.1c-3.4-2.2-6.7-2.8-10.2-2.3
		c-4.8,0.7-7.6,3.9-7.1,7.3l0,0.1c0.5,3.4,2.5,5.3,10.5,5.8c7.8,0.5,11.3,2.7,12,7.5l0,0.1c0.7,5.3-3.3,9.5-9.5,10.4
		C-341.5-1412.4-345.7-1413.6-350.1-1416.5z"/>
	<path class="st1" d="M-313.5-1447.8l-11.4,1.6l-0.3-2.2l25.1-3.5l0.3,2.2l-11.4,1.6l4.3,30.3l-2.4,0.3L-313.5-1447.8z"/>
	<path class="st1" d="M-292.6-1453l13.7-1.9c4-0.6,7.4,0.2,9.6,1.9c1.8,1.3,3,3.4,3.3,5.7l0,0.1c0.8,5.4-2.8,9.1-8.2,10.6l12.7,12.4
		l-3.1,0.4l-12.3-12l-10.7,1.5l1.9,13.5l-2.4,0.3L-292.6-1453z M-276.9-1438c5.4-0.8,9.1-4.1,8.4-8.8l0-0.1
		c-0.6-4.4-4.4-6.6-10.4-5.8l-11.1,1.6l2.1,14.7L-276.9-1438z"/>
	<path class="st1" d="M-259-1457.7l23.2-3.3l0.3,2.2l-20.8,2.9l1.8,12.8l18.7-2.6l0.3,2.2l-18.7,2.6l1.8,13.1l21-2.9l0.3,2.2
		l-23.4,3.3L-259-1457.7z"/>
</g>
<g class="st0">
	<path class="st1" d="M-213.2-1435.8l3.5-5.7c3.3,2,6.6,3.1,10.3,2.6c2.9-0.4,4.5-1.8,4.3-3.7l0-0.1c-0.3-1.8-1.5-2.6-7.1-3.2
		c-6.8-0.8-11.3-2-12.2-8.4l0-0.1c-0.8-5.9,3.4-10.5,10-11.4c4.7-0.7,9,0.3,12.7,2.4l-3,5.9c-3.2-1.6-6.2-2.4-8.9-2
		c-2.7,0.4-4,1.8-3.8,3.4l0,0.1c0.3,2.1,1.8,2.6,7.6,3.3c6.9,0.8,10.9,2.6,11.7,8.3l0,0.1c0.9,6.5-3.5,10.8-10.5,11.8
		C-203.6-1431.8-208.8-1432.8-213.2-1435.8z"/>
	<path class="st1" d="M-184.2-1451.5L-184.2-1451.5c-1.3-9.4,4.9-18,15-19.4c10.1-1.4,18.3,5.1,19.6,14.3l0,0.1
		c1.3,9.3-4.9,17.9-15,19.3C-174.7-1435.8-182.9-1442.3-184.2-1451.5z M-157.1-1455.3L-157.1-1455.3c-0.8-5.7-5.5-9.8-11.3-8.9
		c-5.8,0.8-9.1,5.9-8.3,11.5l0,0.1c0.8,5.6,5.5,9.7,11.3,8.9C-159.7-1444.6-156.3-1449.8-157.1-1455.3z"/>
	<path class="st1" d="M-145.5-1473.7l7.2-1l3.7,26.1l16.2-2.3l0.9,6.5l-23.4,3.3L-145.5-1473.7z"/>
	<path class="st1" d="M-115.5-1458.9l-2.6-18.6l7.2-1l2.6,18.4c0.7,5.3,3.8,7.7,8.2,7.1c4.4-0.6,6.7-3.6,5.9-8.8l-2.6-18.7l7.2-1
		l2.6,18.4c1.4,9.9-3.5,15.5-12.2,16.7C-108.1-1445.2-114.1-1449.3-115.5-1458.9z"/>
	<path class="st1" d="M-79.6-1455.3l15-23.4l-17.4,2.4l-0.9-6.3l26.6-3.7l0.8,5.4l-15,23.4l17.9-2.5l0.9,6.3l-27.1,3.8L-79.6-1455.3
		z"/>
	<path class="st1" d="M-49.1-1487.2l7.2-1l4.6,32.6l-7.2,1L-49.1-1487.2z"/>
	<path class="st1" d="M-33-1472.8L-33-1472.8c-1.3-9.4,4.9-18,15-19.4s18.3,5.1,19.6,14.3l0,0.1c1.3,9.3-4.9,17.9-15,19.3
		S-31.7-1463.5-33-1472.8z M-5.8-1476.6L-5.8-1476.6c-0.8-5.7-5.5-9.8-11.3-8.9c-5.8,0.8-9.1,5.9-8.3,11.5l0,0.1
		c0.8,5.6,5.5,9.7,11.3,8.9C-8.4-1465.9-5-1471-5.8-1476.6z"/>
	<path class="st1" d="M5.7-1494.9l6.6-0.9l18.1,17.9l-2.8-20.1l7.1-1l4.6,32.6l-6.1,0.9l-18.7-18.5l2.9,20.7l-7.1,1L5.7-1494.9z"/>
	<path class="st1" d="M42.8-1500.1l7.2-1l4.6,32.6l-7.2,1L42.8-1500.1z"/>
	<path class="st1" d="M72.4-1504.3l7.2-1l4.6,32.6l-7.2,1L72.4-1504.3z"/>
	<path class="st1" d="M87.7-1506.5l6.6-0.9l18.1,17.9l-2.8-20.1l7.1-1l4.6,32.6l-6.1,0.9l-18.7-18.5l2.9,20.7l-7.1,1L87.7-1506.5z"
		/>
	<path class="st1" d="M139.3-1497L139.3-1497c-1.3-9.4,4.6-17.9,14.6-19.3c6.1-0.9,10.1,0.7,13.6,3.2l-3.8,5.9
		c-2.8-1.9-5.6-3-8.8-2.5c-5.5,0.8-8.8,5.9-8,11.5l0,0.1c0.8,5.6,5.3,9.7,10.9,8.9c3.7-0.5,5.8-2.3,8-5l5.2,4
		c-2.8,4.1-6.3,6.8-12.5,7.7C148.8-1481.2,140.6-1487.6,139.3-1497z"/>
	<path class="st1" d="M172.8-1518.4l7.2-1l3.7,26.1l16.2-2.3l0.9,6.5l-23.4,3.3L172.8-1518.4z"/>
	<path class="st1" d="M200.7-1505.6L200.7-1505.6c-1.3-9.4,4.9-18,15-19.4s18.3,5.1,19.6,14.3l0,0.1c1.3,9.3-4.9,17.9-15,19.3
		C210.2-1489.9,202-1496.4,200.7-1505.6z M227.8-1509.4L227.8-1509.4c-0.8-5.7-5.5-9.8-11.3-8.9c-5.8,0.8-9.1,5.9-8.3,11.5l0,0.1
		c0.8,5.6,5.5,9.7,11.3,8.9C225.2-1498.7,228.6-1503.9,227.8-1509.4z"/>
	<path class="st1" d="M241.5-1509.1l-2.6-18.6l7.2-1l2.6,18.4c0.7,5.3,3.8,7.7,8.2,7.1s6.7-3.6,5.9-8.8l-2.6-18.7l7.2-1l2.6,18.4
		c1.4,9.9-3.5,15.5-12.2,16.7S242.8-1499.5,241.5-1509.1z"/>
	<path class="st1" d="M274.6-1532.7l12.7-1.8c10.2-1.4,18.3,4.6,19.6,13.8l0,0.1c1.3,9.2-4.8,17.3-15,18.7l-12.7,1.8L274.6-1532.7z
		 M290.9-1508.4c5.9-0.8,9.3-5.3,8.5-11.1l0-0.1c-0.8-5.8-5.3-9.3-11.2-8.4l-5.5,0.8l2.8,19.6L290.9-1508.4z"/>
</g>
<g>
	<defs>
		<rect id="SVGID_1_" width="133.7" height="133.8"/>
	</defs>
	<clipPath id="SVGID_2_">
		<use xlink:href="#SVGID_1_"  style="overflow:visible;"/>
	</clipPath>
	<path class="st2" d="M95.8,64.9c6.3,0,11.4-5,11.4-11.2c0-6.1-5.1-11.4-11.3-11.4c-6.1,0-11.2,5.1-11.3,11.1
		C84.6,59.7,89.6,64.8,95.8,64.9 M37.6,64.9c6.3,0,11.3-5,11.3-11.3c0-6.2-5.2-11.4-11.3-11.3c-6.1,0.1-11.2,5.1-11.2,11.2
		C26.3,59.7,31.4,64.8,37.6,64.9 M87,65.5c3,4.2,4.8,8.9,5,14c0.1,3.6,0,7.2,0,10.7c0,2.3,0,4.7,0,7.1c0.4,0.1,0.7,0.1,0.9,0.1
		c4.9,0,9.9,0.1,14.8,0c3.5-0.1,5.5-2.2,5.5-5.6c0.1-3.8,0.1-7.6,0-11.3c-0.2-6.7-3-11.9-8.8-15.4c-0.9-0.6-1.6-0.6-2.6-0.1
		c-3.9,2-7.9,2-11.8,0C88.8,64.4,87.9,64.5,87,65.5 M46.9,65.5c-1.8-1.1-1.8-1.2-2.9-0.6c-4.2,2.2-8.4,2.1-12.6,0
		c-0.5-0.2-1.3-0.2-1.8,0c-5,2.8-8.3,7-8.9,12.7c-0.5,4.5-0.3,9.1-0.3,13.7c0,4.1,2,6.1,6.1,6.1c4.5,0,9,0,13.5,0
		c0.5,0,1-0.1,1.8-0.1v-2.1c0-4.6,0-9.2,0-13.8c0-1.9,0.2-3.8,0.5-5.6C43,72.1,44.7,68.7,46.9,65.5 M66.9,60.4
		c8.4,0,15.3-6.9,15.3-15.3c0-8.4-7.1-15.3-15.4-15.3c-8.4,0.1-15.3,7-15.3,15.4C51.5,53.6,58.4,60.4,66.9,60.4 M12.1,28.7
		c-15,20.6-17.3,52.1,0.1,76.9c16.7,23.7,51.2,37.4,85,21c1.5,2,3,4,4.6,6.2c3.2-7.2,6.3-14.2,9.4-21.4c-7.8,0.8-15.4,1.7-23.2,2.5
		c1.6,2.2,3,4.1,4.3,6c-18.5,9.6-44.9,8.2-64-8.3C18.3,103,11.7,92.1,9,79.1C5.6,62.5,8.9,47.2,18.3,33
		C16.2,31.5,14.1,30.1,12.1,28.7 M41.2,13.8C60.9,3.7,88.7,6,108,24.5c18.5,17.8,25.3,49.5,7.3,76.3c2.1,1.4,4.1,2.9,6.2,4.3
		c15-20.8,17-51.5,0.7-75.6c-8.2-12.1-19.2-20.8-33-25.6c-18-6.3-35.6-5-52.8,3.3c-1.5-2.1-3-4.1-4.6-6.3
		c-3.2,7.2-6.3,14.2-9.5,21.4c7.8-0.8,15.4-1.7,23.2-2.5C44,17.7,42.6,15.8,41.2,13.8 M57.2,59.3c-7.7,3.9-12.6,10-13.4,18.8
		c-0.6,6.2-0.3,12.5-0.3,18.8c0,2.3,1,4.2,2.8,5.6c1.6,1.3,3.5,1.6,5.5,1.6c10.1,0,20.1,0,30.2,0c0.6,0,1.2,0,1.8-0.1
		c3.9-0.5,6.5-3.4,6.5-7.3c0-5.7,0.2-11.4,0-17c-0.5-9-4.9-15.7-12.8-19.9c-0.5-0.3-1.3-0.3-1.8,0C69.4,63.2,63.4,62.9,57.2,59.3"/>
	<path class="st3" d="M57.2,59.3c6.1,3.6,12.2,3.9,18.4,0.4c0.5-0.3,1.3-0.2,1.8,0c8,4.3,12.4,10.9,12.8,19.9c0.3,5.7,0.1,11.3,0,17
		c0,3.9-2.6,6.8-6.5,7.3c-0.6,0.1-1.2,0.1-1.8,0.1c-10.1,0-20.1,0-30.2,0c-2,0-3.9-0.3-5.5-1.6c-1.8-1.4-2.8-3.4-2.8-5.6
		c0-6.3-0.3-12.6,0.3-18.8C44.6,69.3,49.6,63.2,57.2,59.3"/>
	<path class="st3" d="M41.2,13.8c1.4,2,2.8,3.9,4.3,6c-7.8,0.8-15.4,1.7-23.2,2.5c3.2-7.2,6.3-14.2,9.5-21.4
		c1.6,2.2,3.1,4.2,4.6,6.3C53.6-1,71.2-2.4,89.2,3.9c13.8,4.8,24.8,13.5,33,25.6c16.3,24.1,14.3,54.8-0.7,75.6
		c-2.1-1.4-4.1-2.9-6.2-4.3c18-26.7,11.1-58.5-7.3-76.3C88.7,6,60.9,3.7,41.2,13.8"/>
	<path class="st2" d="M12.1,28.7c2,1.4,4,2.8,6.2,4.3C8.9,47.2,5.6,62.5,9,79.1c2.7,13,9.2,23.9,19.3,32.6
		c19.1,16.5,45.5,17.8,64,8.3c-1.4-1.9-2.8-3.8-4.3-6c7.8-0.8,15.4-1.7,23.2-2.5c-3.2,7.2-6.2,14.1-9.4,21.4
		c-1.6-2.2-3.1-4.2-4.6-6.2c-33.7,16.3-68.3,2.7-85-21C-5.2,80.8-2.9,49.2,12.1,28.7"/>
	<path class="st3" d="M66.9,60.4c-8.5,0-15.4-6.8-15.4-15.2c0-8.4,6.8-15.3,15.3-15.4c8.4-0.1,15.4,6.9,15.4,15.3
		C82.2,53.5,75.3,60.4,66.9,60.4"/>
	<path class="st2" d="M46.9,65.5c-2.2,3.2-3.9,6.6-4.6,10.4c-0.3,1.9-0.5,3.7-0.5,5.6c-0.1,4.6,0,9.2,0,13.8v2.1
		c-0.7,0.1-1.2,0.1-1.8,0.1c-4.5,0-9,0-13.5,0c-4.1,0-6.1-2.1-6.1-6.1c0-4.6-0.1-9.2,0.3-13.7c0.6-5.7,3.9-9.9,8.9-12.7
		c0.5-0.3,1.3-0.3,1.8,0c4.2,2.1,8.4,2.2,12.6,0C45,64.4,45.1,64.4,46.9,65.5"/>
	<path class="st2" d="M87,65.5c1-1.1,1.8-1.1,3.1-0.5c3.9,2,7.9,2,11.8,0c1-0.5,1.7-0.5,2.6,0.1c5.8,3.5,8.6,8.7,8.8,15.4
		c0.1,3.8,0.1,7.6,0,11.3c-0.1,3.5-2.1,5.6-5.5,5.6c-4.9,0.1-9.9,0-14.8,0c-0.3,0-0.5-0.1-0.9-0.1c0-2.4,0-4.7,0-7.1
		c0-3.6,0.1-7.2,0-10.7C91.8,74.4,90,69.7,87,65.5"/>
	<path class="st2" d="M37.6,64.9c-6.2,0-11.3-5.1-11.3-11.3c0.1-6.1,5.1-11.2,11.2-11.2C43.8,42.2,49,47.4,49,53.6
		C49,59.8,43.9,64.9,37.6,64.9"/>
	<path class="st2" d="M95.8,64.9c-6.2,0-11.2-5.1-11.2-11.4c0.1-6.1,5.2-11.2,11.3-11.1c6.2,0,11.3,5.2,11.3,11.4
		C107.2,59.9,102.1,64.9,95.8,64.9"/>
</g>
</svg>
