<?xml version="1.0" encoding="utf-8"?>
<!-- Generator: Adobe Illustrator 24.0.0, SVG Export Plug-In . SVG Version: 6.00 Build 0)  -->
<svg version="1.1" id="Livello_1" xmlns="http://www.w3.org/2000/svg" xmlns:xlink="http://www.w3.org/1999/xlink" x="0px" y="0px"
	 viewBox="0 0 300.1 271.4" style="enable-background:new 0 0 300.1 271.4;" xml:space="preserve">
<style type="text/css">
	.st0{fill:#FFFFFF;}
</style>
<g>
	<path class="st0" d="M150.1,271.4C150.1,271.4,150.1,271.3,150.1,271.4c0.8,0,1.7,0,2.5,0c33.2,0,66.4,0.1,99.5,0
		c2.6,0,5.4-0.6,7.8-1.7c8.4-3.8,12.3-10.7,12.3-19.8c0-32.3,0-64.6,0-96.8c0-3.9,0.1-7.8,0-11.7c-0.1-4-2.8-6.6-6.7-6.3
		c-3.3,0.3-5.4,2.9-5.4,6.6c0,26.2,0,52.3,0,78.5c0,10.1,0,20.2,0,30.2c0,5.5-3.5,8.9-8.9,8.9c-37.6,0-75.1,0-112.7,0
		c-30.1,0-60.1,0-90.2,0c-4.9,0-8.4-3.4-8.6-8.3c0-1.4,0-2.8,0-4.1c0-34.6,0-69.2,0-103.8c0-3.7-2.7-6.5-6.1-6.4
		c-3.3,0-5.9,2.8-6,6.4c0,1.6,0,3.2,0,4.9c0,34.3-0.1,68.5,0,102.8c0,11.9,9.1,20.8,20.7,20.8c32.8,0,65.6,0,98.5,0
		C148,271.4,149.1,271.4,150.1,271.4z M150.7,0c-7.2,0.2-13.5,2.8-18.7,8c-20.5,20.4-41,41-61.4,61.4C54,86,37.4,102.5,20.8,119.1
		c-6.2,6.2-12.5,12.5-18.7,18.7c-1.7,1.7-2.5,3.6-1.9,6c1.4,4.9,6.9,6.1,10.7,2.3C34,123,57.2,99.8,80.4,76.6
		c10.9-10.9,21.9-21.9,32.8-32.8c8.9-8.9,17.8-17.9,26.8-26.7c1.6-1.6,3.6-2.9,5.6-3.8c4.6-1.9,9-1.7,12.8,2
		c1.1,1.1,2.4,2.1,3.5,3.3c6.2,6.3,12.4,12.6,18.6,18.8c15.1,15.2,30.3,30.4,45.5,45.5c10.9,10.9,21.7,21.7,32.6,32.5
		c8,8,15.9,15.9,23.9,23.9c2.5,2.5,5,5.1,7.5,7.5c2.4,2.3,6.2,2.1,8.5-0.1c2.3-2.3,2.3-5.9,0.1-8.4c-0.6-0.7-1.2-1.3-1.9-1.9
		C275.3,115.1,254,94,232.8,72.8c-8.3-8.3-16.5-16.6-24.7-24.9c-13.8-13.8-27.6-27.6-41.3-41.4C162.3,2.1,156.9,0.2,150.7,0z"/>
	<path d="M150.1,271.4c-1.1,0-2.1,0-3.2,0c-32.8,0-65.6,0-98.5,0c-11.6,0-20.7-9-20.7-20.8c-0.1-34.3,0-68.5,0-102.8
		c0-1.6,0-3.2,0-4.9c0.1-3.6,2.7-6.3,6-6.4c3.4,0,6.1,2.8,6.1,6.4c0,34.6,0,69.2,0,103.8c0,1.4,0,2.8,0,4.1c0.2,4.9,3.7,8.3,8.6,8.3
		c30.1,0,60.1,0,90.2,0c37.6,0,75.1,0,112.7,0c5.4,0,8.9-3.4,8.9-8.9c0-10.1,0-20.2,0-30.2c0-26.2,0-52.3,0-78.5
		c0-3.8,2.1-6.4,5.4-6.6c3.9-0.3,6.6,2.3,6.7,6.3c0.1,3.9,0,7.8,0,11.7c0,32.3,0,64.6,0,96.8c0,9.1-3.9,16-12.3,19.8
		c-2.4,1.1-5.2,1.7-7.8,1.7c-33.2,0.1-66.4,0-99.5,0C151.8,271.3,151,271.3,150.1,271.4C150.1,271.3,150.1,271.4,150.1,271.4z"/>
	<path d="M150.7,0c6.2,0.2,11.7,2.1,16.1,6.6c13.8,13.8,27.6,27.6,41.3,41.4c8.3,8.3,16.5,16.6,24.7,24.9
		c21.2,21.2,42.5,42.4,63.7,63.5c0.6,0.6,1.3,1.3,1.9,1.9c2.3,2.5,2.3,6.2-0.1,8.4c-2.3,2.2-6.1,2.4-8.5,0.1c-2.6-2.4-5-5-7.5-7.5
		c-8-8-15.9-15.9-23.9-23.9c-10.9-10.9-21.7-21.7-32.6-32.5c-15.2-15.2-30.3-30.3-45.5-45.5c-6.2-6.2-12.4-12.6-18.6-18.8
		c-1.1-1.1-2.3-2.2-3.5-3.3c-3.8-3.7-8.3-3.9-12.8-2c-2,0.9-4,2.2-5.6,3.8c-9,8.8-17.8,17.8-26.8,26.7
		c-10.9,10.9-21.9,21.9-32.8,32.8C57.2,99.8,34,123,10.9,146.2c-3.8,3.8-9.3,2.6-10.7-2.3c-0.7-2.4,0.2-4.3,1.9-6
		c6.2-6.2,12.5-12.5,18.7-18.7C37.4,102.5,54,86,70.5,69.4C91,48.9,111.5,28.4,132,8C137.1,2.8,143.4,0.2,150.7,0z"/>
</g>
</svg>
