<?xml version="1.0" encoding="utf-8"?>
<!-- Generator: Adobe Illustrator 24.0.0, SVG Export Plug-In . SVG Version: 6.00 Build 0)  -->
<svg version="1.1" id="Livello_1" xmlns="http://www.w3.org/2000/svg" xmlns:xlink="http://www.w3.org/1999/xlink" x="0px" y="0px"
	 viewBox="0 0 122.6 90.8" style="enable-background:new 0 0 122.6 90.8;" xml:space="preserve">
<style type="text/css">
	.st0{clip-path:url(#SVGID_2_);fill:#1F3B71;}
	.st1{clip-path:url(#SVGID_2_);fill:#0082C2;}
</style>
<g>
	<defs>
		<rect id="SVGID_1_" width="122.6" height="90.8"/>
	</defs>
	<clipPath id="SVGID_2_">
		<use xlink:href="#SVGID_1_"  style="overflow:visible;"/>
	</clipPath>
	<path class="st0" d="M117.5,41.8c0-20.3-16.6-36.7-37.2-36.7C59.8,5,43,21.5,43,41.7c0,20.2,16.7,36.8,37.2,36.8
		C100.8,78.4,117.5,62,117.5,41.8 M41.6,71.7c-3.3,1.9-6.5,3.7-9.7,5.5c-7.6,4.3-15.3,8.7-22.9,13c-1.9,1.1-3.9,0.6-5-1.2
		c-1.2-2-2.4-4-3.5-6c-1-1.8-0.4-3.8,1.5-4.9c5.1-2.9,10.1-5.8,15.2-8.6c5.6-3.2,11.2-6.4,16.9-9.6c0.4-0.2,0.5-0.4,0.3-0.8
		c-0.3-0.4-0.5-0.9-0.8-1.3c-0.7-1.2-0.4-2.4,0.8-3.1c1.5-0.8,3-1.6,4.5-2.4c0.2-0.1,0.3-0.5,0.2-0.7c-0.2-1.3-0.6-2.6-0.7-3.9
		c-1-7.1-0.3-14,2.3-20.7c2.2-5.6,5.4-10.6,9.8-14.8C56.2,6.5,63.1,2.8,71.1,1c7.3-1.6,14.5-1.3,21.6,0.8
		c7.4,2.2,13.7,6.2,18.9,11.8c4.3,4.7,7.4,10,9.3,16.1c1.2,3.8,1.8,7.6,1.8,11.6c0.1,8.3-2.1,16-6.7,23c-3.5,5.4-8,9.7-13.5,13.1
		c-5.1,3.1-10.7,5.1-16.7,5.8c-6.1,0.8-12,0.3-17.9-1.5c-5.6-1.7-10.6-4.4-15-8.1c-0.7-0.6-1.3-1.1-1.9-1.7c-0.3-0.3-0.5-0.2-0.8,0
		c-1.5,1-3.1,1.9-4.7,2.8c-0.9,0.5-2,0-2.6-1C42.4,72.9,42,72.3,41.6,71.7"/>
	<path class="st1" d="M85.1,15.4c-0.1,2.6-1,4.6-2.3,6.5c-2.1,3-4.8,5.3-8.2,6.7c-1.6,0.6-3.3,0.9-5,0.5c-1.9-0.5-3.8-2.3-3.8-4.5
		c0-1.1,0.3-2.2,0.5-3.3c0.1-0.4,0.1-0.6-0.2-0.9c-0.7-0.6-1.4-1.3-2-1.9C63.8,18.1,63.5,18,63,18c-3,0.6-5.9-2.2-5.1-5.6
		c0.8-3,2.5-5.3,4.9-7.3C64.3,3.9,66,3,68,2.7c2.1-0.4,3.7,0.3,4.9,2c0.6,0.9,0.8,1.9,0.6,3c-0.1,0.5,0,0.9,0.4,1.2
		C74,8.9,74.1,8.9,74.1,9c0.7,0.6,1.2,1.6,2,1.9c0.7,0.2,1.7-0.2,2.6-0.4C82.2,9.9,85.2,12.6,85.1,15.4"/>
	<path class="st1" d="M53.3,58.3c14.5,3.4,29,6.8,43.4,10.1c3.3-6.1,9.8-32.9,10.2-41.9c-6.7-1.6-13.4-3.1-20.1-4.7
		c0.4-0.9,0.7-1.7,1.1-2.6c1.6,0.4,3.2,0.7,4.8,1.1c5.6,1.3,11.2,2.6,16.7,3.9c0.5,0.1,0.7,0.3,0.6,0.8c-0.7,4.5-1.1,9-2,13.5
		c-1,5.2-2.2,10.4-3.6,15.6c-1.5,5.7-3.4,11.3-5.5,16.9c-0.1,0.3-0.2,0.5-0.3,0.8c-16.3-3.8-32.6-7.6-48.9-11.4
		c4.9-12.7,8.4-25.8,10.4-39.2c0.8,0.1,1.4,0.1,2.1,0.2c0.5,0,0.7,0.3,0.6,0.8c-1.4,9.1-3.4,18-6.2,26.8c-0.9,2.9-2,5.7-3,8.6
		C53.5,57.7,53.4,58,53.3,58.3"/>
	<path class="st1" d="M82.6,45.3c0.6,0.1,1.1,0.2,1.6,0.3c0.7,0.1,1.2-0.2,1.4-0.8c0.3-0.8,0.4-1.7,0.6-2.6c0.1-0.5-0.2-0.9-0.7-1.1
		c-0.5-0.2-1.1-0.3-1.7-0.4C83.4,42.3,83,43.7,82.6,45.3 M82,47.8c-0.4,1.9-0.9,3.6-1.3,5.4c0.7,0.1,1.3,0.3,1.8,0.4
		c0.7,0.1,1.2-0.1,1.4-0.7c0.3-1,0.6-2.1,0.7-3.1c0.1-0.6-0.2-1.1-0.7-1.3C83.4,48.1,82.7,47.9,82,47.8 M81.6,37.6
		c1.5,0.4,3,0.7,4.5,1.1c2.5,0.7,3.4,2,3,4.5c-0.1,0.6-0.3,1.3-0.5,1.9c-0.4,1.1-1.1,1.9-2.3,2.2c1.6,1.2,1.5,2.8,1.1,4.4
		c-0.1,0.4-0.2,0.8-0.3,1.2c-0.7,2.7-2.3,3.7-5.1,3.2c-1.5-0.3-2.9-0.7-4.5-1C78.8,49.2,80.2,43.4,81.6,37.6"/>
	<path class="st1" d="M70.8,49.6c0,1,0.4,1.5,1.3,1.7c0.7,0.1,1.3-0.1,1.5-0.9c0.3-0.8,0.4-1.5,0.6-2.3c0.6-2.6,1.3-5.2,1.9-7.7
		c0.2-1,0-1.6-0.8-1.9c-1.1-0.4-1.8,0.1-2.1,1.4c-0.6,2.5-1.2,5.1-1.8,7.6C71.1,48.3,70.9,49.1,70.8,49.6 M74.4,35.7
		c0.6,0.1,1.3,0.2,1.9,0.4c2,0.7,3,2.3,2.6,4.4c-0.6,2.8-1.3,5.7-2,8.5c-0.2,0.8-0.4,1.6-0.6,2.3c-0.8,2.2-2.7,3-5.1,2.3
		c-2.3-0.7-3.5-2.3-3.1-4.6c0.7-3.4,1.5-6.8,2.4-10.1C71,36.8,72.4,35.8,74.4,35.7"/>
	<path class="st1" d="M98.6,46.5c-1.1-0.3-1.9-0.5-2.8-0.7c0.1-0.4,0.2-0.8,0.2-1.1c0.1-0.9-0.2-1.4-1-1.7c-0.8-0.2-1.3,0.1-1.7,0.9
		c-0.4,1.1-0.3,2.1,0.2,3.1c0.6,1,1.2,1.9,1.8,2.9c1.4,2.1,1.5,4.3,0.5,6.5c-0.5,1.1-1.4,1.8-2.7,2c-3.3,0.6-5.7-1.7-5.1-5
		c0.1-0.5,0.2-1,0.3-1.5c0.9,0.2,1.7,0.4,2.6,0.6c-0.1,0.6-0.3,1.1-0.3,1.7c-0.1,1.1,0.5,1.6,1.6,1.6c0.7,0,1.1-0.4,1.3-1
		c0.4-1.1,0.2-2.1-0.3-3.1c-0.5-0.8-1-1.6-1.6-2.4c-1.4-2.1-1.9-4.3-0.8-6.7c0.8-1.7,2.1-2.4,4-2.3c2.1,0.2,3.7,1.3,3.9,3
		C98.7,44.5,98.6,45.4,98.6,46.5"/>
	<path class="st1" d="M66.9,34.1c1,0.2,1.8,0.4,2.8,0.7c-0.4,1.5-0.7,3-1.1,4.5c-0.7,2.9-1.4,5.8-2.1,8.7c-0.2,0.7-0.4,1.3-0.8,2
		c-0.6,1.1-1.6,1.7-2.9,1.6c-1.1-0.1-2.1-0.4-3.2-0.6c0.2-0.9,0.4-1.7,0.6-2.5c0.5,0.1,1,0.3,1.5,0.4c1.1,0.2,1.7-0.1,2-1.2
		c0.6-2.5,1.2-5,1.8-7.5C65.9,38.1,66.4,36.1,66.9,34.1"/>
	<path class="st1" d="M81.4,28.4c1-0.9,1.8-1.6,2.6-2.3c1,0.9,2.1,2,3.2,3.1c0.5,0.4,0.4,0.8,0.2,1.2c-0.4,0.9-1.2,1.3-2.1,1.6
		c-0.1,0-0.3,0-0.4-0.1C83.8,30.7,82.6,29.5,81.4,28.4"/>
</g>
</svg>
