<?xml version="1.0" encoding="utf-8"?>
<!-- Generator: Adobe Illustrator 24.0.0, SVG Export Plug-In . SVG Version: 6.00 Build 0)  -->
<svg version="1.1" id="Livello_1" xmlns="http://www.w3.org/2000/svg" xmlns:xlink="http://www.w3.org/1999/xlink" x="0px" y="0px"
	 viewBox="0 0 125.9 129.2" style="enable-background:new 0 0 125.9 129.2;" xml:space="preserve">
<style type="text/css">
	.st0{display:none;}
	.st1{display:inline;fill:#FFFFFF;}
	.st2{clip-path:url(#SVGID_2_);fill:none;stroke:#1F3B71;stroke-width:8.046;stroke-miterlimit:10;}
	.st3{clip-path:url(#SVGID_2_);fill:#0082C2;}
	.st4{clip-path:url(#SVGID_2_);fill:#FFFFFF;}
</style>
<g class="st0">
	<path class="st1" d="M-272.4-1190l2.4,0.2l-2.5,30.5l19.2,1.6l-0.2,2.2l-21.7-1.8L-272.4-1190z"/>
	<path class="st1" d="M-243.4-1187.6l23.3,1.9l-0.2,2.2l-20.9-1.7l-1.1,12.9l18.8,1.6l-0.2,2.2l-18.8-1.6l-1.1,13.2l21.1,1.7
		l-0.2,2.2l-23.6-1.9L-243.4-1187.6z"/>
	<path class="st1" d="M-199.3-1183.9l2.3,0.2l20.3,30.4l2.4-28.5l2.3,0.2l-2.7,32.8l-1.8-0.2l-20.7-31l-2.4,29.1l-2.3-0.2
		L-199.3-1183.9z"/>
	<path class="st1" d="M-165.1-1164.5L-165.1-1164.5c0.7-9,8-16.5,17.9-15.7c9.9,0.8,15.8,9.3,15,18.2l0,0.1
		c-0.7,8.9-8,16.4-17.9,15.6C-160-1147.1-165.9-1155.6-165.1-1164.5z M-134.7-1162L-134.7-1162c0.7-8.2-4.7-15.3-12.8-16
		c-8.1-0.7-14.5,5.4-15.1,13.5l0,0.1c-0.7,8.1,4.7,15.2,12.8,15.9C-141.7-1147.8-135.4-1153.9-134.7-1162z"/>
	<path class="st1" d="M-127.1-1149.8l1.7-1.7c3.3,3.6,6.5,5.4,11.4,5.8c4.9,0.4,8.5-2.1,8.8-5.8l0-0.1c0.3-3.5-1.4-5.6-8.7-7.7
		c-7.7-2.2-10.7-5.2-10.3-10.1l0-0.1c0.4-4.9,5.2-8.2,11.3-7.7c4.8,0.4,7.8,2,10.9,4.9l-1.7,1.8c-2.9-2.9-5.9-4.2-9.5-4.5
		c-4.8-0.4-8.2,2.1-8.5,5.5l0,0.1c-0.3,3.5,1.3,5.7,9,8c7.5,2.2,10.4,5.2,10,9.9l0,0.1c-0.4,5.3-5.3,8.6-11.6,8
		C-119.6-1143.9-123.5-1145.9-127.1-1149.8z"/>
	<path class="st1" d="M-84.5-1172.2l-11.4-0.9l0.2-2.2l25.3,2.1l-0.2,2.2l-11.4-0.9l-2.5,30.5l-2.4-0.2L-84.5-1172.2z"/>
	<path class="st1" d="M-63.1-1172.7l13.8,1.1c4,0.3,7.2,1.9,9,4c1.4,1.7,2.2,4,2,6.3l0,0.1c-0.5,5.5-4.8,8.3-10.4,8.6l9.7,14.9
		l-3.1-0.3l-9.3-14.4l-10.7-0.9l-1.1,13.6l-2.4-0.2L-63.1-1172.7z M-51-1154.6c5.5,0.5,9.8-2,10.2-6.7l0-0.1
		c0.4-4.4-2.9-7.5-8.8-7.9l-11.2-0.9l-1.2,14.8L-51-1154.6z"/>
	<path class="st1" d="M-29.2-1169.9l23.3,1.9l-0.2,2.2l-20.9-1.7l-1.1,12.9l18.8,1.6l-0.2,2.2l-18.8-1.6l-1.1,13.2l21.1,1.7
		l-0.2,2.2l-23.6-1.9L-29.2-1169.9z"/>
</g>
<g class="st0">
	<path class="st1" d="M13.7-1166.3l13.4,1.1c7.8,0.6,12.2,5.7,11.6,12.4l0,0.1c-0.6,7.6-6.9,11-14.2,10.4l-5.5-0.5l-0.8,9.8
		l-7.2-0.6L13.7-1166.3z M25.3-1148.7c3.6,0.3,5.9-1.7,6.1-4.5l0-0.1c0.3-3.2-1.8-5.1-5.4-5.4l-5.6-0.5l-0.8,10L25.3-1148.7z"/>
	<path class="st1" d="M53.1-1163.3l6.7,0.5l11.3,34.2l-7.5-0.6l-2.4-7.6l-13.9-1.1l-3.6,7.1l-7.4-0.6L53.1-1163.3z M59.1-1143.4
		l-3.5-11l-5.2,10.3L59.1-1143.4z"/>
	<path class="st1" d="M78.8-1161l15,1.2c4.2,0.3,7.3,1.8,9.3,4.1c1.7,2,2.4,4.6,2.2,7.7l0,0.1c-0.4,5.3-3.6,8.4-7.9,9.6l7,12.4
		l-8.4-0.7l-6.2-11.1l-5.7-0.5l-0.9,10.5l-7.2-0.6L78.8-1161z M92-1143.8c3.5,0.3,5.7-1.4,5.9-4.2l0-0.1c0.3-3.1-1.8-4.9-5.3-5.2
		l-7.2-0.6l-0.8,9.4L92-1143.8z"/>
	<path class="st1" d="M119.8-1150.9l-10-0.8l0.5-6.7l27.2,2.2l-0.5,6.7l-10-0.8l-2.2,26.1l-7.2-0.6L119.8-1150.9z"/>
	<path class="st1" d="M143-1155.6l6.7,0.5l13.7,21.5l1.7-20.2l7.1,0.6l-2.7,32.8l-6.1-0.5l-14.2-22.2l-1.7,20.8l-7.1-0.6L143-1155.6
		z"/>
	<path class="st1" d="M180-1152.6l24.7,2l-0.5,6.4l-17.6-1.5l-0.5,6.7l15.5,1.3l-0.5,6.4l-15.5-1.3l-0.6,6.9l17.8,1.5l-0.5,6.4
		l-25-2.1L180-1152.6z"/>
	<path class="st1" d="M211.4-1150l15,1.2c4.2,0.3,7.3,1.8,9.3,4.1c1.7,2,2.4,4.6,2.2,7.7l0,0.1c-0.4,5.3-3.6,8.4-7.9,9.6l7,12.4
		l-8.4-0.7l-6.2-11.1l-5.7-0.5l-0.9,10.5l-7.2-0.6L211.4-1150z M224.6-1132.9c3.5,0.3,5.7-1.4,5.9-4.2l0-0.1
		c0.3-3.1-1.8-4.9-5.3-5.2l-7.2-0.6l-0.8,9.4L224.6-1132.9z"/>
	<path class="st1" d="M240.7-1119.4l4.7-4.8c2.7,2.7,5.7,4.5,9.5,4.8c3,0.2,4.8-0.8,5-2.7l0-0.1c0.2-1.8-0.9-2.9-6.3-4.7
		c-6.5-2.2-10.6-4.4-10-10.9l0-0.1c0.5-5.9,5.6-9.5,12.3-8.9c4.8,0.4,8.7,2.2,11.8,5.2l-4.2,5.1c-2.7-2.3-5.5-3.7-8.3-3.9
		c-2.8-0.2-4.3,0.9-4.5,2.5l0,0.1c-0.2,2.2,1.2,3,6.7,4.9c6.5,2.3,10.1,5,9.6,10.7l0,0.1c-0.5,6.5-5.8,9.8-12.9,9.2
		C249.2-1113.4,244.4-1115.5,240.7-1119.4z"/>
	<path class="st1" d="M275.3-1144.7l7.2,0.6l-1.1,13l13.3,1.1l1.1-13l7.2,0.6l-2.7,32.8l-7.2-0.6l1.1-13.2l-13.3-1.1l-1.1,13.2
		l-7.2-0.6L275.3-1144.7z"/>
	<path class="st1" d="M311.2-1141.7l7.2,0.6l-2.7,32.8l-7.2-0.6L311.2-1141.7z"/>
	<path class="st1" d="M326.6-1140.5l13.4,1.1c7.8,0.6,12.2,5.7,11.6,12.4l0,0.1c-0.6,7.6-6.9,11-14.2,10.4l-5.5-0.5l-0.8,9.8
		l-7.2-0.6L326.6-1140.5z M338.2-1122.9c3.6,0.3,5.9-1.7,6.1-4.5l0-0.1c0.3-3.2-1.8-5.2-5.4-5.4l-5.6-0.5l-0.8,10L338.2-1122.9z"/>
</g>
<g class="st0">
	<path class="st1" d="M-506.4-1429.9l2.4-0.3l4.3,30.3l19.1-2.7l0.3,2.2l-21.5,3L-506.4-1429.9z"/>
	<path class="st1" d="M-477.6-1434l23.2-3.3l0.3,2.2l-20.8,2.9l1.8,12.8l18.7-2.6l0.3,2.2l-18.7,2.6l1.8,13.1l21-3l0.3,2.2
		l-23.4,3.3L-477.6-1434z"/>
	<path class="st1" d="M-432.4-1440.3l2.3-0.3l26.5,25.2l-4-28.3l2.3-0.3l4.6,32.6l-1.8,0.3l-27-25.7l4.1,28.9l-2.3,0.3
		L-432.4-1440.3z"/>
	<path class="st1" d="M-394.8-1428.9L-394.8-1428.9c-1.3-9,4.2-17.9,14-19.2c9.9-1.4,17.4,5.6,18.7,14.5l0,0.1
		c1.2,8.9-4.2,17.8-14.1,19.2C-386-1413.1-393.6-1420-394.8-1428.9z M-364.6-1433.2L-364.6-1433.2c-1.1-8.1-7.9-13.9-16-12.8
		c-8.1,1.1-12.9,8.5-11.8,16.5l0,0.1c1.1,8.1,7.9,13.8,16,12.7C-368.3-1417.8-363.4-1425.1-364.6-1433.2z"/>
	<path class="st1" d="M-354.5-1422.9l1.3-2c4,2.8,7.6,3.9,12.4,3.2c4.9-0.7,7.9-3.9,7.3-7.6l0-0.1c-0.5-3.4-2.6-5.2-10.2-5.6
		c-8-0.5-11.6-2.7-12.3-7.6l0-0.1c-0.7-4.8,3.2-9.2,9.3-10c4.7-0.7,8,0.2,11.7,2.4l-1.3,2.1c-3.4-2.2-6.7-2.8-10.2-2.3
		c-4.8,0.7-7.6,3.9-7.1,7.3l0,0.1c0.5,3.4,2.5,5.3,10.5,5.8c7.8,0.5,11.3,2.7,12,7.5l0,0.1c0.7,5.3-3.3,9.5-9.5,10.4
		C-345.8-1418.8-350.1-1420-354.5-1422.9z"/>
	<path class="st1" d="M-317.8-1454.2l-11.4,1.6l-0.3-2.2l25.1-3.5l0.3,2.2l-11.4,1.6l4.3,30.3l-2.4,0.3L-317.8-1454.2z"/>
	<path class="st1" d="M-297-1459.4l13.7-1.9c4-0.6,7.4,0.2,9.6,1.9c1.8,1.3,3,3.4,3.3,5.7l0,0.1c0.8,5.4-2.8,9.1-8.2,10.6l12.7,12.4
		l-3.1,0.4l-12.3-12l-10.7,1.5l1.9,13.5l-2.4,0.3L-297-1459.4z M-281.2-1444.4c5.4-0.8,9.1-4.1,8.4-8.8l0-0.1
		c-0.6-4.4-4.4-6.6-10.4-5.8l-11.1,1.6l2.1,14.7L-281.2-1444.4z"/>
	<path class="st1" d="M-263.4-1464.1l23.2-3.3l0.3,2.2l-20.8,2.9l1.8,12.8l18.7-2.6l0.3,2.2l-18.7,2.6l1.8,13.1l21-2.9l0.3,2.2
		l-23.4,3.3L-263.4-1464.1z"/>
</g>
<g class="st0">
	<path class="st1" d="M-217.6-1442.2l3.5-5.7c3.3,2,6.6,3.1,10.3,2.6c2.9-0.4,4.5-1.8,4.3-3.7l0-0.1c-0.3-1.8-1.5-2.6-7.1-3.2
		c-6.8-0.8-11.3-2-12.2-8.4l0-0.1c-0.8-5.9,3.4-10.5,10-11.4c4.7-0.7,9,0.3,12.7,2.4l-3,5.9c-3.2-1.6-6.2-2.4-8.9-2
		c-2.7,0.4-4,1.8-3.8,3.4l0,0.1c0.3,2.1,1.8,2.6,7.6,3.3c6.9,0.8,10.9,2.6,11.7,8.3l0,0.1c0.9,6.5-3.5,10.8-10.5,11.8
		C-207.9-1438.2-213.2-1439.2-217.6-1442.2z"/>
	<path class="st1" d="M-188.6-1457.9L-188.6-1457.9c-1.3-9.4,4.9-18,15-19.4c10.1-1.4,18.3,5.1,19.6,14.3l0,0.1
		c1.3,9.3-4.9,17.9-15,19.3C-179-1442.2-187.3-1448.6-188.6-1457.9z M-161.4-1461.7L-161.4-1461.7c-0.8-5.7-5.5-9.8-11.3-8.9
		c-5.8,0.8-9.1,5.9-8.3,11.5l0,0.1c0.8,5.6,5.5,9.7,11.3,8.9C-164-1451-160.7-1456.1-161.4-1461.7z"/>
	<path class="st1" d="M-149.9-1480.1l7.2-1l3.7,26.1l16.2-2.3l0.9,6.5l-23.4,3.3L-149.9-1480.1z"/>
	<path class="st1" d="M-119.9-1465.3l-2.6-18.6l7.2-1l2.6,18.4c0.7,5.3,3.8,7.7,8.2,7.1c4.4-0.6,6.7-3.6,5.9-8.8l-2.6-18.7l7.2-1
		l2.6,18.4c1.4,9.9-3.5,15.5-12.2,16.7C-112.5-1451.6-118.5-1455.7-119.9-1465.3z"/>
	<path class="st1" d="M-83.9-1461.7l15-23.4l-17.4,2.4l-0.9-6.3l26.6-3.7l0.8,5.4l-15,23.4l17.9-2.5l0.9,6.3l-27.1,3.8L-83.9-1461.7
		z"/>
	<path class="st1" d="M-53.5-1493.6l7.2-1l4.6,32.6l-7.2,1L-53.5-1493.6z"/>
	<path class="st1" d="M-37.3-1479.2L-37.3-1479.2c-1.3-9.4,4.9-18,15-19.4s18.3,5.1,19.6,14.3l0,0.1c1.3,9.3-4.9,17.9-15,19.3
		S-36-1469.9-37.3-1479.2z M-10.2-1483L-10.2-1483c-0.8-5.7-5.5-9.8-11.3-8.9c-5.8,0.8-9.1,5.9-8.3,11.5l0,0.1
		c0.8,5.6,5.5,9.7,11.3,8.9C-12.8-1472.3-9.4-1477.4-10.2-1483z"/>
	<path class="st1" d="M1.4-1501.3l6.6-0.9l18.1,17.9l-2.8-20.1l7.1-1l4.6,32.6l-6.1,0.9l-18.7-18.5l2.9,20.7l-7.1,1L1.4-1501.3z"/>
	<path class="st1" d="M38.5-1506.5l7.2-1l4.6,32.6l-7.2,1L38.5-1506.5z"/>
	<path class="st1" d="M68.1-1510.7l7.2-1l4.6,32.6l-7.2,1L68.1-1510.7z"/>
	<path class="st1" d="M83.4-1512.8l6.6-0.9l18.1,17.9l-2.8-20.1l7.1-1l4.6,32.6l-6.1,0.9L92.1-1502l2.9,20.7l-7.1,1L83.4-1512.8z"/>
	<path class="st1" d="M135-1503.4L135-1503.4c-1.3-9.4,4.6-17.9,14.6-19.3c6.1-0.9,10.1,0.7,13.6,3.2l-3.8,5.9
		c-2.8-1.9-5.6-3-8.8-2.5c-5.5,0.8-8.8,5.9-8,11.5l0,0.1c0.8,5.6,5.3,9.7,10.9,8.9c3.7-0.5,5.8-2.3,8-5l5.2,4
		c-2.8,4.1-6.3,6.8-12.5,7.7C144.5-1487.6,136.3-1494,135-1503.4z"/>
	<path class="st1" d="M168.5-1524.8l7.2-1l3.7,26.1l16.2-2.3l0.9,6.5l-23.4,3.3L168.5-1524.8z"/>
	<path class="st1" d="M196.3-1512L196.3-1512c-1.3-9.4,4.9-18,15-19.4s18.3,5.1,19.6,14.3l0,0.1c1.3,9.3-4.9,17.9-15,19.3
		C205.9-1496.3,197.6-1502.7,196.3-1512z M223.5-1515.8L223.5-1515.8c-0.8-5.7-5.5-9.8-11.3-8.9c-5.8,0.8-9.1,5.9-8.3,11.5l0,0.1
		c0.8,5.6,5.5,9.7,11.3,8.9C220.9-1505.1,224.2-1510.2,223.5-1515.8z"/>
	<path class="st1" d="M237.1-1515.5l-2.6-18.6l7.2-1l2.6,18.4c0.7,5.3,3.8,7.7,8.2,7.1s6.7-3.6,5.9-8.8l-2.6-18.7l7.2-1l2.6,18.4
		c1.4,9.9-3.5,15.5-12.2,16.7S238.5-1505.9,237.1-1515.5z"/>
	<path class="st1" d="M270.2-1539.1l12.7-1.8c10.2-1.4,18.3,4.6,19.6,13.8l0,0.1c1.3,9.2-4.8,17.3-15,18.7l-12.7,1.8L270.2-1539.1z
		 M286.6-1514.8c5.9-0.8,9.3-5.3,8.5-11.1l0-0.1c-0.8-5.8-5.3-9.3-11.2-8.4l-5.5,0.8l2.8,19.6L286.6-1514.8z"/>
</g>
<g>
	<defs>
		<rect id="SVGID_1_" width="125.9" height="129.2"/>
	</defs>
	<clipPath id="SVGID_2_">
		<use xlink:href="#SVGID_1_"  style="overflow:visible;"/>
	</clipPath>
	<path class="st2" d="M25.9,13.9C13.8,13.9,4,23.7,4,35.8v67.6c0,12.1,9.8,21.8,21.8,21.8h67.6c12.1,0,21.8-9.8,21.8-21.8V35.8
		c0-12.1-9.8-21.8-21.8-21.8H25.9z"/>
	<path class="st3" d="M63.7,89.9c-0.1-0.1-0.1-0.1-0.2-0.1c-2.7-0.9-5.4-1.9-8.1-2.8c-0.5-0.2-0.6,0.1-0.7,0.5
		c-0.3,1.8,0.3,3.3,1.6,4.5C58.8,94.2,62.9,93,63.7,89.9 M76.1,62.6c-0.2-4.5-2.8-8.6-6.8-10.3c-0.6-0.2-0.8-0.5-0.8-1.2
		c0-1-0.7-1.9-1.6-2.2c-0.9-0.3-2-0.1-2.6,0.8c-0.4,0.6-0.8,0.6-1.4,0.5c-3.3-0.8-6.2-0.1-8.9,1.9c-2.2,1.6-3.4,3.8-4.2,6.4
		c-1.5,4.7-3,9.3-4.5,14c-0.5,1.6-1.5,2.1-3.1,1.8c-0.3-0.1-0.5-0.1-0.8-0.1c-1,0-1.8,0.6-2.2,1.6c-0.3,0.9-0.1,2,0.7,2.6
		c0.4,0.3,0.8,0.5,1.3,0.6c8.9,3,17.9,6.1,26.8,9.1c0.8,0.3,1.6,0.6,2.5,0.8c1.3,0.3,2.4-0.3,2.8-1.6c0.4-1.1-0.2-2.4-1.2-2.9
		c-1.8-0.9-2.2-1.8-1.5-3.7c1.5-4.7,3.1-9.4,4.6-14.1C75.6,65.3,75.8,64,76.1,62.6 M60.4,113.4c-8.7,0-16.4-2.1-23.4-6.4
		c-1-0.6-2-0.8-3.1-0.5c-2.2,0.7-4.3,1.5-6.5,2.2c-2.1,0.7-4.3,1.3-6.4,2c-0.3,0.1-0.6,0.1-0.9,0c-0.9-0.1-1.3-0.6-1.2-1.5
		c0.1-0.8,0.3-1.6,0.6-2.3c1.2-2.8,2.4-5.5,3.7-8.3c0.1-0.3,0.2-0.6,0.3-0.8c0.7-1.5,0.5-2.9-0.4-4.4c-4.7-7.1-7-15-6.7-23.6
		C16.5,59.9,20,51,26.5,43.5c7.8-8.9,17.6-13.9,29.2-15C69.1,27.3,81,31.3,90.9,41c7.8,7.6,12.1,17.1,12.6,28.2
		c0.5,11.3-3.2,21.2-10.6,29.6c-7.8,8.8-17.6,13.4-29.1,14.5c-0.2,0-0.4,0-0.6,0C62,113.4,60.9,113.4,60.4,113.4"/>
	<path class="st4" d="M76.1,62.6c-0.3,1.3-0.5,2.7-0.9,4c-1.5,4.7-3,9.4-4.6,14.1c-0.6,1.9-0.3,2.8,1.5,3.7c1.1,0.6,1.6,1.8,1.2,2.9
		c-0.4,1.2-1.5,1.9-2.8,1.6c-0.8-0.2-1.7-0.5-2.5-0.8c-8.9-3-17.9-6.1-26.8-9.1c-0.4-0.2-0.9-0.3-1.3-0.6c-0.8-0.6-1-1.6-0.7-2.6
		c0.3-1,1.2-1.6,2.2-1.6c0.3,0,0.5,0,0.8,0.1c1.6,0.3,2.6-0.3,3.1-1.8c1.5-4.7,3-9.3,4.5-14c0.8-2.6,2-4.8,4.2-6.4
		c2.7-2,5.7-2.6,8.9-1.9c0.6,0.1,1,0.2,1.4-0.5c0.5-0.8,1.6-1.1,2.5-0.8c0.9,0.3,1.6,1.2,1.6,2.2c0,0.7,0.2,0.9,0.8,1.2
		C73.3,54,76,58.2,76.1,62.6"/>
	<path class="st4" d="M63.7,89.9c-0.8,3.1-4.9,4.2-7.3,2.1c-1.3-1.2-1.9-2.7-1.6-4.5c0.1-0.4,0.2-0.7,0.7-0.5
		c2.7,0.9,5.4,1.9,8.1,2.8C63.6,89.8,63.6,89.9,63.7,89.9"/>
	<path class="st3" d="M109.1,11.1c0,0.5,0.1,0.8,0.1,1.1c0,3.3,0,6.6,0,9.9c0,0.7,0,1.4,0,2.1c0,0.6,0.2,0.7,0.7,0.7
		c0.7,0,0.8-0.3,0.8-0.9c0-4.6,0-9.3,0-13.9c0-1-0.7-1.5-1.5-0.9c-1.3,1-2.5,2-3.7,3.1c0.3,0.4,0.6,0.7,0.9,1
		C107.3,12.6,108.1,11.9,109.1,11.1 M125.9,17c0.2,8.5-6.6,17-16.7,16.9c-9-0.1-16.4-7.6-16.4-16.9c0-9.5,7.3-17,16.5-17
		C118.6,0,125.9,7.5,125.9,17"/>
	<path class="st4" d="M109.1,11.1c-1,0.9-1.9,1.6-2.8,2.3c-0.3-0.4-0.6-0.7-0.9-1c1.3-1.1,2.5-2.1,3.7-3.1c0.8-0.6,1.5-0.2,1.5,0.9
		c0,4.6,0,9.3,0,13.9c0,0.6-0.1,0.9-0.8,0.9c-0.5,0-0.8-0.2-0.7-0.7c0-0.7,0-1.4,0-2.1c0-3.3,0-6.6,0-9.9
		C109.2,11.8,109.2,11.6,109.1,11.1"/>
</g>
</svg>
