<?xml version="1.0" encoding="utf-8"?>
<!-- Generator: Adobe Illustrator 24.0.0, SVG Export Plug-In . SVG Version: 6.00 Build 0)  -->
<svg version="1.1" id="Livello_1" xmlns="http://www.w3.org/2000/svg" xmlns:xlink="http://www.w3.org/1999/xlink" x="0px" y="0px"
	 viewBox="0 0 84.9 84.9" style="enable-background:new 0 0 84.9 84.9;" xml:space="preserve">
<style type="text/css">
	.st0{display:none;}
	.st1{display:inline;fill:#FFFFFF;}
	.st2{clip-path:url(#SVGID_2_);fill:#01A6FF;}
	.st3{clip-path:url(#SVGID_2_);fill:#FFFFFF;}
</style>
<g class="st0">
	<path class="st1" d="M-287.1-1211.8l2.4,0.2l-2.5,30.5l19.2,1.6l-0.2,2.2l-21.7-1.8L-287.1-1211.8z"/>
	<path class="st1" d="M-258.1-1209.4l23.3,1.9l-0.2,2.2l-20.9-1.7l-1.1,12.9l18.8,1.6l-0.2,2.2l-18.8-1.6l-1.1,13.2l21.1,1.7
		l-0.2,2.2l-23.6-1.9L-258.1-1209.4z"/>
	<path class="st1" d="M-214.1-1205.7l2.3,0.2l20.3,30.4l2.4-28.5l2.3,0.2l-2.7,32.8l-1.8-0.2l-20.7-31l-2.4,29.1l-2.3-0.2
		L-214.1-1205.7z"/>
	<path class="st1" d="M-179.9-1186.3L-179.9-1186.3c0.7-9,8-16.5,17.9-15.7c9.9,0.8,15.8,9.3,15,18.2l0,0.1
		c-0.7,8.9-8,16.4-17.9,15.6C-174.7-1168.9-180.6-1177.4-179.9-1186.3z M-149.4-1183.8L-149.4-1183.8c0.7-8.2-4.7-15.3-12.8-16
		c-8.1-0.7-14.5,5.4-15.1,13.5l0,0.1c-0.7,8.1,4.7,15.2,12.8,15.9C-156.4-1169.6-150.1-1175.7-149.4-1183.8z"/>
	<path class="st1" d="M-141.8-1171.6l1.7-1.7c3.3,3.6,6.5,5.4,11.4,5.8c4.9,0.4,8.5-2.1,8.8-5.8l0-0.1c0.3-3.5-1.4-5.6-8.7-7.7
		c-7.7-2.2-10.7-5.2-10.3-10.1l0-0.1c0.4-4.9,5.2-8.2,11.3-7.7c4.8,0.4,7.8,2,10.9,4.9l-1.7,1.8c-2.9-2.9-5.9-4.2-9.5-4.5
		c-4.8-0.4-8.2,2.1-8.5,5.5l0,0.1c-0.3,3.5,1.3,5.7,9,8c7.5,2.2,10.4,5.2,10,9.9l0,0.1c-0.4,5.3-5.3,8.6-11.6,8
		C-134.3-1165.7-138.2-1167.7-141.8-1171.6z"/>
	<path class="st1" d="M-99.2-1194l-11.4-0.9l0.2-2.2l25.3,2.1l-0.2,2.2l-11.4-0.9l-2.5,30.5l-2.4-0.2L-99.2-1194z"/>
	<path class="st1" d="M-77.8-1194.5l13.8,1.1c4,0.3,7.2,1.9,9,4c1.4,1.7,2.2,4,2,6.3l0,0.1c-0.5,5.5-4.8,8.3-10.4,8.6l9.7,14.9
		l-3.1-0.3l-9.3-14.4l-10.7-0.9l-1.1,13.6l-2.4-0.2L-77.8-1194.5z M-65.7-1176.4c5.5,0.5,9.8-2,10.2-6.7l0-0.1
		c0.4-4.4-2.9-7.5-8.8-7.9l-11.2-0.9l-1.2,14.8L-65.7-1176.4z"/>
	<path class="st1" d="M-43.9-1191.7l23.3,1.9l-0.2,2.2l-20.9-1.7l-1.1,12.9l18.8,1.6l-0.2,2.2l-18.8-1.6l-1.1,13.2l21.1,1.7
		l-0.2,2.2l-23.6-1.9L-43.9-1191.7z"/>
</g>
<g class="st0">
	<path class="st1" d="M-1-1188.1l13.4,1.1c7.8,0.6,12.2,5.7,11.6,12.4l0,0.1c-0.6,7.6-6.9,11-14.2,10.4l-5.5-0.5l-0.8,9.8l-7.2-0.6
		L-1-1188.1z M10.6-1170.5c3.6,0.3,5.9-1.7,6.1-4.5l0-0.1c0.3-3.2-1.8-5.1-5.4-5.4l-5.6-0.5l-0.8,10L10.6-1170.5z"/>
	<path class="st1" d="M38.3-1185.1l6.7,0.5l11.3,34.2l-7.5-0.6l-2.4-7.6l-13.9-1.1l-3.6,7.1l-7.4-0.6L38.3-1185.1z M44.3-1165.2
		l-3.5-11l-5.2,10.3L44.3-1165.2z"/>
	<path class="st1" d="M64.1-1182.8l15,1.2c4.2,0.3,7.3,1.8,9.3,4.1c1.7,2,2.4,4.6,2.2,7.7l0,0.1c-0.4,5.3-3.6,8.4-7.9,9.6l7,12.4
		l-8.4-0.7l-6.2-11.1l-5.7-0.5l-0.9,10.5l-7.2-0.6L64.1-1182.8z M77.3-1165.6c3.5,0.3,5.7-1.4,5.9-4.2l0-0.1
		c0.3-3.1-1.8-4.9-5.3-5.2l-7.2-0.6l-0.8,9.4L77.3-1165.6z"/>
	<path class="st1" d="M105-1172.7l-10-0.8l0.5-6.7l27.2,2.2l-0.5,6.7l-10-0.8l-2.2,26.1l-7.2-0.6L105-1172.7z"/>
	<path class="st1" d="M128.3-1177.4l6.7,0.5l13.7,21.5l1.7-20.2l7.1,0.6l-2.7,32.8l-6.1-0.5l-14.2-22.2l-1.7,20.8l-7.1-0.6
		L128.3-1177.4z"/>
	<path class="st1" d="M165.3-1174.4l24.7,2l-0.5,6.4l-17.6-1.5l-0.5,6.7l15.5,1.3l-0.5,6.4l-15.5-1.3l-0.6,6.9l17.8,1.5l-0.5,6.4
		l-25-2.1L165.3-1174.4z"/>
	<path class="st1" d="M196.7-1171.8l15,1.2c4.2,0.3,7.3,1.8,9.3,4.1c1.7,2,2.4,4.6,2.2,7.7l0,0.1c-0.4,5.3-3.6,8.4-7.9,9.6l7,12.4
		l-8.4-0.7l-6.2-11.1l-5.7-0.5l-0.9,10.5l-7.2-0.6L196.7-1171.8z M209.9-1154.7c3.5,0.3,5.7-1.4,5.9-4.2l0-0.1
		c0.3-3.1-1.8-4.9-5.3-5.2l-7.2-0.6l-0.8,9.4L209.9-1154.7z"/>
	<path class="st1" d="M226-1141.2l4.7-4.8c2.7,2.7,5.7,4.5,9.5,4.8c3,0.2,4.8-0.8,5-2.7l0-0.1c0.2-1.8-0.9-2.9-6.3-4.7
		c-6.5-2.2-10.6-4.4-10-10.9l0-0.1c0.5-5.9,5.6-9.5,12.3-8.9c4.8,0.4,8.7,2.2,11.8,5.2l-4.2,5.1c-2.7-2.3-5.5-3.7-8.3-3.9
		c-2.8-0.2-4.3,0.9-4.5,2.5l0,0.1c-0.2,2.2,1.2,3,6.7,4.9c6.5,2.3,10.1,5,9.6,10.7l0,0.1c-0.5,6.5-5.8,9.8-12.9,9.2
		C234.5-1135.2,229.6-1137.3,226-1141.2z"/>
	<path class="st1" d="M260.5-1166.5l7.2,0.6l-1.1,13l13.3,1.1l1.1-13l7.2,0.6l-2.7,32.8l-7.2-0.6l1.1-13.2l-13.3-1.1l-1.1,13.2
		l-7.2-0.6L260.5-1166.5z"/>
	<path class="st1" d="M296.5-1163.5l7.2,0.6l-2.7,32.8l-7.2-0.6L296.5-1163.5z"/>
	<path class="st1" d="M311.9-1162.3l13.4,1.1c7.8,0.6,12.2,5.7,11.6,12.4l0,0.1c-0.6,7.6-6.9,11-14.2,10.4l-5.5-0.5l-0.8,9.8
		l-7.2-0.6L311.9-1162.3z M323.4-1144.7c3.6,0.3,5.9-1.7,6.1-4.5l0-0.1c0.3-3.2-1.8-5.2-5.4-5.4l-5.6-0.5l-0.8,10L323.4-1144.7z"/>
</g>
<g class="st0">
	<path class="st1" d="M-521.1-1451.8l2.4-0.3l4.3,30.3l19.1-2.7l0.3,2.2l-21.5,3L-521.1-1451.8z"/>
	<path class="st1" d="M-492.3-1455.8l23.2-3.3l0.3,2.2l-20.8,2.9l1.8,12.8l18.7-2.6l0.3,2.2l-18.7,2.6l1.8,13.1l21-3l0.3,2.2
		l-23.4,3.3L-492.3-1455.8z"/>
	<path class="st1" d="M-447.2-1462.1l2.3-0.3l26.5,25.2l-4-28.3l2.3-0.3l4.6,32.6l-1.8,0.3l-27-25.7l4.1,28.9l-2.3,0.3
		L-447.2-1462.1z"/>
	<path class="st1" d="M-409.5-1450.7L-409.5-1450.7c-1.3-9,4.2-17.9,14-19.2c9.9-1.4,17.4,5.6,18.7,14.5l0,0.1
		c1.2,8.9-4.2,17.8-14.1,19.2C-400.7-1434.9-408.3-1441.8-409.5-1450.7z M-379.3-1455L-379.3-1455c-1.1-8.1-7.9-13.9-16-12.8
		c-8.1,1.1-12.9,8.5-11.8,16.5l0,0.1c1.1,8.1,7.9,13.8,16,12.7C-383-1439.6-378.2-1446.9-379.3-1455z"/>
	<path class="st1" d="M-369.2-1444.7l1.3-2c4,2.8,7.6,3.9,12.4,3.2c4.9-0.7,7.9-3.9,7.3-7.6l0-0.1c-0.5-3.4-2.6-5.2-10.2-5.6
		c-8-0.5-11.6-2.7-12.3-7.6l0-0.1c-0.7-4.8,3.2-9.2,9.3-10c4.7-0.7,8,0.2,11.7,2.4l-1.3,2.1c-3.4-2.2-6.7-2.8-10.2-2.3
		c-4.8,0.7-7.6,3.9-7.1,7.3l0,0.1c0.5,3.4,2.5,5.3,10.5,5.8c7.8,0.5,11.3,2.7,12,7.5l0,0.1c0.7,5.3-3.3,9.5-9.5,10.4
		C-360.6-1440.6-364.8-1441.8-369.2-1444.7z"/>
	<path class="st1" d="M-332.5-1476l-11.4,1.6l-0.3-2.2l25.1-3.5l0.3,2.2l-11.4,1.6l4.3,30.3l-2.4,0.3L-332.5-1476z"/>
	<path class="st1" d="M-311.7-1481.2l13.7-1.9c4-0.6,7.4,0.2,9.6,1.9c1.8,1.3,3,3.4,3.3,5.7l0,0.1c0.8,5.4-2.8,9.1-8.2,10.6
		l12.7,12.4l-3.1,0.4l-12.3-12l-10.7,1.5l1.9,13.5l-2.4,0.3L-311.7-1481.2z M-295.9-1466.2c5.4-0.8,9.1-4.1,8.4-8.8l0-0.1
		c-0.6-4.4-4.4-6.6-10.4-5.8l-11.1,1.6l2.1,14.7L-295.9-1466.2z"/>
	<path class="st1" d="M-278.1-1485.9l23.2-3.3l0.3,2.2l-20.8,2.9l1.8,12.8l18.7-2.6l0.3,2.2l-18.7,2.6l1.8,13.1l21-2.9l0.3,2.2
		l-23.4,3.3L-278.1-1485.9z"/>
</g>
<g class="st0">
	<path class="st1" d="M-232.3-1464l3.5-5.7c3.3,2,6.6,3.1,10.3,2.6c2.9-0.4,4.5-1.8,4.3-3.7l0-0.1c-0.3-1.8-1.5-2.6-7.1-3.2
		c-6.8-0.8-11.3-2-12.2-8.4l0-0.1c-0.8-5.9,3.4-10.5,10-11.4c4.7-0.7,9,0.3,12.7,2.4l-3,5.9c-3.2-1.6-6.2-2.4-8.9-2
		c-2.7,0.4-4,1.8-3.8,3.4l0,0.1c0.3,2.1,1.8,2.6,7.6,3.3c6.9,0.8,10.9,2.6,11.7,8.3l0,0.1c0.9,6.5-3.5,10.8-10.5,11.8
		C-222.7-1460-227.9-1461-232.3-1464z"/>
	<path class="st1" d="M-203.3-1479.7L-203.3-1479.7c-1.3-9.4,4.9-18,15-19.4c10.1-1.4,18.3,5.1,19.6,14.3l0,0.1
		c1.3,9.3-4.9,17.9-15,19.3C-193.7-1464-202-1470.4-203.3-1479.7z M-176.2-1483.5L-176.2-1483.5c-0.8-5.7-5.5-9.8-11.3-8.9
		c-5.8,0.8-9.1,5.9-8.3,11.5l0,0.1c0.8,5.6,5.5,9.7,11.3,8.9C-178.7-1472.8-175.4-1477.9-176.2-1483.5z"/>
	<path class="st1" d="M-164.6-1501.9l7.2-1l3.7,26.1l16.2-2.3l0.9,6.5l-23.4,3.3L-164.6-1501.9z"/>
	<path class="st1" d="M-134.6-1487.1l-2.6-18.6l7.2-1l2.6,18.4c0.7,5.3,3.8,7.7,8.2,7.1c4.4-0.6,6.7-3.6,5.9-8.8l-2.6-18.7l7.2-1
		l2.6,18.4c1.4,9.9-3.5,15.5-12.2,16.7C-127.2-1473.4-133.2-1477.5-134.6-1487.1z"/>
	<path class="st1" d="M-98.7-1483.5l15-23.4l-17.4,2.4l-0.9-6.3l26.6-3.7l0.8,5.4l-15,23.4l17.9-2.5l0.9,6.3l-27.1,3.8L-98.7-1483.5
		z"/>
	<path class="st1" d="M-68.2-1515.4l7.2-1l4.6,32.6l-7.2,1L-68.2-1515.4z"/>
	<path class="st1" d="M-52-1501L-52-1501c-1.3-9.4,4.9-18,15-19.4s18.3,5.1,19.6,14.3l0,0.1c1.3,9.3-4.9,17.9-15,19.3
		S-50.7-1491.7-52-1501z M-24.9-1504.8L-24.9-1504.8c-0.8-5.7-5.5-9.8-11.3-8.9c-5.8,0.8-9.1,5.9-8.3,11.5l0,0.1
		c0.8,5.6,5.5,9.7,11.3,8.9C-27.5-1494.1-24.1-1499.2-24.9-1504.8z"/>
	<path class="st1" d="M-13.3-1523.1l6.6-0.9l18.1,17.9l-2.8-20.1l7.1-1l4.6,32.6l-6.1,0.9l-18.7-18.5l2.9,20.7l-7.1,1L-13.3-1523.1z
		"/>
	<path class="st1" d="M23.8-1528.3l7.2-1l4.6,32.6l-7.2,1L23.8-1528.3z"/>
	<path class="st1" d="M53.4-1532.5l7.2-1l4.6,32.6l-7.2,1L53.4-1532.5z"/>
	<path class="st1" d="M68.7-1534.6l6.6-0.9l18.1,17.9l-2.8-20.1l7.1-1l4.6,32.6l-6.1,0.9l-18.7-18.5l2.9,20.7l-7.1,1L68.7-1534.6z"
		/>
	<path class="st1" d="M120.3-1525.2L120.3-1525.2c-1.3-9.4,4.6-17.9,14.6-19.3c6.1-0.9,10.1,0.7,13.6,3.2l-3.8,5.9
		c-2.8-1.9-5.6-3-8.8-2.5c-5.5,0.8-8.8,5.9-8,11.5l0,0.1c0.8,5.6,5.3,9.7,10.9,8.9c3.7-0.5,5.8-2.3,8-5l5.2,4
		c-2.8,4.1-6.3,6.8-12.5,7.7C129.7-1509.4,121.6-1515.8,120.3-1525.2z"/>
	<path class="st1" d="M153.7-1546.6l7.2-1l3.7,26.1l16.2-2.3l0.9,6.5l-23.4,3.3L153.7-1546.6z"/>
	<path class="st1" d="M181.6-1533.8L181.6-1533.8c-1.3-9.4,4.9-18,15-19.4s18.3,5.1,19.6,14.3l0,0.1c1.3,9.3-4.9,17.9-15,19.3
		C191.2-1518.1,182.9-1524.5,181.6-1533.8z M208.7-1537.6L208.7-1537.6c-0.8-5.7-5.5-9.8-11.3-8.9c-5.8,0.8-9.1,5.9-8.3,11.5l0,0.1
		c0.8,5.6,5.5,9.7,11.3,8.9C206.2-1526.9,209.5-1532,208.7-1537.6z"/>
	<path class="st1" d="M222.4-1537.3l-2.6-18.6l7.2-1l2.6,18.4c0.7,5.3,3.8,7.7,8.2,7.1s6.7-3.6,5.9-8.8l-2.6-18.7l7.2-1l2.6,18.4
		c1.4,9.9-3.5,15.5-12.2,16.7S223.7-1527.7,222.4-1537.3z"/>
	<path class="st1" d="M255.5-1560.9l12.7-1.8c10.2-1.4,18.3,4.6,19.6,13.8l0,0.1c1.3,9.2-4.8,17.3-15,18.7l-12.7,1.8L255.5-1560.9z
		 M271.9-1536.6c5.9-0.8,9.3-5.3,8.5-11.1l0-0.1c-0.8-5.8-5.3-9.3-11.2-8.4l-5.5,0.8l2.8,19.6L271.9-1536.6z"/>
</g>
<g>
	<defs>
		<rect id="SVGID_1_" width="84.9" height="84.9"/>
	</defs>
	<clipPath id="SVGID_2_">
		<use xlink:href="#SVGID_1_"  style="overflow:visible;"/>
	</clipPath>
	<path class="st2" d="M42.5,84.9c23.5,0,42.5-19,42.5-42.5C84.9,19,65.9,0,42.5,0S0,19,0,42.5C0,65.9,19,84.9,42.5,84.9"/>
	<path class="st3" d="M41.7,58.9c0.5,0,0.9,0,1.4,0c2.6-0.2,5.1-0.6,7.4-1.9c1.6-0.9,2.8-2.1,3.7-3.7c0.9-1.7,1.2-3.4,0.9-5.3
		c-0.3-2.2-1.3-3.9-3.2-5.2c-1.7-1.2-3.6-1.8-5.6-2.3c-1.9-0.5-3.9-0.9-5.8-1.4c-1.3-0.3-2.6-0.7-3.8-1.6c-1.1-0.8-1.4-2.3-0.6-3.4
		c0.7-1,1.7-1.5,2.9-1.8c1.3-0.3,2.6-0.3,3.9-0.2c1.4,0.1,2.6,0.7,3.5,1.8c0.6,0.8,1.2,1.7,1.7,2.6c0.5,0.8,1.2,1.3,2.2,1.3
		c1.6,0.1,3.2-1.2,3.2-2.8c0-1.2-0.4-2.3-1.1-3.3c-1.6-2.1-3.8-3.3-6.4-3.8c-2.1-0.5-4.2-0.5-6.4-0.3c-2.2,0.2-4.3,0.7-6.2,1.7
		c-2,1.1-3.4,2.6-3.9,4.8c-0.8,3.2,0.2,6.3,3.2,8.2c1.3,0.8,2.7,1.4,4.1,1.8c2.1,0.6,4.3,1.1,6.4,1.6c1.1,0.3,2.2,0.6,3.2,1.2
		c2.2,1.3,2.2,3.9,0.8,5.4c-0.8,0.9-1.9,1.4-3.1,1.7c-1.4,0.3-2.7,0.4-4.1,0.2c-1.7-0.2-3.2-1-4.2-2.5c-0.5-0.7-0.8-1.5-1.2-2.2
		c-0.3-0.5-0.6-1.1-1.1-1.6c-1.3-1.3-3.8-0.9-4.7,0.7c-0.5,1-0.4,2,0,2.9c1,2.9,3.1,4.9,5.9,6.1C37.1,58.6,39.4,58.9,41.7,58.9
		 M66.6,43.4c-0.1,0.8-0.2,1.9-0.3,2.9c0,0.4,0,0.7,0.2,1c0.9,1.5,1.5,3.2,1.8,5c0.4,2.7,0.1,5.4-0.9,7.9c-1.7,4.1-4.7,6.8-8.9,8.3
		c-1.5,0.5-3.1,0.8-4.8,0.8c-2.7,0-5.3-0.7-7.6-2c-0.2-0.1-0.5-0.1-0.7-0.1c-1.7,0.2-3.4,0.2-5.1,0.1c-2.4-0.1-4.8-0.7-7.1-1.5
		c-2.5-0.9-4.8-2.3-6.9-4c-4.2-3.5-7-7.9-8.3-13.2c-0.4-1.6-0.6-3.2-0.6-4.8c0-1.4,0.1-2.8,0.2-4.2c0-0.2,0-0.3-0.1-0.5
		c-1.2-2-1.9-4.2-2-6.6c-0.1-2.5,0.3-4.9,1.4-7.1c1.2-2.6,3.1-4.6,5.5-6.2c1.6-1,3.4-1.7,5.3-2.1c2.1-0.4,4.2-0.3,6.3,0.2
		c1.3,0.3,2.5,0.7,3.7,1.4c0.6,0.4,1.2,0.2,1.8,0.2c2.1-0.2,4.2-0.2,6.4,0.1c2.5,0.4,4.9,1.1,7.1,2.2c1.8,0.9,3.5,2,5,3.2
		c2.1,1.8,3.9,3.8,5.3,6.1c1,1.6,1.7,3.3,2.3,5c0.5,1.6,0.9,3.3,1.1,5C66.5,41.6,66.6,42.4,66.6,43.4"/>
</g>
</svg>
