<?xml version="1.0" encoding="UTF-8" standalone="no"?><!DOCTYPE svg PUBLIC "-//W3C//DTD SVG 1.1//EN" "http://www.w3.org/Graphics/SVG/1.1/DTD/svg11.dtd"><svg width="100%" height="100%" viewBox="0 0 55559 34742" version="1.1" xmlns="http://www.w3.org/2000/svg" xmlns:xlink="http://www.w3.org/1999/xlink" xml:space="preserve" xmlns:serif="http://www.serif.com/" style="fill-rule:evenodd;clip-rule:evenodd;stroke-linejoin:round;stroke-miterlimit:2;"><g><path d="M3713.59,31857.7c0,-0 -6430.93,-6904.79 -1087.57,-14380.1c4740.99,-6632.8 10268.5,-6179.39 14324,-3487.8c1727.25,1146.38 6707.17,141.283 10945.6,-6607.74c5780.31,-9203.77 25816.4,-3621.65 22163.2,10538.6c-1767.84,6852.56 5380.5,7101.63 1738.1,13951.5l-48083.6,-14.484l0.224,0.018Z" style="fill:#8fc1ed;fill-opacity:0.52;fill-rule:nonzero;"/><path d="M8909.73,22504.2l4188.68,4551.17l-4551.15,4188.72l-4188.7,-4551.17l4551.17,-4188.72Z" style="fill:#dfebfd;fill-rule:nonzero;"/><path d="M8909.73,22504.2l843.593,916.596l-4551.15,4188.72l-843.612,-916.596l4551.17,-4188.72Z" style="fill:#bed7fb;fill-rule:nonzero;"/><path d="M22201.3,4575.51l3120.82,445.172l-2071.01,-1411.55l-105.19,452.508l-759.003,137.432l-185.609,376.433Z" style="fill:#9ec3f6;fill-rule:nonzero;"/><path d="M25322.1,5020.69l-2596.96,-1338.94l-2545.33,-128.044l5142.31,1466.98l-0.023,-0Z" style="fill:#cde0fb;fill-rule:nonzero;"/><path d="M23251.1,3609.13l2071.01,1411.55l-1603.19,-2206.07l-467.824,794.525Z" style="fill:#cde0fb;fill-rule:nonzero;"/><path d="M39652.3,10732.1l-784.921,563.313l-788.922,-557.217c174.743,-246.052 463.63,-408.753 788.922,-408.753c323.381,-0 610.174,158.621 784.921,402.657Z" style="fill:#fff;fill-rule:nonzero;"/><path d="M38867.4,8956.79c-788.922,-0 -1486.57,392.48 -1909.61,992.405l498.316,349.755c313.09,-443.319 829.704,-732.079 1411.3,-732.079c577.592,0 1090.01,284.698 1403.29,721.921l496.221,-355.87c-425.145,-591.788 -1118.59,-976.132 -1899.51,-976.132Z" style="fill:#fff;fill-rule:nonzero;"/><path d="M38867.4,6347.68c-1669.51,0 -3145.97,829.704 -4040.65,2098.67l498.123,349.778c784.925,-1110.35 2080.35,-1838.36 3542.53,-1838.36c1449.98,0 2737.21,715.82 3524.23,1811.93l494.121,-355.889c-896.774,-1250.65 -2362.95,-2066.12 -4018.36,-2066.12Z" style="fill:#fff;fill-rule:nonzero;"/><path d="M38867.4,7775.28c-1187.58,0 -2241.02,587.69 -2881.47,1488.59l498.124,349.774c530.718,-742.251 1401.2,-1228.28 2383.35,-1228.28c974.144,-0 1838.34,477.886 2371.15,1209.98l494.122,-353.849c-642.572,-888.684 -1687.8,-1466.22 -2865.27,-1466.22Z" style="fill:#fff;fill-rule:nonzero;"/><path d="M18481.9,18467.9c-483.832,485.359 -1016.83,907.069 -1592.52,1262.28c-1394.92,-1019.5 -2885.43,-1892.27 -4438.3,-2598.68c213.485,-391.242 423.882,-804.418 629.308,-1235.73c1421.38,188.367 2787.77,301.41 4035.38,330.643c325.667,9.412 641.807,9.412 948.422,7.048c795.211,-9.412 1503.15,-56.615 2109.51,-141.549c-424.761,880.09 -993.393,1677.59 -1691.8,2375.99Zm-8843.89,2155.24c647.675,-339.58 1298.42,-1119.16 1799.58,-1837.58c258.478,-370.451 516.783,-780.535 771.79,-1223.21c1470.31,665.818 2884.07,1483.9 4212.18,2436.89c-2189.12,1169.86 -4654.32,1302.29 -6783.54,623.898l-0.004,-0Zm-5472.52,-5080.34c673.726,27.116 1922.78,129.182 3518.25,492.315c114.163,25.991 228.234,53.221 342.264,81.023c-82.112,478.938 -142.71,936.627 -180.117,1366.74c-70.888,815.01 -75.919,1754.86 151.419,2425.83c-691.906,-389.509 -1326.42,-871.437 -1895.83,-1440.83c-848.816,-848.757 -1501.99,-1842.63 -1935.98,-2925.07Zm4081.87,-540.849c-47.715,212.835 -91.717,422.588 -132.096,629.057c-107.362,-26.028 -214.765,-51.525 -322.26,-75.993c-1816.06,-413.386 -3178.82,-497.46 -3810.53,-511.693c-156.472,-471.336 -271.531,-953.397 -344.363,-1445.47c1237.25,475.929 2629.91,932.415 4609.27,1404.1l-0.023,-0Zm-5602.63,-2300.72c-1672.91,-816.4 -2437.41,-1604.47 -2095.27,-2163.68c276.063,-453.042 1281.21,-759.766 2819.63,-873.019c-310.136,1046.75 -417.997,2135.01 -353.909,3211.31c-127.426,-56.633 -250.113,-115.608 -370.45,-174.61Zm1823.91,-4360.4l0.211,-0.457c1081.43,1351.69 2675.36,2733.5 4537.75,3931.9c-264.08,803.709 -489.383,1593.61 -671.215,2350.57c-1544.13,-373.574 -3338.88,-901.964 -4756.26,-1501.6c-117.557,-1175.34 10.441,-2365.15 363.361,-3487.4c136.994,-435.206 318.734,-883.785 526.177,-1293.01l-0.023,0Zm-728.932,-3724.88c284.62,-451.821 920.675,-685.013 1813.78,-685.013c427.143,0 913.417,53.322 1447.81,161.828c202.911,41.065 410.143,89.411 620.925,145.015l0.553,0.133c-1275.09,737.434 -2398.17,1804.63 -3234.35,3142.58l-0.439,0.704c-789.169,-1171.76 -1026.42,-2165.35 -648.27,-2765.25Zm8553.11,-1095.65c606.483,-0 1202.98,61.014 1786.07,182.097c-687.752,299.374 -1389.95,1132.6 -1922.95,1896.67c-545.518,781.985 -1090.27,1739.02 -1604.68,2810.28c-1388.52,-754.466 -2700.1,-1911.1 -3327.02,-3273.61c1463.79,-1041.15 3224.12,-1615.44 5068.59,-1615.44l-0.009,-0Zm6189.04,2564.82c1135.36,1135.42 1888.65,2499.11 2269.58,3925.16c-2018.04,147.567 -3867.24,101.247 -5520.17,-138.023c262.311,-1071.75 438.901,-2079.97 516.344,-2970.52c85.45,-983.409 75.16,-2148.23 -323.61,-2803.74c1155.11,443.8 2186.8,1113.52 3057.86,1987.13Zm-3860.76,4187.98c-226.976,854.058 -506.57,1743.57 -832.315,2641.71c-125.542,346.193 -255.561,686.993 -389.298,1021.01c-1223.63,-449.265 -2522.38,-1091.84 -3799.21,-1885.54c65.973,-192.904 134.058,-386.457 204.416,-580.432c302.631,-834.428 631.097,-1637.53 975.52,-2389.63c1205.14,584.086 2510.64,961.127 3840.89,1192.89Zm108.734,-6167.96c268.499,97.379 404.77,482.729 471.826,788.845c105.99,483.781 125.144,1163.3 55.435,1965.07c-76.34,877.63 -252.071,1874.43 -513.618,2935.8c-1286,-221.26 -2571.12,-586.071 -3754.34,-1160.37c504.284,-1051.63 1037.51,-1989.48 1570.64,-2753.7c460.452,-660.066 910.769,-1169.3 1302.22,-1472.67c204.26,-158.301 479.143,-327.744 719.84,-327.744c51.204,0 100.904,7.679 147.992,24.77Zm-7906.92,1333.83c703.572,1441.48 2059.51,2629.13 3518.65,3416.93c-353.492,770.304 -690.176,1592.42 -999.782,2446.04c-57.717,159.157 -113.838,318.03 -168.701,476.578c-1849.17,-1203.68 -3414.76,-2584.85 -4441.77,-3921.52l-0.421,-0.53c542.011,-924.681 1248.25,-1741.03 2092.02,-2417.5Zm3091.51,9536.81c-372.394,-76.624 -739.378,-156.677 -1100.06,-239.818c169.794,-706.509 378.381,-1443.06 621.881,-2193.57c1265.78,778.102 2553.04,1411.05 3771.87,1860.24c-152.909,365.04 -309.948,721.011 -470.362,1065.51c-925.784,-132.804 -1872.98,-297.508 -2823.33,-492.356Zm2084.75,1955.75c-1110.74,-478.613 -2252.74,-874.158 -3406.14,-1179.52c40.663,-209.309 85.236,-422.281 133.66,-638.492c320.732,72.924 646.001,143.511 975.346,211.464c963.82,197.116 1925.3,364.486 2866.46,499.897c-186.392,385.681 -376.666,755.367 -569.323,1106.65Zm-3135.55,3347.97c-268.481,-97.378 -404.77,-482.692 -471.826,-788.922c-105.972,-483.836 -125.144,-1163.18 -55.417,-1965.04c35.252,-405.533 91.945,-836.605 168.249,-1287.53c1100.47,293.296 2190.27,670.474 3251.46,1124.96c-239.041,412.183 -480.726,794.447 -722.396,1140.89c-460.47,660.102 -910.769,1169.28 -1302.24,1472.65c-247.708,191.894 -599.312,400.37 -867.833,302.992Zm11501.2,-4607.67c-629.99,113.248 -1415.67,179.317 -2333.61,188.752c-1424.25,17.379 -3059.95,-95.092 -4783.7,-322.279c145.052,-315.761 287.232,-640.225 425.922,-972.066c534.921,178.955 1054.03,320.691 1549.13,421.156c567.11,115.137 1084.86,171.981 1546.78,171.981c1082.96,-0 1858.73,-312.633 2241.95,-920.904c63.078,-100.177 114.529,-206.418 154.167,-318.638l-552.058,0c-9.142,16.79 -18.861,33.405 -28.964,49.581c-284.698,451.822 -920.793,685.22 -1813.76,685.014c-427.239,-0 -913.549,-53.322 -1447.9,-161.828c-465.826,-94.478 -954.308,-227.205 -1457.98,-394.365c132.919,-332.564 262.156,-671.499 386.938,-1015.59c336.511,-927.823 624.58,-1847.57 857.616,-2730.8c1888.48,278.41 3861.55,286.774 5756.89,143.835c119.861,581.402 180.46,1176.45 180.46,1780.77c-0,1177.42 -228.866,2319.43 -681.831,3395.38l-0.045,0Zm2220.23,-1521.9l-719.562,-16.52c231.152,299.658 283.18,575.722 139.111,809.311c-143.872,238.314 -488.404,434.173 -1002.73,582.792c389.321,-1035.81 585.216,-2128.28 585.216,-3249.06c0,-2423.84 -943.089,-4796.42 -2722.93,-6571.29c-1722.86,-1722.81 -4051.61,-2722.89 -6571.29,-2722.89c-1414.87,-0 -2782.01,313.57 -4025.35,913.128l-1.216,0.613c-399.721,-121.979 -789.078,-221.95 -1164.75,-298.098c-1896.35,-384.816 -3242.11,-118.851 -3788.75,748.923c-520.195,825.3 -237.002,2067.67 795.247,3516.61l-0.379,0.686c-230.635,426.114 -452.64,931.559 -615.835,1415.71c-1939.53,115.617 -2977.73,456.949 -3355.25,1075.17c-438.878,719.652 160.456,1685.49 2078.75,2624.58c264.25,129.767 547.407,257.179 844.7,384.587c229.798,2019.11 1149.6,3976.26 2659.18,5485.87c854.154,851.808 1847.51,1522.01 2954.14,1991.56c3390.04,1429.97 7431.33,760.338 10190.8,-1991.56c830.468,-830.463 1488.86,-1797.94 1953.63,-2869.16c946.135,-195.841 1569.08,-502.564 1816.81,-908.423c172.264,-280.769 151.112,-592.245 -49.549,-922.563l-0.018,0.023Z" style="fill:#adcbf9;fill-rule:nonzero;"/><path d="M18283.4,15600.6l-1285.34,15282.6c-0,0 -134.73,926.319 554.34,928.034c1133.08,2.666 5639.26,-0 5639.26,-0c0,-0 -852.566,-192.849 -842.281,-626.757c12.198,-511.464 1502.2,-15728.5 1502.2,-15728.5l-5568.19,144.635l0.009,0Z" style="fill:#d86713;fill-rule:nonzero;"/><path d="M23557.3,31533.9c-222.764,0.572 -4526.77,14.1 -5630.12,0c-480.977,-6.101 -565.207,-427.618 -569.208,-700.503c-2.095,-130.724 14.484,-227.338 14.484,-227.338l33.542,-397.32l85.176,-1012.45l75.274,-894.304l96.615,-1149.46l81.371,-970.145l913.357,-10859.3l5568.19,-144.498c-0,-0 -627.516,6368.18 -1071.33,11003.8c-49.549,516.609 -96.807,1011.69 -140.447,1473.99c-14.1,147.686 -27.628,291.942 -40.777,432.384c-41.161,438.673 -78.897,841.325 -111.67,1197.1c-17.151,187.32 -33.158,361.496 -47.45,520.995c-56.788,625.229 -89.946,1024.46 -90.326,1100.3c-0.192,44.212 3.43,85.373 10.862,123.676c91.277,487.073 738.807,503.081 822.46,503.081l-0.009,0.022Z" style="fill:#f99746;fill-rule:nonzero;"/><path d="M4760.51,7284.37l3130.76,12575.6l428.648,1722.29l1458.15,5857.46l27090.3,-0l-5374.6,-20155.4l-26733.3,0l0.028,0.032Z" style="fill:#f99746;fill-rule:nonzero;"/><path d="M4760.51,7284.32l-433.89,144.617l4874.67,20448.3l576.883,-437.529l-5017.68,-20155.4l0.019,0.028Z" style="fill:#ee9849;fill-rule:nonzero;"/><path d="M9201.29,27877.3l26923.6,-0l743.38,-437.53l-27090,-0l-576.883,437.53l-0.023,-0Z" style="fill:#d86713;fill-rule:nonzero;"/><rect x="18656.1" y="31540.1" width="5829.24" height="276.887" style="fill:#f1a34f;"/><path d="M35556,23725.7l-4395.67,-16174.9l-26443.2,0l-0,-266.482l26776.6,0l4381,16405.5l-318.807,35.824l0.027,0.018Z" style="fill:#f1a34f;fill-rule:nonzero;"/><path d="M23003.5,27877.1l-30.107,211.714l-5482.26,1107.54l75.274,-894.304l35.824,-424.952l5401.27,-0Z" style="fill:#d86713;fill-rule:nonzero;"/><path d="M20590.7,31540.1l-1319.26,-0c-575.493,-0.764 -1063.52,-2.479 -1344.21,-6.097c-480.977,-6.101 -565.206,-427.618 -569.208,-700.503l5456.32,-1026.55c-56.789,625.229 -89.947,1024.46 -90.326,1100.3l-0,4.194c-0,42.684 3.809,82.51 10.862,119.481c91.277,487.074 738.806,503.081 822.459,503.081c-125.77,0.38 -1550.59,4.761 -2966.65,6.097l0.009,-0Z" style="fill:#ec8432;"/><g><path d="M19884.7,31540.4c-211.335,-0 -417.329,-0.188 -613.229,-0.38l1319.26,0c-237.632,0.192 -475.068,0.38 -706.028,0.38Z" style="fill:#e78b37;fill-rule:nonzero;"/><path d="M9778.1,27439.7l-1458.13,-5857.46l13358.4,1777.17l-11900.2,4080.29" style="fill:#ec8432;fill-rule:nonzero;"/><path d="M4760.51,7284.32l26733.4,-0l4337.55,16198.6l-27176,-0l-3894.91,-16198.6l-0.018,-0Z" style="fill:#699dee;fill-rule:nonzero;"/><path d="M24041.4,25530.5c-77.181,-397.128 -461.732,-719.177 -859.047,-719.177c-397.324,-0 -656.676,322.049 -579.499,719.177c77.177,397.32 461.92,719.369 859.047,719.369c397.32,0 656.869,-322.049 579.499,-719.369Z" style="fill:#d86713;fill-rule:nonzero;"/><path d="M34570.6,22780.9l-25030.6,-0l-2834.75,-11292.3l-217.184,-865.907l-185.473,-738.656l-148.372,-591.367l-286.413,-1140.66l24669.7,-0l17.343,62.752l296.895,1077.91l163.117,591.367l203.712,738.656l238.775,865.907l3113.19,11292.3Z" style="fill:#e9f3fe;fill-rule:nonzero;"/><path d="M34570.6,22819.6l-25030.6,-0l-2834.75,-11292.4l-217.184,-865.893l-185.473,-738.67l-148.372,-591.348l-286.413,-1140.68l24669.7,-0l17.343,62.766l296.895,1077.91l163.117,591.348l203.712,738.67l238.775,865.893l3113.19,11292.4Z" style="fill:#e9f3fe;fill-rule:nonzero;"/><path d="M30851.9,9292.67l-24697.5,-0l-286.413,-1140.66l24660.4,0l26.677,62.753l296.896,1077.91Z" style="fill:#afcdfb;fill-rule:nonzero;"/><path d="M6554.12,8722.36c-29.782,-119.573 42.973,-216.513 162.55,-216.513c119.578,0 240.679,96.94 270.503,216.513c29.805,119.578 -42.954,216.517 -162.532,216.517c-119.573,-0 -240.697,-96.939 -270.521,-216.517Z" style="fill:#e9f3fe;fill-rule:nonzero;"/><path d="M7273.53,8722.36c-29.819,-119.573 42.936,-216.513 162.514,-216.513c119.577,0 240.678,96.94 270.502,216.513c29.8,119.578 -42.954,216.517 -162.532,216.517c-119.578,-0 -240.679,-96.939 -270.484,-216.517Z" style="fill:#e9f3fe;fill-rule:nonzero;"/><path d="M8048.14,8722.36c-29.801,-119.573 42.972,-216.513 162.55,-216.513c119.578,0 240.678,96.94 270.484,216.513c29.819,119.578 -42.954,216.517 -162.532,216.517c-119.578,-0 -240.679,-96.939 -270.502,-216.517Z" style="fill:#e9f3fe;fill-rule:nonzero;"/><path d="M17337.3,22819.6l-2474.95,-0c-23.723,-193.421 -44.628,-397.892 -63.398,-611.321c-33.217,-382.456 -58.654,-794.068 -77.424,-1222.07c-4.519,-98.902 -8.406,-198.374 -12.065,-298.798c-4.742,-127.678 -8.859,-256.878 -12.517,-386.65c-6.042,-220.478 -10.785,-443.434 -14.238,-667.726l-0.205,-0.764c-4.327,-286.029 -6.481,-573.969 -7.13,-860.762l-0,-0.192c-0.211,-71.648 -0.211,-143.3 -0.211,-214.569l0,-0.192c0,-67.458 0.211,-134.153 0.439,-201.04c2.136,-617.418 11.416,-1223.02 24.583,-1786.21c28.451,-1245.91 74.625,-2284.14 99.207,-2783.18l0,-0.228c9.906,-204.869 16.387,-318.752 16.387,-318.752l0.649,0.233c5.603,0.855 43.124,7.752 102.217,21.989c43.352,10.574 98.348,25.017 160.89,44.212l0.229,-0c56.5,17.031 118.832,38.165 184.388,62.976l0.645,0.211c111.501,42.917 231.628,97.703 344.633,166.492c1.734,0.86 3.449,1.733 5.182,2.593c184.864,114.735 351.795,266.784 427.829,467.559c65.36,170.613 218.36,1087.4 403.224,2305.07c5.15,34.717 10.272,69.649 15.628,105.034c97.758,646.573 203.327,1372.04 309.472,2112.94c112.43,784.921 224.672,1586.8 328.146,2329.8c88.04,637.235 169.79,1231.03 238.388,1733.34Z" style="fill:#2b478b;fill-rule:nonzero;"/><path d="M16644.1,22819.6l-2880.88,-0c-55.224,-237.628 -106.978,-466.873 -152.923,-682.018c-126.589,-592.643 -209.826,-1078.19 -205.312,-1339.26c2.154,-122.34 48.31,-218.003 127.678,-291.558c54.346,-50.5 124.224,-90.518 206.396,-121.769c243.061,-92.425 592.226,-107.476 957.779,-84.229c124.224,7.811 250.168,19.817 374.393,34.872c684.743,83.087 1320.38,252.684 1320.38,252.684c-0,0 42.519,171.885 92.635,472.21c37.731,225.436 79.844,523.47 111.094,875.439c18.084,204.47 32.778,427.235 40.974,664.675c2.474,71.461 4.953,144.444 7.793,218.955Z" style="fill:#233862;fill-rule:nonzero;"/><path d="M15313.7,20801.7l-28.676,208.092l-139.55,1010.74l-23.722,172.456l-86.48,626.564l-3002.3,0c-23.288,-414.09 -44.861,-817.698 -48.954,-1169.47c-0.421,-38.874 -0.65,-77.177 -0.65,-114.721c0,-529.565 46.595,-922.312 198.411,-1021.6c172.118,-112.237 742.982,-81.559 1350.95,-7.048c60.598,7.24 121.636,15.244 182.673,23.439c354.348,47.638 708.906,106.521 994.02,157.213c147.933,26.298 277.133,50.496 377.617,69.745c141.91,27.249 226.67,44.592 226.67,44.592Z" style="fill:#c65447;fill-rule:nonzero;"/><path d="M11983.4,13988.3c0,0 1649.38,-1066.51 2832.42,-521.086c188.523,86.914 403.572,329.463 557.505,499.097c427.637,471.204 1263.25,7956.32 1263.25,7956.32c0,0 -2372.01,803.407 -4653.18,-272.5l0,-7661.83l0,0.004Z" style="fill:#fff;fill-rule:nonzero;"/><path d="M14909.7,13440.2c0,-0 1669.74,684.304 1895.93,1210.1c226.195,525.797 961.187,3754.59 961.187,4133.23c-0,378.646 -1279.82,84.609 -1485.8,-525.948c-171.121,-507.083 -748.219,-2064.94 -1052.52,-3050.24l-318.789,-1767.14Z" style="fill:#2b478b;fill-rule:nonzero;"/><path d="M14562.9,13961.6c-364.523,71.479 -899.984,-4.724 -1292.02,-263.106c176.988,-422.762 249.555,-756.566 275.377,-972.566c1.505,-11.488 2.63,-22.602 3.755,-33.349c11.699,-111.954 10.002,-187.91 4.532,-222.783l942.385,0c0,0 257.637,117.803 257.637,199.229c0,43.526 0.38,85.181 1.144,124.952c1.888,108.373 6.21,202.984 11.872,284.222c17.914,264.442 48.25,389.01 48.25,389.01c0,-0 115.156,422.208 -252.931,494.391Z" style="fill:#ffb27d;fill-rule:nonzero;"/><path d="M14767.6,13078.2c-713.955,137.968 -1128.42,-252.19 -1221.33,-352.271c-13.204,-14.311 -19.991,-22.79 -19.991,-22.79c7.546,-3.773 15.454,-7.166 23.745,-10.56c265.755,-107.627 868.881,-22.049 1205.7,101.398c1.889,108.373 6.211,202.984 11.873,284.223Z" style="fill:#e2915a;fill-rule:nonzero;"/><path d="M13313,12314.9c127.582,686.628 1013.58,664.085 1396.45,620.921c107.759,-11.983 175.543,-25.74 175.543,-25.74c121.503,-32.453 189.286,-223.816 220.784,-474.483c62.505,-496.083 -16.465,-1224.29 -100.237,-1410.53c-126.15,-280.257 -363.705,-583.382 -1255.95,-364.679c-892.397,218.863 -600.304,774.726 -436.597,1654.51Z" style="fill:#ffb27d;fill-rule:nonzero;"/><path d="M15038.8,10642c-121.96,-168.82 -380.53,-375.12 -615.359,-502.166c-504.508,-272.944 -1150.23,8.594 -1152.93,9.774c-728.781,320.43 -919.092,877.99 -532.712,1746.55c408.584,918.466 797.612,815.106 797.612,815.106c-0,-0 -82.57,-51.356 -75.12,-337.618c0.439,-16.277 1.089,-29.86 1.83,-41.559c3.755,-58.654 -16.922,-117.483 -60.768,-156.623c-90.518,-80.799 -134.652,-325.136 -58.847,-393.167c91.433,-82.075 219.947,17.627 260.994,94.292c35.861,54.136 100.1,73.115 159.934,35.288c226.826,-143.396 79.487,-430.207 296.228,-605.659c216.746,-175.465 656.562,-28.145 981.712,-167.979c425.621,-158.584 89.32,-369 -2.57,-496.239Z" style="fill:#233862;fill-rule:nonzero;"/><path d="M15155.9,22819.6l-3591.29,-0c25.648,-744.711 58.655,-1633.87 93.376,-2534.08c8.841,-233.438 18.12,-467.828 27.171,-700.311c4.098,-98.522 7.757,-196.472 11.644,-294.417c79.368,-1999.17 158.091,-3804.55 174.688,-3901.81c37.75,-219.983 73.327,-407.399 111.936,-570.022c112.795,-473.605 252.99,-733.259 558.799,-956.696c29.769,-22.657 274.335,-145.797 489.782,-253.196c175.982,-87.335 332.55,-163.693 337.293,-165.847l-0,-0.229l0.228,-0c35.577,17.265 74.836,66.869 116.244,140.424c41.408,73.523 84.97,171.45 129.598,285.75c164.133,421.632 341.409,1066.91 464.55,1548.91l0.439,1.509l0.228,0.874l0,0.21c79.35,311.206 136.29,553.407 152.471,623.061c27.591,117.328 63.836,344.419 106.749,651.966l-0,0.855c58.028,419.56 127.238,988.595 200.583,1634.57l-0,0.192c7.546,66.507 15.074,133.582 22.62,201.232c8.653,77.37 17.475,155.69 26.316,234.77l-0,0.384c2.822,25.342 5.625,50.88 8.214,76.222l-0,0.192c28.241,255.922 56.711,519.659 84.975,788.158l0.205,0.764c24.148,221.241 359.745,381.505 383.028,606.935c1.715,16.392 3.448,49.549 5.603,95.663c4.308,95.471 9.489,246.588 15.741,421.523c2.594,77.749 5.393,160.451 8.425,244.68c13.148,374.832 29.325,785.492 47.66,983.103c0.855,9.339 1.71,21.152 2.36,35.636c2.172,39.446 3.887,97.374 5.392,170.362c3.032,154.734 4.537,376.355 4.976,628.659Z" style="fill:#2b478b;fill-rule:nonzero;"/><path d="M12706,16194.9c-1.065,4.555 -57.186,2021.51 1460.06,2266.57c1517.25,245.065 509.141,309.852 509.141,309.852c0,0 -2854.7,-121.384 -2901.82,-196.658c-47.13,-75.463 932.62,-2379.76 932.62,-2379.76Z" style="fill:#233862;fill-rule:nonzero;"/><path d="M13988,19327.4c0,-0 -28.47,20.196 -83.127,55.453l-2.836,1.715c-231.458,147.682 -918.447,550.531 -1918.7,820.552c-104.961,28.397 -213.539,55.454 -325.306,80.228c8.864,-233.247 18.107,-467.637 27.139,-700.119c-132.118,-10.291 -258.574,-27.062 -376.016,-52.024c3.983,-30.683 8.118,-61.362 12.06,-92.233c127.238,-52.215 253.695,-102.523 375.655,-150.16c99.322,-38.875 195.438,-75.846 286.468,-109.955c410.889,-156.07 715.464,-261.831 715.464,-261.831l1216.26,385.122l72.947,23.252Z" style="fill:#233862;fill-rule:nonzero;"/><path d="M14309.9,19293.6c0,0 -156.261,39.062 -405.039,89.183l-2.648,0.571c-458.755,92.041 -1229.99,221.429 -1918.89,214.381c-101.586,-1.143 -201.479,-4.957 -298.167,-12.577c-132.118,-10.29 -258.574,-27.061 -376.016,-52.023c-251.788,-53.166 -462.702,-143.113 -600.665,-283.747c-1024.74,-1043.7 559.22,-4789.88 892.241,-5154.38c388.841,-425.579 1098.45,-574.848 1490.31,-626.107c16.386,-2.077 32.032,-4.153 47.294,-6.037c137.775,-16.41 226.176,-19.785 231.074,-19.996l0.192,0c0,0 -30.72,98.769 -82.171,266.331c-19.991,64.829 -43.16,140.044 -68.602,223.908c-240.679,788.218 -705.114,2337.3 -909.777,3210.97c-75.023,319.589 -115.173,548.816 -96.879,617.244c79.903,298.208 907.887,451.803 1432.43,519.641c218.822,28.205 384.857,41.541 421.998,44.399c2.63,0 5.086,0.192 7.715,0.572l30.359,124.439l72.567,298.419l71.419,293.081l61.266,251.733l0,-0.005Z" style="fill:#2b478b;fill-rule:nonzero;"/><path d="M17168,21089.3l-3519.45,-148.258l714.032,-4386.01l3519.45,148.277l-714.032,4385.99Z" style="fill:#f99746;fill-rule:nonzero;"/><path d="M14074.3,18325.9c0,0 685.11,-47.637 719.466,112.05c80.095,372.165 -588.985,677.828 -805.749,656.864c-216.745,-20.769 -71.382,-793.684 86.283,-768.914Z" style="fill:#ffb27d;fill-rule:nonzero;"/><path d="M17689.6,17594c0,-0 -655.533,-205.047 -725.85,-57.553c-164.073,343.582 416.186,795.783 631.902,825.511c215.712,29.727 253.064,-755.765 93.948,-767.958Z" style="fill:#ffb27d;fill-rule:nonzero;"/><path d="M13440.6,13222.6c-0,-0 -288.22,137.378 -432.705,344.706c0,0 1077.34,1870.51 1072.53,1852.98c-4.821,-17.53 -364.181,-1958.09 -639.828,-2197.68Z" style="fill:#233862;fill-rule:nonzero;"/><path d="M14782.5,13249c94.877,35.805 276.864,222.233 317.874,325.306l128.075,1632.97c0,0 -273.456,-1198.4 -412.64,-1740.11c-35.39,-137.698 -28.873,-179.527 -33.309,-218.172Z" style="fill:#233862;fill-rule:nonzero;"/><path d="M15529.3,16604.2c0,0 27.82,-121.69 188.024,-107.549c160.264,14.136 1060.09,58.403 1060.09,58.403c0,-0 173.605,-2.859 157.593,108.373l-1405.71,-59.227Z" style="fill:#c65447;fill-rule:nonzero;"/><path d="M14496.9,12469.8c0,0 116.829,106.484 305.297,73.496c111.785,-19.552 174.345,-164.91 174.345,-164.91c0,-0 -214.802,-38.623 -479.642,91.414Z" style="fill:#fff;fill-rule:nonzero;"/><path d="M31173.5,13834.7l-2599.64,9.605l-843.04,-3227.43l2599.63,-9.604l843.041,3227.43Z" style="fill:#fff;fill-rule:nonzero;"/><path d="M29685.8,11031.4l-1090.01,4.02l-12.578,-47.756l1090.01,-4.02l12.577,47.756Z" style="fill:#adcbf9;fill-rule:nonzero;"/><path d="M29859.8,11164l-1368.61,5.049l-12.385,-47.752l1368.61,-5.053l12.385,47.756Z" style="fill:#adcbf9;fill-rule:nonzero;"/><path d="M30236.1,11820.8l-1777.74,6.572l-12.385,-47.775l1777.55,-6.554l12.573,47.757Z" style="fill:#adcbf9;fill-rule:nonzero;"/><path d="M30277.3,11978.2l-1777.75,6.559l-12.385,-47.738l1777.55,-6.572l12.582,47.751Z" style="fill:#adcbf9;fill-rule:nonzero;"/><path d="M30318.3,12135.6l-1777.55,6.559l-12.577,-47.756l1777.75,-6.554l12.385,47.751Z" style="fill:#adcbf9;fill-rule:nonzero;"/><path d="M30359.4,12293l-1777.55,6.572l-12.577,-47.77l1777.55,-6.558l12.577,47.756Z" style="fill:#adcbf9;fill-rule:nonzero;"/><path d="M30400.6,12450.3l-1777.74,6.554l-12.39,-47.751l1777.55,-6.559l12.577,47.756Z" style="fill:#adcbf9;fill-rule:nonzero;"/><path d="M30500.6,12833.2l-1777.74,6.572l-12.39,-47.756l1777.56,-6.576l12.577,47.76Z" style="fill:#adcbf9;fill-rule:nonzero;"/><path d="M30541.6,12990.6l-1777.55,6.572l-12.573,-47.774l1777.74,-6.554l12.385,47.756Z" style="fill:#adcbf9;fill-rule:nonzero;"/><path d="M30582.7,13148l-1777.55,6.577l-12.582,-47.775l1777.55,-6.553l12.577,47.751Z" style="fill:#adcbf9;fill-rule:nonzero;"/><path d="M30623.9,13305.3l-1777.75,6.558l-12.385,-47.756l1777.55,-6.553l12.582,47.751Z" style="fill:#adcbf9;fill-rule:nonzero;"/><path d="M30664.9,13462.7l-1777.55,6.554l-12.385,-47.752l1777.55,-6.558l12.381,47.756Z" style="fill:#adcbf9;fill-rule:nonzero;"/><path d="M32221,17845.2l-2599.64,9.531l-843.044,-3227.4l2599.63,-9.586l843.045,3227.45Z" style="fill:#fff;fill-rule:nonzero;"/><path d="M30733.3,15041.8l-1090.01,4.02l-12.577,-47.756l1090.2,-4.02l12.385,47.756Z" style="fill:#adcbf9;fill-rule:nonzero;"/><path d="M30907.3,15174.5l-1368.42,5.049l-12.577,-47.756l1368.61,-5.045l12.389,47.752Z" style="fill:#adcbf9;fill-rule:nonzero;"/><path d="M31283.6,15831.3l-1777.56,6.572l-12.577,-47.775l1777.74,-6.553l12.39,47.756Z" style="fill:#adcbf9;fill-rule:nonzero;"/><path d="M31324.8,15988.7l-1777.74,6.553l-12.385,-47.751l1777.55,-6.559l12.573,47.757Z" style="fill:#adcbf9;fill-rule:nonzero;"/><path d="M31365.8,16146l-1777.55,6.553l-12.385,-47.756l1777.55,-6.558l12.389,47.761Z" style="fill:#adcbf9;fill-rule:nonzero;"/><path d="M31406.9,16303.4l-1777.55,6.553l-12.577,-47.756l1777.74,-6.554l12.389,47.757Z" style="fill:#adcbf9;fill-rule:nonzero;"/><path d="M31448.1,16460.7l-1777.75,6.554l-12.385,-47.751l1777.55,-6.554l12.577,47.751Z" style="fill:#adcbf9;fill-rule:nonzero;"/><path d="M31548.1,16843.7l-1777.75,6.576l-12.385,-47.774l1777.56,-6.554l12.577,47.752Z" style="fill:#adcbf9;fill-rule:nonzero;"/><path d="M31589.1,17001l-1777.55,6.668l-12.389,-47.83l1777.55,-6.48l12.385,47.642Z" style="fill:#adcbf9;fill-rule:nonzero;"/><path d="M31630.3,17158.4l-1777.55,6.668l-12.573,-47.83l1777.74,-6.48l12.385,47.642Z" style="fill:#adcbf9;fill-rule:nonzero;"/><path d="M31671.4,17315.8l-1777.74,6.481l-12.39,-47.642l1777.55,-6.668l12.577,47.829Z" style="fill:#adcbf9;fill-rule:nonzero;"/><path d="M31712.4,17473.2l-1777.55,6.462l-12.39,-47.642l1777.55,-6.668l12.39,47.848Z" style="fill:#adcbf9;fill-rule:nonzero;"/><path d="M33275.8,21882.6l-2599.83,9.527l-843.04,-3227.34l2599.82,-9.718l843.045,3227.53Z" style="fill:#fff;fill-rule:nonzero;"/><path d="M31787.8,19079.2l-1090.01,4.002l-12.577,-47.834l1090.2,-4.002l12.385,47.834Z" style="fill:#adcbf9;fill-rule:nonzero;"/><path d="M31961.9,19211.9l-1368.42,5.145l-12.573,-47.834l1368.61,-5.145l12.385,47.834Z" style="fill:#adcbf9;fill-rule:nonzero;"/><path d="M32338.2,19868.8l-1777.56,6.476l-12.577,-47.637l1777.74,-6.673l12.39,47.834Z" style="fill:#adcbf9;fill-rule:nonzero;"/><path d="M32379.4,20026.1l-1777.75,6.481l-12.385,-47.83l1777.56,-6.48l12.577,47.829Z" style="fill:#adcbf9;fill-rule:nonzero;"/><path d="M32420.5,20183.4l-1777.74,6.672l-12.389,-47.833l1777.55,-6.476l12.577,47.637Z" style="fill:#adcbf9;fill-rule:nonzero;"/><path d="M32461.5,20340.7l-1777.55,6.668l-12.572,-47.83l1777.74,-6.48l12.384,47.642Z" style="fill:#adcbf9;fill-rule:nonzero;"/><path d="M32502.6,20498.2l-1777.56,6.476l-12.577,-47.637l1777.56,-6.673l12.577,47.834Z" style="fill:#adcbf9;fill-rule:nonzero;"/><path d="M32602.7,20881.2l-1777.55,6.476l-12.577,-47.829l1777.55,-6.481l12.577,47.834Z" style="fill:#adcbf9;fill-rule:nonzero;"/><path d="M32643.9,21038.4l-1777.74,6.669l-12.389,-47.83l1777.55,-6.48l12.577,47.641Z" style="fill:#adcbf9;fill-rule:nonzero;"/><path d="M32684.8,21195.8l-1777.55,6.673l-12.577,-47.834l1777.74,-6.476l12.385,47.637Z" style="fill:#adcbf9;fill-rule:nonzero;"/><path d="M32726,21353.2l-1777.55,6.481l-12.577,-47.642l1777.55,-6.668l12.577,47.829Z" style="fill:#adcbf9;fill-rule:nonzero;"/><path d="M32767.2,21510.6l-1777.74,6.476l-12.385,-47.638l1777.55,-6.672l12.577,47.834Z" style="fill:#adcbf9;fill-rule:nonzero;"/><path d="M29857.5,21909.8l-9092.41,33.542l-2616.78,-10018.3l1184.34,-1275.46l7576.31,-27.971l2948.55,11288.2l-0,-0.023Z" style="fill:#fff;fill-rule:nonzero;"/><path d="M24404.4,12314.7l-3204.47,11.832l-36.78,-140.383l3204.47,-11.836l36.78,140.387Z" style="fill:#adcbf9;fill-rule:nonzero;"/><path d="M24916,12704.7l-4023.32,14.846l-36.587,-140.387l4023.12,-14.846l36.779,140.387Z" style="fill:#adcbf9;fill-rule:nonzero;"/><path d="M26022.3,14635.6l-5225.73,19.305l-36.78,-140.405l5225.73,-19.287l36.775,140.387l0.005,0Z" style="fill:#adcbf9;fill-rule:nonzero;"/><path d="M26143,15098.2l-5225.73,19.286l-36.78,-140.387l5225.73,-19.286l36.775,140.387l0.005,0Z" style="fill:#adcbf9;fill-rule:nonzero;"/><path d="M26263.9,15560.8l-5225.73,19.287l-36.588,-140.387l5225.55,-19.287l36.78,140.387l-0.009,0Z" style="fill:#adcbf9;fill-rule:nonzero;"/><path d="M26384.7,16023.4l-5225.73,19.305l-36.592,-140.406l5225.55,-19.286l36.78,140.387l-0.004,0Z" style="fill:#adcbf9;fill-rule:nonzero;"/><path d="M26505.5,16486l-5225.78,19.304l-36.587,-140.405l5225.73,-19.286l36.593,140.387l0.041,-0Z" style="fill:#adcbf9;fill-rule:nonzero;"/><path d="M26799.5,17611.8l-5225.73,19.227l-36.588,-140.255l5225.73,-19.437l36.588,140.465Z" style="fill:#adcbf9;fill-rule:nonzero;"/><path d="M26920.4,18074.4l-5225.73,19.249l-36.588,-140.446l5225.73,-19.245l36.583,140.442l0.005,-0Z" style="fill:#adcbf9;fill-rule:nonzero;"/><path d="M27041.2,18536.9l-5225.78,19.437l-36.588,-140.442l5225.73,-19.245l36.592,140.25l0.042,-0Z" style="fill:#adcbf9;fill-rule:nonzero;"/><path d="M27162,18999.6l-5225.55,19.245l-36.78,-140.442l5225.73,-19.245l36.587,140.442l0.009,0Z" style="fill:#adcbf9;fill-rule:nonzero;"/><path d="M27282.8,19462.3l-5225.55,19.245l-36.78,-140.442l5225.78,-19.25l36.587,140.447l-0.036,-0Z" style="fill:#adcbf9;fill-rule:nonzero;"/><path d="M18148.3,11925.1l1516.1,-5.603l-331.768,-1269.86l-1184.34,1275.46Z" style="fill:#adcbf9;fill-rule:nonzero;"/><path d="M40048.1,29766.9l-7402.16,0l-0,-2614.31l7425.8,0c577.4,0 1045.42,468.017 1045.42,1045.22l-0,500.035c-0,590.357 -478.691,1069.05 -1069.05,1069.05Z" style="fill:#fcecdb;fill-rule:nonzero;"/><path d="M47434.9,28228.1l0,393.318c0,210.192 -56.409,407.038 -155.305,576.256c-198.374,340.344 -567.494,569.209 -990.155,569.209l-13870.4,-0c-91.854,-0 -166.168,-74.511 -166.168,-165.98l-0,-59.076c-0,-91.469 74.314,-165.975 166.168,-165.975l8455.19,-0c45.355,-55.074 85.181,-114.721 118.723,-178.178c79.272,-149.209 124.055,-319.379 124.055,-499.838l-0,-500.035c-0,-91.849 -12.01,-181.224 -34.306,-266.02c-37.918,-143.877 -105.569,-275.744 -196.087,-388.173l-8467.59,-0c-91.853,-0 -166.167,-74.319 -166.167,-166.172l-0,-58.692c-0,-91.848 74.314,-166.167 166.167,-166.167l13940.3,-0c491.268,-0 905.546,329.289 1034.17,779.204c27.061,94.135 41.354,193.608 41.354,296.319l0.013,-0Z" style="fill:#699dee;fill-rule:nonzero;"/><path d="M47393.7,27931.8l-6310.83,0c-37.918,-143.876 -105.569,-275.743 -196.087,-388.173l-8467.58,0c-91.854,0 -166.168,-74.318 -166.168,-166.172l-0,-58.691c-0,-91.849 74.314,-166.168 166.168,-166.168l13940.3,0c491.268,0 905.546,329.29 1034.17,779.204l0.046,0Z" style="fill:#548ee2;fill-rule:nonzero;"/><path d="M32646,28459.6l1027.12,44.019l-1027.12,26.49l-0,-70.509Z" style="fill:#f4d2b8;fill-rule:nonzero;"/><path d="M32646,28869.9l2443.37,44.02l-2443.37,26.485l-0,-70.505Z" style="fill:#f4d2b8;fill-rule:nonzero;"/><path d="M34411.3,31794.8l7879.71,-0l0,-2033.48l-7943.74,-0c-543.858,-0 -984.625,440.959 -984.625,984.822c-0,579.115 469.352,1048.65 1048.66,1048.65l-0.004,-0Z" style="fill:#2b478b;fill-rule:nonzero;"/><path d="M41838.6,31794.8l8968.01,-0l0,-2033.48l-8990.65,-0c-553.01,-0 -1001.21,448.199 -1001.21,1001.21l-0,8.383c-0,565.394 458.49,1023.88 1023.88,1023.88l-0.037,-0Z" style="fill:#fcecdb;fill-rule:nonzero;"/><path d="M40216,31794.8l10902,-0c84.042,-0 152.072,-68.03 152.072,-152.068c0,-84.037 -68.03,-152.068 -152.072,-152.068l-10902,0c-84.042,0 -152.067,68.031 -152.067,152.068c-0,84.038 68.025,152.068 152.067,152.068Z" style="fill:#2b478b;fill-rule:nonzero;"/><path d="M40216,30065.5l10902,-0c84.042,-0 152.072,-68.03 152.072,-152.068c0,-84.037 -68.03,-152.068 -152.072,-152.068l-10902,0c-84.042,0 -152.067,68.031 -152.067,152.068c-0,84.038 68.025,152.068 152.067,152.068Z" style="fill:#2b478b;fill-rule:nonzero;"/><path d="M50806.5,30778.2l-1211.4,34.109l1211.4,20.58l-0,-54.689Z" style="fill:#f4d2b8;fill-rule:nonzero;"/><path d="M50806.5,30310.2l-2882.05,34.114l2882.05,20.58l-0,-54.694Z" style="fill:#f4d2b8;fill-rule:nonzero;"/><path d="M47954.4,30337.4c-0,-0 123.483,87.467 164.452,231.147c7.24,24.967 11.818,52.024 12.765,80.228c6.865,190.942 -0,622.755 -0,622.755l364.546,-215.909l363.778,215.909l-0,-585.403c-0,-110.719 -31.251,-218.196 -89.178,-288.7c-28.013,-34.301 -62.126,-60.027 -100.808,-60.027l-715.555,-0Z" style="fill:#699dee;fill-rule:nonzero;"/><path d="M47954.4,30337.4c-0,-0 123.483,87.467 164.452,231.147l730.611,8.576c0,-0 -28.584,-205.806 -179.508,-239.723l-715.555,-0Z" style="fill:#568cdb;fill-rule:nonzero;"/><path d="M40921.6,27158.1l8050.84,0l-0,-2987.62l-8077.33,0c-644.662,0 -1167.38,522.519 -1167.38,1167.38l0,626.372c0,659.343 534.529,1193.87 1193.87,1193.87Z" style="fill:#fcecdb;fill-rule:nonzero;"/><path d="M39917.2,25329.7l0,642.956c1.903,274.596 153.971,512.8 377.306,640.285c109.956,62.501 237.061,98.137 372.166,98.137l8742.95,0c102.523,0 185.605,83.087 185.605,185.605l-0,75.847c-0,102.518 -83.082,185.605 -185.605,185.605l-15103.7,-0c-433.336,-0 -816.363,-215.525 -1047.7,-545.194c-145.784,-207.905 -231.536,-460.776 -231.536,-734.041l-0,-507.275c-0,-187.32 42.876,-364.541 119.294,-522.326c194.372,-401.893 605.604,-678.779 1081.82,-678.779l15181.8,-0c102.523,-0 185.605,82.894 185.605,185.417l0,75.842c0,102.331 -83.082,185.417 -185.605,185.417l-8769.62,-0c-209.616,-0 -399.414,89.37 -531.857,232.103c-117.383,126.342 -189.799,294.797 -190.938,480.401Z" style="fill:#b5453c;fill-rule:nonzero;"/><path d="M48972.5,25664.2l-1120.88,50.116l1120.88,30.299l-0,-80.415Z" style="fill:#f4d2b8;fill-rule:nonzero;"/><path d="M48972.5,24976.7l-2666.52,50.116l2666.52,30.299l-0,-80.415Z" style="fill:#f4d2b8;fill-rule:nonzero;"/><path d="M46333.2,25016.9c-0,0 176.078,94.712 234.202,250.397c10.478,27.253 16.959,56.409 18.294,87.088c9.719,206.949 0,675.158 0,675.158l519.66,-234.011l518.132,234.011l0,-634.568c0,-120.054 -44.403,-236.677 -127.101,-313.283c-40.022,-36.967 -88.423,-64.792 -143.492,-64.792l-1019.7,0Z" style="fill:#f99746;fill-rule:nonzero;"/><path d="M46333.2,25016.9c-0,0 176.078,94.712 234.202,250.397l1041.22,9.339c-0,0 -40.777,-222.956 -255.73,-259.736l-1019.7,0Z" style="fill:#ed7d2b;fill-rule:nonzero;"/><path d="M41061.7,23062.7c460.781,801.879 1040.28,1111.54 1040.28,1111.54l2411.36,-0c-0,-0 -3803.22,-1723.43 -3451.63,-1111.54Z" style="fill:#233862;fill-rule:nonzero;"/><path d="M42913.6,29268.1c62.885,72.032 70.889,152.447 39.826,238.392l-0.764,1.143c-57.548,158.928 -247.346,336.53 -468.203,513.751c-28.205,22.68 -53.167,43.448 -75.083,62.506c-5.717,5.145 -11.434,10.098 -16.958,15.243c-4.386,3.814 -8.576,8.004 -12.957,11.626c-205.81,189.799 -128.249,233.246 -498.133,618.181c-421.517,438.668 -711.74,446.485 -794.255,406.654c-69.932,-34.109 72.032,-266.784 229.245,-528.235c7.62,-12.577 15.056,-25.341 22.868,-38.11c20.964,-34.873 41.732,-70.125 62.693,-104.998c184.274,-314.81 136.824,-462.492 93.184,-930.7c-35.44,-380.741 -592.072,-2126.28 -592.072,-2126.28l807.981,-139.298c-0,-0 243.152,1390.14 511.276,1604.14c143.3,114.145 303.751,115.667 441.719,200.277c9.719,5.716 19.245,11.817 28.584,18.106c78.321,51.831 157.972,105.377 221.049,177.601Z" style="fill:#ffb27d;fill-rule:nonzero;"/><path d="M42913.6,29268.1c62.885,72.032 70.889,152.447 39.826,238.392l-0.764,1.143c-70.312,158.736 -255.537,335.386 -468.967,512.036c-27.821,23.06 -52.403,44.404 -74.319,64.221c-5.717,5.145 -11.434,10.098 -16.958,15.243c-4.386,3.814 -8.576,8.004 -12.957,11.626c-205.81,189.799 -128.249,233.246 -498.133,618.181c-421.517,438.668 -711.74,446.485 -794.255,406.654c-69.932,-34.109 72.032,-266.784 229.245,-528.235c82.135,-30.107 463.255,-185.033 751.571,-553.768c253.827,-323.953 423.046,-740.138 596.078,-981.2c9.719,5.716 19.245,11.817 28.584,18.106c78.321,51.831 157.972,105.377 221.049,177.601Z" style="fill:#233862;fill-rule:nonzero;"/><path d="M36398.9,28763.5c-49.929,249.441 -405.324,207.708 -802.456,110.714c-397.319,-96.994 -302.8,18.294 -868.006,-44.211c-565.39,-62.693 -736.516,-273.452 -753.858,-357.49c-15.436,-74.51 263.93,-100.808 563.487,-135.301c37.736,-4.189 75.467,-8.955 113.385,-13.528c338.249,-42.497 585.975,-260.688 893.161,-440.004c290.969,-169.79 725.274,-861.526 725.274,-861.526l775.202,61.357c-0,0 -406.846,617.99 -564.059,886.493c-92.631,157.972 -87.66,367.021 -76.226,528.235c6.101,87.847 11.795,177.409 -5.904,265.261Z" style="fill:#ffb27d;fill-rule:nonzero;"/><path d="M35596.4,28874.3c-397.32,-96.994 -302.8,18.293 -868.007,-44.212c-565.39,-62.693 -736.515,-273.452 -753.858,-357.489c-15.435,-74.511 263.93,-100.809 563.488,-135.302l2.863,5.717c-0,0 339.007,240.299 809.503,251.54c383.407,9.34 789.663,-100.424 1054.37,-96.23c6.101,87.847 11.795,177.409 -5.904,265.261c-49.928,249.441 -405.323,207.709 -802.455,110.715Z" style="fill:#233862;fill-rule:nonzero;"/><path d="M39369.5,23806.9c0,0 724.697,1949.82 724.697,1949.82l946.14,2546.09c0,-0 256.686,24.962 502.505,-45.927c226.391,-65.364 486.122,-236.485 486.122,-236.485c0,0 -262.594,-2733.79 -752.714,-4303.06c-125.578,-402.849 -266.404,-728.708 -421.71,-912.026c-759.579,-897.922 -1485.04,1001.59 -1485.04,1001.59Z" style="fill:#233862;fill-rule:nonzero;"/><path d="M40106.4,20710.1c474.689,-153.211 1828.81,43.448 3188.85,309.661l284.89,-469.732l2937.88,-229.437c0,0 969.575,2149.91 438.861,3519.85c-78.129,201.233 -233.055,330.433 -497.364,334.627l-42.877,-0c0,-0 -1748.59,-0.952 -2316.45,-0.952c-1461.03,0 -3092.05,-1004.26 -3303.19,-1046.56c-345.296,-68.982 -483.451,621.611 -828.748,1346.88c-345.489,725.279 -3246.4,3211.91 -3246.4,3211.91c0,0 -445.908,4.382 -630.182,-64.6c-197.994,-74.319 -270.424,-170.741 -270.424,-170.741c-0,-0 3214.4,-6395.62 4285.16,-6740.92l0,0.013Z" style="fill:#2b478b;fill-rule:nonzero;"/><path d="M43597.3,16504c1046.17,576.046 3168.45,1770.29 3179.51,1762.48c0,-0 780.156,294.037 1222.64,-0c737.663,-489.74 1133.27,-1808.19 -215.716,-2942.75c-672.867,-565.852 -1150.79,-703.609 -1223.4,-1607.12c-39.451,-490.156 -709.459,-2107.9 -1822.72,-1958.27c-92.996,12.499 -665.823,39.213 -1042.18,236.846c-958.899,503.629 -1666.65,4285.86 -98.137,4508.83Z" style="fill:#233862;fill-rule:nonzero;"/><path d="M44474.5,16013.7c-4.573,2.955 514.707,180.273 862.098,26.472c326.619,-144.371 574.162,-681.867 569.209,-682.155c-148.45,-6.861 -311.759,-136.784 -437.342,-989.35l-63.265,22.693l-1064.09,382.872c0,0 77.182,341.432 126.914,666.491c42.117,272.922 64.605,534.373 6.48,572.977Z" style="fill:#ffb27d;fill-rule:nonzero;"/><path d="M44340.9,14774.2c0,0 77.182,341.432 126.914,666.491c611.321,-110.01 851.048,-718.93 937.18,-1049.36l-1064.09,382.872Z" style="fill:#ed975d;fill-rule:nonzero;"/><path d="M44182.7,15113.1c0,-0 1455.7,-195.383 1320.02,-1100.13c-135.484,-904.708 -39.066,-1539.24 -974.335,-1452.74c-935.086,86.493 -1063.52,458.737 -1091.73,771.735c-28.2,312.976 363.783,1808.65 746.046,1781.14Z" style="fill:#ffb27d;fill-rule:nonzero;"/><path d="M43489.4,12836.1c0,-0 932.031,803.1 1565.84,867.851c633.996,64.733 873.911,-138.745 873.911,-138.745c0,0 -373.689,-310.213 -598.552,-810.857c-66.123,-147.567 -206.185,-248.833 -367.405,-262.745c-452.58,-39.085 -1310.68,-56.899 -1473.79,344.496Z" style="fill:#233862;fill-rule:nonzero;"/><path d="M44072,12764.1c-0,0 -311.755,301.451 -409.897,525.034c-94.707,215.753 -123.099,731.795 -47.637,936.741c-0,0 -485.743,-944.516 -210.759,-1403.4c291.558,-486.599 668.293,-58.372 668.293,-58.372Z" style="fill:#233862;fill-rule:nonzero;"/><path d="M43248.3,18158.3c44.019,2946.83 12.197,2331.13 334.434,2610.68c77.754,67.266 296.132,107.476 583.501,126.342c903.639,60.026 2491.97,-88.803 2552.37,-255.735c208.472,-577.971 61.362,-757.48 235.342,-1642.06c18.106,-93.948 40.402,-195.899 66.694,-306.806c145.02,-607.507 286.226,-814.264 -228.101,-1790.32c-466.493,-884.242 -951.088,-1601.87 -994.724,-1575.98c-1230.65,730.575 -1329.93,116.509 -1329.93,116.509c-0,0 -1241.12,1279.91 -1219.59,2717.37Z" style="fill:#fff;fill-rule:nonzero;"/><path d="M40094.2,25756.7l946.14,2546.09c-0,-0 256.686,24.962 502.505,-45.927c226.391,-65.364 486.122,-236.484 486.122,-236.484c0,-0 -262.594,-2733.79 -752.714,-4303.06l-1182.05,2039.38Z" style="fill:#2b478b;fill-rule:nonzero;"/><path d="M44467.6,15440.7c0,-0 -1266.28,214.687 -1414.91,759.936c-148.825,545.234 -1023.88,3750.58 -1023.88,3750.58c-0,-0 643.715,115.672 941.182,-181.795c297.463,-297.276 1034.93,-2759.13 1034.93,-2759.13l462.683,-1569.59Z" style="fill:#fff;fill-rule:nonzero;"/><path d="M44166.2,20895.3c903.639,60.026 2491.97,-88.803 2552.37,-255.735c208.472,-577.971 61.362,-757.479 235.341,-1642.06l-436.002,-1227.22c0,-0 72.225,1366.71 -331.004,1726.1c-402.465,359.396 -1650.07,693.831 -1845.96,994.156c-94.515,144.256 -156.641,288.7 -174.743,404.752Z" style="fill:#ebf3ff;fill-rule:nonzero;"/><path d="M45201.7,20320.6c0,-0 -891.441,-198.374 -1035.31,-119.29c-143.877,79.084 -495.457,367.212 -539.481,467.445c-44.02,100.236 320.334,-76.222 438.673,-107.856c76.797,-20.581 278.789,49.544 378.833,82.894c420.571,140.254 678.4,68.03 678.4,68.03l78.888,-391.223Z" style="fill:#ffb27d;fill-rule:nonzero;"/><path d="M45798.5,15323.7c0,-0 1196.92,73.747 1611.39,651.677c583.304,813.564 1740.39,4280.73 1077.24,4743.23c-746.814,520.804 -3399.04,136.253 -3399.04,136.253c0,0 -88.226,-412.568 34.493,-612.085c122.912,-199.517 2118.47,-521.946 2210.51,-613.987c92.041,-92.229 -1151.18,-1796.04 -1151.18,-2072.33c-0,-276.333 -383.412,-2232.75 -383.412,-2232.75l0,-0.013Z" style="fill:#fff;fill-rule:nonzero;"/><path d="M44123.3,20449.4c0,0 -186.752,240.871 -247.922,269.642c-61.358,28.777 -100.809,21.537 -100.809,21.537l125.775,-226.579l222.956,-64.6Z" style="fill:#ffb27d;fill-rule:nonzero;"/><path d="M44166.2,20201.2l-543.099,263.738c0,-0 23.06,37.731 89.946,34.68c66.887,-3.05 235.529,-64.792 235.529,-64.792l217.624,-233.626Z" style="fill:#ffb27d;fill-rule:nonzero;"/><path d="M43875.4,21088.1l-4295.82,-0l-1292.38,-3213.62l4289.34,0l1298.86,3213.62Z" style="fill:#f99746;fill-rule:nonzero;"/><path d="M39528.8,20963l5672.79,0l0,125.199l-5622.3,-0l-50.496,-125.199Z" style="fill:#ed7d2b;fill-rule:nonzero;"/><path d="M40663.6,19481.3c-32.394,-113.001 32.966,-204.47 145.967,-204.47c113.006,-0 230.772,91.469 263.166,204.47c32.394,113.006 -32.965,204.475 -145.967,204.475c-112.818,0 -230.772,-91.469 -263.166,-204.475Z" style="fill:#fff;fill-rule:nonzero;"/><path d="M4837.06,22350.2l-91.492,63.265c-97.662,67.842 -232.195,43.448 -299.882,-54.31l-532.086,-767.578c-67.687,-97.758 -43.315,-232.296 54.365,-299.942l131.03,-90.897c19.153,-13.149 45.433,-8.388 58.677,10.67c13.282,19.245 8.516,45.355 -10.633,58.691l-131.03,90.897c-59.436,41.162 -74.282,123.104 -33.084,182.559l532.067,767.578c41.198,59.455 123.081,74.319 182.518,33.158l91.506,-63.457c59.437,-41.161 74.282,-123.099 33.085,-182.554l-353.204,-509.562c-13.264,-19.245 -8.503,-45.542 10.633,-58.691c19.149,-13.341 45.428,-8.575 58.691,10.67l353.204,509.561c67.687,97.566 43.315,232.104 -54.365,299.942Z" style="fill:#afcdfb;fill-rule:nonzero;"/><path d="M5420.32,23107.1l-164.018,113.765c-152.273,105.569 -368.159,58.691 -481.243,-104.426l-799.935,-1154.23c-13.263,-19.057 -8.498,-45.355 10.652,-58.696c19.135,-13.148 45.414,-8.383 58.673,10.675l799.939,1154.04c86.59,125.006 249.826,162.358 363.874,83.273l164.018,-113.572c114.049,-79.085 136.386,-245.06 49.792,-370.071l-911.167,-1314.49c-86.589,-125.011 -249.807,-162.358 -363.874,-83.278c-19.135,13.341 -45.414,8.575 -58.673,-10.67c-13.286,-19.058 -8.52,-45.355 10.629,-58.691c152.278,-105.574 368.168,-58.696 481.243,104.618l911.171,1314.49c113.079,163.122 81.197,381.884 -71.081,487.266Z" style="fill:#afcdfb;fill-rule:nonzero;"/><path d="M6520.74,29135.1l19.721,162.545c21.074,173.604 -102.981,331.961 -276.544,352.921l-1364.11,165.596c-173.563,20.965 -331.901,-103.091 -352.957,-276.503l-28.264,-232.867c-4.135,-34.109 20.105,-64.979 54.122,-69.173c34.013,-4.002 64.943,20.201 69.078,54.122l28.241,232.862c12.824,105.762 109.191,181.224 214.82,168.459l1364.11,-165.6c105.647,-12.765 181.146,-109.192 168.322,-214.761l-19.726,-162.737c-12.824,-105.574 -109.191,-181.036 -214.82,-168.267l-905.545,109.955c-34.013,4.002 -64.944,-20.201 -69.06,-54.122c-4.134,-34.109 20.105,-64.98 54.123,-69.174l905.545,-109.763c173.54,-21.152 331.878,102.903 352.939,276.507Z" style="fill:#afcdfb;fill-rule:nonzero;"/><path d="M7906.22,28895.6l35.367,291.558c32.833,270.593 -176.307,519.276 -466.224,554.532l-2050.84,248.87c-34.017,4.194 -64.943,-20.196 -69.082,-54.118c-4.134,-34.109 20.105,-64.98 54.122,-69.173l2050.84,-248.875c222,-26.869 382.588,-213.617 358.006,-416.372l-35.39,-291.371c-24.582,-202.755 -225.202,-345.676 -447.188,-318.807l-2336.03,283.555c-222.005,27.061 -382.588,213.809 -357.987,416.377c4.116,34.109 -20.124,64.98 -54.118,69.174c-34.018,4.001 -64.943,-20.201 -69.082,-54.123c-32.833,-270.593 176.311,-519.468 466.228,-554.532l2336.03,-283.555c289.921,-35.252 552.515,156.261 585.348,426.86Z" style="fill:#afcdfb;fill-rule:nonzero;"/><path d="M29765.4,9831.7c-0,-104.426 84.609,-189.094 189.039,-189.094c104.426,-0 189.035,84.668 189.035,189.094c0,104.426 -84.609,189.072 -189.035,189.072c-104.43,-0 -189.039,-84.646 -189.039,-189.072Z" style="fill:#f99746;fill-rule:nonzero;"/><path d="M55495.6,31927.1l-55141.4,0c-34.434,0 -62.597,-28.204 -62.597,-62.505l-0,-21.34c-0,-34.493 28.163,-62.698 62.615,-62.698l55141.3,0c34.488,0 62.688,28.205 62.688,62.698l0,21.34c0,34.301 -28.2,62.505 -62.688,62.505Z" style="fill:#2e3552;fill-rule:nonzero;"/></g></g></svg>