<?xml version="1.0" encoding="UTF-8" standalone="no"?><!DOCTYPE svg PUBLIC "-//W3C//DTD SVG 1.1//EN" "http://www.w3.org/Graphics/SVG/1.1/DTD/svg11.dtd"><svg width="100%" height="100%" viewBox="0 0 300 300" version="1.1" xmlns="http://www.w3.org/2000/svg" xmlns:xlink="http://www.w3.org/1999/xlink" xml:space="preserve" xmlns:serif="http://www.serif.com/" style="fill-rule:evenodd;clip-rule:evenodd;stroke-linejoin:round;stroke-miterlimit:2;"><path id="path852" d="M160.182,234.354c-4.81,-0.619 -7.915,-2.962 -9.296,-7.013c-0.873,-2.562 -0.668,-3.06 1.373,-3.34c1.007,-0.138 3.049,-0.251 4.538,-0.251c2.62,-0 2.707,0.031 2.707,0.98c-0,0.539 0.499,1.539 1.108,2.221c2.273,2.543 7.178,1.704 7.178,-1.228c-0,-1.569 -1.393,-2.538 -4.832,-3.364c-7.252,-1.741 -10.279,-3.824 -11.377,-7.83c-1.016,-3.706 1.683,-8.116 5.788,-9.457c4.351,-1.422 10.614,-1.186 13.969,0.526c2.558,1.305 4.725,4.51 4.736,7.005c0.003,0.584 0.383,0.515 -4.602,0.831l-4.013,0.254l-0.624,-1.416c-0.911,-2.067 -3.124,-2.862 -5.476,-1.968c-1.17,0.445 -1.599,1.808 -0.816,2.592c0.316,0.316 1.321,0.766 2.234,1.002c8.451,2.177 9.439,2.55 11.474,4.337c2.657,2.333 3.483,5.27 2.463,8.756c-1.226,4.187 -4.601,6.734 -9.823,7.412c-3.214,0.418 -3.071,0.419 -6.709,-0.049l0,-0Zm-69.334,-0.282l0,-29.262l8.609,0c9.752,0 11.547,0.32 14.109,2.513c3.282,2.809 4.756,7.414 4.422,13.808c-0.308,5.885 -2.364,9.524 -6.542,11.575c-2.239,1.1 -2.295,1.106 -11.424,1.236l-9.174,0.13Zm15.783,-7.918c1.502,-1.072 2.061,-3.252 1.891,-7.378c-0.214,-5.237 -1.45,-6.755 -5.823,-7.152l-2.381,-0.215l-0,15.984l2.663,-0.267c1.542,-0.155 3.079,-0.564 3.65,-0.972Zm15.783,7.855l-0,-29.199l24.858,0l0,6.314l-15.388,-0l-0,4.34l14.204,-0l0,6.313l-14.204,0l-0,5.524l15.783,0l-0,6.708l-25.253,-0Zm58.791,-14.599l0,-14.6l9.447,0l0.11,5.147l0.11,5.147l4.341,-5.146l4.34,-5.147l6.305,0l6.305,-0l-3.35,3.452c-1.842,1.899 -4.223,4.379 -5.291,5.512l-1.943,2.06l5.399,8.905c2.969,4.897 5.399,8.987 5.399,9.087c-0,0.1 -2.574,0.182 -5.719,0.182l-5.719,-0l-2.809,-5.623c-1.545,-3.092 -2.856,-5.674 -2.913,-5.738c-0.057,-0.063 -1.098,0.914 -2.315,2.17l-2.211,2.286l-0.015,6.905l-9.47,-0l-0.001,-14.599Zm-43.042,-24.669c-0.829,-0.44 -29.904,-13.651 -31.364,-14.251c-0.262,-0.108 -0.701,1.379 -1.148,3.885c-0.397,2.233 -0.842,4.199 -0.988,4.369c-0.249,0.288 -8.934,1.745 -24.094,4.042c-3.593,0.545 -7.943,1.236 -9.667,1.537c-1.725,0.302 -3.186,0.501 -3.246,0.444c-0.118,-0.114 -2.337,-13.302 -4.63,-27.525l-1.445,-8.962l1.267,-6.229c0.697,-3.426 1.385,-6.361 1.53,-6.522c0.145,-0.161 4.784,-1.018 10.309,-1.905c23.143,-3.713 26.952,-4.307 27.039,-4.214c0.051,0.054 0.861,5.277 1.8,11.607c0.939,6.33 1.803,11.45 1.92,11.377c0.117,-0.072 2.87,-6.449 6.117,-14.172c3.247,-7.722 6.039,-14.04 6.205,-14.04c0.824,-0 33.343,15.164 33.902,15.808c0.633,0.731 0.655,0.726 0.882,-0.175c0.184,-0.736 0.576,-0.973 1.915,-1.159c0.926,-0.128 9.386,-1.313 18.801,-2.632c9.415,-1.32 17.218,-2.299 17.341,-2.176c0.123,0.124 0.97,5.856 1.881,12.739l1.657,12.514l0.04,-7.624l0.039,-7.625l6.086,-6.649l38.107,-0l-0,42.107l-6.251,5.644l-18.872,-0.103l-18.872,-0.102l-0.129,-4.341l-0.128,-4.34l-0.71,1.776l-0.71,1.775l-6.067,0.869c-24.576,3.519 -30.956,4.365 -31.177,4.132c-0.139,-0.146 -1.071,-6.11 -2.071,-13.253c-1,-7.143 -1.867,-13.036 -1.926,-13.095c-0.059,-0.059 -1.599,3.3 -3.422,7.464c-1.823,4.163 -4.437,10.134 -5.808,13.268c-1.371,3.134 -2.628,5.828 -2.793,5.987c-0.165,0.16 -0.759,0.047 -1.32,-0.25l0,-0Zm28.838,-4.53c0.997,-0.997 0.998,-2.256 0.009,-8.137c-0.43,-2.55 -0.716,-4.702 -0.637,-4.782c0.24,-0.24 10.541,-1.764 10.719,-1.585c0.091,0.091 0.53,2.548 0.976,5.46c0.446,2.913 1.071,5.692 1.388,6.177c0.721,1.103 2.3,1.525 3.56,0.95c1.656,-0.754 1.857,-1.826 1.199,-6.387c-2.829,-19.615 -3.416,-23.336 -3.789,-24.034c-0.921,-1.721 -4.134,-1.448 -5.033,0.428c-0.399,0.832 -0.351,1.988 0.259,6.304c0.411,2.907 0.631,5.403 0.488,5.546c-0.391,0.391 -10.325,1.831 -10.514,1.524c-0.09,-0.146 -0.462,-2.383 -0.827,-4.97c-0.801,-5.686 -1.331,-7.152 -2.711,-7.499c-1.443,-0.362 -3.253,0.501 -3.692,1.76c-0.578,1.659 3.44,28.116 4.438,29.218c0.968,1.07 3.111,1.084 4.167,0.027l-0,0Zm-81.334,-1.204c6.46,-1.052 9.007,-1.781 9.512,-2.724c1.136,-2.122 -0.216,-3.963 -2.911,-3.963c-0.955,-0 -3.813,0.355 -6.352,0.789c-2.539,0.434 -4.884,0.789 -5.212,0.789c-1.401,-0 -0.022,-2.463 6.618,-11.819c1.387,-1.956 2.623,-4.217 2.986,-5.465c0.707,-2.431 0.801,-6.087 0.198,-7.649c-0.786,-2.037 -1.395,-2.078 -9.851,-0.661c-7.018,1.177 -7.864,1.403 -8.845,2.369c-1.3,1.279 -1.348,1.871 -0.267,3.246c1,1.271 1.69,1.293 8.06,0.25c2.604,-0.426 4.868,-0.778 5.031,-0.782c0.607,-0.015 0.263,2.211 -0.546,3.539c-0.462,0.757 -1.857,2.622 -3.101,4.144c-5.84,7.147 -8.167,13.073 -6.693,17.044c0.901,2.428 1.61,2.483 11.373,0.893Zm131.587,0.649c6.328,-1.905 10.511,-7.886 10.511,-15.031c0,-9.388 -6.642,-15.943 -15.734,-15.526c-5.529,0.253 -10.161,3.414 -12.632,8.621c-0.932,1.965 -1.03,2.619 -1.03,6.905c0,4.292 0.098,4.943 1.04,6.953c1.838,3.92 5.103,6.801 9.135,8.061c2.221,0.694 6.433,0.702 8.71,0.017l-0,-0Zm-7.047,-5.492c-2.197,-0.86 -3.33,-1.912 -4.39,-4.08c-0.885,-1.809 -1.055,-2.679 -1.05,-5.386c0.012,-6.384 2.991,-10.102 8.116,-10.126c5.072,-0.023 8.174,3.764 8.174,9.979c0,3.417 -0.559,5.337 -2.099,7.206c-2.109,2.559 -5.782,3.569 -8.751,2.407Zm-76.372,1.349c4.538,-1.412 8.034,-4.853 10.192,-10.031c1.396,-3.349 1.461,-8.838 0.143,-12.181c-1.245,-3.16 -3.877,-5.943 -7.091,-7.497c-2.318,-1.122 -3.029,-1.275 -5.984,-1.287c-2.964,-0.014 -3.661,0.131 -5.99,1.234c-3.379,1.6 -5.799,3.847 -7.419,6.886c-5.095,9.56 -1.802,19.866 7.293,22.816c3.037,0.985 5.823,1.004 8.856,0.06l0,0Zm-7.057,-5.285c-0.747,-0.238 -2.106,-1.152 -3.02,-2.031c-2.136,-2.055 -2.79,-4.233 -2.212,-7.375c1.146,-6.232 5.505,-11.026 9.989,-10.984c1.127,0.01 4.184,1.347 5.217,2.281c2.656,2.402 2.983,7.444 0.775,11.93c-2.651,5.384 -6.431,7.556 -10.749,6.179Zm-22.852,-55.023c-0.244,-0.46 -0.051,-2.47 0.576,-6.017c0.518,-2.93 1.39,-7.901 1.938,-11.048c0.547,-3.147 1.077,-5.988 1.177,-6.313c0.171,-0.56 1.358,-7.26 3.559,-20.107c0.538,-3.138 1.08,-6.028 1.206,-6.422c0.125,-0.395 0.652,-3.243 1.171,-6.33c3.526,-20.982 3.868,-22.269 6.629,-24.946c3.473,-3.369 3.406,-3.359 22.665,-3.356c18.278,0.002 18.031,-0.029 19.015,2.347c0.482,1.162 0.442,1.636 -0.583,6.912c-0.684,3.52 -1.369,4.84 -2.668,5.136c-0.485,0.111 -6.516,0.247 -13.402,0.302l-12.519,0.101l-1.031,1.031c-1.115,1.116 -1.261,1.697 -3.349,13.371c-1.079,6.027 -2.613,14.427 -4.098,22.434c-0.551,2.974 -0.552,3.424 -0.001,4.582c0.335,0.706 1.053,1.486 1.595,1.733c0.693,0.316 6.553,0.45 19.729,0.45c19.871,-0 20.513,-0.057 21.273,-1.86c0.409,-0.97 1.379,-6.035 4.973,-25.958c0.665,-3.689 1.727,-9.549 2.36,-13.021c0.632,-3.472 1.587,-8.848 2.122,-11.947c0.535,-3.099 1.144,-6.295 1.352,-7.102c0.209,-0.808 0.667,-3.32 1.018,-5.582c0.995,-6.412 0.358,-7.132 -6.311,-7.132c-3.048,0 -3.8,-0.129 -4.647,-0.795c-1.901,-1.496 -1.998,-2.762 -0.707,-9.293c1.768,-8.941 2.211,-10.479 3.253,-11.28c0.82,-0.631 1.842,-0.712 9.164,-0.719c5.318,-0.006 8.816,0.16 9.864,0.469c2.465,0.725 5.921,4.338 6.718,7.024c1.002,3.371 1.11,2.411 -2.548,22.486c-1.251,6.865 -2.958,16.376 -4.533,25.252c-0.519,2.93 -1.496,8.345 -2.171,12.035c-2.92,15.963 -3.585,19.658 -4.543,25.227c-1.829,10.629 -2.695,12.682 -6.38,15.129l-2.211,1.469l-26.489,0.197c-28.594,0.213 -26.899,0.084 -29.217,2.227c-0.435,0.403 -1.945,1.708 -3.354,2.9c-1.41,1.192 -2.652,2.263 -2.76,2.38c-0.109,0.117 -1.406,1.228 -2.883,2.469c-2.796,2.348 -4.287,2.82 -4.952,1.565l-0,0Zm37.095,-42.614c-0.293,-0.561 0.158,-4.435 1.103,-9.47c0.074,-0.392 0.971,0.217 3.344,2.271c1.504,1.301 2.986,2.366 3.295,2.366c0.533,-0 4.143,-2.016 6.53,-3.647c0.614,-0.42 1.222,-0.658 1.35,-0.529c0.365,0.364 -0.97,8.495 -1.499,9.132c-0.376,0.453 -1.816,0.568 -7.117,0.568c-5.929,-0 -6.685,-0.075 -7.006,-0.691Zm4.401,-8.287c-1.559,-1.247 -2.788,-2.445 -2.729,-2.662c0.066,-0.244 2.731,-0.395 6.974,-0.395c6.044,0 6.882,0.078 6.991,0.646c0.089,0.46 -0.947,1.223 -3.619,2.663c-2.058,1.11 -3.976,2.017 -4.262,2.017c-0.285,-0.001 -1.795,-1.022 -3.355,-2.269Z" style="fill:#0b8efc;fill-opacity:0.6;fill-rule:nonzero;stroke:#00acff;stroke-width:1px;"/></svg>