<?xml version="1.0" encoding="UTF-8" standalone="no"?><!DOCTYPE svg PUBLIC "-//W3C//DTD SVG 1.1//EN" "http://www.w3.org/Graphics/SVG/1.1/DTD/svg11.dtd"><svg width="100%" height="100%" viewBox="0 0 138 78" version="1.1" xmlns="http://www.w3.org/2000/svg" xmlns:xlink="http://www.w3.org/1999/xlink" xml:space="preserve" xmlns:serif="http://www.serif.com/" style="fill-rule:evenodd;clip-rule:evenodd;stroke-linejoin:round;stroke-miterlimit:2;"><path id="path852" d="M73.669,54.398c-2.205,-0.284 -3.629,-1.358 -4.263,-3.216c-0.4,-1.175 -0.306,-1.403 0.63,-1.532c0.462,-0.063 1.398,-0.115 2.081,-0.115c1.202,0 1.241,0.014 1.241,0.45c0,0.247 0.229,0.705 0.509,1.018c1.042,1.166 3.291,0.782 3.291,-0.563c0,-0.72 -0.638,-1.164 -2.216,-1.543c-3.325,-0.798 -4.713,-1.753 -5.217,-3.591c-0.466,-1.699 0.772,-3.722 2.654,-4.337c1.996,-0.652 4.868,-0.543 6.407,0.242c1.173,0.598 2.166,2.068 2.171,3.212c0.002,0.268 0.176,0.236 -2.11,0.381l-1.84,0.117l-0.287,-0.65c-0.417,-0.948 -1.432,-1.312 -2.511,-0.902c-0.536,0.204 -0.733,0.829 -0.374,1.188c0.145,0.145 0.606,0.352 1.024,0.46c3.876,0.998 4.329,1.169 5.262,1.989c1.219,1.07 1.598,2.417 1.13,4.015c-0.562,1.921 -2.11,3.089 -4.505,3.4c-1.474,0.191 -1.408,0.192 -3.077,-0.023Zm-31.796,-0.129l0,-13.42l3.948,0c4.472,0 5.296,0.147 6.471,1.153c1.505,1.288 2.181,3.4 2.027,6.332c-0.141,2.699 -1.084,4.368 -3,5.308c-1.026,0.505 -1.052,0.507 -5.239,0.567l-4.207,0.06Zm7.238,-3.631c0.689,-0.492 0.945,-1.492 0.867,-3.384c-0.098,-2.402 -0.665,-3.098 -2.67,-3.28l-1.092,-0.098l0,7.33l1.221,-0.123c0.707,-0.071 1.412,-0.258 1.674,-0.445Zm7.238,3.602l0,-13.391l11.4,0l-0,2.896l-7.057,-0l0,1.99l6.514,0l-0,2.895l-6.514,0l0,2.534l7.238,-0l0,3.076l-11.581,-0Zm26.961,-6.695l0,-6.696l4.333,0l0.101,4.721l1.99,-2.36l1.991,-2.36l5.783,-0l-1.537,1.583c-0.844,0.871 -1.936,2.008 -2.426,2.528l-0.891,0.944l2.476,4.084c1.361,2.246 2.476,4.121 2.476,4.167c-0,0.046 -1.181,0.084 -2.623,0.084l-2.623,-0l-1.288,-2.579c-0.708,-1.418 -1.31,-2.602 -1.336,-2.631c-0.026,-0.029 -0.503,0.419 -1.061,0.995l-1.014,1.048l-0.007,3.167l-4.343,-0l-0.001,-6.695Zm-19.738,-11.313c-0.381,-0.202 -13.714,-6.261 -14.384,-6.536c-0.12,-0.049 -0.321,0.633 -0.526,1.782c-0.182,1.024 -0.386,1.926 -0.453,2.003c-0.115,0.133 -4.097,0.801 -11.05,1.854c-1.647,0.25 -3.642,0.567 -4.433,0.705c-0.791,0.138 -1.461,0.23 -1.489,0.204c-0.054,-0.053 -1.071,-6.101 -2.123,-12.623l-0.663,-4.11l0.581,-2.857c0.32,-1.571 0.636,-2.917 0.702,-2.991c0.067,-0.074 2.194,-0.467 4.728,-0.873c10.613,-1.703 12.36,-1.976 12.4,-1.933c0.023,0.025 0.395,2.42 0.825,5.323c0.431,2.903 0.827,5.251 0.881,5.217c0.053,-0.033 1.316,-2.957 2.805,-6.499c1.489,-3.541 2.769,-6.438 2.846,-6.438c0.377,-0 15.29,6.954 15.547,7.249c0.29,0.335 0.3,0.333 0.404,-0.08c0.085,-0.338 0.264,-0.446 0.879,-0.532c0.424,-0.058 4.304,-0.602 8.622,-1.207c4.317,-0.605 7.896,-1.054 7.952,-0.998c0.057,0.057 0.445,2.686 0.863,5.842l0.76,5.739l0.018,-3.496l0.018,-3.497l2.791,-3.049l17.476,-0l-0,19.31l-2.867,2.588l-8.655,-0.047l-8.654,-0.047l-0.06,-1.99l-0.058,-1.991l-0.326,0.815l-0.325,0.814l-2.783,0.398c-11.27,1.614 -14.196,2.002 -14.297,1.895c-0.064,-0.067 -0.492,-2.802 -0.95,-6.078c-0.459,-3.275 -0.856,-5.978 -0.883,-6.005c-0.027,-0.027 -0.734,1.513 -1.57,3.423c-0.836,1.909 -2.034,4.647 -2.663,6.085c-0.629,1.437 -1.205,2.672 -1.281,2.745c-0.076,0.074 -0.348,0.022 -0.605,-0.114Zm13.225,-2.078c0.457,-0.457 0.457,-1.034 0.004,-3.731c-0.197,-1.17 -0.329,-2.157 -0.292,-2.193c0.11,-0.11 4.834,-0.809 4.915,-0.727c0.042,0.042 0.243,1.168 0.448,2.504c0.204,1.336 0.491,2.61 0.636,2.832c0.331,0.506 1.055,0.7 1.633,0.436c0.759,-0.346 0.852,-0.837 0.55,-2.929c-1.298,-8.995 -1.567,-10.702 -1.738,-11.022c-0.422,-0.789 -1.896,-0.664 -2.308,0.196c-0.183,0.382 -0.161,0.912 0.119,2.891c0.188,1.334 0.289,2.478 0.224,2.544c-0.18,0.179 -4.735,0.84 -4.822,0.699c-0.041,-0.067 -0.212,-1.093 -0.379,-2.279c-0.368,-2.608 -0.611,-3.28 -1.243,-3.44c-0.662,-0.166 -1.492,0.23 -1.694,0.808c-0.265,0.76 1.578,12.893 2.036,13.399c0.444,0.491 1.426,0.497 1.911,0.012Zm-37.3,-0.552c2.963,-0.482 4.131,-0.817 4.362,-1.249c0.521,-0.973 -0.099,-1.818 -1.335,-1.818c-0.438,0 -1.748,0.163 -2.913,0.362c-1.164,0.199 -2.239,0.362 -2.39,0.362c-0.642,0 -0.01,-1.129 3.035,-5.42c0.636,-0.897 1.203,-1.934 1.37,-2.506c0.324,-1.115 0.367,-2.792 0.09,-3.508c-0.36,-0.934 -0.639,-0.953 -4.517,-0.303c-3.219,0.54 -3.607,0.643 -4.057,1.086c-0.596,0.587 -0.618,0.858 -0.122,1.489c0.459,0.583 0.775,0.593 3.696,0.115c1.194,-0.196 2.233,-0.357 2.307,-0.359c0.279,-0.007 0.121,1.014 -0.25,1.623c-0.212,0.347 -0.852,1.202 -1.422,1.9c-2.678,3.278 -3.745,5.995 -3.069,7.817c0.413,1.113 0.738,1.138 5.215,0.409Zm60.345,0.298c2.902,-0.874 4.821,-3.617 4.821,-6.893c-0,-4.306 -3.046,-7.312 -7.216,-7.121c-2.535,0.116 -4.66,1.566 -5.793,3.954c-0.427,0.901 -0.472,1.201 -0.472,3.167c-0,1.968 0.045,2.266 0.477,3.188c0.843,1.798 2.34,3.119 4.189,3.697c1.019,0.318 2.95,0.322 3.994,0.008Zm-3.231,-2.519c-1.008,-0.394 -1.527,-0.877 -2.014,-1.871c-0.405,-0.83 -0.483,-1.229 -0.481,-2.47c0.005,-2.928 1.372,-4.633 3.722,-4.644c2.326,-0.01 3.748,1.726 3.748,4.577c0,1.567 -0.256,2.447 -0.962,3.304c-0.967,1.174 -2.652,1.637 -4.013,1.104Zm-35.024,0.619c2.081,-0.648 3.684,-2.226 4.674,-4.6c0.64,-1.536 0.67,-4.053 0.065,-5.587c-0.571,-1.449 -1.778,-2.725 -3.252,-3.438c-1.063,-0.514 -1.389,-0.584 -2.744,-0.59c-1.359,-0.006 -1.679,0.06 -2.747,0.566c-1.549,0.734 -2.659,1.764 -3.402,3.158c-2.337,4.384 -0.826,9.11 3.344,10.463c1.393,0.452 2.671,0.461 4.062,0.028Zm-3.237,-2.424c-0.342,-0.109 -0.965,-0.528 -1.384,-0.931c-0.98,-0.943 -1.28,-1.942 -1.015,-3.382c0.526,-2.858 2.525,-5.057 4.581,-5.038c0.517,0.005 1.919,0.618 2.393,1.046c1.218,1.102 1.368,3.414 0.355,5.471c-1.216,2.47 -2.949,3.466 -4.93,2.834Z" style="fill:#1f3b71;fill-rule:nonzero;"/></svg>