<?xml version="1.0" encoding="UTF-8" standalone="no"?><!DOCTYPE svg PUBLIC "-//W3C//DTD SVG 1.1//EN" "http://www.w3.org/Graphics/SVG/1.1/DTD/svg11.dtd"><svg width="100%" height="100%" viewBox="0 0 3334 2500" version="1.1" xmlns="http://www.w3.org/2000/svg" xmlns:xlink="http://www.w3.org/1999/xlink" xml:space="preserve" xmlns:serif="http://www.serif.com/" style="fill-rule:evenodd;clip-rule:evenodd;stroke-linejoin:round;stroke-miterlimit:2;"><path d="M1970.51,51.513c-0.163,-6.859 -3.146,-13.35 -8.254,-17.93c-5.109,-4.579 -11.884,-6.841 -18.721,-6.25l-690.463,59.813c-12.837,1.108 -23.091,11.854 -23.091,24.742l-0,1387.99c-0,13.721 11.916,23.804 25.633,23.804l723.033,0c6.675,0 13.084,-2.179 17.75,-6.954c4.68,-4.787 7.225,-10.987 7.071,-17.671l-32.958,-1447.55Z" style="fill:#bdd0fb;fill-rule:nonzero;"/><path d="M1377.39,270.108c-1.237,-4.12 -3.529,-7.887 -6.7,-10.9c-4.625,-4.379 -10.746,-6.808 -17.091,-6.808c-0.33,0 -0.663,0.008 -0.996,0.021l-47.304,1.896l-0,-83.229c-0,-6.205 2.958,-11.538 8.737,-11.917l52.7,-3.567c0.196,-0.016 0.388,-0.021 0.583,-0.021c5.546,0 10,5.18 10.009,11.196l0.062,103.329Z" style="fill:#d1defc;fill-rule:nonzero;"/><path d="M1505.46,790.396c-26.058,-0.35 -51.688,-0.675 -76.842,-0.979l-0.646,-626.525c-0.008,-6.246 5.63,-11.675 11.48,-12.059l55.129,-3.612c0.2,-0.013 0.396,-0.021 0.591,-0.021c5.559,0 9.23,5.263 9.242,11.317l1.046,631.879Z" style="fill:#d1defc;fill-rule:nonzero;"/><path d="M1638.15,792.321c-26.292,-0.413 -52.217,-0.796 -77.884,-1.167l-1.346,-636.775c-0.016,-6.283 3.4,-11.604 9.33,-11.991l55.85,-3.663c0.204,-0.012 0.408,-0.021 0.625,-0.021c5.762,0 11.641,5.15 11.65,11.234l1.775,642.383Z" style="fill:#d1defc;fill-rule:nonzero;"/><path d="M1769.33,794.446c-26.48,-0.45 -52.809,-0.888 -78.913,-1.308l-2.054,-647.175c-0.025,-6.321 4.367,-11.738 10.371,-12.13l56.579,-3.712c0.217,-0.013 0.425,-0.021 0.637,-0.021c5.78,0 10.863,5.233 10.888,11.363l2.492,652.983Z" style="fill:#d1defc;fill-rule:nonzero;"/><path d="M1828.64,795.467c-2.154,-0.038 -4.196,-0.071 -6.346,-0.109l-1.058,-248.12l7.404,248.229Zm-8.067,-404.604l-1.075,-253.425c-0.029,-6.363 5.359,-11.875 11.442,-12.275l57.337,-3.759c0.205,-0.016 0.421,-0.021 0.625,-0.021c5.8,0 10.075,5.317 10.1,11.488l1.2,244.158l-59.179,1.888c-8.712,0.279 -16.237,5.012 -20.45,11.946Z" style="fill:#d1defc;fill-rule:nonzero;"/><path d="M2794.67,227.55c-0.258,-13.533 -11.3,-24.921 -24.829,-24.921l-511.604,0c-13.721,0 -25.637,12.221 -25.637,25.942l-0,1225.99c-0,6.595 3.02,12.925 7.695,17.583c4.671,4.658 11.205,7.267 17.809,7.25l534.712,-1.463c6.659,-0.016 13.075,-2.704 17.734,-7.462c4.654,-4.758 7.233,-11.463 7.108,-18.113l-22.988,-1224.81Z" style="fill:#bdd0fb;fill-rule:nonzero;"/><path d="M2404.63,296.871l-132.188,-0c-3.933,-0 -3.325,-6.292 -3.325,-10.496l0,-23.929c0,-4.204 -0.608,-10.896 3.325,-10.896l132.188,0c3.933,0 6.487,6.692 6.487,10.896l0,23.929c0,4.204 -2.554,10.496 -6.487,10.496Z" style="fill:#dee8fd;fill-rule:nonzero;"/><path d="M2581.57,296.871l-132.187,-0c-3.934,-0 -5.021,-6.292 -5.021,-10.496l-0,-23.929c-0,-4.204 1.087,-10.896 5.021,-10.896l132.187,0c3.933,0 4.796,6.692 4.796,10.896l-0,23.929c-0,4.204 -0.863,10.496 -4.796,10.496Z" style="fill:#dee8fd;fill-rule:nonzero;"/><path d="M2758.5,296.871l-132.187,-0c-3.938,-0 -9.733,-6.292 -9.733,-10.496l-0,-23.929c-0,-4.204 5.795,-10.896 9.733,-10.896l132.187,0c3.925,0 9.15,6.692 9.15,10.896l0,23.929c0,4.204 -5.225,10.496 -9.15,10.496Z" style="fill:#dee8fd;fill-rule:nonzero;"/><path d="M2404.63,393.554l-0.063,0l-0.125,-7.429c-0.116,-6.65 -2.896,-12.971 -7.708,-17.558c-4.621,-4.4 -10.763,-6.846 -17.125,-6.846c-0.267,-0 -0.525,0.004 -0.796,0.012l-109.696,3.505l0,-8.171c0,-2.517 -0.216,-3.021 0.45,-3.021c0.446,-0 1.296,0.229 2.875,0.229l132.188,0c1.579,0 2.941,-0.229 3.996,-0.229c1.579,-0 2.491,0.504 2.491,3.021l0,23.925c0,4.208 -2.554,12.562 -6.487,12.562Z" style="fill:#dee8fd;fill-rule:nonzero;"/><path d="M2581.57,393.554l-132.187,0c-3.934,0 -5.021,-8.354 -5.021,-12.562l-0,-23.925c-0,-2.517 0.387,-3.021 1.541,-3.021c0.78,-0 1.9,0.229 3.48,0.229l132.187,0c1.579,0 2.663,-0.229 3.396,-0.229c1.096,-0 1.4,0.504 1.4,3.021l-0,23.925c-0,4.208 -0.863,12.562 -4.796,12.562Z" style="fill:#dee8fd;fill-rule:nonzero;"/><path d="M2758.5,393.554l-132.187,0c-3.938,0 -9.733,-8.354 -9.733,-12.562l-0,-23.925c-0,-2.517 2.07,-3.021 4.579,-3.021c1.683,-0 3.566,0.229 5.154,0.229l132.187,0c1.575,0 3.371,-0.229 4.938,-0.229c2.337,-0 4.212,0.504 4.212,3.021l0,23.925c0,4.208 -5.225,12.562 -9.15,12.562Z" style="fill:#dee8fd;fill-rule:nonzero;"/><path d="M2406.15,483.963l-0.683,-39.005c3.458,0.342 5.654,2.83 5.654,6.73l0,23.92c0,3.642 -1.908,7.405 -4.971,8.355Z" style="fill:#dee8fd;fill-rule:nonzero;"/><path d="M2581.57,484.196l-132.187,-0c-3.934,-0 -5.021,-4.375 -5.021,-8.588l-0,-23.92c-0,-4.205 1.087,-6.771 5.021,-6.771l132.187,-0c3.933,-0 4.796,2.566 4.796,6.771l-0,23.92c-0,4.213 -0.863,8.588 -4.796,8.588Z" style="fill:#dee8fd;fill-rule:nonzero;"/><path d="M2758.5,484.196l-132.187,-0c-3.938,-0 -9.733,-4.375 -9.733,-8.588l-0,-23.92c-0,-4.205 5.795,-6.771 9.733,-6.771l132.187,-0c3.925,-0 9.15,2.566 9.15,6.771l0,23.92c0,4.213 -5.225,8.588 -9.15,8.588Z" style="fill:#dee8fd;fill-rule:nonzero;"/><path d="M2407.82,579.329l-0.662,-37.604c2.47,0.317 3.966,1.363 3.966,4.579l0,23.929c0,2.921 -1.233,6.925 -3.304,9.096Z" style="fill:#dee8fd;fill-rule:nonzero;"/><path d="M2581.57,580.879l-132.187,0c-3.934,0 -5.021,-6.446 -5.021,-10.646l-0,-23.929c-0,-4.2 1.087,-4.704 5.021,-4.704l132.187,0c3.933,0 4.796,0.504 4.796,4.704l-0,23.929c-0,4.2 -0.863,10.646 -4.796,10.646Z" style="fill:#dee8fd;fill-rule:nonzero;"/><path d="M2758.5,580.879l-132.187,0c-3.938,0 -9.733,-6.446 -9.733,-10.646l-0,-23.929c-0,-4.2 5.795,-4.704 9.733,-4.704l132.187,0c3.925,0 9.15,0.504 9.15,4.704l0,23.929c0,4.2 -5.225,10.646 -9.15,10.646Z" style="fill:#dee8fd;fill-rule:nonzero;"/><path d="M2409.38,669.729l-0.617,-35.475c1.496,1.692 2.354,4.229 2.354,6.675l0,23.925c0,2.079 -0.625,3.738 -1.737,4.875Z" style="fill:#dee8fd;fill-rule:nonzero;"/><path d="M2581.57,671.521l-132.187,-0c-3.934,-0 -5.021,-2.463 -5.021,-6.667l-0,-23.925c-0,-4.204 1.087,-8.683 5.021,-8.683l132.187,-0c3.933,-0 4.796,4.479 4.796,8.683l-0,23.925c-0,4.204 -0.863,6.667 -4.796,6.667Z" style="fill:#dee8fd;fill-rule:nonzero;"/><path d="M2758.5,671.521l-132.187,-0c-3.938,-0 -9.733,-2.463 -9.733,-6.667l-0,-23.925c-0,-4.204 5.795,-8.683 9.733,-8.683l132.187,-0c3.925,-0 9.15,4.479 9.15,8.683l0,23.925c0,4.204 -5.225,6.667 -9.15,6.667Z" style="fill:#dee8fd;fill-rule:nonzero;"/><path d="M2410.98,761.217l-0.5,-28.929c0.42,0.916 0.641,2.008 0.641,3.254l0,23.929c0,0.579 -0.041,1.162 -0.141,1.746Z" style="fill:#dee8fd;fill-rule:nonzero;"/><path d="M2581.57,768.204l-132.187,0c-3.934,0 -5.021,-4.533 -5.021,-8.733l-0,-23.929c-0,-4.204 1.087,-6.613 5.021,-6.613l132.187,0c3.933,0 4.796,2.409 4.796,6.613l-0,23.929c-0,4.2 -0.863,8.733 -4.796,8.733Z" style="fill:#dee8fd;fill-rule:nonzero;"/><path d="M2758.5,768.204l-132.187,0c-3.938,0 -9.733,-4.533 -9.733,-8.733l-0,-23.929c-0,-4.204 5.795,-6.613 9.733,-6.613l132.187,0c3.925,0 9.15,2.409 9.15,6.613l0,23.929c0,4.2 -5.225,8.733 -9.15,8.733Z" style="fill:#dee8fd;fill-rule:nonzero;"/><path d="M1378.44,276.896c-0.092,-6.7 -2.888,-13.079 -7.742,-17.688c-4.866,-4.608 -11.391,-7.054 -18.087,-6.787l-508.696,20.396c-8.729,0.35 -15.567,7.637 -15.358,16.375l25.82,1087.48l514.367,-6.271c6.596,-0.083 12.883,-2.787 17.483,-7.512c4.605,-4.721 7.142,-11.075 7.05,-17.671l-14.837,-1068.32Z" style="fill:#91b3fa;fill-rule:nonzero;"/><path d="M968.753,476.675l-81.859,-0.304l-0.966,-140.225l82.037,-0l0.788,140.529Z" style="fill:#c8d9fd;fill-rule:nonzero;"/><path d="M1086.26,476.417l-81.55,-0.304l-0.713,-139.967l81.734,-0l0.529,140.271Z" style="fill:#c8d9fd;fill-rule:nonzero;"/><path d="M1209.82,476.146l-81.233,-0.304l-0.442,-139.696l81.413,-0l0.262,140Z" style="fill:#c8d9fd;fill-rule:nonzero;"/><path d="M1332.49,476.846l-82.337,-0.788l-1.592,-139.912l83.929,-0l0,140.7Z" style="fill:#c8d9fd;fill-rule:nonzero;"/><path d="M888.269,676.408l-0.962,-138.875l81.783,-0.262l0.783,138.704l-81.604,0.433Z" style="fill:#c8d9fd;fill-rule:nonzero;"/><path d="M1005.71,675.779l-0.704,-138.612l81.479,-0.263l0.525,138.446l-81.3,0.429Z" style="fill:#c8d9fd;fill-rule:nonzero;"/><path d="M1129.21,675.117l-0.438,-138.346l81.159,-0.258l0.262,138.175l-80.983,0.429Z" style="fill:#c8d9fd;fill-rule:nonzero;"/><path d="M1250.4,674.479l0.533,-138.083l81.554,-0.263l0,137.917l-82.087,0.429Z" style="fill:#c8d9fd;fill-rule:nonzero;"/><path d="M889.161,805.038l-0.433,-62.713l81.516,-0.521l0.259,46.029c-8.617,0.134 -16.792,0.284 -24.475,0.463c-20.85,0.467 -40.284,6.533 -56.867,16.742Z" style="fill:#c8d9fd;fill-rule:nonzero;"/><path d="M1006.28,787.392l-0.234,-45.809l81.217,-0.52l0.175,45.954c-29.55,0.025 -56.679,0.141 -81.158,0.375Z" style="fill:#c8d9fd;fill-rule:nonzero;"/><path d="M1210.4,787.375c-28.266,-0.162 -55.291,-0.279 -80.841,-0.333l-0.146,-46.25l80.9,-0.517l0.087,47.1Z" style="fill:#c8d9fd;fill-rule:nonzero;"/><path d="M1332.49,788.358c-28.054,-0.275 -55.2,-0.508 -81.483,-0.704l0.187,-47.633l81.296,-0.508l0,48.845Z" style="fill:#c8d9fd;fill-rule:nonzero;"/><path d="M2404.44,386.125c-0.116,-6.65 -2.896,-12.971 -7.708,-17.558c-4.821,-4.584 -11.271,-7.046 -17.921,-6.834l-537.796,17.184c-13.691,0.437 -24.446,11.875 -24.033,25.566l26.533,890.684c0.404,13.516 11.542,24.225 25.067,24.1l526.996,-5.129c6.612,-0.063 12.941,-2.767 17.554,-7.517c4.617,-4.742 7.154,-11.129 7.037,-17.754l-15.729,-902.742Z" style="fill:#91b3fa;fill-rule:nonzero;"/><path d="M2350.38,488.021l-0.009,-0l-480.283,-0.375c-4.671,-0 -8.504,-4.779 -8.558,-9.213l-0.459,-41.783c-0.045,-4.417 3.692,-6.842 8.355,-6.842l478.908,0c4.742,0 8.712,2.492 8.867,6.95l1.45,41.63c0.154,4.47 -3.521,9.633 -8.271,9.633Z" style="fill:#c0d4fc;fill-rule:nonzero;"/><path d="M2353.52,580.7l-0.021,0l-482.379,-1.337c-4.687,-0.009 -8.537,-4.246 -8.583,-8.725l-0.467,-42.73c-0.046,-4.454 3.692,-8.916 8.363,-8.916l0.016,-0l481,0.808c4.767,0.008 8.771,4.525 8.934,9.021l1.471,43.112c0.15,4.509 -3.567,8.767 -8.334,8.767Z" style="fill:#c0d4fc;fill-rule:nonzero;"/><path d="M2356.7,674.329l-0.045,0l-484.492,-2.154c-4.704,-0.025 -8.567,-3.429 -8.613,-7.946l-0.466,-43.104c-0.054,-4.483 3.708,-6.65 8.387,-6.65l0.046,0l483.175,1.638c4.788,0.02 8.738,2.241 8.892,6.775l1.487,43.5c0.15,4.541 -3.596,7.941 -8.371,7.941Z" style="fill:#c0d4fc;fill-rule:nonzero;"/><path d="M2359.92,768.779l-0.087,0l-486.629,-2.991c-4.729,-0.03 -8.592,-2.6 -8.646,-7.15l-0.467,-43.484c-0.046,-4.516 3.721,-7.571 8.417,-7.571l0.05,0l485.296,2.471c4.808,0.029 8.808,3.159 8.958,7.738l1.496,43.883c0.162,4.567 -3.608,7.104 -8.388,7.104Z" style="fill:#c0d4fc;fill-rule:nonzero;"/><path d="M2365.6,806.129c-28.254,-0.616 -57.004,-1.246 -85.966,-1.854l81.421,0.546c1.65,0.021 3.2,0.496 4.545,1.308Z" style="fill:#c0d4fc;fill-rule:nonzero;"/><path d="M2902.94,2115.47c-455.546,-0 -1482.85,-18.254 -1867.57,-27.483c-17.429,-0.421 -33.512,-0.817 -48.195,-1.192c-84.617,-2.188 -152.071,-71.404 -152.071,-156.054l-0,-1028.99c-0,-13.875 2.491,-27.183 7.054,-39.487c8.867,-23.9 25.558,-44.025 47,-57.225c16.583,-10.209 36.017,-16.275 56.867,-16.742c7.683,-0.179 15.858,-0.329 24.475,-0.463c11.191,-0.179 23.091,-0.325 35.775,-0.441c24.479,-0.234 51.608,-0.35 81.158,-0.375l10.796,-0c10.175,-0 20.633,0.008 31.325,0.025c25.55,0.054 52.575,0.171 80.841,0.333c13.263,0.079 26.809,0.171 40.609,0.279c26.283,0.196 53.429,0.429 81.483,0.704c17.383,0.171 35.075,0.363 53.058,0.559c14.15,0.162 28.58,0.321 43.071,0.5c25.154,0.304 50.784,0.629 76.842,0.979c18.075,0.25 36.358,0.5 54.808,0.758c25.667,0.371 51.592,0.754 77.884,1.167c17.266,0.258 34.779,0.537 52.262,0.817c26.104,0.42 52.433,0.858 78.913,1.308c17.591,0.296 35.254,0.6 52.962,0.912c2.15,0.038 4.192,0.071 6.346,0.109c150.604,2.641 304.746,5.691 450.996,8.808c28.962,0.608 57.712,1.238 85.966,1.854c15.546,0.342 30.888,0.684 46.175,1.025c148.588,3.304 284.425,6.567 393.95,9.4c65.609,1.692 121.813,3.234 165.642,4.525c4.071,0.125 7.983,0.242 11.838,0.359c10.387,0.312 20.02,0.608 28.791,0.887c2.629,0.088 5.238,0.258 7.834,0.508c3.433,0.342 6.829,0.825 10.179,1.446c5.154,0.967 10.2,2.267 15.1,3.879c4.125,1.355 8.158,2.93 12.071,4.713c35.337,16.104 61.558,49.146 67.829,89.496c39.1,251.646 31.366,777.129 24.571,1036.69c-0.409,15.713 -0.813,30.425 -1.209,44.063c-1.775,61.475 -51.591,110.683 -113.083,111.587c-2.008,0.03 -4.058,0.063 -6.129,0.092c-34.367,0.454 -76.934,0.671 -126.213,0.671Zm-1933.56,-1288.48c-38.392,-0 -69.717,31.141 -69.717,69.746l0,977.612c0,49.421 39.675,89.692 89.092,90.438l1995.06,24.641c0.438,0.009 0.896,0.009 1.334,0.009c48.391,0.008 87.812,-39.134 88,-87.684l3.333,-968.883c0.133,-35.038 -27.779,-63.742 -62.808,-64.592l-2042.57,-41.266c-0.575,-0.013 -1.158,-0.021 -1.729,-0.021Z" style="fill:#fff;"/><path d="M899.669,896.738l0,977.612c0,49.421 39.675,89.692 89.092,90.438l1995.06,24.641c48.992,0.738 89.146,-38.687 89.334,-87.675l3.333,-968.883c0.133,-35.038 -27.779,-63.742 -62.808,-64.592l-2042.57,-41.266c-39.171,-0.95 -71.446,30.537 -71.446,69.725Z" style="fill:#7d97f4;fill-rule:nonzero;"/><path d="M3088.18,2029.5l-0.055,-0l-2188.5,-37.288c-1.529,-0.029 -2.745,-1.283 -2.716,-2.812c0.025,-1.533 1.3,-2.7 2.812,-2.717l2188.5,37.288c1.521,0.025 2.742,1.283 2.713,2.812c-0.025,1.509 -1.254,2.717 -2.758,2.717Z" style="fill:#bdd0fb;fill-rule:nonzero;"/><path d="M2015.52,2029.5c-11.033,-0 -20.012,8.979 -20.012,20.012c-0,11.03 8.979,20 20.012,20c11.021,0 20,-8.97 20,-20c0,-11.033 -8.979,-20.012 -20,-20.012Zm0,45.542c-14.087,-0 -25.542,-11.455 -25.542,-25.53c0,-14.087 11.455,-25.541 25.542,-25.541c14.075,-0 25.529,11.454 25.529,25.541c0,14.075 -11.454,25.53 -25.529,25.53Z" style="fill:#bdd0fb;fill-rule:nonzero;"/><path d="M1057.18,748.563c30.233,-183.034 203.125,-306.913 386.162,-276.68c183.038,30.234 306.917,203.125 276.683,386.171c-30.237,183.034 -203.125,306.904 -386.17,276.679c-183.038,-30.233 -306.909,-203.125 -276.675,-386.17Zm-155.192,-4.75l-3.621,57.612c-1.212,19.296 9.954,37.233 27.8,44.675l42.304,17.625c11.438,4.767 19.692,14.883 22.346,26.992c6.679,30.458 16.796,59.708 29.938,87.308c5.337,11.204 5.029,24.271 -1.096,35.067l-22.638,39.896c-9.541,16.82 -7.362,37.837 5.425,52.345l38.175,43.292c12.792,14.5 33.371,19.292 51.25,11.933l42.421,-17.462c11.475,-4.733 24.475,-3.396 34.925,3.296c25.738,16.5 53.492,30.191 82.875,40.633c11.679,4.146 20.679,13.6 23.979,25.546l12.192,44.179c5.146,18.642 21.55,31.958 40.842,33.167l57.612,3.621c19.296,1.216 37.233,-9.946 44.671,-27.8l17.637,-42.296c4.759,-11.442 14.875,-19.696 26.984,-22.35c30.458,-6.675 59.708,-16.792 87.308,-29.938c11.204,-5.333 24.267,-5.029 35.067,1.092l39.896,22.637c16.82,9.542 37.833,7.367 52.341,-5.42l43.296,-38.18c14.496,-12.787 19.292,-33.37 11.933,-51.245l-17.462,-42.417c-4.733,-11.479 -3.4,-24.483 3.304,-34.929c16.488,-25.738 30.183,-53.492 40.621,-82.875c4.15,-11.679 13.604,-20.684 25.55,-23.984l44.179,-12.187c18.642,-5.142 31.958,-21.55 33.167,-40.846l3.621,-57.612c1.216,-19.3 -9.95,-37.242 -27.792,-44.671l-42.304,-17.625c-11.446,-4.767 -19.696,-14.888 -22.35,-26.992c-6.675,-30.462 -16.792,-59.712 -29.942,-87.312c-5.329,-11.2 -5.025,-24.267 1.104,-35.063l22.638,-39.9c9.533,-16.817 7.354,-37.833 -5.434,-52.342l-38.175,-43.291c-12.787,-14.5 -33.37,-19.296 -51.25,-11.929l-42.412,17.458c-11.479,4.733 -24.483,3.396 -34.933,-3.296c-25.734,-16.496 -53.488,-30.196 -82.871,-40.633c-11.679,-4.15 -20.684,-13.604 -23.984,-25.55l-12.187,-44.175c-5.142,-18.638 -21.55,-31.959 -40.846,-33.171l-57.612,-3.621c-19.292,-1.212 -37.234,9.95 -44.671,27.8l-17.625,42.304c-4.771,11.438 -14.888,19.692 -26.992,22.346c-30.454,6.679 -59.708,16.792 -87.308,29.933c-11.204,5.338 -24.271,5.034 -35.067,-1.091l-39.896,-22.638c-16.821,-9.541 -37.837,-7.362 -52.341,5.425l-43.296,38.175c-14.504,12.788 -19.292,33.375 -11.934,51.25l17.467,42.417c4.725,11.479 3.396,24.479 -3.304,34.929c-16.492,25.738 -30.188,53.492 -40.629,82.875c-4.146,11.675 -13.6,20.683 -25.546,23.979l-44.175,12.188c-18.642,5.146 -31.963,21.554 -33.175,40.846Z" style="fill:#fff;fill-opacity:0.64;"/><g><g><clipPath id="_clip1"><path d="M1728.39,803.729c-0,186.35 -151.071,337.413 -337.425,337.413c-186.342,-0 -337.408,-151.063 -337.408,-337.413c-0,-186.35 151.066,-337.421 337.408,-337.421c186.354,0 337.425,151.071 337.425,337.421Z"/></clipPath><g clip-path="url(#_clip1)"><path d="M1473.22,946.188c0,-0 28.979,148.408 39.529,148.408c10.538,-0 205.771,-23.379 205.771,-23.379l0,-42.309l-154.379,5.675l-37.25,-110.287l-53.671,21.892Z" style="fill:url(#_Linear2);"/><path d="M1436.52,1108.11l-260.32,0l15.812,-185.57c0,-0 -19.462,-139.759 69.338,-155.2c52.308,-14.23 52.308,-14.4 52.308,-14.4c-0,-0 66.908,-10.559 122.862,14.15c55.955,24.695 102.184,173.058 102.184,173.058l-66.904,26.742l-17.034,-54.071l-18.246,195.291Z" style="fill:#64a1ff;"/><path d="M1326.29,663.733l-26.504,101.767c-0,0 55.375,26.733 102.404,3.592l-14.846,-98.663l-61.054,-6.696Z" style="fill:url(#_Linear3);"/><path d="M1450.98,581.588c-0,-0 4.229,73.779 -6.221,107.829c-10.45,34.054 -11.238,58.358 -52.296,50.85c-41.063,-7.513 -66.475,-38.717 -71.825,-78.45c-0,-0 -8.696,-61.384 5.221,-80.079c13.929,-18.692 125.121,-0.15 125.121,-0.15Z" style="fill:url(#_Linear4);"/><path d="M1342.64,642.783l2.554,-0.162c3.25,-0.196 5.671,-3.083 5.267,-6.317c-1.559,-12.521 -3.279,-40.512 12.491,-41.079c20.325,-0.733 95.53,10.8 119.771,-8.45c23.309,-18.504 21.813,-54.037 5.725,-69.917c-1.075,-1.066 -2.771,-1.154 -3.9,-0.15l-2.733,2.455c-1.871,1.675 -4.829,0.225 -4.65,-2.275c0.171,-2.413 -2.563,-3.9 -4.471,-2.421c-7.375,5.708 -24.337,13.129 -60.112,6.962c-50.838,-8.775 -89.409,-1.121 -102.317,31.479c-0.821,2.071 -3.471,2.421 -4.854,0.675c-2.725,-3.441 -7.979,-6.516 -17.825,-2.975c-17.125,6.175 -22.292,36.659 -2.288,70.675c0.95,1.617 0.154,3.738 -1.671,4.159c-6.441,1.462 -17.154,6.65 -1.045,24.779c16.662,18.746 32.5,23.558 38.829,24.771c1.575,0.304 3.062,-0.779 3.279,-2.367l4.292,-31.258c0.241,-1.775 2.062,-2.859 3.737,-2.238l9.921,3.654Z" style="fill:url(#_Linear5);"/><path d="M1341.59,649.325c-0,0 4.417,-44.5 -17.988,-39.833c-22.408,4.679 -7.337,48.983 6.742,55.9l11.246,-16.067Z" style="fill:url(#_Linear6);"/><path d="M1397.02,705.933c-47.654,-4.525 -66.654,-57.854 -66.833,-58.4l3.442,-1.191c0.179,0.521 18.441,51.662 63.733,55.954l-0.342,3.637Z" style="fill:url(#_Linear7);"/><path d="M1413.41,709.579l-23.533,0c-0.942,0 -1.7,-0.766 -1.7,-1.7l-0,-8.908c-0,-0.942 0.758,-1.704 1.7,-1.704l23.533,-0c0.942,-0 1.704,0.762 1.704,1.704l0,8.908c0,0.934 -0.762,1.7 -1.704,1.7Z" style="fill:#4170fa;fill-rule:nonzero;"/><path d="M1341.94,594.454c-0,0 29.896,-72.229 78.054,-71.904c0,0 -12.117,-8.208 -27.192,-3.746c-15.07,4.463 -56.833,35.342 -62.916,75.65c8.916,4.642 12.054,0 12.054,0Z" style="fill:url(#_Linear8);"/><path d="M1334.75,588.55c-26.762,0.817 -29.195,34.063 -29.195,34.063c-5.938,23.416 -1.03,36.362 6.883,43.495c5.412,4.867 12.983,6.534 19.937,4.4c6.963,-2.133 12.288,-7.75 14.042,-14.812c1.588,-6.379 3.192,-12.429 4.042,-14.525c2.071,-5.083 11.05,-53.429 -15.709,-52.621Z" style="fill:url(#_Linear9);"/><path d="M1335.71,597.225c-5.217,-1.854 -10.996,0.088 -14.017,4.721c-21.596,33.158 -6.621,59.7 2.617,61.787c9.733,2.196 17.637,-45.075 17.629,-57.55c-0,-5.22 -2.888,-7.766 -6.229,-8.958Z" style="fill:url(#_Linear10);"/></g></g></g><g><clipPath id="_clip11"><path d="M1314.11,803.729c-0,186.35 -151.071,337.413 -337.425,337.413c-186.342,-0 -337.409,-151.063 -337.409,-337.413c0,-186.35 151.067,-337.421 337.409,-337.421c186.354,0 337.425,151.071 337.425,337.421Z"/></clipPath><g clip-path="url(#_clip11)"><g><clipPath id="_clip12"><path d="M1689.45,1093.05l-667.933,5.513c-2.733,0.025 -5.221,5.816 -5.55,12.95l-1.021,21.937c-0.329,7.175 1.629,12.975 4.379,12.929l671.421,-9.658c2.296,-0.037 4,-5.371 3.8,-11.921l-0.608,-20.008c-0.196,-6.508 -2.213,-11.758 -4.488,-11.742Z"/></clipPath><g clip-path="url(#_clip12)"><rect x="1053.55" y="1093.05" width="641.013" height="48.088" style="fill:url(#_Linear13);"/></g></g></g></g><g><g><clipPath id="_clip14"><path d="M1728.39,803.729c-0,186.35 -151.071,337.413 -337.425,337.413c-186.342,-0 -337.408,-151.063 -337.408,-337.413c-0,-186.35 151.066,-337.421 337.408,-337.421c186.354,0 337.425,151.071 337.425,337.421Z"/></clipPath><g clip-path="url(#_clip14)"><path d="M1460.85,1094.04l83.941,-0c0,-0 -19.062,-40.954 -53.937,-38.921c-34.871,2.025 -30.004,38.921 -30.004,38.921Z" style="fill:url(#_Linear15);"/><path d="M1232.04,979.642l58.387,-26.867l51.621,90.733c0,0 145.979,-22.708 171.929,4.867c25.946,27.571 13.784,27.158 10.542,27.158c-3.246,0 -18.246,-16.216 -18.246,-16.216c0,-0 13.154,19.796 6.084,20.683c-7.071,0.883 -24.33,-17.846 -24.33,-17.846c0,0 14.184,24.734 5.671,21.904c-8.512,-2.841 -15.404,-16.22 -15.404,-16.22c0,-0 11.354,15.862 3.65,16.445c-7.708,0.58 -19.467,-13.066 -19.467,-13.066c0,-0 -18.037,8.171 -28.379,8.171c-10.341,-0 -114.554,26.025 -133.408,15.208c-18.854,-10.817 -68.65,-114.954 -68.65,-114.954Z" style="fill:url(#_Linear16);"/><path d="M1290.42,953.992c-0.37,-0 -0.733,-0.171 -0.975,-0.492c-0.404,-0.537 -0.291,-1.3 0.246,-1.704l10.759,-8.075l-34.567,-95.65c-0.225,-0.638 0.1,-1.329 0.733,-1.563c0.629,-0.22 1.325,0.1 1.554,0.738l34.871,96.504c0.184,0.5 0.017,1.067 -0.412,1.379l-11.479,8.613c-0.221,0.171 -0.475,0.25 -0.73,0.25Z" style="fill:#ffcf59;"/><path d="M1226.48,975.788c-0.388,-0 -0.771,-0.188 -1.009,-0.53l-29.191,-42.987c-0.379,-0.546 -0.234,-1.308 0.321,-1.683c0.554,-0.38 1.312,-0.234 1.691,0.32l29.192,42.98c0.379,0.554 0.233,1.316 -0.321,1.691c-0.208,0.146 -0.446,0.209 -0.683,0.209Z" style="fill:#ffcf59;"/></g></g></g><path d="M1076.64,1595.71c-19.708,-0 -36.225,-18.63 -37.696,-42.925l-10.316,-170.042c-0.78,-12.867 2.841,-25.458 10,-34.913c7.158,-9.454 17.2,-14.633 27.72,-14.633l579,0c20.888,0 37.621,20.396 37.621,46.008l0,144.905c0,24.966 -16.008,45.47 -36.358,46.375l-568.583,25.191c-0.463,0.025 -0.93,0.034 -1.388,0.034Zm65.054,-223.234c-9.762,0 -17.675,8.925 -17.675,19.784l0,1.016c0,10.859 7.913,18.475 17.675,18.475l475.263,0c9.762,0 17.675,-7.616 17.675,-18.475l-0,-1.016c-0,-10.859 -7.913,-19.784 -17.675,-19.784l-475.263,0Z" style="fill:url(#_Linear17);"/><path d="M1136.28,1540.76l-23.229,-10.03c-1.809,-0.779 -3.884,-0.625 -5.55,0.421l-21.434,13.454c-4.196,2.625 -9.591,-0.691 -9.129,-5.629l2.367,-25.191c0.183,-1.963 -0.609,-3.888 -2.121,-5.142l-19.408,-16.229c-3.805,-3.184 -2.313,-9.338 2.525,-10.421l24.687,-5.542c1.921,-0.429 3.508,-1.771 4.242,-3.6l9.437,-23.479c1.846,-4.596 8.167,-5.079 10.692,-0.817l12.892,21.767c1.004,1.696 2.775,2.788 4.737,2.925l25.246,1.717c4.942,0.333 7.354,6.196 4.079,9.912l-16.721,18.992c-1.3,1.475 -1.787,3.5 -1.308,5.412l6.162,24.534c1.209,4.812 -3.62,8.916 -8.166,6.946Z" style="fill:#fff;"/><path d="M1257.71,1540.76l-23.229,-10.03c-1.805,-0.779 -3.88,-0.625 -5.546,0.421l-21.434,13.454c-4.2,2.625 -9.595,-0.691 -9.129,-5.629l2.363,-25.191c0.183,-1.963 -0.609,-3.888 -2.117,-5.142l-19.412,-16.229c-3.8,-3.184 -2.309,-9.338 2.525,-10.421l24.691,-5.542c1.921,-0.429 3.504,-1.771 4.238,-3.6l9.437,-23.479c1.85,-4.596 8.167,-5.079 10.692,-0.817l12.896,21.767c1,1.696 2.775,2.788 4.737,2.925l25.242,1.717c4.946,0.333 7.354,6.196 4.083,9.912l-16.721,18.992c-1.3,1.475 -1.791,3.5 -1.312,5.412l6.167,24.534c1.208,4.812 -3.621,8.916 -8.171,6.946Z" style="fill:#fff;"/><path d="M1386.99,1540.76l-23.229,-10.03c-1.813,-0.779 -3.879,-0.625 -5.546,0.421l-21.438,13.454c-4.191,2.625 -9.587,-0.691 -9.133,-5.629l2.367,-25.191c0.187,-1.963 -0.609,-3.888 -2.113,-5.142l-19.416,-16.229c-3.8,-3.184 -2.309,-9.338 2.529,-10.421l24.691,-5.542c1.917,-0.429 3.505,-1.771 4.238,-3.6l9.437,-23.479c1.846,-4.596 8.163,-5.079 10.692,-0.817l12.896,21.767c1.004,1.696 2.767,2.788 4.729,2.925l25.246,1.717c4.946,0.333 7.358,6.196 4.087,9.912l-16.725,18.992c-1.3,1.475 -1.791,3.5 -1.308,5.412l6.167,24.534c1.2,4.812 -3.621,8.916 -8.171,6.946Z" style="fill:#fff;"/><path d="M1512,1540.76l-23.225,-10.03c-1.813,-0.779 -3.884,-0.625 -5.55,0.421l-21.434,13.454c-4.204,2.625 -9.6,-0.691 -9.133,-5.629l2.367,-25.191c0.187,-1.963 -0.609,-3.888 -2.117,-5.142l-19.408,-16.229c-3.809,-3.184 -2.313,-9.338 2.516,-10.421l24.7,-5.542c1.917,-0.429 3.504,-1.771 4.238,-3.6l9.437,-23.479c1.846,-4.596 8.163,-5.079 10.688,-0.817l12.896,21.767c1.004,1.696 2.77,2.788 4.733,2.925l25.242,1.717c4.95,0.333 7.358,6.196 4.087,9.912l-16.721,18.992c-1.3,1.475 -1.791,3.5 -1.308,5.412l6.158,24.534c1.209,4.812 -3.612,8.916 -8.166,6.946Z" style="fill:#fff;"/><path d="M1640.29,1540.76l-23.229,-10.03c-1.8,-0.779 -3.879,-0.625 -5.546,0.421l-21.438,13.454c-4.191,2.625 -9.587,-0.691 -9.129,-5.629l2.363,-25.191c0.191,-1.963 -0.6,-3.888 -2.113,-5.142l-19.412,-16.229c-3.796,-3.184 -2.309,-9.338 2.529,-10.421l24.687,-5.542c1.917,-0.429 3.505,-1.771 4.242,-3.6l9.433,-23.479c1.846,-4.596 8.163,-5.079 10.692,-0.817l12.896,21.767c1.004,1.696 2.779,2.788 4.742,2.925l25.241,1.717c4.938,0.333 7.35,6.196 4.079,9.912l-16.72,18.992c-1.3,1.475 -1.796,3.5 -1.309,5.412l6.163,24.534c1.212,4.812 -3.621,8.916 -8.171,6.946Z" style="fill:#fff;"/><path d="M1616.96,1411.75l-475.263,0c-9.762,0 -17.675,-7.616 -17.675,-18.475l0,-1.016c0,-10.859 7.913,-19.784 17.675,-19.784l475.263,0c9.762,0 17.675,8.925 17.675,19.784l-0,1.016c-0,10.859 -7.913,18.475 -17.675,18.475Z" style="fill:url(#_Linear18);"/><path d="M2951.23,1102.29l-113.63,-0l5.53,-10.009l-80.088,3.255l4.258,6.754l-687.541,-0c-5.913,-0 -10.754,-4.838 -10.754,-10.75l-0,-172.096c-0,-5.913 4.841,-10.754 10.754,-10.754l871.471,-0c5.916,-0 10.754,4.841 10.754,10.754l-0,172.096c-0,5.912 -4.838,10.75 -10.754,10.75Z" style="fill:#d8e0fc;fill-rule:nonzero;"/><path d="M2804.74,1161.77l-37.442,-59.479l-4.258,-6.754l80.088,-3.255l-5.53,10.009l-32.858,59.479Z" style="fill:#d8e0fc;fill-rule:nonzero;"/><path d="M2267.87,1009.75c0,42.863 -34.754,77.613 -77.612,77.613c-42.863,-0 -77.617,-34.75 -77.617,-77.613c-0,-42.862 34.754,-77.612 77.617,-77.612c42.858,-0 77.612,34.75 77.612,77.612Z" style="fill:#fff;fill-rule:nonzero;"/><path d="M2213.87,980.304c0,13.296 -10.637,27.329 -23.804,26.938c-13.2,-0.396 -23.925,-15.163 -23.925,-28.534c-0,-13.379 10.725,-22.475 23.925,-22c13.167,0.475 23.804,10.296 23.804,23.596Z" style="fill:url(#_Linear19);"/><path d="M2160.35,1057.87l58.255,1.4c6.087,0.142 11.47,-3.721 13.316,-9.554l3.104,-9.775c2.275,-7.163 -1.416,-15.084 -8.425,-17.888c-23.566,-9.429 -48.079,-9.025 -73.329,-1.271c-7.108,2.175 -11.05,9.73 -9.087,17.063l2.437,9.112c1.684,6.292 7.313,10.763 13.729,10.913Z" style="fill:url(#_Linear20);"/><path d="M2966.34,1638.65l-113.633,-0l5.529,-10l-80.088,3.254l4.259,6.746l-283.859,-0c42.684,-53.604 68.671,-120.654 70.3,-193.592l397.492,0c5.913,0 10.75,4.842 10.75,10.754l0,172.088c0,5.912 -4.837,10.75 -10.75,10.75Z" style="fill:#d8e0fc;fill-rule:nonzero;"/><path d="M2819.85,1698.12l-37.441,-59.479l-4.259,-6.746l80.088,-3.254l-5.529,10l-32.859,59.479Z" style="fill:#d8e0fc;fill-rule:nonzero;"/><path d="M2282.97,1546.11c0,42.862 -34.75,77.604 -77.612,77.604c-42.863,-0 -77.617,-34.742 -77.617,-77.604c0,-42.871 34.754,-77.613 77.617,-77.613c42.862,0 77.612,34.742 77.612,77.613Z" style="fill:#fff;fill-rule:nonzero;"/><path d="M2966.34,1369.21l-404.733,0c-17.142,-78.816 -63.229,-147.1 -126.829,-193.591l531.562,-0c5.913,-0 10.75,4.837 10.75,10.754l0,172.083c0,5.921 -4.837,10.754 -10.75,10.754Z" style="fill:#d8e0fc;fill-rule:nonzero;"/><path d="M2778.23,1276.67c-0,42.862 34.741,77.608 77.604,77.608c42.871,0 77.612,-34.746 77.612,-77.608c0,-42.863 -34.741,-77.613 -77.612,-77.613c-42.863,0 -77.604,34.75 -77.604,77.613Z" style="fill:#fff;fill-rule:nonzero;"/><path d="M2832.23,1247.23c-0,13.3 10.637,27.333 23.791,26.938c13.2,-0.392 23.938,-15.163 23.938,-28.534c-0,-13.379 -10.738,-22.475 -23.938,-22c-13.154,0.475 -23.791,10.296 -23.791,23.596Z" style="fill:url(#_Linear21);"/><path d="M2885.75,1324.8l-58.266,1.396c-6.084,0.146 -11.463,-3.717 -13.317,-9.55l-3.1,-9.788c-2.267,-7.15 1.425,-15.075 8.433,-17.879c23.559,-9.425 48.067,-9.025 73.33,-1.271c7.1,2.179 11.05,9.734 9.087,17.063l-2.437,9.112c-1.684,6.292 -7.313,10.763 -13.73,10.917Z" style="fill:url(#_Linear22);"/><path d="M2976.41,1900.53l-687.55,0l4.258,-6.758l-80.079,-3.242l5.529,10l-113.629,0c-5.917,0 -10.754,-4.837 -10.754,-10.754l-0,-156.771c43.112,20.05 91.317,31.267 142.187,31.267c69.9,0 134.746,-21.167 188.28,-57.333l551.758,-0c5.912,-0 10.754,4.837 10.754,10.754l0,172.083c0,5.917 -4.842,10.754 -10.754,10.754Z" style="fill:#d8e0fc;fill-rule:nonzero;"/><path d="M2251.43,1960.01l-32.863,-59.475l-5.529,-10l80.079,3.242l-4.258,6.758l-37.429,59.475Z" style="fill:#d8e0fc;fill-rule:nonzero;"/><path d="M2788.3,1808c-0,42.863 34.745,77.604 77.616,77.604c42.859,0 77.604,-34.741 77.604,-77.604c0,-42.871 -34.745,-77.617 -77.604,-77.617c-42.871,0 -77.616,34.746 -77.616,77.617Z" style="fill:#fff;fill-rule:nonzero;"/><path d="M2842.3,1778.55c-0,13.3 10.637,27.333 23.795,26.938c13.2,-0.4 23.934,-15.163 23.934,-28.542c-0,-13.367 -10.734,-22.475 -23.934,-21.988c-13.158,0.475 -23.795,10.296 -23.795,23.592Z" style="fill:url(#_Linear23);"/><path d="M2895.82,1856.12l-58.266,1.4c-6.088,0.142 -11.463,-3.721 -13.317,-9.554l-3.104,-9.788c-2.267,-7.158 1.425,-15.071 8.425,-17.875c23.571,-9.429 48.079,-9.025 73.342,-1.275c7.095,2.179 11.045,9.725 9.083,17.063l-2.438,9.112c-1.683,6.292 -7.312,10.763 -13.725,10.917Z" style="fill:url(#_Linear24);"/><path d="M2898.55,2458.58c25.12,2.175 68.708,5.7 103.083,7.213c20.658,0.904 32.55,-1.113 39.396,-3.855c-0.009,0.771 -0.029,1.496 -0.063,2.18c-0.162,3.612 -3.1,6.504 -6.75,6.712c-64.941,3.621 -116.587,1.254 -134.975,0.133c-3.8,-0.233 -6.066,-4.362 -4.121,-7.6c0.975,-1.62 2.15,-3.216 3.43,-4.783Z" style="fill:url(#_Linear25);"/><path d="M3001.64,2465.79c-34.375,-1.513 -77.963,-5.038 -103.083,-7.213c24.7,-30.3 103.083,-50.712 103.083,-50.712l22.133,-0c15.229,21.945 17.434,42.841 17.263,54.07c-6.846,2.742 -18.738,4.759 -39.396,3.855Z" style="fill:url(#_Linear26);"/><path d="M3027.5,2371.72l-2.07,40.987c-0.221,4.446 -3.546,8.175 -7.992,8.809c-4.429,0.629 -10.35,0.708 -16.633,-1.379c-3.863,-1.28 -6.738,-4.542 -7.446,-8.513l-7.159,-39.904l41.3,-0Z" style="fill:url(#_Linear27);"/><path d="M3315.03,2465.48c10.9,-1.525 15.825,-7.179 17.887,-13.229l0.046,0.163c1.604,6.379 -2.117,12.996 -9.546,16.141c-8.971,3.796 -18.791,4.442 -26.408,4.13c-8.171,-0.334 -15.683,-3.721 -19.804,-9.134l-0.063,-0.079c8.209,4.058 19.725,4.533 37.888,2.008Z" style="fill:url(#_Linear28);"/><path d="M3263.69,2371.45l18.254,0c27.804,-0.562 45.271,58.088 50.979,80.804c-2.062,6.05 -6.987,11.704 -17.887,13.229c-18.163,2.525 -29.679,2.05 -37.888,-2.008c-15.021,-19.767 -22.475,-48.721 -26.05,-65.625c-4.071,-19.221 12.592,-26.4 12.592,-26.4Z" style="fill:url(#_Linear29);"/><path d="M3279.59,2333.4l10.138,40.329c1.245,4.938 -1.121,10.054 -5.692,12.4c-5.675,2.904 -13.658,5.971 -20.996,5.084c-3.45,-0.421 -6.317,-2.85 -7.458,-6.096l-14.884,-42.421l38.892,-9.296Z" style="fill:url(#_Linear30);"/><path d="M3291.68,2345.06c-12.609,11.188 -53.634,12.663 -53.634,12.663c-147.779,-354.679 -208.225,-405.067 -208.225,-405.067c21.338,133.871 3.442,430.25 3.442,430.25c-24.392,10.763 -55.829,0 -55.829,0c-1.979,-219.166 -35.667,-410.304 -75.463,-560.987c99.875,-2.242 152.996,-36.421 170.338,-50.142c83.258,134.225 219.371,573.283 219.371,573.283Z" style="fill:url(#_Linear31);"/><path d="M3046.94,1363.89c18.908,94.3 12.133,263.079 7.679,340.058c-1.246,21.642 13.854,51.633 26.071,72.1c1.908,3.208 0.733,7.321 -2.592,9.025c-20.441,10.513 -89.691,43.071 -169.95,47.121c-5.35,0.267 -10.129,-3.379 -11.516,-8.55c-59.53,-222.288 -128.675,-364.333 -128.675,-364.333c76.341,-121.909 278.983,-95.421 278.983,-95.421Z" style="fill:#64a1ff;"/><path d="M3019.73,1944.25c0.841,0 1.691,-0.221 2.462,-0.687c2.229,-1.363 2.938,-4.275 1.575,-6.5c-0.796,-1.309 -19.908,-32.204 -58.587,-50.863c-2.359,-1.129 -5.179,-0.162 -6.325,2.204c-1.129,2.35 -0.146,5.18 2.212,6.309c36.059,17.404 54.442,46.975 54.621,47.271c0.896,1.462 2.446,2.266 4.042,2.266Z" style="fill:url(#_Linear32);"/><path d="M3165.52,1634.53c-6.079,43.929 -24.016,91.846 -59.908,142.746l-13.637,-11.121c-0,0 15.741,-63.904 6.791,-136.429c22.142,-4.317 48.292,0.137 66.754,4.804Z" style="fill:url(#_Linear33);"/><path d="M3025.82,1480.25l21.113,-116.354c-0,-0 141.087,107.841 118.587,270.633c-18.462,-4.667 -44.612,-9.121 -66.754,-4.804c-6.454,-52.233 -25.721,-108.95 -72.946,-149.475Z" style="fill:#64a1ff;"/><path d="M2767.95,1459.31l54.458,117.287c-8.808,70.804 -46.842,101.425 -87.858,113.163c-2.563,-32.271 -10.717,-58.338 -18.288,-76.375c52.404,-54.1 51.688,-154.075 51.688,-154.075Z" style="fill:#64a1ff;"/><path d="M2716.26,1613.39c7.571,18.037 15.725,44.104 18.288,76.375c-109.425,42.458 -138.371,-39.88 -138.371,-39.88l20.216,-3.566c45.667,4.812 77.571,-9.909 99.867,-32.929Z" style="fill:url(#_Linear34);"/><path d="M2818.13,1314.52l26.283,96.65c2.958,10.858 14.704,16.683 25.146,12.508c11.283,-4.508 25.583,-10.654 37.896,-17.304c13.145,-7.096 17.258,-24.008 8.933,-36.413l-54.654,-81.5l-43.604,26.059Z" style="fill:url(#_Linear35);"/><path d="M2498.55,1638.65l-403.683,-0c-5.912,-0 -10.754,-4.838 -10.754,-10.75l-0,-172.088c-0,-5.912 4.842,-10.754 10.754,-10.754l473.983,0c-1.629,72.938 -27.616,139.988 -70.3,193.592Zm-293.187,-170.146c-42.863,0 -77.617,34.742 -77.617,77.613c0,42.862 34.754,77.604 77.617,77.604c42.862,-0 77.612,-34.742 77.612,-77.604c0,-42.871 -34.75,-77.613 -77.612,-77.613Z" style="fill:#e7ecfd;fill-rule:nonzero;"/><path d="M2205.36,1623.72c-42.863,-0 -77.617,-34.742 -77.617,-77.604c0,-42.871 34.754,-77.613 77.617,-77.613c42.862,0 77.612,34.742 77.612,77.613c0,42.862 -34.75,77.604 -77.612,77.604Zm-0.621,-72.379c-11.933,-0 -24.058,2.025 -36.362,5.808c-7.109,2.175 -11.05,9.721 -9.088,17.062l2.438,9.113c1.683,6.292 7.312,10.762 13.729,10.912l58.258,1.4l0.329,0c5.95,0 11.167,-3.825 12.988,-9.554l3.1,-9.783c2.266,-7.154 -1.417,-15.075 -8.425,-17.879c-12.079,-4.829 -24.421,-7.079 -36.967,-7.079Zm-0.554,-58.284c-12.742,0 -22.942,8.979 -22.942,22.017c0,13.371 10.729,28.137 23.929,28.533c0.188,0 0.367,0.009 0.546,0.009c12.904,-0 23.246,-13.838 23.246,-26.946c0,-13.3 -10.629,-23.121 -23.792,-23.596c-0.333,-0.008 -0.654,-0.017 -0.987,-0.017Z" style="fill:#fff;fill-rule:nonzero;"/><path d="M2205.72,1543.61c-0.179,-0 -0.358,-0.009 -0.546,-0.009c-13.2,-0.396 -23.929,-15.162 -23.929,-28.533c0,-13.038 10.2,-22.017 22.942,-22.017c0.333,0 0.654,0.009 0.987,0.017c13.163,0.475 23.792,10.296 23.792,23.596c0,13.108 -10.342,26.946 -23.246,26.946Z" style="fill:url(#_Linear36);"/><path d="M2234.04,1595.63l-0.329,0l-58.258,-1.4c-6.417,-0.15 -12.046,-4.62 -13.729,-10.912l-2.438,-9.113c-1.962,-7.341 1.979,-14.887 9.088,-17.062c12.304,-3.783 24.429,-5.808 36.362,-5.808c12.546,-0 24.888,2.25 36.967,7.079c7.008,2.804 10.691,10.725 8.425,17.879l-3.1,9.783c-1.821,5.729 -7.038,9.554 -12.988,9.554Z" style="fill:url(#_Linear37);"/><path d="M2561.61,1369.21l-282.817,0l4.254,-6.75l-80.079,-3.254l5.529,10.004l-113.629,0c-5.912,0 -10.754,-4.833 -10.754,-10.754l-0,-172.083c-0,-5.917 4.842,-10.754 10.754,-10.754l339.913,-0c63.6,46.491 109.687,114.775 126.829,193.591Z" style="fill:#e7ecfd;fill-rule:nonzero;"/><path d="M2241.36,1428.69l-32.863,-59.484l-5.529,-10.004l80.079,3.254l-4.254,6.75l-37.433,59.484Z" style="fill:#e7ecfd;fill-rule:nonzero;"/><path d="M2760.6,1241.09c-0.242,1.658 21.929,110.295 21.929,110.295l61.762,-13.979l-5.716,-106.083c-0,-0 -73.959,-18.013 -77.975,9.767Z" style="fill:url(#_Linear38);"/><path d="M2824.69,1254.96l7.383,55.617c0.092,0.704 0.092,1.413 -0.008,2.121c-0.625,4.367 -3.863,19.204 -18.846,14.958c-13.592,-3.854 -26.05,-7.162 -34.662,-4.525c-3.863,1.184 -6.2,5.088 -5.384,9.05c2.017,9.875 6.971,32.029 14.213,50.621c1.466,3.775 5.6,5.754 9.487,4.617c11.713,-3.413 36.213,-11.3 54.434,-22.271c2.47,-1.488 3.941,-4.175 3.825,-7.05c-0.6,-14.042 -2.242,-56.717 -0.859,-68.671c1.296,-11.229 15.079,-17.958 21.067,-20.371c1.962,-0.787 3.504,-2.337 4.283,-4.3c2.771,-6.946 6.596,-23.021 -13.666,-29.608c-4.238,-1.379 -6.471,-5.958 -4.963,-10.154c3,-8.35 4.263,-21.104 -11.408,-28.121c-15.934,-7.142 -27.825,1.354 -34.25,8.254c-2.6,2.788 -6.767,3.217 -9.992,1.175c-1.837,-1.158 -4.196,-1.533 -7.054,0.242c-3.846,2.4 -8.942,0.762 -10.933,-3.317c-3.809,-7.825 -11.588,-16.212 -27.18,-13.542c-27.67,4.742 -30.808,35.409 -23.512,53.375c7.3,17.967 37.017,11.13 51.921,2.071c11.337,-6.891 26.033,0.329 32.429,4.184c2.025,1.22 3.362,3.308 3.675,5.645Z" style="fill:url(#_Linear39);"/><path d="M2856.76,1309.7c-0,-0 -11.383,-31.858 0.312,-39.663c11.684,-7.795 29,-3.745 25.18,19.33c-4.738,28.704 -25.492,20.333 -25.492,20.333Z" style="fill:url(#_Linear40);"/><path d="M3097.6,1764.21l-63.688,-5.188l-27.583,25.425c-0,0 6.525,9.013 26.929,3.833c20.396,-5.187 48.337,-6.462 48.337,-6.462c0,-0 28.167,12.7 28.509,-11.058l-12.504,-6.55Z" style="fill:url(#_Linear41);"/><path d="M2604.29,1664.95c-5.508,4.3 -24.383,-4.679 -35.925,-10.887c-5.629,-3.03 -8.35,-9.617 -6.425,-15.7c2.779,-8.767 7.413,-20.075 13.121,-21.5c9.462,-2.375 51.929,30.35 29.229,48.087Z" style="fill:url(#_Linear42);"/><path d="M3206.41,1918.97c0.271,-0 0.55,-0.046 0.817,-0.134c26.312,-9.104 32.433,-24.654 32.933,-36.087c0.725,-16.721 -9.788,-32.242 -26.133,-38.617l-80.892,-31.541c-1.254,-0.505 -2.717,0.125 -3.217,1.408c-0.504,1.279 0.134,2.721 1.417,3.225l80.883,31.533c14.375,5.613 23.604,19.179 22.967,33.775c-0.617,14.392 -10.575,25.029 -29.588,31.6c-1.3,0.446 -1.991,1.863 -1.533,3.163c0.358,1.029 1.317,1.675 2.346,1.675Z" style="fill:#91b3fa;fill-rule:nonzero;"/><path d="M3107.31,1807.67c0.992,-0 1.933,-0.6 2.321,-1.588c0.491,-1.279 -0.138,-2.712 -1.417,-3.216l-10.487,-4.084c-1.263,-0.504 -2.713,0.134 -3.217,1.413c-0.5,1.283 0.125,2.716 1.417,3.221l10.483,4.083c0.296,0.117 0.604,0.171 0.9,0.171Z" style="fill:#91b3fa;fill-rule:nonzero;"/><path d="M1720.67,1747.72l-742.508,-0c-5.175,-0 -9.408,-4.242 -9.408,-9.409l-0,-44.612c-0,-5.179 4.233,-9.408 9.408,-9.408l742.508,-0c5.171,-0 9.409,4.229 9.409,9.408l-0,44.612c-0,5.167 -4.238,9.409 -9.409,9.409Z" style="fill:#c6d1fa;fill-rule:nonzero;"/><path d="M1715.99,1844.41l-742.512,0c-5.175,0 -9.405,-4.229 -9.405,-9.4l0,-44.616c0,-5.171 4.23,-9.404 9.405,-9.404l742.512,-0c5.171,-0 9.4,4.233 9.4,9.404l0,44.616c0,5.171 -4.229,9.4 -9.4,9.4Z" style="fill:#c6d1fa;fill-rule:nonzero;"/><defs><linearGradient id="_Linear2" x1="0" y1="0" x2="1" y2="0" gradientUnits="userSpaceOnUse" gradientTransform="matrix(1118.07,-18.6345,18.6345,1118.07,1331.74,1012.58)"><stop offset="0" style="stop-color:#fdbaba;stop-opacity:1"/><stop offset="1" style="stop-color:#ff918e;stop-opacity:1"/></linearGradient><linearGradient id="_Linear3" x1="0" y1="0" x2="1" y2="0" gradientUnits="userSpaceOnUse" gradientTransform="matrix(-138.451,342.114,-342.114,-138.451,1392.77,645.921)"><stop offset="0" style="stop-color:#fdbaba;stop-opacity:1"/><stop offset="1" style="stop-color:#ff918e;stop-opacity:1"/></linearGradient><linearGradient id="_Linear4" x1="0" y1="0" x2="1" y2="0" gradientUnits="userSpaceOnUse" gradientTransform="matrix(-202.847,62.7062,-62.7062,-202.847,1436.14,639.683)"><stop offset="0" style="stop-color:#fdbaba;stop-opacity:1"/><stop offset="1" style="stop-color:#ff918e;stop-opacity:1"/></linearGradient><linearGradient id="_Linear5" x1="0" y1="0" x2="1" y2="0" gradientUnits="userSpaceOnUse" gradientTransform="matrix(77.3808,244.04,-244.04,77.3808,1360.12,502.771)"><stop offset="0" style="stop-color:#08005d;stop-opacity:1"/><stop offset="1" style="stop-color:#1a0e90;stop-opacity:1"/></linearGradient><linearGradient id="_Linear6" x1="0" y1="0" x2="1" y2="0" gradientUnits="userSpaceOnUse" gradientTransform="matrix(-202.847,62.7058,-62.7058,-202.847,1425.97,606.804)"><stop offset="0" style="stop-color:#fdbaba;stop-opacity:1"/><stop offset="1" style="stop-color:#ff918e;stop-opacity:1"/></linearGradient><linearGradient id="_Linear7" x1="0" y1="0" x2="1" y2="0" gradientUnits="userSpaceOnUse" gradientTransform="matrix(71.7712,-48.6583,48.6583,71.7712,1318.03,707.629)"><stop offset="0" style="stop-color:#4f52ff;stop-opacity:1"/><stop offset="1" style="stop-color:#3f42e2;stop-opacity:1"/></linearGradient><linearGradient id="_Linear8" x1="0" y1="0" x2="1" y2="0" gradientUnits="userSpaceOnUse" gradientTransform="matrix(320.265,-894.325,894.325,320.265,1439.52,376.151)"><stop offset="0" style="stop-color:#4f52ff;stop-opacity:1"/><stop offset="1" style="stop-color:#3f42e2;stop-opacity:1"/></linearGradient><linearGradient id="_Linear9" x1="0" y1="0" x2="1" y2="0" gradientUnits="userSpaceOnUse" gradientTransform="matrix(-115.819,132.94,-132.94,-115.819,1403.9,544.604)"><stop offset="0" style="stop-color:#4f52ff;stop-opacity:1"/><stop offset="1" style="stop-color:#3f42e2;stop-opacity:1"/></linearGradient><linearGradient id="_Linear10" x1="0" y1="0" x2="1" y2="0" gradientUnits="userSpaceOnUse" gradientTransform="matrix(265.88,-386.735,386.735,265.88,1426.86,483.871)"><stop offset="0" style="stop-color:#4f52ff;stop-opacity:1"/><stop offset="1" style="stop-color:#3f42e2;stop-opacity:1"/></linearGradient><linearGradient id="_Linear13" x1="0" y1="0" x2="1" y2="0" gradientUnits="userSpaceOnUse" gradientTransform="matrix(-1019.44,11.4713,-11.4713,-1019.44,1635.83,1115.56)"><stop offset="0" style="stop-color:#4f52ff;stop-opacity:1"/><stop offset="1" style="stop-color:#3f42e2;stop-opacity:1"/></linearGradient><linearGradient id="_Linear15" x1="0" y1="0" x2="1" y2="0" gradientUnits="userSpaceOnUse" gradientTransform="matrix(84.1671,0,0,84.1671,1460.62,1074.54)"><stop offset="0" style="stop-color:#08005d;stop-opacity:1"/><stop offset="1" style="stop-color:#1a0e90;stop-opacity:1"/></linearGradient><linearGradient id="_Linear16" x1="0" y1="0" x2="1" y2="0" gradientUnits="userSpaceOnUse" gradientTransform="matrix(1359.64,-22.6606,22.6606,1359.64,1059.48,1029.08)"><stop offset="0" style="stop-color:#fdbaba;stop-opacity:1"/><stop offset="1" style="stop-color:#ff918e;stop-opacity:1"/></linearGradient><linearGradient id="_Linear17" x1="0" y1="0" x2="1" y2="0" gradientUnits="userSpaceOnUse" gradientTransform="matrix(654.45,0,0,654.45,1028.52,1464.46)"><stop offset="0" style="stop-color:#4f52ff;stop-opacity:1"/><stop offset="1" style="stop-color:#3f42e2;stop-opacity:1"/></linearGradient><linearGradient id="_Linear18" x1="0" y1="0" x2="1" y2="0" gradientUnits="userSpaceOnUse" gradientTransform="matrix(654.45,0,0,654.45,1028.52,1464.46)"><stop offset="0" style="stop-color:#cacaff;stop-opacity:1"/><stop offset="1" style="stop-color:#c4c6f6;stop-opacity:1"/></linearGradient><linearGradient id="_Linear19" x1="0" y1="0" x2="1" y2="0" gradientUnits="userSpaceOnUse" gradientTransform="matrix(33.2349,-416.95,416.95,33.2349,2228.82,492.429)"><stop offset="0" style="stop-color:#4f52ff;stop-opacity:1"/><stop offset="1" style="stop-color:#3f42e2;stop-opacity:1"/></linearGradient><linearGradient id="_Linear20" x1="0" y1="0" x2="1" y2="0" gradientUnits="userSpaceOnUse" gradientTransform="matrix(33.2348,-416.946,416.946,33.2348,2232.89,492.754)"><stop offset="0" style="stop-color:#4f52ff;stop-opacity:1"/><stop offset="1" style="stop-color:#3f42e2;stop-opacity:1"/></linearGradient><linearGradient id="_Linear21" x1="0" y1="0" x2="1" y2="0" gradientUnits="userSpaceOnUse" gradientTransform="matrix(33.2349,-416.95,416.95,33.2349,2911.85,546.871)"><stop offset="0" style="stop-color:#4f52ff;stop-opacity:1"/><stop offset="1" style="stop-color:#3f42e2;stop-opacity:1"/></linearGradient><linearGradient id="_Linear22" x1="0" y1="0" x2="1" y2="0" gradientUnits="userSpaceOnUse" gradientTransform="matrix(33.2349,-416.95,416.95,33.2349,2916.55,547.246)"><stop offset="0" style="stop-color:#4f52ff;stop-opacity:1"/><stop offset="1" style="stop-color:#3f42e2;stop-opacity:1"/></linearGradient><linearGradient id="_Linear23" x1="0" y1="0" x2="1" y2="0" gradientUnits="userSpaceOnUse" gradientTransform="matrix(33.2349,-416.95,416.95,33.2349,2963.95,551.029)"><stop offset="0" style="stop-color:#4f52ff;stop-opacity:1"/><stop offset="1" style="stop-color:#3f42e2;stop-opacity:1"/></linearGradient><linearGradient id="_Linear24" x1="0" y1="0" x2="1" y2="0" gradientUnits="userSpaceOnUse" gradientTransform="matrix(33.2349,-416.95,416.95,33.2349,2968.64,551.413)"><stop offset="0" style="stop-color:#4f52ff;stop-opacity:1"/><stop offset="1" style="stop-color:#3f42e2;stop-opacity:1"/></linearGradient><linearGradient id="_Linear25" x1="0" y1="0" x2="1" y2="0" gradientUnits="userSpaceOnUse" gradientTransform="matrix(-146.619,1.79557e-14,-1.79557e-14,-146.619,3041.03,2465.67)"><stop offset="0" style="stop-color:#4f52ff;stop-opacity:1"/><stop offset="1" style="stop-color:#3f42e2;stop-opacity:1"/></linearGradient><linearGradient id="_Linear26" x1="0" y1="0" x2="1" y2="0" gradientUnits="userSpaceOnUse" gradientTransform="matrix(-142.487,1.74496e-14,-1.74496e-14,-142.487,3041.04,2436.93)"><stop offset="0" style="stop-color:#08005d;stop-opacity:1"/><stop offset="1" style="stop-color:#1a0e90;stop-opacity:1"/></linearGradient><linearGradient id="_Linear27" x1="0" y1="0" x2="1" y2="0" gradientUnits="userSpaceOnUse" gradientTransform="matrix(-41.2995,5.05774e-15,-5.05774e-15,-41.2995,3027.5,2396.81)"><stop offset="0" style="stop-color:#fdbaba;stop-opacity:1"/><stop offset="1" style="stop-color:#ff918e;stop-opacity:1"/></linearGradient><linearGradient id="_Linear28" x1="0" y1="0" x2="1" y2="0" gradientUnits="userSpaceOnUse" gradientTransform="matrix(-56.1867,6.88088e-15,-6.88088e-15,-56.1867,3333.33,2462.51)"><stop offset="0" style="stop-color:#4f52ff;stop-opacity:1"/><stop offset="1" style="stop-color:#3f42e2;stop-opacity:1"/></linearGradient><linearGradient id="_Linear29" x1="0" y1="0" x2="1" y2="0" gradientUnits="userSpaceOnUse" gradientTransform="matrix(-82.4712,1.00998e-14,-1.00998e-14,-82.4712,3332.92,2419.24)"><stop offset="0" style="stop-color:#08005d;stop-opacity:1"/><stop offset="1" style="stop-color:#1a0e90;stop-opacity:1"/></linearGradient><linearGradient id="_Linear30" x1="0" y1="0" x2="1" y2="0" gradientUnits="userSpaceOnUse" gradientTransform="matrix(-49.3575,6.04455e-15,-6.04455e-15,-49.3575,3290.06,2362.38)"><stop offset="0" style="stop-color:#fdbaba;stop-opacity:1"/><stop offset="1" style="stop-color:#ff918e;stop-opacity:1"/></linearGradient><linearGradient id="_Linear31" x1="0" y1="0" x2="1" y2="0" gradientUnits="userSpaceOnUse" gradientTransform="matrix(-171.211,171.211,-171.211,-171.211,3514.56,1665.75)"><stop offset="0" style="stop-color:#4f52ff;stop-opacity:1"/><stop offset="1" style="stop-color:#3f42e2;stop-opacity:1"/></linearGradient><linearGradient id="_Linear32" x1="0" y1="0" x2="1" y2="0" gradientUnits="userSpaceOnUse" gradientTransform="matrix(151.068,-469.321,469.321,151.068,2998.75,1892.22)"><stop offset="0" style="stop-color:#4f52ff;stop-opacity:1"/><stop offset="1" style="stop-color:#3f42e2;stop-opacity:1"/></linearGradient><linearGradient id="_Linear33" x1="0" y1="0" x2="1" y2="0" gradientUnits="userSpaceOnUse" gradientTransform="matrix(175.704,-155.589,155.589,175.704,3063.93,1642.94)"><stop offset="0" style="stop-color:#fdbaba;stop-opacity:1"/><stop offset="1" style="stop-color:#ff918e;stop-opacity:1"/></linearGradient><linearGradient id="_Linear34" x1="0" y1="0" x2="1" y2="0" gradientUnits="userSpaceOnUse" gradientTransform="matrix(-138.374,1.69459e-14,-1.69459e-14,-138.374,2734.55,1657.65)"><stop offset="0" style="stop-color:#fdbaba;stop-opacity:1"/><stop offset="1" style="stop-color:#ff918e;stop-opacity:1"/></linearGradient><linearGradient id="_Linear35" x1="0" y1="0" x2="1" y2="0" gradientUnits="userSpaceOnUse" gradientTransform="matrix(1.51131,-258.403,258.403,1.51131,2869.05,1287.88)"><stop offset="0" style="stop-color:#fdbaba;stop-opacity:1"/><stop offset="1" style="stop-color:#ff918e;stop-opacity:1"/></linearGradient><linearGradient id="_Linear36" x1="0" y1="0" x2="1" y2="0" gradientUnits="userSpaceOnUse" gradientTransform="matrix(33.2349,-416.95,416.95,33.2349,2286.32,497.008)"><stop offset="0" style="stop-color:#9395ff;stop-opacity:1"/><stop offset="1" style="stop-color:#898aed;stop-opacity:1"/></linearGradient><linearGradient id="_Linear37" x1="0" y1="0" x2="1" y2="0" gradientUnits="userSpaceOnUse" gradientTransform="matrix(33.2348,-416.946,416.946,33.2348,2290.39,497.342)"><stop offset="0" style="stop-color:#9395ff;stop-opacity:1"/><stop offset="1" style="stop-color:#898aed;stop-opacity:1"/></linearGradient><linearGradient id="_Linear38" x1="0" y1="0" x2="1" y2="0" gradientUnits="userSpaceOnUse" gradientTransform="matrix(101.858,-184.703,184.703,101.858,2785.2,1245.38)"><stop offset="0" style="stop-color:#fdbaba;stop-opacity:1"/><stop offset="1" style="stop-color:#ff918e;stop-opacity:1"/></linearGradient><linearGradient id="_Linear39" x1="0" y1="0" x2="1" y2="0" gradientUnits="userSpaceOnUse" gradientTransform="matrix(-441.321,-55.7992,55.7992,-441.321,2901.17,1273.08)"><stop offset="0" style="stop-color:#08005d;stop-opacity:1"/><stop offset="1" style="stop-color:#1a0e90;stop-opacity:1"/></linearGradient><linearGradient id="_Linear40" x1="0" y1="0" x2="1" y2="0" gradientUnits="userSpaceOnUse" gradientTransform="matrix(-86.0246,118.163,-118.163,-86.0246,2950.55,1403.87)"><stop offset="0" style="stop-color:#fdbaba;stop-opacity:1"/><stop offset="1" style="stop-color:#ff918e;stop-opacity:1"/></linearGradient><linearGradient id="_Linear41" x1="0" y1="0" x2="1" y2="0" gradientUnits="userSpaceOnUse" gradientTransform="matrix(175.703,-155.589,155.589,175.703,2994.54,1721.3)"><stop offset="0" style="stop-color:#fdbaba;stop-opacity:1"/><stop offset="1" style="stop-color:#ff918e;stop-opacity:1"/></linearGradient><linearGradient id="_Linear42" x1="0" y1="0" x2="1" y2="0" gradientUnits="userSpaceOnUse" gradientTransform="matrix(-49.5529,6.06848e-15,-6.06848e-15,-49.5529,2610.88,1641.41)"><stop offset="0" style="stop-color:#fdbaba;stop-opacity:1"/><stop offset="1" style="stop-color:#ff918e;stop-opacity:1"/></linearGradient></defs></svg>