<?xml version="1.0" encoding="UTF-8" standalone="no"?><!DOCTYPE svg PUBLIC "-//W3C//DTD SVG 1.1//EN" "http://www.w3.org/Graphics/SVG/1.1/DTD/svg11.dtd"><svg width="100%" height="100%" viewBox="0 0 424 493" version="1.1" xmlns="http://www.w3.org/2000/svg" xmlns:xlink="http://www.w3.org/1999/xlink" xml:space="preserve" xmlns:serif="http://www.serif.com/" style="fill-rule:evenodd;clip-rule:evenodd;stroke-linejoin:round;stroke-miterlimit:2;"><g><g><g><path d="M407.917,355.833c-0,3.75 -2.5,8.334 -5.834,10.417l-188.75,109.167c-3.333,2.083 -8.75,2.083 -12.083,-0l-189.167,-109.167c-3.333,-2.083 -5.833,-6.667 -5.833,-10.417l-0,-217.916c-0,-3.75 2.5,-8.334 5.833,-10.417l189.167,-109.167c3.333,-2.083 8.75,-2.083 12.083,0l188.75,109.167c3.334,2.083 5.834,6.667 5.834,10.417l-0,217.916Z" style="fill:#fff;fill-opacity:0.78;fill-rule:nonzero;"/><path d="M402.917,353.333c-0,3.75 -2.5,8.334 -5.834,10l-184.166,106.25c-3.334,1.667 -8.334,1.667 -11.667,0l-184.167,-106.25c-3.333,-1.666 -5.833,-6.25 -5.833,-10l-0,-212.916c-0,-3.75 2.5,-8.334 5.833,-10l184.167,-106.667c3.333,-1.667 8.333,-1.667 11.667,-0l184.166,106.25c3.334,1.667 5.834,6.25 5.834,10l-0,213.333Z" style="fill:#41aace;fill-opacity:0.27;fill-rule:nonzero;"/><path d="M375.417,200.417l-20.834,11.25l-7.5,-5l15.834,25.416l-140,79.584l-145,-179.167l158.333,-97.083l139.167,165Z" style="fill:url(#_Linear1);fill-rule:nonzero;"/><g><ellipse cx="107.5" cy="85.417" rx="45.833" ry="32.5" style="fill:#fff;"/><g><path d="M106.25,30.417c-33.75,-0 -61.25,24.583 -61.25,55.416c0,13.334 5,25.417 13.75,35l-8.75,28.75l26.667,-15.416c8.75,4.166 18.75,6.666 29.166,6.666c33.75,0 61.25,-24.583 61.25,-55.416c0.417,-30.417 -27.083,-55 -60.833,-55Zm-22.917,31.666l44.167,0c0.833,0 1.25,0.834 1.25,1.667c0,0.833 -0.833,1.25 -1.25,1.25l-44.167,0c-0.833,0 -1.25,-0.833 -1.25,-1.25c0,-0.833 0.417,-1.667 1.25,-1.667Zm55,37.917l-65.416,0c-1.25,0 -2.084,-0.833 -2.084,-1.667c0,-0.833 0.834,-1.666 2.084,-1.666l65.833,-0c1.25,-0 2.083,0.833 2.083,1.666c-0.416,1.25 -1.25,1.667 -2.5,1.667Zm0,-9.583l-65.416,-0c-1.25,-0 -2.084,-0.834 -2.084,-1.25c0,-0.834 0.834,-1.667 2.084,-1.667l65.833,0c1.25,0 2.083,0.833 2.083,1.667c-0.416,0.833 -1.25,1.25 -2.5,1.25Zm0,-10.834l-65.416,0c-1.25,0 -2.084,-0.833 -2.084,-1.666c0,-0.834 0.834,-1.25 2.084,-1.25l65.833,-0c1.25,-0 2.083,0.833 2.083,1.25c-0.416,1.25 -1.25,1.666 -2.5,1.666Z" style="fill:#185f93;fill-opacity:0.6;fill-rule:nonzero;"/><g><g><g><path d="M45,85.417c0,13.333 5,25.416 13.75,35l-8.75,28.75l26.667,-15.417c8.75,4.167 18.75,6.667 29.166,6.667l0.417,-0l0,-40.417l-33.75,0c-1.25,0 -2.083,-0.833 -2.083,-1.667c-0,-0.833 0.833,-1.666 2.083,-1.666l33.75,-0l0,-6.667l-33.75,0c-1.25,0 -2.083,-0.833 -2.083,-1.25c-0,-0.833 0.833,-1.667 2.083,-1.667l33.75,0l0,-7.916l-33.75,-0c-1.25,-0 -2.083,-0.834 -2.083,-1.667c-0,-0.833 0.833,-1.25 2.083,-1.25l33.75,0l0,-11.667l-22.917,0c-0.833,0 -1.25,-0.833 -1.25,-1.25c0,-0.833 0.834,-1.666 1.25,-1.666l23.334,-0l-0,-31.25l-0.417,-0c-33.75,-0 -61.25,24.583 -61.25,55Z" style="fill:#003768;fill-opacity:0.62;fill-rule:nonzero;"/></g></g></g></g></g><g><rect x="284.583" y="59.583" width="42.917" height="100.833" style="fill:#fff;fill-opacity:0.57;"/><g><path d="M369.167,33.333l-127.084,0c-5.416,0 -10,4.584 -10,10l0,91.667c38.334,0.417 69.167,28.333 69.167,62.917c0,2.083 0,3.75 -0.417,5.833l14.167,0l49.583,30l-7.916,-30l13.333,0c5.417,0 10,-4.583 10,-10l0,-150c-0.417,-6.25 -5,-10.417 -10.833,-10.417Zm-54.584,124.584l-14.583,-0l0,-65.834l14.583,0l0,65.834Zm0.834,-76.25c-0,1.666 -1.25,2.916 -2.917,2.916l-10.417,0c-1.666,0 -2.916,-1.25 -2.916,-2.916l-0,-9.584c-0,-1.666 0.833,-2.916 2.916,-2.916l10.417,-0c1.667,-0 2.917,1.25 2.917,2.916l-0,9.584Z" style="fill:#ff8b0d;fill-opacity:0.62;fill-rule:nonzero;"/><g><g><path d="M231.667,43.333l-0,91.667c38.333,0.417 69.166,28.333 69.166,62.917c0,2.083 0,3.75 -0.416,5.833l6.666,0l0,-45.833l-7.083,-0l0,-65.834l7.5,0l0,-7.083l-5.417,0c-1.666,0 -2.916,-1.25 -2.916,-2.917l-0,-9.583c-0,-1.667 0.833,-2.917 2.916,-2.917l5.417,0l0,-36.25l-65.417,0c-5.833,0 -10.416,4.167 -10.416,10Z" style="fill:#f74d11;fill-opacity:0.55;fill-rule:nonzero;"/></g></g></g></g><path d="M143.333,341.25l18.75,63.75l92.084,41.667l-46.667,25l-152.083,-86.25l73.75,-43.75l14.166,-0.417Z" style="fill:url(#_Linear2);fill-rule:nonzero;"/><g><clipPath id="_clip3"><path d="M402.917,353.333c-0,3.75 -2.5,8.334 -5.834,10l-184.166,106.25c-3.334,1.667 -8.334,1.667 -11.667,0l-184.583,-106.25c-3.334,-1.666 -5.834,-6.25 -5.834,-10l0,-212.916c0,-3.75 2.5,-8.334 5.834,-10l184.583,-106.667c3.333,-1.667 8.333,-1.667 11.667,-0l184.166,106.25c3.334,1.667 5.834,6.25 5.834,10l-0,213.333Z"/></clipPath><g clip-path="url(#_clip3)"><path d="M104.167,359.583l-87.5,47.084l-61.25,-83.334l72.083,-50.416l76.667,86.666Z" style="fill:url(#_Linear4);fill-rule:nonzero;"/></g><clipPath id="_clip5"><path d="M402.917,353.333c-0,3.75 -2.5,8.334 -5.834,10l-184.166,106.25c-3.334,1.667 -8.334,1.667 -11.667,0l-184.583,-106.25c-3.334,-1.666 -5.834,-6.25 -5.834,-10l0,-212.916c0,-3.75 2.5,-8.334 5.834,-10l184.583,-106.667c3.333,-1.667 8.333,-1.667 11.667,-0l184.166,106.25c3.334,1.667 5.834,6.25 5.834,10l-0,213.333Z"/></clipPath><g clip-path="url(#_clip5)"><path d="M235.833,139.583l40.417,20.834l30.417,43.75l9.166,107.5l-271.25,169.583l-104.583,-215l221.25,-129.167l74.583,2.5Z" style="fill:url(#_Linear6);fill-rule:nonzero;"/></g></g><g><g><path d="M128.333,341.25l0,77.5l70,0.417l0,-78.334l-70,0.417Z" style="fill:#bddbe0;fill-rule:nonzero;"/></g><g><rect x="142.917" y="357.5" width="21.25" height="1.25" style="fill:#fff;"/><rect x="142.917" y="362.917" width="21.25" height="1.25" style="fill:#fff;"/><rect x="142.917" y="368.75" width="21.25" height="1.25" style="fill:#fff;"/><rect x="142.917" y="374.583" width="21.25" height="1.25" style="fill:#fff;"/><rect x="142.917" y="380.417" width="45.417" height="1.25" style="fill:#fff;"/><rect x="142.917" y="388.333" width="45.417" height="1.25" style="fill:#fff;"/></g></g><g><path d="M197.5,367.917l-36.667,45.416l-7.5,5.834l-24.583,-0.834l0,-35l25,-15l43.75,-0.416Z" style="fill:url(#_Linear7);fill-rule:nonzero;"/><g><path d="M152.917,367.917l-0,55.416l13.75,10l7.083,12.917l89.167,0l-0,-78.333l-110,-0Z" style="fill:#fff;fill-rule:nonzero;"/><g><path d="M152.917,423.333l20.833,22.917l-1.25,-23.75l-19.583,0.833Z" style="fill:#bddbe0;fill-rule:nonzero;"/></g></g><g><rect x="167.5" y="380.833" width="35.417" height="1.25" style="fill:#bddbe0;"/><rect x="167.5" y="386.667" width="35.417" height="1.25" style="fill:#bddbe0;"/><rect x="167.5" y="392.5" width="35.417" height="1.25" style="fill:#bddbe0;"/><rect x="167.5" y="398.333" width="35.417" height="1.25" style="fill:#bddbe0;"/></g><g><rect x="215" y="380.833" width="35" height="1.25" style="fill:#bddbe0;"/><rect x="215" y="386.667" width="35" height="1.25" style="fill:#bddbe0;"/><rect x="215" y="392.5" width="35" height="1.25" style="fill:#bddbe0;"/><rect x="215" y="398.333" width="35" height="1.25" style="fill:#bddbe0;"/></g><rect x="167.5" y="407.5" width="84.167" height="1.25" style="fill:#bddbe0;"/><rect x="167.5" y="415.417" width="84.167" height="1.25" style="fill:#bddbe0;"/></g><g><g><g><g><path d="M320,264.167c-1.667,-5 -3.333,-9.167 -5.417,-12.084c0.834,-5.416 1.25,-11.25 1.25,-17.083c0,-60.417 -48.333,-109.167 -107.916,-109.167c-59.584,0 -107.917,49.167 -107.917,109.167c-0,5.833 0.417,11.667 1.25,17.5c-2.083,2.917 -3.333,7.083 -5,11.667c-2.5,6.666 -0.833,40 2.083,44.166c5.834,8.334 21.25,14.584 31.25,15.834c1.25,1.25 2.917,2.083 5,2.083c3.334,-0.417 5.834,-2.917 5.417,-6.25l-5.417,-59.583c-0.416,-3.334 -3.333,-5.417 -6.25,-5c-1.666,-0 -2.916,0.833 -3.75,1.666l-1.666,0c-3.334,-0.416 -7.917,-3.75 -10,-7.5c-0.834,-5 -1.25,-9.583 -1.25,-14.583c0.833,-53.75 43.75,-90.833 96.666,-90.833c52.917,-0 96.25,37.083 96.25,90.833c0,5 -0.416,10 -1.25,15c-2.083,3.75 -6.666,7.083 -9.583,7.083l-1.667,0c-0.833,-0.833 -2.083,-1.666 -3.75,-1.666c-3.333,-0.417 -6.25,2.083 -6.25,5l-5.416,59.583c-0.417,3.333 2.083,5.833 5.416,6.25c2.084,0 3.75,-0.417 5,-2.083c10,-1.25 25.417,-7.5 31.25,-15.834c2.5,-4.583 4.167,-37.5 1.667,-44.166Z" style="fill:#fff;fill-opacity:0.52;fill-rule:nonzero;"/><path d="M314.583,285.833c-6.25,-5 -8.75,0 -8.75,0c-3.333,6.25 -23.333,33.75 -66.666,46.25c-2.917,-3.333 -8.75,-5.416 -15.417,-5.416c-9.583,-0 -17.5,4.583 -17.5,10.416c0,5.834 7.917,10.417 17.5,10.417c9.583,0 17.5,-4.583 17.5,-10.417c15.417,-4.583 53.333,-18.333 73.333,-51.25Z" style="fill:#fff;fill-rule:nonzero;"/></g></g></g><g><path d="M100.833,235c0,5.833 0.417,11.667 1.25,17.5c-2.083,2.917 -3.333,7.083 -5,11.667c-2.5,6.666 -0.833,40 2.084,44.166c5.833,8.334 21.25,14.584 31.25,15.834c1.25,1.25 2.916,2.083 5,2.083c3.333,-0.417 5.833,-2.917 5.416,-6.25l-5.416,-59.583c-0.417,-3.334 -3.334,-5.417 -6.25,-5c-1.667,-0 -2.917,0.833 -3.75,1.666l-1.667,0c-3.333,-0.416 -7.917,-3.75 -10,-7.5c-0.833,-5 -1.25,-9.583 -1.25,-14.583c0,-53.75 42.917,-90.833 95.833,-90.833l3.334,-0l-0,-18.334l-3.334,0c-59.583,0 -107.5,48.75 -107.5,109.167Z" style="fill:#bddbe0;fill-opacity:0.5;fill-rule:nonzero;"/></g></g><g><g><g><path d="M27.5,273.75l0,60.833l15,11.25l7.917,14.167l54.166,0l0,-86.667l-77.083,0.417Z" style="fill:#fff;fill-rule:nonzero;"/><g><path d="M27.5,335l22.917,25l-1.25,-25.833l-21.667,0.833Z" style="fill:#bddbe0;fill-rule:nonzero;"/></g></g><g><rect x="43.75" y="291.667" width="23.75" height="1.25" style="fill:#bddbe0;"/><rect x="43.75" y="298.333" width="23.75" height="1.25" style="fill:#bddbe0;"/><rect x="43.75" y="304.583" width="23.75" height="1.25" style="fill:#bddbe0;"/><rect x="43.75" y="310.833" width="23.75" height="1.25" style="fill:#bddbe0;"/><rect x="43.75" y="317.5" width="50" height="1.25" style="fill:#bddbe0;"/><rect x="43.75" y="325.833" width="50" height="1.25" style="fill:#bddbe0;"/></g></g></g></g></g></g><defs><linearGradient id="_Linear1" x1="0" y1="0" x2="1" y2="0" gradientUnits="userSpaceOnUse" gradientTransform="matrix(176.75,-110.408,110.408,176.75,154.499,223.591)"><stop offset="0" style="stop-color:#fff;stop-opacity:0.5"/><stop offset="0.2" style="stop-color:#fff;stop-opacity:0.5"/><stop offset="0.3" style="stop-color:#e6e6e6;stop-opacity:0.5"/><stop offset="0.52" style="stop-color:#a5a5a5;stop-opacity:0.5"/><stop offset="0.82" style="stop-color:#3e3e3e;stop-opacity:0.5"/><stop offset="1" style="stop-color:#000;stop-opacity:0.5"/></linearGradient><linearGradient id="_Linear2" x1="0" y1="0" x2="1" y2="0" gradientUnits="userSpaceOnUse" gradientTransform="matrix(82.4767,-72.8442,72.8442,82.4767,107.318,457.943)"><stop offset="0" style="stop-color:#fff;stop-opacity:0.5"/><stop offset="0.2" style="stop-color:#fff;stop-opacity:0.5"/><stop offset="0.3" style="stop-color:#e6e6e6;stop-opacity:0.5"/><stop offset="0.52" style="stop-color:#a5a5a5;stop-opacity:0.5"/><stop offset="0.82" style="stop-color:#3e3e3e;stop-opacity:0.5"/><stop offset="1" style="stop-color:#000;stop-opacity:0.5"/></linearGradient><linearGradient id="_Linear4" x1="0" y1="0" x2="1" y2="0" gradientUnits="userSpaceOnUse" gradientTransform="matrix(57.2917,-63.1938,63.1938,57.2917,9.76667,363.715)"><stop offset="0" style="stop-color:#fff;stop-opacity:0.5"/><stop offset="0.2" style="stop-color:#fff;stop-opacity:0.5"/><stop offset="0.3" style="stop-color:#e6e6e6;stop-opacity:0.5"/><stop offset="0.52" style="stop-color:#a5a5a5;stop-opacity:0.5"/><stop offset="0.82" style="stop-color:#3e3e3e;stop-opacity:0.5"/><stop offset="1" style="stop-color:#000;stop-opacity:0.5"/></linearGradient><linearGradient id="_Linear6" x1="0" y1="0" x2="1" y2="0" gradientUnits="userSpaceOnUse" gradientTransform="matrix(244.379,-291.258,291.258,244.379,19.0345,418.58)"><stop offset="0" style="stop-color:#fff;stop-opacity:0.5"/><stop offset="0.2" style="stop-color:#fff;stop-opacity:0.5"/><stop offset="0.28" style="stop-color:#f9f9f9;stop-opacity:0.5"/><stop offset="0.38" style="stop-color:#eaeaea;stop-opacity:0.5"/><stop offset="0.49" style="stop-color:#cfcfcf;stop-opacity:0.5"/><stop offset="0.61" style="stop-color:#ababab;stop-opacity:0.5"/><stop offset="0.74" style="stop-color:#7b7b7b;stop-opacity:0.5"/><stop offset="0.87" style="stop-color:#424242;stop-opacity:0.5"/><stop offset="1" style="stop-color:#000;stop-opacity:0.5"/></linearGradient><linearGradient id="_Linear7" x1="0" y1="0" x2="1" y2="0" gradientUnits="userSpaceOnUse" gradientTransform="matrix(33.8183,-33.2554,33.2554,33.8183,132.973,409.95)"><stop offset="0" style="stop-color:#fff;stop-opacity:0.5"/><stop offset="0.02" style="stop-color:#fff;stop-opacity:0.5"/><stop offset="0.45" style="stop-color:#8a8a8a;stop-opacity:0.5"/><stop offset="0.83" style="stop-color:#272727;stop-opacity:0.5"/><stop offset="1" style="stop-color:#000;stop-opacity:0.5"/></linearGradient></defs></svg>