<?xml version="1.0" encoding="UTF-8" standalone="no"?><!DOCTYPE svg PUBLIC "-//W3C//DTD SVG 1.1//EN" "http://www.w3.org/Graphics/SVG/1.1/DTD/svg11.dtd"><svg width="100%" height="100%" viewBox="0 0 1691 800" version="1.1" xmlns="http://www.w3.org/2000/svg" xmlns:xlink="http://www.w3.org/1999/xlink" xml:space="preserve" xmlns:serif="http://www.serif.com/" style="fill-rule:evenodd;clip-rule:evenodd;stroke-miterlimit:10;"><path d="M268.455,135.857c-169.9,23.9 -292.255,191.973 -268.455,361.873l0,153.922c15.964,21.432 93.896,109.942 164.165,126.397c109.619,25.671 692.605,38.231 1167.19,-37.616l225.602,-471.876c-23.9,-169.9 -181,-288.3 -350.9,-264.5l-937.6,131.8Z" style="fill:#ebeced;fill-rule:nonzero;"/><path d="M1591.76,554.514l-34.806,-286.054c-21.2,-150.7 -147.005,-260.6 -293.705,-267c69,331.7 96.67,557.974 -1153.63,752.874c31.956,43.519 363.23,43.284 667.376,43.575c319.264,0.305 648.922,-20.378 648.922,-20.378c80.749,-31.638 189.643,-53.017 165.843,-223.017Z" style="fill:#daddde;fill-rule:nonzero;"/><path d="M275.355,145.557l2.4,-0.3l4.3,30.3l19.1,-2.7l0.3,2.2l-21.5,3l-4.6,-32.5Z" style="fill:#fff;fill-rule:nonzero;"/><path d="M304.155,141.457l23.2,-3.3l0.3,2.2l-20.8,2.9l1.8,12.8l18.7,-2.6l0.3,2.2l-18.7,2.6l1.8,13.1l21,-2.9l0.3,2.2l-23.4,3.3l-4.5,-32.5Z" style="fill:#fff;fill-rule:nonzero;"/><path d="M349.355,135.157l2.3,-0.3l26.5,25.2l-4,-28.3l2.3,-0.3l4.6,32.6l-1.8,0.3l-27,-25.7l4.1,28.9l-2.3,0.3l-4.7,-32.7Z" style="fill:#fff;fill-rule:nonzero;"/><path d="M386.955,146.557c-1.3,-9 4.2,-17.9 14,-19.2c9.9,-1.4 17.4,5.6 18.7,14.5l0,0.1c1.2,8.9 -4.2,17.8 -14.1,19.2c-9.8,1.3 -17.4,-5.7 -18.6,-14.6Zm30.2,-4.2c-1.1,-8.1 -7.9,-13.9 -16,-12.8c-8.1,1.1 -12.9,8.5 -11.8,16.5l0,0.1c1.1,8.1 7.9,13.8 16,12.7c8.1,-1.2 13,-8.5 11.8,-16.5Z" style="fill:#fff;fill-rule:nonzero;"/><path d="M427.255,152.557l1.3,-2c4,2.8 7.6,3.9 12.4,3.2c4.9,-0.7 7.9,-3.9 7.3,-7.6l0,-0.1c-0.5,-3.4 -2.6,-5.2 -10.2,-5.6c-8,-0.5 -11.6,-2.7 -12.3,-7.6l0,-0.1c-0.7,-4.8 3.2,-9.2 9.3,-10c4.7,-0.7 8,0.2 11.7,2.4l-1.3,2.1c-3.4,-2.2 -6.7,-2.8 -10.2,-2.3c-4.8,0.7 -7.6,3.9 -7.1,7.3l0,0.1c0.5,3.4 2.5,5.3 10.5,5.8c7.8,0.5 11.3,2.7 12,7.5l0,0.1c0.7,5.3 -3.3,9.5 -9.5,10.4c-5.2,0.5 -9.5,-0.6 -13.9,-3.6Z" style="fill:#fff;fill-rule:nonzero;"/><path d="M463.955,121.357l-11.4,1.6l-0.3,-2.2l25.1,-3.5l0.3,2.2l-11.4,1.6l4.3,30.3l-2.4,0.3l-4.2,-30.3Z" style="fill:#fff;fill-rule:nonzero;"/><path d="M484.755,116.157l13.7,-1.9c4,-0.6 7.4,0.2 9.6,1.9c1.8,1.3 3,3.4 3.3,5.7l0,0.1c0.8,5.4 -2.8,9.1 -8.2,10.6l12.7,12.4l-3.1,0.4l-12.3,-12l-10.7,1.5l1.9,13.5l-2.4,0.3l-4.5,-32.5Zm15.8,15c5.4,-0.8 9.1,-4.1 8.4,-8.8l0,-0.1c-0.6,-4.4 -4.4,-6.6 -10.4,-5.8l-11.1,1.6l2.1,14.7l11,-1.6Z" style="fill:#fff;fill-rule:nonzero;"/><path d="M518.455,111.357l23.2,-3.3l0.3,2.2l-20.8,2.9l1.8,12.8l18.7,-2.6l0.3,2.2l-18.7,2.6l1.8,13.1l21,-2.9l0.3,2.2l-23.4,3.3l-4.5,-32.5Z" style="fill:#fff;fill-rule:nonzero;"/><path d="M564.255,133.357l3.5,-5.7c3.3,2 6.6,3.1 10.3,2.6c2.9,-0.4 4.5,-1.8 4.3,-3.7l0,-0.1c-0.3,-1.8 -1.5,-2.6 -7.1,-3.2c-6.8,-0.8 -11.3,-2 -12.2,-8.4l0,-0.1c-0.8,-5.9 3.4,-10.5 10,-11.4c4.7,-0.7 9,0.3 12.7,2.4l-3,5.9c-3.2,-1.6 -6.2,-2.4 -8.9,-2c-2.7,0.4 -4,1.8 -3.8,3.4l0,0.1c0.3,2.1 1.8,2.6 7.6,3.3c6.8,0.8 10.9,2.6 11.7,8.3l0,0.1c0.9,6.5 -3.5,10.8 -10.5,11.8c-5,0.6 -10.2,-0.4 -14.6,-3.3Z" style="fill:#fff;fill-rule:nonzero;"/><path d="M593.155,117.557c-1.3,-9.4 4.9,-18 15,-19.4c10.1,-1.4 18.3,5.1 19.6,14.3l0,0.1c1.3,9.3 -4.9,17.9 -15,19.3c-10.1,1.4 -18.3,-5 -19.6,-14.3Zm27.2,-3.8c-0.8,-5.7 -5.5,-9.8 -11.3,-8.9c-5.8,0.9 -9.1,5.9 -8.3,11.5l0,0.1c0.8,5.6 5.5,9.7 11.3,8.9c5.7,-0.9 9,-6 8.3,-11.6Z" style="fill:#fff;fill-rule:nonzero;"/><path d="M631.855,95.457l7.2,-1l3.7,26.1l16.2,-2.3l0.9,6.5l-23.4,3.3l-4.6,-32.6Z" style="fill:#fff;fill-rule:nonzero;"/><path d="M661.955,110.257l-2.6,-18.6l7.2,-1l2.6,18.4c0.7,5.3 3.8,7.7 8.2,7.1c4.4,-0.6 6.7,-3.6 5.9,-8.8l-2.6,-18.7l7.2,-1l2.6,18.4c1.4,9.9 -3.5,15.5 -12.2,16.7c-9,1.2 -15,-3 -16.3,-12.5Z" style="fill:#fff;fill-rule:nonzero;"/><path d="M697.855,113.857l15,-23.4l-17.4,2.4l-0.9,-6.3l26.6,-3.7l0.8,5.4l-15,23.4l17.9,-2.5l0.9,6.3l-27.1,3.8l-0.8,-5.4Z" style="fill:#fff;fill-rule:nonzero;"/><path d="M728.255,81.857l7.2,-1l4.6,32.6l-7.2,1l-4.6,-32.6Z" style="fill:#fff;fill-rule:nonzero;"/><path d="M744.455,96.357c-1.3,-9.4 4.9,-18 15,-19.4c10.1,-1.4 18.3,5.1 19.6,14.3l0,0.1c1.3,9.3 -4.9,17.9 -15,19.3c-10,1.4 -18.3,-5.1 -19.6,-14.3Zm27.1,-3.8c-0.8,-5.7 -5.5,-9.8 -11.3,-8.9c-5.8,0.9 -9.1,5.9 -8.3,11.5l0,0.1c0.8,5.6 5.5,9.7 11.3,8.9c5.7,-0.9 9.1,-6.1 8.3,-11.6Z" style="fill:#fff;fill-rule:nonzero;"/><path d="M783.155,74.157l6.6,-0.9l18.1,17.9l-2.8,-20.1l7.1,-1l4.6,32.6l-6.1,0.9l-18.7,-18.5l2.9,20.7l-7.1,1l-4.6,-32.6Z" style="fill:#fff;fill-rule:nonzero;"/><path d="M820.255,68.957l7.2,-1l4.6,32.6l-7.2,1l-4.6,-32.6Z" style="fill:#fff;fill-rule:nonzero;"/><path d="M849.855,64.857l7.2,-1l4.6,32.6l-7.2,1l-4.6,-32.6Z" style="fill:#fff;fill-rule:nonzero;"/><path d="M865.155,62.657l6.6,-0.9l18.1,17.9l-2.8,-20.1l7.1,-1l4.6,32.6l-6.1,0.9l-18.7,-18.5l2.9,20.7l-7.1,1l-4.6,-32.6Z" style="fill:#fff;fill-rule:nonzero;"/><path d="M916.755,72.157c-1.3,-9.4 4.6,-17.9 14.6,-19.3c6.1,-0.9 10.1,0.7 13.6,3.2l-3.8,5.9c-2.8,-1.9 -5.6,-3 -8.8,-2.5c-5.5,0.8 -8.8,5.9 -8,11.5l0,0.1c0.8,5.6 5.3,9.7 10.9,8.9c3.7,-0.5 5.8,-2.3 8,-5l5.2,4c-2.8,4.1 -6.3,6.8 -12.5,7.7c-9.7,1.2 -17.9,-5.2 -19.2,-14.5Z" style="fill:#fff;fill-rule:nonzero;"/><path d="M950.255,50.757l7.2,-1l3.7,26.1l16.2,-2.3l0.9,6.5l-23.4,3.3l-4.6,-32.6Z" style="fill:#fff;fill-rule:nonzero;"/><path d="M978.055,63.457c-1.3,-9.4 4.9,-18 15,-19.4c10.1,-1.4 18.3,5.1 19.6,14.3l-0,0.1c1.3,9.3 -4.9,17.9 -15,19.3c-10,1.5 -18.3,-5 -19.6,-14.3Zm27.1,-3.8c-0.8,-5.7 -5.5,-9.8 -11.3,-8.9c-5.8,0.8 -9.1,5.9 -8.3,11.5l-0,0.1c0.8,5.6 5.5,9.7 11.3,8.9c5.7,-0.9 9.1,-6 8.3,-11.6Z" style="fill:#fff;fill-rule:nonzero;"/><path d="M1018.86,60.057l-2.6,-18.6l7.2,-1l2.6,18.4c0.7,5.3 3.8,7.7 8.2,7.1c4.4,-0.6 6.7,-3.6 5.9,-8.8l-2.6,-18.7l7.2,-1l2.6,18.4c1.4,9.9 -3.5,15.5 -12.2,16.7c-8.9,1.2 -15,-2.9 -16.3,-12.5Z" style="fill:#fff;fill-rule:nonzero;"/><path d="M1051.95,36.457l12.7,-1.8c10.2,-1.4 18.3,4.6 19.6,13.8l0,0.1c1.3,9.2 -4.8,17.3 -15,18.7l-12.7,1.8l-4.6,-32.6Zm16.3,24.3c5.9,-0.8 9.3,-5.3 8.5,-11.1l0,-0.1c-0.8,-5.8 -5.3,-9.3 -11.2,-8.4l-5.5,0.8l2.8,19.6l5.4,-0.8Z" style="fill:#fff;fill-rule:nonzero;"/><g><path d="M1297.36,42.657c-1,-1.1 -1.8,-2.1 -2.7,-3.1c-18.7,-21.4 -42.1,-31.1 -70.4,-28.1c-22.4,2.4 -40.5,13 -54.3,30.7c-11.1,14.3 -16.5,30.7 -16.4,48.7c-0,3.3 -1.2,4.8 -4,6.5c-5,3.1 -10.1,6.4 -14.2,10.6c-13.1,13.6 -18.2,30.1 -15.4,48.8c1.9,12.6 7.7,23.5 17,32.2c11.4,10.8 25.1,15.7 40.8,15.7c63.7,-0.1 127.4,0 191.1,-0.1c3.3,0 6.6,-0.2 9.9,-0.7c26,-3.5 47.2,-26.5 48.3,-52.7c0.9,-23 -8.4,-40.9 -28.3,-52.7c-4.5,-2.7 -6,-5.6 -6.5,-10.4c-4.7,-39.9 -46.6,-65 -84.1,-50.6c-3.4,1.7 -6.9,3.5 -10.8,5.2" style="fill:#fff;fill-rule:nonzero;"/><path d="M1297.36,42.657c-1,-1.1 -1.8,-2.1 -2.7,-3.1c-18.7,-21.4 -42.1,-31.1 -70.4,-28.1c-22.4,2.4 -40.5,13 -54.3,30.7c-11.1,14.3 -16.5,30.7 -16.4,48.7c-0,3.3 -1.2,4.8 -4,6.5c-5,3.1 -10.1,6.4 -14.2,10.6c-13.1,13.6 -18.2,30.1 -15.4,48.8c1.9,12.6 7.7,23.5 17,32.2c11.4,10.8 25.1,15.7 40.8,15.7c63.7,-0.1 127.4,0 191.1,-0.1c3.3,0 6.6,-0.2 9.9,-0.7c26,-3.5 47.2,-26.5 48.3,-52.7c0.9,-23 -8.4,-40.9 -28.3,-52.7c-4.5,-2.7 -6,-5.6 -6.5,-10.4c-4.7,-39.9 -46.6,-65 -84.1,-50.6c-3.4,1.7 -6.9,3.5 -10.8,5.2Z" style="fill:none;fill-rule:nonzero;stroke:#92c9ec;stroke-width:5.38px;"/></g></svg>