<?xml version="1.0" encoding="utf-8"?>
<!-- Generator: Adobe Illustrator 24.0.0, SVG Export Plug-In . SVG Version: 6.00 Build 0)  -->
<svg version="1.1" id="Livello_1" xmlns="http://www.w3.org/2000/svg" xmlns:xlink="http://www.w3.org/1999/xlink" x="0px" y="0px"
	 viewBox="0 0 1493 1761.7" style="enable-background:new 0 0 1493 1761.7;" xml:space="preserve">
<style type="text/css">
	.st0{display:none;}
	.st1{display:inline;fill:#FFFFFF;}
	.st2{clip-path:url(#SVGID_2_);}
	.st3{clip-path:url(#SVGID_4_);fill:#EBECED;}
	.st4{clip-path:url(#SVGID_4_);fill:#DADDDE;}
	.st5{fill:#FFFFFF;}
	.st6{opacity:0.44;clip-path:url(#SVGID_6_);}
	.st7{clip-path:url(#SVGID_8_);fill:#FFFFFF;}
	.st8{clip-path:url(#SVGID_8_);fill:none;stroke:#92C9EC;stroke-width:5.378;stroke-miterlimit:10;}
</style>
<g class="st0">
	<path class="st1" d="M411.2-373.7l2.4,0.2l-2.5,30.5l19.2,1.6l-0.2,2.2l-21.7-1.8L411.2-373.7z"/>
	<path class="st1" d="M440.1-371.3l23.3,1.9l-0.2,2.2l-20.9-1.7l-1.1,12.9l18.8,1.6l-0.2,2.2l-18.8-1.6l-1.1,13.2l21.1,1.7l-0.2,2.2
		l-23.6-1.9L440.1-371.3z"/>
	<path class="st1" d="M484.2-367.7l2.3,0.2l20.3,30.4l2.4-28.5l2.3,0.2l-2.7,32.8l-1.8-0.2l-20.7-31l-2.4,29.1l-2.3-0.2L484.2-367.7
		z"/>
	<path class="st1" d="M518.4-348.3L518.4-348.3c0.7-9,8-16.5,17.9-15.7c9.9,0.8,15.8,9.3,15,18.2l0,0.1c-0.7,8.9-8,16.4-17.9,15.6
		C523.5-330.9,517.7-339.3,518.4-348.3z M548.9-345.7L548.9-345.7c0.7-8.2-4.7-15.3-12.8-16c-8.1-0.7-14.5,5.4-15.1,13.5l0,0.1
		c-0.7,8.1,4.7,15.2,12.8,15.9C541.8-331.6,548.2-337.6,548.9-345.7z"/>
	<path class="st1" d="M556.4-333.5l1.7-1.7c3.3,3.6,6.5,5.4,11.4,5.8c4.9,0.4,8.5-2.1,8.8-5.8l0-0.1c0.3-3.5-1.4-5.6-8.7-7.7
		c-7.7-2.2-10.7-5.2-10.3-10.1l0-0.1c0.4-4.9,5.2-8.2,11.3-7.7c4.8,0.4,7.8,2,10.9,4.9l-1.7,1.8c-2.9-2.9-5.9-4.2-9.5-4.5
		c-4.8-0.4-8.2,2.1-8.5,5.5l0,0.1c-0.3,3.5,1.3,5.7,9,8c7.5,2.2,10.4,5.2,10,9.9l0,0.1c-0.4,5.3-5.3,8.6-11.6,8
		C564-327.6,560.1-329.7,556.4-333.5z"/>
	<path class="st1" d="M599-355.9l-11.4-0.9l0.2-2.2l25.3,2.1l-0.2,2.2l-11.4-0.9l-2.5,30.5l-2.4-0.2L599-355.9z"/>
	<path class="st1" d="M620.5-356.4l13.8,1.1c4,0.3,7.2,1.9,9,4c1.4,1.7,2.2,4,2,6.3l0,0.1c-0.5,5.5-4.8,8.3-10.4,8.6l9.7,14.9
		l-3.1-0.3l-9.3-14.4l-10.7-0.9l-1.1,13.6l-2.4-0.2L620.5-356.4z M632.6-338.3c5.5,0.5,9.8-2,10.2-6.7l0-0.1
		c0.4-4.4-2.9-7.5-8.8-7.9l-11.2-0.9l-1.2,14.8L632.6-338.3z"/>
	<path class="st1" d="M654.3-353.6l23.3,1.9l-0.2,2.2l-20.9-1.7l-1.1,12.9l18.8,1.6l-0.2,2.2l-18.8-1.6l-1.1,13.2l21.1,1.7l-0.2,2.2
		l-23.6-1.9L654.3-353.6z"/>
</g>
<g class="st0">
	<path class="st1" d="M697.3-350.1l13.4,1.1c7.8,0.6,12.2,5.7,11.6,12.4l0,0.1c-0.6,7.6-6.9,11-14.2,10.4l-5.5-0.5l-0.8,9.8
		l-7.2-0.6L697.3-350.1z M708.9-332.5c3.6,0.3,5.9-1.7,6.1-4.5l0-0.1c0.3-3.2-1.8-5.1-5.4-5.4L704-343l-0.8,10L708.9-332.5z"/>
	<path class="st1" d="M736.6-347.1l6.7,0.5l11.3,34.2l-7.5-0.6l-2.4-7.6l-13.9-1.1l-3.6,7.1l-7.4-0.6L736.6-347.1z M742.6-327.1
		l-3.5-11l-5.2,10.3L742.6-327.1z"/>
	<path class="st1" d="M762.4-344.7l15,1.2c4.2,0.3,7.3,1.8,9.3,4.1c1.7,2,2.4,4.6,2.2,7.7l0,0.1c-0.4,5.3-3.6,8.4-7.9,9.6l7,12.4
		l-8.4-0.7l-6.2-11.1l-5.7-0.5l-0.9,10.5l-7.2-0.6L762.4-344.7z M775.6-327.6c3.5,0.3,5.7-1.4,5.9-4.2l0-0.1
		c0.3-3.1-1.8-4.9-5.3-5.2l-7.2-0.6l-0.8,9.4L775.6-327.6z"/>
	<path class="st1" d="M803.3-334.6l-10-0.8l0.5-6.7l27.2,2.2l-0.5,6.7l-10-0.8l-2.2,26.1l-7.2-0.6L803.3-334.6z"/>
	<path class="st1" d="M826.6-339.4l6.7,0.5l13.7,21.5l1.7-20.2l7.1,0.6l-2.7,32.8l-6.1-0.5l-14.2-22.2L831-306l-7.1-0.6L826.6-339.4
		z"/>
	<path class="st1" d="M863.6-336.3l24.7,2l-0.5,6.4l-17.6-1.5l-0.5,6.7l15.5,1.3l-0.5,6.4l-15.5-1.3l-0.6,6.9l17.8,1.5l-0.5,6.4
		l-25-2.1L863.6-336.3z"/>
	<path class="st1" d="M895-333.7l15,1.2c4.2,0.3,7.3,1.8,9.3,4.1c1.7,2,2.4,4.6,2.2,7.7l0,0.1c-0.4,5.3-3.6,8.4-7.9,9.6l7,12.4
		l-8.4-0.7l-6.2-11.1l-5.7-0.5l-0.9,10.5l-7.2-0.6L895-333.7z M908.2-316.6c3.5,0.3,5.7-1.4,5.9-4.2l0-0.1c0.3-3.1-1.8-4.9-5.3-5.2
		l-7.2-0.6l-0.8,9.4L908.2-316.6z"/>
	<path class="st1" d="M924.3-303.1l4.7-4.8c2.7,2.7,5.7,4.5,9.5,4.8c3,0.2,4.8-0.8,5-2.7l0-0.1c0.2-1.8-0.9-2.9-6.3-4.7
		c-6.5-2.2-10.6-4.4-10-10.9l0-0.1c0.5-5.9,5.6-9.5,12.3-8.9c4.8,0.4,8.7,2.2,11.8,5.2l-4.2,5.1c-2.7-2.3-5.5-3.7-8.3-3.9
		c-2.8-0.2-4.3,0.9-4.5,2.5l0,0.1c-0.2,2.2,1.2,3,6.7,4.9c6.5,2.3,10.1,5,9.6,10.7l0,0.1c-0.5,6.5-5.8,9.8-12.9,9.2
		C932.8-297.1,927.9-299.3,924.3-303.1z"/>
	<path class="st1" d="M958.8-328.5l7.2,0.6l-1.1,13l13.3,1.1l1.1-13l7.2,0.6l-2.7,32.8l-7.2-0.6l1.1-13.2l-13.3-1.1l-1.1,13.2
		l-7.2-0.6L958.8-328.5z"/>
	<path class="st1" d="M994.7-325.5l7.2,0.6l-2.7,32.8l-7.2-0.6L994.7-325.5z"/>
	<path class="st1" d="M1010.1-324.2l13.4,1.1c7.8,0.6,12.2,5.7,11.6,12.4l0,0.1c-0.6,7.6-6.9,11-14.2,10.4l-5.5-0.5l-0.8,9.8
		l-7.2-0.6L1010.1-324.2z M1021.7-306.6c3.6,0.3,5.9-1.7,6.1-4.5l0-0.1c0.3-3.2-1.8-5.2-5.4-5.4l-5.6-0.5l-0.8,10L1021.7-306.6z"/>
</g>
<g class="st0">
	<path class="st1" d="M177.2-613.7l2.4-0.3l4.3,30.3l19.1-2.7l0.3,2.2l-21.5,3L177.2-613.7z"/>
	<path class="st1" d="M206-617.7l23.2-3.3l0.3,2.2l-20.8,2.9l1.8,12.8l18.7-2.6l0.3,2.2l-18.7,2.6l1.8,13.1l21-3l0.3,2.2l-23.4,3.3
		L206-617.7z"/>
	<path class="st1" d="M251.1-624.1l2.3-0.3l26.5,25.2l-4-28.3l2.3-0.3l4.6,32.6l-1.8,0.3l-27-25.7l4.1,28.9l-2.3,0.3L251.1-624.1z"
		/>
	<path class="st1" d="M288.7-612.7L288.7-612.7c-1.3-9,4.2-17.9,14-19.2c9.9-1.4,17.4,5.6,18.7,14.5l0,0.1
		c1.2,8.9-4.2,17.8-14.1,19.2C297.6-596.8,290-603.8,288.7-612.7z M319-616.9L319-616.9c-1.1-8.1-7.9-13.9-16-12.8
		c-8.1,1.1-12.9,8.5-11.8,16.5l0,0.1c1.1,8.1,7.9,13.8,16,12.7C315.3-601.5,320.1-608.9,319-616.9z"/>
	<path class="st1" d="M329.1-606.7l1.3-2c4,2.8,7.6,3.9,12.4,3.2c4.9-0.7,7.9-3.9,7.3-7.6l0-0.1c-0.5-3.4-2.6-5.2-10.2-5.6
		c-8-0.5-11.6-2.7-12.3-7.6l0-0.1c-0.7-4.8,3.2-9.2,9.3-10c4.7-0.7,8,0.2,11.7,2.4l-1.3,2.1c-3.4-2.2-6.7-2.8-10.2-2.3
		c-4.8,0.7-7.6,3.9-7.1,7.3l0,0.1c0.5,3.4,2.5,5.3,10.5,5.8c7.8,0.5,11.3,2.7,12,7.5l0,0.1c0.7,5.3-3.3,9.5-9.5,10.4
		C337.7-602.6,333.5-603.7,329.1-606.7z"/>
	<path class="st1" d="M365.7-637.9l-11.4,1.6l-0.3-2.2l25.1-3.5l0.3,2.2l-11.4,1.6l4.3,30.3l-2.4,0.3L365.7-637.9z"/>
	<path class="st1" d="M386.5-643.1l13.7-1.9c4-0.6,7.4,0.2,9.6,1.9c1.8,1.3,3,3.4,3.3,5.7l0,0.1c0.8,5.4-2.8,9.1-8.2,10.6l12.7,12.4
		l-3.1,0.4l-12.3-12l-10.7,1.5l1.9,13.5l-2.4,0.3L386.5-643.1z M402.3-628.1c5.4-0.8,9.1-4.1,8.4-8.8l0-0.1
		c-0.6-4.4-4.4-6.6-10.4-5.8l-11.1,1.6l2.1,14.7L402.3-628.1z"/>
	<path class="st1" d="M420.2-647.8l23.2-3.3l0.3,2.2l-20.8,2.9l1.8,12.8l18.7-2.6l0.3,2.2l-18.7,2.6l1.8,13.1l21-2.9l0.3,2.2
		l-23.4,3.3L420.2-647.8z"/>
</g>
<g class="st0">
	<path class="st1" d="M466-625.9l3.5-5.7c3.3,2,6.6,3.1,10.3,2.6c2.9-0.4,4.5-1.8,4.3-3.7l0-0.1c-0.3-1.8-1.5-2.6-7.1-3.2
		c-6.8-0.8-11.3-2-12.2-8.4l0-0.1c-0.8-5.9,3.4-10.5,10-11.4c4.7-0.7,9,0.3,12.7,2.4l-3,5.9c-3.2-1.6-6.2-2.4-8.9-2
		c-2.7,0.4-4,1.8-3.8,3.4l0,0.1c0.3,2.1,1.8,2.6,7.6,3.3c6.9,0.8,10.9,2.6,11.7,8.3l0,0.1c0.9,6.5-3.5,10.8-10.5,11.8
		C475.6-621.9,470.4-623,466-625.9z"/>
	<path class="st1" d="M495-641.6L495-641.6c-1.3-9.4,4.9-18,15-19.4c10.1-1.4,18.3,5.1,19.6,14.3l0,0.1c1.3,9.3-4.9,17.9-15,19.3
		C504.5-625.9,496.3-632.4,495-641.6z M522.1-645.5L522.1-645.5c-0.8-5.7-5.5-9.8-11.3-8.9c-5.8,0.8-9.1,5.9-8.3,11.5l0,0.1
		c0.8,5.6,5.5,9.7,11.3,8.9C519.5-634.8,522.9-639.9,522.1-645.5z"/>
	<path class="st1" d="M533.7-663.8l7.2-1l3.7,26.1l16.2-2.3l0.9,6.5l-23.4,3.3L533.7-663.8z"/>
	<path class="st1" d="M563.7-649l-2.6-18.6l7.2-1l2.6,18.4c0.7,5.3,3.8,7.7,8.2,7.1c4.4-0.6,6.7-3.6,5.9-8.8l-2.6-18.7l7.2-1
		l2.6,18.4c1.4,9.9-3.5,15.5-12.2,16.7C571.1-635.3,565-639.4,563.7-649z"/>
	<path class="st1" d="M599.6-645.4l15-23.4l-17.4,2.4l-0.9-6.3l26.6-3.7l0.8,5.4l-15,23.4l17.9-2.5l0.9,6.3l-27.1,3.8L599.6-645.4z"
		/>
	<path class="st1" d="M630.1-677.3l7.2-1l4.6,32.6l-7.2,1L630.1-677.3z"/>
	<path class="st1" d="M646.2-662.9L646.2-662.9c-1.3-9.4,4.9-18,15-19.4s18.3,5.1,19.6,14.3l0,0.1c1.3,9.3-4.9,17.9-15,19.3
		S647.5-653.6,646.2-662.9z M673.4-666.7L673.4-666.7c-0.8-5.7-5.5-9.8-11.3-8.9c-5.8,0.8-9.1,5.9-8.3,11.5l0,0.1
		c0.8,5.6,5.5,9.7,11.3,8.9C670.8-656,674.1-661.1,673.4-666.7z"/>
	<path class="st1" d="M684.9-685l6.6-0.9l18.1,17.9l-2.8-20.1l7.1-1l4.6,32.6l-6.1,0.9l-18.7-18.5l2.9,20.7l-7.1,1L684.9-685z"/>
	<path class="st1" d="M722-690.3l7.2-1l4.6,32.6l-7.2,1L722-690.3z"/>
	<path class="st1" d="M751.6-694.4l7.2-1l4.6,32.6l-7.2,1L751.6-694.4z"/>
	<path class="st1" d="M766.9-696.6l6.6-0.9l18.1,17.9l-2.8-20.1l7.1-1l4.6,32.6l-6.1,0.9l-18.7-18.5l2.9,20.7l-7.1,1L766.9-696.6z"
		/>
	<path class="st1" d="M818.5-687.1L818.5-687.1c-1.3-9.4,4.6-17.9,14.6-19.3c6.1-0.9,10.1,0.7,13.6,3.2l-3.8,5.9
		c-2.8-1.9-5.6-3-8.8-2.5c-5.5,0.8-8.8,5.9-8,11.5l0,0.1c0.8,5.6,5.3,9.7,10.9,8.9c3.7-0.5,5.8-2.3,8-5l5.2,4
		c-2.8,4.1-6.3,6.8-12.5,7.7C828-671.4,819.8-677.8,818.5-687.1z"/>
	<path class="st1" d="M852-708.5l7.2-1l3.7,26.1l16.2-2.3l0.9,6.5l-23.4,3.3L852-708.5z"/>
	<path class="st1" d="M879.9-695.7L879.9-695.7c-1.3-9.4,4.9-18,15-19.4s18.3,5.1,19.6,14.3l0,0.1c1.3,9.3-4.9,17.9-15,19.3
		C889.4-680,881.2-686.5,879.9-695.7z M907-699.6L907-699.6c-0.8-5.7-5.5-9.8-11.3-8.9c-5.8,0.8-9.1,5.9-8.3,11.5l0,0.1
		c0.8,5.6,5.5,9.7,11.3,8.9C904.4-688.8,907.8-694,907-699.6z"/>
	<path class="st1" d="M920.7-699.2l-2.6-18.6l7.2-1l2.6,18.4c0.7,5.3,3.8,7.7,8.2,7.1s6.7-3.6,5.9-8.8l-2.6-18.7l7.2-1l2.6,18.4
		c1.4,9.9-3.5,15.5-12.2,16.7S922-689.6,920.7-699.2z"/>
	<path class="st1" d="M953.8-722.8l12.7-1.8c10.2-1.4,18.3,4.6,19.6,13.8l0,0.1c1.3,9.2-4.8,17.3-15,18.7l-12.7,1.8L953.8-722.8z
		 M970.1-698.5c5.9-0.8,9.3-5.3,8.5-11.1l0-0.1c-0.8-5.8-5.3-9.3-11.2-8.4l-5.5,0.8l2.8,19.6L970.1-698.5z"/>
</g>
<g>
	<defs>
		<rect id="SVGID_1_" x="-99" y="70.7" width="1691" height="1691"/>
	</defs>
	<clipPath id="SVGID_2_">
		<use xlink:href="#SVGID_1_"  style="overflow:visible;"/>
	</clipPath>
	<g class="st2">
		<defs>
			<rect id="SVGID_3_" x="-99" y="70.7" width="1691" height="1691"/>
		</defs>
		<clipPath id="SVGID_4_">
			<use xlink:href="#SVGID_3_"  style="overflow:visible;"/>
		</clipPath>
		<path class="st3" d="M168.5,205.6c-169.9,23.9-288.3,181-264.5,350.9l131.8,937.7c23.9,169.9,181,288.3,350.9,264.5l937.7-131.8
			c169.9-23.9,288.3-181,264.4-350.9l-131.8-937.7c-23.9-169.9-181-288.3-350.9-264.5L168.5,205.6z"/>
		<path class="st4" d="M1589,1275.9l-131.8-937.7C1436,187.5,1310,77.6,1163.3,71.2c69,331.7,179.8,1368.4-1070.5,1563.3
			c65.5,89.2,176.6,140.6,293.9,124.1l937.7-131.8C1494.5,1603,1612.8,1445.9,1589,1275.9"/>
	</g>
	<g class="st2">
		<path class="st5" d="M175.4,215.3l2.4-0.3l4.3,30.3l19.1-2.7l0.3,2.2l-21.5,3L175.4,215.3z"/>
		<path class="st5" d="M204.2,211.2l23.2-3.3l0.3,2.2l-20.8,2.9l1.8,12.8l18.7-2.6l0.3,2.2l-18.7,2.6l1.8,13.1l21-2.9l0.3,2.2
			l-23.4,3.3L204.2,211.2z"/>
		<path class="st5" d="M249.4,204.9l2.3-0.3l26.5,25.2l-4-28.3l2.3-0.3l4.6,32.6l-1.8,0.3l-27-25.7l4.1,28.9l-2.3,0.3L249.4,204.9z"
			/>
		<path class="st5" d="M287,216.3L287,216.3c-1.3-9,4.2-17.9,14-19.2c9.9-1.4,17.4,5.6,18.7,14.5l0,0.1c1.2,8.9-4.2,17.8-14.1,19.2
			C295.8,232.2,288.2,225.2,287,216.3z M317.2,212.1L317.2,212.1c-1.1-8.1-7.9-13.9-16-12.8c-8.1,1.1-12.9,8.5-11.8,16.5l0,0.1
			c1.1,8.1,7.9,13.8,16,12.7C313.5,227.4,318.4,220.1,317.2,212.1z"/>
		<path class="st5" d="M327.3,222.3l1.3-2c4,2.8,7.6,3.9,12.4,3.2c4.9-0.7,7.9-3.9,7.3-7.6l0-0.1c-0.5-3.4-2.6-5.2-10.2-5.6
			c-8-0.5-11.6-2.7-12.3-7.6l0-0.1c-0.7-4.8,3.2-9.2,9.3-10c4.7-0.7,8,0.2,11.7,2.4l-1.3,2.1c-3.4-2.2-6.7-2.8-10.2-2.3
			c-4.8,0.7-7.6,3.9-7.1,7.3l0,0.1c0.5,3.4,2.5,5.3,10.5,5.8c7.8,0.5,11.3,2.7,12,7.5l0,0.1c0.7,5.3-3.3,9.5-9.5,10.4
			C336,226.4,331.7,225.3,327.3,222.3z"/>
		<path class="st5" d="M364,191.1l-11.4,1.6l-0.3-2.2l25.1-3.5l0.3,2.2l-11.4,1.6l4.3,30.3l-2.4,0.3L364,191.1z"/>
		<path class="st5" d="M384.8,185.9l13.7-1.9c4-0.6,7.4,0.2,9.6,1.9c1.8,1.3,3,3.4,3.3,5.7l0,0.1c0.8,5.4-2.8,9.1-8.2,10.6
			l12.7,12.4l-3.1,0.4l-12.3-12l-10.7,1.5l1.9,13.5l-2.4,0.3L384.8,185.9z M400.6,200.9c5.4-0.8,9.1-4.1,8.4-8.8l0-0.1
			c-0.6-4.4-4.4-6.6-10.4-5.8l-11.1,1.6l2.1,14.7L400.6,200.9z"/>
		<path class="st5" d="M418.5,181.1l23.2-3.3l0.3,2.2l-20.8,2.9l1.8,12.8l18.7-2.6l0.3,2.2l-18.7,2.6l1.8,13.1l21-2.9l0.3,2.2
			l-23.4,3.3L418.5,181.1z"/>
	</g>
	<g class="st2">
		<path class="st5" d="M464.3,203.1l3.5-5.7c3.3,2,6.6,3.1,10.3,2.6c2.9-0.4,4.5-1.8,4.3-3.7l0-0.1c-0.3-1.8-1.5-2.6-7.1-3.2
			c-6.8-0.8-11.3-2-12.2-8.4l0-0.1c-0.8-5.9,3.4-10.5,10-11.4c4.7-0.7,9,0.3,12.7,2.4l-3,5.9c-3.2-1.6-6.2-2.4-8.9-2
			c-2.7,0.4-4,1.8-3.8,3.4l0,0.1c0.3,2.1,1.8,2.6,7.6,3.3c6.8,0.8,10.9,2.6,11.7,8.3l0,0.1c0.9,6.5-3.5,10.8-10.5,11.8
			C473.9,207,468.7,206,464.3,203.1z"/>
		<path class="st5" d="M493.2,187.3L493.2,187.3c-1.3-9.4,4.9-18,15-19.4c10.1-1.4,18.3,5.1,19.6,14.3l0,0.1
			c1.3,9.3-4.9,17.9-15,19.3S494.5,196.6,493.2,187.3z M520.4,183.5L520.4,183.5c-0.8-5.7-5.5-9.8-11.3-8.9s-9.1,5.9-8.3,11.5l0,0.1
			c0.8,5.6,5.5,9.7,11.3,8.9C517.8,194.2,521.1,189.1,520.4,183.5z"/>
		<path class="st5" d="M531.9,165.2l7.2-1l3.7,26.1L559,188l0.9,6.5l-23.4,3.3L531.9,165.2z"/>
		<path class="st5" d="M562,180l-2.6-18.6l7.2-1l2.6,18.4c0.7,5.3,3.8,7.7,8.2,7.1s6.7-3.6,5.9-8.8l-2.6-18.7l7.2-1l2.6,18.4
			c1.4,9.9-3.5,15.5-12.2,16.7C569.3,193.7,563.3,189.5,562,180z"/>
		<path class="st5" d="M597.9,183.6l15-23.4l-17.4,2.4l-0.9-6.3l26.6-3.7l0.8,5.4l-15,23.4l17.9-2.5l0.9,6.3l-27.1,3.8L597.9,183.6z
			"/>
		<path class="st5" d="M628.3,151.6l7.2-1l4.6,32.6l-7.2,1L628.3,151.6z"/>
		<path class="st5" d="M644.5,166.1L644.5,166.1c-1.3-9.4,4.9-18,15-19.4s18.3,5.1,19.6,14.3l0,0.1c1.3,9.3-4.9,17.9-15,19.3
			C654.1,181.8,645.8,175.3,644.5,166.1z M671.6,162.3L671.6,162.3c-0.8-5.7-5.5-9.8-11.3-8.9s-9.1,5.9-8.3,11.5l0,0.1
			c0.8,5.6,5.5,9.7,11.3,8.9C669,173,672.4,167.8,671.6,162.3z"/>
		<path class="st5" d="M683.2,143.9l6.6-0.9l18.1,17.9l-2.8-20.1l7.1-1l4.6,32.6l-6.1,0.9l-18.7-18.5l2.9,20.7l-7.1,1L683.2,143.9z"
			/>
		<path class="st5" d="M720.3,138.7l7.2-1l4.6,32.6l-7.2,1L720.3,138.7z"/>
		<path class="st5" d="M749.9,134.6l7.2-1l4.6,32.6l-7.2,1L749.9,134.6z"/>
		<path class="st5" d="M765.2,132.4l6.6-0.9l18.1,17.9l-2.8-20.1l7.1-1l4.6,32.6l-6.1,0.9l-18.7-18.5l2.9,20.7l-7.1,1L765.2,132.4z"
			/>
		<path class="st5" d="M816.8,141.9L816.8,141.9c-1.3-9.4,4.6-17.9,14.6-19.3c6.1-0.9,10.1,0.7,13.6,3.2l-3.8,5.9
			c-2.8-1.9-5.6-3-8.8-2.5c-5.5,0.8-8.8,5.9-8,11.5l0,0.1c0.8,5.6,5.3,9.7,10.9,8.9c3.7-0.5,5.8-2.3,8-5l5.2,4
			c-2.8,4.1-6.3,6.8-12.5,7.7C826.3,157.6,818.1,151.2,816.8,141.9z"/>
		<path class="st5" d="M850.3,120.5l7.2-1l3.7,26.1l16.2-2.3l0.9,6.5l-23.4,3.3L850.3,120.5z"/>
		<path class="st5" d="M878.1,133.2L878.1,133.2c-1.3-9.4,4.9-18,15-19.4c10.1-1.4,18.3,5.1,19.6,14.3l0,0.1
			c1.3,9.3-4.9,17.9-15,19.3C887.7,149,879.4,142.5,878.1,133.2z M905.2,129.4L905.2,129.4c-0.8-5.7-5.5-9.8-11.3-8.9
			c-5.8,0.8-9.1,5.9-8.3,11.5l0,0.1c0.8,5.6,5.5,9.7,11.3,8.9C902.6,140.1,906,135,905.2,129.4z"/>
		<path class="st5" d="M918.9,129.8l-2.6-18.6l7.2-1l2.6,18.4c0.7,5.3,3.8,7.7,8.2,7.1s6.7-3.6,5.9-8.8l-2.6-18.7l7.2-1l2.6,18.4
			c1.4,9.9-3.5,15.5-12.2,16.7C926.3,143.5,920.2,139.4,918.9,129.8z"/>
		<path class="st5" d="M952,106.2l12.7-1.8c10.2-1.4,18.3,4.6,19.6,13.8l0,0.1c1.3,9.2-4.8,17.3-15,18.7l-12.7,1.8L952,106.2z
			 M968.3,130.5c5.9-0.8,9.3-5.3,8.5-11.1l0-0.1c-0.8-5.8-5.3-9.3-11.2-8.4l-5.5,0.8l2.8,19.6L968.3,130.5z"/>
	</g>
	<g class="st2">
		<defs>
			<rect id="SVGID_5_" x="-99" y="70.7" width="1691" height="1691"/>
		</defs>
		<clipPath id="SVGID_6_">
			<use xlink:href="#SVGID_5_"  style="overflow:visible;"/>
		</clipPath>
		<g class="st6">
			<g>
				<defs>
					<rect id="SVGID_7_" x="1007.8" y="71.1" width="331.3" height="207.2"/>
				</defs>
				<clipPath id="SVGID_8_">
					<use xlink:href="#SVGID_7_"  style="overflow:visible;"/>
				</clipPath>
				<path class="st7" d="M1197.4,112.4c-1-1.1-1.8-2.1-2.7-3.1c-18.7-21.4-42.1-31.1-70.4-28.1c-22.4,2.4-40.5,13-54.3,30.7
					c-11.1,14.3-16.5,30.7-16.4,48.7c0,3.3-1.2,4.8-4,6.5c-5,3.1-10.1,6.4-14.2,10.6c-13.1,13.6-18.2,30.1-15.4,48.8
					c1.9,12.6,7.7,23.5,17,32.2c11.4,10.8,25.1,15.7,40.8,15.7c63.7-0.1,127.4,0,191.1-0.1c3.3,0,6.6-0.2,9.9-0.7
					c26-3.5,47.2-26.5,48.3-52.7c0.9-23-8.4-40.9-28.3-52.7c-4.5-2.7-6-5.6-6.5-10.4c-4.7-39.9-46.6-65-84.1-50.6
					C1204.8,108.9,1201.3,110.7,1197.4,112.4"/>
				<path class="st8" d="M1197.4,112.4c-1-1.1-1.8-2.1-2.7-3.1c-18.7-21.4-42.1-31.1-70.4-28.1c-22.4,2.4-40.5,13-54.3,30.7
					c-11.1,14.3-16.5,30.7-16.4,48.7c0,3.3-1.2,4.8-4,6.5c-5,3.1-10.1,6.4-14.2,10.6c-13.1,13.6-18.2,30.1-15.4,48.8
					c1.9,12.6,7.7,23.5,17,32.2c11.4,10.8,25.1,15.7,40.8,15.7c63.7-0.1,127.4,0,191.1-0.1c3.3,0,6.6-0.2,9.9-0.7
					c26-3.5,47.2-26.5,48.3-52.7c0.9-23-8.4-40.9-28.3-52.7c-4.5-2.7-6-5.6-6.5-10.4c-4.7-39.9-46.6-65-84.1-50.6
					C1204.8,108.9,1201.3,110.7,1197.4,112.4z"/>
			</g>
		</g>
	</g>
</g>
</svg>
