<?xml version="1.0" encoding="utf-8"?>
<!-- Generator: Adobe Illustrator 24.0.0, SVG Export Plug-In . SVG Version: 6.00 Build 0)  -->
<svg version="1.1" id="Livello_1" xmlns="http://www.w3.org/2000/svg" xmlns:xlink="http://www.w3.org/1999/xlink" x="0px" y="0px"
	 viewBox="0 0 1691 1691" style="enable-background:new 0 0 1691 1691;" xml:space="preserve">
<style type="text/css">
	.st0{fill:#EBECED;}
	.st1{fill:#DADDDE;}
	.st2{display:none;fill:#D3E4F5;}
	.st3{display:none;fill:#B2D1ED;}
	.st4{display:none;fill:#EBECED;}
	.st5{display:none;fill:#DADDDE;}
	.st6{display:none;}
	.st7{display:inline;fill:#FFFFFF;}
	.st8{fill:#FFFFFF;}
</style>
<g>
	<path class="st0" d="M267.5,134.9C97.6,158.7-20.8,315.8,3.1,485.8l131.8,937.7c23.9,169.9,181,288.3,350.9,264.5l937.7-131.8
		c169.9-23.9,288.3-181,264.4-350.9l-131.8-937.7c-23.9-169.9-181-288.3-350.9-264.5L267.5,134.9z"/>
	<path class="st1" d="M1688,1205.2l-131.8-937.7C1535,116.8,1409,6.9,1262.3,0.5c69,331.7,179.8,1368.4-1070.5,1563.3
		c65.5,89.2,176.6,140.6,293.9,124.1l937.7-131.8C1593.5,1532.3,1711.8,1375.2,1688,1205.2"/>
	<path class="st2" d="M304.2,355.6C120.9,340.5-40.1,476.8-55.2,660.2L-138.8,1672c-15.2,183.4,121.2,344.3,304.6,359.4l1011.8,83.6
		c183.3,15.2,344.3-121.2,359.4-304.6l83.6-1011.8c15.2-183.4-121.2-344.3-304.5-359.4L304.2,355.6z"/>
	<path class="st3" d="M1536.9,1810.5l83.6-1011.8c13.4-162.6-92.3-307.2-244.3-348.6c-6.2,363.2-135.1,1473.5-1488.7,1382.1
		C-65,1941,39.2,2021,165.7,2031.4l1011.8,83.6C1360.9,2130.2,1521.8,1993.9,1536.9,1810.5"/>
	<path class="st4" d="M-328.9,1018.9c-176.2,53.1-275.9,238.9-222.8,415.1l293,972c53.1,176.2,238.9,275.9,415.1,222.8l972.1-293
		c176.1-53.1,275.9-238.9,222.8-415.1l-293-972c-53.1-176.2-238.9-275.9-415.1-222.8L-328.9,1018.9z"/>
	<path class="st5" d="M1351.2,1920.7l-293-972.1c-47.1-156.2-198.5-252-355-234.8c127.4,340.2,414.3,1420.5-878.5,1831.6
		c84,83.8,210.2,120.1,331.7,83.4l972-293C1304.6,2282.7,1404.3,2096.9,1351.2,1920.7"/>
</g>
<g class="st6">
	<path class="st7" d="M170.9,884.8l2.3-0.7l8.8,29.3l18.5-5.6l0.7,2.2l-20.8,6.3L170.9,884.8z"/>
	<path class="st7" d="M198.7,876.4l22.4-6.8l0.7,2.2l-20.1,6l3.7,12.4l18-5.4l0.7,2.2l-18,5.4l3.8,12.6l20.3-6.1l0.7,2.2l-22.6,6.8
		L198.7,876.4z"/>
	<path class="st7" d="M242.4,863.3l2.2-0.7l30,20.9l-8.3-27.4l2.2-0.7l9.5,31.5l-1.8,0.5l-30.6-21.3l8.4,28l-2.2,0.7L242.4,863.3z"
		/>
	<path class="st7" d="M281.3,868.8L281.3,868.8c-2.6-8.7,1.4-18.3,10.9-21.2c9.5-2.9,18.1,2.8,20.7,11.4l0,0.1
		c2.6,8.6-1.4,18.2-11,21.1C292.5,883.1,283.9,877.4,281.3,868.8z M310.6,860L310.6,860c-2.4-7.9-10-12.6-17.8-10.2
		c-7.8,2.3-11.5,10.3-9.1,18.1l0,0.1c2.3,7.8,9.9,12.5,17.7,10.1C309.2,875.8,312.9,867.8,310.6,860z"/>
	<path class="st7" d="M322.1,868.6l1-2.2c4.4,2.2,8.1,2.7,12.7,1.3c4.7-1.4,7.2-5.1,6.1-8.7l0-0.1c-1-3.3-3.3-4.7-10.9-4
		c-8,0.7-11.9-0.9-13.3-5.7l0-0.1c-1.4-4.7,1.8-9.6,7.6-11.3c4.6-1.4,8-1,12,0.6l-0.9,2.3c-3.7-1.7-7-1.8-10.5-0.7
		c-4.6,1.4-6.9,5-5.9,8.3l0,0.1c1,3.3,3.3,4.8,11.3,4.1c7.7-0.7,11.6,1,13,5.6l0,0.1c1.5,5.1-1.8,9.9-7.8,11.7
		C331.3,871.3,326.9,870.8,322.1,868.6z"/>
	<path class="st7" d="M353.6,832.1l-11,3.3l-0.7-2.2l24.3-7.3l0.7,2.2l-11,3.3l8.8,29.3l-2.3,0.7L353.6,832.1z"/>
	<path class="st7" d="M373.3,823.8l13.2-4c3.9-1.2,7.3-0.9,9.8,0.4c1.9,1,3.5,2.9,4.1,5.1l0,0.1c1.6,5.3-1.4,9.5-6.5,11.8l14.5,10.3
		l-3,0.9l-14-10l-10.3,3.1l3.9,13l-2.3,0.7L373.3,823.8z M391.2,836.2c5.3-1.6,8.4-5.4,7-10l0-0.1c-1.3-4.2-5.4-5.9-11.1-4.2
		l-10.8,3.2l4.3,14.2L391.2,836.2z"/>
	<path class="st7" d="M405.9,814l22.4-6.8l0.7,2.2l-20.1,6l3.7,12.4l18-5.4l0.7,2.2l-18,5.4l3.8,12.6l20.3-6.1l0.7,2.2l-22.6,6.8
		L405.9,814z"/>
</g>
<g class="st6">
	<path class="st7" d="M448.5,801.1l14.4-4.3c4-1.2,7.4-1,10.1,0.4c2.3,1.2,4,3.4,4.9,6.4l0,0.1c1.5,5.1-0.2,9.1-3.8,11.8l11.1,8.9
		l-8.1,2.4l-9.8-8l-5.4,1.6l3,10.1l-6.9,2.1L448.5,801.1z M467.1,812.2c3.4-1,4.8-3.4,4-6.1l0-0.1c-0.9-3-3.4-3.9-6.8-2.9l-6.9,2.1
		l2.7,9L467.1,812.2z"/>
	<path class="st7" d="M481.1,791.3l23.8-7.2l1.9,6.2l-16.9,5.1l1.9,6.4l14.8-4.5l1.9,6.2l-14.8,4.5l2,6.6l17.1-5.2l1.9,6.2l-24,7.2
		L481.1,791.3z"/>
	<path class="st7" d="M511.2,782.2l24-7.2l1.9,6.3l-17.1,5.1l2,6.7l15-4.5l1.9,6.3l-15,4.5l3.7,12.2l-6.9,2.1L511.2,782.2z"/>
	<path class="st7" d="M540.7,773.3l23.8-7.2l1.9,6.2l-16.9,5.1l1.9,6.4l14.8-4.5l1.9,6.2l-14.8,4.5l2,6.6l17.1-5.2l1.9,6.2l-24,7.2
		L540.7,773.3z"/>
	<path class="st7" d="M570.9,764.2l14.4-4.3c4-1.2,7.4-1,10.1,0.4c2.3,1.2,4,3.4,4.9,6.4l0,0.1c1.5,5.1-0.2,9.1-3.8,11.8l11.1,8.9
		l-8.1,2.4l-9.8-8l-5.4,1.6l3,10.1l-6.9,2.1L570.9,764.2z M589.4,775.3c3.4-1,4.8-3.4,4-6.1l0-0.1c-0.9-3-3.4-3.9-6.8-2.9l-6.9,2.1
		l2.7,9L589.4,775.3z"/>
	<path class="st7" d="M603.4,754.4l23.8-7.2l1.9,6.2l-16.9,5.1l1.9,6.4l14.8-4.5l1.9,6.2l-14.8,4.5l2,6.6l17.1-5.2l1.9,6.2l-24,7.2
		L603.4,754.4z"/>
	<path class="st7" d="M633.6,745.4l6.4-1.9l20.6,14.9l-5.8-19.4l6.8-2.1l9.5,31.5l-5.9,1.8l-21.3-15.4l6,20l-6.8,2.1L633.6,745.4z"
		/>
	<path class="st7" d="M676.1,761.2l11.2-25.4l-16.8,5.1l-1.8-6.1l25.7-7.7l1.6,5.3l-11.2,25.4l17.3-5.2l1.8,6.1l-26.2,7.9
		L676.1,761.2z"/>
	<path class="st7" d="M701,725l23.8-7.2l1.9,6.2l-16.9,5.1l1.9,6.4l14.8-4.5l1.9,6.2l-14.8,4.5l2,6.6l17.1-5.2l1.9,6.2l-24,7.2
		L701,725z"/>
</g>
<g class="st6">
	<path class="st7" d="M508.4,384.6l2.4,0.2l-2.5,30.5l19.2,1.6l-0.2,2.2l-21.7-1.8L508.4,384.6z"/>
	<path class="st7" d="M537.4,387l23.3,1.9l-0.2,2.2l-20.9-1.7l-1.1,12.9l18.8,1.6l-0.2,2.2l-18.8-1.6l-1.1,13.2l21.1,1.7l-0.2,2.2
		l-23.6-1.9L537.4,387z"/>
	<path class="st7" d="M581.5,390.6l2.3,0.2l20.3,30.4l2.4-28.5l2.3,0.2l-2.7,32.8l-1.8-0.2l-20.7-31l-2.4,29.1l-2.3-0.2L581.5,390.6
		z"/>
	<path class="st7" d="M615.7,410L615.7,410c0.7-9,8-16.5,17.9-15.7c9.9,0.8,15.8,9.3,15,18.2l0,0.1c-0.7,8.9-8,16.4-17.9,15.6
		C620.8,427.4,614.9,419,615.7,410z M646.1,412.5L646.1,412.5c0.7-8.2-4.7-15.3-12.8-16c-8.1-0.7-14.5,5.4-15.1,13.5l0,0.1
		c-0.7,8.1,4.7,15.2,12.8,15.9C639.1,426.7,645.4,420.6,646.1,412.5z"/>
	<path class="st7" d="M653.7,424.8l1.7-1.7c3.3,3.6,6.5,5.4,11.4,5.8c4.9,0.4,8.5-2.1,8.8-5.8l0-0.1c0.3-3.5-1.4-5.6-8.7-7.7
		c-7.7-2.2-10.7-5.2-10.3-10.1l0-0.1c0.4-4.9,5.2-8.2,11.3-7.7c4.8,0.4,7.8,2,10.9,4.9l-1.7,1.8c-2.9-2.9-5.9-4.2-9.5-4.5
		c-4.8-0.4-8.2,2.1-8.5,5.5l0,0.1c-0.3,3.5,1.3,5.7,9,8c7.5,2.2,10.4,5.2,10,9.9l0,0.1c-0.4,5.3-5.3,8.6-11.6,8
		C661.2,430.7,657.3,428.6,653.7,424.8z"/>
	<path class="st7" d="M696.3,402.4l-11.4-0.9l0.2-2.2l25.3,2.1l-0.2,2.2l-11.4-0.9l-2.5,30.5l-2.4-0.2L696.3,402.4z"/>
	<path class="st7" d="M717.7,401.9l13.8,1.1c4,0.3,7.2,1.9,9,4c1.4,1.7,2.2,4,2,6.3l0,0.1c-0.5,5.5-4.8,8.3-10.4,8.6l9.7,14.9
		l-3.1-0.3l-9.3-14.4l-10.7-0.9l-1.1,13.6l-2.4-0.2L717.7,401.9z M729.8,420c5.5,0.5,9.8-2,10.2-6.7l0-0.1c0.4-4.4-2.9-7.5-8.8-7.9
		l-11.2-0.9l-1.2,14.8L729.8,420z"/>
	<path class="st7" d="M751.6,404.7l23.3,1.9l-0.2,2.2l-20.9-1.7l-1.1,12.9l18.8,1.6l-0.2,2.2l-18.8-1.6l-1.1,13.2l21.1,1.7l-0.2,2.2
		l-23.6-1.9L751.6,404.7z"/>
</g>
<g class="st6">
	<path class="st7" d="M794.6,408.2l13.4,1.1c7.8,0.6,12.2,5.7,11.6,12.4l0,0.1c-0.6,7.6-6.9,11-14.2,10.4l-5.5-0.5l-0.8,9.8
		l-7.2-0.6L794.6,408.2z M806.1,425.8c3.6,0.3,5.9-1.7,6.1-4.5l0-0.1c0.3-3.2-1.8-5.1-5.4-5.4l-5.6-0.5l-0.8,10L806.1,425.8z"/>
	<path class="st7" d="M833.9,411.2l6.7,0.5l11.3,34.2l-7.5-0.6l-2.4-7.6l-13.9-1.1l-3.6,7.1l-7.4-0.6L833.9,411.2z M839.9,431.2
		l-3.5-11l-5.2,10.3L839.9,431.2z"/>
	<path class="st7" d="M859.6,413.6l15,1.2c4.2,0.3,7.3,1.8,9.3,4.1c1.7,2,2.4,4.6,2.2,7.7l0,0.1c-0.4,5.3-3.6,8.4-7.9,9.6l7,12.4
		l-8.4-0.7l-6.2-11.1l-5.7-0.5l-0.9,10.5l-7.2-0.6L859.6,413.6z M872.8,430.7c3.5,0.3,5.7-1.4,5.9-4.2l0-0.1
		c0.3-3.1-1.8-4.9-5.3-5.2l-7.2-0.6l-0.8,9.4L872.8,430.7z"/>
	<path class="st7" d="M900.6,423.7l-10-0.8l0.5-6.7l27.2,2.2l-0.5,6.7l-10-0.8l-2.2,26.1l-7.2-0.6L900.6,423.7z"/>
	<path class="st7" d="M923.8,418.9l6.7,0.5l13.7,21.5l1.7-20.2l7.1,0.6l-2.7,32.8l-6.1-0.5L930,431.4l-1.7,20.8l-7.1-0.6
		L923.8,418.9z"/>
	<path class="st7" d="M960.8,422l24.7,2l-0.5,6.4l-17.6-1.5l-0.5,6.7l15.5,1.3l-0.5,6.4l-15.5-1.3l-0.6,6.9l17.8,1.5l-0.5,6.4
		l-25-2.1L960.8,422z"/>
	<path class="st7" d="M992.2,424.6l15,1.2c4.2,0.3,7.3,1.8,9.3,4.1c1.7,2,2.4,4.6,2.2,7.7l0,0.1c-0.4,5.3-3.6,8.4-7.9,9.6l7,12.4
		l-8.4-0.7l-6.2-11.1l-5.7-0.5l-0.9,10.5l-7.2-0.6L992.2,424.6z M1005.4,441.7c3.5,0.3,5.7-1.4,5.9-4.2l0-0.1
		c0.3-3.1-1.8-4.9-5.3-5.2l-7.2-0.6l-0.8,9.4L1005.4,441.7z"/>
	<path class="st7" d="M1021.5,455.2l4.7-4.8c2.7,2.7,5.7,4.5,9.5,4.8c3,0.2,4.8-0.8,5-2.7l0-0.1c0.2-1.8-0.9-2.9-6.3-4.7
		c-6.5-2.2-10.6-4.4-10-10.9l0-0.1c0.5-5.9,5.6-9.5,12.3-8.9c4.8,0.4,8.7,2.2,11.8,5.2l-4.2,5.1c-2.7-2.3-5.5-3.7-8.3-3.9
		c-2.8-0.2-4.3,0.9-4.5,2.5l0,0.1c-0.2,2.2,1.2,3,6.7,4.9c6.5,2.3,10.1,5,9.6,10.7l0,0.1c-0.5,6.5-5.8,9.8-12.9,9.2
		C1030,461.2,1025.2,459,1021.5,455.2z"/>
	<path class="st7" d="M1056.1,429.8l7.2,0.6l-1.1,13l13.3,1.1l1.1-13l7.2,0.6l-2.7,32.8l-7.2-0.6l1.1-13.2l-13.3-1.1l-1.1,13.2
		l-7.2-0.6L1056.1,429.8z"/>
	<path class="st7" d="M1092,432.8l7.2,0.6l-2.7,32.8l-7.2-0.6L1092,432.8z"/>
	<path class="st7" d="M1107.4,434.1l13.4,1.1c7.8,0.6,12.2,5.7,11.6,12.4l0,0.1c-0.6,7.6-6.9,11-14.2,10.4l-5.5-0.5l-0.8,9.8
		l-7.2-0.6L1107.4,434.1z M1119,451.7c3.6,0.3,5.9-1.7,6.1-4.5l0-0.1c0.3-3.2-1.8-5.2-5.4-5.4l-5.6-0.5l-0.8,10L1119,451.7z"/>
</g>
<g>
	<path class="st8" d="M274.4,144.6l2.4-0.3l4.3,30.3l19.1-2.7l0.3,2.2l-21.5,3L274.4,144.6z"/>
	<path class="st8" d="M303.2,140.5l23.2-3.3l0.3,2.2l-20.8,2.9l1.8,12.8l18.7-2.6l0.3,2.2l-18.7,2.6l1.8,13.1l21-3l0.3,2.2
		l-23.4,3.3L303.2,140.5z"/>
	<path class="st8" d="M348.4,134.2l2.3-0.3l26.5,25.2l-4-28.3l2.3-0.3L380,163l-1.8,0.3l-27-25.7l4.1,28.9l-2.3,0.3L348.4,134.2z"/>
	<path class="st8" d="M386,145.6L386,145.6c-1.3-9,4.2-17.9,14-19.2c9.9-1.4,17.4,5.6,18.7,14.5l0,0.1c1.2,8.9-4.2,17.8-14.1,19.2
		C394.8,161.5,387.2,154.5,386,145.6z M416.2,141.4L416.2,141.4c-1.1-8.1-7.9-13.9-16-12.8c-8.1,1.1-12.9,8.5-11.8,16.5l0,0.1
		c1.1,8.1,7.9,13.8,16,12.7C412.5,156.7,417.4,149.4,416.2,141.4z"/>
	<path class="st8" d="M426.3,151.6l1.3-2c4,2.8,7.6,3.9,12.4,3.2c4.9-0.7,7.9-3.9,7.3-7.6l0-0.1c-0.5-3.4-2.6-5.2-10.2-5.6
		c-8-0.5-11.6-2.7-12.3-7.6l0-0.1c-0.7-4.8,3.2-9.2,9.3-10c4.7-0.7,8,0.2,11.7,2.4l-1.3,2.1c-3.4-2.2-6.7-2.8-10.2-2.3
		c-4.8,0.7-7.6,3.9-7.1,7.3l0,0.1c0.5,3.4,2.5,5.3,10.5,5.8c7.8,0.5,11.3,2.7,12,7.5l0,0.1c0.7,5.3-3.3,9.5-9.5,10.4
		C435,155.7,430.7,154.6,426.3,151.6z"/>
	<path class="st8" d="M463,120.4l-11.4,1.6l-0.3-2.2l25.1-3.5l0.3,2.2l-11.4,1.6l4.3,30.3l-2.4,0.3L463,120.4z"/>
	<path class="st8" d="M483.8,115.2l13.7-1.9c4-0.6,7.4,0.2,9.6,1.9c1.8,1.3,3,3.4,3.3,5.7l0,0.1c0.8,5.4-2.8,9.1-8.2,10.6l12.7,12.4
		l-3.1,0.4l-12.3-12l-10.7,1.5l1.9,13.5l-2.4,0.3L483.8,115.2z M499.6,130.2c5.4-0.8,9.1-4.1,8.4-8.8l0-0.1
		c-0.6-4.4-4.4-6.6-10.4-5.8l-11.1,1.6l2.1,14.7L499.6,130.2z"/>
	<path class="st8" d="M517.5,110.4l23.2-3.3l0.3,2.2l-20.8,2.9l1.8,12.8l18.7-2.6l0.3,2.2l-18.7,2.6l1.8,13.1l21-2.9l0.3,2.2
		L522,143L517.5,110.4z"/>
</g>
<g>
	<path class="st8" d="M563.3,132.4l3.5-5.7c3.3,2,6.6,3.1,10.3,2.6c2.9-0.4,4.5-1.8,4.3-3.7l0-0.1c-0.3-1.8-1.5-2.6-7.1-3.2
		c-6.8-0.8-11.3-2-12.2-8.4l0-0.1c-0.8-5.9,3.4-10.5,10-11.4c4.7-0.7,9,0.3,12.7,2.4l-3,5.9c-3.2-1.6-6.2-2.4-8.9-2
		c-2.7,0.4-4,1.8-3.8,3.4l0,0.1c0.3,2.1,1.8,2.6,7.6,3.3c6.9,0.8,10.9,2.6,11.7,8.3l0,0.1c0.9,6.5-3.5,10.8-10.5,11.8
		C572.9,136.3,567.7,135.3,563.3,132.4z"/>
	<path class="st8" d="M592.2,116.6L592.2,116.6c-1.3-9.4,4.9-18,15-19.4c10.1-1.4,18.3,5.1,19.6,14.3l0,0.1
		c1.3,9.3-4.9,17.9-15,19.3C601.8,132.4,593.5,125.9,592.2,116.6z M619.4,112.8L619.4,112.8c-0.8-5.7-5.5-9.8-11.3-8.9
		c-5.8,0.8-9.1,5.9-8.3,11.5l0,0.1c0.8,5.6,5.5,9.7,11.3,8.9C616.8,123.5,620.1,118.4,619.4,112.8z"/>
	<path class="st8" d="M630.9,94.5l7.2-1l3.7,26.1l16.2-2.3l0.9,6.5l-23.4,3.3L630.9,94.5z"/>
	<path class="st8" d="M661,109.3l-2.6-18.6l7.2-1l2.6,18.4c0.7,5.3,3.8,7.7,8.2,7.1c4.4-0.6,6.7-3.6,5.9-8.8l-2.6-18.7l7.2-1
		l2.6,18.4c1.4,9.9-3.5,15.5-12.2,16.7C668.3,123,662.3,118.8,661,109.3z"/>
	<path class="st8" d="M696.9,112.9l15-23.4L694.5,92l-0.9-6.3l26.6-3.7l0.8,5.4l-15,23.4l17.9-2.5l0.9,6.3l-27.1,3.8L696.9,112.9z"
		/>
	<path class="st8" d="M727.3,80.9l7.2-1l4.6,32.6l-7.2,1L727.3,80.9z"/>
	<path class="st8" d="M743.5,95.4L743.5,95.4c-1.3-9.4,4.9-18,15-19.4s18.3,5.1,19.6,14.3l0,0.1c1.3,9.3-4.9,17.9-15,19.3
		S744.8,104.6,743.5,95.4z M770.6,91.6L770.6,91.6c-0.8-5.7-5.5-9.8-11.3-8.9c-5.8,0.8-9.1,5.9-8.3,11.5l0,0.1
		c0.8,5.6,5.5,9.7,11.3,8.9C768,102.3,771.4,97.1,770.6,91.6z"/>
	<path class="st8" d="M782.2,73.2l6.6-0.9l18.1,17.9l-2.8-20.1l7.1-1l4.6,32.6l-6.1,0.9l-18.7-18.5l2.9,20.7l-7.1,1L782.2,73.2z"/>
	<path class="st8" d="M819.3,68l7.2-1l4.6,32.6l-7.2,1L819.3,68z"/>
	<path class="st8" d="M848.9,63.9l7.2-1l4.6,32.6l-7.2,1L848.9,63.9z"/>
	<path class="st8" d="M864.2,61.7l6.6-0.9l18.1,17.9l-2.8-20.1l7.1-1l4.6,32.6l-6.1,0.9l-18.7-18.5l2.9,20.7l-7.1,1L864.2,61.7z"/>
	<path class="st8" d="M915.8,71.2L915.8,71.2c-1.3-9.4,4.6-17.9,14.6-19.3c6.1-0.9,10.1,0.7,13.6,3.2l-3.8,5.9
		c-2.8-1.9-5.6-3-8.8-2.5c-5.5,0.8-8.8,5.9-8,11.5l0,0.1c0.8,5.6,5.3,9.7,10.9,8.9c3.7-0.5,5.8-2.3,8-5l5.2,4
		c-2.8,4.1-6.3,6.8-12.5,7.7C925.3,86.9,917.1,80.5,915.8,71.2z"/>
	<path class="st8" d="M949.3,49.8l7.2-1l3.7,26.1l16.2-2.3l0.9,6.5l-23.4,3.3L949.3,49.8z"/>
	<path class="st8" d="M977.1,62.5L977.1,62.5c-1.3-9.4,4.9-18,15-19.4s18.3,5.1,19.6,14.3l0,0.1c1.3,9.3-4.9,17.9-15,19.3
		C986.7,78.3,978.4,71.8,977.1,62.5z M1004.3,58.7L1004.3,58.7c-0.8-5.7-5.5-9.8-11.3-8.9c-5.8,0.8-9.1,5.9-8.3,11.5l0,0.1
		c0.8,5.6,5.5,9.7,11.3,8.9C1001.7,69.4,1005,64.3,1004.3,58.7z"/>
	<path class="st8" d="M1017.9,59.1l-2.6-18.6l7.2-1l2.6,18.4c0.7,5.3,3.8,7.7,8.2,7.1s6.7-3.6,5.9-8.8l-2.6-18.7l7.2-1l2.6,18.4
		c1.4,9.9-3.5,15.5-12.2,16.7S1019.3,68.7,1017.9,59.1z"/>
	<path class="st8" d="M1051,35.5l12.7-1.8c10.2-1.4,18.3,4.6,19.6,13.8l0,0.1c1.3,9.2-4.8,17.3-15,18.7l-12.7,1.8L1051,35.5z
		 M1067.4,59.8c5.9-0.8,9.3-5.3,8.5-11.1l0-0.1c-0.8-5.8-5.3-9.3-11.2-8.4l-5.5,0.8l2.8,19.6L1067.4,59.8z"/>
</g>
</svg>
