<?xml version="1.0" encoding="utf-8"?>
<!-- Generator: Adobe Illustrator 24.0.0, SVG Export Plug-In . SVG Version: 6.00 Build 0)  -->
<svg version="1.1" id="Livello_1" xmlns="http://www.w3.org/2000/svg" xmlns:xlink="http://www.w3.org/1999/xlink" x="0px" y="0px"
	 viewBox="0 0 1768.2 1761.7" style="enable-background:new 0 0 1768.2 1761.7;" xml:space="preserve">
<style type="text/css">
	.st0{display:none;fill:#EBECED;}
	.st1{display:none;fill:#DADDDE;}
	.st2{fill:#D3E4F5;}
	.st3{fill:#B2D1ED;}
	.st4{display:none;}
	.st5{display:inline;fill:#FFFFFF;}
	.st6{fill:#FFFFFF;}
</style>
<g>
	<path class="st0" d="M414-219.6C244-195.7,125.6-38.6,149.5,131.3L281.3,1069c23.9,169.9,181,288.3,350.9,264.5l937.7-131.8
		c169.9-23.9,288.3-181,264.4-350.9L1702.6-87c-23.9-169.9-181-288.3-350.9-264.5L414-219.6z"/>
	<path class="st1" d="M1834.4,850.8L1702.6-87c-21.2-150.7-147.1-260.6-293.9-267c69,331.7,179.8,1368.4-1070.5,1563.3
		c65.5,89.2,176.6,140.6,293.9,124.1l937.7-131.8C1739.9,1177.8,1858.3,1020.7,1834.4,850.8"/>
	<path class="st2" d="M450.7,1.2C267.3-14,106.4,122.3,91.2,305.7L7.6,1317.5c-15.2,183.4,121.2,344.3,304.6,359.4l1011.8,83.6
		c183.3,15.2,344.3-121.2,359.4-304.6L1767,444.2c15.2-183.4-121.2-344.3-304.5-359.4L450.7,1.2z"/>
	<path class="st3" d="M1683.4,1456L1767,444.2c13.4-162.6-92.3-307.2-244.3-348.6c-6.2,363.2-135.1,1473.5-1488.7,1382.1
		c47.4,108.8,151.5,188.7,278.1,199.2l1011.8,83.6C1507.3,1775.7,1668.3,1639.4,1683.4,1456"/>
	<path class="st0" d="M-182.5,664.4c-176.2,53.1-275.9,238.9-222.8,415.1l293,972c53.1,176.2,238.9,275.9,415.1,222.8l972.1-293
		c176.1-53.1,275.9-238.9,222.8-415.1l-293-972C1151.6,418,965.7,318.3,789.6,371.4L-182.5,664.4z"/>
	<path class="st1" d="M1497.7,1566.2l-293-972.1c-47.1-156.2-198.5-252-355-234.8C977,699.5,1264,1779.9-28.9,2190.9
		c84,83.8,210.2,120.1,331.7,83.4l972-293C1451,1928.2,1550.8,1742.4,1497.7,1566.2"/>
</g>
<g class="st4">
	<path class="st5" d="M317.3,530.4l2.3-0.7l8.8,29.3l18.5-5.6l0.7,2.2l-20.8,6.3L317.3,530.4z"/>
	<path class="st5" d="M345.2,522l22.4-6.8l0.7,2.2l-20.1,6l3.7,12.4l18-5.4l0.7,2.2l-18,5.4l3.8,12.6l20.3-6.1l0.7,2.2l-22.6,6.8
		L345.2,522z"/>
	<path class="st5" d="M388.9,508.8l2.2-0.7l30,20.9l-8.3-27.4l2.2-0.7l9.5,31.5l-1.8,0.5l-30.6-21.3l8.4,28l-2.2,0.7L388.9,508.8z"
		/>
	<path class="st5" d="M427.8,514.3L427.8,514.3c-2.6-8.7,1.4-18.3,10.9-21.2c9.5-2.9,18.1,2.8,20.7,11.4l0,0.1
		c2.6,8.6-1.4,18.2-11,21.1C438.9,528.7,430.4,522.9,427.8,514.3z M457,505.5L457,505.5c-2.4-7.9-10-12.6-17.8-10.2
		c-7.8,2.3-11.5,10.3-9.1,18.1l0,0.1c2.3,7.8,9.9,12.5,17.7,10.1C455.7,521.3,459.4,513.3,457,505.5z"/>
	<path class="st5" d="M468.6,514.1l1-2.2c4.4,2.2,8.1,2.7,12.7,1.3c4.7-1.4,7.2-5.1,6.1-8.7l0-0.1c-1-3.3-3.3-4.7-10.9-4
		c-8,0.7-11.9-0.9-13.3-5.7l0-0.1c-1.4-4.7,1.8-9.6,7.6-11.3c4.6-1.4,8-1,12,0.6l-0.9,2.3c-3.7-1.7-7-1.8-10.5-0.7
		c-4.6,1.4-6.9,5-5.9,8.3l0,0.1c1,3.3,3.3,4.8,11.3,4.1c7.7-0.7,11.6,1,13,5.6l0,0.1c1.5,5.1-1.8,9.9-7.8,11.7
		C477.7,516.9,473.4,516.4,468.6,514.1z"/>
	<path class="st5" d="M500,477.6l-11,3.3l-0.7-2.2l24.3-7.3l0.7,2.2l-11,3.3l8.8,29.3l-2.3,0.7L500,477.6z"/>
	<path class="st5" d="M519.8,469.3l13.2-4c3.9-1.2,7.3-0.9,9.8,0.4c1.9,1,3.5,2.9,4.1,5.1l0,0.1c1.6,5.3-1.4,9.5-6.5,11.8l14.5,10.3
		l-3,0.9l-14-10l-10.3,3.1l3.9,13l-2.3,0.7L519.8,469.3z M537.7,481.8c5.3-1.6,8.4-5.4,7-10l0-0.1c-1.3-4.2-5.4-5.9-11.1-4.2
		l-10.8,3.2l4.3,14.2L537.7,481.8z"/>
	<path class="st5" d="M552.3,459.5l22.4-6.8l0.7,2.2l-20.1,6l3.7,12.4l18-5.4l0.7,2.2l-18,5.4l3.8,12.6l20.3-6.1l0.7,2.2l-22.6,6.8
		L552.3,459.5z"/>
</g>
<g class="st4">
	<path class="st5" d="M595,446.7l14.4-4.3c4-1.2,7.4-1,10.1,0.4c2.3,1.2,4,3.4,4.9,6.4l0,0.1c1.5,5.1-0.2,9.1-3.8,11.8l11.1,8.9
		l-8.1,2.4l-9.8-8l-5.4,1.6l3,10.1l-6.9,2.1L595,446.7z M613.6,457.8c3.4-1,4.8-3.4,4-6.1l0-0.1c-0.9-3-3.4-3.9-6.8-2.9l-6.9,2.1
		l2.7,9L613.6,457.8z"/>
	<path class="st5" d="M627.5,436.9l23.8-7.2l1.9,6.2l-16.9,5.1l1.9,6.4l14.8-4.5l1.9,6.2l-14.8,4.5l2,6.6l17.1-5.2l1.9,6.2l-24,7.2
		L627.5,436.9z"/>
	<path class="st5" d="M657.7,427.8l24-7.2l1.9,6.3l-17.1,5.1l2,6.7l15-4.5l1.9,6.3l-15,4.5l3.7,12.2l-6.9,2.1L657.7,427.8z"/>
	<path class="st5" d="M687.2,418.9l23.8-7.2l1.9,6.2l-16.9,5.1l1.9,6.4l14.8-4.5l1.9,6.2l-14.8,4.5l2,6.6l17.1-5.2l1.9,6.2l-24,7.2
		L687.2,418.9z"/>
	<path class="st5" d="M717.4,409.8l14.4-4.3c4-1.2,7.4-1,10.1,0.4c2.3,1.2,4,3.4,4.9,6.4l0,0.1c1.5,5.1-0.2,9.1-3.8,11.8l11.1,8.9
		l-8.1,2.4l-9.8-8l-5.4,1.6l3,10.1l-6.9,2.1L717.4,409.8z M735.9,420.9c3.4-1,4.8-3.4,4-6.1l0-0.1c-0.9-3-3.4-3.9-6.8-2.9l-6.9,2.1
		l2.7,9L735.9,420.9z"/>
	<path class="st5" d="M749.9,400l23.8-7.2l1.9,6.2l-16.9,5.1l1.9,6.4l14.8-4.5l1.9,6.2l-14.8,4.5l2,6.6l17.1-5.2l1.9,6.2l-24,7.2
		L749.9,400z"/>
	<path class="st5" d="M780,390.9l6.4-1.9l20.6,14.9l-5.8-19.4l6.8-2.1l9.5,31.5l-5.9,1.8l-21.3-15.4l6,20l-6.8,2.1L780,390.9z"/>
	<path class="st5" d="M822.5,406.7l11.2-25.4l-16.8,5.1l-1.8-6.1l25.7-7.7l1.6,5.3l-11.2,25.4l17.3-5.2l1.8,6.1l-26.2,7.9
		L822.5,406.7z"/>
	<path class="st5" d="M847.4,370.6l23.8-7.2l1.9,6.2l-16.9,5.1l1.9,6.4l14.8-4.5l1.9,6.2l-14.8,4.5l2,6.6l17.1-5.2l1.9,6.2l-24,7.2
		L847.4,370.6z"/>
</g>
<g>
	<path class="st6" d="M654.9,30.1l2.4,0.2l-2.5,30.5l19.2,1.6l-0.2,2.2l-21.7-1.8L654.9,30.1z"/>
	<path class="st6" d="M683.9,32.5l23.3,1.9l-0.2,2.2l-20.9-1.7l-1.1,12.9l18.8,1.6l-0.2,2.2l-18.8-1.6l-1.1,13.2l21.1,1.7l-0.2,2.2
		l-23.6-1.9L683.9,32.5z"/>
	<path class="st6" d="M727.9,36.1l2.3,0.2l20.3,30.4l2.4-28.5l2.3,0.2l-2.7,32.8l-1.8-0.2L730,40l-2.4,29.1l-2.3-0.2L727.9,36.1z"/>
	<path class="st6" d="M762.1,55.6L762.1,55.6c0.7-9,8-16.5,17.9-15.7c9.9,0.8,15.8,9.3,15,18.2l0,0.1c-0.7,8.9-8,16.4-17.9,15.6
		C767.3,73,761.4,64.5,762.1,55.6z M792.6,58.1L792.6,58.1c0.7-8.2-4.7-15.3-12.8-16c-8.1-0.7-14.5,5.4-15.1,13.5l0,0.1
		c-0.7,8.1,4.7,15.2,12.8,15.9C785.6,72.3,791.9,66.2,792.6,58.1z"/>
	<path class="st6" d="M800.2,70.3l1.7-1.7c3.3,3.6,6.5,5.4,11.4,5.8c4.9,0.4,8.5-2.1,8.8-5.8l0-0.1c0.3-3.5-1.4-5.6-8.7-7.7
		c-7.7-2.2-10.7-5.2-10.3-10.1l0-0.1c0.4-4.9,5.2-8.2,11.3-7.7c4.8,0.4,7.8,2,10.9,4.9l-1.7,1.8c-2.9-2.9-5.9-4.2-9.5-4.5
		c-4.8-0.4-8.2,2.1-8.5,5.5l0,0.1c-0.3,3.5,1.3,5.7,9,8c7.5,2.2,10.4,5.2,10,9.9l0,0.1c-0.4,5.3-5.3,8.6-11.6,8
		C807.7,76.2,803.8,74.1,800.2,70.3z"/>
	<path class="st6" d="M842.8,47.9l-11.4-0.9l0.2-2.2l25.3,2.1l-0.2,2.2l-11.4-0.9l-2.5,30.5l-2.4-0.2L842.8,47.9z"/>
	<path class="st6" d="M864.2,47.4l13.8,1.1c4,0.3,7.2,1.9,9,4c1.4,1.7,2.2,4,2,6.3l0,0.1c-0.5,5.5-4.8,8.3-10.4,8.6l9.7,14.9
		l-3.1-0.3l-9.3-14.4l-10.7-0.9l-1.1,13.6l-2.4-0.2L864.2,47.4z M876.3,65.5c5.5,0.5,9.8-2,10.2-6.7l0-0.1c0.4-4.4-2.9-7.5-8.8-7.9
		l-11.2-0.9l-1.2,14.8L876.3,65.5z"/>
	<path class="st6" d="M898.1,50.2l23.3,1.9l-0.2,2.2l-20.9-1.7l-1.1,12.9l18.8,1.6l-0.2,2.2l-18.8-1.6L898,80.9l21.1,1.7l-0.2,2.2
		L895.4,83L898.1,50.2z"/>
</g>
<g>
	<path class="st6" d="M941,53.7l13.4,1.1c7.8,0.6,12.2,5.7,11.6,12.4l0,0.1c-0.6,7.6-6.9,11-14.2,10.4l-5.5-0.5l-0.8,9.8l-7.2-0.6
		L941,53.7z M952.6,71.3c3.6,0.3,5.9-1.7,6.1-4.5l0-0.1c0.3-3.2-1.8-5.1-5.4-5.4l-5.6-0.5l-0.8,10L952.6,71.3z"/>
	<path class="st6" d="M980.3,56.8l6.7,0.5l11.3,34.2l-7.5-0.6l-2.4-7.6l-13.9-1.1l-3.6,7.1l-7.4-0.6L980.3,56.8z M986.3,76.7
		l-3.5-11L977.6,76L986.3,76.7z"/>
	<path class="st6" d="M1006.1,59.1l15,1.2c4.2,0.3,7.3,1.8,9.3,4.1c1.7,2,2.4,4.6,2.2,7.7l0,0.1c-0.4,5.3-3.6,8.4-7.9,9.6l7,12.4
		l-8.4-0.7l-6.2-11.1l-5.7-0.5l-0.9,10.5l-7.2-0.6L1006.1,59.1z M1019.3,76.2c3.5,0.3,5.7-1.4,5.9-4.2l0-0.1
		c0.3-3.1-1.8-4.9-5.3-5.2l-7.2-0.6l-0.8,9.4L1019.3,76.2z"/>
	<path class="st6" d="M1047,69.2l-10-0.8l0.5-6.7l27.2,2.2l-0.5,6.7l-10-0.8l-2.2,26.1l-7.2-0.6L1047,69.2z"/>
	<path class="st6" d="M1070.3,64.4l6.7,0.5l13.7,21.5l1.7-20.2l7.1,0.6l-2.7,32.8l-6.1-0.5L1076.4,77l-1.7,20.8l-7.1-0.6
		L1070.3,64.4z"/>
	<path class="st6" d="M1107.3,67.5l24.7,2l-0.5,6.4l-17.6-1.5l-0.5,6.7l15.5,1.3l-0.5,6.4l-15.5-1.3l-0.6,6.9l17.8,1.5l-0.5,6.4
		l-25-2.1L1107.3,67.5z"/>
	<path class="st6" d="M1138.7,70.1l15,1.2c4.2,0.3,7.3,1.8,9.3,4.1c1.7,2,2.4,4.6,2.2,7.7l0,0.1c-0.4,5.3-3.6,8.4-7.9,9.6l7,12.4
		l-8.4-0.7l-6.2-11.1l-5.7-0.5l-0.9,10.5l-7.2-0.6L1138.7,70.1z M1151.9,87.2c3.5,0.3,5.7-1.4,5.9-4.2l0-0.1
		c0.3-3.1-1.8-4.9-5.3-5.2l-7.2-0.6l-0.8,9.4L1151.9,87.2z"/>
	<path class="st6" d="M1168,100.7l4.7-4.8c2.7,2.7,5.7,4.5,9.5,4.8c3,0.2,4.8-0.8,5-2.7l0-0.1c0.2-1.8-0.9-2.9-6.3-4.7
		c-6.5-2.2-10.6-4.4-10-10.9l0-0.1c0.5-5.9,5.6-9.5,12.3-8.9c4.8,0.4,8.7,2.2,11.8,5.2l-4.2,5.1c-2.7-2.3-5.5-3.7-8.3-3.9
		c-2.8-0.2-4.3,0.9-4.5,2.5l0,0.1c-0.2,2.2,1.2,3,6.7,4.9c6.5,2.3,10.1,5,9.6,10.7l0,0.1c-0.5,6.5-5.8,9.8-12.9,9.2
		C1176.5,106.7,1171.6,104.5,1168,100.7z"/>
	<path class="st6" d="M1202.5,75.4l7.2,0.6l-1.1,13L1222,90l1.1-13l7.2,0.6l-2.7,32.8l-7.2-0.6l1.1-13.2l-13.3-1.1l-1.1,13.2
		l-7.2-0.6L1202.5,75.4z"/>
	<path class="st6" d="M1238.5,78.3l7.2,0.6l-2.7,32.8l-7.2-0.6L1238.5,78.3z"/>
	<path class="st6" d="M1253.9,79.6l13.4,1.1c7.8,0.6,12.2,5.7,11.6,12.4l0,0.1c-0.6,7.6-6.9,11-14.2,10.4l-5.5-0.5l-0.8,9.8
		l-7.2-0.6L1253.9,79.6z M1265.4,97.2c3.6,0.3,5.9-1.7,6.1-4.5l0-0.1c0.3-3.2-1.8-5.2-5.4-5.4l-5.6-0.5l-0.8,10L1265.4,97.2z"/>
</g>
<g class="st4">
	<path class="st5" d="M420.9-209.9l2.4-0.3l4.3,30.3l19.1-2.7l0.3,2.2l-21.5,3L420.9-209.9z"/>
	<path class="st5" d="M449.7-213.9l23.2-3.3l0.3,2.2l-20.8,2.9l1.8,12.8l18.7-2.6l0.3,2.2l-18.7,2.6l1.8,13.1l21-3l0.3,2.2
		l-23.4,3.3L449.7-213.9z"/>
	<path class="st5" d="M494.8-220.3l2.3-0.3l26.5,25.2l-4-28.3l2.3-0.3l4.6,32.6l-1.8,0.3l-27-25.7l4.1,28.9l-2.3,0.3L494.8-220.3z"
		/>
	<path class="st5" d="M532.5-208.9L532.5-208.9c-1.3-9,4.2-17.9,14-19.2c9.9-1.4,17.4,5.6,18.7,14.5l0,0.1
		c1.2,8.9-4.2,17.8-14.1,19.2C541.3-193,533.7-200,532.5-208.9z M562.7-213.1L562.7-213.1c-1.1-8.1-7.9-13.9-16-12.8
		c-8.1,1.1-12.9,8.5-11.8,16.5l0,0.1c1.1,8.1,7.9,13.8,16,12.7C559-197.7,563.8-205.1,562.7-213.1z"/>
	<path class="st5" d="M572.8-202.8l1.3-2c4,2.8,7.6,3.9,12.4,3.2c4.9-0.7,7.9-3.9,7.3-7.6l0-0.1c-0.5-3.4-2.6-5.2-10.2-5.6
		c-8-0.5-11.6-2.7-12.3-7.6l0-0.1c-0.7-4.8,3.2-9.2,9.3-10c4.7-0.7,8,0.2,11.7,2.4l-1.3,2.1c-3.4-2.2-6.7-2.8-10.2-2.3
		c-4.8,0.7-7.6,3.9-7.1,7.3l0,0.1c0.5,3.4,2.5,5.3,10.5,5.8c7.8,0.5,11.3,2.7,12,7.5l0,0.1c0.7,5.3-3.3,9.5-9.5,10.4
		C581.4-198.7,577.2-199.9,572.8-202.8z"/>
	<path class="st5" d="M609.5-234.1l-11.4,1.6l-0.3-2.2l25.1-3.5l0.3,2.2l-11.4,1.6l4.3,30.3l-2.4,0.3L609.5-234.1z"/>
	<path class="st5" d="M630.3-239.3l13.7-1.9c4-0.6,7.4,0.2,9.6,1.9c1.8,1.3,3,3.4,3.3,5.7l0,0.1c0.8,5.4-2.8,9.1-8.2,10.6l12.7,12.4
		l-3.1,0.4l-12.3-12l-10.7,1.5l1.9,13.5l-2.4,0.3L630.3-239.3z M646-224.3c5.4-0.8,9.1-4.1,8.4-8.8l0-0.1c-0.6-4.4-4.4-6.6-10.4-5.8
		l-11.1,1.6l2.1,14.7L646-224.3z"/>
	<path class="st5" d="M663.9-244l23.2-3.3l0.3,2.2l-20.8,2.9l1.8,12.8l18.7-2.6l0.3,2.2l-18.7,2.6l1.8,13.1l21-2.9l0.3,2.2
		l-23.4,3.3L663.9-244z"/>
</g>
<g class="st4">
	<path class="st5" d="M709.7-222.1l3.5-5.7c3.3,2,6.6,3.1,10.3,2.6c2.9-0.4,4.5-1.8,4.3-3.7l0-0.1c-0.3-1.8-1.5-2.6-7.1-3.2
		c-6.8-0.8-11.3-2-12.2-8.4l0-0.1c-0.8-5.9,3.4-10.5,10-11.4c4.7-0.7,9,0.3,12.7,2.4l-3,5.9c-3.2-1.6-6.2-2.4-8.9-2
		c-2.7,0.4-4,1.8-3.8,3.4l0,0.1c0.3,2.1,1.8,2.6,7.6,3.3c6.9,0.8,10.9,2.6,11.7,8.3l0,0.1c0.9,6.5-3.5,10.8-10.5,11.8
		C719.3-218.1,714.1-219.1,709.7-222.1z"/>
	<path class="st5" d="M738.7-237.8L738.7-237.8c-1.3-9.4,4.9-18,15-19.4c10.1-1.4,18.3,5.1,19.6,14.3l0,0.1
		c1.3,9.3-4.9,17.9-15,19.3C748.3-222.1,740-228.6,738.7-237.8z M765.8-241.6L765.8-241.6c-0.8-5.7-5.5-9.8-11.3-8.9
		c-5.8,0.8-9.1,5.9-8.3,11.5l0,0.1c0.8,5.6,5.5,9.7,11.3,8.9C763.2-230.9,766.6-236.1,765.8-241.6z"/>
	<path class="st5" d="M777.4-260l7.2-1l3.7,26.1l16.2-2.3l0.9,6.5l-23.4,3.3L777.4-260z"/>
	<path class="st5" d="M807.4-245.2l-2.6-18.6l7.2-1l2.6,18.4c0.7,5.3,3.8,7.7,8.2,7.1c4.4-0.6,6.7-3.6,5.9-8.8l-2.6-18.7l7.2-1
		l2.6,18.4c1.4,9.9-3.5,15.5-12.2,16.7C814.8-231.5,808.8-235.6,807.4-245.2z"/>
	<path class="st5" d="M843.3-241.6l15-23.4l-17.4,2.4l-0.9-6.3l26.6-3.7l0.8,5.4l-15,23.4l17.9-2.5l0.9,6.3l-27.1,3.8L843.3-241.6z"
		/>
	<path class="st5" d="M873.8-273.5l7.2-1l4.6,32.6l-7.2,1L873.8-273.5z"/>
	<path class="st5" d="M890-259.1L890-259.1c-1.3-9.4,4.9-18,15-19.4s18.3,5.1,19.6,14.3l0,0.1c1.3,9.3-4.9,17.9-15,19.3
		S891.3-249.8,890-259.1z M917.1-262.9L917.1-262.9c-0.8-5.7-5.5-9.8-11.3-8.9c-5.8,0.8-9.1,5.9-8.3,11.5l0,0.1
		c0.8,5.6,5.5,9.7,11.3,8.9C914.5-252.2,917.9-257.3,917.1-262.9z"/>
	<path class="st5" d="M928.7-281.2l6.6-0.9l18.1,17.9l-2.8-20.1l7.1-1l4.6,32.6l-6.1,0.9l-18.7-18.5l2.9,20.7l-7.1,1L928.7-281.2z"
		/>
	<path class="st5" d="M965.7-286.5l7.2-1l4.6,32.6l-7.2,1L965.7-286.5z"/>
	<path class="st5" d="M995.3-290.6l7.2-1l4.6,32.6l-7.2,1L995.3-290.6z"/>
	<path class="st5" d="M1010.7-292.8l6.6-0.9l18.1,17.9l-2.8-20.1l7.1-1l4.6,32.6l-6.1,0.9l-18.7-18.5l2.9,20.7l-7.1,1L1010.7-292.8z
		"/>
	<path class="st5" d="M1062.3-283.3L1062.3-283.3c-1.3-9.4,4.6-17.9,14.6-19.3c6.1-0.9,10.1,0.7,13.6,3.2l-3.8,5.9
		c-2.8-1.9-5.6-3-8.8-2.5c-5.5,0.8-8.8,5.9-8,11.5l0,0.1c0.8,5.6,5.3,9.7,10.9,8.9c3.7-0.5,5.8-2.3,8-5l5.2,4
		c-2.8,4.1-6.3,6.8-12.5,7.7C1071.7-267.6,1063.6-274,1062.3-283.3z"/>
	<path class="st5" d="M1095.7-304.7l7.2-1l3.7,26.1l16.2-2.3l0.9,6.5l-23.4,3.3L1095.7-304.7z"/>
	<path class="st5" d="M1123.6-291.9L1123.6-291.9c-1.3-9.4,4.9-18,15-19.4s18.3,5.1,19.6,14.3l0,0.1c1.3,9.3-4.9,17.9-15,19.3
		C1133.2-276.2,1124.9-282.7,1123.6-291.9z M1150.7-295.7L1150.7-295.7c-0.8-5.7-5.5-9.8-11.3-8.9c-5.8,0.8-9.1,5.9-8.3,11.5l0,0.1
		c0.8,5.6,5.5,9.7,11.3,8.9C1148.1-285,1151.5-290.2,1150.7-295.7z"/>
	<path class="st5" d="M1164.4-295.4l-2.6-18.6l7.2-1l2.6,18.4c0.7,5.3,3.8,7.7,8.2,7.1s6.7-3.6,5.9-8.8L1183-317l7.2-1l2.6,18.4
		c1.4,9.9-3.5,15.5-12.2,16.7S1165.7-285.8,1164.4-295.4z"/>
	<path class="st5" d="M1197.5-319l12.7-1.8c10.2-1.4,18.3,4.6,19.6,13.8l0,0.1c1.3,9.2-4.8,17.3-15,18.7l-12.7,1.8L1197.5-319z
		 M1213.9-294.7c5.9-0.8,9.3-5.3,8.5-11.1l0-0.1c-0.8-5.8-5.3-9.3-11.2-8.4l-5.5,0.8l2.8,19.6L1213.9-294.7z"/>
</g>
</svg>
