<?xml version="1.0" encoding="UTF-8" standalone="no"?><!DOCTYPE svg PUBLIC "-//W3C//DTD SVG 1.1//EN" "http://www.w3.org/Graphics/SVG/1.1/DTD/svg11.dtd"><svg width="100%" height="100%" viewBox="0 0 1762 1762" version="1.1" xmlns="http://www.w3.org/2000/svg" xmlns:xlink="http://www.w3.org/1999/xlink" xml:space="preserve" xmlns:serif="http://www.serif.com/" style="fill-rule:evenodd;clip-rule:evenodd;stroke-miterlimit:10;"><g><path d="M444.543,1.443c-183.4,-15.1 -344.3,121.2 -359.5,304.6l-83.6,1011.8c-15.2,183.4 121.2,344.3 304.6,359.4l1011.8,83.6c183.3,15.2 344.3,-121.2 359.4,-304.6l83.6,-1011.8c15.2,-183.4 -121.2,-344.3 -304.5,-359.4l-1011.8,-83.6Z" style="fill:#d3e4f5;fill-rule:nonzero;"/><path d="M1677.24,1456.34l83.6,-1011.8c13.4,-162.6 -92.3,-307.2 -244.3,-348.6c-6.2,363.2 -135.1,1473.5 -1488.7,1382.1c47.4,108.8 151.5,188.7 278.1,199.2l1011.8,83.6c183.4,15.2 344.3,-121.1 359.5,-304.5" style="fill:#b2d1ed;fill-rule:nonzero;"/></g><g><path d="M648.743,30.443l2.4,0.2l-2.5,30.5l19.2,1.6l-0.2,2.2l-21.7,-1.8l2.8,-32.7Z" style="fill:#fff;fill-rule:nonzero;"/><path d="M677.743,32.843l23.3,1.9l-0.2,2.2l-20.9,-1.7l-1.1,12.9l18.8,1.6l-0.2,2.2l-18.7,-1.5l-1.1,13.2l21.1,1.7l-0.2,2.2l-23.6,-1.9l2.8,-32.8Z" style="fill:#fff;fill-rule:nonzero;"/><path d="M721.743,36.443l2.3,0.2l20.3,30.4l2.4,-28.5l2.3,0.2l-2.7,32.8l-1.8,-0.2l-20.7,-31l-2.4,29.1l-2.3,-0.2l2.6,-32.8Z" style="fill:#fff;fill-rule:nonzero;"/><path d="M755.943,55.943c0.7,-9 8,-16.5 17.9,-15.7c9.9,0.8 15.8,9.3 15,18.2l0,0.1c-0.7,8.9 -8,16.4 -17.9,15.6c-9.9,-0.8 -15.7,-9.3 -15,-18.2Zm30.5,2.5c0.7,-8.2 -4.7,-15.3 -12.8,-16c-8.1,-0.7 -14.5,5.4 -15.1,13.5l0,0.1c-0.7,8.1 4.7,15.2 12.8,15.9c8,0.6 14.4,-5.4 15.1,-13.5Z" style="fill:#fff;fill-rule:nonzero;"/><path d="M793.943,70.643l1.7,-1.7c3.3,3.6 6.5,5.4 11.4,5.8c4.9,0.4 8.5,-2.1 8.8,-5.8l0,-0.1c0.3,-3.5 -1.4,-5.6 -8.7,-7.7c-7.7,-2.2 -10.7,-5.2 -10.3,-10.1l0,-0.1c0.4,-4.9 5.2,-8.2 11.2,-7.7c4.8,0.4 7.8,2 10.9,4.9l-1.7,1.8c-2.9,-2.9 -5.9,-4.2 -9.5,-4.5c-4.8,-0.4 -8.2,2.1 -8.5,5.5l0,0.1c-0.3,3.5 1.3,5.7 9,8c7.5,2.2 10.4,5.2 10,9.9l0,0.1c-0.4,5.3 -5.3,8.6 -11.6,8c-5.1,-0.5 -9,-2.6 -12.7,-6.4Z" style="fill:#fff;fill-rule:nonzero;"/><path d="M836.643,48.243l-11.4,-0.9l0.2,-2.2l25.3,2.1l-0.2,2.2l-11.4,-0.9l-2.5,30.5l-2.4,-0.2l2.4,-30.6Z" style="fill:#fff;fill-rule:nonzero;"/><path d="M858.043,47.743l13.8,1.1c4,0.3 7.2,1.9 9,4c1.4,1.7 2.2,4 2,6.3l0,0.1c-0.5,5.5 -4.8,8.3 -10.4,8.6l9.7,14.9l-3.1,-0.3l-9.3,-14.4l-10.7,-0.9l-1.1,13.6l-2.4,-0.2l2.5,-32.8Zm12.1,18.1c5.5,0.5 9.8,-2 10.2,-6.7l0,-0.1c0.4,-4.4 -2.9,-7.5 -8.8,-7.9l-11.2,-0.9l-1.2,14.8l11,0.8Z" style="fill:#fff;fill-rule:nonzero;"/><path d="M891.943,50.543l23.3,1.9l-0.2,2.2l-20.9,-1.7l-1.1,12.9l18.8,1.6l-0.2,2.2l-18.8,-1.6l-1.1,13.2l21.1,1.7l-0.2,2.2l-23.4,-1.8l2.7,-32.8Z" style="fill:#fff;fill-rule:nonzero;"/></g><g><path d="M934.843,54.043l13.4,1.1c7.8,0.6 12.2,5.7 11.6,12.4l0,0.1c-0.6,7.6 -6.9,11 -14.2,10.4l-5.5,-0.5l-0.8,9.8l-7.2,-0.6l2.7,-32.7Zm11.6,17.6c3.6,0.3 5.9,-1.7 6.1,-4.5l0,-0.1c0.3,-3.2 -1.8,-5.2 -5.4,-5.4l-5.6,-0.5l-0.8,10l5.7,0.5Z" style="fill:#fff;fill-rule:nonzero;"/><path d="M974.143,57.043l6.6,0.5l11.3,34.2l-7.5,-0.6l-2.4,-7.6l-13.9,-1.1l-3.6,7.1l-7.4,-0.6l16.9,-31.9Zm6,20l-3.5,-11l-5.2,10.3l8.7,0.7Z" style="fill:#fff;fill-rule:nonzero;"/><path d="M999.843,59.443l15,1.2c4.2,0.3 7.3,1.8 9.3,4.1c1.7,2 2.4,4.6 2.2,7.7l0,0.1c-0.4,5.3 -3.6,8.4 -7.9,9.6l7,12.4l-8.4,-0.7l-6.2,-11.1l-5.7,-0.5l-0.9,10.5l-7.2,-0.6l2.8,-32.7Zm13.2,17.1c3.5,0.3 5.7,-1.4 5.9,-4.2l0,-0.1c0.3,-3.1 -1.8,-4.9 -5.3,-5.2l-7.2,-0.6l-0.8,9.4l7.4,0.7Z" style="fill:#fff;fill-rule:nonzero;"/><path d="M1040.84,69.543l-10,-0.8l0.5,-6.7l27.2,2.2l-0.5,6.7l-10,-0.8l-2.2,26.1l-7.2,-0.6l2.2,-26.1Z" style="fill:#fff;fill-rule:nonzero;"/><path d="M1064.04,64.743l6.7,0.6l13.7,21.5l1.7,-20.2l7.1,0.6l-2.7,32.8l-6.1,-0.5l-14.2,-22.2l-1.7,20.8l-7.1,-0.6l2.6,-32.8Z" style="fill:#fff;fill-rule:nonzero;"/><path d="M1101.04,67.843l24.7,2l-0.5,6.4l-17.5,-1.4l-0.5,6.7l15.5,1.3l-0.5,6.4l-15.5,-1.3l-0.6,6.9l17.8,1.5l-0.5,6.4l-25,-2.1l2.6,-32.8Z" style="fill:#fff;fill-rule:nonzero;"/><path d="M1132.44,70.443l15,1.2c4.2,0.3 7.3,1.8 9.3,4.1c1.7,2 2.4,4.6 2.2,7.7l0,0.1c-0.4,5.3 -3.6,8.4 -7.9,9.6l7,12.4l-8.4,-0.7l-6.2,-11.1l-5.7,-0.5l-0.9,10.5l-7.2,-0.6l2.8,-32.7Zm13.2,17.1c3.5,0.3 5.7,-1.4 5.9,-4.2l0,-0.1c0.3,-3.1 -1.8,-4.9 -5.3,-5.2l-7.2,-0.6l-0.8,9.4l7.4,0.7Z" style="fill:#fff;fill-rule:nonzero;"/><path d="M1161.74,101.043l4.7,-4.8c2.8,2.7 5.7,4.5 9.5,4.8c3,0.2 4.8,-0.8 5,-2.7l0,-0.1c0.2,-1.8 -0.9,-2.9 -6.3,-4.7c-6.5,-2.2 -10.6,-4.4 -10,-10.9l0,-0.1c0.5,-5.9 5.6,-9.5 12.3,-8.9c4.8,0.4 8.7,2.2 11.8,5.2l-4.2,5.1c-2.7,-2.3 -5.5,-3.7 -8.3,-3.9c-2.8,-0.2 -4.3,0.9 -4.5,2.5l0,0.1c-0.2,2.2 1.2,3 6.7,4.9c6.5,2.3 10.1,5 9.6,10.7l0,0.1c-0.5,6.5 -5.8,9.8 -12.9,9.2c-4.9,-0.5 -9.7,-2.7 -13.4,-6.5Z" style="fill:#fff;fill-rule:nonzero;"/><path d="M1196.34,75.643l7.2,0.6l-1.1,13l13.3,1.1l1.1,-13l7.2,0.6l-2.7,32.8l-7.2,-0.6l1.1,-13.2l-13.3,-1.1l-1.1,13.2l-7.2,-0.6l2.7,-32.8Z" style="fill:#fff;fill-rule:nonzero;"/><path d="M1232.24,78.643l7.2,0.6l-2.7,32.8l-7.2,-0.6l2.7,-32.8Z" style="fill:#fff;fill-rule:nonzero;"/><path d="M1247.64,79.943l13.4,1.1c7.8,0.6 12.2,5.7 11.6,12.4l0,0.1c-0.6,7.6 -6.9,11 -14.2,10.4l-5.5,-0.5l-0.8,9.8l-7.2,-0.6l2.7,-32.7Zm11.6,17.6c3.6,0.3 5.9,-1.7 6.1,-4.5l0,-0.1c0.3,-3.2 -1.8,-5.2 -5.4,-5.4l-5.6,-0.5l-0.8,10l5.7,0.5Z" style="fill:#fff;fill-rule:nonzero;"/></g><g opacity="0.29"><g><path d="M425.343,225.743c-0.1,1.4 -0.3,3.1 -0.3,4.8c-0.2,4.3 2.4,7.4 6.5,7.8c3.9,0.4 7,-2.3 7.6,-6.5c1.7,-13.1 -0.8,-25.4 -6.9,-37c-19.9,-37.8 -69.2,-45.9 -100.1,-16.3c-15.1,14.5 -21.4,32.5 -19.3,53.4c0.4,4.2 3.9,7 7.9,6.5c4.2,-0.5 6.6,-4 6.3,-8.2c-0.2,-4.1 -0.4,-8.3 0.2,-12.4c3.7,-28.3 31.1,-47.7 59,-41.9c22.6,4.7 40,26.6 39.1,49.8m33.1,33.3c-9.6,-2.2 -19,-4.3 -28.5,-6.4c-12.3,-2.8 -24.6,-5.5 -36.9,-8.2c-6.3,-1.4 -12.5,-3.1 -18.9,-3.8c-14.1,-1.4 -26.5,3.1 -37.1,12.5c-1.5,1.4 -3.1,2.1 -5.1,2.4c-12.2,1.3 -24.4,2.7 -36.6,4.1c-1.2,0.1 -1.8,-0 -2.3,-1.3c-2.7,-6.7 -7.8,-10.8 -14.7,-12.7c-8.9,-2.4 -17.8,-4.9 -26.8,-7.3c-1.7,-0.4 -2.1,-1.3 -2.3,-2.9c-0.8,-8.9 -0.6,-17.8 0.4,-26.7c0.5,-4.5 3,-7 7.6,-7.1c5.3,-0.1 10.5,-0 15.8,-0c4.7,-0 6.6,-1.7 8.3,-6.2c2.2,-5.9 4.6,-11.7 7.2,-17.4c2.4,-5.1 2.2,-7.4 -1.8,-11.4c-3.5,-3.5 -7,-7 -10.6,-10.6c-3.1,-3.1 -3.3,-6.6 -0.6,-10c5.8,-7.4 12.3,-14.2 19.6,-20.1c4.2,-3.4 7.4,-3.2 11.2,0.6c3.4,3.4 6.8,6.8 10.3,10.3c3.3,3.3 6.2,3.7 10.2,1.5c6.5,-3.7 13.4,-6.7 20.6,-8.9c4.3,-1.3 6,-3.6 6,-8.2l0,-15.4c0,-4.8 2.3,-7.4 7.1,-8c9.4,-1.2 18.7,-1.2 28.1,-0.3c4.5,0.4 7,3.1 7,7.6c0.1,5.2 0,10.4 0,15.6c0,4.4 1.8,6.8 6,7.9c7.5,2 14.6,4.9 21.4,8.6c3.2,1.8 6.4,1.4 9,-1.2c3.9,-3.8 7.7,-7.7 11.6,-11.6c3.4,-3.3 6.6,-3.5 10.3,-0.6c7.5,5.8 14.3,12.4 20.3,19.8c3,3.7 2.8,7.1 -0.5,10.5c-3.6,3.7 -7.2,7.3 -10.9,10.8c-3,2.9 -3.5,6.1 -1.5,9.7c3.9,6.8 6.9,13.9 9.2,21.4c1.1,3.8 3.5,5.5 7.4,5.5l15.4,-0c5.7,-0 8,2.1 8.7,7.7c1.1,8.9 1.1,17.8 0.3,26.7c-0.1,1.6 -1,1.9 -2.2,2.3c-8.2,2.2 -16.4,4.7 -24.7,6.7c-7.8,2.1 -13.8,6.1 -17,14.1" style="fill:#fff;fill-rule:nonzero;"/><path d="M425.343,225.743c-0.1,1.4 -0.3,3.1 -0.3,4.8c-0.2,4.3 2.4,7.4 6.5,7.8c3.9,0.4 7,-2.3 7.6,-6.5c1.7,-13.1 -0.8,-25.4 -6.9,-37c-19.9,-37.8 -69.2,-45.9 -100.1,-16.3c-15.1,14.5 -21.4,32.5 -19.3,53.4c0.4,4.2 3.9,7 7.9,6.5c4.2,-0.5 6.6,-4 6.3,-8.2c-0.2,-4.1 -0.4,-8.3 0.2,-12.4c3.7,-28.3 31.1,-47.7 59,-41.9c22.6,4.7 40,26.6 39.1,49.8Zm33.1,33.3c-9.6,-2.2 -19,-4.3 -28.5,-6.4c-12.3,-2.8 -24.6,-5.5 -36.9,-8.2c-6.3,-1.4 -12.5,-3.1 -18.9,-3.8c-14.1,-1.4 -26.5,3.1 -37.1,12.5c-1.5,1.4 -3.1,2.1 -5.1,2.4c-12.2,1.3 -24.4,2.7 -36.6,4.1c-1.2,0.1 -1.8,-0 -2.3,-1.3c-2.7,-6.7 -7.8,-10.8 -14.7,-12.7c-8.9,-2.4 -17.8,-4.9 -26.8,-7.3c-1.7,-0.4 -2.1,-1.3 -2.3,-2.9c-0.8,-8.9 -0.6,-17.8 0.4,-26.7c0.5,-4.5 3,-7 7.6,-7.1c5.3,-0.1 10.5,-0 15.8,-0c4.7,-0 6.6,-1.7 8.3,-6.2c2.2,-5.9 4.6,-11.7 7.2,-17.4c2.4,-5.1 2.2,-7.4 -1.8,-11.4c-3.5,-3.5 -7,-7 -10.6,-10.6c-3.1,-3.1 -3.3,-6.6 -0.6,-10c5.8,-7.4 12.3,-14.2 19.6,-20.1c4.2,-3.4 7.4,-3.2 11.2,0.6c3.4,3.4 6.8,6.8 10.3,10.3c3.3,3.3 6.2,3.7 10.2,1.5c6.5,-3.7 13.4,-6.7 20.6,-8.9c4.3,-1.3 6,-3.6 6,-8.2l0,-15.4c0,-4.8 2.3,-7.4 7.1,-8c9.4,-1.2 18.7,-1.2 28.1,-0.3c4.5,0.4 7,3.1 7,7.6c0.1,5.2 0,10.4 0,15.6c0,4.4 1.8,6.8 6,7.9c7.5,2 14.6,4.9 21.4,8.6c3.2,1.8 6.4,1.4 9,-1.2c3.9,-3.8 7.7,-7.7 11.6,-11.6c3.4,-3.3 6.6,-3.5 10.3,-0.6c7.5,5.8 14.3,12.4 20.3,19.8c3,3.7 2.8,7.1 -0.5,10.5c-3.6,3.7 -7.2,7.3 -10.9,10.8c-3,2.9 -3.5,6.1 -1.5,9.7c3.9,6.8 6.9,13.9 9.2,21.4c1.1,3.8 3.5,5.5 7.4,5.5l15.4,-0c5.7,-0 8,2.1 8.7,7.7c1.1,8.9 1.1,17.8 0.3,26.7c-0.1,1.6 -1,1.9 -2.2,2.3c-8.2,2.2 -16.4,4.7 -24.7,6.7c-7.8,2.1 -13.8,6.1 -17,14.1Z" style="fill:none;fill-rule:nonzero;stroke:#92c9ec;stroke-width:5.38px;"/><path d="M323.943,270.843c-2.3,4 -4.4,7.5 -6.5,11c-3.5,5.8 -6.9,11.7 -10.4,17.5c-2.5,4.2 -1.9,7.5 1.9,10.7c17.5,14.7 44.3,11.8 58.3,-6.3c1.7,-2.2 3.4,-4.3 5.2,-6.6c3,2.3 5.9,4.5 8.7,6.7c23.5,18.2 47,36.4 70.5,54.6c2.5,1.9 4.1,4.1 3.3,7.3c-0.8,3.4 -2.9,5.9 -6.4,6.9c-2.3,0.7 -4.2,-0.3 -6,-1.7c-14.5,-11.2 -28.9,-22.4 -43.4,-33.6c-3.3,-2.6 -7,-2.6 -9.8,-0.2c-3.3,2.9 -3.2,8.1 0.5,11c8.1,6.3 16.2,12.5 24.3,18.8c5.7,4.4 11.4,8.9 17.1,13.3c3.6,2.8 4,6.7 1.1,10.5c-2.9,3.8 -6.8,4.5 -10.4,1.7c-11.7,-9 -23.4,-18.1 -35.1,-27.2c-3.8,-2.9 -7.5,-5.9 -11.3,-8.8c-3.6,-2.7 -8,-2.2 -10.5,1c-2.5,3.3 -1.8,7.5 1.8,10.3c11.9,9.2 23.8,18.5 35.7,27.7c0.3,0.3 0.6,0.5 1,0.8c2.4,1.7 4,3.9 3.3,7c-0.7,3.4 -2.7,5.8 -6,7c-2.2,0.8 -4.3,0.1 -6.1,-1.3c-8.8,-6.8 -17.5,-13.6 -26.3,-20.3c-5.4,-4.2 -10.7,-8.4 -16.1,-12.5c-3.7,-2.8 -8,-2.5 -10.7,0.8c-2.6,3.2 -1.8,7.6 1.9,10.5c8.6,6.7 17.3,13.4 25.9,20.1c2.4,1.8 4.1,3.9 3.4,7.1c-0.7,3.3 -2.6,5.7 -5.8,6.9c-2.4,0.9 -4.5,0.1 -6.5,-1.4c-13.8,-10.7 -27.6,-21.4 -41.4,-32.1c-15,-11.6 -29.9,-23.2 -44.9,-34.7c-1.8,-1.3 -2.2,-2.5 -1.6,-4.7c6.7,-24 13.3,-48 19.8,-72.1c0.5,-2 1.4,-2.8 3.5,-3c8.2,-0.8 16.4,-1.8 24.7,-2.7c0.9,0.1 1.8,0.1 3.3,-0" style="fill:#fff;fill-rule:nonzero;"/><path d="M323.943,270.843c-2.3,4 -4.4,7.5 -6.5,11c-3.5,5.8 -6.9,11.7 -10.4,17.5c-2.5,4.2 -1.9,7.5 1.9,10.7c17.5,14.7 44.3,11.8 58.3,-6.3c1.7,-2.2 3.4,-4.3 5.2,-6.6c3,2.3 5.9,4.5 8.7,6.7c23.5,18.2 47,36.4 70.5,54.6c2.5,1.9 4.1,4.1 3.3,7.3c-0.8,3.4 -2.9,5.9 -6.4,6.9c-2.3,0.7 -4.2,-0.3 -6,-1.7c-14.5,-11.2 -28.9,-22.4 -43.4,-33.6c-3.3,-2.6 -7,-2.6 -9.8,-0.2c-3.3,2.9 -3.2,8.1 0.5,11c8.1,6.3 16.2,12.5 24.3,18.8c5.7,4.4 11.4,8.9 17.1,13.3c3.6,2.8 4,6.7 1.1,10.5c-2.9,3.8 -6.8,4.5 -10.4,1.7c-11.7,-9 -23.4,-18.1 -35.1,-27.2c-3.8,-2.9 -7.5,-5.9 -11.3,-8.8c-3.6,-2.7 -8,-2.2 -10.5,1c-2.5,3.3 -1.8,7.5 1.8,10.3c11.9,9.2 23.8,18.5 35.7,27.7c0.3,0.3 0.6,0.5 1,0.8c2.4,1.7 4,3.9 3.3,7c-0.7,3.4 -2.7,5.8 -6,7c-2.2,0.8 -4.3,0.1 -6.1,-1.3c-8.8,-6.8 -17.5,-13.6 -26.3,-20.3c-5.4,-4.2 -10.7,-8.4 -16.1,-12.5c-3.7,-2.8 -8,-2.5 -10.7,0.8c-2.6,3.2 -1.8,7.6 1.9,10.5c8.6,6.7 17.3,13.4 25.9,20.1c2.4,1.8 4.1,3.9 3.4,7.1c-0.7,3.3 -2.6,5.7 -5.8,6.9c-2.4,0.9 -4.5,0.1 -6.5,-1.4c-13.8,-10.7 -27.6,-21.4 -41.4,-32.1c-15,-11.6 -29.9,-23.2 -44.9,-34.7c-1.8,-1.3 -2.2,-2.5 -1.6,-4.7c6.7,-24 13.3,-48 19.8,-72.1c0.5,-2 1.4,-2.8 3.5,-3c8.2,-0.8 16.4,-1.8 24.7,-2.7c0.9,0.1 1.8,0.1 3.3,-0Z" style="fill:none;fill-rule:nonzero;stroke:#92c9ec;stroke-width:5.38px;"/><path d="M479.643,351.343c-4.4,2.9 -10.4,2.7 -15,-0.8c-6.2,-4.6 -12.2,-9.4 -18.3,-14.1c-23,-17.8 -46,-35.6 -69,-53.4c-4.3,-3.3 -8.5,-6.7 -12.8,-9.9c-4.6,-3.5 -10.7,-1.1 -11.6,4.5c-0.4,2.7 0.6,5 2.7,6.7c1.7,1.4 3.5,2.7 5.3,4.1c-5.7,9.1 -12.6,16.1 -24,16.8c-5.2,0.4 -10,-0.7 -14.8,-3.3c1.7,-2.9 3.2,-5.6 4.9,-8.4c4,-6.7 8.1,-13.3 11.9,-20.1c7,-12.2 17.5,-18.7 31.5,-19c3.7,-0.1 7.5,0.9 11.2,1.8c24.9,5.6 49.7,11.3 74.6,16.8c1.6,0.4 2.4,1 2.9,2.7c6.7,24.6 13.5,49.2 20.2,73.8c0,0.7 0.1,1.3 0.3,1.8" style="fill:#fff;fill-rule:nonzero;"/><path d="M479.643,351.343c-4.4,2.9 -10.4,2.7 -15,-0.8c-6.2,-4.6 -12.2,-9.4 -18.3,-14.1c-23,-17.8 -46,-35.6 -69,-53.4c-4.3,-3.3 -8.5,-6.7 -12.8,-9.9c-4.6,-3.5 -10.7,-1.1 -11.6,4.5c-0.4,2.7 0.6,5 2.7,6.7c1.7,1.4 3.5,2.7 5.3,4.1c-5.7,9.1 -12.6,16.1 -24,16.8c-5.2,0.4 -10,-0.7 -14.8,-3.3c1.7,-2.9 3.2,-5.6 4.9,-8.4c4,-6.7 8.1,-13.3 11.9,-20.1c7,-12.2 17.5,-18.7 31.5,-19c3.7,-0.1 7.5,0.9 11.2,1.8c24.9,5.6 49.7,11.3 74.6,16.8c1.6,0.4 2.4,1 2.9,2.7c6.7,24.6 13.5,49.2 20.2,73.8c0,0.7 0.1,1.3 0.3,1.8Z" style="fill:none;fill-rule:nonzero;stroke:#92c9ec;stroke-width:5.38px;"/><path d="M215.043,345.643c8.7,-31.9 17.4,-63.5 26.2,-95.3c4.6,1.3 9,2.5 13.4,3.7c6.7,1.8 13.4,3.6 20.1,5.5c4.6,1.3 6.5,4.8 5.3,9.4c-7.4,26.8 -14.7,53.6 -22.1,80.5c-1.5,5.3 -5,6.6 -8.7,5.6c-11.4,-3.1 -22.6,-6.3 -34.2,-9.4" style="fill:#fff;fill-rule:nonzero;"/><path d="M215.043,345.643c8.7,-31.9 17.4,-63.5 26.2,-95.3c4.6,1.3 9,2.5 13.4,3.7c6.7,1.8 13.4,3.6 20.1,5.5c4.6,1.3 6.5,4.8 5.3,9.4c-7.4,26.8 -14.7,53.6 -22.1,80.5c-1.5,5.3 -5,6.6 -8.7,5.6c-11.4,-3.1 -22.6,-6.3 -34.2,-9.4Z" style="fill:none;fill-rule:nonzero;stroke:#92c9ec;stroke-width:5.38px;"/><path d="M510.643,250.343c8.7,31.8 17.4,63.4 26.1,95.2c-3.7,1 -7.2,2.1 -10.8,3.1c-7.3,2 -14.6,4 -21.9,6c-5.6,1.5 -8.8,-0.3 -10.4,-6c-7.2,-26.3 -14.5,-52.7 -21.7,-79c-1.5,-5.6 0.3,-8.8 6,-10.4c10.4,-2.9 20.8,-5.7 31.2,-8.6c0.4,-0.1 0.8,-0.1 1.5,-0.3" style="fill:#fff;fill-rule:nonzero;"/><path d="M510.643,250.343c8.7,31.8 17.4,63.4 26.1,95.2c-3.7,1 -7.2,2.1 -10.8,3.1c-7.3,2 -14.6,4 -21.9,6c-5.6,1.5 -8.8,-0.3 -10.4,-6c-7.2,-26.3 -14.5,-52.7 -21.7,-79c-1.5,-5.6 0.3,-8.8 6,-10.4c10.4,-2.9 20.8,-5.7 31.2,-8.6c0.4,-0.1 0.8,-0.1 1.5,-0.3Z" style="fill:none;fill-rule:nonzero;stroke:#92c9ec;stroke-width:5.38px;"/></g></g></svg>