<?xml version="1.0" encoding="UTF-8" standalone="no"?><!DOCTYPE svg PUBLIC "-//W3C//DTD SVG 1.1//EN" "http://www.w3.org/Graphics/SVG/1.1/DTD/svg11.dtd"><svg width="100%" height="100%" viewBox="0 0 6221 7341" version="1.1" xmlns="http://www.w3.org/2000/svg" xmlns:xlink="http://www.w3.org/1999/xlink" xml:space="preserve" xmlns:serif="http://www.serif.com/" style="fill-rule:evenodd;clip-rule:evenodd;stroke-miterlimit:10;"><g><g><path d="M886.667,4.583c-764.167,-62.916 -1434.58,505 -1497.92,1269.17l-348.333,4215.83c-63.334,764.167 505,1434.58 1269.17,1497.5l4215.83,348.334c763.75,63.333 1434.58,-505 1497.5,-1269.17l348.333,-4215.83c63.333,-764.167 -505,-1434.58 -1268.75,-1497.5l-4215.83,-348.334Z" style="fill:#d3e4f5;fill-rule:nonzero;"/><path d="M6376.07,6127.36l-4.819,-4276.53c55.833,-677.5 -384.583,-1280 -1017.92,-1452.5c-25.833,1513.33 -562.916,6139.58 -6202.92,5758.75c197.5,453.334 631.25,786.25 1158.75,830l4215.83,348.334c764.167,63.333 1787.74,451.377 1851.07,-312.789" style="fill:#b2d1ed;fill-rule:nonzero;"/></g><g><path d="M1737.5,125.417l10,0.833l-10.417,127.083l80,6.667l-0.833,9.167l-90.417,-7.5l11.667,-136.25Z" style="fill:#fff;fill-rule:nonzero;"/><path d="M1858.33,135.417l97.084,7.916l-0.834,9.167l-87.083,-7.083l-4.583,53.75l78.333,6.666l-0.833,9.167l-77.917,-6.25l-4.583,55l87.916,7.083l-0.833,9.167l-98.333,-7.917l11.666,-136.666Z" style="fill:#fff;fill-rule:nonzero;"/><path d="M2041.67,150.417l9.583,0.833l84.583,126.667l10,-118.75l9.584,0.833l-11.25,136.667l-7.5,-0.834l-86.25,-129.166l-10,121.25l-9.584,-0.834l10.834,-136.666Z" style="fill:#fff;fill-rule:nonzero;"/><path d="M2184.17,231.667c2.916,-37.5 33.333,-68.75 74.583,-65.417c41.25,3.333 65.833,38.75 62.5,75.833l0,0.417c-2.917,37.083 -33.333,68.333 -74.583,65c-41.25,-3.333 -65.417,-38.75 -62.5,-75.833Zm127.083,10.416c2.917,-34.166 -19.583,-63.75 -53.333,-66.666c-33.75,-2.917 -60.417,22.5 -62.917,56.25l0,0.416c-2.917,33.75 19.583,63.334 53.333,66.25c33.334,2.5 60,-22.5 62.917,-56.25Z" style="fill:#fff;fill-rule:nonzero;"/><path d="M2342.5,292.917l7.083,-7.084c13.75,15 27.084,22.5 47.5,24.167c20.417,1.667 35.417,-8.75 36.667,-24.167l0,-0.416c1.25,-14.584 -5.833,-23.334 -36.25,-32.084c-32.083,-9.166 -44.583,-21.666 -42.917,-42.083l0,-0.417c1.667,-20.416 21.667,-34.166 46.667,-32.083c20,1.667 32.5,8.333 45.417,20.417l-7.084,7.5c-12.083,-12.084 -24.583,-17.5 -39.583,-18.75c-20,-1.667 -34.167,8.75 -35.417,22.916l0,0.417c-1.25,14.583 5.417,23.75 37.5,33.333c31.25,9.167 43.334,21.667 41.667,41.25l0,0.417c-1.667,22.083 -22.083,35.833 -48.333,33.333c-21.25,-2.083 -37.5,-10.833 -52.917,-26.666Z" style="fill:#fff;fill-rule:nonzero;"/><path d="M2520.42,199.583l-47.5,-3.75l0.833,-9.166l105.417,8.75l-0.834,9.166l-47.5,-3.75l-10.416,127.084l-10,-0.834l10,-127.5Z" style="fill:#fff;fill-rule:nonzero;"/><path d="M2609.58,197.5l57.5,4.583c16.667,1.25 30,7.917 37.5,16.667c5.834,7.083 9.167,16.667 8.334,26.25l-0,0.417c-2.084,22.916 -20,34.583 -43.334,35.833l40.417,62.083l-12.917,-1.25l-38.75,-60l-44.583,-3.75l-4.583,56.667l-10,-0.833l10.416,-136.667Zm50.417,75.417c22.917,2.083 40.833,-8.334 42.5,-27.917l0,-0.417c1.667,-18.333 -12.083,-31.25 -36.667,-32.916l-46.666,-3.75l-5,61.666l45.833,3.334Z" style="fill:#fff;fill-rule:nonzero;"/><path d="M2750.83,209.167l97.084,7.916l-0.834,9.167l-87.083,-7.083l-4.583,53.75l78.333,6.666l-0.833,9.167l-78.334,-6.667l-4.583,55l87.917,7.084l-0.834,9.166l-97.5,-7.5l11.25,-136.666Z" style="fill:#fff;fill-rule:nonzero;"/></g><g><path d="M2929.58,223.75l55.834,4.583c32.5,2.5 50.833,23.75 48.333,51.667l0,0.417c-2.5,31.666 -28.75,45.833 -59.167,43.333l-22.916,-2.083l-3.334,40.833l-30,-2.5l11.25,-136.25Zm48.334,73.333c15,1.25 24.583,-7.083 25.416,-18.75l0,-0.416c1.25,-13.334 -7.5,-21.667 -22.5,-22.5l-23.333,-2.084l-3.333,41.667l23.75,2.083Z" style="fill:#fff;fill-rule:nonzero;"/><path d="M3093.33,236.25l27.5,2.083l47.084,142.5l-31.25,-2.5l-10,-31.666l-57.917,-4.584l-15,29.584l-30.833,-2.5l70.416,-132.917Zm25,83.333l-14.583,-45.833l-21.667,42.917l36.25,2.916Z" style="fill:#fff;fill-rule:nonzero;"/><path d="M3200.42,246.25l62.5,5c17.5,1.25 30.416,7.5 38.75,17.083c7.083,8.334 10,19.167 9.166,32.084l0,0.416c-1.666,22.084 -15,35 -32.916,40l29.166,51.667l-35,-2.917l-25.833,-46.25l-23.75,-2.083l-3.75,43.75l-30,-2.5l11.667,-136.25Zm55,71.25c14.583,1.25 23.75,-5.833 24.583,-17.5l0,-0.417c1.25,-12.916 -7.5,-20.416 -22.083,-21.666l-30,-2.5l-3.334,39.166l30.834,2.917Z" style="fill:#fff;fill-rule:nonzero;"/><path d="M3371.25,288.333l-41.667,-3.333l2.084,-27.917l113.333,9.167l-2.083,27.917l-41.667,-3.334l-9.167,108.75l-30,-2.5l9.167,-108.75Z" style="fill:#fff;fill-rule:nonzero;"/><path d="M3467.92,268.333l27.916,2.5l57.084,89.584l7.083,-84.167l29.583,2.5l-11.25,136.667l-25.416,-2.084l-59.167,-92.5l-7.083,86.667l-29.584,-2.5l10.834,-136.667Z" style="fill:#fff;fill-rule:nonzero;"/><path d="M3622.08,281.25l102.917,8.333l-2.083,26.667l-72.917,-5.833l-2.083,27.916l64.583,5.417l-2.083,26.667l-64.584,-5.417l-2.5,28.75l74.167,6.25l-2.083,26.667l-104.167,-8.75l10.833,-136.667Z" style="fill:#fff;fill-rule:nonzero;"/><path d="M3752.92,292.083l62.5,5c17.5,1.25 30.416,7.5 38.75,17.084c7.083,8.333 10,19.166 9.166,32.083l0,0.417c-1.666,22.083 -15,35 -32.916,40l29.166,51.666l-35,-2.916l-25.833,-46.25l-23.75,-2.084l-3.75,43.75l-30,-2.5l11.667,-136.25Zm55,71.25c14.583,1.25 23.75,-5.833 24.583,-17.5l0,-0.416c1.25,-12.917 -7.5,-20.417 -22.083,-21.667l-30,-2.5l-3.334,39.167l30.834,2.916Z" style="fill:#fff;fill-rule:nonzero;"/><path d="M3875,419.583l19.583,-20c11.667,11.25 23.75,18.75 39.584,20c12.5,0.834 20,-3.333 20.833,-11.25l0,-0.416c0.833,-7.5 -3.75,-12.084 -26.25,-19.584c-27.083,-9.166 -44.167,-18.333 -41.667,-45.416l0,-0.417c2.084,-24.583 23.334,-39.583 51.25,-37.083c20,1.666 36.25,9.166 49.167,21.666l-17.5,21.25c-11.25,-9.583 -22.917,-15.416 -34.583,-16.25c-11.667,-0.833 -17.917,3.75 -18.75,10.417l-0,0.417c-0.834,9.166 5,12.5 27.916,20.416c27.084,9.584 42.084,20.834 40,44.584l0,0.416c-2.083,27.084 -24.166,40.834 -53.75,38.334c-20.416,-2.084 -40.416,-11.25 -55.833,-27.084Z" style="fill:#fff;fill-rule:nonzero;"/><path d="M4019.17,313.75l30,2.5l-4.584,54.167l55.417,4.583l4.583,-54.167l30,2.5l-11.25,136.667l-30,-2.5l4.584,-55l-55.417,-4.583l-4.583,55l-30,-2.5l11.25,-136.667Z" style="fill:#fff;fill-rule:nonzero;"/><path d="M4168.75,326.25l30,2.5l-11.25,136.667l-30,-2.5l11.25,-136.667Z" style="fill:#fff;fill-rule:nonzero;"/><path d="M4232.92,331.667l55.833,4.583c32.5,2.5 50.833,23.75 48.333,51.667l0,0.416c-2.5,31.667 -28.75,45.834 -59.166,43.334l-22.917,-2.084l-3.333,40.834l-30,-2.5l11.25,-136.25Zm48.333,73.333c15,1.25 24.583,-7.083 25.417,-18.75l-0,-0.417c1.25,-13.333 -7.5,-21.666 -22.5,-22.5l-23.334,-2.083l-3.333,41.667l23.75,2.083Z" style="fill:#fff;fill-rule:nonzero;"/></g><g opacity="0.29"><g><path d="M806.667,939.167c-0.417,5.833 -1.25,12.916 -1.25,20c-0.834,17.916 10,30.833 27.083,32.5c16.25,1.666 29.167,-9.584 31.667,-27.084c7.083,-54.583 -3.334,-105.833 -28.75,-154.166c-82.917,-157.5 -288.334,-191.25 -417.084,-67.917c-62.916,60.417 -89.166,135.417 -80.416,222.5c1.666,17.5 16.25,29.167 32.916,27.083c17.5,-2.083 27.5,-16.666 26.25,-34.166c-0.833,-17.084 -1.666,-34.584 0.834,-51.667c15.416,-117.917 129.583,-198.75 245.833,-174.583c94.167,19.583 166.667,110.833 162.917,207.5m137.916,138.75c-40,-9.167 -79.166,-17.917 -118.75,-26.667c-51.25,-11.667 -102.5,-22.917 -153.75,-34.167c-26.25,-5.833 -52.083,-12.916 -78.75,-15.833c-58.75,-5.833 -110.416,12.917 -154.583,52.083c-6.25,5.834 -12.917,8.75 -21.25,10c-50.833,5.417 -101.667,11.25 -152.5,17.084c-5,0.416 -7.5,-0 -9.583,-5.417c-11.25,-27.917 -32.5,-45 -61.25,-52.917c-37.084,-10 -74.167,-20.416 -111.667,-30.416c-7.083,-1.667 -8.75,-5.417 -9.583,-12.084c-3.334,-37.083 -2.5,-74.166 1.666,-111.25c2.084,-18.75 12.5,-29.166 31.667,-29.583c22.083,-0.417 43.75,-0 65.833,-0c19.584,-0 27.5,-7.083 34.584,-25.833c9.166,-24.584 19.166,-48.75 30,-72.5c10,-21.25 9.166,-30.834 -7.5,-47.5c-14.584,-14.584 -29.167,-29.167 -44.167,-44.167c-12.917,-12.917 -13.75,-27.5 -2.5,-41.667c24.167,-30.833 51.25,-59.166 81.667,-83.75c17.5,-14.166 30.833,-13.333 46.666,2.5c14.167,14.167 28.334,28.334 42.917,42.917c13.75,13.75 25.833,15.417 42.5,6.25c27.083,-15.417 55.833,-27.917 85.833,-37.083c17.917,-5.417 25,-15 25,-34.167l0,-64.167c0,-20 9.584,-30.833 29.584,-33.333c39.166,-5 77.916,-5 117.083,-1.25c18.75,1.667 29.167,12.917 29.167,31.667c0.416,21.666 -0,43.333 -0,65c-0,18.333 7.5,28.333 25,32.916c31.25,8.334 60.833,20.417 89.166,35.834c13.334,7.5 26.667,5.833 37.5,-5c16.25,-15.834 32.084,-32.084 48.334,-48.334c14.166,-13.75 27.5,-14.583 42.916,-2.5c31.25,24.167 59.584,51.667 84.584,82.5c12.5,15.417 11.666,29.584 -2.084,43.75c-15,15.417 -30,30.417 -45.416,45c-12.5,12.084 -14.584,25.417 -6.25,40.417c16.25,28.333 28.75,57.917 38.333,89.167c4.583,15.833 14.583,22.916 30.833,22.916l64.167,0c23.75,0 33.333,8.75 36.25,32.084c4.583,37.083 4.583,74.166 1.25,111.25c-0.417,6.666 -4.167,7.916 -9.167,9.583c-34.166,9.167 -68.333,19.583 -102.916,27.917c-32.5,8.75 -57.5,25.416 -70.834,58.75" style="fill:#fff;fill-rule:nonzero;"/><path d="M806.667,939.167c-0.417,5.833 -1.25,12.916 -1.25,20c-0.834,17.916 10,30.833 27.083,32.5c16.25,1.666 29.167,-9.584 31.667,-27.084c7.083,-54.583 -3.334,-105.833 -28.75,-154.166c-82.917,-157.5 -288.334,-191.25 -417.084,-67.917c-62.916,60.417 -89.166,135.417 -80.416,222.5c1.666,17.5 16.25,29.167 32.916,27.083c17.5,-2.083 27.5,-16.666 26.25,-34.166c-0.833,-17.084 -1.666,-34.584 0.834,-51.667c15.416,-117.917 129.583,-198.75 245.833,-174.583c94.167,19.583 166.667,110.833 162.917,207.5Zm137.916,138.75c-40,-9.167 -79.166,-17.917 -118.75,-26.667c-51.25,-11.667 -102.5,-22.917 -153.75,-34.167c-26.25,-5.833 -52.083,-12.916 -78.75,-15.833c-58.75,-5.833 -110.416,12.917 -154.583,52.083c-6.25,5.834 -12.917,8.75 -21.25,10c-50.833,5.417 -101.667,11.25 -152.5,17.084c-5,0.416 -7.5,-0 -9.583,-5.417c-11.25,-27.917 -32.5,-45 -61.25,-52.917c-37.084,-10 -74.167,-20.416 -111.667,-30.416c-7.083,-1.667 -8.75,-5.417 -9.583,-12.084c-3.334,-37.083 -2.5,-74.166 1.666,-111.25c2.084,-18.75 12.5,-29.166 31.667,-29.583c22.083,-0.417 43.75,-0 65.833,-0c19.584,-0 27.5,-7.083 34.584,-25.833c9.166,-24.584 19.166,-48.75 30,-72.5c10,-21.25 9.166,-30.834 -7.5,-47.5c-14.584,-14.584 -29.167,-29.167 -44.167,-44.167c-12.917,-12.917 -13.75,-27.5 -2.5,-41.667c24.167,-30.833 51.25,-59.166 81.667,-83.75c17.5,-14.166 30.833,-13.333 46.666,2.5c14.167,14.167 28.334,28.334 42.917,42.917c13.75,13.75 25.833,15.417 42.5,6.25c27.083,-15.417 55.833,-27.917 85.833,-37.083c17.917,-5.417 25,-15 25,-34.167l0,-64.167c0,-20 9.584,-30.833 29.584,-33.333c39.166,-5 77.916,-5 117.083,-1.25c18.75,1.667 29.167,12.917 29.167,31.667c0.416,21.666 -0,43.333 -0,65c-0,18.333 7.5,28.333 25,32.916c31.25,8.334 60.833,20.417 89.166,35.834c13.334,7.5 26.667,5.833 37.5,-5c16.25,-15.834 32.084,-32.084 48.334,-48.334c14.166,-13.75 27.5,-14.583 42.916,-2.5c31.25,24.167 59.584,51.667 84.584,82.5c12.5,15.417 11.666,29.584 -2.084,43.75c-15,15.417 -30,30.417 -45.416,45c-12.5,12.084 -14.584,25.417 -6.25,40.417c16.25,28.333 28.75,57.917 38.333,89.167c4.583,15.833 14.583,22.916 30.833,22.916l64.167,0c23.75,0 33.333,8.75 36.25,32.084c4.583,37.083 4.583,74.166 1.25,111.25c-0.417,6.666 -4.167,7.916 -9.167,9.583c-34.166,9.167 -68.333,19.583 -102.916,27.917c-32.5,8.75 -57.5,25.416 -70.834,58.75Z" style="fill:none;fill-rule:nonzero;stroke:#92c9ec;stroke-width:22.41px;"/><path d="M384.167,1127.08c-9.584,16.667 -18.334,31.25 -27.084,45.834c-14.583,24.166 -28.75,48.75 -43.333,72.916c-10.417,17.5 -7.917,31.25 7.917,44.584c72.916,61.25 184.583,49.166 242.916,-26.25c7.084,-9.167 14.167,-17.917 21.667,-27.5c12.5,9.583 24.583,18.75 36.25,27.916c97.917,75.834 195.833,151.667 293.75,227.5c10.417,7.917 17.083,17.084 13.75,30.417c-3.333,14.167 -12.083,24.583 -26.667,28.75c-9.583,2.917 -17.5,-1.25 -25,-7.083c-60.416,-46.667 -120.416,-93.334 -180.833,-140c-13.75,-10.834 -29.167,-10.834 -40.833,-0.834c-13.75,12.084 -13.334,33.75 2.083,45.834c33.75,26.25 67.5,52.083 101.25,78.333c23.75,18.333 47.5,37.083 71.25,55.417c15,11.666 16.667,27.916 4.583,43.75c-12.083,15.833 -28.333,18.75 -43.333,7.083c-48.75,-37.5 -97.5,-75.417 -146.25,-113.333c-15.833,-12.084 -31.25,-24.584 -47.083,-36.667c-15,-11.25 -33.334,-9.167 -43.75,4.167c-10.417,13.75 -7.5,31.25 7.5,42.916c49.583,38.334 99.166,77.084 148.75,115.417c1.25,1.25 2.5,2.083 4.166,3.333c10,7.084 16.667,16.25 13.75,29.167c-2.916,14.167 -11.25,24.167 -25,29.167c-9.166,3.333 -17.916,0.416 -25.416,-5.417c-36.667,-28.333 -72.917,-56.667 -109.584,-84.583c-22.5,-17.5 -44.583,-35 -67.083,-52.084c-15.417,-11.666 -33.333,-10.416 -44.583,3.334c-10.834,13.333 -7.5,31.666 7.916,43.75c35.834,27.916 72.084,55.833 107.917,83.75c10,7.5 17.083,16.25 14.167,29.583c-2.917,13.75 -10.834,23.75 -24.167,28.75c-10,3.75 -18.75,0.417 -27.083,-5.833c-57.5,-44.584 -115,-89.167 -172.5,-133.75c-62.5,-48.334 -124.584,-96.667 -187.084,-144.584c-7.5,-5.416 -9.166,-10.416 -6.666,-19.583c27.916,-100 55.416,-200 82.5,-300.417c2.083,-8.333 5.833,-11.666 14.583,-12.5c34.167,-3.333 68.333,-7.5 102.917,-11.25c3.75,0.417 7.5,0.417 13.75,0" style="fill:#fff;fill-rule:nonzero;"/><path d="M384.167,1127.08c-9.584,16.667 -18.334,31.25 -27.084,45.834c-14.583,24.166 -28.75,48.75 -43.333,72.916c-10.417,17.5 -7.917,31.25 7.917,44.584c72.916,61.25 184.583,49.166 242.916,-26.25c7.084,-9.167 14.167,-17.917 21.667,-27.5c12.5,9.583 24.583,18.75 36.25,27.916c97.917,75.834 195.833,151.667 293.75,227.5c10.417,7.917 17.083,17.084 13.75,30.417c-3.333,14.167 -12.083,24.583 -26.667,28.75c-9.583,2.917 -17.5,-1.25 -25,-7.083c-60.416,-46.667 -120.416,-93.334 -180.833,-140c-13.75,-10.834 -29.167,-10.834 -40.833,-0.834c-13.75,12.084 -13.334,33.75 2.083,45.834c33.75,26.25 67.5,52.083 101.25,78.333c23.75,18.333 47.5,37.083 71.25,55.417c15,11.666 16.667,27.916 4.583,43.75c-12.083,15.833 -28.333,18.75 -43.333,7.083c-48.75,-37.5 -97.5,-75.417 -146.25,-113.333c-15.833,-12.084 -31.25,-24.584 -47.083,-36.667c-15,-11.25 -33.334,-9.167 -43.75,4.167c-10.417,13.75 -7.5,31.25 7.5,42.916c49.583,38.334 99.166,77.084 148.75,115.417c1.25,1.25 2.5,2.083 4.166,3.333c10,7.084 16.667,16.25 13.75,29.167c-2.916,14.167 -11.25,24.167 -25,29.167c-9.166,3.333 -17.916,0.416 -25.416,-5.417c-36.667,-28.333 -72.917,-56.667 -109.584,-84.583c-22.5,-17.5 -44.583,-35 -67.083,-52.084c-15.417,-11.666 -33.333,-10.416 -44.583,3.334c-10.834,13.333 -7.5,31.666 7.916,43.75c35.834,27.916 72.084,55.833 107.917,83.75c10,7.5 17.083,16.25 14.167,29.583c-2.917,13.75 -10.834,23.75 -24.167,28.75c-10,3.75 -18.75,0.417 -27.083,-5.833c-57.5,-44.584 -115,-89.167 -172.5,-133.75c-62.5,-48.334 -124.584,-96.667 -187.084,-144.584c-7.5,-5.416 -9.166,-10.416 -6.666,-19.583c27.916,-100 55.416,-200 82.5,-300.417c2.083,-8.333 5.833,-11.666 14.583,-12.5c34.167,-3.333 68.333,-7.5 102.917,-11.25c3.75,0.417 7.5,0.417 13.75,0Z" style="fill:none;fill-rule:nonzero;stroke:#92c9ec;stroke-width:22.41px;"/><path d="M1032.92,1462.5c-18.334,12.083 -43.334,11.25 -62.5,-3.333c-25.834,-19.167 -50.834,-39.167 -76.25,-58.75c-95.834,-74.167 -191.667,-148.334 -287.5,-222.5c-17.917,-13.75 -35.417,-27.917 -53.334,-41.25c-19.166,-14.584 -44.583,-4.584 -48.333,18.75c-1.667,11.25 2.5,20.833 11.25,27.916c7.083,5.834 14.583,11.25 22.083,17.084c-23.75,37.916 -52.5,67.083 -100,70c-21.666,1.666 -41.666,-2.917 -61.666,-13.75c7.083,-12.084 13.333,-23.334 20.416,-35c16.667,-27.917 33.75,-55.417 49.584,-83.75c29.166,-50.834 72.916,-77.917 131.25,-79.167c15.416,-0.417 31.25,3.75 46.666,7.5c103.75,23.333 207.084,47.083 310.834,70c6.666,1.667 10,4.167 12.083,11.25c27.917,102.5 56.25,205 84.167,307.5c-0,2.917 0.416,5.417 1.25,7.5" style="fill:#fff;fill-rule:nonzero;"/><path d="M1032.92,1462.5c-18.334,12.083 -43.334,11.25 -62.5,-3.333c-25.834,-19.167 -50.834,-39.167 -76.25,-58.75c-95.834,-74.167 -191.667,-148.334 -287.5,-222.5c-17.917,-13.75 -35.417,-27.917 -53.334,-41.25c-19.166,-14.584 -44.583,-4.584 -48.333,18.75c-1.667,11.25 2.5,20.833 11.25,27.916c7.083,5.834 14.583,11.25 22.083,17.084c-23.75,37.916 -52.5,67.083 -100,70c-21.666,1.666 -41.666,-2.917 -61.666,-13.75c7.083,-12.084 13.333,-23.334 20.416,-35c16.667,-27.917 33.75,-55.417 49.584,-83.75c29.166,-50.834 72.916,-77.917 131.25,-79.167c15.416,-0.417 31.25,3.75 46.666,7.5c103.75,23.333 207.084,47.083 310.834,70c6.666,1.667 10,4.167 12.083,11.25c27.917,102.5 56.25,205 84.167,307.5c-0,2.917 0.416,5.417 1.25,7.5Z" style="fill:none;fill-rule:nonzero;stroke:#92c9ec;stroke-width:22.41px;"/><path d="M-69.583,1438.75c36.25,-132.917 72.5,-264.583 109.166,-397.083c19.167,5.416 37.5,10.416 55.834,15.416c27.916,7.5 55.833,15 83.75,22.917c19.166,5.417 27.083,20 22.083,39.167c-30.833,111.666 -61.25,223.333 -92.083,335.416c-6.25,22.084 -20.834,27.5 -36.25,23.334c-47.5,-12.917 -94.167,-26.25 -142.5,-39.167" style="fill:#fff;fill-rule:nonzero;"/><path d="M-69.583,1438.75c36.25,-132.917 72.5,-264.583 109.166,-397.083c19.167,5.416 37.5,10.416 55.834,15.416c27.916,7.5 55.833,15 83.75,22.917c19.166,5.417 27.083,20 22.083,39.167c-30.833,111.666 -61.25,223.333 -92.083,335.416c-6.25,22.084 -20.834,27.5 -36.25,23.334c-47.5,-12.917 -94.167,-26.25 -142.5,-39.167Z" style="fill:none;fill-rule:nonzero;stroke:#92c9ec;stroke-width:22.41px;"/><path d="M1162.08,1041.67c36.25,132.5 72.5,264.166 108.75,396.666c-15.416,4.167 -30,8.75 -45,12.917c-30.416,8.333 -60.833,16.667 -91.25,25c-23.333,6.25 -36.666,-1.25 -43.333,-25c-30,-109.583 -60.417,-219.583 -90.417,-329.167c-6.25,-23.333 1.25,-36.666 25,-43.333c43.334,-12.083 86.667,-23.75 130,-35.833c1.667,-0.417 3.334,-0.417 6.25,-1.25" style="fill:#fff;fill-rule:nonzero;"/><path d="M1162.08,1041.67c36.25,132.5 72.5,264.166 108.75,396.666c-15.416,4.167 -30,8.75 -45,12.917c-30.416,8.333 -60.833,16.667 -91.25,25c-23.333,6.25 -36.666,-1.25 -43.333,-25c-30,-109.583 -60.417,-219.583 -90.417,-329.167c-6.25,-23.333 1.25,-36.666 25,-43.333c43.334,-12.083 86.667,-23.75 130,-35.833c1.667,-0.417 3.334,-0.417 6.25,-1.25Z" style="fill:none;fill-rule:nonzero;stroke:#92c9ec;stroke-width:22.41px;"/></g></g></g></svg>