<?xml version="1.0" encoding="UTF-8" standalone="no"?><!DOCTYPE svg PUBLIC "-//W3C//DTD SVG 1.1//EN" "http://www.w3.org/Graphics/SVG/1.1/DTD/svg11.dtd"><svg width="100%" height="100%" viewBox="0 0 25921 30588" version="1.1" xmlns="http://www.w3.org/2000/svg" xmlns:xlink="http://www.w3.org/1999/xlink" xml:space="preserve" xmlns:serif="http://www.serif.com/" style="fill-rule:evenodd;clip-rule:evenodd;stroke-miterlimit:10;"><g><g><path d="M6699.48,16.489c-2765.7,-227.708 -5192.09,1827.72 -5421.34,4593.43l-1260.7,15258.1c-229.221,2765.7 1827.72,5192.09 4593.43,5419.82l15258.1,1260.7c2764.2,229.218 5192.09,-1827.72 5419.82,-4593.43l1260.7,-15258.1c229.217,-2765.71 -1827.72,-5192.09 -4591.91,-5419.82l-15258.1,-1260.7Z" style="fill:#d3e4f5;fill-rule:nonzero;"/><path d="M26567,22176.3l-17.441,-15477.8c202.073,-2452.04 -1391.9,-4632.63 -3684.1,-5256.95c-93.496,5477.11 -2037.33,22220.6 -22449.9,20842.3c714.8,1640.73 2284.65,2845.63 4193.8,3003.97l15258.1,1260.71c2765.7,229.217 6470.26,1633.64 6699.47,-1132.06" style="fill:#b2d1ed;fill-rule:nonzero;"/></g><g><path d="M9778.85,453.817l36.193,3.015l-37.702,459.944l289.539,24.129l-3.015,33.178l-327.241,-27.144l42.226,-493.122Z" style="fill:#fff;fill-rule:nonzero;"/><path d="M10216.2,490.009l351.371,28.65l-3.019,33.178l-315.174,-25.635l-16.587,194.534l283.506,24.126l-3.015,33.177l-282,-22.62l-16.587,199.058l318.189,25.636l-3.015,33.177l-355.891,-28.653l42.222,-494.628Z" style="fill:#fff;fill-rule:nonzero;"/><path d="M10879.7,544.298l34.683,3.015l306.127,458.438l36.192,-429.785l34.687,3.015l-40.717,494.631l-27.144,-3.018l-312.16,-467.483l-36.192,438.833l-34.687,-3.019l39.211,-494.627Z" style="fill:#fff;fill-rule:nonzero;"/><path d="M11395.5,838.361c10.554,-135.721 120.64,-248.823 269.934,-236.76c149.294,12.063 238.266,140.246 226.203,274.458l-0,1.51c-10.558,134.212 -120.64,247.313 -269.934,235.25c-149.294,-12.063 -236.76,-140.245 -226.203,-274.458Zm459.944,37.698c10.558,-123.655 -70.875,-230.726 -193.025,-241.28c-122.149,-10.557 -218.663,81.433 -227.712,203.582l0,1.506c-10.557,122.149 70.876,229.221 193.025,239.775c120.644,9.048 217.155,-81.433 227.712,-203.583Z" style="fill:#fff;fill-rule:nonzero;"/><path d="M11968.5,1060.04l25.635,-25.639c49.764,54.289 98.023,81.433 171.914,87.466c73.894,6.034 128.183,-31.668 132.707,-87.466l-0,-1.505c4.524,-52.783 -21.111,-84.452 -131.198,-116.12c-116.116,-33.174 -161.357,-78.415 -155.327,-152.309l0,-1.509c6.033,-73.89 78.418,-123.655 168.899,-116.116c72.385,6.033 117.626,30.159 164.375,73.894l-25.638,27.144c-43.732,-43.735 -88.972,-63.337 -143.261,-67.861c-72.385,-6.033 -123.658,31.669 -128.182,82.939l-0,1.509c-4.525,52.78 19.605,85.957 135.721,120.64c113.101,33.178 156.836,78.419 150.803,149.294l0,1.509c-6.033,79.924 -79.924,129.689 -174.929,120.641c-76.909,-7.539 -135.721,-39.208 -191.519,-96.511Z" style="fill:#fff;fill-rule:nonzero;"/><path d="M12612.4,722.242l-171.914,-13.573l3.015,-33.174l381.53,31.669l-3.019,33.174l-171.914,-13.572l-37.698,459.947l-36.192,-3.018l36.192,-461.453Z" style="fill:#fff;fill-rule:nonzero;"/><path d="M12935.1,714.703l208.106,16.587c60.322,4.524 108.578,28.653 135.722,60.322c21.115,25.635 33.178,60.321 30.163,95.005l-0,1.509c-7.543,82.938 -72.385,125.164 -156.836,129.688l146.279,224.694l-46.75,-4.524l-140.246,-217.155l-161.357,-13.572l-16.587,205.091l-36.192,-3.014l37.698,-494.631Zm182.471,272.952c82.943,7.539 147.785,-30.163 153.818,-101.038l0,-1.51c6.033,-66.351 -43.731,-113.101 -132.707,-119.131l-168.895,-13.572l-18.096,223.184l165.88,12.067Z" style="fill:#fff;fill-rule:nonzero;"/><path d="M13446.3,756.928l351.371,28.65l-3.019,33.178l-315.174,-25.635l-16.587,194.534l283.506,24.126l-3.015,33.178l-283.51,-24.13l-16.587,199.058l318.193,25.639l-3.018,33.174l-352.876,-27.144l40.716,-494.628Z" style="fill:#fff;fill-rule:nonzero;"/></g><g><path d="M14093.3,809.708l202.076,16.587c117.626,9.048 183.977,85.957 174.929,186.995l0,1.509c-9.048,114.607 -104.053,165.881 -214.139,156.833l-82.939,-7.539l-12.067,147.785l-108.577,-9.048l40.717,-493.122Zm174.932,265.41c54.289,4.524 88.972,-25.635 91.987,-67.861l-0,-1.506c4.524,-48.259 -27.145,-78.418 -81.433,-81.433l-84.448,-7.542l-12.063,150.803l85.957,7.539Z" style="fill:#fff;fill-rule:nonzero;"/><path d="M14685.9,854.948l99.529,7.539l170.408,515.742l-113.101,-9.048l-36.193,-114.607l-209.615,-16.59l-54.289,107.071l-111.592,-9.048l254.853,-481.059Zm90.481,301.603l-52.78,-165.881l-78.418,155.327l131.198,10.554Z" style="fill:#fff;fill-rule:nonzero;"/><path d="M15073.5,891.141l226.203,18.096c63.337,4.524 110.083,27.144 140.246,61.827c25.635,30.163 36.192,69.37 33.174,116.12l-0,1.506c-6.03,79.927 -54.289,126.673 -119.131,144.77l105.558,186.995l-126.673,-10.557l-93.496,-167.39l-85.957,-7.539l-13.572,158.342l-108.577,-9.049l42.225,-493.121Zm199.059,257.871c52.779,4.524 85.957,-21.111 88.971,-63.337l0,-1.509c4.524,-46.746 -27.144,-73.891 -79.923,-78.415l-108.578,-9.048l-12.066,141.751l111.596,10.558Z" style="fill:#fff;fill-rule:nonzero;"/><path d="M15691.8,1043.45l-150.803,-12.063l7.543,-101.038l410.18,33.178l-7.539,101.038l-150.803,-12.067l-33.178,393.593l-108.577,-9.048l33.177,-393.593Z" style="fill:#fff;fill-rule:nonzero;"/><path d="M16041.7,971.064l101.034,9.049l206.601,324.226l25.635,-304.621l107.068,9.048l-40.716,494.631l-91.987,-7.542l-214.14,-334.78l-25.635,313.669l-107.071,-9.049l39.211,-494.631Z" style="fill:#fff;fill-rule:nonzero;"/><path d="M16599.6,1017.81l372.482,30.159l-7.539,96.515l-263.905,-21.111l-7.539,101.034l233.742,19.606l-7.539,96.514l-233.745,-19.605l-9.048,104.053l268.428,22.62l-7.539,96.515l-377.005,-31.669l39.207,-494.631Z" style="fill:#fff;fill-rule:nonzero;"/><path d="M17073.1,1057.02l226.202,18.097c63.337,4.524 110.083,27.144 140.246,61.831c25.635,30.159 36.192,69.366 33.174,116.116l-0,1.509c-6.03,79.924 -54.289,126.674 -119.131,144.77l105.559,186.992l-126.674,-10.554l-93.496,-167.39l-85.957,-7.543l-13.572,158.342l-108.577,-9.048l42.226,-493.122Zm199.058,257.871c52.779,4.525 85.957,-21.111 88.972,-63.336l-0,-1.506c4.524,-46.75 -27.144,-73.894 -79.924,-78.418l-108.577,-9.048l-12.067,141.755l111.596,10.553Z" style="fill:#fff;fill-rule:nonzero;"/><path d="M17515,1518.48l70.875,-72.385c42.226,40.716 85.957,67.861 143.264,72.385c45.241,3.018 72.385,-12.063 75.4,-40.717l0,-1.505c3.015,-27.145 -13.572,-43.735 -95.005,-70.879c-98.02,-33.174 -159.851,-66.352 -150.803,-164.372l0,-1.509c7.543,-88.972 84.451,-143.261 185.486,-134.213c72.385,6.03 131.198,33.174 177.948,78.415l-63.337,76.909c-40.717,-34.683 -82.942,-55.794 -125.164,-58.813c-42.226,-3.015 -64.846,13.572 -67.861,37.702l-0,1.509c-3.019,33.174 18.096,45.241 101.035,73.89c98.023,34.687 152.312,75.404 144.769,161.361l0,1.505c-7.539,98.024 -87.462,147.789 -194.534,138.74c-73.891,-7.542 -146.275,-40.716 -202.073,-98.023Z" style="fill:#fff;fill-rule:nonzero;"/><path d="M18036.8,1135.44l108.577,9.048l-16.59,196.043l200.567,16.587l16.587,-196.043l108.577,9.048l-40.716,494.631l-108.577,-9.048l16.59,-199.059l-200.567,-16.587l-16.587,199.059l-108.578,-9.048l40.717,-494.631Z" style="fill:#fff;fill-rule:nonzero;"/><path d="M18578.1,1180.68l108.577,9.048l-40.716,494.631l-108.577,-9.048l40.716,-494.631Z" style="fill:#fff;fill-rule:nonzero;"/><path d="M18810.4,1200.29l202.073,16.587c117.626,9.048 183.977,85.957 174.929,186.995l0,1.506c-9.048,114.61 -104.053,165.884 -214.136,156.836l-82.942,-7.543l-12.063,147.788l-108.577,-9.048l40.716,-493.121Zm174.929,265.409c54.288,4.524 88.972,-25.635 91.99,-67.86l0,-1.51c4.524,-48.255 -27.144,-78.414 -81.433,-81.433l-84.451,-7.538l-12.063,150.803l85.957,7.538Z" style="fill:#fff;fill-rule:nonzero;"/></g><g opacity="0.29"><g><path d="M6409.94,3398.97c-1.509,21.111 -4.524,46.746 -4.524,72.385c-3.019,64.842 36.192,111.592 98.02,117.626c58.812,6.029 105.562,-34.687 114.61,-98.024c25.635,-197.549 -12.066,-383.035 -104.053,-557.964c-300.097,-570.031 -1043.55,-692.18 -1509.53,-245.808c-227.708,218.664 -322.713,490.107 -291.045,805.281c6.03,63.337 58.813,105.563 119.131,98.02c63.337,-7.539 99.529,-60.318 95.005,-123.655c-3.015,-61.831 -6.03,-125.168 3.019,-186.995c55.794,-426.771 468.992,-719.325 889.729,-631.859c340.813,70.876 603.208,401.132 589.636,750.993m499.151,502.17c-144.769,-33.177 -286.521,-64.846 -429.785,-96.514c-185.486,-42.226 -370.972,-82.942 -556.458,-123.659c-95.005,-21.111 -188.501,-46.746 -285.016,-57.303c-212.63,-21.111 -399.622,46.749 -559.473,188.501c-22.62,21.114 -46.75,31.668 -76.909,36.192c-183.977,19.606 -367.957,40.717 -551.934,61.831c-18.096,1.506 -27.145,0 -34.683,-19.605c-40.717,-101.039 -117.626,-162.866 -221.679,-191.52c-134.216,-36.192 -268.428,-73.89 -404.15,-110.082c-25.635,-6.034 -31.668,-19.606 -34.683,-43.735c-12.067,-134.213 -9.048,-268.425 6.029,-402.641c7.543,-67.861 45.241,-105.559 114.611,-107.068c79.924,-1.509 158.342,-0 238.266,-0c70.879,-0 99.529,-25.635 125.167,-93.496c33.174,-88.976 69.367,-176.438 108.578,-262.395c36.192,-76.909 33.174,-111.596 -27.145,-171.914c-52.783,-52.783 -105.562,-105.563 -159.851,-159.851c-46.749,-46.75 -49.764,-99.529 -9.048,-150.803c87.466,-111.592 185.486,-214.136 295.573,-303.112c63.337,-51.27 111.592,-48.255 168.895,9.048c51.274,51.274 102.548,102.548 155.327,155.327c49.765,49.765 93.496,55.798 153.818,22.621c98.02,-55.798 202.073,-101.039 310.651,-134.213c64.846,-19.605 90.481,-54.288 90.481,-123.658l-0,-232.236c-0,-72.385 34.687,-111.592 107.071,-120.641c141.752,-18.096 281.997,-18.096 423.752,-4.524c67.861,6.034 105.563,46.75 105.563,114.611c1.505,78.414 -0,156.833 -0,235.251c-0,66.351 27.144,102.544 90.481,119.131c113.101,30.162 220.169,73.894 322.713,129.692c48.259,27.144 96.514,21.111 135.722,-18.097c58.812,-57.307 116.119,-116.119 174.932,-174.932c51.27,-49.765 99.529,-52.779 155.324,-9.048c113.101,87.466 215.648,186.995 306.13,298.587c45.24,55.798 42.222,107.072 -7.543,158.342c-54.289,55.798 -108.577,110.087 -164.371,162.866c-45.241,43.735 -52.784,91.99 -22.621,146.279c58.813,102.544 104.053,209.616 138.737,322.717c16.587,57.304 52.779,82.939 111.592,82.939l232.236,-0c85.957,-0 120.64,31.668 131.197,116.119c16.587,134.213 16.587,268.425 4.524,402.641c-1.509,24.126 -15.081,28.65 -33.177,34.683c-123.655,33.178 -247.314,70.876 -372.478,101.039c-117.626,31.668 -208.107,91.986 -256.366,212.63" style="fill:#fff;fill-rule:nonzero;"/><path d="M6409.94,3398.97c-1.509,21.111 -4.524,46.746 -4.524,72.385c-3.019,64.842 36.192,111.592 98.02,117.626c58.812,6.029 105.562,-34.687 114.61,-98.024c25.635,-197.549 -12.066,-383.035 -104.053,-557.964c-300.097,-570.031 -1043.55,-692.18 -1509.53,-245.808c-227.708,218.664 -322.713,490.107 -291.045,805.281c6.03,63.337 58.813,105.563 119.131,98.02c63.337,-7.539 99.529,-60.318 95.005,-123.655c-3.015,-61.831 -6.03,-125.168 3.019,-186.995c55.794,-426.771 468.992,-719.325 889.729,-631.859c340.813,70.876 603.208,401.132 589.636,750.993Zm499.151,502.17c-144.769,-33.177 -286.521,-64.846 -429.785,-96.514c-185.486,-42.226 -370.972,-82.942 -556.458,-123.659c-95.005,-21.111 -188.501,-46.746 -285.016,-57.303c-212.63,-21.111 -399.622,46.749 -559.473,188.501c-22.62,21.114 -46.75,31.668 -76.909,36.192c-183.977,19.606 -367.957,40.717 -551.934,61.831c-18.096,1.506 -27.145,0 -34.683,-19.605c-40.717,-101.039 -117.626,-162.866 -221.679,-191.52c-134.216,-36.192 -268.428,-73.89 -404.15,-110.082c-25.635,-6.034 -31.668,-19.606 -34.683,-43.735c-12.067,-134.213 -9.048,-268.425 6.029,-402.641c7.543,-67.861 45.241,-105.559 114.611,-107.068c79.924,-1.509 158.342,-0 238.266,-0c70.879,-0 99.529,-25.635 125.167,-93.496c33.174,-88.976 69.367,-176.438 108.578,-262.395c36.192,-76.909 33.174,-111.596 -27.145,-171.914c-52.783,-52.783 -105.562,-105.563 -159.851,-159.851c-46.749,-46.75 -49.764,-99.529 -9.048,-150.803c87.466,-111.592 185.486,-214.136 295.573,-303.112c63.337,-51.27 111.592,-48.255 168.895,9.048c51.274,51.274 102.548,102.548 155.327,155.327c49.765,49.765 93.496,55.798 153.818,22.621c98.02,-55.798 202.073,-101.039 310.651,-134.213c64.846,-19.605 90.481,-54.288 90.481,-123.658l-0,-232.236c-0,-72.385 34.687,-111.592 107.071,-120.641c141.752,-18.096 281.997,-18.096 423.752,-4.524c67.861,6.034 105.563,46.75 105.563,114.611c1.505,78.414 -0,156.833 -0,235.251c-0,66.351 27.144,102.544 90.481,119.131c113.101,30.162 220.169,73.894 322.713,129.692c48.259,27.144 96.514,21.111 135.722,-18.097c58.812,-57.307 116.119,-116.119 174.932,-174.932c51.27,-49.765 99.529,-52.779 155.324,-9.048c113.101,87.466 215.648,186.995 306.13,298.587c45.24,55.798 42.222,107.072 -7.543,158.342c-54.289,55.798 -108.577,110.087 -164.371,162.866c-45.241,43.735 -52.784,91.99 -22.621,146.279c58.813,102.544 104.053,209.616 138.737,322.717c16.587,57.304 52.779,82.939 111.592,82.939l232.236,-0c85.957,-0 120.64,31.668 131.197,116.119c16.587,134.213 16.587,268.425 4.524,402.641c-1.509,24.126 -15.081,28.65 -33.177,34.683c-123.655,33.178 -247.314,70.876 -372.478,101.039c-117.626,31.668 -208.107,91.986 -256.366,212.63Z" style="fill:none;fill-rule:nonzero;stroke:#92c9ec;stroke-width:81.11px;"/><path d="M4880.81,4079.08c-34.687,60.322 -66.355,113.101 -98.024,165.884c-52.779,87.463 -104.053,176.438 -156.832,263.901c-37.702,63.337 -28.654,113.101 28.653,161.36c263.901,221.679 668.051,177.944 879.172,-95.005c25.639,-33.177 51.274,-64.846 78.418,-99.529c45.241,34.683 88.972,67.861 131.198,101.035c354.385,274.461 708.767,548.919 1063.15,823.377c37.702,28.654 61.828,61.832 49.765,110.087c-12.063,51.274 -43.731,88.972 -96.514,104.053c-34.684,10.558 -63.337,-4.524 -90.481,-25.635c-218.661,-168.899 -435.815,-337.798 -654.479,-506.694c-49.765,-39.211 -105.562,-39.211 -147.784,-3.018c-49.765,43.735 -48.259,122.149 7.538,165.884c122.15,95.005 244.299,188.501 366.449,283.506c85.957,66.352 171.914,134.213 257.871,200.568c54.288,42.222 60.322,101.034 16.587,158.342c-43.732,57.303 -102.544,67.86 -156.833,25.635c-176.438,-135.722 -352.876,-272.953 -529.314,-410.18c-57.304,-43.735 -113.101,-88.975 -170.405,-132.707c-54.289,-40.716 -120.644,-33.177 -158.342,15.082c-37.701,49.764 -27.144,113.101 27.145,155.323c179.452,138.74 358.905,278.986 538.362,417.722c4.524,4.524 9.048,7.539 15.078,12.063c36.192,25.639 60.322,58.813 49.764,105.563c-10.553,51.273 -40.716,87.466 -90.481,105.562c-33.174,12.063 -64.842,1.506 -91.987,-19.605c-132.706,-102.544 -263.904,-205.092 -396.611,-306.127c-81.433,-63.337 -161.356,-126.673 -242.789,-188.504c-55.798,-42.222 -120.64,-37.698 -161.357,12.066c-39.211,48.255 -27.144,114.607 28.65,158.342c129.692,101.035 260.89,202.073 390.578,303.112c36.192,27.144 61.827,58.812 51.274,107.068c-10.558,49.764 -39.211,85.957 -87.467,104.053c-36.192,13.572 -67.86,1.509 -98.02,-21.111c-208.106,-161.361 -416.212,-322.717 -624.319,-484.074c-226.203,-174.932 -450.9,-349.861 -677.102,-523.284c-27.145,-19.602 -33.174,-37.698 -24.126,-70.876c101.035,-361.924 200.564,-723.849 298.587,-1087.28c7.539,-30.159 21.111,-42.222 52.78,-45.241c123.658,-12.062 247.314,-27.144 372.481,-40.716c13.573,1.509 27.145,1.509 49.765,-0" style="fill:#fff;fill-rule:nonzero;"/><path d="M4880.81,4079.08c-34.687,60.322 -66.355,113.101 -98.024,165.884c-52.779,87.463 -104.053,176.438 -156.832,263.901c-37.702,63.337 -28.654,113.101 28.653,161.36c263.901,221.679 668.051,177.944 879.172,-95.005c25.639,-33.177 51.274,-64.846 78.418,-99.529c45.241,34.683 88.972,67.861 131.198,101.035c354.385,274.461 708.767,548.919 1063.15,823.377c37.702,28.654 61.828,61.832 49.765,110.087c-12.063,51.274 -43.731,88.972 -96.514,104.053c-34.684,10.558 -63.337,-4.524 -90.481,-25.635c-218.661,-168.899 -435.815,-337.798 -654.479,-506.694c-49.765,-39.211 -105.562,-39.211 -147.784,-3.018c-49.765,43.735 -48.259,122.149 7.538,165.884c122.15,95.005 244.299,188.501 366.449,283.506c85.957,66.352 171.914,134.213 257.871,200.568c54.288,42.222 60.322,101.034 16.587,158.342c-43.732,57.303 -102.544,67.86 -156.833,25.635c-176.438,-135.722 -352.876,-272.953 -529.314,-410.18c-57.304,-43.735 -113.101,-88.975 -170.405,-132.707c-54.289,-40.716 -120.644,-33.177 -158.342,15.082c-37.701,49.764 -27.144,113.101 27.145,155.323c179.452,138.74 358.905,278.986 538.362,417.722c4.524,4.524 9.048,7.539 15.078,12.063c36.192,25.639 60.322,58.813 49.764,105.563c-10.553,51.273 -40.716,87.466 -90.481,105.562c-33.174,12.063 -64.842,1.506 -91.987,-19.605c-132.706,-102.544 -263.904,-205.092 -396.611,-306.127c-81.433,-63.337 -161.356,-126.673 -242.789,-188.504c-55.798,-42.222 -120.64,-37.698 -161.357,12.066c-39.211,48.255 -27.144,114.607 28.65,158.342c129.692,101.035 260.89,202.073 390.578,303.112c36.192,27.144 61.827,58.812 51.274,107.068c-10.558,49.764 -39.211,85.957 -87.467,104.053c-36.192,13.572 -67.86,1.509 -98.02,-21.111c-208.106,-161.361 -416.212,-322.717 -624.319,-484.074c-226.203,-174.932 -450.9,-349.861 -677.102,-523.284c-27.145,-19.602 -33.174,-37.698 -24.126,-70.876c101.035,-361.924 200.564,-723.849 298.587,-1087.28c7.539,-30.159 21.111,-42.222 52.78,-45.241c123.658,-12.062 247.314,-27.144 372.481,-40.716c13.573,1.509 27.145,1.509 49.765,-0Z" style="fill:none;fill-rule:nonzero;stroke:#92c9ec;stroke-width:81.11px;"/><path d="M7228.8,5293.04c-66.355,43.732 -156.836,40.717 -226.202,-12.063c-93.5,-69.37 -183.981,-141.755 -275.968,-212.63c-346.846,-268.429 -693.689,-536.857 -1040.53,-805.282c-64.846,-49.764 -128.182,-101.038 -193.028,-149.293c-69.367,-52.783 -161.357,-16.591 -174.929,67.86c-6.034,40.717 9.048,75.4 40.716,101.035c25.635,21.115 52.78,40.717 79.924,61.831c-85.957,137.228 -190.01,242.79 -361.924,253.347c-78.415,6.03 -150.8,-10.557 -223.184,-49.764c25.635,-43.735 48.255,-84.452 73.89,-126.674c60.322,-101.038 122.149,-200.567 179.456,-303.111c105.559,-183.981 263.901,-282.001 475.026,-286.525c55.794,-1.509 113.101,13.572 168.896,27.144c375.496,84.448 749.487,170.405 1124.98,253.347c24.126,6.034 36.193,15.082 43.732,40.717c101.038,370.972 203.582,741.945 304.62,1112.92c0,10.557 1.506,19.605 4.524,27.144" style="fill:#fff;fill-rule:nonzero;"/><path d="M7228.8,5293.04c-66.355,43.732 -156.836,40.717 -226.202,-12.063c-93.5,-69.37 -183.981,-141.755 -275.968,-212.63c-346.846,-268.429 -693.689,-536.857 -1040.53,-805.282c-64.846,-49.764 -128.182,-101.038 -193.028,-149.293c-69.367,-52.783 -161.357,-16.591 -174.929,67.86c-6.034,40.717 9.048,75.4 40.716,101.035c25.635,21.115 52.78,40.717 79.924,61.831c-85.957,137.228 -190.01,242.79 -361.924,253.347c-78.415,6.03 -150.8,-10.557 -223.184,-49.764c25.635,-43.735 48.255,-84.452 73.89,-126.674c60.322,-101.038 122.149,-200.567 179.456,-303.111c105.559,-183.981 263.901,-282.001 475.026,-286.525c55.794,-1.509 113.101,13.572 168.896,27.144c375.496,84.448 749.487,170.405 1124.98,253.347c24.126,6.034 36.193,15.082 43.732,40.717c101.038,370.972 203.582,741.945 304.62,1112.92c0,10.557 1.506,19.605 4.524,27.144Z" style="fill:none;fill-rule:nonzero;stroke:#92c9ec;stroke-width:81.11px;"/><path d="M3238.58,5207.09c131.197,-481.059 262.395,-957.59 395.098,-1437.14c69.37,19.601 135.722,37.698 202.077,55.794c101.035,27.144 202.073,54.289 303.111,82.942c69.367,19.605 98.02,72.385 79.924,141.755c-111.592,404.146 -221.679,808.296 -333.271,1213.95c-22.62,79.927 -75.403,99.529 -131.197,84.451c-171.914,-46.75 -340.813,-95.005 -515.742,-141.755" style="fill:#fff;fill-rule:nonzero;"/><path d="M3238.58,5207.09c131.197,-481.059 262.395,-957.59 395.098,-1437.14c69.37,19.601 135.722,37.698 202.077,55.794c101.035,27.144 202.073,54.289 303.111,82.942c69.367,19.605 98.02,72.385 79.924,141.755c-111.592,404.146 -221.679,808.296 -333.271,1213.95c-22.62,79.927 -75.403,99.529 -131.197,84.451c-171.914,-46.75 -340.813,-95.005 -515.742,-141.755Z" style="fill:none;fill-rule:nonzero;stroke:#92c9ec;stroke-width:81.11px;"/><path d="M7696.27,3769.96c131.197,479.55 262.395,956.081 393.592,1435.63c-55.794,15.081 -108.577,31.668 -162.866,46.75c-110.082,30.159 -220.169,60.322 -330.255,90.481c-84.448,22.62 -132.704,-4.524 -156.833,-90.481c-108.577,-396.608 -218.664,-794.724 -327.241,-1191.34c-22.62,-84.447 4.524,-132.703 90.481,-156.832c156.836,-43.731 313.669,-85.957 470.501,-129.688c6.034,-1.51 12.067,-1.51 22.621,-4.525" style="fill:#fff;fill-rule:nonzero;"/><path d="M7696.27,3769.96c131.197,479.55 262.395,956.081 393.592,1435.63c-55.794,15.081 -108.577,31.668 -162.866,46.75c-110.082,30.159 -220.169,60.322 -330.255,90.481c-84.448,22.62 -132.704,-4.524 -156.833,-90.481c-108.577,-396.608 -218.664,-794.724 -327.241,-1191.34c-22.62,-84.447 4.524,-132.703 90.481,-156.832c156.836,-43.731 313.669,-85.957 470.501,-129.688c6.034,-1.51 12.067,-1.51 22.621,-4.525Z" style="fill:none;fill-rule:nonzero;stroke:#92c9ec;stroke-width:81.11px;"/></g></g></g></svg>