<?xml version="1.0" encoding="utf-8"?>
<!-- Generator: Adobe Illustrator 24.0.0, SVG Export Plug-In . SVG Version: 6.00 Build 0)  -->
<svg version="1.1" id="Livello_1" xmlns="http://www.w3.org/2000/svg" xmlns:xlink="http://www.w3.org/1999/xlink" x="0px" y="0px"
	 viewBox="0 0 1540.4 1761.7" style="enable-background:new 0 0 1540.4 1761.7;" xml:space="preserve">
<style type="text/css">
	.st0{display:none;fill:#EBECED;}
	.st1{display:none;fill:#DADDDE;}
	.st2{display:none;fill:#D3E4F5;}
	.st3{display:none;fill:#B2D1ED;}
	.st4{fill:#EBECED;}
	.st5{fill:#DADDDE;}
	.st6{fill:#FFFFFF;}
	.st7{display:none;}
	.st8{display:inline;fill:#FFFFFF;}
</style>
<g>
	<path class="st0" d="M186.2-219.6C16.3-195.7-102.1-38.6-78.2,131.3L53.6,1069c23.9,169.9,181,288.3,350.9,264.5l937.7-131.8
		c169.9-23.9,288.3-181,264.4-350.9L1474.9-87c-23.9-169.9-181-288.3-350.9-264.5L186.2-219.6z"/>
	<path class="st1" d="M1606.7,850.8L1474.9-87c-21.2-150.7-147.1-260.6-293.9-267c69,331.7,179.8,1368.4-1070.5,1563.3
		c65.5,89.2,176.6,140.6,293.9,124.1l937.7-131.8C1512.2,1177.8,1630.5,1020.7,1606.7,850.8"/>
	<path class="st2" d="M222.9,1.2C39.6-14-121.4,122.3-136.5,305.7l-83.6,1011.8c-15.2,183.4,121.2,344.3,304.6,359.4l1011.8,83.6
		c183.3,15.2,344.3-121.2,359.4-304.6l83.6-1011.8c15.2-183.4-121.2-344.3-304.5-359.4L222.9,1.2z"/>
	<path class="st3" d="M1455.6,1456l83.6-1011.8c13.4-162.6-92.3-307.2-244.3-348.6c-6.2,363.2-135.1,1473.5-1488.7,1382.1
		c47.4,108.8,151.5,188.7,278.1,199.2l1011.8,83.6C1279.6,1775.7,1440.5,1639.4,1455.6,1456"/>
	<path class="st4" d="M-410.2,664.4c-176.2,53.1-275.9,238.9-222.8,415.1l293,972c53.1,176.2,238.9,275.9,415.1,222.8l972.1-293
		c176.1-53.1,275.9-238.9,222.8-415.1l-293-972C923.8,418,738,318.3,561.8,371.4L-410.2,664.4z"/>
	<path class="st5" d="M1269.9,1566.2l-293-972.1c-47.1-156.2-198.5-252-355-234.8c127.4,340.2,414.3,1420.5-878.5,1831.6
		c84,83.8,210.2,120.1,331.7,83.4l972-293C1223.3,1928.2,1323,1742.4,1269.9,1566.2"/>
</g>
<g>
	<path class="st6" d="M89.6,530.4l2.3-0.7l8.8,29.3l18.5-5.6l0.7,2.2l-20.8,6.3L89.6,530.4z"/>
	<path class="st6" d="M117.4,522l22.4-6.8l0.7,2.2l-20.1,6l3.7,12.4l18-5.4l0.7,2.2l-18,5.4l3.8,12.6l20.3-6.1l0.7,2.2l-22.6,6.8
		L117.4,522z"/>
	<path class="st6" d="M161.1,508.8l2.2-0.7l30,20.9l-8.3-27.4l2.2-0.7l9.5,31.5l-1.8,0.5l-30.6-21.3l8.4,28l-2.2,0.7L161.1,508.8z"
		/>
	<path class="st6" d="M200,514.3L200,514.3c-2.6-8.7,1.4-18.3,10.9-21.2c9.5-2.9,18.1,2.8,20.7,11.4l0,0.1c2.6,8.6-1.4,18.2-11,21.1
		C211.2,528.7,202.6,522.9,200,514.3z M229.3,505.5L229.3,505.5c-2.4-7.9-10-12.6-17.8-10.2c-7.8,2.3-11.5,10.3-9.1,18.1l0,0.1
		c2.3,7.8,9.9,12.5,17.7,10.1C227.9,521.3,231.6,513.3,229.3,505.5z"/>
	<path class="st6" d="M240.8,514.1l1-2.2c4.4,2.2,8.1,2.7,12.7,1.3c4.7-1.4,7.2-5.1,6.1-8.7l0-0.1c-1-3.3-3.3-4.7-10.9-4
		c-8,0.7-11.9-0.9-13.3-5.7l0-0.1c-1.4-4.7,1.8-9.6,7.6-11.3c4.6-1.4,8-1,12,0.6l-0.9,2.3c-3.7-1.7-7-1.8-10.5-0.7
		c-4.6,1.4-6.9,5-5.9,8.3l0,0.1c1,3.3,3.3,4.8,11.3,4.1c7.7-0.7,11.6,1,13,5.6l0,0.1c1.5,5.1-1.8,9.9-7.8,11.7
		C250,516.9,245.6,516.4,240.8,514.1z"/>
	<path class="st6" d="M272.3,477.6l-11,3.3l-0.7-2.2l24.3-7.3l0.7,2.2l-11,3.3l8.8,29.3l-2.3,0.7L272.3,477.6z"/>
	<path class="st6" d="M292,469.3l13.2-4c3.9-1.2,7.3-0.9,9.8,0.4c1.9,1,3.5,2.9,4.1,5.1l0,0.1c1.6,5.3-1.4,9.5-6.5,11.8l14.5,10.3
		l-3,0.9l-14-10l-10.3,3.1l3.9,13l-2.3,0.7L292,469.3z M309.9,481.8c5.3-1.6,8.4-5.4,7-10l0-0.1c-1.3-4.2-5.4-5.9-11.1-4.2
		l-10.8,3.2l4.3,14.2L309.9,481.8z"/>
	<path class="st6" d="M324.6,459.5l22.4-6.8l0.7,2.2l-20.1,6l3.7,12.4l18-5.4l0.7,2.2l-18,5.4l3.8,12.6l20.3-6.1l0.7,2.2l-22.6,6.8
		L324.6,459.5z"/>
</g>
<g>
	<path class="st6" d="M367.2,446.7l14.4-4.3c4-1.2,7.4-1,10.1,0.4c2.3,1.2,4,3.4,4.9,6.4l0,0.1c1.5,5.1-0.2,9.1-3.8,11.8L404,470
		l-8.1,2.4l-9.8-8l-5.4,1.6l3,10.1l-6.9,2.1L367.2,446.7z M385.8,457.8c3.4-1,4.8-3.4,4-6.1l0-0.1c-0.9-3-3.4-3.9-6.8-2.9l-6.9,2.1
		l2.7,9L385.8,457.8z"/>
	<path class="st6" d="M399.8,436.9l23.8-7.2l1.9,6.2l-16.9,5.1l1.9,6.4l14.8-4.5l1.9,6.2l-14.8,4.5l2,6.6l17.1-5.2l1.9,6.2l-24,7.2
		L399.8,436.9z"/>
	<path class="st6" d="M429.9,427.8l24-7.2l1.9,6.3l-17.1,5.1l2,6.7l15-4.5l1.9,6.3l-15,4.5l3.7,12.2l-6.9,2.1L429.9,427.8z"/>
	<path class="st6" d="M459.4,418.9l23.8-7.2l1.9,6.2l-16.9,5.1l1.9,6.4l14.8-4.5l1.9,6.2l-14.8,4.5l2,6.6l17.1-5.2l1.9,6.2l-24,7.2
		L459.4,418.9z"/>
	<path class="st6" d="M489.6,409.8l14.4-4.3c4-1.2,7.4-1,10.1,0.4c2.3,1.2,4,3.4,4.9,6.4l0,0.1c1.5,5.1-0.2,9.1-3.8,11.8l11.1,8.9
		l-8.1,2.4l-9.8-8l-5.4,1.6l3,10.1l-6.9,2.1L489.6,409.8z M508.2,420.9c3.4-1,4.8-3.4,4-6.1l0-0.1c-0.9-3-3.4-3.9-6.8-2.9l-6.9,2.1
		l2.7,9L508.2,420.9z"/>
	<path class="st6" d="M522.1,400l23.8-7.2l1.9,6.2l-16.9,5.1l1.9,6.4l14.8-4.5l1.9,6.2l-14.8,4.5l2,6.6l17.1-5.2l1.9,6.2l-24,7.2
		L522.1,400z"/>
	<path class="st6" d="M552.3,390.9l6.4-1.9l20.6,14.9l-5.8-19.4l6.8-2.1l9.5,31.5l-5.9,1.8l-21.3-15.4l6,20l-6.8,2.1L552.3,390.9z"
		/>
	<path class="st6" d="M594.8,406.7l11.2-25.4l-16.8,5.1l-1.8-6.1l25.7-7.7l1.6,5.3l-11.2,25.4l17.3-5.2l1.8,6.1l-26.2,7.9
		L594.8,406.7z"/>
	<path class="st6" d="M619.7,370.6l23.8-7.2l1.9,6.2l-16.9,5.1l1.9,6.4l14.8-4.5l1.9,6.2l-14.8,4.5l2,6.6l17.1-5.2l1.9,6.2l-24,7.2
		L619.7,370.6z"/>
</g>
<g class="st7">
	<path class="st8" d="M642.6-325.1l2.4,0.2l-2.5,30.5l19.2,1.6l-0.2,2.2l-21.7-1.8L642.6-325.1z"/>
	<path class="st8" d="M671.6-322.7l23.3,1.9l-0.2,2.2l-20.9-1.7l-1.1,12.9l18.8,1.6l-0.2,2.2l-18.8-1.6l-1.1,13.2l21.1,1.7l-0.2,2.2
		l-23.6-1.9L671.6-322.7z"/>
	<path class="st8" d="M715.7-319l2.3,0.2l20.3,30.4l2.4-28.5l2.3,0.2l-2.7,32.8l-1.8-0.2l-20.7-31l-2.4,29.1l-2.3-0.2L715.7-319z"/>
	<path class="st8" d="M749.9-299.6L749.9-299.6c0.7-9,8-16.5,17.9-15.7c9.9,0.8,15.8,9.3,15,18.2l0,0.1c-0.7,8.9-8,16.4-17.9,15.6
		C755-282.2,749.1-290.7,749.9-299.6z M780.3-297.1L780.3-297.1c0.7-8.2-4.7-15.3-12.8-16c-8.1-0.7-14.5,5.4-15.1,13.5l0,0.1
		c-0.7,8.1,4.7,15.2,12.8,15.9C773.3-282.9,779.6-289,780.3-297.1z"/>
	<path class="st8" d="M787.9-284.9l1.7-1.7c3.3,3.6,6.5,5.4,11.4,5.8c4.9,0.4,8.5-2.1,8.8-5.8l0-0.1c0.3-3.5-1.4-5.6-8.7-7.7
		c-7.7-2.2-10.7-5.2-10.3-10.1l0-0.1c0.4-4.9,5.2-8.2,11.3-7.7c4.8,0.4,7.8,2,10.9,4.9l-1.7,1.8c-2.9-2.9-5.9-4.2-9.5-4.5
		c-4.8-0.4-8.2,2.1-8.5,5.5l0,0.1c-0.3,3.5,1.3,5.7,9,8c7.5,2.2,10.4,5.2,10,9.9l0,0.1c-0.4,5.3-5.3,8.6-11.6,8
		C795.4-279,791.5-281,787.9-284.9z"/>
	<path class="st8" d="M830.5-307.3l-11.4-0.9l0.2-2.2l25.3,2.1l-0.2,2.2l-11.4-0.9l-2.5,30.5l-2.4-0.2L830.5-307.3z"/>
	<path class="st8" d="M851.9-307.8l13.8,1.1c4,0.3,7.2,1.9,9,4c1.4,1.7,2.2,4,2,6.3l0,0.1c-0.5,5.5-4.8,8.3-10.4,8.6l9.7,14.9
		l-3.1-0.3l-9.3-14.4l-10.7-0.9l-1.1,13.6l-2.4-0.2L851.9-307.8z M864-289.6c5.5,0.5,9.8-2,10.2-6.7l0-0.1c0.4-4.4-2.9-7.5-8.8-7.9
		l-11.2-0.9l-1.2,14.8L864-289.6z"/>
	<path class="st8" d="M885.8-305l23.3,1.9l-0.2,2.2l-20.9-1.7l-1.1,12.9l18.8,1.6l-0.2,2.2l-18.8-1.6l-1.1,13.2l21.1,1.7l-0.2,2.2
		l-23.6-1.9L885.8-305z"/>
</g>
<g class="st7">
	<path class="st8" d="M928.7-301.4l13.4,1.1c7.8,0.6,12.2,5.7,11.6,12.4l0,0.1c-0.6,7.6-6.9,11-14.2,10.4l-5.5-0.5l-0.8,9.8
		l-7.2-0.6L928.7-301.4z M940.3-283.8c3.6,0.3,5.9-1.7,6.1-4.5l0-0.1c0.3-3.2-1.8-5.1-5.4-5.4l-5.6-0.5l-0.8,10L940.3-283.8z"/>
	<path class="st8" d="M968.1-298.4l6.7,0.5l11.3,34.2l-7.5-0.6l-2.4-7.6l-13.9-1.1l-3.6,7.1l-7.4-0.6L968.1-298.4z M974.1-278.5
		l-3.5-11l-5.2,10.3L974.1-278.5z"/>
	<path class="st8" d="M993.8-296l15,1.2c4.2,0.3,7.3,1.8,9.3,4.1c1.7,2,2.4,4.6,2.2,7.7l0,0.1c-0.4,5.3-3.6,8.4-7.9,9.6l7,12.4
		l-8.4-0.7l-6.2-11.1l-5.7-0.5l-0.9,10.5l-7.2-0.6L993.8-296z M1007-278.9c3.5,0.3,5.7-1.4,5.9-4.2l0-0.1c0.3-3.1-1.8-4.9-5.3-5.2
		l-7.2-0.6l-0.8,9.4L1007-278.9z"/>
	<path class="st8" d="M1034.8-286l-10-0.8l0.5-6.7l27.2,2.2l-0.5,6.7l-10-0.8l-2.2,26.1l-7.2-0.6L1034.8-286z"/>
	<path class="st8" d="M1058-290.7l6.7,0.5l13.7,21.5l1.7-20.2l7.1,0.6l-2.7,32.8l-6.1-0.5l-14.2-22.2l-1.7,20.8l-7.1-0.6L1058-290.7
		z"/>
	<path class="st8" d="M1095-287.7l24.7,2l-0.5,6.4l-17.6-1.5l-0.5,6.7l15.5,1.3l-0.5,6.4l-15.5-1.3l-0.6,6.9l17.8,1.5l-0.5,6.4
		l-25-2.1L1095-287.7z"/>
	<path class="st8" d="M1126.4-285.1l15,1.2c4.2,0.3,7.3,1.8,9.3,4.1c1.7,2,2.4,4.6,2.2,7.7l0,0.1c-0.4,5.3-3.6,8.4-7.9,9.6l7,12.4
		l-8.4-0.7l-6.2-11.1l-5.7-0.5l-0.9,10.5l-7.2-0.6L1126.4-285.1z M1139.6-267.9c3.5,0.3,5.7-1.4,5.9-4.2l0-0.1
		c0.3-3.1-1.8-4.9-5.3-5.2l-7.2-0.6l-0.8,9.4L1139.6-267.9z"/>
	<path class="st8" d="M1155.7-254.5l4.7-4.8c2.7,2.7,5.7,4.5,9.5,4.8c3,0.2,4.8-0.8,5-2.7l0-0.1c0.2-1.8-0.9-2.9-6.3-4.7
		c-6.5-2.2-10.6-4.4-10-10.9l0-0.1c0.5-5.9,5.6-9.5,12.3-8.9c4.8,0.4,8.7,2.2,11.8,5.2l-4.2,5.1c-2.7-2.3-5.5-3.7-8.3-3.9
		c-2.8-0.2-4.3,0.9-4.5,2.5l0,0.1c-0.2,2.2,1.2,3,6.7,4.9c6.5,2.3,10.1,5,9.6,10.7l0,0.1c-0.5,6.5-5.8,9.8-12.9,9.2
		C1164.2-248.5,1159.4-250.6,1155.7-254.5z"/>
	<path class="st8" d="M1190.3-279.8l7.2,0.6l-1.1,13l13.3,1.1l1.1-13l7.2,0.6l-2.7,32.8l-7.2-0.6l1.1-13.2l-13.3-1.1l-1.1,13.2
		l-7.2-0.6L1190.3-279.8z"/>
	<path class="st8" d="M1226.2-276.8l7.2,0.6l-2.7,32.8l-7.2-0.6L1226.2-276.8z"/>
	<path class="st8" d="M1241.6-275.6l13.4,1.1c7.8,0.6,12.2,5.7,11.6,12.4l0,0.1c-0.6,7.6-6.9,11-14.2,10.4l-5.5-0.5l-0.8,9.8
		l-7.2-0.6L1241.6-275.6z M1253.2-258c3.6,0.3,5.9-1.7,6.1-4.5l0-0.1c0.3-3.2-1.8-5.2-5.4-5.4l-5.6-0.5l-0.8,10L1253.2-258z"/>
</g>
<g class="st7">
	<path class="st8" d="M408.6-565l2.4-0.3l4.3,30.3l19.1-2.7l0.3,2.2l-21.5,3L408.6-565z"/>
	<path class="st8" d="M437.4-569.1l23.2-3.3l0.3,2.2l-20.8,2.9l1.8,12.8l18.7-2.6l0.3,2.2l-18.7,2.6l1.8,13.1l21-3l0.3,2.2
		l-23.4,3.3L437.4-569.1z"/>
	<path class="st8" d="M482.6-575.4l2.3-0.3l26.5,25.2l-4-28.3l2.3-0.3l4.6,32.6l-1.8,0.3l-27-25.7l4.1,28.9l-2.3,0.3L482.6-575.4z"
		/>
	<path class="st8" d="M520.2-564L520.2-564c-1.3-9,4.2-17.9,14-19.2c9.9-1.4,17.4,5.6,18.7,14.5l0,0.1c1.2,8.9-4.2,17.8-14.1,19.2
		C529-548.2,521.4-555.1,520.2-564z M550.4-568.3L550.4-568.3c-1.1-8.1-7.9-13.9-16-12.8c-8.1,1.1-12.9,8.5-11.8,16.5l0,0.1
		c1.1,8.1,7.9,13.8,16,12.7C546.7-552.9,551.6-560.2,550.4-568.3z"/>
	<path class="st8" d="M560.5-558l1.3-2c4,2.8,7.6,3.9,12.4,3.2c4.9-0.7,7.9-3.9,7.3-7.6l0-0.1c-0.5-3.4-2.6-5.2-10.2-5.6
		c-8-0.5-11.6-2.7-12.3-7.6l0-0.1c-0.7-4.8,3.2-9.2,9.3-10c4.7-0.7,8,0.2,11.7,2.4l-1.3,2.1c-3.4-2.2-6.7-2.8-10.2-2.3
		c-4.8,0.7-7.6,3.9-7.1,7.3l0,0.1c0.5,3.4,2.5,5.3,10.5,5.8c7.8,0.5,11.3,2.7,12,7.5l0,0.1c0.7,5.3-3.3,9.5-9.5,10.4
		C569.2-553.9,564.9-555.1,560.5-558z"/>
	<path class="st8" d="M597.2-589.3l-11.4,1.6l-0.3-2.2l25.1-3.5l0.3,2.2l-11.4,1.6l4.3,30.3l-2.4,0.3L597.2-589.3z"/>
	<path class="st8" d="M618-594.5l13.7-1.9c4-0.6,7.4,0.2,9.6,1.9c1.8,1.3,3,3.4,3.3,5.7l0,0.1c0.8,5.4-2.8,9.1-8.2,10.6l12.7,12.4
		l-3.1,0.4l-12.3-12l-10.7,1.5l1.9,13.5l-2.4,0.3L618-594.5z M633.8-579.4c5.4-0.8,9.1-4.1,8.4-8.8l0-0.1c-0.6-4.4-4.4-6.6-10.4-5.8
		l-11.1,1.6l2.1,14.7L633.8-579.4z"/>
	<path class="st8" d="M651.6-599.2l23.2-3.3l0.3,2.2l-20.8,2.9l1.8,12.8l18.7-2.6l0.3,2.2l-18.7,2.6l1.8,13.1l21-2.9l0.3,2.2
		l-23.4,3.3L651.6-599.2z"/>
</g>
<g class="st7">
	<path class="st8" d="M697.4-577.2l3.5-5.7c3.3,2,6.6,3.1,10.3,2.6c2.9-0.4,4.5-1.8,4.3-3.7l0-0.1c-0.3-1.8-1.5-2.6-7.1-3.2
		c-6.8-0.8-11.3-2-12.2-8.4l0-0.1c-0.8-5.9,3.4-10.5,10-11.4c4.7-0.7,9,0.3,12.7,2.4l-3,5.9c-3.2-1.6-6.2-2.4-8.9-2
		c-2.7,0.4-4,1.8-3.8,3.4l0,0.1c0.3,2.1,1.8,2.6,7.6,3.3c6.9,0.8,10.9,2.6,11.7,8.3l0,0.1c0.9,6.5-3.5,10.8-10.5,11.8
		C707.1-573.3,701.8-574.3,697.4-577.2z"/>
	<path class="st8" d="M726.4-593L726.4-593c-1.3-9.4,4.9-18,15-19.4c10.1-1.4,18.3,5.1,19.6,14.3l0,0.1c1.3,9.3-4.9,17.9-15,19.3
		C736-577.3,727.7-583.7,726.4-593z M753.5-596.8L753.5-596.8c-0.8-5.7-5.5-9.8-11.3-8.9c-5.8,0.8-9.1,5.9-8.3,11.5l0,0.1
		c0.8,5.6,5.5,9.7,11.3,8.9C751-586.1,754.3-591.2,753.5-596.8z"/>
	<path class="st8" d="M765.1-615.1l7.2-1l3.7,26.1l16.2-2.3l0.9,6.5l-23.4,3.3L765.1-615.1z"/>
	<path class="st8" d="M795.1-600.4l-2.6-18.6l7.2-1l2.6,18.4c0.7,5.3,3.8,7.7,8.2,7.1c4.4-0.6,6.7-3.6,5.9-8.8l-2.6-18.7l7.2-1
		l2.6,18.4c1.4,9.9-3.5,15.5-12.2,16.7C802.5-586.6,796.5-590.8,795.1-600.4z"/>
	<path class="st8" d="M831.1-596.7l15-23.4l-17.4,2.4l-0.9-6.3l26.6-3.7l0.8,5.4l-15,23.4l17.9-2.5l0.9,6.3l-27.1,3.8L831.1-596.7z"
		/>
	<path class="st8" d="M861.5-628.7l7.2-1l4.6,32.6l-7.2,1L861.5-628.7z"/>
	<path class="st8" d="M877.7-614.2L877.7-614.2c-1.3-9.4,4.9-18,15-19.4s18.3,5.1,19.6,14.3l0,0.1c1.3,9.3-4.9,17.9-15,19.3
		S879-605,877.7-614.2z M904.8-618.1L904.8-618.1c-0.8-5.7-5.5-9.8-11.3-8.9c-5.8,0.8-9.1,5.9-8.3,11.5l0,0.1
		c0.8,5.6,5.5,9.7,11.3,8.9C902.2-607.4,905.6-612.5,904.8-618.1z"/>
	<path class="st8" d="M916.4-636.4l6.6-0.9l18.1,17.9l-2.8-20.1l7.1-1l4.6,32.6l-6.1,0.9l-18.7-18.5l2.9,20.7l-7.1,1L916.4-636.4z"
		/>
	<path class="st8" d="M953.5-641.6l7.2-1l4.6,32.6l-7.2,1L953.5-641.6z"/>
	<path class="st8" d="M983.1-645.8l7.2-1l4.6,32.6l-7.2,1L983.1-645.8z"/>
	<path class="st8" d="M998.4-647.9l6.6-0.9l18.1,17.9l-2.8-20.1l7.1-1l4.6,32.6l-6.1,0.9l-18.7-18.5l2.9,20.7l-7.1,1L998.4-647.9z"
		/>
	<path class="st8" d="M1050-638.5L1050-638.5c-1.3-9.4,4.6-17.9,14.6-19.3c6.1-0.9,10.1,0.7,13.6,3.2l-3.8,5.9
		c-2.8-1.9-5.6-3-8.8-2.5c-5.5,0.8-8.8,5.9-8,11.5l0,0.1c0.8,5.6,5.3,9.7,10.9,8.9c3.7-0.5,5.8-2.3,8-5l5.2,4
		c-2.8,4.1-6.3,6.8-12.5,7.7C1059.5-622.7,1051.3-629.1,1050-638.5z"/>
	<path class="st8" d="M1083.5-659.9l7.2-1l3.7,26.1l16.2-2.3l0.9,6.5l-23.4,3.3L1083.5-659.9z"/>
	<path class="st8" d="M1111.3-647.1L1111.3-647.1c-1.3-9.4,4.9-18,15-19.4s18.3,5.1,19.6,14.3l0,0.1c1.3,9.3-4.9,17.9-15,19.3
		C1120.9-631.3,1112.6-637.8,1111.3-647.1z M1138.5-650.9L1138.5-650.9c-0.8-5.7-5.5-9.8-11.3-8.9c-5.8,0.8-9.1,5.9-8.3,11.5l0,0.1
		c0.8,5.6,5.5,9.7,11.3,8.9C1135.9-640.2,1139.2-645.3,1138.5-650.9z"/>
	<path class="st8" d="M1152.1-650.5l-2.6-18.6l7.2-1l2.6,18.4c0.7,5.3,3.8,7.7,8.2,7.1s6.7-3.6,5.9-8.8l-2.6-18.7l7.2-1l2.6,18.4
		c1.4,9.9-3.5,15.5-12.2,16.7S1153.5-641,1152.1-650.5z"/>
	<path class="st8" d="M1185.2-674.2l12.7-1.8c10.2-1.4,18.3,4.6,19.6,13.8l0,0.1c1.3,9.2-4.8,17.3-15,18.7l-12.7,1.8L1185.2-674.2z
		 M1201.6-649.9c5.9-0.8,9.3-5.3,8.5-11.1l0-0.1c-0.8-5.8-5.3-9.3-11.2-8.4l-5.5,0.8l2.8,19.6L1201.6-649.9z"/>
</g>
</svg>
