<?xml version="1.0" encoding="UTF-8" standalone="no"?><!DOCTYPE svg PUBLIC "-//W3C//DTD SVG 1.1//EN" "http://www.w3.org/Graphics/SVG/1.1/DTD/svg11.dtd"><svg width="100%" height="100%" viewBox="0 0 1932 1932" version="1.1" xmlns="http://www.w3.org/2000/svg" xmlns:xlink="http://www.w3.org/1999/xlink" xml:space="preserve" xmlns:serif="http://www.serif.com/" style="fill-rule:evenodd;clip-rule:evenodd;stroke-miterlimit:10;"><g><path d="M237.16,307.328c-176.2,53.1 -276,238.9 -222.9,415.1l293,972c53.1,176.2 238.9,275.9 415.1,222.8l972.1,-293c176.1,-53.1 275.9,-238.9 222.8,-415.1l-293,-972c-53.1,-176.2 -239,-276 -415.1,-222.9l-972,293.1Z" style="fill:#ebeced;fill-rule:nonzero;"/><path d="M1917.26,1209.13l-293,-972.1c-47.1,-156.2 -198.5,-252 -355,-234.8c127.4,340.2 414.3,1420.5 -878.6,1831.6c84,83.8 210.2,120.1 331.7,83.4l972,-293c176.3,-53.1 276,-239 222.9,-415.1" style="fill:#daddde;fill-rule:nonzero;"/></g><g><path d="M736.96,173.228l2.3,-0.7l8.8,29.3l18.5,-5.6l0.7,2.2l-20.8,6.3l-9.5,-31.5Z" style="fill:#fff;fill-rule:nonzero;"/><path d="M764.76,164.828l22.4,-6.8l0.7,2.2l-20.1,6l3.7,12.4l18,-5.4l0.7,2.2l-18,5.4l3.8,12.6l20.3,-6.1l0.7,2.2l-22.6,6.8l-9.6,-31.5Z" style="fill:#fff;fill-rule:nonzero;"/><path d="M808.46,151.728l2.2,-0.7l30,20.9l-8.3,-27.4l2.2,-0.7l9.5,31.5l-1.8,0.5l-30.6,-21.3l8.4,28l-2.2,0.7l-9.4,-31.5Z" style="fill:#fff;fill-rule:nonzero;"/><path d="M847.36,157.228c-2.6,-8.7 1.4,-18.3 10.9,-21.2c9.5,-2.9 18.1,2.8 20.7,11.4l-0,0.1c2.6,8.6 -1.4,18.2 -11,21.1c-9.5,2.9 -18,-2.8 -20.6,-11.4Zm29.2,-8.8c-2.4,-7.9 -10,-12.6 -17.8,-10.2c-7.8,2.3 -11.5,10.3 -9.1,18.1l-0,0.1c2.3,7.8 9.9,12.5 17.7,10.1c7.9,-2.3 11.6,-10.3 9.2,-18.1Z" style="fill:#fff;fill-rule:nonzero;"/><path d="M888.16,157.028l1,-2.2c4.4,2.2 8.1,2.7 12.7,1.3c4.7,-1.4 7.2,-5.1 6.1,-8.7l-0,-0.1c-1,-3.3 -3.3,-4.7 -10.9,-4c-8,0.7 -11.9,-0.9 -13.3,-5.7l-0,-0.1c-1.4,-4.7 1.8,-9.6 7.6,-11.3c4.6,-1.4 8,-1 12,0.6l-0.9,2.3c-3.7,-1.7 -7,-1.8 -10.5,-0.7c-4.6,1.4 -6.9,5 -5.9,8.3l-0,0.1c1,3.3 3.3,4.8 11.3,4.1c7.7,-0.7 11.6,1 13,5.6l-0,0.1c1.5,5.1 -1.8,9.9 -7.8,11.7c-5.3,1.4 -9.6,0.9 -14.4,-1.3Z" style="fill:#fff;fill-rule:nonzero;"/><path d="M919.56,120.528l-11,3.3l-0.7,-2.2l24.3,-7.3l0.7,2.2l-11,3.3l8.8,29.3l-2.3,0.7l-8.8,-29.3Z" style="fill:#fff;fill-rule:nonzero;"/><path d="M939.36,112.228l13.2,-4c3.9,-1.2 7.3,-0.9 9.8,0.4c1.9,1 3.5,2.9 4.1,5.1l-0,0.1c1.6,5.3 -1.4,9.5 -6.5,11.8l14.5,10.3l-3,0.9l-14,-10l-10.3,3.1l3.9,13l-2.3,0.7l-9.4,-31.4Zm17.9,12.4c5.3,-1.6 8.4,-5.4 7,-10l-0,-0.1c-1.3,-4.2 -5.4,-5.9 -11.1,-4.2l-10.8,3.2l4.3,14.2l10.6,-3.1Z" style="fill:#fff;fill-rule:nonzero;"/><path d="M971.86,102.428l22.4,-6.8l0.7,2.2l-20.1,6l3.7,12.4l18,-5.4l0.7,2.2l-18,5.4l3.8,12.6l20.3,-6.1l0.7,2.2l-22.6,6.8l-9.6,-31.5Z" style="fill:#fff;fill-rule:nonzero;"/></g><g><path d="M1014.56,89.528l14.4,-4.3c4,-1.2 7.4,-1 10.1,0.4c2.3,1.2 4,3.4 4.9,6.4l-0,0.1c1.5,5.1 -0.2,9.1 -3.8,11.8l11.1,8.9l-8.1,2.4l-9.8,-8l-5.4,1.6l3,10.1l-6.9,2.1l-9.5,-31.5Zm18.6,11.1c3.4,-1 4.8,-3.4 4,-6.1l-0,-0.1c-0.9,-3 -3.4,-3.9 -6.8,-2.9l-6.9,2.1l2.7,9l7,-2Z" style="fill:#fff;fill-rule:nonzero;"/><path d="M1047.06,79.728l23.8,-7.2l1.9,6.2l-16.9,5.1l1.9,6.4l14.8,-4.5l1.9,6.2l-14.8,4.5l2,6.6l17.1,-5.2l1.9,6.2l-24,7.2l-9.6,-31.5Z" style="fill:#fff;fill-rule:nonzero;"/><path d="M1077.26,70.628l24,-7.2l1.9,6.3l-17.1,5.1l2,6.7l15,-4.5l1.9,6.3l-15,4.5l3.7,12.2l-6.9,2.1l-9.5,-31.5Z" style="fill:#fff;fill-rule:nonzero;"/><path d="M1106.76,61.728l23.8,-7.2l1.9,6.2l-16.9,5.1l1.9,6.4l14.8,-4.5l1.9,6.2l-14.8,4.5l2,6.6l17.1,-5.2l1.9,6.2l-24,7.2l-9.6,-31.5Z" style="fill:#fff;fill-rule:nonzero;"/><path d="M1136.96,52.628l14.4,-4.3c4,-1.2 7.4,-1 10.1,0.4c2.3,1.2 4,3.4 4.9,6.4l-0,0.1c1.5,5.1 -0.2,9.1 -3.8,11.8l11.1,8.9l-8.1,2.4l-9.8,-8l-5.4,1.6l3,10.1l-6.9,2.1l-9.5,-31.5Zm18.5,11.1c3.4,-1 4.8,-3.4 4,-6.1l-0,-0.1c-0.9,-3 -3.4,-3.9 -6.8,-2.9l-6.9,2.1l2.7,9l7,-2Z" style="fill:#fff;fill-rule:nonzero;"/><path d="M1169.46,42.828l23.8,-7.2l1.9,6.2l-16.9,5.1l1.9,6.4l14.8,-4.5l1.9,6.2l-14.8,4.5l2,6.6l17.1,-5.2l1.9,6.2l-24,7.2l-9.6,-31.5Z" style="fill:#fff;fill-rule:nonzero;"/><path d="M1199.66,33.728l6.4,-1.9l20.5,15l-5.8,-19.4l6.8,-2.1l9.5,31.5l-5.9,1.8l-21.3,-15.4l6,20l-6.8,2.1l-9.4,-31.6Z" style="fill:#fff;fill-rule:nonzero;"/><path d="M1242.16,49.528l11.2,-25.4l-16.8,5.1l-1.8,-6.1l25.7,-7.7l1.6,5.3l-11.2,25.4l17.3,-5.2l1.8,6.1l-26.3,7.8l-1.5,-5.3Z" style="fill:#fff;fill-rule:nonzero;"/><path d="M1267.06,13.428l23.8,-7.2l1.9,6.2l-16.9,5.1l1.9,6.4l14.8,-4.5l1.9,6.2l-14.8,4.5l2,6.6l17.1,-5.2l1.9,6.2l-24,7.2l-9.6,-31.5Z" style="fill:#fff;fill-rule:nonzero;"/></g><g opacity="0.34"><g><path d="M1465.06,296.628c-1.6,-1.9 -2.8,-3.6 -4.2,-5c-8.9,-9 -17.8,-17.9 -26.8,-26.8c-2.9,-2.9 -6.7,-2.9 -9.3,-0.3c-2.5,2.5 -2.6,6.3 0.1,9c12,12.1 24.1,24.2 36.3,36.3c3,3 6.7,2.7 9.6,-0.4c0.8,-0.8 1.5,-1.7 2.2,-2.5c15.8,-18.7 31.7,-37.4 47.5,-56.1c6.5,-7.7 13.1,-15.3 19.7,-22.9c0.7,-0.8 1.5,-1.7 2.1,-2.6c2.4,-3.3 2.1,-6.9 -0.7,-9.3c-2.8,-2.3 -6.7,-2 -9.2,1c-7.5,8.8 -14.9,17.7 -22.4,26.5c-7.6,9 -15.2,18 -22.8,26.9c-7,8.6 -14.2,17 -22.1,26.2m8.3,52.9c3.9,-0.3 7.7,-0.5 11.5,-1.1c3.1,-0.4 6.2,-1.1 9.2,-2c43.2,-12.6 65.9,-58.1 50.1,-100.3c-2,-5.4 -5.3,-7.5 -9.2,-6.1c-3.9,1.4 -4.7,5.2 -2.8,10.6c8.2,22.8 5.1,44.2 -10.3,62.9c-15.3,18.5 -35.6,26.1 -59.2,21.9c-25.1,-4.5 -42.2,-19.6 -49.5,-44c-7.3,-24.7 -1,-46.5 17.8,-64.3c11.6,-11 25.7,-16.4 41.6,-16.6c14.9,-0.2 28.3,4.4 40,13.6c2,1.6 4.1,2.7 6.7,2c2.5,-0.6 4.1,-2.2 4.7,-4.8c0.7,-3.1 -0.8,-5.3 -3.1,-7.1c-17.8,-13.8 -37.8,-19.1 -60,-15.4c-38.7,6.5 -66.3,41.8 -63,80.4c3.3,39.9 35.8,70 75.5,70.3m-98.4,-32.4c0.7,-4.2 1.3,-8.4 2,-12.7c1.1,-6.8 -0.8,-12.9 -4.8,-18.4c-1.8,-2.6 -3.6,-5.2 -5.5,-7.7c-2.4,-3.3 -2.4,-6.6 -0,-9.9c1.7,-2.3 3.3,-4.7 5,-6.9c5.1,-6.5 6.6,-13.8 4.9,-21.9c-0.6,-2.8 -1,-5.6 -1.5,-8.4c-0.7,-3.8 0.6,-6.6 4,-8.4c3,-1.6 6.1,-3.4 9.1,-5c6.1,-3.3 10.2,-8.3 12,-15.1c1,-3.4 2,-6.8 3,-10.3c1.1,-3.5 3.4,-5.3 7.2,-5.5c4.2,-0.2 8.3,-0.5 12.5,-0.9c5.7,-0.5 10.5,-3.1 14.4,-7.3c2.6,-2.8 5.1,-5.6 7.6,-8.4c2.7,-3.1 5.9,-3.8 9.6,-2.1c2.7,1.2 5.5,2.3 8.2,3.5c7.2,3.2 14.4,3.2 21.6,-0c3,-1.3 6,-2.6 9,-3.7c3,-1.2 5.8,-0.7 8.1,1.7c2.3,2.5 4.6,4.9 6.7,7.5c5.1,6.1 11.7,9 19.5,9.2c3.3,0.1 6.5,0.4 9.7,0.6c2.9,0.2 5,1.7 5.9,4.5c1,3 2,6 2.7,9.1c2,8.2 6.6,14.3 14.2,18.1c2.6,1.3 5.2,2.8 7.8,4.3c3.1,1.7 4.4,4.4 3.8,7.9c-0.5,3 -0.9,6 -1.5,9c-1.6,7.8 -0.1,14.9 4.8,21.3c1.7,2.2 3.2,4.5 4.9,6.7c2.8,3.6 2.8,7.2 -0,10.9c-1.5,2 -2.9,4.2 -4.5,6.2c-5.3,6.7 -6.9,14.1 -5.1,22.4c0.6,2.9 1,5.8 1.4,8.7c0.5,3.4 -0.7,6 -3.7,7.6c-3.2,1.8 -6.4,3.6 -9.6,5.4c-7.2,4.1 -11.3,10.2 -12.6,18.4c-0.5,3.3 -2,6.4 -3.1,9.5c-0.3,0.8 -1.2,1.7 -1.9,1.8c-3.8,0.6 -7.6,1.3 -11.4,1.4c-7.1,0.2 -13.8,1.5 -19,6.8c-3,3.1 -5.8,6.3 -8.7,9.4c-2.7,3 -5.7,3.6 -9.3,2c-2.9,-1.3 -5.8,-2.4 -8.7,-3.7c-6.8,-2.9 -13.6,-2.9 -20.5,-0c-3,1.3 -6,2.5 -9,3.8c-3.5,1.5 -6.5,1 -9.1,-1.9c-2,-2.3 -4.1,-4.5 -6.1,-6.8c-4.8,-5.7 -10.9,-9.1 -18.5,-9.4c-3,-0.1 -6.1,-0.4 -9.1,-0.4c-4.6,0.1 -7.3,-1.6 -8.7,-6c-0.8,-2.6 -1.3,-5.3 -1.9,-8c-1.7,-7 -5.2,-12.8 -11.6,-16.5c-3.6,-2.1 -7.3,-4.1 -10.9,-6.2c-2.3,-1.2 -3.6,-3.3 -3.3,-6.2" style="fill:#fff;fill-rule:nonzero;"/><path d="M1465.06,296.628c-1.6,-1.9 -2.8,-3.6 -4.2,-5c-8.9,-9 -17.8,-17.9 -26.8,-26.8c-2.9,-2.9 -6.7,-2.9 -9.3,-0.3c-2.5,2.5 -2.6,6.3 0.1,9c12,12.1 24.1,24.2 36.3,36.3c3,3 6.7,2.7 9.6,-0.4c0.8,-0.8 1.5,-1.7 2.2,-2.5c15.8,-18.7 31.7,-37.4 47.5,-56.1c6.5,-7.7 13.1,-15.3 19.7,-22.9c0.7,-0.8 1.5,-1.7 2.1,-2.6c2.4,-3.3 2.1,-6.9 -0.7,-9.3c-2.8,-2.3 -6.7,-2 -9.2,1c-7.5,8.8 -14.9,17.7 -22.4,26.5c-7.6,9 -15.2,18 -22.8,26.9c-7,8.6 -14.2,17 -22.1,26.2Zm8.3,52.9c3.9,-0.3 7.7,-0.5 11.5,-1.1c3.1,-0.4 6.2,-1.1 9.2,-2c43.2,-12.6 65.9,-58.1 50.1,-100.3c-2,-5.4 -5.3,-7.5 -9.2,-6.1c-3.9,1.4 -4.7,5.2 -2.8,10.6c8.2,22.8 5.1,44.2 -10.3,62.9c-15.3,18.5 -35.6,26.1 -59.2,21.9c-25.1,-4.5 -42.2,-19.6 -49.5,-44c-7.3,-24.7 -1,-46.5 17.8,-64.3c11.6,-11 25.7,-16.4 41.6,-16.6c14.9,-0.2 28.3,4.4 40,13.6c2,1.6 4.1,2.7 6.7,2c2.5,-0.6 4.1,-2.2 4.7,-4.8c0.7,-3.1 -0.8,-5.3 -3.1,-7.1c-17.8,-13.8 -37.8,-19.1 -60,-15.4c-38.7,6.5 -66.3,41.8 -63,80.4c3.3,39.9 35.8,70 75.5,70.3Zm-98.4,-32.4c0.7,-4.2 1.3,-8.4 2,-12.7c1.1,-6.8 -0.8,-12.9 -4.8,-18.4c-1.8,-2.6 -3.6,-5.2 -5.5,-7.7c-2.4,-3.3 -2.4,-6.6 -0,-9.9c1.7,-2.3 3.3,-4.7 5,-6.9c5.1,-6.5 6.6,-13.8 4.9,-21.9c-0.6,-2.8 -1,-5.6 -1.5,-8.4c-0.7,-3.8 0.6,-6.6 4,-8.4c3,-1.6 6.1,-3.4 9.1,-5c6.1,-3.3 10.2,-8.3 12,-15.1c1,-3.4 2,-6.8 3,-10.3c1.1,-3.5 3.4,-5.3 7.2,-5.5c4.2,-0.2 8.3,-0.5 12.5,-0.9c5.7,-0.5 10.5,-3.1 14.4,-7.3c2.6,-2.8 5.1,-5.6 7.6,-8.4c2.7,-3.1 5.9,-3.8 9.6,-2.1c2.7,1.2 5.5,2.3 8.2,3.5c7.2,3.2 14.4,3.2 21.6,-0c3,-1.3 6,-2.6 9,-3.7c3,-1.2 5.8,-0.7 8.1,1.7c2.3,2.5 4.6,4.9 6.7,7.5c5.1,6.1 11.7,9 19.5,9.2c3.3,0.1 6.5,0.4 9.7,0.6c2.9,0.2 5,1.7 5.9,4.5c1,3 2,6 2.7,9.1c2,8.2 6.6,14.3 14.2,18.1c2.6,1.3 5.2,2.8 7.8,4.3c3.1,1.7 4.4,4.4 3.8,7.9c-0.5,3 -0.9,6 -1.5,9c-1.6,7.8 -0.1,14.9 4.8,21.3c1.7,2.2 3.2,4.5 4.9,6.7c2.8,3.6 2.8,7.2 -0,10.9c-1.5,2 -2.9,4.2 -4.5,6.2c-5.3,6.7 -6.9,14.1 -5.1,22.4c0.6,2.9 1,5.8 1.4,8.7c0.5,3.4 -0.7,6 -3.7,7.6c-3.2,1.8 -6.4,3.6 -9.6,5.4c-7.2,4.1 -11.3,10.2 -12.6,18.4c-0.5,3.3 -2,6.4 -3.1,9.5c-0.3,0.8 -1.2,1.7 -1.9,1.8c-3.8,0.6 -7.6,1.3 -11.4,1.4c-7.1,0.2 -13.8,1.5 -19,6.8c-3,3.1 -5.8,6.3 -8.7,9.4c-2.7,3 -5.7,3.6 -9.3,2c-2.9,-1.3 -5.8,-2.4 -8.7,-3.7c-6.8,-2.9 -13.6,-2.9 -20.5,-0c-3,1.3 -6,2.5 -9,3.8c-3.5,1.5 -6.5,1 -9.1,-1.9c-2,-2.3 -4.1,-4.5 -6.1,-6.8c-4.8,-5.7 -10.9,-9.1 -18.5,-9.4c-3,-0.1 -6.1,-0.4 -9.1,-0.4c-4.6,0.1 -7.3,-1.6 -8.7,-6c-0.8,-2.6 -1.3,-5.3 -1.9,-8c-1.7,-7 -5.2,-12.8 -11.6,-16.5c-3.6,-2.1 -7.3,-4.1 -10.9,-6.2c-2.3,-1.2 -3.6,-3.3 -3.3,-6.2Z" style="fill:none;fill-rule:nonzero;stroke:#92c9ec;stroke-width:6.06px;"/><path d="M1547.86,469.828c-4.9,-8.5 -9.7,-16 -13.6,-23.9c-8.9,-17.8 -17.3,-35.9 -26,-53.9c-0.9,-1.9 -0.8,-3.1 0.9,-4.6c3.1,-2.8 5.8,-6 8.6,-9.1c2.7,-3.1 5.9,-4.9 10.1,-4.9c1.4,-0 2.8,-0.3 4.3,-0.2c10.2,0.3 18.2,-3.5 23.5,-12.9c6,12.6 11.4,25 17.6,37c6.1,12 12.9,23.7 19.6,35.8c-0.9,0.1 -1.8,0.2 -2.6,0.3c-7.7,0.2 -15.5,0.3 -23.2,0.5c-4.4,0.1 -6.2,1.4 -7.7,5.6c-3.3,8.9 -6.6,17.8 -9.8,26.6c-0.5,1 -0.9,1.9 -1.7,3.7" style="fill:#fff;fill-rule:nonzero;"/><path d="M1547.86,469.828c-4.9,-8.5 -9.7,-16 -13.6,-23.9c-8.9,-17.8 -17.3,-35.9 -26,-53.9c-0.9,-1.9 -0.8,-3.1 0.9,-4.6c3.1,-2.8 5.8,-6 8.6,-9.1c2.7,-3.1 5.9,-4.9 10.1,-4.9c1.4,-0 2.8,-0.3 4.3,-0.2c10.2,0.3 18.2,-3.5 23.5,-12.9c6,12.6 11.4,25 17.6,37c6.1,12 12.9,23.7 19.6,35.8c-0.9,0.1 -1.8,0.2 -2.6,0.3c-7.7,0.2 -15.5,0.3 -23.2,0.5c-4.4,0.1 -6.2,1.4 -7.7,5.6c-3.3,8.9 -6.6,17.8 -9.8,26.6c-0.5,1 -0.9,1.9 -1.7,3.7Z" style="fill:none;fill-rule:nonzero;stroke:#92c9ec;stroke-width:6.06px;"/><path d="M1398.76,469.628c-3,-8 -5.7,-15.3 -8.4,-22.6c-0.9,-2.4 -1.7,-4.8 -2.6,-7.2c-1.7,-4.6 -3.3,-5.8 -8.1,-5.8l-25.9,-0c7,-12.7 13.8,-24.5 20,-36.6c6.2,-12 11.7,-24.4 17.6,-36.8c1.3,1.9 2.3,3.7 3.7,5.3c4.2,4.7 9.6,6.8 15.8,7.2c2.2,0.1 4.5,0.4 6.7,0.3c5.6,-0.3 9.7,2.3 13,6.5c2.2,2.8 4.7,5.4 7.3,7.7c1.5,1.3 1.7,2.3 0.9,4.1c-6.3,13.5 -12.2,27.1 -18.8,40.4c-6,11.8 -12.8,23.1 -19.3,34.7c-0.4,0.8 -1,1.5 -1.9,2.8" style="fill:#fff;fill-rule:nonzero;"/><path d="M1398.76,469.628c-3,-8 -5.7,-15.3 -8.4,-22.6c-0.9,-2.4 -1.7,-4.8 -2.6,-7.2c-1.7,-4.6 -3.3,-5.8 -8.1,-5.8l-25.9,-0c7,-12.7 13.8,-24.5 20,-36.6c6.2,-12 11.7,-24.4 17.6,-36.8c1.3,1.9 2.3,3.7 3.7,5.3c4.2,4.7 9.6,6.8 15.8,7.2c2.2,0.1 4.5,0.4 6.7,0.3c5.6,-0.3 9.7,2.3 13,6.5c2.2,2.8 4.7,5.4 7.3,7.7c1.5,1.3 1.7,2.3 0.9,4.1c-6.3,13.5 -12.2,27.1 -18.8,40.4c-6,11.8 -12.8,23.1 -19.3,34.7c-0.4,0.8 -1,1.5 -1.9,2.8Z" style="fill:none;fill-rule:nonzero;stroke:#92c9ec;stroke-width:6.06px;"/></g></g></svg>