<?xml version="1.0" encoding="utf-8"?>
<!-- Generator: Adobe Illustrator 24.0.0, SVG Export Plug-In . SVG Version: 6.00 Build 0)  -->
<svg version="1.1" id="Livello_1" xmlns="http://www.w3.org/2000/svg" xmlns:xlink="http://www.w3.org/1999/xlink" x="0px" y="0px"
	 viewBox="0 0 1285.3 1961.7" style="enable-background:new 0 0 1285.3 1961.7;" xml:space="preserve">
<style type="text/css">
	.st0{display:none;}
	.st1{display:inline;fill:#FFFFFF;}
	.st2{clip-path:url(#SVGID_2_);}
	.st3{clip-path:url(#SVGID_4_);fill:#EBECED;}
	.st4{clip-path:url(#SVGID_4_);fill:#DADDDE;}
	.st5{fill:#FFFFFF;}
	.st6{opacity:0.34;clip-path:url(#SVGID_6_);}
	.st7{clip-path:url(#SVGID_8_);fill:#FFFFFF;}
	.st8{clip-path:url(#SVGID_8_);fill:none;stroke:#92C9EC;stroke-width:6.06;stroke-miterlimit:10;}
</style>
<g class="st0">
	<path class="st1" d="M-15.8-444.4l2.4,0.2l-2.5,30.5l19.2,1.6l-0.2,2.2l-21.7-1.8L-15.8-444.4z"/>
	<path class="st1" d="M13.2-442l23.3,1.9l-0.2,2.2l-20.9-1.7l-1.1,12.9l18.8,1.6l-0.2,2.2l-18.8-1.6l-1.1,13.2l21.1,1.7l-0.2,2.2
		l-23.6-1.9L13.2-442z"/>
	<path class="st1" d="M57.2-438.4l2.3,0.2l20.3,30.4l2.4-28.5l2.3,0.2l-2.7,32.8l-1.8-0.2l-20.7-31l-2.4,29.1l-2.3-0.2L57.2-438.4z"
		/>
	<path class="st1" d="M91.4-419L91.4-419c0.7-9,8-16.5,17.9-15.7c9.9,0.8,15.8,9.3,15,18.2l0,0.1c-0.7,8.9-8,16.4-17.9,15.6
		C96.5-401.6,90.7-410,91.4-419z M121.9-416.4L121.9-416.4c0.7-8.2-4.7-15.3-12.8-16c-8.1-0.7-14.5,5.4-15.1,13.5l0,0.1
		c-0.7,8.1,4.7,15.2,12.8,15.9C114.9-402.3,121.2-408.3,121.9-416.4z"/>
	<path class="st1" d="M129.4-404.2l1.7-1.7c3.3,3.6,6.5,5.4,11.4,5.8c4.9,0.4,8.5-2.1,8.8-5.8l0-0.1c0.3-3.5-1.4-5.6-8.7-7.7
		c-7.7-2.2-10.7-5.2-10.3-10.1l0-0.1c0.4-4.9,5.2-8.2,11.3-7.7c4.8,0.4,7.8,2,10.9,4.9l-1.7,1.8c-2.9-2.9-5.9-4.2-9.5-4.5
		c-4.8-0.4-8.2,2.1-8.5,5.5l0,0.1c-0.3,3.5,1.3,5.7,9,8c7.5,2.2,10.4,5.2,10,9.9l0,0.1c-0.4,5.3-5.3,8.6-11.6,8
		C137-398.3,133.1-400.4,129.4-404.2z"/>
	<path class="st1" d="M172-426.6l-11.4-0.9l0.2-2.2l25.3,2.1l-0.2,2.2l-11.4-0.9l-2.5,30.5l-2.4-0.2L172-426.6z"/>
	<path class="st1" d="M193.5-427.1l13.8,1.1c4,0.3,7.2,1.9,9,4c1.4,1.7,2.2,4,2,6.3l0,0.1c-0.5,5.5-4.8,8.3-10.4,8.6l9.7,14.9
		l-3.1-0.3l-9.3-14.4l-10.7-0.9l-1.1,13.6l-2.4-0.2L193.5-427.1z M205.6-409c5.5,0.5,9.8-2,10.2-6.7l0-0.1c0.4-4.4-2.9-7.5-8.8-7.9
		l-11.2-0.9l-1.2,14.8L205.6-409z"/>
	<path class="st1" d="M227.4-424.3l23.3,1.9l-0.2,2.2l-20.9-1.7l-1.1,12.9l18.8,1.6l-0.2,2.2l-18.8-1.6l-1.1,13.2l21.1,1.7l-0.2,2.2
		l-23.6-1.9L227.4-424.3z"/>
</g>
<g class="st0">
	<path class="st1" d="M270.3-420.8l13.4,1.1c7.8,0.6,12.2,5.7,11.6,12.4l0,0.1c-0.6,7.6-6.9,11-14.2,10.4l-5.5-0.5l-0.8,9.8
		l-7.2-0.6L270.3-420.8z M281.9-403.2c3.6,0.3,5.9-1.7,6.1-4.5l0-0.1c0.3-3.2-1.8-5.1-5.4-5.4l-5.6-0.5l-0.8,10L281.9-403.2z"/>
	<path class="st1" d="M309.6-417.8l6.7,0.5l11.3,34.2l-7.5-0.6l-2.4-7.6l-13.9-1.1l-3.6,7.1l-7.4-0.6L309.6-417.8z M315.6-397.8
		l-3.5-11l-5.2,10.3L315.6-397.8z"/>
	<path class="st1" d="M335.4-415.4l15,1.2c4.2,0.3,7.3,1.8,9.3,4.1c1.7,2,2.4,4.6,2.2,7.7l0,0.1c-0.4,5.3-3.6,8.4-7.9,9.6l7,12.4
		l-8.4-0.7l-6.2-11.1l-5.7-0.5l-0.9,10.5l-7.2-0.6L335.4-415.4z M348.6-398.3c3.5,0.3,5.7-1.4,5.9-4.2l0-0.1
		c0.3-3.1-1.8-4.9-5.3-5.2l-7.2-0.6l-0.8,9.4L348.6-398.3z"/>
	<path class="st1" d="M376.3-405.3l-10-0.8l0.5-6.7l27.2,2.2l-0.5,6.7l-10-0.8l-2.2,26.1l-7.2-0.6L376.3-405.3z"/>
	<path class="st1" d="M399.6-410.1l6.7,0.5l13.7,21.5l1.7-20.2l7.1,0.6l-2.7,32.8l-6.1-0.5l-14.2-22.2l-1.7,20.8l-7.1-0.6
		L399.6-410.1z"/>
	<path class="st1" d="M436.6-407l24.7,2l-0.5,6.4l-17.6-1.5l-0.5,6.7l15.5,1.3l-0.5,6.4l-15.5-1.3l-0.6,6.9l17.8,1.5l-0.5,6.4
		l-25-2.1L436.6-407z"/>
	<path class="st1" d="M468-404.4l15,1.2c4.2,0.3,7.3,1.8,9.3,4.1c1.7,2,2.4,4.6,2.2,7.7l0,0.1c-0.4,5.3-3.6,8.4-7.9,9.6l7,12.4
		l-8.4-0.7l-6.2-11.1l-5.7-0.5l-0.9,10.5l-7.2-0.6L468-404.4z M481.2-387.3c3.5,0.3,5.7-1.4,5.9-4.2l0-0.1c0.3-3.1-1.8-4.9-5.3-5.2
		l-7.2-0.6l-0.8,9.4L481.2-387.3z"/>
	<path class="st1" d="M497.3-373.8l4.7-4.8c2.7,2.7,5.7,4.5,9.5,4.8c3,0.2,4.8-0.8,5-2.7l0-0.1c0.2-1.8-0.9-2.9-6.3-4.7
		c-6.5-2.2-10.6-4.4-10-10.9l0-0.1c0.5-5.9,5.6-9.5,12.3-8.9c4.8,0.4,8.7,2.2,11.8,5.2l-4.2,5.1c-2.7-2.3-5.5-3.7-8.3-3.9
		c-2.8-0.2-4.3,0.9-4.5,2.5l0,0.1c-0.2,2.2,1.2,3,6.7,4.9c6.5,2.3,10.1,5,9.6,10.7l0,0.1c-0.5,6.5-5.8,9.8-12.9,9.2
		C505.8-367.8,500.9-370,497.3-373.8z"/>
	<path class="st1" d="M531.8-399.2l7.2,0.6l-1.1,13l13.3,1.1l1.1-13l7.2,0.6l-2.7,32.8l-7.2-0.6l1.1-13.2l-13.3-1.1l-1.1,13.2
		l-7.2-0.6L531.8-399.2z"/>
	<path class="st1" d="M567.7-396.2l7.2,0.6l-2.7,32.8l-7.2-0.6L567.7-396.2z"/>
	<path class="st1" d="M583.2-394.9l13.4,1.1c7.8,0.6,12.2,5.7,11.6,12.4l0,0.1c-0.6,7.6-6.9,11-14.2,10.4l-5.5-0.5l-0.8,9.8
		l-7.2-0.6L583.2-394.9z M594.7-377.3c3.6,0.3,5.9-1.7,6.1-4.5l0-0.1c0.3-3.2-1.8-5.2-5.4-5.4l-5.6-0.5l-0.8,10L594.7-377.3z"/>
</g>
<g class="st0">
	<path class="st1" d="M-249.8-684.4l2.4-0.3l4.3,30.3l19.1-2.7l0.3,2.2l-21.5,3L-249.8-684.4z"/>
	<path class="st1" d="M-221-688.4l23.2-3.3l0.3,2.2l-20.8,2.9l1.8,12.8l18.7-2.6l0.3,2.2l-18.7,2.6l1.8,13.1l21-3l0.3,2.2l-23.4,3.3
		L-221-688.4z"/>
	<path class="st1" d="M-175.9-694.8l2.3-0.3l26.5,25.2l-4-28.3l2.3-0.3l4.6,32.6l-1.8,0.3l-27-25.7l4.1,28.9l-2.3,0.3L-175.9-694.8z
		"/>
	<path class="st1" d="M-138.2-683.4L-138.2-683.4c-1.3-9,4.2-17.9,14-19.2c9.9-1.4,17.4,5.6,18.7,14.5l0,0.1
		c1.2,8.9-4.2,17.8-14.1,19.2C-129.4-667.5-137-674.5-138.2-683.4z M-108-687.6L-108-687.6c-1.1-8.1-7.9-13.9-16-12.8
		c-8.1,1.1-12.9,8.5-11.8,16.5l0,0.1c1.1,8.1,7.9,13.8,16,12.7C-111.7-672.2-106.9-679.6-108-687.6z"/>
	<path class="st1" d="M-97.9-677.4l1.3-2c4,2.8,7.6,3.9,12.4,3.2c4.9-0.7,7.9-3.9,7.3-7.6l0-0.1c-0.5-3.4-2.6-5.2-10.2-5.6
		c-8-0.5-11.6-2.7-12.3-7.6l0-0.1c-0.7-4.8,3.2-9.2,9.3-10c4.7-0.7,8,0.2,11.7,2.4l-1.3,2.1c-3.4-2.2-6.7-2.8-10.2-2.3
		c-4.8,0.7-7.6,3.9-7.1,7.3l0,0.1c0.5,3.4,2.5,5.3,10.5,5.8c7.8,0.5,11.3,2.7,12,7.5l0,0.1c0.7,5.3-3.3,9.5-9.5,10.4
		C-89.3-673.3-93.5-674.4-97.9-677.4z"/>
	<path class="st1" d="M-61.3-708.6l-11.4,1.6l-0.3-2.2l25.1-3.5l0.3,2.2l-11.4,1.6l4.3,30.3l-2.4,0.3L-61.3-708.6z"/>
	<path class="st1" d="M-40.4-713.8l13.7-1.9c4-0.6,7.4,0.2,9.6,1.9c1.8,1.3,3,3.4,3.3,5.7l0,0.1c0.8,5.4-2.8,9.1-8.2,10.6L-9.3-685
		l-3.1,0.4l-12.3-12l-10.7,1.5l1.9,13.5l-2.4,0.3L-40.4-713.8z M-24.7-698.8c5.4-0.8,9.1-4.1,8.4-8.8l0-0.1
		c-0.6-4.4-4.4-6.6-10.4-5.8l-11.1,1.6l2.1,14.7L-24.7-698.8z"/>
	<path class="st1" d="M-6.8-718.5l23.2-3.3l0.3,2.2l-20.8,2.9l1.8,12.8l18.7-2.6l0.3,2.2l-18.7,2.6l1.8,13.1l21-2.9l0.3,2.2
		L-2.2-686L-6.8-718.5z"/>
</g>
<g class="st0">
	<path class="st1" d="M39-696.6l3.5-5.7c3.3,2,6.6,3.1,10.3,2.6c2.9-0.4,4.5-1.8,4.3-3.7l0-0.1c-0.3-1.8-1.5-2.6-7.1-3.2
		c-6.8-0.8-11.3-2-12.2-8.4l0-0.1c-0.8-5.9,3.4-10.5,10-11.4c4.7-0.7,9,0.3,12.7,2.4l-3,5.9c-3.2-1.6-6.2-2.4-8.9-2
		c-2.7,0.4-4,1.8-3.8,3.4l0,0.1c0.3,2.1,1.8,2.6,7.6,3.3c6.9,0.8,10.9,2.6,11.7,8.3l0,0.1c0.9,6.5-3.5,10.8-10.5,11.8
		C48.6-692.6,43.4-693.7,39-696.6z"/>
	<path class="st1" d="M68-712.3L68-712.3c-1.3-9.4,4.9-18,15-19.4c10.1-1.4,18.3,5.1,19.6,14.3l0,0.1c1.3,9.3-4.9,17.9-15,19.3
		C77.6-696.6,69.3-703.1,68-712.3z M95.1-716.2L95.1-716.2c-0.8-5.7-5.5-9.8-11.3-8.9c-5.8,0.8-9.1,5.9-8.3,11.5l0,0.1
		c0.8,5.6,5.5,9.7,11.3,8.9C92.5-705.5,95.9-710.6,95.1-716.2z"/>
	<path class="st1" d="M106.7-734.5l7.2-1l3.7,26.1l16.2-2.3l0.9,6.5l-23.4,3.3L106.7-734.5z"/>
	<path class="st1" d="M136.7-719.7l-2.6-18.6l7.2-1l2.6,18.4c0.7,5.3,3.8,7.7,8.2,7.1c4.4-0.6,6.7-3.6,5.9-8.8l-2.6-18.7l7.2-1
		l2.6,18.4c1.4,9.9-3.5,15.5-12.2,16.7C144.1-706,138.1-710.1,136.7-719.7z"/>
	<path class="st1" d="M172.6-716.1l15-23.4l-17.4,2.4l-0.9-6.3L196-747l0.8,5.4l-15,23.4l17.9-2.5l0.9,6.3l-27.1,3.8L172.6-716.1z"
		/>
	<path class="st1" d="M203.1-748l7.2-1l4.6,32.6l-7.2,1L203.1-748z"/>
	<path class="st1" d="M219.2-733.6L219.2-733.6c-1.3-9.4,4.9-18,15-19.4s18.3,5.1,19.6,14.3l0,0.1c1.3,9.3-4.9,17.9-15,19.3
		S220.5-724.3,219.2-733.6z M246.4-737.4L246.4-737.4c-0.8-5.7-5.5-9.8-11.3-8.9c-5.8,0.8-9.1,5.9-8.3,11.5l0,0.1
		c0.8,5.6,5.5,9.7,11.3,8.9C243.8-726.7,247.2-731.8,246.4-737.4z"/>
	<path class="st1" d="M257.9-755.7l6.6-0.9l18.1,17.9l-2.8-20.1l7.1-1l4.6,32.6l-6.1,0.9l-18.7-18.5l2.9,20.7l-7.1,1L257.9-755.7z"
		/>
	<path class="st1" d="M295-761l7.2-1l4.6,32.6l-7.2,1L295-761z"/>
	<path class="st1" d="M324.6-765.1l7.2-1l4.6,32.6l-7.2,1L324.6-765.1z"/>
	<path class="st1" d="M340-767.3l6.6-0.9l18.1,17.9l-2.8-20.1l7.1-1l4.6,32.6l-6.1,0.9l-18.7-18.5l2.9,20.7l-7.1,1L340-767.3z"/>
	<path class="st1" d="M391.5-757.8L391.5-757.8c-1.3-9.4,4.6-17.9,14.6-19.3c6.1-0.9,10.1,0.7,13.6,3.2l-3.8,5.9
		c-2.8-1.9-5.6-3-8.8-2.5c-5.5,0.8-8.8,5.9-8,11.5l0,0.1c0.8,5.6,5.3,9.7,10.9,8.9c3.7-0.5,5.8-2.3,8-5l5.2,4
		c-2.8,4.1-6.3,6.8-12.5,7.7C401-742.1,392.9-748.5,391.5-757.8z"/>
	<path class="st1" d="M425-779.2l7.2-1l3.7,26.1l16.2-2.3l0.9,6.5l-23.4,3.3L425-779.2z"/>
	<path class="st1" d="M452.9-766.4L452.9-766.4c-1.3-9.4,4.9-18,15-19.4s18.3,5.1,19.6,14.3l0,0.1c1.3,9.3-4.9,17.9-15,19.3
		C462.5-750.7,454.2-757.2,452.9-766.4z M480-770.3L480-770.3c-0.8-5.7-5.5-9.8-11.3-8.9c-5.8,0.8-9.1,5.9-8.3,11.5l0,0.1
		c0.8,5.6,5.5,9.7,11.3,8.9C477.4-759.5,480.8-764.7,480-770.3z"/>
	<path class="st1" d="M493.7-769.9l-2.6-18.6l7.2-1l2.6,18.4c0.7,5.3,3.8,7.7,8.2,7.1c4.4-0.6,6.7-3.6,5.9-8.8l-2.6-18.7l7.2-1
		l2.6,18.4c1.4,9.9-3.5,15.5-12.2,16.7C501.1-756.2,495-760.3,493.7-769.9z"/>
	<path class="st1" d="M526.8-793.5l12.7-1.8c10.2-1.4,18.3,4.6,19.6,13.8l0,0.1c1.3,9.2-4.8,17.3-15,18.7l-12.7,1.8L526.8-793.5z
		 M543.1-769.2c5.9-0.8,9.3-5.3,8.5-11.1l0-0.1c-0.8-5.8-5.3-9.3-11.2-8.4l-5.5,0.8l2.8,19.6L543.1-769.2z"/>
</g>
<g>
	<defs>
		<rect id="SVGID_1_" x="-646.2" width="1931.5" height="1961.7"/>
	</defs>
	<clipPath id="SVGID_2_">
		<use xlink:href="#SVGID_1_"  style="overflow:visible;"/>
	</clipPath>
	<g class="st2">
		<defs>
			<rect id="SVGID_3_" x="-646.2" y="0" width="1931.5" height="1961.7"/>
		</defs>
		<clipPath id="SVGID_4_">
			<use xlink:href="#SVGID_3_"  style="overflow:visible;"/>
		</clipPath>
		<path class="st3" d="M-409.1,337.5C-585.3,390.6-685.1,576.4-632,752.6l293,972c53.1,176.2,238.9,275.9,415.1,222.8l972.1-293
			c176.1-53.1,275.9-238.9,222.8-415.1l-293-972C924.9,91.1,739-8.7,562.9,44.4L-409.1,337.5z"/>
		<path class="st4" d="M1271,1239.3L978,267.2c-47.1-156.2-198.5-252-355-234.8C750.4,372.6,1037.3,1452.9-255.6,1864
			c84,83.8,210.2,120.1,331.7,83.4l972-293C1224.4,1601.3,1324.1,1415.4,1271,1239.3"/>
	</g>
	<g class="st2">
		<path class="st5" d="M90.7,203.4l2.3-0.7l8.8,29.3l18.5-5.6l0.7,2.2l-20.8,6.3L90.7,203.4z"/>
		<path class="st5" d="M118.5,195l22.4-6.8l0.7,2.2l-20.1,6l3.7,12.4l18-5.4l0.7,2.2l-18,5.4l3.8,12.6l20.3-6.1l0.7,2.2l-22.6,6.8
			L118.5,195z"/>
		<path class="st5" d="M162.2,181.9l2.2-0.7l30,20.9l-8.3-27.4l2.2-0.7l9.5,31.5l-1.8,0.5l-30.6-21.3l8.4,28l-2.2,0.7L162.2,181.9z"
			/>
		<path class="st5" d="M201.1,187.4L201.1,187.4c-2.6-8.7,1.4-18.3,10.9-21.2s18.1,2.8,20.7,11.4l0,0.1c2.6,8.6-1.4,18.2-11,21.1
			C212.2,201.7,203.7,196,201.1,187.4z M230.3,178.6L230.3,178.6c-2.4-7.9-10-12.6-17.8-10.2c-7.8,2.3-11.5,10.3-9.1,18.1l0,0.1
			c2.3,7.8,9.9,12.5,17.7,10.1C229,194.4,232.7,186.4,230.3,178.6z"/>
		<path class="st5" d="M241.9,187.2l1-2.2c4.4,2.2,8.1,2.7,12.7,1.3c4.7-1.4,7.2-5.1,6.1-8.7l0-0.1c-1-3.3-3.3-4.7-10.9-4
			c-8,0.7-11.9-0.9-13.3-5.7l0-0.1c-1.4-4.7,1.8-9.6,7.6-11.3c4.6-1.4,8-1,12,0.6l-0.9,2.3c-3.7-1.7-7-1.8-10.5-0.7
			c-4.6,1.4-6.9,5-5.9,8.3l0,0.1c1,3.3,3.3,4.8,11.3,4.1c7.7-0.7,11.6,1,13,5.6l0,0.1c1.5,5.1-1.8,9.9-7.8,11.7
			C251,189.9,246.7,189.4,241.9,187.2z"/>
		<path class="st5" d="M273.3,150.7l-11,3.3l-0.7-2.2l24.3-7.3l0.7,2.2l-11,3.3l8.8,29.3l-2.3,0.7L273.3,150.7z"/>
		<path class="st5" d="M293.1,142.4l13.2-4c3.9-1.2,7.3-0.9,9.8,0.4c1.9,1,3.5,2.9,4.1,5.1l0,0.1c1.6,5.3-1.4,9.5-6.5,11.8
			l14.5,10.3l-3,0.9l-14-10l-10.3,3.1l3.9,13l-2.3,0.7L293.1,142.4z M311,154.8c5.3-1.6,8.4-5.4,7-10l0-0.1
			c-1.3-4.2-5.4-5.9-11.1-4.2l-10.8,3.2l4.3,14.2L311,154.8z"/>
		<path class="st5" d="M325.6,132.6l22.4-6.8l0.7,2.2l-20.1,6l3.7,12.4l18-5.4l0.7,2.2l-18,5.4l3.8,12.6l20.3-6.1l0.7,2.2l-22.6,6.8
			L325.6,132.6z"/>
	</g>
	<g class="st2">
		<path class="st5" d="M368.3,119.7l14.4-4.3c4-1.2,7.4-1,10.1,0.4c2.3,1.2,4,3.4,4.9,6.4l0,0.1c1.5,5.1-0.2,9.1-3.8,11.8L405,143
			l-8.1,2.4l-9.8-8l-5.4,1.6l3,10.1l-6.9,2.1L368.3,119.7z M386.9,130.8c3.4-1,4.8-3.4,4-6.1l0-0.1c-0.9-3-3.4-3.9-6.8-2.9l-6.9,2.1
			l2.7,9L386.9,130.8z"/>
		<path class="st5" d="M400.8,109.9l23.8-7.2l1.9,6.2l-16.9,5.1l1.9,6.4l14.8-4.5l1.9,6.2l-14.8,4.5l2,6.6l17.1-5.2l1.9,6.2l-24,7.2
			L400.8,109.9z"/>
		<path class="st5" d="M431,100.8l24-7.2l1.9,6.3l-17.1,5.1l2,6.7l15-4.5l1.9,6.3l-15,4.5l3.7,12.2l-6.9,2.1L431,100.8z"/>
		<path class="st5" d="M460.5,91.9l23.8-7.2l1.9,6.2L469.3,96l1.9,6.4l14.8-4.5l1.9,6.2l-14.8,4.5l2,6.6l17.1-5.2l1.9,6.2l-24,7.2
			L460.5,91.9z"/>
		<path class="st5" d="M490.7,82.8l14.4-4.3c4-1.2,7.4-1,10.1,0.4c2.3,1.2,4,3.4,4.9,6.4l0,0.1c1.5,5.1-0.2,9.1-3.8,11.8l11.1,8.9
			l-8.1,2.4l-9.8-8l-5.4,1.6l3,10.1l-6.9,2.1L490.7,82.8z M509.2,93.9c3.4-1,4.8-3.4,4-6.1l0-0.1c-0.9-3-3.4-3.9-6.8-2.9l-6.9,2.1
			l2.7,9L509.2,93.9z"/>
		<path class="st5" d="M523.2,73l23.8-7.2l1.9,6.2l-16.9,5.1l1.9,6.4l14.8-4.5l1.9,6.2l-14.8,4.5l2,6.6l17.1-5.2l1.9,6.2l-24,7.2
			L523.2,73z"/>
		<path class="st5" d="M553.4,63.9l6.4-1.9L580.3,77l-5.8-19.4l6.8-2.1l9.5,31.5l-5.9,1.8l-21.3-15.4l6,20l-6.8,2.1L553.4,63.9z"/>
		<path class="st5" d="M595.9,79.7l11.2-25.4l-16.8,5.1l-1.8-6.1l25.7-7.7l1.6,5.3l-11.2,25.4l17.3-5.2l1.8,6.1L597.4,85L595.9,79.7
			z"/>
		<path class="st5" d="M620.8,43.6l23.8-7.2l1.9,6.2l-16.9,5.1l1.9,6.4l14.8-4.5l1.9,6.2l-14.8,4.5l2,6.6l17.1-5.2l1.9,6.2l-24,7.2
			L620.8,43.6z"/>
	</g>
	<g class="st2">
		<defs>
			<rect id="SVGID_5_" x="-646.2" y="0" width="1931.5" height="1961.7"/>
		</defs>
		<clipPath id="SVGID_6_">
			<use xlink:href="#SVGID_5_"  style="overflow:visible;"/>
		</clipPath>
		<g class="st6">
			<g>
				<defs>
					<rect id="SVGID_7_" x="685.3" y="181.6" width="283" height="326.2"/>
				</defs>
				<clipPath id="SVGID_8_">
					<use xlink:href="#SVGID_7_"  style="overflow:visible;"/>
				</clipPath>
				<path class="st7" d="M818.8,326.8c-1.6-1.9-2.8-3.6-4.2-5c-8.9-9-17.8-17.9-26.8-26.8c-2.9-2.9-6.7-2.9-9.3-0.3
					c-2.5,2.5-2.6,6.3,0.1,9c12,12.1,24.1,24.2,36.3,36.3c3,3,6.7,2.7,9.6-0.4c0.8-0.8,1.5-1.7,2.2-2.5
					c15.8-18.7,31.7-37.4,47.5-56.1c6.5-7.7,13.1-15.3,19.7-22.9c0.7-0.8,1.5-1.7,2.1-2.6c2.4-3.3,2.1-6.9-0.7-9.3
					c-2.8-2.3-6.7-2-9.2,1c-7.5,8.8-14.9,17.7-22.4,26.5c-7.6,9-15.2,18-22.8,26.9C833.9,309.2,826.7,317.6,818.8,326.8
					 M827.1,379.7c3.9-0.3,7.7-0.5,11.5-1.1c3.1-0.4,6.2-1.1,9.2-2c43.2-12.6,65.9-58.1,50.1-100.3c-2-5.4-5.3-7.5-9.2-6.1
					c-3.9,1.4-4.7,5.2-2.8,10.6c8.2,22.8,5.1,44.2-10.3,62.9c-15.3,18.5-35.6,26.1-59.2,21.9c-25.1-4.5-42.2-19.6-49.5-44
					c-7.3-24.7-1-46.5,17.8-64.3c11.6-11,25.7-16.4,41.6-16.6c14.9-0.2,28.3,4.4,40,13.6c2,1.6,4.1,2.7,6.7,2
					c2.5-0.6,4.1-2.2,4.7-4.8c0.7-3.1-0.8-5.3-3.1-7.1c-17.8-13.8-37.8-19.1-60-15.4c-38.7,6.5-66.3,41.8-63,80.4
					C754.9,349.3,787.4,379.4,827.1,379.7 M728.7,347.3c0.7-4.2,1.3-8.4,2-12.7c1.1-6.8-0.8-12.9-4.8-18.4c-1.8-2.6-3.6-5.2-5.5-7.7
					c-2.4-3.3-2.4-6.6,0-9.9c1.7-2.3,3.3-4.7,5-6.9c5.1-6.5,6.6-13.8,4.9-21.9c-0.6-2.8-1-5.6-1.5-8.4c-0.7-3.8,0.6-6.6,4-8.4
					c3-1.6,6.1-3.4,9.1-5c6.1-3.3,10.2-8.3,12-15.1c1-3.4,2-6.8,3-10.3c1.1-3.5,3.4-5.3,7.2-5.5c4.2-0.2,8.3-0.5,12.5-0.9
					c5.7-0.5,10.5-3.1,14.4-7.3c2.6-2.8,5.1-5.6,7.6-8.4c2.7-3.1,5.9-3.8,9.6-2.1c2.7,1.2,5.5,2.3,8.2,3.5c7.2,3.2,14.4,3.2,21.6,0
					c3-1.3,6-2.6,9-3.7c3-1.2,5.8-0.7,8.1,1.7c2.3,2.5,4.6,4.9,6.7,7.5c5.1,6.1,11.7,9,19.5,9.2c3.3,0.1,6.5,0.4,9.7,0.6
					c2.9,0.2,5,1.7,5.9,4.5c1,3,2,6,2.7,9.1c2,8.2,6.6,14.3,14.2,18.1c2.6,1.3,5.2,2.8,7.8,4.3c3.1,1.7,4.4,4.4,3.8,7.9
					c-0.5,3-0.9,6-1.5,9c-1.6,7.8-0.1,14.9,4.8,21.3c1.7,2.2,3.2,4.5,4.9,6.7c2.8,3.6,2.8,7.2,0,10.9c-1.5,2-2.9,4.2-4.5,6.2
					c-5.3,6.7-6.9,14.1-5.1,22.4c0.6,2.9,1,5.8,1.4,8.7c0.5,3.4-0.7,6-3.7,7.6c-3.2,1.8-6.4,3.6-9.6,5.4
					c-7.2,4.1-11.3,10.2-12.6,18.4c-0.5,3.3-2,6.4-3.1,9.5c-0.3,0.8-1.2,1.7-1.9,1.8c-3.8,0.6-7.6,1.3-11.4,1.4
					c-7.1,0.2-13.8,1.5-19,6.8c-3,3.1-5.8,6.3-8.7,9.4c-2.7,3-5.7,3.6-9.3,2c-2.9-1.3-5.8-2.4-8.7-3.7c-6.8-2.9-13.6-2.9-20.5,0
					c-3,1.3-6,2.5-9,3.8c-3.5,1.5-6.5,1-9.1-1.9c-2-2.3-4.1-4.5-6.1-6.8c-4.8-5.7-10.9-9.1-18.5-9.4c-3-0.1-6.1-0.4-9.1-0.4
					c-4.6,0.1-7.3-1.6-8.7-6c-0.8-2.6-1.3-5.3-1.9-8c-1.7-7-5.2-12.8-11.6-16.5c-3.6-2.1-7.3-4.1-10.9-6.2
					C729.7,352.3,728.4,350.2,728.7,347.3"/>
				<path class="st8" d="M818.8,326.8c-1.6-1.9-2.8-3.6-4.2-5c-8.9-9-17.8-17.9-26.8-26.8c-2.9-2.9-6.7-2.9-9.3-0.3
					c-2.5,2.5-2.6,6.3,0.1,9c12,12.1,24.1,24.2,36.3,36.3c3,3,6.7,2.7,9.6-0.4c0.8-0.8,1.5-1.7,2.2-2.5
					c15.8-18.7,31.7-37.4,47.5-56.1c6.5-7.7,13.1-15.3,19.7-22.9c0.7-0.8,1.5-1.7,2.1-2.6c2.4-3.3,2.1-6.9-0.7-9.3
					c-2.8-2.3-6.7-2-9.2,1c-7.5,8.8-14.9,17.7-22.4,26.5c-7.6,9-15.2,18-22.8,26.9C833.9,309.2,826.7,317.6,818.8,326.8z
					 M827.1,379.7c3.9-0.3,7.7-0.5,11.5-1.1c3.1-0.4,6.2-1.1,9.2-2c43.2-12.6,65.9-58.1,50.1-100.3c-2-5.4-5.3-7.5-9.2-6.1
					c-3.9,1.4-4.7,5.2-2.8,10.6c8.2,22.8,5.1,44.2-10.3,62.9c-15.3,18.5-35.6,26.1-59.2,21.9c-25.1-4.5-42.2-19.6-49.5-44
					c-7.3-24.7-1-46.5,17.8-64.3c11.6-11,25.7-16.4,41.6-16.6c14.9-0.2,28.3,4.4,40,13.6c2,1.6,4.1,2.7,6.7,2
					c2.5-0.6,4.1-2.2,4.7-4.8c0.7-3.1-0.8-5.3-3.1-7.1c-17.8-13.8-37.8-19.1-60-15.4c-38.7,6.5-66.3,41.8-63,80.4
					C754.9,349.3,787.4,379.4,827.1,379.7z M728.7,347.3c0.7-4.2,1.3-8.4,2-12.7c1.1-6.8-0.8-12.9-4.8-18.4
					c-1.8-2.6-3.6-5.2-5.5-7.7c-2.4-3.3-2.4-6.6,0-9.9c1.7-2.3,3.3-4.7,5-6.9c5.1-6.5,6.6-13.8,4.9-21.9c-0.6-2.8-1-5.6-1.5-8.4
					c-0.7-3.8,0.6-6.6,4-8.4c3-1.6,6.1-3.4,9.1-5c6.1-3.3,10.2-8.3,12-15.1c1-3.4,2-6.8,3-10.3c1.1-3.5,3.4-5.3,7.2-5.5
					c4.2-0.2,8.3-0.5,12.5-0.9c5.7-0.5,10.5-3.1,14.4-7.3c2.6-2.8,5.1-5.6,7.6-8.4c2.7-3.1,5.9-3.8,9.6-2.1c2.7,1.2,5.5,2.3,8.2,3.5
					c7.2,3.2,14.4,3.2,21.6,0c3-1.3,6-2.6,9-3.7c3-1.2,5.8-0.7,8.1,1.7c2.3,2.5,4.6,4.9,6.7,7.5c5.1,6.1,11.7,9,19.5,9.2
					c3.3,0.1,6.5,0.4,9.7,0.6c2.9,0.2,5,1.7,5.9,4.5c1,3,2,6,2.7,9.1c2,8.2,6.6,14.3,14.2,18.1c2.6,1.3,5.2,2.8,7.8,4.3
					c3.1,1.7,4.4,4.4,3.8,7.9c-0.5,3-0.9,6-1.5,9c-1.6,7.8-0.1,14.9,4.8,21.3c1.7,2.2,3.2,4.5,4.9,6.7c2.8,3.6,2.8,7.2,0,10.9
					c-1.5,2-2.9,4.2-4.5,6.2c-5.3,6.7-6.9,14.1-5.1,22.4c0.6,2.9,1,5.8,1.4,8.7c0.5,3.4-0.7,6-3.7,7.6c-3.2,1.8-6.4,3.6-9.6,5.4
					c-7.2,4.1-11.3,10.2-12.6,18.4c-0.5,3.3-2,6.4-3.1,9.5c-0.3,0.8-1.2,1.7-1.9,1.8c-3.8,0.6-7.6,1.3-11.4,1.4
					c-7.1,0.2-13.8,1.5-19,6.8c-3,3.1-5.8,6.3-8.7,9.4c-2.7,3-5.7,3.6-9.3,2c-2.9-1.3-5.8-2.4-8.7-3.7c-6.8-2.9-13.6-2.9-20.5,0
					c-3,1.3-6,2.5-9,3.8c-3.5,1.5-6.5,1-9.1-1.9c-2-2.3-4.1-4.5-6.1-6.8c-4.8-5.7-10.9-9.1-18.5-9.4c-3-0.1-6.1-0.4-9.1-0.4
					c-4.6,0.1-7.3-1.6-8.7-6c-0.8-2.6-1.3-5.3-1.9-8c-1.7-7-5.2-12.8-11.6-16.5c-3.6-2.1-7.3-4.1-10.9-6.2
					C729.7,352.3,728.4,350.2,728.7,347.3z"/>
				<path class="st7" d="M901.6,500c-4.9-8.5-9.7-16-13.6-23.9c-8.9-17.8-17.3-35.9-26-53.9c-0.9-1.9-0.8-3.1,0.9-4.6
					c3.1-2.8,5.8-6,8.6-9.1c2.7-3.1,5.9-4.9,10.1-4.9c1.4,0,2.8-0.3,4.3-0.2c10.2,0.3,18.2-3.5,23.5-12.9c6,12.6,11.4,25,17.6,37
					c6.1,12,12.9,23.7,19.6,35.8c-0.9,0.1-1.8,0.2-2.6,0.3c-7.7,0.2-15.5,0.3-23.2,0.5c-4.4,0.1-6.2,1.4-7.7,5.6
					c-3.3,8.9-6.6,17.8-9.8,26.6C902.8,497.3,902.4,498.2,901.6,500"/>
				<path class="st8" d="M901.6,500c-4.9-8.5-9.7-16-13.6-23.9c-8.9-17.8-17.3-35.9-26-53.9c-0.9-1.9-0.8-3.1,0.9-4.6
					c3.1-2.8,5.8-6,8.6-9.1c2.7-3.1,5.9-4.9,10.1-4.9c1.4,0,2.8-0.3,4.3-0.2c10.2,0.3,18.2-3.5,23.5-12.9c6,12.6,11.4,25,17.6,37
					c6.1,12,12.9,23.7,19.6,35.8c-0.9,0.1-1.8,0.2-2.6,0.3c-7.7,0.2-15.5,0.3-23.2,0.5c-4.4,0.1-6.2,1.4-7.7,5.6
					c-3.3,8.9-6.6,17.8-9.8,26.6C902.8,497.3,902.4,498.2,901.6,500z"/>
				<path class="st7" d="M752.5,499.8c-3-8-5.7-15.3-8.4-22.6c-0.9-2.4-1.7-4.8-2.6-7.2c-1.7-4.6-3.3-5.8-8.1-5.8
					c-8.4,0-16.9,0-25.9,0c7-12.7,13.8-24.5,20-36.6c6.2-12,11.7-24.4,17.6-36.8c1.3,1.9,2.3,3.7,3.7,5.3c4.2,4.7,9.6,6.8,15.8,7.2
					c2.2,0.1,4.5,0.4,6.7,0.3c5.6-0.3,9.7,2.3,13,6.5c2.2,2.8,4.7,5.4,7.3,7.7c1.5,1.3,1.7,2.3,0.9,4.1
					c-6.3,13.5-12.2,27.1-18.8,40.4c-6,11.8-12.8,23.1-19.3,34.7C754,497.8,753.4,498.5,752.5,499.8"/>
				<path class="st8" d="M752.5,499.8c-3-8-5.7-15.3-8.4-22.6c-0.9-2.4-1.7-4.8-2.6-7.2c-1.7-4.6-3.3-5.8-8.1-5.8
					c-8.4,0-16.9,0-25.9,0c7-12.7,13.8-24.5,20-36.6c6.2-12,11.7-24.4,17.6-36.8c1.3,1.9,2.3,3.7,3.7,5.3c4.2,4.7,9.6,6.8,15.8,7.2
					c2.2,0.1,4.5,0.4,6.7,0.3c5.6-0.3,9.7,2.3,13,6.5c2.2,2.8,4.7,5.4,7.3,7.7c1.5,1.3,1.7,2.3,0.9,4.1
					c-6.3,13.5-12.2,27.1-18.8,40.4c-6,11.8-12.8,23.1-19.3,34.7C754,497.8,753.4,498.5,752.5,499.8z"/>
			</g>
		</g>
	</g>
</g>
</svg>
