<?xml version="1.0" encoding="utf-8"?>
<!-- Generator: Adobe Illustrator 24.0.0, SVG Export Plug-In . SVG Version: 6.00 Build 0)  -->
<svg version="1.1" id="Livello_1" xmlns="http://www.w3.org/2000/svg" xmlns:xlink="http://www.w3.org/1999/xlink" x="0px" y="0px"
	 viewBox="0 0 2362.4 2725.5" style="enable-background:new 0 0 2362.4 2725.5;" xml:space="preserve">
<style type="text/css">
	.st0{fill:#EBECED;}
	.st1{fill:#DADDDE;}
	.st2{fill:#D3E4F5;}
	.st3{fill:#B2D1ED;}
	.st4{fill:#FFFFFF;}
</style>
<g>
	<path class="st0" d="M872.6,183.7c-169.9,23.9-288.3,181-264.5,350.9l131.8,937.7c23.9,169.9,181,288.3,350.9,264.5l937.7-131.8
		c169.9-23.9,288.3-181,264.4-350.9l-131.8-937.7c-23.9-169.9-181-288.3-350.9-264.5L872.6,183.7z"/>
	<path class="st1" d="M2293,1254.1l-131.8-937.7c-21.2-150.7-147.1-260.6-293.9-267c69,331.7,179.8,1368.4-1070.5,1563.3
		c65.5,89.2,176.6,140.6,293.9,124.1l937.7-131.8C2198.5,1581.1,2316.9,1424,2293,1254.1"/>
	<path class="st2" d="M909.3,404.5C725.9,389.3,565,525.7,549.8,709l-83.6,1011.8c-15.2,183.4,121.2,344.3,304.6,359.4l1011.8,83.6
		c183.3,15.2,344.3-121.2,359.4-304.6l83.6-1011.8c15.2-183.4-121.2-344.3-304.5-359.4L909.3,404.5z"/>
	<path class="st3" d="M2142,1859.3l83.6-1011.8c13.4-162.6-92.3-307.2-244.3-348.6c-6.2,363.2-135.1,1473.5-1488.7,1382.1
		c47.4,108.8,151.5,188.7,278.1,199.2l1011.8,83.6C1965.9,2179,2126.9,2042.7,2142,1859.3"/>
	<path class="st0" d="M276.1,1067.7C100,1120.8,0.2,1306.6,53.3,1482.8l293,972c53.1,176.2,238.9,275.9,415.1,222.8l972.1-293
		c176.1-53.1,275.9-238.9,222.8-415.1l-293-972c-53.1-176.2-238.9-275.9-415.1-222.8L276.1,1067.7z"/>
	<path class="st1" d="M1956.3,1969.5l-293-972.1c-47.1-156.2-198.5-252-355-234.8c127.4,340.2,414.3,1420.5-878.5,1831.6
		c84,83.8,210.2,120.1,331.7,83.4l972-293C1909.7,2331.5,2009.4,2145.7,1956.3,1969.5"/>
</g>
<g>
	<path class="st4" d="M776,933.7l2.3-0.7l8.8,29.3l18.5-5.6l0.7,2.2l-20.8,6.3L776,933.7z"/>
	<path class="st4" d="M803.8,925.3l22.4-6.8l0.7,2.2l-20.1,6l3.7,12.4l18-5.4l0.7,2.2l-18,5.4l3.8,12.6l20.3-6.1l0.7,2.2l-22.6,6.8
		L803.8,925.3z"/>
	<path class="st4" d="M847.5,912.1l2.2-0.7l30,20.9l-8.3-27.4l2.2-0.7l9.5,31.5l-1.8,0.5l-30.6-21.3l8.4,28l-2.2,0.7L847.5,912.1z"
		/>
	<path class="st4" d="M886.4,917.7L886.4,917.7c-2.6-8.7,1.4-18.3,10.9-21.2c9.5-2.9,18.1,2.8,20.7,11.4l0,0.1
		c2.6,8.6-1.4,18.2-11,21.1C897.5,932,889,926.2,886.4,917.7z M915.6,908.8L915.6,908.8c-2.4-7.9-10-12.6-17.8-10.2
		c-7.8,2.3-11.5,10.3-9.1,18.1l0,0.1c2.3,7.8,9.9,12.5,17.7,10.1C914.3,924.6,918,916.6,915.6,908.8z"/>
	<path class="st4" d="M927.2,917.4l1-2.2c4.4,2.2,8.1,2.7,12.7,1.3c4.7-1.4,7.2-5.1,6.1-8.7l0-0.1c-1-3.3-3.3-4.7-10.9-4
		c-8,0.7-11.9-0.9-13.3-5.7l0-0.1c-1.4-4.7,1.8-9.6,7.6-11.3c4.6-1.4,8-1,12,0.6l-0.9,2.3c-3.7-1.7-7-1.8-10.5-0.7
		c-4.6,1.4-6.9,5-5.9,8.3l0,0.1c1,3.3,3.3,4.8,11.3,4.1c7.7-0.7,11.6,1,13,5.6l0,0.1c1.5,5.1-1.8,9.9-7.8,11.7
		C936.3,920.2,932,919.7,927.2,917.4z"/>
	<path class="st4" d="M958.6,881l-11,3.3l-0.7-2.2l24.3-7.3l0.7,2.2l-11,3.3l8.8,29.3l-2.3,0.7L958.6,881z"/>
	<path class="st4" d="M978.4,872.6l13.2-4c3.9-1.2,7.3-0.9,9.8,0.4c1.9,1,3.5,2.9,4.1,5.1l0,0.1c1.6,5.3-1.4,9.5-6.5,11.8l14.5,10.3
		l-3,0.9l-14-10l-10.3,3.1l3.9,13l-2.3,0.7L978.4,872.6z M996.3,885.1c5.3-1.6,8.4-5.4,7-10l0-0.1c-1.3-4.2-5.4-5.9-11.1-4.2
		l-10.8,3.2l4.3,14.2L996.3,885.1z"/>
	<path class="st4" d="M1010.9,862.8l22.4-6.8l0.7,2.2l-20.1,6l3.7,12.4l18-5.4l0.7,2.2l-18,5.4l3.8,12.6l20.3-6.1l0.7,2.2l-22.6,6.8
		L1010.9,862.8z"/>
</g>
<g>
	<path class="st4" d="M1053.6,850l14.4-4.3c4-1.2,7.4-1,10.1,0.4c2.3,1.2,4,3.4,4.9,6.4l0,0.1c1.5,5.1-0.2,9.1-3.8,11.8l11.1,8.9
		l-8.1,2.4l-9.8-8l-5.4,1.6l3,10.1l-6.9,2.1L1053.6,850z M1072.2,861.1c3.4-1,4.8-3.4,4-6.1l0-0.1c-0.9-3-3.4-3.9-6.8-2.9l-6.9,2.1
		l2.7,9L1072.2,861.1z"/>
	<path class="st4" d="M1086.1,840.2l23.8-7.2l1.9,6.2l-16.9,5.1l1.9,6.4l14.8-4.5l1.9,6.2l-14.8,4.5l2,6.6l17.1-5.2l1.9,6.2l-24,7.2
		L1086.1,840.2z"/>
	<path class="st4" d="M1116.3,831.1l24-7.2l1.9,6.3l-17.1,5.1l2,6.7l15-4.5l1.9,6.3l-15,4.5l3.7,12.2l-6.9,2.1L1116.3,831.1z"/>
	<path class="st4" d="M1145.8,822.2l23.8-7.2l1.9,6.2l-16.9,5.1l1.9,6.4l14.8-4.5l1.9,6.2l-14.8,4.5l2,6.6l17.1-5.2l1.9,6.2l-24,7.2
		L1145.8,822.2z"/>
	<path class="st4" d="M1176,813.1l14.4-4.3c4-1.2,7.4-1,10.1,0.4c2.3,1.2,4,3.4,4.9,6.4l0,0.1c1.5,5.1-0.2,9.1-3.8,11.8l11.1,8.9
		l-8.1,2.4l-9.8-8l-5.4,1.6l3,10.1l-6.9,2.1L1176,813.1z M1194.5,824.2c3.4-1,4.8-3.4,4-6.1l0-0.1c-0.9-3-3.4-3.9-6.8-2.9l-6.9,2.1
		l2.7,9L1194.5,824.2z"/>
	<path class="st4" d="M1208.5,803.3l23.8-7.2l1.9,6.2l-16.9,5.1l1.9,6.4l14.8-4.5l1.9,6.2l-14.8,4.5l2,6.6l17.1-5.2l1.9,6.2l-24,7.2
		L1208.5,803.3z"/>
	<path class="st4" d="M1238.6,794.2l6.4-1.9l20.6,14.9l-5.8-19.4l6.8-2.1l9.5,31.5l-5.9,1.8l-21.3-15.4l6,20l-6.8,2.1L1238.6,794.2z
		"/>
	<path class="st4" d="M1281.2,810l11.2-25.4l-16.8,5.1l-1.8-6.1l25.7-7.7l1.6,5.3l-11.2,25.4l17.3-5.2l1.8,6.1l-26.2,7.9L1281.2,810
		z"/>
	<path class="st4" d="M1306,773.9l23.8-7.2l1.9,6.2l-16.9,5.1l1.9,6.4l14.8-4.5l1.9,6.2l-14.8,4.5l2,6.6l17.1-5.2l1.9,6.2l-24,7.2
		L1306,773.9z"/>
</g>
<g>
	<path class="st4" d="M1113.5,433.4l2.4,0.2l-2.5,30.5l19.2,1.6l-0.2,2.2l-21.7-1.8L1113.5,433.4z"/>
	<path class="st4" d="M1142.5,435.8l23.3,1.9l-0.2,2.2l-20.9-1.7l-1.1,12.9l18.8,1.6l-0.2,2.2l-18.8-1.6l-1.1,13.2l21.1,1.7
		l-0.2,2.2l-23.6-1.9L1142.5,435.8z"/>
	<path class="st4" d="M1186.5,439.4l2.3,0.2l20.3,30.4l2.4-28.5l2.3,0.2l-2.7,32.8l-1.8-0.2l-20.7-31l-2.4,29.1l-2.3-0.2
		L1186.5,439.4z"/>
	<path class="st4" d="M1220.7,458.9L1220.7,458.9c0.7-9,8-16.5,17.9-15.7c9.9,0.8,15.8,9.3,15,18.2l0,0.1c-0.7,8.9-8,16.4-17.9,15.6
		C1225.9,476.3,1220,467.8,1220.7,458.9z M1251.2,461.4L1251.2,461.4c0.7-8.2-4.7-15.3-12.8-16c-8.1-0.7-14.5,5.4-15.1,13.5l0,0.1
		c-0.7,8.1,4.7,15.2,12.8,15.9C1244.2,475.6,1250.5,469.5,1251.2,461.4z"/>
	<path class="st4" d="M1258.8,473.6l1.7-1.7c3.3,3.6,6.5,5.4,11.4,5.8c4.9,0.4,8.5-2.1,8.8-5.8l0-0.1c0.3-3.5-1.4-5.6-8.7-7.7
		c-7.7-2.2-10.7-5.2-10.3-10.1l0-0.1c0.4-4.9,5.2-8.2,11.3-7.7c4.8,0.4,7.8,2,10.9,4.9l-1.7,1.8c-2.9-2.9-5.9-4.2-9.5-4.5
		c-4.8-0.4-8.2,2.1-8.5,5.5l0,0.1c-0.3,3.5,1.3,5.7,9,8c7.5,2.2,10.4,5.2,10,9.9l0,0.1c-0.4,5.3-5.3,8.6-11.6,8
		C1266.3,479.5,1262.4,477.4,1258.8,473.6z"/>
	<path class="st4" d="M1301.4,451.2l-11.4-0.9l0.2-2.2l25.3,2.1l-0.2,2.2l-11.4-0.9l-2.5,30.5l-2.4-0.2L1301.4,451.2z"/>
	<path class="st4" d="M1322.8,450.7l13.8,1.1c4,0.3,7.2,1.9,9,4c1.4,1.7,2.2,4,2,6.3l0,0.1c-0.5,5.5-4.8,8.3-10.4,8.6l9.7,14.9
		l-3.1-0.3l-9.3-14.4l-10.7-0.9l-1.1,13.6l-2.4-0.2L1322.8,450.7z M1334.9,468.8c5.5,0.5,9.8-2,10.2-6.7l0-0.1
		c0.4-4.4-2.9-7.5-8.8-7.9l-11.2-0.9l-1.2,14.8L1334.9,468.8z"/>
	<path class="st4" d="M1356.7,453.5l23.3,1.9l-0.2,2.2l-20.9-1.7l-1.1,12.9l18.8,1.6l-0.2,2.2l-18.8-1.6l-1.1,13.2l21.1,1.7
		l-0.2,2.2l-23.6-1.9L1356.7,453.5z"/>
</g>
<g>
	<path class="st4" d="M1399.6,457.1l13.4,1.1c7.8,0.6,12.2,5.7,11.6,12.4l0,0.1c-0.6,7.6-6.9,11-14.2,10.4l-5.5-0.5l-0.8,9.8
		l-7.2-0.6L1399.6,457.1z M1411.2,474.7c3.6,0.3,5.9-1.7,6.1-4.5l0-0.1c0.3-3.2-1.8-5.1-5.4-5.4l-5.6-0.5l-0.8,10L1411.2,474.7z"/>
	<path class="st4" d="M1438.9,460.1l6.7,0.5l11.3,34.2l-7.5-0.6l-2.4-7.6l-13.9-1.1l-3.6,7.1l-7.4-0.6L1438.9,460.1z M1444.9,480
		l-3.5-11l-5.2,10.3L1444.9,480z"/>
	<path class="st4" d="M1464.7,462.4l15,1.2c4.2,0.3,7.3,1.8,9.3,4.1c1.7,2,2.4,4.6,2.2,7.7l0,0.1c-0.4,5.3-3.6,8.4-7.9,9.6l7,12.4
		l-8.4-0.7l-6.2-11.1l-5.7-0.5l-0.9,10.5l-7.2-0.6L1464.7,462.4z M1477.9,479.6c3.5,0.3,5.7-1.4,5.9-4.2l0-0.1
		c0.3-3.1-1.8-4.9-5.3-5.2l-7.2-0.6l-0.8,9.4L1477.9,479.6z"/>
	<path class="st4" d="M1505.6,472.5l-10-0.8l0.5-6.7l27.2,2.2l-0.5,6.7l-10-0.8l-2.2,26.1l-7.2-0.6L1505.6,472.5z"/>
	<path class="st4" d="M1528.9,467.7l6.7,0.5l13.7,21.5l1.7-20.2l7.1,0.6l-2.7,32.8l-6.1-0.5l-14.2-22.2l-1.7,20.8l-7.1-0.6
		L1528.9,467.7z"/>
	<path class="st4" d="M1565.9,470.8l24.7,2l-0.5,6.4l-17.6-1.5l-0.5,6.7l15.5,1.3l-0.5,6.4l-15.5-1.3l-0.6,6.9l17.8,1.5l-0.5,6.4
		l-25-2.1L1565.9,470.8z"/>
	<path class="st4" d="M1597.3,473.4l15,1.2c4.2,0.3,7.3,1.8,9.3,4.1c1.7,2,2.4,4.6,2.2,7.7l0,0.1c-0.4,5.3-3.6,8.4-7.9,9.6l7,12.4
		l-8.4-0.7l-6.2-11.1l-5.7-0.5l-0.9,10.5l-7.2-0.6L1597.3,473.4z M1610.5,490.5c3.5,0.3,5.7-1.4,5.9-4.2l0-0.1
		c0.3-3.1-1.8-4.9-5.3-5.2l-7.2-0.6l-0.8,9.4L1610.5,490.5z"/>
	<path class="st4" d="M1626.6,504l4.7-4.8c2.7,2.7,5.7,4.5,9.5,4.8c3,0.2,4.8-0.8,5-2.7l0-0.1c0.2-1.8-0.9-2.9-6.3-4.7
		c-6.5-2.2-10.6-4.4-10-10.9l0-0.1c0.5-5.9,5.6-9.5,12.3-8.9c4.8,0.4,8.7,2.2,11.8,5.2l-4.2,5.1c-2.7-2.3-5.5-3.7-8.3-3.9
		c-2.8-0.2-4.3,0.9-4.5,2.5l0,0.1c-0.2,2.2,1.2,3,6.7,4.9c6.5,2.3,10.1,5,9.6,10.7l0,0.1c-0.5,6.5-5.8,9.8-12.9,9.2
		C1635.1,510,1630.2,507.8,1626.6,504z"/>
	<path class="st4" d="M1661.1,478.7l7.2,0.6l-1.1,13l13.3,1.1l1.1-13l7.2,0.6l-2.7,32.8l-7.2-0.6l1.1-13.2l-13.3-1.1l-1.1,13.2
		l-7.2-0.6L1661.1,478.7z"/>
	<path class="st4" d="M1697.1,481.6l7.2,0.6l-2.7,32.8l-7.2-0.6L1697.1,481.6z"/>
	<path class="st4" d="M1712.5,482.9l13.4,1.1c7.8,0.6,12.2,5.7,11.6,12.4l0,0.1c-0.6,7.6-6.9,11-14.2,10.4l-5.5-0.5l-0.8,9.8
		l-7.2-0.6L1712.5,482.9z M1724,500.5c3.6,0.3,5.9-1.7,6.1-4.5l0-0.1c0.3-3.2-1.8-5.2-5.4-5.4l-5.6-0.5l-0.8,10L1724,500.5z"/>
</g>
<g>
	<path class="st4" d="M879.5,193.4l2.4-0.3l4.3,30.3l19.1-2.7l0.3,2.2l-21.5,3L879.5,193.4z"/>
	<path class="st4" d="M908.3,189.4l23.2-3.3l0.3,2.2l-20.8,2.9l1.8,12.8l18.7-2.6l0.3,2.2l-18.7,2.6l1.8,13.1l21-3l0.3,2.2
		l-23.4,3.3L908.3,189.4z"/>
	<path class="st4" d="M953.4,183l2.3-0.3l26.5,25.2l-4-28.3l2.3-0.3l4.6,32.6l-1.8,0.3l-27-25.7l4.1,28.9l-2.3,0.3L953.4,183z"/>
	<path class="st4" d="M991.1,194.5L991.1,194.5c-1.3-9,4.2-17.9,14-19.2c9.9-1.4,17.4,5.6,18.7,14.5l0,0.1
		c1.2,8.9-4.2,17.8-14.1,19.2C999.9,210.3,992.3,203.3,991.1,194.5z M1021.3,190.2L1021.3,190.2c-1.1-8.1-7.9-13.9-16-12.8
		c-8.1,1.1-12.9,8.5-11.8,16.5l0,0.1c1.1,8.1,7.9,13.8,16,12.7C1017.6,205.6,1022.4,198.3,1021.3,190.2z"/>
	<path class="st4" d="M1031.4,200.5l1.3-2c4,2.8,7.6,3.9,12.4,3.2c4.9-0.7,7.9-3.9,7.3-7.6l0-0.1c-0.5-3.4-2.6-5.2-10.2-5.6
		c-8-0.5-11.6-2.7-12.3-7.6l0-0.1c-0.7-4.8,3.2-9.2,9.3-10c4.7-0.7,8,0.2,11.7,2.4l-1.3,2.1c-3.4-2.2-6.7-2.8-10.2-2.3
		c-4.8,0.7-7.6,3.9-7.1,7.3l0,0.1c0.5,3.4,2.5,5.3,10.5,5.8c7.8,0.5,11.3,2.7,12,7.5l0,0.1c0.7,5.3-3.3,9.5-9.5,10.4
		C1040,204.6,1035.8,203.4,1031.4,200.5z"/>
	<path class="st4" d="M1068.1,169.2l-11.4,1.6l-0.3-2.2l25.1-3.5l0.3,2.2l-11.4,1.6l4.3,30.3l-2.4,0.3L1068.1,169.2z"/>
	<path class="st4" d="M1088.9,164l13.7-1.9c4-0.6,7.4,0.2,9.6,1.9c1.8,1.3,3,3.4,3.3,5.7l0,0.1c0.8,5.4-2.8,9.1-8.2,10.6l12.7,12.4
		l-3.1,0.4l-12.3-12l-10.7,1.5l1.9,13.5l-2.4,0.3L1088.9,164z M1104.6,179c5.4-0.8,9.1-4.1,8.4-8.8l0-0.1c-0.6-4.4-4.4-6.6-10.4-5.8
		l-11.1,1.6l2.1,14.7L1104.6,179z"/>
	<path class="st4" d="M1122.5,159.3l23.2-3.3l0.3,2.2l-20.8,2.9l1.8,12.8l18.7-2.6l0.3,2.2l-18.7,2.6l1.8,13.1l21-2.9l0.3,2.2
		l-23.4,3.3L1122.5,159.3z"/>
</g>
<g>
	<path class="st4" d="M1168.3,181.2l3.5-5.7c3.3,2,6.6,3.1,10.3,2.6c2.9-0.4,4.5-1.8,4.3-3.7l0-0.1c-0.3-1.8-1.5-2.6-7.1-3.2
		c-6.8-0.8-11.3-2-12.2-8.4l0-0.1c-0.8-5.9,3.4-10.5,10-11.4c4.7-0.7,9,0.3,12.7,2.4l-3,5.9c-3.2-1.6-6.2-2.4-8.9-2
		c-2.7,0.4-4,1.8-3.8,3.4l0,0.1c0.3,2.1,1.8,2.6,7.6,3.3c6.9,0.8,10.9,2.6,11.7,8.3l0,0.1c0.9,6.5-3.5,10.8-10.5,11.8
		C1177.9,185.2,1172.7,184.2,1168.3,181.2z"/>
	<path class="st4" d="M1197.3,165.5L1197.3,165.5c-1.3-9.4,4.9-18,15-19.4c10.1-1.4,18.3,5.1,19.6,14.3l0,0.1
		c1.3,9.3-4.9,17.9-15,19.3C1206.9,181.2,1198.6,174.7,1197.3,165.5z M1224.4,161.7L1224.4,161.7c-0.8-5.7-5.5-9.8-11.3-8.9
		c-5.8,0.8-9.1,5.9-8.3,11.5l0,0.1c0.8,5.6,5.5,9.7,11.3,8.9C1221.9,172.4,1225.2,167.2,1224.4,161.7z"/>
	<path class="st4" d="M1236,143.3l7.2-1l3.7,26.1l16.2-2.3l0.9,6.5l-23.4,3.3L1236,143.3z"/>
	<path class="st4" d="M1266,158.1l-2.6-18.6l7.2-1l2.6,18.4c0.7,5.3,3.8,7.7,8.2,7.1c4.4-0.6,6.7-3.6,5.9-8.8l-2.6-18.7l7.2-1
		l2.6,18.4c1.4,9.9-3.5,15.5-12.2,16.7C1273.4,171.8,1267.4,167.7,1266,158.1z"/>
	<path class="st4" d="M1301.9,161.7l15-23.4l-17.4,2.4l-0.9-6.3l26.6-3.7l0.8,5.4l-15,23.4l17.9-2.5l0.9,6.3l-27.1,3.8L1301.9,161.7
		z"/>
	<path class="st4" d="M1332.4,129.8l7.2-1l4.6,32.6l-7.2,1L1332.4,129.8z"/>
	<path class="st4" d="M1348.6,144.2L1348.6,144.2c-1.3-9.4,4.9-18,15-19.4s18.3,5.1,19.6,14.3l0,0.1c1.3,9.3-4.9,17.9-15,19.3
		S1349.9,153.5,1348.6,144.2z M1375.7,140.4L1375.7,140.4c-0.8-5.7-5.5-9.8-11.3-8.9c-5.8,0.8-9.1,5.9-8.3,11.5l0,0.1
		c0.8,5.6,5.5,9.7,11.3,8.9C1373.1,151.1,1376.5,146,1375.7,140.4z"/>
	<path class="st4" d="M1387.3,122.1l6.6-0.9l18.1,17.9l-2.8-20.1l7.1-1l4.6,32.6l-6.1,0.9l-18.7-18.5l2.9,20.7l-7.1,1L1387.3,122.1z
		"/>
	<path class="st4" d="M1424.4,116.9l7.2-1l4.6,32.6l-7.2,1L1424.4,116.9z"/>
	<path class="st4" d="M1454,112.7l7.2-1l4.6,32.6l-7.2,1L1454,112.7z"/>
	<path class="st4" d="M1469.3,110.5l6.6-0.9l18.1,17.9l-2.8-20.1l7.1-1l4.6,32.6l-6.1,0.9l-18.7-18.5l2.9,20.7l-7.1,1L1469.3,110.5z
		"/>
	<path class="st4" d="M1520.9,120L1520.9,120c-1.3-9.4,4.6-17.9,14.6-19.3c6.1-0.9,10.1,0.7,13.6,3.2l-3.8,5.9
		c-2.8-1.9-5.6-3-8.8-2.5c-5.5,0.8-8.8,5.9-8,11.5l0,0.1c0.8,5.6,5.3,9.7,10.9,8.9c3.7-0.5,5.8-2.3,8-5l5.2,4
		c-2.8,4.1-6.3,6.8-12.5,7.7C1530.3,135.8,1522.2,129.4,1520.9,120z"/>
	<path class="st4" d="M1554.3,98.6l7.2-1l3.7,26.1l16.2-2.3l0.9,6.5l-23.4,3.3L1554.3,98.6z"/>
	<path class="st4" d="M1582.2,111.4L1582.2,111.4c-1.3-9.4,4.9-18,15-19.4s18.3,5.1,19.6,14.3l0,0.1c1.3,9.3-4.9,17.9-15,19.3
		C1591.8,127.1,1583.5,120.6,1582.2,111.4z M1609.3,107.6L1609.3,107.6c-0.8-5.7-5.5-9.8-11.3-8.9c-5.8,0.8-9.1,5.9-8.3,11.5l0,0.1
		c0.8,5.6,5.5,9.7,11.3,8.9C1606.8,118.3,1610.1,113.2,1609.3,107.6z"/>
	<path class="st4" d="M1623,107.9l-2.6-18.6l7.2-1l2.6,18.4c0.7,5.3,3.8,7.7,8.2,7.1s6.7-3.6,5.9-8.8l-2.6-18.7l7.2-1l2.6,18.4
		c1.4,9.9-3.5,15.5-12.2,16.7S1624.3,117.5,1623,107.9z"/>
	<path class="st4" d="M1656.1,84.3l12.7-1.8c10.2-1.4,18.3,4.6,19.6,13.8l0,0.1c1.3,9.2-4.8,17.3-15,18.7l-12.7,1.8L1656.1,84.3z
		 M1672.5,108.6c5.9-0.8,9.3-5.3,8.5-11.1l0-0.1c-0.8-5.8-5.3-9.3-11.2-8.4l-5.5,0.8l2.8,19.6L1672.5,108.6z"/>
</g>
</svg>
