<?xml version="1.0" encoding="utf-8"?>
<!-- Generator: Adobe Illustrator 24.0.0, SVG Export Plug-In . SVG Version: 6.00 Build 0)  -->
<svg version="1.1" id="Livello_1" xmlns="http://www.w3.org/2000/svg" xmlns:xlink="http://www.w3.org/1999/xlink" x="0px" y="0px"
	 viewBox="0 0 1931.5 1931.5" style="enable-background:new 0 0 1931.5 1931.5;" xml:space="preserve">
<style type="text/css">
	.st0{display:none;fill:#EBECED;}
	.st1{display:none;fill:#DADDDE;}
	.st2{display:none;fill:#D3E4F5;}
	.st3{display:none;fill:#B2D1ED;}
	.st4{fill:#EBECED;}
	.st5{fill:#DADDDE;}
	.st6{fill:#FFFFFF;}
	.st7{display:none;}
	.st8{display:inline;fill:#FFFFFF;}
</style>
<g>
	<path class="st0" d="M833.5-576.7c-169.9,23.9-288.3,181-264.5,350.9l131.8,937.7c23.9,169.9,181,288.3,350.9,264.5l937.7-131.8
		c169.9-23.9,288.3-181,264.4-350.9l-131.8-937.7c-23.9-169.9-181-288.3-350.9-264.5L833.5-576.7z"/>
	<path class="st1" d="M2254,493.7l-131.8-937.7c-21.2-150.7-147.1-260.6-293.9-267c69,331.7,179.8,1368.4-1070.5,1563.3
		c65.5,89.2,176.6,140.6,293.9,124.1l937.7-131.8C2159.5,820.7,2277.8,663.6,2254,493.7"/>
	<path class="st2" d="M870.2-356C686.9-371.1,525.9-234.8,510.8-51.4L427.2,960.4c-15.2,183.4,121.2,344.3,304.6,359.4l1011.8,83.6
		c183.3,15.2,344.3-121.2,359.4-304.6l83.6-1011.8c15.2-183.4-121.2-344.3-304.5-359.4L870.2-356z"/>
	<path class="st3" d="M2102.9,1098.9l83.6-1011.8c13.4-162.6-92.3-307.2-244.3-348.6c-6.2,363.2-135.1,1473.5-1488.7,1382.1
		c47.4,108.8,151.5,188.7,278.1,199.2l1011.8,83.6C1926.9,1418.6,2087.8,1282.3,2102.9,1098.9"/>
	<path class="st4" d="M237.1,307.3C60.9,360.4-38.8,546.2,14.3,722.4l293,972c53.1,176.2,238.9,275.9,415.1,222.8l972.1-293
		c176.1-53.1,275.9-238.9,222.8-415.1l-293-972c-53.1-176.2-238.9-275.9-415.1-222.8L237.1,307.3z"/>
	<path class="st5" d="M1917.2,1209.1l-293-972.1c-47.1-156.2-198.5-252-355-234.8c127.4,340.2,414.3,1420.5-878.5,1831.6
		c84,83.8,210.2,120.1,331.7,83.4l972-293C1870.6,1571.1,1970.3,1385.3,1917.2,1209.1"/>
</g>
<g>
	<path class="st6" d="M736.9,173.3l2.3-0.7l8.8,29.3l18.5-5.6l0.7,2.2l-20.8,6.3L736.9,173.3z"/>
	<path class="st6" d="M764.7,164.9l22.4-6.8l0.7,2.2l-20.1,6l3.7,12.4l18-5.4l0.7,2.2l-18,5.4l3.8,12.6l20.3-6.1l0.7,2.2l-22.6,6.8
		L764.7,164.9z"/>
	<path class="st6" d="M808.4,151.7l2.2-0.7l30,20.9l-8.3-27.4l2.2-0.7l9.5,31.5l-1.8,0.5l-30.6-21.3l8.4,28l-2.2,0.7L808.4,151.7z"
		/>
	<path class="st6" d="M847.3,157.2L847.3,157.2c-2.6-8.7,1.4-18.3,10.9-21.2c9.5-2.9,18.1,2.8,20.7,11.4l0,0.1
		c2.6,8.6-1.4,18.2-11,21.1C858.5,171.6,849.9,165.8,847.3,157.2z M876.6,148.4L876.6,148.4c-2.4-7.9-10-12.6-17.8-10.2
		c-7.8,2.3-11.5,10.3-9.1,18.1l0,0.1c2.3,7.8,9.9,12.5,17.7,10.1C875.2,164.2,878.9,156.2,876.6,148.4z"/>
	<path class="st6" d="M888.1,157l1-2.2c4.4,2.2,8.1,2.7,12.7,1.3c4.7-1.4,7.2-5.1,6.1-8.7l0-0.1c-1-3.3-3.3-4.7-10.9-4
		c-8,0.7-11.9-0.9-13.3-5.7l0-0.1c-1.4-4.7,1.8-9.6,7.6-11.3c4.6-1.4,8-1,12,0.6l-0.9,2.3c-3.7-1.7-7-1.8-10.5-0.7
		c-4.6,1.4-6.9,5-5.9,8.3l0,0.1c1,3.3,3.3,4.8,11.3,4.1c7.7-0.7,11.6,1,13,5.6l0,0.1c1.5,5.1-1.8,9.9-7.8,11.7
		C897.3,159.8,892.9,159.3,888.1,157z"/>
	<path class="st6" d="M919.6,120.5l-11,3.3l-0.7-2.2l24.3-7.3l0.7,2.2l-11,3.3l8.8,29.3l-2.3,0.7L919.6,120.5z"/>
	<path class="st6" d="M939.3,112.2l13.2-4c3.9-1.2,7.3-0.9,9.8,0.4c1.9,1,3.5,2.9,4.1,5.1l0,0.1c1.6,5.3-1.4,9.5-6.5,11.8l14.5,10.3
		l-3,0.9l-14-10l-10.3,3.1l3.9,13l-2.3,0.7L939.3,112.2z M957.2,124.7c5.3-1.6,8.4-5.4,7-10l0-0.1c-1.3-4.2-5.4-5.9-11.1-4.2
		l-10.8,3.2l4.3,14.2L957.2,124.7z"/>
	<path class="st6" d="M971.9,102.4l22.4-6.8l0.7,2.2l-20.1,6l3.7,12.4l18-5.4l0.7,2.2l-18,5.4l3.8,12.6l20.3-6.1l0.7,2.2l-22.6,6.8
		L971.9,102.4z"/>
</g>
<g>
	<path class="st6" d="M1014.5,89.6l14.4-4.3c4-1.2,7.4-1,10.1,0.4c2.3,1.2,4,3.4,4.9,6.4l0,0.1c1.5,5.1-0.2,9.1-3.8,11.8l11.1,8.9
		l-8.1,2.4l-9.8-8l-5.4,1.6l3,10.1l-6.9,2.1L1014.5,89.6z M1033.1,100.7c3.4-1,4.8-3.4,4-6.1l0-0.1c-0.9-3-3.4-3.9-6.8-2.9l-6.9,2.1
		l2.7,9L1033.1,100.7z"/>
	<path class="st6" d="M1047.1,79.7l23.8-7.2l1.9,6.2l-16.9,5.1l1.9,6.4l14.8-4.5l1.9,6.2l-14.8,4.5l2,6.6l17.1-5.2l1.9,6.2l-24,7.2
		L1047.1,79.7z"/>
	<path class="st6" d="M1077.2,70.7l24-7.2l1.9,6.3l-17.1,5.1l2,6.7l15-4.5l1.9,6.3l-15,4.5l3.7,12.2l-6.9,2.1L1077.2,70.7z"/>
	<path class="st6" d="M1106.7,61.8l23.8-7.2l1.9,6.2l-16.9,5.1l1.9,6.4l14.8-4.5l1.9,6.2l-14.8,4.5l2,6.6l17.1-5.2l1.9,6.2l-24,7.2
		L1106.7,61.8z"/>
	<path class="st6" d="M1136.9,52.7l14.4-4.3c4-1.2,7.4-1,10.1,0.4c2.3,1.2,4,3.4,4.9,6.4l0,0.1c1.5,5.1-0.2,9.1-3.8,11.8l11.1,8.9
		l-8.1,2.4l-9.8-8l-5.4,1.6l3,10.1l-6.9,2.1L1136.9,52.7z M1155.4,63.8c3.4-1,4.8-3.4,4-6.1l0-0.1c-0.9-3-3.4-3.9-6.8-2.9l-6.9,2.1
		l2.7,9L1155.4,63.8z"/>
	<path class="st6" d="M1169.4,42.9l23.8-7.2l1.9,6.2l-16.9,5.1l1.9,6.4l14.8-4.5l1.9,6.2l-14.8,4.5l2,6.6L1201,61l1.9,6.2l-24,7.2
		L1169.4,42.9z"/>
	<path class="st6" d="M1199.6,33.8l6.4-1.9l20.6,14.9l-5.8-19.4l6.8-2.1l9.5,31.5l-5.9,1.8l-21.3-15.4l6,20l-6.8,2.1L1199.6,33.8z"
		/>
	<path class="st6" d="M1242.1,49.6l11.2-25.4l-16.8,5.1l-1.8-6.1l25.7-7.7l1.6,5.3l-11.2,25.4l17.3-5.2l1.8,6.1l-26.2,7.9
		L1242.1,49.6z"/>
	<path class="st6" d="M1267,13.5l23.8-7.2l1.9,6.2l-16.9,5.1l1.9,6.4l14.8-4.5l1.9,6.2l-14.8,4.5l2,6.6l17.1-5.2l1.9,6.2l-24,7.2
		L1267,13.5z"/>
</g>
<g class="st7">
	<path class="st8" d="M1289.9-682.2l2.4,0.2l-2.5,30.5l19.2,1.6l-0.2,2.2l-21.7-1.8L1289.9-682.2z"/>
	<path class="st8" d="M1318.9-679.8l23.3,1.9l-0.2,2.2l-20.9-1.7l-1.1,12.9l18.8,1.6l-0.2,2.2l-18.8-1.6l-1.1,13.2l21.1,1.7
		l-0.2,2.2l-23.6-1.9L1318.9-679.8z"/>
	<path class="st8" d="M1363-676.1l2.3,0.2l20.3,30.4l2.4-28.5l2.3,0.2l-2.7,32.8l-1.8-0.2l-20.7-31l-2.4,29.1l-2.3-0.2L1363-676.1z"
		/>
	<path class="st8" d="M1397.2-656.7L1397.2-656.7c0.7-9,8-16.5,17.9-15.7c9.9,0.8,15.8,9.3,15,18.2l0,0.1c-0.7,8.9-8,16.4-17.9,15.6
		C1402.3-639.3,1396.4-647.8,1397.2-656.7z M1427.6-654.2L1427.6-654.2c0.7-8.2-4.7-15.3-12.8-16c-8.1-0.7-14.5,5.4-15.1,13.5l0,0.1
		c-0.7,8.1,4.7,15.2,12.8,15.9C1420.6-640,1426.9-646.1,1427.6-654.2z"/>
	<path class="st8" d="M1435.2-642l1.7-1.7c3.3,3.6,6.5,5.4,11.4,5.8c4.9,0.4,8.5-2.1,8.8-5.8l0-0.1c0.3-3.5-1.4-5.6-8.7-7.7
		c-7.7-2.2-10.7-5.2-10.3-10.1l0-0.1c0.4-4.9,5.2-8.2,11.3-7.7c4.8,0.4,7.8,2,10.9,4.9l-1.7,1.8c-2.9-2.9-5.9-4.2-9.5-4.5
		c-4.8-0.4-8.2,2.1-8.5,5.5l0,0.1c-0.3,3.5,1.3,5.7,9,8c7.5,2.2,10.4,5.2,10,9.9l0,0.1c-0.4,5.3-5.3,8.6-11.6,8
		C1442.7-636.1,1438.8-638.1,1435.2-642z"/>
	<path class="st8" d="M1477.8-664.4l-11.4-0.9l0.2-2.2l25.3,2.1l-0.2,2.2l-11.4-0.9l-2.5,30.5l-2.4-0.2L1477.8-664.4z"/>
	<path class="st8" d="M1499.2-664.9l13.8,1.1c4,0.3,7.2,1.9,9,4c1.4,1.7,2.2,4,2,6.3l0,0.1c-0.5,5.5-4.8,8.3-10.4,8.6l9.7,14.9
		l-3.1-0.3l-9.3-14.4l-10.7-0.9l-1.1,13.6l-2.4-0.2L1499.2-664.9z M1511.3-646.7c5.5,0.5,9.8-2,10.2-6.7l0-0.1
		c0.4-4.4-2.9-7.5-8.8-7.9l-11.2-0.9l-1.2,14.8L1511.3-646.7z"/>
	<path class="st8" d="M1533.1-662.1l23.3,1.9l-0.2,2.2l-20.9-1.7l-1.1,12.9l18.8,1.6l-0.2,2.2l-18.8-1.6l-1.1,13.2l21.1,1.7
		l-0.2,2.2l-23.6-1.9L1533.1-662.1z"/>
</g>
<g class="st7">
	<path class="st8" d="M1576-658.5l13.4,1.1c7.8,0.6,12.2,5.7,11.6,12.4l0,0.1c-0.6,7.6-6.9,11-14.2,10.4l-5.5-0.5l-0.8,9.8l-7.2-0.6
		L1576-658.5z M1587.6-640.9c3.6,0.3,5.9-1.7,6.1-4.5l0-0.1c0.3-3.2-1.8-5.1-5.4-5.4l-5.6-0.5l-0.8,10L1587.6-640.9z"/>
	<path class="st8" d="M1615.4-655.5l6.7,0.5l11.3,34.2l-7.5-0.6l-2.4-7.6l-13.9-1.1l-3.6,7.1l-7.4-0.6L1615.4-655.5z M1621.4-635.6
		l-3.5-11l-5.2,10.3L1621.4-635.6z"/>
	<path class="st8" d="M1641.1-653.1l15,1.2c4.2,0.3,7.3,1.8,9.3,4.1c1.7,2,2.4,4.6,2.2,7.7l0,0.1c-0.4,5.3-3.6,8.4-7.9,9.6l7,12.4
		l-8.4-0.7l-6.2-11.1l-5.7-0.5l-0.9,10.5l-7.2-0.6L1641.1-653.1z M1654.3-636c3.5,0.3,5.7-1.4,5.9-4.2l0-0.1
		c0.3-3.1-1.8-4.9-5.3-5.2l-7.2-0.6l-0.8,9.4L1654.3-636z"/>
	<path class="st8" d="M1682.1-643.1l-10-0.8l0.5-6.7l27.2,2.2l-0.5,6.7l-10-0.8l-2.2,26.1l-7.2-0.6L1682.1-643.1z"/>
	<path class="st8" d="M1705.3-647.8l6.7,0.5l13.7,21.5l1.7-20.2l7.1,0.6l-2.7,32.8l-6.1-0.5l-14.2-22.2l-1.7,20.8l-7.1-0.6
		L1705.3-647.8z"/>
	<path class="st8" d="M1742.3-644.8l24.7,2l-0.5,6.4l-17.6-1.5l-0.5,6.7l15.5,1.3l-0.5,6.4l-15.5-1.3l-0.6,6.9l17.8,1.5l-0.5,6.4
		l-25-2.1L1742.3-644.8z"/>
	<path class="st8" d="M1773.7-642.2l15,1.2c4.2,0.3,7.3,1.8,9.3,4.1c1.7,2,2.4,4.6,2.2,7.7l0,0.1c-0.4,5.3-3.6,8.4-7.9,9.6l7,12.4
		l-8.4-0.7l-6.2-11.1l-5.7-0.5l-0.9,10.5l-7.2-0.6L1773.7-642.2z M1786.9-625.1c3.5,0.3,5.7-1.4,5.9-4.2l0-0.1
		c0.3-3.1-1.8-4.9-5.3-5.2l-7.2-0.6l-0.8,9.4L1786.9-625.1z"/>
	<path class="st8" d="M1803-611.6l4.7-4.8c2.7,2.7,5.7,4.5,9.5,4.8c3,0.2,4.8-0.8,5-2.7l0-0.1c0.2-1.8-0.9-2.9-6.3-4.7
		c-6.5-2.2-10.6-4.4-10-10.9l0-0.1c0.5-5.9,5.6-9.5,12.3-8.9c4.8,0.4,8.7,2.2,11.8,5.2l-4.2,5.1c-2.7-2.3-5.5-3.7-8.3-3.9
		c-2.8-0.2-4.3,0.9-4.5,2.5l0,0.1c-0.2,2.2,1.2,3,6.7,4.9c6.5,2.3,10.1,5,9.6,10.7l0,0.1c-0.5,6.5-5.8,9.8-12.9,9.2
		C1811.5-605.6,1806.7-607.7,1803-611.6z"/>
	<path class="st8" d="M1837.6-636.9l7.2,0.6l-1.1,13l13.3,1.1l1.1-13l7.2,0.6l-2.7,32.8l-7.2-0.6l1.1-13.2l-13.3-1.1l-1.1,13.2
		l-7.2-0.6L1837.6-636.9z"/>
	<path class="st8" d="M1873.5-633.9l7.2,0.6l-2.7,32.8l-7.2-0.6L1873.5-633.9z"/>
	<path class="st8" d="M1888.9-632.7l13.4,1.1c7.8,0.6,12.2,5.7,11.6,12.4l0,0.1c-0.6,7.6-6.9,11-14.2,10.4l-5.5-0.5l-0.8,9.8
		l-7.2-0.6L1888.9-632.7z M1900.4-615.1c3.6,0.3,5.9-1.7,6.1-4.5l0-0.1c0.3-3.2-1.8-5.2-5.4-5.4l-5.6-0.5l-0.8,10L1900.4-615.1z"/>
</g>
<g class="st7">
	<path class="st8" d="M1055.9-922.1l2.4-0.3l4.3,30.3l19.1-2.7l0.3,2.2l-21.5,3L1055.9-922.1z"/>
	<path class="st8" d="M1084.7-926.2l23.2-3.3l0.3,2.2l-20.8,2.9l1.8,12.8l18.7-2.6l0.3,2.2l-18.7,2.6l1.8,13.1l21-3l0.3,2.2
		l-23.4,3.3L1084.7-926.2z"/>
	<path class="st8" d="M1129.9-932.5l2.3-0.3l26.5,25.2l-4-28.3l2.3-0.3l4.6,32.6l-1.8,0.3l-27-25.7l4.1,28.9l-2.3,0.3L1129.9-932.5z
		"/>
	<path class="st8" d="M1167.5-921.1L1167.5-921.1c-1.3-9,4.2-17.9,14-19.2c9.9-1.4,17.4,5.6,18.7,14.5l0,0.1
		c1.2,8.9-4.2,17.8-14.1,19.2C1176.3-905.3,1168.7-912.2,1167.5-921.1z M1197.7-925.4L1197.7-925.4c-1.1-8.1-7.9-13.9-16-12.8
		c-8.1,1.1-12.9,8.5-11.8,16.5l0,0.1c1.1,8.1,7.9,13.8,16,12.7C1194-910,1198.9-917.3,1197.7-925.4z"/>
	<path class="st8" d="M1207.8-915.1l1.3-2c4,2.8,7.6,3.9,12.4,3.2c4.9-0.7,7.9-3.9,7.3-7.6l0-0.1c-0.5-3.4-2.6-5.2-10.2-5.6
		c-8-0.5-11.6-2.7-12.3-7.6l0-0.1c-0.7-4.8,3.2-9.2,9.3-10c4.7-0.7,8,0.2,11.7,2.4l-1.3,2.1c-3.4-2.2-6.7-2.8-10.2-2.3
		c-4.8,0.7-7.6,3.9-7.1,7.3l0,0.1c0.5,3.4,2.5,5.3,10.5,5.8c7.8,0.5,11.3,2.7,12,7.5l0,0.1c0.7,5.3-3.3,9.5-9.5,10.4
		C1216.5-911,1212.2-912.2,1207.8-915.1z"/>
	<path class="st8" d="M1244.5-946.4l-11.4,1.6l-0.3-2.2l25.1-3.5l0.3,2.2l-11.4,1.6l4.3,30.3l-2.4,0.3L1244.5-946.4z"/>
	<path class="st8" d="M1265.3-951.6l13.7-1.9c4-0.6,7.4,0.2,9.6,1.9c1.8,1.3,3,3.4,3.3,5.7l0,0.1c0.8,5.4-2.8,9.1-8.2,10.6
		l12.7,12.4l-3.1,0.4l-12.3-12l-10.7,1.5l1.9,13.5l-2.4,0.3L1265.3-951.6z M1281.1-936.6c5.4-0.8,9.1-4.1,8.4-8.8l0-0.1
		c-0.6-4.4-4.4-6.6-10.4-5.8l-11.1,1.6l2.1,14.7L1281.1-936.6z"/>
	<path class="st8" d="M1298.9-956.3l23.2-3.3l0.3,2.2l-20.8,2.9l1.8,12.8l18.7-2.6l0.3,2.2l-18.7,2.6l1.8,13.1l21-2.9l0.3,2.2
		l-23.4,3.3L1298.9-956.3z"/>
</g>
<g class="st7">
	<path class="st8" d="M1344.7-934.3l3.5-5.7c3.3,2,6.6,3.1,10.3,2.6c2.9-0.4,4.5-1.8,4.3-3.7l0-0.1c-0.3-1.8-1.5-2.6-7.1-3.2
		c-6.8-0.8-11.3-2-12.2-8.4l0-0.1c-0.8-5.9,3.4-10.5,10-11.4c4.7-0.7,9,0.3,12.7,2.4l-3,5.9c-3.2-1.6-6.2-2.4-8.9-2
		c-2.7,0.4-4,1.8-3.8,3.4l0,0.1c0.3,2.1,1.8,2.6,7.6,3.3c6.9,0.8,10.9,2.6,11.7,8.3l0,0.1c0.9,6.5-3.5,10.8-10.5,11.8
		C1354.4-930.4,1349.1-931.4,1344.7-934.3z"/>
	<path class="st8" d="M1373.7-950.1L1373.7-950.1c-1.3-9.4,4.9-18,15-19.4c10.1-1.4,18.3,5.1,19.6,14.3l0,0.1
		c1.3,9.3-4.9,17.9-15,19.3C1383.3-934.4,1375-940.8,1373.7-950.1z M1400.8-953.9L1400.8-953.9c-0.8-5.7-5.5-9.8-11.3-8.9
		c-5.8,0.8-9.1,5.9-8.3,11.5l0,0.1c0.8,5.6,5.5,9.7,11.3,8.9C1398.3-943.2,1401.6-948.3,1400.8-953.9z"/>
	<path class="st8" d="M1412.4-972.2l7.2-1l3.7,26.1l16.2-2.3l0.9,6.5l-23.4,3.3L1412.4-972.2z"/>
	<path class="st8" d="M1442.4-957.5l-2.6-18.6l7.2-1l2.6,18.4c0.7,5.3,3.8,7.7,8.2,7.1c4.4-0.6,6.7-3.6,5.9-8.8l-2.6-18.7l7.2-1
		l2.6,18.4c1.4,9.9-3.5,15.5-12.2,16.7C1449.8-943.8,1443.8-947.9,1442.4-957.5z"/>
	<path class="st8" d="M1478.4-953.8l15-23.4l-17.4,2.4l-0.9-6.3l26.6-3.7l0.8,5.4l-15,23.4l17.9-2.5l0.9,6.3l-27.1,3.8L1478.4-953.8
		z"/>
	<path class="st8" d="M1508.8-985.8l7.2-1l4.6,32.6l-7.2,1L1508.8-985.8z"/>
	<path class="st8" d="M1525-971.4L1525-971.4c-1.3-9.4,4.9-18,15-19.4s18.3,5.1,19.6,14.3l0,0.1c1.3,9.3-4.9,17.9-15,19.3
		S1526.3-962.1,1525-971.4z M1552.1-975.2L1552.1-975.2c-0.8-5.7-5.5-9.8-11.3-8.9c-5.8,0.8-9.1,5.9-8.3,11.5l0,0.1
		c0.8,5.6,5.5,9.7,11.3,8.9C1549.5-964.5,1552.9-969.6,1552.1-975.2z"/>
	<path class="st8" d="M1563.7-993.5l6.6-0.9l18.1,17.9l-2.8-20.1l7.1-1l4.6,32.6l-6.1,0.9l-18.7-18.5l2.9,20.7l-7.1,1L1563.7-993.5z
		"/>
	<path class="st8" d="M1600.8-998.7l7.2-1l4.6,32.6l-7.2,1L1600.8-998.7z"/>
	<path class="st8" d="M1630.4-1002.9l7.2-1l4.6,32.6l-7.2,1L1630.4-1002.9z"/>
	<path class="st8" d="M1645.7-1005l6.6-0.9l18.1,17.9l-2.8-20.1l7.1-1l4.6,32.6l-6.1,0.9l-18.7-18.5l2.9,20.7l-7.1,1L1645.7-1005z"
		/>
	<path class="st8" d="M1697.3-995.6L1697.3-995.6c-1.3-9.4,4.6-17.9,14.6-19.3c6.1-0.9,10.1,0.7,13.6,3.2l-3.8,5.9
		c-2.8-1.9-5.6-3-8.8-2.5c-5.5,0.8-8.8,5.9-8,11.5l0,0.1c0.8,5.6,5.3,9.7,10.9,8.9c3.7-0.5,5.8-2.3,8-5l5.2,4
		c-2.8,4.1-6.3,6.8-12.5,7.7C1706.7-979.8,1698.6-986.2,1697.3-995.6z"/>
	<path class="st8" d="M1730.8-1017l7.2-1l3.7,26.1l16.2-2.3l0.9,6.5l-23.4,3.3L1730.8-1017z"/>
	<path class="st8" d="M1758.6-1004.2L1758.6-1004.2c-1.3-9.4,4.9-18,15-19.4s18.3,5.1,19.6,14.3l0,0.1c1.3,9.3-4.9,17.9-15,19.3
		C1768.2-988.4,1759.9-994.9,1758.6-1004.2z M1785.7-1008L1785.7-1008c-0.8-5.7-5.5-9.8-11.3-8.9c-5.8,0.8-9.1,5.9-8.3,11.5l0,0.1
		c0.8,5.6,5.5,9.7,11.3,8.9C1783.2-997.3,1786.5-1002.4,1785.7-1008z"/>
	<path class="st8" d="M1799.4-1007.6l-2.6-18.6l7.2-1l2.6,18.4c0.7,5.3,3.8,7.7,8.2,7.1s6.7-3.6,5.9-8.8l-2.6-18.7l7.2-1l2.6,18.4
		c1.4,9.9-3.5,15.5-12.2,16.7S1800.8-998.1,1799.4-1007.6z"/>
	<path class="st8" d="M1832.5-1031.3l12.7-1.8c10.2-1.4,18.3,4.6,19.6,13.8l0,0.1c1.3,9.2-4.8,17.3-15,18.7l-12.7,1.8L1832.5-1031.3
		z M1848.9-1007c5.9-0.8,9.3-5.3,8.5-11.1l0-0.1c-0.8-5.8-5.3-9.3-11.2-8.4l-5.5,0.8l2.8,19.6L1848.9-1007z"/>
</g>
</svg>
