<?xml version="1.0" encoding="utf-8"?>
<!-- Generator: Adobe Illustrator 24.0.0, SVG Export Plug-In . SVG Version: 6.00 Build 0)  -->
<svg version="1.1" id="Livello_1" xmlns="http://www.w3.org/2000/svg" xmlns:xlink="http://www.w3.org/1999/xlink" x="0px" y="0px"
	 viewBox="0 0 596.2 596.2" style="enable-background:new 0 0 596.2 596.2;" xml:space="preserve">
<style type="text/css">
	.st0{clip-path:url(#SVGID_2_);}
	.st1{clip-path:url(#SVGID_4_);fill:#D3E4F5;}
	.st2{clip-path:url(#SVGID_4_);fill:#B2D1ED;}
	.st3{fill:#FFFFFF;}
	.st4{opacity:0.29;clip-path:url(#SVGID_6_);}
	.st5{clip-path:url(#SVGID_8_);fill:#FFFFFF;}
	.st6{clip-path:url(#SVGID_8_);fill:none;stroke:#92C9EC;stroke-width:2.429;stroke-miterlimit:10;}
</style>
<g>
	<defs>
		<rect id="SVGID_1_" width="596.2" height="596.2"/>
	</defs>
	<clipPath id="SVGID_2_">
		<use xlink:href="#SVGID_1_"  style="overflow:visible;"/>
	</clipPath>
	<g class="st0">
		<defs>
			<rect id="SVGID_3_" width="596.2" height="596.2"/>
		</defs>
		<clipPath id="SVGID_4_">
			<use xlink:href="#SVGID_3_"  style="overflow:visible;"/>
		</clipPath>
		<path class="st1" d="M150.3,0.4C88.3-4.7,33.8,41.4,28.7,103.5L0.4,445.9c-5.1,62.1,41,116.5,103.1,121.6l342.4,28.3
			c62,5.1,116.5-41,121.6-103.1l28.3-342.4c5.1-62.1-41-116.5-103.1-121.6L150.3,0.4z"/>
		<path class="st2" d="M567.5,492.7l28.3-342.4c4.5-55-31.2-104-82.7-118C511.1,155.3,467.4,531,9.3,500.1
			c16,36.8,51.3,63.9,94.1,67.4l342.4,28.3C507.9,600.9,562.4,554.8,567.5,492.7"/>
	</g>
	<g class="st0">
		<path class="st3" d="M285.8,19.1l1.7,0.1l-1.7,20.9l13.2,1.1l-0.1,1.5L284,41.5L285.8,19.1z"/>
		<path class="st3" d="M305.6,20.8l15.9,1.3l-0.1,1.5l-14.3-1.2l-0.7,8.8l12.8,1.1l-0.1,1.5l-12.8-1.1l-0.7,9L320,43l-0.1,1.5
			l-16.1-1.3L305.6,20.8z"/>
		<path class="st3" d="M336.7,23.3l1.6,0.1l13.8,20.8l1.6-19.5l1.6,0.1l-1.9,22.4l-1.2-0.1L338.1,26l-1.6,19.9l-1.6-0.1L336.7,23.3z
			"/>
		<path class="st3" d="M360,36.6L360,36.6c0.5-6.2,5.5-11.3,12.3-10.7s10.8,6.3,10.3,12.4l0,0.1c-0.5,6.1-5.5,11.2-12.3,10.6
			C363.5,48.5,359.5,42.7,360,36.6z M380.8,38.3L380.8,38.3c0.5-5.6-3.2-10.5-8.7-10.9c-5.5-0.5-9.9,3.7-10.3,9.2l0,0.1
			c-0.5,5.5,3.2,10.4,8.7,10.9C376,48,380.4,43.9,380.8,38.3z"/>
		<path class="st3" d="M386,46.7l1.2-1.2c2.3,2.5,4.5,3.7,7.8,4c3.4,0.3,5.8-1.4,6-4l0-0.1c0.2-2.4-0.9-3.8-5.9-5.3
			c-5.3-1.5-7.3-3.5-7-6.9l0-0.1c0.3-3.3,3.5-5.6,7.7-5.3c3.3,0.3,5.3,1.3,7.5,3.4l-1.2,1.2c-2-2-4-2.9-6.5-3.1
			c-3.3-0.3-5.6,1.4-5.8,3.8l0,0.1c-0.2,2.4,0.9,3.9,6.1,5.4c5.1,1.5,7.1,3.5,6.8,6.8l0,0.1c-0.3,3.6-3.6,5.9-7.9,5.5
			C391.1,50.7,388.5,49.3,386,46.7z"/>
		<path class="st3" d="M415.1,31.4l-7.8-0.6l0.1-1.5l17.3,1.4l-0.1,1.5l-7.8-0.6l-1.7,20.9l-1.7-0.1L415.1,31.4z"/>
		<path class="st3" d="M429.8,31l9.4,0.8c2.8,0.2,4.9,1.3,6.1,2.7c1,1.1,1.5,2.7,1.4,4.3l0,0.1c-0.3,3.7-3.3,5.7-7.1,5.9l6.6,10.2
			l-2.1-0.2l-6.4-9.9l-7.3-0.6l-0.8,9.3l-1.7-0.1L429.8,31z M438,43.4c3.7,0.3,6.7-1.3,6.9-4.6l0-0.1c0.2-3-2-5.1-6-5.4l-7.6-0.6
			l-0.8,10.1L438,43.4z"/>
		<path class="st3" d="M452.9,32.9l15.9,1.3l-0.1,1.5l-14.3-1.2l-0.7,8.8l12.8,1.1l-0.1,1.5l-12.8-1.1l-0.7,9l14.4,1.2l-0.1,1.5
			l-16.1-1.3L452.9,32.9z"/>
	</g>
	<g class="st0">
		<path class="st3" d="M259.8,42.2L269,43c5.3,0.4,8.3,3.9,7.9,8.5l0,0.1c-0.4,5.2-4.7,7.5-9.7,7.1l-3.7-0.3l-0.6,6.7l-4.9-0.4
			L259.8,42.2z M267.7,54.3c2.5,0.2,4-1.1,4.2-3.1l0-0.1c0.2-2.2-1.3-3.5-3.7-3.7l-3.8-0.3l-0.6,6.8L267.7,54.3z"/>
		<path class="st3" d="M286.6,44.3l4.5,0.4l7.7,23.4l-5.2-0.4l-1.6-5.2l-9.5-0.8l-2.5,4.9l-5-0.4L286.6,44.3z M290.7,57.9l-2.4-7.5
			l-3.6,7L290.7,57.9z"/>
		<path class="st3" d="M304.2,45.9l10.2,0.8c2.8,0.2,5,1.2,6.3,2.8c1.1,1.4,1.7,3.2,1.5,5.3l0,0.1c-0.3,3.6-2.4,5.7-5.4,6.5l4.8,8.5
			l-5.8-0.5l-4.2-7.6l-3.9-0.3l-0.6,7.2l-4.9-0.4L304.2,45.9z M313.2,57.6c2.4,0.2,3.9-1,4-2.9l0-0.1c0.2-2.1-1.2-3.3-3.6-3.5
			l-4.9-0.4l-0.5,6.4L313.2,57.6z"/>
		<path class="st3" d="M332.2,52.8l-6.8-0.6l0.4-4.5l18.6,1.5l-0.4,4.5l-6.8-0.6l-1.5,17.9l-4.9-0.4L332.2,52.8z"/>
		<path class="st3" d="M348.1,49.5l4.5,0.4l9.4,14.7l1.1-13.8l4.9,0.4l-1.9,22.4l-4.2-0.3l-9.7-15.1l-1.2,14.2l-4.9-0.4L348.1,49.5z
			"/>
		<path class="st3" d="M373.4,51.6l16.9,1.4l-0.4,4.4l-12-1l-0.4,4.5l10.6,0.9l-0.4,4.4l-10.6-0.9l-0.4,4.7l12.2,1l-0.4,4.4
			L371.5,74L373.4,51.6z"/>
		<path class="st3" d="M394.8,53.4l10.2,0.8c2.8,0.2,5,1.2,6.3,2.8c1.1,1.4,1.7,3.2,1.5,5.3l0,0.1c-0.3,3.6-2.4,5.7-5.4,6.5l4.8,8.5
			l-5.8-0.5l-4.2-7.6l-3.9-0.3l-0.6,7.2l-4.9-0.4L394.8,53.4z M403.8,65.1c2.4,0.2,3.9-1,4-2.9l0-0.1c0.2-2.1-1.2-3.3-3.6-3.5
			l-4.9-0.4l-0.5,6.4L403.8,65.1z"/>
		<path class="st3" d="M414.8,74.3l3.2-3.2c1.9,1.8,3.9,3.1,6.5,3.3c2,0.2,3.3-0.5,3.4-1.8l0-0.1c0.1-1.2-0.6-2-4.3-3.2
			c-4.4-1.5-7.2-3-6.9-7.5l0-0.1c0.3-4.1,3.8-6.5,8.4-6.1c3.3,0.3,6,1.5,8.1,3.5l-2.9,3.5c-1.9-1.5-3.8-2.5-5.6-2.7
			c-1.9-0.2-3,0.6-3,1.7l0,0.1c-0.1,1.5,0.8,2,4.6,3.3c4.4,1.6,6.9,3.4,6.5,7.3l0,0.1c-0.4,4.4-4,6.7-8.8,6.3
			C420.6,78.4,417.3,76.9,414.8,74.3z"/>
		<path class="st3" d="M438.4,57l4.9,0.4l-0.7,8.9l9.1,0.8l0.7-8.9l4.9,0.4L455.5,81l-4.9-0.4l0.7-9l-9.1-0.8l-0.7,9l-4.9-0.4
			L438.4,57z"/>
		<path class="st3" d="M463,59l4.9,0.4L466,81.8l-4.9-0.4L463,59z"/>
		<path class="st3" d="M473.5,59.9l9.2,0.8c5.3,0.4,8.3,3.9,7.9,8.5l0,0.1c-0.4,5.2-4.7,7.5-9.7,7.1l-3.7-0.3l-0.6,6.7l-4.9-0.4
			L473.5,59.9z M481.4,71.9c2.5,0.2,4-1.1,4.2-3.1l0-0.1c0.2-2.2-1.3-3.5-3.7-3.7l-3.8-0.3l-0.6,6.8L481.4,71.9z"/>
	</g>
	<g class="st0">
		<defs>
			<rect id="SVGID_5_" width="596.2" height="596.2"/>
		</defs>
		<clipPath id="SVGID_6_">
			<use xlink:href="#SVGID_5_"  style="overflow:visible;"/>
		</clipPath>
		<g class="st4">
			<g>
				<defs>
					<rect id="SVGID_7_" x="79.9" y="12.6" width="182.3" height="163.2"/>
				</defs>
				<clipPath id="SVGID_8_">
					<use xlink:href="#SVGID_7_"  style="overflow:visible;"/>
				</clipPath>
				<path class="st5" d="M193.4,85c0,0.6-0.1,1.4-0.2,2.2c-0.1,2,1.1,3.4,2.9,3.5c1.8,0.2,3.2-1,3.4-2.9c0.7-5.9-0.4-11.5-3.1-16.7
					c-9-17.1-31.3-20.7-45.2-7.4c-6.8,6.5-9.7,14.7-8.7,24.1c0.2,1.9,1.8,3.1,3.5,2.9c1.9-0.2,3-1.8,2.9-3.7
					c-0.1-1.9-0.2-3.7,0.1-5.6c1.7-12.8,14-21.5,26.6-18.9C185.9,64.6,193.8,74.5,193.4,85 M208.3,100c-4.3-1-8.6-2-12.9-2.9
					c-5.6-1.2-11.1-2.5-16.7-3.7c-2.8-0.6-5.7-1.4-8.5-1.7c-6.4-0.6-12,1.4-16.8,5.7c-0.7,0.6-1.4,1-2.3,1.1
					c-5.5,0.6-11,1.2-16.5,1.9c-0.6,0.1-0.8,0-1.1-0.6c-1.2-3-3.5-4.9-6.7-5.7c-4-1.1-8.1-2.2-12.1-3.3c-0.8-0.2-1-0.6-1-1.3
					c-0.3-4-0.3-8,0.2-12c0.2-2,1.3-3.2,3.4-3.2c2.4-0.1,4.8,0,7.1,0c2.1,0,3-0.8,3.7-2.8c1-2.7,2.1-5.3,3.3-7.9
					c1.1-2.3,1-3.3-0.8-5.2c-1.6-1.6-3.2-3.2-4.8-4.8c-1.4-1.4-1.5-3-0.3-4.5c2.6-3.4,5.6-6.4,8.9-9.1c1.9-1.5,3.3-1.5,5.1,0.3
					c1.5,1.5,3.1,3.1,4.6,4.6c1.5,1.5,2.8,1.7,4.6,0.7c3-1.7,6.1-3,9.3-4c1.9-0.6,2.7-1.6,2.7-3.7c0-2.3,0-4.6,0-6.9
					c0-2.2,1-3.3,3.2-3.6c4.2-0.5,8.5-0.5,12.7-0.1c2,0.2,3.2,1.4,3.2,3.4c0,2.3,0,4.7,0,7c0,2,0.8,3.1,2.7,3.6
					c3.4,0.9,6.6,2.2,9.7,3.9c1.4,0.8,2.9,0.6,4.1-0.5c1.8-1.7,3.5-3.5,5.3-5.2c1.5-1.5,3-1.6,4.7-0.3c3.4,2.6,6.4,5.6,9.1,8.9
					c1.3,1.7,1.3,3.2-0.2,4.7c-1.6,1.7-3.3,3.3-4.9,4.9c-1.3,1.3-1.6,2.7-0.7,4.4c1.7,3.1,3.1,6.3,4.1,9.7c0.5,1.7,1.6,2.5,3.4,2.5
					c2.3,0,4.6,0,6.9,0c2.6,0,3.6,0.9,3.9,3.5c0.5,4,0.5,8,0.2,12c-0.1,0.7-0.5,0.9-1,1c-3.7,1-7.4,2.1-11.2,3
					C212.5,94.6,209.8,96.4,208.3,100"/>
				<path class="st6" d="M193.4,85c0,0.6-0.1,1.4-0.2,2.2c-0.1,2,1.1,3.4,2.9,3.5c1.8,0.2,3.2-1,3.4-2.9c0.7-5.9-0.4-11.5-3.1-16.7
					c-9-17.1-31.3-20.7-45.2-7.4c-6.8,6.5-9.7,14.7-8.7,24.1c0.2,1.9,1.8,3.1,3.5,2.9c1.9-0.2,3-1.8,2.9-3.7
					c-0.1-1.9-0.2-3.7,0.1-5.6c1.7-12.8,14-21.5,26.6-18.9C185.9,64.6,193.8,74.5,193.4,85z M208.3,100c-4.3-1-8.6-2-12.9-2.9
					c-5.6-1.2-11.1-2.5-16.7-3.7c-2.8-0.6-5.7-1.4-8.5-1.7c-6.4-0.6-12,1.4-16.8,5.7c-0.7,0.6-1.4,1-2.3,1.1
					c-5.5,0.6-11,1.2-16.5,1.9c-0.6,0.1-0.8,0-1.1-0.6c-1.2-3-3.5-4.9-6.7-5.7c-4-1.1-8.1-2.2-12.1-3.3c-0.8-0.2-1-0.6-1-1.3
					c-0.3-4-0.3-8,0.2-12c0.2-2,1.3-3.2,3.4-3.2c2.4-0.1,4.8,0,7.1,0c2.1,0,3-0.8,3.7-2.8c1-2.7,2.1-5.3,3.3-7.9
					c1.1-2.3,1-3.3-0.8-5.2c-1.6-1.6-3.2-3.2-4.8-4.8c-1.4-1.4-1.5-3-0.3-4.5c2.6-3.4,5.6-6.4,8.9-9.1c1.9-1.5,3.3-1.5,5.1,0.3
					c1.5,1.5,3.1,3.1,4.6,4.6c1.5,1.5,2.8,1.7,4.6,0.7c3-1.7,6.1-3,9.3-4c1.9-0.6,2.7-1.6,2.7-3.7c0-2.3,0-4.6,0-6.9
					c0-2.2,1-3.3,3.2-3.6c4.2-0.5,8.5-0.5,12.7-0.1c2,0.2,3.2,1.4,3.2,3.4c0,2.3,0,4.7,0,7c0,2,0.8,3.1,2.7,3.6
					c3.4,0.9,6.6,2.2,9.7,3.9c1.4,0.8,2.9,0.6,4.1-0.5c1.8-1.7,3.5-3.5,5.3-5.2c1.5-1.5,3-1.6,4.7-0.3c3.4,2.6,6.4,5.6,9.1,8.9
					c1.3,1.7,1.3,3.2-0.2,4.7c-1.6,1.7-3.3,3.3-4.9,4.9c-1.3,1.3-1.6,2.7-0.7,4.4c1.7,3.1,3.1,6.3,4.1,9.7c0.5,1.7,1.6,2.5,3.4,2.5
					c2.3,0,4.6,0,6.9,0c2.6,0,3.6,0.9,3.9,3.5c0.5,4,0.5,8,0.2,12c-0.1,0.7-0.5,0.9-1,1c-3.7,1-7.4,2.1-11.2,3
					C212.5,94.6,209.8,96.4,208.3,100z"/>
				<path class="st5" d="M147.6,105.3c-1.1,1.8-2,3.4-3,5c-1.6,2.6-3.1,5.3-4.7,7.9c-1.1,1.9-0.9,3.4,0.9,4.8
					c7.9,6.6,20,5.3,26.3-2.8c0.8-1,1.5-1.9,2.3-3c1.3,1,2.6,2,3.9,3c10.6,8.2,21.2,16.4,31.8,24.6c1.1,0.9,1.9,1.9,1.5,3.3
					c-0.4,1.6-1.3,2.7-2.9,3.1c-1,0.3-1.9-0.1-2.7-0.8c-6.5-5.1-13.1-10.1-19.6-15.2c-1.5-1.2-3.2-1.2-4.4-0.1
					c-1.5,1.3-1.4,3.7,0.2,5c3.6,2.9,7.3,5.7,11,8.5c2.6,2,5.2,4,7.7,6c1.6,1.3,1.8,3,0.5,4.7c-1.3,1.7-3.1,2-4.7,0.8
					c-5.3-4.1-10.6-8.2-15.8-12.3c-1.7-1.3-3.4-2.7-5.1-4c-1.6-1.2-3.6-1-4.7,0.5c-1.1,1.5-0.8,3.4,0.8,4.7
					c5.4,4.2,10.8,8.3,16.1,12.5c0.1,0.1,0.3,0.2,0.4,0.4c1.1,0.8,1.8,1.7,1.5,3.1c-0.3,1.5-1.2,2.6-2.7,3.2c-1,0.4-1.9,0-2.8-0.6
					c-4-3.1-7.9-6.1-11.9-9.2c-2.4-1.9-4.8-3.8-7.3-5.7c-1.7-1.3-3.6-1.1-4.8,0.4c-1.2,1.5-0.8,3.4,0.9,4.7c3.9,3,7.8,6.1,11.7,9.1
					c1.1,0.8,1.8,1.8,1.5,3.2c-0.3,1.5-1.2,2.6-2.6,3.1c-1.1,0.4-2,0.1-2.9-0.6c-6.2-4.8-12.5-9.7-18.7-14.5
					c-6.8-5.2-13.5-10.5-20.3-15.7c-0.8-0.6-1-1.1-0.7-2.1c3-10.8,6-21.7,8.9-32.6c0.2-0.9,0.6-1.3,1.6-1.3
					c3.7-0.4,7.4-0.8,11.1-1.2C146.5,105.4,146.9,105.4,147.6,105.3"/>
				<path class="st6" d="M147.6,105.3c-1.1,1.8-2,3.4-3,5c-1.6,2.6-3.1,5.3-4.7,7.9c-1.1,1.9-0.9,3.4,0.9,4.8
					c7.9,6.6,20,5.3,26.3-2.8c0.8-1,1.5-1.9,2.3-3c1.3,1,2.6,2,3.9,3c10.6,8.2,21.2,16.4,31.8,24.6c1.1,0.9,1.9,1.9,1.5,3.3
					c-0.4,1.6-1.3,2.7-2.9,3.1c-1,0.3-1.9-0.1-2.7-0.8c-6.5-5.1-13.1-10.1-19.6-15.2c-1.5-1.2-3.2-1.2-4.4-0.1
					c-1.5,1.3-1.4,3.7,0.2,5c3.6,2.9,7.3,5.7,11,8.5c2.6,2,5.2,4,7.7,6c1.6,1.3,1.8,3,0.5,4.7c-1.3,1.7-3.1,2-4.7,0.8
					c-5.3-4.1-10.6-8.2-15.8-12.3c-1.7-1.3-3.4-2.7-5.1-4c-1.6-1.2-3.6-1-4.7,0.5c-1.1,1.5-0.8,3.4,0.8,4.7
					c5.4,4.2,10.8,8.3,16.1,12.5c0.1,0.1,0.3,0.2,0.4,0.4c1.1,0.8,1.8,1.7,1.5,3.1c-0.3,1.5-1.2,2.6-2.7,3.2c-1,0.4-1.9,0-2.8-0.6
					c-4-3.1-7.9-6.1-11.9-9.2c-2.4-1.9-4.8-3.8-7.3-5.7c-1.7-1.3-3.6-1.1-4.8,0.4c-1.2,1.5-0.8,3.4,0.9,4.7c3.9,3,7.8,6.1,11.7,9.1
					c1.1,0.8,1.8,1.8,1.5,3.2c-0.3,1.5-1.2,2.6-2.6,3.1c-1.1,0.4-2,0.1-2.9-0.6c-6.2-4.8-12.5-9.7-18.7-14.5
					c-6.8-5.2-13.5-10.5-20.3-15.7c-0.8-0.6-1-1.1-0.7-2.1c3-10.8,6-21.7,8.9-32.6c0.2-0.9,0.6-1.3,1.6-1.3
					c3.7-0.4,7.4-0.8,11.1-1.2C146.5,105.4,146.9,105.4,147.6,105.3z"/>
				<path class="st5" d="M217.9,141.7c-2,1.3-4.7,1.2-6.8-0.4c-2.8-2.1-5.5-4.2-8.3-6.4c-10.4-8-20.8-16.1-31.1-24.1
					c-1.9-1.5-3.8-3-5.8-4.5c-2.1-1.6-4.8-0.5-5.2,2c-0.2,1.2,0.3,2.2,1.2,3c0.8,0.6,1.6,1.2,2.4,1.9c-2.6,4.1-5.7,7.3-10.8,7.6
					c-2.3,0.2-4.5-0.3-6.7-1.5c0.7-1.3,1.5-2.5,2.2-3.8c1.8-3,3.6-6,5.4-9.1c3.2-5.5,7.9-8.4,14.2-8.6c1.7,0,3.4,0.4,5,0.8
					c11.2,2.5,22.5,5.1,33.7,7.6c0.7,0.2,1.1,0.5,1.3,1.2c3,11.1,6.1,22.2,9.1,33.3C217.8,141.2,217.9,141.5,217.9,141.7"/>
				<path class="st6" d="M217.9,141.7c-2,1.3-4.7,1.2-6.8-0.4c-2.8-2.1-5.5-4.2-8.3-6.4c-10.4-8-20.8-16.1-31.1-24.1
					c-1.9-1.5-3.8-3-5.8-4.5c-2.1-1.6-4.8-0.5-5.2,2c-0.2,1.2,0.3,2.2,1.2,3c0.8,0.6,1.6,1.2,2.4,1.9c-2.6,4.1-5.7,7.3-10.8,7.6
					c-2.3,0.2-4.5-0.3-6.7-1.5c0.7-1.3,1.5-2.5,2.2-3.8c1.8-3,3.6-6,5.4-9.1c3.2-5.5,7.9-8.4,14.2-8.6c1.7,0,3.4,0.4,5,0.8
					c11.2,2.5,22.5,5.1,33.7,7.6c0.7,0.2,1.1,0.5,1.3,1.2c3,11.1,6.1,22.2,9.1,33.3C217.8,141.2,217.9,141.5,217.9,141.7z"/>
				<path class="st5" d="M98.4,139.1c4-14.4,7.9-28.7,11.8-43c2.1,0.6,4.1,1.1,6.1,1.7c3,0.8,6,1.6,9.1,2.5c2.1,0.6,2.9,2.2,2.4,4.2
					c-3.3,12.1-6.6,24.2-10,36.3c-0.7,2.4-2.3,3-3.9,2.5C108.7,142,103.6,140.5,98.4,139.1"/>
				<path class="st6" d="M98.4,139.1c4-14.4,7.9-28.7,11.8-43c2.1,0.6,4.1,1.1,6.1,1.7c3,0.8,6,1.6,9.1,2.5c2.1,0.6,2.9,2.2,2.4,4.2
					c-3.3,12.1-6.6,24.2-10,36.3c-0.7,2.4-2.3,3-3.9,2.5C108.7,142,103.6,140.5,98.4,139.1z"/>
				<path class="st5" d="M231.9,96.1c3.9,14.4,7.9,28.6,11.8,43c-1.7,0.5-3.3,0.9-4.9,1.4c-3.3,0.9-6.6,1.8-9.9,2.7
					c-2.5,0.7-4-0.1-4.7-2.7c-3.3-11.9-6.5-23.8-9.8-35.7c-0.7-2.5,0.1-4,2.7-4.7c4.7-1.3,9.4-2.6,14.1-3.9
					C231.4,96.2,231.6,96.2,231.9,96.1"/>
				<path class="st6" d="M231.9,96.1c3.9,14.4,7.9,28.6,11.8,43c-1.7,0.5-3.3,0.9-4.9,1.4c-3.3,0.9-6.6,1.8-9.9,2.7
					c-2.5,0.7-4-0.1-4.7-2.7c-3.3-11.9-6.5-23.8-9.8-35.7c-0.7-2.5,0.1-4,2.7-4.7c4.7-1.3,9.4-2.6,14.1-3.9
					C231.4,96.2,231.6,96.2,231.9,96.1z"/>
			</g>
		</g>
	</g>
</g>
</svg>
