<?xml version="1.0" encoding="utf-8"?>
<!-- Generator: Adobe Illustrator 24.0.0, SVG Export Plug-In . SVG Version: 6.00 Build 0)  -->
<svg version="1.1" id="Livello_1" xmlns="http://www.w3.org/2000/svg" xmlns:xlink="http://www.w3.org/1999/xlink" x="0px" y="0px"
	 viewBox="0 0 707.8 707.8" style="enable-background:new 0 0 707.8 707.8;" xml:space="preserve">
<style type="text/css">
	.st0{clip-path:url(#SVGID_2_);}
	.st1{clip-path:url(#SVGID_4_);fill:#EBECED;}
	.st2{clip-path:url(#SVGID_4_);fill:#DADDDE;}
	.st3{fill:#FFFFFF;}
	.st4{opacity:0.34;clip-path:url(#SVGID_6_);}
	.st5{clip-path:url(#SVGID_8_);fill:#FFFFFF;}
	.st6{clip-path:url(#SVGID_8_);fill:none;stroke:#92C9EC;stroke-width:2.051;stroke-miterlimit:10;}
</style>
<g>
	<defs>
		<rect id="SVGID_1_" width="707.8" height="707.8"/>
	</defs>
	<clipPath id="SVGID_2_">
		<use xlink:href="#SVGID_1_"  style="overflow:visible;"/>
	</clipPath>
	<g class="st0">
		<defs>
			<rect id="SVGID_3_" width="707.8" height="707.8"/>
		</defs>
		<clipPath id="SVGID_4_">
			<use xlink:href="#SVGID_3_"  style="overflow:visible;"/>
		</clipPath>
		<path class="st1" d="M86.9,112.6C22.3,132.1-14.2,200.2,5.2,264.7l107.4,356.2c19.5,64.6,87.6,101.1,152.1,81.6l356.2-107.4
			c64.5-19.5,101.1-87.6,81.6-152.1L595.2,86.9C575.7,22.3,507.6-14.2,443.1,5.2L86.9,112.6z"/>
		<path class="st2" d="M702.6,443.1L595.2,86.9C577.9,29.6,522.5-5.5,465.1,0.8C511.8,125.5,616.9,521.4,143.2,672
			c30.8,30.7,77,44,121.6,30.6l356.2-107.4C685.5,575.7,722,507.6,702.6,443.1"/>
	</g>
	<g class="st0">
		<path class="st3" d="M209.2,83.8l1.6-0.5l6,20l12.6-3.8l0.4,1.5l-14.2,4.3L209.2,83.8z"/>
		<path class="st3" d="M228.2,78.1l15.3-4.6l0.4,1.5l-13.7,4.1l2.5,8.5l12.3-3.7l0.4,1.5L233.3,89l2.6,8.6l13.9-4.2l0.4,1.5
			l-15.5,4.7L228.2,78.1z"/>
		<path class="st3" d="M258.1,69.1l1.5-0.5l20.5,14.2l-5.6-18.7l1.5-0.5l6.5,21.5l-1.2,0.4L260.3,71l5.8,19.1l-1.5,0.5L258.1,69.1z"
			/>
		<path class="st3" d="M284.7,72.9L284.7,72.9c-1.8-5.9,1-12.5,7.5-14.5c6.5-2,12.4,1.9,14.1,7.8l0,0.1c1.8,5.9-1,12.4-7.5,14.4
			C292.3,82.7,286.4,78.8,284.7,72.9z M304.6,66.9L304.6,66.9c-1.6-5.4-6.8-8.6-12.1-7c-5.3,1.6-7.8,7.1-6.2,12.4l0,0.1
			c1.6,5.3,6.8,8.5,12.1,6.9C303.7,77.6,306.2,72.2,304.6,66.9z"/>
		<path class="st3" d="M312.5,72.7l0.7-1.5c3,1.5,5.5,1.8,8.7,0.9c3.2-1,4.9-3.5,4.2-5.9l0-0.1c-0.7-2.3-2.3-3.2-7.5-2.7
			c-5.5,0.5-8.1-0.6-9.1-3.9l0-0.1c-1-3.2,1.2-6.5,5.2-7.7c3.1-0.9,5.5-0.7,8.2,0.4l-0.6,1.6c-2.6-1.1-4.8-1.2-7.2-0.5
			c-3.2,1-4.7,3.4-4,5.6l0,0.1c0.7,2.3,2.3,3.3,7.7,2.8c5.3-0.5,7.9,0.7,8.9,3.8l0,0.1c1,3.5-1.2,6.8-5.4,8
			C318.8,74.6,315.8,74.3,312.5,72.7z"/>
		<path class="st3" d="M334,47.8l-7.5,2.3l-0.4-1.5l16.6-5l0.4,1.5l-7.5,2.3l6,20l-1.6,0.5L334,47.8z"/>
		<path class="st3" d="M347.5,42.1l9-2.7c2.6-0.8,5-0.6,6.7,0.3c1.3,0.7,2.4,2,2.8,3.5l0,0.1c1.1,3.6-1,6.5-4.4,8l9.9,7.1l-2,0.6
			l-9.5-6.8l-7,2.1l2.7,8.9l-1.6,0.5L347.5,42.1z M359.7,50.6c3.6-1.1,5.7-3.7,4.8-6.8l0-0.1c-0.9-2.9-3.7-4-7.6-2.8l-7.3,2.2
			l2.9,9.7L359.7,50.6z"/>
		<path class="st3" d="M369.7,35.4l15.3-4.6l0.4,1.5l-13.7,4.1l2.5,8.5l12.3-3.7l0.4,1.5l-12.3,3.7l2.6,8.6l13.9-4.2l0.4,1.5
			l-15.5,4.7L369.7,35.4z"/>
	</g>
	<g class="st0">
		<path class="st3" d="M209.9,109.9l9.8-3c2.7-0.8,5.1-0.7,6.9,0.3c1.6,0.8,2.7,2.3,3.3,4.4l0,0.1c1,3.5-0.2,6.2-2.6,8.1l7.6,6.1
			l-5.5,1.7l-6.7-5.5l-3.7,1.1l2.1,6.9l-4.7,1.4L209.9,109.9z M222.6,117.5c2.3-0.7,3.3-2.3,2.7-4.1l0-0.1c-0.6-2-2.3-2.6-4.6-2
			l-4.7,1.4l1.9,6.2L222.6,117.5z"/>
		<path class="st3" d="M232.1,103.2l16.2-4.9l1.3,4.2l-11.5,3.5l1.3,4.4l10.1-3.1l1.3,4.2l-10.1,3.1l1.4,4.5l11.7-3.5l1.3,4.2
			l-16.4,4.9L232.1,103.2z"/>
		<path class="st3" d="M252.7,97l16.4-4.9l1.3,4.3l-11.6,3.5l1.4,4.6l10.3-3.1l1.3,4.3l-10.3,3.1l2.5,8.3l-4.7,1.4L252.7,97z"/>
		<path class="st3" d="M272.9,90.9l16.2-4.9l1.3,4.2l-11.5,3.5l1.3,4.4l10.1-3.1l1.3,4.2l-10.1,3.1l1.4,4.5l11.7-3.5l1.3,4.2
			l-16.4,4.9L272.9,90.9z"/>
		<path class="st3" d="M293.5,84.7l9.8-3c2.7-0.8,5.1-0.7,6.9,0.3c1.6,0.8,2.7,2.3,3.3,4.4l0,0.1c1,3.5-0.2,6.2-2.6,8.1l7.6,6.1
			l-5.5,1.7l-6.7-5.5l-3.7,1.1l2.1,6.9l-4.7,1.4L293.5,84.7z M306.1,92.3c2.3-0.7,3.3-2.3,2.7-4.1l0-0.1c-0.6-2-2.3-2.6-4.6-2
			l-4.7,1.4l1.9,6.2L306.1,92.3z"/>
		<path class="st3" d="M315.7,78l16.2-4.9l1.3,4.2l-11.5,3.5l1.3,4.4l10.1-3.1l1.3,4.2l-10.1,3.1l1.4,4.5l11.7-3.5l1.3,4.2
			l-16.4,4.9L315.7,78z"/>
		<path class="st3" d="M336.3,71.8l4.4-1.3l14.1,10.2l-4-13.2l4.7-1.4l6.5,21.5l-4,1.2l-14.5-10.5l4.1,13.7l-4.7,1.4L336.3,71.8z"/>
		<path class="st3" d="M365.3,82.6l7.7-17.3l-11.5,3.5l-1.3-4.1l17.6-5.3l1.1,3.6l-7.7,17.3l11.8-3.6l1.3,4.1l-17.9,5.4L365.3,82.6z
			"/>
		<path class="st3" d="M382.3,57.9l16.2-4.9l1.3,4.2l-11.5,3.5l1.3,4.4l10.1-3.1l1.3,4.2l-10.1,3.1l1.4,4.5l11.7-3.5l1.3,4.2
			l-16.4,4.9L382.3,57.9z"/>
	</g>
	<g class="st0">
		<defs>
			<rect id="SVGID_5_" width="707.8" height="707.8"/>
		</defs>
		<clipPath id="SVGID_6_">
			<use xlink:href="#SVGID_5_"  style="overflow:visible;"/>
		</clipPath>
		<g class="st4">
			<g>
				<defs>
					<rect id="SVGID_7_" x="393.7" y="39.2" width="177.8" height="194.3"/>
				</defs>
				<clipPath id="SVGID_8_">
					<use xlink:href="#SVGID_7_"  style="overflow:visible;"/>
				</clipPath>
				<path class="st5" d="M477.9,128.8c-0.9-1.1-1.6-2.1-2.5-2.9c-5.2-5.2-10.4-10.5-15.6-15.7c-1.7-1.7-3.9-1.7-5.4-0.2
					c-1.5,1.5-1.5,3.7,0.1,5.3c7,7.1,14.1,14.2,21.2,21.2c1.8,1.8,3.9,1.6,5.6-0.3c0.4-0.5,0.9-1,1.3-1.5
					c9.3-10.9,18.5-21.9,27.8-32.8c3.8-4.5,7.7-8.9,11.5-13.4c0.4-0.5,0.9-1,1.3-1.5c1.4-1.9,1.3-4-0.4-5.4
					c-1.6-1.3-3.9-1.2-5.4,0.6c-4.4,5.1-8.7,10.3-13.1,15.5c-4.4,5.3-8.9,10.5-13.3,15.7C486.7,118.4,482.5,123.3,477.9,128.8
					 M482.7,159.6c2.2-0.2,4.5-0.3,6.7-0.6c1.8-0.3,3.6-0.6,5.4-1.2c25.2-7.4,38.5-33.9,29.3-58.6c-1.2-3.1-3.1-4.4-5.4-3.5
					c-2.2,0.8-2.8,3.1-1.6,6.2c4.8,13.3,3,25.8-6,36.7c-8.9,10.8-20.8,15.2-34.6,12.8c-14.7-2.6-24.7-11.4-28.9-25.7
					c-4.3-14.4-0.6-27.2,10.4-37.6c6.8-6.4,15-9.6,24.3-9.7c8.7-0.1,16.5,2.5,23.4,7.9c1.2,0.9,2.4,1.6,3.9,1.2
					c1.4-0.4,2.4-1.3,2.7-2.8c0.4-1.8-0.5-3.1-1.8-4.1c-10.4-8.1-22.1-11.2-35-9c-22.6,3.8-38.7,24.4-36.8,47
					C440.6,141.9,459.5,159.5,482.7,159.6 M425.2,140.7c0.4-2.5,0.8-4.9,1.2-7.4c0.7-4-0.5-7.5-2.8-10.7c-1.1-1.5-2.1-3-3.2-4.5
					c-1.4-1.9-1.4-3.8,0-5.8c1-1.3,1.9-2.7,2.9-4c3-3.8,3.9-8.1,2.9-12.8c-0.3-1.6-0.6-3.3-0.9-4.9c-0.4-2.2,0.4-3.8,2.3-4.9
					c1.8-1,3.5-2,5.3-2.9c3.6-1.9,5.9-4.9,7-8.8c0.6-2,1.2-4,1.7-6c0.6-2.1,2-3.1,4.2-3.2c2.4-0.1,4.9-0.3,7.3-0.5
					c3.3-0.3,6.1-1.8,8.4-4.2c1.5-1.6,3-3.2,4.4-4.9c1.6-1.8,3.4-2.2,5.6-1.2c1.6,0.7,3.2,1.3,4.8,2c4.2,1.9,8.4,1.9,12.6,0
					c1.7-0.8,3.5-1.5,5.3-2.2c1.8-0.7,3.4-0.4,4.7,1c1.3,1.4,2.7,2.9,3.9,4.4c3,3.5,6.8,5.2,11.4,5.4c1.9,0.1,3.8,0.2,5.7,0.4
					c1.7,0.1,2.9,1,3.5,2.6c0.6,1.8,1.2,3.5,1.6,5.3c1.2,4.8,3.9,8.3,8.3,10.6c1.5,0.8,3,1.7,4.5,2.5c1.8,1,2.6,2.6,2.2,4.6
					c-0.3,1.8-0.5,3.5-0.9,5.3c-0.9,4.6-0.1,8.7,2.8,12.5c1,1.3,1.9,2.6,2.8,3.9c1.6,2.1,1.7,4.2,0,6.4c-0.9,1.2-1.7,2.4-2.6,3.6
					c-3.1,3.9-4,8.3-3,13.1c0.4,1.7,0.6,3.4,0.8,5.1c0.3,2-0.4,3.5-2.2,4.5c-1.9,1-3.7,2.1-5.6,3.1c-4.2,2.4-6.6,6-7.3,10.8
					c-0.3,1.9-1.1,3.7-1.8,5.5c-0.2,0.4-0.7,1-1.1,1.1c-2.2,0.4-4.4,0.8-6.6,0.8c-4.2,0.1-8.1,0.9-11.1,4c-1.7,1.8-3.4,3.7-5.1,5.5
					c-1.6,1.7-3.3,2.1-5.5,1.1c-1.7-0.7-3.4-1.4-5.1-2.1c-4-1.7-8-1.7-12,0c-1.8,0.7-3.5,1.4-5.3,2.2c-2.1,0.9-3.8,0.6-5.3-1.1
					c-1.2-1.3-2.4-2.6-3.6-4c-2.8-3.4-6.4-5.3-10.8-5.5c-1.8-0.1-3.6-0.2-5.3-0.2c-2.7,0-4.2-0.9-5.1-3.5c-0.5-1.5-0.7-3.1-1.1-4.7
					c-1-4.1-3-7.5-6.8-9.6c-2.1-1.2-4.3-2.4-6.4-3.6C425.8,143.6,425.1,142.4,425.2,140.7"/>
				<path class="st6" d="M477.9,128.8c-0.9-1.1-1.6-2.1-2.5-2.9c-5.2-5.2-10.4-10.5-15.6-15.7c-1.7-1.7-3.9-1.7-5.4-0.2
					c-1.5,1.5-1.5,3.7,0.1,5.3c7,7.1,14.1,14.2,21.2,21.2c1.8,1.8,3.9,1.6,5.6-0.3c0.4-0.5,0.9-1,1.3-1.5
					c9.3-10.9,18.5-21.9,27.8-32.8c3.8-4.5,7.7-8.9,11.5-13.4c0.4-0.5,0.9-1,1.3-1.5c1.4-1.9,1.3-4-0.4-5.4
					c-1.6-1.3-3.9-1.2-5.4,0.6c-4.4,5.1-8.7,10.3-13.1,15.5c-4.4,5.3-8.9,10.5-13.3,15.7C486.7,118.4,482.5,123.3,477.9,128.8z
					 M482.7,159.6c2.2-0.2,4.5-0.3,6.7-0.6c1.8-0.3,3.6-0.6,5.4-1.2c25.2-7.4,38.5-33.9,29.3-58.6c-1.2-3.1-3.1-4.4-5.4-3.5
					c-2.2,0.8-2.8,3.1-1.6,6.2c4.8,13.3,3,25.8-6,36.7c-8.9,10.8-20.8,15.2-34.6,12.8c-14.7-2.6-24.7-11.4-28.9-25.7
					c-4.3-14.4-0.6-27.2,10.4-37.6c6.8-6.4,15-9.6,24.3-9.7c8.7-0.1,16.5,2.5,23.4,7.9c1.2,0.9,2.4,1.6,3.9,1.2
					c1.4-0.4,2.4-1.3,2.7-2.8c0.4-1.8-0.5-3.1-1.8-4.1c-10.4-8.1-22.1-11.2-35-9c-22.6,3.8-38.7,24.4-36.8,47
					C440.6,141.9,459.5,159.5,482.7,159.6z M425.2,140.7c0.4-2.5,0.8-4.9,1.2-7.4c0.7-4-0.5-7.5-2.8-10.7c-1.1-1.5-2.1-3-3.2-4.5
					c-1.4-1.9-1.4-3.8,0-5.8c1-1.3,1.9-2.7,2.9-4c3-3.8,3.9-8.1,2.9-12.8c-0.3-1.6-0.6-3.3-0.9-4.9c-0.4-2.2,0.4-3.8,2.3-4.9
					c1.8-1,3.5-2,5.3-2.9c3.6-1.9,5.9-4.9,7-8.8c0.6-2,1.2-4,1.7-6c0.6-2.1,2-3.1,4.2-3.2c2.4-0.1,4.9-0.3,7.3-0.5
					c3.3-0.3,6.1-1.8,8.4-4.2c1.5-1.6,3-3.2,4.4-4.9c1.6-1.8,3.4-2.2,5.6-1.2c1.6,0.7,3.2,1.3,4.8,2c4.2,1.9,8.4,1.9,12.6,0
					c1.7-0.8,3.5-1.5,5.3-2.2c1.8-0.7,3.4-0.4,4.7,1c1.3,1.4,2.7,2.9,3.9,4.4c3,3.5,6.8,5.2,11.4,5.4c1.9,0.1,3.8,0.2,5.7,0.4
					c1.7,0.1,2.9,1,3.5,2.6c0.6,1.8,1.2,3.5,1.6,5.3c1.2,4.8,3.9,8.3,8.3,10.6c1.5,0.8,3,1.7,4.5,2.5c1.8,1,2.6,2.6,2.2,4.6
					c-0.3,1.8-0.5,3.5-0.9,5.3c-0.9,4.6-0.1,8.7,2.8,12.5c1,1.3,1.9,2.6,2.8,3.9c1.6,2.1,1.7,4.2,0,6.4c-0.9,1.2-1.7,2.4-2.6,3.6
					c-3.1,3.9-4,8.3-3,13.1c0.4,1.7,0.6,3.4,0.8,5.1c0.3,2-0.4,3.5-2.2,4.5c-1.9,1-3.7,2.1-5.6,3.1c-4.2,2.4-6.6,6-7.3,10.8
					c-0.3,1.9-1.1,3.7-1.8,5.5c-0.2,0.4-0.7,1-1.1,1.1c-2.2,0.4-4.4,0.8-6.6,0.8c-4.2,0.1-8.1,0.9-11.1,4c-1.7,1.8-3.4,3.7-5.1,5.5
					c-1.6,1.7-3.3,2.1-5.5,1.1c-1.7-0.7-3.4-1.4-5.1-2.1c-4-1.7-8-1.7-12,0c-1.8,0.7-3.5,1.4-5.3,2.2c-2.1,0.9-3.8,0.6-5.3-1.1
					c-1.2-1.3-2.4-2.6-3.6-4c-2.8-3.4-6.4-5.3-10.8-5.5c-1.8-0.1-3.6-0.2-5.3-0.2c-2.7,0-4.2-0.9-5.1-3.5c-0.5-1.5-0.7-3.1-1.1-4.7
					c-1-4.1-3-7.5-6.8-9.6c-2.1-1.2-4.3-2.4-6.4-3.6C425.8,143.6,425.1,142.4,425.2,140.7z"/>
				<path class="st5" d="M525.9,230.2c-2.9-5.2-5.8-9.7-8.2-14.5c-5.3-10.8-10.4-21.8-15.6-32.7c-0.6-1.2-0.5-1.9,0.6-2.8
					c1.8-1.7,3.5-3.6,5.1-5.5c1.6-1.9,3.5-3,6-2.9c0.9,0,1.7-0.2,2.6-0.2c6.1,0.2,10.9-2.1,14.1-7.8c3.6,7.7,6.9,15.2,10.5,22.5
					c3.7,7.3,7.8,14.4,11.8,21.7c-0.5,0.1-1,0.1-1.6,0.2c-4.6,0.1-9.3,0.2-13.9,0.3c-2.6,0.1-3.7,0.9-4.6,3.4
					c-2,5.4-3.9,10.8-5.9,16.1C526.6,228.5,526.4,229.1,525.9,230.2"/>
				<path class="st6" d="M525.9,230.2c-2.9-5.2-5.8-9.7-8.2-14.5c-5.3-10.8-10.4-21.8-15.6-32.7c-0.6-1.2-0.5-1.9,0.6-2.8
					c1.8-1.7,3.5-3.6,5.1-5.5c1.6-1.9,3.5-3,6-2.9c0.9,0,1.7-0.2,2.6-0.2c6.1,0.2,10.9-2.1,14.1-7.8c3.6,7.7,6.9,15.2,10.5,22.5
					c3.7,7.3,7.8,14.4,11.8,21.7c-0.5,0.1-1,0.1-1.6,0.2c-4.6,0.1-9.3,0.2-13.9,0.3c-2.6,0.1-3.7,0.9-4.6,3.4
					c-2,5.4-3.9,10.8-5.9,16.1C526.6,228.5,526.4,229.1,525.9,230.2z"/>
				<path class="st5" d="M439.5,230.1c-1.8-4.8-3.4-9.3-5.1-13.7c-0.5-1.4-1-2.9-1.6-4.3c-1-2.8-2-3.5-4.9-3.5c-5.1,0-10.1,0-15.6,0
					c4.2-7.7,8.3-14.8,12-22.1c3.7-7.3,7-14.8,10.6-22.3c0.8,1.1,1.4,2.3,2.2,3.2c2.5,2.8,5.8,4.1,9.5,4.3c1.3,0.1,2.7,0.3,4,0.2
					c3.4-0.2,5.8,1.4,7.8,3.9c1.3,1.7,2.8,3.2,4.4,4.7c0.9,0.8,1,1.4,0.5,2.5c-3.8,8.1-7.3,16.4-11.3,24.4c-3.6,7.1-7.7,14-11.6,21
					C440.4,228.8,440,229.2,439.5,230.1"/>
				<path class="st6" d="M439.5,230.1c-1.8-4.8-3.4-9.3-5.1-13.7c-0.5-1.4-1-2.9-1.6-4.3c-1-2.8-2-3.5-4.9-3.5c-5.1,0-10.1,0-15.6,0
					c4.2-7.7,8.3-14.8,12-22.1c3.7-7.3,7-14.8,10.6-22.3c0.8,1.1,1.4,2.3,2.2,3.2c2.5,2.8,5.8,4.1,9.5,4.3c1.3,0.1,2.7,0.3,4,0.2
					c3.4-0.2,5.8,1.4,7.8,3.9c1.3,1.7,2.8,3.2,4.4,4.7c0.9,0.8,1,1.4,0.5,2.5c-3.8,8.1-7.3,16.4-11.3,24.4c-3.6,7.1-7.7,14-11.6,21
					C440.4,228.8,440,229.2,439.5,230.1z"/>
			</g>
		</g>
	</g>
</g>
</svg>
