<?xml version="1.0" encoding="utf-8"?>
<!-- Generator: Adobe Illustrator 24.0.0, SVG Export Plug-In . SVG Version: 6.00 Build 0)  -->
<svg version="1.1" id="Livello_1" xmlns="http://www.w3.org/2000/svg" xmlns:xlink="http://www.w3.org/1999/xlink" x="0px" y="0px"
	 viewBox="0 0 572.3 572.3" style="enable-background:new 0 0 572.3 572.3;" xml:space="preserve">
<style type="text/css">
	.st0{clip-path:url(#SVGID_2_);}
	.st1{clip-path:url(#SVGID_4_);fill:#EBECED;}
	.st2{clip-path:url(#SVGID_4_);fill:#DADDDE;}
	.st3{fill:#FFFFFF;}
	.st4{opacity:0.44;clip-path:url(#SVGID_6_);}
	.st5{clip-path:url(#SVGID_8_);fill:#FFFFFF;}
	.st6{clip-path:url(#SVGID_8_);fill:none;stroke:#92C9EC;stroke-width:2.683;stroke-miterlimit:10;}
</style>
<g>
	<defs>
		<rect id="SVGID_1_" width="572.3" height="572.3"/>
	</defs>
	<clipPath id="SVGID_2_">
		<use xlink:href="#SVGID_1_"  style="overflow:visible;"/>
	</clipPath>
	<g class="st0">
		<defs>
			<rect id="SVGID_3_" width="572.3" height="572.3"/>
		</defs>
		<clipPath id="SVGID_4_">
			<use xlink:href="#SVGID_3_"  style="overflow:visible;"/>
		</clipPath>
		<path class="st1" d="M90.5,45.6C33,53.7-7,106.9,1,164.4l44.6,317.3c8.1,57.5,61.3,97.6,118.8,89.5l317.3-44.6
			c57.5-8.1,97.6-61.3,89.5-118.8L526.6,90.5C518.5,33,465.4-7,407.9,1L90.5,45.6z"/>
		<path class="st2" d="M571.2,407.9L526.6,90.5c-7.2-51-49.8-88.2-99.4-90.3C450.5,112.4,488,463.3,64.9,529.2
			c22.2,30.2,59.8,47.6,99.5,42l317.3-44.6C539.2,518.5,579.3,465.4,571.2,407.9"/>
	</g>
	<g class="st0">
		<path class="st3" d="M102,53.3l1.7-0.2l2.9,20.7l13.1-1.8l0.2,1.5l-14.7,2.1L102,53.3z"/>
		<path class="st3" d="M121.7,50.6l15.8-2.2l0.2,1.5l-14.2,2l1.2,8.7l12.7-1.8l0.2,1.5L125,62.1l1.3,8.9l14.3-2l0.2,1.5l-16,2.2
			L121.7,50.6z"/>
		<path class="st3" d="M152.5,46.2l1.6-0.2l18.1,17.2l-2.7-19.4l1.6-0.2l3.1,22.3l-1.2,0.2l-18.5-17.6l2.8,19.8l-1.6,0.2L152.5,46.2
			z"/>
		<path class="st3" d="M178.2,54L178.2,54c-0.9-6.1,2.9-12.2,9.6-13.1c6.7-0.9,11.9,3.8,12.8,9.9l0,0.1c0.9,6.1-2.9,12.1-9.6,13.1
			C184.3,64.9,179.1,60.1,178.2,54z M198.9,51.1L198.9,51.1c-0.8-5.6-5.4-9.5-10.9-8.7c-5.5,0.8-8.8,5.8-8,11.3l0,0.1
			c0.8,5.5,5.4,9.5,10.9,8.7C196.3,61.6,199.7,56.6,198.9,51.1z"/>
		<path class="st3" d="M205.8,58.1l0.9-1.4c2.8,1.9,5.2,2.6,8.4,2.2c3.3-0.5,5.4-2.7,5-5.2l0-0.1c-0.3-2.4-1.8-3.5-7-3.9
			c-5.5-0.3-7.9-1.8-8.4-5.2l0-0.1c-0.5-3.3,2.2-6.3,6.3-6.9c3.2-0.5,5.5,0.1,8,1.6l-0.9,1.5c-2.4-1.5-4.5-1.9-7-1.6
			c-3.3,0.5-5.2,2.6-4.8,5l0,0.1c0.3,2.4,1.7,3.6,7.2,4c5.3,0.3,7.7,1.9,8.2,5.1l0,0.1c0.5,3.6-2.2,6.5-6.5,7.1
			C211.7,60.9,208.8,60.1,205.8,58.1z"/>
		<path class="st3" d="M230.8,36.8l-7.8,1.1l-0.2-1.5l17.2-2.4l0.2,1.5l-7.8,1.1l2.9,20.7l-1.7,0.2L230.8,36.8z"/>
		<path class="st3" d="M245,33.2l9.3-1.3c2.7-0.4,5,0.2,6.6,1.3c1.2,0.9,2,2.3,2.3,3.9l0,0.1c0.5,3.7-1.9,6.2-5.6,7.3l8.7,8.5
			l-2.1,0.3l-8.4-8.2l-7.3,1l1.3,9.2l-1.7,0.2L245,33.2z M255.8,43.5c3.7-0.5,6.2-2.8,5.8-6l0-0.1c-0.4-3-3-4.5-7.1-4l-7.6,1.1
			l1.4,10L255.8,43.5z"/>
		<path class="st3" d="M268,30l15.8-2.2l0.2,1.5l-14.2,2l1.2,8.7l12.7-1.8l0.2,1.5l-12.7,1.8l1.3,8.9l14.3-2l0.2,1.5l-16,2.2L268,30
			z"/>
	</g>
	<g class="st0">
		<path class="st3" d="M106.4,97.5l2.4-3.9c2.2,1.4,4.5,2.1,7,1.8c2-0.3,3.1-1.2,2.9-2.5l0-0.1c-0.2-1.2-1-1.8-4.9-2.2
			c-4.6-0.5-7.7-1.3-8.3-5.8l0-0.1c-0.6-4,2.3-7.2,6.8-7.8c3.2-0.5,6.2,0.2,8.7,1.7l-2,4c-2.2-1.1-4.2-1.6-6.1-1.4s-2.7,1.3-2.6,2.3
			l0,0.1c0.2,1.5,1.2,1.8,5.2,2.3c4.7,0.5,7.5,1.8,8,5.7l0,0.1c0.6,4.4-2.4,7.4-7.2,8C113,100.2,109.4,99.5,106.4,97.5z"/>
		<path class="st3" d="M126.2,86.8L126.2,86.8c-0.9-6.4,3.4-12.3,10.2-13.2c6.9-1,12.5,3.5,13.4,9.8l0,0.1
			c0.9,6.3-3.4,12.2-10.2,13.2C132.8,97.5,127.1,93.1,126.2,86.8z M144.8,84.2L144.8,84.2c-0.5-3.9-3.8-6.7-7.7-6.1
			s-6.2,4.1-5.7,7.9l0,0.1c0.5,3.8,3.8,6.6,7.7,6C143,91.5,145.3,88,144.8,84.2z"/>
		<path class="st3" d="M152.7,71.6l4.9-0.7l2.5,17.8l11.1-1.6l0.6,4.5l-16,2.2L152.7,71.6z"/>
		<path class="st3" d="M173.2,81.7L171.4,69l4.9-0.7l1.8,12.6c0.5,3.6,2.6,5.2,5.6,4.8c3-0.4,4.5-2.5,4.1-6L185.9,67l4.9-0.7
			l1.8,12.6c0.9,6.7-2.4,10.6-8.3,11.4C178.2,91.1,174.1,88.3,173.2,81.7z"/>
		<path class="st3" d="M197.7,84.2l10.2-16l-11.9,1.7l-0.6-4.3l18.2-2.6l0.5,3.7l-10.2,16l12.2-1.7l0.6,4.3l-18.5,2.6L197.7,84.2z"
			/>
		<path class="st3" d="M218.5,62.4l4.9-0.7l3.1,22.3l-4.9,0.7L218.5,62.4z"/>
		<path class="st3" d="M229.5,72.2L229.5,72.2c-0.9-6.4,3.4-12.3,10.2-13.2s12.5,3.5,13.4,9.8l0,0.1c0.9,6.3-3.4,12.2-10.2,13.2
			S230.4,78.6,229.5,72.2z M248.1,69.6L248.1,69.6c-0.5-3.9-3.8-6.7-7.7-6.1c-3.9,0.6-6.2,4.1-5.7,7.9l0,0.1c0.5,3.8,3.8,6.6,7.7,6
			C246.3,77,248.6,73.5,248.1,69.6z"/>
		<path class="st3" d="M256,57.1l4.5-0.6l12.4,12.2L270.9,55l4.8-0.7l3.1,22.3l-4.2,0.6L262,64.5l2,14.1l-4.8,0.7L256,57.1z"/>
		<path class="st3" d="M281.3,53.6l4.9-0.7l3.1,22.3l-4.9,0.7L281.3,53.6z"/>
	</g>
	<g class="st0">
		<path class="st3" d="M120.7,101.5l4.9-0.7l3.1,22.3l-4.9,0.7L120.7,101.5z"/>
		<path class="st3" d="M131.1,100.1l4.5-0.6l12.4,12.2L146.1,98l4.8-0.7l3.1,22.3l-4.2,0.6l-12.8-12.6l2,14.1l-4.8,0.7L131.1,100.1z
			"/>
		<path class="st3" d="M166.4,106.5L166.4,106.5c-0.9-6.4,3.1-12.2,10-13.2c4.2-0.6,6.9,0.5,9.3,2.2l-2.6,4c-1.9-1.3-3.8-2-6-1.7
			c-3.8,0.5-6,4-5.5,7.8l0,0.1c0.5,3.8,3.6,6.6,7.4,6.1c2.5-0.4,4-1.6,5.5-3.4l3.6,2.7c-1.9,2.8-4.3,4.7-8.6,5.3
			C172.9,117.3,167.3,112.9,166.4,106.5z"/>
		<path class="st3" d="M189.3,91.9l4.9-0.7l2.5,17.8l11.1-1.6l0.6,4.5l-16,2.2L189.3,91.9z"/>
		<path class="st3" d="M208.3,100.6L208.3,100.6c-0.9-6.4,3.4-12.3,10.2-13.2c6.9-1,12.5,3.5,13.4,9.8l0,0.1
			c0.9,6.3-3.4,12.2-10.2,13.2C214.8,111.4,209.2,107,208.3,100.6z M226.8,98L226.8,98c-0.5-3.9-3.8-6.7-7.7-6.1
			c-3.9,0.6-6.2,4.1-5.7,7.9l0,0.1c0.5,3.8,3.8,6.6,7.7,6C225.1,105.4,227.4,101.9,226.8,98z"/>
		<path class="st3" d="M236.2,98.3l-1.8-12.7l4.9-0.7l1.8,12.6c0.5,3.6,2.6,5.2,5.6,4.8s4.5-2.5,4-6l-1.8-12.7l4.9-0.7l1.8,12.6
			c0.9,6.7-2.4,10.6-8.3,11.4C241.2,107.7,237.1,104.8,236.2,98.3z"/>
		<path class="st3" d="M258.8,82.1l8.7-1.2c7-1,12.5,3.1,13.4,9.4l0,0.1c0.9,6.3-3.3,11.8-10.3,12.8l-8.7,1.2L258.8,82.1z
			 M269.9,98.8c4-0.6,6.3-3.6,5.8-7.6l0-0.1c-0.6-3.9-3.6-6.3-7.7-5.8l-3.8,0.5l1.9,13.4L269.9,98.8z"/>
	</g>
	<g class="st0">
		<defs>
			<rect id="SVGID_5_" width="572.3" height="572.3"/>
		</defs>
		<clipPath id="SVGID_6_">
			<use xlink:href="#SVGID_5_"  style="overflow:visible;"/>
		</clipPath>
		<g class="st4">
			<g>
				<defs>
					<rect id="SVGID_7_" x="307.2" y="6.3" width="174.3" height="107.4"/>
				</defs>
				<clipPath id="SVGID_8_">
					<use xlink:href="#SVGID_7_"  style="overflow:visible;"/>
				</clipPath>
				<path class="st5" d="M406.3,30.5c-0.5-0.5-0.9-1-1.3-1.5c-9.3-10.7-21-15.5-35.1-14c-11.2,1.2-20.2,6.5-27.1,15.3
					c-5.5,7.1-8.2,15.3-8.2,24.3c0,1.7-0.6,2.4-2,3.3c-2.5,1.5-5.1,3.2-7.1,5.3c-6.5,6.8-9.1,15-7.7,24.3c1,6.3,3.8,11.7,8.5,16.1
					c5.7,5.4,12.5,7.9,20.4,7.8c31.8,0,63.5,0,95.3,0c1.7,0,3.3-0.1,5-0.3c13-1.8,23.6-13.2,24.1-26.3c0.5-11.4-4.2-20.4-14.1-26.3
					c-2.3-1.3-3-2.8-3.3-5.2c-2.3-19.9-23.2-32.4-42-25.3C410,28.7,408.3,29.6,406.3,30.5"/>
				<path class="st6" d="M406.3,30.5c-0.5-0.5-0.9-1-1.3-1.5c-9.3-10.7-21-15.5-35.1-14c-11.2,1.2-20.2,6.5-27.1,15.3
					c-5.5,7.1-8.2,15.3-8.2,24.3c0,1.7-0.6,2.4-2,3.3c-2.5,1.5-5.1,3.2-7.1,5.3c-6.5,6.8-9.1,15-7.7,24.3c1,6.3,3.8,11.7,8.5,16.1
					c5.7,5.4,12.5,7.9,20.4,7.8c31.8,0,63.5,0,95.3,0c1.7,0,3.3-0.1,5-0.3c13-1.8,23.6-13.2,24.1-26.3c0.5-11.4-4.2-20.4-14.1-26.3
					c-2.3-1.3-3-2.8-3.3-5.2c-2.3-19.9-23.2-32.4-42-25.3C410,28.7,408.3,29.6,406.3,30.5z"/>
			</g>
		</g>
	</g>
</g>
</svg>
