<?xml version="1.0" encoding="UTF-8" standalone="no"?><!DOCTYPE svg PUBLIC "-//W3C//DTD SVG 1.1//EN" "http://www.w3.org/Graphics/SVG/1.1/DTD/svg11.dtd"><svg width="100%" height="100%" viewBox="0 0 700 700" version="1.1" xmlns="http://www.w3.org/2000/svg" xmlns:xlink="http://www.w3.org/1999/xlink" xml:space="preserve" xmlns:serif="http://www.serif.com/" style="fill-rule:evenodd;clip-rule:evenodd;stroke-linejoin:round;stroke-miterlimit:2;"><g><g><path d="M111.194,1.359c-87.3,-11.4 -167.3,50.2 -178.7,137.6l-62.6,482.1c-11.3,87.4 50.3,167.4 137.6,178.8l482.1,62.6c87.4,11.3 167.4,-50.3 178.7,-137.6l62.6,-482.1c11.3,-87.4 -50.3,-167.4 -137.6,-178.7l-482.1,-62.7Z" style="fill:#1f3b71;fill-rule:nonzero;"/></g><g><path d="M668.394,724.859l62.6,-482.1c10.1,-77.5 -37.3,-149 -109,-172.2c-11,173.6 -97.5,701.8 -743,627.8c20.2,53.1 68.3,93.6 128.6,101.5l482.1,62.6c87.3,11.4 167.3,-50.2 178.7,-137.6" style="fill:#1f3b71;fill-rule:nonzero;"/></g></g></svg>