<?xml version="1.0" encoding="UTF-8" standalone="no"?><!DOCTYPE svg PUBLIC "-//W3C//DTD SVG 1.1//EN" "http://www.w3.org/Graphics/SVG/1.1/DTD/svg11.dtd"><svg width="100%" height="100%" viewBox="0 0 540 502" version="1.1" xmlns="http://www.w3.org/2000/svg" xmlns:xlink="http://www.w3.org/1999/xlink" xml:space="preserve" xmlns:serif="http://www.serif.com/" style="fill-rule:evenodd;clip-rule:evenodd;stroke-linejoin:round;stroke-miterlimit:2;"><path d="M161.667,91.167c2.5,2.083 4.583,4.166 7.083,6.25c-0.833,0.833 -1.25,1.666 -2.083,2.5c-2.5,-2.5 -5,-4.584 -7.083,-6.667c-2.917,2.917 -5.417,5.417 -8.334,8.75c2.084,2.083 4.584,4.167 7.5,6.667c-0,0.416 -0.416,0.833 -0.416,1.25c-0,0.416 -0.417,0.833 -0.834,1.25c-2.916,-2.5 -5.833,-4.584 -8.75,-7.084c-2.5,2.917 -5,6.25 -7.916,9.167c3.333,2.5 6.25,4.583 9.166,6.667c-0.416,0.833 -0.833,1.25 -1.25,2.083c-3.333,-2.083 -6.25,-4.167 -9.583,-6.667c-2.5,3.334 -4.583,6.667 -7.083,10c3.75,2.084 7.083,4.167 10.416,6.25c-0.416,0.834 -0.833,1.667 -1.25,2.5c-3.75,-2.083 -7.083,-4.166 -10.416,-6.25c-2.5,3.334 -4.167,6.667 -6.25,10.834c3.75,2.083 7.5,3.75 11.25,5.416c-0.417,0.834 -0.417,1.667 -0.834,2.5c-4.166,-1.666 -7.916,-3.75 -12.083,-5.416c-1.667,3.75 -3.333,7.5 -5.417,11.25c4.584,1.666 8.334,3.333 12.5,4.583c-0.416,2.5 -0.833,2.5 -2.5,2.083c-2.5,-0.833 -5.416,-2.083 -7.916,-2.916c-0.834,-0.417 -1.667,-0.417 -3.334,-0.834c-1.25,3.75 -2.916,7.5 -4.166,11.667c4.166,1.667 8.333,2.083 12.5,3.75c-0,2.5 -0.417,2.5 -2.084,2.083c-2.5,-0.416 -5,-1.25 -7.5,-2.083c-1.25,-0.417 -2.083,-0.417 -3.75,-0.833c-1.25,4.166 -2.083,7.916 -3.333,12.083c4.583,0.833 8.75,1.667 12.917,2.5c-0,2.5 -0,2.5 -2.084,2.5c-2.5,-0.417 -5,-0.833 -7.5,-1.25c-1.25,-0 -2.5,-0.417 -3.75,-0.417c-0.833,4.167 -1.666,7.917 -2.5,12.084c2.5,0.416 4.167,0.416 6.25,0.833c2.084,0.417 3.75,0.417 5.834,0.417c0.416,-0 1.25,0.833 1.25,1.25c-0,0.833 -0.417,1.25 -1.667,1.25c-1.667,-0 -2.917,-0.417 -4.583,-0.417c-2.5,-0 -4.584,-0.417 -7.084,-0.417c-1.25,4.167 -0.833,7.917 -1.666,12.084c4.583,0.833 8.75,-0 13.333,0.833l-0,2.5l-12.917,-0l-0,12.917c4.584,-0.417 8.75,-0.417 12.917,-0.834c-0,0.834 -0,1.667 0.417,2.5c-4.584,0.417 -8.75,0.834 -13.334,1.25c-0,4.167 0.417,8.334 1.25,12.5c4.167,-0.833 8.334,-1.25 12.5,-2.083c0.834,2.5 0.834,2.5 -1.25,2.917c-2.916,0.416 -5.833,1.25 -8.75,1.666c-0.833,-0 -1.666,0.417 -2.5,0.417c-0,4.167 0.834,8.333 1.667,12.5c4.583,-0.417 8.333,-2.5 12.5,-2.917c1.25,2.084 1.25,2.5 -0.833,2.917c-2.5,0.833 -5.417,1.667 -7.917,2.083c-0.833,0.417 -1.667,0.417 -2.917,0.834c0.834,4.166 2.084,8.333 2.917,12.5c4.583,-1.667 8.333,-2.917 12.5,-4.584c1.25,2.5 1.25,2.5 -0.417,2.917c-2.5,0.833 -4.583,1.667 -7.083,2.5c-1.25,0.417 -2.083,0.833 -3.75,1.667c1.25,4.166 2.5,7.916 4.167,12.083c4.166,-1.667 7.916,-3.75 12.083,-5.417c0.417,0.834 0.833,1.25 1.25,2.5c-4.167,2.084 -7.917,3.75 -12.083,5.834c1.666,4.166 3.333,7.916 5.416,12.083c3.75,-2.083 7.5,-4.583 11.25,-6.667c0.417,0.834 0.834,1.667 1.25,2.5c-3.75,2.5 -7.5,4.584 -11.666,6.667c2.083,3.75 4.166,7.5 6.666,11.667c3.75,-2.5 7.084,-5 10.834,-7.5c0.416,0.833 0.833,1.25 1.666,2.083c-3.75,2.5 -7.083,5 -10.833,7.917c2.5,3.75 5,7.083 7.5,10.833c3.75,-2.5 6.667,-5.833 10.417,-8.333c0.416,0.416 0.833,1.25 1.666,2.083c-3.333,2.917 -6.666,5.833 -10,8.75c2.917,3.333 5.417,6.667 8.75,10c3.334,-3.333 6.25,-6.25 9.167,-9.583c0.833,0.416 1.25,1.25 2.083,1.666c-3.333,3.334 -6.25,6.25 -9.583,9.584c2.917,3.333 6.25,6.25 9.167,9.583c2.916,-3.333 5.833,-6.667 8.75,-10.417c0.833,0.834 1.25,1.25 2.083,1.667c-2.917,3.333 -5.417,6.667 -8.333,10.417c0.416,0.833 0.833,1.25 1.666,1.666c2.5,2.5 5.417,4.584 8.334,7.084c2.916,-3.334 5,-7.084 7.916,-10.834c0.834,0.417 1.25,0.834 2.084,1.25c-2.5,3.75 -5,7.5 -7.5,11.25c3.75,2.5 7.083,5 10.833,7.917c2.5,-4.167 4.583,-7.917 6.667,-11.667c0.833,0.417 1.25,0.834 2.5,1.25c-2.084,3.75 -4.167,7.5 -6.667,11.667c3.75,2.083 7.5,4.583 11.667,6.667c2.083,-4.167 3.75,-7.917 5.416,-12.084c2.5,0.834 2.5,0.834 1.667,2.917c-1.25,2.5 -2.083,5 -3.333,7.5c-0.417,0.833 -0.834,1.667 -1.25,3.333c4.166,1.667 7.916,3.75 12.083,5.417c1.667,-4.583 3.333,-8.333 4.583,-12.5c0.834,0.417 1.667,0.417 2.5,0.833c-1.25,4.167 -2.916,8.334 -4.583,12.5c4.167,2.084 7.917,3.75 12.5,4.584c1.667,-4.167 2.083,-8.334 3.75,-12.917c0.833,0 1.667,0.417 2.5,0.417c-1.25,4.583 -2.083,8.75 -3.333,13.333c4.166,1.25 8.333,2.5 12.916,3.75c0.834,-4.583 1.667,-8.75 2.5,-13.333c0.834,0 1.667,0.416 2.5,0.416c-0.833,4.584 -1.25,8.75 -2.083,12.917c4.167,1.25 8.75,1.667 13.333,2.5c0.417,-1.25 0.417,-2.5 0.834,-3.75c0.416,-2.5 0.416,-5 0.833,-7.5c-0,-0.833 0.417,-1.667 1.25,-1.667c1.25,0 1.25,0.834 1.25,2.084c-0,2.083 -0.417,4.583 -0.417,6.666l-0,4.584c4.167,0.833 8.334,0.416 12.917,1.25c0.833,-4.584 -0,-9.167 0.833,-13.334c1.667,-0.833 2.5,0 2.5,1.667l-0,11.25c4.584,0 8.75,0.417 13.334,-0.417c-0.417,-4.583 -0.834,-8.75 -0.834,-12.916c2.5,-0.417 2.5,-0.417 2.917,1.25c0.417,2.5 0.417,5.416 0.833,7.916c-0,1.25 0.417,2.084 0.417,3.75c4.583,0 8.75,-0.833 13.333,-1.25c-0.833,-4.583 -1.25,-8.75 -2.083,-12.916c1.667,-0.834 2.5,-0.834 2.917,0.833c0.416,2.917 0.833,5.417 1.666,8.333c-0,0.834 0.417,2.084 0.834,3.334c4.583,-0 8.75,-1.25 13.333,-2.5c-1.25,-4.167 -2.083,-8.334 -2.917,-12.5c2.084,-1.667 2.5,-1.25 2.917,0.416c0.833,2.5 1.25,5 2.083,7.5c0.417,1.25 0.834,2.084 1.25,3.75c4.584,-0.833 8.75,-2.5 12.917,-4.166c-1.667,-4.167 -2.917,-8.334 -4.167,-12.084c2.084,-1.25 2.5,-1.25 2.917,0.417c0.833,2.5 1.667,5 2.5,7.5c0.417,0.833 0.833,2.083 1.25,3.333c4.167,-1.25 8.333,-2.916 12.917,-5c-1.667,-4.166 -3.334,-7.916 -5.417,-12.083c0.833,-0.417 1.25,-0.833 2.083,-1.25c2.084,4.167 3.75,7.917 5.834,12.083c4.166,-2.083 7.916,-4.166 12.5,-6.25c-2.084,-4.166 -4.167,-7.916 -6.667,-11.666c0.833,-0.417 1.25,-0.834 2.083,-1.25c2.084,3.75 4.584,7.5 6.667,11.666c3.75,-2.5 7.5,-5 11.667,-7.5c-2.084,-4.166 -5,-7.5 -7.5,-11.25c0.833,-0.416 1.25,-0.833 2.083,-1.666c2.5,3.75 5,7.083 7.5,10.833c3.75,-2.5 7.5,-5.417 11.25,-8.333c-2.917,-3.334 -5.417,-6.667 -8.333,-10.417c0.833,-0.417 1.25,-1.25 2.083,-1.667c2.917,3.334 5.833,6.667 8.75,10.417c3.75,-3.333 6.667,-6.25 10.417,-9.167c-3.334,-3.333 -6.25,-6.25 -9.167,-9.583c0.417,-0.833 0.833,-1.25 1.667,-2.083c3.333,3.333 6.25,6.25 9.583,9.583c3.333,-3.333 6.25,-6.667 9.583,-10.417c-3.333,-2.916 -6.666,-5.833 -10,-8.75c0.417,-0.833 1.25,-1.25 1.667,-2.083c3.333,2.917 6.667,5.417 10,8.333c2.917,-3.75 5.833,-7.083 8.75,-10.833c-3.75,-2.5 -7.083,-5 -10.833,-7.917c0.416,-0.833 0.833,-1.25 1.666,-2.083c3.75,2.5 7.084,5 10.834,7.5c2.5,-4.167 5,-7.917 7.5,-12.083c-3.75,-2.5 -7.5,-4.584 -11.25,-6.667c0.416,-0.833 0.833,-1.667 1.25,-2.5c3.75,2.083 7.5,4.167 10.833,6.25c1.667,-1.667 4.583,-6.667 6.667,-12.083c-3.75,-1.667 -7.5,-3.75 -11.667,-5.834c0.417,-0.833 0.417,-1.666 0.833,-2.5c4.167,2.084 7.917,3.75 12.084,5.417c2.083,-4.167 3.333,-8.333 5,-12.917c-4.167,-1.666 -8.334,-3.333 -12.5,-4.583c0.416,-0.833 0.833,-1.667 0.833,-2.5c4.167,1.667 8.333,2.917 12.5,4.583c2.083,-4.166 2.917,-8.75 4.167,-13.333c-4.584,-1.25 -8.334,-2.5 -12.917,-3.75c0.417,-0.833 0.417,-1.667 0.833,-2.5c4.167,1.25 8.334,2.083 12.917,3.333c1.667,-4.583 2.5,-9.166 2.917,-13.75c-4.167,-0.833 -8.334,-1.666 -12.5,-2.5c-0,-2.5 -0,-2.5 1.666,-2.5c2.917,0.417 5.834,0.834 8.75,1.667c0.834,-0 1.25,-0 2.5,0.417c1.25,-4.584 1.667,-8.75 1.667,-13.75c-4.167,-0.417 -8.333,-0.834 -12.5,-1.25c-0.417,-2.5 -0.417,-2.5 1.667,-2.5c2.083,-0 4.583,0.416 6.666,0.416l5,-0c0.417,-4.583 0.417,-8.75 0.834,-13.75c-1.667,-0 -2.5,-0.416 -3.75,-0.416l-7.917,-0c-1.667,-0 -2.083,-0.834 -1.25,-2.917l12.917,-0c-0,-5 0.416,-9.583 -0.417,-14.167c-4.167,0.417 -8.333,0.834 -12.917,0.834c-0,-0.834 -0.416,-1.667 -0.416,-2.5c4.166,-0.417 8.333,-0.834 12.916,-1.25c-0,-4.584 -0.833,-8.75 -1.666,-13.75c-1.25,-0 -2.5,-0 -3.75,0.416c-2.5,0.417 -5,0.834 -7.5,1.25c-1.667,0.417 -1.667,-0 -2.084,-2.083c1.667,-1.25 4.167,-1.25 6.25,-1.667c2.084,-0.416 4.167,-0.833 6.667,-1.25c-0.417,-4.583 -1.667,-9.166 -2.917,-13.75c-4.166,1.25 -8.333,2.084 -12.916,3.334c-0.417,-0.834 -0.417,-1.667 -0.834,-2.5c4.167,-1.25 8.334,-2.5 12.5,-3.334c-0.833,-4.583 -2.5,-8.75 -3.75,-13.333c-4.166,1.667 -8.333,2.917 -12.5,4.583c-0.416,-0.833 -0.416,-1.666 -0.833,-2.5c4.167,-1.666 7.917,-2.916 12.5,-4.583c-1.667,-4.583 -3.333,-8.75 -5,-12.917c-2.083,0.834 -3.75,1.667 -5.417,2.5c-1.666,0.834 -3.333,1.667 -5,2.5c-0.833,0.417 -1.666,0.417 -2.083,-0.416c-0.417,-1.25 -0,-1.667 0.833,-2.084c2.5,-1.25 5,-2.5 7.5,-3.333c0.834,-0.417 2.084,-0.833 3.334,-1.667c-2.084,-4.166 -4.167,-8.333 -6.667,-12.5c-4.167,2.5 -7.5,4.584 -11.667,6.667c-0.416,-0.833 -0.833,-1.25 -1.666,-2.083c3.75,-2.5 7.5,-4.584 11.666,-7.084c-2.5,-4.166 -5,-7.916 -7.5,-12.083c-3.75,2.5 -7.083,5 -10.833,7.5c-0.417,-0.833 -0.833,-1.25 -1.667,-2.083c3.75,-2.5 7.084,-5.417 10.834,-7.917c-2.917,-3.75 -5.417,-7.5 -8.334,-11.25c-3.75,2.5 -6.666,5.833 -10.416,8.333c-0.417,-0.833 -0.834,-1.25 -1.667,-2.083c3.333,-2.917 6.667,-5.833 10,-8.75c-2.917,-3.75 -6.25,-7.083 -9.167,-10.417c-3.333,3.334 -6.25,6.25 -9.583,9.584c-0.833,-0.417 -1.25,-1.25 -2.083,-1.667c3.333,-3.333 6.25,-6.25 9.583,-9.583c-3.333,-3.334 -6.667,-6.25 -10,-9.584c-2.917,3.75 -5.833,6.667 -8.75,10.417c-0.833,-0.417 -1.25,-1.25 -2.083,-1.667c2.916,-3.333 5.416,-6.666 8.333,-10.416c-3.75,-2.917 -7.083,-5.834 -10.833,-8.75c-2.5,3.75 -5,7.083 -7.5,10.833c-0.834,-0.417 -1.25,-0.833 -2.5,-1.25c2.5,-3.75 5,-7.5 7.5,-11.25c-3.75,-2.5 -7.5,-5 -11.667,-7.5c-2.5,4.167 -4.583,7.5 -6.667,11.667c-0.833,-0.417 -1.25,-0.834 -2.5,-1.25c2.084,-3.75 4.167,-7.5 6.667,-11.667c-2.083,-1.25 -4.167,-2.5 -6.25,-3.333c-2.083,-1.25 -3.75,-2.084 -6.25,-3.334c-2.083,4.167 -3.75,7.917 -5.417,11.667c-2.5,-0.833 -2.5,-0.833 -1.666,-2.5c1.666,-3.333 2.916,-6.667 4.583,-10c-1.667,-1.667 -7.917,-4.583 -12.917,-5.833c-1.25,4.166 -2.916,7.916 -4.583,12.083c-2.5,-0.417 -2.5,-0.833 -2.083,-2.5c0.833,-2.5 1.666,-5 2.916,-7.917c0.417,-0.833 0.417,-2.083 0.834,-3.333c-4.167,-2.083 -8.75,-2.917 -12.917,-4.583c-1.25,4.583 -2.5,8.75 -3.75,12.5c-2.5,-0.417 -2.5,-0.417 -2.083,-2.5c0.416,-2.5 1.25,-5 2.083,-7.5c0.417,-1.25 0.417,-2.084 0.833,-3.334c-4.166,-1.666 -8.75,-2.5 -13.333,-3.333c-0.833,4.583 -1.667,8.75 -2.5,12.917c-0.833,-0 -1.667,-0.417 -2.5,-0.417c0.833,-4.583 1.667,-9.167 2.5,-13.75c4.167,0.833 8.333,1.25 12.083,2.083c15.834,3.334 31.25,8.334 45.834,15.834c17.5,8.75 33.75,19.583 48.333,32.916c22.917,21.25 40.417,46.25 52.083,75.834c6.25,16.25 10.417,32.916 12.917,50c1.667,11.25 2.083,22.916 1.667,34.166c-0.417,17.5 -2.917,35 -7.917,51.667c-4.583,16.25 -10.833,31.667 -19.583,46.25c-9.167,15.833 -20,30.833 -32.917,44.167c-28.333,29.166 -62.5,47.916 -101.667,57.916c-11.25,2.917 -22.5,4.584 -34.166,5c-17.917,1.25 -35.834,0.417 -53.334,-2.916c-46.25,-9.167 -85.833,-30.417 -118.333,-65.417c-15.833,-17.083 -28.75,-36.667 -38.75,-57.917c-8.333,-17.916 -14.167,-36.666 -17.5,-56.25c-2.5,-14.583 -3.75,-29.583 -3.333,-44.583c0.833,-28.75 6.666,-56.667 18.333,-83.333c11.25,-26.25 26.667,-49.584 46.667,-69.584c7.916,-8.333 16.666,-15.833 25.833,-22.916c0.833,-0.834 1.667,-1.25 2.917,-2.084c-3.75,-9.583 -7.084,-18.75 -10.834,-28.333l0.417,-0.417l2.083,-0c36.25,5.834 72.917,11.25 109.584,17.084c-0,1.666 -0.834,2.083 -1.667,3.333c-10.417,12.917 -20.833,26.25 -30.833,39.167c-11.667,15 -23.75,30 -35.417,45c-0.833,0.833 -1.25,1.666 -2.5,2.916c-3.75,-9.166 -7.083,-17.916 -10.417,-26.666c-2.916,1.25 -9.583,7.083 -12.083,10" style="fill:#1f3b71;fill-rule:nonzero;"/><path d="M269.584,245.75c-0,4.583 -0.417,8.75 0.416,12.917c0.834,3.75 2.917,6.25 6.667,7.5c1.25,0.416 2.5,0.833 3.333,0.833c5,-0 10,0.417 15.417,0.417c2.917,-0 5.833,-0.834 8.75,-1.25c3.333,-0.834 5.417,-3.334 5.833,-6.667c0.417,-2.083 -0,-4.583 -0,-6.667c-0.416,-2.916 -2.083,-5 -5,-5.416c-2.916,-0.834 -5.833,-1.25 -8.333,-1.25l-23.333,-0c-1.25,-0.417 -2.5,-0.417 -3.75,-0.417m0.416,-19.583l32.084,-0c5.416,-0 10.416,1.25 15.416,2.916c11.25,3.75 16.667,11.667 17.917,23.334c0.417,4.583 0,9.583 -0.833,14.166c-1.667,7.5 -6.25,12.5 -12.917,15.834c-6.25,2.916 -13.333,4.166 -20,4.583l-25.833,-0c-5.417,-0 -10.834,-1.25 -15.834,-3.333c-8.75,-3.75 -13.75,-10.834 -15,-20c-0.416,-2.5 -0.833,-4.584 -0.833,-7.084l0,-36.666c0,-4.167 0.833,-7.917 2.5,-12.084c2.083,-5.833 5.833,-10.416 11.25,-13.333c5,-2.5 10.417,-4.167 15.833,-4.583c6.25,-0.417 12.5,-0.417 18.75,-0.417c4.584,-0 9.584,-0 14.167,0.417c7.5,0.833 14.167,3.333 20.417,8.333c4.166,3.75 6.666,8.333 7.083,13.75c0.417,5 -2.083,8.333 -7.083,8.333l-6.667,-0c-3.75,0.417 -7.083,-1.25 -8.75,-4.583c-2.917,-5 -7.5,-7.083 -12.917,-7.083l-15.833,-0c-1.25,-0 -2.5,0.416 -3.75,0.416c-4.583,0.834 -7.5,3.75 -8.333,8.75c-1.25,2.5 -1.25,5 -0.834,8.334" style="fill:#1f3b71;fill-rule:nonzero;"/><path d="M373.75,209.083l-0,16.25l3.75,-0c8.334,-0 16.667,-0 25,0.417c4.584,0.417 8.75,1.25 13.334,2.5c10,3.333 15.833,10 17.5,20.833c0.833,6.25 0.833,12.084 -0.834,17.917c-1.666,6.667 -5.833,11.25 -11.666,14.583c-7.084,3.75 -14.167,5 -22.084,5l-20.833,-0c-9.167,-0.416 -17.5,-2.5 -25,-8.333c-4.167,-3.333 -7.083,-7.5 -7.917,-13.333c-0.833,-6.25 1.667,-10 7.917,-10l7.083,-0c3.334,-0 5.834,1.666 7.5,4.583c3.334,6.25 8.75,7.5 15,7.917c5,-0 10,-0 15.417,-0.417c1.25,-0 2.5,-0.417 3.75,-0.833c4.583,-1.25 6.667,-4.167 7.083,-9.167l-0,-2.5c-0,-4.583 -2.083,-7.5 -6.666,-8.75c-3.334,-0.833 -7.084,-1.25 -10.417,-1.25l-35.833,-0c-1.667,-0 -3.334,-0 -4.584,-1.25c-2.083,-1.667 -2.916,-3.333 -2.5,-5.833l-0,-40.417c-0,-2.083 0.417,-4.167 2.084,-5.833c1.25,-0.834 2.5,-1.25 3.75,-1.667c0.833,-0.417 2.083,-0 3.333,-0l62.917,-0c7.916,-0 9.583,3.75 9.166,9.583c-0,1.667 -0,2.917 -0.416,4.584c-0.417,3.333 -2.917,5 -5.834,5.416l-50,-0Z" style="fill:#1f3b71;fill-rule:nonzero;"/><path d="M225.417,237.833c1.25,1.25 2.083,2.084 3.333,2.917c5.417,5 7.084,11.667 6.667,18.75c-0,2.917 -0.833,5.417 -1.25,7.917c-1.667,6.666 -5.833,11.25 -11.667,14.166c-7.083,3.75 -14.583,4.584 -22.083,5l-19.583,-0c-10.834,-0.416 -21.25,-3.75 -29.584,-11.25c-5,-4.166 -7.083,-10 -6.666,-16.666c0.416,-3.75 2.5,-6.667 6.25,-6.667l9.166,-0c2.917,-0 5,2.083 7.084,4.167c0.416,0.833 1.25,1.666 1.666,2.5c2.084,4.583 5.834,7.083 10.417,7.916c5.833,0.834 11.667,0.834 17.5,0.417c2.083,-0 4.583,-0.417 6.667,-1.25c4.166,-1.25 5.833,-3.75 6.25,-8.75c-0,-5 -1.667,-7.917 -5.834,-9.167c-2.916,-0.833 -6.25,-1.25 -9.166,-1.25c-3.75,-0.416 -7.917,-0 -11.667,-0c-4.167,-0 -6.667,-2.5 -7.083,-6.666l-0,-5c-0,-4.167 2.916,-6.667 6.666,-6.667c4.167,-0 8.334,-0 12.5,-0.417c2.5,-0 4.584,-0.416 7.084,-1.25c4.166,-1.25 5.833,-4.166 5.833,-8.75c-0,-4.583 -1.667,-7.083 -5.833,-8.333c-1.25,-0.417 -2.917,-0.833 -4.584,-0.833c-5.833,-0.417 -11.25,-0.834 -17.083,-0c-4.583,0.833 -8.333,3.333 -10.833,7.916c-2.084,4.167 -5.417,6.25 -10,6.25l-5.834,-0c-4.583,-0 -7.5,-2.916 -7.5,-7.5c-0,-4.166 1.25,-7.5 3.334,-10.833c3.75,-5.417 9.166,-9.167 15,-11.667c6.25,-2.5 12.5,-3.75 19.166,-3.75c6.25,-0 12.5,-0 18.75,0.417c5.417,0.417 10.417,1.667 15.417,3.75c10,4.583 15,12.5 15.417,23.75c-0,4.167 -0,7.917 -1.667,11.667c-0.833,3.333 -3.333,6.25 -6.25,9.166" style="fill:#1f3b71;fill-rule:nonzero;"/><path d="M312.084,100.75c1.25,-1.25 2.5,-2.083 3.75,-3.333c-2.084,-2.084 -4.167,-4.167 -6.25,-6.25c-1.25,1.25 -2.5,2.083 -3.334,3.333c2.084,2.083 4.167,4.167 5.834,6.25m-46.25,43.75c2.5,-0 4.166,-2.083 4.166,-4.583c-0,-2.084 -1.666,-3.75 -3.75,-3.75c-2.5,-0 -4.166,2.083 -4.166,4.583c0.416,2.5 1.666,3.75 3.75,3.75m26.25,-20.833c-0.834,0.833 -1.667,1.666 -2.5,2.916c-5.417,6.667 -11.25,12.917 -16.667,19.584c-0.833,0.833 -1.25,1.25 -2.083,2.083c-3.334,2.5 -7.917,2.083 -10.834,-0.833c-2.5,-2.917 -2.916,-7.084 -0.833,-10.834c0.833,-1.25 2.083,-2.5 3.333,-3.75c7.084,-6.666 14.167,-13.333 21.25,-20c0.417,-0.416 1.25,-0.833 2.084,-1.666c-0.834,-0.834 -0.834,-1.667 -1.667,-2.084c-5,-5 -10,-10.416 -15.417,-15.416c-0.833,-0.834 -2.083,-1.667 -3.75,-2.084c-2.083,-0.833 -3.75,-2.083 -5,-3.75c-1.666,-2.916 -3.75,-5.416 -5.833,-8.333c1.667,-1.25 2.917,-2.5 4.583,-3.75c3.334,2.5 6.667,5 10,7.5c0.417,0.417 0.834,1.667 1.25,2.5c0.417,2.083 1.667,4.167 3.334,5.417c4.583,4.583 8.75,9.166 13.333,13.333c0.833,0.833 1.667,1.667 2.5,2.5c2.5,-2.083 5.417,-4.167 6.667,-7.083c1.25,-1.667 1.666,-4.167 2.083,-6.25c0.417,-2.917 0.417,-5.834 0.417,-8.75c-0,-1.25 0.416,-2.917 1.25,-3.75c2.083,-2.5 4.583,-5 7.5,-7.084c2.5,-2.083 5.833,-2.5 8.75,-2.083c0.416,-0 1.25,0.417 2.083,0.833c-2.917,2.917 -5.833,5.834 -8.333,8.75c2.5,2.084 4.583,4.584 7.083,6.667c2.5,-2.5 5.417,-5.417 8.75,-8.75c1.667,5.833 0.417,10.417 -2.917,14.583c0.834,0.834 1.667,1.667 2.5,2.5c2.084,2.5 1.667,5 -1.666,6.25c-3.334,1.25 -6.667,2.084 -10,2.917c-4.584,1.25 -8.334,3.333 -11.667,7.083c0.833,0.834 1.667,1.667 2.083,2.5c6.25,6.667 12.917,12.917 19.167,19.584c1.25,1.25 2.083,2.5 2.5,4.166c0.833,2.917 -0,6.25 -2.5,7.917c-2.5,1.667 -5.833,2.083 -8.333,-0c-0.834,-0.833 -1.667,-1.25 -2.5,-2.083c-5.834,-5.834 -11.667,-12.084 -17.917,-17.917c-0.417,-1.667 -1.25,-2.5 -2.083,-3.333" style="fill:#1f3b71;fill-rule:nonzero;"/><path d="M312.917,482.833c-0,-2.5 -0.417,-4.583 -0.417,-6.25c-0.833,-7.083 -1.666,-14.166 -2.083,-21.666l-0,-1.667c-0,-2.5 0.833,-3.333 2.917,-3.75c1.666,-0.417 3.333,-0.417 4.583,-0.417c2.917,-0 4.167,0.834 4.583,4.167c0.417,3.75 0.834,7.5 1.25,11.667c0.834,9.166 2.084,18.333 2.917,27.083l-0,1.667c-0,2.5 -0.833,3.75 -3.333,4.166c-3.334,0.417 -6.667,0.834 -10,1.25c-2.5,0.417 -4.584,-1.25 -6.25,-2.916c-3.75,-4.584 -7.5,-9.167 -11.25,-14.167c-2.5,-2.917 -4.584,-5.833 -7.084,-8.75c-0.416,-0.417 -0.833,-1.25 -2.083,-1.667c-0,1.667 -0,2.917 0.417,4.167c0.833,6.667 1.25,12.917 2.083,19.583l-0,0.417c0.417,4.583 -0.417,5.417 -5,5.833c-1.25,-0 -2.5,0.417 -3.75,0.417c-2.083,-0 -3.333,-0.833 -3.75,-2.917c-0.417,-2.5 -0.417,-5 -0.833,-7.083c-1.25,-10.833 -2.084,-21.667 -3.334,-32.917c-0.416,-3.75 0.417,-5 4.167,-5.416c2.083,-0.417 4.167,-0.417 5.833,-0.834c3.334,-0.416 5.834,0.834 7.917,3.334c5.417,7.083 11.25,13.75 16.667,20.833c1.25,1.25 2.083,2.917 3.333,4.167c1.25,0.416 1.667,0.833 2.5,1.666" style="fill:#1f3b71;fill-rule:nonzero;"/><path d="M490.834,360.333c2.083,1.25 3.75,2.084 5.416,2.917c2.084,0.833 4.167,0.833 5.417,-1.25c2.5,-3.333 4.583,-7.083 6.25,-10.833c1.25,-2.5 0,-4.167 -2.083,-5.834c-2.5,-1.666 -5,-1.666 -7.084,1.25c-2.5,4.584 -5,9.167 -7.916,13.75m-7.917,-5.416c2.083,-3.75 3.75,-7.084 6.25,-10.417c1.667,-2.917 3.75,-5.833 5.833,-8.333c5,-5.417 10.417,-6.25 17.084,-2.5c1.666,0.833 2.916,1.666 4.166,2.916c3.334,2.917 4.584,6.667 3.75,10.834c-0.833,6.666 -9.166,21.25 -14.583,25.833c-3.75,2.917 -7.917,4.167 -12.5,2.5c-0.833,-0.417 -1.667,-0.417 -2.083,-0.833c-6.25,-3.75 -12.5,-7.084 -18.334,-11.25c-6.25,-4.167 -7.916,-9.584 -5.416,-16.667c2.5,-6.667 6.25,-12.917 10.416,-18.75c2.084,-2.917 5,-5 8.75,-5.833c2.5,-0.834 5,-0.417 7.084,0.833c1.25,0.833 2.083,2.083 2.083,3.75c-0.417,3.333 -3.75,6.667 -7.083,7.083c-2.5,0.417 -4.167,1.667 -5.417,3.75c-1.25,2.084 -2.5,4.167 -3.75,6.667c-2.917,5 -2.083,7.917 3.75,10.417" style="fill:#1f3b71;fill-rule:nonzero;"/><path d="M25.834,292c2.083,6.667 4.166,12.917 6.666,19.583c5.417,-1.666 10.417,-3.75 16.25,-5.416c-1.25,-3.334 -2.083,-6.25 -2.916,-8.75c-1.667,-4.167 -4.584,-6.25 -9.167,-5.834c-2.5,-0 -5,0.417 -7.917,0.417c-0.833,-0.417 -1.666,-0.417 -2.916,-0m-2.917,22.917c-2.5,-7.5 -5,-14.584 -7.083,-22.084l-7.5,-0c-3.75,-0 -5,-0.416 -5.834,-4.166c-0.416,-1.667 -1.25,-2.917 -1.666,-4.584c-0.834,-2.5 -0,-3.333 2.5,-3.75c2.083,-0.416 4.166,-0.416 6.25,-0.416c8.75,-0.417 17.5,-1.25 25.833,-1.667c6.25,-0.417 10.833,2.083 14.167,7.083c2.083,2.917 3.75,6.667 5,10c2.083,5 3.75,10.417 5.416,15.834c1.25,3.333 0.417,4.583 -2.5,5.416c-12.5,4.167 -25,8.334 -37.083,12.5c-2.917,0.834 -4.167,0.417 -5.417,-2.916c-0.416,-0.834 -0.833,-2.084 -0.833,-2.917c-1.667,-4.583 -0.833,-5.417 3.333,-7.083c1.667,-0 3.334,-0.834 5.417,-1.25" style="fill:#1f3b71;fill-rule:nonzero;"/><path d="M404.584,423.25c-3.334,2.083 -6.25,3.75 -9.167,5.833c-2.083,1.667 -3.333,4.167 -3.333,6.667c0.416,4.167 2.083,8.333 2.916,12.917c6.25,-3.75 11.667,-7.084 17.917,-10.417c-2.917,-5 -5.417,-10 -8.333,-15m13.333,23.75c-6.667,4.167 -13.333,7.917 -20,11.667c0.417,2.083 1.25,4.166 1.667,6.25c1.25,4.583 0.833,5.416 -3.334,7.916c-1.25,0.834 -2.5,1.667 -3.75,2.084c-1.666,0.833 -2.916,0.416 -3.75,-1.667c-0.416,-0.833 -0.416,-1.667 -0.833,-2.5c-2.5,-9.583 -5,-19.167 -7.917,-28.75c-2.083,-7.083 -0.416,-12.917 5,-17.917c2.084,-2.083 4.167,-3.75 6.667,-5c5,-2.916 10,-5.833 15,-9.166c3.333,-1.667 4.583,-1.667 6.25,1.666c6.667,11.25 12.917,22.5 19.583,33.75c1.667,2.917 1.25,4.584 -1.666,6.25c-1.25,0.834 -2.917,1.667 -4.167,2.5c-2.083,1.25 -3.75,0.834 -5,-1.25c-1.25,-1.25 -2.5,-3.333 -3.75,-5.833" style="fill:#1f3b71;fill-rule:nonzero;"/><path d="M87.5,424.917c-2.083,-0.834 -4.166,-0.834 -5.833,-2.084c-2.5,-1.25 -4.583,-2.916 -6.667,-5c-3.75,-3.75 -7.5,-7.916 -11.25,-12.5c-2.916,-3.333 -4.166,-7.5 -4.583,-11.666c-0.417,-3.334 0.417,-6.25 2.917,-8.334c1.666,-1.666 3.333,-1.666 5.416,-0c0.834,0.834 1.25,1.667 2.084,2.084c1.666,1.666 2.5,3.75 1.666,5.833c-0.833,2.917 -0,5.417 1.667,7.5c2.5,2.917 5.417,6.25 7.917,9.167c0.833,0.833 1.25,1.25 2.083,2.083c1.25,0.833 2.5,1.25 3.75,-0c1.25,-0.833 1.25,-2.083 0.833,-3.75c-0.833,-1.667 -1.25,-3.75 -2.5,-5.417c-1.666,-3.333 -3.75,-6.25 -5.416,-9.583c-1.667,-3.333 -3.334,-6.667 -4.584,-10.417c-2.083,-5.416 -0.416,-10.416 3.75,-13.75c4.167,-3.75 9.167,-4.166 14.167,-1.25c1.667,0.834 3.333,2.084 4.583,3.334c4.167,4.583 8.334,8.75 12.5,13.333c2.5,2.917 3.75,6.667 4.167,10.417c0.417,3.333 -0.417,6.666 -2.917,8.75c-0.833,0.833 -2.083,1.666 -3.333,1.25c-3.333,-0.834 -6.25,-5.834 -5.417,-9.167c0.834,-2.917 -0,-5.417 -1.666,-7.5c-2.5,-2.5 -4.584,-5.417 -7.084,-7.917c-0.833,-0.833 -1.666,-1.666 -2.916,-2.083c-1.25,-0.833 -2.5,-0.417 -3.334,0.417c-0.833,0.833 -1.25,2.083 -0.833,2.916c0.833,1.667 1.25,3.75 2.083,5.417c2.5,4.583 5.417,9.167 7.917,13.75c1.667,2.917 2.5,5.833 2.917,8.75c1.666,8.333 -4.167,15 -12.084,15.417" style="fill:#1f3b71;fill-rule:nonzero;"/><path d="M152.5,471.583c-2.5,-0.833 -5,-1.25 -7.5,-2.083c-6.666,-2.5 -12.5,-6.667 -18.333,-10.417c-3.75,-2.5 -6.25,-6.25 -7.5,-10.833c-0.833,-2.5 -0.417,-4.583 0.833,-6.667c0.834,-2.083 2.5,-2.916 4.584,-2.083c1.666,0.833 3.75,1.667 5,2.917c0.833,0.833 1.25,2.5 1.25,3.75c-0,2.916 1.25,4.583 3.333,5.833c3.75,2.5 7.5,4.583 11.25,6.667c1.25,0.416 2.5,0.833 3.75,0.833c2.083,-0 3.333,-2.083 2.5,-4.167c-0.833,-1.25 -1.667,-2.5 -2.5,-3.75c-2.5,-2.5 -5.417,-5 -7.917,-7.5c-3.333,-3.333 -6.25,-6.666 -9.166,-10c-4.167,-5.416 -3.334,-11.666 1.666,-16.666c2.5,-2.5 5.834,-3.75 9.584,-3.334c3.333,0.834 6.666,1.667 9.583,3.334c4.167,2.083 8.333,4.583 12.5,7.5c3.75,2.5 6.25,5.833 7.917,10c1.25,2.916 1.25,5.416 -0,8.333c-1.25,2.5 -2.917,2.917 -5.417,2.083c-0.833,-0.416 -2.083,-1.25 -2.917,-1.666c-1.666,-0.834 -2.916,-2.5 -2.5,-4.584c0,-3.333 -1.666,-5.833 -4.583,-7.083c-2.917,-1.667 -5.417,-3.333 -8.333,-5c-0.834,-0.417 -2.084,-1.25 -3.334,-1.25c-1.25,-0.417 -2.5,-0 -3.333,1.25c-0.833,1.25 -0.417,2.5 -0,3.333c0.833,1.25 1.667,2.5 2.5,3.334c2.917,2.916 5.833,5.416 8.75,8.333c2.083,2.083 4.583,4.167 6.667,6.667c1.25,1.25 2.083,2.916 2.916,4.583c4.167,9.167 -3.333,18.75 -11.25,18.333" style="fill:#1f3b71;fill-rule:nonzero;"/><path d="M27.084,346.583c0.416,-3.333 0.833,-6.666 3.75,-9.166c2.916,-2.917 5,-2.5 7.5,0.833c2.083,2.917 2.916,5.417 0.833,8.75c-0.833,1.25 -0.833,3.333 -0,4.583c2.5,4.584 5,9.167 7.917,14.167c0.416,0.417 0.833,1.25 1.666,1.25c2.084,1.25 4.584,0.417 4.584,-2.083c-0,-1.25 -0,-2.084 -0.417,-3.334c-0.833,-3.333 -2.083,-6.666 -3.333,-10c-1.25,-4.166 -2.5,-8.75 -3.334,-12.916c-0.416,-1.667 -0.416,-3.75 -0,-5.417c1.25,-8.75 11.25,-12.917 18.75,-8.333c2.084,1.25 4.167,3.333 5.417,5.416c3.333,5.417 6.667,10.834 9.583,16.25c2.084,3.75 2.5,8.334 1.25,12.5c-0.416,2.5 -1.666,4.584 -4.166,6.25c-2.084,1.25 -4.167,0.834 -5.417,-1.25c-0.833,-1.25 -1.25,-2.083 -2.083,-3.333c-0.834,-1.667 -0.834,-3.75 0.416,-5.417c1.667,-2.5 1.25,-5 -0,-7.083c-1.666,-3.333 -3.75,-6.667 -5.833,-10c-0.417,-0.833 -1.25,-1.667 -2.083,-2.5c-2.084,-1.667 -4.584,-0.417 -4.584,2.5c-0,1.667 0.417,3.75 0.834,5.417c1.666,5 3.333,10 4.583,15c1.25,3.75 1.667,7.083 1.25,11.25c-0.833,7.916 -11.25,12.916 -17.917,8.333c-2.083,-1.25 -3.75,-2.917 -5.416,-5c-4.584,-5.833 -8.334,-12.083 -11.25,-19.167c-1.667,-1.666 -1.667,-4.583 -2.5,-7.5" style="fill:#1f3b71;fill-rule:nonzero;"/><path d="M235.417,479.5c-0.417,2.917 -0.417,5.833 -0.833,9.167c1.25,0.416 2.5,0.416 3.75,0.833c7.5,0.833 15,1.667 22.5,2.5c0.416,-0 1.25,-0 1.666,0.417c2.5,0.416 3.334,1.666 3.334,4.166l-0,1.667c-0.417,2.917 -1.667,3.75 -4.584,3.75c-3.75,-0.417 -7.916,-0.833 -11.666,-1.25c-8.334,-0.833 -16.25,-2.083 -24.584,-2.917c-3.333,-0.416 -4.166,-1.666 -4.166,-5c1.666,-12.916 2.916,-25.833 4.583,-39.166c0.417,-3.75 1.667,-4.584 5.417,-4.167c11.666,1.25 23.333,2.917 35,4.167c3.333,0.416 4.166,1.666 4.166,5l-0,1.25c-0.416,2.916 -1.666,3.75 -4.583,3.75c-4.583,-0.417 -8.75,-0.834 -12.917,-1.667c-4.166,-0.417 -7.916,-0.833 -12.083,-1.25l-2.5,0c-0.417,2.917 -0.833,5.833 -1.25,8.75c1.25,0.417 2.083,0.417 3.333,0.833c6.667,0.834 13.334,1.667 20.417,2.5c3.333,0.417 4.167,1.667 3.75,5c-0,0.834 -0.417,2.084 -0.833,2.917c-0.834,1.667 -2.5,2.083 -4.584,1.667c-7.083,-0.834 -14.166,-1.667 -21.25,-2.5c-0.416,-0.417 -0.833,-0.417 -2.083,-0.417" style="fill:#1f3b71;fill-rule:nonzero;"/><path d="M498.334,305.333c1.666,0.834 3.333,1.25 4.583,1.667c0.833,0.417 1.667,0.417 2.917,0.833c0.416,-1.25 0.833,-2.083 1.25,-3.333c1.25,-3.333 2.083,-6.667 3.333,-9.583c1.25,-3.334 2.917,-5.834 5.417,-8.334c2.916,-2.916 6.25,-4.166 10.416,-3.333c2.917,0.417 5.834,1.25 8.334,2.917c3.333,2.5 5.416,5.416 5.416,10c-0,2.5 -0,4.583 -0.833,7.083c-1.25,5 -2.917,10 -5,15c-1.667,3.75 -4.167,7.083 -7.5,9.167c-2.5,1.25 -5,2.083 -7.5,1.25c-2.917,-0.834 -3.75,-2.5 -2.917,-5.417c0.417,-0.833 0.417,-1.667 0.834,-2.5c0.416,-2.5 2.083,-3.75 4.583,-4.583c2.5,-0.417 3.75,-1.667 4.583,-3.75c1.25,-3.334 2.5,-6.667 3.334,-10c0.833,-3.75 -1.25,-6.25 -4.584,-6.667c-2.083,-0.417 -3.75,0.417 -4.583,2.083c-0.833,1.667 -1.667,2.917 -2.083,4.584c-1.667,5.416 -3.75,10.416 -5.417,15.833c-1.25,3.75 -2.5,4.583 -6.25,3.333c-5.417,-2.083 -11.25,-3.75 -16.667,-5.833c-3.75,-1.25 -4.166,-2.5 -2.916,-6.25c3.333,-10 6.666,-20 10.416,-30c1.25,-3.75 2.5,-4.167 6.25,-2.917c3.75,1.25 4.167,2.5 2.917,6.25c-2.083,6.25 -4.167,12.084 -6.25,18.334c-1.25,1.666 -1.667,2.916 -2.083,4.166" style="fill:#1f3b71;fill-rule:nonzero;"/><path d="M474.584,377.833l2.5,-0c7.083,-0 13.75,7.5 12.5,14.584c-0.417,2.5 -1.25,4.583 -2.5,6.666c-3.334,5.834 -7.917,10.834 -12.917,15c-2.5,2.5 -5.833,3.75 -9.583,4.584c-3.334,0.833 -6.667,-0 -9.167,-2.084c-2.083,-1.666 -2.083,-3.75 -0.833,-5.833c0.416,-0.833 1.25,-1.25 1.666,-1.667c1.667,-2.083 3.75,-2.916 6.25,-2.083c3.75,0.833 6.25,-0.417 8.75,-3.333c2.084,-2.084 3.75,-4.584 5.417,-6.667c1.25,-2.083 1.25,-4.167 -0.417,-5.417c-1.666,-2.083 -3.75,-2.5 -6.25,-0.833c-1.25,0.833 -2.083,2.083 -3.333,2.917c-1.25,1.25 -2.5,2.916 -3.75,4.166c-1.667,1.667 -3.333,1.667 -5,0.417c-0.417,-0.417 -1.25,-0.833 -1.667,-1.25c-1.666,-1.667 -1.666,-3.333 -0.416,-5c0.833,-1.25 2.083,-2.083 2.916,-3.333c0.834,-1.25 2.084,-2.5 2.5,-3.75c1.25,-2.5 1.25,-4.167 -0.833,-5.834c-1.667,-1.666 -3.75,-2.083 -5.833,0c-2.5,2.084 -4.584,4.584 -6.667,7.5c-1.25,1.667 -1.667,4.167 -0.833,6.25c1.666,4.167 -0.834,6.667 -4.167,9.584c-1.25,0.833 -3.333,0.416 -4.583,-0.834c-2.084,-2.083 -2.917,-4.583 -2.917,-7.083c-0.417,-4.583 1.25,-8.75 3.75,-12.5c3.333,-4.583 7.083,-8.75 11.25,-12.083c0.833,-0.417 1.667,-1.25 2.5,-1.667c8.75,-5 18.75,0 20.417,10c1.25,-1.25 1.25,-1.25 1.25,-0.417" style="fill:#1f3b71;fill-rule:nonzero;"/><path d="M354.167,448.667c-1.667,0.416 -2.5,0.833 -3.75,1.25c-6.25,2.083 -12.917,4.166 -19.167,6.25c-1.666,0.416 -3.333,1.25 -4.583,-0.834c-1.25,-1.666 -2.083,-3.75 -1.667,-6.25c0.417,-1.25 1.667,-2.083 2.917,-2.5c4.583,-1.666 8.75,-2.916 13.333,-4.583c7.084,-2.5 14.167,-4.583 21.25,-7.083c3.334,-1.25 4.584,-0.417 5.834,2.916c1.25,3.334 1.25,6.667 -0.834,10c-4.583,8.75 -9.166,17.917 -13.75,26.667c-0.833,1.25 -1.25,2.5 -2.5,4.583c1.25,-0.416 1.667,-0.416 2.5,-0.416c6.667,-2.084 12.917,-4.584 19.584,-6.667c0.833,-0.417 1.666,-0.417 2.5,-0.833c1.666,-0.417 2.916,0.416 3.333,1.666c0.417,1.25 0.833,2.084 1.25,3.334c0.417,2.083 -0,3.333 -2.083,4.166c-0.834,0.417 -1.667,0.417 -2.084,0.834c-10.416,3.333 -20.416,7.083 -30.833,10.416c-1.25,0.417 -2.083,0.834 -3.333,0.834c-2.084,0.416 -3.334,0 -4.167,-2.084c-1.667,-3.75 -1.667,-7.5 -0,-11.25c4.583,-9.166 9.167,-17.916 13.75,-27.083c1.25,-0.833 1.667,-1.667 2.5,-3.333" style="fill:#1f3b71;fill-rule:nonzero;"/><path d="M204.584,452.833c-0.417,1.25 -0.834,2.084 -1.25,2.917c-2.917,9.167 -5.834,18.333 -9.167,27.917c-0.417,0.833 -0.417,1.666 -0.833,2.5c-0.834,2.083 -2.084,2.5 -4.167,2.083c-1.667,-0.417 -3.333,-1.25 -5,-1.667c-2.917,-1.25 -3.75,-2.5 -2.5,-5.416c2.5,-7.917 5,-15.834 7.917,-24.167c0.833,-2.917 1.666,-5.417 2.916,-8.75c-2.083,-0.833 -3.75,-1.25 -5.416,-2.083c-2.5,-0.834 -5,-1.667 -7.5,-2.5c-2.917,-0.834 -3.334,-2.084 -2.5,-5c0.416,-0.834 0.416,-1.667 0.833,-2.5c0.833,-1.667 2.083,-2.5 3.75,-2.084c0.417,-0 1.25,0.417 1.667,0.417c12.5,4.167 24.583,8.333 37.083,12.5c0.417,-0 1.25,0.417 1.667,0.833c0.416,0.417 0.833,0.417 1.25,0.834c1.25,1.666 0.833,3.75 -0.417,6.666c-0.833,1.667 -2.083,2.084 -4.167,1.25c-3.333,-0.833 -6.666,-2.083 -10,-3.333c-1.666,-0 -2.916,-0 -4.166,-0.417" style="fill:#1f3b71;fill-rule:nonzero;"/><path d="M104.584,443.25c-0,-0 -0.834,-0 -1.25,-0.417c-1.667,-1.25 -3.75,-2.5 -5,-4.166c-1.25,-1.25 -1.667,-2.917 -0.417,-4.584c0.417,-0.833 1.25,-1.666 1.667,-2.083c7.5,-9.583 15,-19.583 22.5,-29.167c0.416,-0.833 0.833,-1.25 1.666,-1.666c1.25,-1.25 2.917,-1.667 4.167,-0.417c1.667,1.25 3.333,2.5 5,3.75c1.667,1.25 1.667,2.917 0.417,4.583c-0,0.417 -0.417,0.834 -0.834,0.834c-7.916,10.416 -15.833,20.833 -24.166,31.25c-0.834,1.25 -1.667,2.083 -3.75,2.083" style="fill:#1f3b71;fill-rule:nonzero;"/></svg>