<?xml version="1.0" encoding="UTF-8" standalone="no"?><!DOCTYPE svg PUBLIC "-//W3C//DTD SVG 1.1//EN" "http://www.w3.org/Graphics/SVG/1.1/DTD/svg11.dtd"><svg width="100%" height="100%" viewBox="0 0 714 286" version="1.1" xmlns="http://www.w3.org/2000/svg" xmlns:xlink="http://www.w3.org/1999/xlink" xml:space="preserve" xmlns:serif="http://www.serif.com/" style="fill-rule:evenodd;clip-rule:evenodd;stroke-linejoin:round;stroke-miterlimit:2;"><path d="M474.167,63.5c2.916,-1.667 6.25,-2.917 9.166,-4.583c4.167,-1.667 8.334,-2.5 12.917,-2.5c6.667,-0 13.333,1.666 18.75,5.833c5.417,4.583 8.333,11.25 7.917,18.333l0,2.917c18.75,-18.75 33.75,-40.833 44.166,-65.417c-1.25,0.834 -2.5,1.667 -3.75,2.5c-8.333,-6.666 -18.333,-11.666 -28.75,-14.583c-10.833,-3.333 -22.083,-5 -33.75,-5c-15,-0 -29.583,2.083 -44.166,6.25c-12.5,3.333 -24.584,9.167 -35.417,16.25c-5,3.333 -9.583,7.5 -13.333,12.5c-3.334,5.417 -5,11.667 -5,17.917l0,85.416c24.583,-2.5 48.75,-9.583 70.833,-20.833l0.417,-55Z" style="fill:#1f3b71;fill-rule:nonzero;"/><path d="M641.667,180.167c-0.417,5.833 0.833,11.666 2.916,17.083c1.667,4.167 4.167,7.5 7.5,10.417c3.75,2.5 7.917,4.166 12.5,5c5.417,0.833 10.834,1.25 16.667,1.25c6.25,-0 12.5,-0.417 18.75,-1.25c4.583,-0.417 8.75,-1.25 13.333,-2.5l0,-131.25c0,-5.834 -0.416,-12.084 -1.666,-17.917c-15.417,42.5 -39.167,81.25 -69.584,115l-0.416,4.167Z" style="fill:#1f3b71;fill-rule:nonzero;"/><path d="M405.833,196.833c1.667,4.167 4.167,7.5 7.917,10.417c3.75,2.5 7.917,4.167 12.5,5c5.417,0.833 10.833,1.25 16.667,1.25c6.25,0 12.5,-0.417 18.75,-1.25c4.583,-0.417 8.75,-1.25 12.916,-2.5l0,-91.25c-22.083,11.25 -46.25,18.75 -70.833,20.833l0,40.834c-0.833,5.833 0,11.25 2.083,16.666" style="fill:#1f3b71;fill-rule:nonzero;"/><path d="M686.667,18.5c-7.917,-6.25 -17.5,-10.417 -27.084,-13.333c-10,-2.917 -20.416,-4.167 -31.25,-4.167c-12.916,-0.417 -25.416,1.667 -37.916,5.417c-8.334,2.916 -16.667,6.666 -24.167,11.25c-10,24.583 -25,46.666 -44.167,65.416l0,96.667c-0.416,5.833 0.834,11.667 2.917,17.083c1.667,4.167 4.167,7.5 7.917,10.417c3.75,2.5 7.916,4.167 12.5,5c5.416,0.833 10.833,1.25 16.666,1.25c6.25,-0 12.084,-0.417 18.334,-1.25c4.583,-0.417 9.166,-1.25 13.75,-2.5l0,-141.667c0,-1.25 0,-2.083 -0.417,-3.333c2.917,-2.5 6.25,-4.167 10,-5.833c3.75,-1.667 8.333,-2.5 12.5,-2.5c6.667,-0.417 13.75,1.666 19.167,5.833c5,4.583 7.916,11.25 7.083,18.333l0,95c30.417,-33.333 53.75,-72.5 69.583,-115c-0.833,-6.25 -2.916,-12.5 -5.416,-18.333c-5.417,-9.167 -12.084,-17.5 -20,-23.75" style="fill:#1f3b71;fill-rule:nonzero;"/><path d="M232.917,180.167c-0.417,5.833 0.833,11.666 2.916,17.083c1.667,4.167 4.167,7.5 7.917,10.417c3.75,2.5 7.917,4.166 12.5,5c5.417,0.833 10.833,1.25 16.667,1.25c6.25,-0 12.5,-0.417 18.75,-1.25c4.583,-0.417 8.75,-1.25 12.916,-2.5l-0,-91.25c-22.083,14.583 -45.833,26.666 -70.833,35.833l-0.833,25.417Z" style="fill:#1f3b71;fill-rule:nonzero;"/><path d="M317.083,63.083c5,-1.25 10.834,-2.5 16.667,-3.75c5.833,-1.25 11.667,-2.083 17.917,-2.5c6.25,-0.416 12.083,-0.833 17.916,-0.833c1.667,-3.333 3.334,-6.667 4.167,-10c1.25,-3.75 1.667,-7.5 1.667,-11.667c0,-11.666 -3.75,-20 -11.667,-25.416c-9.583,-5.417 -20.417,-8.334 -31.667,-7.917c-7.916,0 -16.25,0.833 -24.166,2.083c-7.917,1.25 -15.834,2.917 -23.334,5c-7.083,2.084 -14.166,4.584 -21.25,7.917c-5.833,2.5 -11.25,5.833 -16.666,10c-4.167,3.333 -7.5,7.5 -10.417,12.5c-2.5,5 -3.75,10.833 -3.333,16.667l0,99.166c25,-9.166 48.75,-21.25 70.833,-35.833l0,-51.25c4.583,-1.667 8.75,-2.917 13.333,-4.167" style="fill:#1f3b71;fill-rule:nonzero;"/><path d="M135.417,198.5c0.833,10 -4.584,19.583 -13.334,24.167c-7.916,4.166 -16.25,6.25 -25,7.083c-20.416,16.667 -42.916,30.833 -67.083,42.5c2.083,1.25 3.75,2.5 5.833,3.333c14.584,6.667 34.167,10.417 59.584,10.417c14.166,0 27.916,-1.667 41.666,-5c12.084,-2.917 23.75,-8.333 33.75,-15.417c9.584,-7.083 17.5,-16.25 22.917,-26.666c5.833,-11.667 8.75,-25 8.333,-38.334l0,-112.083c-15.833,39.167 -38.333,74.583 -66.666,105.833l0,4.167Z" style="fill:#1f3b71;fill-rule:nonzero;"/><path d="M70.833,5.583c-2.083,0.417 -3.75,0.834 -5.833,1.667c-12.5,3.75 -24.167,10 -34.167,18.333c-10,8.334 -17.5,19.167 -22.5,31.25c-5.833,14.167 -8.333,29.167 -8.333,44.167c0,5 0.417,9.583 0.833,14.167c35,-27.917 59.584,-66.25 70,-109.584" style="fill:#1f3b71;fill-rule:nonzero;"/><path d="M86.25,230.167c-10.833,0 -21.25,-1.667 -31.667,-4.584c-9.583,-2.916 -18.75,-6.666 -27.5,-11.25c-3.75,2.917 -6.666,6.667 -8.75,11.25c-2.916,5 -4.166,10.834 -4.166,17.084c-0.417,12.083 5.416,23.333 15.833,30c23.75,-11.667 46.25,-25.834 67.083,-42.5l-10.833,0" style="fill:#1f3b71;fill-rule:nonzero;"/><path d="M134.167,76.833l0,61.667c-7.917,5.833 -17.5,8.333 -27.084,7.917c-10,0.416 -19.166,-3.75 -26.25,-10.834c-0.833,-0.833 -1.666,-2.083 -2.083,-2.916c-5,-7.084 -7.917,-17.5 -7.917,-31.667c0,-14.167 3.334,-25 10.417,-32.917c6.667,-7.5 17.083,-11.666 30.833,-11.666c4.584,-0 9.584,0.416 14.167,1.666c2.917,0.834 5.833,2.084 8.75,3.334l-0.833,15.416Zm62.916,-40.833c-3.75,-5 -7.916,-9.583 -13.333,-12.917c-9.583,-6.666 -20.417,-12.083 -31.667,-15.416c-0.416,0 -0.416,-0.417 -0.833,-0.417c-14.167,-4.167 -28.75,-6.25 -43.333,-6.25c-12.5,0 -25,1.667 -37.5,4.583c-10.417,43.334 -35,81.667 -70,109.167c0.833,10.417 3.333,20.833 7.083,30.833c0.833,2.084 1.667,4.167 2.917,5.834c4.166,9.166 10.416,17.5 17.5,24.583c8.333,7.917 18.75,13.75 29.583,17.5c11.667,3.75 23.75,5.833 35.833,5.417c14.167,0.416 28.334,-2.084 41.667,-7.5l-0,2.083c28.333,-30.833 50.833,-66.667 66.667,-105.833l-0,-33.75c0.833,-6.25 -0.834,-12.5 -4.584,-17.917" style="fill:#1f3b71;fill-rule:nonzero;"/><path d="M243.333,262.667l5.417,0l0,6.666c-1.667,0.417 -2.917,0.417 -4.583,0.417c-2.5,0 -4.584,-0.833 -6.25,-2.5c-1.667,-2.083 -2.5,-4.583 -2.084,-7.5c-0,-2.5 0.834,-5.417 2.5,-7.5c1.667,-1.667 4.167,-2.917 6.667,-2.5c2.083,0 4.583,0.417 6.25,1.667l1.667,-3.75c-2.5,-1.25 -5,-1.667 -7.917,-1.667c-3.75,-0.417 -7.5,1.25 -10,3.75c-2.5,2.5 -3.75,6.25 -3.75,10c-0.417,3.75 0.833,7.083 3.333,10c2.5,2.5 5.834,3.75 9.167,3.75c3.333,0 6.25,-0.417 9.583,-1.25l-0,-13.333l-10,0l-0,3.75Z" style="fill:#1f3b71;fill-rule:nonzero;"/><rect x="258.75" y="245.167" width="4.167" height="28.333" style="fill:#1f3b71;"/><path d="M277.5,270.167c-3.333,0 -5,-2.084 -5,-7.084c0,-1.666 0.417,-3.75 1.25,-5c0.833,-1.25 2.5,-2.083 3.75,-1.666c3.333,0 5,2.5 5,7.083c0.417,4.583 -1.667,6.667 -5,6.667Zm0.417,-17.084c-2.5,0 -5.417,0.834 -7.084,2.917c-1.666,2.083 -2.5,5 -2.5,7.5c0,2.083 0.417,3.75 1.25,5.417c0.834,1.666 1.667,2.916 3.334,3.75c1.666,0.833 3.333,1.25 5,1.25c2.5,0 5.416,-0.834 7.083,-2.917c1.667,-2.083 2.5,-5 2.5,-7.5c0,-2.917 -0.833,-5.417 -2.5,-7.5c-2.083,-2.083 -4.583,-2.917 -7.083,-2.917" style="fill:#1f3b71;fill-rule:nonzero;"/><path d="M304.583,268.5c-0.833,1.25 -2.083,1.667 -3.333,1.667c-1.25,0 -2.917,-0.417 -3.75,-1.667c-0.833,-1.667 -1.25,-3.333 -1.25,-5.417l0,-0.416c0,-1.667 0.417,-3.75 1.25,-5c0.833,-1.25 2.083,-1.667 3.75,-1.667c3.333,-0 4.583,2.5 4.583,6.667c0,2.5 -0.416,4.166 -1.25,5.833m-2.083,-15.417c-2.5,-0 -4.583,0.834 -5.833,2.917l0,-10.417l-4.167,-0l0,28.334l3.333,-0l0.834,-2.5l0.416,-0c2.917,3.333 7.5,3.75 10.834,0.833c0.416,-0.417 0.416,-0.417 0.833,-0.833c1.667,-2.084 2.083,-5 2.083,-7.5c0,-2.917 -0.416,-5.417 -2.083,-7.5c-2.083,-2.5 -4.167,-3.334 -6.25,-3.334" style="fill:#1f3b71;fill-rule:nonzero;"/><path d="M326.667,265.583c-0,1.25 -0.417,2.5 -1.25,3.75c-0.834,0.834 -2.5,1.25 -3.75,1.25c-0.834,-0 -1.667,-0 -2.5,-0.833c-0.417,-0.417 -0.834,-1.25 -0.834,-2.083c-0,-1.25 0.417,-2.084 1.25,-2.917c1.25,-0.833 2.917,-0.833 4.584,-0.833l2.5,0l-0,1.666Zm-3.75,-12.5c-1.25,0 -2.5,0 -3.75,0.417c-1.25,0.417 -2.5,0.833 -3.75,1.25l1.25,2.917c0.833,-0.417 1.666,-0.834 2.916,-0.834c0.834,-0.416 2.084,-0.416 2.917,-0.416c0.833,0 2.083,0.416 2.917,0.833c0.833,0.833 0.833,1.667 0.833,2.917l-0,1.25l-3.333,0c-2.5,0 -5,0.416 -7.084,1.666c-1.666,1.25 -2.5,2.917 -2.5,4.584c-0,1.666 0.417,3.333 1.667,4.583c1.25,1.25 2.917,1.667 4.583,1.667c1.25,0 2.5,0 3.75,-0.834c1.25,-0.416 2.084,-1.25 2.917,-2.5l0.833,2.917l2.917,0l-0,-13.333c-0,-2.084 -0.417,-3.75 -2.083,-5.417c-0.834,-1.25 -2.917,-1.667 -5,-1.667" style="fill:#1f3b71;fill-rule:nonzero;"/><rect x="336.667" y="245.167" width="4.167" height="28.333" style="fill:#1f3b71;"/><path d="M364.583,259.333l-2.916,-0l0,-8.75l2.916,-0c1.667,-0 2.917,0.417 4.584,0.834c1.25,0.833 1.666,2.083 1.666,3.333c0,1.25 -0.416,2.5 -1.25,3.333c-1.666,0.834 -3.333,1.25 -5,1.25Zm10.417,-4.583c0,-2.083 -0.833,-4.583 -2.5,-5.833c-2.083,-1.667 -5,-2.084 -7.5,-2.084l-7.5,0l0,26.667l4.167,0l0,-10.417l4.166,0l6.25,10.417l5,0l-7.5,-11.667c3.334,-1.25 5.417,-3.75 5.417,-7.083" style="fill:#1f3b71;fill-rule:nonzero;"/><rect x="380.417" y="253.5" width="4.167" height="20" style="fill:#1f3b71;"/><path d="M382.917,245.583c-0.834,-0 -1.25,-0 -1.667,0.417c-0.833,0.833 -0.833,2.5 -0,3.333c0.417,0.417 1.25,0.834 1.667,0.834c0.833,-0 1.25,-0 1.666,-0.834c0.834,-0.833 0.834,-2.5 -0,-3.333c-0.416,0 -1.25,-0.417 -1.666,-0.417" style="fill:#1f3b71;fill-rule:nonzero;"/><path d="M397.917,263.917c-0.834,0 -2.084,-0.417 -2.917,-0.834c-0.833,-0.833 -0.833,-2.083 -0.833,-2.916c-0,-1.25 0.416,-2.084 0.833,-2.917c0.833,-0.833 1.667,-1.25 2.917,-1.25c0.833,-0 2.083,0.417 2.916,1.25c0.834,0.833 0.834,2.083 0.834,2.917c-0.417,2.083 -1.25,3.75 -3.75,3.75Zm-4.167,9.583l5.833,-0c1.25,-0 2.5,-0 3.334,0.417c0.833,0.416 0.833,1.25 0.833,1.666c-0,1.25 -0.833,2.084 -1.667,2.5c-1.666,0.834 -3.333,1.25 -5,0.834c-1.25,0 -2.5,0 -3.333,-0.834c-0.833,-0.416 -1.25,-1.25 -1.25,-2.083c-0,-0.833 0.417,-1.667 1.25,-2.5Zm5.833,-20.417l-1.666,-0c-2.084,-0 -4.167,0.417 -5.834,1.667c-1.25,1.25 -2.083,3.333 -2.083,5c-0,1.25 0.417,2.5 0.833,3.75c0.417,0.833 1.667,1.667 2.5,2.083c-0.833,0.417 -1.25,0.834 -2.083,1.667c-0.417,0.417 -0.833,1.25 -0.417,2.083c-0,1.25 0.834,2.5 2.084,2.917c-1.25,0.417 -2.5,0.833 -3.334,1.667c-0.833,0.833 -1.25,2.083 -1.25,2.916c-0,1.667 0.834,3.334 2.084,4.167c2.083,1.25 4.166,1.667 6.25,1.25c2.916,0 5.833,-0.417 8.333,-1.667c1.667,-1.25 2.917,-3.333 2.917,-5.416c-0,-1.667 -0.417,-2.917 -1.667,-4.167c-1.667,-0.833 -3.333,-1.667 -5,-1.25l-3.333,0c-0.834,0 -1.667,0 -2.5,-0.417c-0.417,-0 -0.834,-0.416 -0.834,-0.833c-0,-0.833 0.417,-1.667 1.25,-2.083l1.667,0c2.083,0 4.167,-0.417 5.833,-1.667c1.25,-1.25 2.084,-2.917 2.084,-5c-0,-1.25 -0.417,-2.5 -1.25,-3.333l3.333,-0.417l-0,-2.5l-7.083,0c0.416,-0.417 -0.417,-0.417 -0.834,-0.417" style="fill:#1f3b71;fill-rule:nonzero;"/><path d="M422.083,253.083c-1.25,-0 -2.5,0.417 -3.75,0.834c-0.833,0.416 -2.083,1.25 -2.5,2.083l-0.416,-0c0,-1.25 0.416,-2.5 0.416,-3.75l0,-7.083l-4.166,-0l0,28.333l4.166,-0l0,-10c0,-2.083 0.417,-3.75 1.25,-5.417c0.834,-1.25 2.5,-1.666 4.167,-1.666c1.25,-0 2.083,0.416 2.917,1.25c0.833,0.833 1.25,2.083 0.833,3.333l0,12.5l4.167,-0l0,-12.917c0.416,-3.333 -2.084,-6.666 -5.417,-7.5l-1.667,-0" style="fill:#1f3b71;fill-rule:nonzero;"/><path d="M440.833,269.75c-0.416,-0.833 -0.833,-1.667 -0.833,-2.5l0,-10.833l5.833,0l0,-3.334l-5.833,0l0,-4.166l-2.5,0l-1.25,4.166l-2.917,1.667l0,2.083l2.917,0l0,10.834c0,4.166 2.083,6.25 6.25,6.25l2.5,0c0.417,0 1.25,-0.417 1.667,-0.417l0,-3.75c-0.834,0.417 -2.084,0.417 -2.917,0.417c-1.667,0.416 -2.5,0 -2.917,-0.417" style="fill:#1f3b71;fill-rule:nonzero;"/><path d="M461.25,263.5c-1.25,-0.833 -2.5,-1.25 -3.75,-1.667c-1.25,-0.416 -2.5,-1.25 -3.75,-1.666c-0.417,-0.417 -0.833,-0.834 -0.833,-1.667c0,-1.25 1.25,-2.083 3.333,-2.083c2.083,-0 3.75,0.416 5.417,1.25l1.25,-3.334c-2.084,-0.833 -4.584,-1.25 -6.667,-1.25c-2.083,-0 -3.75,0.417 -5.833,1.25c-1.25,0.834 -2.084,2.5 -2.084,4.167c0,1.25 0.417,2.5 1.25,3.333c1.25,1.25 2.917,2.084 4.584,2.5c0.833,0.417 2.083,0.834 2.916,1.25c0.417,0.417 0.834,0.834 1.25,1.25c0.417,0.417 0.417,0.834 0.417,1.25c0,1.667 -1.25,2.5 -4.167,2.5c-2.083,-0 -4.583,-0.416 -6.666,-1.666l0,3.75c2.083,0.833 4.166,1.25 6.25,1.25c2.083,-0 4.166,-0.417 6.25,-1.667c1.25,-0.833 2.083,-2.917 2.083,-4.583c-0,-0.834 -0,-1.667 -0.417,-2.5c0.417,-0.834 -0.416,-1.25 -0.833,-1.667" style="fill:#1f3b71;fill-rule:nonzero;"/><path d="M491.667,268.083l-7.5,-21.25l-6.25,-0l0,26.667l3.75,0l0,-12.917c0,-2.916 0,-5.833 -0.417,-9.166l7.5,22.083l3.75,-0l7.917,-22.083l0,21.666l4.166,-0l0,-26.666l-6.25,-0l-6.666,21.666Z" style="fill:#1f3b71;fill-rule:nonzero;"/><path d="M523.333,265.583c0,1.25 -0.416,2.917 -1.25,3.75c-0.833,0.834 -2.5,1.25 -3.75,1.25c-0.833,-0 -1.666,-0 -2.5,-0.833c-0.416,-0.417 -0.833,-1.25 -0.833,-2.083c0,-1.25 0.417,-2.084 1.25,-2.917c1.25,-0.833 2.917,-0.833 4.583,-0.833l2.5,0l0,1.666Zm-3.333,-12.5c-1.25,0 -2.5,0 -3.75,0.417c-1.25,0.417 -2.5,0.833 -3.75,1.25l1.25,2.917c0.833,-0.417 1.667,-0.834 2.917,-0.834c0.833,-0.416 2.083,-0.416 2.916,-0.416c0.834,0 2.084,0.416 2.917,0.833c0.833,0.833 0.833,1.667 0.833,2.917l0,1.25l-3.333,0c-2.5,0 -5,0.416 -7.083,1.666c-1.667,1.25 -2.5,2.917 -2.5,4.584c0,1.666 0.416,3.333 1.666,4.583c1.25,1.25 2.917,1.667 4.584,1.667c1.25,0 2.5,0 3.75,-0.834c1.25,-0.416 2.083,-1.25 2.916,-2.5l0.834,2.917l2.916,0l0,-13.333c0,-2.084 -0.416,-3.75 -2.083,-5.417c-0.833,-1.25 -2.917,-1.667 -5,-1.667" style="fill:#1f3b71;fill-rule:nonzero;"/><path d="M544.167,253.083c-1.25,-0 -2.5,0.417 -3.75,0.834c-1.25,0.416 -2.084,1.25 -2.5,2.083l-0.417,-0l-0.417,-2.5l-3.333,-0l0,20l4.167,-0l0,-10c0,-2.083 0.416,-3.75 1.25,-5.417c0.833,-1.25 2.5,-1.666 3.75,-1.666c1.25,-0 2.083,0.416 2.916,1.25c0.834,0.833 0.834,2.083 0.834,3.333l0,12.5l4.166,-0l0,-12.917c0.417,-3.333 -2.083,-6.666 -5.416,-7.5l-1.25,-0" style="fill:#1f3b71;fill-rule:nonzero;"/><path d="M568.75,265.583c0,1.25 -0.417,2.917 -1.25,3.75c-0.833,0.834 -2.5,1.25 -3.75,1.25c-0.833,-0 -1.667,-0 -2.5,-0.833c-0.417,-0.417 -0.833,-1.25 -0.833,-2.083c0,-1.25 0.416,-2.084 1.25,-2.917c1.25,-0.833 2.916,-0.833 4.166,-0.833l2.5,0l0.417,1.666Zm-3.75,-12.5c-1.25,0 -2.5,0 -3.75,0.417c-1.25,0.417 -2.5,0.833 -3.75,1.25l1.25,2.917c0.833,-0.417 1.667,-0.834 2.5,-0.834c0.833,-0.416 2.083,-0.416 2.917,-0.416c0.833,0 2.083,0.416 2.916,0.833c0.834,0.833 0.834,1.667 0.834,2.917l-0,1.25l-3.334,0c-2.5,0 -5,0.416 -7.083,1.666c-1.667,1.25 -2.5,2.917 -2.5,4.584c-0,1.666 0.417,3.333 1.667,4.583c1.25,1.25 2.916,1.667 4.583,1.667c1.25,0 2.5,0 3.75,-0.834c1.25,-0.416 2.083,-1.25 2.917,-2.5l0.833,2.917l2.917,0l-0,-13.333c-0,-2.084 -0.417,-3.75 -2.084,-5.417c-0.416,-1.25 -2.5,-2.083 -4.583,-1.667" style="fill:#1f3b71;fill-rule:nonzero;"/><path d="M585.417,263.917c-0.834,0 -2.084,-0.417 -2.917,-0.834c-0.833,-0.833 -0.833,-2.083 -0.833,-2.916c0,-1.25 0.416,-2.084 0.833,-2.917c1.667,-1.25 4.167,-1.25 5.417,-0c0.833,0.833 0.833,2.083 0.833,2.917c0.417,2.083 -0.833,3.75 -3.333,3.75Zm-4.167,9.583l5.833,-0c1.25,-0 2.5,-0 3.334,0.417c0.833,0.416 0.833,1.25 0.833,1.666c0,1.25 -0.833,2.084 -1.667,2.5c-1.666,0.834 -3.333,1.25 -5,0.834c-1.25,0 -2.5,0 -3.333,-0.834c-0.833,-0.416 -1.25,-1.25 -1.25,-2.083c0,-0.833 0.417,-1.667 1.25,-2.5Zm6.25,-20.417l-1.667,-0c-2.083,-0 -4.166,0.417 -5.833,1.667c-1.25,1.25 -2.083,3.333 -2.083,5c0,1.25 0.416,2.5 0.833,3.75c0.417,0.833 1.667,1.667 2.5,2.083c-0.833,0.417 -1.25,0.834 -1.667,1.667c-0.416,0.417 -0.833,1.25 -0.833,2.083c0,0.417 0,1.25 0.417,1.667c0.416,0.417 0.833,0.833 1.25,1.25c-1.25,0.417 -2.5,0.833 -3.334,1.667c-0.833,0.833 -1.25,2.083 -1.25,2.916c0,1.667 0.834,3.334 2.084,4.167c2.083,1.25 4.166,1.667 6.25,1.25c2.916,0 5.833,-0.417 8.333,-1.667c1.667,-1.25 2.917,-3.333 2.917,-5.416c0,-1.667 -0.417,-2.917 -1.667,-4.167c-1.667,-0.833 -3.333,-1.667 -5,-1.25l-3.333,0c-0.834,0 -1.667,0 -2.5,-0.417c-0.417,-0 -0.834,-0.416 -0.834,-0.833c0,-0.833 0.417,-1.667 1.25,-2.083l1.667,0c2.083,0 4.167,-0.417 5.833,-1.667c1.25,-1.25 2.084,-2.917 2.084,-5c0,-0.833 0,-1.25 -0.417,-2.083c0,-0.417 -0.417,-1.25 -0.833,-1.667l3.333,-0.417l0,-2.5l-7.083,0c0.416,0 0,0 -0.417,0" style="fill:#1f3b71;fill-rule:nonzero;"/><path d="M602.917,261.417c0,-1.25 0.416,-2.917 1.666,-3.75c0.834,-0.834 2.084,-1.25 3.334,-1.25c1.25,0 2.5,0.416 3.333,1.25c0.833,1.25 1.25,2.5 1.25,3.75l-9.583,0Zm4.583,-8.334c-2.5,0 -5,0.834 -6.667,2.917c-1.666,2.083 -2.5,5 -2.5,7.5c0,2.917 0.834,5.417 2.5,7.5c2.084,2.083 4.584,2.917 7.5,2.5c1.25,0 2.5,0 3.75,-0.417c1.25,0 2.084,-0.416 3.334,-0.833l0,-3.333c-1.25,0.416 -2.084,0.833 -3.334,1.25c-1.25,0.416 -2.083,0.416 -3.333,0.416c-1.667,0 -2.917,-0.416 -4.167,-1.666c-1.25,-1.25 -1.666,-2.917 -1.666,-4.584l13.333,0l0,-2.5c0,-2.5 -0.833,-5 -2.5,-6.666c-1.667,-1.25 -4.167,-2.084 -6.25,-2.084" style="fill:#1f3b71;fill-rule:nonzero;"/><path d="M643.75,253.083c-1.25,-0 -2.5,0.417 -3.75,0.834c-0.833,0.416 -2.083,1.25 -2.5,2.5l-0.417,-0c-1.25,-2.084 -3.75,-3.334 -6.25,-3.334c-1.25,-0 -2.5,0.417 -3.333,0.834c-0.833,0.416 -2.083,1.25 -2.5,2.083l-0.417,-2.5l-3.333,-0l0,20l4.167,-0l0,-10c0,-1.667 0.416,-3.75 1.25,-5.417c0.833,-1.25 2.083,-1.666 3.75,-1.666c1.25,-0 2.083,0.416 2.916,1.25c0.834,0.833 0.834,2.083 0.834,3.333l0,12.5l4.166,-0l0,-10.417c0,-1.666 0.417,-3.333 1.25,-4.583c0.834,-1.25 2.084,-1.667 3.75,-1.667c0.834,-0 2.084,0.417 2.917,1.25c0.833,0.834 0.833,2.084 0.833,3.334l0,12.5l4.167,-0l0,-12.917c0,-2.083 -0.417,-4.167 -1.667,-5.417c-2.083,-2.083 -4.166,-2.916 -5.833,-2.5" style="fill:#1f3b71;fill-rule:nonzero;"/><path d="M659.583,261.417c0,-1.25 0.417,-2.917 1.25,-3.75c0.834,-0.834 2.084,-1.25 3.334,-1.25c1.25,0 2.5,0.416 3.333,1.25c0.833,1.25 1.25,2.5 1.25,3.75l-9.167,0Zm5,-8.334c-2.5,0 -5,0.834 -6.666,2.917c-1.667,2.083 -2.5,5 -2.5,7.5c0,2.917 0.833,5.417 2.5,7.5c2.083,2.083 4.583,2.917 7.5,2.5c1.25,0 2.5,0 3.75,-0.417c1.25,0 2.083,-0.416 3.333,-0.833l0,-3.333c-1.25,0.416 -2.083,0.833 -3.333,1.25c-1.25,0.416 -2.084,0.416 -3.334,0.416c-1.666,0 -2.916,-0.416 -4.166,-1.666c-1.25,-1.25 -1.667,-2.917 -1.667,-4.584l13.333,0l0,-2.5c0,-2.5 -0.833,-5 -2.5,-6.666c-1.666,-1.25 -4.166,-2.084 -6.25,-2.084" style="fill:#1f3b71;fill-rule:nonzero;"/><path d="M688.333,253.083c-1.25,-0 -2.5,0.417 -3.75,0.834c-1.25,0.416 -2.083,1.25 -2.5,2.083l-0.416,-2.5l-3.334,-0l0,20l4.167,-0l0,-10c0,-2.083 0.417,-3.75 1.25,-5.417c0.833,-1.25 2.5,-1.666 3.75,-1.666c1.25,-0 2.083,0.416 2.917,1.25c0.833,0.833 0.833,2.083 0.833,3.333l0,12.5l4.167,-0l0,-12.917c0.416,-3.333 -2.084,-6.666 -5.417,-7.5l-1.667,-0" style="fill:#1f3b71;fill-rule:nonzero;"/><path d="M707.083,269.75c-0.416,-0.417 -0.833,-1.25 -0.833,-2.5l0,-10.833l5.833,0l0,-3.334l-5.833,0l0,-4.166l-2.5,0l-1.25,4.166l-2.917,1.667l0,2.083l2.917,0l0,10.834c0,4.166 2.083,6.25 6.25,6.25l2.5,0c0.417,0 1.25,-0.417 1.667,-0.417l0,-3.75c-0.834,0.417 -2.084,0.417 -3.334,0.417c-1.25,0.416 -2.083,0 -2.5,-0.417" style="fill:#1f3b71;fill-rule:nonzero;"/></svg>