<?xml version="1.0" encoding="UTF-8" standalone="no"?><!DOCTYPE svg PUBLIC "-//W3C//DTD SVG 1.1//EN" "http://www.w3.org/Graphics/SVG/1.1/DTD/svg11.dtd"><svg width="100%" height="100%" viewBox="0 0 776 413" version="1.1" xmlns="http://www.w3.org/2000/svg" xmlns:xlink="http://www.w3.org/1999/xlink" xml:space="preserve" xmlns:serif="http://www.serif.com/" style="fill-rule:evenodd;clip-rule:evenodd;stroke-linejoin:round;stroke-miterlimit:2;"><path d="M768.917,368.119c0,-2.5 0,-5.416 -0.417,-7.916c-0.833,-6.667 -7.083,-12.5 -13.333,-12.917c-7.5,-0.417 -15,1.667 -17.083,10c-1.25,5.417 -2.5,10.833 -1.667,16.25c2.083,11.25 7.5,15.417 17.5,15.417c7.917,0 16.25,-8.75 15,-17.084c-0.417,-1.666 0,-2.5 0,-3.75m7.083,5c-0.833,1.667 -1.25,3.75 -2.083,5.417c-3.333,9.583 -12.083,15.833 -21.667,15.417c-11.25,-0.417 -20,-7.917 -21.666,-18.75c-1.667,-9.167 -1.667,-17.917 5,-25.417c5.416,-6.25 12.5,-9.167 20.833,-7.5c9.167,1.667 15.833,6.667 17.917,16.25c0.416,1.25 1.25,2.5 1.666,3.75l0,10.833Z" style="fill:#1f3b71;fill-rule:nonzero;"/><path d="M270.167,130.619c5,-6.666 8.75,-12.5 13.333,-17.5c9.584,-10.416 21.25,-16.666 35,-19.583c15.834,-3.75 31.667,-3.333 47.084,1.667c24.583,7.916 38.333,25.416 43.75,49.583c2.916,12.5 3.75,25 3.75,37.917c-0.417,38.75 0,77.916 0,116.666l0,9.167c-6.667,2.083 -32.5,2.917 -46.667,1.25c0,-2.917 -0.417,-6.25 -0.417,-10l0,-126.25c0,-6.667 -0.416,-13.333 -2.083,-19.583c-3.333,-12.917 -11.667,-21.667 -25.417,-24.584c-8.333,-2.083 -16.666,-0.833 -24.583,1.25c-14.583,4.167 -25.833,20.834 -26.25,34.584l0,143.333c-6.25,2.5 -31.25,2.917 -46.667,1.25c0,-2.917 -0.416,-6.25 -0.416,-9.583l0,-129.584c0,-6.666 -1.25,-13.333 -2.917,-19.583c-3.333,-12.5 -11.667,-18.75 -24.583,-21.667c-16.25,-3.333 -29.584,2.5 -41.25,12.5c-2.084,1.667 -3.75,3.75 -5.417,5.417c-2.917,2.5 -4.167,5.417 -3.75,9.167l0,142.916c0,3.334 -0.417,6.667 -0.417,10.834l-45.416,0c-1.667,-7.5 -2.084,-205.834 0,-215c10,-0.834 20,-0.834 30,0c3.75,0.416 7.083,2.916 8.333,6.666c1.25,3.334 1.667,6.667 2.5,10c0.417,2.5 0.833,5 1.667,7.917c7.916,-6.25 15,-12.917 22.916,-17.917c19.167,-12.5 40,-14.166 60.417,-5c11.667,5 20,14.584 25.417,26.667c0,2.083 0.833,4.167 2.083,7.083" style="fill:#1f3b71;fill-rule:nonzero;"/><path d="M605.167,202.703c-1.25,12.916 0.417,25.833 5,38.75c5.833,17.083 16.667,29.583 35.417,33.75c11.25,2.5 22.083,2.083 33.333,-0.417c12.917,-2.917 22.5,-10 28.75,-21.667c2.917,-5.416 5,-11.666 7.083,-17.5c4.584,-13.333 3.334,-27.5 3.334,-41.25c0,-13.75 -3.334,-27.083 -9.167,-39.166c-3.75,-7.917 -9.167,-14.584 -17.083,-19.167c-12.084,-7.5 -25.417,-8.75 -38.75,-7.083c-18.334,2.083 -32.5,11.25 -40.417,28.75c-6.25,13.75 -8.75,28.333 -7.5,45m57.917,111.666c-25.417,-1.25 -47.5,-6.25 -66.667,-21.25c-14.167,-11.25 -24.583,-25.416 -31.25,-42.083c-6.25,-16.25 -9.167,-33.75 -8.75,-50.833c0.833,-24.167 5.417,-47.917 20.417,-67.917c16.666,-22.5 38.75,-35.417 66.666,-39.583c18.334,-2.5 35.834,-1.25 53.334,3.75c16.25,4.583 30,13.333 41.666,25.416c17.5,18.75 25.417,40.834 27.5,65.834c1.667,19.583 0.417,38.75 -5.416,57.5c-4.167,13.75 -11.25,25.833 -20.834,36.666c-16.25,18.334 -36.666,27.917 -60.416,30.834c-6.25,0.416 -12.084,1.25 -16.25,1.666" style="fill:#1f3b71;fill-rule:nonzero;"/><path d="M512.25,309.786l-43.75,0c-1.666,-6.667 -2.083,-204.167 -0.416,-214.583c2.083,-0.417 4.166,-0.834 6.25,-0.834l27.083,0c10.833,0 10.833,0 10.833,11.25l0,204.167Z" style="fill:#1f3b71;fill-rule:nonzero;"/><path d="M34.75,99.786c10.834,0 20.417,-0.417 31.25,0.417c-1.666,8.333 -2.916,15.833 -4.583,23.333c-5.833,27.917 -12.083,55.833 -17.917,83.75c-3.75,16.667 -7.083,33.333 -10,50c-1.25,7.083 -2.916,15 2.917,21.667c1.667,2.083 4.167,4.166 7.083,4.583c6.25,1.25 12.917,3.75 19.584,0.833c0.833,-0.416 2.083,0 4.166,0c0.417,7.917 -1.666,14.584 -4.166,21.667c-0.417,1.667 -2.917,2.917 -5,3.333c-13.334,3.334 -26.667,3.334 -39.584,-2.916c-12.083,-5.834 -20.833,-24.584 -17.916,-37.5c4.166,-21.25 8.75,-42.5 12.916,-63.334c6.25,-30.416 12.5,-60.833 18.75,-91.666c0.834,-4.167 1.667,-8.75 2.5,-14.167" style="fill:#1f3b71;fill-rule:nonzero;"/><path d="M489.75,0.619c16.667,0 30,13.75 29.584,30.834c-0.417,17.5 -15,29.583 -30.834,30c-14.166,0.416 -30.416,-15.834 -29.583,-30c0.833,-19.167 13.75,-31.667 30.833,-30.834" style="fill:#1f3b71;fill-rule:nonzero;"/><path d="M86.834,24.369c0,12.5 -8.334,21.25 -20,21.25c-13.334,0 -21.25,-12.083 -21.667,-22.083c-0.417,-10.417 11.25,-20 22.5,-20c10.833,0.417 19.167,9.167 19.167,20.833" style="fill:#1f3b71;fill-rule:nonzero;"/><path d="M583.5,369.369c7.917,0 12.5,-4.166 12.5,-11.25c0,-7.083 -5.416,-11.666 -13.333,-11.25c-7.917,0.417 -12.5,4.584 -12.083,11.667c0,7.5 4.583,11.25 12.916,10.833m0.417,37.5c5.833,-0.416 10.833,-1.25 14.583,-5.833c4.167,-5 2.917,-9.583 -3.333,-10.833c-6.25,-1.25 -12.5,-1.25 -19.167,-1.25c-3.75,0 -6.666,2.083 -7.5,5.833c-0.833,3.75 0.417,7.083 3.75,8.75c3.75,1.667 7.917,2.5 11.667,3.333m-15,-20.416c-3.333,-7.5 -3.333,-7.5 1.667,-14.584c-0.834,-1.666 -2.084,-3.333 -2.917,-5c-4.167,-6.25 -3.333,-12.083 0.833,-17.916c3.75,-5.417 10,-7.084 16.25,-6.667c3.75,0 7.084,2.083 10.834,2.917c3.75,0.416 7.083,0.416 11.25,2.5c-2.084,1.25 -3.75,2.5 -5.834,3.75c0,0.833 -0.416,1.666 -0.416,2.083c2.916,14.167 -5,22.917 -19.584,22.083c-1.25,0 -2.916,-1.25 -4.166,-0.416c-1.667,0.833 -3.75,2.083 -4.167,3.75c-0.417,1.25 1.25,3.75 2.917,4.166c2.5,0.834 5.833,0.834 8.333,1.25c5,0.417 10,0.834 14.583,2.084c7.5,1.666 10.417,9.166 6.25,15.833c-1.666,2.917 -4.583,5.417 -7.5,7.083c-7.5,4.167 -15.416,4.584 -23.333,2.084c-12.083,-4.167 -14.583,-12.917 -5.833,-22.084c0.416,-2.083 0.416,-2.5 0.833,-2.916" style="fill:#1f3b71;fill-rule:nonzero;"/><path d="M114.334,391.453c-5,1.25 -5,-2.084 -5,-4.584l0,-36.666c-2.5,-1.25 -5,-2.5 -9.167,-4.167c3.75,-0.833 5.833,-1.667 7.917,-2.083c0.416,-0.834 0.833,-1.667 0.833,-2.5c0.833,-4.167 1.25,-8.75 2.5,-12.5c1.667,-4.167 5.417,-6.25 10,-7.5c3.333,-0.834 6.25,-0.417 9.167,3.333c-2.917,0.417 -5,0.833 -7.084,1.667c-3.333,0.833 -6.25,2.083 -7.5,6.25c-2.916,10.416 -2.083,12.083 9.167,12.083c4.583,0 9.167,-0.417 12.917,-0.417c4.583,-5.833 -0.834,-13.333 5,-18.75c5.416,5.417 0.416,12.5 3.75,18.334c4.166,2.083 9.583,-0.834 15,2.5c-5,3.75 -10.417,0.833 -15.834,3.333c0,10.417 -0.416,21.667 0,32.5c0,4.583 4.167,7.083 8.75,5.833c1.667,-0.416 3.334,-1.666 7.084,-3.333c-1.25,3.333 -1.667,5.417 -2.917,6.25c-3.75,2.917 -8.333,3.75 -12.917,1.25c-4.583,-2.083 -6.25,-5.417 -6.25,-10.417l0,-32.083c-8.75,-1.667 -16.666,-0.833 -25,-0.833c-0.833,15 1.25,28.75 -0.416,42.5" style="fill:#1f3b71;fill-rule:nonzero;"/><path d="M166.834,343.536c5.416,-0.417 5.833,4.167 6.666,7.5c3.334,10.417 6.667,20.833 10.417,32.917c1.667,-3.75 2.5,-6.25 3.75,-9.167c2.917,-9.167 5.833,-18.333 9.167,-27.083c0.416,-1.667 2.5,-3.75 4.166,-3.75c1.25,0 3.334,2.083 3.75,3.75c2.917,8.333 5.417,16.25 8.334,24.583c1.25,3.333 2.5,6.667 4.166,12.083c2.5,-8.333 4.584,-15 6.667,-21.25c1.667,-5.416 3.333,-10.416 5.417,-15.833c0.833,-2.917 1.25,-2.5 6.25,-3.333c-0.417,1.666 -0.417,3.333 -0.834,5c-4.166,12.916 -8.75,25.833 -12.916,38.75c-0.834,2.083 -1.25,5 -4.167,4.166c-1.667,-0.416 -3.75,-2.5 -4.583,-4.166c-4.167,-11.25 -7.5,-22.5 -11.667,-35c-1.25,2.916 -2.083,4.583 -2.917,6.666c-3.333,9.584 -6.666,19.167 -10,28.75c-0.416,1.667 -2.5,3.75 -3.75,3.75c-1.25,0 -3.75,-1.666 -4.166,-2.916c-5,-14.584 -9.584,-29.167 -14.167,-43.75c-0.417,-0.417 0,-0.834 0.417,-1.667" style="fill:#1f3b71;fill-rule:nonzero;"/><path d="M676.834,370.203c-7.084,-1.25 -13.334,0.416 -19.167,3.75c-3.333,1.666 -4.583,5 -3.75,8.75c0.833,3.75 3.75,5.416 7.5,5.833c11.25,0.833 17.083,-5 16.25,-16.25c0.417,-0.417 0,-0.833 -0.833,-2.083m6.25,22.5c-1.667,-2.084 -3.334,-3.334 -5,-5.417c-0.834,0.417 -1.667,1.25 -2.917,1.667c-5.833,4.166 -11.667,6.25 -18.75,3.75c-5.417,-1.667 -8.333,-5.834 -9.167,-10.834c-0.833,-5 2.5,-9.166 6.667,-11.25c4.583,-2.5 10.417,-3.75 15.417,-4.583c7.5,-1.25 8.75,-2.083 8.75,-7.917c0,-6.666 -3.75,-10.833 -9.584,-10.833c-4.583,-0.417 -8.333,1.667 -11.666,4.583c-2.5,2.5 -4.584,2.084 -6.25,-1.666c7.083,-5.417 14.166,-10 23.75,-7.084c6.666,2.084 10.416,6.667 10.833,13.334c0.417,11.25 0,22.5 0,33.75c-0.417,0.416 -0.833,0.833 -2.083,2.5" style="fill:#1f3b71;fill-rule:nonzero;"/><path d="M55.584,367.703c0,2.5 -0.417,4.583 0,7.083c0.833,7.083 6.666,12.917 13.75,13.75c8.75,0.833 14.166,-2.083 17.083,-10c2.917,-7.083 2.917,-14.167 0,-21.25c-2.917,-7.5 -9.167,-11.25 -17.083,-10c-6.667,0.833 -12.917,6.667 -13.75,13.75c-0.417,2.083 0,4.583 0,6.667m38.333,-1.25c0.833,16.25 -6.667,24.166 -18.333,27.083c-9.167,2.083 -19.584,-2.917 -23.75,-11.667c-4.167,-8.75 -4.584,-17.916 -0.417,-26.666c4.167,-9.167 13.75,-14.584 23.333,-12.917c11.25,1.667 18.75,9.583 19.584,20c-0.417,1.667 -0.417,3.75 -0.417,4.167" style="fill:#1f3b71;fill-rule:nonzero;"/><path d="M548.084,362.286c0,-10 -4.167,-14.583 -11.667,-15.417c-10,-0.833 -15.417,3.75 -17.5,15.417l29.167,0Zm5,3.75l-34.584,0c-0.833,8.333 1.667,14.583 7.5,19.167c5.417,4.583 11.667,4.166 17.917,1.25c5.833,-2.5 5.833,-2.5 9.583,-1.25c-5.833,6.666 -12.916,8.75 -20.833,7.916c-7.917,-0.833 -15,-4.583 -18.333,-12.916c-2.917,-7.917 -2.917,-15.834 -0.834,-23.75c2.5,-10.417 16.25,-18.334 28.75,-13.334c9.167,4.167 13.334,12.084 10.834,22.917" style="fill:#1f3b71;fill-rule:nonzero;"/><path d="M361.834,361.869c-1.25,-10.416 -5,-14.166 -12.917,-14.583c-9.583,-0.417 -14.583,3.75 -17.083,14.583l30,0Zm5.833,4.584l-35.417,0c-2.083,16.25 7.917,25.416 22.084,21.25c3.333,-0.834 6.666,-2.5 12.083,-4.167c-1.667,2.917 -1.667,5 -2.917,5.417c-16.25,10.416 -35,3.333 -38.333,-15c-1.25,-7.5 -0.417,-14.167 3.333,-20.834c6.25,-11.25 21.667,-14.583 31.667,-7.083c5.833,4.583 7.5,11.25 7.5,20.417" style="fill:#1f3b71;fill-rule:nonzero;"/><path d="M272.667,370.203c-8.75,-1.25 -15.833,0.416 -22.5,5c-2.5,1.666 -3.75,4.166 -2.5,6.666c1.25,2.5 2.917,5.834 5,6.25c5.833,1.25 11.25,0.834 16.25,-3.333c5.417,-4.167 4.583,-8.75 3.75,-14.583m5,23.333c-2.917,-2.5 -4.167,-3.75 -5.417,-5c-4.583,1.667 -8.333,4.167 -12.916,5c-7.084,1.667 -15.417,-2.5 -17.084,-8.75c-1.666,-6.667 2.084,-13.75 9.584,-16.25c3.75,-1.25 7.916,-2.083 11.666,-2.5c8.334,-0.833 10,-1.667 9.584,-7.083c-0.417,-7.084 -5,-12.5 -11.25,-11.667c-3.75,0.417 -7.084,2.083 -10.417,3.75c-1.667,0.417 -2.917,1.667 -5,3.333c0,-2.5 -0.417,-4.583 0,-5.416c3.333,-5 14.167,-7.917 20.417,-6.25c7.5,2.083 11.666,7.083 11.666,15c0.417,10 0,19.583 0,29.583c0.417,1.667 -0.416,2.917 -0.833,6.25" style="fill:#1f3b71;fill-rule:nonzero;"/><path d="M430.584,343.536c1.25,1.25 2.916,2.5 4.583,4.167c1.667,-0.834 3.333,-2.084 5.417,-2.917c14.583,-7.917 27.5,2.5 26.666,15.417c-0.833,8.75 0,17.916 0,27.083c0,2.5 0,5.417 -5,4.167c0,-2.5 -0.416,-5.417 -0.416,-7.917l0,-21.667c0,-9.583 -5,-14.583 -12.5,-14.583c-8.75,0.417 -15,6.25 -15,14.583l0,24.167c0,2.5 0.416,5.417 -4.584,5.833c-2.5,-7.916 -0.833,-15.833 -1.25,-23.75c-0.416,-7.916 0,-16.25 0,-24.166c0.417,0 1.25,0 2.084,-0.417" style="fill:#1f3b71;fill-rule:nonzero;"/><path d="M37.25,351.036c-3.333,-1.25 -5.833,-2.5 -7.916,-2.917c-3.75,-0.416 -7.5,-0.833 -10.834,0.417c-6.25,2.083 -7.083,9.167 -1.666,12.917c1.666,1.25 4.166,2.083 6.25,2.916c2.916,0.834 5.833,1.25 8.333,2.5c11.25,4.584 10.833,17.917 2.5,23.75c-8.333,5.834 -20.833,4.584 -27.5,-4.583c2.5,0.417 4.167,0.417 6.25,0.833c3.75,0.834 7.083,2.084 10.833,2.084c5.417,0.416 9.584,-2.917 10.417,-7.084c0.833,-4.166 -1.25,-7.5 -6.667,-10c-1.666,-0.833 -3.75,-1.25 -5.833,-1.666c-2.917,-1.25 -6.25,-2.084 -8.75,-3.75c-6.25,-4.167 -8.333,-9.584 -3.333,-17.084c5,-7.916 21.666,-8.75 27.916,-2.083c0.417,0 0,1.25 0,3.75" style="fill:#1f3b71;fill-rule:nonzero;"/><path d="M701,350.203c-2.916,-1.25 -4.583,-2.084 -6.25,-2.5c0.417,-0.834 0.417,-1.667 0.834,-1.667c2.083,-0.833 4.166,-1.667 5.833,-2.083c2.917,-5.834 -1.25,-12.5 4.167,-17.917c5.416,5.417 0.416,12.5 4.166,18.75c4.167,0.417 8.75,0.833 15,1.25c-5.416,5 -11.25,1.667 -16.25,4.583l0,30.834c0.417,6.666 2.5,7.916 8.75,6.25c1.667,-0.417 3.334,-1.25 4.584,-1.667c2.916,2.083 2.083,3.75 0,5.417c-9.167,5.833 -19.167,1.25 -20.417,-9.584c-0.417,-5.416 0,-10.833 0,-16.666c-0.417,-5 -0.417,-9.584 -0.417,-15" style="fill:#1f3b71;fill-rule:nonzero;"/><path d="M490.167,350.203c0,10 -0.417,20.416 0,30.833c0.417,7.083 3.75,8.75 10.833,6.667c1.667,-0.417 2.917,-0.834 5,-1.25c-2.083,5.833 -6.666,8.75 -11.666,7.916c-5.417,-0.833 -9.584,-4.166 -9.584,-9.583c-0.416,-5 0,-10.417 0,-15.417l0,-18.75c-2.916,-0.833 -5.416,-1.666 -9.166,-3.333c2.5,-1.25 3.75,-1.667 5,-2.083c1.25,-0.417 2.083,-0.417 3.333,-0.834c2.5,-5.833 -1.25,-12.916 5,-18.333c3.75,5.833 0,12.5 3.333,17.917c4.167,0.416 8.75,1.25 15.417,2.083c-7.083,4.583 -12.5,1.667 -17.5,4.167" style="fill:#1f3b71;fill-rule:nonzero;"/><path d="M619.334,341.869c1.666,3.334 2.5,5 3.75,6.667c10,-8.75 16.666,-9.167 19.583,-1.25c-1.667,0.417 -2.917,1.25 -4.583,1.25c-10.834,0.833 -15.417,5.417 -15.834,16.25l0,21.667c0,2.083 0.417,5 -3.333,5.833c-0.833,-0.833 -1.667,-1.667 -2.083,-2.917c-1.25,-7.916 0,-41.25 2.5,-47.5" style="fill:#1f3b71;fill-rule:nonzero;"/><path d="M320.167,344.786c-1.25,4.167 -4.167,3.75 -6.667,3.75c-8.75,0.833 -13.333,5.417 -13.75,14.583l0,20c0,1.25 0.417,2.917 0,4.167c-0.416,1.667 -1.666,2.917 -2.916,4.583c-0.834,-1.666 -2.5,-3.333 -2.5,-4.583c-0.417,-9.583 0,-19.167 0,-28.75c0,-3.333 -0.417,-6.25 -0.417,-9.583c0,-1.667 0.833,-4.584 1.667,-5c2.5,-1.25 3.333,1.25 4.166,3.333c0,0.417 0.417,0.833 0.834,1.667c8.333,-7.917 12.083,-8.334 19.583,-4.167" style="fill:#1f3b71;fill-rule:nonzero;"/><path d="M413.084,348.119l0,37.084c0,1.666 0,3.333 -0.417,5c-0.417,0.833 -1.667,2.083 -2.5,1.666c-1.25,0 -2.5,-0.833 -3.333,-1.666c-0.417,-0.417 -0.417,-1.667 -0.417,-2.5l0,-39.584c0,-2.5 0.833,-5 3.75,-4.166c1.25,0.416 2.917,2.916 2.917,4.166Z" style="fill:#1f3b71;fill-rule:nonzero;"/><path d="M408.5,331.453c-0.833,-0.834 -3.333,-2.5 -3.75,-4.584c0,-1.25 2.5,-3.75 4.167,-4.166c2.5,-0.834 5,0.833 5.417,3.75c0.416,2.5 -1.667,4.583 -5.834,5" style="fill:#1f3b71;fill-rule:nonzero;"/></svg>