<?xml version="1.0" encoding="utf-8"?>
<!-- Generator: Adobe Illustrator 24.0.0, SVG Export Plug-In . SVG Version: 6.00 Build 0)  -->
<svg version="1.1" id="Livello_1" xmlns="http://www.w3.org/2000/svg" xmlns:xlink="http://www.w3.org/1999/xlink" x="0px" y="0px"
	 viewBox="0 0 133.2 133.2" style="enable-background:new 0 0 133.2 133.2;" xml:space="preserve">
<style type="text/css">
	.st0{clip-path:url(#SVGID_2_);fill:#0082C2;}
	.st1{clip-path:url(#SVGID_2_);fill:#1F3B71;}
	.st2{clip-path:url(#SVGID_2_);fill:#FFFFFF;}
	.st3{fill:#FFFFFF;}
	.st4{clip-path:url(#SVGID_4_);fill:#FFFFFF;}
	.st5{clip-path:url(#SVGID_6_);fill:#FFFFFF;}
	.st6{clip-path:url(#SVGID_8_);fill:#FFFFFF;}
	.st7{clip-path:url(#SVGID_10_);fill:#FFFFFF;}
	.st8{clip-path:url(#SVGID_12_);fill:#FFFFFF;}
	.st9{fill:#1F3B71;}
	.st10{fill:none;stroke:#FFFFFF;stroke-width:0.4;stroke-miterlimit:10;}
	.st11{clip-path:url(#SVGID_14_);fill:#1F3B71;}
	.st12{clip-path:url(#SVGID_14_);fill:none;stroke:#FFFFFF;stroke-width:0.4;stroke-miterlimit:10;}
</style>
<g>
	<defs>
		<rect id="SVGID_1_" width="133.2" height="133.2"/>
	</defs>
	<clipPath id="SVGID_2_">
		<use xlink:href="#SVGID_1_"  style="overflow:visible;"/>
	</clipPath>
	<path class="st0" d="M26.4,0C11.8,0,0,11.8,0,26.4v80.4c0,14.6,11.8,26.4,26.4,26.4h80.4c14.6,0,26.4-11.8,26.4-26.4V26.4
		c0-14.6-11.8-26.4-26.4-26.4H26.4z"/>
	<path class="st1" d="M133.2,106.8V26.4c0-12.9-9.3-23.7-21.6-25.9c1.9,28.7-1.1,117.2-108.5,118.9c4.5,8.3,13.2,13.9,23.3,13.9
		h80.4C121.4,133.2,133.2,121.4,133.2,106.8"/>
	<path class="st2" d="M30,85.1c0,1.6,0.3,2.6,0.8,3.2c0.5,0.5,1.6,0.8,3.2,0.8h2.9c1.5,0,2.6-0.3,3.5-0.8c0.8-0.6,1.5-1.3,1.9-2.2
		c0.5-0.9,0.7-2,0.9-3.2c0.1-1.2,0.2-2.4,0.2-3.7c0-1-0.1-2.1-0.2-3.2c-0.1-1.2-0.4-2.2-0.8-3.2c-0.4-1-1-1.8-1.9-2.5
		c-0.8-0.7-1.9-1-3.3-1H30V85.1z M23.2,100.1c-2.8,0-5-0.8-6.5-2.3c-1.5-1.5-2.3-3.7-2.3-6.5V44.7H30v13.5h11.7
		c3.4,0,6.2,0.5,8.4,1.5c2.2,1,4,2.4,5.3,4.2c1.3,1.8,2.3,4,2.9,6.6c0.6,2.6,0.8,5.5,0.8,8.6c0,3.2-0.3,6.1-0.8,8.6
		c-0.6,2.6-1.5,4.8-2.9,6.6c-1.3,1.8-3.1,3.2-5.3,4.2c-2.2,1-5,1.5-8.4,1.5H23.2z"/>
</g>
<path class="st3" d="M64.1,58.1h15.5v42H64.1V58.1z M64.1,44.7h15.5v10.1H64.1V44.7z"/>
<g>
	<defs>
		<rect id="SVGID_3_" width="133.2" height="133.2"/>
	</defs>
	<clipPath id="SVGID_4_">
		<use xlink:href="#SVGID_3_"  style="overflow:visible;"/>
	</clipPath>
	<path class="st4" d="M104.7,100.1c-2.2,0-4.2-0.3-6.1-0.8c-1.9-0.5-3.6-1.4-5-2.5c-1.4-1.1-2.6-2.6-3.4-4.4c-0.8-1.8-1.3-4-1.3-6.6
		V69.2h-5.9V58.1h5.9V44.7h15.5v13.5h12v11.1h-12v9.5c0,1.6,0.2,3,0.5,4.3c0.3,1.3,0.8,2.4,1.6,3.2c0.7,0.9,1.7,1.6,2.9,2.1
		c1.2,0.5,2.7,0.7,4.5,0.7h2.5v11.1H104.7z"/>
	<path class="st4" d="M14.9,111.5c-0.1,0-0.2,0-0.3-0.1c-0.1-0.1-0.1-0.2-0.1-0.4v-3.3H15v3.1c0,0.1,0,0.1,0,0.2
		c0,0,0.1,0.1,0.2,0.1h2.1v0.4H14.9z"/>
</g>
<polygon class="st3" points="19.4,108.6 19.7,108.8 20.4,107.9 20,107.7 "/>
<g>
	<defs>
		<rect id="SVGID_5_" width="133.2" height="133.2"/>
	</defs>
	<clipPath id="SVGID_6_">
		<use xlink:href="#SVGID_5_"  style="overflow:visible;"/>
	</clipPath>
	<path class="st5" d="M24,110.1h1.7l-0.7-1.7c0,0,0-0.1-0.1-0.1c0,0,0-0.1-0.1-0.1c0,0-0.1,0-0.1,0.1c0,0,0,0.1-0.1,0.1L24,110.1z
		 M24.3,108.1c0.1-0.1,0.1-0.2,0.2-0.3c0.1-0.1,0.2-0.1,0.3-0.1c0.1,0,0.2,0,0.3,0.1c0.1,0.1,0.1,0.2,0.2,0.3l1.4,3.4h-0.5l-0.4-1
		h-2l-0.4,1h-0.5L24.3,108.1z"/>
	<path class="st5" d="M29.9,111.5c-0.1,0-0.2,0-0.3-0.1c-0.1-0.1-0.1-0.2-0.1-0.4v-3.3h0.5v3.1c0,0.1,0,0.1,0,0.2
		c0,0,0.1,0.1,0.2,0.1h2.1v0.4H29.9z"/>
</g>
<polygon class="st3" points="35.5,111.5 35.5,108.2 34,108.2 34,107.8 37.5,107.8 37.5,108.2 36,108.2 36,111.5 "/>
<g>
	<defs>
		<rect id="SVGID_7_" width="133.2" height="133.2"/>
	</defs>
	<clipPath id="SVGID_8_">
		<use xlink:href="#SVGID_7_"  style="overflow:visible;"/>
	</clipPath>
	<path class="st6" d="M40.2,108.3c0-0.2,0-0.3,0.1-0.4c0.1-0.1,0.2-0.1,0.4-0.1h1.7c0.2,0,0.3,0,0.4,0.1s0.2,0.1,0.3,0.2
		c0.1,0.1,0.1,0.2,0.2,0.4c0,0.1,0,0.3,0,0.5c0,0.2,0,0.3,0,0.5c0,0.1-0.1,0.3-0.1,0.4c-0.1,0.1-0.2,0.2-0.3,0.2
		c-0.1,0.1-0.2,0.1-0.4,0.1h-0.6v0l1.5,1.4h-0.7l-1.4-1.3c0,0-0.1-0.1-0.1-0.1c0,0,0-0.1,0-0.1v-0.1c0-0.1,0-0.1,0.1-0.1
		c0,0,0.1-0.1,0.2-0.1h0.9c0.1,0,0.2,0,0.3-0.1c0.1,0,0.1-0.1,0.1-0.2c0-0.1,0.1-0.2,0.1-0.2c0-0.1,0-0.2,0-0.3c0-0.1,0-0.2,0-0.3
		c0-0.1,0-0.2-0.1-0.2c0-0.1-0.1-0.1-0.2-0.1c-0.1,0-0.2,0-0.3,0H41c-0.1,0-0.2,0-0.2,0.1c0,0-0.1,0.1-0.1,0.2v3.1h-0.5V108.3z"/>
	<path class="st6" d="M47.1,110.1h1.7l-0.7-1.7c0,0,0-0.1-0.1-0.1c0,0,0-0.1-0.1-0.1s-0.1,0-0.1,0.1c0,0,0,0.1-0.1,0.1L47.1,110.1z
		 M47.4,108.1c0.1-0.1,0.1-0.2,0.2-0.3c0.1-0.1,0.2-0.1,0.3-0.1c0.1,0,0.2,0,0.3,0.1c0.1,0.1,0.1,0.2,0.2,0.3l1.4,3.4h-0.5l-0.4-1
		h-2l-0.4,1H46L47.4,108.1z"/>
</g>
<rect x="56.1" y="107.8" class="st3" width="0.5" height="3.7"/>
<g>
	<defs>
		<rect id="SVGID_9_" width="133.2" height="133.2"/>
	</defs>
	<clipPath id="SVGID_10_">
		<use xlink:href="#SVGID_9_"  style="overflow:visible;"/>
	</clipPath>
	<path class="st7" d="M63.1,111.1c0,0.2,0,0.3-0.1,0.4c-0.1,0.1-0.2,0.1-0.3,0.1c-0.1,0-0.2,0-0.3-0.1c-0.1,0-0.1-0.1-0.2-0.2
		l-1.8-2.8c0-0.1-0.1-0.1-0.1-0.1c0,0,0,0,0,0s0,0,0,0.1v3h-0.5v-3.3c0-0.1,0-0.2,0-0.2c0-0.1,0.1-0.1,0.1-0.1c0,0,0.1-0.1,0.1-0.1
		c0.1,0,0.1,0,0.2,0c0.1,0,0.2,0,0.3,0.1c0.1,0.1,0.1,0.1,0.2,0.2l1.8,2.8c0,0,0,0,0,0.1c0,0,0,0,0.1,0c0,0,0.1,0,0.1,0
		c0,0,0,0,0-0.1v-3.1h0.5V111.1z"/>
	<path class="st7" d="M66.2,111.5v-3.2c0-0.2,0-0.3,0.1-0.4c0.1-0.1,0.2-0.1,0.4-0.1h2.2v0.4h-2c-0.1,0-0.2,0-0.2,0.1
		c0,0,0,0.1,0,0.2v1h1.7v0.4h-1.7v1.7H66.2z"/>
	<path class="st7" d="M72,109.6c0,0.3,0,0.5,0.1,0.7c0,0.2,0.1,0.3,0.2,0.5c0.1,0.1,0.2,0.2,0.4,0.3c0.2,0,0.4,0.1,0.7,0.1
		c0.3,0,0.5,0,0.7-0.1c0.2-0.1,0.3-0.1,0.4-0.3c0.1-0.1,0.2-0.3,0.2-0.5c0-0.2,0.1-0.4,0.1-0.7c0-0.3,0-0.5-0.1-0.7
		c0-0.2-0.1-0.3-0.2-0.5c-0.1-0.1-0.2-0.2-0.4-0.3c-0.2-0.1-0.4-0.1-0.7-0.1c-0.3,0-0.5,0-0.7,0.1c-0.2,0.1-0.3,0.1-0.4,0.3
		c-0.1,0.1-0.2,0.3-0.2,0.5C72,109.1,72,109.3,72,109.6 M73.3,107.7c0.3,0,0.6,0,0.9,0.1c0.2,0.1,0.4,0.2,0.6,0.3
		c0.1,0.1,0.3,0.3,0.3,0.6c0.1,0.2,0.1,0.5,0.1,0.9c0,0.4,0,0.7-0.1,0.9c-0.1,0.2-0.2,0.4-0.3,0.6c-0.1,0.1-0.3,0.3-0.6,0.3
		c-0.2,0.1-0.5,0.1-0.9,0.1c-0.3,0-0.6,0-0.9-0.1c-0.2-0.1-0.4-0.2-0.6-0.3c-0.1-0.1-0.3-0.3-0.3-0.6c-0.1-0.2-0.1-0.5-0.1-0.9
		c0-0.4,0-0.7,0.1-0.9c0.1-0.2,0.2-0.4,0.3-0.6c0.1-0.1,0.3-0.3,0.6-0.3C72.7,107.7,73,107.7,73.3,107.7"/>
	<path class="st7" d="M78.1,108.3c0-0.2,0-0.3,0.1-0.4c0.1-0.1,0.2-0.1,0.4-0.1h1.7c0.2,0,0.3,0,0.4,0.1c0.1,0.1,0.2,0.1,0.3,0.2
		c0.1,0.1,0.1,0.2,0.2,0.4c0,0.1,0,0.3,0,0.5c0,0.2,0,0.3,0,0.5c0,0.1-0.1,0.3-0.1,0.4c-0.1,0.1-0.2,0.2-0.3,0.2
		c-0.1,0.1-0.2,0.1-0.4,0.1h-0.6v0l1.5,1.4h-0.7l-1.4-1.3c0,0-0.1-0.1-0.1-0.1c0,0,0-0.1,0-0.1v-0.1c0-0.1,0-0.1,0.1-0.1
		c0,0,0.1-0.1,0.2-0.1h0.9c0.1,0,0.2,0,0.3-0.1c0.1,0,0.1-0.1,0.1-0.2c0-0.1,0.1-0.2,0.1-0.2s0-0.2,0-0.3c0-0.1,0-0.2,0-0.3
		c0-0.1,0-0.2-0.1-0.2c0-0.1-0.1-0.1-0.2-0.1c-0.1,0-0.2,0-0.3,0h-1.3c-0.1,0-0.2,0-0.2,0.1c0,0-0.1,0.1-0.1,0.2v3.1h-0.5V108.3z"/>
	<path class="st7" d="M87,111.1c-0.1,0.1-0.1,0.2-0.2,0.3c-0.1,0.1-0.2,0.1-0.3,0.1c-0.1,0-0.2,0-0.3-0.1c-0.1-0.1-0.1-0.2-0.2-0.3
		l-1.1-2.8c0,0,0-0.1,0-0.1c0,0,0,0-0.1,0c0,0,0,0,0,0c0,0,0,0,0,0.1l0,3.2h-0.5v-3.3c0-0.1,0-0.2,0.1-0.3c0.1-0.1,0.2-0.1,0.3-0.1
		c0.1,0,0.1,0,0.2,0c0.1,0,0.1,0.1,0.1,0.1c0,0,0.1,0.1,0.1,0.1c0,0.1,0.1,0.1,0.1,0.2l1.1,2.8c0,0,0,0.1,0,0.1c0,0,0,0,0.1,0
		c0,0,0,0,0.1,0c0,0,0-0.1,0-0.1l1.1-2.8c0-0.1,0.1-0.2,0.2-0.3c0.1-0.1,0.2-0.1,0.3-0.1c0.1,0,0.3,0,0.4,0.1
		c0.1,0.1,0.1,0.2,0.1,0.3v3.3h-0.5l0-3.2c0,0,0-0.1,0-0.1c0,0,0,0,0,0c0,0,0,0-0.1,0c0,0,0,0.1,0,0.1L87,111.1z"/>
	<path class="st7" d="M92.5,110.1h1.7l-0.7-1.7c0,0,0-0.1-0.1-0.1c0,0,0-0.1-0.1-0.1c0,0-0.1,0-0.1,0.1c0,0,0,0.1-0.1,0.1
		L92.5,110.1z M92.9,108.1c0.1-0.1,0.1-0.2,0.2-0.3c0.1-0.1,0.2-0.1,0.3-0.1c0.1,0,0.2,0,0.3,0.1c0.1,0.1,0.1,0.2,0.2,0.3l1.4,3.4
		h-0.5l-0.4-1h-2l-0.4,1h-0.5L92.9,108.1z"/>
</g>
<polygon class="st3" points="98.6,111.5 98.6,108.2 97.1,108.2 97.1,107.8 100.6,107.8 100.6,108.2 99.1,108.2 99.1,111.5 "/>
<rect x="103.4" y="107.8" class="st3" width="0.5" height="3.7"/>
<g>
	<defs>
		<rect id="SVGID_11_" width="133.2" height="133.2"/>
	</defs>
	<clipPath id="SVGID_12_">
		<use xlink:href="#SVGID_11_"  style="overflow:visible;"/>
	</clipPath>
	<path class="st8" d="M108.4,111.5c-0.3,0-0.6,0-0.8-0.1c-0.2-0.1-0.4-0.2-0.5-0.4c-0.1-0.2-0.2-0.4-0.2-0.6c0-0.2-0.1-0.5-0.1-0.7
		c0-0.3,0-0.5,0.1-0.7c0-0.2,0.1-0.4,0.2-0.6c0.1-0.2,0.3-0.3,0.5-0.4s0.5-0.1,0.8-0.1h1.4v0.4h-1.3c-0.2,0-0.4,0-0.6,0.1
		c-0.2,0.1-0.3,0.1-0.4,0.3c-0.1,0.1-0.2,0.3-0.2,0.5c0,0.2-0.1,0.4-0.1,0.7s0,0.5,0.1,0.7c0,0.2,0.1,0.3,0.2,0.5
		c0.1,0.1,0.2,0.2,0.4,0.3c0.2,0.1,0.3,0.1,0.6,0.1h1.4v0.4H108.4z"/>
	<path class="st8" d="M113.6,110.1h1.7l-0.7-1.7c0,0,0-0.1-0.1-0.1c0,0,0-0.1-0.1-0.1c0,0-0.1,0-0.1,0.1c0,0,0,0.1-0.1,0.1
		L113.6,110.1z M114,108.1c0.1-0.1,0.1-0.2,0.2-0.3c0.1-0.1,0.2-0.1,0.3-0.1c0.1,0,0.2,0,0.3,0.1c0.1,0.1,0.1,0.2,0.2,0.3l1.4,3.4
		h-0.5l-0.4-1h-2l-0.4,1h-0.5L114,108.1z"/>
</g>
<rect x="14.5" y="14.9" class="st9" width="7.1" height="25.3"/>
<rect x="14.5" y="14.9" class="st10" width="7.1" height="25.3"/>
<path class="st9" d="M24.3,21.1h7.1v19.1h-7.1V21.1z M24.3,14.9h7.1v4.6h-7.1V14.9z"/>
<path class="st10" d="M24.3,21.1h7.1v19.1h-7.1V21.1z M24.3,14.9h7.1v4.6h-7.1V14.9z"/>
<g>
	<defs>
		<rect id="SVGID_13_" width="133.2" height="133.2"/>
	</defs>
	<clipPath id="SVGID_14_">
		<use xlink:href="#SVGID_13_"  style="overflow:visible;"/>
	</clipPath>
	<path class="st11" d="M41.2,33.4c0,0.7,0.1,1.2,0.4,1.4c0.2,0.2,0.7,0.4,1.4,0.4h1.3c0.7,0,1.2-0.1,1.6-0.4c0.4-0.3,0.7-0.6,0.9-1
		c0.2-0.4,0.3-0.9,0.4-1.4c0.1-0.5,0.1-1.1,0.1-1.7c0-0.5,0-1-0.1-1.5c-0.1-0.5-0.2-1-0.4-1.5c-0.2-0.4-0.5-0.8-0.8-1.1
		c-0.4-0.3-0.9-0.5-1.5-0.5h-3.2V33.4z M38.1,40.2c-1.3,0-2.3-0.3-2.9-1c-0.7-0.7-1-1.7-1-2.9V14.9h7.1v6.1h5.3
		c1.5,0,2.8,0.2,3.8,0.7c1,0.5,1.8,1.1,2.4,1.9c0.6,0.8,1,1.8,1.3,3c0.3,1.2,0.4,2.5,0.4,3.9s-0.1,2.8-0.4,3.9
		c-0.3,1.2-0.7,2.2-1.3,3c-0.6,0.8-1.4,1.5-2.4,1.9c-1,0.5-2.3,0.7-3.8,0.7H38.1z"/>
	<path class="st12" d="M41.2,33.4c0,0.7,0.1,1.2,0.4,1.4c0.2,0.2,0.7,0.4,1.4,0.4h1.3c0.7,0,1.2-0.1,1.6-0.4c0.4-0.3,0.7-0.6,0.9-1
		c0.2-0.4,0.3-0.9,0.4-1.4c0.1-0.5,0.1-1.1,0.1-1.7c0-0.5,0-1-0.1-1.5c-0.1-0.5-0.2-1-0.4-1.5c-0.2-0.4-0.5-0.8-0.8-1.1
		c-0.4-0.3-0.9-0.5-1.5-0.5h-3.2V33.4z M38.1,40.2c-1.3,0-2.3-0.3-2.9-1c-0.7-0.7-1-1.7-1-2.9V14.9h7.1v6.1h5.3
		c1.5,0,2.8,0.2,3.8,0.7c1,0.5,1.8,1.1,2.4,1.9c0.6,0.8,1,1.8,1.3,3c0.3,1.2,0.4,2.5,0.4,3.9s-0.1,2.8-0.4,3.9
		c-0.3,1.2-0.7,2.2-1.3,3c-0.6,0.8-1.4,1.5-2.4,1.9c-1,0.5-2.3,0.7-3.8,0.7H38.1z"/>
	<path class="st11" d="M68.5,28.5c0.3,0,0.5,0,0.7-0.1c0.2-0.1,0.3-0.2,0.3-0.3c0.1-0.1,0.1-0.3,0.1-0.4c0-0.1,0-0.2,0-0.3
		c0-0.3-0.1-0.6-0.3-0.8c-0.2-0.2-0.5-0.4-0.8-0.5c-0.3-0.1-0.7-0.2-1-0.2c-0.4,0-0.7,0-1,0c-0.5,0-0.9,0-1.3,0.1
		c-0.4,0.1-0.7,0.2-1,0.4c-0.3,0.2-0.5,0.4-0.7,0.8c-0.2,0.3-0.3,0.8-0.3,1.4H68.5z M63.6,40.2c-1.5,0-2.8-0.1-3.8-0.4
		c-1-0.3-1.7-0.8-2.3-1.5c-0.5-0.7-0.9-1.7-1.1-2.9c-0.2-1.3-0.3-2.9-0.3-4.9c0-2.2,0.1-3.9,0.4-5.2c0.3-1.3,0.8-2.3,1.5-2.9
		c0.7-0.7,1.8-1.1,3.1-1.3c1.3-0.2,3.1-0.3,5.3-0.3c1.8,0,3.4,0.1,4.6,0.2c1.3,0.1,2.3,0.5,3.2,1c0.8,0.5,1.4,1.3,1.8,2.3
		c0.4,1,0.6,2.5,0.6,4.3c0,0.6,0,1.1-0.1,1.6c-0.1,0.5-0.2,1-0.5,1.4c-0.2,0.4-0.5,0.7-0.9,1c-0.4,0.2-0.9,0.4-1.5,0.4H63.3
		c0,0.9,0.3,1.5,0.8,1.9c0.5,0.3,1.4,0.5,2.7,0.5h9.3v4.9H63.6z"/>
	<path class="st12" d="M68.5,28.5c0.3,0,0.5,0,0.7-0.1c0.2-0.1,0.3-0.2,0.3-0.3c0.1-0.1,0.1-0.3,0.1-0.4c0-0.1,0-0.2,0-0.3
		c0-0.3-0.1-0.6-0.3-0.8c-0.2-0.2-0.5-0.4-0.8-0.5c-0.3-0.1-0.7-0.2-1-0.2c-0.4,0-0.7,0-1,0c-0.5,0-0.9,0-1.3,0.1
		c-0.4,0.1-0.7,0.2-1,0.4c-0.3,0.2-0.5,0.4-0.7,0.8c-0.2,0.3-0.3,0.8-0.3,1.4H68.5z M63.6,40.2c-1.5,0-2.8-0.1-3.8-0.4
		c-1-0.3-1.7-0.8-2.3-1.5c-0.5-0.7-0.9-1.7-1.1-2.9c-0.2-1.3-0.3-2.9-0.3-4.9c0-2.2,0.1-3.9,0.4-5.2c0.3-1.3,0.8-2.3,1.5-2.9
		c0.7-0.7,1.8-1.1,3.1-1.3c1.3-0.2,3.1-0.3,5.3-0.3c1.8,0,3.4,0.1,4.6,0.2c1.3,0.1,2.3,0.5,3.2,1c0.8,0.5,1.4,1.3,1.8,2.3
		c0.4,1,0.6,2.5,0.6,4.3c0,0.6,0,1.1-0.1,1.6c-0.1,0.5-0.2,1-0.5,1.4c-0.2,0.4-0.5,0.7-0.9,1c-0.4,0.2-0.9,0.4-1.5,0.4H63.3
		c0,0.9,0.3,1.5,0.8,1.9c0.5,0.3,1.4,0.5,2.7,0.5h9.3v4.9H63.6z"/>
	<path class="st11" d="M79,29c0-1.5,0.2-2.8,0.6-3.8c0.4-1,1-1.8,1.8-2.4c0.8-0.6,1.8-1,2.9-1.3c1.2-0.3,2.5-0.4,4.1-0.4h4.7v5h-2.6
		c-1.6,0-2.8,0.4-3.4,1.3c-0.6,0.9-0.9,2.1-0.9,3.8v9.1H79V29z"/>
	<path class="st12" d="M79,29c0-1.5,0.2-2.8,0.6-3.8c0.4-1,1-1.8,1.8-2.4c0.8-0.6,1.8-1,2.9-1.3c1.2-0.3,2.5-0.4,4.1-0.4h4.7v5h-2.6
		c-1.6,0-2.8,0.4-3.4,1.3c-0.6,0.9-0.9,2.1-0.9,3.8v9.1H79V29z"/>
	<path class="st11" d="M100.9,30.7c0,0.7,0,1.4,0.1,2c0.1,0.6,0.3,1.1,0.6,1.5c0.3,0.4,0.7,0.7,1.2,1c0.5,0.2,1.2,0.3,2,0.3
		c0.8,0,1.5-0.1,2-0.3c0.5-0.2,0.9-0.5,1.2-1c0.3-0.4,0.5-0.9,0.6-1.5c0.1-0.6,0.1-1.2,0.1-2c0-0.7,0-1.4-0.1-2
		c-0.1-0.6-0.3-1.1-0.6-1.5c-0.3-0.4-0.7-0.7-1.2-1c-0.5-0.2-1.2-0.3-2-0.3c-0.8,0-1.5,0.1-2,0.3c-0.5,0.2-0.9,0.5-1.2,1
		c-0.3,0.4-0.5,0.9-0.6,1.5C101,29.3,100.9,29.9,100.9,30.7 M104.8,20.9c2,0,3.7,0.1,5.1,0.4c1.4,0.3,2.6,0.8,3.4,1.5
		c0.9,0.7,1.5,1.7,1.9,3c0.4,1.3,0.6,2.9,0.6,4.9c0,2-0.2,3.6-0.6,4.9c-0.4,1.3-1.1,2.3-1.9,3c-0.9,0.7-2,1.2-3.4,1.5
		c-1.4,0.3-3.1,0.4-5.1,0.4c-2,0-3.7-0.1-5.1-0.4c-1.4-0.3-2.5-0.8-3.4-1.5c-0.9-0.7-1.5-1.7-1.9-3c-0.4-1.3-0.6-2.9-0.6-4.9
		c0-2,0.2-3.6,0.6-4.9c0.4-1.3,1.1-2.3,1.9-3c0.9-0.7,2-1.2,3.4-1.5C101.1,21,102.8,20.9,104.8,20.9"/>
	<path class="st12" d="M100.9,30.7c0,0.7,0,1.4,0.1,2c0.1,0.6,0.3,1.1,0.6,1.5c0.3,0.4,0.7,0.7,1.2,1c0.5,0.2,1.2,0.3,2,0.3
		c0.8,0,1.5-0.1,2-0.3c0.5-0.2,0.9-0.5,1.2-1c0.3-0.4,0.5-0.9,0.6-1.5c0.1-0.6,0.1-1.2,0.1-2c0-0.7,0-1.4-0.1-2
		c-0.1-0.6-0.3-1.1-0.6-1.5c-0.3-0.4-0.7-0.7-1.2-1c-0.5-0.2-1.2-0.3-2-0.3c-0.8,0-1.5,0.1-2,0.3c-0.5,0.2-0.9,0.5-1.2,1
		c-0.3,0.4-0.5,0.9-0.6,1.5C101,29.3,100.9,29.9,100.9,30.7z M104.8,20.9c2,0,3.7,0.1,5.1,0.4c1.4,0.3,2.6,0.8,3.4,1.5
		c0.9,0.7,1.5,1.7,1.9,3c0.4,1.3,0.6,2.9,0.6,4.9c0,2-0.2,3.6-0.6,4.9c-0.4,1.3-1.1,2.3-1.9,3c-0.9,0.7-2,1.2-3.4,1.5
		c-1.4,0.3-3.1,0.4-5.1,0.4c-2,0-3.7-0.1-5.1-0.4c-1.4-0.3-2.5-0.8-3.4-1.5c-0.9-0.7-1.5-1.7-1.9-3c-0.4-1.3-0.6-2.9-0.6-4.9
		c0-2,0.2-3.6,0.6-4.9c0.4-1.3,1.1-2.3,1.9-3c0.9-0.7,2-1.2,3.4-1.5C101.1,21,102.8,20.9,104.8,20.9z"/>
</g>
</svg>
