<?xml version="1.0" encoding="UTF-8" standalone="no"?><!DOCTYPE svg PUBLIC "-//W3C//DTD SVG 1.1//EN" "http://www.w3.org/Graphics/SVG/1.1/DTD/svg11.dtd"><svg width="100%" height="100%" viewBox="0 0 1105 516" version="1.1" xmlns="http://www.w3.org/2000/svg" xmlns:xlink="http://www.w3.org/1999/xlink" xml:space="preserve" xmlns:serif="http://www.serif.com/" style="fill-rule:evenodd;clip-rule:evenodd;stroke-linejoin:round;stroke-miterlimit:2;"><path d="M229.995,239.75l-137.5,-84.583l-0,172.083l137.5,85l-0,-172.5Z" style="fill:#1f3b71;fill-rule:nonzero;"/><path d="M229.162,423.5l-73.75,-45.416l-0,92.5l73.75,45.416l-0,-92.5Z" style="fill:#1f3b71;fill-rule:nonzero;"/><path d="M146.245,373.084l-41.667,-25.834l-0,52.084l41.667,25.833l-0,-52.083Z" style="fill:#1f3b71;fill-rule:nonzero;"/><path d="M150.412,434.334l-22.917,-14.167l-0,28.75l22.917,14.167l-0,-28.75Z" style="fill:#1f3b71;fill-rule:nonzero;"/><path d="M252.495,239.75l137.5,-84.583l-0,172.083l-137.5,85l-0,-172.5Z" style="fill:#1f3b71;fill-rule:nonzero;"/><path d="M400.412,151.417l70.833,-43.75l-0,89.167l-70.833,43.75l-0,-89.167Z" style="fill:#1f3b71;fill-rule:nonzero;"/><path d="M400.412,252.667l44.166,-27.5l-0,55.417l-44.166,27.5l-0,-55.417Z" style="fill:#1f3b71;fill-rule:nonzero;"/><path d="M448.745,216.834l20.417,-12.5l-0,25.833l-20.417,12.5l-0,-25.833Z" style="fill:#1f3b71;fill-rule:nonzero;"/><path d="M92.495,126.834l148.75,-92.084l148.75,92.084l-148.75,91.666l-148.75,-91.666Z" style="fill:#1f3b71;fill-rule:nonzero;"/><path d="M0.412,66.417l82.5,-50.833l82.916,50.833l-82.916,51.25l-82.5,-51.25Z" style="fill:#1f3b71;fill-rule:nonzero;"/><path d="M134.578,34.75l40,-25l40.417,25l-40.417,25l-40,-25Z" style="fill:#1f3b71;fill-rule:nonzero;"/><path d="M96.662,18.084l28.75,-17.917l28.75,17.917l-28.75,17.916l-28.75,-17.916Z" style="fill:#1f3b71;fill-rule:nonzero;"/><path d="M112.078,325.167l0.834,-19.167l45.833,-22.5c0.417,-0.416 1.667,-0.833 3.75,-1.666c1.667,-0.834 2.917,-1.25 3.75,-1.667c0.417,-0.417 1.667,-0.833 3.333,-1.667c1.667,-0.833 2.5,-1.666 3.334,-2.083c0.416,-0.417 1.25,-1.667 2.5,-2.5c0.833,-1.25 1.666,-2.083 2.083,-3.333c0.417,-1.25 0.833,-2.5 1.25,-4.167c0.417,-1.667 0.833,-3.333 0.833,-5c0.417,-5.417 -1.25,-10.833 -4.166,-16.25c-2.917,-5.417 -7.5,-10 -13.75,-13.75c-3.75,-2.083 -6.667,-3.333 -9.167,-3.333c-2.5,0 -4.583,0.416 -6.25,2.083c-1.25,1.667 -2.5,3.75 -3.333,5.833c-0.834,2.5 -1.25,5 -1.25,8.334l-0,4.583l-25,-14.583l-0,-4.584c0.416,-12.5 4.583,-20 11.666,-22.916c7.5,-2.917 18.75,0 33.75,8.75c14.167,8.333 25,17.5 32.5,27.916c7.084,10.417 10.834,21.25 10.417,32.084c-0,4.166 -0.833,7.5 -2.083,10.833c-1.25,2.917 -2.917,5.417 -5,7.5c-2.084,2.083 -4.167,3.75 -5.834,5c-1.666,1.25 -4.166,2.5 -7.5,4.167l-45.833,17.5l62.917,35.833l-0.834,19.167l-88.75,-50.417Z" style="fill:#ebeced;fill-rule:nonzero;"/><path d="M320.412,358.5c-16.25,9.584 -28.334,13.75 -37.084,12.084c-8.333,-1.667 -12.916,-8.334 -12.916,-20.417l-0,-5l28.333,-16.667c-0,3.334 -0,5.834 0.417,7.917c0.416,2.083 0.833,4.167 1.666,5.833c0.834,2.084 2.084,2.917 3.334,3.75c1.666,0.417 3.75,0.417 6.25,0c2.5,-0.833 5.833,-2.083 9.583,-4.166c3.75,-2.084 7.083,-4.584 9.583,-7.084c2.5,-2.5 4.584,-5 6.25,-7.083c1.667,-2.5 2.5,-5 3.334,-7.917c0.833,-2.916 1.25,-5.416 1.666,-7.916c0.417,-2.5 0.417,-5.417 0.417,-8.334c-0,-8.333 -2.083,-13.333 -6.667,-15.416c-4.583,-1.667 -11.666,0 -22.083,6.25l-0,-20.834c10.417,-6.25 17.917,-12.083 22.083,-17.5c4.167,-5.833 6.667,-12.083 6.667,-20c-0,-6.666 -1.667,-11.25 -4.583,-12.916c-2.917,-1.667 -8.75,0 -16.667,4.583c-3.75,2.083 -7.083,4.583 -9.583,7.083c-2.5,2.5 -4.584,5 -6.25,7.084c-1.667,2.5 -2.5,5 -3.334,7.916c-0.833,2.917 -1.25,5.417 -1.666,7.917c-0.417,2.5 -0.417,5.417 -0.417,8.333l-28.333,16.667l-0,-5c-0,-11.667 4.166,-23.75 12.916,-35.417c8.75,-11.666 20.834,-22.5 37.084,-31.666c16.25,-9.584 28.75,-13.75 37.083,-12.084c8.333,1.667 12.917,8.334 12.917,20.417c-0,8.333 -2.5,16.25 -7.5,24.583c-5,8.334 -12.084,15.834 -20.834,23.334c9.167,-3.334 16.25,-3.334 21.25,0c5,3.333 7.084,9.583 7.084,19.166c-0,13.75 -4.167,26.667 -12.084,38.75c-7.916,12.5 -20.833,23.334 -37.916,33.75" style="fill:#ebeced;fill-rule:nonzero;"/><rect x="229.995" y="61" width="22.917" height="125.833" style="fill:#ebeced;"/><path d="M526.662,244.334l-22.5,-88.75l12.083,0l10.417,45c2.5,11.25 5,22.083 6.666,30.833l0.417,0c1.25,-8.75 4.167,-19.583 7.083,-30.833l11.667,-45l12.083,0l10.834,45c2.5,10.416 5,21.25 6.25,30.416l0.416,0c1.667,-9.583 4.167,-19.583 7.084,-30.833l11.666,-45l11.667,0l-25,88.75l-12.083,0l-11.25,-46.25c-2.917,-11.25 -4.584,-20 -5.834,-29.167l-0.416,0c-1.667,8.75 -3.75,17.5 -6.667,29.167l-12.5,46.25l-12.083,0l-0,0.417Z" style="fill:#1f3b71;fill-rule:nonzero;"/><path d="M659.578,206.417c-0,-7.5 -2.916,-18.75 -16.25,-18.75c-11.666,0 -16.666,10.833 -17.916,18.75l34.166,0Zm-34.166,7.917c0.416,15.833 10.416,22.083 22.083,22.083c8.333,0 13.333,-1.25 17.5,-3.333l2.083,8.333c-4.166,1.667 -11.25,3.75 -21.25,3.75c-19.583,0 -31.25,-12.917 -31.25,-32.083c-0,-19.167 11.25,-34.584 30,-34.584c20.834,0 26.25,18.334 26.25,30c-0,2.5 -0.416,4.167 -0.416,5.417l-45,0l-0,0.417Z" style="fill:#1f3b71;fill-rule:nonzero;"/><path d="M696.662,218.917c-0,1.25 0.416,2.917 0.416,4.167c2.084,7.916 9.167,13.75 17.5,13.75c12.084,0 19.167,-10 19.167,-24.584c-0,-12.916 -6.667,-23.75 -19.167,-23.75c-7.916,0 -15.416,5.417 -17.5,14.167c-0.416,1.25 -0.833,2.917 -0.833,4.583l-0,11.667l0.417,0Zm-12.084,25.417c0.417,-4.167 0.417,-10.834 0.417,-16.667l-0,-77.083l11.667,0l-0,40l0.416,0c4.167,-7.084 11.667,-11.667 21.667,-11.667c15.833,0 27.083,13.333 27.083,32.5c-0,22.917 -14.166,34.167 -28.75,34.167c-9.166,0 -16.666,-3.75 -21.25,-12.084l-0.416,0l-0.417,10.417l-10.417,0l-0,0.417Z" style="fill:#1f3b71;fill-rule:nonzero;"/><path d="M772.078,235.584c2.084,0.416 5.417,0.416 9.584,0.416c11.666,0 22.916,-4.166 22.916,-17.083c-0,-12.083 -10.416,-17.083 -22.916,-17.083l-9.584,0l-0,33.75Zm-0,-42.5l10.417,0c12.083,0 19.167,-6.25 19.167,-15c-0,-10.417 -7.917,-14.584 -19.584,-14.584c-5.416,0 -8.333,0.417 -10,0.834l-0,28.75Zm-11.666,-36.25c5,-1.25 12.916,-1.667 20.833,-1.667c11.667,0 18.75,2.083 24.583,6.25c4.584,3.333 7.5,8.75 7.5,15.833c-0,8.75 -5.833,16.25 -15,19.584l-0,0.416c8.334,2.084 18.334,9.167 18.334,22.084c-0,7.5 -2.917,13.333 -7.5,17.916c-6.25,5.834 -16.25,8.334 -30.834,8.334c-7.916,0 -14.166,-0.417 -17.916,-1.25l-0,-87.5Z" style="fill:#1f3b71;fill-rule:nonzero;"/><path d="M831.662,200.584c-0,-7.5 -0,-14.167 -0.417,-20l10,0l0.417,12.5l0.416,0c2.917,-8.75 10,-14.167 17.5,-14.167c1.25,0 2.084,0 3.334,0.417l-0,10.833c-1.25,-0.417 -2.5,-0.417 -3.75,-0.417c-8.334,0 -14.167,6.25 -15.417,15c-0.417,1.667 -0.417,3.334 -0.417,5.417l-0,34.167l-11.666,0l-0,-43.75Z" style="fill:#1f3b71;fill-rule:nonzero;"/><path d="M880.412,212.667c-0,14.167 7.916,24.583 19.583,24.583c11.25,0 19.583,-10.416 19.583,-24.583c-0,-10.833 -5.416,-24.583 -19.166,-24.583c-14.167,-0.417 -20,12.5 -20,24.583m50.833,-0.833c-0,23.75 -16.25,33.75 -31.667,33.75c-17.083,0 -30.416,-12.5 -30.416,-32.917c-0,-21.25 14.166,-33.75 31.666,-33.75c17.917,0 30.417,13.333 30.417,32.917" style="fill:#1f3b71;fill-rule:nonzero;"/><path d="M957.078,209.75c1.667,-2.083 4.167,-5 5.834,-7.083l18.75,-22.083l14.166,0l-24.583,26.25l27.917,37.5l-14.167,0l-22.083,-30.417l-5.834,6.667l-0,24.166l-11.666,0l-0,-93.75l11.666,0l-0,58.75Z" style="fill:#1f3b71;fill-rule:nonzero;"/><path d="M1047.91,206.417c-0,-7.5 -2.917,-18.75 -16.25,-18.75c-11.667,0 -16.667,10.833 -17.917,18.75l34.167,0Zm-33.75,7.917c0.416,15.833 10.416,22.083 22.083,22.083c8.333,0 13.333,-1.25 17.5,-3.333l2.083,8.333c-4.166,1.667 -11.25,3.75 -21.25,3.75c-19.583,0 -31.25,-12.917 -31.25,-32.083c-0,-19.167 11.25,-34.584 30,-34.584c20.834,0 26.25,18.334 26.25,30c-0,2.5 -0.416,4.167 -0.416,5.417l-45,0l-0,0.417Z" style="fill:#1f3b71;fill-rule:nonzero;"/><path d="M1073.75,200.584c0,-7.5 0,-14.167 -0.417,-20l10,0l0.417,12.5l0.417,0c2.916,-8.75 10,-14.167 17.5,-14.167c1.25,0 2.083,0 3.333,0.417l0,10.833c-1.25,-0.417 -2.5,-0.417 -3.75,-0.417c-8.333,0 -14.167,6.25 -15.417,15c-0.416,1.667 -0.416,3.334 -0.416,5.417l0,34.167l-11.667,0l0,-43.75Z" style="fill:#1f3b71;fill-rule:nonzero;"/></svg>