<?xml version="1.0" encoding="UTF-8" standalone="no"?><!DOCTYPE svg PUBLIC "-//W3C//DTD SVG 1.1//EN" "http://www.w3.org/Graphics/SVG/1.1/DTD/svg11.dtd"><svg width="100%" height="100%" viewBox="0 0 860 1120" version="1.1" xmlns="http://www.w3.org/2000/svg" xmlns:xlink="http://www.w3.org/1999/xlink" xml:space="preserve" xmlns:serif="http://www.serif.com/" style="fill-rule:evenodd;clip-rule:evenodd;stroke-linejoin:round;stroke-miterlimit:2;"><g><path d="M614.587,0.837c3.333,3.333 7.916,3.333 12.083,5.416c20.833,11.25 32.5,34.584 28.333,57.917c-10.416,59.167 -21.25,117.917 -32.083,177.083c-11.25,61.667 -22.083,123.75 -33.333,185.417c-3.75,20.833 -7.5,41.25 -11.667,62.083c-5,25 -25.833,42.5 -51.667,42.5l-226.25,0c-9.583,0 -17.083,2.5 -24.166,8.75c-17.5,15.834 -35.834,30.834 -53.75,46.25c-3.334,2.917 -6.667,6.667 -11.667,4.167c-5.417,-2.917 -4.583,-7.917 -3.75,-12.917c11.25,-61.666 22.5,-123.75 33.75,-185.416c10.417,-56.667 20.417,-113.75 30.833,-170.417c5,-26.667 25.417,-42.917 52.917,-42.917l142.917,0c17.5,0 23.75,7.5 20.833,24.584c-1.667,9.583 -3.75,19.583 -5.833,29.166c-2.5,11.25 -7.917,15.417 -19.584,15.417l-103.333,0c-17.083,0 -22.917,4.583 -25.833,21.667c-10,55.416 -20.417,111.25 -30.417,166.666c-2.917,15 4.583,25 20,26.25c10,0.417 20,0 29.583,0l137.084,0c18.333,0 24.166,-4.583 27.083,-22.5c17.5,-97.083 35,-193.75 52.5,-290.833c1.25,-6.25 2.5,-12.5 3.75,-18.75c2.5,-12.5 -2.917,-20.417 -15.833,-22.5c-8.75,-1.667 -17.917,-0.417 -26.667,-0.833c-15.833,0 -23.75,-8.75 -21.25,-24.584c4.167,-22.5 9.167,-45 13.75,-67.5c1.25,-6.25 7.083,-8.75 9.167,-14.166l82.5,0Z" style="fill:#1f3b71;fill-rule:nonzero;"/><path d="M91.67,872.503c2.5,-10.416 7.917,-18.333 12.917,-26.25c8.75,-13.333 19.166,-25.416 27.916,-38.75c9.584,-15 14.167,-31.25 11.25,-49.166c-0.416,-2.5 0,-5 -1.25,-7.917c-5,-10 -12.916,-9.167 -21.25,-7.917c-19.583,2.917 -39.166,6.667 -58.333,10c-4.167,0.834 -7.917,2.084 -11.667,4.167c-4.583,3.333 -6.666,7.5 -5.833,13.333c0.833,5.834 4.167,10 10.417,11.25c3.333,0.834 7.083,0.834 10.416,0c12.5,-2.083 25,-4.166 37.917,-6.25c3.333,-0.416 7.083,-3.75 9.583,0c2.084,2.917 -0.416,6.667 -1.666,10c-2.084,5 -5.417,9.584 -8.75,13.75c-4.167,5.417 -8.334,10.417 -12.5,15.834c-8.75,10.833 -17.084,22.5 -22.917,35c-5.833,12.5 -9.167,25 -7.083,38.75c1.666,12.5 6.25,15.833 18.333,15.416c10.833,-0.416 21.667,-2.5 32.083,-4.583c15,-2.917 30.417,-3.75 45,-8.75c8.334,-2.917 11.25,-7.5 10.417,-15c-0.833,-6.667 -7.5,-11.667 -14.583,-12.083c-6.25,-0.417 -12.5,1.25 -19.167,2.083c-13.333,2.5 -27.083,5 -41.25,7.083m118.333,20.834c-0,5 -4.166,4.166 -6.666,4.583c-35.417,5.833 -71.25,11.25 -106.667,16.667c-18.75,2.916 -37.083,5.833 -55.833,8.75c-10.417,1.666 -10.417,1.666 -12.084,-8.334c-7.916,-47.5 -15.416,-95 -23.333,-142.5c-0.833,-5.833 -0,-12.083 -4.583,-16.666l-0,-7.5c3.75,0 7.916,0.416 11.666,-0.417c18.75,-2.917 37.5,-6.25 56.25,-9.167c30.834,-4.583 62.084,-8.75 92.917,-14.166c7.5,-1.25 16.25,0 22.083,-7.084c-0,12.917 3.334,25.834 5,38.75c3.75,28.334 8.334,56.667 12.5,84.584c2.917,17.916 4.167,35.416 8.75,52.5" style="fill:#1f3b71;fill-rule:nonzero;"/><path d="M492.087,1120c-5.834,-4.166 -13.334,-2.083 -20,-3.75c-21.25,-5 -36.25,-20 -39.167,-41.666c-0.833,-4.584 0,-6.667 5.833,-6.667c10,0 20.417,-0.833 30.417,-1.667c4.167,-0.416 6.25,1.25 7.083,5.417c3.334,15.417 15.417,19.583 28.75,17.917c6.667,-0.834 12.5,-6.667 12.917,-12.5c0,-6.25 -3.333,-10.417 -9.167,-13.334c-7.5,-3.333 -15.833,-4.583 -23.75,-6.666c-8.75,-2.5 -17.083,-5 -25,-9.167c-15,-7.5 -23.333,-19.583 -22.5,-36.667c1.25,-17.083 11.25,-27.916 26.25,-34.583c13.75,-5.833 28.75,-5.417 43.334,-4.583c5.833,0.416 11.25,1.25 17.083,2.5c20,5.416 30,18.75 32.5,39.166c-12.5,2.084 -25.417,2.5 -37.917,2.917c-4.166,-0 -4.583,-2.5 -5.833,-5c-5,-10.833 -15.417,-15.833 -26.667,-12.083c-4.166,1.25 -7.5,4.166 -7.916,8.75c-0.417,5 2.916,7.5 7.083,8.75c8.75,2.5 17.917,4.583 26.667,7.083c7.5,1.667 14.583,4.167 21.666,7.083c16.25,7.084 26.667,18.334 27.084,36.667c0.416,19.167 -7.917,33.75 -25,42.917c-8.75,4.583 -18.334,7.083 -28.334,7.5c-2.916,-0 -6.25,-1.667 -8.75,1.666l-6.666,-0Z" style="fill:#1f3b71;fill-rule:nonzero;"/><path d="M183.753,717.503c-5.833,7.084 -14.583,5.834 -22.083,7.084c-30.833,5 -62.083,9.166 -92.917,14.166c-18.75,2.917 -37.5,6.25 -56.25,9.167c-3.75,0.417 -7.5,0.417 -11.666,0.417l0,-3.75c4.583,-7.084 4.166,-15 5.833,-22.5c2.5,-10 4.167,-20 5.833,-30c0.834,-4.167 2.917,-6.25 7.5,-6.667c54.584,-8.75 108.75,-17.5 163.334,-26.25c3.333,-0.417 8.333,-4.583 11.666,1.25c0,2.917 -1.666,5.417 -2.5,8.75c-2.083,15.833 -5.416,32.083 -8.75,48.333" style="fill:#425083;fill-rule:nonzero;"/><path d="M860,899.587c-5.833,0.833 -8.333,6.25 -12.083,9.583c-5,4.167 -9.583,8.75 -14.583,13.333c-2.917,-2.083 -2.084,-5 -2.084,-7.916c-0,-62.917 -0,-125.834 0.417,-189.167c8.75,-10.417 17.917,-20.833 26.667,-31.25c0.416,0 1.25,-0.417 1.666,0l-0,205.417Z" style="fill:#425083;fill-rule:nonzero;"/><path d="M477.087,823.753c-0.417,14.167 4.166,25.834 5.833,38.334c1.25,11.25 3.333,22.916 5.417,34.166c1.666,8.334 7.916,13.334 15.833,12.5c7.5,-0.833 14.583,-7.083 13.75,-15.416c-0.417,-4.584 -0.833,-9.584 -1.25,-14.167c-1.25,-10 -2.917,-20.417 -4.583,-30c-1.25,-6.25 0.833,-8.333 7.083,-9.167c12.5,-1.666 25.417,-3.333 37.917,-5.416c4.583,-0.834 6.666,0.416 6.666,5c-0.416,13.333 5,25.416 5.834,38.333c0,2.917 0.833,5.833 2.083,8.333c2.917,8.334 8.333,11.667 17.083,10.417c7.5,-1.25 11.667,-6.25 11.667,-15c0,-3.333 -0.417,-7.083 -0.833,-10.417c-3.75,-25.416 -7.5,-50.833 -11.25,-76.666c-2.084,-14.167 -3.75,-28.334 -6.667,-42.5c-2.083,-10.417 -11.667,-14.167 -21.667,-10.834c-6.666,2.5 -10.416,13.334 -7.916,20.834c4.166,12.916 4.583,27.083 6.666,40.416c0.417,3.334 -0.833,4.584 -4.166,5c-13.75,2.084 -27.917,3.75 -41.667,5.834c-4.167,0.416 -5.833,-0.834 -6.25,-5c-0.417,-5 -1.25,-10 -2.083,-15c-1.25,-9.584 -2.5,-19.167 -4.167,-28.334c-1.667,-8.333 -7.5,-13.333 -15.417,-12.916c-8.333,0.416 -15,5.416 -14.583,13.333c0,10.417 0,21.25 2.5,31.25c1.667,9.167 2.083,19.167 4.167,27.083m167.916,57.917c-3.333,3.75 -3.75,8.75 -5.416,12.917c-1.25,4.583 -3.75,5.833 -8.334,6.666c-54.583,7.5 -109.166,15.417 -163.75,22.917c-2.083,0.417 -3.75,-0 -5.833,0.417c-5,1.25 -5.833,-1.25 -6.667,-5.417c-4.583,-33.75 -9.166,-67.5 -13.75,-101.25c-1.25,-7.917 -2.5,-15.833 -3.75,-23.75c0,-4.167 2.917,-7.5 4.167,-11.25c2.917,-7.917 7.917,-14.583 8.75,-22.917c0.833,-6.25 -2.917,-11.25 -3.333,-17.083c6.666,-0.833 13.333,-1.667 20,-2.5c21.666,-2.917 43.333,-6.25 65,-9.167c19.583,-2.5 38.75,-5 58.333,-6.25c17.083,-1.25 20.417,-3.75 26.25,-20c2.917,-8.75 4.583,-17.916 9.583,-25.833c2.5,18.333 5,36.667 7.5,55c2.917,21.667 5.417,43.75 8.334,65.417c0,1.25 1.25,2.083 1.666,3.333c0,6.25 0.417,12.5 1.25,18.75c4.167,20.833 9.584,40.417 0,60" style="fill:#1f3b71;fill-rule:nonzero;"/><path d="M735.003,751.253c-16.25,0 -30,4.584 -41.666,13.75c-40.417,30.834 -40.417,94.167 -0.417,125.417c23.75,18.333 64.167,18.75 87.917,-0.833c22.5,-18.75 30.833,-42.917 27.916,-72.084c-2.916,-30.416 -29.583,-67.916 -73.75,-66.25m-90,130.417c9.167,-19.583 3.75,-39.583 1.25,-59.167c-0.833,-6.25 -1.25,-12.5 -1.25,-18.75c1.25,-22.916 0,-45.416 0.834,-68.333c0,-3.333 -1.25,-7.083 1.666,-10l139.167,0c15,0 30,0.417 45,0.417c0,62.916 -0.417,125.833 -0.417,189.166c0,2.917 -0.833,5.834 2.084,7.917c-2.084,3.333 -5.834,2.083 -8.75,2.083l-170,0c-8.75,0 -8.75,0 -8.75,-8.75c-0.417,-11.666 -0.417,-22.916 -0.834,-34.583" style="fill:#1f3b71;fill-rule:nonzero;"/><path d="M448.337,742.92c0.416,5.833 3.75,11.25 3.333,17.083c-33.333,-15 -66.667,-30 -100,-45c-18.75,-8.333 -37.083,-16.666 -55.417,-25c-4.583,-2.083 -7.083,-0.833 -8.75,3.334c-1.666,4.166 -3.333,8.333 -5,12.5c-14.583,33.333 -28.75,67.083 -43.75,100.416c-5.416,12.084 -9.166,25 -17.083,35.834c0.417,-4.167 1.25,-8.334 0.417,-12.5c-2.917,-19.584 -5.834,-38.75 -8.75,-58.334c6.25,-10 10,-21.25 14.583,-32.083c14.583,-33.75 28.75,-67.917 42.917,-102.083c2.5,-6.25 5,-6.25 10.416,-3.75c50.417,23.333 101.25,46.666 152.084,69.583c4.166,1.667 6.666,4.583 8.333,8.75c1.25,10.833 2.917,21.25 6.667,31.25" style="fill:#425083;fill-rule:nonzero;"/><path d="M448.337,742.92c-3.75,-10 -5.417,-20.833 -7.917,-31.25c5.417,-9.167 5.417,-9.583 17.083,-11.25c25.834,-3.75 51.667,-6.667 77.5,-10c24.584,-3.333 48.75,-7.083 73.334,-10.833c5.833,-0.834 11.25,-0.417 17.083,-2.084c1.25,-0.416 2.083,0.834 2.5,2.084c-5,7.916 -6.667,17.083 -9.583,25.833c-5.834,16.25 -9.167,18.333 -26.25,20c-19.584,1.667 -39.167,4.167 -58.334,6.25c-21.666,2.917 -43.333,5.833 -65,9.167c-7.083,0.833 -13.75,1.666 -20.416,2.083" style="fill:#425083;fill-rule:nonzero;"/><path d="M831.67,725.837c-15,0 -30,-0.417 -45,-0.417l-139.167,0c8.334,-9.167 16.25,-18.333 24.584,-27.917c2.5,-2.5 5.416,-3.333 8.75,-3.333l177.916,0c-9.166,10.833 -18.333,21.25 -27.083,31.667" style="fill:#425083;fill-rule:nonzero;"/><path d="M212.503,771.67c2.917,19.583 5.834,38.75 8.75,58.333c0.834,4.167 0,8.334 -0.416,12.5c-2.5,3.75 -0.834,8.75 -2.917,12.5c-2.5,12.917 -5.417,25.834 -7.917,38.334c-4.583,-17.084 -5.833,-35 -8.75,-52.084c-4.583,-28.333 -8.75,-56.25 -12.5,-84.583c-1.666,-12.917 -5,-25.833 -5,-38.75c3.334,-16.25 6.667,-32.5 9.584,-48.75c0.416,-2.917 2.083,-5.417 2.5,-8.75c5.416,36.667 11.25,74.167 16.666,111.25" style="fill:#425083;fill-rule:nonzero;"/><path d="M393.337,334.17c6.666,5.833 12.083,10 17.5,14.583c15.833,13.334 10,12.084 27.916,2.084c7.917,-4.167 15.417,-8.75 24.584,-14.167c-2.084,15 -4.167,28.333 -7.5,41.667c-0.834,3.333 -3.75,5 -7.5,5l-53.75,0c-5,0 -8.75,-2.917 -8.334,-8.334c2.084,-12.916 4.584,-25.833 7.084,-40.833" style="fill:#1f3b71;fill-rule:nonzero;"/><path d="M395.42,328.337c2.917,-2.917 5,-2.5 7.5,-2.5l50.417,0c2.083,0 4.583,-0.417 6.666,0.833c2.5,1.667 4.167,3.75 0.417,5.417c-11.25,5.833 -22.5,11.666 -33.75,17.916c-2.5,1.25 -4.167,0.834 -5.833,-0.833c-8.334,-6.667 -16.667,-13.333 -25.417,-20.833" style="fill:#1f3b71;fill-rule:nonzero;"/><path d="M629.587,1024.17c12.083,-14.167 24.583,-28.333 36.25,-42.5c4.583,-5.833 9.166,-7.5 16.25,-7.083c15.833,0.416 31.666,-0 49.583,-0c-13.75,14.166 -26.25,27.083 -38.75,40c-12.917,12.916 -12.917,12.916 -3.333,28.75c14.583,23.75 29.166,47.916 44.583,73.333c-12.917,0 -25,-1.25 -36.667,0.417c-14.166,1.666 -21.666,-2.917 -27.083,-16.25c-5.417,-13.75 -13.333,-26.667 -20.417,-40.417c-7.5,6.25 -13.75,13.75 -20.416,20.417c-2.084,2.083 -1.667,4.583 -1.667,7.083l0,23.75c0,3.75 -0.833,5 -5,5c-11.667,0 -22.917,-0.417 -34.583,0c-4.167,0 -5.417,-1.25 -5.417,-5.417c0.417,-8.75 0,-17.083 0,-25.833l0,-103.333c0,-5.834 1.25,-7.917 7.5,-7.5c10.417,0.416 21.25,0.416 31.667,-0c4.583,-0 6.25,1.25 5.833,5.833c-0.417,14.167 0,28.75 0,42.917c0.417,0.416 1.25,0.416 1.667,0.833" style="fill:#1f3b71;fill-rule:nonzero;"/><path d="M407.92,794.587c-0.833,-20.834 -11.25,-43.75 -36.667,-57.5c-25.416,-13.334 -50.416,-11.25 -74.166,4.583c-15.834,10.417 -25.834,25.417 -31.667,43.333c-5.833,17.5 -7.5,35.417 -0.833,53.75c11.666,32.5 45.416,53.334 81.666,44.584c35.417,-8.334 61.667,-42.917 61.667,-88.75m-190,60.416c2.083,-3.75 0.417,-8.75 2.917,-12.5c7.5,-11.25 11.666,-23.75 17.083,-35.833c15,-33.333 29.167,-66.667 43.75,-100.417c1.667,-4.166 3.333,-8.333 5,-12.5c1.667,-4.583 3.75,-5.416 8.75,-3.333c18.333,8.75 37.083,16.667 55.417,25c33.333,15 66.666,30 100,45c-1.25,8.333 -6.25,15.417 -8.75,22.917c-1.25,3.75 -4.584,6.666 -4.167,11.25c-9.583,17.916 -16.667,37.083 -25,55.416c-10.417,22.917 -20.417,45.834 -30.417,69.167c-3.333,7.917 -3.333,7.917 -11.666,4.167c-49.167,-22.084 -98.75,-44.584 -147.917,-66.667c-1.25,-0.417 -2.917,-1.25 -5,-1.667" style="fill:#1f3b71;fill-rule:nonzero;"/><path d="M189.17,1045l0,23.75c0,16.25 0,16.25 16.25,14.167c0.833,0 2.083,0 2.917,-0.417c12.916,-2.083 18.75,-7.083 20.833,-20c2.083,-11.25 2.083,-22.916 0,-34.166c-2.917,-14.584 -10.833,-20.834 -25.833,-21.667l-7.5,0c-4.167,-0.417 -6.25,0.833 -6.25,5.417c-0.417,11.25 -0.417,22.083 -0.417,32.916m-44.583,0.417l0,-65c0,-4.583 0.833,-6.25 5.833,-6.25c23.75,0.417 47.083,-0.417 70.833,0.417c23.75,0.416 43.334,16.666 50.417,40c5.417,18.75 6.25,37.916 1.667,56.666c-7.084,28.75 -25.834,43.334 -56.667,44.584c-22.083,1.25 -44.167,-0 -65.833,0.416c-4.584,-0 -5.834,-1.25 -5.834,-5.833c-0.416,-21.667 -0.416,-43.333 -0.416,-65" style="fill:#1f3b71;fill-rule:nonzero;"/><path d="M297.92,1045.42l0,-64.167c0,-5.416 1.25,-7.083 6.667,-7.083c35,0.417 69.583,0.417 104.583,0c6.25,0 7.917,2.083 7.083,7.5c-0.833,7.5 3.334,17.083 -1.666,22.083c-4.167,4.167 -14.167,1.25 -21.25,1.25c-15,0 -30,0.417 -45,0c-4.584,0 -5.834,1.25 -5.834,5.834c-0.416,15.833 -0.416,15.833 15,15.833c15.417,0 30.834,0.417 45.834,0c5.833,0 8.333,1.25 7.916,7.5c-0.416,4.583 -0.416,9.583 0,14.167c0.834,6.666 -1.25,8.75 -8.333,8.75c-17.5,-0.417 -35,0 -52.5,-0.417c-6.25,0 -8.75,1.25 -7.917,7.917c0.834,6.25 -2.916,14.166 1.667,18.333c3.75,3.75 11.667,0.833 17.5,0.833c16.667,0 33.333,0.417 50,0c5.417,0 7.083,1.667 6.667,7.084c-0.417,6.666 -0.417,13.333 0,20c0,3.75 -0.417,5.833 -5,5.833l-110,0c-5.834,0 -5,-3.333 -5,-6.667c-0.417,-21.666 -0.417,-43.333 -0.417,-64.583" style="fill:#1f3b71;fill-rule:nonzero;"/><path d="M697.503,819.587c3.75,-15.417 9.167,-27.5 22.084,-35.417c20.833,-12.5 49.166,-1.667 55.416,21.667c5.417,21.25 -0,40.416 -13.333,57.083c-10,12.083 -23.75,15 -37.917,10.833c-15.416,-4.166 -24.583,-15 -27.5,-30.833c-1.666,-8.333 -0.833,-16.667 1.25,-23.333" style="fill:#1f3b71;fill-rule:nonzero;"/><path d="M377.087,797.92c-1.667,17.5 -8.334,35.417 -23.75,49.167c-10.834,10 -23.75,11.666 -37.5,6.25c-14.167,-5.417 -22.5,-15.834 -23.334,-30.834c-1.25,-21.666 6.667,-40 22.084,-55c11.25,-11.25 25,-12.916 40,-6.666c15,6.25 22.083,18.333 22.5,37.083" style="fill:#1f3b71;fill-rule:nonzero;"/></g></svg>