<?xml version="1.0" encoding="utf-8"?>
<!-- Generator: Adobe Illustrator 24.0.0, SVG Export Plug-In . SVG Version: 6.00 Build 0)  -->
<svg version="1.1" id="Livello_1" xmlns="http://www.w3.org/2000/svg" xmlns:xlink="http://www.w3.org/1999/xlink" x="0px" y="0px"
	 viewBox="0 0 119.5 119.5" style="enable-background:new 0 0 119.5 119.5;" xml:space="preserve">
<style type="text/css">
	.st0{clip-path:url(#SVGID_2_);}
	.st1{opacity:0.9;clip-path:url(#SVGID_4_);}
	.st2{clip-path:url(#SVGID_6_);fill:#14ABE3;}
	.st3{fill:#FFFFFF;}
	.st4{clip-path:url(#SVGID_8_);fill:#FFFFFF;}
</style>
<g>
	<defs>
		<rect id="SVGID_1_" x="-0.2" y="6.6" width="119.9" height="108.6"/>
	</defs>
	<clipPath id="SVGID_2_">
		<use xlink:href="#SVGID_1_"  style="overflow:visible;"/>
	</clipPath>
	<g class="st0">
		<defs>
			<rect id="SVGID_3_" x="-0.2" y="6.6" width="119.9" height="108.6"/>
		</defs>
		<clipPath id="SVGID_4_">
			<use xlink:href="#SVGID_3_"  style="overflow:visible;"/>
		</clipPath>
		<g class="st1">
			<g>
				<defs>
					<rect id="SVGID_5_" x="-3.6" y="-0.4" width="126.6" height="116.6"/>
				</defs>
				<clipPath id="SVGID_6_">
					<use xlink:href="#SVGID_5_"  style="overflow:visible;"/>
				</clipPath>
				<path class="st2" d="M8.3,6.6c-1.6,0-2.8,1.3-2.8,2.8v102.9c0,1.6,1.3,2.8,2.8,2.8h102.9c1.6,0,2.8-1.3,2.8-2.8V9.5
					c0-1.6-1.3-2.8-2.8-2.8H8.3z"/>
			</g>
		</g>
	</g>
	<g class="st0">
		<path class="st3" d="M50.5,93.6C50.5,93.6,50.5,93.6,50.5,93.6c0,0.1-0.1,0.1-0.1,0.2c0,0-0.1,0-0.2,0c-0.1,0-0.2,0-0.3,0
			c-0.1,0-0.2,0-0.3,0c-0.1,0-0.1,0-0.2,0c0,0-0.1,0-0.1-0.1s0-0.1,0-0.1v-7.7h0l-3.1,7.7c0,0,0,0.1-0.1,0.1c0,0-0.1,0-0.1,0.1
			c0,0-0.1,0-0.2,0c-0.1,0-0.1,0-0.2,0c-0.1,0-0.2,0-0.2,0s-0.1,0-0.2,0c0,0-0.1,0-0.1-0.1c0,0,0,0-0.1-0.1l-3-7.7h0v7.7
			c0,0,0,0.1,0,0.1c0,0-0.1,0-0.1,0.1c0,0-0.1,0-0.2,0c-0.1,0-0.2,0-0.3,0c-0.1,0-0.2,0-0.3,0c-0.1,0-0.1,0-0.2,0c0,0-0.1,0-0.1-0.1
			c0,0,0-0.1,0-0.1v-8.1c0-0.2,0.1-0.3,0.2-0.4c0.1-0.1,0.2-0.1,0.3-0.1h0.7c0.1,0,0.3,0,0.4,0s0.2,0.1,0.3,0.1
			c0.1,0.1,0.2,0.1,0.2,0.2s0.1,0.2,0.1,0.3l2.5,6.4h0l2.6-6.4c0.1-0.1,0.1-0.3,0.2-0.3s0.1-0.2,0.2-0.2c0.1-0.1,0.2-0.1,0.2-0.1
			c0.1,0,0.2,0,0.3,0H50c0.1,0,0.1,0,0.2,0c0.1,0,0.1,0.1,0.2,0.1c0,0,0.1,0.1,0.1,0.2c0,0.1,0,0.1,0,0.2V93.6z"/>
		<path class="st3" d="M58.4,90.4c0,0.5-0.1,1-0.2,1.4c-0.1,0.4-0.3,0.8-0.6,1.1c-0.3,0.3-0.6,0.5-1,0.7c-0.4,0.2-0.9,0.3-1.4,0.3
			c-0.5,0-0.9-0.1-1.3-0.2S53.3,93.3,53,93c-0.2-0.3-0.4-0.6-0.6-1s-0.2-0.9-0.2-1.4c0-0.5,0.1-1,0.2-1.4c0.1-0.4,0.3-0.8,0.6-1.1
			c0.3-0.3,0.6-0.5,1-0.7c0.4-0.2,0.9-0.3,1.4-0.3c0.5,0,0.9,0.1,1.3,0.2s0.7,0.4,0.9,0.7c0.3,0.3,0.4,0.6,0.6,1
			C58.4,89.4,58.4,89.9,58.4,90.4z M57.2,90.5c0-0.3,0-0.6-0.1-0.9c-0.1-0.3-0.2-0.6-0.3-0.8c-0.1-0.2-0.3-0.4-0.6-0.5
			C56,88.1,55.7,88,55.4,88c-0.3,0-0.6,0.1-0.9,0.2c-0.2,0.1-0.4,0.3-0.6,0.5c-0.2,0.2-0.3,0.5-0.3,0.8c-0.1,0.3-0.1,0.6-0.1,1
			c0,0.3,0,0.7,0.1,1c0.1,0.3,0.2,0.6,0.3,0.8c0.1,0.2,0.3,0.4,0.6,0.5c0.2,0.1,0.5,0.2,0.9,0.2c0.3,0,0.6-0.1,0.9-0.2
			c0.2-0.1,0.4-0.3,0.6-0.5s0.3-0.5,0.3-0.8C57.2,91.2,57.2,90.9,57.2,90.5z"/>
		<path class="st3" d="M65.7,90.4c0,0.5-0.1,1-0.2,1.4c-0.1,0.4-0.3,0.8-0.5,1.1s-0.5,0.5-0.8,0.7s-0.7,0.2-1.1,0.2
			c-0.2,0-0.4,0-0.5-0.1c-0.2,0-0.3-0.1-0.5-0.2c-0.2-0.1-0.3-0.2-0.5-0.3c-0.2-0.1-0.3-0.3-0.5-0.5v0.8c0,0,0,0.1,0,0.1
			c0,0,0,0-0.1,0.1c0,0-0.1,0-0.2,0s-0.1,0-0.2,0c-0.1,0-0.2,0-0.2,0c-0.1,0-0.1,0-0.2,0c0,0-0.1,0-0.1-0.1s0-0.1,0-0.1v-9.1
			c0,0,0-0.1,0-0.1c0,0,0,0,0.1-0.1c0,0,0.1,0,0.2,0c0.1,0,0.2,0,0.3,0c0.1,0,0.2,0,0.3,0c0.1,0,0.1,0,0.2,0s0.1,0,0.1,0.1
			c0,0,0,0.1,0,0.1v3.7c0.2-0.2,0.4-0.3,0.5-0.5s0.3-0.2,0.5-0.3c0.2-0.1,0.3-0.1,0.5-0.2s0.3-0.1,0.5-0.1c0.4,0,0.8,0.1,1.1,0.3
			c0.3,0.2,0.6,0.4,0.8,0.7c0.2,0.3,0.3,0.6,0.4,1C65.7,89.5,65.7,90,65.7,90.4z M64.6,90.5c0-0.3,0-0.6-0.1-0.9
			c0-0.3-0.1-0.6-0.3-0.8s-0.3-0.4-0.5-0.5c-0.2-0.1-0.4-0.2-0.7-0.2c-0.1,0-0.3,0-0.4,0.1c-0.1,0-0.3,0.1-0.4,0.2
			c-0.1,0.1-0.3,0.2-0.5,0.4s-0.3,0.3-0.5,0.6v2.5c0.3,0.4,0.6,0.7,0.9,0.9c0.3,0.2,0.6,0.3,0.9,0.3c0.3,0,0.5-0.1,0.7-0.2
			c0.2-0.1,0.4-0.3,0.5-0.5c0.1-0.2,0.2-0.5,0.3-0.8C64.5,91.1,64.6,90.8,64.6,90.5z"/>
		<path class="st3" d="M68.7,85.3c0,0.3,0,0.4-0.2,0.5C68.4,86,68.3,86,68,86c-0.3,0-0.4,0-0.5-0.1c-0.1-0.1-0.1-0.3-0.1-0.5
			c0-0.3,0.1-0.4,0.2-0.5c0.1-0.1,0.3-0.1,0.6-0.1c0.3,0,0.4,0,0.5,0.1C68.6,84.9,68.7,85.1,68.7,85.3z M68.6,93.6
			C68.6,93.6,68.5,93.6,68.6,93.6c0,0.1-0.1,0.1-0.1,0.2s-0.1,0-0.2,0c-0.1,0-0.2,0-0.3,0c-0.1,0-0.2,0-0.3,0c-0.1,0-0.1,0-0.2,0
			c0,0-0.1,0-0.1-0.1c0,0,0-0.1,0-0.1v-6.2c0,0,0-0.1,0-0.1c0,0,0,0,0.1-0.1c0,0,0.1,0,0.2,0c0.1,0,0.2,0,0.3,0c0.1,0,0.2,0,0.3,0
			c0.1,0,0.1,0,0.2,0s0.1,0,0.1,0.1c0,0,0,0.1,0,0.1V93.6z"/>
		<path class="st3" d="M71.8,93.6C71.8,93.6,71.8,93.6,71.8,93.6c0,0.1-0.1,0.1-0.1,0.2s-0.1,0-0.2,0c-0.1,0-0.2,0-0.3,0
			c-0.1,0-0.2,0-0.3,0c-0.1,0-0.1,0-0.2,0c0,0-0.1,0-0.1-0.1c0,0,0-0.1,0-0.1v-9.1c0,0,0-0.1,0-0.1c0,0,0,0,0.1-0.1c0,0,0.1,0,0.2,0
			c0.1,0,0.2,0,0.3,0c0.1,0,0.2,0,0.3,0c0.1,0,0.1,0,0.2,0s0.1,0,0.1,0.1c0,0,0,0.1,0,0.1V93.6z"/>
		<path class="st3" d="M79.1,90.2c0,0.2,0,0.3-0.1,0.4c-0.1,0.1-0.2,0.1-0.3,0.1h-4.1c0,0.3,0,0.6,0.1,0.9c0.1,0.3,0.2,0.5,0.3,0.7
			s0.4,0.3,0.6,0.5c0.3,0.1,0.6,0.2,0.9,0.2c0.3,0,0.6,0,0.8-0.1c0.2,0,0.4-0.1,0.6-0.2c0.2-0.1,0.3-0.1,0.4-0.2
			c0.1,0,0.2-0.1,0.2-0.1c0,0,0.1,0,0.1,0c0,0,0,0,0.1,0.1s0,0.1,0,0.1c0,0.1,0,0.1,0,0.2c0,0.1,0,0.1,0,0.2c0,0,0,0.1,0,0.1
			c0,0,0,0.1,0,0.1c0,0,0,0.1-0.1,0.1c0,0-0.1,0.1-0.2,0.1c-0.1,0.1-0.3,0.1-0.5,0.2c-0.2,0.1-0.4,0.1-0.7,0.1
			c-0.3,0-0.5,0.1-0.8,0.1c-0.5,0-0.9-0.1-1.3-0.2c-0.4-0.1-0.7-0.4-1-0.6s-0.5-0.6-0.6-1c-0.1-0.4-0.2-0.9-0.2-1.5
			c0-0.5,0.1-1,0.2-1.4c0.1-0.4,0.3-0.8,0.6-1.1c0.3-0.3,0.6-0.5,0.9-0.7c0.4-0.2,0.8-0.2,1.2-0.2c0.5,0,0.9,0.1,1.2,0.2
			c0.3,0.2,0.6,0.4,0.8,0.6c0.2,0.3,0.4,0.6,0.5,0.9c0.1,0.4,0.2,0.7,0.2,1.1V90.2z M78,89.9c0-0.6-0.1-1.1-0.4-1.4S76.9,88,76.3,88
			c-0.3,0-0.5,0.1-0.7,0.2s-0.4,0.2-0.5,0.4c-0.1,0.2-0.3,0.4-0.3,0.6c-0.1,0.2-0.1,0.5-0.1,0.7H78z"/>
	</g>
	<g class="st0">
		<defs>
			<rect id="SVGID_7_" x="-0.2" y="6.6" width="119.9" height="108.6"/>
		</defs>
		<clipPath id="SVGID_8_">
			<use xlink:href="#SVGID_7_"  style="overflow:visible;"/>
		</clipPath>
		<path class="st4" d="M48.8,43.5c0.5-0.7,0.9-1.2,1.3-1.8c1-1,2.2-1.7,3.5-2c1.6-0.4,3.2-0.3,4.8,0.2c2.5,0.8,3.9,2.6,4.4,5
			c0.3,1.2,0.4,2.5,0.4,3.8c0,3.9,0,7.8,0,11.8v0.9c-0.7,0.2-3.3,0.3-4.7,0.1c0-0.3-0.1-0.7-0.1-1c0-4.2,0-8.5,0-12.7
			c0-0.7,0-1.4-0.2-2c-0.3-1.3-1.2-2.2-2.6-2.5c-0.9-0.2-1.7-0.1-2.5,0.1c-1.5,0.4-2.6,2.1-2.6,3.5c0,0.4,0,0.8,0,1.1
			c0,4.1,0,8.3,0,12.4v0.9c-0.6,0.2-3.2,0.3-4.7,0.1c0-0.3-0.1-0.6-0.1-1c0-4.4,0-8.7,0-13.1c0-0.7-0.1-1.3-0.3-2
			c-0.3-1.3-1.2-1.9-2.5-2.2c-1.7-0.4-3,0.2-4.2,1.3c-0.2,0.2-0.4,0.4-0.6,0.6c-0.3,0.2-0.4,0.5-0.4,0.9c0,0.5,0,1,0,1.5
			c0,4.3,0,8.6,0,12.9c0,0.3,0,0.7,0,1.1h-4.6c-0.2-0.7-0.2-20.8,0-21.7c1-0.1,2-0.1,3,0c0.4,0,0.7,0.3,0.8,0.7
			c0.1,0.3,0.2,0.7,0.3,1c0.1,0.2,0.1,0.5,0.2,0.8c0.8-0.6,1.5-1.3,2.3-1.8c1.9-1.3,4-1.4,6.1-0.5c1.2,0.5,2,1.5,2.6,2.7
			C48.6,42.9,48.7,43.2,48.8,43.5"/>
		<path class="st4" d="M82.6,50.7c-0.1,1.3,0.1,2.6,0.5,3.9c0.6,1.7,1.7,3,3.6,3.4c1.1,0.2,2.2,0.2,3.4,0c1.3-0.3,2.3-1,2.9-2.2
			c0.3-0.6,0.5-1.2,0.7-1.8c0.5-1.4,0.3-2.8,0.4-4.2c0-1.4-0.3-2.7-0.9-4c-0.4-0.8-0.9-1.5-1.7-1.9c-1.2-0.8-2.6-0.9-3.9-0.7
			c-1.9,0.2-3.3,1.1-4.1,2.9C82.8,47.6,82.5,49.1,82.6,50.7 M88.5,62c-2.6-0.1-4.8-0.6-6.8-2.1c-1.4-1.1-2.5-2.5-3.2-4.2
			c-0.7-1.7-0.9-3.4-0.9-5.1c0.1-2.5,0.6-4.8,2-6.9c1.7-2.3,3.9-3.6,6.8-4c1.8-0.3,3.6-0.1,5.4,0.4c1.6,0.5,3,1.3,4.2,2.6
			c1.8,1.9,2.6,4.1,2.8,6.6c0.2,2,0,3.9-0.5,5.8c-0.4,1.4-1.1,2.6-2.1,3.7c-1.6,1.8-3.7,2.8-6.1,3.1C89.5,61.9,88.9,62,88.5,62"/>
		<path class="st4" d="M73.3,61.6h-4.4c-0.2-0.7-0.2-20.6,0-21.7c0.2,0,0.4-0.1,0.7-0.1c0.9,0,1.8,0,2.7,0c1.1,0,1.1,0,1.1,1.1
			c0,1.7,0,3.5,0,5.2c0,4.8,0,9.5,0,14.3V61.6z"/>
		<path class="st4" d="M25,40.4c1.1,0,2.1-0.1,3.1,0c-0.2,0.8-0.3,1.6-0.5,2.4c-0.6,2.8-1.2,5.6-1.8,8.4c-0.4,1.7-0.7,3.4-1,5
			c-0.1,0.7-0.3,1.5,0.3,2.2c0.2,0.2,0.4,0.4,0.7,0.5c0.6,0.1,1.3,0.4,2,0.1c0.1,0,0.2,0,0.4,0c0.1,0.8-0.2,1.5-0.4,2.2
			c0,0.1-0.3,0.3-0.5,0.3c-1.4,0.3-2.7,0.3-4-0.3c-1.2-0.6-2.1-2.5-1.8-3.8c0.4-2.1,0.9-4.3,1.3-6.4c0.6-3.1,1.3-6.2,1.9-9.2
			C24.8,41.4,24.9,40.9,25,40.4"/>
		<path class="st4" d="M71,30.3c1.7,0,3,1.4,3,3.1c0,1.8-1.5,3-3.1,3c-1.4,0-3.1-1.6-3-3C67.9,31.5,69.3,30.2,71,30.3"/>
		<path class="st4" d="M30.3,32.8c0,1.3-0.8,2.1-2,2.1c-1.4,0-2.2-1.2-2.2-2.2c0-1,1.1-2,2.3-2C29.4,30.7,30.3,31.6,30.3,32.8"/>
	</g>
</g>
</svg>
