<?xml version="1.0" encoding="utf-8"?>
<!-- Generator: Adobe Illustrator 24.0.0, SVG Export Plug-In . SVG Version: 6.00 Build 0)  -->
<svg version="1.1" id="Livello_1" xmlns="http://www.w3.org/2000/svg" xmlns:xlink="http://www.w3.org/1999/xlink" x="0px" y="0px"
	 viewBox="0 0 119.5 119.5" style="enable-background:new 0 0 119.5 119.5;" xml:space="preserve">
<style type="text/css">
	.st0{clip-path:url(#SVGID_2_);}
	.st1{opacity:0.9;clip-path:url(#SVGID_4_);}
	.st2{clip-path:url(#SVGID_6_);fill:#2A774E;}
	.st3{fill:#FFFFFF;}
	.st4{clip-path:url(#SVGID_8_);fill:#FFFFFF;}
</style>
<g>
	<defs>
		<rect id="SVGID_1_" x="-0.2" y="5.5" width="119.9" height="108.6"/>
	</defs>
	<clipPath id="SVGID_2_">
		<use xlink:href="#SVGID_1_"  style="overflow:visible;"/>
	</clipPath>
	<g class="st0">
		<defs>
			<rect id="SVGID_3_" x="-0.2" y="5.5" width="119.9" height="108.6"/>
		</defs>
		<clipPath id="SVGID_4_">
			<use xlink:href="#SVGID_3_"  style="overflow:visible;"/>
		</clipPath>
		<g class="st1">
			<g>
				<defs>
					<rect id="SVGID_5_" x="-3.5" y="-1.5" width="126.6" height="116.6"/>
				</defs>
				<clipPath id="SVGID_6_">
					<use xlink:href="#SVGID_5_"  style="overflow:visible;"/>
				</clipPath>
				<path class="st2" d="M8.3,5.5c-1.6,0-2.8,1.3-2.8,2.8v102.9c0,1.6,1.3,2.8,2.8,2.8h102.9c1.6,0,2.8-1.3,2.8-2.8V8.3
					c0-1.6-1.3-2.8-2.8-2.8H8.3z"/>
			</g>
		</g>
	</g>
	<g class="st0">
		<path class="st3" d="M36.1,91.3c0,0.1,0,0.1,0,0.2c0,0.1,0,0.1,0,0.1c0,0,0,0.1,0,0.1c0,0-0.1,0.1-0.1,0.1c0,0-0.1,0.1-0.3,0.2
			c-0.1,0.1-0.3,0.2-0.5,0.3c-0.2,0.1-0.5,0.2-0.7,0.2c-0.3,0.1-0.6,0.1-0.9,0.1c-0.6,0-1.1-0.1-1.6-0.3c-0.5-0.2-0.9-0.5-1.2-0.8
			c-0.3-0.4-0.6-0.8-0.8-1.4c-0.2-0.5-0.3-1.2-0.3-1.9c0-0.7,0.1-1.4,0.3-2c0.2-0.6,0.5-1.1,0.8-1.5c0.3-0.4,0.8-0.7,1.2-0.9
			c0.5-0.2,1-0.3,1.6-0.3c0.3,0,0.5,0,0.7,0.1c0.2,0,0.5,0.1,0.7,0.2s0.4,0.2,0.5,0.3c0.2,0.1,0.3,0.2,0.3,0.2
			c0.1,0.1,0.1,0.1,0.1,0.1c0,0,0,0.1,0,0.1c0,0,0,0.1,0,0.2s0,0.1,0,0.2c0,0.1,0,0.2,0,0.2c0,0.1,0,0.1,0,0.2c0,0,0,0.1-0.1,0.1
			c0,0-0.1,0-0.1,0c-0.1,0-0.2,0-0.3-0.1c-0.1-0.1-0.3-0.2-0.4-0.3c-0.2-0.1-0.4-0.2-0.7-0.3c-0.3-0.1-0.6-0.1-0.9-0.1
			c-0.4,0-0.8,0.1-1.1,0.2c-0.3,0.2-0.6,0.4-0.8,0.7c-0.2,0.3-0.4,0.7-0.5,1.1c-0.1,0.4-0.2,0.9-0.2,1.5c0,0.6,0.1,1.1,0.2,1.5
			c0.1,0.4,0.3,0.8,0.5,1.1c0.2,0.3,0.5,0.5,0.8,0.7c0.3,0.1,0.7,0.2,1.1,0.2c0.4,0,0.7,0,0.9-0.1c0.3-0.1,0.5-0.2,0.7-0.3
			c0.2-0.1,0.3-0.2,0.5-0.3s0.2-0.1,0.3-0.1c0,0,0.1,0,0.1,0c0,0,0,0,0.1,0.1c0,0,0,0.1,0,0.2S36.1,91.2,36.1,91.3z"/>
		<path class="st3" d="M43.2,89.2c0,0.5-0.1,1-0.2,1.4c-0.1,0.4-0.3,0.8-0.6,1.1c-0.3,0.3-0.6,0.5-1,0.7c-0.4,0.2-0.9,0.3-1.4,0.3
			c-0.5,0-0.9-0.1-1.3-0.2s-0.7-0.4-0.9-0.7c-0.3-0.3-0.4-0.6-0.6-1s-0.2-0.9-0.2-1.4c0-0.5,0.1-1,0.2-1.4c0.1-0.4,0.3-0.8,0.6-1.1
			c0.3-0.3,0.6-0.5,1-0.7c0.4-0.2,0.8-0.3,1.4-0.3c0.5,0,0.9,0.1,1.3,0.2s0.7,0.4,0.9,0.7c0.2,0.3,0.4,0.6,0.6,1
			C43.2,88.3,43.2,88.7,43.2,89.2z M42.1,89.3c0-0.3,0-0.6-0.1-0.9c-0.1-0.3-0.2-0.6-0.3-0.8s-0.3-0.4-0.6-0.5
			c-0.2-0.1-0.5-0.2-0.9-0.2c-0.3,0-0.6,0.1-0.9,0.2s-0.4,0.3-0.6,0.5c-0.2,0.2-0.3,0.5-0.3,0.8c-0.1,0.3-0.1,0.6-0.1,1
			c0,0.3,0,0.7,0.1,1s0.2,0.6,0.3,0.8c0.1,0.2,0.3,0.4,0.6,0.5c0.2,0.1,0.5,0.2,0.9,0.2c0.3,0,0.6-0.1,0.9-0.2s0.4-0.3,0.6-0.5
			c0.2-0.2,0.3-0.5,0.3-0.8C42,90,42.1,89.7,42.1,89.3z"/>
		<path class="st3" d="M50.2,92.4C50.2,92.4,50.2,92.5,50.2,92.4c0,0.1-0.1,0.1-0.1,0.2s-0.1,0-0.2,0c-0.1,0-0.2,0-0.3,0
			c-0.1,0-0.2,0-0.3,0c-0.1,0-0.1,0-0.2,0s-0.1,0-0.1-0.1c0,0,0-0.1,0-0.1v-3.6c0-0.4,0-0.6-0.1-0.8s-0.1-0.4-0.2-0.6
			c-0.1-0.2-0.2-0.3-0.4-0.4c-0.2-0.1-0.4-0.1-0.6-0.1c-0.3,0-0.6,0.1-0.8,0.3c-0.3,0.2-0.6,0.5-0.9,0.9v4.3c0,0,0,0.1,0,0.1
			c0,0,0,0-0.1,0.1s-0.1,0-0.2,0c-0.1,0-0.2,0-0.3,0c-0.1,0-0.2,0-0.3,0c-0.1,0-0.1,0-0.2,0c0,0-0.1,0-0.1-0.1c0,0,0-0.1,0-0.1v-6.2
			c0,0,0-0.1,0-0.1c0,0,0,0,0.1-0.1c0,0,0.1,0,0.2,0c0.1,0,0.1,0,0.3,0c0.1,0,0.2,0,0.2,0c0.1,0,0.1,0,0.2,0c0,0,0.1,0,0.1,0.1
			c0,0,0,0.1,0,0.1V87c0.3-0.4,0.7-0.7,1-0.9c0.3-0.2,0.7-0.3,1-0.3c0.4,0,0.8,0.1,1,0.2c0.3,0.1,0.5,0.3,0.7,0.6
			c0.2,0.2,0.3,0.5,0.4,0.8c0.1,0.3,0.1,0.7,0.1,1.1V92.4z"/>
		<path class="st3" d="M55.3,91.9c0,0.1,0,0.2,0,0.3c0,0.1,0,0.1-0.1,0.2c0,0-0.1,0.1-0.2,0.1c-0.1,0-0.2,0.1-0.2,0.1
			c-0.1,0-0.2,0-0.3,0.1c-0.1,0-0.2,0-0.3,0c-0.3,0-0.6,0-0.8-0.1c-0.2-0.1-0.4-0.2-0.6-0.4c-0.1-0.2-0.3-0.4-0.3-0.7
			c-0.1-0.3-0.1-0.6-0.1-0.9V87h-0.9c-0.1,0-0.1,0-0.2-0.1s-0.1-0.2-0.1-0.4c0-0.1,0-0.2,0-0.2c0-0.1,0-0.1,0-0.1c0,0,0-0.1,0.1-0.1
			c0,0,0.1,0,0.1,0h0.9v-1.5c0,0,0-0.1,0-0.1c0,0,0-0.1,0.1-0.1c0,0,0.1,0,0.2,0c0.1,0,0.2,0,0.3,0c0.1,0,0.2,0,0.3,0
			c0.1,0,0.1,0,0.2,0c0,0,0.1,0,0.1,0.1c0,0,0,0.1,0,0.1v1.5h1.6c0,0,0.1,0,0.1,0c0,0,0.1,0,0.1,0.1c0,0,0,0.1,0,0.1
			c0,0.1,0,0.1,0,0.2c0,0.2,0,0.3-0.1,0.4S55.2,87,55.1,87h-1.6v3.4c0,0.4,0.1,0.7,0.2,1c0.1,0.2,0.3,0.3,0.7,0.3c0.1,0,0.2,0,0.3,0
			c0.1,0,0.2,0,0.2-0.1c0.1,0,0.1,0,0.2-0.1c0,0,0.1,0,0.1,0c0,0,0,0,0.1,0c0,0,0,0,0,0.1c0,0,0,0.1,0,0.1
			C55.3,91.8,55.3,91.9,55.3,91.9z"/>
		<path class="st3" d="M61.3,92.4c0,0.1,0,0.1-0.1,0.1c0,0-0.1,0-0.2,0.1c-0.1,0-0.2,0-0.3,0c-0.1,0-0.2,0-0.3,0
			c-0.1,0-0.1,0-0.2-0.1c0,0,0-0.1,0-0.1v-0.6c-0.3,0.3-0.6,0.5-0.9,0.7c-0.3,0.2-0.7,0.2-1,0.2c-0.3,0-0.6,0-0.9-0.1
			c-0.3-0.1-0.5-0.2-0.7-0.4s-0.3-0.4-0.4-0.6s-0.2-0.5-0.2-0.8c0-0.3,0.1-0.6,0.2-0.9c0.1-0.3,0.3-0.5,0.6-0.6
			c0.3-0.2,0.6-0.3,1-0.4c0.4-0.1,0.8-0.1,1.3-0.1h0.8v-0.5c0-0.2,0-0.4-0.1-0.6c0-0.2-0.1-0.3-0.2-0.5c-0.1-0.1-0.3-0.2-0.4-0.3
			c-0.2-0.1-0.4-0.1-0.7-0.1c-0.3,0-0.5,0-0.7,0.1c-0.2,0.1-0.4,0.1-0.6,0.2c-0.2,0.1-0.3,0.2-0.4,0.2c-0.1,0.1-0.2,0.1-0.2,0.1
			c0,0-0.1,0-0.1,0s-0.1,0-0.1-0.1s0-0.1,0-0.1c0-0.1,0-0.1,0-0.2c0-0.1,0-0.2,0-0.3c0-0.1,0.1-0.1,0.1-0.2s0.2-0.1,0.3-0.2
			c0.2-0.1,0.3-0.2,0.5-0.2c0.2-0.1,0.4-0.1,0.6-0.2c0.2,0,0.5-0.1,0.7-0.1c0.4,0,0.8,0,1.1,0.2c0.3,0.1,0.6,0.2,0.8,0.4
			c0.2,0.2,0.3,0.4,0.4,0.7c0.1,0.3,0.1,0.6,0.1,1V92.4z M60.2,89.6h-1c-0.3,0-0.6,0-0.8,0.1c-0.2,0.1-0.4,0.1-0.6,0.2
			c-0.2,0.1-0.3,0.2-0.3,0.4c-0.1,0.1-0.1,0.3-0.1,0.5c0,0.3,0.1,0.6,0.3,0.8c0.2,0.2,0.5,0.3,0.9,0.3c0.3,0,0.6-0.1,0.8-0.2
			s0.5-0.4,0.8-0.7V89.6z"/>
		<path class="st3" d="M69,89.2c0,0.5-0.1,1-0.2,1.4c-0.1,0.4-0.3,0.8-0.5,1.1s-0.5,0.5-0.8,0.7s-0.7,0.2-1.1,0.2
			c-0.2,0-0.4,0-0.5-0.1c-0.2,0-0.3-0.1-0.5-0.2c-0.2-0.1-0.3-0.2-0.5-0.3c-0.2-0.1-0.3-0.3-0.5-0.5v0.8c0,0,0,0.1,0,0.1
			c0,0,0,0-0.1,0.1c0,0-0.1,0-0.2,0s-0.1,0-0.2,0c-0.1,0-0.2,0-0.2,0c-0.1,0-0.1,0-0.2,0c0,0-0.1,0-0.1-0.1s0-0.1,0-0.1v-9.1
			c0,0,0-0.1,0-0.1c0,0,0,0,0.1-0.1c0,0,0.1,0,0.2,0c0.1,0,0.2,0,0.3,0c0.1,0,0.2,0,0.3,0c0.1,0,0.1,0,0.2,0s0.1,0,0.1,0.1
			c0,0,0,0.1,0,0.1v3.7c0.2-0.2,0.4-0.3,0.5-0.5s0.3-0.2,0.5-0.3c0.2-0.1,0.3-0.1,0.5-0.2s0.3-0.1,0.5-0.1c0.4,0,0.8,0.1,1.1,0.3
			c0.3,0.2,0.6,0.4,0.8,0.7c0.2,0.3,0.3,0.6,0.4,1C69,88.4,69,88.8,69,89.2z M67.9,89.4c0-0.3,0-0.6-0.1-0.9c0-0.3-0.1-0.6-0.3-0.8
			s-0.3-0.4-0.5-0.5c-0.2-0.1-0.4-0.2-0.7-0.2c-0.1,0-0.3,0-0.4,0.1c-0.1,0-0.3,0.1-0.4,0.2c-0.1,0.1-0.3,0.2-0.5,0.4
			s-0.3,0.3-0.5,0.6v2.5c0.3,0.4,0.6,0.7,0.9,0.9c0.3,0.2,0.6,0.3,0.9,0.3c0.3,0,0.5-0.1,0.7-0.2c0.2-0.1,0.4-0.3,0.5-0.5
			c0.1-0.2,0.2-0.5,0.3-0.8C67.8,89.9,67.9,89.6,67.9,89.4z"/>
		<path class="st3" d="M72,84.2c0,0.3,0,0.4-0.2,0.5c-0.1,0.1-0.3,0.1-0.6,0.1c-0.3,0-0.4,0-0.5-0.1c-0.1-0.1-0.1-0.3-0.1-0.5
			c0-0.3,0.1-0.4,0.2-0.5c0.1-0.1,0.3-0.1,0.6-0.1c0.3,0,0.4,0,0.5,0.1C71.9,83.7,72,83.9,72,84.2z M71.8,92.4
			C71.8,92.4,71.8,92.5,71.8,92.4c0,0.1-0.1,0.1-0.1,0.2s-0.1,0-0.2,0c-0.1,0-0.2,0-0.3,0c-0.1,0-0.2,0-0.3,0c-0.1,0-0.1,0-0.2,0
			c0,0-0.1,0-0.1-0.1c0,0,0-0.1,0-0.1v-6.2c0,0,0-0.1,0-0.1c0,0,0,0,0.1-0.1c0,0,0.1,0,0.2,0c0.1,0,0.2,0,0.3,0c0.1,0,0.2,0,0.3,0
			c0.1,0,0.1,0,0.2,0s0.1,0,0.1,0.1c0,0,0,0.1,0,0.1V92.4z"/>
		<path class="st3" d="M75.1,92.4C75.1,92.4,75.1,92.5,75.1,92.4c0,0.1-0.1,0.1-0.1,0.2s-0.1,0-0.2,0c-0.1,0-0.2,0-0.3,0
			c-0.1,0-0.2,0-0.3,0c-0.1,0-0.1,0-0.2,0c0,0-0.1,0-0.1-0.1c0,0,0-0.1,0-0.1v-9.1c0,0,0-0.1,0-0.1c0,0,0,0,0.1-0.1c0,0,0.1,0,0.2,0
			c0.1,0,0.2,0,0.3,0c0.1,0,0.2,0,0.3,0c0.1,0,0.1,0,0.2,0s0.1,0,0.1,0.1c0,0,0,0.1,0,0.1V92.4z"/>
		<path class="st3" d="M78.4,84.2c0,0.3,0,0.4-0.2,0.5c-0.1,0.1-0.3,0.1-0.6,0.1c-0.3,0-0.4,0-0.5-0.1c-0.1-0.1-0.1-0.3-0.1-0.5
			c0-0.3,0.1-0.4,0.2-0.5c0.1-0.1,0.3-0.1,0.6-0.1c0.3,0,0.4,0,0.5,0.1C78.4,83.7,78.4,83.9,78.4,84.2z M78.3,92.4
			C78.3,92.4,78.3,92.5,78.3,92.4c0,0.1-0.1,0.1-0.1,0.2s-0.1,0-0.2,0c-0.1,0-0.2,0-0.3,0c-0.1,0-0.2,0-0.3,0c-0.1,0-0.1,0-0.2,0
			c0,0-0.1,0-0.1-0.1c0,0,0-0.1,0-0.1v-6.2c0,0,0-0.1,0-0.1c0,0,0,0,0.1-0.1c0,0,0.1,0,0.2,0c0.1,0,0.2,0,0.3,0c0.1,0,0.2,0,0.3,0
			c0.1,0,0.1,0,0.2,0s0.1,0,0.1,0.1c0,0,0,0.1,0,0.1V92.4z"/>
		<path class="st3" d="M83.6,91.9c0,0.1,0,0.2,0,0.3c0,0.1,0,0.1-0.1,0.2c0,0-0.1,0.1-0.2,0.1c-0.1,0-0.2,0.1-0.2,0.1
			c-0.1,0-0.2,0-0.3,0.1c-0.1,0-0.2,0-0.3,0c-0.3,0-0.6,0-0.8-0.1c-0.2-0.1-0.4-0.2-0.6-0.4c-0.1-0.2-0.3-0.4-0.3-0.7
			c-0.1-0.3-0.1-0.6-0.1-0.9V87h-0.9c-0.1,0-0.1,0-0.2-0.1s-0.1-0.2-0.1-0.4c0-0.1,0-0.2,0-0.2c0-0.1,0-0.1,0-0.1c0,0,0-0.1,0.1-0.1
			c0,0,0.1,0,0.1,0h0.9v-1.5c0,0,0-0.1,0-0.1c0,0,0-0.1,0.1-0.1c0,0,0.1,0,0.2,0c0.1,0,0.2,0,0.3,0c0.1,0,0.2,0,0.3,0
			c0.1,0,0.1,0,0.2,0c0,0,0.1,0,0.1,0.1c0,0,0,0.1,0,0.1v1.5h1.6c0,0,0.1,0,0.1,0c0,0,0.1,0,0.1,0.1c0,0,0,0.1,0,0.1
			c0,0.1,0,0.1,0,0.2c0,0.2,0,0.3-0.1,0.4S83.4,87,83.3,87h-1.6v3.4c0,0.4,0.1,0.7,0.2,1c0.1,0.2,0.3,0.3,0.7,0.3c0.1,0,0.2,0,0.3,0
			c0.1,0,0.2,0,0.2-0.1c0.1,0,0.1,0,0.2-0.1c0,0,0.1,0,0.1,0c0,0,0,0,0.1,0c0,0,0,0,0,0.1c0,0,0,0.1,0,0.1
			C83.6,91.8,83.6,91.9,83.6,91.9z"/>
		<path class="st3" d="M89.5,92.4c0,0.1,0,0.1-0.1,0.1c0,0-0.1,0-0.2,0.1c-0.1,0-0.2,0-0.3,0c-0.1,0-0.2,0-0.3,0
			c-0.1,0-0.1,0-0.2-0.1c0,0,0-0.1,0-0.1v-0.6c-0.3,0.3-0.6,0.5-0.9,0.7c-0.3,0.2-0.7,0.2-1,0.2c-0.3,0-0.6,0-0.9-0.1
			c-0.3-0.1-0.5-0.2-0.7-0.4s-0.3-0.4-0.4-0.6s-0.2-0.5-0.2-0.8c0-0.3,0.1-0.6,0.2-0.9c0.1-0.3,0.3-0.5,0.6-0.6
			c0.3-0.2,0.6-0.3,1-0.4c0.4-0.1,0.8-0.1,1.3-0.1h0.8v-0.5c0-0.2,0-0.4-0.1-0.6c-0.1-0.2-0.1-0.3-0.2-0.5c-0.1-0.1-0.3-0.2-0.4-0.3
			c-0.2-0.1-0.4-0.1-0.7-0.1c-0.3,0-0.5,0-0.7,0.1c-0.2,0.1-0.4,0.1-0.6,0.2c-0.2,0.1-0.3,0.2-0.4,0.2c-0.1,0.1-0.2,0.1-0.2,0.1
			c0,0-0.1,0-0.1,0s-0.1,0-0.1-0.1s0-0.1,0-0.1c0-0.1,0-0.1,0-0.2c0-0.1,0-0.2,0-0.3c0-0.1,0.1-0.1,0.1-0.2s0.2-0.1,0.3-0.2
			c0.2-0.1,0.3-0.2,0.5-0.2c0.2-0.1,0.4-0.1,0.6-0.2c0.2,0,0.5-0.1,0.7-0.1c0.4,0,0.8,0,1.1,0.2c0.3,0.1,0.6,0.2,0.8,0.4
			c0.2,0.2,0.3,0.4,0.4,0.7c0.1,0.3,0.1,0.6,0.1,1V92.4z M87.7,84.8c0,0,0.1,0.1,0.1,0.1c0,0,0,0.1,0,0.1c0,0-0.1,0-0.1,0.1
			c-0.1,0-0.1,0-0.2,0c-0.1,0-0.2,0-0.2,0c-0.1,0-0.1,0-0.2,0c0,0-0.1,0-0.1-0.1c0,0-0.1-0.1-0.1-0.1l-1.2-1.6c0,0-0.1-0.1-0.1-0.1
			c0,0,0-0.1,0-0.1c0,0,0.1-0.1,0.2-0.1c0.1,0,0.2,0,0.3,0c0.1,0,0.2,0,0.3,0s0.1,0,0.2,0c0,0,0.1,0,0.1,0.1c0,0,0.1,0.1,0.1,0.1
			L87.7,84.8z M88.4,89.6h-1c-0.3,0-0.6,0-0.8,0.1c-0.2,0.1-0.4,0.1-0.6,0.2c-0.2,0.1-0.3,0.2-0.3,0.4c-0.1,0.1-0.1,0.3-0.1,0.5
			c0,0.3,0.1,0.6,0.3,0.8c0.2,0.2,0.5,0.3,0.9,0.3c0.3,0,0.6-0.1,0.8-0.2s0.5-0.4,0.8-0.7V89.6z"/>
	</g>
	<g class="st0">
		<defs>
			<rect id="SVGID_7_" x="-0.2" y="5.5" width="119.9" height="108.6"/>
		</defs>
		<clipPath id="SVGID_8_">
			<use xlink:href="#SVGID_7_"  style="overflow:visible;"/>
		</clipPath>
		<path class="st4" d="M48.4,42.2c0.5-0.7,0.9-1.2,1.3-1.8c1-1,2.2-1.7,3.5-2c1.6-0.4,3.2-0.3,4.8,0.2c2.5,0.8,3.9,2.6,4.4,5
			c0.3,1.2,0.4,2.5,0.4,3.8c0,3.9,0,7.8,0,11.8v0.9c-0.7,0.2-3.3,0.3-4.7,0.1c0-0.3-0.1-0.7-0.1-1c0-4.2,0-8.5,0-12.7
			c0-0.7,0-1.4-0.2-2c-0.3-1.3-1.2-2.2-2.6-2.5c-0.9-0.2-1.7-0.1-2.5,0.1c-1.5,0.4-2.6,2.1-2.6,3.5c0,0.4,0,0.8,0,1.1
			c0,4.1,0,8.3,0,12.4v0.9c-0.6,0.2-3.2,0.3-4.7,0.1c0-0.3-0.1-0.6-0.1-1c0-4.4,0-8.7,0-13.1c0-0.7-0.1-1.3-0.3-2
			c-0.3-1.3-1.2-1.9-2.5-2.2c-1.7-0.4-3,0.2-4.2,1.3c-0.2,0.2-0.4,0.4-0.6,0.6c-0.3,0.2-0.4,0.5-0.4,0.9c0,0.5,0,1,0,1.5
			c0,4.3,0,8.6,0,12.9c0,0.3,0,0.7,0,1.1h-4.6c-0.2-0.7-0.2-20.8,0-21.7c1-0.1,2-0.1,3,0c0.4,0,0.7,0.3,0.8,0.7
			c0.1,0.3,0.2,0.7,0.3,1c0.1,0.2,0.1,0.5,0.2,0.8c0.8-0.6,1.5-1.3,2.3-1.8c1.9-1.3,4-1.4,6.1-0.5c1.2,0.5,2,1.5,2.6,2.7
			C48.1,41.7,48.2,41.9,48.4,42.2"/>
		<path class="st4" d="M82.2,49.5c-0.1,1.3,0.1,2.6,0.5,3.9c0.6,1.7,1.7,3,3.6,3.4c1.1,0.2,2.2,0.2,3.4,0c1.3-0.3,2.3-1,2.9-2.2
			c0.3-0.6,0.5-1.2,0.7-1.8c0.5-1.4,0.3-2.8,0.4-4.2c0-1.4-0.3-2.7-0.9-4c-0.4-0.8-0.9-1.5-1.7-1.9c-1.2-0.8-2.6-0.9-3.9-0.7
			c-1.9,0.2-3.3,1.1-4.1,2.9C82.3,46.3,82.1,47.8,82.2,49.5 M88,60.7c-2.6-0.1-4.8-0.6-6.8-2.1c-1.4-1.1-2.5-2.5-3.2-4.2
			c-0.7-1.7-0.9-3.4-0.9-5.1c0.1-2.5,0.6-4.8,2-6.9c1.7-2.3,3.9-3.6,6.8-4c1.8-0.3,3.6-0.1,5.4,0.4c1.6,0.5,3,1.3,4.2,2.6
			c1.8,1.9,2.6,4.1,2.8,6.6c0.2,2,0,3.9-0.5,5.8c-0.4,1.4-1.1,2.6-2.1,3.7c-1.6,1.8-3.7,2.8-6.1,3.1C89.1,60.6,88.5,60.7,88,60.7"/>
		<path class="st4" d="M72.8,60.3h-4.4c-0.2-0.7-0.2-20.6,0-21.7c0.2,0,0.4-0.1,0.7-0.1c0.9,0,1.8,0,2.7,0c1.1,0,1.1,0,1.1,1.1
			c0,1.7,0,3.5,0,5.2c0,4.8,0,9.5,0,14.3V60.3z"/>
		<path class="st4" d="M24.6,39.1c1.1,0,2.1-0.1,3.1,0c-0.2,0.8-0.3,1.6-0.5,2.4c-0.6,2.8-1.2,5.6-1.8,8.4c-0.4,1.7-0.7,3.4-1,5
			c-0.1,0.7-0.3,1.5,0.3,2.2c0.2,0.2,0.4,0.4,0.7,0.5c0.6,0.1,1.3,0.4,2,0.1c0.1,0,0.2,0,0.4,0c0.1,0.8-0.2,1.5-0.4,2.2
			c0,0.1-0.3,0.3-0.5,0.3c-1.4,0.3-2.7,0.3-4-0.3c-1.2-0.6-2.1-2.5-1.8-3.8c0.4-2.1,0.9-4.3,1.3-6.4c0.6-3.1,1.3-6.2,1.9-9.2
			C24.4,40.1,24.5,39.6,24.6,39.1"/>
		<path class="st4" d="M70.5,29.1c1.7,0,3,1.4,3,3.1c0,1.8-1.5,3-3.1,3c-1.4,0-3.1-1.6-3-3C67.5,30.2,68.8,29,70.5,29.1"/>
		<path class="st4" d="M29.8,31.5c0,1.3-0.8,2.1-2,2.1c-1.4,0-2.2-1.2-2.2-2.2c0-1,1.1-2,2.3-2C29,29.4,29.8,30.3,29.8,31.5"/>
	</g>
</g>
</svg>
