<?xml version="1.0" encoding="UTF-8" standalone="no"?><!DOCTYPE svg PUBLIC "-//W3C//DTD SVG 1.1//EN" "http://www.w3.org/Graphics/SVG/1.1/DTD/svg11.dtd"><svg width="100%" height="100%" viewBox="0 0 3125 2084" version="1.1" xmlns="http://www.w3.org/2000/svg" xmlns:xlink="http://www.w3.org/1999/xlink" xml:space="preserve" xmlns:serif="http://www.serif.com/" style="fill-rule:evenodd;clip-rule:evenodd;stroke-linejoin:round;stroke-miterlimit:2;"><g><path d="M1870.67,429.412c-69.434,-44.674 -168.613,-38.329 -241.779,-6.504c-43.838,19.071 -82.83,49.042 -112.859,86.209c-33.742,41.762 -45.271,95.212 -73.221,140.841c-40.875,66.721 -110.971,119.071 -189.95,127.746c-75.6,8.3 -147.358,-21.946 -217.012,-46.742c-75.188,-26.77 -148.742,-41.52 -228.896,-36.758c-116.287,6.908 -228.658,61.85 -285.121,167.3c-29.654,55.375 -40.158,118.933 -33.862,181.158c8.92,88.163 92.454,156.85 67,249.555c-19.9,72.466 -90.504,119.504 -122.913,187.308c-31.308,65.504 -23.158,146.537 23.834,202.467c43.508,51.779 116.837,76.516 182.816,61.675l2020.56,-0c50.704,-0.005 77.041,-57.625 93.854,-97.05c38.833,-91.071 59.054,-191.325 47.512,-290.346c-8.462,-72.646 -34.25,-153.608 -90.892,-202.809c-49.049,-42.6 -107.762,-53.016 -169.858,-62.441c-118.412,-17.975 -150.558,-102.229 -145.625,-213.313c4.617,-104.033 36.896,-247.958 -76.025,-308.133c-28.537,-15.208 -62.3,-18.246 -94.408,-14.433c-59.821,7.108 -115.059,39.25 -176.8,25.979c-62.971,-13.533 -97.288,-71.725 -136.458,-117.025c-11.925,-13.792 -25.351,-25.321 -39.896,-34.684Z" style="fill:#e7f3fe;fill-opacity:0.73;fill-rule:nonzero;"/><rect x="1298.95" y="1715.95" width="504.217" height="23.596" style="fill:#a1acd7;fill-rule:nonzero;"/><path d="M2171.29,1484.33l-1232.44,0l-0,-637.35c-0,-29.187 23.662,-52.85 52.85,-52.85l1126.75,0c29.187,0 52.846,23.663 52.846,52.85l-0,637.35Z" style="fill:#005fd3;fill-opacity:0.76;fill-rule:nonzero;"/><path d="M2118.66,1602.46l-1127.19,0c-29.062,0 -52.629,-23.558 -52.629,-52.629l-0,-65.5l1232.44,0l-0,65.504c-0,29.067 -23.559,52.625 -52.625,52.625Z" style="fill:#939dcf;fill-rule:nonzero;"/><rect x="984.321" y="833.971" width="1141.5" height="607.608" style="fill:#cacde7;fill-rule:nonzero;"/><rect x="1442.27" y="1529" width="227.942" height="28.55" style="fill:#005fd3;fill-opacity:0.76;fill-rule:nonzero;"/><path d="M1708.11,1715.95l-306.083,-0l16.1,-113.488l273.888,0l16.095,113.488Z" style="fill:#8997cc;fill-rule:nonzero;"/><path d="M1660.05,1441.97l-134.867,-0l-0.233,-0.392l134.867,0l0.233,0.392Zm-365.584,-608l-134.87,-0l-1.525,-2.538l134.87,0l1.525,2.538Z" style="fill:#aba0ce;fill-rule:nonzero;"/><path d="M1659.81,1441.58l-134.867,0l-365.354,-607.608l134.87,-0l365.351,607.608Z" style="fill:#e7eaf6;fill-rule:nonzero;"/><path d="M1952.17,1441.97l-134.875,-0l-0.233,-0.392l134.87,0l0.238,0.392Zm-365.592,-608l-134.866,-0l-1.525,-2.538l134.866,0l1.525,2.538Z" style="fill:#aba0ce;fill-rule:nonzero;"/><path d="M1951.93,1441.58l-134.87,0l-365.35,-607.608l134.866,-0l365.354,607.608Z" style="fill:#e7eaf6;fill-rule:nonzero;"/><rect x="445.6" y="1739.54" width="2246.57" height="25.546" style="fill:#4350a2;fill-rule:nonzero;"/><path d="M1948.83,1021.26l-521.537,0c-17.096,0 -31.083,13.988 -31.083,31.088l-0,262.492c-0,17.095 13.987,31.083 31.083,31.083l521.537,-0c17.096,-0 31.088,-13.988 31.088,-31.083l-0,-262.492c-0,-17.1 -13.992,-31.088 -31.088,-31.088Z" style="fill:#005fd3;fill-opacity:0.76;fill-rule:nonzero;"/><rect x="1416.07" y="1074.8" width="543.988" height="250.404" style="fill:#dbdef0;fill-rule:nonzero;"/><rect x="1438.52" y="1112.78" width="220.567" height="8.638" style="fill:#fff;fill-rule:nonzero;"/><rect x="1438.52" y="1133.51" width="220.567" height="8.633" style="fill:#fff;fill-rule:nonzero;"/><rect x="1438.52" y="1154.23" width="220.567" height="8.633" style="fill:#fff;fill-rule:nonzero;"/><rect x="1438.52" y="1174.95" width="220.567" height="8.637" style="fill:#fff;fill-rule:nonzero;"/><rect x="1438.52" y="1195.68" width="220.567" height="8.633" style="fill:#fff;fill-rule:nonzero;"/><rect x="1438.52" y="1232.81" width="107.679" height="8.633" style="fill:#fff;fill-rule:nonzero;"/><rect x="1438.52" y="1247.22" width="107.679" height="8.633" style="fill:#fff;fill-rule:nonzero;"/><rect x="1438.52" y="1261.63" width="107.679" height="8.633" style="fill:#fff;fill-rule:nonzero;"/><rect x="1438.52" y="1276.05" width="107.679" height="8.633" style="fill:#fff;fill-rule:nonzero;"/><rect x="1551.41" y="1232.81" width="107.679" height="8.633" style="fill:#fff;fill-rule:nonzero;"/><rect x="1551.41" y="1247.22" width="107.679" height="8.633" style="fill:#fff;fill-rule:nonzero;"/><rect x="1551.41" y="1261.63" width="107.679" height="8.633" style="fill:#fff;fill-rule:nonzero;"/><rect x="1551.41" y="1276.05" width="107.679" height="8.633" style="fill:#fff;fill-rule:nonzero;"/><path d="M1446.73,1051.05c-0,4.533 -3.671,8.204 -8.204,8.204c-4.529,0 -8.204,-3.671 -8.204,-8.204c-0,-4.529 3.675,-8.2 8.204,-8.2c4.533,-0 8.204,3.671 8.204,8.2Z" style="fill:#9ec8ff;fill-rule:nonzero;"/><path d="M1481.7,1051.05c-0,4.533 -3.671,8.204 -8.204,8.204c-4.53,0 -8.204,-3.671 -8.204,-8.204c-0,-4.529 3.674,-8.2 8.204,-8.2c4.533,-0 8.204,3.671 8.204,8.2Z" style="fill:#9ec8ff;fill-rule:nonzero;"/><path d="M1516.67,1051.05c-0,4.533 -3.675,8.204 -8.204,8.204c-4.53,0 -8.201,-3.671 -8.201,-8.204c0,-4.529 3.671,-8.2 8.201,-8.2c4.529,-0 8.204,3.671 8.204,8.2Z" style="fill:#9ec8ff;fill-rule:nonzero;"/><rect x="1706.2" y="1100.7" width="79.442" height="193.417" style="fill:#9ec8ff;fill-rule:nonzero;"/><rect x="1821.9" y="1105.88" width="79.438" height="96.712" style="fill:#0babff;fill-rule:nonzero;"/><rect x="1821.9" y="1216.4" width="79.438" height="70.271" style="fill:#0babff;fill-rule:nonzero;"/><path d="M2547.08,1159.34l-158.654,0c-22.121,0 -40.058,17.934 -40.058,40.055l-0,387.158c-0,22.121 17.937,40.058 40.058,40.058l158.654,0c22.121,0 40.055,-17.937 40.055,-40.058l-0,-387.158c-0,-22.121 -17.934,-40.055 -40.055,-40.055Z" style="fill:#005fd3;fill-opacity:0.76;fill-rule:nonzero;"/><rect x="2358.17" y="1198.51" width="219.179" height="383.087" style="fill:#dedef0;fill-rule:nonzero;"/><rect x="2440.71" y="1178.92" width="54.092" height="4.667" style="fill:#585ba8;fill-rule:nonzero;"/><path d="M2482.48,1602.55c0,8.133 -6.591,14.725 -14.725,14.725c-8.133,0 -14.729,-6.592 -14.729,-14.725c0,-8.133 6.596,-14.725 14.729,-14.725c8.134,0 14.725,6.592 14.725,14.725Z" style="fill:#9ec8ff;fill-rule:nonzero;"/><rect x="2389.29" y="1273.3" width="51.421" height="233.5" style="fill:#0babff;fill-rule:nonzero;"/><rect x="2475.53" y="1293.16" width="73.942" height="73.942" style="fill:#fff;fill-rule:nonzero;"/><rect x="2475.53" y="1408.54" width="73.942" height="73.942" style="fill:#fff;fill-rule:nonzero;"/><path d="M2224.92,1313.83l-177.746,0c-17.5,0 -31.812,14.317 -31.812,31.817l-0,177.746c-0,17.5 14.312,31.816 31.812,31.816l177.746,0c17.504,0 31.817,-14.316 31.817,-31.816l-0,-177.746c-0,-17.5 -14.313,-31.817 -31.817,-31.817Z" style="fill:#005fd3;fill-opacity:0.76;fill-rule:nonzero;"/><rect x="2034.41" y="1361.76" width="203.275" height="167.804" style="fill:#0babff;fill-rule:nonzero;"/><path d="M2162.45,1409.52c0,14.966 -12.133,27.1 -27.1,27.1c-14.962,-0 -27.1,-12.134 -27.1,-27.1c0,-14.967 12.138,-27.1 27.1,-27.1c14.967,-0 27.1,12.133 27.1,27.1Z" style="fill:#fff;fill-rule:nonzero;"/><path d="M2187.31,1511.6l-102.516,0l-0,-24.666c-0,-25.046 20.304,-45.359 45.35,-45.359l11.808,0c25.054,0 45.358,20.313 45.358,45.359l0,24.666Z" style="fill:#fff;fill-rule:nonzero;"/><path d="M2046.5,1338.94c0,3.333 -2.704,6.041 -6.046,6.041c-3.337,0 -6.041,-2.708 -6.041,-6.041c-0,-3.342 2.704,-6.046 6.041,-6.046c3.342,-0 6.046,2.704 6.046,6.046Z" style="fill:#9ec8ff;fill-rule:nonzero;"/><path d="M2068.93,1338.94c0,3.333 -2.704,6.041 -6.046,6.041c-3.337,0 -6.041,-2.708 -6.041,-6.041c-0,-3.342 2.704,-6.046 6.041,-6.046c3.342,-0 6.046,2.704 6.046,6.046Z" style="fill:#9ec8ff;fill-rule:nonzero;"/><path d="M2091.37,1338.94c-0,3.333 -2.709,6.041 -6.042,6.041c-3.342,0 -6.05,-2.708 -6.05,-6.041c0,-3.342 2.708,-6.046 6.05,-6.046c3.333,-0 6.042,2.704 6.042,6.046Z" style="fill:#9ec8ff;fill-rule:nonzero;"/><path d="M381.446,1337.73c-18.579,4.934 -37.638,-6.129 -42.571,-24.708c-4.938,-18.579 6.125,-37.637 24.704,-42.575c18.579,-4.933 37.642,6.129 42.575,24.708c4.934,18.579 -6.129,37.638 -24.708,42.575Zm69.908,-32.608l30.671,-8.146l-10.904,-41.05l-30.671,8.146c-3.238,-5.5 -7.092,-10.521 -11.458,-14.996l15.929,-27.45l-36.738,-21.321l-15.929,27.45c-6.05,-1.57 -12.325,-2.425 -18.704,-2.504l-8.146,-30.675l-41.054,10.904l8.146,30.675c-5.5,3.234 -10.521,7.092 -14.996,11.459l-27.45,-15.934l-21.317,36.742l27.45,15.925c-1.57,6.05 -2.425,12.325 -2.508,18.704l-30.671,8.146l10.904,41.054l30.671,-8.146c3.238,5.5 7.092,10.521 11.458,14.996l-15.933,27.446l36.742,21.325l15.929,-27.45c6.05,1.571 12.321,2.425 18.704,2.504l8.146,30.671l41.054,-10.904l-8.15,-30.671c5.504,-3.233 10.525,-7.092 14.996,-11.458l27.45,15.929l21.321,-36.738l-27.45,-15.925c1.571,-6.05 2.429,-12.325 2.508,-18.708Z" style="fill:#9ec8ff;fill-opacity:0.56;fill-rule:nonzero;"/><path d="M2684.32,840.508c-38.971,10.355 -78.959,-12.85 -89.309,-51.825c-10.354,-38.971 12.855,-78.958 51.826,-89.308c38.974,-10.35 78.958,12.854 89.312,51.825c10.35,38.975 -12.854,78.958 -51.829,89.308Zm146.637,-68.391l64.338,-17.088l-22.871,-86.116l-64.342,17.087c-6.783,-11.542 -14.875,-22.075 -24.029,-31.454l33.413,-57.584l-77.067,-44.716l-33.412,57.579c-12.688,-3.296 -25.846,-5.092 -39.234,-5.258l-17.092,-64.342l-86.112,22.875l17.088,64.333c-11.542,6.792 -22.071,14.879 -31.455,24.038l-57.579,-33.417l-44.725,77.071l57.583,33.412c-3.291,12.688 -5.091,25.846 -5.258,39.234l-64.342,17.087l22.875,86.117l64.338,-17.087c6.787,11.537 14.875,22.07 24.033,31.454l-33.416,57.579l77.066,44.721l33.417,-57.58c12.687,3.292 25.846,5.092 39.233,5.259l17.088,64.337l86.112,-22.871l-17.083,-64.337c11.538,-6.792 22.071,-14.879 31.454,-24.033l57.579,33.412l44.721,-77.066l-57.579,-33.413c3.292,-12.688 5.092,-25.846 5.258,-39.233Z" style="fill:#9ec8ff;fill-opacity:0.62;fill-rule:nonzero;"/><path d="M2378.2,1061.96c-22.966,6.105 -46.529,-7.571 -52.629,-30.537c-6.1,-22.971 7.575,-46.529 30.542,-52.629c22.962,-6.1 46.529,7.57 52.629,30.537c6.1,22.967 -7.579,46.529 -30.542,52.629Zm86.409,-40.304l37.912,-10.071l-13.475,-50.745l-37.917,10.07c-3.996,-6.8 -8.762,-13.008 -14.158,-18.537l19.692,-33.929l-45.417,-26.354l-19.688,33.933c-7.479,-1.942 -15.237,-3.004 -23.12,-3.104l-10.071,-37.913l-50.746,13.479l10.067,37.913c-6.8,4.004 -13.005,8.766 -18.534,14.162l-33.933,-19.687l-26.354,45.412l33.933,19.692c-1.941,7.475 -3,15.229 -3.1,23.121l-37.912,10.066l13.479,50.751l37.912,-10.071c4,6.804 8.767,13.008 14.163,18.533l-19.692,33.933l45.413,26.355l19.696,-33.934c7.475,1.942 15.229,3 23.116,3.096l10.071,37.917l50.746,-13.475l-10.071,-37.917c6.8,-4 13.004,-8.767 18.533,-14.158l33.934,19.687l26.354,-45.412l-33.929,-19.692c1.937,-7.479 2.995,-15.233 3.096,-23.121Z" style="fill:#9ec8ff;fill-rule:nonzero;"/><path d="M2503.73,475.808c-11.737,3.113 -23.775,-3.87 -26.892,-15.604c-3.116,-11.733 3.871,-23.771 15.605,-26.887c11.733,-3.113 23.77,3.87 26.887,15.604c3.117,11.733 -3.871,23.771 -15.6,26.887Zm44.142,-20.591l19.371,-5.142l-6.888,-25.929l-19.367,5.146c-2.045,-3.475 -4.479,-6.646 -7.237,-9.471l10.063,-17.334l-23.205,-13.462l-10.058,17.333c-3.821,-0.987 -7.783,-1.529 -11.812,-1.583l-5.146,-19.367l-25.925,6.884l5.145,19.371c-3.47,2.045 -6.645,4.479 -9.47,7.233l-17.334,-10.058l-13.462,23.199l17.333,10.059c-0.992,3.821 -1.529,7.783 -1.583,11.812l-19.371,5.146l6.887,25.925l19.367,-5.146c2.046,3.475 4.479,6.646 7.238,9.471l-10.063,17.333l23.204,13.463l10.059,-17.333c3.821,0.991 7.783,1.533 11.812,1.583l5.146,19.367l25.925,-6.884l-5.146,-19.366c3.471,-2.046 6.646,-4.484 9.471,-7.238l17.333,10.059l13.467,-23.2l-17.337,-10.059c0.991,-3.821 1.533,-7.783 1.583,-11.812Z" style="fill:#e7f3fe;fill-opacity:0.6;fill-rule:nonzero;"/><path d="M2646.76,612.038c-7.213,-17.688 -24.555,-30.171 -44.834,-30.171c-18.729,-0 -34.941,10.654 -42.996,26.208c-7.308,-15.287 -22.875,-25.879 -40.954,-25.879c-7.362,-0 -14.296,1.792 -20.45,4.904c-11.371,-26.471 -37.666,-45.017 -68.3,-45.017c-10.437,0 -20.358,2.167 -29.371,6.05c-4.083,-56.404 -51.02,-100.929 -108.466,-100.929c-59.63,0 -107.992,47.954 -108.796,107.392c-16.071,-16.838 -38.683,-27.379 -63.796,-27.379c-36.937,-0 -68.533,22.704 -81.696,54.904c-10.012,-8.588 -23,-13.804 -37.229,-13.804c-26.954,-0 -49.496,18.641 -55.596,43.721c-1.058,4.354 -1.679,8.875 -1.679,13.554c-0,10.35 2.788,20.037 7.592,28.416l693.929,0c3.95,-7.012 6.229,-15.091 6.229,-23.716c-0,-6.463 -1.292,-12.617 -3.587,-18.254Z" style="fill:#fff;fill-rule:nonzero;"/><path d="M1341.18,476.492c-6.921,-16.98 -23.571,-28.959 -43.041,-28.959c-17.979,0 -33.546,10.221 -41.279,25.159c-7.017,-14.679 -21.963,-24.846 -39.317,-24.846c-7.071,-0 -13.725,1.721 -19.634,4.708c-10.92,-25.412 -36.162,-43.221 -65.575,-43.221c-10.02,0 -19.545,2.084 -28.195,5.813c-3.917,-54.154 -48.984,-96.9 -104.138,-96.9c-57.241,-0 -103.675,46.041 -104.442,103.1c-15.433,-16.163 -37.141,-26.283 -61.254,-26.283c-35.458,-0 -65.791,21.795 -78.429,52.708c-9.617,-8.242 -22.087,-13.254 -35.746,-13.254c-25.875,-0 -47.52,17.9 -53.375,41.975c-1.016,4.183 -1.612,8.525 -1.612,13.012c-0,9.942 2.675,19.242 7.287,27.288l666.213,-0c3.796,-6.734 5.983,-14.492 5.983,-22.775c0,-6.2 -1.237,-12.113 -3.446,-17.525Z" style="fill:#e7f3fe;fill-opacity:0.68;fill-rule:nonzero;"/><path d="M1158.06,600.35c-6.92,-16.983 -23.574,-28.963 -43.045,-28.963c-17.975,0 -33.546,10.226 -41.275,25.159c-7.017,-14.679 -21.959,-24.846 -39.317,-24.846c-7.071,0 -13.729,1.725 -19.633,4.712c-10.921,-25.416 -36.163,-43.225 -65.575,-43.225c-10.021,0 -19.542,2.084 -28.196,5.809c-3.921,-54.15 -48.983,-96.896 -104.134,-96.896c-57.249,0 -103.683,46.038 -104.449,103.104c-15.43,-16.167 -37.138,-26.287 -61.25,-26.287c-35.463,-0 -65.792,21.8 -78.43,52.712c-9.616,-8.246 -22.087,-13.254 -35.75,-13.254c-25.875,0 -47.516,17.9 -53.371,41.975c-1.016,4.179 -1.612,8.521 -1.612,13.013c-0,9.941 2.675,19.237 7.287,27.283l666.213,-0c3.796,-6.733 5.983,-14.492 5.983,-22.771c0,-6.204 -1.241,-12.113 -3.446,-17.525Z" style="fill:#fff;fill-rule:nonzero;"/><path d="M855.246,1097.75c-6.404,-15.717 -21.813,-26.8 -39.829,-26.8c-16.634,0 -31.038,9.463 -38.192,23.279c-6.496,-13.583 -20.321,-22.987 -36.379,-22.987c-6.546,-0 -12.704,1.592 -18.171,4.358c-10.1,-23.516 -33.458,-39.996 -60.679,-39.996c-9.267,0 -18.079,1.93 -26.083,5.375c-3.626,-50.104 -45.33,-89.658 -96.359,-89.658c-52.971,-0 -95.937,42.6 -96.646,95.4c-14.279,-14.954 -34.366,-24.321 -56.679,-24.321c-32.812,0 -60.875,20.171 -72.571,48.775c-8.896,-7.629 -20.433,-12.262 -33.075,-12.262c-23.946,-0 -43.971,16.562 -49.387,38.837c-0.942,3.871 -1.496,7.888 -1.496,12.042c-0,9.2 2.479,17.8 6.746,25.246l616.45,-0c3.512,-6.23 5.537,-13.413 5.537,-21.071c0,-5.738 -1.146,-11.209 -3.187,-16.217Z" style="fill:#fff;fill-rule:nonzero;"/><path d="M1399.57,521.996c-14.534,3.862 -29.442,-4.792 -33.3,-19.321c-3.859,-14.537 4.791,-29.446 19.325,-33.304c14.529,-3.859 29.441,4.792 33.3,19.325c3.858,14.533 -4.792,29.441 -19.325,33.3Zm54.679,-25.5l23.992,-6.375l-8.53,-32.108l-23.991,6.37c-2.53,-4.304 -5.546,-8.229 -8.963,-11.729l12.463,-21.471l-28.738,-16.675l-12.462,21.471c-4.729,-1.229 -9.638,-1.9 -14.63,-1.962l-6.37,-23.988l-32.109,8.525l6.371,23.992c-4.304,2.529 -8.233,5.546 -11.729,8.962l-21.471,-12.458l-16.679,28.738l21.475,12.458c-1.229,4.729 -1.9,9.637 -1.962,14.629l-23.992,6.371l8.529,32.108l23.992,-6.367c2.529,4.301 5.545,8.23 8.962,11.73l-12.462,21.466l28.737,16.679l12.459,-21.475c4.733,1.23 9.637,1.9 14.629,1.963l6.375,23.992l32.108,-8.529l-6.371,-23.992c4.304,-2.529 8.234,-5.546 11.729,-8.963l21.471,12.463l16.675,-28.738l-21.471,-12.458c1.229,-4.733 1.9,-9.642 1.963,-14.629Z" style="fill:#9ec8ff;fill-rule:nonzero;"/><path d="M661.292,1557.17c-24.821,6.591 -50.288,-8.188 -56.879,-33.009c-6.592,-24.82 8.183,-50.287 33.004,-56.883c24.825,-6.592 50.291,8.187 56.883,33.008c6.592,24.821 -8.187,50.292 -33.008,56.884Zm93.395,-43.563l40.975,-10.883l-14.566,-54.85l-40.979,10.887c-4.321,-7.35 -9.475,-14.058 -15.304,-20.033l21.283,-36.675l-49.083,-28.483l-21.284,36.675c-8.083,-2.1 -16.462,-3.242 -24.987,-3.35l-10.888,-40.979l-54.846,14.566l10.884,40.975c-7.35,4.329 -14.059,9.479 -20.029,15.313l-36.68,-21.284l-28.479,49.084l36.671,21.283c-2.096,8.079 -3.246,16.462 -3.354,24.992l-40.971,10.879l14.567,54.846l40.979,-10.88c4.321,7.346 9.471,14.059 15.304,20.03l-21.283,36.675l49.087,28.483l21.279,-36.675c8.084,2.1 16.463,3.246 24.988,3.35l10.883,40.979l54.85,-14.566l-10.883,-40.98c7.35,-4.32 14.058,-9.475 20.033,-15.308l36.675,21.283l28.484,-49.083l-36.676,-21.279c2.096,-8.084 3.242,-16.463 3.351,-24.992Z" style="fill:#9ec8ff;fill-rule:nonzero;"/><path d="M842.925,777.225l-16.667,-0l0,8.333l16.667,0l0,-8.333Zm-33.333,-0l-16.667,-0l0,8.333l16.667,0l-0,-8.333Zm-33.334,-0l-16.666,-0l-0,8.333l16.666,0l0,-8.333Zm-33.5,8.167l0,16.666l8.334,0l-0,-16.666l-8.334,-0Zm0,33.333l0,16.667l8.334,-0l-0,-16.667l-8.334,-0Zm0,33.333l0,16.667l8.334,-0l-0,-16.667l-8.334,0Zm0,33.334l0,16.666l8.334,0l-0,-16.666l-8.334,-0Zm0,33.333l0,16.667l8.334,-0l-0,-16.667l-8.334,-0Zm0,33.333l0,16.667l8.334,-0l-0,-16.667l-8.334,0Zm0,33.334l0,16.666l8.334,0l-0,-16.666l-8.334,-0Zm0,33.333l0,16.667l8.334,-0l-0,-16.667l-8.334,0Zm0,33.333l0,16.667l8.334,0l-0,-16.667l-8.334,0Zm0,33.334l0,16.666l8.334,0l-0,-16.666l-8.334,-0Zm0,33.333l0,16.667l8.334,-0l-0,-16.667l-8.334,0Zm0,33.333l0,16.667l8.334,0l-0,-16.667l-8.334,0Zm0,33.334l0,16.666l8.334,0l-0,-16.666l-8.334,-0Zm0,33.333l0,16.667l8.334,-0l-0,-16.667l-8.334,0Zm0,33.333l0,16.667l8.334,0l-0,-16.667l-8.334,0Zm0,33.334l0,16.666l8.334,0l-0,-16.666l-8.334,-0Zm0,33.333l0,16.667l8.334,-0l-0,-16.667l-8.334,0Zm0,33.333l0,16.667l8.334,0l-0,-16.667l-8.334,0Zm0,33.334l0,16.666l8.334,0l-0,-16.666l-8.334,-0Zm0,33.333l0,16.667l8.334,-0l-0,-16.667l-8.334,0Zm0,33.333l0,16.667l8.334,0l-0,-16.667l-8.334,0Zm0,33.334l0,16.666l8.334,0l-0,-16.666l-8.334,-0Zm20.313,21.354l16.666,-0l0,-8.333l-16.666,-0l-0,8.333Zm33.333,-0l16.667,-0l-0,-8.333l-16.667,-0l0,8.333Zm33.333,-0l16.667,-0l0,-8.333l-16.667,-0l0,8.333Zm33.334,-0l16.666,-0l0,-8.333l-16.666,-0l-0,8.333Zm33.333,-0l16.667,-0l-0,-8.333l-16.667,-0l0,8.333Zm33.333,-0l9.109,-0l-0,-8.333l-9.109,-0l0,8.333Z" style="fill:#005fd3;fill-opacity:0.76;fill-rule:nonzero;"/><path d="M692.058,1016.21l-16.666,0l-0,8.334l16.666,-0l0,-8.334Zm-33.333,0l-16.667,0l0,8.334l16.667,-0l-0,-8.334Zm-33.333,0l-16.667,0l-0,8.334l16.667,-0l-0,-8.334Zm-33.334,0l-16.666,0l-0,8.334l16.666,-0l0,-8.334Zm-33.333,0l-18.825,0l0,6.18l8.337,-0l0,-2.013l-4.17,-0l-0,4.167l14.658,-0l-0,-8.334Zm-18.825,22.846l0,16.667l8.337,-0l0,-16.667l-8.337,0Zm0,33.334l0,16.666l8.337,0l0,-16.666l-8.337,-0Zm0,33.333l0,16.667l8.337,-0l0,-16.667l-8.337,-0Zm0,33.333l0,16.667l8.337,-0l0,-16.667l-8.337,0Zm0,33.334l0,16.666l8.337,0l0,-16.666l-8.337,-0Zm4.854,36.812l16.667,-0l-0,-8.333l-16.667,-0l0,8.333Zm33.333,-0l16.667,-0l0,-8.333l-16.667,-0l0,8.333Zm33.334,-0l16.666,-0l0,-8.333l-16.666,-0l-0,8.333Zm33.333,-0l16.667,-0l-0,-8.333l-16.667,-0l0,8.333Zm33.333,-0l13.971,-0l0,-8.333l-13.971,-0l0,8.333Z" style="fill:#005fd3;fill-opacity:0.76;fill-rule:nonzero;"/><rect x="678.671" y="1126.05" width="584.858" height="157.971" style="fill:#0babff;fill-rule:nonzero;"/><rect x="852.379" y="1159.5" width="367.183" height="17.362" style="fill:#fff;fill-rule:nonzero;"/><rect x="852.379" y="1194.23" width="367.183" height="17.362" style="fill:#fff;fill-rule:nonzero;"/><rect x="852.696" y="1228.24" width="191.387" height="18.075" style="fill:#fff;fill-rule:nonzero;"/><rect x="713.867" y="1154.45" width="96.779" height="96.779" style="fill:#fff;fill-rule:nonzero;"/><rect x="678.671" y="943.583" width="584.858" height="157.975" style="fill:#9ec8ff;fill-rule:nonzero;"/><rect x="852.379" y="977.038" width="367.183" height="17.362" style="fill:#fff;fill-rule:nonzero;"/><rect x="852.379" y="1011.77" width="367.183" height="17.362" style="fill:#fff;fill-rule:nonzero;"/><rect x="852.696" y="1045.78" width="191.387" height="18.075" style="fill:#fff;fill-rule:nonzero;"/><rect x="713.867" y="971.983" width="96.779" height="96.779" style="fill:#fff;fill-rule:nonzero;"/><path d="M943.012,693.596l0,-16.667l-8.333,0l0,16.667l8.333,-0Zm0,-33.333l0,-16.667l-8.333,-0l0,16.667l8.333,-0Zm-1.925,-26.925l16.667,-0l0,-8.334l-16.667,0l0,8.334Zm33.334,-0l16.666,-0l0,-8.334l-16.666,0l-0,8.334Zm33.333,-0l16.667,-0l-0,-8.334l-16.667,0l0,8.334Zm33.333,-0l16.667,-0l0,-8.334l-16.667,0l0,8.334Zm33.334,-0l16.666,-0l0,-8.334l-16.666,0l-0,8.334Zm33.333,-0l16.667,-0l-0,-8.334l-16.667,0l0,8.334Zm33.333,-0l16.667,-0l0,-8.334l-16.667,0l0,8.334Zm33.334,-0l16.666,-0l0,-8.334l-16.666,0l-0,8.334Zm33.333,-0l16.667,-0l-0,-8.334l-16.667,0l0,8.334Zm33.333,-0l16.667,-0l0,-8.334l-16.667,0l0,8.334Zm33.334,-0l16.666,-0l0,-8.334l-16.666,0l-0,8.334Zm33.333,-0l16.667,-0l-0,-8.334l-16.667,0l0,8.334Zm33.333,-0l16.667,-0l0,-8.334l-16.667,0l0,8.334Zm33.334,-0l16.666,-0l0,-8.334l-16.666,0l-0,8.334Zm33.333,-0l16.667,-0l-0,-8.334l-16.667,0l0,8.334Zm33.333,-0l16.667,-0l0,-8.334l-16.667,0l0,8.334Zm33.334,-0l2.846,-0l-0,5.487l8.333,-0l0,-13.821l-11.179,0l-0,8.334Zm2.846,22.154l-0,16.666l8.333,0l0,-16.666l-8.333,-0Zm-0,33.333l-0,16.667l8.333,-0l0,-16.667l-8.333,-0Zm-0,33.333l-0,16.667l8.333,-0l0,-16.667l-8.333,0Z" style="fill:#4350a2;fill-rule:nonzero;"/><path d="M1571,746.3l-177.746,-0c-17.5,-0 -31.817,14.317 -31.817,31.817l0,177.746c0,17.499 14.317,31.816 31.817,31.816l177.746,0c17.5,0 31.821,-14.317 31.821,-31.816l-0,-177.746c-0,-17.5 -14.321,-31.817 -31.821,-31.817Z" style="fill:#005fd3;fill-opacity:0.76;fill-rule:nonzero;"/><rect x="1380.49" y="794.233" width="203.279" height="167.8" style="fill:#9ec8ff;fill-rule:nonzero;"/><path d="M1508.53,841.983c0,14.967 -12.133,27.1 -27.1,27.1c-14.966,0 -27.096,-12.133 -27.096,-27.1c0,-14.966 12.13,-27.1 27.096,-27.1c14.967,0 27.1,12.134 27.1,27.1Z" style="fill:#fff;fill-rule:nonzero;"/><path d="M1533.39,944.071l-102.521,-0l-0,-24.667c-0,-25.046 20.308,-45.358 45.354,-45.358l11.808,-0c25.054,-0 45.359,20.312 45.359,45.358l-0,24.667Z" style="fill:#fff;fill-rule:nonzero;"/><path d="M1392.58,771.404c0,3.338 -2.708,6.046 -6.046,6.046c-3.337,0 -6.046,-2.708 -6.046,-6.046c0,-3.337 2.709,-6.041 6.046,-6.041c3.338,-0 6.046,2.704 6.046,6.041Z" style="fill:#9ec8ff;fill-rule:nonzero;"/><path d="M1415.01,771.404c0,3.338 -2.708,6.046 -6.045,6.046c-3.338,0 -6.046,-2.708 -6.046,-6.046c-0,-3.337 2.708,-6.041 6.046,-6.041c3.337,-0 6.045,2.704 6.045,6.041Z" style="fill:#9ec8ff;fill-rule:nonzero;"/><path d="M1437.45,771.404c-0,3.338 -2.708,6.046 -6.046,6.046c-3.338,0 -6.046,-2.708 -6.046,-6.046c0,-3.337 2.708,-6.041 6.046,-6.041c3.338,-0 6.046,2.704 6.046,6.041Z" style="fill:#9ec8ff;fill-rule:nonzero;"/><path d="M1022.27,685.217l-152.113,-0c-14.975,-0 -27.229,12.25 -27.229,27.225l0,152.116c0,14.975 12.254,27.225 27.229,27.225l152.113,0c14.975,0 27.229,-12.25 27.229,-27.225l-0,-152.116c-0,-14.975 -12.254,-27.225 -27.229,-27.225Z" style="fill:#005fd3;fill-opacity:0.76;fill-rule:nonzero;"/><rect x="859.229" y="726.233" width="173.963" height="143.604" style="fill:#e5e6f3;fill-rule:nonzero;"/><path d="M869.575,706.7c-0,2.858 -2.317,5.175 -5.171,5.175c-2.858,0 -5.175,-2.317 -5.175,-5.175c0,-2.858 2.317,-5.175 5.175,-5.175c2.854,-0 5.171,2.317 5.171,5.175Z" style="fill:#9ec8ff;fill-rule:nonzero;"/><path d="M888.775,706.7c-0,2.858 -2.317,5.175 -5.175,5.175c-2.858,0 -5.175,-2.317 -5.175,-5.175c0,-2.858 2.317,-5.175 5.175,-5.175c2.858,-0 5.175,2.317 5.175,5.175Z" style="fill:#9ec8ff;fill-rule:nonzero;"/><path d="M907.971,706.7c-0,2.858 -2.317,5.175 -5.175,5.175c-2.854,0 -5.171,-2.317 -5.171,-5.175c-0,-2.858 2.317,-5.175 5.171,-5.175c2.858,-0 5.175,2.317 5.175,5.175Z" style="fill:#9ec8ff;fill-rule:nonzero;"/><path d="M914.613,838.087l-36.513,-36.516l37.012,-37.017l6.209,6.204l-30.813,30.813l30.313,30.308l-6.208,6.208Z" style="fill:#005fd3;fill-opacity:0.76;fill-rule:nonzero;"/><path d="M977.304,838.087l-6.204,-6.208l30.808,-30.808l-30.308,-30.313l6.208,-6.204l36.513,36.517l-37.017,37.016Z" style="fill:#005fd3;fill-opacity:0.76;fill-rule:nonzero;"/><path d="M936.9,836.663l-8.108,-3.359l26.729,-64.521l8.108,3.359l-26.729,64.521Z" style="fill:#005fd3;fill-opacity:0.76;fill-rule:nonzero;"/><path d="M1049.5,716.608l16.666,0l0,-8.333l-16.666,-0l-0,8.333Zm33.333,0l16.667,0l-0,-8.333l-16.667,-0l0,8.333Zm33.333,0l16.667,0l0,-8.333l-16.667,-0l0,8.333Zm33.334,0l16.666,0l0,-8.333l-16.666,-0l-0,8.333Zm33.333,0l16.667,0l-0,-8.333l-16.667,-0l0,8.333Zm33.333,0l16.667,0l0,-8.333l-16.667,-0l0,8.333Zm33.334,0l16.666,0l0,-8.333l-16.666,-0l-0,8.333Zm33.333,0l16.667,0l-0,-8.333l-16.667,-0l0,8.333Zm33.333,0l16.667,0l0,-8.333l-16.667,-0l0,8.333Zm33.334,0l16.666,0l0,-8.333l-16.666,-0l-0,8.333Zm33.333,0l16.667,0l-0,-8.333l-16.667,-0l0,8.333Zm33.333,0l16.667,0l0,-8.333l-16.667,-0l0,8.333Zm33.334,0l16.666,0l0,-8.333l-16.666,-0l-0,8.333Zm33.333,0l16.667,0l-0,-8.333l-16.667,-0l0,8.333Zm33.333,0l16.667,0l0,-8.333l-16.667,-0l0,8.333Zm33.334,0l16.666,0l0,-8.333l-16.666,-0l-0,8.333Zm33.333,0l16.667,0l-0,-8.333l-16.667,-0l0,8.333Zm33.333,0l16.667,0l0,-8.333l-16.667,-0l0,8.333Zm33.334,0l16.666,0l0,-8.333l-16.666,-0l-0,8.333Zm33.333,0l16.667,0l-0,-8.333l-16.667,-0l0,8.333Zm33.333,0l11.225,0l0,-8.333l-11.225,-0l0,8.333Z" style="fill:#005fd3;fill-opacity:0.76;fill-rule:nonzero;"/><g><g opacity="0.9"><g><path d="M1741.69,370.06c-8.172,-0 -14.301,6.639 -14.301,14.3l0,525.548c0,8.172 6.64,14.3 14.301,14.3l525.548,0c8.171,0 14.3,-6.639 14.3,-14.3l0,-525.548c0,-8.172 -6.639,-14.3 -14.3,-14.3l-525.548,-0Z" style="fill:#0062a2;fill-rule:nonzero;"/></g></g><path d="M1889.8,775.584l-0,2.043c-0,0 -0,0.511 -0.511,0.511l-0.511,-0c-0.511,-0 -0.511,-0 -1.532,-0.511c-0.511,-0.511 -1.532,-1.021 -2.554,-1.532c-1.021,-0.511 -2.553,-1.022 -4.086,-1.532c-1.532,-0.511 -3.575,-0.511 -5.618,-0.511c-2.553,-0 -4.596,0.511 -6.639,1.532c-2.043,1.022 -3.575,2.043 -5.108,3.575c-1.532,1.533 -2.553,3.575 -3.064,5.618c-0.511,2.043 -1.022,4.597 -1.022,7.151c0,3.064 0.511,5.618 1.022,7.661c0.511,2.043 2.043,4.086 3.575,5.618c1.532,1.532 3.064,2.554 5.107,3.575c2.043,1.021 4.086,1.021 6.64,1.021c1.532,0 3.064,0 4.086,-0.51c1.532,-0.511 2.554,-1.022 4.086,-1.532l-0,-13.28l-10.726,0c-0.51,0 -0.51,0 -1.021,-0.51c-0,-0.511 -0.511,-1.022 -0.511,-2.043l0,-2.043c0,-0 0,-0.511 0.511,-0.511l15.833,0c0.51,0 0.51,0 0.51,0.511c0,-0 0.511,0.51 0.511,1.021l0,18.387c0,0.51 0,1.021 -0.511,1.532c0,0.511 -0.51,1.021 -1.532,1.021c-0.511,0.511 -1.532,0.511 -2.553,1.022c-1.022,0.511 -2.043,0.511 -3.065,1.021c-1.021,0.511 -2.043,0.511 -3.575,0.511l-3.575,0c-3.575,0 -6.64,-0.511 -9.193,-1.532c-2.554,-1.022 -5.108,-2.554 -7.151,-4.597c-2.043,-2.043 -3.575,-4.596 -4.596,-7.15c-1.022,-2.554 -1.533,-6.129 -1.533,-9.193c0,-3.575 0.511,-6.64 1.533,-9.704c1.021,-3.065 2.553,-5.618 4.596,-7.661c2.043,-2.043 4.086,-3.575 7.151,-4.597c2.553,-1.021 5.618,-1.532 9.193,-1.532c1.532,-0 3.575,-0 5.107,0.511c1.532,0.51 3.065,0.51 4.086,1.021c1.022,0.511 2.043,1.022 3.064,1.532c1.022,0.511 1.533,1.022 1.533,1.022c0.51,0.51 0.51,0.51 0.51,1.021c1.533,1.022 1.533,1.532 1.533,2.043Zm37.283,20.94c0,1.022 0,1.533 -0.51,2.043c-0.511,0.511 -1.022,0.511 -1.533,0.511l-20.94,0c0,1.532 0,3.064 0.511,4.597c0.511,1.532 1.021,2.553 1.532,3.575c1.022,1.021 2.043,1.532 3.065,2.553c1.532,0.511 3.064,1.022 4.596,1.022c1.532,-0 3.065,-0 4.086,-0.511c1.022,-0.511 2.043,-0.511 3.065,-1.021c1.021,-0.511 1.532,-0.511 2.042,-1.022c0.511,-0.51 1.022,-0.51 1.022,-0.51l0.511,-0l0.51,0.51l0,3.575c0,0 0,0.511 -0.51,0.511c-0,0 -0.511,0.511 -1.022,0.511c-0.511,0.511 -1.532,0.511 -2.553,1.021c-1.022,0.511 -2.043,0.511 -3.576,0.511c-1.532,0 -2.553,0.511 -4.086,0.511c-2.553,-0 -4.596,-0.511 -6.639,-1.022c-2.043,-0.51 -3.575,-2.043 -5.107,-3.064c-1.533,-1.532 -2.554,-3.064 -3.065,-5.107l0,-7.661c0,-2.554 0.511,-5.108 1.022,-7.151c0.51,-2.043 1.532,-4.086 3.064,-5.618c1.532,-1.532 3.064,-2.554 4.597,-3.575c2.043,-1.021 4.086,-1.021 6.128,-1.021c2.554,-0 4.597,0.51 6.129,1.021c1.533,1.021 3.065,2.043 4.086,3.064c1.022,1.533 2.043,3.065 2.554,4.597c0.511,2.043 1.021,3.575 1.021,5.618l0,1.532Zm-5.618,-1.532c0,-3.064 -0.51,-5.618 -2.043,-7.15c-1.532,-1.532 -3.575,-2.554 -6.129,-2.554c-1.532,0 -2.553,0.511 -3.575,1.022c-1.021,0.51 -2.043,1.021 -2.553,2.043c-0.511,1.021 -1.533,2.042 -1.533,3.064c-0.51,1.021 -0.51,2.554 -0.51,3.575l16.343,0Zm34.22,10.215c-0,1.532 -0.511,3.064 -1.022,4.086c-0.511,1.021 -1.532,2.553 -2.554,3.064c-1.021,1.022 -2.553,1.532 -4.085,2.043c-1.533,0.511 -3.065,0.511 -5.108,0.511c-1.021,-0 -2.043,-0 -3.064,-0.511c-1.022,-0.511 -2.043,-0.511 -2.554,-0.511c-0.511,0 -1.532,-0.51 -2.043,-1.021c-0.511,-0.511 -1.021,-0.511 -1.021,-1.022c-0.511,0 -0.511,-0.51 -0.511,-1.021l-0,-3.064c-0,-0 -0,-0.511 0.511,-0.511l0.51,-0c0.511,-0 0.511,-0 1.022,0.511c0.511,0.51 1.021,0.51 2.043,1.021c0.511,0.511 1.532,0.511 2.553,1.021c1.022,0.511 2.043,0.511 3.576,0.511c1.021,0 2.043,0 2.553,-0.511c1.022,0 1.533,-0.51 2.043,-1.021c0.511,-0.511 1.022,-1.021 1.532,-1.532c0.511,-0.511 0.511,-1.532 0.511,-2.043c0,-1.022 0,-1.532 -0.511,-2.043c-0.51,-0.511 -1.021,-1.022 -2.042,-1.532c-0.511,-0.511 -1.533,-1.022 -2.554,-1.022c-1.022,-0.511 -2.043,-0.511 -3.065,-1.021c-1.021,-0.511 -2.043,-1.022 -3.064,-1.532c-1.021,-0.511 -1.532,-1.022 -2.554,-2.043c-0.51,-0.511 -1.532,-1.533 -2.043,-2.554c-0.51,-0.511 -0.51,-2.043 -0.51,-3.065c-0,-1.021 -0,-2.553 0.51,-3.575c0.511,-1.021 1.022,-2.043 2.043,-3.064c1.022,-1.022 2.043,-1.532 3.575,-2.043c1.533,-0.511 3.065,-1.021 5.108,-1.021l2.554,-0c1.021,-0 1.532,0.51 2.042,0.51c0.511,0 1.022,0.511 1.533,0.511c0.51,-0 1.021,0.511 1.021,0.511l0.511,0.51l-0,3.576c-0,-0 -0,0.51 -0.511,0.51l-0.511,0c0,0 -0.51,0 -1.021,-0.51c-0.511,-0.511 -1.022,-0.511 -1.532,-1.022c-0.511,-0.511 -1.532,-0.511 -2.043,-1.021c-1.022,-0.511 -2.043,-0.511 -3.065,-0.511c-1.021,-0 -2.043,-0 -2.553,0.511c-0.511,-0 -1.533,0.51 -2.043,1.021c-0.511,0.511 -1.022,1.022 -1.022,1.532c0,0.511 -0.51,1.022 -0.51,2.043c-0,1.022 -0,1.532 0.51,2.043c0.511,0.511 1.022,1.022 2.043,1.532c0.511,0.511 1.532,1.022 2.554,1.022c1.021,0.511 2.043,0.511 3.064,1.021c1.022,0.511 2.043,1.022 3.065,1.533c1.021,0.51 2.043,1.021 2.553,1.532c0.511,0.511 1.533,1.532 2.043,2.553c0.511,1.022 1.533,3.576 1.533,5.108Zm34.73,-23.494c0.51,-0 1.021,-0 1.532,0.511c0.511,0.51 0.511,1.021 0.511,1.532l-0,31.155l-0.511,0.511l-5.108,-0c0,-0 -0.51,-0 -0.51,-0.511l-0,-28.601l-16.344,-0l0,17.365c0,2.043 0.511,3.575 1.022,5.107c0.51,1.021 1.532,1.532 3.575,1.532l1.532,0c0.511,0 1.022,0 1.022,-0.511c0.51,0 0.51,0 1.021,-0.51l1.021,-0l0,3.575c0,0.511 0,0.511 -0.51,1.021c-0,0 -0.511,0.511 -1.022,0.511c-0.51,0 -1.021,0.511 -1.021,0.511c-0.511,-0 -1.022,-0 -1.532,0.511l-1.533,-0c-1.532,-0 -3.064,-0 -4.086,-0.511c-1.021,-0.511 -2.042,-1.022 -3.064,-2.043c-0.511,-1.022 -1.532,-2.043 -1.532,-3.065c-0.511,-1.532 -0.511,-3.064 -0.511,-4.596l0,-18.897l-4.597,-0c-0.51,-0 -0.51,-0 -1.021,-0.511c0,-0.511 -0.511,-1.022 -0.511,-2.043l0,-1.532c0,-0 0,-0.511 0.511,-0.511l5.107,-0l0,-8.172c0,0 0,-0.511 0.511,-0.511l5.107,0c0.511,0 0.511,0 0.511,0.511l0,8.172l20.43,-0Zm2.553,-9.704c0,1.532 -0.51,2.043 -1.021,2.554c-0.511,0.51 -1.532,0.51 -3.065,0.51c-1.532,0 -2.043,0 -2.553,-0.51c-0.511,-0.511 -0.511,-1.533 -0.511,-2.554c0,-1.532 0.511,-2.043 1.021,-2.554c0.511,-0.51 1.533,-0.51 3.065,-0.51c1.532,-0 2.043,-0 2.554,0.51c-0,0 0.51,1.022 0.51,2.554Zm39.327,25.537c0,2.553 -0.511,5.107 -1.021,7.15c-0.511,2.043 -1.533,4.086 -3.065,5.618c-1.532,1.532 -3.064,2.554 -5.107,3.575c-2.043,1.022 -4.597,1.533 -7.151,1.533c-2.553,-0 -4.596,-0.511 -6.639,-1.022c-2.043,-0.511 -3.575,-2.043 -4.597,-3.575c-1.532,-1.532 -2.043,-3.064 -3.064,-5.107c-1.022,-2.043 -1.022,-4.597 -1.022,-7.151c0,-2.553 0.511,-5.107 1.022,-7.15c0.511,-2.043 1.532,-4.086 3.064,-5.618c1.532,-1.532 3.065,-2.554 5.108,-3.575c2.043,-1.022 4.086,-1.532 7.15,-1.532c2.554,-0 4.597,0.51 6.64,1.021c2.042,0.511 3.575,2.043 4.596,3.575c1.532,1.532 2.043,3.065 3.065,5.107c0.51,2.554 1.021,4.597 1.021,7.151Zm-6.129,0.511c0,-1.533 0,-3.065 -0.511,-4.597c-0.51,-1.532 -1.021,-3.065 -1.532,-4.086c-0.51,-1.021 -1.532,-2.043 -3.064,-2.554c-1.532,-0.51 -2.554,-1.021 -4.597,-1.021c-1.532,-0 -3.064,0.511 -4.596,1.021c-1.022,0.511 -2.043,1.533 -3.065,2.554c-1.021,1.021 -1.532,2.554 -1.532,4.086c-0.511,1.532 -0.511,3.064 -0.511,5.107c0,1.532 0,3.575 0.511,5.108c0.511,1.532 1.021,3.064 1.532,4.086c0.511,1.021 1.532,2.042 3.065,2.553c1.532,0.511 2.553,1.022 4.596,1.022c1.532,-0 3.065,-0.511 4.597,-1.022c1.021,-0.511 2.043,-1.532 3.064,-2.553c1.022,-1.022 1.532,-2.554 1.532,-4.086c0.511,-2.043 0.511,-3.576 0.511,-5.618Zm41.37,15.832c-0,0 -0,0.511 -0,0c-0,0.511 -0.511,0.511 -0.511,1.022c0,0.511 -0.511,-0 -1.021,-0l-4.086,-0c-0.511,-0 -0.511,-0 -0.511,-0.511l-0,-18.897c-0,-2.043 -0,-3.065 -0.511,-4.086c-0.51,-1.022 -0.51,-2.043 -1.021,-3.064c-0.511,-1.022 -1.022,-1.533 -2.043,-2.043c-1.022,-0.511 -2.043,-0.511 -3.065,-0.511c-1.532,-0 -3.064,0.511 -4.085,1.532c-1.533,1.022 -3.065,2.554 -4.597,4.597l-0,22.472l-0.511,0.511c-0.511,0.511 -0.511,-0 -1.021,-0l-4.086,-0c-0,-0 -0.511,-0 -0.511,-0.511l0,-32.687l0.511,-0.511c0.511,-0.51 0.511,0 1.021,0l3.575,0c0,0 0.511,0 0.511,0.511l0,4.597c1.532,-2.043 3.575,-3.576 5.108,-4.597c1.532,-1.021 3.575,-1.532 5.107,-1.532c2.043,-0 4.086,0.511 5.107,1.021c1.532,0.511 2.554,1.532 3.575,3.065c1.022,1.021 1.533,2.553 2.043,4.086c0.511,1.532 0.511,3.575 0.511,5.618l0,19.918l0.511,0Zm34.219,0c0,0.511 0,0.511 -0.511,0.511c0,0 -0.51,0 -1.021,0.511l-3.064,-0c-0.511,-0 -0.511,-0 -1.022,-0.511l0,-3.575c-1.532,1.532 -3.064,2.554 -4.597,3.575c-1.532,1.022 -3.575,1.022 -5.107,1.022c-1.532,-0 -3.064,-0 -4.597,-0.511c-1.532,-0.511 -2.553,-1.022 -3.575,-2.043c-1.021,-1.022 -1.532,-2.043 -2.043,-3.065c-0.51,-1.021 -1.021,-2.553 -1.021,-4.085c-0,-1.533 0.511,-3.065 1.021,-4.597c0.511,-1.532 1.533,-2.554 3.065,-3.064c1.532,-1.022 3.064,-1.533 5.107,-2.043c2.043,-0.511 4.086,-0.511 6.64,-0.511l4.086,-0l-0,-2.554c-0,-1.021 -0,-2.043 -0.511,-3.064c-0.511,-1.022 -0.511,-1.532 -1.022,-2.554c-0.51,-0.511 -1.532,-1.021 -2.043,-1.532c-0.51,-0.511 -2.043,-0.511 -3.575,-0.511c-1.532,0 -2.553,0 -3.575,0.511c-1.021,0.511 -2.043,0.511 -3.064,1.021c-1.022,0.511 -1.533,1.022 -2.043,1.022c-0.511,0.511 -1.022,0.511 -1.022,0.511l-0.51,-0c-0,-0 -0.511,-0 -0.511,-0.511l-0,-3.065c-0,-0.51 0.511,-0.51 0.511,-1.021c0.51,-0.511 1.021,-0.511 1.532,-1.022c1.021,-0.51 1.532,-1.021 2.553,-1.021c1.022,-0.511 2.043,-0.511 3.065,-1.021c1.021,-0 2.554,-0.511 3.575,-0.511c2.043,-0 4.086,0.511 5.618,1.021c1.532,0.511 3.065,1.022 4.086,2.043c1.021,1.022 1.532,2.043 2.043,3.575c0.511,1.533 0.511,3.065 0.511,5.108l-0,21.961l1.021,0Zm-5.618,-14.3l-5.107,-0c-1.533,-0 -3.065,-0 -4.086,0.51c-1.022,0.511 -2.043,0.511 -3.065,1.022c-1.021,0.511 -1.532,1.021 -1.532,2.043c-0.511,0.511 -0.511,1.532 -0.511,2.554c0,1.532 0.511,3.064 1.533,4.085c1.021,1.022 2.553,1.533 4.596,1.533c1.532,-0 3.065,-0.511 4.086,-1.022c1.022,-0.511 2.554,-2.043 4.086,-3.575l0,-7.15Zm21.962,-32.687l-0,46.987c-0,0.511 -0.511,0.511 -0.511,1.022c-0,0.511 -0.511,-0 -1.022,-0l-4.085,-0c-0,-0 -0.511,-0 -0.511,-0.511l-0,-47.498c-0,-0 -0,-0.511 0.511,-0.511l5.107,-0c-0,-0 0.511,-0 0.511,0.511Zm37.283,29.622c0,1.022 0,1.533 -0.51,2.043c-0.511,0.511 -1.022,0.511 -1.532,0.511l-20.941,0c0,1.532 0,3.064 0.511,4.597c0.511,1.532 1.022,2.553 1.532,3.575c1.022,1.021 2.043,1.532 3.065,2.553c1.532,0.511 3.064,1.022 4.596,1.022c1.533,-0 3.065,-0 4.086,-0.511c1.022,-0.511 2.043,-0.511 3.065,-1.021c1.021,-0.511 1.532,-0.511 2.043,-1.022c0.51,-0.51 1.021,-0.51 1.021,-0.51l0.511,-0l0.511,0.51l-0,3.575c-0,0 -0,0.511 -0.511,0.511c-0,0 -0.511,0.511 -1.022,0.511c-0.51,0.511 -1.532,0.511 -2.553,1.021c-1.022,0.511 -2.043,0.511 -3.576,0.511c-1.532,0 -2.553,0.511 -4.085,0.511c-2.554,-0 -4.597,-0.511 -6.64,-1.022c-2.043,-0.51 -3.575,-2.043 -5.107,-3.064c-1.533,-1.532 -2.554,-3.064 -3.065,-5.107c-0.511,-2.043 -1.021,-4.597 -1.021,-7.661c-0,-2.554 0.51,-5.108 1.021,-7.151c0.511,-2.043 1.532,-4.086 3.065,-5.618c1.532,-1.532 3.064,-2.554 4.596,-3.575c2.043,-1.021 4.086,-1.021 6.129,-1.021c2.554,-0 4.597,0.51 6.129,1.021c1.532,1.021 3.064,2.043 4.086,3.064c1.021,1.533 2.043,3.065 2.554,4.597c0.51,2.043 1.021,3.575 1.021,5.618l-0,1.532l1.021,0Zm-5.618,-1.532c0,-3.064 -0.51,-5.618 -2.043,-7.15c-1.532,-1.532 -3.575,-2.554 -6.128,-2.554c-1.533,0 -2.554,0.511 -3.576,1.022c-1.021,0.51 -2.043,1.021 -2.553,2.043c-0.511,1.021 -1.532,2.042 -1.532,3.064c-0.511,1.021 -0.511,2.554 -0.511,3.575l16.343,0Z" style="fill:#fff;fill-rule:nonzero;"/><g><path d="M1947,557.5c2.554,-3.575 4.597,-6.129 6.64,-9.193c5.107,-5.108 11.236,-8.683 17.875,-10.215c8.172,-2.043 16.344,-1.532 24.516,1.021c12.768,4.086 19.918,13.279 22.472,25.537c1.532,6.129 2.043,12.768 2.043,19.408l0,64.864c-3.575,1.021 -16.854,1.532 -24.005,0.51c0,-1.532 -0.51,-3.575 -0.51,-5.107l-0,-64.864c-0,-3.575 -0,-7.15 -1.022,-10.214c-1.532,-6.64 -6.129,-11.236 -13.279,-12.769c-4.596,-1.021 -8.682,-0.51 -12.768,0.511c-7.661,2.043 -13.279,10.725 -13.279,17.876l-0,73.546c-3.065,1.021 -16.344,1.532 -24.005,0.511c-0,-1.533 -0.511,-3.065 -0.511,-5.108l0,-66.906c0,-3.575 -0.51,-6.64 -1.532,-10.215c-1.532,-5.107 -5.618,-8.682 -12.258,-10.215c-8.682,-2.043 -15.322,1.022 -21.451,6.64c-1.021,1.021 -2.042,2.043 -3.064,3.064c-1.532,1.022 -2.043,2.554 -2.043,4.597l0,79.164l-23.494,0c-1.021,-3.575 -1.021,-106.233 0,-110.83c5.108,-0.51 10.215,-0.51 15.322,0c2.043,0 3.575,1.532 4.086,3.575c0.511,1.533 1.022,3.576 1.532,5.108c0.511,1.021 0.511,2.553 1.022,4.086c4.086,-3.065 7.661,-6.64 11.747,-9.194c9.704,-6.639 20.429,-7.15 31.155,-2.553c6.129,2.553 10.214,7.661 13.279,13.79c0.511,1.021 1.021,2.043 1.532,3.575" style="fill:#fff;fill-rule:nonzero;"/><path d="M2120.14,594.784c-0.511,6.639 0.51,13.279 2.553,19.918c3.065,8.683 8.683,15.322 18.387,17.365c5.618,1.022 11.236,1.022 17.365,0c6.639,-1.532 11.747,-5.107 14.811,-11.236c1.532,-3.064 2.554,-6.129 3.575,-9.193c2.554,-7.15 1.533,-14.301 2.043,-21.451c0,-7.15 -1.532,-13.79 -4.596,-20.43c-2.043,-4.085 -4.597,-7.661 -8.683,-9.704c-6.129,-4.085 -13.279,-4.596 -19.919,-3.575c-9.704,1.022 -16.854,5.618 -20.94,14.812c-4.086,7.15 -5.618,14.811 -4.596,23.494m29.622,57.202c-13.279,-0.511 -24.515,-3.064 -34.73,-10.725c-7.15,-5.619 -12.257,-13.28 -15.833,-21.962c-3.575,-8.683 -4.596,-17.365 -4.596,-26.048c0.511,-12.768 3.064,-24.515 10.215,-35.24c8.682,-11.747 19.918,-18.387 34.73,-20.43c9.193,-1.532 18.386,-0.511 27.579,2.043c8.172,2.554 15.322,6.64 21.451,13.279c9.194,9.704 13.279,20.94 14.301,33.709c1.021,10.214 -0,19.918 -2.554,29.622c-2.043,7.151 -5.618,13.28 -10.725,18.898c-8.172,9.193 -18.897,14.3 -31.155,15.833c-3.575,0.51 -6.64,1.021 -8.683,1.021" style="fill:#fff;fill-rule:nonzero;"/><path d="M2072.64,649.943l-22.983,0c-1.021,-3.575 -1.021,-105.212 0,-110.83c1.022,0 2.043,-0.51 3.575,-0.51l13.79,-0c5.618,-0 5.618,-0 5.618,5.618l0,105.722Z" style="fill:#fff;fill-rule:nonzero;"/><path d="M1825.45,541.667c5.618,-0 10.725,-0.511 15.833,-0c-1.022,4.086 -1.533,8.172 -2.554,12.258c-3.064,14.3 -6.129,28.601 -9.193,42.901c-2.043,8.683 -3.575,17.365 -5.108,25.537c-0.51,3.575 -1.532,7.661 1.533,11.236c1.021,1.022 2.043,2.043 3.575,2.554c3.064,0.511 6.639,2.043 10.214,0.511l2.043,-0c0.511,4.086 -1.021,7.661 -2.043,11.236c0,0.511 -1.532,1.532 -2.553,1.532c-7.151,1.533 -13.79,1.533 -20.43,-1.532c-6.129,-3.064 -10.725,-12.768 -9.193,-19.408c2.043,-10.725 4.597,-21.962 6.64,-32.687c3.064,-15.833 6.639,-31.666 9.704,-46.988c0.51,-2.043 1.021,-4.596 1.532,-7.15" style="fill:#fff;fill-rule:nonzero;"/><path d="M2060.39,490.593c8.682,0 15.322,7.151 15.322,15.833c-0,9.193 -7.661,15.322 -15.833,15.322c-7.151,0 -15.833,-8.172 -15.322,-15.322c0.51,-10.215 7.15,-16.343 15.833,-15.833" style="fill:#fff;fill-rule:nonzero;"/><path d="M1852.52,502.851c-0,6.64 -4.086,10.725 -10.215,10.725c-7.15,0 -11.236,-6.128 -11.236,-11.236c-0,-5.107 5.618,-10.214 11.747,-10.214c5.618,-0 9.704,4.596 9.704,10.725" style="fill:#fff;fill-rule:nonzero;"/></g></g><path d="M1871.34,934.521c-0.167,0.529 -0.175,0.704 -0.209,0.917c-0.091,0.679 -0.116,1.287 -0.158,2.258c-0.104,2.825 -0.163,8.033 -0.196,14.791l8.333,0.042c0.021,-4.779 0.059,-8.787 0.117,-11.646c0.025,-1.425 0.058,-2.57 0.096,-3.345c0.017,-0.388 0.037,-0.688 0.05,-0.846l0.008,-0.084l0,-0.012l-3.025,-0.4l2.888,0.967c0.154,-0.505 0.125,-0.534 0.137,-0.567l-3.025,-0.4l2.888,0.967l-7.904,-2.642Zm-0.588,34.667c0.004,5.32 0.017,10.966 0.034,16.695l8.333,-0.025c-0.017,-5.725 -0.029,-11.362 -0.034,-16.679l-8.333,0.009Zm0.1,33.387c0.029,5.821 0.059,11.475 0.088,16.692l8.333,-0.05c-0.029,-5.213 -0.058,-10.863 -0.087,-16.679l-8.334,0.037Zm0.192,33.383c0.046,6.975 0.079,11.317 0.079,11.321l8.333,-0.067c0,-0.012 -0.033,-4.337 -0.079,-11.308l-8.333,0.054Z" style="fill:#005fd3;fill-opacity:0.76;fill-rule:nonzero;"/><path d="M1971.39,1204.16l16.667,0l0,-8.333l-16.667,0l0,8.333Zm33.334,0l16.666,0l0,-8.333l-16.666,0l-0,8.333Zm33.333,0l16.667,0l-0,-8.333l-16.667,0l0,8.333Zm33.333,0l3.721,0l0,4.609l8.334,-0l-0,-12.942l-12.055,0l0,8.333Zm3.721,21.275l0,16.667l8.334,0l-0,-16.667l-8.334,0Zm0,33.334l0,16.666l8.334,0l-0,-16.666l-8.334,-0Zm0,33.333l0,16.667l8.334,-0l-0,-16.667l-8.334,0Z" style="fill:#005fd3;fill-opacity:0.76;fill-rule:nonzero;"/><path d="M2136.85,1543.4l-0,16.667l8.333,-0l0,-16.667l-8.333,-0Zm-0,33.333l-0,16.667l8.333,-0l0,-16.667l-8.333,0Zm-0,33.334l-0,16.666l8.333,0l0,-16.666l-8.333,-0Zm-0,33.333l-0,16.667l8.333,-0l0,-16.667l-8.333,-0Zm4.554,37.112l16.667,0l-0,-8.333l-16.667,-0l0,8.333Zm33.334,0l16.666,0l0,-8.333l-16.666,-0l-0,8.333Zm33.333,0l16.667,0l-0,-8.333l-16.667,-0l-0,8.333Zm33.333,0l16.667,0l-0,-8.333l-16.667,-0l0,8.333Zm33.334,0l16.666,0l0,-8.333l-16.666,-0l-0,8.333Zm33.333,0l16.667,0l-0,-8.333l-16.667,-0l-0,8.333Zm33.333,0l16.667,0l-0,-8.333l-16.667,-0l0,8.333Zm33.329,0l16.667,0l-0,-8.333l-16.667,-0l0,8.333Zm33.334,0l16.666,0l0,-8.333l-16.666,-0l-0,8.333Zm33.333,0l16.667,0l-0,-8.333l-16.667,-0l-0,8.333Zm33.333,0l16.667,0l-0,-8.333l-16.667,-0l0,8.333Zm33.334,0l16.666,0l0,-8.333l-16.666,-0l-0,8.333Zm33.333,0l16.667,0l-0,-8.333l-16.667,-0l-0,8.333Zm33.333,0l16.667,0l-0,-8.333l-16.667,-0l0,8.333Zm33.334,0l16.666,0l0,-8.333l-16.666,-0l-0,8.333Zm33.333,0l16.667,0l-0,-8.333l-16.667,-0l-0,8.333Zm33.333,0l16.667,0l-0,-8.333l-16.667,-0l0,8.333Zm33.334,0l16.666,0l0,-8.333l-16.666,-0l-0,8.333Zm21.212,-20.454l0,-16.666l-8.333,-0l-0,16.666l8.333,0Zm0,-33.333l0,-16.667l-8.333,0l-0,16.667l8.333,-0Zm0,-33.333l0,-16.667l-8.333,-0l-0,16.667l8.333,-0Zm0,-33.334l0,-16.667l-8.333,0l-0,16.667l8.333,0Zm0,-33.333l0,-16.667l-8.333,0l-0,16.667l8.333,-0Zm0,-33.334l0,-16.666l-8.333,-0l-0,16.666l8.333,0Zm0,-33.333l0,-16.667l-8.333,0l-0,16.667l8.333,0Zm0,-33.333l0,-17.288l-7.708,0l-0,8.334l3.541,-0l0,-4.167l-4.166,0l-0,13.121l8.333,-0Zm-24.375,-17.288l-16.666,0l-0,8.334l16.666,-0l0,-8.334Zm-33.333,0l-16.667,0l0,8.334l16.667,-0l-0,-8.334Zm-33.333,0l-16.667,0l-0,8.334l16.667,-0l-0,-8.334Zm-33.334,0l-16.666,0l-0,8.334l16.666,-0l0,-8.334Z" style="fill:#005fd3;fill-opacity:0.76;fill-rule:nonzero;"/><path d="M2352.43,1257.47l-16.666,-0l-0,8.333l16.666,0l0,-8.333Zm-33.333,-0l-16.667,-0l0,8.333l16.667,0l-0,-8.333Zm-33.333,-0l-16.667,-0l-0,8.333l16.667,0l-0,-8.333Zm-33.334,-0l-16.666,-0l-0,8.333l16.666,0l0,-8.333Zm-33.333,-0l-16.667,-0l0,8.333l16.667,0l-0,-8.333Zm-14.583,-10.417l-0,-16.667l-8.334,0l0,16.667l8.334,0Zm-0,-33.333l-0,-16.667l-8.334,0l0,16.667l8.334,-0Zm-0,-33.334l-0,-16.666l-8.334,-0l0,16.666l8.334,0Zm-0,-33.333l-0,-16.667l-8.334,0l0,16.667l8.334,0Zm-0,-33.333l-0,-16.667l-8.334,0l0,16.667l8.334,-0Zm-0,-33.334l-0,-16.666l-8.334,-0l0,16.666l8.334,0Zm-0,-33.333l-0,-16.667l-8.334,0l0,16.667l8.334,0Zm-0,-33.333l-0,-16.667l-8.334,-0l0,16.667l8.334,-0Zm-0,-33.334l-0,-16.666l-8.334,-0l0,16.666l8.334,0Zm-0,-33.333l-0,-7.867l-8.334,0l0,7.867l8.334,-0Z" style="fill:#005fd3;fill-opacity:0.76;fill-rule:nonzero;"/><path d="M924.529,1720.09c-8.817,2.616 -18.083,-2.404 -20.704,-11.221c-2.617,-8.813 2.404,-18.083 11.221,-20.704c8.817,-2.621 18.083,2.404 20.704,11.22c2.617,8.817 -2.404,18.084 -11.221,20.705Zm325.738,-363.121l-61.9,-50.125l49.558,-77.883c-30.217,-2.434 -70.179,6.629 -89.625,30.641c-27.7,34.213 -25.292,83.567 2.796,119.425l-258.054,304.813c-11.629,14.362 -9.413,35.433 4.95,47.062c14.358,11.629 35.429,9.417 47.058,-4.95l244.433,-315.712c40.921,20.041 89.75,12.045 117.459,-22.175c19.446,-24.013 17.987,-64.904 9.321,-93.954l-65.996,62.858Z" style="fill:#005fd3;fill-opacity:0.76;fill-rule:nonzero;"/><path d="M910.213,1727.26c-14.363,-11.629 -16.575,-32.7 -4.946,-47.062l258.054,-304.812c-28.088,-35.859 -30.5,-85.217 -2.796,-119.426c10.196,-12.591 27.75,-19.558 42.221,-24.962c-19.304,4.329 -41.446,12.538 -54.446,28.596c-27.704,34.208 -25.292,83.562 2.796,119.425l-258.054,304.812c-11.629,14.359 -9.417,35.43 4.945,47.059c10.684,8.654 25.076,9.633 36.538,3.658c-8.442,0.821 -17.2,-1.529 -24.312,-7.288Z" style="fill:#005fd3;fill-opacity:0.76;fill-rule:nonzero;"/><path d="M1418.12,1602.46l273.888,0l9.162,64.605l-292.117,-0l9.067,-64.605Z" style="fill:#005fd3;fill-opacity:0.76;fill-rule:nonzero;"/></g></svg>