<?xml version="1.0" encoding="UTF-8" standalone="no"?><!DOCTYPE svg PUBLIC "-//W3C//DTD SVG 1.1//EN" "http://www.w3.org/Graphics/SVG/1.1/DTD/svg11.dtd"><svg width="100%" height="100%" viewBox="0 0 16667 10417" version="1.1" xmlns="http://www.w3.org/2000/svg" xmlns:xlink="http://www.w3.org/1999/xlink" xml:space="preserve" xmlns:serif="http://www.serif.com/" style="fill-rule:evenodd;clip-rule:evenodd;stroke-linejoin:round;stroke-miterlimit:2;"><g><path d="M1879.17,813.071c2510.05,-931.774 5061.47,-108.074 6791.63,1686.35c1730.65,1794.42 5361.84,-1238.47 7287.7,553.028c1314.42,1222.41 712.219,4365.81 -1089.99,5727.44c-2449.19,1850.4 -11575.1,1905.9 -13089.1,1271.09c-2587.45,-1085.12 -16.552,-3094.72 -1224.35,-5021.07c-1424.92,-2272.48 215.175,-3804.99 1324.15,-4216.84Z" style="fill:#e7f3fe;fill-opacity:0.65;fill-rule:nonzero;"/><path d="M16009.1,9515.96c-1256.48,-61.339 -5530.77,42.84 -6831.07,83.246c-1299.81,40.407 -2808.95,-53.55 -3592.74,-191.807c-783.781,-138.257 -5314.62,11.684 -5109.18,383.615c205.439,371.931 2018.85,166.492 4074.69,315.946c2056.33,149.454 6680.15,-18.499 7723.41,0c1043.26,18.499 1999.37,-37.485 3343.97,-111.968c1344.6,-74.484 1119.2,-443.494 390.917,-479.032Z" style="fill:#cce2ff;fill-opacity:0.56;fill-rule:nonzero;"/><g><path d="M13283.9,1326.67c4.868,-44.301 7.789,-89.575 7.789,-135.336c-0,-24.341 -0.974,-48.195 -2.434,-72.049l-223.451,-72.537c-13.631,-94.443 -40.893,-184.018 -79.352,-267.751l147.994,-182.558c-34.078,-60.365 -73.51,-117.323 -117.324,-170.874l-223.451,73.023c-65.234,-66.694 -139.717,-124.139 -221.503,-169.9l12.657,-234.647c-62.313,-28.236 -127.547,-51.603 -195.215,-69.129l-137.77,190.347c-53.55,-9.25 -109.048,-13.631 -165.519,-13.631c-38.459,-0 -76.431,2.434 -113.429,6.329l-127.547,-197.65c-68.642,14.118 -134.849,33.591 -198.623,58.906l0.487,235.134c-84.22,41.867 -161.624,95.417 -229.779,158.217l-219.069,-84.707c-46.735,51.116 -89.089,105.64 -126.087,164.058l138.257,189.86c-42.84,81.786 -74.483,169.901 -93.469,263.37l-226.859,60.366c-4.868,44.301 -7.789,89.575 -7.789,135.336c0,24.341 0.974,48.195 2.434,72.05l223.451,72.536c13.631,94.443 40.893,184.018 79.352,267.751l-147.994,182.558c34.078,60.365 73.51,117.323 117.324,170.874l223.45,-73.023c65.234,66.694 139.718,124.139 221.504,169.9l-12.658,234.647c62.313,28.236 127.547,51.603 195.215,69.129l138.257,-190.347c53.551,9.25 109.048,13.631 165.519,13.631c38.459,0 76.431,-2.434 113.43,-6.329l127.547,197.65c68.641,-14.118 134.849,-33.591 198.622,-58.906l-0.486,-235.134c84.219,-41.867 161.624,-95.417 229.779,-158.217l219.069,84.707c46.735,-51.116 89.088,-105.64 126.086,-164.058l-138.257,-189.86c42.841,-81.786 74.484,-169.901 93.47,-263.37l226.372,-60.366Zm-1197.09,337.367c-260.936,-0 -472.216,-211.767 -472.216,-472.703c0,-260.936 211.767,-472.216 472.216,-472.216c260.936,0 472.216,211.767 472.216,472.216c0.487,260.936 -211.28,472.703 -472.216,472.703Z" style="fill:#9ec8ff;fill-opacity:0.5;fill-rule:nonzero;"/><g><path d="M12731.4,1737.06c-5.355,-0 -11.197,-1.948 -15.578,-5.842c-10.223,-8.763 -11.684,-23.854 -2.921,-34.078c117.811,-141.664 182.558,-321.301 182.558,-505.806c-0,-88.115 -14.605,-175.255 -42.84,-258.015c-4.382,-12.657 2.434,-26.775 15.091,-31.156c12.657,-4.382 26.775,2.434 31.157,15.091c30.182,87.628 45.761,180.124 45.761,273.593c-0,195.702 -68.642,386.536 -193.755,536.963c-5.842,6.329 -12.657,9.25 -19.473,9.25Z" style="fill:#fff;fill-rule:nonzero;"/></g><g><path d="M12662.7,621.751c-5.842,-0 -12.171,-2.434 -16.552,-6.816c-79.352,-74.483 -170.874,-130.954 -272.62,-167.953c-12.657,-4.381 -18.986,-18.499 -14.604,-31.156c4.381,-12.657 18.499,-18.986 31.156,-14.605c108.074,38.946 204.952,99.312 289.171,178.177c9.737,9.249 10.224,24.827 0.974,34.564c-4.381,5.355 -11.197,7.789 -17.525,7.789Z" style="fill:#fff;fill-rule:nonzero;"/></g><g><path d="M11903.8,425.075c-10.71,0 -20.933,-7.302 -23.367,-18.499c-3.408,-13.144 4.381,-26.288 17.526,-29.696c67.181,-17.038 136.309,-25.314 206.412,-25.314c13.63,-0 24.341,10.71 24.341,24.341c-0,13.631 -10.711,24.341 -24.341,24.341c-65.721,-0 -130.955,8.276 -194.242,23.854c-2.434,0.487 -4.381,0.973 -6.329,0.973Z" style="fill:#fff;fill-rule:nonzero;"/></g></g><rect x="3768.99" y="-0" width="7528.68" height="4522.07" style="fill:#9ec8ff;fill-opacity:0.5;"/><rect x="4196.44" y="124.707" width="7082.75" height="4151.12" style="fill:#fff;"/><path id="path826" d="M8241.29,2919.36c-302.638,-50.27 -552.883,-92.515 -556.099,-93.878c-4.969,-2.105 -5.688,-69.156 -4.783,-446.119l1.064,-443.642l1124.68,-2.338l-0,539.135c-0,510.562 -0.388,539.112 -7.303,538.688c-4.017,-0.246 -254.917,-41.578 -557.556,-91.847l-0.001,0.001Zm-1116.94,-179.705c-212.312,-34.989 -401.514,-66.074 -420.45,-69.079l-34.429,-5.462l-0,-731.697l863.852,0l0,870.885l-11.476,-0.515c-6.312,-0.282 -185.186,-29.142 -397.497,-64.131l-0,-0.001Zm-454.879,-1354.57c-0,-212.882 1.459,-387.059 3.242,-387.059c1.783,-0 193.689,-31.103 426.458,-69.118c232.77,-38.015 425.677,-69.118 428.685,-69.118c4.471,0 5.467,83.137 5.467,456.178l0,456.177l-863.852,0l-0,-387.06Zm1009.91,-87.549c0,-253.981 1.61,-460.785 3.588,-460.785c1.973,-0 253.88,-41.471 559.794,-92.157c305.914,-50.687 557.821,-92.157 559.795,-92.157c1.981,-0 3.587,247.55 3.587,552.942l0,552.943l-1126.76,-0l0,-460.786Z" style="fill:#9ec8ff;fill-rule:nonzero;"/><g><path d="M10236.4,2270.12c337.367,-321.301 914.249,-313.999 902.079,175.255c-12.171,489.255 28.235,535.016 166.979,792.057c481.952,890.395 -574.448,838.305 -1015.02,867.515c-440.572,29.209 -404.061,-800.82 -326.169,-1260.87c77.891,-460.045 173.308,-479.518 272.132,-573.961Z" style="fill:#303c60;fill-rule:nonzero;"/><path d="M10393.7,5075.67c-108.074,908.893 -304.749,1580.71 -326.656,2011.54c-21.907,430.836 -109.535,2126.92 -109.535,2126.92c0,0 240.976,-17.038 262.883,-53.55c21.907,-36.511 452.743,-993.114 430.836,-1584.6c-21.907,-591.487 430.35,-1490.64 430.35,-1490.64l-109.048,-882.605l-578.83,-127.06Z" style="fill:#4476bd;fill-rule:nonzero;"/><path d="M10497.4,5470.97l-169.413,70.589c-45.762,288.197 -96.878,547.186 -141.665,776.965c269.212,174.282 408.442,754.085 467.834,1108.98c30.183,-396.758 217.609,-876.277 333.959,-1141.59l-490.715,-814.937Z" style="fill:#3e6bab;fill-rule:nonzero;"/><path d="M11279.2,4984.15c-0,0 364.628,465.401 353.431,993.114c-17.525,803.254 -105.153,1033.03 47.222,1875.23c59.392,329.09 -131.441,1405.45 -131.441,1405.45c-0,0 -163.085,12.658 -250.713,-30.669c7.302,-78.865 -105.64,-1365.53 -325.196,-1957.02c-106.127,-286.25 -255.581,-1088.53 -335.906,-1548.58c-80.326,-460.045 -94.93,-554.975 -65.721,-554.975c29.209,-0 708.324,-182.558 708.324,-182.558Z" style="fill:#4476bd;fill-rule:nonzero;"/><path d="M9200.95,3691.64c0,-0 16.065,-240.976 -9.736,-314.973c-25.802,-74.483 -249.739,-139.231 -249.739,-139.231c-0,0 -9.737,344.183 13.144,386.049c22.881,41.867 155.783,162.111 155.783,162.111l90.548,-93.956Z" style="fill:#f09959;fill-rule:nonzero;"/><path d="M10460.4,3516.39c-512.622,552.054 -680.088,784.267 -719.034,784.267c-121.705,-214.687 -525.766,-669.378 -525.766,-669.378l-172.335,110.995c0,0 398.219,1040.82 651.366,1051.53c253.147,10.71 767.716,-358.787 774.045,-401.141c6.328,-42.353 -8.276,-876.276 -8.276,-876.276Z" style="fill:#a2dff2;fill-rule:nonzero;"/><path d="M9925.34,4739.77c250.713,-102.232 538.423,-315.946 543.292,-347.589c6.328,-42.354 -8.276,-875.79 -8.276,-875.79c-111.969,120.244 -209.333,226.858 -294.04,320.327c-92.009,342.235 -86.167,714.653 -240.976,903.052Z" style="fill:#96cfe0;fill-rule:nonzero;"/><path d="M10981.3,3153.22c-0,0 490.715,245.845 597.815,681.062c107.101,435.218 -209.819,973.154 -248.765,1260.38c-38.946,287.224 -934.695,337.366 -934.695,30.182c-0,-294.526 -224.425,-919.603 -211.767,-1079.28c29.696,-373.878 575.908,-831.489 575.908,-831.489l221.504,-60.853Z" style="fill:#a2dff2;fill-rule:nonzero;"/><path d="M10838.6,2588.99l210.794,649.418c-0,0 -224.912,173.795 -609.987,591c15.092,-277.974 247.792,-580.777 247.792,-580.777l-159.19,-613.394l310.591,-46.247Z" style="fill:#f09959;fill-rule:nonzero;"/><path d="M10937,2892.28l-98.338,-302.803l-310.591,46.735l159.19,613.394c0,-0 -15.578,24.828 -38.459,63.773c149.941,-111.968 241.95,-250.712 288.198,-421.099Z" style="fill:#e38540;fill-rule:nonzero;"/><path d="M10722.3,2735.53c-56.958,206.898 -277.001,320.327 -433.27,277.487c-156.269,-42.84 -189.86,-226.371 -132.902,-433.27c56.958,-206.899 229.779,-339.314 386.049,-296.474c156.269,43.327 237.081,245.845 180.123,452.257Z" style="fill:#f09959;fill-rule:nonzero;"/><path d="M10356.2,4833.72c68.155,432.296 -184.992,1356.77 -184.992,1356.77c0,0 150.915,34.078 603.658,-9.736c452.743,-43.814 652.339,-495.583 720.494,-508.241c68.155,-12.657 103.206,420.613 136.797,454.691c33.59,34.077 38.945,-547.186 -49.169,-775.505c-155.783,-405.035 -125.113,-576.882 -67.181,-822.24c103.692,-435.704 -1159.61,304.263 -1159.61,304.263Z" style="fill:#a2dff2;fill-rule:nonzero;"/><path d="M9968.18,9001.39c40.893,165.519 -39.919,296.96 -147.506,392.864c-87.628,77.891 -356.84,110.995 -344.182,149.941c13.144,38.945 331.037,51.116 438.138,35.051c107.1,-16.065 136.31,-68.155 269.699,-68.155c87.627,-0 103.692,-71.076 64.747,-158.704c-38.946,-87.627 -52.577,-136.309 -17.526,-215.174c35.538,-78.865 -263.37,-135.823 -263.37,-135.823Z" style="fill:#4476bd;fill-rule:nonzero;"/><path d="M11557.6,9001.39c-6.329,171.848 -26.288,300.368 15.578,379.72c163.085,136.31 298.421,291.119 246.818,301.829c-246.818,51.116 -340.774,-96.878 -480.491,-138.744c-171.361,-51.603 16.065,-266.778 -51.117,-542.805c-37.485,-153.349 258.502,-116.837 258.502,-116.837l10.71,116.837Z" style="fill:#4476bd;fill-rule:nonzero;"/><path d="M11620,5493.36c-9.736,-54.038 -21.907,-102.72 -36.998,-141.178c-155.783,-405.035 -125.113,-576.883 -67.181,-822.24c4.381,-19.473 6.328,-36.512 5.841,-51.116c13.145,-43.814 25.315,-88.115 36.025,-132.902l-53.063,-477.084l-381.181,-452.743c-285.763,418.665 -92.982,939.563 -135.823,1226.79c-42.84,287.224 -521.384,653.313 -521.384,653.313l15.578,101.746c21.42,139.717 150.914,237.081 291.118,217.608c197.163,-27.261 456.151,-82.272 571.528,-189.373c111.482,-103.206 210.306,-23.367 275.54,67.182Z" style="fill:#96cfe0;fill-rule:nonzero;"/><path d="M10578.7,5279.65c0,0 -211.28,58.906 -236.595,72.537c-25.314,13.631 -39.432,83.246 -39.432,83.246c-0,-0 -120.732,105.153 -74.484,142.151c46.248,36.999 129.008,131.442 238.542,87.628c67.182,-26.775 119.271,-273.593 163.085,-275.54c44.301,-2.434 -51.116,-110.022 -51.116,-110.022Z" style="fill:#f09959;fill-rule:nonzero;"/><path d="M11177,3360.6c226.372,6.329 431.323,413.797 502.886,767.229c71.563,353.432 146.533,855.83 146.533,855.83c0,0 -374.852,295.987 -745.322,382.155c-323.249,75.457 -488.281,105.153 -488.281,105.153l-65.721,-184.505l773.071,-454.204c0,0 -284.303,-535.502 -312.539,-939.563c-27.748,-403.574 17.526,-536.963 189.373,-532.095Z" style="fill:#a2dff2;fill-rule:nonzero;"/><path d="M9001.56,3157.16l-563.723,113.09l71.818,357.995l563.724,-113.089l-71.819,-357.996Z" style="fill:#f5dc95;"/><path d="M9065.13,3662.43c7.789,-147.994 -65.721,-350.024 -107.587,-350.024c-42.353,0.487 13.144,132.415 -9.737,220.043c-12.17,47.708 117.324,129.981 117.324,129.981Z" style="fill:#f09959;fill-rule:nonzero;"/><path d="M10198,2348.02c12.658,405.522 486.334,374.365 616.315,349.538c129.981,-24.828 -158.216,855.83 89.088,906.459c181.584,37.485 140.691,-246.818 342.235,-227.832c89.088,8.276 179.15,146.533 179.15,146.533c0,0 -13.631,-85.193 -81.786,-146.533c-68.155,-61.339 -246.818,-437.651 -294.039,-707.35c-46.735,-269.212 -365.116,-443.493 -459.072,-448.848c-93.956,-5.355 -324.709,101.745 -324.709,101.745l-67.182,26.288Z" style="fill:#303c60;fill-rule:nonzero;"/><g><path d="M10899,3696.51c-6.329,0 -13.144,-0.487 -19.473,-1.947c-79.352,-17.039 -117.324,-99.798 -120.731,-261.91c-2.921,-138.743 19.959,-316.433 44.3,-504.832c9.737,-75.944 19.96,-154.809 28.236,-231.24c0.487,-6.329 6.329,-11.197 13.144,-10.71c6.329,0.487 11.197,6.328 10.71,13.144c-8.276,76.431 -18.499,155.296 -28.235,231.24c-46.735,364.628 -91.523,708.81 57.931,740.454c4.868,0.973 9.25,1.46 13.631,1.46c85.681,0 162.598,-166.979 207.873,-329.577c1.947,-6.329 8.275,-10.224 14.604,-8.276c6.329,1.947 10.223,8.276 8.276,14.604c-30.183,107.588 -110.021,347.59 -230.266,347.59Z" style="fill:#303c60;fill-rule:nonzero;"/></g><g><path d="M10867.3,3790.47c-26.775,0 -50.63,-10.223 -70.102,-31.156c-161.625,-170.874 -1.948,-1027.68 4.868,-1063.7c0.973,-6.328 7.302,-10.71 13.631,-9.249c6.328,0.973 10.71,7.302 9.249,13.631c-1.46,8.762 -164.545,881.145 -11.197,1043.26c18.013,18.986 38.946,26.288 64.261,22.88c83.733,-11.196 132.415,-125.112 175.255,-225.397c41.38,-97.365 80.325,-189.374 149.941,-186.939c6.328,-0 11.683,5.841 11.197,12.17c-0,6.329 -5.842,11.684 -12.171,11.197l-1.947,-0c-52.09,-0 -87.628,83.733 -125.6,172.821c-45.274,106.127 -96.39,226.859 -193.754,239.516c-3.895,0.973 -8.763,0.973 -13.631,0.973Z" style="fill:#303c60;fill-rule:nonzero;"/></g><path d="M10831.8,2775.93c-33.591,42.84 -85.681,58.418 -116.837,34.077c-31.157,-24.341 -29.209,-78.865 3.894,-121.705c33.591,-42.84 85.681,-58.419 116.837,-34.078c31.157,23.855 29.21,78.379 -3.894,121.706Z" style="fill:#f09959;fill-rule:nonzero;"/></g><g><path d="M7149.98,4277.77c115.864,231.24 19.96,497.53 -207.385,591.973c-228.806,94.93 -479.518,40.893 -594.895,-190.346c-115.863,-231.24 -29.696,-508.728 191.808,-619.723c221.016,-110.508 494.609,-13.144 610.472,218.096Z" style="fill:#303c60;fill-rule:nonzero;"/><g><path d="M6526.36,4897.49c-25.314,0 -75.944,-9.249 -139.717,-65.721c-52.577,-46.734 -90.062,-117.81 -106.127,-201.056c-19.96,-104.667 -6.815,-225.398 38.946,-358.3c1.947,-6.329 8.762,-9.25 15.091,-7.303c6.329,1.948 9.25,8.763 7.302,15.092c-44.787,129.007 -57.444,245.357 -37.972,346.129c15.092,77.892 50.143,144.586 98.338,187.913c81.299,72.049 135.336,58.905 136.31,58.905c6.329,-1.46 12.657,1.948 14.605,8.276c1.947,6.329 -1.948,12.658 -8.276,14.605c-0.974,-0 -7.303,1.46 -18.5,1.46Z" style="fill:#303c60;fill-rule:nonzero;"/></g><g><path d="M6879.79,5177.9c131.442,29.696 297.934,395.298 379.233,629.946c82.273,236.594 221.504,529.66 312.539,620.696c91.035,91.035 689.825,302.315 689.825,302.315c-0,0 -1479.45,2.921 -1449.27,0c30.67,-2.921 67.668,-1552.96 67.668,-1552.96Z" style="fill:#a8ceff;fill-rule:nonzero;"/><path d="M7665.52,6613.54c-80.812,-11.683 -373.391,25.802 -248.765,-25.801c124.626,-52.09 107.101,-118.784 107.101,-118.784c-0,-0 -176.229,147.506 -208.36,18.499c-27.262,-110.995 -37.972,-503.859 -142.151,-897.697c-86.167,-195.215 -198.623,-390.43 -293.553,-411.85c0,-0 -3.408,138.744 -8.763,332.985c36.512,429.863 97.851,1061.76 113.429,1220.95c196.189,0.487 524.306,-0 798.873,-0.487l182.558,-8.763c0.486,0.487 -219.556,-97.364 -300.369,-109.048Z" style="fill:#93bbf0;fill-rule:nonzero;"/><path d="M6395.89,5097.09c-0,-0 -418.666,234.16 -516.517,283.816c-97.851,49.656 273.593,1510.6 355.866,1572.92c82.759,62.8 809.095,10.71 891.855,-68.155c82.759,-78.865 -63.287,-320.815 8.276,-805.688c71.562,-484.873 -218.583,-903.052 -255.581,-902.078c-37.485,0.974 -280.409,-81.299 -280.409,-81.299l-203.49,-0l-0,0.487Z" style="fill:#a8ceff;fill-rule:nonzero;"/><path d="M6235.73,6953.82c82.759,62.8 602.683,63.773 823.7,-4.868c24.828,-7.789 138.257,-53.064 141.178,-95.417c-26.775,-4.868 -132.902,7.789 -175.742,-1.947c-149.454,-34.565 -232.214,-220.043 -232.214,-220.043c0,-0 -82.272,-29.696 -266.777,-107.588c-184.505,-77.891 -108.561,-314.486 -112.943,-418.665c-4.381,-104.18 -182.071,-444.954 -516.516,-702.969l-30.67,13.631c-23.854,237.568 293.553,1479.93 369.984,1537.87Z" style="fill:#93bbf0;fill-rule:nonzero;"/><g><path d="M9112.84,5807.85l-1008.21,-0l-459.071,977.535l1110.92,0l415.745,-884.553c19.959,-43.327 -11.684,-92.982 -59.392,-92.982Z" style="fill:#75a1de;fill-rule:nonzero;"/><g><path d="M7705.44,6799.02l-606.579,0c-37.485,0 -68.155,-30.67 -68.155,-68.155c0,-37.485 30.67,-68.155 68.155,-68.155l562.765,0l380.693,-819.805c16.065,-34.078 56.472,-49.169 90.549,-33.104c34.077,16.065 49.169,56.471 33.104,90.548l-399.193,859.239c-10.71,24.341 -35.051,39.432 -61.339,39.432Z" style="fill:#3e6bab;fill-rule:nonzero;"/></g></g><path d="M6652.93,6590.17c263.37,49.169 328.117,109.535 471.242,132.902c162.598,26.288 143.125,62.313 22.394,62.313c-120.732,0 -424.508,4.868 -528.687,-18.499c-103.693,-23.367 35.051,-176.716 35.051,-176.716Z" style="fill:#f09959;fill-rule:nonzero;"/><path d="M5846.76,5408.17c-201.544,645.037 -487.794,1377.21 -442.033,1377.21c45.761,0 1203.91,46.735 1249.67,7.789c45.761,-38.945 32.617,-188.886 25.802,-208.359c-6.816,-19.473 -658.668,-135.336 -658.668,-135.336c-0,-0 85.68,-167.466 118.297,-494.61c32.617,-326.656 -255.094,-668.891 -293.066,-546.699Z" style="fill:#a8ceff;fill-rule:nonzero;"/></g><path d="M6549.24,4536.76l-162.598,593.921c-0,0 274.567,428.402 350.024,390.43c75.457,-37.972 -42.354,-348.563 -42.354,-390.43c0,-41.866 117.811,-477.084 117.811,-477.084l-262.883,-116.837Z" style="fill:#f09959;fill-rule:nonzero;"/><path d="M6700.64,5160.86c-3.408,-14.118 -5.842,-24.828 -5.842,-30.183c0,-42.353 117.811,-477.084 117.811,-477.084l-262.883,-116.837l-53.55,196.676c46.247,202.517 130.954,337.853 204.464,427.428Z" style="fill:#e38540;fill-rule:nonzero;"/><path d="M7157.28,4526.54c31.156,172.335 10.71,401.14 -142.152,459.072c-152.861,57.931 -337.366,-53.064 -411.363,-248.279c-74.484,-195.215 -10.71,-401.14 142.151,-459.071c152.862,-57.932 374.365,42.84 411.364,248.278Z" style="fill:#f09959;fill-rule:nonzero;"/><path d="M6639.79,4623.41c21.42,60.366 2.921,121.705 -41.38,137.771c-44.301,15.578 -97.851,-19.96 -119.271,-80.326c-21.42,-60.366 -2.921,-121.705 41.38,-137.77c44.787,-15.578 97.85,20.446 119.271,80.325Z" style="fill:#f09959;fill-rule:nonzero;"/><path d="M7159.23,4310.39c-52.09,404.061 -542.805,351.971 -542.805,351.971c0,-0 -101.258,-132.902 -147.02,-63.287c-45.761,69.616 63.287,-409.903 345.156,-424.994c92.496,-4.868 344.669,136.31 344.669,136.31Z" style="fill:#303c60;fill-rule:nonzero;"/><ellipse cx="6394.43" cy="4139.52" rx="265.804" ry="249.252" style="fill:#303c60;"/></g><g><g><path d="M5864.77,9721.4l60.853,0l392.377,-1819.25l-133.875,0l-319.355,1819.25Z" style="fill:#2e5b9a;fill-rule:nonzero;"/><path d="M7755.09,9721.4l-60.852,0l-456.638,-1883.51l133.389,-0l384.101,1883.51Z" style="fill:#2e5b9a;fill-rule:nonzero;"/><g><path d="M6558.49,7970.31c-243.411,0 -397.733,-43.814 -496.557,-139.717c-122.192,-118.785 -147.507,-303.289 -147.507,-543.292c-0.487,-188.886 -4.868,-312.052 -15.091,-411.363c-3.895,-37.485 23.367,-71.076 60.852,-74.971c37.485,-3.894 71.076,23.368 74.971,60.853c10.71,104.179 15.578,231.24 15.578,424.994c0.487,243.41 31.156,372.418 106.613,445.928c77.405,75.457 216.636,106.127 452.744,100.285c227.832,-5.842 384.588,-37.485 510.187,-63.287c165.519,-33.591 285.277,-57.932 427.429,9.737c34.077,16.065 48.195,56.958 32.13,91.035c-16.065,34.077 -56.958,48.195 -91.035,32.13c-100.772,-48.195 -185.966,-30.67 -341.262,0.974c-130.954,26.775 -294.526,59.879 -534.042,65.721c-18.986,0.973 -37.485,0.973 -55.01,0.973Z" style="fill:#2e5b9a;fill-rule:nonzero;"/></g></g><path d="M6004.97,6793.17l372.904,15.578l-99.311,1029.63c-0,-0 -277.975,-177.203 -273.593,-368.523c4.381,-190.834 -0,-676.681 -0,-676.681Z" style="fill:#2e5b9a;fill-rule:nonzero;"/><path d="M7845.64,6889.08c315.46,-47.709 422.56,-32.617 615.341,326.17c192.781,359.273 449.822,1005.77 597.329,1089.02c222.477,125.6 295.987,434.244 387.509,420.126c91.522,-13.631 149.941,26.288 50.629,109.048c-99.311,82.759 -259.962,152.861 -314.973,138.257c-55.01,-14.605 -97.364,-251.686 -240.976,-328.604c-143.125,-76.918 -100.285,-140.204 -91.035,-208.359c9.249,-68.155 -418.179,-381.667 -740.941,-771.611c-197.162,-238.055 -298.421,-395.298 -313.512,-537.936c-14.118,-142.639 50.629,-236.108 50.629,-236.108Z" style="fill:#f09959;fill-rule:nonzero;"/><path d="M8627.48,8191.32c-73.023,-185.966 -146.533,-492.176 -215.662,-773.558c-98.338,-399.68 -201.057,-494.61 -266.291,-537.45c-78.865,-19.96 -172.334,-10.71 -299.394,8.763c-0,-0 -64.747,93.956 -49.656,236.108c15.091,142.638 116.35,299.881 313.512,537.936c169.414,205.439 368.524,389.944 517.491,528.201Z" style="fill:#e38540;fill-rule:nonzero;"/><path d="M7941.55,7205.02c-0,0 -83.734,632.867 -162.112,697.127c-55.984,46.248 -95.416,49.169 -134.362,-139.717c-38.946,-188.887 60.852,-893.316 60.852,-893.316l235.622,335.906Z" style="fill:#2e5b9a;fill-rule:nonzero;"/><path d="M7874.85,7547.75l-776.479,130.468l438.626,-628.485l333.472,-68.155l200.083,46.248l-195.702,519.924Z" style="fill:#f09959;fill-rule:nonzero;"/><path d="M8850.44,8435.22c-25.314,101.258 -21.907,176.229 21.421,214.201c43.813,37.485 208.845,316.92 208.845,316.92l51.603,-7.789l-119.271,-255.581l-162.598,-267.751Z" style="fill:#2e5b9a;fill-rule:nonzero;"/><path d="M9181.96,8972.18c55.011,14.604 215.175,-55.498 314.973,-138.257c99.311,-82.76 40.406,-123.166 -50.629,-109.048c-5.355,0.974 -10.224,0.487 -15.092,-0.974c-45.761,101.746 -195.702,178.177 -243.897,70.589c-48.195,-106.613 -253.633,-318.867 -336.393,-364.628c0,1.46 0.487,3.407 0,4.868c-9.249,68.155 -52.576,131.441 91.036,208.359c142.638,77.405 184.991,314.486 240.002,329.091Z" style="fill:#2e5b9a;fill-rule:nonzero;"/><path d="M6261.04,6914.39c-275.54,494.122 -87.141,808.608 247.305,840.738c334.933,32.131 863.133,-29.209 1171.29,-285.276c308.158,-256.068 560.817,-526.74 525.766,-567.146c-35.051,-40.406 -1944.36,11.684 -1944.36,11.684Z" style="fill:#e38540;fill-rule:nonzero;"/><path d="M7823.25,7282.92c56.471,-169.414 121.218,-298.908 247.305,-301.342c132.415,-2.434 213.714,66.207 219.556,282.842c6.816,258.015 15.578,1111.9 3.895,1491.62c-9.25,287.224 74.97,379.72 67.668,679.115c-5.355,225.885 235.134,111.482 142.151,228.806c-63.773,80.325 -254.12,54.037 -370.957,39.432c-104.18,-13.144 54.037,-325.196 -90.062,-408.929c-123.652,-71.563 -126.086,-187.913 -48.195,-276.027c77.891,-88.115 8.763,-348.564 -43.327,-530.635c-52.09,-182.071 -132.902,-379.233 -185.965,-810.069c-15.092,-122.679 23.367,-291.119 57.931,-394.811Z" style="fill:#f09959;fill-rule:nonzero;"/><path d="M8421.55,9571.95c-39.92,12.17 -89.089,25.801 -131.929,26.775c-86.654,2.921 -112.942,-92.496 -118.784,-222.477c-4.868,-113.429 -87.141,-291.606 -171.848,-363.655c-1.46,1.947 -2.921,3.894 -4.868,5.842c-77.891,88.114 -75.457,204.464 48.195,276.027c144.099,83.246 -14.117,395.298 90.062,408.929c116.837,15.091 307.184,41.38 370.957,-39.432c60.853,-75.944 -14.117,-81.786 -81.785,-92.009Z" style="fill:#2e5b9a;fill-rule:nonzero;"/><path d="M8014.08,8986.79c-0,0 -126.574,131.929 -114.89,186.939c11.684,55.011 50.63,193.755 56.958,300.855c6.329,107.101 12.171,229.78 12.171,229.78c-0,-0 45.761,-0 49.169,-13.144c3.407,-13.145 28.722,-435.218 28.722,-435.218l-32.13,-269.212Z" style="fill:#2e5b9a;fill-rule:nonzero;"/><path d="M6128.14,6869.12c0,0 -163.571,693.233 42.84,885.527c206.412,192.294 1063.7,19.472 1265.73,7.789c136.796,-7.789 269.211,159.19 269.211,159.19c0,0 -95.416,-387.022 -30.182,-699.074c65.234,-312.539 169.9,-333.472 169.9,-333.472l-139.718,-19.473l-1577.79,0l0,-0.487Z" style="fill:#75a1de;fill-rule:nonzero;"/><path d="M6091.14,6688.02c70.102,147.993 -74.97,404.061 -24.341,478.058c50.629,73.996 341.748,10.223 532.581,-143.126c190.834,-153.348 551.568,-187.425 551.568,-187.425l-1059.81,-147.507Z" style="fill:#a8ceff;fill-rule:nonzero;"/><path d="M6386.64,7951.32c576.882,21.907 1184.43,11.684 1184.43,-74.483c0,-86.168 -25.801,-146.533 -473.189,-111.969c-446.902,34.564 -750.678,82.273 -885.04,52.09c-134.362,-30.183 173.795,134.362 173.795,134.362Z" style="fill:#2e5b9a;fill-rule:nonzero;"/></g><path d="M12541,6942.14l-8130.88,0c-34.564,0 -62.8,-28.235 -62.8,-62.8l-0,-31.643c-0,-34.564 28.236,-62.8 62.8,-62.8l8130.88,0c34.565,0 62.8,28.236 62.8,62.8l0,31.643c0,35.052 -28.235,62.8 -62.8,62.8Z" style="fill:#2e5b9a;fill-rule:nonzero;"/><g><path d="M13621.3,4679.89c55.984,197.162 -80.812,400.166 -231.24,443.006c-150.427,42.84 -257.528,-91.035 -313.512,-288.198c-55.984,-197.162 20.933,-391.403 171.361,-434.243c150.427,-42.841 317.407,82.272 373.391,279.435Z" style="fill:#f09959;fill-rule:nonzero;"/><path d="M12778.1,8498.99c0,0 385.562,598.789 437.652,624.591c52.089,25.801 182.071,32.617 133.388,129.981c-48.682,97.851 -68.154,481.465 -113.916,500.938c-45.761,19.473 -436.191,65.234 -377.285,0c58.418,-65.234 94.443,-32.617 124.139,-149.454c29.696,-117.323 71.076,-338.34 15.578,-384.101c-55.497,-45.761 -393.838,-455.664 -393.838,-455.664l174.282,-266.291Z" style="fill:#f09959;fill-rule:nonzero;"/><path d="M10837.6,8756.03c-0,0 -468.809,772.585 -555.463,841.713c-86.654,69.129 -373.391,173.795 -138.743,190.834c234.647,17.038 347.103,-77.892 494.609,-121.705c147.507,-43.814 329.578,-69.616 260.449,-182.071c-69.128,-112.456 -40.406,-359.274 109.048,-515.543c149.454,-155.783 -169.9,-213.228 -169.9,-213.228Z" style="fill:#f09959;fill-rule:nonzero;"/><path d="M13228.9,6965.51c-0,-0 -1160.09,-30.183 -1620.14,347.103c-269.211,407.955 -919.604,1611.38 -970.233,1743.79c34.564,34.564 229.779,97.364 316.92,88.601c256.068,-305.236 594.408,-569.093 728.77,-808.609c166.006,-295.013 217.122,-442.52 485.847,-468.808c268.725,-26.288 876.277,-112.942 1058.84,-112.942c182.557,-0 -0,-789.136 -0,-789.136Z" style="fill:#6791c9;fill-rule:nonzero;"/><path d="M14240.5,9791.01l-60.366,-0l-436.191,-1819.25l133.876,-0l362.681,1819.25Z" style="fill:#2e5b9a;fill-rule:nonzero;"/><path d="M12419.3,9791.01l60.853,-0l499.965,-1883.51l-133.389,0l-427.429,1883.51Z" style="fill:#2e5b9a;fill-rule:nonzero;"/><path d="M13890,6885.67l-674.246,116.35c-0,0 -896.237,8.276 -1306.14,84.707c-372.904,69.615 -427.428,493.149 0,1075.87c242.924,331.038 448.362,595.382 868.488,893.316c106.614,-78.378 147.507,-108.074 177.203,-296.961c-30.183,-41.866 -109.048,-302.802 -133.389,-353.431c-232.213,-485.847 -542.318,-662.076 -546.7,-710.271c52.09,-84.707 1379.16,441.059 1643.02,131.928c251.686,-295.013 -28.236,-941.511 -28.236,-941.511Z" style="fill:#75a1de;fill-rule:nonzero;"/><path d="M13918.2,5359c-177.69,-24.828 -358.3,8.763 -527.714,131.442c-147.993,150.914 -314.973,399.192 -304.749,809.095c13.144,520.898 -80.326,554.002 17.038,697.127c406.982,167.953 1103.62,890.395 939.564,115.863c-118.784,-560.817 260.449,-978.996 -45.274,-1600.66c-25.315,-50.63 -56.472,-99.798 -78.865,-152.862Z" style="fill:#f37168;fill-rule:nonzero;"/><path d="M13085.3,6495.24c-7.789,271.646 -46.248,351.484 -17.039,436.678c166.006,17.039 469.782,83.246 545.726,189.373c86.654,121.705 173.795,138.744 132.902,49.169c-40.406,-89.575 -147.507,-217.122 17.525,-653.8c165.032,-436.678 242.924,-731.691 80.813,-1035.47l-759.927,1014.05Z" style="fill:#d54a41;fill-rule:nonzero;"/><path d="M13918.2,5359c-109.535,-258.988 -136.31,-549.62 -136.31,-549.62l-286.251,84.707c0,-0 162.598,364.628 6.329,494.609c-33.104,27.749 -71.563,61.34 -111.482,101.746c168.927,-122.679 350.024,-156.27 527.714,-131.442Z" style="fill:#f09959;fill-rule:nonzero;"/><path d="M13790.2,4878.02c-17.039,-15.091 -37.972,-34.077 -60.366,-53.55l-233.674,69.129c0,0.487 -0.487,0.973 -0.487,1.46c5.842,13.144 65.234,151.888 73.024,285.277c69.615,-42.353 146.046,-110.995 233.187,-231.24c-4.869,-27.262 -8.763,-51.116 -11.684,-71.076Z" style="fill:#e38540;fill-rule:nonzero;"/><path d="M13716.7,5440.3c-295.013,103.206 -262.396,413.798 -533.555,871.896c-140.691,237.081 -271.159,233.673 -271.159,233.673c-0,0 -329.578,2.435 -727.797,-46.248c-249.739,-30.669 -265.317,43.814 -92.009,105.641c350.024,125.112 713.192,259.962 1006.26,227.345c293.066,-32.617 794.004,-779.887 819.806,-974.128c35.538,-268.725 -53.064,-470.269 -201.544,-418.179Z" style="fill:#f09959;fill-rule:nonzero;"/><g><path d="M13564.8,8039.92c-18.499,0 -36.998,0 -56.471,-0.486c-239.516,-5.842 -403.088,-38.946 -534.042,-65.721c-155.296,-31.643 -240.49,-48.682 -341.261,-0.974c-34.078,16.065 -74.484,1.948 -91.036,-32.13c-16.552,-34.077 -1.947,-74.483 32.13,-91.035c142.152,-67.668 261.423,-43.327 427.429,-9.737c126.086,25.802 282.842,57.445 510.188,63.287c256.554,6.329 413.31,-32.13 493.149,-120.732c71.562,-79.351 92.496,-211.766 66.207,-416.231c-8.763,-69.129 -18.012,-127.06 -25.801,-177.69c-21.907,-142.638 -36.512,-237.081 -18.499,-382.154c16.551,-135.336 61.826,-316.433 166.005,-666.944c10.71,-36.024 48.682,-56.471 84.707,-45.761c36.025,10.71 56.471,48.682 45.761,84.707c-194.728,655.747 -184.992,720.007 -143.125,989.706c7.789,51.603 17.039,110.021 26.288,181.097c31.644,247.305 0,413.798 -100.285,524.793c-102.719,113.916 -271.159,166.005 -541.344,166.005Z" style="fill:#2e5b9a;fill-rule:nonzero;"/></g><path d="M10869.8,9407.4c-311.079,151.888 -478.058,239.029 -577.856,230.753c-23.368,-1.947 -42.84,-4.381 -59.392,-6.815c-110.995,65.72 -287.711,143.125 -88.602,157.729c234.161,17.526 347.103,-77.891 494.61,-121.705c147.507,-43.327 329.577,-69.615 260.449,-182.071c-13.631,-21.906 -23.367,-48.195 -29.209,-77.891Z" style="fill:#d54a41;fill-rule:nonzero;"/><path d="M13249.3,9136.73c-7.789,246.331 -41.379,490.228 -191.807,535.989c-39.919,12.171 -76.431,14.118 -108.561,9.737c-23.854,29.209 -52.577,29.696 -91.522,72.536c-58.419,65.234 332.011,19.473 377.286,0c45.761,-19.473 65.234,-403.574 113.916,-500.938c40.406,-80.326 -40.406,-98.825 -99.312,-117.324Z" style="fill:#d54a41;fill-rule:nonzero;"/><g><path d="M12051.8,6799.02l-987.759,0c-26.288,0 -50.629,-15.578 -61.826,-39.432l-399.193,-859.239c-16.065,-34.077 -0.974,-74.483 33.104,-90.548c34.077,-16.065 74.483,-0.974 90.549,33.104l380.693,819.805l944.432,0c37.485,0 68.155,30.67 68.155,68.155c-0,37.485 -30.67,68.155 -68.155,68.155Z" style="fill:#75a1de;fill-rule:nonzero;"/></g><path d="M12258.7,6508.38c-199.597,-2.921 -397.733,-121.705 -496.07,-104.666c-98.338,17.525 -419.64,240.002 -378.747,248.765c40.406,8.763 295.013,-123.165 303.776,-125.113c8.763,-1.947 63.774,91.522 199.597,125.6c135.822,34.077 0.973,-101.746 422.56,25.315c273.593,83.246 -51.116,-169.901 -51.116,-169.901Z" style="fill:#f09959;fill-rule:nonzero;"/><path d="M13888.5,5122.41l29.209,236.108c-0,0 -258.502,15.579 -387.022,87.628c-128.521,72.536 -318.381,281.382 -318.381,281.382l154.809,-266.777l22.394,-170.874l498.991,-167.467Z" style="fill:#f2e5de;fill-rule:nonzero;"/><path d="M13778.5,5412.07c-191.807,-36.025 -280.408,135.822 -405.035,416.718c-124.626,280.408 -336.879,621.183 -378.746,665.483c-41.866,44.301 -711.731,0 -711.731,0c-0,0 -20.447,193.755 -0,217.122c20.446,23.368 135.823,20.447 135.823,20.447c-0,-0 46.247,36.998 89.575,66.207c43.327,29.21 410.876,84.22 581.263,75.458c170.874,-8.763 326.657,-23.368 350.024,-49.169c23.367,-25.802 488.768,-743.375 517.977,-1000.9c29.209,-258.015 -80.812,-393.351 -179.15,-411.363Z" style="fill:#f2e5de;fill-rule:nonzero;"/><path d="M13212.8,4231.52c-362.682,17.525 -305.724,563.251 -305.724,563.251c0,0 94.444,29.209 291.606,-3.408c-15.091,-58.418 -8.763,-208.359 -8.763,-208.359c0,0 22.881,121.705 52.09,195.215c41.867,18.986 89.088,1.948 169.413,-17.038c41.38,173.308 157.73,246.818 237.569,271.645c88.114,27.749 181.584,60.853 285.764,8.763c104.179,-52.09 46.734,-584.184 -8.276,-691.285c-82.76,-160.651 -221.017,-304.263 -459.559,-228.319c-120.245,37.972 -254.12,109.535 -254.12,109.535Z" style="fill:#303c60;fill-rule:nonzero;"/><path d="M13843.8,4879.97l148.48,216.635c0,-0 -164.545,410.876 313.513,596.842c374.365,145.559 330.551,402.6 161.137,660.615c-169.413,258.502 101.259,483.9 101.259,483.9c-0,-0 41.38,-286.251 405.035,-340.288c496.07,-73.51 636.761,-739.48 265.804,-1072.95c-306.697,-275.541 -399.68,-47.222 -607.552,-294.527c-207.386,-247.304 -599.276,-80.325 -599.276,-80.325l-143.612,-209.333l-44.788,39.433Z" style="fill:#303c60;fill-rule:nonzero;"/><g><path d="M15410.3,6095.07c-1.947,-0 -3.894,-0.487 -5.841,-1.461c-5.842,-2.921 -7.79,-10.223 -4.869,-16.065c125.113,-228.319 22.881,-505.32 -28.235,-580.29c-5.355,-7.789 -10.71,-16.065 -16.065,-24.341c-50.63,-78.865 -113.429,-176.716 -447.875,-237.082c-80.326,-14.604 -145.073,-62.313 -214.201,-112.455c-142.639,-104.666 -304.75,-223.451 -656.234,-61.826c-5.842,2.921 -13.144,-0 -15.578,-5.842c-2.921,-5.842 -0,-13.144 5.841,-15.578c364.142,-167.467 532.095,-44.301 680.089,64.26c66.694,48.682 129.494,94.93 203.977,108.561c344.669,61.826 410.877,165.032 463.454,247.305c5.355,8.276 10.223,16.065 15.578,23.854c31.156,45.274 69.128,138.744 84.707,245.844c13.63,92.983 15.091,230.753 -55.011,359.274c-1.461,3.408 -5.842,5.842 -9.737,5.842Z" style="fill:#303c60;fill-rule:nonzero;"/></g><g><path d="M13764.9,5100.5c-23.854,0 -49.169,-1.947 -76.917,-6.328c-126.574,-18.986 -295.987,-91.036 -309.618,-495.097c-0,-6.328 4.868,-12.17 11.683,-12.17c6.816,-0.487 12.171,4.868 12.171,11.683c5.355,167.467 38.946,291.119 98.824,368.037c45.762,58.418 106.127,91.522 190.347,104.179c118.298,17.526 196.189,-4.381 232.7,-65.234c3.408,-5.841 10.711,-7.302 16.066,-3.894c5.841,3.408 7.302,10.71 3.894,16.065c-32.13,55.011 -92.496,82.759 -179.15,82.759Z" style="fill:#303c60;fill-rule:nonzero;"/></g></g><g><path d="M2441.45,5387.24c-421.1,240.976 -1006.75,1241.88 -883.093,1404.96c123.653,163.571 787.676,-266.291 787.676,-266.291l95.417,-1138.67Z" style="fill:#96cfe0;fill-rule:nonzero;"/><path d="M3228.15,4226.66c-160.651,-4.382 -101.259,-124.14 -286.251,-75.944c-97.364,25.314 -25.314,65.234 -151.888,52.089c-126.086,-13.144 -188.399,-25.801 -204.464,56.472c-16.065,82.272 -23.855,108.561 -84.22,121.705c-60.853,13.144 -88.115,121.705 -0,195.215c88.114,73.996 45.274,104.179 25.801,165.032c-19.473,60.852 47.222,65.234 83.246,121.705c36.025,56.471 -33.103,67.181 18.986,115.863c52.09,48.682 125.113,44.788 125.113,44.788l219.07,-420.126l254.607,-376.799Z" style="fill:#303c60;fill-rule:nonzero;"/><path d="M6504.45,9271.09c-0,0 234.16,6.329 416.718,-65.233c182.071,-71.563 305.723,-182.071 273.106,-52.09c-32.617,129.981 -182.071,353.431 -312.539,375.338c-129.981,21.907 -175.742,165.032 -247.304,165.032c-71.563,0 -175.743,-165.032 -357.813,-247.304c-166.006,-75.458 227.832,-175.743 227.832,-175.743Z" style="fill:#2e5b9a;fill-rule:nonzero;"/><path d="M4657.94,9249.18c0,-0 98.338,135.822 270.186,230.266c177.202,97.851 381.667,144.585 254.607,188.886c-127.06,44.301 -312.052,78.378 -492.662,25.801c-126.574,-36.998 -275.541,-44.3 -314.486,-104.179c-39.433,-59.879 46.247,-210.307 10.71,-435.218c-28.723,-180.123 271.645,94.444 271.645,94.444Z" style="fill:#2e5b9a;fill-rule:nonzero;"/><path d="M3560.65,7064.82c0,0 1357.26,508.241 1466.79,650.392c109.535,142.152 1535.92,1436.12 1535.92,1531.54c-0,95.417 -242.924,269.212 -242.924,269.212c0,0 -1223.38,-750.677 -1527.15,-1132.34c-303.776,-381.668 -1045.2,-565.686 -1439.04,-601.224c-393.838,-35.537 206.412,-717.573 206.412,-717.573Z" style="fill:#3e6bab;fill-rule:nonzero;"/><path d="M3612.74,7064.82c-0,0 928.366,-34.564 1127.96,0c199.596,34.564 637.248,34.077 350.997,842.686c-224.424,633.354 -298.42,1435.63 -298.42,1435.63l-446.415,109.535c0,-0 17.526,-1441.96 230.753,-1826.06c-155.296,25.315 -439.599,75.457 -834.41,188.399c-731.691,209.333 -1133.32,104.667 -1133.32,104.667l-109.048,-381.667l1111.9,-473.19Z" style="fill:#4476bd;fill-rule:nonzero;"/><path d="M2837.23,4667.72l-226.859,670.352l286.738,188.399l162.598,-579.316l-222.477,-279.435Z" style="fill:#a86b48;fill-rule:nonzero;"/><path d="M2922.91,5435.43l136.797,-487.794l-221.99,-279.922l-82.76,245.358c28.236,221.016 97.364,404.061 167.953,522.358Z" style="fill:#7a4e34;fill-rule:nonzero;"/><path d="M3416.06,4781.15c7.303,203.978 -92.982,380.207 -252.173,396.272c-159.19,15.578 -304.262,-136.31 -324.222,-339.314c-19.96,-203.004 92.983,-380.207 252.173,-396.272c159.19,-15.578 312.539,17.526 324.222,339.314Z" style="fill:#a86b48;fill-rule:nonzero;"/><path d="M2501.33,5318.11c-696.64,470.269 -263.37,1230.2 -110.509,1785.66c130.468,473.189 126.087,758.953 145.56,758.953c19.473,-0 498.504,-71.563 771.61,-318.868c273.107,-247.304 458.098,-486.82 458.098,-486.82c0,-0 -350.024,-62.313 -464.426,-515.543c-57.932,-229.779 -31.644,-354.892 -164.059,-719.521c-131.928,-363.655 -636.274,-503.859 -636.274,-503.859Z" style="fill:#a2dff2;fill-rule:nonzero;"/><path d="M2501.33,5318.11l74.483,-182.558c0,0 236.595,156.27 331.038,229.78c94.443,73.996 152.375,91.035 152.375,91.035c-0,0 34.077,261.423 12.17,238.055c-278.948,-298.907 -570.066,-376.312 -570.066,-376.312Z" style="fill:#a2dff2;fill-rule:nonzero;"/><g><path d="M2192.68,9791.01l60.853,-0l436.191,-1819.25l-133.875,-0l-363.169,1819.25Z" style="fill:#2e5b9a;fill-rule:nonzero;"/><path d="M4014.37,9791.01l-60.853,-0l-500.451,-1883.51l133.875,0l427.429,1883.51Z" style="fill:#2e5b9a;fill-rule:nonzero;"/><g><path d="M2870.34,8039.92c-243.411,0 -397.733,-43.813 -496.557,-139.717c-122.192,-118.784 -147.507,-303.289 -147.507,-543.292c-0.974,-504.346 -28.722,-609.012 -170.874,-917.169c-15.578,-34.078 -0.974,-74.484 33.591,-90.549c34.077,-15.578 74.483,-0.974 90.548,33.591c149.941,325.682 182.558,445.44 183.045,973.641c0.487,243.41 31.156,372.417 106.614,445.927c77.404,75.457 216.635,106.127 452.743,100.285c227.832,-5.842 384.588,-37.485 510.187,-63.287c165.519,-33.59 285.277,-57.931 427.429,9.737c34.077,16.065 48.195,56.958 32.13,91.035c-16.065,34.078 -56.958,48.196 -91.035,32.13c-100.772,-48.195 -185.966,-30.669 -341.262,0.974c-130.954,26.775 -294.526,59.879 -534.042,65.721c-18.986,0.487 -37.485,0.973 -55.01,0.973Z" style="fill:#2e5b9a;fill-rule:nonzero;"/></g></g><g><path d="M5879.37,6791.23l-987.759,-0c-37.485,-0 -68.155,-30.67 -68.155,-68.155c0,-37.485 30.67,-68.155 68.155,-68.155l944.432,0l380.694,-819.805c16.065,-34.078 56.471,-49.169 90.548,-33.104c34.078,16.065 49.169,56.471 33.104,90.548l-399.193,859.238c-11.197,23.855 -35.051,39.433 -61.826,39.433Z" style="fill:#3e6bab;fill-rule:nonzero;"/></g><path d="M2527.13,6003.07c0,-0 173.795,529.173 388.483,748.243c214.688,219.069 646.984,292.579 782.32,284.303c-108.074,-43.327 -313.512,-166.98 -395.785,-493.636c-57.931,-229.779 -31.643,-354.892 -164.058,-719.521c-98.338,-270.672 -401.14,-417.205 -551.081,-474.65c186.939,134.363 420.126,354.892 492.176,523.332c79.351,186.452 -552.055,131.929 -552.055,131.929Z" style="fill:#96cfe0;fill-rule:nonzero;"/><path d="M4922.77,6467.49c-0,0 299.394,-136.796 332.011,-123.652c32.617,13.144 364.629,213.227 364.629,246.818c-0,33.104 -293.066,-123.653 -293.066,-123.653c-0,0 32.617,86.655 13.144,128.521c-19.473,41.867 -244.871,41.38 -447.875,28.723c-203.004,-12.658 31.157,-156.757 31.157,-156.757Z" style="fill:#a86b48;fill-rule:nonzero;"/><path d="M2536.87,5594.14c-276.028,565.686 670.838,1139.16 1232.14,1189.79c561.791,51.116 1228.74,-132.902 1228.74,-132.902l-75.457,-183.532c-0,0 -1125.04,-147.019 -1153.77,-167.466c-27.748,-20.446 -1130.4,-912.788 -1231.65,-705.89Z" style="fill:#a2dff2;fill-rule:nonzero;"/><path d="M2895.65,4686.7c25.802,67.181 6.816,136.797 -41.866,155.296c-48.682,18.499 -109.048,-20.934 -134.363,-88.115c-25.801,-67.181 -6.815,-136.796 41.867,-155.296c48.682,-18.986 109.048,20.934 134.362,88.115Z" style="fill:#a86b48;fill-rule:nonzero;"/><path d="M3416.55,4255.87c76.431,-31.643 162.111,-65.721 135.336,63.773c-11.683,56.472 0,40.406 20.447,92.496c20.446,52.09 -51.116,92.983 -73.997,121.705c-23.367,28.723 33.591,60.366 -12.657,94.93c-46.248,34.565 -107.101,-12.657 -150.428,0c-128.52,38.459 -112.942,-62.799 -184.992,-83.733c-72.536,-20.933 -107.587,-18.012 -121.705,28.236c-13.631,46.248 50.63,198.623 -4.381,184.018c-55.011,-14.605 -67.181,108.561 -82.273,177.689c-15.091,69.129 -52.576,-47.708 -50.142,-127.547c3.894,-121.705 -26.289,-172.821 -71.563,-206.898c-44.787,-34.078 -63.773,-344.182 152.862,-355.379c217.122,-11.684 218.095,-32.617 311.078,-52.09c92.983,-18.986 97.851,77.404 132.415,62.8Z" style="fill:#303c60;fill-rule:nonzero;"/></g><g><path d="M15579.8,7794.56c138.257,126.086 78.378,252.66 -23.854,487.307c-102.233,234.648 -120.245,1100.7 -120.245,1100.7l84.22,-12.17c0,-0 -12.171,-889.908 102.232,-1130.88c114.403,-240.489 162.598,-360.734 264.831,-282.843c101.745,78.378 -307.184,-162.111 -307.184,-162.111Z" style="fill:#74b570;fill-rule:nonzero;"/><path d="M15503.8,7630.99c17.039,-74.97 116.35,-155.782 249.739,-224.424c-19.96,110.508 -83.246,291.119 -17.526,328.117c88.602,50.143 8.763,-202.03 42.841,-340.774c125.112,-61.34 276.027,-110.995 414.771,-135.823c-0,0.487 -0.487,0.973 -0.487,1.46c-78.378,198.623 -180.611,276.514 -138.257,306.697c31.643,22.394 134.849,-206.412 271.159,-324.222c102.232,-5.355 188.886,8.276 240.002,49.169c78.865,62.799 132.415,118.297 52.577,308.644c-45.274,32.617 -104.18,55.984 -172.821,62.8c-180.611,18.012 -264.831,23.854 -138.257,84.22c61.826,29.209 165.519,-1.461 249.738,-20.447c-27.261,50.143 -60.852,107.101 -101.745,171.848c-25.802,40.893 -54.524,76.917 -84.707,107.587c-57.931,11.197 -109.048,11.197 -135.823,0c-84.22,-36.025 -300.855,-150.427 -354.892,-102.232c-53.063,47.221 401.14,76.917 369.497,196.675c-220.043,126.574 -471.729,66.695 -516.517,-50.142c-59.392,-157.243 -279.921,-193.755 -229.292,-419.153Z" style="fill:#9cd499;fill-rule:nonzero;"/><path d="M15958.5,8486.34c-240.489,-180.611 -487.307,-12.171 -613.394,180.61c-126.086,192.294 -36.024,625.565 -36.024,625.565c-0,-0 48.195,-0 48.195,-18.013c-0,-18.012 -132.415,-511.161 180.61,-733.638c195.702,-139.231 336.88,-72.05 354.892,-5.842c18.013,66.207 -78.378,186.452 -78.378,186.452l144.099,-235.134Z" style="fill:#74b570;fill-rule:nonzero;"/><path d="M15405.5,8115.38c240.49,-0 318.868,372.904 252.66,589.539c-66.208,216.635 -156.269,619.236 -156.269,619.236l-60.366,-60.366c-0,0 228.319,-565.198 174.282,-817.858c-54.037,-252.66 -186.453,-294.527 -210.307,-294.527c-24.341,0 0,-36.024 0,-36.024Z" style="fill:#9cd499;fill-rule:nonzero;"/><path d="M15607,8706.38c17.039,-22.394 37.972,-40.893 63.287,-53.064c-3.408,18.013 -7.303,35.051 -12.658,51.603c-30.183,98.825 -65.234,236.108 -94.443,356.353c-2.434,-15.578 -6.815,-38.946 -13.144,-75.944c-1.461,-8.763 -2.434,-18.013 -3.408,-27.749c23.368,-80.325 45.761,-167.953 60.366,-251.199Z" style="fill:#74b570;fill-rule:nonzero;"/><path d="M15672.7,8708.33c457.124,-192.294 216.148,-456.638 619.235,-282.356c28.236,12.171 62.8,43.327 97.851,86.167c-36.025,10.224 -79.352,17.526 -127.547,10.224c-120.244,-18.013 -78.378,78.378 120.245,102.232c37.485,4.381 67.668,10.71 92.983,19.473c94.443,181.584 137.283,420.613 -62.8,503.859c-39.433,16.552 -88.115,25.801 -142.639,29.209c-61.826,-49.169 15.092,-332.985 -80.325,-294.039c-91.522,37.485 28.722,243.41 12.17,295.5c-90.061,-1.461 -189.859,-16.552 -285.763,-39.92c-37.972,-20.933 -66.695,-49.655 -75.457,-86.654c-30.183,-126.086 168.44,-204.464 174.281,-312.538c5.355,-99.312 -72.536,219.069 -279.921,265.803c-187.426,-88.114 -276.028,-206.898 -62.313,-296.96Z" style="fill:#9cd499;fill-rule:nonzero;"/><path d="M15347.1,8368.04c48.195,-102.232 -78.378,-126.086 -72.05,-48.195c5.355,69.129 5.842,237.569 -65.234,283.33c-122.678,-13.144 -289.171,-62.8 -415.258,-137.77c-1.46,-10.224 0,-20.447 5.356,-31.157c54.037,-108.074 403.087,-198.623 294.526,-234.647c-86.167,-28.723 -237.082,140.691 -359.274,226.371c-73.023,-55.497 -122.192,-121.705 -122.192,-195.215c0,-99.798 121.219,-213.227 278.462,-267.264c70.589,7.302 136.309,45.761 239.029,103.692c151.401,85.681 116.35,-53.063 -26.776,-135.336c123.653,6.329 246.818,59.392 337.854,185.479c-0,-0 -8.763,54.037 48.682,137.283c155.783,227.832 -23.854,360.247 -239.029,351.972c12.171,-59.879 62.8,-167.954 95.904,-238.543Z" style="fill:#9cd499;fill-rule:nonzero;"/><path d="M15943.9,8476.11c117.81,91.035 248.278,197.162 408.442,269.211c160.164,72.05 128.521,307.184 128.521,307.184c-0,0 23.854,-203.004 -109.535,-272.619c-133.876,-69.616 -221.99,-152.375 -323.249,-168.44c-101.745,-16.065 -157.73,-32.13 -157.73,-32.13c0,-0 32.131,-64.261 13.145,-88.115c-18.5,-23.854 40.406,-15.091 40.406,-15.091Z" style="fill:#74b570;fill-rule:nonzero;"/><path d="M16523.7,7408.52c-430.349,114.89 -745.809,390.43 -804.714,457.125c-58.906,66.694 -58.906,85.68 -58.906,85.68l45.275,85.681l21.42,-10.71c-0,-0 -34.565,-72.05 55.984,-165.519c156.756,-161.138 347.59,-288.685 478.545,-344.669c130.954,-55.985 262.396,-107.588 262.396,-107.588Z" style="fill:#74b570;fill-rule:nonzero;"/><path d="M15335.9,9791.01l164.545,-0c116.837,-0 211.767,-94.93 211.767,-211.767l0,-377.773l-588.079,0l-0,377.773c-0,116.837 94.93,211.767 211.767,211.767Z" style="fill:#75a1de;fill-rule:nonzero;"/><rect x="15124.1" y="9269.14" width="588.079" height="41.38" style="fill:#fff;"/><rect x="15124.1" y="9344.6" width="588.079" height="24.341" style="fill:#fff;"/></g><g><g><path d="M15349,2989.16l546.213,-0c-0,299.881 -246.818,546.213 -546.213,546.213c-299.395,-0 -546.213,-246.818 -546.213,-546.213c0,-299.881 246.818,-546.213 546.213,-546.213l0,546.213Z" style="fill:#9ec8ff;fill-rule:nonzero;"/><g><path d="M15986.7,2912.73c-0,-301.829 -244.384,-546.212 -546.213,-546.212l0,546.212l546.213,0Z" style="fill:#f39892;fill-rule:nonzero;"/><path d="M14893.8,2912.73c-0,301.829 244.384,546.213 546.212,546.213c-299.394,-0 -546.212,-246.331 -546.212,-546.213Z" style="fill:#f39892;fill-rule:nonzero;"/><path d="M15440.5,2366.52c-301.828,-0 -546.212,244.383 -546.212,546.212c-0.487,-299.881 246.331,-546.212 546.212,-546.212Z" style="fill:#f39892;fill-rule:nonzero;"/><path d="M15440.5,3458.94c301.829,-0 546.213,-244.384 546.213,-546.213c-0,299.882 -246.818,546.213 -546.213,546.213Z" style="fill:#f39892;fill-rule:nonzero;"/></g></g><g><rect x="4655.02" y="2627.94" width="119.271" height="345.156" style="fill:#9ec8ff;"/><rect x="6184.61" y="2739.91" width="119.271" height="233.187" style="fill:#9ec8ff;"/><rect x="5160.83" y="2164.97" width="119.271" height="808.122" style="fill:#9ec8ff;"/><rect x="5413.97" y="2609.93" width="119.271" height="363.168" style="fill:#9ec8ff;"/><rect x="5666.63" y="2507.21" width="119.271" height="465.887" style="fill:#9ec8ff;"/><rect x="4908.17" y="2399.62" width="119.271" height="573.475" style="fill:#9ec8ff;"/><rect x="5920.27" y="2267.2" width="119.271" height="705.89" style="fill:#9ec8ff;"/></g><g><clipPath id="_clip1"><path d="M849.058,896.805c-382.641,-0 -692.259,310.104 -692.259,692.258c0,382.154 309.618,692.746 692.259,692.746c382.641,-0 692.259,-310.105 692.259,-692.746c-0,-382.641 -310.105,-692.258 -692.259,-692.258Zm-0,1059.32c-202.517,-0 -366.576,-164.059 -366.576,-366.576c0,-202.517 164.059,-366.576 366.576,-366.576c202.517,0 366.576,164.059 366.576,366.576c-0,202.517 -164.059,366.576 -366.576,366.576Z"/></clipPath><g clip-path="url(#_clip1)"><path d="M1474.62,1971.7l-626.051,-382.641l-113.429,724.876c294.526,46.248 586.132,-91.522 739.48,-342.235Z" style="fill:#a2dff2;fill-rule:nonzero;"/></g><clipPath id="_clip2"><path d="M849.058,896.805c-382.641,-0 -692.259,310.104 -692.259,692.258c0,382.154 309.618,692.746 692.259,692.746c382.641,-0 692.259,-310.105 692.259,-692.746c-0,-382.641 -310.105,-692.258 -692.259,-692.258Zm-0,1059.32c-202.517,-0 -366.576,-164.059 -366.576,-366.576c0,-202.517 164.059,-366.576 366.576,-366.576c202.517,0 366.576,164.059 366.576,366.576c-0,202.517 -164.059,366.576 -366.576,366.576Z"/></clipPath><g clip-path="url(#_clip2)"><path d="M1475.6,1971.22c1.46,-2.921 3.894,-6.328 3.894,-6.328c132.416,-221.504 137.284,-496.557 16.066,-721.955c-221.504,115.863 -89.575,45.761 -646.498,346.616c626.538,383.128 529.174,323.736 626.538,381.667Z" style="fill:#9cd499;fill-rule:nonzero;"/></g><clipPath id="_clip3"><path d="M849.058,896.805c-382.641,-0 -692.259,310.104 -692.259,692.258c0,382.154 309.618,692.746 692.259,692.746c382.641,-0 692.259,-310.105 692.259,-692.746c-0,-382.641 -310.105,-692.258 -692.259,-692.258Zm-0,1059.32c-202.517,-0 -366.576,-164.059 -366.576,-366.576c0,-202.517 164.059,-366.576 366.576,-366.576c202.517,0 366.576,164.059 366.576,366.576c-0,202.517 -164.059,366.576 -366.576,366.576Z"/></clipPath><g clip-path="url(#_clip3)"><path d="M160.694,1335.92l687.877,253.633l645.524,-349.05c-301.829,-558.383 -1114.33,-491.689 -1333.4,95.417Z" style="fill:#9ec8ff;fill-rule:nonzero;"/></g><clipPath id="_clip4"><path d="M849.058,896.805c-382.641,-0 -692.259,310.104 -692.259,692.258c0,382.154 309.618,692.746 692.259,692.746c382.641,-0 692.259,-310.105 692.259,-692.746c-0,-382.641 -310.105,-692.258 -692.259,-692.258Zm-0,1059.32c-202.517,-0 -366.576,-164.059 -366.576,-366.576c0,-202.517 164.059,-366.576 366.576,-366.576c202.517,0 366.576,164.059 366.576,366.576c-0,202.517 -164.059,366.576 -366.576,366.576Z"/></clipPath><g clip-path="url(#_clip4)"><path d="M735.629,2313.94l113.429,-724.876l-687.877,-253.633c-164.059,438.625 126.573,907.92 574.448,978.509Z" style="fill:#f39892;fill-rule:nonzero;"/></g><clipPath id="_clip5"><path d="M849.058,896.805c-382.641,-0 -692.259,310.104 -692.259,692.258c0,382.154 309.618,692.746 692.259,692.746c382.641,-0 692.259,-310.105 692.259,-692.746c-0,-382.641 -310.105,-692.258 -692.259,-692.258Zm-0,1059.32c-202.517,-0 -366.576,-164.059 -366.576,-366.576c0,-202.517 164.059,-366.576 366.576,-366.576c202.517,0 366.576,164.059 366.576,366.576c-0,202.517 -164.059,366.576 -366.576,366.576Z"/></clipPath><g clip-path="url(#_clip5)"><path d="M115.906,1455.67c12.658,0 24.341,3.408 34.565,8.763c5.841,-33.104 14.117,-65.721 24.827,-97.851l373.392,137.771l-0,-0.487c-0.974,-17.039 5.842,-33.104 16.065,-45.761l-37.485,-13.631l-335.42,-123.653c27.749,-67.181 64.261,-128.034 108.074,-181.584c-15.578,-5.842 -28.722,-17.039 -37.485,-31.156c-47.221,57.931 -86.654,123.652 -116.35,196.188l-0.487,0l-8.276,22.881l-8.762,22.88l0.486,0c-11.683,35.051 -20.933,71.076 -27.261,106.614c5.355,-0.487 9.736,-0.974 14.117,-0.974Z" style="fill:#fff;fill-rule:nonzero;"/></g><clipPath id="_clip6"><path d="M849.058,896.805c-382.641,-0 -692.259,310.104 -692.259,692.258c0,382.154 309.618,692.746 692.259,692.746c382.641,-0 692.259,-310.105 692.259,-692.746c-0,-382.641 -310.105,-692.258 -692.259,-692.258Zm-0,1059.32c-202.517,-0 -366.576,-164.059 -366.576,-366.576c0,-202.517 164.059,-366.576 366.576,-366.576c202.517,0 366.576,164.059 366.576,366.576c-0,202.517 -164.059,366.576 -366.576,366.576Z"/></clipPath><g clip-path="url(#_clip6)"><path d="M1526.71,1250.24l-11.197,-21.42c0,-0.487 -0.487,-0.974 -0.487,-1.46l-9.249,-17.526l-0.487,0c-73.023,-127.06 -177.203,-227.832 -302.316,-293.066c-122.678,-63.773 -261.909,-92.496 -403.087,-82.759c-166.006,11.683 -317.407,73.996 -437.165,174.281c14.118,8.763 24.828,21.907 31.157,37.486c112.455,-94.444 254.12,-152.862 409.903,-163.572c271.645,-18.986 521.384,113.916 658.181,348.077l-190.834,103.206c-39.432,20.933 -94.443,51.116 -186.452,100.771c-58.905,32.131 -133.389,72.05 -228.319,123.653l-5.842,3.408l-18.986,-11.684l-0.973,6.815l-135.336,-49.655c-0,17.038 -6.816,33.103 -18.013,45.274l144.586,53.063l-106.127,680.575c-200.57,-38.945 -374.365,-162.111 -479.518,-341.748c-62.8,-107.1 -94.93,-226.371 -96.39,-346.616c-7.79,2.921 -15.579,4.382 -23.855,4.382c-8.762,-0 -17.525,-1.461 -24.828,-4.382c1.461,128.521 36.025,256.555 103.206,371.444c112.456,192.294 298.421,324.223 513.596,365.116l0,0.486l23.854,3.895l24.341,3.895l0,-0.487c31.157,3.894 62.313,5.842 93.47,5.842c109.534,-0 218.095,-23.855 318.867,-71.076c129.008,-59.879 237.569,-153.835 314.973,-272.62l0.487,0.487l4.868,-7.789l7.789,-12.657c0.974,-1.948 2.434,-4.382 3.408,-5.842l0.487,-0.974l0.487,-0.487l7.789,-12.657l-0.487,0c124.139,-219.069 130.955,-488.768 18.499,-713.679Zm-763.334,1043.26l103.692,-664.51l270.186,165.032c109.047,66.694 171.36,104.666 210.306,128.52l92.983,56.958c-148.48,225.885 -409.416,346.616 -677.167,314Zm703.455,-355.866l-4.868,-2.921c-25.802,-15.092 -36.512,-21.907 -87.628,-52.577l-476.597,-291.605l395.785,-214.201c57.932,-31.157 81.786,-43.814 141.178,-74.484c14.605,-7.302 31.157,-16.065 50.629,-26.288c102.719,208.846 95.904,459.072 -18.499,662.076Z" style="fill:#e7f3fe;fill-rule:nonzero;"/></g></g><g><path d="M4861.92,1723.43l-2017.87,-0c-21.907,-0 -39.919,-18.013 -39.919,-39.92l0,-868.487c0,-21.907 18.012,-39.92 39.919,-39.92l2018.36,0c21.907,0 39.919,18.013 39.919,39.92l0,868.487c-0.487,21.907 -18.499,39.92 -40.406,39.92Z" style="fill:#9ec8ff;fill-rule:nonzero;"/><path d="M4812.26,1678.64l-1918.56,0c-17.526,0 -32.13,-14.604 -32.13,-32.13l-0,-590.026c-0,-17.526 14.604,-32.13 32.13,-32.13l1918.56,-0c17.525,-0 32.13,14.604 32.13,32.13l-0,590.026c-0,18.012 -14.118,32.13 -32.13,32.13Z" style="fill:#fff;fill-rule:nonzero;"/><g><path d="M2955.04,919.198l-46.734,0c-9.737,0 -18.013,-7.789 -18.013,-18.012l0,-38.459c0,-9.736 7.789,-18.012 18.013,-18.012l46.734,-0c9.737,-0 18.013,7.789 18.013,18.012l-0,38.459c-0.487,9.736 -8.276,18.012 -18.013,18.012Z" style="fill:#fff;fill-rule:nonzero;"/><path d="M3104.5,919.198l-46.735,0c-9.736,0 -18.012,-7.789 -18.012,-18.012l0,-38.459c0,-9.736 7.789,-18.012 18.012,-18.012l46.735,-0c9.737,-0 18.013,7.789 18.013,18.012l-0,38.459c-0.487,9.736 -8.276,18.012 -18.013,18.012Z" style="fill:#fff;fill-rule:nonzero;"/><path d="M3253.95,919.198l-46.735,0c-9.736,0 -18.012,-7.789 -18.012,-18.012l0,-38.459c0,-9.736 7.789,-18.012 18.012,-18.012l46.735,-0c9.737,-0 18.013,7.789 18.013,18.012l-0,38.459c-0.487,9.736 -8.276,18.012 -18.013,18.012Z" style="fill:#fff;fill-rule:nonzero;"/></g><path d="M4763.58,1167.96l-1049.1,-0c-17.038,-0 -31.156,-14.118 -31.156,-31.157c-0,-17.039 14.118,-31.156 31.156,-31.156l1049.1,-0c17.039,-0 31.157,14.117 31.157,31.156c0.487,17.039 -13.631,31.157 -31.157,31.157Z" style="fill:#9ec8ff;fill-rule:nonzero;"/><path d="M3974.93,1651.86l-1049.1,0c-17.039,0 -31.156,-14.118 -31.156,-31.156c-0,-17.039 14.117,-31.157 31.156,-31.157l1049.1,0c17.039,0 31.157,14.118 31.157,31.157c-0,17.038 -14.118,31.156 -31.157,31.156Z" style="fill:#9ec8ff;fill-rule:nonzero;"/><path d="M4168.2,1651.86l-108.561,0c-5.842,0 -10.71,-4.868 -10.71,-10.71l-0,-41.38c-0,-5.842 4.868,-10.71 10.71,-10.71l108.561,0c5.842,0 10.71,4.868 10.71,10.71l0,41.38c0,5.842 -4.868,10.71 -10.71,10.71Z" style="fill:#9ec8ff;fill-rule:nonzero;"/><path d="M4331.77,1651.86l-108.561,0c-5.842,0 -10.71,-4.868 -10.71,-10.71l-0,-41.38c-0,-5.842 4.868,-10.71 10.71,-10.71l108.561,0c5.842,0 10.71,4.868 10.71,10.71l-0,41.38c-0,5.842 -4.868,10.71 -10.71,10.71Z" style="fill:#9ec8ff;fill-rule:nonzero;"/><path d="M4773.81,1304.76l-1736.98,0c-11.683,0 -21.42,-9.736 -21.42,-21.42c0,-11.684 9.737,-21.42 21.42,-21.42l1736.98,-0c11.683,-0 21.42,9.736 21.42,21.42c-0,11.684 -9.737,21.42 -21.42,21.42Z" style="fill:#9ec8ff;fill-rule:nonzero;"/><path d="M4773.81,1396.28l-1736.98,0c-11.683,0 -21.42,-9.736 -21.42,-21.42c0,-11.683 9.737,-21.42 21.42,-21.42l1736.98,0c11.683,0 21.42,9.737 21.42,21.42c-0,12.171 -9.737,21.42 -21.42,21.42Z" style="fill:#9ec8ff;fill-rule:nonzero;"/></g><g><path d="M10013.9,1119.77l-895.749,0l-0,-522.358l673.759,-0c86.654,86.654 135.336,135.336 221.99,221.99l0,300.368Z" style="fill:#ffb8b3;fill-rule:nonzero;"/><path d="M9775.4,597.41l0,278.948l238.542,0l0,-53.55l-223.45,-223.938l-15.092,-1.46Z" style="fill:#f39892;fill-rule:nonzero;"/><path d="M9791.95,597.41l0,225.398l221.99,-0l-221.99,-225.398Z" style="fill:#ffb8b3;fill-rule:nonzero;"/><path d="M9618.64,793.599l-399.193,-0c-8.762,-0 -15.578,-7.303 -15.578,-15.579c0,-8.762 7.302,-15.578 15.578,-15.578l399.193,0c8.763,0 15.578,7.302 15.578,15.578c0,8.276 -6.815,15.579 -15.578,15.579Z" style="fill:#fff;fill-rule:nonzero;"/><path d="M9618.64,874.411l-399.193,-0c-8.762,-0 -15.578,-7.303 -15.578,-15.578c0,-8.763 7.302,-15.579 15.578,-15.579l399.193,0c8.763,0 15.578,7.303 15.578,15.579c0,8.275 -6.815,15.578 -15.578,15.578Z" style="fill:#fff;fill-rule:nonzero;"/><path d="M9618.64,959.604l-399.193,0c-8.762,0 -15.578,-7.302 -15.578,-15.578c0,-8.763 7.302,-15.578 15.578,-15.578l399.193,-0c8.763,-0 15.578,7.302 15.578,15.578c0,8.276 -6.815,15.578 -15.578,15.578Z" style="fill:#fff;fill-rule:nonzero;"/></g><circle cx="9539.29" cy="637.816" r="26.775" style="fill:#3e6bab;"/><path d="M6161.98,622.976l-558.736,-107.957l-130.213,673.924l558.736,107.957l130.213,-673.924Z" style="fill:#fae8b6;"/><path d="M6044.41,914.33l-296.474,-57.445c-7.789,-1.46 -13.144,-9.249 -11.683,-17.038c1.46,-7.79 9.249,-13.145 17.038,-11.684l296.474,57.445c7.789,1.46 13.144,9.249 11.684,17.038c-1.461,8.276 -9.25,13.145 -17.039,11.684Z" style="fill:#9ec8ff;fill-rule:nonzero;"/><path d="M6029.8,988.327l-296.474,-57.445c-7.789,-1.46 -13.144,-9.25 -11.684,-17.039c1.461,-7.789 9.25,-13.144 17.039,-11.683l296.474,57.444c7.789,1.461 13.144,9.25 11.683,17.039c-1.46,8.276 -9.249,13.631 -17.038,11.684Z" style="fill:#9ec8ff;fill-rule:nonzero;"/><path d="M6015.2,1064.76l-296.474,-57.445c-7.789,-1.461 -13.144,-9.25 -11.683,-17.039c1.46,-7.789 9.249,-13.144 17.038,-11.684l296.474,57.445c7.789,1.461 13.144,9.25 11.684,17.039c-1.461,7.789 -9.25,13.144 -17.039,11.684Z" style="fill:#9ec8ff;fill-rule:nonzero;"/><path d="M5843.35,605.686c-2.434,13.144 -15.091,21.907 -28.722,19.473c-13.144,-2.434 -21.907,-15.092 -19.473,-28.723c2.434,-13.144 15.091,-21.907 28.722,-19.473c13.631,2.435 22.394,15.092 19.473,28.723Z" style="fill:#3e6bab;fill-rule:nonzero;"/><path d="M10427.7,1850l-865.08,-91.035l56.958,-542.318l685.93,72.049c62.8,77.404 97.851,120.732 160.164,198.136l-37.972,363.168Z" style="fill:#9ec8ff;fill-rule:nonzero;"/><path d="M10293.4,1327.64l-644.063,-67.668l-48.195,457.611l800.332,84.22l28.236,-267.751l-156.269,-16.552l19.959,-189.86Z" style="fill:#fff;fill-rule:nonzero;"/><path d="M10205.7,1494.13l-417.206,-43.814c-9.736,-0.973 -16.551,-9.736 -15.578,-18.986c0.974,-9.736 9.737,-16.551 18.986,-15.578l417.205,43.814c9.737,0.974 16.552,9.736 15.579,18.986c-0.487,9.25 -9.25,16.552 -18.986,15.578Z" style="fill:#9ec8ff;fill-rule:nonzero;"/><path d="M10196,1585.66l-417.205,-43.814c-9.736,-0.974 -16.552,-9.737 -15.578,-18.986c0.973,-9.737 9.736,-16.552 18.986,-15.579l417.205,43.814c9.736,0.974 16.552,9.737 15.578,18.986c-0.487,9.737 -9.249,16.552 -18.986,15.579Z" style="fill:#9ec8ff;fill-rule:nonzero;"/><path d="M10186.3,1682.05l-417.205,-43.814c-9.737,-0.974 -16.552,-9.736 -15.579,-18.986c0.974,-9.736 9.737,-16.552 18.986,-15.578l417.206,43.814c9.736,0.973 16.551,9.736 15.578,18.986c-0.974,9.249 -9.737,16.552 -18.986,15.578Z" style="fill:#9ec8ff;fill-rule:nonzero;"/><circle cx="9943.35" cy="1341.76" r="26.775" style="fill:#3e6bab;"/><g><path d="M14725.9,919.198c-0,165.032 -133.876,298.421 -298.421,298.421c-165.032,0 -298.421,-133.875 -298.421,-298.421c-0,-165.032 133.876,-298.421 298.421,-298.421c164.545,-0.486 298.421,133.389 298.421,298.421Z" style="fill:#9cd499;fill-rule:nonzero;"/><g><path d="M14397.3,1021.43l-0.487,-0c-3.894,-0 -7.789,-1.948 -10.223,-4.869l-81.299,-92.009c-5.355,-5.842 -4.868,-15.091 1.46,-20.446c5.842,-5.355 15.092,-4.868 20.447,1.46l71.076,80.813l162.111,-158.704c5.842,-5.842 15.091,-5.355 20.446,0c5.842,5.842 5.355,15.091 0,20.446l-173.308,169.414c-2.434,2.434 -6.328,3.895 -10.223,3.895Z" style="fill:#fff;fill-rule:nonzero;"/></g></g><g><path d="M970.276,3691.64l1721.88,-0c44.301,-0 80.326,-36.025 80.326,-80.325l-0,-615.342c-0,-44.3 -36.025,-80.325 -80.326,-80.325l-1721.88,0c-44.3,0 -80.325,36.025 -80.325,80.325l-0,615.342c-0,44.3 36.511,80.325 80.325,80.325Z" style="fill:#9ec8ff;fill-rule:nonzero;"/><path d="M2545.14,3574.32l-0,427.915l-493.15,-493.149c0,0 482.926,65.234 493.15,65.234Z" style="fill:#9ec8ff;fill-rule:nonzero;"/><path d="M1055.47,3614.72l1551.5,0c37.485,0 68.155,-30.669 68.155,-68.155l-0,-485.846c-0,-37.486 -30.67,-68.155 -68.155,-68.155l-1551.5,-0c-37.485,-0 -68.155,30.669 -68.155,68.155l-0,485.846c-0,37.486 30.67,68.155 68.155,68.155Z" style="fill:#fff;fill-rule:nonzero;"/><path d="M1756.01,3146.4l762.36,-0c18.5,-0 33.591,-15.091 33.591,-33.591c0,-18.499 -15.091,-33.59 -33.591,-33.59l-762.36,-0c-18.5,-0 -33.591,15.091 -33.591,33.59c0.487,18.5 15.091,33.591 33.591,33.591Z" style="fill:#9ec8ff;fill-rule:nonzero;"/><path d="M1119.24,3274.44l1413.73,-0c10.223,-0 18.499,-8.276 18.499,-18.499l0,-0.487c0,-10.223 -8.276,-18.499 -18.499,-18.499l-1413.73,-0c-10.223,-0 -18.499,8.276 -18.499,18.499l0,0.487c0,10.223 8.276,18.499 18.499,18.499Z" style="fill:#9ec8ff;fill-rule:nonzero;"/><path d="M1119.24,3346.97l1413.73,0c10.223,0 18.499,-8.276 18.499,-18.499l0,-0.487c0,-10.223 -8.276,-18.499 -18.499,-18.499l-1413.73,-0c-10.223,-0 -18.499,8.276 -18.499,18.499l0,0.487c0,10.223 8.276,18.499 18.499,18.499Z" style="fill:#9ec8ff;fill-rule:nonzero;"/></g><g><path d="M13705.5,3149.32l90.062,-0c18.986,-0 34.564,-15.578 34.564,-34.564l0,-74.484c0,-18.986 -15.578,-34.564 -34.564,-34.564l-90.062,-0c-18.986,-0 -34.564,15.578 -34.564,34.564l-0,74.484c-0,19.472 15.578,34.564 34.564,34.564Z" style="fill:#9ec8ff;fill-rule:nonzero;"/><path d="M13415.8,3149.32l90.062,-0c18.986,-0 34.564,-15.578 34.564,-34.564l-0,-74.484c-0,-18.986 -15.578,-34.564 -34.564,-34.564l-90.062,-0c-18.986,-0 -34.564,15.578 -34.564,34.564l-0,74.484c-0,19.472 15.578,34.564 34.564,34.564Z" style="fill:#9ec8ff;fill-rule:nonzero;"/><path d="M13126.2,3149.32l90.061,-0c18.986,-0 34.565,-15.578 34.565,-34.564l-0,-74.484c-0,-18.986 -15.579,-34.564 -34.565,-34.564l-90.061,-0c-18.986,-0 -34.565,15.578 -34.565,34.564l0,74.484c0,19.472 15.579,34.564 34.565,34.564Z" style="fill:#9ec8ff;fill-rule:nonzero;"/></g></g></g></svg>