<?xml version="1.0" encoding="UTF-8" standalone="no"?><!DOCTYPE svg PUBLIC "-//W3C//DTD SVG 1.1//EN" "http://www.w3.org/Graphics/SVG/1.1/DTD/svg11.dtd"><svg width="100%" height="100%" viewBox="0 0 87495 58334" version="1.1" xmlns="http://www.w3.org/2000/svg" xmlns:xlink="http://www.w3.org/1999/xlink" xml:space="preserve" xmlns:serif="http://www.serif.com/" style="fill-rule:evenodd;clip-rule:evenodd;stroke-linejoin:round;stroke-miterlimit:2;"><g><path d="M57594.7,35854.5l-5650.8,-20771.4l-33853.2,-0l-85.227,-342.203l34367,-0l5631.92,21067.2l-409.841,46.328l0.057,0.042l0.021,-0.008Z" style="fill:#f1a34f;fill-rule:nonzero;"/><path d="M37446.7,45889.8c-272.771,-0 -538.321,-0.346 -791.156,-0.346l1702.9,0c-306.782,0 -613.565,0.346 -911.747,0.346l0.006,-0Z" style="fill:#e78b37;fill-rule:nonzero;"/><path d="M18005.3,5683.37l34367.2,0l5575.91,29859.3l-34758.9,0l-5184.15,-29859.3Z" style="fill:#699dee;fill-rule:nonzero;"/><path d="M56327.7,34641.1l-32178,0l-3644.12,-21291.3l-279.292,-1632.77l-238.442,-1392.69l-558.866,-3265.54l31714.4,-0l613.547,3265.54l261.773,1392.69l306.783,1632.77l4002.18,21291.3l0.077,0Z" style="fill:#e4edf9;fill-rule:nonzero;"/><g><g opacity="0.9"><g><path d="M36339.2,16802.5c-114.208,-0 -199.865,92.694 -199.865,199.649l0,7337.11c0,114.086 92.795,199.65 199.865,199.65l7345.01,-0c114.208,-0 199.865,-92.695 199.865,-199.65l-0,-7329.98c-0,-114.085 -92.795,-199.649 -199.865,-199.649l-7345.01,0l-0,-7.13Z" style="fill:#14abe3;fill-rule:nonzero;"/></g></g><g><path d="M39351.5,23005.9c0,7.13 -7.138,7.13 -7.138,14.261l-71.38,-0c-0,-0 -7.138,-0 -7.138,-7.131l-0,-556.166l-221.278,549.036c-0,-0 -0,7.13 -7.138,7.13c-0,0 -7.138,0 -7.138,7.131l-57.105,-0c0,-0 -7.138,-0 -7.138,-7.131l-7.138,-7.13l-214.14,-549.036l0,556.166c0,0 -7.138,0 -7.138,7.131l-71.38,-0c0,-0 -7.138,-0 -7.138,-7.131l0,-584.687c0,-14.261 7.138,-21.391 14.276,-28.521c7.138,-7.131 14.276,-7.131 21.414,-7.131l78.518,0c7.138,0 14.276,7.131 21.414,7.131c7.138,7.13 14.276,7.13 14.276,14.26c0,7.131 7.138,14.261 7.138,21.391l178.45,456.342l185.589,-456.342c7.138,-7.13 7.138,-21.391 14.276,-21.391c7.138,0 7.138,-14.26 14.276,-14.26c7.138,-7.131 14.276,-7.131 14.276,-7.131l107.07,0c7.138,0 7.138,7.131 14.276,7.131c-0,-0 7.138,7.13 7.138,14.26l0,591.818Z" style="fill:#fff;fill-rule:nonzero;"/><path d="M39915.4,22777.7c-0,35.652 -7.138,71.304 -14.276,99.825c-7.138,28.521 -21.414,57.043 -42.828,78.434c-21.414,21.391 -42.828,35.651 -71.38,49.912c-28.552,14.261 -64.242,21.391 -99.933,21.391c-35.69,-0 -64.242,-7.13 -92.794,-14.261c-28.552,-7.13 -42.828,-28.521 -64.242,-49.912c-14.276,-21.391 -28.552,-42.782 -42.828,-71.303c-14.276,-28.522 -14.276,-64.173 -14.276,-99.825c0,-35.652 7.138,-71.303 14.276,-99.825c7.138,-28.521 21.414,-57.042 42.828,-78.433c21.414,-21.391 42.828,-35.652 71.38,-49.913c28.552,-14.26 64.242,-21.391 99.933,-21.391c35.69,0 64.242,7.131 92.794,14.261c28.552,7.13 49.966,28.521 64.242,49.912c21.414,21.391 28.552,42.782 42.828,71.304c14.276,28.521 14.276,64.173 14.276,99.824Zm-85.656,7.131c-0,-21.391 -0,-42.782 -7.138,-64.173c-7.138,-21.391 -14.276,-42.782 -21.414,-57.043c-7.138,-14.261 -21.414,-28.521 -42.828,-35.652c-14.276,-14.26 -35.69,-21.391 -57.104,-21.391c-21.415,0 -42.829,7.131 -64.243,14.261c-14.276,7.13 -28.552,21.391 -42.828,35.652c-14.276,14.26 -21.414,35.651 -21.414,57.042c-7.138,21.391 -7.138,42.782 -7.138,71.304c0,21.391 0,49.912 7.138,71.303c7.138,21.391 14.276,42.782 21.414,57.043c7.138,14.26 21.414,28.521 42.828,35.651c14.276,7.131 35.69,14.261 64.243,14.261c21.414,-0 42.828,-7.13 64.242,-14.261c14.276,-7.13 28.552,-21.391 42.828,-35.651c14.276,-14.261 21.414,-35.652 21.414,-57.043l-0,-71.303Z" style="fill:#fff;fill-rule:nonzero;"/><path d="M40436.4,22777.7c-0,35.652 -7.138,71.304 -14.276,99.825c-7.138,28.521 -21.414,57.043 -35.69,78.434c-14.277,21.391 -35.691,35.651 -57.105,49.912c-21.414,14.261 -49.966,14.261 -78.518,14.261c-14.276,-0 -28.552,-0 -35.69,-7.131c-14.276,0 -21.414,-7.13 -35.69,-14.26c-14.276,-7.131 -21.414,-14.261 -35.69,-21.391c-14.276,-7.131 -21.414,-21.391 -35.69,-35.652l0,64.173l-7.138,7.13l-57.104,0c0,0 -7.138,0 -7.138,-7.13l-0,-663.121l7.138,-7.13l71.38,-0c7.138,-0 7.138,-0 7.138,7.13l0,270.953c14.276,-14.261 28.552,-21.391 35.69,-35.652c7.138,-14.261 21.414,-14.261 35.69,-21.391c14.276,-7.13 21.414,-7.13 35.69,-14.261c14.276,-7.13 21.414,-7.13 35.69,-7.13c28.552,-0 57.104,7.13 78.518,21.391c21.414,14.261 42.829,28.521 57.105,49.912c14.276,21.391 21.414,42.782 28.552,71.304c7.138,35.651 7.138,71.303 7.138,99.824Zm-78.519,7.131c0,-21.391 0,-42.782 -7.138,-64.173c0,-21.391 -7.138,-42.782 -21.414,-57.043c-14.276,-14.261 -21.414,-28.521 -35.69,-35.652c-14.276,-7.13 -28.552,-14.26 -49.966,-14.26c-7.138,-0 -21.414,-0 -28.552,7.13c-7.138,-0 -21.414,7.13 -28.552,14.261c-7.138,7.13 -21.414,14.26 -35.69,28.521c-14.276,14.261 -21.414,21.391 -35.69,42.782l0,178.258c21.414,28.522 42.828,49.913 64.242,64.173c21.414,14.261 42.828,21.391 64.242,21.391c21.414,0 35.69,-7.13 49.966,-14.26c14.276,-7.131 28.552,-21.391 35.69,-35.652c7.138,-14.261 14.276,-35.652 21.414,-57.043c0,-35.651 7.138,-57.042 7.138,-78.433Z" style="fill:#fff;fill-rule:nonzero;"/><path d="M40650.6,22414.1c-0,21.391 -0,28.522 -14.276,35.652c-7.138,14.261 -14.276,14.261 -35.69,14.261c-21.414,-0 -28.552,-0 -35.69,-7.131c-7.138,-7.13 -7.138,-21.391 -7.138,-35.651c-0,-21.391 7.138,-28.522 14.276,-35.652c7.138,-7.13 21.414,-7.13 42.828,-7.13c21.414,-0 28.552,-0 35.69,7.13c-7.138,-0 -0,14.261 -0,28.521Zm-7.138,142.607l-0,449.211c-0,7.13 -7.138,7.13 -7.138,14.261c-0,7.13 -7.138,-0 -14.276,-0l-57.104,-0c-0,-0 -7.138,-0 -7.138,-7.131l-0,-456.341l7.138,-7.13l71.38,-0c7.138,-0 7.138,-0 7.138,7.13Z" style="fill:#fff;fill-rule:nonzero;"/><path d="M40871.8,23005.9c0,7.13 -7.138,7.13 -7.138,14.261c0,7.13 -7.138,-0 -14.276,-0l-57.104,-0c0,-0 -7.138,-0 -7.138,-7.131l0,-663.121l7.138,-7.13l71.38,-0c7.138,-0 7.138,-0 7.138,7.13l0,655.991Z" style="fill:#fff;fill-rule:nonzero;"/><path d="M41392.9,22763.5c-0,14.26 -0,21.391 -7.138,28.521c-7.138,7.13 -14.276,7.13 -21.414,7.13l-292.659,0c0,21.391 0,42.782 7.138,64.173c7.139,21.391 14.277,35.652 21.415,49.913c7.138,14.26 28.552,21.391 42.828,35.651c21.414,7.131 42.828,14.261 64.242,14.261c21.414,-0 42.828,-0 57.104,-7.13c14.276,-0 28.552,-7.131 42.828,-14.261c14.276,-7.13 21.414,-7.13 28.552,-14.261c7.138,0 14.276,-7.13 14.276,-7.13l7.138,-0l7.138,7.13c7.138,7.131 -0,7.131 -0,7.131l-0,42.782c-0,-0 -0,7.13 -7.138,7.13c-0,-0 -7.138,7.13 -14.276,7.13c-7.138,7.131 -21.414,7.131 -35.69,14.261c-14.276,7.13 -28.552,7.13 -49.966,7.13c-21.414,0 -35.69,7.131 -57.104,7.131c-35.69,-0 -64.242,-7.131 -92.794,-14.261c-28.553,-7.13 -49.967,-28.521 -71.381,-42.782c-21.414,-14.261 -35.69,-42.782 -42.828,-71.303c-7.138,-28.522 -14.276,-64.173 -14.276,-106.955c0,-35.652 7.138,-71.304 14.276,-99.825c7.138,-28.521 21.414,-57.043 42.828,-78.434c21.414,-21.391 42.828,-35.651 64.243,-49.912c28.552,-14.261 57.104,-14.261 85.656,-14.261c35.69,0 64.242,7.131 85.656,14.261c21.414,14.261 42.828,28.521 57.104,42.782c14.276,21.391 28.552,42.782 35.69,64.173c7.138,28.521 14.276,49.912 14.276,78.434l-0,21.391l14.276,-0Zm-78.518,-21.391c-0,-42.782 -7.138,-78.434 -28.552,-99.825c-21.414,-21.391 -49.966,-35.652 -92.794,-35.652c-21.414,0 -35.69,7.131 -49.966,14.261c-14.276,7.13 -28.552,14.261 -35.69,28.521c-7.138,14.261 -21.414,28.522 -21.414,42.782c-7.139,14.261 -7.139,35.652 -7.139,49.913l235.555,-0Z" style="fill:#fff;fill-rule:nonzero;"/></g><g><path d="M39230.1,19433.6c35.69,-49.913 64.242,-85.564 92.794,-128.346c71.38,-71.304 157.036,-121.216 249.83,-142.607c114.208,-28.521 228.417,-21.391 342.625,14.261c178.45,57.042 278.382,185.388 314.072,356.516c21.414,85.565 28.552,178.259 28.552,270.953l0,905.553c-49.966,14.26 -235.554,21.391 -335.486,7.13c-0,-21.391 -7.138,-49.912 -7.138,-71.303l-0,-905.553c-0,-49.912 -0,-99.824 -14.276,-142.607c-21.414,-92.694 -85.656,-156.867 -185.588,-178.258c-64.243,-14.261 -121.347,-7.13 -178.451,7.13c-107.07,28.522 -185.588,149.737 -185.588,249.562l0,1026.77c-42.828,14.261 -228.416,21.391 -335.486,7.131c-0,-21.391 -7.138,-42.782 -7.138,-71.304l-0,-934.073c-0,-49.913 -7.138,-92.695 -21.415,-142.607c-21.414,-92.695 -85.656,-135.477 -178.45,-156.868c-121.346,-28.521 -214.14,14.261 -299.796,92.695c-14.276,14.26 -28.552,28.521 -42.828,42.782c-21.414,14.26 -28.552,35.651 -28.552,64.173l-0,1105.2l-328.349,-0c-14.276,-49.913 -14.276,-1483.11 0,-1547.28c71.38,-7.13 142.76,-7.13 214.141,0c28.552,0 49.966,21.391 57.104,49.912c7.138,21.391 14.276,49.913 21.414,71.304c7.138,14.26 7.138,35.651 14.276,57.042c57.104,-42.782 107.07,-92.694 164.174,-128.346c135.622,-92.694 285.52,-99.824 435.419,-35.651c85.656,35.651 142.76,106.955 185.588,192.519c14.276,21.391 21.414,42.782 28.552,64.173" style="fill:#fff;fill-rule:nonzero;"/><path d="M41642.8,19947c-7.138,92.694 7.138,185.389 35.69,278.083c42.828,121.216 121.347,213.91 256.969,242.431c78.518,14.261 157.036,14.261 242.692,0c92.794,-21.391 164.174,-71.303 207.002,-156.867c21.414,-42.782 35.69,-85.564 49.966,-128.346c35.691,-99.825 21.414,-199.649 28.552,-299.474c0,-99.825 -21.414,-192.519 -64.242,-285.214c-28.552,-57.042 -64.242,-106.955 -121.346,-135.476c-85.656,-57.043 -185.588,-64.173 -278.382,-49.912c-135.622,14.26 -235.555,78.433 -292.659,206.78c-49.966,106.955 -71.38,213.91 -64.242,327.995m421.143,805.728c-185.588,-7.131 -342.625,-42.782 -485.385,-149.737c-99.932,-78.434 -178.45,-178.259 -228.416,-299.474c-49.966,-121.216 -64.242,-242.432 -64.242,-363.647c7.138,-178.259 42.828,-342.257 142.76,-491.994c121.346,-163.997 278.382,-256.692 485.385,-285.213c128.484,-21.391 256.968,-7.13 385.452,28.521c114.208,35.652 214.141,92.695 299.797,185.389c128.484,135.476 185.588,292.344 199.864,470.602c14.276,142.607 -0,278.083 -35.69,413.56c-28.552,99.824 -78.518,185.388 -149.898,263.822c-114.208,128.346 -264.107,199.649 -435.419,221.04c-42.828,0 -85.656,7.131 -114.208,7.131" style="fill:#fff;fill-rule:nonzero;"/><path d="M40986.1,20724.2l-321.21,0c-14.276,-49.912 -14.276,-1468.85 -0,-1547.28c14.276,-0 28.552,-7.131 49.966,-7.131l192.726,0c78.518,0 78.518,0 78.518,78.434l0,1475.98Z" style="fill:#fff;fill-rule:nonzero;"/><path d="M37531.3,19212.6c78.519,0 149.899,-7.13 221.279,0c-14.276,57.043 -21.414,114.086 -35.69,171.128c-42.828,199.65 -85.656,399.299 -128.485,598.949c-28.552,121.215 -49.966,242.431 -71.38,356.516c-7.138,49.913 -21.414,106.955 21.414,156.868c14.276,14.26 28.552,28.521 49.966,35.651c42.829,7.131 92.795,28.522 142.761,7.131l28.552,-0c7.138,57.042 -14.276,106.955 -28.552,156.867c-0,7.13 -21.414,21.391 -35.69,21.391c-99.933,21.391 -192.727,21.391 -285.521,-21.391c-85.656,-42.782 -149.898,-178.258 -128.484,-270.953c28.552,-149.737 64.242,-306.604 92.794,-456.341c42.828,-221.04 92.794,-442.081 135.622,-655.991c7.138,-28.521 14.276,-64.173 21.414,-99.825" style="fill:#fff;fill-rule:nonzero;"/><path d="M40814.7,18492.4c121.346,-0 214.14,99.824 214.14,221.04c0,128.346 -107.07,213.91 -221.278,213.91c-99.932,0 -221.278,-114.085 -214.14,-213.91c-0,-135.476 99.932,-228.171 221.278,-221.04" style="fill:#fff;fill-rule:nonzero;"/><path d="M37909.6,18670.7c-0,92.694 -57.104,149.737 -142.76,149.737c-99.932,0 -157.036,-85.564 -157.036,-156.867c-0,-71.304 78.518,-142.607 164.174,-142.607c71.38,0 135.622,64.173 135.622,149.737" style="fill:#fff;fill-rule:nonzero;"/></g></g><g><g opacity="0.9"><g><path d="M27169.6,7871.79c-117.44,0 -205.519,95.317 -205.519,205.299l-0,7544.71c-0,117.313 95.419,205.298 205.519,205.298l7552.83,-0c117.44,-0 205.52,-95.317 205.52,-205.298l-0,-7544.71c-0,-117.314 -95.42,-205.299 -205.52,-205.299l-7552.83,0Z" style="fill:#e73e8e;fill-rule:nonzero;"/></g></g><g><path d="M27977,14228.7c-0,7.332 7.34,14.664 7.34,14.664c-0,7.332 -0,7.332 -7.34,7.332c-0,-0 -7.34,7.332 -14.68,7.332l-58.72,-0c0,-0 -7.34,-0 -7.34,-7.332c0,-7.332 0,-7.332 -7.34,-7.332l-58.72,-161.306l-271.579,0l-51.379,153.974c-0,-0 -0,7.332 -7.34,7.332l-7.34,7.332l-58.72,-0c-0,7.332 -7.34,7.332 -7.34,7.332l-0,-7.332c-0,-7.332 -0,-7.332 7.34,-14.664l220.199,-601.231c-0,0 -0,-7.332 7.34,-7.332l7.34,-7.332l80.74,0l14.68,14.664l212.859,593.899Zm-278.919,-535.242l-110.1,322.611l227.539,0l-117.439,-322.611Z" style="fill:#fff;fill-rule:nonzero;"/><path d="M28439.5,14243.4l7.34,-0c-0,7.332 -7.34,7.332 -7.34,14.664c0,7.332 -7.34,-0 -14.68,-0l-58.72,-0c-7.34,-0 -7.34,-0 -7.34,-7.332l0,-271.287c0,-29.328 0,-43.993 -7.34,-58.657c-7.34,-14.664 -7.34,-29.328 -14.68,-43.992c-7.34,-14.664 -14.68,-21.996 -29.359,-29.328c-14.68,-7.333 -29.36,-7.333 -44.04,-7.333c-22.02,0 -44.04,7.333 -58.72,21.997c-22.02,14.664 -44.04,36.66 -66.06,65.988l0,322.612l-7.34,7.332c-7.34,7.332 -7.34,-0 -14.68,-0l-58.72,-0c0,-0 -7.34,-0 -7.34,-7.332l0,-469.253l7.34,-7.332l66.06,-0c0,-0 7.34,-0 7.34,7.332l0,65.989c22.02,-29.329 51.38,-51.325 73.4,-65.989c22.02,-14.664 51.38,-21.996 73.4,-21.996c29.36,-0 58.719,7.332 73.399,14.664c22.02,7.332 36.7,21.996 51.38,43.992c14.68,14.664 22.02,36.661 29.36,58.657c7.34,21.996 7.34,51.324 7.34,80.653l0,285.951Z" style="fill:#fff;fill-rule:nonzero;"/><path d="M28916.6,14250.7c0,7.332 0,7.332 -7.34,7.332c0,-0 -7.34,-0 -14.68,7.332l-44.04,-0c-7.339,-0 -7.339,-0 -14.679,-7.332l-0,-51.325c-22.02,21.997 -44.04,36.661 -66.06,51.325c-22.02,14.664 -51.38,14.664 -73.4,14.664c-22.02,0 -44.04,0 -66.06,-7.332c-22.02,-7.332 -36.7,-14.664 -51.379,-29.328c-14.68,-14.664 -22.02,-29.329 -29.36,-43.993c-7.34,-14.664 -14.68,-36.66 -14.68,-58.656c-0,-21.997 7.34,-43.993 14.68,-65.989c7.34,-21.996 22.02,-36.661 44.039,-43.993c22.02,-14.664 44.04,-21.996 73.4,-29.328c29.36,-7.332 58.72,-7.332 95.42,-7.332l58.72,-0l-0,-36.66c-0,-14.665 -0,-29.329 -7.34,-43.993c-7.34,-14.664 -7.34,-21.996 -14.68,-36.66c-7.34,-7.332 -22.02,-14.664 -29.36,-21.996c-14.68,-7.333 -29.36,-7.333 -51.38,-7.333c-22.02,0 -36.7,0 -51.38,7.333c-14.68,7.332 -29.36,7.332 -44.04,14.664c-14.68,7.332 -22.02,14.664 -29.36,14.664c-7.34,7.332 -14.679,7.332 -14.679,7.332l-7.34,-0c-0,-0 -7.34,-0 -7.34,-7.332l-0,-43.993c-0,-7.332 7.34,-7.332 7.34,-14.664c-0,-7.332 14.679,-7.332 22.019,-14.664c14.68,-7.332 22.02,-14.664 36.7,-14.664c14.68,-7.332 29.36,-7.332 44.04,-14.664c14.68,-0 36.7,-7.332 51.38,-7.332c29.36,-0 58.72,-0 80.74,14.664c22.02,7.332 44.039,14.664 58.719,29.328c14.68,14.664 22.02,29.328 29.36,51.325c7.34,21.996 7.34,43.992 7.34,73.32l0,315.28l14.68,-0Zm-80.739,-212.63l-73.4,-0c-22.02,-0 -44.04,-0 -58.72,7.332c-14.68,7.332 -29.36,7.332 -44.04,14.664c-14.68,7.332 -22.02,14.664 -22.02,29.328c-7.34,7.332 -7.34,21.996 -7.34,36.66c0,21.997 7.34,43.993 22.02,58.657c14.68,14.664 36.7,21.996 66.06,21.996c22.02,0 44.04,-7.332 58.72,-14.664c14.68,-7.332 36.7,-29.328 58.72,-51.324l-0,-102.649Z" style="fill:#fff;fill-rule:nonzero;"/><path d="M29129.4,13568.8l0,674.551c0,7.332 -7.34,7.332 -7.34,14.664c0,7.332 -7.34,-0 -14.679,-0l-58.72,-0c-0,-0 -7.34,-0 -7.34,-7.332l-0,-681.883l7.34,-7.333l73.399,0c7.34,0 7.34,0 7.34,7.333Z" style="fill:#fff;fill-rule:nonzero;"/><path d="M29357,13642.1c-0,21.997 -0,29.329 -14.68,36.661c-7.34,7.332 -22.02,7.332 -44.04,7.332c-22.02,-0 -29.36,-0 -36.7,-7.332c-7.34,-7.332 -7.34,-21.997 -7.34,-36.661c-0,-21.996 7.34,-29.328 14.68,-36.66c7.34,-7.332 22.02,-7.332 44.04,-7.332c22.02,-0 29.36,-0 36.7,7.332c-0,7.332 7.34,21.996 7.34,36.66Zm-14.68,139.31l-0,461.921c-0,7.332 -7.34,7.332 -7.34,14.664c-0,7.332 -7.34,-0 -14.68,-0l-58.72,-0c-0,-0 -7.34,-0 -7.34,-7.332l-0,-469.253l7.34,-7.332l73.4,-0c7.34,-0 7.34,-0 7.34,7.332Z" style="fill:#fff;fill-rule:nonzero;"/><path d="M29760.7,14126.1c0,21.997 -7.34,43.993 -14.68,58.657c-7.34,14.664 -22.02,36.661 -36.7,43.993c-14.68,14.664 -36.7,21.996 -58.72,29.328c-22.019,7.332 -44.039,7.332 -73.399,7.332c-14.68,-0 -29.36,-0 -44.04,-7.332c-14.68,-0 -29.36,-7.332 -36.7,-7.332c-14.68,-7.332 -22.02,-7.332 -29.36,-14.664c-7.34,-7.332 -14.68,-7.332 -14.68,-14.664c0,-0 -7.34,-7.333 -7.34,-14.665l0,-43.992c0,-0 0,-7.332 7.34,-7.332l7.34,-0c7.34,-0 7.34,-0 14.68,7.332c7.34,7.332 14.68,7.332 29.36,14.664c14.68,7.332 22.02,7.332 36.7,14.664c14.68,7.332 29.36,7.332 51.38,7.332c14.68,0 29.36,0 36.7,-7.332c14.68,0 22.019,-7.332 29.359,-14.664c7.34,-7.332 14.68,-14.664 22.02,-21.996c7.34,-7.332 7.34,-21.996 7.34,-29.329c0,-14.664 0,-21.996 -7.34,-29.328c-7.34,-7.332 -14.68,-14.664 -29.36,-21.996c-7.339,-7.332 -22.019,-14.664 -36.699,-14.664c-14.68,-7.332 -29.36,-7.332 -44.04,-14.664c-14.68,-7.332 -29.36,-14.665 -44.04,-21.997c-14.68,-7.332 -22.02,-14.664 -36.7,-29.328c-7.34,-7.332 -22.02,-21.996 -29.36,-36.66c-7.34,-14.664 -7.34,-29.329 -7.34,-51.325c0,-14.664 0,-36.66 7.34,-51.324c7.34,-14.665 14.68,-29.329 29.36,-43.993c14.68,-14.664 29.36,-21.996 51.38,-29.328c22.02,-7.332 44.04,-14.664 73.4,-14.664l36.699,-0c14.68,-0 22.02,7.332 29.36,7.332c7.34,-0 14.68,7.332 22.02,7.332c7.34,-0 14.68,7.332 14.68,7.332l7.34,7.332l0,51.325c0,-0 0,7.332 -7.34,7.332l-7.34,-0c0,-0 -7.34,-0 -14.68,-7.332c-7.34,-0 -14.68,-7.333 -22.02,-14.665c-7.34,-7.332 -22.02,-7.332 -29.359,-14.664c-14.68,0 -29.36,-7.332 -44.04,-7.332c-14.68,0 -29.36,0 -36.7,7.332c-7.34,0 -22.02,7.332 -29.36,14.664c-7.34,7.332 -14.68,14.665 -14.68,21.997c-0,7.332 -7.34,14.664 -7.34,29.328c0,14.664 0,21.996 7.34,29.328c7.34,7.332 14.68,14.664 29.36,21.996c7.34,7.333 22.02,14.665 36.7,14.665c14.68,7.332 29.36,7.332 44.04,14.664c14.68,7.332 29.359,14.664 44.039,21.996c14.68,7.332 29.36,14.664 36.7,21.996c7.34,7.332 22.02,21.996 29.36,36.661c7.34,14.664 22.02,58.656 22.02,80.652Z" style="fill:#fff;fill-rule:nonzero;"/><path d="M29951.5,13642.1c0,21.997 -7.34,29.329 -14.68,36.661c-7.34,7.332 -22.019,7.332 -44.039,7.332c-22.02,-0 -29.36,-0 -36.7,-7.332c-7.34,-0 -7.34,-14.664 -7.34,-36.661c-0,-21.996 -0,-29.328 14.68,-36.66c7.34,-7.332 22.02,-7.332 44.04,-7.332c22.019,-0 29.359,-0 36.699,7.332c0,7.332 7.34,21.996 7.34,36.66Zm-7.34,601.231c0,7.332 -7.34,7.332 0,-0c0,7.332 -7.34,7.332 -7.34,14.664c0,7.332 -14.68,-0 -14.68,-0l-58.719,-0c-0,-0 -7.34,-0 -7.34,-7.332l-0,-469.253l7.34,-7.332l73.399,-0c7.34,-0 7.34,-0 7.34,7.332l0,461.921Z" style="fill:#fff;fill-rule:nonzero;"/><path d="M30795.6,13928.1c0,58.657 -7.34,102.649 -22.02,146.642c-14.68,43.992 -36.7,73.321 -66.059,102.649c-29.36,29.328 -58.72,51.325 -102.76,58.657c-44.04,7.332 -88.08,21.996 -146.8,21.996l-139.459,-0c-7.34,-0 -14.68,-0 -22.02,-7.332c-7.34,-7.332 -7.34,-14.664 -7.34,-29.328l0,-579.235c0,-14.664 0,-21.996 7.34,-29.328c7.34,-7.332 14.68,-7.332 22.02,-7.332l146.799,-0c58.72,-0 102.76,7.332 139.46,21.996c36.7,14.664 73.4,36.661 95.42,65.989c29.359,29.328 44.039,58.656 58.719,95.317c14.68,36.66 36.7,87.985 36.7,139.309Zm-95.419,0c-0,-36.66 -7.34,-65.988 -14.68,-95.317c-7.34,-29.328 -22.02,-58.656 -44.04,-80.653c-22.02,-21.996 -44.04,-36.66 -73.4,-51.324c-29.36,-14.664 -66.06,-21.996 -110.1,-21.996l-88.079,-0l-0,505.913l88.079,0c44.04,0 73.4,-7.332 102.76,-14.664c29.36,-7.332 51.38,-29.328 73.4,-43.993c22.02,-14.664 36.7,-51.324 44.04,-80.652c22.02,-36.661 22.02,-73.321 22.02,-117.314Z" style="fill:#fff;fill-rule:nonzero;"/><path d="M30986.4,13642.1c0,21.997 -7.339,29.329 -14.679,36.661c-7.34,7.332 -22.02,7.332 -44.04,7.332c-22.02,-0 -29.36,-0 -36.7,-7.332c-7.34,-7.332 -7.34,-21.997 -7.34,-36.661c-0,-21.996 -0,-29.328 14.68,-36.66c7.34,-7.332 22.02,-7.332 44.04,-7.332c22.02,-0 29.36,-0 36.7,7.332c7.339,7.332 7.339,21.996 7.339,36.66Zm-7.339,139.31l-0,461.921c-0,7.332 -7.34,7.332 -7.34,14.664c-0,7.332 -7.34,-0 -14.68,-0l-58.72,-0c-0,-0 -7.34,-0 -7.34,-7.332l-0,-469.253l7.34,-7.332l73.4,-0c7.34,-0 7.34,-0 7.34,7.332Z" style="fill:#fff;fill-rule:nonzero;"/><path d="M31492.9,14243.4l7.34,-0c-0,7.332 -7.34,7.332 -7.34,14.664c-0,7.332 -7.34,-0 -14.68,-0l-58.72,-0c-7.34,-0 -7.34,-0 -7.34,-7.332l-0,-271.287c-0,-29.328 -0,-43.993 -7.34,-58.657c-7.34,-14.664 -7.34,-29.328 -14.68,-43.992c-7.34,-14.664 -14.68,-21.996 -29.36,-29.328c-14.68,-7.333 -29.36,-7.333 -44.04,-7.333c-22.02,0 -44.04,7.333 -58.72,21.997c-22.019,14.664 -44.039,36.66 -66.059,65.988l-0,322.612l-7.34,7.332c-7.34,7.332 -7.34,-0 -14.68,-0l-58.72,-0c0,-0 -7.34,-0 -7.34,-7.332l0,-469.253l7.34,-7.332l66.06,-0c-0,-0 7.34,-0 7.34,7.332l-0,65.989c22.02,-29.329 51.38,-51.325 73.399,-65.989c22.02,-14.664 51.38,-21.996 73.4,-21.996c29.36,-0 58.72,7.332 73.4,14.664c22.02,7.332 36.7,21.996 51.38,43.992c14.68,14.664 22.02,36.661 29.36,58.657c7.34,21.996 7.34,51.324 7.34,80.653l-0,285.951Z" style="fill:#fff;fill-rule:nonzero;"/><path d="M31970,14250.7c-0,7.332 -0,7.332 -7.34,7.332c-0,-0 -7.34,-0 -14.68,7.332l-44.04,-0c7.34,-7.332 0,-7.332 0,-7.332l0,-51.325c-22.02,21.997 -44.04,36.661 -66.06,51.325c-22.02,14.664 -51.38,14.664 -73.399,14.664c-22.02,0 -44.04,0 -66.06,-7.332c-22.02,-7.332 -36.7,-14.664 -51.38,-29.328c-14.68,-14.664 -22.02,-29.329 -29.36,-43.993c-7.34,-14.664 -14.68,-36.66 -14.68,-58.656c0,-21.997 7.34,-43.993 14.68,-65.989c7.34,-21.996 22.02,-36.661 44.04,-43.993c22.02,-14.664 44.04,-21.996 73.4,-29.328c29.36,-7.332 58.719,-7.332 95.419,-7.332l58.72,-0l0,-36.66c0,-14.665 0,-29.329 -7.34,-43.993c0,-14.664 -7.34,-21.996 -14.68,-36.66c-7.34,-7.332 -22.02,-14.664 -29.36,-21.996c-14.68,-7.333 -29.36,-7.333 -51.38,-7.333c-22.019,0 -36.699,0 -51.379,7.333c-14.68,7.332 -29.36,7.332 -44.04,14.664c-14.68,7.332 -22.02,14.664 -29.36,14.664c-7.34,7.332 -14.68,7.332 -14.68,7.332l-7.34,-0c0,-0 -7.34,-0 -7.34,-7.332l0,-43.993c0,-7.332 7.34,-7.332 7.34,-14.664c0,-7.332 14.68,-7.332 22.02,-14.664c14.68,-7.332 22.02,-14.664 36.7,-14.664c14.68,-7.332 29.36,-7.332 44.04,-14.664c14.68,-0 36.7,-7.332 51.379,-7.332c29.36,-0 58.72,-0 80.74,14.664c22.02,7.332 44.04,14.664 58.72,29.328c14.68,14.664 22.02,29.328 29.36,51.325c7.34,21.996 7.34,43.992 7.34,73.32l-0,315.28Zm-80.74,-212.63l-73.4,-0c-22.02,-0 -44.039,-0 -58.719,7.332c-14.68,7.332 -29.36,7.332 -44.04,14.664c-14.68,7.332 -22.02,14.664 -22.02,29.328c-0,14.664 -7.34,21.996 -7.34,36.66c-0,21.997 7.34,43.993 22.02,58.657c14.68,14.664 36.7,21.996 66.06,21.996c22.019,0 44.039,-7.332 58.719,-14.664c14.68,-7.332 36.7,-29.328 58.72,-51.324l0,-102.649Z" style="fill:#fff;fill-rule:nonzero;"/><path d="M32777.4,14243.4c-0,7.332 -7.34,7.332 -0,-0c-0,7.332 -7.34,7.332 -7.34,14.664c-0,7.332 -7.34,-0 -14.68,-0l-58.72,-0c0,-0 -7.34,-0 -7.34,-7.332l0,-278.619c0,-21.996 0,-36.661 -7.34,-51.325c0,-14.664 -7.34,-29.328 -14.68,-43.992c-7.34,-14.664 -14.68,-21.996 -29.36,-29.328c-14.68,-7.333 -22.02,-7.333 -36.7,-7.333c-22.019,0 -36.699,7.333 -58.719,21.997c-22.02,14.664 -36.7,36.66 -66.06,65.988l-0,322.612l-7.34,7.332l-73.4,-0c0,-0 -7.34,-0 -7.34,-7.332l0,-278.619c0,-21.996 0,-36.661 -7.34,-51.325c-7.34,-14.664 -7.34,-29.328 -14.68,-43.992c-7.34,-14.664 -14.68,-21.996 -29.36,-29.328c-14.68,-7.333 -22.019,-7.333 -36.699,-7.333c-22.02,0 -36.7,7.333 -58.72,21.997c-22.02,14.664 -44.04,36.66 -66.06,65.988l0,322.612l-7.34,7.332c-7.34,7.332 -7.34,-0 -14.68,-0l-58.72,-0c0,-0 -7.34,-0 -7.34,-7.332l0,-469.253l7.34,-7.332l66.06,-0c0,-0 7.34,-0 7.34,7.332l0,65.989c22.02,-29.329 51.38,-51.325 73.4,-65.989c22.02,-14.664 51.38,-21.996 73.4,-21.996c22.019,-0 36.699,-0 51.379,7.332c14.68,7.332 29.36,7.332 36.7,14.664c14.68,7.332 22.02,14.664 29.36,29.328c7.34,7.332 14.68,21.996 22.02,36.661c14.68,-14.665 29.36,-29.329 44.04,-43.993c14.68,-14.664 29.36,-21.996 36.7,-29.328c7.34,-7.332 22.02,-14.664 36.7,-14.664c14.679,-0 22.019,-7.333 36.699,-7.333c29.36,0 51.38,7.333 73.4,14.665c22.02,7.332 36.7,21.996 51.38,43.992c14.68,14.664 22.02,36.661 29.36,58.657c7.34,21.996 7.34,43.992 7.34,73.321l-0,300.615l7.34,-0Z" style="fill:#fff;fill-rule:nonzero;"/><path d="M32997.6,13642.1c-0,21.997 -0,29.329 -14.68,36.661c-7.34,7.332 -22.02,7.332 -44.04,7.332c-22.02,-0 -29.36,-0 -36.7,-7.332c-7.34,-7.332 -7.34,-21.997 -7.34,-36.661c0,-21.996 7.34,-29.328 14.68,-36.66c7.34,-7.332 22.02,-7.332 44.04,-7.332c22.02,-0 29.36,-0 36.7,7.332c7.34,7.332 7.34,21.996 7.34,36.66Zm-7.34,139.31l-0,461.921c-0,7.332 -7.34,7.332 -7.34,14.664c0,7.332 -7.34,-0 -14.68,-0l-58.72,-0c0,-0 -7.34,-0 -7.34,-7.332l0,-469.253l7.34,-7.332l73.4,-0c7.34,-0 7.34,-0 7.34,7.332Z" style="fill:#fff;fill-rule:nonzero;"/><path d="M33445.3,14177.4l0,29.328l-7.34,7.332c-7.34,7.333 -14.68,7.333 -22.02,14.665c-7.34,7.332 -22.02,14.664 -36.699,14.664c-14.68,7.332 -29.36,7.332 -44.04,14.664c-14.68,-0 -29.36,7.332 -44.04,7.332c-29.36,-0 -58.72,-7.332 -88.08,-14.664c-29.36,-7.332 -44.04,-29.328 -66.06,-43.993c-14.68,-21.996 -29.359,-43.992 -36.699,-73.32c-7.34,-29.329 -14.68,-65.989 -14.68,-102.65c-0,-43.992 7.34,-80.652 14.68,-117.313c7.34,-29.328 29.359,-58.656 44.039,-80.653c22.02,-21.996 44.04,-36.66 66.06,-43.992c22.02,-7.332 51.38,-14.664 80.74,-14.664c14.68,-0 29.36,-0 44.04,7.332c14.68,7.332 29.36,7.332 36.7,7.332c14.68,7.332 22.019,7.332 29.359,14.664c7.34,7.332 14.68,7.332 22.02,14.664c7.34,7.332 7.34,7.332 7.34,7.332c0,0 0,7.332 7.34,7.332l0,21.997c0,14.664 0,21.996 -7.34,29.328c0,7.332 -7.34,7.332 -14.68,7.332c-7.34,-0 -7.34,-0 -14.68,-7.332c-7.34,-7.332 -14.679,-14.664 -22.019,-14.664c-7.34,-0 -22.02,-14.664 -36.7,-14.664c-14.68,-7.332 -29.36,-7.332 -51.38,-7.332c-36.7,-0 -73.4,14.664 -88.08,43.992c-22.02,29.328 -29.36,73.321 -29.36,131.977c0,29.329 0,51.325 7.34,73.321c7.34,21.996 14.68,36.661 22.02,51.325c7.34,14.664 22.02,21.996 36.7,29.328c14.68,7.332 36.7,7.332 51.38,7.332c22.02,0 36.7,0 51.38,-7.332c14.68,-7.332 29.36,-14.664 36.7,-21.996c7.34,-7.332 22.019,-14.664 29.359,-21.996c7.34,-7.333 14.68,-7.333 14.68,-7.333l7.34,0l7.34,7.333l0,14.664c7.34,14.664 7.34,21.996 7.34,29.328Z" style="fill:#fff;fill-rule:nonzero;"/><path d="M33922.4,13972.1l0,271.287c0,7.332 -7.339,7.332 -7.339,14.664c-0,7.332 -7.34,-0 -14.68,-0l-58.72,-0c-7.34,-0 -7.34,-0 -7.34,-7.332l-0,-271.287c-0,-29.328 -0,-43.993 -7.34,-58.657c-7.34,-14.664 -7.34,-29.328 -14.68,-43.992c-7.34,-14.664 -14.68,-21.996 -29.36,-29.328c-14.68,-7.333 -29.36,-7.333 -44.04,-7.333c-22.02,0 -44.04,7.333 -58.72,21.997c-22.02,14.664 -44.039,36.66 -66.059,65.988l-0,322.612l-7.34,7.332c-7.34,7.332 -7.34,-0 -14.68,-0l-58.72,-0c-0,-0 -7.34,-0 -7.34,-7.332l-0,-681.883l7.34,-7.333l73.4,0c7.34,0 7.34,0 7.34,7.333l-0,278.619c22.02,-21.997 44.039,-43.993 73.399,-58.657c22.02,-14.664 51.38,-14.664 73.4,-14.664c29.36,-0 58.72,7.332 73.4,14.664c22.02,7.332 36.7,21.996 51.38,43.992c14.68,14.665 22.02,36.661 29.36,58.657c7.339,21.996 7.339,51.325 7.339,80.653Z" style="fill:#fff;fill-rule:nonzero;"/><path d="M34443.6,14001.4c-0,14.664 -0,21.996 -7.34,29.328c-7.34,7.333 -14.68,7.333 -22.02,7.333l-300.939,-0c-0,21.996 -0,43.992 7.34,65.988c7.34,21.996 14.68,36.661 22.02,51.325c7.34,14.664 29.36,21.996 44.04,36.66c14.679,14.664 44.039,14.664 66.059,14.664c22.02,0 44.04,0 58.72,-7.332c14.68,0 29.36,-7.332 44.04,-14.664c14.68,-7.332 22.02,-7.332 29.36,-14.664c7.34,-0 14.68,-7.332 14.68,-7.332l7.34,-0l7.34,7.332l-0,51.325c-0,-0 -0,7.332 -7.34,7.332c-0,-0 -7.34,7.332 -14.68,7.332c-7.34,7.332 -22.02,7.332 -36.7,14.664c-14.68,7.332 -29.36,7.332 -51.38,7.332c-22.02,-0 -36.7,7.332 -58.72,7.332c-36.7,-0 -66.059,-7.332 -95.419,-14.664c-29.36,-7.332 -51.38,-29.328 -73.4,-43.993c-22.02,-14.664 -36.7,-43.992 -44.04,-73.32c-7.34,-29.329 -14.68,-65.989 -14.68,-109.982c0,-36.66 7.34,-73.32 14.68,-102.649c7.34,-29.328 22.02,-58.656 44.04,-80.653c22.02,-21.996 44.04,-36.66 66.06,-51.324c29.36,-14.664 58.719,-14.664 88.079,-14.664c36.7,-0 66.06,7.332 88.08,14.664c22.02,14.664 44.04,29.328 58.72,43.992c14.68,21.997 29.36,43.993 36.7,65.989c7.34,29.328 14.68,51.325 14.68,80.653l-0,21.996l14.68,0Zm-88.08,-21.996c-0,-43.993 -7.34,-80.653 -29.36,-102.649c-22.02,-21.996 -51.38,-36.661 -88.08,-36.661c-22.02,0 -36.7,7.333 -51.379,14.665c-14.68,7.332 -29.36,14.664 -36.7,29.328c-7.34,14.664 -22.02,29.328 -22.02,43.992c-7.34,14.665 -7.34,36.661 -7.34,51.325l234.879,-0Z" style="fill:#fff;fill-rule:nonzero;"/></g><g><path d="M30105.6,10577.3c36.7,-51.324 66.06,-87.985 95.419,-131.977c73.4,-73.321 161.48,-124.645 256.899,-146.642c117.44,-29.328 234.88,-21.996 352.319,14.665c183.499,58.656 286.259,190.634 322.959,366.604c22.02,87.984 29.36,183.301 29.36,278.618l-0,931.174c-51.38,14.665 -242.219,21.997 -344.979,7.333c0,-21.997 -7.34,-51.325 -7.34,-73.321l0,-931.174c0,-51.325 0,-102.649 -14.68,-146.642c-22.02,-95.317 -88.079,-161.306 -190.839,-183.302c-66.06,-14.664 -124.78,-7.332 -183.499,7.332c-110.1,29.329 -190.84,153.974 -190.84,256.623l0,1055.82c-44.04,14.665 -234.879,21.997 -344.978,7.332c-0,-21.996 -7.34,-43.992 -7.34,-73.32l-0,-960.503c-0,-51.324 -7.34,-95.317 -22.02,-146.641c-22.02,-95.317 -88.08,-139.31 -183.5,-161.306c-124.779,-29.328 -220.199,14.664 -308.278,95.317c-14.68,14.664 -29.36,29.328 -44.04,43.993c-22.02,14.664 -29.36,36.66 -29.36,65.988l-0,1136.47l-337.639,0c-14.68,-51.324 -14.68,-1525.07 0,-1591.06c73.4,-7.332 146.8,-7.332 220.199,0c29.36,0 51.38,21.997 58.72,51.325c7.34,21.996 14.68,51.325 22.02,73.321c7.34,14.664 7.34,36.66 14.68,58.656c58.72,-43.992 110.1,-95.317 168.819,-131.977c139.46,-95.317 293.599,-102.649 447.739,-36.66c88.079,36.66 146.799,109.981 190.839,197.966c14.68,21.996 22.02,43.992 29.36,65.988" style="fill:#fff;fill-rule:nonzero;"/><path d="M32593.9,11105.2c-7.34,95.317 7.34,190.634 36.7,285.951c44.04,124.645 124.78,219.962 264.239,249.291c80.74,14.664 161.48,14.664 249.559,-0c95.42,-21.996 168.82,-73.321 212.86,-161.306c22.02,-43.992 36.699,-87.985 51.379,-131.977c36.7,-102.649 22.02,-205.299 29.36,-307.948c0,-102.649 -22.02,-197.966 -66.059,-293.283c-29.36,-58.656 -66.06,-109.981 -124.78,-139.309c-88.08,-58.657 -190.839,-65.989 -286.259,-51.325c-139.459,14.664 -242.219,80.653 -300.939,212.63c-58.72,102.65 -80.739,219.963 -66.06,337.276m425.719,828.525c-190.839,-7.332 -352.319,-43.993 -499.118,-153.974c-102.76,-87.985 -176.16,-190.634 -227.539,-315.279c-51.38,-124.645 -66.06,-249.291 -66.06,-373.936c7.34,-183.302 44.04,-351.94 146.799,-505.914c124.78,-168.637 286.259,-263.954 499.118,-293.283c132.12,-21.996 264.239,-7.332 396.359,29.329c117.44,36.66 220.199,95.317 308.279,190.634c132.119,139.309 190.839,300.615 205.519,483.917c14.68,146.641 0,285.951 -36.7,425.26c-29.36,102.65 -80.74,190.634 -154.139,271.287c-117.44,131.978 -271.579,205.299 -447.739,227.295c-51.379,7.332 -95.419,7.332 -124.779,14.664" style="fill:#fff;fill-rule:nonzero;"/><path d="M31911.3,11897.1l-330.299,-0c-14.68,-51.325 -14.68,-1510.41 0,-1591.06c14.68,0 29.36,-7.332 51.38,-7.332l198.179,0c80.74,0 80.74,0 80.74,80.653l0,1517.74Z" style="fill:#fff;fill-rule:nonzero;"/><path d="M28358.7,10342.7c80.74,-0 154.14,-7.332 227.539,-0c-14.679,58.657 -22.019,117.313 -36.699,175.97c-44.04,205.298 -88.08,410.596 -132.12,615.894c-29.36,124.646 -51.38,249.291 -73.4,366.604c-7.34,51.325 -22.02,109.981 22.02,161.306c14.68,14.664 29.36,29.328 51.38,36.66c44.04,7.333 95.42,29.329 146.8,7.333l29.359,-0c7.34,58.656 -14.679,109.981 -29.359,161.305c-0,7.332 -22.02,21.996 -36.7,21.996c-102.76,21.997 -198.18,21.997 -293.599,-21.996c-88.08,-29.328 -146.8,-175.97 -132.12,-263.955c29.36,-153.973 66.06,-315.279 95.42,-469.253c44.04,-227.294 95.42,-454.588 139.459,-674.551c14.68,-43.992 14.68,-73.321 22.02,-117.313" style="fill:#fff;fill-rule:nonzero;"/><path d="M31735.1,9609.5c124.779,0 220.199,102.649 220.199,227.294c-0,131.978 -110.1,219.963 -227.539,219.963c-102.76,-0 -227.539,-117.313 -220.199,-219.963c7.34,-139.309 102.759,-234.626 227.539,-227.294" style="fill:#fff;fill-rule:nonzero;"/><path d="M28747.7,9785.47c-0,95.317 -58.72,153.974 -146.8,153.974c-102.759,-0 -161.479,-87.985 -161.479,-161.306c0,-73.321 80.74,-146.642 168.819,-146.642c80.74,7.332 139.46,73.321 139.46,153.974" style="fill:#fff;fill-rule:nonzero;"/></g></g><path d="M35880.6,27279.1l-10457.3,-0l-127.176,-476.311l10457.3,0l127.11,476.311l0.066,-0Z" style="fill:#1c468a;fill-rule:nonzero;"/><path d="M39640.1,27279.1l-3091.12,-0l-127.102,-476.311l3090.77,0l127.457,476.311Z" style="fill:#699dee;fill-rule:nonzero;"/><path d="M45120.2,27279.1l-5056.48,-0l-127.45,-476.311l5056.83,0l127.102,476.311Z" style="fill:#78acea;fill-rule:nonzero;"/><path d="M28856.9,28561.6l-3090.99,0l-127.209,-475.973l3090.73,0l127.456,475.973l0.005,0Z" style="fill:#fff;fill-rule:nonzero;"/><path d="M40159.7,28561.6l-5481.77,0l-127.11,-475.973l5481.77,0l127.11,475.973Z" style="fill:#f1a34f;fill-rule:nonzero;"/><path d="M34337.1,28561.6l-5056.48,0l-127.457,-475.973l5056.83,0l127.104,475.973Z" style="fill:#78acea;fill-rule:nonzero;"/><path d="M43493.9,28561.6l-2841.38,0l-127.102,-475.973l2841.38,0l127.11,475.973Z" style="fill:#78acea;fill-rule:nonzero;"/><path d="M37067.9,30820l-10457.2,-0l-127.45,-475.973l10457.6,-0l127.11,475.973l0.004,-0Z" style="fill:#1c468a;fill-rule:nonzero;"/><path d="M40827.1,30820l-3090.78,-0l-127.11,-475.973l3090.78,-0l127.111,475.973Z" style="fill:#699dee;fill-rule:nonzero;"/><path d="M30044.2,32102.7l-3091.13,0l-127.111,-475.973l3090.78,0l127.457,475.973Z" style="fill:#fff;fill-rule:nonzero;"/><path d="M41346.9,32102.7l-5481.78,0l-127.11,-475.973l5481.44,0l127.456,475.973Z" style="fill:#f1a34f;fill-rule:nonzero;"/><path d="M35524.3,32102.7l-5056.49,0l-127.457,-475.973l5056.83,0l127.112,475.973Z" style="fill:#78acea;fill-rule:nonzero;"/><path d="M44681.2,32102.7l-2841.38,0l-127.11,-475.973l2841.38,0l127.102,475.973l0.009,0Z" style="fill:#78acea;fill-rule:nonzero;"/><path d="M49632.1,23467.5l-2377.26,7.347l-52.562,-215.716l2377.26,-7.306l52.561,215.675Z" style="fill:#78acea;fill-rule:nonzero;"/><path d="M50886.2,23463.7l-893.88,2.784l-52.559,-215.716l893.869,-2.744l52.57,215.676Z" style="fill:#78acea;fill-rule:nonzero;"/><path d="M52698.2,23458.1l-1580.25,4.843l-52.568,-215.642l1579.92,-4.875l52.897,215.674Z" style="fill:#78acea;fill-rule:nonzero;"/><path d="M48691.2,24016.3l-1303.37,4.012l-52.559,-215.676l1303.37,-4.019l52.553,215.683Z" style="fill:#78acea;fill-rule:nonzero;"/><path d="M50591.7,24010.4l-1682.97,5.188l-52.559,-215.684l1682.97,-5.212l52.56,215.708Z" style="fill:#78acea;fill-rule:nonzero;"/><path d="M52831.1,24003.5l-1928.94,5.97l-52.561,-215.683l1928.94,-5.93l52.562,215.643Z" style="fill:#78acea;fill-rule:nonzero;"/><path d="M49916.7,24632.6l-2377.26,7.346l-52.907,-215.674l2377.6,-7.355l52.562,215.683l0.01,-0Z" style="fill:#78acea;fill-rule:nonzero;"/><path d="M51170.6,24628.9l-894.226,2.742l-52.559,-215.683l893.878,-2.775l52.907,215.716Z" style="fill:#78acea;fill-rule:nonzero;"/><path d="M52982.5,24623.2l-1579.91,4.876l-52.559,-215.676l1579.91,-4.874l52.561,215.674Z" style="fill:#78acea;fill-rule:nonzero;"/><path d="M48975.8,25181.3l-1303.37,4.011l-52.562,-215.675l1303.37,-4.018l52.561,215.682Z" style="fill:#78acea;fill-rule:nonzero;"/><path d="M50876.2,25175.5l-1683.33,5.19l-52.562,-215.684l1683.31,-5.18l52.568,215.674l0.01,-0Z" style="fill:#78acea;fill-rule:nonzero;"/><path d="M53115.7,25168.8l-1929.29,5.937l-52.552,-215.683l1928.94,-5.93l52.899,215.676l0.005,-0Z" style="fill:#78acea;fill-rule:nonzero;"/><path d="M48052.4,19594.8l-1431.51,4.422l-31.948,-129.88l1431.85,-4.398l31.603,129.856Z" style="fill:#fff;fill-rule:nonzero;"/><path d="M48807.3,19592.4l-538.321,1.681l-31.602,-129.89l538.322,-1.646l31.601,129.855Z" style="fill:#fff;fill-rule:nonzero;"/><path d="M49898.4,19589l-951.246,2.948l-31.949,-129.88l951.594,-2.925l31.601,129.857Z" style="fill:#fff;fill-rule:nonzero;"/><path d="M47485.8,19925.2l-784.972,2.438l-31.612,-129.89l784.636,-2.396l31.948,129.848Z" style="fill:#fff;fill-rule:nonzero;"/><path d="M48630.1,19921.6l-1013.77,3.123l-31.61,-129.89l1013.77,-3.121l31.61,129.888Z" style="fill:#fff;fill-rule:nonzero;"/><path d="M49978.5,19917.4l-1161.5,3.566l-31.603,-129.88l1161.49,-3.608l31.61,129.922Z" style="fill:#fff;fill-rule:nonzero;"/><path d="M48223.4,20296.3l-1431.5,4.43l-31.61,-129.88l1431.51,-4.432l31.601,129.882Z" style="fill:#fff;fill-rule:nonzero;"/><path d="M48978.5,20294l-538.313,1.648l-31.603,-129.89l538.312,-1.646l31.604,129.888Z" style="fill:#fff;fill-rule:nonzero;"/><path d="M50069.6,20290.6l-951.247,2.917l-31.602,-129.89l951.246,-2.915l31.603,129.888Z" style="fill:#fff;fill-rule:nonzero;"/><path d="M47657,20626.8l-784.974,2.437l-31.61,-129.889l784.981,-2.438l31.603,129.89Z" style="fill:#fff;fill-rule:nonzero;"/><path d="M48801.3,20623.2l-1013.43,3.164l-31.604,-129.891l1013.42,-3.121l31.61,129.848Z" style="fill:#fff;fill-rule:nonzero;"/><path d="M50149.9,20619.2l-1161.84,3.6l-31.604,-129.889l1161.49,-3.567l31.948,129.856Z" style="fill:#fff;fill-rule:nonzero;"/><path d="M50402.4,26623.8l-2377.26,7.207l-52.553,-215.512l2377.26,-7.544l52.561,215.849l-0.008,-0Z" style="fill:#78acea;fill-rule:nonzero;"/><path d="M51656.4,26619.6l-893.872,2.742l-52.907,-215.501l894.217,-2.75l52.562,215.509Z" style="fill:#78acea;fill-rule:nonzero;"/><path d="M53468.1,26614.1l-1579.92,4.809l-52.559,-215.51l1579.91,-4.802l52.562,215.503Z" style="fill:#78acea;fill-rule:nonzero;"/><path d="M49461.5,27172l-1303.38,4.117l-52.553,-215.503l1303.37,-4.118l52.561,215.504Z" style="fill:#78acea;fill-rule:nonzero;"/><path d="M51361.9,27166.3l-1682.97,5.494l-52.899,-215.857l1683.31,-5.106l52.56,215.469l0.003,0Z" style="fill:#78acea;fill-rule:nonzero;"/><path d="M53601.5,27159.4l-1928.94,6.177l-52.906,-215.855l1928.94,-5.832l52.908,215.51l-0.002,0Z" style="fill:#78acea;fill-rule:nonzero;"/><path d="M50878.6,28575.1l-2377.26,7.207l-52.56,-215.512l2377.26,-7.551l52.561,215.856l-0.001,-0Z" style="fill:#78acea;fill-rule:nonzero;"/><path d="M52132.5,28570.9l-893.871,2.742l-52.908,-215.509l894.218,-2.742l52.561,215.509Z" style="fill:#78acea;fill-rule:nonzero;"/><path d="M53944.2,28565.3l-1579.92,4.801l-52.561,-215.502l1579.91,-4.811l52.562,215.512Z" style="fill:#78acea;fill-rule:nonzero;"/><path d="M49937.7,29123.6l-1303.37,3.772l-52.562,-215.511l1303.37,-4.118l52.561,215.857Z" style="fill:#78acea;fill-rule:nonzero;"/><path d="M51838.1,29117.9l-1683.31,5.148l-52.57,-215.849l1683.33,-5.146l52.561,215.847l-0.008,-0Z" style="fill:#78acea;fill-rule:nonzero;"/><path d="M54077.6,29110.7l-1929.29,6.177l-52.562,-215.847l1928.94,-5.831l52.905,215.501l0.009,0Z" style="fill:#78acea;fill-rule:nonzero;"/><path d="M51307.6,30333l-2377.6,7.206l-52.562,-215.849l2377.6,-7.205l52.56,215.848l0.001,0Z" style="fill:#78acea;fill-rule:nonzero;"/><path d="M52561.5,30328.8l-894.218,2.742l-52.559,-215.503l893.87,-2.75l52.907,215.511Z" style="fill:#78acea;fill-rule:nonzero;"/><path d="M54373.4,30323.4l-1579.91,4.811l-52.562,-215.511l1579.92,-4.801l52.559,215.501Z" style="fill:#78acea;fill-rule:nonzero;"/><path d="M50366.7,30881.4l-1303.37,4.118l-52.562,-215.501l1303.37,-4.118l52.568,215.501Z" style="fill:#78acea;fill-rule:nonzero;"/><path d="M52267.2,30875.5l-1683.33,5.494l-52.56,-215.856l1683.33,-5.148l52.561,215.51l-0.001,-0Z" style="fill:#78acea;fill-rule:nonzero;"/><path d="M54506.3,30868.8l-1928.96,6.177l-52.552,-215.857l1928.94,-5.831l52.561,215.511l0.009,0Z" style="fill:#78acea;fill-rule:nonzero;"/><path d="M52060,31689.9c-312.273,-0 -492.289,253.601 -400.905,565.539c91.032,311.936 419.456,565.877 731.73,565.877c312.271,-0 491.935,-253.941 400.896,-565.877c-91.032,-311.938 -419.447,-565.539 -731.721,-565.539Zm367.58,1257.7c-382.008,-0 -783.605,-310.562 -895.249,-692.158c-111.305,-381.606 108.551,-692.167 490.905,-692.167c382.009,-0 783.606,310.561 894.91,692.167c111.652,381.596 -108.559,692.158 -490.566,692.158Z" style="fill:#a8d29f;fill-rule:nonzero;"/><path d="M52314.2,32607.4c-26.45,-2.059 -53.937,-13.384 -77.64,-32.26l-388.876,-310.908c-52.561,-42.21 -70.428,-108.78 -40.194,-148.931c30.235,-40.151 97.562,-38.783 150.121,3.427l274.826,219.628l140.854,-325.321c20.266,-47.011 83.133,-57.305 140.163,-23.331c57.021,33.972 86.908,99.859 66.642,146.87l-185.162,427.586c-10.998,25.393 -35.04,41.181 -65.62,43.24c-4.808,0.338 -9.96,0.338 -15.114,0Z" style="fill:#a8d29f;fill-rule:nonzero;"/><path d="M53972.7,31689.9c-312.263,-0 -492.281,253.601 -400.896,565.539c91.04,311.936 419.109,565.877 731.383,565.877c312.272,-0 492.281,-253.941 401.251,-565.877c-91.386,-311.938 -419.456,-565.539 -731.738,-565.539Zm367.588,1257.7c-382.008,-0 -783.605,-310.562 -895.247,-692.158c-111.306,-381.606 108.551,-692.167 490.566,-692.167c382.354,-0 783.605,310.561 895.249,692.167c111.651,381.596 -108.559,692.158 -490.568,692.158Z" style="fill:#f1a34f;fill-rule:nonzero;"/><path d="M54171,32368.6c-53.591,-0 -110.612,-43.932 -126.416,-97.803l-85.887,-294.098c-15.806,-53.871 15.458,-97.802 69.397,-97.802c53.937,-0 110.959,43.931 126.417,97.802l85.886,294.098c15.798,53.871 -15.458,97.803 -69.397,97.803Z" style="fill:#f1a34f;fill-rule:nonzero;"/><path d="M54249.2,32599.5l-21.297,-0c-48.091,-0 -98.938,-39.458 -113.02,-87.508c-14.082,-48.039 14.082,-87.162 61.836,-87.162l21.297,0c48.091,0 98.938,39.123 113.028,87.162c14.083,48.05 -13.744,87.508 -61.844,87.508Z" style="fill:#f1a34f;fill-rule:nonzero;"/><path d="M50094.6,21435.6c-171.087,-0 -269.678,139.114 -219.864,310.15c50.154,171.069 230.17,310.183 401.251,310.183c171.073,-0 269.673,-139.114 219.856,-310.183c-49.806,-171.036 -229.816,-310.15 -401.243,-310.15Zm201.653,689.622c-209.558,-0 -429.761,-170.204 -490.914,-379.472c-61.143,-209.227 59.775,-379.472 268.989,-379.472c209.558,-0 429.76,170.245 490.912,379.472c61.152,209.268 -59.429,379.472 -268.987,379.472Z" style="fill:#a8d29f;fill-rule:nonzero;"/><path d="M50234,21938.8c-14.428,-1.071 -29.54,-7.281 -42.593,-17.675l-213.334,-170.518c-28.519,-23.028 -38.479,-59.578 -21.99,-81.642c16.838,-22.032 53.591,-21.241 82.45,1.82l150.467,120.483l77.296,-178.309c10.989,-25.803 45.692,-31.535 76.956,-12.897c31.257,18.737 47.747,54.835 36.409,80.671l-101.344,234.347c-6.184,13.87 -19.236,22.582 -36.072,23.752l-8.245,-0.032Z" style="fill:#a8d29f;fill-rule:nonzero;"/><path d="M49007.7,21435.6c-171.089,-0 -269.68,139.114 -219.864,310.15c50.153,171.069 229.824,310.183 401.243,310.183c171.087,-0 269.679,-139.114 219.864,-310.183c-50.152,-171.036 -229.824,-310.15 -401.243,-310.15Zm201.653,689.622c-209.56,-0 -429.762,-170.204 -490.914,-379.472c-61.152,-209.227 59.429,-379.472 268.987,-379.472c209.558,-0 429.762,170.245 490.914,379.472c61.144,209.268 -59.437,379.472 -268.987,379.472Z" style="fill:#a8d29f;fill-rule:nonzero;"/><path d="M49147.2,21938.8c-14.428,-1.071 -29.542,-7.281 -42.601,-17.675l-213.335,-170.518c-28.51,-23.028 -38.47,-59.578 -21.981,-81.642c16.828,-22.032 53.583,-21.241 82.448,1.82l150.469,120.483l77.296,-178.309c10.989,-25.803 45.684,-31.535 76.948,-12.897c31.257,18.737 47.753,54.835 36.417,80.671l-101.346,234.347c-6.183,13.87 -19.234,22.582 -36.07,23.752l-8.245,-0.032Z" style="fill:#a8d29f;fill-rule:nonzero;"/><path d="M47881.9,21435.6c-171.426,-0 -270.018,139.114 -219.865,310.15c49.808,171.069 229.825,310.183 400.905,310.183c171.427,-0 270.018,-139.114 219.857,-310.183c-49.808,-171.036 -229.817,-310.15 -400.897,-310.15Zm201.306,689.622c-209.204,-0 -429.416,-170.204 -490.567,-379.472c-61.152,-209.227 59.437,-379.472 268.996,-379.472c209.549,-0 429.415,170.245 490.559,379.472c61.152,209.268 -59.429,379.472 -268.988,379.472Z" style="fill:#a8d29f;fill-rule:nonzero;"/><path d="M48021.5,21938.8c-14.767,-1.071 -29.888,-7.281 -42.939,-17.675l-212.988,-170.518c-28.857,-23.028 -38.825,-59.578 -21.99,-81.642c16.49,-22.032 53.254,-21.241 82.102,1.82l150.815,120.483l76.948,-178.309c11.337,-25.803 45.694,-31.535 76.958,-12.897c31.602,18.737 47.745,54.835 36.755,80.671l-101.683,234.347c-5.846,13.87 -19.235,22.582 -35.733,23.752l-8.245,-0.032Z" style="fill:#a8d29f;fill-rule:nonzero;"/><path d="M51143.3,21435.6c-171.426,-0 -270.017,139.114 -219.865,310.15c49.815,171.069 229.824,310.183 401.251,310.183c171.081,-0 269.673,-139.114 219.865,-310.183c-50.153,-171.036 -230.171,-310.15 -401.251,-310.15Zm201.652,689.622c-209.549,-0 -429.761,-170.204 -490.905,-379.472c-61.152,-209.227 59.428,-379.472 268.988,-379.472c209.55,-0 429.762,170.245 490.904,379.472c61.152,209.268 -59.766,379.472 -268.987,379.472Z" style="fill:#f1a34f;fill-rule:nonzero;"/><path d="M51252.4,21807.9c-29.542,0 -60.806,-24.132 -69.389,-53.674l-47.409,-161.186c-8.591,-29.509 8.584,-53.665 38.133,-53.665c29.542,0 60.806,24.156 69.389,53.665l47.069,161.186c8.583,29.542 -8.244,53.674 -37.793,53.674Z" style="fill:#f1a34f;fill-rule:nonzero;"/><path d="M51294.9,21934.5l-11.683,-0c-26.102,-0 -54.275,-21.545 -61.836,-47.867c-7.553,-26.322 7.561,-47.877 34.011,-47.877l11.681,0c26.104,0 53.939,21.555 61.838,47.877c7.559,26.322 -7.561,47.867 -34.011,47.867Z" style="fill:#f1a34f;fill-rule:nonzero;"/><path d="M14757.6,32637.5c0,-0 572.67,146.872 936.68,37.399c364.05,-109.811 990.583,70.35 1091.48,202.81c100.893,132.467 63.824,185.309 -116.219,230.953c-180.05,45.982 -817.887,317.769 -1237.14,160.256c-419.217,-157.167 -965.988,-162.998 -965.988,-162.998l291.181,-468.42Z" style="fill:#e49963;fill-rule:nonzero;"/><path d="M9808.35,27667.9c-0,-0 643.301,4567.53 1708.54,4976.59c525.64,201.78 2848.55,659.214 3535.68,705.204c0,0 168.335,-136.24 127.316,-691.484c-0,-0 -2433.74,-892.572 -2779.47,-1378.15c-514.577,-722.359 319.419,-2950.88 -326.257,-3629.31c-645.668,-678.743 -1733.17,-970.089 -2265.8,17.163l-0.005,-0.015Z" style="fill:#4a75cb;fill-rule:nonzero;"/><path d="M10180,45776.8l310.592,0c159.224,0 289.491,-130.063 289.491,-289.287l0,-7199.26c0,-158.889 -130.267,-288.95 -289.491,-288.95l-310.592,0c-159.265,0 -289.533,130.061 -289.533,288.95l-0,7199.26c-0,159.224 130.268,289.287 289.533,289.287Z" style="fill:#2b478b;fill-rule:nonzero;"/><path d="M7589.92,46288.1c287.778,-595.048 1407.67,-1038.76 2745.35,-1038.76c1337.69,0 2457.63,443.713 2745.39,1038.76l-5490.76,-0l0.016,-0Z" style="fill:#2b478b;fill-rule:nonzero;"/><path d="M8321.09,44270.3l4028.57,-0c42.354,-0 77.015,-34.32 77.015,-76.867l-0,-159.572c-0,-42.209 -34.661,-76.875 -77.015,-76.875l-4028.57,0c-42.353,0 -76.982,34.666 -76.982,76.875l0,159.572c0,42.547 34.629,76.867 76.982,76.867Z" style="fill:#2b478b;fill-rule:nonzero;"/><path d="M10025.1,37290.4c187.668,318.114 404.713,615.983 628.419,898.404c691.404,871.644 1444.05,1590.57 1575.14,2270.38c26.078,135.21 67.467,281.052 121.577,434.792c54.762,155.793 122.403,319.482 200.556,488.664c293.375,636.575 732.14,1350.02 1170.25,1998.25c757.321,1121.12 1469.43,2056.24 1469.43,2056.24l1305.94,-55.593c-52.313,-130.746 -621.9,-1678.43 -1383.85,-3569.95c-309.427,-767.656 -638.429,-1584.39 -955.888,-2371.95c-42.288,-105.345 -84.575,-210.016 -126.451,-313.995c-97.05,-240.902 -192.558,-478.024 -285.79,-709.322c-715.478,-1775.87 -1285.37,-3190.06 -1285.37,-3190.06c-0,-0 -2859.62,-1082.35 -3156.57,-381.261c-244.87,578.239 -45.412,1144.8 722.594,2445.4l0.004,-0.001Z" style="fill:#163560;fill-rule:nonzero;"/><path d="M15231.3,45199.9c-0,-0 66.823,1076.51 275.278,1091.95c27.76,2.059 1057.51,2.059 1057.51,2.059l1314.5,-7.545c-0,0 -8.625,-316.401 -392.834,-383.317c-384.242,-66.918 -1027.37,-336.645 -1260.16,-843.841c-244.87,-533.624 -994.292,140.696 -994.292,140.696Z" style="fill:#163560;fill-rule:nonzero;"/><path d="M12207.3,42124.9c0,-0 -908.34,583.041 -820.219,772.122c11.715,25.39 513.718,923.457 513.718,923.457l647.459,1142.74c-0,-0 272.36,-161.632 143.5,-529.507c-128.825,-367.53 -206.574,-1060.03 123.36,-1510.27c347.107,-473.906 -607.818,-798.543 -607.818,-798.543Z" style="fill:#163560;fill-rule:nonzero;"/><path d="M13486.4,34744.4c0,-0 3539.26,2201.41 3939.92,3702.42c400.667,1501 -4774.68,4702.73 -4774.68,4702.73c0,0 -567.591,-500.335 -667.765,-867.18c0,-0 2339.33,-2799.54 2846.77,-3427.18c311.663,-385.378 -4607.99,-1334.23 -5209.01,-2268.32c-601.015,-933.753 -385.858,-1719.59 -385.858,-1719.59l4250.61,-122.858l0.012,-0.016Z" style="fill:#1c468a;fill-rule:nonzero;"/><path d="M6662.3,39581.6l7346.03,0c146.931,0 267.132,-120.103 267.132,-266.975l0,-1467.38c0,-146.873 -120.201,-266.985 -267.132,-266.985l-7346.03,0c-146.931,0 -267.133,120.112 -267.133,266.985l0,1467.38c0,146.872 120.202,266.975 267.133,266.975Z" style="fill:#4e5dff;fill-opacity:0.99;fill-rule:nonzero;"/><path d="M11776.6,26885.2c352.531,217.908 546.796,494.841 546.796,494.841c-859.861,222.372 -2285.39,-573.767 -2285.39,-573.767c-0,0 553.5,-371.309 758.557,-1187.73c10.373,-41.18 19.82,-83.422 28.132,-126.628c26.902,-137.467 43.566,-286.333 46.583,-446.975l395.002,353.463l656.832,587.702c0,-0 -14.907,243.991 -97.042,663.719c-14.296,73.095 -30.68,151.641 -49.469,235.376l-0.001,0Z" style="fill:#e49963;fill-rule:nonzero;"/><path d="M9127.42,30940.8c123.161,1654.74 -38.883,4171.52 100.866,4607.33c120.573,376.112 1494.58,152.712 2042.99,27.114c202.996,-46.327 448.898,-112.899 702.839,-191.486c708.338,-218.937 1480.15,-531.903 1562.95,-763.886c3.191,-9.265 5.936,-18.185 7.66,-26.767c7.626,-33.972 5.945,-65.542 -1.477,-97.455c-27.62,-118.392 -133.978,-246.396 -146.518,-539.456c-14.016,-327.379 -11.89,-712.757 -24.223,-1127.3c-0.619,-46.672 -1.27,-97.463 -6.357,-143.791l-0.198,-17.155c-0.207,-8.92 -0.454,-17.502 -0.66,-26.421c-11.88,-462.243 -36.07,-948.165 -64.102,-1429.97c-17.859,-302.671 -38.439,-602.599 -62.209,-889.483c-61.802,-741.582 -145.043,-1400.81 -255.251,-1817.4c-180.043,-679.468 -577.104,-1122.5 -938.467,-1447.09l-261.395,-224.127c-291.726,63.83 -636.567,21.283 -948.501,-126.281c-337.584,-159.919 -454.15,-274.876 -512.96,-231.637c-779.688,600.879 -1340.44,2442.31 -1194.99,4465.27l0.008,0.001Z" style="fill:#739af0;fill-rule:nonzero;"/><path d="M11974.1,35383.8c708.339,-218.936 1480.15,-531.903 1562.95,-763.886c3.191,-9.265 5.936,-18.185 7.66,-26.767c-0.445,-32.598 -0.859,-64.858 -1.477,-97.456c-27.618,-118.392 -133.977,-246.395 -146.518,-539.454c-14.016,-327.381 -11.89,-712.758 -24.223,-1127.3c-0.618,-46.673 -1.27,-97.463 -6.357,-143.791l-0.198,-17.155c-0.207,-8.92 -0.454,-17.502 -0.659,-26.421l-2675.54,-1212.41c-0,-0 -154.18,2154.39 1284.37,3954.63l-0.006,0.005Z" style="fill:#4a75cb;fill-rule:nonzero;"/><path d="M11923.1,25986.1c0,0 -14.907,243.99 -97.042,663.72c-641.415,-206.962 -932.357,-785.884 -1029.51,-1031.28c-27.653,-69.355 -39.608,-112.216 -39.608,-112.216c-0,0 24.833,-5.353 67.74,-14.413c90.182,-19.148 259.951,-55.114 441.585,-93.509l656.832,587.701Z" style="fill:#d68d5d;fill-rule:nonzero;"/><path d="M12182.7,25979.9c-0,0 -1409.14,158.542 -1494.58,-719.444c-85.509,-878.118 -324.913,-1449.02 571.159,-1587.51c896.081,-138.497 1103.74,179.544 1203.65,465.71c99.895,286.2 84.131,1777.08 -280.225,1841.25l-0,-0.002Z" style="fill:#e49963;fill-rule:nonzero;"/><path d="M10694.2,25321.1c-0,0 89.357,-1165.59 1372.05,-1286.32c878.593,-82.706 388.742,-838.042 295.098,-958.525c0,-0 -673.123,92.169 -1363.11,206.072c-1448.2,239.008 -446.251,1857.34 -304.035,2038.77l-0,-0.005Z" style="fill:#2b478b;fill-rule:nonzero;"/><path d="M17515.1,33781.9l123.367,40.151l1049.43,-3226.44l-123.328,-40.151l-1049.47,3226.44Z" style="fill:#4a75cb;fill-rule:nonzero;"/><path d="M14080.1,33533l3562.91,75.836l-4.534,213.105l-3562.94,-76.182l4.567,-212.759Z" style="fill:#4a75cb;fill-rule:nonzero;"/><path d="M14462.9,33339.6c0,-0 552.923,208.987 926.857,140.349c373.903,-68.977 976.742,178.794 1062.38,321.894c85.682,142.754 43.013,191.141 -140.986,216.877c-183.999,25.392 -847.947,225.461 -1247.27,22.995c-399.289,-202.472 -942.112,-268.361 -942.112,-268.361l341.13,-433.754Z" style="fill:#e49963;fill-rule:nonzero;"/><path d="M10092.2,27855.3c0,0 135.282,4610.42 1148.88,5134.42c500.115,258.403 2758.37,969.101 3436.27,1090.24c-0,0 182.351,-117.016 202.856,-673.289c-0,-0 -2320.37,-1155.09 -2610.44,-1675.67c-431.724,-774.526 643.195,-2898.02 76.329,-3643.39c-566.864,-745.353 -1615.51,-1155.09 -2253.89,-232.319l0.001,0.007Z" style="fill:#739af0;fill-rule:nonzero;"/><path d="M48599.5,46145.7c0,-0 51.876,-402.87 171.771,-642.407c119.889,-239.18 882.536,-86.814 882.536,-86.814c0,0 152.537,130.4 185.17,739.861l-1239.48,-10.64Z" style="fill:#233862;fill-rule:nonzero;"/><path d="M46001.4,46140.3c179.324,-109.472 77.296,-924.486 77.296,-924.486c-0,-0 -835.127,-667.113 -949.87,-156.483c-114.737,510.968 -793.219,740.544 -1179.35,803.005c-266.588,43.24 -349.036,190.795 -374.802,277.964l2426.73,-0l-0.008,-0Z" style="fill:#233862;fill-rule:nonzero;"/><path d="M47731,40212.1c-34.011,187.021 -55.653,340.416 -61.49,450.572c-77.642,1512.33 -1274.52,4970.39 -1488.54,5051.04c-331.17,124.916 -852.656,-140.694 -1125.77,-227.518c-113.02,-36.031 -189.285,-149.96 -164.203,-265.61c592.596,-2721.64 810.738,-6641.27 889.747,-8961.39c40.194,-1168.82 240.824,-1976.3 240.824,-1976.3c0,-0 2919.35,-777.953 2936.52,206.245c15.466,870.607 -967.054,4286.13 -1227.1,5722.97l-0,-0.025l0.005,0.013Z" style="fill:#213f7a;fill-rule:nonzero;"/><path d="M47731,40212.1l-1950.24,-3952.92c40.194,-1168.82 240.823,-1976.3 240.823,-1976.3c0,0 2919.36,-777.951 2936.52,206.245c15.467,870.607 -967.053,4286.13 -1227.1,5722.97l-0.003,0.005Z" style="fill:#233862;fill-rule:nonzero;"/><path d="M47081.4,34492.6l1543.16,11172.1c-0,0 677.792,163.344 1204.78,32.598c-0,0 451.751,-5941.91 414.302,-7378.39c-37.786,-1436.49 323.948,-3843.8 -82.794,-4109.06c-406.743,-265.609 -3079.45,282.774 -3079.45,282.774l0.004,0.003Z" style="fill:#213f7a;fill-rule:nonzero;"/><path d="M50269.5,31624.1l192.377,2682.18c7.213,100.89 -57.367,192.852 -154.591,220.995c-215.396,62.452 -463.425,106.038 -942.318,204.869c-449.335,93.339 -1054.3,176.044 -1797.36,180.507c-1182.1,7.545 -1629.73,-399.443 -1629.73,-399.443c-50.844,1.029 26.798,-246.049 96.878,-1421.05c24.042,-398.069 46.724,-902.868 63.214,-1540.47c15.112,-573.767 25.072,-1255.29 26.101,-2063.8c1.378,-972.871 1508.47,-2019.53 1536.28,-2019.53l0.346,0.683c0,140.011 220.896,398.415 561.341,420.718c403.998,26.43 899.718,-174.323 899.718,-406.651c-0,-2.396 730.005,1166.76 989.378,2412.8c32.979,157.85 58.745,324.629 79.011,499.988l0.684,7.89c3.784,31.915 7.215,64.176 10.652,96.774c0.685,5.838 1.031,11.324 1.715,17.163c3.101,29.509 6.183,59.365 8.591,89.221c1.031,8.582 1.377,17.501 2.409,25.736c2.399,27.452 4.806,54.91 6.867,82.707l0.684,7.543c1.723,20.59 3.092,41.179 4.816,62.117c1.03,14.412 2.061,29.508 3.091,44.267c1.715,24.362 3.43,48.387 5.154,73.094c0.683,12.354 1.713,24.362 2.398,36.716c1.376,23.34 2.754,46.674 4.123,70.351c0.692,10.642 1.376,20.937 2.061,31.569c1.715,33.974 3.785,68.292 5.498,102.612l0.348,8.236c1.713,33.281 3.429,66.572 4.806,100.199c0.684,8.581 1.032,16.471 1.378,25.053c1.367,31.569 2.744,63.145 4.122,95.06c-0,4.801 0.338,9.604 0.684,14.413c3.092,77.896 6.183,157.167 9.276,237.467l0.346,6.177l-0.346,-6.177l-0.009,0.014Z" style="fill:#2b478b;fill-rule:nonzero;"/><path d="M47660.3,27468.5c0,-0 -1401.61,-11.977 -1738.96,460.529c-337.354,472.538 -1076.63,3014.7 -690.852,3860.61c386.139,845.9 1108.25,-349.682 1508.8,-867.865c400.913,-518.181 921.013,-3453.28 921.013,-3453.28l-0.002,0.004Z" style="fill:#2b478b;fill-rule:nonzero;"/><path d="M47646.2,27254.9l0.694,144.779c0,0 -39.51,452.642 518.393,518.529c557.895,66.224 980.788,-176.389 965.676,-525.694c-50.5,-270.419 -105.469,-456.107 -109.253,-679.846c-1.368,-83.355 4.47,-171.586 19.928,-271.102l-1081.44,-21.62l-318.111,52.159l4.114,782.795Z" style="fill:#ffb27d;fill-rule:nonzero;"/><path d="M47642.2,26472.1l4.115,782.796c114.744,53.154 244.253,85.794 389.568,85.794c496.751,0 817.952,-363.791 985.942,-628.025c-1.37,-83.356 4.468,-171.588 19.926,-271.104l-1081.44,-21.618l-318.111,52.157Z" style="fill:#e2915a;fill-rule:nonzero;"/><path d="M49124.5,26267.9c-125.388,674.354 -996.594,652.008 -1373.11,609.841c-105.807,-12.049 -172.457,-25.4 -172.457,-25.4c-119.543,-31.948 -186.193,-220 -217.111,-466.049c-61.49,-487.296 16.15,-1202.48 98.6,-1385.39c124.009,-275.254 357.618,-572.951 1234.65,-358.157c877.39,214.958 590.197,760.928 429.424,1625.16Z" style="fill:#ffb27d;fill-rule:nonzero;"/><path d="M46227.1,29363.2c-0,-0 -542.098,1195.59 -526.294,1554.19c0,0 268.305,-9.264 526.294,67.609c423.924,126.283 -0,-1621.8 -0,-1621.8Z" style="fill:#233862;fill-rule:nonzero;"/><path d="M47191.1,24358.9c-0,0 386.13,-29.683 841.656,-227.477c369.649,-160.535 836.167,16.265 987.319,95.908c-4.122,-24.363 -13.736,-57.612 -36.755,-90.966c-0,-0 68.019,48.146 77.979,115.435c6.876,5.18 9.968,8.721 8.245,9.924c-0,0 76.956,-14.076 126.427,8.162c-0,0 -34.703,-4.942 -47.07,17.294l-5.492,6.145c576.792,278.31 630.037,1188.65 444.536,1399.29c-223.302,253.321 -490.913,824.008 -490.913,824.008c-0,-0 -97.908,-134.519 -57.03,-357.581c40.54,-223.055 -152.529,-223.055 -396.097,-324.629c-243.223,-101.236 -40.532,-385.065 -253.529,-557.41c-212.989,-172.33 -994.533,-70.961 -984.218,-202.736c-290.293,-105.56 -215.058,-685.685 -215.058,-715.367Z" style="fill:#233862;fill-rule:nonzero;"/><path d="M49301,31603.1c-228.794,917.971 -2703.63,1392.57 -3266.33,1489c24.043,-398.07 46.724,-902.868 63.214,-1540.47l3203.12,51.476Z" style="fill:#233862;fill-rule:nonzero;"/><path d="M48757.9,31901.6c23.357,-0 549.997,-78.58 644.466,-125.6c94.131,-47.01 525.606,-659.559 243.222,-816.726c-282.724,-156.83 -1040.91,471.162 -1040.91,471.162l153.222,471.164Z" style="fill:#ffb27d;fill-rule:nonzero;"/><path d="M45555.1,32083.5c-0,0 2036.47,110.494 3403.39,-181.883c-0,0 34.356,-394.634 -395.068,-569.649c0,0 -2130.25,-450.918 -2642.13,-325.32c-511.526,125.599 -366.202,1076.85 -366.202,1076.85l0.005,0Z" style="fill:#2b478b;fill-rule:nonzero;"/><path d="M50232,30487c-422.555,508.917 -974.95,924.486 -1584.05,1021.95l-0.346,-0.346c-5.143,-7.551 -184.477,-279.338 -150.806,-679.12c15.806,-184.971 76.949,-397.385 221.927,-623.874c44.662,-69.668 84.509,-150.999 119.888,-241.248c332.547,-847.62 283.078,-2481.43 283.078,-2481.43c-0,0 1412.27,147.564 1852.34,775.555c269.679,384.685 -74.204,1423.45 -742.026,2228.51l-0.006,0Z" style="fill:#2b478b;fill-rule:nonzero;"/><path d="M47751.4,26877.7c-105.806,-12.05 -172.457,-25.401 -172.457,-25.401c-119.542,-31.947 -186.193,-219.998 -217.112,-466.047c223.988,55.247 326.702,227.855 369.303,301.641c19.234,32.944 23.357,107.406 20.266,189.807Z" style="fill:#e2915a;fill-rule:nonzero;"/><path d="M47182.6,27259c0,-0 -488.16,-804.069 -108.551,-839.071c379.262,-35.003 531.792,221.72 586.404,315.75c54.977,94.367 -14.082,519.203 -14.082,519.203l-463.771,4.118Z" style="fill:#ffb27d;fill-rule:nonzero;"/><path d="M49041.7,30802.3c-15.112,101.921 -45.693,195.605 -83.133,278.994c-119.204,264.234 -310.557,427.587 -310.557,427.587l-0.346,-0.346c-1266.95,-571.025 -1523.23,-2532.56 -1566.17,-3610.45c-17.175,-433.384 0,-723.735 0,-723.735c571.647,-189.082 732.074,139.328 732.074,139.328c-0,-0 675.045,1602.92 1025.1,2650.61c133.64,400.82 220.21,720.648 203.029,838.01l-0,-0.004Z" style="fill:#2b478b;fill-rule:nonzero;"/><path d="M50232,30487c-422.555,508.917 -974.95,924.486 -1584.05,1021.95l-0.346,-0.346c-1266.95,-571.023 -1523.22,-2532.56 -1566.17,-3610.45c-0,0 599.473,2171.89 1415.36,2931.32c147.376,137.26 302.313,228.202 461.711,251.88c-0,-0 1028.88,-290.318 1244.62,-563.816c15.469,-19.561 24.735,-29.519 28.865,-30.548l0,0.007Z" style="fill:#233862;fill-rule:nonzero;"/><path d="M87394.8,46351.2l-87294.6,-0c-54.523,-0 -99.144,-44.615 -99.144,-99.177l0,-33.628c0,-54.564 44.621,-99.177 99.144,-99.177l87294.6,0c54.615,0 99.275,44.613 99.275,99.177l0,33.628c0,54.562 -44.66,99.177 -99.275,99.177Z" style="fill:#2e3552;fill-rule:nonzero;"/><path d="M27683.2,23860.2l-29.236,0c-66.272,0 -137.07,-54.151 -157.303,-120.343c-20.274,-66.2 17.174,-120.384 83.478,-120.384l29.196,-0c66.272,-0 137.07,54.184 157.345,120.384c20.232,66.192 -17.521,120.343 -83.48,120.343Z" style="fill:#f1a34f;fill-rule:nonzero;"/><path d="M64951.5,23935.6c-0,0 1965.71,2035.55 2058.46,2801.84c92.754,766.283 -941.625,1962.22 -941.625,1962.22l-1116.83,-4764.06l-0.003,0Z" style="fill:#0b97ff;fill-rule:nonzero;"/><path d="M64063.5,45033.1c-0,-0 -69.387,1079.94 -278.601,1094.7c-27.825,2.059 -1060.84,-0 -1060.84,-0l-1318.83,-10.642c-0,-0 9.274,-317.43 395.067,-383.655c385.446,-66.235 1031.29,-335.615 1265.89,-843.849c247.039,-534.992 997.309,143.446 997.309,143.446Z" style="fill:#163560;fill-rule:nonzero;"/><path d="M67000.6,45039.3c-0,0 -69.389,1079.94 -278.601,1095.04c-27.825,2.059 -1060.84,-0.337 -1060.84,-0.337l-1318.83,-10.295c-0,-0 9.275,-317.432 395.067,-383.665c385.446,-66.225 1031.29,-335.615 1265.92,-844.186c247.007,-534.645 997.277,143.445 997.277,143.445Z" style="fill:#163560;fill-rule:nonzero;"/><path d="M62628.1,33423.1c-0,-0 340.141,2204.5 1618.43,6118.64c1277.95,3914.49 1449.71,5608.69 1449.71,5608.69l1380.33,-35.687c-0,-0 20.958,-4274.81 -567.518,-6243.2c-588.819,-1968.04 -112.682,-7091.16 -112.682,-7091.16l-3768.26,1642.73l-0.007,-0.015Z" style="fill:#163560;fill-rule:nonzero;"/><path d="M61960,31891.2c0,-0 -56.327,3320.48 510.157,7398.65c566.14,4078.51 367.58,5808.42 367.58,5808.42l1377.23,49.07c-0,0 832.042,-4076.79 600.494,-6117.95c-231.539,-2041.16 1142.6,-6999.89 1142.6,-6999.89l-3998.06,-138.299l-0.002,0.007Z" style="fill:#1c468a;fill-rule:nonzero;"/><path d="M64643.2,24126.7c-0,0 -734.854,479.094 -734.854,479.094l-1060.46,-199.796c15.112,-85.48 85.886,-439.833 150.089,-760.797c4.154,-18.901 7.899,-37.843 11.715,-56.342c54.969,-273.096 102.714,-507.68 102.714,-507.68l991.788,-434.48l369.639,-161.978c-1.022,5.732 -29.541,303.158 -33.325,346.529c-71.104,770.993 202.691,1295.45 202.691,1295.45Z" style="fill:#ffb27d;fill-rule:nonzero;"/><path d="M63120.8,23880.8c20.621,-8.615 1278.29,-376.318 1414.67,-330.987c136.385,45.298 216.774,309.334 216.774,309.334l-2056.74,459.773c0,-0 162.497,-328.237 425.293,-438.12l0.005,0Z" style="fill:#0b97ff;fill-rule:nonzero;"/><path d="M66486.7,32310.9c-215.396,970.467 -3760.66,1077.88 -4672.41,194.575c-103.752,-100.553 -107.874,-567.944 -67.335,-1197.65c79.365,-1230.93 329.455,-3081.96 341.138,-4028.06c5.838,-456.757 69.735,-923.803 154.244,-1347.95c179.977,-903.962 453.12,-1612.98 453.12,-1612.98c0,0 1732.8,-555.441 2056.74,-459.632c1559.65,461.518 1949.57,7481.58 1734.51,8451.75l0,-0.032l-0.01,-0.009Z" style="fill:#0b97ff;fill-rule:nonzero;"/><path d="M61747,31307.9c79.366,-1230.93 329.456,-3081.96 341.139,-4028.06c5.836,-456.757 69.735,-923.803 154.244,-1347.95l1041.94,-181.398c-0,-0 1009.3,4157.31 -1537.32,5557.43l0,-0.013Z" style="fill:#0b97ff;fill-rule:nonzero;"/><path d="M62314.8,29593.1c-0,0 70.427,169.867 -79.011,283.449c-149.091,113.244 -246.314,297.525 -212.303,432.389c33.663,134.864 360.365,355.52 473.739,320.172c113.325,-35.002 344.559,-212.076 319.793,-283.11c-24.737,-71.373 156.684,-623.528 -119.214,-836.981c-275.854,-213.442 -383.004,84.081 -383.004,84.081Z" style="fill:#ffb27d;fill-rule:nonzero;"/><path d="M63491.4,24071.6c-0,-0 -1016.18,187.681 -1828.3,1377.5c-812.114,1189.72 -1346.31,2074.75 -1198.25,2504.39c148.06,429.645 1503.99,1922.07 1738.28,1922.75c234.294,0.337 612.864,-169.182 634.851,-551.81c0,0 -953.654,-1434.78 -764.706,-1648.91c80.724,-91.625 1244.62,-1031.21 1409.52,-605.301c272.765,704.825 8.591,-2998.61 8.591,-2998.61l0.015,-0.005Z" style="fill:#0b97ff;fill-rule:nonzero;"/><path d="M64366.1,22844.8c-218.149,367.627 -1029.57,684.168 -1367.99,800.461c4.156,-18.902 7.898,-37.845 11.717,-56.343c54.967,-273.095 102.713,-507.681 102.713,-507.681l991.786,-434.48c218.835,-2.504 352.129,46.707 261.774,198.043Z" style="fill:#fca56b;fill-rule:nonzero;"/><path d="M62739.1,23020.2c-0,-0 1594.73,500.681 1891.88,-496.118c296.814,-996.823 702.525,-1603.54 -302.997,-1965.38c-1005.87,-361.83 -1317.8,-40.529 -1497.81,268.113c-180.009,308.644 -498.118,2037.4 -91.072,2193.37l0.002,0.007Z" style="fill:#ffb27d;fill-rule:nonzero;"/><path d="M62893,20731c-0,-0 99.275,1160.92 339.752,1111.07c240.13,-49.894 458.273,-86.749 422.201,263.072c-35.724,349.79 -369.987,753.071 370.679,816.596c740.312,63.482 1809.05,-1842.01 1606.37,-2203.68c-584.699,-1043.53 -3584.78,-1260.38 -2739,12.938l0.007,0.007Z" style="fill:#163560;fill-rule:nonzero;"/><g><g opacity="0.9"><g><path d="M26554.8,16791c-118.141,-0 -206.748,95.887 -206.748,206.525l0,7589.82c0,118.015 95.991,206.526 206.748,206.526l7597.99,0c118.141,0 206.748,-95.887 206.748,-206.526l-0,-7589.82c-0,-118.014 -95.99,-206.525 -206.748,-206.525l-7597.99,-0Z" style="fill:#2a774e;fill-rule:nonzero;"/></g></g><g><path d="M28607.5,23119.6l-0,29.504l-7.384,7.376c-0,-0 -7.384,7.376 -22.152,14.751c-7.384,7.376 -22.151,14.752 -36.919,22.128c-14.768,7.376 -36.919,14.752 -51.687,14.752c-22.152,7.376 -44.303,7.376 -66.455,7.376c-44.303,-0 -81.222,-7.376 -118.141,-22.128c-36.92,-14.752 -66.455,-36.879 -88.607,-59.007c-22.151,-29.504 -44.303,-59.007 -59.071,-103.263c-14.767,-36.88 -22.151,-88.511 -22.151,-140.142c-0,-51.632 7.384,-103.263 22.151,-147.519c14.768,-44.255 36.92,-81.135 59.071,-110.638c22.152,-29.504 59.071,-51.632 88.607,-66.384c36.919,-14.752 73.838,-22.127 118.141,-22.127c22.152,-0 36.92,-0 51.687,7.375c14.768,0 36.92,7.376 51.687,14.752c14.768,7.376 29.536,14.752 36.92,22.128c14.767,7.376 22.151,14.752 22.151,14.752l7.384,7.376l0,66.383c0,0 0,7.376 -7.384,7.376l-7.384,-0c-7.384,-0 -14.767,-0 -22.151,-7.376c-7.384,-7.376 -22.152,-14.752 -29.536,-22.128c-14.767,-7.376 -29.535,-14.752 -51.687,-22.127c-22.151,-7.376 -44.303,-7.376 -66.454,-7.376c-29.536,-0 -59.071,7.376 -81.223,14.751c-22.151,14.752 -44.303,29.504 -59.071,51.632c-14.767,22.128 -29.535,51.631 -36.919,81.135c-7.384,29.504 -14.768,66.383 -14.768,110.639c0,44.255 7.384,81.135 14.768,110.638c7.384,29.504 22.152,59.008 36.919,81.136c14.768,22.127 36.92,36.879 59.071,51.631c22.152,7.376 51.687,14.752 81.223,14.752c29.535,-0 51.687,-0 66.454,-7.376c22.152,-7.376 36.92,-14.752 51.687,-22.128c14.768,-7.376 22.152,-14.752 36.92,-22.128c14.767,-7.376 14.767,-7.376 22.151,-7.376l7.384,0l7.384,7.376l-0,14.752c-0,7.376 7.384,7.376 7.384,14.752Z" style="fill:#fff;fill-rule:nonzero;"/><path d="M29131.8,22964.7c-0,36.879 -7.384,73.759 -14.768,103.263c-7.384,29.503 -22.152,59.007 -44.303,81.135c-22.152,22.127 -44.303,36.879 -73.839,51.631c-29.535,14.752 -66.455,22.128 -103.374,22.128c-36.919,-0 -66.455,-7.376 -95.99,-14.752c-29.535,-7.376 -51.687,-29.504 -66.455,-51.631c-22.151,-22.128 -29.535,-44.256 -44.303,-73.76c-14.768,-29.503 -14.768,-66.383 -14.768,-103.262c0,-36.88 7.384,-73.76 14.768,-103.263c7.384,-29.504 22.152,-59.008 44.303,-81.135c22.152,-22.128 44.303,-36.88 73.839,-51.632c29.535,-14.752 59.071,-22.127 103.374,-22.127c36.919,-0 66.455,7.375 95.99,14.751c29.535,7.376 51.687,29.504 66.455,51.632c14.768,22.128 29.535,44.255 44.303,73.759c14.768,36.88 14.768,66.383 14.768,103.263Zm-81.223,7.376c0,-22.128 0,-44.256 -7.384,-66.384c-7.384,-22.127 -14.767,-44.255 -22.151,-59.007c-7.384,-14.752 -22.152,-29.504 -44.303,-36.879c-14.768,-7.376 -36.92,-14.752 -66.455,-14.752c-22.152,-0 -44.303,7.376 -66.455,14.752c-22.151,7.375 -29.535,22.127 -44.303,36.879c-14.768,14.752 -22.152,36.88 -22.152,59.007c-7.383,22.128 -7.383,44.256 -7.383,73.76c-0,22.127 -0,51.631 7.383,73.759c7.384,22.128 14.768,44.255 22.152,59.007c7.384,14.752 22.152,29.504 44.303,36.88c14.768,7.376 36.919,14.752 66.455,14.752c22.151,-0 44.303,-7.376 66.455,-14.752c22.151,-7.376 29.535,-22.128 44.303,-36.88c14.767,-14.752 22.151,-36.879 22.151,-59.007c0,-29.504 7.384,-51.632 7.384,-81.135Z" style="fill:#fff;fill-rule:nonzero;"/><path d="M29648.6,23200.7c-0,0 -0,7.376 -0,0c-0,7.376 -7.384,7.376 -7.384,14.752c-0,7.376 -7.384,-0 -14.768,-0l-59.071,-0c-7.384,-0 -7.384,-0 -7.384,-7.376l0,-272.909c0,-29.504 0,-44.255 -7.383,-59.007c-7.384,-14.752 -7.384,-29.504 -14.768,-44.256c-7.384,-14.752 -14.768,-22.127 -29.536,-29.503c-14.767,-7.376 -29.535,-7.376 -44.303,-7.376c-22.151,-0 -44.303,7.376 -59.071,22.127c-22.151,14.752 -44.303,36.88 -66.454,66.384l-0,324.54l-7.384,7.376c-7.384,7.376 -7.384,-0 -14.768,-0l-59.071,-0c0,-0 -7.384,-0 -7.384,-7.376l0,-472.059l7.384,-7.376l66.455,0c-0,0 7.384,0 7.384,7.376l-0,66.384c22.151,-29.504 51.687,-51.632 73.838,-66.384c22.152,-14.751 51.687,-22.127 73.839,-22.127c29.535,-0 59.071,7.376 73.839,14.751c22.151,7.376 36.919,22.128 51.687,44.256c14.767,14.752 22.151,36.88 29.535,59.007c7.384,22.128 7.384,51.632 7.384,81.135l-0,287.661l7.384,0Z" style="fill:#fff;fill-rule:nonzero;"/><path d="M30025.2,23134.3l0,51.631c0,7.376 0,7.376 -7.383,14.752c-0,0 -7.384,7.376 -14.768,7.376c-7.384,0 -14.768,7.376 -14.768,7.376c-7.384,-0 -14.768,-0 -22.151,7.376l-22.152,-0c-22.152,-0 -44.303,-0 -59.071,-7.376c-14.768,-7.376 -29.535,-14.752 -44.303,-29.504c-7.384,-14.752 -22.152,-29.503 -22.152,-51.631c-7.383,-22.128 -7.383,-44.256 -7.383,-66.383l-0,-265.533l-66.455,-0c-7.384,-0 -7.384,-0 -14.768,-7.376c-7.384,-7.376 -7.384,-14.752 -7.384,-29.504l0,-22.128c0,0 0,-7.376 7.384,-7.376l73.839,0l-0,-118.014c-0,-0 -0,-7.376 7.384,-7.376l73.838,-0c0,-0 7.384,-0 7.384,7.376l-0,118.014l125.526,0c-0,0 7.383,0 7.383,7.376l0,22.128c0,14.752 0,22.128 -7.383,29.504c-7.384,7.376 -0,7.376 -7.384,7.376l-118.142,-0l-0,250.781c-0,29.503 7.384,51.631 14.768,73.759c7.384,14.752 22.151,22.128 51.687,22.128l22.151,-0c7.384,-0 14.768,-0 14.768,-7.376c7.384,-0 7.384,-0 14.768,-7.376l14.767,-0Z" style="fill:#fff;fill-rule:nonzero;"/><path d="M30468.3,23200.7c-0,7.376 -0,7.376 -7.384,7.376c-0,0 -7.384,0 -14.768,7.376l-44.303,-0c-7.384,-0 -7.384,-0 -14.768,-7.376l0,-51.631c-22.151,22.127 -44.303,36.879 -66.454,51.631c-22.152,14.752 -51.687,14.752 -73.839,14.752c-22.151,-0 -44.303,-0 -66.455,-7.376c-22.151,-7.376 -36.919,-14.752 -51.687,-29.504c-14.767,-14.752 -22.151,-29.503 -29.535,-44.255c-7.384,-14.752 -14.768,-36.88 -14.768,-59.008c0,-22.127 7.384,-44.255 14.768,-66.383c7.384,-22.128 22.152,-36.879 44.303,-44.255c22.152,-14.752 44.303,-22.128 73.839,-29.504c29.535,-7.376 59.071,-7.376 95.99,-7.376l59.071,0l-0,-36.879c-0,-14.752 -0,-29.504 -7.384,-44.256c-0,-14.752 -7.384,-22.128 -14.768,-36.88c-7.384,-7.375 -22.151,-14.751 -29.535,-22.127c-14.768,-7.376 -29.536,-7.376 -51.687,-7.376c-22.152,-0 -36.92,-0 -51.687,7.376c-14.768,7.376 -29.536,7.376 -44.303,14.752c-14.768,7.375 -22.152,14.751 -29.536,14.751c-7.384,7.376 -14.768,7.376 -14.768,7.376l-7.383,0c-0,0 -7.384,0 -7.384,-7.376l-0,-44.255c-0,-7.376 7.384,-7.376 7.384,-14.752c-0,-7.376 14.767,-7.376 22.151,-14.752c14.768,-7.376 22.152,-14.752 36.919,-14.752c14.768,-7.376 29.536,-7.376 44.304,-14.751c14.767,-0 36.919,-7.376 51.687,-7.376c29.535,-0 59.07,-0 81.222,14.751c22.152,7.376 44.303,14.752 59.071,29.504c14.768,14.752 22.151,29.504 29.535,51.632c7.384,22.127 7.384,44.255 7.384,73.759l0,317.164l14.768,0Zm-81.223,-206.526l-73.838,0c-22.152,0 -44.303,0 -59.071,7.376c-14.768,7.376 -29.535,7.376 -44.303,14.752c-14.768,7.376 -22.152,14.752 -22.152,29.504c-7.384,7.376 -7.384,22.128 -7.384,36.879c0,22.128 7.384,44.256 22.152,59.008c14.768,14.752 36.919,22.128 66.455,22.128c22.151,-0 44.303,-7.376 59.071,-14.752c14.767,-7.376 36.919,-29.504 59.07,-51.632l0,-103.263Z" style="fill:#fff;fill-rule:nonzero;"/><path d="M31036.8,22964.7c-0,36.879 -7.384,73.759 -14.768,103.263c-7.384,29.503 -22.151,59.007 -36.919,81.135c-14.768,22.127 -36.919,36.879 -59.071,51.631c-22.152,14.752 -51.687,14.752 -81.222,14.752c-14.768,-0 -29.536,-0 -36.92,-7.376c-14.767,0 -22.151,-7.376 -36.919,-14.752c-14.768,-7.376 -22.152,-14.752 -36.919,-22.128c-14.768,-7.375 -22.152,-22.127 -36.92,-36.879l0,66.383l-7.383,7.376l-59.071,0c-0,0 -7.384,0 -7.384,-7.376l-0,-685.96l7.384,-7.376l73.838,-0c7.384,-0 7.384,-0 7.384,7.376l0,280.285c14.768,-14.752 29.536,-22.128 36.919,-36.88c7.384,-14.752 22.152,-14.752 36.92,-22.128c14.767,-7.376 22.151,-7.376 36.919,-14.751c14.768,-7.376 22.152,-7.376 36.919,-7.376c29.536,-0 59.071,7.376 81.223,22.127c22.151,14.752 44.303,29.504 59.071,51.632c14.767,22.128 22.151,44.255 29.535,73.759c7.384,44.255 7.384,73.759 7.384,103.263Zm-81.223,14.752c0,-22.128 0,-44.256 -7.383,-66.384c-0,-22.127 -7.384,-44.255 -22.152,-59.007c-14.768,-14.752 -22.152,-29.504 -36.919,-36.88c-14.768,-7.375 -29.536,-14.751 -51.687,-14.751c-7.384,-0 -22.152,-0 -29.536,7.376c-7.384,-0 -22.151,7.375 -29.535,14.751c-7.384,7.376 -22.152,14.752 -36.919,29.504c-14.768,14.752 -22.152,22.128 -36.92,44.256l0,184.397c22.152,29.504 44.303,51.632 66.455,66.384c22.152,14.752 44.303,22.127 66.455,22.127c22.151,0 36.919,-7.375 51.687,-14.751c14.767,-7.376 29.535,-22.128 36.919,-36.88c7.384,-14.752 14.768,-36.88 22.152,-59.007c-0,-44.256 7.383,-66.384 7.383,-81.135Z" style="fill:#fff;fill-rule:nonzero;"/><path d="M31258.3,22595.9c-0,22.128 -0,29.504 -14.768,36.88c-7.384,7.375 -22.152,7.375 -44.303,7.375c-22.152,0 -29.536,0 -36.92,-7.375c-7.383,-7.376 -7.383,-22.128 -7.383,-36.88c-0,-22.128 7.383,-29.504 14.767,-36.88c7.384,-7.376 22.152,-7.376 44.303,-7.376c22.152,0 29.536,0 36.92,7.376c-0,0 7.384,14.752 7.384,36.88Zm-14.768,140.142l-0,464.683c-0,7.376 -7.384,7.376 -7.384,14.752c0,7.376 -7.384,-0 -14.768,-0l-59.071,-0c0,-0 -7.383,-0 -7.383,-7.376l-0,-472.059l7.383,-7.376l73.839,0c7.384,0 7.384,0 7.384,7.376Z" style="fill:#fff;fill-rule:nonzero;"/><path d="M31487.2,22522.1l0,678.584c0,7.376 -7.384,7.376 -7.384,14.752c0,7.376 -7.384,-0 -14.767,-0l-59.071,-0c-0,-0 -7.384,-0 -7.384,-7.376l-0,-685.96l7.384,-7.376l73.838,-0c7.384,-0 7.384,-0 7.384,7.376Z" style="fill:#fff;fill-rule:nonzero;"/><path d="M31730.9,22595.9c0,22.128 0,29.504 -14.767,36.88c-7.384,7.375 -22.152,7.375 -44.303,7.375c-22.152,0 -29.536,0 -36.92,-7.375c-7.384,-7.376 -7.384,-22.128 -7.384,-36.88c0,-22.128 7.384,-29.504 14.768,-36.88c7.384,-7.376 22.152,-7.376 44.303,-7.376c22.152,0 29.536,0 36.92,7.376c7.383,0 7.383,14.752 7.383,36.88Zm-7.383,140.142l-0,464.683c-0,7.376 -7.384,7.376 -7.384,14.752c-0,7.376 -7.384,-0 -14.768,-0l-59.071,-0c0,-0 -7.384,-0 -7.384,-7.376l0,-472.059l7.384,-7.376l73.839,0c7.384,0 7.384,0 7.384,7.376Z" style="fill:#fff;fill-rule:nonzero;"/><path d="M32114.9,23163.8l0,22.127c0,7.376 0,7.376 -7.384,14.752c0,0 -7.384,7.376 -14.767,7.376c-7.384,0 -14.768,7.376 -14.768,7.376c-7.384,-0 -14.768,-0 -22.152,7.376l-22.151,-0c-22.152,-0 -44.304,-0 -59.071,-7.376c-14.768,-7.376 -29.536,-14.752 -44.303,-29.504c-7.384,-14.752 -22.152,-29.503 -22.152,-51.631c-7.384,-22.128 -7.384,-44.256 -7.384,-66.383l0,-265.533l-66.455,-0c-7.383,-0 -7.383,-0 -14.767,-7.376c-7.384,-7.376 -7.384,-14.752 -7.384,-29.504l-0,-22.128c-0,0 -0,-7.376 7.384,-7.376l73.838,0l0,-118.014c0,-0 0,-7.376 7.384,-7.376l73.839,-0c-0,-0 7.384,-0 7.384,7.376l-0,118.014l125.525,0c0,0 7.384,0 7.384,7.376l0,22.128c0,14.752 0,22.128 -7.384,29.504c-7.384,7.376 -7.384,7.376 -14.767,7.376l-118.142,-0l-0,250.781c-0,29.503 7.384,51.631 14.767,73.759c7.384,14.752 22.152,22.128 51.688,22.128l22.151,-0c7.384,-0 14.768,-0 14.768,-7.376c7.384,-0 7.384,-0 14.768,-7.376l14.767,-0l0,14.752c7.384,7.376 7.384,14.752 7.384,14.752Z" style="fill:#fff;fill-rule:nonzero;"/><path d="M32550.5,23200.7c-0,7.376 -0,7.376 -7.384,7.376c-0,0 -7.384,0 -14.768,7.376l-44.303,-0c-7.384,-0 -7.384,-0 -14.768,-7.376l0,-51.631c-22.151,22.127 -44.303,36.879 -66.454,51.631c-22.152,14.752 -51.687,14.752 -73.839,14.752c-22.152,-0 -44.303,-0 -66.455,-7.376c-22.151,-7.376 -36.919,-14.752 -51.687,-29.504c-14.767,-14.752 -22.151,-29.503 -29.535,-44.255c-7.384,-14.752 -14.768,-36.88 -14.768,-59.008c0,-22.127 7.384,-44.255 14.768,-66.383c7.384,-22.128 22.151,-36.879 44.303,-44.255c22.152,-14.752 44.303,-22.128 73.839,-29.504c29.535,-7.376 59.07,-7.376 95.99,-7.376l59.071,0l-0,-36.879c-0,-14.752 -0,-29.504 -7.384,-44.256c-7.384,-14.752 -7.384,-22.128 -14.768,-36.88c-7.384,-7.375 -22.152,-14.751 -29.535,-22.127c-14.768,-7.376 -29.536,-7.376 -51.687,-7.376c-22.152,-0 -36.92,-0 -51.687,7.376c-14.768,7.376 -29.536,7.376 -44.304,14.752c-14.767,7.375 -22.151,14.751 -29.535,14.751c-7.384,7.376 -14.768,7.376 -14.768,7.376l-7.384,0c0,0 -7.383,0 -7.383,-7.376l-0,-44.255c-0,-7.376 7.383,-7.376 7.383,-14.752c0,-7.376 14.768,-7.376 22.152,-14.752c14.768,-7.376 22.152,-14.752 36.919,-14.752c14.768,-7.376 29.536,-7.376 44.303,-14.751c14.768,-0 36.92,-7.376 51.687,-7.376c29.536,-0 59.071,-0 81.223,14.751c22.151,7.376 44.303,14.752 59.071,29.504c14.767,14.752 22.151,29.504 29.535,51.632c7.384,22.127 7.384,44.255 7.384,73.759l-0,317.164l14.768,0Zm-132.91,-560.57l7.384,7.376l0,7.376c0,0 -7.384,0 -7.384,7.376l-44.303,0c0,0 -7.384,0 -7.384,-7.376l-7.384,-7.376l-88.606,-118.014l-7.384,-7.376l0,-7.376c0,-0 7.384,-7.376 14.768,-7.376l59.071,-0c-0,-0 7.384,-0 7.384,7.376l7.384,7.376l66.454,118.014Zm51.687,354.044l-73.838,0c-22.152,0 -44.303,0 -59.071,7.376c-14.768,7.376 -29.536,7.376 -44.303,14.752c-14.768,7.376 -22.152,14.752 -22.152,29.504c-7.384,7.376 -7.384,22.128 -7.384,36.879c0,22.128 7.384,44.256 22.152,59.008c14.768,14.752 36.919,22.128 66.455,22.128c22.151,-0 44.303,-7.376 59.07,-14.752c14.768,-7.376 36.92,-29.504 59.071,-51.632l0,-103.263Z" style="fill:#fff;fill-rule:nonzero;"/></g><g><path d="M29515.7,19498c36.92,-51.631 66.455,-88.511 95.99,-132.766c73.839,-73.76 162.445,-125.391 258.435,-147.519c118.142,-29.503 236.284,-22.128 354.426,14.752c184.596,59.007 287.97,191.774 324.889,368.796c22.152,88.511 29.536,184.398 29.536,280.285l-0,936.741c-51.687,14.752 -243.668,22.128 -347.042,7.376c0,-22.128 -7.383,-51.631 -7.383,-73.759l-0,-936.742c-0,-51.631 -0,-103.262 -14.768,-147.518c-22.152,-95.887 -88.606,-162.27 -191.98,-184.398c-66.455,-14.752 -125.526,-7.376 -184.597,7.376c-110.758,29.504 -191.98,154.894 -191.98,258.157l-0,1062.13c-44.303,14.752 -236.284,22.128 -347.041,7.376c-0,-22.128 -7.384,-44.255 -7.384,-73.759l-0,-966.245c-0,-51.632 -7.384,-95.887 -22.152,-147.518c-22.151,-95.887 -88.606,-140.143 -184.596,-162.271c-125.526,-29.503 -221.516,14.752 -310.122,95.887c-14.768,14.752 -29.536,29.504 -44.304,44.256c-22.151,14.752 -29.535,36.879 -29.535,66.383l0,1143.27l-339.657,0c-14.768,-51.631 -14.768,-1534.19 -0,-1600.57c73.838,-7.376 147.677,-7.376 221.515,0c29.536,0 51.687,22.128 59.071,51.632c7.384,22.127 14.768,51.631 22.152,73.759c7.384,14.752 7.384,36.879 14.767,59.007c59.071,-44.255 110.758,-95.887 169.829,-132.766c140.293,-95.887 295.355,-103.263 450.416,-36.88c88.606,36.88 147.677,110.639 191.98,199.15c7.384,29.503 14.768,44.255 29.535,66.383" style="fill:#fff;fill-rule:nonzero;"/><path d="M32011.5,20036.4c-7.384,95.887 7.384,191.774 36.919,287.661c44.304,125.39 125.526,221.277 265.819,250.781c81.223,14.752 162.445,14.752 251.051,-0c95.991,-22.128 169.829,-73.759 214.132,-162.27c22.152,-44.256 36.92,-88.511 51.687,-132.767c36.92,-103.263 22.152,-206.525 29.536,-309.788c-0,-103.263 -22.152,-199.15 -66.455,-295.037c-29.535,-59.007 -66.455,-110.639 -125.526,-140.142c-88.606,-59.008 -191.98,-66.384 -287.97,-51.632c-140.293,14.752 -243.667,81.135 -302.738,213.902c-59.071,103.263 -73.839,213.901 -66.455,339.292m428.264,826.103c-191.98,-7.376 -354.425,-44.256 -502.103,-154.895c-103.374,-81.135 -184.596,-184.398 -236.283,-309.788c-51.687,-125.391 -66.455,-250.781 -66.455,-376.172c7.384,-184.398 44.303,-354.044 147.677,-508.938c125.526,-169.646 287.971,-265.533 502.103,-295.037c132.909,-22.128 265.819,-7.376 398.728,29.504c118.142,36.879 221.516,95.887 310.122,191.774c132.91,140.142 191.98,302.412 206.748,486.81c14.768,147.519 0,287.661 -36.919,427.803c-29.536,103.263 -81.223,191.774 -155.061,272.909c-118.142,132.767 -273.203,206.526 -450.415,228.654c-36.92,-0 -81.223,7.376 -118.142,7.376" style="fill:#fff;fill-rule:nonzero;"/><path d="M31324.8,20833l-332.273,-0c-14.768,-51.632 -14.768,-1519.44 -0,-1600.57c14.767,0 29.535,-7.376 51.687,-7.376l199.364,0c81.222,0 81.222,0 81.222,81.135l0,1526.82Z" style="fill:#fff;fill-rule:nonzero;"/><path d="M27758.4,19269.3c81.223,-0 155.061,-7.376 228.9,-0c-14.768,59.007 -22.152,118.014 -36.92,177.022c-44.303,206.525 -88.606,413.051 -132.909,619.577c-29.535,125.39 -51.687,250.781 -73.839,368.795c-7.383,51.632 -22.151,110.639 22.152,162.271c14.768,14.751 29.535,29.503 51.687,36.879c44.303,7.376 95.99,29.504 147.677,7.376l29.536,0c7.383,59.007 -14.768,110.639 -29.536,162.27c0,7.376 -22.151,22.128 -36.919,22.128c-103.374,22.128 -199.364,22.128 -295.354,-22.128c-88.607,-44.255 -155.061,-184.398 -132.91,-280.285c29.536,-154.894 66.455,-317.164 95.99,-472.058c44.303,-228.654 95.99,-457.307 140.294,-678.585c7.383,-29.503 14.767,-66.383 22.151,-103.262" style="fill:#fff;fill-rule:nonzero;"/><path d="M31147.6,18531.7c125.525,-0 221.515,103.263 221.515,228.653c0,132.767 -110.757,221.278 -228.899,221.278c-103.374,-0 -228.9,-118.015 -221.516,-221.278c7.384,-147.518 103.374,-236.029 228.9,-228.653" style="fill:#fff;fill-rule:nonzero;"/><path d="M28142.3,18708.8c-0,95.887 -59.071,154.894 -147.677,154.894c-103.374,0 -162.445,-88.511 -162.445,-162.27c-0,-73.759 81.222,-147.518 169.828,-147.518c81.223,-0 140.294,66.383 140.294,154.894" style="fill:#fff;fill-rule:nonzero;"/></g></g><g><g opacity="0.9"><g><path d="M37316.1,7871.79c-117.44,0 -205.52,95.317 -205.52,205.299l0,7544.71c0,117.313 95.42,205.298 205.52,205.298l7552.83,-0c117.44,-0 205.52,-95.317 205.52,-205.298l-0,-7544.71c-0,-117.314 -95.42,-205.299 -205.52,-205.299l-7552.83,0Z" style="fill:#0062a2;fill-rule:nonzero;"/></g></g><path d="M39444.7,13693.5l-0,29.328c-0,0 -0,7.332 -7.34,7.332l-7.34,0c-7.34,0 -7.34,0 -22.02,-7.332c-7.34,-7.332 -22.02,-14.664 -36.7,-21.996c-14.68,-7.332 -36.7,-14.664 -58.72,-21.996c-22.02,-7.332 -51.38,-7.332 -80.739,-7.332c-36.7,-0 -66.06,7.332 -95.42,21.996c-29.36,14.664 -51.38,29.328 -73.4,51.324c-22.02,21.997 -36.7,51.325 -44.04,80.653c-7.34,29.329 -14.68,65.989 -14.68,102.649c0,43.993 7.34,80.653 14.68,109.982c7.34,29.328 29.36,58.656 51.38,80.652c22.02,21.997 44.04,36.661 73.4,51.325c29.36,14.664 58.72,14.664 95.42,14.664c22.019,0 44.039,0 58.719,-7.332c22.02,-7.332 36.7,-14.664 58.72,-21.996l0,-190.634l-154.139,-0c-7.34,-0 -7.34,-0 -14.68,-7.332c-0,-7.332 -7.34,-14.664 -7.34,-29.329l-0,-29.328c-0,0 -0,-7.332 7.34,-7.332l227.539,-0c7.34,-0 7.34,-0 7.34,7.332c-0,0 7.34,7.332 7.34,14.664l-0,263.955c-0,7.332 -0,14.664 -7.34,21.996c-0,7.332 -7.34,14.664 -22.02,14.664c-7.34,7.333 -22.02,7.333 -36.7,14.665c-14.68,7.332 -29.36,7.332 -44.04,14.664c-14.68,7.332 -29.36,7.332 -51.38,7.332l-51.379,-0c-51.38,-0 -95.42,-7.332 -132.12,-21.996c-36.7,-14.665 -73.4,-36.661 -102.76,-65.989c-29.359,-29.328 -51.379,-65.989 -66.059,-102.649c-14.68,-36.661 -22.02,-87.985 -22.02,-131.978c-0,-51.324 7.34,-95.317 22.02,-139.309c14.68,-43.993 36.7,-80.653 66.059,-109.981c29.36,-29.329 58.72,-51.325 102.76,-65.989c36.7,-14.664 80.74,-21.996 132.12,-21.996c22.02,-0 51.379,-0 73.399,7.332c22.02,7.332 44.04,7.332 58.72,14.664c14.68,7.332 29.36,14.664 44.04,21.996c14.68,7.332 22.02,14.664 22.02,14.664c7.34,7.332 7.34,7.332 7.34,14.665c22.02,14.664 22.02,21.996 22.02,29.328Zm535.818,300.615c-0,14.664 -0,21.996 -7.34,29.328c-7.34,7.332 -14.68,7.332 -22.02,7.332l-300.939,0c-0,21.997 -0,43.993 7.34,65.989c7.34,21.996 14.68,36.661 22.02,51.325c14.68,14.664 29.36,21.996 44.04,36.66c22.02,7.332 44.04,14.664 66.059,14.664c22.02,0 44.04,0 58.72,-7.332c14.68,-7.332 29.36,-7.332 44.04,-14.664c14.68,-7.332 22.02,-7.332 29.36,-14.664c7.34,-7.332 14.68,-7.332 14.68,-7.332l7.34,-0l7.34,7.332l-0,51.324c-0,0 -0,7.333 -7.34,7.333c-0,-0 -7.34,7.332 -14.68,7.332c-7.34,7.332 -22.02,7.332 -36.7,14.664c-14.68,7.332 -29.36,7.332 -51.38,7.332c-22.02,-0 -36.7,7.332 -58.72,7.332c-36.699,-0 -66.059,-7.332 -95.419,-14.664c-29.36,-7.332 -51.38,-29.329 -73.4,-43.993c-22.02,-21.996 -36.7,-43.992 -44.04,-73.321l0,-109.981c0,-36.66 7.34,-73.32 14.68,-102.649c7.34,-29.328 22.02,-58.656 44.04,-80.653c22.02,-21.996 44.04,-36.66 66.06,-51.324c29.36,-14.664 58.72,-14.664 88.079,-14.664c36.7,-0 66.06,7.332 88.08,14.664c22.02,14.664 44.04,29.328 58.72,43.992c14.68,21.997 29.36,43.993 36.7,65.989c7.34,29.328 14.68,51.325 14.68,80.653l-0,21.996Zm-80.74,-21.996c0,-43.993 -7.34,-80.653 -29.36,-102.649c-22.02,-21.996 -51.38,-36.661 -88.08,-36.661c-22.019,0 -36.699,7.332 -51.379,14.665c-14.68,7.332 -29.36,14.664 -36.7,29.328c-7.34,14.664 -22.02,29.328 -22.02,43.992c-7.34,14.664 -7.34,36.661 -7.34,51.325l234.879,-0Zm491.778,146.641c0,21.997 -7.34,43.993 -14.68,58.657c-7.34,14.664 -22.02,36.66 -36.7,43.993c-14.68,14.664 -36.699,21.996 -58.719,29.328c-22.02,7.332 -44.04,7.332 -73.4,7.332c-14.68,-0 -29.36,-0 -44.04,-7.332c-14.68,-7.332 -29.36,-7.332 -36.7,-7.332c-7.34,-0 -22.02,-7.332 -29.36,-14.664c-7.34,-7.332 -14.68,-7.332 -14.68,-14.665c-7.34,0 -7.34,-7.332 -7.34,-14.664l0,-43.992c0,-0 0,-7.332 7.34,-7.332l7.34,-0c7.34,-0 7.34,-0 14.68,7.332c7.34,7.332 14.68,7.332 29.36,14.664c7.34,7.332 22.02,7.332 36.7,14.664c14.68,7.332 29.36,7.332 51.38,7.332c14.68,0 29.36,0 36.7,-7.332c14.68,0 22.02,-7.332 29.36,-14.664c7.34,-7.332 14.68,-14.664 22.02,-21.996c7.339,-7.332 7.339,-21.997 7.339,-29.329c0,-14.664 0,-21.996 -7.339,-29.328c-7.34,-7.332 -14.68,-14.664 -29.36,-21.996c-7.34,-7.332 -22.02,-14.664 -36.7,-14.664c-14.68,-7.332 -29.36,-7.332 -44.04,-14.664c-14.68,-7.333 -29.36,-14.665 -44.04,-21.997c-14.68,-7.332 -22.02,-14.664 -36.7,-29.328c-7.34,-7.332 -22.02,-21.996 -29.36,-36.66c-7.34,-7.332 -7.34,-29.329 -7.34,-43.993c0,-14.664 0,-36.66 7.34,-51.324c7.34,-14.665 14.68,-29.329 29.36,-43.993c14.68,-14.664 29.36,-21.996 51.38,-29.328c22.02,-7.332 44.04,-14.664 73.4,-14.664l36.7,-0c14.68,-0 22.02,7.332 29.36,7.332c7.339,-0 14.679,7.332 22.019,7.332c7.34,-0 14.68,7.332 14.68,7.332l7.34,7.332l0,51.325c0,-0 0,7.332 -7.34,7.332l-7.34,-0c0,-0 -7.34,-0 -14.68,-7.332c-7.34,-7.333 -14.679,-7.333 -22.019,-14.665c-7.34,-7.332 -22.02,-7.332 -29.36,-14.664c-14.68,-7.332 -29.36,-7.332 -44.04,-7.332c-14.68,0 -29.36,0 -36.7,7.332c-7.34,0 -22.02,7.332 -29.36,14.664c-7.34,7.332 -14.68,14.665 -14.68,21.997c0,7.332 -7.34,14.664 -7.34,29.328c0,14.664 0,21.996 7.34,29.328c7.34,7.332 14.68,14.664 29.36,21.996c7.34,7.333 22.02,14.665 36.7,14.665c14.68,7.332 29.36,7.332 44.04,14.664c14.68,7.332 29.36,14.664 44.04,21.996c14.679,7.332 29.359,14.664 36.699,21.996c7.34,7.332 22.02,21.996 29.36,36.661c7.34,14.664 22.02,51.324 22.02,73.32Zm499.118,-337.275c7.34,-0 14.68,-0 22.02,7.332c7.34,7.332 7.34,14.664 7.34,21.996l0,447.257l-7.34,7.332l-73.399,-0c-0,-0 -7.34,-0 -7.34,-7.332l-0,-410.596l-234.88,-0l0,249.29c0,29.328 7.34,51.325 14.68,73.321c7.34,14.664 22.02,21.996 51.38,21.996l22.02,0c7.34,0 14.68,0 14.68,-7.332c7.34,0 7.34,0 14.68,-7.332l14.68,0l-0,51.325c-0,7.332 -0,7.332 -7.34,14.664c-0,-0 -7.34,7.332 -14.68,7.332c-7.34,-0 -14.68,7.332 -14.68,7.332c-7.34,-0 -14.68,-0 -22.02,7.332l-22.02,-0c-22.02,-0 -44.04,-0 -58.72,-7.332c-14.679,-7.332 -29.359,-14.664 -44.039,-29.328c-7.34,-14.665 -22.02,-29.329 -22.02,-43.993c-7.34,-21.996 -7.34,-43.992 -7.34,-65.989l-0,-271.286l-66.06,-0c-7.34,-0 -7.34,-0 -14.68,-7.333c0,-7.332 -7.34,-14.664 -7.34,-29.328l0,-21.996c0,-0 0,-7.332 7.34,-7.332l73.4,-0l-0,-117.313c-0,-0 -0,-7.333 7.34,-7.333l73.399,0c7.34,0 7.34,0 7.34,7.333l0,117.313l293.599,-0Zm36.7,-139.31c0,21.997 -7.34,29.329 -14.68,36.661c-7.34,7.332 -22.02,7.332 -44.04,7.332c-22.02,-0 -29.359,-0 -36.699,-7.332c-7.34,-7.332 -7.34,-21.997 -7.34,-36.661c-0,-21.996 7.34,-29.328 14.68,-36.66c7.339,-7.332 22.019,-7.332 44.039,-7.332c22.02,-0 29.36,-0 36.7,7.332c0,-0 7.34,14.664 7.34,36.66Zm565.178,366.604c0,36.661 -7.34,73.321 -14.68,102.649c-7.34,29.329 -22.02,58.657 -44.04,80.653c-22.02,21.996 -44.04,36.661 -73.399,51.325c-29.36,14.664 -66.06,21.996 -102.76,21.996c-36.7,-0 -66.06,-7.332 -95.42,-14.664c-29.36,-7.332 -51.379,-29.328 -66.059,-51.325c-22.02,-21.996 -29.36,-43.992 -44.04,-73.321c-14.68,-29.328 -14.68,-65.988 -14.68,-102.649c-0,-36.66 7.34,-73.32 14.68,-102.649c7.34,-29.328 22.02,-58.656 44.04,-80.653c22.019,-21.996 44.039,-36.66 73.399,-51.324c29.36,-14.664 58.72,-21.996 102.76,-21.996c36.7,-0 66.06,7.332 95.42,14.664c29.359,7.332 51.379,29.328 66.059,51.324c22.02,21.997 29.36,43.993 44.04,73.321c7.34,36.661 14.68,65.989 14.68,102.649Zm-88.08,7.332c0,-21.996 0,-43.992 -7.34,-65.988c-7.34,-21.997 -14.68,-43.993 -22.019,-58.657c-7.34,-14.664 -22.02,-29.328 -44.04,-36.66c-22.02,-7.332 -36.7,-14.665 -66.06,-14.665c-22.02,0 -44.04,7.333 -66.06,14.665c-14.68,7.332 -29.36,21.996 -44.04,36.66c-14.68,14.664 -22.02,36.66 -22.02,58.657c-7.34,21.996 -7.34,43.992 -7.34,73.32c0,21.997 0,51.325 7.34,73.321c7.34,21.996 14.68,43.993 22.02,58.657c7.34,14.664 22.02,29.328 44.04,36.66c22.02,7.332 36.7,14.664 66.06,14.664c22.02,0 44.04,-7.332 66.06,-14.664c14.68,-7.332 29.36,-21.996 44.04,-36.66c14.679,-14.664 22.019,-36.661 22.019,-58.657c7.34,-29.328 7.34,-51.324 7.34,-80.653Zm594.538,227.295c0,-0 0,7.332 0,-0c0,7.332 -7.34,7.332 -7.34,14.664c0,7.332 -7.34,-0 -14.68,-0l-58.72,-0c-7.339,-0 -7.339,-0 -7.339,-7.332l-0,-271.287c-0,-29.328 -0,-43.993 -7.34,-58.657c-7.34,-14.664 -7.34,-29.328 -14.68,-43.992c-7.34,-14.664 -14.68,-21.996 -29.36,-29.328c-14.68,-7.333 -29.36,-7.333 -44.04,-7.333c-22.02,0 -44.04,7.333 -58.72,21.997c-22.02,14.664 -44.04,36.66 -66.06,65.988l0,322.612l-7.34,7.332c-7.34,7.332 -7.34,-0 -14.68,-0l-58.719,-0c-0,-0 -7.34,-0 -7.34,-7.332l-0,-469.253l7.34,-7.332c7.34,-7.332 7.34,-0 14.68,-0l51.379,-0c0,-0 7.34,-0 7.34,7.332l0,65.989c22.02,-29.329 51.38,-51.325 73.4,-65.989c22.02,-14.664 51.38,-21.996 73.4,-21.996c29.36,-0 58.72,7.332 73.4,14.664c22.019,7.332 36.699,21.996 51.379,43.992c14.68,14.664 22.02,36.661 29.36,58.657c7.34,21.996 7.34,51.324 7.34,80.653l0,285.951l7.34,-0Zm491.778,-0c0,7.332 0,7.332 -7.34,7.332c0,-0 -7.34,-0 -14.68,7.332l-44.039,-0c-7.34,-0 -7.34,-0 -14.68,-7.332l-0,-51.325c-22.02,21.997 -44.04,36.661 -66.06,51.325c-22.02,14.664 -51.38,14.664 -73.4,14.664c-22.02,-0 -44.04,-0 -66.06,-7.332c-22.02,-7.332 -36.699,-14.664 -51.379,-29.328c-14.68,-14.665 -22.02,-29.329 -29.36,-43.993c-7.34,-14.664 -14.68,-36.66 -14.68,-58.657c-0,-21.996 7.34,-43.992 14.68,-65.988c7.34,-21.996 22.02,-36.661 44.04,-43.993c22.019,-14.664 44.039,-21.996 73.399,-29.328c29.36,-7.332 58.72,-7.332 95.42,-7.332l58.72,-0l-0,-36.66c-0,-14.665 -0,-29.329 -7.34,-43.993c-7.34,-14.664 -7.34,-21.996 -14.68,-36.66c-7.34,-7.332 -22.02,-14.664 -29.36,-21.997c-7.34,-7.332 -29.36,-7.332 -51.38,-7.332c-22.02,0 -36.7,0 -51.38,7.332c-14.68,7.333 -29.36,7.333 -44.04,14.665c-14.68,7.332 -22.019,14.664 -29.359,14.664c-7.34,7.332 -14.68,7.332 -14.68,7.332l-7.34,-0c-0,-0 -7.34,-0 -7.34,-7.332l-0,-43.993c-0,-7.332 7.34,-7.332 7.34,-14.664c7.34,-7.332 14.68,-7.332 22.02,-14.664c14.679,-7.332 22.019,-14.664 36.699,-14.664c14.68,-7.332 29.36,-7.332 44.04,-14.664c14.68,-0 36.7,-7.332 51.38,-7.332c29.36,-0 58.72,7.332 80.74,14.664c22.02,7.332 44.04,14.664 58.72,29.328c14.679,14.664 22.019,29.328 29.359,51.325c7.34,21.996 7.34,43.992 7.34,73.32l0,315.28l14.68,-0Zm-80.739,-205.298l-73.4,-0c-22.02,-0 -44.04,-0 -58.72,7.332c-14.68,7.332 -29.36,7.332 -44.04,14.664c-14.68,7.332 -22.02,14.664 -22.02,29.328c-7.34,7.332 -7.34,21.996 -7.34,36.66c0,21.997 7.34,43.993 22.02,58.657c14.68,14.664 36.7,21.996 66.06,21.996c22.02,0 44.04,-7.332 58.72,-14.664c14.68,-7.332 36.7,-29.328 58.72,-51.324l-0,-102.649Zm315.618,-469.253l0,674.551c0,7.332 -7.34,7.332 -7.34,14.664c0,7.332 -7.339,-0 -14.679,-0l-58.72,-0c-0,-0 -7.34,-0 -7.34,-7.332l-0,-681.883c-0,-0 -0,-7.333 7.34,-7.333l73.399,0c0,0 7.34,0 7.34,7.333Zm535.818,425.26c0,14.664 0,21.996 -7.34,29.328c-7.339,7.332 -14.679,7.332 -22.019,7.332l-300.939,0c-0,21.997 -0,43.993 7.34,65.989c7.34,21.996 14.68,36.661 22.02,51.325c14.68,14.664 29.359,21.996 44.039,36.66c22.02,7.332 44.04,14.664 66.06,14.664c22.02,0 44.04,0 58.72,-7.332c14.68,-7.332 29.36,-7.332 44.04,-14.664c14.68,-7.332 22.02,-7.332 29.36,-14.664c7.34,-7.332 14.68,-7.332 14.68,-7.332l7.34,-0l7.34,7.332l-0,51.324c-0,0 -0,7.333 -7.34,7.333c-0,-0 -7.34,7.332 -14.68,7.332c-7.34,7.332 -22.02,7.332 -36.7,14.664c-14.68,7.332 -29.36,7.332 -51.38,7.332c-22.02,-0 -36.7,7.332 -58.72,7.332c-36.7,-0 -66.06,-7.332 -95.419,-14.664c-29.36,-7.332 -51.38,-29.329 -73.4,-43.993c-22.02,-21.996 -36.7,-43.992 -44.04,-73.321c-7.34,-29.328 -14.68,-65.988 -14.68,-109.981c0,-36.66 7.34,-73.32 14.68,-102.649c7.34,-29.328 22.02,-58.656 44.04,-80.653c22.02,-21.996 44.04,-36.66 66.06,-51.324c29.359,-14.664 58.719,-14.664 88.079,-14.664c36.7,-0 66.06,7.332 88.08,14.664c22.02,14.664 44.04,29.328 58.72,43.992c14.68,21.997 29.36,43.993 36.7,65.989c7.34,29.328 14.68,51.325 14.68,80.653l-0,21.996l14.679,0Zm-80.739,-21.996c-0,-43.993 -7.34,-80.653 -29.36,-102.649c-22.02,-21.996 -51.38,-36.661 -88.08,-36.661c-22.02,0 -36.7,7.332 -51.38,14.665c-14.68,7.332 -29.359,14.664 -36.699,29.328c-7.34,14.664 -22.02,29.328 -22.02,43.992c-7.34,14.664 -7.34,36.661 -7.34,51.325l234.879,-0Z" style="fill:#fff;fill-rule:nonzero;"/><g><path d="M40266.8,10562.7c36.7,-51.324 66.059,-87.985 95.419,-131.977c73.4,-73.321 161.48,-124.646 256.899,-146.642c117.44,-29.328 234.879,-21.996 352.319,14.664c183.499,58.657 286.259,190.634 322.959,366.604c22.02,87.985 29.36,183.302 29.36,278.619l-0,931.174c-51.38,14.664 -242.219,21.997 -344.979,7.332c0,-21.996 -7.34,-51.324 -7.34,-73.32l0,-931.174c0,-51.325 0,-102.649 -14.68,-146.642c-22.02,-95.317 -88.08,-161.306 -190.839,-183.302c-66.06,-14.664 -124.78,-7.332 -183.5,7.332c-110.099,29.328 -190.839,153.974 -190.839,256.623l0,1055.82c-44.04,14.664 -234.879,21.996 -344.979,7.332c0,-21.996 -7.339,-43.992 -7.339,-73.32l-0,-960.503c-0,-51.324 -7.34,-95.317 -22.02,-146.641c-22.02,-73.321 -80.74,-124.646 -176.16,-146.642c-124.779,-29.328 -220.199,14.664 -308.279,95.317c-14.68,14.664 -29.359,29.328 -44.039,43.993c-22.02,14.664 -29.36,36.66 -29.36,65.988l-0,1136.47l-337.639,0c-14.68,-51.324 -14.68,-1525.07 -0,-1591.06c73.4,-7.332 146.799,-7.332 220.199,0c29.36,0 51.38,21.997 58.72,51.325c7.34,21.996 14.68,51.325 22.02,73.321c7.34,14.664 7.34,36.66 14.68,58.656c58.72,-43.992 110.099,-95.317 168.819,-131.977c139.46,-95.317 293.599,-102.649 447.738,-36.66c88.08,36.66 146.8,109.981 190.84,197.966c7.34,14.664 14.68,29.328 22.02,51.324" style="fill:#fff;fill-rule:nonzero;"/><path d="M42755,11097.9c-7.34,95.317 7.34,190.634 36.7,285.951c44.04,124.645 124.78,219.962 264.239,249.291c80.74,14.664 161.48,14.664 249.559,-0c95.42,-21.997 168.82,-73.321 212.859,-161.306c22.02,-43.992 36.7,-87.985 51.38,-131.977c36.7,-102.65 22.02,-205.299 29.36,-307.948c0,-102.649 -22.02,-197.966 -66.06,-293.283c-29.359,-58.656 -66.059,-109.981 -124.779,-139.309c-88.08,-58.657 -190.839,-65.989 -286.259,-51.325c-139.459,14.664 -242.219,80.653 -300.939,212.63c-58.72,102.649 -80.74,212.631 -66.06,337.276m425.719,821.193c-190.84,-7.332 -352.319,-43.993 -499.118,-153.974c-102.76,-80.653 -176.16,-190.634 -227.54,-315.279c-51.379,-124.646 -66.059,-249.291 -66.059,-373.936c7.34,-183.302 44.04,-351.94 146.799,-505.914c124.78,-168.637 286.259,-263.955 499.118,-293.283c132.12,-21.996 264.239,-7.332 396.359,29.328c117.439,36.661 220.199,95.318 308.279,190.635c132.119,139.309 190.839,300.615 205.519,483.917c14.68,146.641 -0,285.951 -36.7,425.26c-29.36,102.649 -80.74,190.634 -154.139,271.287c-117.44,131.978 -271.579,205.298 -447.739,227.295c-51.38,7.332 -95.419,14.664 -124.779,14.664" style="fill:#fff;fill-rule:nonzero;"/><path d="M42072.4,11889.8l-330.299,0c-14.68,-51.324 -14.68,-1510.41 0,-1591.06c14.68,0 29.36,-7.332 51.38,-7.332l198.179,0c80.74,0 80.74,0 80.74,80.653l-0,1517.74Z" style="fill:#fff;fill-rule:nonzero;"/><path d="M38519.9,10335.4c80.74,-0 154.14,-7.332 227.539,-0c-14.68,58.656 -22.02,117.313 -36.7,175.97c-44.039,205.298 -88.079,410.596 -132.119,615.894c-29.36,124.646 -51.38,249.291 -73.4,366.604c-7.34,51.325 -22.02,109.981 22.02,161.306c14.68,14.664 29.36,29.328 51.38,36.66c44.04,7.332 95.42,29.329 146.799,7.332l29.36,0c7.34,58.657 -14.68,109.982 -29.36,161.306c0,7.332 -22.019,21.996 -36.699,21.996c-102.76,21.997 -198.18,21.997 -293.599,-21.996c-88.08,-43.992 -154.14,-183.302 -132.12,-278.619c29.36,-153.973 66.06,-315.279 95.42,-469.253c44.04,-227.294 95.419,-454.589 139.459,-674.551c7.34,-29.328 14.68,-65.989 22.02,-102.649" style="fill:#fff;fill-rule:nonzero;"/><path d="M41896.3,9602.16c124.779,-0 220.199,102.649 220.199,227.294c-0,131.978 -110.1,219.963 -227.539,219.963c-102.76,-0 -227.54,-117.314 -220.2,-219.963c7.34,-146.641 102.76,-234.626 227.54,-227.294" style="fill:#fff;fill-rule:nonzero;"/><path d="M38908.9,9778.13c-0,95.317 -58.72,153.973 -146.8,153.973c-102.759,0 -161.479,-87.984 -161.479,-161.305c-0,-73.321 80.74,-146.642 168.819,-146.642c80.74,0 139.46,65.989 139.46,153.974" style="fill:#fff;fill-rule:nonzero;"/></g></g></g></svg>