<?xml version="1.0" encoding="UTF-8" standalone="no"?><!DOCTYPE svg PUBLIC "-//W3C//DTD SVG 1.1//EN" "http://www.w3.org/Graphics/SVG/1.1/DTD/svg11.dtd"><svg width="100%" height="100%" viewBox="0 0 2770 2161" version="1.1" xmlns="http://www.w3.org/2000/svg" xmlns:xlink="http://www.w3.org/1999/xlink" xml:space="preserve" xmlns:serif="http://www.serif.com/" style="fill-rule:evenodd;clip-rule:evenodd;stroke-linejoin:round;stroke-miterlimit:2;"><g><g><path d="M2660.01,1443.3c17.357,-29.291 30.375,-60.209 39.054,-92.211l69.429,-13.018l1.085,-152.962l-68.887,-14.645c-8.136,-32.003 -20.612,-63.463 -37.426,-92.754l39.596,-58.038l-107.399,-109.569l-59.123,38.512c-29.291,-17.357 -60.208,-30.376 -92.211,-39.054l-13.018,-69.43l-152.962,-1.084l-14.645,68.887c-32.003,8.136 -63.463,20.611 -92.753,37.426l-58.039,-39.596l-109.568,107.399l38.511,59.123c-17.357,29.291 -30.375,60.208 -39.054,92.211l-69.429,13.018l-1.085,152.962l68.887,14.645c8.136,32.003 20.612,63.463 37.427,92.753l-39.597,58.039l107.399,109.568l59.123,-38.511c29.291,17.357 60.209,30.375 92.211,39.054l13.018,69.429l152.962,1.085l14.645,-68.887c32.003,-8.136 63.463,-20.612 92.754,-37.427l58.038,39.597l109.569,-107.399l-38.512,-59.123Zm-442.613,-54.242c-72.684,-73.769 -71.599,-192.558 2.712,-265.242c73.769,-72.684 192.559,-71.599 265.243,2.712c72.684,73.769 71.599,192.558 -2.712,265.242c-73.769,72.141 -192.559,71.057 -265.243,-2.712Z" style="fill:url(#_Linear1);fill-rule:nonzero;"/><path d="M842.917,825.481c10.848,-22.781 17.899,-47.19 22.239,-71.599l50.445,-15.188l-10.849,-113.907l-52.072,-5.425c-8.136,-23.323 -20.069,-45.563 -34.715,-66.174l24.952,-46.106l-87.872,-72.684l-40.681,33.088c-22.782,-10.849 -47.191,-17.9 -71.599,-22.239l-15.188,-50.445l-113.908,10.848l-5.424,52.072c-23.324,8.136 -45.563,20.07 -66.175,34.715l-46.105,-24.951l-72.684,87.871l33.087,40.682c-10.848,22.781 -17.9,47.19 -22.239,71.599l-50.445,15.187l10.849,113.908l52.072,5.424c8.136,23.324 20.069,45.563 34.714,66.175l-24.951,46.106l87.872,72.684l40.681,-33.088c22.782,10.848 47.19,17.9 71.599,22.239l15.188,50.445l113.908,-10.848l5.424,-52.072c23.324,-8.137 45.563,-20.07 66.175,-34.715l46.105,24.951l72.684,-87.872l-33.087,-40.681Zm-333.587,-6.509c-59.666,-49.36 -67.802,-137.774 -18.442,-197.44c49.36,-59.666 137.774,-67.802 197.44,-18.442c59.666,49.36 67.802,137.774 18.442,197.44c-49.36,59.666 -137.774,67.802 -197.44,18.442Z" style="fill:url(#_Linear2);fill-rule:nonzero;"/><g><path d="M2532.01,1976.49l-5.425,-0l0,-341.181c0,-75.938 -61.835,-137.774 -137.774,-137.774l-350.944,0c-78.65,0 -142.656,-64.005 -142.656,-142.655l0,-636.799c0,-75.938 -61.835,-137.774 -137.774,-137.774l-893.903,0l-0,-4.881l894.446,-0c78.65,-0 142.656,64.005 142.656,142.655l-0,637.341c-0,75.938 61.835,137.774 137.774,137.774l350.944,-0c78.65,-0 142.656,64.005 142.656,142.656l-0,340.638Z" style="fill:#64a4ff;fill-rule:nonzero;"/></g><g><g><g><path d="M1177.05,880.265c4.339,-56.411 7.051,-109.568 8.678,-158.928c-13.56,-7.051 -30.375,-15.73 -43.393,-21.697c-40.681,-19.527 -97.635,-45.563 -133.977,-62.378c-21.154,-9.763 -42.309,-16.815 -42.309,-16.815c0,0 -145.367,-14.103 -157.301,-13.018c-3.797,0 -21.696,6.509 -45.563,15.73c-51.529,19.527 -150.792,59.666 -167.064,71.057c-23.324,16.815 -106.314,424.171 -108.484,451.834c-2.169,27.121 112.823,63.463 219.679,91.668c0,41.224 -1.085,99.263 -1.627,151.877c0,9.221 -0.542,17.9 -0.542,26.579l466.479,-0c-0.543,-9.221 -1.085,-17.9 -1.628,-26.579l0,-3.254c-1.627,-35.8 -8.678,-99.805 -7.051,-162.183c-0,-0 -1.085,-65.633 5.424,-93.838c1.085,-126.384 8.679,-250.055 8.679,-250.055Zm-592.32,239.206c0.542,-53.157 71.599,-151.877 71.599,-151.877c0,0 3.255,-1.627 3.255,-1.084l3.797,-0.543l10.848,-10.306c2.712,9.221 26.036,142.656 31.46,220.222c-66.175,-13.018 -120.959,-30.918 -120.959,-56.412Z" style="fill:#dbd8e3;fill-rule:nonzero;"/></g></g><g><g><path d="M1185.18,1388.51c-3.254,-22.239 -5.967,-43.935 -8.679,-65.632l0,-0.543c-1.084,-7.051 -1.627,-14.102 -2.712,-21.154l0,-1.085c-3.254,-29.833 -6.509,-58.581 -8.136,-84.617c-1.627,-20.069 0,-39.596 2.712,-58.581c8.136,-133.977 11.933,-274.463 11.933,-274.463c4.34,-57.496 6.509,-111.738 8.137,-162.183c-0,0 -182.795,-86.244 -199.068,-91.126c0,0 34.715,81.363 60.751,263.072c9.764,69.972 28.748,187.677 41.766,307.551c7.052,64.548 21.155,130.723 31.46,189.304c1.628,9.221 3.255,17.9 4.34,26.578l61.293,0c-1.085,-9.763 -2.17,-18.442 -3.797,-27.121Z" style="fill:#323657;fill-rule:nonzero;"/></g></g><g><g><path d="M881.428,1173.71c7.052,-67.802 13.561,-135.062 10.306,-171.946c-24.951,-297.245 -96.55,-375.895 -106.856,-387.286c-8.136,3.254 -38.512,14.645 -47.19,17.9c-48.818,18.984 -148.08,54.241 -161.641,64.005c-23.324,16.815 -114.992,443.697 -117.704,471.361c-1.628,18.442 117.704,57.496 239.748,92.753c-1.085,33.63 2.17,80.82 -9.221,129.638c-2.17,8.678 -4.882,14.102 -5.424,26.036l169.777,-0.543c1.084,-8.678 2.169,-17.357 3.254,-26.578c3.255,-26.579 6.509,-53.7 9.764,-82.448c50.987,13.018 85.702,21.697 85.702,21.697c-0,0 47.732,-80.82 61.835,-113.908c2.712,-5.966 -58.581,-21.154 -132.35,-40.681Zm-219.679,-102.517c-1.627,-60.751 -1.085,-103.059 -1.085,-103.059c5.967,20.612 14.103,80.278 21.697,139.401c-24.951,-12.475 -20.612,-23.866 -20.612,-36.342Z" style="fill:#323657;fill-rule:nonzero;"/></g></g><g><g><path d="M801.151,611.226c-0,0 18.442,-34.714 13.56,-133.977c-1.627,-27.663 144.283,65.09 144.283,65.09c-0,0 -0.542,9.221 -1.085,22.239l0,30.376c0,3.254 0,6.509 0.543,9.763c-0,3.797 0.542,7.052 0.542,10.306c0.542,5.967 4.339,16.815 5.424,19.527c7.052,14.645 -108.483,15.73 -163.267,-23.324Z" style="fill:#eea987;fill-rule:nonzero;"/></g></g><g><path d="M923.737,674.147l27.121,36.342c-0,-0 -15.73,21.154 -43.936,5.424l16.815,-41.766Z" style="fill:#e8734d;fill-rule:nonzero;"/></g><g><path d="M943.264,712.116c-0,-0 98.72,240.291 77.566,546.214l-30.918,56.412l-35.257,-48.276c-0,0 -5.425,-405.728 -33.63,-555.435l22.239,1.085Z" style="fill:#fff;fill-rule:nonzero;"/></g><g><path d="M952.485,640.517l-28.748,33.63c-0,-0 -46.106,-8.679 -59.666,-33.088c-13.56,-23.866 88.414,-0.542 88.414,-0.542Z" style="fill:#eea987;fill-rule:nonzero;"/></g><g><path d="M958.994,611.226c-0,0 -3.255,25.494 -35.257,62.921l34.715,47.19l18.984,-97.635l-18.442,-12.476Z" style="fill:#c4c1cc;fill-rule:nonzero;"/></g><g><path d="M810.372,580.308c-0,0 66.717,75.396 113.365,93.839l-21.697,53.699l-106.856,-117.162l15.188,-30.376Z" style="fill:#c4c1cc;fill-rule:nonzero;"/></g><g><g><path d="M1497.07,1263.75c0,0 -88.414,-86.244 -146.995,-100.347c-27.121,-6.509 -62.378,-43.936 -96.008,-87.329c-10.848,-14.103 -21.697,-29.291 -32.545,-44.478c-41.224,-59.666 -73.769,-116.62 -73.769,-116.62c0,-0 -122.044,-143.198 -23.866,-206.661c-0,-0 41.766,-1.085 65.09,11.391c23.866,13.018 74.311,118.247 82.447,136.689c8.679,18.442 101.432,192.016 107.399,195.813c5.967,3.797 16.815,17.899 53.699,37.969c45.563,24.409 116.62,96.008 116.62,96.008l-52.072,77.565Z" style="fill:#323657;fill-rule:nonzero;"/></g></g><g><path d="M1071.27,1363.56c0,0 -12.475,-0.542 -17.899,-3.254c-0,-0 -9.221,-5.967 -16.273,-9.764c-2.17,-1.085 -4.339,-2.169 -5.424,-2.712c-5.424,-2.17 -17.9,-5.424 -29.833,-14.103c-11.391,-8.678 -49.902,-44.478 -49.902,-44.478l24.408,-37.969l11.391,-37.427c0,-0 88.414,8.679 100.347,15.73c1.085,0.543 2.17,1.627 3.255,2.17c9.221,7.051 13.56,16.272 17.9,20.069c1.627,1.627 17.357,17.9 16.272,24.951c-1.085,9.221 -5.966,15.188 -11.391,17.9c0,0 -3.254,17.9 -12.475,26.036c-0,0 -2.17,16.815 -16.815,23.324c0.542,0.543 -3.797,17.358 -13.561,19.527Z" style="fill:#efaa88;fill-rule:nonzero;"/></g><g><path d="M930.246,220.686c-0,-0 160.013,-38.512 126.383,164.352c-33.63,202.864 -72.141,219.137 -169.777,178.998c-97.635,-40.681 -90.583,-170.319 -96.55,-233.782c-5.966,-63.463 88.414,-106.314 139.944,-109.568Z" style="fill:#eea886;fill-rule:nonzero;"/></g><g><path d="M846.171,361.172c-2.169,-17.9 -37.969,-23.867 -40.139,2.712c-2.712,26.578 17.358,73.226 30.376,68.887c13.018,-4.882 13.018,-46.648 9.763,-71.599Z" style="fill:#eea886;fill-rule:nonzero;"/></g><g><path d="M799.523,433.856c0,-0 3.255,-64.006 26.579,-66.175c23.324,-2.17 27.121,23.324 27.121,23.324l23.324,4.339c-0,0 -8.137,-55.869 14.645,-65.632c23.324,-10.306 150.792,28.748 169.234,11.933c18.442,-16.815 8.136,-129.638 -26.036,-144.826c-34.172,-15.187 -127.468,-48.275 -195.27,-1.085c-0,0 -53.157,-5.424 -60.751,37.97c-6.509,42.308 6.509,168.692 21.154,200.152Z" style="fill:#16202e;fill-rule:nonzero;"/></g><g><path d="M1018.66,1213.85l-66.175,113.908c-0,-0 -175.201,-45.021 -215.882,-56.412l93.296,-111.195c-0,-0.543 137.774,30.917 188.761,53.699Z" style="fill:#323657;fill-rule:nonzero;"/></g><g><path d="M958.452,604.717c-85.702,-8.678 -119.332,-74.853 -119.332,-74.853c54.241,53.699 118.789,52.072 118.789,52.072l0,13.018c0.543,3.254 0.543,6.509 0.543,9.763Z" style="fill:#a77860;fill-rule:nonzero;"/></g></g><g><path d="M2144.72,1612.53c-4.881,-5.967 -11.933,-10.306 -20.611,-10.306c-11.391,-0 -21.697,7.051 -24.952,17.9c-1.084,2.712 -1.084,5.424 -1.627,8.136c0,3.254 0.543,6.509 1.627,9.221c1.628,4.882 4.882,8.679 8.679,11.933c3.797,2.712 8.679,4.882 13.561,5.424l3.796,0c2.713,0 4.882,-0.542 7.594,-1.627c9.764,-3.797 16.815,-13.018 17.358,-24.409c-0,-6.509 -1.628,-11.933 -5.425,-16.272Zm-14.102,34.172c-1.628,0.542 -3.797,1.085 -5.425,1.085l-1.084,-0c-1.628,-0 -3.797,-0.543 -5.425,-1.085c-2.169,-0.542 -4.339,-1.627 -6.509,-3.254c-0.542,-0.543 -1.084,-1.085 -2.169,-1.628c-3.797,-3.797 -5.967,-8.678 -5.424,-14.103c-0,-1.627 -0,-2.712 0.542,-4.339c-0,-0.542 0.542,-1.085 0.542,-2.17c2.713,-7.593 10.306,-13.56 18.985,-13.56c6.509,0 11.933,3.255 15.188,7.594c2.712,3.254 4.339,7.594 3.797,11.933c-0,9.221 -5.425,16.815 -13.018,19.527Z" style="fill:#4da8f2;fill-rule:nonzero;"/></g><g><path d="M1142.87,1120.56c99.805,102.517 231.07,231.612 231.07,231.612l51.53,-97.635c-0,0 -116.62,-137.231 -195.813,-228.357c-24.408,11.933 -68.887,40.138 -86.787,94.38Z" style="fill:#eea886;fill-rule:nonzero;"/></g><g><g><path d="M1081.58,1258.33c0,0 26.579,13.018 33.63,18.985c7.052,5.966 35.257,27.121 42.309,32.002c7.051,4.882 -10.306,18.985 -61.293,-2.712c-50.445,-22.239 -14.646,-48.275 -14.646,-48.275Z" style="fill:#eea886;fill-rule:nonzero;"/></g></g><g><path d="M1083.75,964.882l-46.648,434.477l615.101,-0l46.648,-434.477l-615.101,0Z" style="fill:#0062a2;fill-rule:nonzero;"/></g><g><path d="M1687.46,1379.29l-619.984,0l47.191,-439.358l619.983,0l-47.19,439.358Zm-614.559,-4.881l610.219,-0l46.106,-429.595l-610.22,-0l-46.105,429.595Z" style="fill:#fff;fill-rule:nonzero;"/></g><g><rect x="988.314" y="1360.01" width="102.517" height="39.054" style="fill:#0062a2;"/></g><g><g><path d="M0,1398.27l0,26.578l0,-26.578Z" style="fill:#96cbff;fill-rule:nonzero;"/><rect x="0" y="1398.27" width="25.494" height="26.578" style="fill:#96cbff;"/><rect x="26.036" y="1398.27" width="25.494" height="26.578" style="fill:#95caff;"/><rect x="51.53" y="1398.27" width="25.494" height="26.578" style="fill:#94c9ff;"/><rect x="77.023" y="1398.27" width="25.494" height="26.578" style="fill:#93c9ff;"/><rect x="103.059" y="1398.27" width="25.494" height="26.578" style="fill:#92c8ff;"/><rect x="128.553" y="1398.27" width="25.494" height="26.578" style="fill:#91c7ff;"/><rect x="154.589" y="1398.27" width="25.494" height="26.578" style="fill:#90c6ff;"/><rect x="180.083" y="1398.27" width="25.494" height="26.578" style="fill:#8fc6ff;"/><rect x="205.576" y="1398.27" width="25.494" height="26.578" style="fill:#8ec5ff;"/><rect x="231.612" y="1398.27" width="25.494" height="26.578" style="fill:#8dc4ff;"/><rect x="257.106" y="1398.27" width="25.494" height="26.578" style="fill:#8cc3ff;"/><rect x="283.142" y="1398.27" width="25.494" height="26.578" style="fill:#8bc2ff;"/><rect x="308.636" y="1398.27" width="25.494" height="26.578" style="fill:#8ac2ff;"/><rect x="334.129" y="1398.27" width="25.494" height="26.578" style="fill:#89c1ff;"/><rect x="360.165" y="1398.27" width="25.494" height="26.578" style="fill:#88c0ff;"/><rect x="385.659" y="1398.27" width="25.494" height="26.578" style="fill:#87bfff;"/><rect x="411.695" y="1398.27" width="25.494" height="26.578" style="fill:#86bfff;"/><rect x="437.188" y="1398.27" width="25.494" height="26.578" style="fill:#85beff;"/><rect x="462.682" y="1398.27" width="25.494" height="26.578" style="fill:#84bdff;"/><rect x="488.718" y="1398.27" width="25.494" height="26.578" style="fill:#83bcff;"/><rect x="514.212" y="1398.27" width="25.494" height="26.578" style="fill:#82bbff;"/><rect x="540.248" y="1398.27" width="25.494" height="26.578" style="fill:#81bbff;"/><rect x="565.741" y="1398.27" width="25.494" height="26.578" style="fill:#80baff;"/><rect x="591.235" y="1398.27" width="25.494" height="26.578" style="fill:#7fb9ff;"/><rect x="617.271" y="1398.27" width="25.494" height="26.578" style="fill:#7eb8ff;"/><rect x="642.765" y="1398.27" width="25.494" height="26.578" style="fill:#7db7ff;"/><rect x="668.801" y="1398.27" width="25.494" height="26.578" style="fill:#7cb7ff;"/><rect x="694.294" y="1398.27" width="25.494" height="26.578" style="fill:#7bb6ff;"/><rect x="719.788" y="1398.27" width="25.494" height="26.578" style="fill:#7ab5ff;"/><rect x="745.824" y="1398.27" width="25.494" height="26.578" style="fill:#79b4ff;"/><rect x="771.318" y="1398.27" width="25.494" height="26.578" style="fill:#78b4ff;"/><rect x="797.354" y="1398.27" width="25.494" height="26.578" style="fill:#77b3ff;"/><rect x="822.847" y="1398.27" width="25.494" height="26.578" style="fill:#76b2ff;"/><rect x="848.341" y="1398.27" width="25.494" height="26.578" style="fill:#74b1ff;"/><rect x="874.377" y="1398.27" width="25.494" height="26.578" style="fill:#73b0ff;"/><rect x="899.87" y="1398.27" width="25.494" height="26.578" style="fill:#72b0ff;"/><rect x="925.907" y="1398.27" width="25.494" height="26.578" style="fill:#71afff;"/><rect x="951.4" y="1398.27" width="25.494" height="26.578" style="fill:#70aeff;"/><rect x="976.894" y="1398.27" width="25.494" height="26.578" style="fill:#6fadff;"/><rect x="1002.93" y="1398.27" width="25.494" height="26.578" style="fill:#6eadff;"/><rect x="1028.42" y="1398.27" width="25.494" height="26.578" style="fill:#6dacff;"/><rect x="1054.46" y="1398.27" width="25.494" height="26.578" style="fill:#6cabff;"/><rect x="1079.95" y="1398.27" width="25.494" height="26.578" style="fill:#6baaff;"/><rect x="1105.99" y="1398.27" width="25.494" height="26.578" style="fill:#6aa9ff;"/><rect x="1131.48" y="1398.27" width="25.494" height="26.578" style="fill:#69a9ff;"/><rect x="1156.98" y="1398.27" width="25.494" height="26.578" style="fill:#68a8ff;"/><rect x="1183.01" y="1398.27" width="25.494" height="26.578" style="fill:#67a7ff;"/><rect x="1208.51" y="1398.27" width="25.494" height="26.578" style="fill:#66a6ff;"/><rect x="1234.54" y="1398.27" width="25.494" height="26.578" style="fill:#65a6ff;"/><rect x="1260.04" y="1398.27" width="25.494" height="26.578" style="fill:#64a5ff;"/><rect x="1285.53" y="1398.27" width="25.494" height="26.578" style="fill:#63a4ff;"/><rect x="1311.57" y="1398.27" width="25.494" height="26.578" style="fill:#62a3ff;"/><rect x="1337.06" y="1398.27" width="25.494" height="26.578" style="fill:#61a2ff;"/><rect x="1363.1" y="1398.27" width="25.494" height="26.578" style="fill:#60a2ff;"/><rect x="1388.59" y="1398.27" width="25.494" height="26.578" style="fill:#5fa1ff;"/><rect x="1414.08" y="1398.27" width="25.494" height="26.578" style="fill:#5ea0ff;"/><rect x="1440.12" y="1398.27" width="25.494" height="26.578" style="fill:#5d9fff;"/><rect x="1465.61" y="1398.27" width="25.494" height="26.578" style="fill:#5c9eff;"/><rect x="1491.65" y="1398.27" width="25.494" height="26.578" style="fill:#5b9eff;"/><rect x="1517.14" y="1398.27" width="25.494" height="26.578" style="fill:#5a9dff;"/><rect x="1542.63" y="1398.27" width="25.494" height="26.578" style="fill:#599cff;"/><rect x="1568.67" y="1398.27" width="25.494" height="26.578" style="fill:#589bff;"/><rect x="1594.16" y="1398.27" width="25.494" height="26.578" style="fill:#579bff;"/><rect x="1620.2" y="1398.27" width="25.494" height="26.578" style="fill:#569aff;"/><rect x="1645.69" y="1398.27" width="25.494" height="26.578" style="fill:#59f;"/><path d="M1671.19,1424.85l0,-26.578l0,26.578Z" style="fill:#59f;fill-rule:nonzero;"/></g></g><g><rect x="1244.85" y="1962.93" width="1448.26" height="26.578" style="fill:#0062a2;"/></g><g><path d="M1333.8,1174.8c-4.881,24.409 6.509,46.648 24.952,50.987c18.984,3.797 37.969,-12.475 42.851,-36.884c4.881,-24.409 -6.509,-47.191 -24.952,-50.987c-18.442,-3.797 -37.969,13.018 -42.851,36.884Z" style="fill:#fff;fill-rule:nonzero;"/></g><g><g><g><path d="M2506.51,1002.85c-0,-0 14.103,23.866 20.069,28.205c8.137,5.424 3.255,10.849 -1.085,10.849c-3.796,-0 -23.323,1.627 -27.663,-3.255c-4.339,-4.882 -6.509,-19.527 -10.306,-23.324c-3.797,-3.797 -8.136,-18.984 2.17,-22.781c8.679,-4.34 16.815,10.306 16.815,10.306Z" style="fill:#6069a8;fill-rule:nonzero;"/></g></g></g><g><g><g><path d="M2500.54,992.546c0,-0 16.273,28.205 18.985,32.545c2.712,4.339 -5.424,4.339 -10.306,2.169c-4.882,-2.169 -17.357,-22.239 -19.527,-26.036c-2.17,-4.339 -0.542,-9.221 -0.542,-9.221l11.39,0.543Z" style="fill:#202338;fill-rule:nonzero;"/></g></g></g><g><g><g><path d="M2484.27,1007.19l3.797,29.29l1.627,0l-0.542,-20.611l-4.882,-8.679Z" style="fill:#6069a8;fill-rule:nonzero;"/></g></g></g><g><g><g><path d="M2366.03,1002.85c-0,-0 14.103,23.866 20.069,28.205c8.136,5.424 3.255,10.849 -1.085,10.849c-3.797,-0 -23.324,1.627 -27.663,-3.255c-4.339,-4.882 -6.509,-19.527 -10.306,-23.324c-3.797,-3.797 -8.136,-19.527 2.17,-22.781c8.679,-3.797 16.815,10.306 16.815,10.306Z" style="fill:#6069a8;fill-rule:nonzero;"/></g></g></g><g><g><g><path d="M2360.6,992.546c-0,-0 15.187,28.205 18.442,32.002c2.712,4.34 -5.424,4.34 -10.306,2.17c-4.882,-2.17 -17.357,-22.239 -19.527,-26.036c-2.17,-4.339 -0.543,-9.221 -0.543,-9.221l11.934,1.085Z" style="fill:#202338;fill-rule:nonzero;"/></g></g></g><g><g><g><path d="M2343.24,1007.19l3.797,29.29l2.17,0l-0.543,-20.611l-5.424,-8.679Z" style="fill:#6069a8;fill-rule:nonzero;"/></g></g></g><g><g><g><path d="M2303.1,784.257l128.553,58.581c0,0 14.103,4.882 15.73,20.612c4.882,49.903 42.309,128.553 42.309,128.553c11.933,5.967 10.848,0.543 10.848,0.543c-7.594,-23.867 -16.815,-123.671 -20.069,-163.268c-0.543,-8.679 -1.085,-14.103 -1.085,-16.272c0,-1.085 -1.627,-2.713 -3.797,-4.882c-17.357,-14.103 -90.041,-43.936 -90.041,-43.936c-54.242,-1.627 -82.448,20.069 -82.448,20.069Z" style="fill:#202338;fill-rule:nonzero;"/></g></g></g><g><g><g><path d="M2278.7,809.209c3.796,34.714 53.699,30.917 53.699,30.917l60.208,0c0,0 -15.73,35.258 -21.696,64.548c-6.509,31.46 -21.697,86.787 -21.697,86.787c-0,-0 1.085,1.627 11.933,1.085c0,-0 47.19,-93.839 65.09,-117.705c3.797,-4.882 15.188,-32.545 16.815,-49.36c0.542,-5.424 0,-9.763 -1.627,-11.391c-2.17,-1.627 -7.052,-4.881 -13.018,-9.221c-18.985,-11.933 -51.53,-30.375 -69.43,-34.172c-24.408,-5.424 -62.92,-15.73 -62.92,-15.73c-0,-0 -21.154,19.527 -17.357,54.242Z" style="fill:#202338;fill-rule:nonzero;"/></g></g></g><g><path d="M2319.92,541.797c0,-0 -9.221,-16.815 -4.339,-35.257c4.339,-17.9 21.154,-36.342 46.105,-28.206c24.952,8.136 44.479,27.663 29.833,49.902c-14.645,22.239 13.561,32.003 5.967,42.851c-7.051,10.306 -4.339,21.697 -1.627,23.867c3.254,2.712 13.018,11.39 11.933,21.696c-1.085,10.306 -47.733,-30.375 -47.733,-30.375c0,0 -26.036,-50.987 -40.139,-44.478Z" style="fill:#464240;fill-rule:nonzero;"/></g><g><path d="M2394.77,759.849c-0,-0 -3.797,17.899 -99.805,-4.882c0.543,-0 32.545,-10.306 99.805,4.882Z" style="fill:#eb4747;fill-rule:nonzero;"/></g><g><g><path d="M2294.43,760.391c-1.628,2.712 -2.712,5.424 -4.34,8.679c35.257,1.085 69.972,2.169 105.229,3.254c-5.424,-18.442 -3.797,-43.936 -2.712,-62.92c1.085,-23.324 14.103,-39.597 12.476,-62.921c7.051,1.085 8.136,1.085 15.188,2.17c-10.849,-30.375 -14.103,-45.021 -47.191,-56.954c-10.848,-3.797 -17.9,-4.339 -29.29,-3.797c-37.97,3.255 -49.903,3.797 -68.345,37.97c29.291,4.881 24.409,15.187 33.63,44.478c4.339,14.103 8.679,30.375 6.509,45.02c-3.255,15.188 -21.154,31.461 -21.154,45.021Z" style="fill:#5f8cc9;fill-rule:nonzero;"/></g></g><g><g><path d="M2355.18,598.751c-15.73,-2.712 -12.475,-11.391 -12.475,-11.391c-0,-0 0.542,-4.882 1.085,-10.848l-0,-4.882c-0,-2.712 -0,-5.424 -0.543,-7.594c-1.085,-10.306 28.206,-4.339 28.206,-4.339c-0,-0 -1.627,21.154 2.17,27.663c4.881,5.966 -2.712,14.103 -18.443,11.391Z" style="fill:#eea886;fill-rule:nonzero;"/></g></g><g><g><path d="M2325.34,586.817c0,0 31.461,36.342 43.394,45.021c-0,0 13.56,-11.933 4.882,-43.936c-0,0 -15.188,-7.594 -48.276,-1.085Z" style="fill:#eea886;fill-rule:nonzero;"/></g></g><g><path d="M2326.43,499.488c0,0 -16.272,31.46 0,61.293c16.273,29.833 48.275,-13.018 50.445,-17.899c2.17,-4.882 13.018,-33.63 -8.679,-42.309c-22.239,-8.679 -37.426,-9.763 -41.766,-1.085Z" style="fill:#eea886;fill-rule:nonzero;"/></g><g><path d="M2331.85,510.879c0,0 -11.39,14.645 -12.475,25.494c-0,-0 -4.339,-20.612 8.136,-40.682c12.476,-20.069 45.021,-1.085 49.36,7.052c4.339,8.136 16.815,15.187 -4.339,48.817c-0,0.543 -38.512,-26.036 -40.682,-40.681Z" style="fill:#464240;fill-rule:nonzero;"/></g><g><path d="M2357.89,564.036c-0,-0 -2.713,5.967 -14.103,11.933l-0,-4.882c0.542,0 7.594,-1.084 14.103,-7.051Z" style="fill:#a77860;fill-rule:nonzero;"/></g><g><path d="M2192.45,731.643c0,-0 -7.594,3.254 -11.391,1.627c-3.796,-1.627 -9.221,-1.627 -11.39,-1.627c-2.17,-0 -9.764,-2.712 -9.764,-0c0,2.712 12.476,4.882 14.645,5.966c2.713,1.085 -7.593,6.509 -8.136,8.679c-1.085,2.17 10.306,18.442 16.273,13.561c6.509,-4.34 9.763,-13.561 10.848,-14.103c1.085,-0.543 4.882,-3.255 4.882,-3.255l-5.967,-10.848Z" style="fill:#eea886;fill-rule:nonzero;"/></g><g><path d="M2167.5,745.203c0,0 -18.442,15.188 -18.442,17.358c-0.543,2.169 0.542,3.254 2.712,1.627c1.627,-1.085 17.9,-14.103 17.9,-14.103c-0,0 -18.443,21.697 -18.985,23.324c-0.542,1.085 1.627,2.712 2.17,2.17c0.542,-0.543 20.612,-21.155 20.612,-21.155c-0,0 -16.815,20.07 -17.358,21.697c0,1.085 2.17,2.712 3.255,1.085c1.627,-1.627 18.442,-18.985 18.442,-18.985c-0,0 -11.391,15.73 -10.848,16.815c0.542,1.085 1.627,2.712 4.881,-1.627c2.712,-4.339 10.306,-13.018 10.306,-13.018l-14.645,-15.188Z" style="fill:#eea886;fill-rule:nonzero;"/></g><g><g><path d="M2386.09,840.126l-53.699,0c-0,0 -49.36,3.797 -53.699,-30.917c-3.797,-34.715 16.272,-53.7 16.272,-53.7c0,0 26.036,7.052 48.818,12.476c11.39,-2.17 25.493,-3.797 41.223,-3.797c0,-0 97.093,32.003 93.839,48.818c0.542,-0 -40.139,-21.697 -92.754,27.12Z" style="fill:#0062a2;fill-rule:nonzero;"/></g></g><g><path d="M2351.38,779.918l102.516,-1.627l-52.072,26.036l-50.444,-24.409Z" style="fill:#5e5853;fill-rule:nonzero;"/></g><g><path d="M2382.84,766.9c-0,0 -23.324,8.679 -51.53,1.085l-1.085,-10.306l58.039,3.254l-5.424,5.967Z" style="fill:#5f8cc9;fill-rule:nonzero;"/></g><g><path d="M2401.82,804.327l-50.444,-19.527l-0,-4.882l54.784,19.527l-4.34,4.882Z" style="fill:#91887f;fill-rule:nonzero;"/></g><g><g><path d="M2382.84,771.782c-0.543,3.797 3.797,6.509 7.051,4.882l5.967,-2.713c1.627,-0.542 2.712,-2.712 2.712,-4.339c-2.712,-15.73 -7.594,-75.938 -0,-86.244c2.712,-3.797 4.882,-7.052 5.424,-10.306c4.882,13.018 11.391,30.375 14.103,39.596l48.275,64.548l16.273,4.339c-20.07,-48.817 -36.342,-74.853 -36.342,-74.853c-3.255,-8.679 -12.476,-34.173 -20.07,-56.954c-4.882,-14.645 -9.763,-27.663 -12.475,-35.257c-1.085,-3.797 -3.797,-6.509 -7.052,-8.679c-7.594,-4.339 -20.069,-11.391 -31.46,-16.815c-0.543,0 -0.543,-0.542 -1.085,-0.542c21.154,32.002 13.018,124.213 8.679,183.337c-0,-0.543 -0,-0 -0,-0Z" style="fill:#eddad3;fill-rule:nonzero;"/></g><g><path d="M2302.56,590.614c-7.051,1.085 -23.866,17.9 -33.088,34.715c-10.305,18.985 -21.154,40.681 -28.748,48.275c-14.645,13.018 -55.326,59.666 -57.496,58.581c-0.542,-0.542 11.391,14.103 12.476,14.646c0.542,0.542 66.717,-56.954 73.226,-65.633c5.967,-8.136 22.239,-42.851 27.121,-42.308c0.542,0.542 5.967,13.56 11.933,32.002c0,0.543 0,0.543 0.543,1.085c3.796,13.018 3.254,27.121 1.627,42.851c-1.627,11.933 -10.306,31.46 -15.73,41.224c-0.543,1.085 -0.543,3.254 -0,4.881c0.542,1.085 1.085,1.628 1.627,2.17l19.527,7.052l4.339,1.627c3.255,1.085 6.509,0.542 9.221,-1.085c2.17,-1.627 3.797,-3.797 3.797,-6.509c4.34,-33.088 9.764,-67.26 14.103,-79.735c18.985,-56.412 -7.594,-98.178 -7.594,-98.178c0,0 -30.917,2.17 -36.884,4.339Z" style="fill:#eddad3;fill-rule:nonzero;"/></g></g><g><path d="M2401.82,804.327l30.376,-82.99l98.72,1.627l-29.291,76.481l-99.805,4.882Z" style="fill:#6e6760;fill-rule:nonzero;"/></g><g><path d="M2463.66,758.221c-3.255,5.967 -2.17,12.476 2.17,14.646c4.339,2.169 9.763,-1.085 13.018,-7.052c3.254,-5.966 2.169,-12.475 -2.17,-14.645c-3.797,-2.17 -9.764,1.085 -13.018,7.051Z" style="fill:#807066;fill-rule:nonzero;"/></g><g><path d="M2360.06,530.948c0,0 6.509,9.764 0.543,18.443c-5.967,8.678 1.627,16.815 2.712,25.493c1.085,8.679 -24.409,32.545 4.339,44.478c28.206,11.934 37.427,-7.593 30.375,-18.442c-7.051,-10.848 -12.475,-19.527 -13.018,-35.257c-1.084,-15.73 -5.966,-39.596 -24.951,-34.715Z" style="fill:#464240;fill-rule:nonzero;"/></g><g><path d="M2221.2,490.267l59.666,0l0,52.072l-9.221,-9.221l-50.445,0l0,-42.851Z" style="fill:#0062a2;fill-rule:nonzero;"/></g><g><path d="M458.885,1270.26l-259.275,0c-18.985,0 -34.715,-15.73 -34.715,-34.714l-0,-409.525c-0,-18.985 15.73,-34.715 34.715,-34.715l259.275,-0c18.985,-0 34.715,15.73 34.715,34.715l-0,409.525c-0.543,18.984 -15.73,34.714 -34.715,34.714Z" style="fill:#0062a2;fill-rule:nonzero;"/></g><g><g><g><g><g><rect x="441.528" y="1100.49" width="16.815" height="129.638" style="fill:#e3f2ff;"/></g></g></g></g><g><g><g><g><rect x="407.898" y="1115.13" width="16.815" height="114.992" style="fill:#e3f2ff;"/></g></g></g></g><g><g><g><g><rect x="371.014" y="1134.12" width="16.815" height="96.008" style="fill:#e3f2ff;"/></g></g></g></g><g><g><g><g><rect x="333.587" y="1157.98" width="16.815" height="72.142" style="fill:#e3f2ff;"/></g></g></g></g><g><g><g><path d="M232.155,1142.25l-3.797,-1.085l32.002,-90.041l69.43,-18.442l25.493,-99.263l53.7,-23.324l11.933,-77.023l3.797,0.542l-12.476,79.193l-53.699,23.324l-25.494,99.805l-69.429,18.442l-31.46,87.872Z" style="fill:#e3f2ff;fill-rule:nonzero;"/></g></g></g><g><g><path d="M339.553,1027.26c3.797,4.34 3.255,10.849 -1.627,14.646c-4.339,3.797 -10.848,3.254 -14.645,-1.628c-3.797,-4.339 -3.255,-10.848 1.627,-14.645c4.339,-3.254 11.391,-2.712 14.645,1.627Z" style="fill:#fff;fill-rule:nonzero;"/></g></g><g><g><path d="M339.553,1043.53c-5.424,4.339 -13.018,3.797 -17.357,-1.627c-4.339,-5.425 -3.797,-13.018 1.627,-17.358c5.424,-4.339 13.018,-3.797 17.358,1.628c4.339,5.424 3.796,13.018 -1.628,17.357Zm-13.56,-16.273c-3.797,2.712 -4.339,8.137 -1.085,11.934c2.712,3.796 8.136,4.339 11.933,1.084c3.797,-2.712 4.34,-8.136 1.085,-11.933c-2.712,-3.254 -8.136,-3.797 -11.933,-1.085Z" style="fill:#e3f2ff;fill-rule:nonzero;"/></g></g><g><g><path d="M365.047,929.083c3.797,4.339 3.254,10.848 -1.627,14.645c-4.34,3.797 -10.849,3.255 -14.646,-1.627c-3.797,-4.339 -3.254,-10.848 1.628,-14.645c4.339,-3.797 10.848,-2.713 14.645,1.627Z" style="fill:#fff;fill-rule:nonzero;"/></g></g><g><g><path d="M365.047,945.355c-5.424,4.34 -13.018,3.797 -17.357,-1.627c-4.34,-5.424 -3.797,-13.018 1.627,-17.357c5.424,-4.34 13.018,-3.797 17.357,1.627c4.34,4.882 3.255,13.018 -1.627,17.357Zm-13.561,-16.272c-3.796,2.712 -4.339,8.136 -1.084,11.933c2.712,3.797 8.136,4.339 11.933,1.085c3.797,-2.712 4.339,-8.136 1.085,-11.933c-2.712,-3.797 -8.137,-4.34 -11.934,-1.085Z" style="fill:#e3f2ff;fill-rule:nonzero;"/></g></g><g><g><path d="M418.204,904.674c3.797,4.339 3.254,10.848 -1.627,14.645c-4.34,3.797 -10.849,3.255 -14.646,-1.627c-3.797,-4.339 -3.254,-10.848 1.628,-14.645c4.339,-3.797 10.848,-2.712 14.645,1.627Z" style="fill:#fff;fill-rule:nonzero;"/></g></g><g><g><path d="M417.661,920.947c-5.424,4.339 -13.018,3.796 -17.357,-1.628c-4.339,-5.424 -3.797,-13.018 1.627,-17.357c5.424,-4.339 13.018,-3.797 17.358,1.627c4.339,4.882 3.797,13.018 -1.628,17.358Zm-13.018,-16.273c-3.797,2.712 -4.339,8.136 -1.084,11.933c2.712,3.797 8.136,4.34 11.933,1.085c3.797,-2.712 4.339,-8.136 1.085,-11.933c-3.255,-3.797 -8.137,-4.339 -11.934,-1.085Z" style="fill:#e3f2ff;fill-rule:nonzero;"/></g></g><g><g><path d="M270.124,1046.79c3.797,4.34 3.254,10.849 -1.627,14.646c-4.34,3.797 -10.849,3.254 -14.646,-1.628c-3.797,-4.881 -3.254,-10.848 1.628,-14.645c4.339,-3.254 11.39,-2.712 14.645,1.627Z" style="fill:#fff;fill-rule:nonzero;"/></g></g><g><g><path d="M270.124,1063.06c-5.424,4.339 -13.018,3.797 -17.357,-1.627c-4.34,-5.424 -3.797,-13.018 1.627,-17.358c5.424,-4.339 13.018,-3.797 17.357,1.628c4.339,5.424 3.797,13.018 -1.627,17.357Zm-13.018,-16.273c-3.797,2.713 -4.339,8.137 -1.085,11.934c2.712,3.797 8.136,4.339 11.933,1.084c3.797,-2.712 4.34,-8.136 1.085,-11.933c-3.254,-3.254 -8.679,-3.797 -11.933,-1.085Z" style="fill:#e3f2ff;fill-rule:nonzero;"/></g></g><g><g><g><g><path d="M296.702,948.61l-89.499,-0c-4.339,-0 -7.593,-3.255 -7.593,-7.594l-0,-6.509c-0,-4.339 3.254,-7.594 7.593,-7.594l89.499,0c4.34,0 7.594,3.255 7.594,7.594l0,6.509c0,4.339 -3.797,7.594 -7.594,7.594Z" style="fill:#ebebeb;fill-rule:nonzero;"/></g></g></g></g><g><g><g><g><path d="M296.702,910.641l-89.499,-0c-4.339,-0 -7.593,-3.255 -7.593,-7.594l-0,-6.509c-0,-4.34 3.254,-7.594 7.593,-7.594l89.499,-0c4.34,-0 7.594,3.254 7.594,7.594l0,6.509c0,4.339 -3.797,7.594 -7.594,7.594Z" style="fill:#ebebeb;fill-rule:nonzero;"/></g></g></g></g></g><g><g><path d="M124.214,965.967c-0,0 -3.255,29.833 2.712,37.427c-0,0 -14.646,-3.254 -17.9,-8.136c-3.255,-4.882 15.188,-29.291 15.188,-29.291Z" style="fill:#16202e;fill-rule:nonzero;"/></g><g><g><path d="M215.882,1061.97c0,0 5.424,-3.797 5.967,-4.339c1.085,-0.543 3.797,-0.543 6.509,-0c3.254,0.542 7.051,2.169 7.594,2.712c-0,0.542 0.542,1.085 0.542,2.17c-0,1.627 -1.085,2.169 -1.085,2.169c0,0 0.543,1.627 -0.542,3.255c-0,-0 0.542,1.627 -1.085,2.712c-0,-0 0.542,1.627 -1.085,2.169l-3.797,0c-1.085,0 -6.509,-0.542 -11.933,-1.627c-0,0.543 -5.967,-0.542 -1.085,-9.221Z" style="fill:#eea886;fill-rule:nonzero;"/></g></g><g><g><path d="M224.561,1064.14c-0,-0 -1.627,2.712 -2.712,3.254c-1.085,0.543 4.339,5.967 4.339,5.967c0,-0 2.17,-7.052 -1.627,-9.221Z" style="fill:#cf8c6c;fill-rule:nonzero;"/></g></g><g><g><path d="M212.628,1062.52c-0,-0 3.254,-0.543 5.424,-1.085c2.169,-1.085 -0.543,10.306 -0.543,10.306c0,-0 -4.881,-3.255 -8.136,-3.797c-3.254,-0 3.255,-5.424 3.255,-5.424Z" style="fill:#eea886;fill-rule:nonzero;"/></g></g><g><g><path d="M74.311,1364.64c0,0 10.306,15.188 14.103,18.442c0,0 7.051,3.797 7.594,7.052c0.542,5.966 0.542,9.221 -8.679,9.221c-9.763,-0 -15.73,-0 -17.357,-5.967c-1.627,-5.966 -4.882,-10.306 -4.882,-10.306l-0.542,15.188l-2.17,-0c0,-0 -1.085,-15.188 -1.085,-17.357c0,-2.17 -1.627,-10.306 3.255,-14.103c3.797,-3.797 9.763,-2.17 9.763,-2.17Z" style="fill:#162d40;fill-rule:nonzero;"/></g></g><g><g><path d="M89.499,1384.17c-0,0 -5.424,1.627 -11.391,0c-5.966,-1.627 -11.933,-16.272 -14.103,-17.357l-1.627,-5.967l11.933,0c0,0 0,4.339 2.17,8.136c2.17,3.255 13.018,15.188 13.018,15.188Z" style="fill:#162d40;fill-rule:nonzero;"/></g></g><g><g><path d="M142.113,1359.22c0,-0 1.628,3.797 4.34,7.594c2.169,2.712 8.678,14.645 11.933,15.187c2.712,0.543 11.933,2.17 13.018,7.594c0.542,4.882 1.085,8.679 -7.594,9.221c-9.221,0.543 -15.188,1.085 -19.527,-5.424c-4.339,-6.509 -11.391,-10.848 -11.391,-10.848l0,16.815l-3.254,-0c-0,-0 -1.627,-17.358 -2.712,-18.442c-1.085,-1.085 -3.255,-14.646 4.881,-21.155c8.679,-7.594 10.306,-0.542 10.306,-0.542Z" style="fill:#162d40;fill-rule:nonzero;"/></g></g><g><g><path d="M158.386,1382c-0,0 -8.136,2.17 -11.391,0c-3.254,-2.169 -13.56,-20.069 -17.357,-21.154c-0,0 3.254,-7.051 11.933,-1.627c0.542,-0 14.645,19.527 16.815,22.781Z" style="fill:#162d40;fill-rule:nonzero;"/></g></g><g><g><path d="M69.429,1111.34c0,0 -11.39,14.645 -14.645,32.545c-3.254,17.357 1.627,77.023 1.627,85.702c0,8.679 -7.593,35.8 -5.966,52.072c1.627,16.273 10.306,84.617 10.306,84.617l19.527,-0.542c-0,-0 -3.797,-73.769 -2.712,-80.82c1.085,-7.052 4.339,-36.342 4.881,-39.054c0.543,-2.712 22.782,-77.566 22.782,-90.584c-0,-13.018 -8.136,-65.09 -35.8,-43.936Z" style="fill:#1d3b54;fill-rule:nonzero;"/></g></g><g><g><path d="M126.926,1116.76c-0,0 18.984,71.599 21.154,81.363c2.17,9.763 6.509,22.781 6.509,24.951c-0,1.627 -2.17,32.545 -2.17,32.545l-5.424,104.144l-19.527,0c0,0 -6.509,-66.175 -7.594,-79.735c-1.085,-13.561 7.052,-34.172 5.424,-39.597c-2.169,-5.424 -32.545,-71.056 -32.545,-71.056c0,-0 -23.866,-73.227 34.173,-52.615Z" style="fill:#1d3b54;fill-rule:nonzero;"/></g></g><g><g><path d="M120.959,1009.9c0,0 7.594,0.542 13.018,7.051c5.424,5.967 10.848,15.731 12.476,18.985c1.627,3.255 22.239,33.088 23.324,34.172c1.084,0.543 10.306,-1.627 17.357,-2.169c11.933,-1.085 29.833,-7.052 29.833,-7.052l2.712,13.561c0,-0 -43.936,14.103 -53.699,11.39c-12.476,-3.254 -40.682,-39.596 -40.682,-39.596c0,-0 -21.154,-25.494 -4.339,-36.342Z" style="fill:#eddad3;fill-rule:nonzero;"/></g></g><g><g><path d="M107.941,1004.48c0,-0 9.764,4.339 13.018,5.424c3.255,0.542 16.273,17.9 18.985,23.866c2.169,5.967 -0,15.731 -4.882,26.579c-4.882,10.848 -0,14.645 -2.17,25.493c-2.169,10.849 -2.169,40.682 -1.627,46.648c0.542,5.967 -62.378,17.358 -74.854,6.509c0,0 8.679,-28.205 18.443,-38.511c2.169,-2.17 2.169,-17.358 0.542,-21.155c-1.627,-3.796 -18.442,-32.002 -18.442,-32.002c-0,-0 -1.085,-28.748 5.966,-34.172c6.509,-4.882 23.867,-6.509 26.579,-7.594c3.254,-1.628 11.933,-2.17 18.442,-1.085Z" style="fill:#eddad3;fill-rule:nonzero;"/></g></g><g><g><path d="M111.196,1026.18l5.966,-7.052l-4.882,-18.442c-0.542,-0 -2.169,10.306 -1.084,25.494Z" style="fill:#d1c0ba;fill-rule:nonzero;"/></g></g><g><g><path d="M74.311,1009.9c0,0 -12.475,-3.254 -19.527,9.764c-7.051,13.56 -5.424,20.611 -7.051,27.12c-1.628,5.967 -8.137,46.648 -8.679,48.276c-0.542,1.627 -6.509,22.239 -5.967,28.748c0.543,6.509 6.509,54.241 6.509,55.869c0,1.627 11.391,-1.628 11.391,-1.628c0,0 -0.542,-48.817 0,-53.156c0.543,-3.797 0.543,-25.494 3.797,-30.918c3.255,-5.424 10.306,-39.054 11.933,-42.309c2.17,-3.254 17.9,-37.427 7.594,-41.766Z" style="fill:#eea886;fill-rule:nonzero;"/></g></g><g><g><path d="M112.823,993.088c-0,0 -2.17,17.9 -1.627,23.866c-0,0 -10.306,10.306 -21.697,-11.933c-0,0 4.882,-9.221 1.085,-21.154c-3.255,-12.476 22.239,9.221 22.239,9.221Z" style="fill:#eea886;fill-rule:nonzero;"/></g></g><g><g><path d="M111.196,1016.95l-0,9.222l-10.849,-9.764l10.849,0.542Z" style="fill:#eea886;fill-rule:nonzero;"/></g></g><g><g><path d="M111.196,1026.18l-4.882,-5.967l-16.273,-16.273l-5.966,2.713l27.121,19.527Z" style="fill:#d1c0ba;fill-rule:nonzero;"/></g></g><g><g><path d="M117.162,1019.12l7.052,2.17l-12.476,-20.612l5.424,18.442Z" style="fill:#fae6de;fill-rule:nonzero;"/></g></g><g><g><path d="M106.314,1020.21l-7.052,10.848l-15.73,-24.951l7.052,-3.254l15.73,17.357Z" style="fill:#fae6de;fill-rule:nonzero;"/></g></g><g><path d="M141.029,1064.14c-0,-0 2.169,-16.273 -0,-26.036c-0,-0 -1.628,8.136 -4.882,20.069l4.882,5.967Z" style="fill:#d1c0ba;fill-rule:nonzero;"/></g><g><path d="M65.633,1061.97c-0,0 6.509,-22.239 7.051,-23.324c-0,0 -0.542,20.612 -3.255,30.376c0,-0 -2.169,-4.34 -3.796,-7.052Z" style="fill:#d1c0ba;fill-rule:nonzero;"/></g><g><path d="M315.687,950.237l-105.771,133.435l3.796,2.712l101.975,-136.147Z" style="fill:#54281a;fill-rule:nonzero;"/></g><g><g><path d="M235.409,1060.35c0,-0 -8.136,-0.543 -8.136,0.542c-0.543,1.085 0.542,1.628 0.542,1.628l-3.254,1.084c-0,0 -1.627,2.17 1.085,3.255c-0,-0 -1.628,1.627 1.084,2.712c0,-0 -0.542,1.627 0.543,2.17c1.085,0.542 6.509,1.084 6.509,1.084c-0,0 1.085,-0.542 1.085,-2.169c-0,-0 1.627,-1.085 1.085,-2.712c-0,-0 1.084,-1.085 0.542,-3.255c-0,0 2.712,-2.712 0.542,-4.882c-1.084,0.543 -1.627,0.543 -1.627,0.543Z" style="fill:#db9c7c;fill-rule:nonzero;"/></g></g><g><g><path d="M222.391,1057.64c0,-0 4.882,2.712 6.509,5.424c0.543,0.542 0.543,1.085 0.543,1.627c-0.543,0.543 -1.628,0.543 -3.797,-0.542c-2.17,-1.085 -5.425,-1.627 -5.425,-1.627c0,-0 -2.169,-1.085 2.17,-4.882Z" style="fill:#eea886;fill-rule:nonzero;"/></g></g><g><path d="M104.687,932.337c-0,0 17.899,-0.542 21.154,20.612c3.254,21.154 -4.339,39.597 -7.052,42.851c-3.254,3.255 -20.611,0.543 -24.951,-10.306c-4.339,-10.848 -10.306,-18.984 -9.221,-28.748c0,-9.221 -2.17,-24.409 20.07,-24.409Z" style="fill:#eea886;fill-rule:nonzero;"/></g><g><path d="M126.383,961.085c0,0 4.882,-26.578 -18.984,-30.917c-23.867,-4.882 -32.003,11.39 -34.173,21.154c-2.169,9.763 0.543,36.884 0.543,36.884c-0,0 15.73,14.103 25.493,17.358c0,-0 -8.136,-28.748 -4.881,-49.903c-0,0 19.527,3.255 32.002,0c-0.542,0 0,4.34 0,5.424Z" style="fill:#16202e;fill-rule:nonzero;"/></g><g><path d="M112.28,996.885c0,0 -5.966,0 -14.645,-5.424c0,-0 5.967,7.594 14.103,10.306c-0,-0 0.542,-3.797 0.542,-4.882Z" style="fill:#a77860;fill-rule:nonzero;"/></g><g><path d="M76.795,1133.66l-69.055,11.279l8.307,50.855l69.055,-11.279l-8.307,-50.855Z" style="fill:#366e9c;"/></g><g><g><g><g><g><g><path d="M37.427,1195.41c-0,-0 -1.085,-1.627 -1.085,-2.712l-0,-4.34c-0,-1.084 -1.085,-3.254 -0.542,-5.424c-0,-2.712 3.254,-13.018 3.254,-13.018l5.967,0l5.966,-0.542c0,-0 7.052,13.018 7.052,15.73l-0,0.542c-0,2.17 -1.085,3.255 -1.085,4.34c-0,0.542 -1.085,3.797 -2.17,4.339c-1.627,0.542 -2.712,0.542 -3.797,-0c0,-0 -2.712,1.085 -4.882,0.542c0,0 -2.712,1.085 -4.881,0c0.542,0.543 -2.17,1.628 -3.797,0.543Z" style="fill:#eea886;fill-rule:nonzero;"/></g></g></g></g></g></g><g><g><path d="M74.311,1009.9c0,0 -12.475,-3.254 -19.527,9.764c-7.051,13.56 -7.051,19.527 -8.136,26.036c-1.085,5.966 -9.221,43.393 -9.764,45.02c-0.542,1.627 -3.254,24.951 -3.254,33.088c-0,6.509 1.085,48.275 1.085,49.902c-0,1.627 19.527,-2.712 19.527,-2.712c-0,0 -2.17,-38.512 -1.628,-42.851c0.543,-3.797 1.085,-24.409 3.255,-30.375c2.17,-7.052 11.391,-42.309 13.018,-45.563c1.627,-3.255 15.73,-37.97 5.424,-42.309Z" style="fill:#eddad3;fill-rule:nonzero;"/></g></g></g><g><g><g><path d="M707.312,1373.32l1.085,-11.933c0,-0 -16.815,-0 -18.442,1.084c-0,0 1.627,9.764 1.627,11.391c0,1.627 15.73,-0.542 15.73,-0.542Z" style="fill:#5c544d;fill-rule:nonzero;"/></g></g><g><g><path d="M679.107,1398.27c20.069,-0 29.29,1.085 31.46,-2.17c2.169,-3.254 -3.255,-23.866 -3.255,-23.866c0,-0 -4.881,1.627 -16.272,0.542c-0,0 -4.882,5.967 -9.764,8.679c-4.881,2.712 -12.475,3.797 -15.187,6.509c-1.628,1.627 -7.052,10.306 13.018,10.306Z" style="fill:#3c4145;fill-rule:nonzero;"/></g></g><g><g><path d="M595.032,1373.32l1.085,-11.933c-0,-0 -16.815,-0 -18.442,1.084c-0,0 1.627,9.764 1.627,11.391c0.542,1.627 15.73,-0.542 15.73,-0.542Z" style="fill:#5c544d;fill-rule:nonzero;"/></g></g><g><g><path d="M566.826,1398.27c20.07,-0.543 29.291,1.085 31.46,-2.17c2.17,-3.254 -3.254,-23.866 -3.254,-23.866c-0,-0 -4.339,1.627 -16.273,0.542c0,0 -4.881,5.967 -9.763,8.679c-4.882,2.712 -22.239,4.882 -25.494,7.594c-1.085,1.627 -4.882,9.763 23.324,9.221Z" style="fill:#3c4145;fill-rule:nonzero;"/></g></g><g><g><path d="M684.531,1105.37c-0,0 8.136,24.952 7.051,46.106c-1.085,21.154 4.34,44.478 6.509,66.717c2.712,24.952 12.476,83.533 13.018,97.093c0.543,13.018 -1.627,55.869 -1.627,55.869l-20.069,0.542c-0,0 -16.815,-102.516 -21.155,-113.365c-4.339,-10.306 -26.036,-85.159 -27.121,-93.838c-0.542,-8.679 43.394,-59.124 43.394,-59.124Z" style="fill:#dbd8e3;fill-rule:nonzero;"/></g></g><g><g><path d="M599.371,1109.71c0,-0 -10.848,58.581 -12.475,71.599c-1.628,13.018 -2.17,62.92 -3.255,71.057c-0.542,8.136 -4.882,106.856 -8.679,118.789l26.036,0c0,0 19.528,-71.599 19.528,-105.771c-0,-34.173 15.187,-73.769 24.951,-96.008c9.763,-22.239 32.545,-22.782 38.511,-64.548c0.543,0.542 -75.938,-8.136 -84.617,4.882Z" style="fill:#dbd8e3;fill-rule:nonzero;"/></g></g><g><g><path d="M651.986,910.098c-0,0 -20.07,-7.594 -29.833,8.136c-9.221,15.731 -8.679,46.648 1.627,50.445c10.306,3.797 25.494,1.628 30.918,-7.594c5.424,-9.763 9.763,-23.866 9.763,-33.087c0,-10.306 -7.051,-15.188 -12.475,-17.9Z" style="fill:#eea886;fill-rule:nonzero;"/></g></g><g><g><path d="M627.577,967.052c-0,0 1.085,5.424 -0.542,8.136c-1.085,2.712 25.493,2.712 25.493,2.712c0,0 2.17,-14.102 6.509,-26.578c3.797,-11.933 -31.46,15.73 -31.46,15.73Z" style="fill:#eea886;fill-rule:nonzero;"/></g></g><g><g><path d="M659.037,951.322c0,-0 -1.627,3.254 -9.221,1.627c-7.594,-1.085 -16.815,-11.391 -20.069,-12.475c-3.255,-1.085 -3.255,-2.712 -3.255,-2.712l-2.17,2.712l-3.254,-0c-0,-0 3.254,-9.221 -1.627,-12.476c-4.882,-3.797 4.881,-29.291 29.29,-20.612c0,0 17.358,3.255 18.442,14.103c1.085,11.391 -4.339,24.409 -8.136,29.833Z" style="fill:#fccca2;fill-rule:nonzero;"/></g></g><g><g><path d="M625.407,974.646c0,-0 0,-4.882 2.17,-5.424c2.17,-0.543 24.951,-2.712 27.663,-1.628l0,5.967c0.543,0 -4.882,3.255 -29.833,1.085Z" style="fill:#e2d2ca;fill-rule:nonzero;"/></g></g><g><g><path d="M626.492,933.965c0.543,-1.628 4.882,-7.052 6.509,-1.628c1.627,5.425 -2.712,13.018 -4.882,11.934c-2.169,-0 -2.712,-5.425 -1.627,-10.306Z" style="fill:#eea886;fill-rule:nonzero;"/></g></g><g><g><path d="M625.407,974.646c0,-0 -12.475,4.339 -27.121,10.848c0,0 -16.815,5.967 -18.442,24.409c-1.085,9.764 -11.391,61.836 -13.56,66.175c-2.17,4.339 -24.951,74.854 -26.036,76.481c-0.543,1.627 18.984,9.763 20.069,9.221c1.085,-0.543 22.239,-64.548 24.409,-68.887c-0,-0 11.933,-37.969 12.476,-43.936c-0,0 0.542,16.273 1.084,20.612c0.543,4.339 -10.848,92.753 -10.306,95.465c0.543,2.713 52.073,5.425 72.684,3.255c20.612,-2.17 37.427,-7.052 37.427,-7.052c0,0 -16.272,-69.971 -15.73,-77.565c1.085,-16.815 6.509,-48.818 6.509,-48.818l16.815,31.46l-21.697,55.327l4.882,16.815c0,-0 40.139,-60.751 41.224,-66.175c1.085,-5.424 -2.17,-12.476 -4.339,-17.357c-2.17,-4.34 -15.731,-39.054 -18.985,-43.936c-3.255,-4.882 -8.679,-24.409 -22.239,-29.833c-10.849,-4.339 -29.833,-8.136 -29.833,-8.136l-29.291,1.627Z" style="fill:#63a4ff;fill-rule:nonzero;"/></g></g><g><g><path d="M614.426,1118.54l-94.054,-24.118l-16.842,65.68l94.054,24.118l16.842,-65.68Z" style="fill:#fff;"/></g></g><g><g><path d="M532.654,1166.66c-0,-0 -2.712,4.339 -3.797,5.424c-1.085,1.085 2.17,2.17 3.797,0.542c1.627,-0.542 -0,-5.966 -0,-5.966Z" style="fill:#c98462;fill-rule:nonzero;"/></g></g><g><g><path d="M552.181,1181.85c-0,0 1.627,-1.627 2.17,-2.712c-0,0 0.542,-2.169 1.084,-3.254c0,-0.543 0,-1.085 0.543,-1.085c0.542,-1.085 1.627,-3.255 2.17,-5.967c0.542,-2.712 1.627,-14.645 1.627,-14.645l-7.052,-1.627l-5.966,-1.085c-0,-0 -12.476,12.476 -13.561,15.188l0,0.542c-0.542,2.17 0,3.797 0,4.882c0,0.542 0,4.882 1.085,5.424c1.085,1.085 2.712,1.085 3.797,1.085c0,-0 2.712,2.17 4.882,1.627c-0,0 2.712,2.17 5.424,1.085c-0.542,-0.542 2.17,1.627 3.797,0.542Z" style="fill:#de9d7d;fill-rule:nonzero;"/></g></g><g><g><path d="M580.929,1105.37c0,0 -16.815,50.445 -20.069,55.869c-0,0 -12.476,-2.712 -20.07,-9.221l18.442,-54.784l21.697,8.136Z" style="fill:#63a4ff;fill-rule:nonzero;"/></g></g></g><g><g><path d="M2090.48,1184.56c-0,0 62.378,-182.252 -56.412,-238.663c-118.789,-56.412 -219.136,24.951 -238.121,69.429c-18.985,43.936 -14.103,124.756 2.17,180.625c16.272,55.869 14.103,141.571 -21.155,169.777c-35.257,28.748 -79.192,75.938 -77.023,172.489c1.085,59.666 235.409,-152.962 235.409,-152.962l155.132,-200.695Z" style="fill:#252e3b;fill-rule:nonzero;"/></g><g><path d="M1923.95,1400.99c-0,-0 -97.636,21.697 -136.147,44.478c-38.512,22.782 -124.756,126.383 -124.756,171.404c-0,44.478 375.895,86.244 375.895,86.244l71.057,259.818c-0,0 189.846,-46.105 212.627,-84.617c22.782,-38.511 -72.141,-314.059 -88.414,-369.386c-16.272,-56.954 -84.617,-96.55 -163.81,-107.399c-78.65,-11.39 -146.452,-0.542 -146.452,-0.542Z" style="fill:#0062a2;fill-rule:nonzero;"/></g><g><path d="M2063.9,1400.44c0,-0 -2.169,118.247 -96.008,122.043c-93.838,3.255 -74.311,-113.365 -74.311,-113.365c0,0 68.345,-28.205 170.319,-8.678Z" style="fill:#eea886;fill-rule:nonzero;"/></g><g><path d="M2103.49,1042.99c-0,0 33.087,190.389 -61.293,328.163c-98.178,142.113 61.293,-328.163 61.293,-328.163Z" style="fill:#252e3b;fill-rule:nonzero;"/></g><g><path d="M2043.83,1316.37c-0,-0 -6.509,56.411 4.339,91.668c10.849,35.258 -143.74,36.342 -143.74,7.052c-0,-33.088 15.73,-60.208 1.084,-116.62c-14.645,-55.869 138.317,17.9 138.317,17.9Z" style="fill:#eea886;fill-rule:nonzero;"/></g><g><path d="M1923.95,1323.96c-0,-0 48.817,50.987 111.195,5.424c0,-0 -5.424,32.545 -49.902,36.884c-45.021,3.797 -61.293,-42.308 -61.293,-42.308Z" style="fill:#a77860;fill-rule:nonzero;"/></g><g><path d="M1985.25,976.816c-0,-0 123.129,36.342 105.771,207.745c-17.357,170.862 -98.177,162.183 -105.771,163.811c-7.594,1.084 -103.06,7.593 -133.435,-200.153c-30.375,-207.745 133.435,-171.403 133.435,-171.403Z" style="fill:#eea886;fill-rule:nonzero;"/></g><g><path d="M1953.25,1053.3c0,0 67.26,106.857 137.774,131.265c0,0 38.512,-178.997 -120.417,-216.424c-158.928,-37.427 -133.977,180.625 -122.043,238.664c-0.543,-0 32.545,-85.702 104.686,-153.505Z" style="fill:#252e3b;fill-rule:nonzero;"/></g><g><path d="M1863.2,1037.02c-0,-0 35.257,-68.345 94.923,-71.599c59.666,-3.255 94.923,48.817 94.923,48.817c-0,0 -23.324,-58.038 -94.923,-58.038c-71.599,-0 -94.923,80.82 -94.923,80.82Z" style="fill:#88c0ff;fill-rule:nonzero;"/></g></g><g><path d="M2105.66,1574.02l41.767,388.913l-550.012,0l-42.308,-388.913l550.553,0Z" style="fill:#5fa0ff;fill-rule:nonzero;"/></g><g><path d="M2134.41,1949.91l-555.436,0l-42.308,-393.795l555.435,0l42.309,393.795Zm-551.097,-4.881l545.672,-0l-41.223,-384.032l-545.672,0l41.223,384.032Z" style="fill:#5fa0ff;fill-rule:nonzero;"/></g><g><path d="M1885.44,1762.24c4.882,24.409 -6.509,47.19 -24.951,50.987c-18.985,3.797 -37.969,-12.475 -42.851,-36.884c-4.882,-24.409 6.509,-47.19 24.951,-50.987c18.985,-3.797 37.969,13.018 42.851,36.884Z" style="fill:#5189db;fill-rule:nonzero;"/></g><g><rect x="2095.91" y="1924.11" width="102.517" height="39.054" style="fill:#5fa0ff;"/></g></g><g opacity="0.9"><g><path d="M1786.08,1676.53c-2.036,0 -3.562,1.654 -3.562,3.563l-0,130.923c-0,2.036 1.654,3.563 3.562,3.563l130.924,-0c2.035,-0 3.562,-1.654 3.562,-3.563l0,-130.923c0,-2.036 -1.654,-3.563 -3.562,-3.563l-130.924,0Z" style="fill:#0062a2;fill-rule:nonzero;"/></g></g><path d="M1822.98,1777.56l-0,0.509c-0,-0 -0,0.127 -0.127,0.127l-0.128,-0c-0.127,-0 -0.127,-0 -0.381,-0.127c-0.128,-0.128 -0.382,-0.255 -0.636,-0.382c-0.255,-0.127 -0.637,-0.255 -1.018,-0.382c-0.382,-0.127 -0.891,-0.127 -1.4,-0.127c-0.636,-0 -1.145,0.127 -1.654,0.382c-0.509,0.254 -0.891,0.509 -1.272,0.89c-0.382,0.382 -0.636,0.891 -0.764,1.4c-0.127,0.509 -0.254,1.145 -0.254,1.781c-0,0.764 0.127,1.4 0.254,1.909c0.128,0.509 0.509,1.018 0.891,1.399c0.382,0.382 0.763,0.636 1.272,0.891c0.509,0.254 1.018,0.254 1.654,0.254c0.382,0 0.764,0 1.018,-0.127c0.382,-0.127 0.636,-0.254 1.018,-0.382l0,-3.308l-2.672,0c-0.127,0 -0.127,0 -0.254,-0.127c-0,-0.127 -0.128,-0.254 -0.128,-0.509l0,-0.509c0,0 0,-0.127 0.128,-0.127l3.944,0c0.127,0 0.127,0 0.127,0.127c0,0 0.127,0.127 0.127,0.255l0,4.58c0,0.127 0,0.255 -0.127,0.382c0,0.127 -0.127,0.254 -0.382,0.254c-0.127,0.128 -0.381,0.128 -0.636,0.255c-0.254,0.127 -0.509,0.127 -0.763,0.254c-0.255,0.127 -0.509,0.127 -0.891,0.127l-0.89,0c-0.891,0 -1.654,-0.127 -2.291,-0.381c-0.636,-0.255 -1.272,-0.636 -1.781,-1.145c-0.509,-0.509 -0.891,-1.145 -1.145,-1.782c-0.254,-0.636 -0.382,-1.526 -0.382,-2.29c0,-0.89 0.128,-1.654 0.382,-2.417c0.254,-0.764 0.636,-1.4 1.145,-1.909c0.509,-0.509 1.018,-0.89 1.781,-1.145c0.637,-0.254 1.4,-0.382 2.291,-0.382c0.381,0 0.89,0 1.272,0.128c0.382,0.127 0.763,0.127 1.018,0.254c0.254,0.127 0.509,0.255 0.763,0.382c0.255,0.127 0.382,0.254 0.382,0.254c0.127,0.128 0.127,0.128 0.127,0.255c0.382,0.254 0.382,0.381 0.382,0.509Zm9.288,5.216c-0,0.255 -0,0.382 -0.127,0.509c-0.128,0.127 -0.255,0.127 -0.382,0.127l-5.217,0c0,0.382 0,0.764 0.128,1.146c0.127,0.381 0.254,0.636 0.381,0.89c0.255,0.255 0.509,0.382 0.764,0.636c0.381,0.128 0.763,0.255 1.145,0.255c0.382,-0 0.763,-0 1.018,-0.127c0.254,-0.128 0.509,-0.128 0.763,-0.255c0.255,-0.127 0.382,-0.127 0.509,-0.254c0.127,-0.128 0.255,-0.128 0.255,-0.128l0.127,0l0.127,0.128l-0,0.89c-0,0 -0,0.128 -0.127,0.128c-0,-0 -0.127,0.127 -0.255,0.127c-0.127,0.127 -0.381,0.127 -0.636,0.254c-0.254,0.127 -0.509,0.127 -0.891,0.127c-0.381,0 -0.636,0.128 -1.017,0.128c-0.637,-0 -1.145,-0.128 -1.654,-0.255c-0.509,-0.127 -0.891,-0.509 -1.273,-0.763c-0.381,-0.382 -0.636,-0.764 -0.763,-1.273l-0,-1.908c-0,-0.636 0.127,-1.272 0.254,-1.781c0.128,-0.509 0.382,-1.018 0.764,-1.4c0.381,-0.382 0.763,-0.636 1.145,-0.89c0.509,-0.255 1.018,-0.255 1.527,-0.255c0.636,0 1.145,0.127 1.526,0.255c0.382,0.254 0.764,0.508 1.018,0.763c0.255,0.382 0.509,0.763 0.636,1.145c0.128,0.509 0.255,0.891 0.255,1.4l-0,0.381Zm-1.4,-0.381c0,-0.764 -0.127,-1.4 -0.509,-1.782c-0.381,-0.381 -0.89,-0.636 -1.526,-0.636c-0.382,0 -0.637,0.127 -0.891,0.255c-0.254,0.127 -0.509,0.254 -0.636,0.509c-0.127,0.254 -0.382,0.508 -0.382,0.763c-0.127,0.254 -0.127,0.636 -0.127,0.891l4.071,-0Zm8.525,2.544c0,0.382 -0.127,0.764 -0.254,1.018c-0.128,0.255 -0.382,0.636 -0.637,0.764c-0.254,0.254 -0.636,0.381 -1.017,0.508c-0.382,0.128 -0.764,0.128 -1.273,0.128c-0.254,-0 -0.509,-0 -0.763,-0.128c-0.255,-0.127 -0.509,-0.127 -0.636,-0.127c-0.128,0 -0.382,-0.127 -0.509,-0.254c-0.128,-0.127 -0.255,-0.127 -0.255,-0.255c-0.127,0 -0.127,-0.127 -0.127,-0.254l-0,-0.764c-0,0 -0,-0.127 0.127,-0.127l0.127,0c0.128,0 0.128,0 0.255,0.127c0.127,0.128 0.254,0.128 0.509,0.255c0.127,0.127 0.382,0.127 0.636,0.254c0.254,0.128 0.509,0.128 0.891,0.128c0.254,-0 0.509,-0 0.636,-0.128c0.254,0 0.382,-0.127 0.509,-0.254c0.127,-0.127 0.254,-0.255 0.381,-0.382c0.128,-0.127 0.128,-0.382 0.128,-0.509c-0,-0.254 -0,-0.381 -0.128,-0.509c-0.127,-0.127 -0.254,-0.254 -0.508,-0.381c-0.128,-0.128 -0.382,-0.255 -0.637,-0.255c-0.254,-0.127 -0.509,-0.127 -0.763,-0.254c-0.255,-0.128 -0.509,-0.255 -0.763,-0.382c-0.255,-0.127 -0.382,-0.254 -0.637,-0.509c-0.127,-0.127 -0.381,-0.382 -0.509,-0.636c-0.127,-0.127 -0.127,-0.509 -0.127,-0.764c0,-0.254 0,-0.636 0.127,-0.89c0.128,-0.255 0.255,-0.509 0.509,-0.764c0.255,-0.254 0.509,-0.381 0.891,-0.508c0.382,-0.128 0.763,-0.255 1.272,-0.255l0.637,0c0.254,0 0.381,0.127 0.508,0.127c0.128,0 0.255,0.128 0.382,0.128c0.127,-0 0.255,0.127 0.255,0.127l0.127,0.127l-0,0.891c-0,-0 -0,0.127 -0.127,0.127l-0.128,-0c0,-0 -0.127,-0 -0.254,-0.127c-0.127,-0.128 -0.255,-0.128 -0.382,-0.255c-0.127,-0.127 -0.381,-0.127 -0.509,-0.254c-0.254,-0.128 -0.509,-0.128 -0.763,-0.128c-0.255,0 -0.509,0 -0.636,0.128c-0.128,-0 -0.382,0.127 -0.509,0.254c-0.127,0.127 -0.255,0.255 -0.255,0.382c0,0.127 -0.127,0.254 -0.127,0.509c0,0.254 0,0.381 0.127,0.509c0.128,0.127 0.255,0.254 0.509,0.381c0.127,0.128 0.382,0.255 0.636,0.255c0.255,0.127 0.509,0.127 0.764,0.254c0.254,0.128 0.509,0.255 0.763,0.382c0.255,0.127 0.509,0.255 0.636,0.382c0.128,0.127 0.382,0.381 0.509,0.636c0.128,0.254 0.382,0.891 0.382,1.272Zm8.652,-5.852c0.127,-0 0.254,-0 0.382,0.127c0.127,0.127 0.127,0.254 0.127,0.381l-0,7.762l-0.127,0.127l-1.273,-0c0,-0 -0.127,-0 -0.127,-0.127l0,-7.125l-4.071,-0l-0,4.326c-0,0.508 0.127,0.89 0.254,1.272c0.127,0.254 0.382,0.382 0.891,0.382l0.381,-0c0.128,-0 0.255,-0 0.255,-0.128c0.127,0 0.127,0 0.254,-0.127l0.255,0l-0,0.891c-0,0.127 -0,0.127 -0.127,0.254c-0,0 -0.128,0.127 -0.255,0.127c-0.127,0 -0.254,0.128 -0.254,0.128c-0.128,-0 -0.255,-0 -0.382,0.127l-0.382,-0c-0.381,-0 -0.763,-0 -1.018,-0.127c-0.254,-0.128 -0.509,-0.255 -0.763,-0.509c-0.127,-0.255 -0.382,-0.509 -0.382,-0.764c-0.127,-0.381 -0.127,-0.763 -0.127,-1.145l-0,-4.707l-1.145,-0c-0.127,-0 -0.127,-0 -0.255,-0.128c0,-0.127 -0.127,-0.254 -0.127,-0.509l0,-0.381c0,-0 0,-0.127 0.127,-0.127l1.273,-0l-0,-2.036c-0,-0 -0,-0.127 0.127,-0.127l1.272,-0c0.128,-0 0.128,-0 0.128,0.127l-0,2.036l5.089,-0Zm0.636,-2.418c0,0.382 -0.127,0.509 -0.254,0.636c-0.128,0.127 -0.382,0.127 -0.764,0.127c-0.381,0 -0.509,0 -0.636,-0.127c-0.127,-0.127 -0.127,-0.381 -0.127,-0.636c-0,-0.382 0.127,-0.509 0.254,-0.636c0.128,-0.127 0.382,-0.127 0.764,-0.127c0.381,-0 0.509,-0 0.636,0.127c-0,-0 0.127,0.254 0.127,0.636Zm9.797,6.362c0,0.636 -0.127,1.272 -0.254,1.781c-0.128,0.509 -0.382,1.018 -0.764,1.4c-0.381,0.381 -0.763,0.636 -1.272,0.89c-0.509,0.255 -1.145,0.382 -1.781,0.382c-0.637,-0 -1.145,-0.127 -1.654,-0.255c-0.509,-0.127 -0.891,-0.508 -1.146,-0.89c-0.381,-0.382 -0.508,-0.764 -0.763,-1.273c-0.254,-0.508 -0.254,-1.145 -0.254,-1.781c-0,-0.636 0.127,-1.272 0.254,-1.781c0.127,-0.509 0.382,-1.018 0.763,-1.4c0.382,-0.381 0.764,-0.636 1.273,-0.89c0.509,-0.255 1.018,-0.382 1.781,-0.382c0.636,0 1.145,0.127 1.654,0.255c0.509,0.127 0.891,0.508 1.145,0.89c0.382,0.382 0.509,0.764 0.764,1.272c0.127,0.637 0.254,1.146 0.254,1.782Zm-1.527,0.127c0,-0.382 0,-0.763 -0.127,-1.145c-0.127,-0.382 -0.254,-0.764 -0.382,-1.018c-0.127,-0.254 -0.381,-0.509 -0.763,-0.636c-0.382,-0.127 -0.636,-0.255 -1.145,-0.255c-0.382,0 -0.764,0.128 -1.145,0.255c-0.255,0.127 -0.509,0.382 -0.764,0.636c-0.254,0.254 -0.381,0.636 -0.381,1.018c-0.128,0.382 -0.128,0.763 -0.128,1.272c0,0.382 0,0.891 0.128,1.273c0.127,0.381 0.254,0.763 0.381,1.017c0.128,0.255 0.382,0.509 0.764,0.637c0.381,0.127 0.636,0.254 1.145,0.254c0.382,0 0.763,-0.127 1.145,-0.254c0.254,-0.128 0.509,-0.382 0.763,-0.637c0.255,-0.254 0.382,-0.636 0.382,-1.017c0.127,-0.509 0.127,-0.891 0.127,-1.4Zm10.306,3.944c0,0 0,0.127 0,0c0,0.127 -0.127,0.127 -0.127,0.255c-0,0.127 -0.127,-0 -0.254,-0l-1.018,-0c-0.128,-0 -0.128,-0 -0.128,-0.128l0,-4.707c0,-0.509 0,-0.764 -0.127,-1.018c-0.127,-0.255 -0.127,-0.509 -0.254,-0.763c-0.128,-0.255 -0.255,-0.382 -0.509,-0.509c-0.255,-0.128 -0.509,-0.128 -0.764,-0.128c-0.381,0 -0.763,0.128 -1.017,0.382c-0.382,0.255 -0.764,0.636 -1.146,1.145l0,5.598l-0.127,0.128c-0.127,0.127 -0.127,-0 -0.254,-0l-1.018,-0c-0,-0 -0.127,-0 -0.127,-0.128l-0,-8.142l0.127,-0.128c0.127,-0.127 0.127,0 0.254,0l0.891,0c-0,0 0.127,0 0.127,0.128l0,1.145c0.382,-0.509 0.891,-0.891 1.273,-1.145c0.381,-0.255 0.89,-0.382 1.272,-0.382c0.509,-0 1.018,0.127 1.272,0.254c0.382,0.128 0.636,0.382 0.891,0.764c0.254,0.254 0.382,0.636 0.509,1.018c0.127,0.381 0.127,0.89 0.127,1.399l-0,4.962l0.127,0Zm8.525,0c-0,0.127 -0,0.127 -0.127,0.127c-0,0 -0.128,0 -0.255,0.128l-0.763,-0c-0.127,-0 -0.127,-0 -0.255,-0.128l0,-0.89c-0.381,0.382 -0.763,0.636 -1.145,0.89c-0.381,0.255 -0.89,0.255 -1.272,0.255c-0.382,-0 -0.764,-0 -1.145,-0.127c-0.382,-0.128 -0.636,-0.255 -0.891,-0.509c-0.254,-0.255 -0.382,-0.509 -0.509,-0.764c-0.127,-0.254 -0.254,-0.636 -0.254,-1.018c-0,-0.381 0.127,-0.763 0.254,-1.145c0.127,-0.381 0.382,-0.636 0.764,-0.763c0.381,-0.254 0.763,-0.382 1.272,-0.509c0.509,-0.127 1.018,-0.127 1.654,-0.127l1.018,-0l-0,-0.636c-0,-0.255 -0,-0.509 -0.127,-0.764c-0.128,-0.254 -0.128,-0.381 -0.255,-0.636c-0.127,-0.127 -0.382,-0.254 -0.509,-0.382c-0.127,-0.127 -0.509,-0.127 -0.89,-0.127c-0.382,0 -0.637,0 -0.891,0.127c-0.255,0.128 -0.509,0.128 -0.763,0.255c-0.255,0.127 -0.382,0.254 -0.509,0.254c-0.128,0.128 -0.255,0.128 -0.255,0.128l-0.127,-0c-0,-0 -0.127,-0 -0.127,-0.128l-0,-0.763c-0,-0.127 0.127,-0.127 0.127,-0.255c0.127,-0.127 0.254,-0.127 0.382,-0.254c0.254,-0.127 0.381,-0.254 0.636,-0.254c0.254,-0.128 0.509,-0.128 0.763,-0.255c0.255,0 0.636,-0.127 0.891,-0.127c0.509,-0 1.018,0.127 1.399,0.254c0.382,0.128 0.764,0.255 1.018,0.509c0.255,0.255 0.382,0.509 0.509,0.891c0.127,0.382 0.127,0.763 0.127,1.272l0,5.471l0.255,0Zm-1.4,-3.562l-1.272,-0c-0.382,-0 -0.763,-0 -1.018,0.127c-0.254,0.127 -0.509,0.127 -0.763,0.254c-0.255,0.128 -0.382,0.255 -0.382,0.509c-0.127,0.128 -0.127,0.382 -0.127,0.636c-0,0.382 0.127,0.764 0.381,1.018c0.255,0.255 0.637,0.382 1.146,0.382c0.381,0 0.763,-0.127 1.017,-0.254c0.255,-0.128 0.637,-0.509 1.018,-0.891l0,-1.781Zm5.471,-8.143l0,11.705c0,0.127 -0.127,0.127 -0.127,0.255c0,0.127 -0.127,-0 -0.254,-0l-1.018,-0c-0,-0 -0.127,-0 -0.127,-0.128l-0,-11.832c-0,-0 -0,-0.128 0.127,-0.128l1.272,0c0,0 0.127,0 0.127,0.128Zm9.288,7.379c0,0.255 0,0.382 -0.127,0.509c-0.127,0.127 -0.254,0.127 -0.381,0.127l-5.217,0c-0,0.382 -0,0.764 0.127,1.146c0.127,0.381 0.255,0.636 0.382,0.89c0.254,0.255 0.509,0.382 0.763,0.636c0.382,0.128 0.764,0.255 1.145,0.255c0.382,-0 0.764,-0 1.018,-0.127c0.255,-0.128 0.509,-0.128 0.764,-0.255c0.254,-0.127 0.381,-0.127 0.509,-0.254c0.127,-0.128 0.254,-0.128 0.254,-0.128l0.127,0l0.128,0.128l-0,0.89c-0,0 -0,0.128 -0.128,0.128c0,-0 -0.127,0.127 -0.254,0.127c-0.127,0.127 -0.382,0.127 -0.636,0.254c-0.255,0.127 -0.509,0.127 -0.891,0.127c-0.382,0 -0.636,0.128 -1.018,0.128c-0.636,-0 -1.145,-0.128 -1.654,-0.255c-0.509,-0.127 -0.891,-0.509 -1.272,-0.763c-0.382,-0.382 -0.636,-0.764 -0.764,-1.273c-0.127,-0.508 -0.254,-1.145 -0.254,-1.908c-0,-0.636 0.127,-1.272 0.254,-1.781c0.128,-0.509 0.382,-1.018 0.764,-1.4c0.381,-0.382 0.763,-0.636 1.145,-0.89c0.509,-0.255 1.018,-0.255 1.527,-0.255c0.636,0 1.145,0.127 1.526,0.255c0.382,0.254 0.764,0.508 1.018,0.763c0.255,0.382 0.509,0.763 0.637,1.145c0.127,0.509 0.254,0.891 0.254,1.4l-0,0.381l0.254,0Zm-1.399,-0.381c-0,-0.764 -0.127,-1.4 -0.509,-1.782c-0.382,-0.381 -0.891,-0.636 -1.527,-0.636c-0.382,0 -0.636,0.127 -0.89,0.255c-0.255,0.127 -0.509,0.254 -0.637,0.509c-0.127,0.254 -0.381,0.508 -0.381,0.763c-0.128,0.254 -0.128,0.636 -0.128,0.891l4.072,-0Z" style="fill:#fff;fill-rule:nonzero;"/><g><path d="M1837.23,1723.23c0.636,-0.891 1.145,-1.527 1.654,-2.29c1.272,-1.273 2.799,-2.163 4.453,-2.545c2.036,-0.509 4.072,-0.382 6.107,0.254c3.181,1.018 4.963,3.309 5.599,6.362c0.381,1.527 0.509,3.181 0.509,4.835l-0,16.159c-0.891,0.254 -4.199,0.381 -5.98,0.127c-0,-0.382 -0.128,-0.891 -0.128,-1.272l0,-16.159c0,-0.891 0,-1.781 -0.254,-2.545c-0.382,-1.654 -1.527,-2.799 -3.308,-3.181c-1.145,-0.254 -2.163,-0.127 -3.181,0.128c-1.908,0.509 -3.308,2.672 -3.308,4.453l0,18.321c-0.763,0.255 -4.071,0.382 -5.98,0.128c0,-0.382 -0.127,-0.764 -0.127,-1.273l-0,-16.667c-0,-0.891 -0.127,-1.654 -0.382,-2.545c-0.382,-1.272 -1.399,-2.163 -3.054,-2.545c-2.162,-0.509 -3.817,0.255 -5.343,1.654c-0.255,0.255 -0.509,0.509 -0.764,0.764c-0.381,0.254 -0.509,0.636 -0.509,1.145l0,19.721l-5.852,0c-0.255,-0.89 -0.255,-26.464 -0,-27.61c1.272,-0.127 2.544,-0.127 3.817,0c0.509,0 0.89,0.382 1.017,0.891c0.128,0.382 0.255,0.891 0.382,1.272c0.127,0.255 0.127,0.637 0.255,1.018c1.017,-0.763 1.908,-1.654 2.926,-2.29c2.417,-1.654 5.089,-1.781 7.761,-0.636c1.527,0.636 2.545,1.908 3.308,3.435c0.128,0.255 0.255,0.509 0.382,0.891" style="fill:#fff;fill-rule:nonzero;"/><path d="M1880.36,1732.52c-0.127,1.654 0.128,3.308 0.636,4.962c0.764,2.163 2.163,3.817 4.581,4.326c1.399,0.254 2.799,0.254 4.326,-0c1.654,-0.382 2.926,-1.272 3.69,-2.799c0.381,-0.764 0.636,-1.527 0.89,-2.29c0.636,-1.782 0.382,-3.563 0.509,-5.344c0,-1.781 -0.381,-3.435 -1.145,-5.09c-0.509,-1.017 -1.145,-1.908 -2.163,-2.417c-1.527,-1.018 -3.308,-1.145 -4.962,-0.891c-2.417,0.255 -4.199,1.4 -5.217,3.69c-1.017,1.781 -1.399,3.69 -1.145,5.853m7.38,14.25c-3.308,-0.127 -6.107,-0.763 -8.652,-2.672c-1.781,-1.399 -3.054,-3.308 -3.944,-5.471c-0.891,-2.163 -1.145,-4.326 -1.145,-6.489c0.127,-3.181 0.763,-6.107 2.544,-8.779c2.163,-2.926 4.962,-4.58 8.652,-5.089c2.29,-0.382 4.581,-0.127 6.871,0.509c2.036,0.636 3.817,1.654 5.344,3.308c2.29,2.417 3.308,5.216 3.562,8.397c0.255,2.545 0,4.962 -0.636,7.38c-0.509,1.781 -1.4,3.308 -2.672,4.707c-2.036,2.291 -4.708,3.563 -7.761,3.945c-0.891,0.127 -1.654,0.254 -2.163,0.254" style="fill:#fff;fill-rule:nonzero;"/><path d="M1868.53,1746.26l-5.726,0c-0.254,-0.89 -0.254,-26.21 0,-27.61c0.255,0 0.509,-0.127 0.891,-0.127l3.435,0c1.4,0 1.4,0 1.4,1.4l-0,26.337Z" style="fill:#fff;fill-rule:nonzero;"/><path d="M1806.95,1719.29c1.4,-0 2.672,-0.128 3.945,-0c-0.255,1.017 -0.382,2.035 -0.637,3.053c-0.763,3.563 -1.526,7.125 -2.29,10.688c-0.509,2.163 -0.89,4.326 -1.272,6.362c-0.127,0.89 -0.382,1.908 0.382,2.799c0.254,0.254 0.509,0.509 0.89,0.636c0.764,0.127 1.654,0.509 2.545,0.127l0.509,0c0.127,1.018 -0.255,1.909 -0.509,2.799c-0,0.127 -0.382,0.382 -0.636,0.382c-1.781,0.382 -3.436,0.382 -5.09,-0.382c-1.526,-0.763 -2.671,-3.181 -2.29,-4.835c0.509,-2.672 1.145,-5.471 1.654,-8.143c0.764,-3.944 1.654,-7.888 2.418,-11.705c0.127,-0.509 0.254,-1.145 0.381,-1.781" style="fill:#fff;fill-rule:nonzero;"/><path d="M1865.47,1706.56c2.163,0 3.817,1.781 3.817,3.944c-0,2.291 -1.909,3.817 -3.944,3.817c-1.782,0 -3.945,-2.035 -3.817,-3.817c0.127,-2.544 1.781,-4.071 3.944,-3.944" style="fill:#fff;fill-rule:nonzero;"/><path d="M1813.69,1709.62c-0,1.654 -1.018,2.672 -2.545,2.672c-1.781,-0 -2.799,-1.527 -2.799,-2.799c-0,-1.273 1.4,-2.545 2.926,-2.545c1.4,-0 2.418,1.145 2.418,2.672" style="fill:#fff;fill-rule:nonzero;"/></g><g opacity="0.9"><g><path d="M1468.49,989.084c-2.694,-0 -4.714,2.188 -4.714,4.714l-0,173.238c-0,2.693 2.189,4.713 4.714,4.713l173.238,0c2.693,0 4.714,-2.188 4.714,-4.713l-0,-173.238c-0,-2.694 -2.189,-4.714 -4.714,-4.714l-173.238,-0Z" style="fill:#0062a2;fill-rule:nonzero;"/></g></g><path d="M1517.32,1122.76l-0,0.673c-0,0 -0,0.169 -0.168,0.169l-0.169,-0c-0.168,-0 -0.168,-0 -0.505,-0.169c-0.168,-0.168 -0.505,-0.336 -0.842,-0.505c-0.336,-0.168 -0.841,-0.336 -1.346,-0.505c-0.506,-0.168 -1.179,-0.168 -1.852,-0.168c-0.842,-0 -1.516,0.168 -2.189,0.505c-0.673,0.337 -1.178,0.673 -1.684,1.179c-0.505,0.505 -0.841,1.178 -1.01,1.851c-0.168,0.674 -0.336,1.516 -0.336,2.357c-0,1.011 0.168,1.852 0.336,2.526c0.169,0.673 0.674,1.347 1.179,1.852c0.505,0.505 1.01,0.841 1.683,1.178c0.674,0.337 1.347,0.337 2.189,0.337c0.505,-0 1.01,-0 1.347,-0.168c0.505,-0.169 0.842,-0.337 1.347,-0.506l-0,-4.377l-3.536,0c-0.168,0 -0.168,0 -0.336,-0.168c-0,-0.169 -0.169,-0.337 -0.169,-0.674l0,-0.673c0,0 0,-0.168 0.169,-0.168l5.219,-0c0.168,-0 0.168,-0 0.168,0.168c-0,0 0.168,0.168 0.168,0.337l0,6.061c0,0.168 0,0.336 -0.168,0.505c-0,0.168 -0.168,0.336 -0.505,0.336c-0.169,0.169 -0.505,0.169 -0.842,0.337c-0.337,0.168 -0.673,0.168 -1.01,0.337c-0.337,0.168 -0.674,0.168 -1.179,0.168l-1.178,0c-1.179,0 -2.189,-0.168 -3.03,-0.505c-0.842,-0.337 -1.684,-0.842 -2.357,-1.515c-0.674,-0.674 -1.179,-1.515 -1.516,-2.357c-0.336,-0.842 -0.505,-2.02 -0.505,-3.031c0,-1.178 0.169,-2.188 0.505,-3.198c0.337,-1.01 0.842,-1.852 1.516,-2.526c0.673,-0.673 1.346,-1.178 2.357,-1.515c0.841,-0.337 1.851,-0.505 3.03,-0.505c0.505,0 1.178,0 1.683,0.168c0.506,0.169 1.011,0.169 1.347,0.337c0.337,0.169 0.674,0.337 1.01,0.505c0.337,0.169 0.506,0.337 0.506,0.337c0.168,0.168 0.168,0.168 0.168,0.337c0.505,0.336 0.505,0.505 0.505,0.673Zm12.29,6.903c-0,0.336 -0,0.505 -0.168,0.673c-0.169,0.168 -0.337,0.168 -0.506,0.168l-6.902,0c-0,0.505 -0,1.011 0.168,1.516c0.169,0.505 0.337,0.841 0.505,1.178c0.337,0.337 0.674,0.505 1.01,0.842c0.506,0.168 1.011,0.337 1.516,0.337c0.505,-0 1.01,-0 1.346,-0.169c0.337,-0.168 0.674,-0.168 1.011,-0.336c0.336,-0.169 0.505,-0.169 0.673,-0.337c0.168,-0.169 0.337,-0.169 0.337,-0.169l0.168,0l0.168,0.169l0,1.178c0,0 0,0.169 -0.168,0.169c0,-0 -0.168,0.168 -0.337,0.168c-0.168,0.168 -0.505,0.168 -0.841,0.337c-0.337,0.168 -0.674,0.168 -1.179,0.168c-0.505,0 -0.842,0.168 -1.347,0.168c-0.841,0 -1.515,-0.168 -2.188,-0.336c-0.674,-0.169 -1.179,-0.674 -1.684,-1.01c-0.505,-0.505 -0.842,-1.011 -1.01,-1.684l-0,-2.525c-0,-0.842 0.168,-1.684 0.337,-2.357c0.168,-0.674 0.505,-1.347 1.01,-1.852c0.505,-0.505 1.01,-0.842 1.515,-1.179c0.673,-0.336 1.347,-0.336 2.02,-0.336c0.842,-0 1.515,0.168 2.021,0.336c0.505,0.337 1.01,0.674 1.346,1.01c0.337,0.506 0.674,1.011 0.842,1.516c0.169,0.673 0.337,1.178 0.337,1.852l-0,0.505Zm-1.852,-0.505c-0,-1.011 -0.168,-1.852 -0.673,-2.357c-0.506,-0.505 -1.179,-0.842 -2.021,-0.842c-0.505,-0 -0.841,0.168 -1.178,0.337c-0.337,0.168 -0.674,0.336 -0.842,0.673c-0.168,0.337 -0.505,0.673 -0.505,1.01c-0.168,0.337 -0.168,0.842 -0.168,1.179l5.387,-0Zm11.28,3.367c-0,0.505 -0.169,1.01 -0.337,1.347c-0.168,0.336 -0.505,0.841 -0.842,1.01c-0.336,0.336 -0.841,0.505 -1.347,0.673c-0.505,0.168 -1.01,0.168 -1.683,0.168c-0.337,0 -0.674,0 -1.01,-0.168c-0.337,-0.168 -0.674,-0.168 -0.842,-0.168c-0.168,-0 -0.505,-0.169 -0.673,-0.337c-0.169,-0.168 -0.337,-0.168 -0.337,-0.337c-0.168,0 -0.168,-0.168 -0.168,-0.336l-0,-1.011c-0,0 -0,-0.168 0.168,-0.168l0.168,0c0.169,0 0.169,0 0.337,0.168c0.168,0.169 0.337,0.169 0.673,0.337c0.169,0.169 0.505,0.169 0.842,0.337c0.337,0.168 0.674,0.168 1.179,0.168c0.336,0 0.673,0 0.841,-0.168c0.337,-0 0.505,-0.168 0.674,-0.337c0.168,-0.168 0.337,-0.337 0.505,-0.505c0.168,-0.168 0.168,-0.505 0.168,-0.673c0,-0.337 0,-0.505 -0.168,-0.674c-0.168,-0.168 -0.337,-0.336 -0.674,-0.505c-0.168,-0.168 -0.505,-0.337 -0.841,-0.337c-0.337,-0.168 -0.674,-0.168 -1.01,-0.336c-0.337,-0.169 -0.674,-0.337 -1.011,-0.505c-0.336,-0.169 -0.505,-0.337 -0.841,-0.674c-0.169,-0.168 -0.505,-0.505 -0.674,-0.842c-0.168,-0.168 -0.168,-0.673 -0.168,-1.01c-0,-0.336 -0,-0.841 0.168,-1.178c0.169,-0.337 0.337,-0.674 0.674,-1.01c0.336,-0.337 0.673,-0.505 1.178,-0.674c0.505,-0.168 1.01,-0.336 1.684,-0.336l0.841,-0c0.337,-0 0.506,0.168 0.674,0.168c0.168,-0 0.337,0.168 0.505,0.168c0.168,0 0.337,0.169 0.337,0.169l0.168,0.168l0,1.179c0,-0 0,0.168 -0.168,0.168l-0.169,-0c0,-0 -0.168,-0 -0.336,-0.168c-0.169,-0.169 -0.337,-0.169 -0.505,-0.337c-0.169,-0.169 -0.506,-0.169 -0.674,-0.337c-0.337,-0.168 -0.673,-0.168 -1.01,-0.168c-0.337,-0 -0.673,-0 -0.842,0.168c-0.168,0 -0.505,0.168 -0.673,0.337c-0.169,0.168 -0.337,0.337 -0.337,0.505c0,0.168 -0.168,0.337 -0.168,0.673c-0,0.337 -0,0.505 0.168,0.674c0.168,0.168 0.337,0.336 0.673,0.505c0.169,0.168 0.506,0.336 0.842,0.336c0.337,0.169 0.674,0.169 1.01,0.337c0.337,0.169 0.674,0.337 1.011,0.505c0.336,0.169 0.673,0.337 0.841,0.505c0.169,0.169 0.505,0.505 0.674,0.842c0.168,0.337 0.505,1.179 0.505,1.684Zm11.448,-7.745c0.168,0 0.337,0 0.505,0.169c0.168,0.168 0.168,0.336 0.168,0.505l0,10.269l-0.168,0.169l-1.684,-0c0,-0 -0.168,-0 -0.168,-0.169l0,-9.427l-5.387,-0l-0,5.724c-0,0.673 0.168,1.178 0.336,1.683c0.169,0.337 0.506,0.505 1.179,0.505l0.505,0c0.168,0 0.337,0 0.337,-0.168c0.168,-0 0.168,-0 0.336,-0.168l0.337,-0l0,1.178c0,0.168 0,0.168 -0.168,0.337c-0,-0 -0.169,0.168 -0.337,0.168c-0.168,0 -0.337,0.168 -0.337,0.168c-0.168,0 -0.336,0 -0.505,0.169l-0.505,-0c-0.505,-0 -1.01,-0 -1.347,-0.169c-0.336,-0.168 -0.673,-0.336 -1.01,-0.673c-0.168,-0.337 -0.505,-0.673 -0.505,-1.01c-0.168,-0.505 -0.168,-1.01 -0.168,-1.515l-0,-6.229l-1.515,-0c-0.169,-0 -0.169,-0 -0.337,-0.169c-0,-0.168 -0.168,-0.337 -0.168,-0.673l-0,-0.505c-0,-0 -0,-0.169 0.168,-0.169l1.683,0l0,-2.693c0,-0 0,-0.169 0.169,-0.169l1.683,0c0.169,0 0.169,0 0.169,0.169l-0,2.693l6.734,0Zm0.842,-3.198c-0,0.505 -0.169,0.673 -0.337,0.841c-0.168,0.169 -0.505,0.169 -1.01,0.169c-0.505,-0 -0.674,-0 -0.842,-0.169c-0.168,-0.168 -0.168,-0.505 -0.168,-0.841c-0,-0.505 0.168,-0.674 0.336,-0.842c0.169,-0.169 0.506,-0.169 1.011,-0.169c0.505,0 0.673,0 0.841,0.169c0,-0 0.169,0.337 0.169,0.842Zm12.963,8.417c0,0.842 -0.168,1.684 -0.337,2.357c-0.168,0.674 -0.505,1.347 -1.01,1.852c-0.505,0.505 -1.01,0.842 -1.683,1.179c-0.674,0.336 -1.515,0.505 -2.357,0.505c-0.842,-0 -1.515,-0.169 -2.189,-0.337c-0.673,-0.168 -1.178,-0.673 -1.515,-1.178c-0.505,-0.505 -0.674,-1.011 -1.01,-1.684c-0.337,-0.673 -0.337,-1.515 -0.337,-2.357c0,-0.842 0.168,-1.684 0.337,-2.357c0.168,-0.673 0.505,-1.347 1.01,-1.852c0.505,-0.505 1.01,-0.842 1.683,-1.178c0.674,-0.337 1.347,-0.505 2.357,-0.505c0.842,-0 1.516,0.168 2.189,0.336c0.673,0.169 1.179,0.674 1.515,1.179c0.505,0.505 0.674,1.01 1.01,1.683c0.169,0.842 0.337,1.516 0.337,2.357Zm-2.02,0.169c-0,-0.505 -0,-1.01 -0.169,-1.516c-0.168,-0.505 -0.336,-1.01 -0.505,-1.346c-0.168,-0.337 -0.505,-0.674 -1.01,-0.842c-0.505,-0.168 -0.841,-0.337 -1.515,-0.337c-0.505,0 -1.01,0.169 -1.515,0.337c-0.337,0.168 -0.674,0.505 -1.01,0.842c-0.337,0.336 -0.505,0.841 -0.505,1.346c-0.169,0.506 -0.169,1.011 -0.169,1.684c0,0.505 0,1.179 0.169,1.684c0.168,0.505 0.336,1.01 0.505,1.346c0.168,0.337 0.505,0.674 1.01,0.842c0.505,0.169 0.842,0.337 1.515,0.337c0.505,-0 1.01,-0.168 1.515,-0.337c0.337,-0.168 0.674,-0.505 1.01,-0.842c0.337,-0.336 0.505,-0.841 0.505,-1.346c0.169,-0.674 0.169,-1.179 0.169,-1.852Zm13.637,5.219c-0,-0 -0,0.168 -0,-0c-0,0.168 -0.169,0.168 -0.169,0.336c0,0.169 -0.168,0 -0.336,0l-1.347,0c-0.169,0 -0.169,0 -0.169,-0.168l0,-6.229c0,-0.674 0,-1.01 -0.168,-1.347c-0.168,-0.337 -0.168,-0.673 -0.337,-1.01c-0.168,-0.337 -0.336,-0.505 -0.673,-0.673c-0.337,-0.169 -0.674,-0.169 -1.01,-0.169c-0.505,0 -1.01,0.169 -1.347,0.505c-0.505,0.337 -1.01,0.842 -1.515,1.515l-0,7.408l-0.169,0.168c-0.168,0.169 -0.168,0 -0.336,0l-1.347,0c-0,0 -0.169,0 -0.169,-0.168l0,-10.775l0.169,-0.168c0.168,-0.168 0.168,-0 0.337,-0l1.178,-0c-0,-0 0.168,-0 0.168,0.168l0,1.516c0.505,-0.674 1.179,-1.179 1.684,-1.516c0.505,-0.336 1.178,-0.505 1.683,-0.505c0.674,0 1.347,0.169 1.684,0.337c0.505,0.168 0.842,0.505 1.178,1.01c0.337,0.337 0.506,0.842 0.674,1.347c0.168,0.505 0.168,1.178 0.168,1.852l0,6.566l0.169,-0Zm11.279,-0c0,0.168 0,0.168 -0.168,0.168c0,0 -0.168,0 -0.337,0.168l-1.01,0c-0.168,0 -0.168,0 -0.336,-0.168l-0,-1.178c-0.506,0.505 -1.011,0.841 -1.516,1.178c-0.505,0.337 -1.178,0.337 -1.683,0.337c-0.505,-0 -1.01,-0 -1.515,-0.169c-0.505,-0.168 -0.842,-0.336 -1.179,-0.673c-0.337,-0.337 -0.505,-0.673 -0.673,-1.01c-0.169,-0.337 -0.337,-0.842 -0.337,-1.347c-0,-0.505 0.168,-1.01 0.337,-1.515c0.168,-0.505 0.505,-0.842 1.01,-1.01c0.505,-0.337 1.01,-0.505 1.683,-0.674c0.674,-0.168 1.347,-0.168 2.189,-0.168l1.347,-0l-0,-0.842c-0,-0.337 -0,-0.673 -0.169,-1.01c-0.168,-0.337 -0.168,-0.505 -0.336,-0.842c-0.169,-0.168 -0.505,-0.336 -0.674,-0.505c-0.168,-0.168 -0.673,-0.168 -1.178,-0.168c-0.505,-0 -0.842,-0 -1.179,0.168c-0.336,0.169 -0.673,0.169 -1.01,0.337c-0.336,0.168 -0.505,0.337 -0.673,0.337c-0.169,0.168 -0.337,0.168 -0.337,0.168l-0.168,-0c-0,-0 -0.169,-0 -0.169,-0.168l0,-1.011c0,-0.168 0.169,-0.168 0.169,-0.336c0.168,-0.169 0.336,-0.169 0.505,-0.337c0.337,-0.168 0.505,-0.337 0.842,-0.337c0.336,-0.168 0.673,-0.168 1.01,-0.336c0.336,-0 0.841,-0.169 1.178,-0.169c0.674,0 1.347,0.169 1.852,0.337c0.505,0.168 1.01,0.337 1.347,0.673c0.337,0.337 0.505,0.674 0.673,1.179c0.169,0.505 0.169,1.01 0.169,1.683l-0,7.24l0.336,-0Zm-1.851,-4.714l-1.684,-0c-0.505,-0 -1.01,-0 -1.347,0.168c-0.337,0.168 -0.673,0.168 -1.01,0.337c-0.337,0.168 -0.505,0.337 -0.505,0.673c-0.168,0.169 -0.168,0.505 -0.168,0.842c-0,0.505 0.168,1.01 0.505,1.347c0.336,0.337 0.841,0.505 1.515,0.505c0.505,-0 1.01,-0.168 1.347,-0.337c0.336,-0.168 0.841,-0.673 1.347,-1.178l-0,-2.357Zm7.239,-10.775l-0,15.489c-0,0.168 -0.169,0.168 -0.169,0.336c0,0.169 -0.168,0 -0.336,0l-1.347,0c-0,0 -0.168,0 -0.168,-0.168l-0,-15.657c-0,0 -0,-0.168 0.168,-0.168l1.683,-0c0,-0 0.169,-0 0.169,0.168Zm12.29,9.765c-0,0.336 -0,0.505 -0.169,0.673c-0.168,0.168 -0.336,0.168 -0.505,0.168l-6.902,0c-0,0.505 -0,1.011 0.168,1.516c0.168,0.505 0.337,0.841 0.505,1.178c0.337,0.337 0.674,0.505 1.01,0.842c0.505,0.168 1.01,0.337 1.516,0.337c0.505,-0 1.01,-0 1.346,-0.169c0.337,-0.168 0.674,-0.168 1.011,-0.336c0.336,-0.169 0.505,-0.169 0.673,-0.337c0.168,-0.169 0.337,-0.169 0.337,-0.169l0.168,0l0.168,0.169l0,1.178c0,0 0,0.169 -0.168,0.169c-0,-0 -0.168,0.168 -0.337,0.168c-0.168,0.168 -0.505,0.168 -0.841,0.337c-0.337,0.168 -0.674,0.168 -1.179,0.168c-0.505,0 -0.842,0.168 -1.347,0.168c-0.842,0 -1.515,-0.168 -2.188,-0.336c-0.674,-0.169 -1.179,-0.674 -1.684,-1.01c-0.505,-0.505 -0.842,-1.011 -1.01,-1.684c-0.168,-0.673 -0.337,-1.515 -0.337,-2.525c0,-0.842 0.169,-1.684 0.337,-2.357c0.168,-0.674 0.505,-1.347 1.01,-1.852c0.505,-0.505 1.01,-0.842 1.515,-1.179c0.674,-0.336 1.347,-0.336 2.02,-0.336c0.842,-0 1.516,0.168 2.021,0.336c0.505,0.337 1.01,0.674 1.347,1.01c0.336,0.506 0.673,1.011 0.841,1.516c0.169,0.673 0.337,1.178 0.337,1.852l0,0.505l0.337,-0Zm-1.852,-0.505c-0,-1.011 -0.168,-1.852 -0.674,-2.357c-0.505,-0.505 -1.178,-0.842 -2.02,-0.842c-0.505,-0 -0.842,0.168 -1.178,0.337c-0.337,0.168 -0.674,0.336 -0.842,0.673c-0.168,0.337 -0.505,0.673 -0.505,1.01c-0.169,0.337 -0.169,0.842 -0.169,1.179l5.388,-0Z" style="fill:#fff;fill-rule:nonzero;"/><g><path d="M1536.17,1050.87c0.842,-1.178 1.515,-2.02 2.188,-3.03c1.684,-1.684 3.704,-2.862 5.893,-3.367c2.693,-0.674 5.387,-0.505 8.081,0.336c4.209,1.347 6.566,4.378 7.408,8.418c0.505,2.021 0.673,4.209 0.673,6.398l-0,21.381c-1.179,0.337 -5.556,0.505 -7.913,0.168c0,-0.505 -0.168,-1.178 -0.168,-1.683l-0,-21.381c-0,-1.179 -0,-2.357 -0.337,-3.368c-0.505,-2.188 -2.02,-3.703 -4.377,-4.208c-1.515,-0.337 -2.862,-0.169 -4.209,0.168c-2.525,0.673 -4.377,3.535 -4.377,5.892l-0,24.244c-1.01,0.336 -5.388,0.505 -7.913,0.168c0,-0.505 -0.168,-1.01 -0.168,-1.684l-0,-22.054c-0,-1.179 -0.169,-2.189 -0.505,-3.367c-0.505,-1.684 -1.852,-2.862 -4.041,-3.367c-2.862,-0.674 -5.051,0.336 -7.071,2.188c-0.337,0.337 -0.673,0.674 -1.01,1.01c-0.505,0.337 -0.673,0.842 -0.673,1.516l-0,26.095l-7.745,-0c-0.336,-1.179 -0.336,-35.018 0,-36.534c1.684,-0.168 3.367,-0.168 5.051,0c0.673,0 1.178,0.506 1.347,1.179c0.168,0.505 0.337,1.178 0.505,1.684c0.168,0.336 0.168,0.841 0.337,1.346c1.346,-1.01 2.525,-2.188 3.872,-3.03c3.199,-2.189 6.734,-2.357 10.269,-0.842c2.021,0.842 3.368,2.526 4.378,4.546c0.168,0.337 0.336,0.673 0.505,1.178" style="fill:#fff;fill-rule:nonzero;"/><path d="M1593.24,1063.16c-0.168,2.189 0.169,4.377 0.842,6.566c1.01,2.862 2.862,5.051 6.061,5.724c1.852,0.337 3.704,0.337 5.724,0c2.189,-0.505 3.872,-1.683 4.882,-3.704c0.505,-1.01 0.842,-2.02 1.179,-3.03c0.841,-2.357 0.505,-4.714 0.673,-7.071c0,-2.357 -0.505,-4.546 -1.515,-6.734c-0.674,-1.347 -1.515,-2.526 -2.862,-3.199c-2.02,-1.347 -4.377,-1.515 -6.566,-1.178c-3.199,0.336 -5.556,1.851 -6.903,4.882c-1.346,2.357 -1.851,4.882 -1.515,7.744m9.765,18.856c-4.377,-0.168 -8.081,-1.01 -11.448,-3.535c-2.357,-1.852 -4.041,-4.378 -5.219,-7.24c-1.179,-2.862 -1.516,-5.724 -1.516,-8.586c0.169,-4.209 1.011,-8.081 3.368,-11.616c2.862,-3.873 6.565,-6.061 11.448,-6.735c3.03,-0.505 6.061,-0.168 9.091,0.674c2.694,0.842 5.051,2.188 7.071,4.377c3.03,3.199 4.377,6.903 4.714,11.112c0.337,3.367 -0,6.565 -0.842,9.764c-0.673,2.357 -1.852,4.377 -3.535,6.229c-2.694,3.031 -6.23,4.714 -10.27,5.219c-1.179,0.169 -2.189,0.337 -2.862,0.337" style="fill:#fff;fill-rule:nonzero;"/><path d="M1577.59,1081.34l-7.576,-0c-0.337,-1.179 -0.337,-34.682 0,-36.534c0.337,0 0.674,-0.168 1.179,-0.168l4.545,0c1.852,0 1.852,0 1.852,1.852l0,34.85Z" style="fill:#fff;fill-rule:nonzero;"/><path d="M1496.1,1045.65c1.852,0 3.536,-0.168 5.219,0c-0.337,1.347 -0.505,2.694 -0.842,4.041c-1.01,4.714 -2.02,9.428 -3.03,14.142c-0.673,2.862 -1.178,5.724 -1.684,8.417c-0.168,1.179 -0.505,2.526 0.506,3.704c0.336,0.337 0.673,0.674 1.178,0.842c1.01,0.168 2.189,0.673 3.367,0.168l0.674,0c0.168,1.347 -0.337,2.526 -0.674,3.704c0,0.169 -0.505,0.505 -0.842,0.505c-2.357,0.505 -4.545,0.505 -6.734,-0.505c-2.02,-1.01 -3.535,-4.209 -3.03,-6.397c0.673,-3.536 1.515,-7.24 2.188,-10.775c1.01,-5.219 2.189,-10.438 3.199,-15.489c0.168,-0.673 0.337,-1.515 0.505,-2.357" style="fill:#fff;fill-rule:nonzero;"/><path d="M1573.55,1028.82c2.862,-0 5.05,2.357 5.05,5.219c0,3.03 -2.525,5.05 -5.219,5.05c-2.357,0 -5.219,-2.693 -5.05,-5.05c0.168,-3.367 2.357,-5.388 5.219,-5.219" style="fill:#fff;fill-rule:nonzero;"/><path d="M1505.03,1032.86c-0,2.189 -1.347,3.536 -3.367,3.536c-2.357,-0 -3.704,-2.021 -3.704,-3.704c0,-1.684 1.852,-3.367 3.872,-3.367c1.852,-0 3.199,1.515 3.199,3.535" style="fill:#fff;fill-rule:nonzero;"/></g></g><defs><linearGradient id="_Linear1" x1="0" y1="0" x2="1" y2="0" gradientUnits="userSpaceOnUse" gradientTransform="matrix(837.452,0,0,837.452,1932.44,1257.58)"><stop offset="0" style="stop-color:#96cbff;stop-opacity:1"/><stop offset="1" style="stop-color:#59f;stop-opacity:1"/></linearGradient><linearGradient id="_Linear2" x1="0" y1="0" x2="1" y2="0" gradientUnits="userSpaceOnUse" gradientTransform="matrix(622.068,-63.9077,63.9077,622.068,287.947,742.965)"><stop offset="0" style="stop-color:#96cbff;stop-opacity:1"/><stop offset="1" style="stop-color:#59f;stop-opacity:1"/></linearGradient></defs></svg>