<?xml version="1.0" encoding="utf-8"?>
<!-- Generator: Adobe Illustrator 24.0.0, SVG Export Plug-In . SVG Version: 6.00 Build 0)  -->
<svg version="1.1" id="Livello_1" xmlns="http://www.w3.org/2000/svg" xmlns:xlink="http://www.w3.org/1999/xlink" x="0px" y="0px"
	 viewBox="0 0 195.9 104" style="enable-background:new 0 0 195.9 104;" xml:space="preserve">
<style type="text/css">
	.st0{clip-path:url(#SVGID_2_);fill:#1F3B71;}
</style>
<g>
	<defs>
		<rect id="SVGID_1_" width="195.9" height="104"/>
	</defs>
	<clipPath id="SVGID_2_">
		<use xlink:href="#SVGID_1_"  style="overflow:visible;"/>
	</clipPath>
	<path class="st0" d="M69.9,33.1c1.2-1.7,2.2-3.1,3.4-4.4c2.4-2.6,5.4-4.2,8.9-5c4-0.9,8-0.8,12,0.4c6.2,2,9.7,6.5,11.1,12.6
		c0.7,3.1,1,6.4,1,9.6c-0.1,9.9,0,19.7,0,29.6v2.3c-1.7,0.6-8.3,0.7-11.8,0.3c0-0.8-0.1-1.6-0.1-2.5c0-10.7,0-21.4,0-32
		c0-1.7-0.1-3.4-0.5-5c-0.9-3.3-3-5.5-6.4-6.3c-2.2-0.5-4.2-0.3-6.3,0.3c-3.7,1-6.5,5.3-6.6,8.8c0,1,0,1.9,0,2.9
		c0,10.4,0,20.8,0,31.1v2.3c-1.6,0.6-7.9,0.7-11.8,0.3c0-0.8-0.1-1.6-0.1-2.5c0-11,0-21.9,0-32.9c0-1.7-0.4-3.3-0.8-5
		c-0.8-3.2-3-4.8-6.2-5.5c-4.2-0.9-7.5,0.6-10.5,3.2c-0.5,0.4-0.9,1-1.4,1.4c-0.7,0.6-1,1.4-1,2.3c0.1,1.2,0,2.5,0,3.8
		c0,10.8,0,21.7,0,32.5c0,0.9-0.1,1.7-0.1,2.7H30.8c-0.4-1.9-0.5-52.2,0-54.6c2.5-0.2,5.1-0.2,7.6,0c1,0.1,1.8,0.7,2.1,1.7
		c0.3,0.8,0.5,1.7,0.7,2.6c0.1,0.6,0.2,1.3,0.4,2c2-1.6,3.8-3.3,5.8-4.5c4.9-3.2,10.1-3.6,15.4-1.3c3,1.3,5.1,3.8,6.4,6.7
		C69.4,31.7,69.6,32.3,69.9,33.1"/>
	<path class="st0" d="M155,51.3c-0.3,3.2,0.1,6.6,1.3,9.8c1.5,4.4,4.2,7.5,9,8.6c2.8,0.6,5.7,0.6,8.5-0.1c3.3-0.8,5.8-2.6,7.3-5.5
		c0.7-1.4,1.3-3,1.8-4.5c1.1-3.4,0.9-7,0.9-10.5c0-3.5-0.8-6.8-2.4-10c-1-2-2.4-3.7-4.3-4.9c-3.1-1.9-6.4-2.2-9.8-1.8
		c-4.7,0.5-8.3,2.9-10.2,7.3C155.3,43.4,154.6,47.2,155,51.3 M169.6,79.7c-6.5-0.3-12.1-1.6-17-5.4c-3.6-2.8-6.2-6.4-7.9-10.7
		c-1.6-4.2-2.3-8.5-2.2-12.9c0.2-6.2,1.4-12.1,5.1-17.3c4.2-5.7,9.9-9,17-10.1c4.6-0.7,9.1-0.3,13.5,0.9c4.1,1.2,7.6,3.3,10.6,6.5
		c4.4,4.7,6.4,10.3,7,16.7c0.5,5,0.1,9.8-1.4,14.5c-1.1,3.5-2.8,6.6-5.2,9.3c-4.1,4.6-9.3,7.1-15.4,7.9
		C172.2,79.4,170.7,79.6,169.6,79.7"/>
	<path class="st0" d="M131.4,78.5h-11.2c-0.4-1.7-0.5-51.9-0.1-54.5c0.5-0.1,1.1-0.2,1.6-0.2c2.3,0,4.6,0,6.9,0c2.8,0,2.8,0,2.8,2.9
		c0,4.3,0,8.7,0,13c0,12,0,24,0,36V78.5z"/>
	<path class="st0" d="M10.2,25.3c2.7,0,5.2-0.1,7.9,0.1c-0.4,2.1-0.7,4.1-1.1,6c-1.5,7.1-3.1,14.2-4.6,21.2
		c-0.9,4.2-1.8,8.4-2.6,12.7c-0.3,1.8-0.7,3.8,0.7,5.5c0.5,0.5,1.1,1.1,1.7,1.2c1.6,0.3,3.3,1,5,0.2c0.2-0.1,0.6,0,1,0
		c0.1,2-0.5,3.8-1,5.5c-0.1,0.4-0.8,0.7-1.3,0.8c-3.4,0.8-6.7,0.9-10.1-0.7c-3.1-1.5-5.3-6.2-4.6-9.5c1.1-5.4,2.2-10.7,3.3-16.1
		C6.3,44.4,7.9,36.7,9.5,29C9.8,27.8,10,26.6,10.2,25.3"/>
	<path class="st0" d="M125.7,0c4.2,0,7.6,3.5,7.5,7.8c-0.1,4.5-3.8,7.5-7.9,7.6c-3.6,0.1-7.7-4.1-7.5-7.7C118.1,3,121.4-0.2,125.7,0
		"/>
	<path class="st0" d="M23.4,6.1c0,3.2-2.1,5.4-5.1,5.4c-3.4,0-5.4-3.1-5.5-5.6c-0.1-2.6,2.9-5.1,5.8-5C21.3,0.9,23.4,3.2,23.4,6.1"
		/>
	<path class="st0" d="M192.5,95.2c-0.2,0.6-0.4,1.1-0.7,1.5c-0.3,0.4-0.7,0.8-1.2,1c-0.5,0.2-1.1,0.4-1.8,0.4
		c-0.8,0-1.4-0.1-1.9-0.4c-0.5-0.3-0.9-0.6-1.2-1.1c-0.3-0.5-0.5-1-0.6-1.6c-0.1-0.6-0.2-1.2-0.2-1.9c0-0.7,0.1-1.3,0.2-1.9
		c0.2-0.6,0.4-1.1,0.7-1.6c0.3-0.4,0.7-0.8,1.2-1c0.5-0.2,1.1-0.4,1.8-0.4c0.7,0,1.4,0.1,1.9,0.4c0.5,0.3,0.9,0.6,1.2,1.1
		s0.5,1,0.6,1.6c0.1,0.6,0.2,1.2,0.2,1.9C192.8,94,192.7,94.6,192.5,95.2 M194,90.6c-0.2-0.8-0.6-1.4-1-1.9c-0.5-0.5-1-0.9-1.7-1.2
		c-0.7-0.3-1.5-0.4-2.4-0.4c-0.9,0-1.8,0.2-2.5,0.5c-0.7,0.3-1.3,0.8-1.8,1.3c-0.5,0.6-0.8,1.2-1.1,2c-0.2,0.8-0.4,1.6-0.4,2.5
		c0,1,0.1,1.8,0.3,2.6c0.2,0.8,0.6,1.4,1,1.9c0.5,0.5,1,0.9,1.7,1.2c0.7,0.3,1.5,0.4,2.4,0.4c0.9,0,1.8-0.2,2.5-0.5
		c0.7-0.3,1.3-0.8,1.8-1.3c0.5-0.6,0.8-1.2,1.1-2c0.2-0.8,0.4-1.6,0.4-2.5C194.4,92.2,194.3,91.3,194,90.6 M181.1,98.1
		c0-0.1,0-0.1-0.1-0.2c0,0,0-0.1-0.1-0.1c0,0-0.1,0-0.1,0c-0.1,0-0.1,0-0.2,0.1c-0.1,0-0.2,0.1-0.3,0.1c-0.1,0.1-0.3,0.1-0.4,0.1
		c-0.2,0-0.4,0.1-0.6,0.1c-0.7,0-1.1-0.2-1.4-0.7c-0.3-0.5-0.4-1.1-0.4-2v-7h3.2c0.1,0,0.2-0.1,0.3-0.2c0.1-0.1,0.1-0.3,0.1-0.5
		c0-0.1,0-0.2,0-0.3c0-0.1,0-0.1-0.1-0.2c0-0.1-0.1-0.1-0.1-0.1c0,0-0.1,0-0.2,0h-3.2v-2.8c0-0.1,0-0.1,0-0.1c0,0-0.1-0.1-0.1-0.1
		c-0.1,0-0.1-0.1-0.2-0.1c-0.1,0-0.2,0-0.4,0c-0.1,0-0.3,0-0.4,0c-0.1,0-0.2,0-0.2,0.1c-0.1,0-0.1,0.1-0.1,0.1c0,0,0,0.1,0,0.1v2.8
		h-1.7c-0.1,0-0.1,0-0.2,0c0,0-0.1,0.1-0.1,0.1c0,0.1-0.1,0.1-0.1,0.2c0,0.1,0,0.2,0,0.3c0,0.2,0,0.4,0.1,0.5
		c0.1,0.1,0.2,0.2,0.3,0.2h1.7v7.2c0,0.6,0.1,1.2,0.2,1.7s0.3,0.9,0.6,1.2c0.3,0.3,0.6,0.5,1,0.7c0.4,0.2,0.9,0.2,1.5,0.2
		c0.2,0,0.3,0,0.5,0c0.2,0,0.3-0.1,0.5-0.1c0.2,0,0.3-0.1,0.4-0.1c0.1-0.1,0.2-0.1,0.3-0.2c0.1-0.1,0.1-0.2,0.1-0.3s0-0.3,0-0.4
		C181.1,98.2,181.1,98.2,181.1,98.1 M169.8,96.3c-0.6,0.6-1.1,1.1-1.7,1.4c-0.5,0.3-1.1,0.5-1.7,0.5c-0.8,0-1.4-0.2-1.8-0.6
		c-0.4-0.4-0.6-0.9-0.6-1.6c0-0.4,0.1-0.7,0.2-1c0.1-0.3,0.4-0.6,0.7-0.8c0.3-0.2,0.7-0.4,1.1-0.5c0.5-0.1,1-0.2,1.6-0.2h2.1V96.3z
		 M171.3,91.2c0-0.7-0.1-1.3-0.2-1.8c-0.1-0.5-0.4-1-0.7-1.3c-0.3-0.4-0.8-0.6-1.3-0.8c-0.5-0.2-1.2-0.3-2-0.3c-0.4,0-0.8,0-1.2,0.1
		c-0.4,0.1-0.8,0.2-1.1,0.3c-0.4,0.1-0.7,0.3-0.9,0.4c-0.3,0.1-0.5,0.3-0.6,0.4c-0.1,0.1-0.2,0.2-0.2,0.3c0,0.1,0,0.2,0,0.4
		c0,0.1,0,0.2,0,0.3c0,0.1,0,0.1,0.1,0.2c0,0,0.1,0.1,0.1,0.1c0,0,0.1,0,0.1,0c0.1,0,0.2-0.1,0.4-0.2c0.2-0.1,0.5-0.3,0.8-0.4
		c0.3-0.2,0.7-0.3,1.1-0.4c0.4-0.1,0.9-0.2,1.4-0.2c0.5,0,1,0.1,1.3,0.2c0.4,0.1,0.7,0.3,0.9,0.6c0.2,0.3,0.4,0.6,0.5,1
		c0.1,0.4,0.2,0.8,0.2,1.3v1H168c-0.8,0-1.6,0.1-2.3,0.2c-0.7,0.2-1.3,0.4-1.8,0.7c-0.5,0.3-0.9,0.7-1.1,1.2c-0.3,0.5-0.4,1-0.4,1.7
		c0,0.5,0.1,1,0.3,1.4s0.4,0.8,0.8,1.1c0.3,0.3,0.7,0.5,1.2,0.7c0.5,0.2,1,0.2,1.6,0.2c0.7,0,1.3-0.2,1.9-0.5
		c0.6-0.3,1.2-0.7,1.7-1.3V99c0,0.1,0,0.2,0.1,0.2c0.1,0,0.1,0.1,0.2,0.1c0.1,0,0.2,0,0.4,0c0.2,0,0.3,0,0.4,0
		c0.1,0,0.2-0.1,0.2-0.1c0.1,0,0.1-0.1,0.1-0.2V91.2z M160.9,87.8c0-0.1,0-0.1,0-0.2c0,0,0-0.1,0-0.1s-0.1-0.1-0.1-0.1
		c-0.1,0-0.1-0.1-0.3-0.1c-0.1,0-0.3-0.1-0.4-0.1c-0.2,0-0.3-0.1-0.5-0.1c-0.1,0-0.3,0-0.4,0c-0.3,0-0.5,0-0.7,0.1
		c-0.2,0.1-0.5,0.2-0.7,0.3c-0.3,0.2-0.5,0.4-0.8,0.7c-0.3,0.3-0.6,0.7-0.9,1.2v-1.8c0-0.1,0-0.1,0-0.1c0,0-0.1-0.1-0.1-0.1
		c-0.1,0-0.1-0.1-0.2-0.1c-0.1,0-0.2,0-0.4,0c-0.1,0-0.3,0-0.4,0c-0.1,0-0.2,0-0.2,0.1c-0.1,0-0.1,0.1-0.1,0.1c0,0,0,0.1,0,0.1V99
		c0,0.1,0,0.1,0,0.1c0,0,0.1,0.1,0.1,0.1c0.1,0,0.1,0,0.2,0.1c0.1,0,0.2,0,0.4,0c0.2,0,0.3,0,0.4,0c0.1,0,0.2,0,0.2-0.1
		c0.1,0,0.1-0.1,0.1-0.1c0,0,0-0.1,0-0.1v-7.8c0.3-0.5,0.6-1,0.9-1.3c0.3-0.4,0.5-0.6,0.8-0.9c0.2-0.2,0.5-0.4,0.7-0.5
		c0.2-0.1,0.4-0.1,0.7-0.1c0.2,0,0.4,0,0.5,0.1c0.2,0,0.3,0.1,0.4,0.1c0.1,0,0.3,0.1,0.4,0.1c0.1,0,0.2,0.1,0.3,0.1
		c0.1,0,0.1,0,0.1,0c0,0,0.1-0.1,0.1-0.1c0-0.1,0-0.1,0-0.2c0-0.1,0-0.2,0-0.3C160.9,87.9,160.9,87.8,160.9,87.8 M149.4,101.1
		c-0.1,0.3-0.3,0.6-0.6,0.8c-0.3,0.2-0.7,0.4-1.2,0.6c-0.5,0.1-1.1,0.2-1.8,0.2c-1.1,0-2-0.2-2.7-0.5c-0.6-0.3-1-0.8-1-1.4
		c0-0.2,0-0.4,0.1-0.6c0-0.2,0.1-0.4,0.2-0.6c0.1-0.2,0.3-0.4,0.5-0.6c0.2-0.2,0.4-0.4,0.8-0.7l3.4,0.1c0.8,0,1.4,0.2,1.8,0.5
		c0.5,0.3,0.7,0.7,0.7,1.3C149.5,100.5,149.5,100.8,149.4,101.1 M148.2,92.2c-0.1,0.3-0.3,0.6-0.5,0.9c-0.2,0.3-0.5,0.5-0.8,0.6
		c-0.3,0.2-0.7,0.2-1.2,0.2c-0.9,0-1.5-0.2-2-0.7s-0.7-1.2-0.7-2c0-0.4,0.1-0.8,0.2-1.1c0.1-0.3,0.3-0.7,0.5-0.9
		c0.2-0.3,0.5-0.5,0.8-0.6c0.3-0.2,0.7-0.2,1.2-0.2c0.9,0,1.6,0.2,2.1,0.7c0.5,0.5,0.7,1.2,0.7,2.1
		C148.3,91.5,148.3,91.8,148.2,92.2 M151.1,87.4c-0.1-0.1-0.2-0.2-0.3-0.2h-3.4c-0.2-0.1-0.5-0.1-0.8-0.1c-0.3,0-0.6-0.1-0.9-0.1
		c-0.6,0-1.2,0.1-1.7,0.3c-0.5,0.2-1,0.5-1.4,0.8c-0.4,0.4-0.7,0.8-0.9,1.3c-0.2,0.5-0.3,1.1-0.3,1.7c0,0.5,0.1,1,0.2,1.4
		c0.1,0.4,0.3,0.7,0.6,1.1c-0.3,0.3-0.5,0.7-0.7,1.1c-0.2,0.4-0.3,0.9-0.3,1.4c0,0.4,0.1,0.7,0.3,1c0.2,0.3,0.5,0.6,1,0.8
		c-0.3,0.2-0.5,0.5-0.7,0.7c-0.2,0.2-0.4,0.5-0.5,0.7c-0.1,0.2-0.2,0.5-0.3,0.8c-0.1,0.3-0.1,0.5-0.1,0.8c0,0.4,0.1,0.8,0.3,1.2
		s0.5,0.7,0.9,1c0.4,0.3,0.9,0.5,1.6,0.7c0.6,0.2,1.4,0.2,2.3,0.2c0.9,0,1.8-0.1,2.4-0.3c0.7-0.2,1.2-0.5,1.7-0.8
		c0.4-0.4,0.8-0.8,1-1.2c0.2-0.5,0.3-1,0.3-1.5c0-0.5-0.1-0.9-0.3-1.3c-0.2-0.4-0.5-0.7-0.8-0.9c-0.3-0.3-0.8-0.4-1.2-0.6
		c-0.5-0.1-1-0.2-1.5-0.2l-3.1-0.1c-0.5,0-0.9-0.1-1.2-0.4c-0.3-0.2-0.5-0.5-0.5-0.8c0-0.3,0.1-0.5,0.2-0.8c0.1-0.2,0.3-0.4,0.4-0.6
		c0.3,0.2,0.6,0.4,1.1,0.5c0.5,0.1,1,0.2,1.5,0.2c0.6,0,1.2-0.1,1.8-0.3c0.5-0.2,1-0.5,1.4-0.8c0.4-0.4,0.7-0.8,0.9-1.3
		c0.2-0.5,0.3-1.1,0.3-1.8c0-0.5-0.1-0.9-0.2-1.4c-0.1-0.4-0.4-0.8-0.7-1.2h1.8c0.1,0,0.2,0,0.3-0.1c0.1-0.1,0.1-0.3,0.1-0.5
		C151.2,87.7,151.2,87.5,151.1,87.4 M129.6,92.2c0-0.5,0.1-1,0.3-1.5c0.2-0.5,0.4-0.9,0.7-1.2c0.3-0.4,0.7-0.6,1.1-0.9
		c0.4-0.2,0.9-0.3,1.5-0.3c1.1,0,2,0.3,2.6,1c0.6,0.7,0.9,1.6,0.8,2.9H129.6z M138.2,92.4c0-0.7-0.1-1.4-0.3-2
		c-0.2-0.6-0.5-1.2-0.9-1.7c-0.4-0.5-0.9-0.9-1.5-1.2c-0.6-0.3-1.4-0.4-2.2-0.4c-0.8,0-1.5,0.1-2.2,0.4s-1.2,0.7-1.7,1.2
		c-0.5,0.5-0.8,1.2-1.1,2c-0.3,0.8-0.4,1.7-0.4,2.6c0,1,0.1,1.9,0.4,2.7c0.2,0.8,0.6,1.4,1.1,1.9c0.5,0.5,1,0.9,1.7,1.2
		c0.7,0.3,1.5,0.4,2.4,0.4c0.5,0,1.1,0,1.5-0.1c0.5-0.1,0.9-0.2,1.2-0.3c0.4-0.1,0.6-0.2,0.9-0.3c0.2-0.1,0.4-0.2,0.4-0.2
		c0,0,0.1-0.1,0.1-0.1c0,0,0-0.1,0.1-0.1c0,0,0-0.1,0-0.2c0-0.1,0-0.1,0-0.2c0-0.1,0-0.2,0-0.3c0-0.1,0-0.2-0.1-0.2
		c0-0.1-0.1-0.1-0.1-0.1c0,0-0.1,0-0.1,0c-0.1,0-0.2,0-0.4,0.1c-0.2,0.1-0.5,0.2-0.8,0.3c-0.3,0.1-0.7,0.2-1.1,0.3
		c-0.4,0.1-0.9,0.1-1.4,0.1c-0.8,0-1.4-0.1-1.9-0.3c-0.5-0.2-0.9-0.5-1.3-1c-0.3-0.4-0.6-0.9-0.7-1.5c-0.1-0.6-0.2-1.2-0.2-1.9h7.9
		c0.2,0,0.3-0.1,0.5-0.2s0.2-0.3,0.2-0.6V92.4z M125.7,98.1c0-0.1,0-0.1-0.1-0.2c0,0,0-0.1-0.1-0.1c0,0-0.1,0-0.1,0
		c-0.1,0-0.1,0-0.2,0.1c-0.1,0-0.2,0.1-0.3,0.1c-0.1,0.1-0.3,0.1-0.4,0.1c-0.2,0-0.4,0.1-0.6,0.1c-0.7,0-1.1-0.2-1.4-0.7
		c-0.3-0.5-0.4-1.1-0.4-2v-7h3.2c0.1,0,0.2-0.1,0.3-0.2c0.1-0.1,0.1-0.3,0.1-0.5c0-0.1,0-0.2,0-0.3c0-0.1,0-0.1-0.1-0.2
		c0-0.1-0.1-0.1-0.1-0.1c0,0-0.1,0-0.2,0h-3.2v-2.8c0-0.1,0-0.1,0-0.1c0,0-0.1-0.1-0.1-0.1c-0.1,0-0.1-0.1-0.2-0.1
		c-0.1,0-0.2,0-0.4,0c-0.1,0-0.3,0-0.4,0c-0.1,0-0.2,0-0.2,0.1c-0.1,0-0.1,0.1-0.1,0.1c0,0,0,0.1,0,0.1v2.8h-1.7c-0.1,0-0.1,0-0.2,0
		c0,0-0.1,0.1-0.1,0.1c0,0.1-0.1,0.1-0.1,0.2c0,0.1,0,0.2,0,0.3c0,0.2,0,0.4,0.1,0.5c0.1,0.1,0.2,0.2,0.3,0.2h1.7v7.2
		c0,0.6,0.1,1.2,0.2,1.7s0.3,0.9,0.6,1.2c0.3,0.3,0.6,0.5,1,0.7c0.4,0.2,0.9,0.2,1.5,0.2c0.2,0,0.3,0,0.5,0c0.2,0,0.3-0.1,0.5-0.1
		c0.2,0,0.3-0.1,0.4-0.1c0.1-0.1,0.2-0.1,0.3-0.2c0.1-0.1,0.1-0.2,0.1-0.3c0-0.1,0-0.3,0-0.4C125.7,98.2,125.7,98.2,125.7,98.1
		 M115.9,92c0-0.8-0.1-1.5-0.2-2.1c-0.1-0.6-0.4-1.1-0.7-1.5c-0.3-0.4-0.7-0.8-1.3-1c-0.5-0.3-1.2-0.4-1.9-0.4
		c-0.6,0-1.3,0.2-1.9,0.5s-1.3,0.9-2,1.6v-1.6c0-0.1,0-0.1,0-0.1c0,0-0.1-0.1-0.1-0.1c-0.1,0-0.1-0.1-0.2-0.1c-0.1,0-0.2,0-0.4,0
		s-0.3,0-0.4,0c-0.1,0-0.2,0-0.2,0.1c-0.1,0-0.1,0.1-0.1,0.1c0,0,0,0.1,0,0.1V99c0,0.1,0,0.1,0,0.1c0,0,0.1,0.1,0.1,0.1
		c0.1,0,0.1,0,0.2,0.1c0.1,0,0.2,0,0.4,0c0.2,0,0.3,0,0.4,0c0.1,0,0.2,0,0.2-0.1c0.1,0,0.1-0.1,0.1-0.1c0,0,0-0.1,0-0.1v-8.3
		c0.6-0.8,1.3-1.4,1.9-1.8c0.6-0.4,1.2-0.6,1.8-0.6c0.5,0,0.9,0.1,1.2,0.3c0.3,0.2,0.6,0.4,0.9,0.7c0.2,0.3,0.4,0.7,0.5,1.2
		c0.1,0.4,0.2,1,0.2,1.7V99c0,0.1,0,0.1,0,0.1c0,0,0.1,0.1,0.1,0.1c0.1,0,0.1,0,0.2,0.1c0.1,0,0.2,0,0.4,0c0.1,0,0.3,0,0.4,0
		c0.1,0,0.2,0,0.2-0.1c0.1,0,0.1-0.1,0.1-0.1c0,0,0-0.1,0-0.1V92z M102,82.8c-0.1-0.1-0.4-0.2-0.8-0.2c-0.4,0-0.6,0.1-0.8,0.2
		c-0.1,0.1-0.2,0.4-0.2,0.8c0,0.4,0.1,0.7,0.2,0.8c0.1,0.1,0.4,0.2,0.8,0.2c0.4,0,0.6-0.1,0.8-0.2c0.1-0.1,0.2-0.4,0.2-0.8
		C102.2,83.2,102.2,82.9,102,82.8 M102,87.5c0-0.1,0-0.1,0-0.1c0,0-0.1-0.1-0.1-0.1c-0.1,0-0.1-0.1-0.2-0.1c-0.1,0-0.2,0-0.4,0
		c-0.1,0-0.3,0-0.4,0c-0.1,0-0.2,0-0.2,0.1c-0.1,0-0.1,0.1-0.1,0.1c0,0,0,0.1,0,0.1V99c0,0.1,0,0.1,0,0.1c0,0,0.1,0.1,0.1,0.1
		c0.1,0,0.1,0,0.2,0.1c0.1,0,0.2,0,0.4,0c0.2,0,0.3,0,0.4,0c0.1,0,0.2,0,0.2-0.1c0.1,0,0.1-0.1,0.1-0.1c0,0,0-0.1,0-0.1V87.5z
		 M82,92.2c0-0.5,0.1-1,0.3-1.5c0.2-0.5,0.4-0.9,0.7-1.2c0.3-0.4,0.7-0.6,1.1-0.9c0.4-0.2,0.9-0.3,1.5-0.3c1.1,0,2,0.3,2.6,1
		C88.7,90,89,91,89,92.2H82z M90.6,92.4c0-0.7-0.1-1.4-0.3-2c-0.2-0.6-0.5-1.2-0.9-1.7c-0.4-0.5-0.9-0.9-1.5-1.2
		c-0.6-0.3-1.4-0.4-2.2-0.4c-0.8,0-1.5,0.1-2.2,0.4c-0.7,0.3-1.2,0.7-1.7,1.2c-0.5,0.5-0.8,1.2-1.1,2s-0.4,1.7-0.4,2.6
		c0,1,0.1,1.9,0.4,2.7c0.2,0.8,0.6,1.4,1.1,1.9c0.5,0.5,1,0.9,1.7,1.2c0.7,0.3,1.5,0.4,2.4,0.4c0.5,0,1.1,0,1.5-0.1
		c0.5-0.1,0.9-0.2,1.2-0.3c0.4-0.1,0.6-0.2,0.9-0.3c0.2-0.1,0.4-0.2,0.4-0.2c0,0,0.1-0.1,0.1-0.1c0,0,0-0.1,0.1-0.1c0,0,0-0.1,0-0.2
		c0-0.1,0-0.1,0-0.2c0-0.1,0-0.2,0-0.3c0-0.1,0-0.2-0.1-0.2c0-0.1-0.1-0.1-0.1-0.1c0,0-0.1,0-0.1,0c-0.1,0-0.2,0-0.4,0.1
		c-0.2,0.1-0.5,0.2-0.8,0.3c-0.3,0.1-0.7,0.2-1.1,0.3c-0.4,0.1-0.9,0.1-1.4,0.1c-0.8,0-1.4-0.1-1.9-0.3c-0.5-0.2-0.9-0.5-1.3-1
		c-0.3-0.4-0.6-0.9-0.7-1.5C82,94.8,82,94.2,82,93.5h7.9c0.2,0,0.3-0.1,0.5-0.2s0.2-0.3,0.2-0.6V92.4z M78.6,87.8c0-0.1,0-0.1,0-0.2
		c0,0,0-0.1,0-0.1s-0.1-0.1-0.1-0.1c-0.1,0-0.1-0.1-0.3-0.1c-0.1,0-0.3-0.1-0.4-0.1c-0.2,0-0.3-0.1-0.5-0.1c-0.1,0-0.3,0-0.4,0
		c-0.3,0-0.5,0-0.7,0.1c-0.2,0.1-0.5,0.2-0.7,0.3c-0.3,0.2-0.5,0.4-0.8,0.7s-0.6,0.7-0.9,1.2v-1.8c0-0.1,0-0.1,0-0.1
		c0,0-0.1-0.1-0.1-0.1c-0.1,0-0.1-0.1-0.2-0.1c-0.1,0-0.2,0-0.4,0c-0.1,0-0.3,0-0.4,0c-0.1,0-0.2,0-0.2,0.1c-0.1,0-0.1,0.1-0.1,0.1
		c0,0,0,0.1,0,0.1V99c0,0.1,0,0.1,0,0.1c0,0,0.1,0.1,0.1,0.1c0.1,0,0.1,0,0.2,0.1c0.1,0,0.2,0,0.4,0c0.2,0,0.3,0,0.4,0
		c0.1,0,0.2,0,0.2-0.1c0.1,0,0.1-0.1,0.1-0.1c0,0,0-0.1,0-0.1v-7.8c0.3-0.5,0.6-1,0.9-1.3c0.3-0.4,0.5-0.6,0.8-0.9
		c0.2-0.2,0.5-0.4,0.7-0.5c0.2-0.1,0.4-0.1,0.7-0.1c0.2,0,0.4,0,0.5,0.1c0.2,0,0.3,0.1,0.4,0.1s0.3,0.1,0.4,0.1
		c0.1,0,0.2,0.1,0.3,0.1c0.1,0,0.1,0,0.1,0s0.1-0.1,0.1-0.1c0-0.1,0-0.1,0-0.2c0-0.1,0-0.2,0-0.3C78.6,87.9,78.6,87.8,78.6,87.8
		 M66.2,96.3c-0.6,0.6-1.1,1.1-1.7,1.4c-0.5,0.3-1.1,0.5-1.7,0.5c-0.8,0-1.4-0.2-1.8-0.6c-0.4-0.4-0.6-0.9-0.6-1.6
		c0-0.4,0.1-0.7,0.2-1c0.1-0.3,0.4-0.6,0.7-0.8c0.3-0.2,0.7-0.4,1.2-0.5c0.5-0.1,1-0.2,1.6-0.2h2.1V96.3z M67.7,91.2
		c0-0.7-0.1-1.3-0.2-1.8c-0.1-0.5-0.4-1-0.7-1.3c-0.3-0.4-0.8-0.6-1.3-0.8c-0.5-0.2-1.2-0.3-2-0.3c-0.4,0-0.8,0-1.2,0.1
		c-0.4,0.1-0.8,0.2-1.1,0.3c-0.4,0.1-0.7,0.3-0.9,0.4c-0.3,0.1-0.5,0.3-0.6,0.4c-0.1,0.1-0.2,0.2-0.2,0.3c0,0.1,0,0.2,0,0.4
		c0,0.1,0,0.2,0,0.3c0,0.1,0,0.1,0.1,0.2c0,0,0.1,0.1,0.1,0.1c0,0,0.1,0,0.1,0c0.1,0,0.2-0.1,0.4-0.2c0.2-0.1,0.5-0.3,0.8-0.4
		c0.3-0.2,0.7-0.3,1.1-0.4c0.4-0.1,0.9-0.2,1.4-0.2c0.5,0,1,0.1,1.3,0.2c0.4,0.1,0.7,0.3,0.9,0.6c0.2,0.3,0.4,0.6,0.5,1
		c0.1,0.4,0.2,0.8,0.2,1.3v1h-1.8c-0.8,0-1.6,0.1-2.3,0.2c-0.7,0.2-1.3,0.4-1.8,0.7c-0.5,0.3-0.9,0.7-1.1,1.2
		c-0.3,0.5-0.4,1-0.4,1.7c0,0.5,0.1,1,0.3,1.4c0.2,0.4,0.4,0.8,0.8,1.1s0.7,0.5,1.2,0.7c0.5,0.2,1,0.2,1.6,0.2
		c0.7,0,1.3-0.2,1.9-0.5c0.6-0.3,1.2-0.7,1.7-1.3V99c0,0.1,0,0.2,0.1,0.2c0.1,0,0.1,0.1,0.2,0.1c0.1,0,0.2,0,0.4,0
		c0.2,0,0.3,0,0.4,0c0.1,0,0.2-0.1,0.2-0.1c0.1,0,0.1-0.1,0.1-0.2V91.2z M56.7,87.3c0,0-0.1-0.1-0.1-0.1c-0.1,0-0.1,0-0.2-0.1
		c-0.1,0-0.2,0-0.3,0c-0.2,0-0.3,0-0.4,0c-0.1,0-0.2,0-0.2,0.1c-0.1,0-0.1,0.1-0.1,0.1c0,0-0.1,0.1-0.1,0.2l-3,10.1l0,0.1l0-0.1
		l-3-10.1c0-0.1,0-0.1-0.1-0.2c0,0-0.1-0.1-0.1-0.1c-0.1,0-0.1,0-0.2-0.1c-0.1,0-0.2,0-0.4,0c-0.2,0-0.3,0-0.4,0
		c-0.1,0-0.2,0-0.2,0.1c-0.1,0-0.1,0.1-0.1,0.1c0,0-0.1,0.1-0.1,0.2l-2.8,10.1l0,0.1l0-0.1l-3.1-10.1c0-0.1,0-0.1-0.1-0.2
		c0,0-0.1-0.1-0.1-0.1c-0.1,0-0.1,0-0.2-0.1c-0.1,0-0.3,0-0.4,0c-0.1,0-0.3,0-0.3,0c-0.1,0-0.2,0-0.2,0c-0.1,0-0.1,0.1-0.1,0.1
		c0,0,0,0.1,0,0.2c0,0,0,0.1,0,0.2c0,0.1,0,0.1,0.1,0.2L43.7,99c0,0.1,0,0.1,0.1,0.2c0,0,0.1,0.1,0.2,0.1c0.1,0,0.2,0,0.3,0.1
		c0.1,0,0.3,0,0.4,0c0.2,0,0.3,0,0.4,0c0.1,0,0.2,0,0.3-0.1c0.1,0,0.2-0.1,0.2-0.1c0.1,0,0.1-0.1,0.1-0.2l2.5-9.1l0-0.1l0,0.1L51,99
		c0,0.1,0,0.1,0.1,0.2c0,0,0.1,0.1,0.2,0.1c0.1,0,0.2,0,0.3,0.1c0.1,0,0.3,0,0.5,0c0.2,0,0.3,0,0.4,0c0.1,0,0.2,0,0.3-0.1
		c0.1,0,0.1-0.1,0.2-0.1c0,0,0.1-0.1,0.1-0.2l3.6-11.3c0-0.1,0-0.1,0-0.2s0-0.1,0-0.1C56.8,87.4,56.7,87.4,56.7,87.3 M33,88.5v7.2
		c0,0.6,0.1,1.2,0.2,1.7c0.1,0.5,0.3,0.9,0.6,1.2c0.3,0.3,0.6,0.5,1,0.7c0.4,0.2,0.9,0.2,1.5,0.2c0.2,0,0.3,0,0.5,0
		c0.2,0,0.3-0.1,0.5-0.1c0.2,0,0.3-0.1,0.4-0.1c0.1-0.1,0.2-0.1,0.3-0.2c0.1-0.1,0.1-0.2,0.1-0.3c0-0.1,0-0.3,0-0.4
		c0-0.1,0-0.2,0-0.3s0-0.1-0.1-0.2c0,0,0-0.1-0.1-0.1c0,0-0.1,0-0.1,0c-0.1,0-0.1,0-0.2,0.1c-0.1,0-0.2,0.1-0.3,0.1
		c-0.1,0.1-0.3,0.1-0.4,0.1c-0.2,0-0.4,0.1-0.6,0.1c-0.7,0-1.1-0.2-1.4-0.7c-0.3-0.5-0.4-1.1-0.4-2v-7h3.2c0.1,0,0.2-0.1,0.3-0.2
		c0.1-0.1,0.1-0.3,0.1-0.5c0-0.1,0-0.2,0-0.3c0-0.1,0-0.1-0.1-0.2c0-0.1-0.1-0.1-0.1-0.1c0,0-0.1,0-0.2,0h-3.2v-2.8
		c0-0.1,0-0.1,0-0.1c0,0-0.1-0.1-0.1-0.1c-0.1,0-0.1-0.1-0.2-0.1s-0.2,0-0.4,0c-0.2,0-0.3,0-0.4,0c-0.1,0-0.2,0-0.2,0.1
		c-0.1,0-0.1,0.1-0.1,0.1c0,0,0,0.1,0,0.1v2.8h-5.6v-1.4c0-0.6,0-1,0.1-1.4c0.1-0.4,0.2-0.7,0.3-1c0.1-0.3,0.3-0.4,0.6-0.5
		c0.2-0.1,0.5-0.2,0.9-0.2c0.3,0,0.5,0,0.7,0.1c0.2,0,0.4,0.1,0.5,0.1c0.1,0.1,0.3,0.1,0.4,0.1c0.1,0,0.2,0.1,0.2,0.1
		c0,0,0.1,0,0.1,0c0,0,0.1,0,0.1-0.1c0,0,0-0.1,0.1-0.2c0-0.1,0-0.2,0-0.3c0-0.1,0-0.2,0-0.3c0-0.1,0-0.2-0.1-0.2
		c0-0.1-0.1-0.1-0.1-0.2c0,0-0.1-0.1-0.2-0.2c-0.1-0.1-0.3-0.1-0.6-0.2c-0.3-0.1-0.6-0.1-0.9-0.1c-0.6,0-1.1,0.1-1.5,0.2
		c-0.4,0.2-0.8,0.4-1.1,0.8c-0.3,0.4-0.5,0.8-0.7,1.4c-0.1,0.6-0.2,1.3-0.2,2.1v1.3h-1.7c-0.1,0-0.1,0-0.2,0c0,0-0.1,0.1-0.1,0.1
		c0,0.1-0.1,0.1-0.1,0.2c0,0.1,0,0.2,0,0.3c0,0.2,0,0.4,0.1,0.5c0.1,0.1,0.2,0.2,0.3,0.2h1.7V99c0,0.1,0,0.1,0,0.1
		c0,0,0.1,0.1,0.1,0.1c0.1,0,0.1,0,0.2,0.1c0.1,0,0.2,0,0.4,0c0.1,0,0.3,0,0.4,0c0.1,0,0.2,0,0.2-0.1c0.1,0,0.1-0.1,0.1-0.1
		c0,0,0-0.1,0-0.1V88.5H33z M19.8,95.2c-0.2,0.6-0.4,1.1-0.7,1.5c-0.3,0.4-0.7,0.8-1.2,1c-0.5,0.2-1.1,0.4-1.8,0.4
		c-0.7,0-1.4-0.1-1.9-0.4c-0.5-0.3-0.9-0.6-1.2-1.1c-0.3-0.5-0.5-1-0.6-1.6s-0.2-1.2-0.2-1.9c0-0.7,0.1-1.3,0.2-1.9
		c0.2-0.6,0.4-1.1,0.7-1.6c0.3-0.4,0.7-0.8,1.2-1c0.5-0.2,1.1-0.4,1.8-0.4c0.7,0,1.4,0.1,1.9,0.4c0.5,0.3,0.9,0.6,1.2,1.1
		s0.5,1,0.6,1.6c0.1,0.6,0.2,1.2,0.2,1.9C20.1,94,20,94.6,19.8,95.2 M21.3,90.6c-0.2-0.8-0.6-1.4-1-1.9c-0.5-0.5-1-0.9-1.7-1.2
		c-0.7-0.3-1.5-0.4-2.4-0.4c-0.9,0-1.8,0.2-2.5,0.5c-0.7,0.3-1.3,0.8-1.8,1.3c-0.5,0.6-0.8,1.2-1.1,2c-0.2,0.8-0.4,1.6-0.4,2.5
		c0,1,0.1,1.8,0.3,2.6c0.2,0.8,0.6,1.4,1,1.9c0.5,0.5,1,0.9,1.7,1.2c0.7,0.3,1.5,0.4,2.4,0.4c0.9,0,1.8-0.2,2.5-0.5
		c0.7-0.3,1.3-0.8,1.8-1.3c0.5-0.6,0.8-1.2,1.1-2c0.2-0.8,0.4-1.6,0.4-2.5C21.7,92.2,21.5,91.3,21.3,90.6 M7.6,94.7
		c-0.2-0.3-0.4-0.6-0.7-0.9c-0.3-0.2-0.6-0.5-1-0.6c-0.4-0.2-0.7-0.3-1.1-0.5c-0.4-0.1-0.7-0.3-1.1-0.4c-0.4-0.1-0.7-0.3-1-0.5
		c-0.3-0.2-0.5-0.4-0.7-0.7c-0.2-0.3-0.3-0.6-0.3-0.9c0-0.3,0-0.5,0.1-0.8c0.1-0.2,0.2-0.4,0.4-0.6c0.2-0.2,0.4-0.3,0.7-0.4
		c0.3-0.1,0.7-0.1,1.1-0.1c0.4,0,0.8,0,1.1,0.1c0.3,0.1,0.6,0.2,0.8,0.3C6.3,88.8,6.5,89,6.7,89c0.1,0.1,0.2,0.1,0.3,0.1
		c0.1,0,0.1,0,0.1,0s0.1-0.1,0.1-0.1c0-0.1,0-0.1,0.1-0.2c0-0.1,0-0.2,0-0.3c0-0.1,0-0.2,0-0.3c0-0.1,0-0.1,0-0.2
		c0-0.1,0-0.1-0.1-0.1c0,0-0.1-0.1-0.2-0.2c-0.1-0.1-0.2-0.1-0.4-0.2c-0.2-0.1-0.4-0.2-0.6-0.2c-0.2-0.1-0.5-0.1-0.8-0.2
		C4.9,87,4.6,87,4.3,87c-0.7,0-1.3,0.1-1.8,0.3c-0.5,0.2-0.9,0.4-1.2,0.7c-0.3,0.3-0.6,0.7-0.7,1c-0.2,0.4-0.2,0.8-0.2,1.2
		c0,0.5,0.1,0.9,0.3,1.3c0.2,0.4,0.4,0.7,0.7,0.9c0.3,0.3,0.6,0.5,0.9,0.7c0.4,0.2,0.7,0.3,1.1,0.5c0.4,0.1,0.7,0.3,1.1,0.4
		c0.4,0.1,0.7,0.3,0.9,0.5c0.3,0.2,0.5,0.4,0.7,0.6c0.2,0.2,0.3,0.5,0.3,0.9c0,0.4-0.1,0.7-0.2,0.9c-0.1,0.3-0.3,0.5-0.6,0.7
		c-0.2,0.2-0.5,0.3-0.8,0.4c-0.3,0.1-0.7,0.1-1.1,0.1c-0.5,0-0.9-0.1-1.3-0.2c-0.4-0.1-0.7-0.2-1-0.4c-0.3-0.1-0.5-0.3-0.7-0.4
		c-0.2-0.1-0.3-0.2-0.4-0.2c-0.1,0-0.1,0-0.1,0c0,0-0.1,0.1-0.1,0.1c0,0.1,0,0.1-0.1,0.2c0,0.1,0,0.2,0,0.3c0,0.2,0,0.4,0.1,0.5
		c0,0.1,0.1,0.2,0.2,0.3c0.1,0.1,0.2,0.2,0.4,0.3c0.2,0.1,0.4,0.2,0.7,0.3c0.3,0.1,0.6,0.2,1,0.2c0.4,0.1,0.7,0.1,1.1,0.1
		c0.6,0,1.2-0.1,1.8-0.2c0.5-0.2,1-0.4,1.4-0.7c0.4-0.3,0.7-0.7,0.9-1.1C7.7,97,7.8,96.5,7.8,96C7.8,95.5,7.8,95.1,7.6,94.7"/>
</g>
</svg>
