<?xml version="1.0" encoding="UTF-8" standalone="no"?><!DOCTYPE svg PUBLIC "-//W3C//DTD SVG 1.1//EN" "http://www.w3.org/Graphics/SVG/1.1/DTD/svg11.dtd"><svg width="100%" height="100%" viewBox="0 0 52084 34725" version="1.1" xmlns="http://www.w3.org/2000/svg" xmlns:xlink="http://www.w3.org/1999/xlink" xml:space="preserve" xmlns:serif="http://www.serif.com/" style="fill-rule:evenodd;clip-rule:evenodd;stroke-linejoin:round;stroke-miterlimit:2;"><g><path d="M1955.9,32126.5c0,0 -3602.15,-5449.75 320.916,-11861.5c3923.06,-6411.91 9192.09,-3187.41 8937.07,-10650.2c-254.958,-7462.76 10889.3,-8186.55 14827.7,-6022.65c2795.84,1536.23 5359.36,1357.05 8294.63,1177.86c1199.22,-73.203 2460.38,-146.406 3824.7,-102.629c7629.04,244.804 9764.57,7772.45 7649.6,11435.8c-3001.11,5197.69 9401.47,5808.99 2262.2,16023.3l-46116.9,0l-0.01,-0.005Z" style="fill:#8fc1ed;fill-opacity:0.53;fill-rule:nonzero;"/><path d="M13503.2,23707.4c-395.939,0.198 -205.319,-416.797 -15.056,-962.403c245.981,-705.576 1339.23,-1199.23 1547.1,-1541.13c86.396,-142.138 43.56,-208.598 -77.616,-208.598c-170.445,-0 -495.905,131.156 -835.128,367.002c-580.4,403.467 -527.604,1189.62 -1454.62,1859.52c-178.128,128.606 -389.704,180.56 -615.218,180.56c-948.207,0 -2143.79,-918.682 -2143.79,-918.682c801.463,-187.618 1797.61,-1275.1 1707.17,-1536.23c-9.707,-28.038 -39.015,-40.779 -83.907,-40.779c-373.279,-0 -1827.48,869.475 -2114.66,953.773c-37.444,10.982 -81.672,17.056 -131.095,17.056c-375.274,-0 -1052.12,-346.808 -1365.48,-1496.04c-354.609,-1300.59 1744.85,-2061.06 1744.85,-2061.06c0,0 2123.89,1053.37 2733.64,1053.37c43.579,-0 79.357,-5.487 106.139,-17.057c401.505,-172.716 -1882.81,-1440.84 -1882.81,-1440.84c683.584,-495.434 3051.83,-690.928 3051.83,-690.928c-0,-0 1099.99,2114.32 1511.53,2114.32c23.253,-0 44.228,-6.667 62.757,-20.976c346.592,-266.236 -1193.64,-2033.87 -1193.64,-2033.87c155.172,-37.834 321.362,-53.206 488.847,-53.206c722.849,0 1470.73,286.112 1470.73,286.112c1600.34,852.476 423.248,2863.34 423.248,2863.34c-0,-0 443.089,808.506 1469.01,1432.13c0,0 209.573,103.321 490.315,323.48l-191.344,112.142c-45.678,-42.153 -91.949,-81.559 -138.995,-118.024l-0.786,-0.588l-2.155,-1.567c-30.391,-21.959 -73.913,-52.933 -127.435,-90.376l-0.193,-0l-0.197,-0.198c-125.473,-80.185 -214.673,-141.352 -275.45,-187.816l-0.39,-0.39c-385.433,-256.041 -911.427,-575.404 -1137.47,-575.404l-0.588,0c-0,0 3.529,-42.148 -10.587,-111.747c3.331,35.684 6.865,72.737 10.587,111.747c84.302,893.392 -1483.67,1970.68 -2505.2,2318.66c-231.499,79.009 -397.944,114.688 -513.945,114.688Z" style="fill:#d9e5fc;fill-rule:nonzero;"/><path d="M43036.5,29948.8c1304.12,-1266.47 -611.275,-3590.23 -611.275,-3590.23c0,-0 -3660.61,-269.37 -4008.21,-745.372c-347.593,-476.007 3174.61,-380.925 3174.61,-380.925c-453.652,-1044.15 -3068.94,-2896.22 -3068.94,-2896.22c-0,-0 -3044.63,1897.16 -3264.2,1349.99c-219.768,-546.975 2781.34,-1542.12 2781.34,-1542.12c-819.483,-799.68 -2434.72,-1074.34 -2434.72,-1074.34c-2442.96,-108.61 -2456.1,3033.85 -2456.1,3033.85c0,-0 -1069.24,634.608 -2688.41,654.605c0,0 -314.262,-23.921 -791.05,39.011l145.075,261.531c81.949,-17.451 162.723,-31.567 242.315,-41.565l1.374,-0.193l3.529,-0.395c50.19,-4.508 122.137,-10.587 209.963,-17.25l0.198,-0.197l0.395,-0c200.75,-6.667 346.219,-16.859 448.557,-29.017l0.978,-0.193c623.631,-32.743 1454.48,-42.544 1716.01,113.117c-0,-0 24.697,-51.559 89.003,-122.527c-28.424,39.01 -57.831,79.79 -89.003,122.527c-710.87,979.261 370.136,3305.96 1317.44,4411.09c947.106,1104.93 997.296,366.414 1195.89,-621.472c198.403,-987.885 -732.042,-2311.21 -738.71,-2850.93c-6.662,-539.719 554.033,-56.264 951.031,810.463c396.997,866.733 -203.889,1743.26 412.877,3156.97c616.574,1413.7 3709.63,1036.31 3709.63,1036.31c-801.839,-767.727 -1212.17,-2713.9 -927.895,-2955.04c284.267,-241.14 1617.2,2238.28 1925.98,2568.82c308.579,330.345 1448.21,576.382 2752.32,-690.284Z" style="fill:#dfebfd;fill-rule:nonzero;"/><path d="M15422.4,16532.1c-1313.37,-759.549 -3489.76,-1369.47 -3758.95,-1700.13c-2.705,-3.312 -5.331,-6.606 -7.9,-9.862c-141.587,-179.798 -5.627,-433.147 205.889,-433.147c19.253,-0 39.151,2.098 59.501,6.544c1835.54,401.157 3501.46,2136.59 3501.46,2136.59Z" style="fill:#d8e8fd;fill-rule:nonzero;"/><path d="M15952.8,16988.5c-1896.06,-494.945 -4815.45,-507.296 -5264.18,-826.621c-168.247,-119.765 -224.3,-235.451 -228.61,-333.299c-6.648,-150.255 113.136,-277.153 263.056,-289.348c140.741,-11.467 282.074,-16.84 424.288,-16.84c2341.88,-0 4805.43,1466.11 4805.43,1466.11l0.019,0Z" style="fill:#d8e8fd;fill-rule:nonzero;"/><path d="M35476.1,20808c0,0 395.426,-2472.95 1727.57,-3905.09c57.055,-61.341 129.002,-88.556 199.579,-88.556c148.405,0 291.325,120.198 280.545,296.035c-0.198,4.333 -0.588,8.704 -0.781,13.118c-34.112,442.576 -1534.08,2255.49 -2206.92,3684.49Z" style="fill:#dbe7fb;fill-rule:nonzero;"/><path d="M35684.1,21084.5c-50.971,-10.196 -79.202,-14.901 -79.202,-14.901c-29.407,-1.374 -58.424,-2.155 -87.243,-2.55c477.771,-895.937 1691.31,-2912.49 3389.28,-3896.3c47.447,-27.431 99.787,-40.7 151.741,-40.7c96.456,0 190.757,45.97 245.064,132.154c54.307,86.279 75.085,218.498 2.155,420.778c-176.641,490.004 -2248.09,1973.31 -3621.8,3401.52Z" style="fill:#dbe7fb;fill-rule:nonzero;"/><path d="M35293,21513.2c0,-0 77.438,-169.781 224.672,-446.209c28.819,0.395 57.836,1.176 87.243,2.55c-0,-0 28.231,4.705 79.202,14.901c-138.412,143.898 -269.568,287.015 -391.117,428.758Z" style="fill:#d2e1fd;fill-rule:nonzero;"/><path d="M26525.7,17692.6c-30.974,0 -62.348,-6.978 -91.948,-21.625l-834.38,-416.171c-99.006,-49.028 -143.314,-165.146 -102.535,-265.997l374.649,-948.616c32.936,-81.423 11.96,-173.879 -51.955,-234.929c-136.642,-130.078 -263.879,-274.052 -382.684,-429.835c-64.108,-83.808 -123.901,-169.343 -179.775,-256.647c-39.994,-62.127 -108.807,-99.081 -181.737,-99.081c-7.255,-0 -14.313,0.352 -21.564,1.077l-970.053,106.473c-8.229,0.885 -16.072,1.318 -24.109,1.318c-102.732,-0 -192.521,-71.618 -213.887,-174.642l-173.705,-882.612l-4.112,-21.037c-20.392,-107.607 42.346,-213.12 146.25,-245.468l716.949,-224.121c11.96,-3.708 23.13,-8.276 33.722,-13.687c73.518,-38.719 120.762,-117.474 113.902,-201.969c-33.327,-498.295 32.348,-996.943 194.478,-1468.93c6.47,-19.649 9.999,-39.683 11.175,-59.29c3.138,-74.769 -34.112,-148.151 -98.413,-190.243l-527.961,-337.713c-69.204,-44.991 -105.476,-125.844 -97.237,-204.496c3.331,-23.897 9.603,-48.858 21.169,-72.384l409.348,-822.381c37.449,-75.895 115.084,-121.158 196.05,-121.158c27.055,-0 54.505,5.016 80.971,15.607l775.368,307.185c25.295,9.942 51.564,14.784 77.833,14.784c52.933,0 104.882,-19.879 145.074,-57.699c87.633,-80.162 177.817,-156.917 273.29,-229.885c179.581,-136.901 367.007,-254.511 560.506,-353.828l0.781,-0.63c80.774,-41.561 127.237,-126.489 117.432,-216.71l-91.944,-841.951l-4.117,-42.342c-12.741,-108.082 60.97,-209.831 169.386,-230.948l902.016,-177.911c14.116,-2.668 28.038,-3.943 41.759,-3.943c94.691,0 181.736,60.678 210.946,154.155l249.576,797.854c27.638,88.791 108.999,149.901 200.75,150.88c388.373,10.432 773.41,79.734 1140.41,208.123c22.937,7.707 46.265,11.434 69.401,11.434c71.556,-0 140.373,-35.82 180.951,-99.279l401.702,-625.104c42.154,-65.105 112.336,-100.784 184.287,-100.784c33.129,-0 66.851,7.566 98.221,23.29l825.952,410.483c97.435,48.835 141.348,164.111 101.161,264.312l-359.751,911.86c-30.777,77.146 -14.506,165.175 40.779,227.339c68.813,76.106 134.883,155.642 198.205,238.608c119.393,156.625 224.474,318.916 315.246,485.337c36.662,68.714 107.235,111.635 183.698,111.635c8.234,-0 16.468,-0.513 24.895,-1.529l1011.81,-111.494c7.646,-0.804 15.292,-1.2 22.74,-1.2c102.337,0 191.345,71.5 211.539,173.291l178.994,905.329c18.228,95.91 -31.177,192.559 -117.243,234.162c-9.015,4.117 -18.816,8.878 -29.012,11.311l-885.158,277.449c-82.34,25.366 -142.138,96.357 -150.565,181.812c-0.979,7.472 -1.962,14.92 -1.567,22.589c-0,22.797 0.193,44.088 -2.16,67.322c-5.486,266.684 -40.582,533.174 -102.925,793.699c-22.345,86.655 15.489,178.325 92.536,226.709l659.899,424.602c93.905,59.718 126.846,181.892 76.849,281.548l-90.574,183.049l-318.379,637.864c-37.054,75.495 -113.122,119.587 -193.11,119.587c-26.273,-0 -53.328,-4.842 -79.201,-14.939l-763.808,-302.598c-24.895,-10.06 -50.778,-14.883 -76.261,-14.883c-58.226,0 -115.276,25.055 -156.056,70.225c-153.698,170.778 -327.201,331.28 -517.76,476.595c-141.352,107.823 -289.763,204.872 -440.916,289.367l19.607,176.598l78.811,724.712c10.587,89.577 -38.032,174.957 -116.843,212.203c-16.275,8.469 -33.722,13.725 -52.345,17.254l-907.903,180.97c-13.522,2.55 -26.857,3.783 -39.993,3.783c-92.73,-0 -177.027,-60.537 -206.049,-150.857l-169.776,-545.526c-27.445,-88.395 -111.352,-149.995 -203.3,-149.995c-3.727,-0 -7.646,0.117 -11.373,0.315c-70.577,3.919 -140.957,5.881 -211.534,5.881c-328.576,0 -655.194,-42.605 -970.83,-127.02c-19.018,-5.077 -38.234,-7.547 -57.05,-7.547c-71.363,-0 -138.411,35.345 -176.25,96.987l-507.372,790.17c-39.405,60.56 -105.668,94.494 -173.893,94.494Zm1880.3,-6598.8c-497.18,0 -999.065,183.148 -1397.83,563.876c-179.582,171.832 -337.2,383.094 -464.635,635.662c-27.642,53.248 -51.949,116.043 -74.694,182.894c-93.713,289.744 -127.825,668.038 -75.475,928.074c227.216,1118.71 1113.16,1721.05 2014.98,1721.05c701.068,-0 1411.94,-364.49 1829.12,-1133.85c15.297,-29.092 30.588,-58.188 45.292,-88.104c138.407,-278.404 201.734,-759.177 143.112,-1064.09c-30.776,-159.895 -75.282,-309.463 -130.37,-448.284c-340.339,-846.242 -1109.24,-1297.23 -1889.51,-1297.23Z" style="fill:#d9e7fa;fill-rule:nonzero;"/><path d="M40215.2,11839.4c34.113,86.227 61.756,179.112 80.967,278.391c36.272,189.363 -2.941,487.906 -89.003,660.801c-9.02,18.586 -18.628,36.639 -28.038,54.717c-592.455,1092.18 -2136.34,870.256 -2387.28,-364.65c-32.54,-161.486 -11.17,-396.391 46.859,-576.34c14.116,-41.509 29.21,-80.5 46.459,-113.573c79.206,-156.841 177.031,-288.035 288.586,-394.744c635.982,-607.436 1695.23,-404.977 2041.45,455.398Zm-3857.64,1699.19c-0,0 602.458,-66.126 602.458,-66.126c50.185,-5.039 99.001,18.505 126.253,60.852c34.701,54.208 71.952,107.334 111.555,159.387c73.904,96.728 152.913,186.15 237.803,266.938c39.604,37.895 52.736,95.321 32.151,145.864l-232.51,589.105c-25.488,62.616 2.155,134.741 63.519,165.17l518.151,258.449c58.815,29.135 129.397,9.392 165.076,-45.268l315.245,-490.687c29.601,-48.388 88.222,-70.676 144.684,-55.526c238.199,63.657 486.203,89.008 734.395,75.227c59.798,-3.275 115.474,35.839 133.316,92.945l105.273,338.772c20.59,64.107 86.072,104.045 152.923,91.317l563.635,-112.373c11.768,-2.197 22.547,-5.467 32.739,-10.704c48.816,-23.154 79.009,-76.144 72.346,-131.782l-48.816,-450.049l-12.158,-109.667c93.91,-52.463 186.051,-112.731 273.685,-179.7c118.415,-90.24 226.045,-189.891 321.522,-295.954c36.658,-40.366 93.708,-54.853 144.289,-34.367l474.435,187.91c64.893,25.253 138.412,-2.588 168.995,-64.992l197.81,-396.113l56.269,-113.668c30.978,-61.872 10.586,-137.743 -47.64,-174.834l-409.937,-263.686c-47.837,-30.038 -71.363,-86.966 -57.441,-140.765c38.62,-161.796 60.579,-327.3 63.911,-492.902c1.373,-14.431 1.373,-27.643 1.373,-41.801c-0.395,-4.762 0.391,-9.387 0.979,-14.017c5.293,-53.088 42.347,-97.161 93.515,-112.924l549.718,-172.284c6.277,-1.51 12.356,-4.47 17.842,-7.02c53.521,-25.84 84.297,-85.869 72.93,-145.408l-111.16,-562.229c-13.527,-67.872 -76.261,-114.039 -145.667,-106.863l-628.138,69.241c-53.324,6.531 -104.295,-21.093 -129.585,-68.361c-56.462,-103.359 -121.548,-204.148 -195.852,-301.403c-39.208,-51.522 -80.185,-100.907 -122.922,-148.175c-34.503,-38.601 -44.502,-93.261 -25.291,-141.174l223.298,-566.266c24.9,-62.206 -2.353,-133.8 -62.734,-164.13l-513.06,-254.925c-61.948,-30.955 -137.231,-10.897 -175.262,48.134l-249.571,388.194c-33.332,52.11 -97.242,74.182 -155.468,54.561c-228.003,-79.733 -466.987,-122.767 -708.126,-129.274c-57.05,-0.588 -107.631,-38.545 -124.687,-93.675l-155.073,-495.472c-20.782,-66.498 -88.617,-106.275 -156.841,-93.28l-560.305,110.473c-67.246,13.118 -113.121,76.322 -105.08,143.432l2.545,26.306l57.05,522.842c6.079,56.034 -22.74,108.75 -72.93,134.568l-0.39,0.395c-120.179,61.675 -236.627,134.704 -347.989,219.731c-59.398,45.306 -115.469,92.983 -169.776,142.759c-37.246,35.072 -90.965,45.287 -138.605,26.645l-481.295,-190.756c-65.877,-26.312 -140.981,2.724 -172.133,65.538l-254.079,510.707c-7.255,14.586 -11.175,30.094 -13.137,44.934c-5.312,48.835 17.254,99.044 60.189,126.997l327.987,209.714c39.994,26.137 62.931,71.716 60.974,118.142c-0.588,12.172 -2.748,24.622 -6.865,36.836c-100.766,293.071 -141.545,602.75 -120.763,912.171c4.315,52.467 -25.092,101.377 -70.774,125.434c-6.489,3.35 -13.528,6.174 -21,8.488l-445.202,139.193c-64.522,20.096 -103.513,85.596 -90.772,152.428l2.551,13.081l107.823,548.09c14.313,68.911 78.026,115.215 147.822,107.63Z" style="fill:#aec3ff;fill-rule:nonzero;"/><path d="M35285.3,8082.69c37.053,55.107 70.577,115.883 99.006,182.443c54.302,126.959 72.342,341.806 38.422,475.865c-3.529,14.389 -7.448,28.485 -11.367,42.563c-248.005,854.382 -1362.14,934.289 -1725.62,108.473c-47.442,-108.021 -68.423,-275.624 -55.093,-410.389c3.529,-31.171 8.234,-60.772 15.292,-86.532c31.369,-121.789 79.988,-228.478 141.748,-320.13c352.491,-521.877 1124.53,-541.564 1497.61,7.707Zm-2440.21,1776.41c0,-0 411.504,-138.04 411.504,-138.04c34.31,-11.175 71.951,-2.117 97.637,23.37c32.343,32.64 66.653,64.146 102.332,94.494c66.268,56.462 135.278,106.986 206.83,150.565c33.726,20.468 51.564,58.659 44.896,97.143l-73.123,447.597c-8.234,47.677 22.152,93.943 69.792,105.885l401.896,101.885c45.485,11.448 91.948,-13.132 108.614,-56.796l145.667,-391.309c13.329,-38.366 50.971,-62.913 92.922,-60.913c176.25,8.272 353.672,-11.763 525.213,-59.228c41.368,-11.387 86.264,7.49 107.438,44.741l125.27,220.982c24.118,41.702 76.068,59.699 120.767,40.625l377.396,-164.507c7.839,-3.312 14.897,-7.232 21.173,-12.45c30.777,-23.638 43.716,-65.34 30.584,-103.236l-102.733,-307.444l-25.092,-74.868c57.638,-51.033 112.924,-107.203 164.092,-167.448c69.011,-81.14 129.199,-167.287 179.775,-256.017c19.606,-33.82 57.248,-52.641 95.868,-46.016l360.316,59.228c49.404,7.764 96.677,-22.918 108.633,-71.24l77.809,-307.247l22.175,-88.104c12.135,-48.016 -13.527,-98.009 -59.991,-115.065l-327.008,-122.061c-38.032,-13.72 -63.125,-49.988 -61.581,-89.751c2.376,-119.097 -7.43,-238.194 -30.363,-354.59c-1.176,-10.314 -3.138,-19.545 -5.293,-29.469c-0.983,-3.27 -1.374,-6.624 -1.571,-9.956c-4.508,-37.937 14.901,-74.402 48.227,-93.242l358.378,-204.26c4.117,-2.023 8.018,-5.021 11.373,-7.646c33.524,-26.212 45.851,-72.892 29.012,-112.83l-163.505,-376.45c-19.799,-45.405 -70.601,-68.182 -118.019,-52.599l-429.153,144.152c-36.267,12.666 -76.068,1.12 -100.963,-28.109c-55.286,-63.736 -116.255,-124.315 -182.913,-181.049c-35.289,-30.076 -71.561,-58.387 -108.609,-84.952c-29.996,-21.761 -45.485,-58.48 -39.208,-94.908l69.984,-430.206c7.844,-47.33 -21.954,-93.299 -69.006,-105.278l-397.783,-100.22c-47.838,-12.253 -97.632,13.273 -115.277,60.362l-115.474,309.6c-15.291,41.565 -56.654,66.733 -100.375,61.872c-171.738,-21.074 -345.434,-14.76 -515.215,17.41c-39.993,8.271 -81.164,-10.564 -101.551,-46.544l-183.896,-323.047c-24.702,-43.362 -78.224,-60.875 -123.901,-41.386l-375.237,162.643c-45.094,19.428 -67.439,70.596 -51.756,116.354l5.881,18.016l119.591,357.121c12.742,38.272 0.588,79.56 -30.588,105.241l-0.193,0.371c-74.695,61.44 -145.074,130.277 -209.968,206.731c-34.7,40.761 -66.658,82.637 -97.044,125.731c-20.782,30.231 -56.852,45.56 -92.927,39.754l-365.826,-60.146c-50.19,-8.371 -98.22,23.389 -110.373,72.069l-100.182,396.033c-2.744,11.297 -3.139,22.745 -2.353,33.43c3.919,34.974 27.252,66.677 61.558,79.673l261.531,96.789c31.76,12.215 54.895,40.582 60.579,73.359c1.369,8.629 1.764,17.667 0.781,26.824c-25.874,220.399 -7.058,443.263 54.505,656.623c10.977,36.051 -2.155,74.732 -30.391,98.517c-4.117,3.35 -8.625,6.389 -13.33,9.133l-290.346,165.188c-42.153,23.902 -59.402,75.678 -40.384,120.476l3.722,8.78l158.996,367.04c20.586,46.035 72.145,68.756 119.784,52.82Z" style="fill:#f99746;fill-rule:nonzero;"/><path d="M3335.03,32090.4l1773.67,-0c95.063,-80.576 -65.774,-263.687 -233.786,-275.84c-72.991,-5.689 -165.292,9.603 -270.725,31.953c-24.41,-324.261 -163.796,-1781.49 -689.108,-1723.07c-590.657,65.675 0,641.864 166.972,982.988c123.689,252.704 254.177,615.199 313.796,786.152c-47.955,10.389 -97.594,20.585 -148.311,29.797c-78.284,-240.353 -369.59,-1048.86 -740.022,-1001.8c-434.936,55.286 -260.097,379.353 48.166,571.87c226.163,141.55 503.885,342.695 635.846,439.739c-111.809,18.232 -228.497,30.583 -346.888,27.836c-303.817,-7.251 -452.109,82.34 -509.611,130.375Z" style="fill:#a8d29f;fill-rule:nonzero;"/><path d="M46832.6,32047.5l-2005.77,-0c-107.438,-91.163 74.496,-298.19 264.467,-312.112c82.538,-6.272 186.833,10.982 306.033,36.272c27.643,-366.612 185.266,-2014.59 779.292,-1948.33c667.935,74.106 -0,725.578 -188.795,1111.4c-139.978,285.838 -287.405,695.578 -354.849,888.88c54.11,11.762 110.374,23.332 167.622,33.919c88.612,-271.92 417.973,-1186.29 836.93,-1132.96c491.689,62.343 294.072,428.955 -54.5,646.568c-255.843,159.976 -569.719,387.39 -719.108,497.373c126.456,20.585 258.393,34.503 392.292,31.369c343.674,-8.041 511.296,93.12 576.387,147.625Z" style="fill:#a8d29f;fill-rule:nonzero;"/><path d="M24580.5,19814.9l-970.241,11535.3c-0,0 -101.557,699.112 418.561,700.481c855.162,1.962 4256.4,-0 4256.4,-0c-0,-0 -643.624,-145.663 -635.785,-473.062c9.213,-386.02 1133.94,-11871.9 1133.94,-11871.9l-4202.88,109.197l-0,0.038Z" style="fill:#d8702a;fill-rule:nonzero;"/><path d="M28605.6,31846c-168.209,0.395 -3461.23,6.079 -4294.04,-4.705c-362.885,-4.508 -426.602,-322.694 -429.543,-528.545c-1.572,-98.808 10.977,-171.738 10.977,-171.738l25.29,-299.954l64.306,-764l56.852,-675.19l72.93,-867.514l61.558,-732.24l689.305,-8196.57l4202.88,-109c-0,-0 -473.65,4806.69 -808.699,8305.59c-37.444,389.742 -73.123,763.609 -106.059,1112.57c-10.587,111.357 -20.783,220.362 -30.782,326.421c-31.171,330.932 -59.595,635.003 -84.297,903.39c-12.944,141.55 -24.9,272.899 -35.882,393.276c-42.737,471.885 -67.829,773.213 -68.027,830.46c-0.197,33.524 2.55,64.499 8.037,93.515c69.01,367.591 602.067,384.252 665.191,384.252l0,-0.019Z" style="fill:#f99746;fill-rule:nonzero;"/><path d="M14373.5,13537.8l2363.13,9492.05l323.48,1300l1100.61,4421.08l20447.6,-0l-4056.63,-15213.1l-20178.2,0l-0.005,-0.033Z" style="fill:#f99746;fill-rule:nonzero;"/><path d="M14373.5,13537.8l-327.498,109.179l3679.32,15434.3l435.42,-330.34l-3787.24,-15213.1l0,0.018Z" style="fill:#d8702a;fill-rule:nonzero;"/><path d="M17725.3,29081.2l20321.8,0l561.287,-330.34l-20447.6,0l-435.42,330.34l-0.004,0Z" style="fill:#ed7d2b;fill-rule:nonzero;"/><rect x="24861.8" y="31846" width="4399.91" height="208.989" style="fill:#f99746;"/><path d="M28143.3,29081.1l-22.741,159.975l-4137.99,835.952l56.852,-675.191l27.055,-320.736l4076.82,-0Z" style="fill:#e27329;fill-rule:nonzero;"/><path d="M28605.6,31846l-3552.39,-0c-315.048,-1.176 -576.575,-2.546 -741.646,-4.705c-362.885,-4.508 -426.602,-322.694 -429.543,-528.545l4118.38,-774.977c-42.737,471.885 -67.829,773.213 -68.027,830.46l0,3.134c0,32.348 2.743,62.343 8.037,90.381c69.01,367.591 602.067,384.252 665.191,384.252Z" style="fill:#f38a38;fill-rule:nonzero;"/><path d="M26588.1,31847.7c-535.998,-0 -1088.66,-0.391 -1534.87,-1.765l3552.39,0c-87.634,0.198 -1023.57,1.765 -2017.53,1.765Z" style="fill:#f38a38;fill-rule:nonzero;"/><path d="M14373.5,13537.8l20178.3,0l3274,12226.5l-20408.4,-0l-3043.82,-12226.5l-0.005,0Z" style="fill:#ed7d2b;fill-rule:nonzero;"/><path d="M36873.9,25234.6l-18893,0l-675.19,-2689.59l-261.137,-1040.62l-106.454,-424.447l-694.011,-2763.89l-35.876,-143.902l-366.805,-1460.91l-164.093,-653.688l-139.959,-557.618l-328.185,-1307.19l18620.6,-0l360.34,1307.19l153.703,557.618l180.166,653.688l1187.27,4306.55l-0,0.197l100.573,364.843l46.854,169.386l819.681,2973.27l195.456,709.105l0.048,0Z" style="fill:#505aba;fill-rule:nonzero;"/><path d="M25083.6,25764.3l-6915.97,3022.28l-750.28,-3022.28l7666.26,-0l-0.005,-0Z" style="fill:#ed7d2b;fill-rule:nonzero;"/><path d="M25928.7,15989.3c-1277.45,-0 -2144.38,1039.27 -1932.64,2316.76c211.925,1277.45 1423.5,2316.7 2700.95,2316.7c1277.45,0 2144.38,-1039.25 1932.45,-2316.7c-211.732,-1277.49 -1423.31,-2316.76 -2700.76,-2316.76Zm848.495,5116.15c-1543.68,0 -3007.77,-1255.89 -3263.81,-2799.37c-255.838,-1543.63 791.643,-2799.41 2335.13,-2799.41c1543.68,0 3007.77,1255.79 3263.62,2799.41c256.04,1543.49 -791.446,2799.37 -2334.93,2799.37Z" style="fill:#e6f0ff;fill-rule:nonzero;"/><path d="M26778.2,21111.7c-1547.21,0 -3014.43,-1258.63 -3271.06,-2805.64c-256.628,-1547.14 793.408,-2805.8 2340.43,-2805.8c840.459,-0 1691.11,372.116 2334.35,1020.94c496.196,500.704 828.889,1134.57 936.717,1784.86c22.744,136.84 -69.797,247.609 -206.637,247.609c-136.84,-0 -266.034,-110.769 -288.779,-247.609c-88.81,-535.489 -362.688,-1057.37 -771.251,-1469.52c-529.527,-534.369 -1230.21,-840.854 -1922.25,-840.854c-1273.92,0 -2138.49,1036.41 -1927.15,2310.37c211.337,1273.92 1419.58,2310.23 2693.51,2310.23c136.845,-0 266.039,110.961 288.779,247.801c22.74,136.845 -69.791,247.609 -206.636,247.609Z" style="fill:#f99746;fill-rule:nonzero;"/><path d="M32089.6,23261.2l44.308,267.606c24.307,146.052 -75.48,265.643 -221.538,265.643l-9378.56,0c-146.053,0 -285.25,-119.591 -309.562,-265.643l-44.308,-267.606c-24.307,-146.058 75.287,-265.649 221.34,-265.649l9378.74,0c146.058,0 285.251,119.591 309.562,265.649l0.01,-0Z" style="fill:#e6f0ff;fill-rule:nonzero;"/><path d="M29059.6,22995.5l132.53,798.898l-6658.36,-0c-146.053,-0 -285.25,-119.591 -309.562,-265.644l-44.308,-267.606c-24.307,-146.057 75.287,-265.648 221.34,-265.648l6658.36,-0Z" style="fill:#f99746;fill-rule:nonzero;"/><path d="M27677.9,22995.5l-604.222,798.898l-1378.41,-0l604.218,-798.898l1378.42,-0Z" style="fill:#f78248;fill-rule:nonzero;"/><path d="M29059.6,22995.5l132.53,798.898l-1277.65,-0l604.42,-798.898l540.698,-0Z" style="fill:#f78248;fill-rule:nonzero;"/><path d="M25458.4,22995.5l-604.222,798.898l-1378.41,-0l604.218,-798.898l1378.42,-0Z" style="fill:#f78248;fill-rule:nonzero;"/><path d="M23239.2,22995.5l-604.222,798.898l-101.161,-0c-146.053,-0 -285.25,-119.591 -309.562,-265.644l-44.308,-267.606c-24.307,-146.057 75.287,-265.648 221.34,-265.648l837.913,-0Z" style="fill:#f78248;fill-rule:nonzero;"/><path d="M25269.6,17934.7l-522.668,-0l-26.466,-160.409l730.476,0l22.937,138.116l-319.753,901.433l-204.872,-0l320.346,-879.14Z" style="fill:#e6f0ff;fill-rule:nonzero;"/><path d="M26382.2,18294.1c-34.117,-204.967 -167.231,-372.785 -327.597,-372.785c-160.37,-0 -235.85,163.367 -201.145,372.785c34.107,204.872 165.857,372.709 327.596,372.709c161.938,0 235.649,-164.897 201.146,-372.709Zm-717.344,-0c-49.206,-297.051 92.146,-537.602 365.238,-537.602c271.723,-0 490.908,237.587 540.703,537.602c49.211,297.031 -92.141,537.564 -365.238,537.564c-273.29,-0 -490.903,-237.611 -540.703,-537.564Z" style="fill:#e6f0ff;fill-rule:nonzero;"/><path d="M27756.7,18560c-13.725,-83.126 -72.54,-151.544 -139.391,-151.544c-69.796,0 -99.989,68.418 -86.264,151.544c14.115,84.712 72.737,151.351 139.39,151.351c69.792,-0 100.183,-68.225 86.265,-151.351Zm-357.79,-0c-23.921,-144.096 55.483,-265.841 202.519,-265.841c145.465,-0 263.292,120.179 287.603,265.841c23.719,144.095 -55.483,265.841 -202.519,265.841c-145.47,0 -263.489,-120.372 -287.603,-265.841Zm107.24,-785.644l147.036,0l-587.952,1039.55l-146.838,0l587.754,-1039.55Zm-465.618,253.942c-13.918,-83.163 -72.732,-151.449 -139.583,-151.449c-69.796,-0 -99.985,68.286 -86.264,151.449c14.115,84.712 72.732,151.563 139.588,151.563c69.796,-0 99.984,-68.418 86.259,-151.563Zm-357.982,0c-23.917,-144.039 55.478,-265.804 202.514,-265.804c145.47,0 263.494,120.278 287.608,265.804c23.916,144.115 -55.483,265.861 -202.519,265.861c-145.47,-0 -263.489,-120.373 -287.603,-265.861Z" style="fill:#e6f0ff;fill-rule:nonzero;"/><path d="M26050.1,22364.3l56.269,0l44.699,269.173l168.402,0l8.432,51.366l-224.672,0l-53.13,-320.539Z" style="fill:#e6f0ff;fill-rule:nonzero;"/><path d="M26544.5,22564.4c-7.058,-42.737 -43.523,-77.828 -87.046,-77.828c-44.308,-0 -67.048,34.7 -59.797,77.828c7.057,41.956 43.522,77.635 86.654,77.635c44.699,0 67.242,-35.091 60.189,-77.635Zm-202.322,-0c-11.372,-69.204 34.112,-126.451 108.219,-126.451c74.101,-0 138.016,56.269 149.581,126.451c11.373,68.62 -34.107,125.863 -108.609,125.863c-73.716,-0 -137.626,-56.462 -149.191,-125.863Z" style="fill:#e6f0ff;fill-rule:nonzero;"/><path d="M26808.6,22583.7c-15.099,-5.491 -35.486,-9.608 -56.857,-9.608c-34.893,0 -53.13,14.116 -49.009,38.427c3.722,22.74 26.467,35.679 52.538,35.679c36.663,0 60.584,-20.585 55.681,-50.778l-2.353,-13.72Zm15.485,101.161l-4.898,-29.803c-13.334,19.607 -35.877,34.701 -72.539,34.701c-45.876,-0 -90.377,-26.071 -98.611,-75.475c-8.822,-53.522 28.621,-79.207 84.886,-79.207c29.214,-0 48.623,4.117 68.422,10.196l-0.786,-4.705c-5.486,-33.327 -29.6,-51.757 -68.027,-51.757c-27.055,0 -46.073,6.079 -66.658,15.094l-22.349,-44.304c24.509,-11.96 49.211,-20.194 88.616,-20.194c71.364,-0 112.336,37.641 123.12,102.139l23.719,143.315l-54.895,-0Z" style="fill:#e6f0ff;fill-rule:nonzero;"/><path d="M27107.7,22563.5c-7.646,-46.661 -45.677,-77.438 -82.731,-77.438c-38.036,0 -64.695,29.408 -56.659,78.417c7.843,46.661 44.897,77.244 82.34,77.244c37.053,0 64.894,-31.172 57.05,-78.223Zm-195.264,-0c-13.33,-80.185 33.524,-125.473 91.163,-125.473c39.993,0 68.422,20.195 89.591,42.544l-21.564,-129.98l55.29,0l55.479,334.264l-55.479,0l-6.672,-40.389c-13.72,25.29 -35.481,45.287 -74.887,45.287c-56.66,0 -119.591,-45.287 -132.921,-126.253Z" style="fill:#e6f0ff;fill-rule:nonzero;"/><path d="M27214.6,22443.1l55.484,-0l39.993,241.727l-55.285,0l-40.192,-241.727Zm-17.056,-89.793l59.408,-0l8.817,52.74l-59.596,-0l-8.629,-52.74Z" style="fill:#e6f0ff;fill-rule:nonzero;"/><path d="M27342.4,22443.1l55.285,-0l6.277,37.444c11.758,-22.741 30.974,-42.545 68.418,-42.545c54.499,0 92.141,36.663 101.358,92.927l25.681,153.901l-55.483,0l-22.74,-137.433c-6.272,-37.443 -28.627,-59.007 -61.558,-59.007c-31.957,0 -50.778,22.35 -44.506,59.991l22.745,136.449l-55.484,0l-39.993,-241.727Z" style="fill:#e6f0ff;fill-rule:nonzero;"/><path d="M27827.3,22551.5c-6.667,-39.797 -43.72,-66.851 -82.147,-66.851c-38.423,-0 -64.301,26.664 -57.441,67.246c6.667,39.994 41.758,66.851 79.79,66.851c38.427,-0 66.268,-27.445 59.798,-67.246Zm-153.901,178.603l13.527,-41.758c28.429,16.072 57.446,25.68 90.382,25.68c49.404,0 72.144,-25.68 64.108,-74.106l-3.139,-18.821c-15.88,26.076 -37.839,44.309 -77.833,44.309c-56.654,-0 -116.645,-41.956 -128.606,-113.907c-11.955,-71.359 34.701,-113.512 90.97,-113.512c40.775,-0 69.006,18.82 91.553,41.17l-6.079,-36.07l55.483,0l31.76,192.126c6.86,40.779 1.369,70.968 -15.49,91.162c-18.43,21.959 -50.382,32.546 -93.905,32.546c-39.801,-0 -78.619,-10.196 -112.731,-28.819Z" style="fill:#e6f0ff;fill-rule:nonzero;"/><path d="M13137.9,20547.1c-0,0 47.287,-515.407 -528.644,-515.407c0,-0 174.524,47.244 264.802,141.935c-0,0 -367.336,-215.651 -767.077,115.672c-399.741,331.318 -151.37,1162.37 -272.937,1320.19c-121.548,157.821 -594.93,189.383 -537.075,699.695c57.855,510.119 1502.39,1149.24 1409.63,1571.33c-0,-0 566.105,-832.225 161.307,-1211.97c-0,-0 197.301,185.853 217.416,406.803c-0,-0 53.521,-431.308 -220.926,-569.324c-242.885,-122.142 -441.834,-568.543 -420.778,-648.333c21.037,-79.791 694.284,-1310.59 694.284,-1310.59Z" style="fill:#2c3a64;fill-rule:nonzero;"/><path d="M12571,23022c0,-0 430.249,1779.92 852.617,2135.75c253.881,213.887 1008.73,704.795 1008.73,704.795l-313.989,113.902c-0,0 -1046.98,-353.672 -1281.37,-629.117c-234.397,-275.647 -876.181,-1656.61 -876.181,-1656.61l610.198,-668.72Z" style="fill:#ffb27d;fill-rule:nonzero;"/><path d="M15041.7,26513l-101.142,-250.357c-108.412,-268.387 -368.96,-444.242 -658.525,-444.242l-1865.26,-0l0,6236.5l7715.94,0l-0,-5052.96l-4366.39,0c-318.577,0 -605.319,-193.5 -724.632,-488.941l0.005,0.005Z" style="fill:#6376e5;fill-rule:nonzero;"/><path d="M8527.17,26149.2c3.764,6.667 7.806,13.922 11.843,20.782c94.141,163.702 310.131,564.817 548.033,1003.57c112.534,208.203 230.36,424.833 342.126,628.727c192.578,352.101 367.784,665.384 470.003,831.048c103.966,168.403 180.504,286.817 211.46,334.067l0.254,0.39c9.311,14.506 11.334,31.562 10.078,48.816c-10.822,148.41 -7.806,296.034 6.804,441.306c143.488,1427.62 1106.16,2192.6 1106.16,2192.6l286.229,42.346c-0,0 -405.058,-1500.75 -524.39,-2349.05c-20.134,-143.705 -28.956,-260.355 -21.922,-336.419c21.174,-220.949 -18.11,-545.407 -92.376,-918.094c-132.154,-662.058 -374.587,-1474.68 -585.303,-2125.16c-13.348,-41.561 -415.875,-1497.61 -415.875,-1497.61c-337.83,295.248 -1570.13,417.192 -1570.13,417.192c0,-0 -208.932,507.959 217.002,1265.49Z" style="fill:#2f539b;fill-rule:nonzero;"/><path d="M12120.9,32054.9l-1194.62,-0c-0,-0 -28.622,-182.127 33.759,-320.148c59.794,-132.526 145.018,-136.841 10.883,-344.456c75.928,78.026 319.928,110.374 492.649,87.243c21.155,34.306 136.431,264.468 207.103,315.246c78.068,56.067 426.193,36.07 450.227,262.115Z" style="fill:#233862;fill-rule:nonzero;"/><path d="M8527.17,26149.2c3.764,6.667 7.806,13.922 11.843,20.782c94.141,163.702 603.338,1104.15 841.226,1543.1c-275.647,-1134.14 -83.912,-2268.28 -83.912,-2268.28l-769.157,704.4Z" style="fill:#233862;fill-rule:nonzero;"/><path d="M12975.1,20474.6c7.806,-31.369 -682.304,311.91 -717.301,350.727c-323.654,358.966 -231.376,827.52 -46.167,832.032c118.763,2.941 95.75,200.36 95.75,200.36l1323.19,-559.716c0,-0 -159.312,-929.076 -655.471,-823.403Z" style="fill:#2c3a64;fill-rule:nonzero;"/><path d="M12530.4,22754.6c-0,0 201.362,402.291 176.227,728.712c-0,-0 -242.805,383.273 -872.511,480.316c0,0 541.409,-1209.23 696.284,-1209.03Z" style="fill:#aec3ff;fill-rule:nonzero;"/><path d="M9458.46,24972.5l4.056,-223.298c-445.165,56.067 -1534.92,-532.078 -1534.92,-532.078c-0,0 -465.712,309.76 -529.467,1194.52c-31.13,431.699 -227.984,2257.7 -249.745,2802.91c-7.961,197.617 -10.587,338.574 -11.49,395.036l0.061,0.588c-0.273,17.056 -8.333,32.348 -18.92,45.875c-92.122,117.041 -172.03,241.14 -241.219,369.746c-679.265,1263.92 -324.044,2981.11 -324.044,2981.11l157.736,-39.994c-0,-0 574.363,-1780.31 949.74,-2550.39c63.713,-130.569 121.605,-232.12 170.012,-290.934c141.155,-171.546 289.974,-462.677 436.676,-813.014c277.313,-662.449 1191.53,-3340.07 1191.53,-3340.07Z" style="fill:#2f539b;fill-rule:nonzero;"/><path d="M7502.72,32054.9l-1194.62,-0c0,-0 -28.626,-182.127 33.779,-320.148c59.793,-132.526 153.425,-192.714 130.996,-353.08c75.913,78.025 199.64,165.659 372.338,142.331c21.173,34.305 136.605,218.004 207.281,268.782c78.068,56.067 426.188,36.07 450.227,262.115Z" style="fill:#233862;fill-rule:nonzero;"/><path d="M11753.5,24220.1c-160.484,27.45 26.194,155.077 -194.497,178.994c-314.131,34.31 -638.452,57.835 -808.346,125.472c-61.953,24.702 -103.396,55.286 -116.335,94.296c-73.655,221.34 -540.035,601.87 -540.035,601.87c-2080.17,-94.692 -2214.15,-1021.81 -2214.15,-1021.81c1350.07,-1311.17 2498.59,-2025.76 3447.82,-2114.18c231.042,-21.564 542.424,7.255 688.52,72.342c332.005,147.822 513.939,597.555 513.939,597.555c0,-0 -167.23,1361.56 -776.92,1465.46Z" style="fill:#aec3ff;fill-rule:nonzero;"/><path d="M11559,24399.1c-314.131,34.31 -638.453,57.836 -808.346,125.473c-491.12,-978.673 420.151,-1817.76 420.151,-1817.76c0,0 319.382,1299.8 388.195,1692.29Z" style="fill:#94b0ed;fill-rule:nonzero;"/><path d="M11830,22531.1c-0,0 -789.94,-43.132 -930.29,452.872c-140.369,495.806 263.334,2475.5 350.318,2679.78c158.39,372.098 957.048,1479.96 957.048,1479.96l255.979,-132.723c0,0 -514.132,-1621.71 -628.919,-1782.28c-180.189,-251.919 232.298,-2481.77 -4.136,-2697.62Z" style="fill:#ffb27d;fill-rule:nonzero;"/><path d="M12463,27011c-0,0 66.07,57.441 119.2,122.335c53.15,65.086 6.409,88.419 158.992,382.491c0,0 -7.801,40.775 -40.953,33.327c-33.129,-7.448 -148.288,-121.548 -207.361,-113.314c-0,-0 -42.206,34.7 -46.836,149.977c-4.333,107.823 -4.644,346.219 -23.408,390.918c-18.759,44.897 -155.858,-187.816 -223.316,-355.827c-59.148,-147.234 -1.51,-644.409 -1.51,-644.409l265.192,34.502Z" style="fill:#ffb27d;fill-rule:nonzero;"/><path d="M10743.9,23647.2c2.061,11.57 747.532,137.038 1213.8,-99.589c-0,-0 389.53,-1220.21 -167.109,-1161.78c-556.662,58.226 -886.278,233.691 -900.294,500.121c-14.036,266.429 -146.392,761.252 -146.392,761.252Z" style="fill:#aec3ff;fill-rule:nonzero;"/><path d="M11998.7,22242.5c8.116,98.808 20.702,214.475 149.939,347.594c99.02,101.942 242.099,181.341 342.611,80.966c51.267,-51.169 120.452,-127.627 155.487,-187.816c86.847,-149.389 190.304,-301.911 190.304,-301.911l-447.088,-391.704l-26.683,-23.333c-117.117,204.481 -232.275,302.701 -333.064,377.984c-30.466,22.74 -34.607,60.381 -31.506,98.22Z" style="fill:#ffb27d;fill-rule:nonzero;"/><path d="M12837,22181.6c-0,0 -103.358,152.33 -190.249,301.718c-277.877,-171.343 -278.192,-515.407 -256.784,-693.615l447.033,391.897Z" style="fill:#ed985f;fill-rule:nonzero;"/><path d="M12849.4,22377.8c0,0 -674.757,-375.434 -434.465,-792.038c240.279,-416.599 315.034,-745.57 755.983,-523.449c440.972,222.126 432.249,428.956 385.865,587.364c-46.369,158.602 -525.688,815.169 -707.383,728.123Z" style="fill:#ffb27d;fill-rule:nonzero;"/><path d="M13670.7,21406.8c-30.894,-184.875 -124.861,-202.717 -190.38,-190.366c-249.176,-412.092 -656.29,-251.138 -656.29,-251.138c-217.439,272.899 -531.819,319.363 -531.819,319.363c-0,-0 78.317,145.667 400.917,235.846c98.554,27.642 210.4,10.981 318.261,-25.291c-223.824,124.687 -457.887,172.524 -457.887,172.524c425.13,38.818 829.637,-349.748 871.593,-391.313c19.602,60.188 54.011,186.249 33.426,278.39c-27.996,125.472 -139.217,352.298 -71.326,381.706c0,-0 329.851,-252.314 283.505,-529.721Z" style="fill:#2c3a64;fill-rule:nonzero;"/><path d="M14555.8,25863.3c0,0 -188.286,141.353 -46.365,233.494c141.899,92.339 395.229,117.238 396.292,56.857c3.487,-203.305 -97.928,-347.989 -349.927,-290.351Z" style="fill:#ffb27d;fill-rule:nonzero;"/><path d="M14438.3,30198.5l3986.88,-0c164.286,-0 290.934,-251.331 293.089,-429.148c6.47,-558.54 -593.043,-1450.95 -1951.86,-1055.92c0,0 -383.47,-1034.94 -1730.75,-909.271c-791.111,73.715 -1232.02,880.848 -1285.07,1600.34c-31.666,429.544 289.522,793.996 687.715,793.996Z" style="fill:#aec3ff;fill-rule:nonzero;"/><rect x="15847.4" y="29354.9" width="772.036" height="1774.04" style="fill:#f99746;"/><path d="M17191.6,29713.2l-1916.59,-0l958.299,-900.647l958.286,900.647Z" style="fill:#f99746;fill-rule:nonzero;"/><path d="M34272.2,21410.1l-1007.49,231.532l-500.511,904.567l-374.258,-2065.95l1882.26,929.856Z" style="fill:#233862;fill-rule:nonzero;"/><path d="M33851,22293.1l-147.037,110.765l-640.884,-850.651l147.036,-110.768l640.885,850.654Z" style="fill:#233862;fill-rule:nonzero;"/><path d="M18570.9,16234.1c-33.129,38.032 -37.449,80.534 -20.976,125.924l0.391,0.626c30.385,83.945 130.568,177.695 247.218,271.29c14.901,12.041 28.231,22.957 39.796,33.092c2.941,2.649 5.882,5.316 8.822,7.998c2.353,2.061 4.508,4.216 6.86,6.178c108.614,100.201 67.835,123.158 263.099,326.496c222.709,231.696 376.022,235.869 419.54,214.776c36.86,-17.997 -38.032,-140.882 -121.153,-279.002c-3.924,-6.643 -7.844,-13.405 -11.961,-20.133c-11.174,-18.369 -22.152,-37.011 -33.133,-55.46c-97.237,-166.228 -72.342,-244.216 -49.207,-491.609c18.623,-201.009 312.695,-1123.06 312.695,-1123.06l-426.795,-73.5c-0,0 -128.413,734.203 -269.959,847.282c-75.87,60.268 -160.563,61.03 -233.295,105.71c-5.101,3.096 -10.196,6.277 -15.099,9.547c-41.363,27.426 -83.517,55.719 -116.843,93.849Z" style="fill:#ffb27d;fill-rule:nonzero;"/><path d="M18570.9,16234.1c-33.129,38.032 -37.449,80.534 -20.976,125.924l0.391,0.626c37.053,83.87 134.878,177.131 247.608,270.448c14.704,12.215 27.841,23.446 39.406,33.934c2.941,2.649 5.882,5.316 8.822,7.998c2.353,2.061 4.508,4.216 6.86,6.178c108.614,100.201 67.835,123.158 263.099,326.496c222.709,231.696 376.022,235.869 419.54,214.776c36.86,-17.997 -38.032,-140.882 -121.153,-279.002c-43.325,-15.875 -244.668,-97.669 -396.805,-292.482c-129.194,-164.897 -217.025,-375.038 -304.852,-504.04c-9.805,-1.821 -15.489,-2.884 -25.097,-4.705c-41.363,27.426 -83.517,55.719 -116.843,93.849Z" style="fill:#233862;fill-rule:nonzero;"/><path d="M22011.9,15967.5c26.273,131.726 214.089,109.748 423.859,58.499c209.77,-51.267 159.976,9.669 458.358,-23.389c298.585,-33.049 389.159,-144.368 398.174,-188.752c8.234,-39.387 -139.39,-53.286 -297.601,-71.519c-19.8,-2.216 -39.796,-4.686 -59.793,-7.156c-178.796,-22.406 -309.557,-137.683 -471.89,-232.355c-153.699,-89.694 -383.075,-455.069 -383.075,-455.069l-409.349,32.447c-0,0 214.87,326.34 297.992,468.22c48.816,83.46 46.266,193.815 40.191,279.02c-3.138,46.327 -6.276,93.671 3.134,140.054Z" style="fill:#ffb27d;fill-rule:nonzero;"/><path d="M22435.8,16026c209.77,-51.267 159.975,9.669 458.357,-23.389c298.585,-33.049 389.159,-144.369 398.174,-188.752c8.234,-39.387 -139.39,-53.286 -297.601,-71.519l-1.374,3.04c0,-0 -179.182,126.959 -427.576,132.921c-202.713,4.921 -417.193,-53.112 -556.974,-50.854c-3.138,46.327 -6.276,93.67 3.134,140.054c26.274,131.725 214.089,109.748 423.86,58.499Z" style="fill:#233862;fill-rule:nonzero;"/><path d="M20442.7,13349.5l-382.685,1029.94l-499.725,1344.81c-0,0 -135.669,13.095 -265.451,-24.274c-119.591,-34.54 -256.827,-124.959 -256.827,-124.959c0,-0 138.807,-1443.93 397.591,-2272.83c66.46,-212.748 140.759,-384.844 222.709,-481.709c401.312,-474.224 784.388,529.015 784.388,529.015Z" style="fill:#94b0ed;fill-rule:nonzero;"/><path d="M20053.6,11713.8c-217.811,-70.286 -786.349,-1.078 -1402.92,110.51c-170.369,30.842 -342.107,-46.972 -431.896,-195.01l-1551.72,-121.177c-0,0 -512.077,1135.55 -231.729,1859.11c41.17,106.337 131.546,172.717 271.134,174.957c0,-0 937.701,1.289 1237.65,1.289c771.646,-0 1633.27,-530.464 1744.63,-552.757c182.522,-36.484 255.452,328.34 437.777,711.419c182.523,383.08 1714.84,1696.46 1714.84,1696.46c0,-0 235.451,2.334 332.693,-34.131c104.689,-39.227 142.914,-90.203 142.914,-90.203c0,0 -1697.78,-3378.05 -2263.37,-3560.47Z" style="fill:#aec3ff;fill-rule:nonzero;"/><path d="M18053.9,7072.45c-115.079,-68.597 -227.415,-79.085 -296.425,-77.123c-47.833,1.37 -95.67,-1.726 -143.117,-8.685c-592.262,-86.853 -948.87,773.41 -969.653,1033.35c-38.427,477.225 -290.934,549.976 -646.173,848.852c-712.578,599.278 -503.65,1295.62 -114.101,1554.37c233.884,155.252 645.783,-0.019 645.783,-0.019c5.877,4.08 1126.89,-626.67 1679.54,-930.934c828.301,-117.77 177.032,-2221.68 -155.858,-2419.81Z" style="fill:#233862;fill-rule:nonzero;"/><path d="M17746.5,9233.29c2.55,1.571 -271.916,95.222 -455.219,13.997c-172.525,-76.261 -303.29,-360.161 -300.74,-360.316c78.421,-3.628 164.68,-72.243 230.943,-522.55l33.524,11.979l562.074,202.228c-0,-0 -40.78,180.344 -67.049,352.021c-22.349,144.157 -34.112,282.253 -3.533,302.641Z" style="fill:#ffb27d;fill-rule:nonzero;"/><path d="M17817,8578.62c0,-0 -22.547,97.298 -55.285,279.072c-322.699,-58.109 -461.303,-306.776 -506.788,-481.3l562.073,202.228Z" style="fill:#ed975d;fill-rule:nonzero;"/><path d="M17900.7,8757.6c-0,0 -769.1,-103.217 -697.347,-581.068c71.556,-477.865 20.585,-813.009 514.627,-767.331c493.849,45.701 561.678,242.315 576.579,407.621c14.897,165.312 -192.13,955.308 -393.859,940.778Z" style="fill:#ffb27d;fill-rule:nonzero;"/><path d="M18266.6,7554.87c0,-0 -492.08,424.188 -826.932,458.395c-334.847,34.192 -461.693,-73.278 -461.693,-73.278c-0,-0 197.424,-163.839 316.229,-428.273c34.893,-77.908 109.004,-131.448 194.088,-138.798c238.979,-20.627 692.241,-30.056 778.308,181.954Z" style="fill:#233862;fill-rule:nonzero;"/><path d="M17959,7516.9c-0,-0 164.685,159.208 216.437,277.308c50.19,113.963 65.091,386.51 25.29,494.766c0,-0 256.629,-498.883 111.357,-741.255c-154.094,-257.02 -353.084,-30.819 -353.084,-30.819Z" style="fill:#233862;fill-rule:nonzero;"/><path d="M18394,10366c-23.333,1556.51 -6.47,1231.25 -176.641,1378.95c-40.973,35.561 -156.447,56.758 -308.188,66.775c-477.183,31.704 -1316.27,-46.953 -1348.23,-135.155c-109.983,-305.186 -32.348,-400.019 -124.098,-867.26c-9.603,-49.677 -21.564,-103.471 -35.505,-162.05c-76.436,-320.916 -150.937,-430.094 120.593,-945.662c246.433,-467.024 502.469,-846.062 525.406,-832.38c650.098,385.88 702.443,61.539 702.443,61.539c-0,-0 655.588,676.032 644.216,1435.25Z" style="fill:#f99746;fill-rule:nonzero;"/><path d="M20060,14379.4l-499.725,1344.81c-0,0 -135.669,13.095 -265.451,-24.274c-119.591,-34.54 -256.827,-124.959 -256.827,-124.959c0,-0 138.807,-1443.93 397.591,-2272.83l624.412,1077.25Z" style="fill:#aec3ff;fill-rule:nonzero;"/><path d="M17750,8930.61c-0,-0 668.72,113.394 747.334,401.387c78.614,287.998 337.007,2036 337.007,2036c0,0 -188.597,184.188 -345.631,27.092c-157.035,-157.072 -494.437,-1635.47 -494.437,-1635.47l-244.273,-829.011Z" style="fill:#f99746;fill-rule:nonzero;"/><path d="M17909.2,11811.7c-477.183,31.703 -1316.27,-46.953 -1348.23,-135.156c-109.983,-305.185 -32.348,-400.018 -124.099,-867.259l230.162,-648.211c0,0 -38.036,721.828 174.877,911.7c212.513,189.872 871.433,366.513 974.946,525.133c49.993,76.13 82.731,152.49 92.339,213.793Z" style="fill:#ed7d2b;fill-rule:nonzero;"/><path d="M17362.4,11508.1c-0,0 470.906,-104.845 546.777,-63.068c76.068,41.796 261.724,193.97 284.86,246.922c23.328,52.952 -168.996,-40.191 -231.734,-56.97c-40.385,-10.883 -147.229,26.189 -199.965,43.796c-222.121,74.068 -358.377,35.976 -358.377,35.976l-41.561,-206.656Z" style="fill:#ffb27d;fill-rule:nonzero;"/><path d="M17047,8868.83c0,-0 -632.256,38.954 -851.045,344.22c-308.188,429.717 -919.308,2261.06 -568.934,2505.3c394.452,275.059 1795.22,71.97 1795.22,71.97c0,0 46.661,-217.905 -18.232,-323.301c-64.894,-105.414 -1118.85,-275.666 -1167.47,-324.326c-48.642,-48.638 607.948,-948.598 607.948,-1094.53c0,-145.959 202.515,-1179.33 202.515,-1179.33Z" style="fill:#f99746;fill-rule:nonzero;"/><path d="M17931.9,11576.1c0,-0 98.809,127.256 131.156,142.448c32.348,15.193 53.131,11.41 53.131,11.41l-66.46,-119.666l-117.827,-34.192Z" style="fill:#ffb27d;fill-rule:nonzero;"/><path d="M17909.2,11445l286.817,139.292c0,-0 -12.153,19.978 -47.442,18.369c-35.289,-1.628 -124.489,-34.188 -124.489,-34.188l-114.886,-123.473Z" style="fill:#ffb27d;fill-rule:nonzero;"/><path d="M20358.6,11772.5l-2996.21,0l0,66.126l2969.54,0l26.668,-66.126Z" style="fill:#233862;fill-rule:nonzero;"/><path d="M18063.1,11838.6l2268.87,-0l682.643,-1697.35l-2265.53,0l-685.974,1697.35Z" style="fill:#233862;fill-rule:nonzero;"/><path d="M19759.3,10990c17.057,-59.656 -17.446,-108.021 -77.042,-108.021c-59.798,0 -121.943,48.365 -139,108.021c-17.253,59.68 17.249,108.045 77.047,108.045c59.601,-0 121.746,-48.365 138.995,-108.045Z" style="fill:#fff;fill-rule:nonzero;"/><path d="M41920.6,18747c-0,-0 1099.64,1118.65 1155.7,1583.09c56.269,464.442 -569.912,1189.43 -569.912,1189.43l-585.792,-2772.51Z" style="fill:#ed7d2b;fill-rule:nonzero;"/><path d="M41292.2,31419.5c0,0 -41.956,654.413 -168.6,663.625c-16.863,1.177 -642.254,-0.197 -642.254,-0.197l-798.507,-6.272c-0,-0 5.683,-192.521 239.182,-232.515c233.488,-40.187 624.407,-203.498 766.545,-511.686c149.389,-324.068 603.634,87.045 603.634,87.045Z" style="fill:#0e2644;fill-rule:nonzero;"/><path d="M43070.8,31423.5c-0,-0 -42.149,654.407 -168.793,663.62c-16.863,1.176 -642.254,-0.193 -642.254,-0.193l-798.503,-6.47c0,0 5.684,-192.323 239.177,-232.514c233.489,-40.192 624.413,-203.301 766.546,-511.489c149.389,-324.067 603.827,87.046 603.827,87.046Z" style="fill:#0e2644;fill-rule:nonzero;"/><path d="M40423.3,24382.6c-0,0 205.85,1336.07 979.656,3708.64c773.998,2372.58 877.898,3399.48 877.898,3399.48l835.758,-21.564c0,0 12.742,-2591.17 -343.674,-3784.12c-356.416,-1193.15 -68.225,-4298.36 -68.225,-4298.36l-2281.41,995.927Z" style="fill:#163560;fill-rule:nonzero;"/><path d="M40018.7,23454.1c0,0 -33.915,2012.43 308.776,4484.41c342.888,2471.97 222.714,3520.64 222.714,3520.64l833.787,29.605c-0,-0 503.847,-2470.99 363.671,-3708.25c-140.171,-1237.26 691.658,-4242.68 691.658,-4242.68l-2420.61,-83.71Z" style="fill:#1c468a;fill-rule:nonzero;"/><path d="M41643.4,18747.6c0,-0 -445.033,290.524 -445.033,290.524l-641.863,-121.139c9.02,-51.756 51.959,-266.646 90.969,-461.124c2.353,-11.565 4.706,-22.938 6.861,-34.112c33.524,-165.66 62.348,-307.798 62.348,-307.798l600.298,-263.371l223.885,-98.178c-0.588,3.487 -17.644,183.756 -20.19,210.062c-42.939,467.321 122.725,785.136 122.725,785.136Z" style="fill:#ffb27d;fill-rule:nonzero;"/><path d="M40721.7,18598.6c12.351,-5.077 773.801,-228.002 856.339,-200.557c82.533,27.45 131.156,187.425 131.156,187.425l-1245.1,278.781c0,-0 98.413,-198.991 257.608,-265.649Z" style="fill:#ed7d2b;fill-rule:nonzero;"/><path d="M42759.5,23708.4c-130.178,588.145 -2276.91,653.236 -2828.98,118.024c-62.931,-60.974 -65.284,-344.262 -40.779,-726.166c48.035,-745.96 199.578,-1867.95 206.636,-2441.39c3.529,-276.818 42.154,-559.913 93.318,-817.126c109.004,-547.76 274.47,-977.496 274.47,-977.496c0,-0 1049.05,-336.814 1245.1,-278.588c944.555,279.585 1180.4,4534.79 1050.23,5122.74Z" style="fill:#f99746;fill-rule:nonzero;"/><path d="M39889.7,23100.2c48.035,-745.96 199.578,-1867.95 206.636,-2441.39c3.529,-276.818 42.154,-559.913 93.317,-817.126l630.882,-109.79c0,0 695.583,2672.73 -930.835,3368.31Z" style="fill:#ed7d2b;fill-rule:nonzero;"/><path d="M40233.6,22061c-0,-0 42.737,102.925 -47.64,171.738c-90.579,68.813 -149.394,180.368 -128.804,262.12c20.585,81.752 218.202,215.454 287.015,194.088c68.615,-21.371 208.594,-128.611 193.692,-171.739c-15.094,-43.132 94.696,-377.984 -72.341,-507.178c-167.034,-129.392 -231.922,50.971 -231.922,50.971Z" style="fill:#ffb27d;fill-rule:nonzero;"/><path d="M40928.8,18749.1c-0,0 -598.143,78.812 -1089.83,800.075c-491.496,721.065 -815.168,1257.45 -725.38,1517.8c89.591,260.548 910.646,1165.12 1052.39,1165.51c141.935,0.193 371.114,-102.337 384.449,-334.462c-0,0 -520.113,-923.58 -405.627,-1053.37c48.816,-55.478 696.17,-571.088 795.957,-312.893c165.269,426.993 -11.96,-1782.67 -11.96,-1782.67Z" style="fill:#f99746;fill-rule:nonzero;"/><path d="M41475.7,17970.6c-132.332,222.926 -623.433,414.661 -828.305,485.238c2.352,-11.565 4.705,-22.937 6.86,-34.112c33.524,-165.659 62.348,-307.798 62.348,-307.798l600.298,-263.371c132.526,-1.51 213.299,28.33 158.799,120.043Z" style="fill:#fca56b;fill-rule:nonzero;"/><path d="M40490.6,18077c0,0 965.536,303.422 1145.31,-300.678c179.775,-604.203 425.426,-971.949 -183.501,-1191.27c-608.923,-219.322 -797.722,-24.566 -906.722,162.502c-109.197,187.068 -301.718,1234.92 -55.088,1329.44Z" style="fill:#ffb27d;fill-rule:nonzero;"/><path d="M40583.7,16689.3c0,0 59.987,703.68 205.654,673.45c145.464,-30.212 277.406,-52.562 255.645,159.462c-21.761,212.029 -223.89,456.48 224.281,494.964c448.359,38.483 1095.52,-1116.49 972.786,-1335.7c-354.058,-632.509 -2170.45,-763.943 -1658.37,7.82Z" style="fill:#163560;fill-rule:nonzero;"/><path d="M52023.3,32198l-51963.3,-0c-33.035,-0 -60.052,-27.055 -60.052,-60.189l-0,-22.937c-0,-32.936 27.017,-59.991 60.052,-59.991l51963.3,0c32.932,0 59.986,27.055 59.986,59.991l0,22.937c0,33.134 -27.054,60.189 -59.986,60.189Z" style="fill:#2e3552;fill-rule:nonzero;"/></g></svg>