<?xml version="1.0" encoding="UTF-8" standalone="no"?><!DOCTYPE svg PUBLIC "-//W3C//DTD SVG 1.1//EN" "http://www.w3.org/Graphics/SVG/1.1/DTD/svg11.dtd"><svg width="100%" height="100%" viewBox="0 0 55559 34725" version="1.1" xmlns="http://www.w3.org/2000/svg" xmlns:xlink="http://www.w3.org/1999/xlink" xml:space="preserve" xmlns:serif="http://www.serif.com/" style="fill-rule:evenodd;clip-rule:evenodd;stroke-linejoin:round;stroke-miterlimit:2;"><g><path d="M8478.91,14513.5c-5875.28,-341.961 -10587,-6557.78 -7460.61,-10165.1c2424.69,-2797.76 5657.68,1274.52 8673.02,-777.162c4638.99,-3156.43 12154.7,-3730.33 13149.4,248.692c994.763,3979.02 -2300.42,10196.2 -4756.19,10569.3c-2455.84,373.028 -9605.62,124.341 -9605.62,124.341l-0.043,-0.038Z" style="fill:#8fc1ed;fill-opacity:0.64;fill-rule:nonzero;"/><path d="M9240.52,6089.19c62.178,1492.15 46.623,2300.38 -497.384,2922.1c-543.982,621.72 -2067.2,466.273 -2067.2,466.273c-0,0 -150.252,2196.77 -2279.63,2290.02c-2129.4,93.245 -2435.07,-2735.56 -766.797,-3460.91c1588.09,-690.468 2093.12,-891.138 2642.3,-2600.87c501.716,-1561.91 2067.24,-1264.16 2440.27,-611.355c373.028,652.806 528.451,994.743 528.451,994.743Z" style="fill:#303c60;fill-rule:nonzero;"/><path d="M8541.06,13705.3c0,0 1005.11,196.875 1056.92,186.514c51.817,-10.365 1150.19,-497.384 1264.16,-424.84c113.99,72.519 777.162,352.297 922.224,414.475c145.063,62.183 -82.903,82.904 -196.874,82.904c-113.995,-0 -766.783,-269.418 -839.321,-217.601c-72.543,51.817 569.903,155.423 569.903,196.88c-0,41.447 -1720.09,435.182 -1823.7,435.182c-103.629,-0 -901.498,-72.519 -901.498,-72.519l-51.813,-600.995Z" style="fill:#e38540;fill-rule:nonzero;"/><path d="M7706.89,8216.03c541.434,106.227 860.067,679.183 963.677,1181.04c103.611,501.836 -963.677,-1181.04 -963.677,-1181.04Z" style="fill:#6791c9;fill-rule:nonzero;"/><g><g><clipPath id="_clip1"><path d="M8478.91,14513.5c-5875.28,-341.942 -10587,-6557.78 -7460.66,-10165.1c1281.95,-1479.19 2789.85,-1037.99 4372.05,-596.777c1410.38,393.289 2879.83,786.564 4300.93,-180.366c4639.01,-3156.43 12154.7,-3730.33 13149.5,248.692c994.764,3979 -2300.42,10196.2 -4756.19,10569.3c-2455.84,373.028 -9605.62,124.341 -9605.62,124.341l0,-0.009Z"/></clipPath><g clip-path="url(#_clip1)"><path d="M6800.23,7830.03c-0,-0 -1041.37,699.448 -1600.93,1041.38c-559.538,341.937 202.069,4025.65 388.583,5393.44c186.515,1367.8 3419.46,124.356 3419.46,124.356c0,-0 -217.6,-1150.19 62.159,-2999.79c200.411,-1324.9 -533.646,-2155.32 -953.292,-2730.41c-1059.18,-1451.43 -1315.98,-828.955 -1315.98,-828.955l-0,-0.024Z" style="fill:#75a1de;fill-rule:nonzero;"/><path d="M5774.42,8886.93c1196.81,1461.04 1601.37,1734.19 1305.61,2720.03c-233.142,777.143 -310.87,1056.92 -357.492,1321.17c-46.628,264.209 2222.64,-170.978 2222.64,-170.978l-15.536,854.852c0,-0 -1787.44,854.876 -2657.87,1025.84c-870.388,170.978 -1414.39,-31.067 -1414.39,-31.067l917.035,-5719.83l0,-0.01Z" style="fill:#6791c9;fill-rule:nonzero;"/></g></g></g><path d="M20761.1,14738.9l-14160.3,-0c-102.216,-0 -185.101,-82.865 -185.101,-185.115c0,-102.216 82.885,-185.1 185.101,-185.1l14160.3,-0c102.231,-0 185.096,82.884 185.096,185.1c0,102.25 -82.865,185.115 -185.096,185.115Z" style="fill:#2e5b9a;fill-rule:nonzero;"/><path d="M7183.64,6358.6l-538.812,1595.74c-0,-0 590.629,1600.95 1088.01,1243.45c169.804,-122.06 -62.173,-1088.01 -62.173,-1088.01l362.663,-1295.25l-849.686,-455.932Z" style="fill:#f09959;fill-rule:nonzero;"/><path d="M5463.56,8824.77c-744.058,82.665 -808.234,1087.99 -1150.17,2766.66c-341.956,1678.64 -239.185,2786.64 -77.709,2999.79c388.559,512.916 4756.14,-1274.53 5300.18,-1258.99c375.443,10.744 62.158,-621.696 62.158,-621.696l-4165.53,637.252c0,-0 590.648,-1942.88 590.648,-2937.61c0,-994.768 -279.778,-1616.5 -559.556,-1585.4l-0.02,0Z" style="fill:#f09959;fill-rule:nonzero;"/><path d="M9333.77,12741.6c435.201,-108.8 1072.45,-357.492 1196.79,-248.692c124.356,108.801 637.276,885.963 808.254,1103.57c170.959,217.6 -77.714,46.622 -264.228,-124.356c-186.514,-170.959 -341.956,-264.228 -341.956,-264.228c-0,0 -233.137,217.606 -450.738,341.956c-217.605,124.342 -295.319,-124.35 -668.343,-186.528c-373.047,-62.159 -1305.61,264.247 -1305.61,264.247l1025.84,-885.968Z" style="fill:#f09959;fill-rule:nonzero;"/><path d="M5546.46,8700.42c-455.932,20.731 -808.234,404.115 -932.571,994.749c-124.355,590.629 -487.038,2466.16 -487.038,2466.16c0,-0 -72.519,51.812 683.899,186.509c756.436,134.721 1378.15,-20.721 1378.15,-20.721c-0,-0 155.422,-1067.29 113.975,-1802.98c-41.432,-735.71 -207.259,-1429.97 -476.638,-1668.3c-269.418,-238.332 -279.779,-155.428 -279.779,-155.428Z" style="fill:#75a1de;fill-rule:nonzero;"/><path d="M7670.67,8109.79l362.663,-1295.25l-849.686,-455.932l-129.785,384.372c-28.236,1286.8 301.386,1717.17 523.539,1874.53c69.385,49.143 129.047,11.161 179.067,-69.083c-36.501,-233.3 -85.798,-438.642 -85.798,-438.642Z" style="fill:#e38540;fill-rule:nonzero;"/><path d="M9395.93,6508.89c-0,693.242 -82.746,1543.25 -683.898,1523.22c-932.586,-31.092 -1520.24,-756.02 -1520.24,-1449.26c0,-693.243 487.599,-1255.24 1089.09,-1255.24c601.473,0 1115.05,488.04 1115.05,1181.28Z" style="fill:#f09959;fill-rule:nonzero;"/><path d="M16355.6,14368.2l-3495.99,-0l1438.02,-3163.62c41.969,-92.329 133.997,-151.594 235.432,-151.594l3172.72,0c73.478,0 122.199,75.898 91.846,142.748l-1442.03,3172.47Z" style="fill:#9bd6e8;fill-rule:nonzero;"/><path d="M16348,14368.2l-6449.48,-0c-0,-224.713 182.163,-406.876 406.851,-406.876l6042.63,0l0,406.876Z" style="fill:#9bd6e8;fill-rule:nonzero;"/><path d="M17705.8,11052.9l-2796.01,-0c-101.411,-0 -193.458,59.264 -235.432,151.593l-1438,3163.62l3119.26,-0l1442.03,-3172.47c30.353,-66.85 -18.368,-142.747 -91.846,-142.747Z" style="fill:#7bcee8;fill-rule:nonzero;"/><path d="M8370.08,5086.68c660.594,-46.642 1051.75,556.945 1165.74,1085.42c82.224,381.29 41.433,455.927 41.433,455.927c0,0 -72.538,103.611 -590.629,134.697c-518.11,31.092 -580.264,20.726 -580.264,20.726l-31.091,-600.989l-155.447,580.263c0,0 -82.879,113.995 -404.091,-41.452c-321.235,-155.422 -466.316,-673.508 -466.316,-673.508c-0,-0 -72.519,-341.961 176.173,-569.927c248.668,-227.943 844.491,-391.157 844.491,-391.157Z" style="fill:#303c60;fill-rule:nonzero;"/><path d="M7878.64,6645.94c-63.352,419.311 -398.043,716.423 -747.547,663.609c-349.509,-52.814 -581.466,-435.566 -518.11,-854.877c63.376,-419.31 398.067,-716.403 747.571,-663.589c349.504,52.79 581.462,435.547 518.086,854.857Z" style="fill:#d54a41;fill-rule:nonzero;"/><path d="M7626.15,6634.73c-58.665,388.257 -333.45,668.678 -613.732,626.33c-280.3,-42.372 -459.962,-391.459 -401.302,-779.697c58.685,-388.263 333.475,-668.66 613.752,-626.312c280.3,42.348 459.967,391.435 401.282,779.679Z" style="fill:#f39892;fill-rule:nonzero;"/><path d="M7197.83,6547.99c-32.246,213.307 -148.436,372.626 -259.575,355.854c-111.119,-16.792 -175.07,-203.344 -142.824,-416.656c32.227,-213.326 148.436,-372.645 259.551,-355.834c111.12,16.772 175.075,203.325 142.848,416.636Z" style="fill:#f2e5de;fill-rule:nonzero;"/><path d="M7181.06,5801.66c303.102,-1126.87 1349.36,-962.517 1613.9,-805.632c222.776,132.119 253.844,318.633 253.844,318.633c-0,-0 -287.528,-233.156 -777.124,-147.655c-464.597,81.107 -740.901,354.895 -779.76,657.977c-19.806,154.503 -310.865,-23.323 -310.865,-23.323Z" style="fill:#d54a41;fill-rule:nonzero;"/><path d="M2531.12,9439.36l-2.295,-0.096c-13.179,-1.26 -22.825,-12.962 -21.57,-26.136c27.22,-284.978 169.641,-577.892 401.043,-824.83c261.631,-279.198 633.979,-499.176 1076.77,-636.111c986.655,-305.138 1847.38,-693.161 2388.26,-2357.41c4.092,-12.579 17.611,-19.465 30.209,-15.392c12.58,4.093 19.466,17.611 15.373,30.191c-248.572,764.88 -586.934,1321.75 -1034.38,1702.44c-394.651,335.77 -839.22,517.051 -1385.3,685.954c-434.847,134.482 -800.006,349.945 -1055.96,623.096c-224.195,239.247 -362.088,522.14 -388.301,796.609c-1.198,12.402 -11.621,21.684 -23.841,21.684Z" style="fill:#303c60;fill-rule:nonzero;"/><path d="M2976.69,8289.21c-7.15,-0 -14.238,-3.197 -18.948,-9.287c-8.128,-10.461 -6.211,-25.499 4.25,-33.607c4.193,-3.254 425.78,-326.08 1035.36,-460.404c1170.3,-257.854 1955.99,-961.558 2272.17,-2035.03c3.757,-12.699 17.031,-19.925 29.754,-16.211c12.694,3.733 19.964,17.05 16.231,29.749c-195.317,663.172 -562.772,1186.53 -1092.12,1555.52c-340.878,237.632 -749.904,410.148 -1215.72,512.776c-598.574,131.903 -1012.22,448.303 -1016.31,451.48c-4.351,3.374 -9.546,5.013 -14.654,5.013Z" style="fill:#303c60;fill-rule:nonzero;"/><path d="M17981.3,7945.13l-3156.61,0c-29.591,0 -44.844,-23.979 -34.081,-53.575l640.265,-1759.14c10.783,-29.573 43.489,-53.552 73.08,-53.552l3156.63,-0c29.557,-0 44.729,23.979 33.947,53.552l-640.146,1759.14c-10.782,29.596 -43.532,53.575 -73.08,53.575Z" style="fill:#9ec8ff;fill-rule:nonzero;"/><path d="M17943.2,7862.95l-3020.53,-0c-27.636,-0 -41.874,-22.404 -31.829,-50.021l583.023,-1601.82c10.064,-27.636 40.614,-50.039 68.245,-50.039l3020.47,-0c27.554,-0 41.931,22.403 31.747,50.039l-582.837,1601.82c-10.183,27.617 -40.737,50.021 -68.292,50.021Z" style="fill:#fff;fill-rule:nonzero;"/><path d="M17888.6,7758.62l-2835.62,0c-31.048,0 -47.083,-25.178 -35.778,-56.25l502.574,-1380.77c11.3,-31.049 45.645,-56.246 76.712,-56.246l2835.62,0c30.952,0 47.121,25.197 35.744,56.246l-502.579,1380.77c-11.18,31.072 -45.721,56.25 -76.673,56.25Z" style="fill:#9ec8ff;fill-rule:nonzero;"/><path d="M17260.7,7012.01c-104.229,286.148 -420.509,518.11 -706.661,518.11c-286.109,0 -433.668,-231.962 -329.636,-518.11c104.229,-286.152 420.706,-518.109 706.838,-518.109c286.128,-0 433.687,231.957 329.459,518.109Z" style="fill:#fff;fill-rule:nonzero;"/><path d="M17188.8,7012.01c-89.852,246.397 -362.208,446.123 -608.6,446.123c-246.396,0 -373.387,-199.726 -283.731,-446.123c89.651,-246.372 362.202,-446.127 608.594,-446.127c246.196,0 373.388,199.755 283.737,446.127Z" style="fill:#9ec8ff;fill-rule:nonzero;"/><path d="M16971.1,6988.15l-197.277,94.165l-197.493,94.146l68.704,-188.311l68.489,-188.312l128.789,94.166l128.788,94.146Z" style="fill:#fff;fill-rule:nonzero;"/><path d="M13146.6,5437.7c-56.648,0 -124.772,50.639 -145.776,108.365l-90.514,248.692c-8.563,23.539 -8.127,44.725 1.236,58.061c10.126,14.477 28.816,17.515 42.713,17.515l248.692,0c57.625,0 124.394,-49.641 145.757,-108.364l90.513,-248.692c8.583,-23.563 8.128,-44.725 -1.217,-58.085c-10.126,-14.453 -28.815,-17.492 -42.712,-17.492l-248.692,0Zm56.351,528.471l-248.692,-0c-51.056,-0 -95.244,-21.263 -121.222,-58.363c-27.555,-39.334 -32.208,-92.488 -12.78,-145.839l90.513,-248.692c34.983,-96.12 138.569,-171.419 235.83,-171.419l248.692,0c51.079,0 95.263,21.263 121.222,58.363c27.535,39.334 32.188,92.493 12.761,145.844l-90.514,248.692c-34.982,96.12 -138.573,171.414 -235.81,171.414Z" style="fill:#9cd499;fill-rule:nonzero;"/><path d="M12761.9,6494.6c-56.642,0 -124.772,50.638 -145.776,108.364l-90.514,248.692c-8.568,23.539 -8.127,44.706 1.237,58.086c10.106,14.453 28.815,17.472 42.712,17.472l248.692,-0c57.625,-0 124.394,-49.599 145.757,-108.345l90.533,-248.692c8.563,-23.558 8.108,-44.725 -1.236,-58.086c-10.126,-14.453 -28.815,-17.491 -42.732,-17.491l-248.673,0Zm56.351,528.47l-248.692,0c-51.079,0 -95.243,-21.281 -121.222,-58.363c-27.554,-39.334 -32.207,-92.488 -12.78,-145.838l90.514,-248.692c34.982,-96.121 138.573,-171.419 235.829,-171.419l248.673,-0c51.094,-0 95.263,21.286 121.241,58.363c27.555,39.338 32.189,92.493 12.761,145.843l-90.513,248.692c-34.983,96.121 -138.555,171.414 -235.811,171.414Z" style="fill:#9cd499;fill-rule:nonzero;"/><path d="M12377.2,7551.55c-57.645,0 -124.394,49.599 -145.776,108.341l-90.514,248.673c-8.568,23.562 -8.108,44.744 1.236,58.104c10.126,14.453 28.815,17.491 42.712,17.491l248.692,0c57.626,0 124.394,-49.617 145.758,-108.364l90.532,-248.668c8.569,-23.563 8.109,-44.749 -1.255,-58.109c-10.107,-14.453 -28.796,-17.468 -42.693,-17.468l-248.692,0Zm56.35,528.452l-248.692,-0c-51.074,-0 -95.262,-21.287 -121.221,-58.368c-27.555,-39.334 -32.208,-92.483 -12.781,-145.839l90.514,-248.668c34.982,-96.144 138.574,-171.443 235.83,-171.443l248.692,0c51.055,0 95.243,21.287 121.221,58.363c27.536,39.339 32.189,92.493 12.781,145.844l-90.514,248.673c-34.982,96.139 -138.573,171.438 -235.83,171.438Z" style="fill:#9ec8ff;fill-rule:nonzero;"/><path d="M15249,5762.8l-1367.79,0c-25.638,0 -38.993,-20.985 -29.649,-46.646c9.326,-25.634 37.959,-46.623 63.597,-46.623l1367.79,-0c25.638,-0 38.975,20.989 29.649,46.623c-9.345,25.661 -37.958,46.646 -63.596,46.646Z" style="fill:#9ec8ff;fill-rule:nonzero;"/><path d="M15181.1,5949.31l-1367.79,0c-25.638,0 -38.998,-20.965 -29.654,-46.622c9.326,-25.643 37.959,-46.623 63.597,-46.623l1367.79,0c25.638,0 38.974,20.98 29.654,46.623c-9.326,25.657 -37.959,46.622 -63.597,46.622Z" style="fill:#9ec8ff;fill-rule:nonzero;"/><path d="M14892.6,6742.02l-1367.79,0c-25.638,0 -38.974,-20.989 -29.649,-46.646c9.345,-25.657 37.959,-46.623 63.616,-46.623l1367.77,0c25.657,0 38.994,20.966 29.668,46.623c-9.344,25.657 -37.977,46.646 -63.615,46.646Z" style="fill:#9ec8ff;fill-rule:nonzero;"/><path d="M14824.7,6928.53l-1367.79,-0c-25.638,-0 -38.979,-20.966 -29.635,-46.623c9.326,-25.638 37.94,-46.622 63.597,-46.622l1367.79,-0c25.638,-0 38.974,20.984 29.63,46.622c-9.321,25.657 -37.935,46.623 -63.592,46.623Z" style="fill:#9ec8ff;fill-rule:nonzero;"/><path d="M14496.6,7830.03l-1367.79,-0c-25.657,-0 -38.993,-20.966 -29.673,-46.623c9.345,-25.638 37.959,-46.622 63.616,-46.622l1367.77,-0c25.657,-0 39.018,20.984 29.673,46.622c-9.345,25.657 -37.958,46.623 -63.596,46.623Z" style="fill:#9ec8ff;fill-rule:nonzero;"/><path d="M14428.7,8016.53l-1367.79,0c-25.638,0 -38.994,-20.989 -29.649,-46.622c9.325,-25.662 37.958,-46.628 63.596,-46.628l1367.79,0c25.638,0 38.974,20.966 29.649,46.628c-9.345,25.633 -37.959,46.622 -63.597,46.622Z" style="fill:#9ec8ff;fill-rule:nonzero;"/><path d="M13145,5826.3c-4.217,-0 -8.449,-0.561 -12.604,-1.678c-14.477,-3.953 -26.256,-14.438 -31.867,-28.355l-93.864,-233.136c-9.905,-24.56 1.999,-52.474 26.534,-62.355c24.541,-9.887 52.474,2.012 62.36,26.553l70.262,174.476l554.832,-427.678c20.942,-16.135 51.056,-12.258 67.205,8.703c16.173,20.965 12.263,51.055 -8.683,67.209l-604.924,466.293c-8.487,6.532 -18.79,9.968 -29.251,9.968Z" style="fill:#f37168;fill-rule:nonzero;"/><path d="M12760.4,6883.2c-4.217,0 -8.449,-0.541 -12.603,-1.677c-14.453,-3.934 -26.256,-14.439 -31.849,-28.355l-93.901,-233.137c-9.887,-24.559 2.017,-52.473 26.553,-62.355c24.559,-9.886 52.473,2.013 62.36,26.553l70.262,174.477l554.832,-427.678c20.965,-16.135 51.055,-12.258 67.204,8.702c16.174,20.947 12.263,51.037 -8.702,67.215l-604.905,466.288c-8.487,6.531 -18.79,9.967 -29.251,9.967Z" style="fill:#f37168;fill-rule:nonzero;"/><path d="M21804.4,4534.91l-5253.56,-0l135.775,-373.024l5253.56,0l-135.775,373.024Z" style="fill:#9ec8ff;fill-rule:nonzero;"/><path d="M21600.7,5094.44l-5253.6,-0l135.799,-373.029l5253.56,0l-135.78,373.029l0.029,-0Z" style="fill:#9ec8ff;fill-rule:nonzero;"/><path d="M15777.5,9567.65l-3857.82,0c-50.413,0 -76.631,-41.231 -58.301,-91.649c18.349,-50.418 74.618,-91.649 125.012,-91.649l3857.8,-0c50.519,-0 76.674,41.231 58.306,91.649c-18.368,50.418 -74.479,91.649 -124.993,91.649Z" style="fill:#9ec8ff;fill-rule:nonzero;"/><path d="M15629.3,9974.98l-3857.88,-0c-50.418,-0 -76.655,-41.237 -58.306,-91.65c18.349,-50.399 74.618,-91.649 125.017,-91.649l3857.9,-0c50.317,-0 76.674,41.25 58.301,91.649c-18.368,50.413 -74.676,91.65 -125.031,91.65Z" style="fill:#9ec8ff;fill-rule:nonzero;"/><path d="M19240.8,13419.2c-0,-64.731 779.52,-2219.47 252.386,-3606.57c-368.993,-971.262 -427.299,-2136.77 -427.299,-2136.77c0,0 -718.617,1029.53 -233.017,2602.96c298.909,968.431 420.907,1236.73 446.664,1521.62c25.959,284.911 -116.405,1709.41 -116.405,1709.41l77.671,-90.653Z" style="fill:#9cd499;fill-rule:nonzero;"/><path d="M19046.9,7752.06c-59.106,101.813 -173.714,324.666 -256.977,643.601c-107.425,410.824 -183.102,1069.82 65.69,1876.13c101.033,327.182 181.104,572.381 245.596,769.414c126.992,388.521 184.895,565.829 202.266,757.117c22.566,249.252 -79.865,1336.98 -109.217,1638.25l23.759,-27.617c2.794,-14.257 11.185,-42.669 32.347,-113.89c450.258,-1505.15 524.536,-2673.93 220.438,-3473.89c-312.686,-822.826 -403.54,-1795.25 -423.902,-2069.12Zm116.209,5781.79c-3.196,0 -6.388,-0.618 -9.584,-1.917c-9.584,-4.116 -15.378,-13.998 -14.376,-24.42c1.394,-14.219 141.966,-1425.46 116.606,-1704.86c-16.973,-185.891 -74.277,-361.585 -200.071,-746.57c-64.492,-197.176 -144.76,-442.591 -245.792,-770.156c-252.588,-818.173 -175.114,-1487.36 -65.897,-1904.67c118.806,-452.976 294.917,-708.434 302.306,-719.077c5.789,-8.406 16.37,-12.139 26.156,-9.326c9.982,2.837 16.772,11.621 17.371,21.843c0.599,11.625 62.298,1173.03 425.9,2129.44c197.076,518.728 236.611,1202.74 117.608,2033.08c-95.047,662.952 -264.568,1229.6 -337.049,1471.56c-16.37,55.148 -30.746,102.772 -31.546,111.537c-0,5.731 -1.999,10.183 -5.789,14.515l-77.676,90.672c-4.792,5.41 -11.381,8.348 -18.167,8.348Z" style="fill:#74b570;fill-rule:nonzero;"/><path d="M19409.2,13639.4c-116.607,-2395.76 453.253,-3703.71 1618.74,-4739.71c1165.48,-1036.01 1217.2,-1307.97 1217.2,-1307.97c0,0 -181.305,2020.22 -854.598,2719.51c-673.49,699.314 -1657.67,1217.32 -1800.04,1579.9c-142.565,362.605 -90.648,1579.9 -90.648,1579.9l-90.652,220.16l-0,-51.793Z" style="fill:#9cd499;fill-rule:nonzero;"/><path d="M19266.5,13846.6c-12.78,-38.855 246.196,-2240.36 1191.44,-2369.84c945.442,-129.508 1165.48,90.652 1813.02,-12.958c462.042,-73.919 815.858,-220.16 815.858,-220.16c0,0 -245.193,624.193 -1087.81,880.615c-595.623,181.3 -1372.74,-116.569 -1826,-38.86c-453.253,77.714 -686.27,1048.96 -686.27,1048.96l-77.671,505.051l-142.566,207.197Z" style="fill:#9cd499;fill-rule:nonzero;"/><path d="M19396.2,13520.9c-12.181,0 -22.762,-9.325 -23.764,-21.765c-1.596,-15.474 -135.574,-1562.11 520.746,-2746.26c339.244,-611.695 709.43,-966.169 1067.44,-1308.99c333.651,-319.357 648.733,-621.021 887.539,-1098.83c5.99,-11.841 20.367,-16.595 32.146,-10.706c11.985,5.914 16.777,20.309 10.787,32.132c-242.601,485.259 -560.679,789.703 -897.325,1112.01c-355.417,340.36 -723.012,692.279 -1058.66,1297.61c-649.132,1171.02 -516.553,2703.3 -515.153,2718.63c1.399,13.178 -8.387,24.861 -21.565,26.079l-2.195,0.1Z" style="fill:#74b570;fill-rule:nonzero;"/><path d="M19331.5,13210.1c-2.195,0 -4.596,-0.321 -6.791,-0.977c-12.579,-3.676 -19.969,-16.974 -16.375,-29.673c247.998,-854.436 532.53,-1352.94 895.332,-1568.82c324.465,-193.041 659.913,-133.801 1014.93,-71.062c86.852,15.353 176.705,31.225 265.761,42.889c771.331,101.19 1147.71,-86.277 1151.31,-88.199c11.779,-6.009 26.155,-1.395 32.347,10.346c5.985,11.741 1.394,26.175 -10.385,32.246c-15.574,8.085 -391.157,196.54 -1179.66,93.126c-89.853,-11.799 -180.309,-27.775 -267.765,-43.225c-346.03,-61.143 -672.694,-118.888 -981.987,65.048c-351.819,209.32 -629.561,698.974 -873.762,1540.99c-2.991,10.486 -12.58,17.314 -22.959,17.314Z" style="fill:#74b570;fill-rule:nonzero;"/><path d="M20568.2,9888.39c-7.188,-0 -14.376,-3.216 -18.967,-9.35c-8.19,-10.461 -6.191,-25.494 4.193,-33.583c4.591,-3.532 465.234,-354.578 1104.38,-477.252c12.977,-2.458 25.557,6.029 28.154,19.025c2.396,12.977 -5.99,25.537 -18.967,28.034c-628.166,120.56 -1079.82,464.677 -1084.22,468.133c-4.394,3.354 -9.584,4.993 -14.578,4.993Z" style="fill:#74b570;fill-rule:nonzero;"/><path d="M19836.4,10930.9c-4.193,0 -8.386,-1.097 -12.181,-3.354c-11.381,-6.748 -15.177,-21.464 -8.386,-32.846c337.245,-568.666 732.198,-711.97 1593.38,-981.886c12.58,-3.992 25.959,3.076 29.951,15.694c3.997,12.618 -2.995,26.079 -15.574,30.032c-849.203,266.121 -1238.36,407.086 -1566.63,960.619c-4.389,7.548 -12.378,11.741 -20.563,11.741Z" style="fill:#74b570;fill-rule:nonzero;"/><path d="M19627,14435.8l-578.246,0c-204.265,0 -379.58,-145.057 -417.917,-345.608l-186.49,-975.297l1787.06,-0l-186.49,975.297c-38.337,200.551 -213.652,345.608 -417.916,345.608Z" style="fill:#f39892;fill-rule:nonzero;"/><path d="M20186.1,13363.5l-1683.43,0c-26.558,0 -47.922,-21.469 -47.922,-47.926c0,-26.452 21.364,-47.921 47.922,-47.921l1683.43,-0c26.558,-0 47.921,21.469 47.921,47.921c-0,26.457 -21.363,47.926 -47.921,47.926Z" style="fill:#d54a41;fill-rule:nonzero;"/><path d="M29104,14697.2c0,-0 -2331.57,-2891.28 -932.666,-5642.68c1399.1,-2751.38 4057.13,-2098.51 7787.82,-4896.54c4529.15,-3396.81 7709.33,-3583.47 11751.7,-2098.53c2285.24,839.402 2658.23,4290.31 6295.65,6435.44c3279.01,1933.82 606.203,5222.93 -1119.16,5735.93c-1725.56,512.977 -2891.25,512.977 -2891.25,512.977l-20892.1,-46.646l0,0.048Z" style="fill:#8fc1ed;fill-opacity:0.67;fill-rule:nonzero;"/><path d="M42986.2,8481.13c-582.046,1181.38 -1311.65,4409.6 -1510.72,4586.46c-199.07,176.891 -1348.78,862.342 -1547.86,1194c-198.873,331.677 -110.42,221.118 -21.962,243.244c88.453,22.101 5085.45,44.207 5085.45,44.207c-0,-0 -574.853,-3427.21 -641.148,-3449.31c-66.284,-22.12 -1363.75,-2618.6 -1363.75,-2618.6l-0.01,0Z" style="fill:#a2dff2;fill-rule:nonzero;"/><path d="M42158.5,14533c917.892,6.411 1886.3,11.462 2419.42,14.074l-729.998,-4365.34c-389.163,-754.802 -861.782,-1700.63 -861.782,-1700.63c-73.482,148.939 -149.159,330.441 -225.833,534.207c-75.673,3278.73 396.548,4197.72 41.73,4781.94c-276.741,455.869 -529.324,659.813 -643.539,735.749Z" style="fill:#96cfe0;fill-rule:nonzero;"/><path d="M52534.3,14767.8l-23995.5,0c-102.23,0 -185.095,-82.884 -185.095,-185.095c-0,-102.231 82.865,-185.096 185.095,-185.096l23995.5,0c102.23,0 185.095,82.865 185.095,185.096c0,102.211 -82.865,185.095 -185.095,185.095Z" style="fill:#2e5b9a;fill-rule:nonzero;"/><path d="M46050.6,7055.23c829.833,766.122 2677.39,1492.65 2677.39,1492.65c-0,-0 280.54,2593.4 89.056,4061.82c-191.483,1468.44 -85.06,1766.38 -85.06,1766.38l-3809.33,-0c-0,-0 -511.363,-709.474 -1447.22,-2915.57c-595.824,-1404.59 -489.396,-2979.43 -489.396,-2979.43l2319.58,-1042.8l744.978,-383.049Z" style="fill:#a2dff2;fill-rule:nonzero;"/><path d="M44923,14376.1l3809.34,0c-0,0 -106.424,-297.931 85.06,-1766.38c157.742,-1209.13 -4.792,-3180.99 -66.889,-3839.64l-346.633,-148.48c-869.569,250.609 -1370.94,1547.86 -1518.3,2815.64c-98.641,848.244 -1503.93,1683.29 -2423.22,2143.04c302.105,575.711 460.647,795.827 460.647,795.827Z" style="fill:#96cfe0;fill-rule:nonzero;"/><path d="M43988.5,4393.35c-459.047,1022.74 92.047,1970.16 75.275,1930.21c-16.571,-39.938 695.054,-1726.77 695.054,-1726.77l-770.329,-203.445Z" style="fill:#2e5b9a;fill-rule:nonzero;"/><path d="M45729,5149.6l582.439,2128.64c16.375,60.083 2.396,124.096 -36.736,172.439c-136.777,168.261 -331.26,514.372 -723.611,625.411c-76.276,21.583 -170.12,27.353 -246.195,27.636c-80.071,0.297 -148.958,-56.011 -164.13,-134.539l-390.16,-2018.96l978.393,-800.625Z" style="fill:#f09959;fill-rule:nonzero;"/><path d="M45617.9,5327.53l-212.847,87.259l-654.326,535.458l351.224,1789.98c595.819,-371.428 682.676,-622.094 515.949,-2412.69Z" style="fill:#e38540;fill-rule:nonzero;"/><path d="M45707.5,6091.2c-128.788,700.249 -652.926,1173.83 -1170.27,1057.78c-517.549,-116.027 -764.344,-569.261 -703.642,-1478.01c47.72,-712.929 399.141,-1487.86 916.69,-1371.81c517.554,116.032 1086.22,1091.77 957.226,1792.03Z" style="fill:#f09959;fill-rule:nonzero;"/><path d="M48727.9,8547.89c770.736,174.035 913.901,1739.5 1164.49,3390.53c28.95,190.026 176.911,1798.46 176.911,1798.46c0,-0 14.774,294.835 -280.142,442.231c-251.788,125.952 -353.817,221.138 -1813.22,235.873c-1401.49,14.156 -3208.72,-44.226 -3208.72,-44.226c-0,-0 -15.977,-521.522 127.787,-776.381c216.244,-383.274 2432.4,-933.63 2638.86,-963.097c29.352,-412.765 -203.665,-1906.21 117.805,-2918.8c221.238,-696.554 458.846,-1061.39 756.757,-1156.76c99.236,-31.791 205.261,-33.626 319.472,-7.83Z" style="fill:#a2dff2;fill-rule:nonzero;"/><path d="M45560.3,14402.6c690.866,10.38 1639.11,20.309 2416.03,12.459c1459.4,-14.735 1561.43,-109.921 1813.22,-235.873c294.917,-147.396 309.691,-398.004 309.691,-398.004c0,-0 -148.953,-1711.49 -176.911,-1901.65c-162.131,-1105.6 -337.442,-2370.74 -745.175,-2981.44c383.375,1123.5 445.069,2071.46 451.859,2476.35c3.594,205.04 -15.373,485.84 -75.274,681.995c-66.295,217.424 -235.816,353.798 -501.18,280.086c-530.722,-147.42 -1194.03,162.151 -1194.03,162.151c0,-0 501.175,-176.911 972.801,-14.736c471.823,162.151 1444.82,1238.28 383.37,1636.29c-324.868,121.797 -2270.27,221.113 -3654.4,282.376Z" style="fill:#96cfe0;fill-rule:nonzero;"/><path d="M45013.1,13643.5c-0,-0 196.472,-334.131 599.408,-334.131c402.941,0 373.589,658.442 314.483,874.644c-58.9,216.225 -294.715,226.049 -294.715,226.049l-864.974,-39.315l245.798,-727.247Z" style="fill:#96cfe0;fill-rule:nonzero;"/><path d="M44136.6,14560.1l-5451.85,-0c-82.261,-0 -149.552,-67.272 -149.552,-149.476l-0,-42.971c-0,-82.223 67.291,-149.495 149.552,-149.495l5451.85,0c82.266,0 149.552,67.272 149.552,149.495l0,42.971c0,82.204 -67.286,149.476 -149.552,149.476Z" style="fill:#75a1de;fill-rule:nonzero;"/><path d="M44905.3,13682.8c-845.215,-304.659 -1067.05,-189.969 -1257.93,-245.697c-471.823,-137.572 -589.833,-19.647 -894.334,815.696c-60.697,166.45 117.809,176.892 294.715,176.892c176.911,-0 393.16,-343.955 461.846,-383.269c68.886,-39.315 255.578,-58.963 255.578,-58.963c-0,0 -58.905,0 -147.358,176.887c-88.453,176.887 -196.678,245.697 -58.905,245.697c137.573,-0 157.144,-226.049 412.722,-176.911c255.382,49.143 157.143,176.911 795.895,167.087c638.948,-9.843 1120.95,-0.019 1110.57,-383.288c-9.781,-363.622 30.555,-545.444 -314.483,-609.299c-265.364,-49.139 -658.313,275.168 -658.313,275.168Z" style="fill:#f09959;fill-rule:nonzero;"/><path d="M44916.3,13682.8c565.073,-63.874 399.146,640.026 340.246,698.989c-58.905,58.962 314.679,20.706 314.679,20.706c0,0 175.512,-282.375 28.154,-606.682c-147.554,-324.307 -442.27,-339.043 -442.27,-339.043l-250.59,137.577l9.781,88.453Z" style="fill:#a86b48;fill-rule:nonzero;"/><path d="M45506.2,13621.6c-7.394,87.216 -155.547,146.04 -331.059,131.385c-175.712,-14.678 -312.087,-97.28 -304.697,-184.535c7.188,-87.216 155.341,-146.064 331.054,-131.385c175.512,14.678 311.886,97.28 304.702,184.535Z" style="fill:#2e5b9a;fill-rule:nonzero;"/><path d="M45461.1,13578.2c-6.594,77.934 -138.971,130.509 -295.918,117.407c-156.741,-13.116 -278.739,-86.934 -272.149,-164.868c6.388,-77.953 138.971,-130.504 295.712,-117.388c156.942,13.102 278.738,86.896 272.355,164.849Z" style="fill:#3e6bab;fill-rule:nonzero;"/><path d="M45363.4,13542.1c-4.596,56.11 -100.035,93.93 -212.852,84.504c-113.012,-9.445 -200.67,-62.576 -196.079,-118.687c4.596,-56.087 100.036,-93.921 213.053,-84.499c112.816,9.426 200.469,62.575 195.878,118.682Z" style="fill:#f0ceb4;fill-rule:nonzero;"/><path d="M38485.2,13480.2l-5492.15,0c-288.927,0 -536.516,-209.2 -588.832,-497.283l-716.221,-3953.88c-67.492,-372.885 214.845,-716.6 588.832,-716.6l5492.15,0c288.927,0 536.517,209.215 588.631,497.303l716.422,3953.88c67.493,372.889 -214.845,716.585 -588.832,716.585Z" style="fill:#75a1de;fill-rule:nonzero;"/><path d="M38741.7,12778.5l-731,-3872.05c-53.313,-282.136 -306.092,-487.023 -601.009,-487.023l-5581.24,-0c-117.206,136.058 -175.909,322.251 -140.17,516.274l741.38,4036.84c54.113,294.14 310.491,507.73 609.596,507.73l5101.6,-0c381.572,-0 669.699,-336.608 600.812,-701.768l0.034,-0Z" style="fill:#a8ceff;fill-rule:nonzero;"/><path d="M37417.5,14009.7l-1042.69,-0c-185.891,-0 -336.646,-165.587 -336.646,-369.875l-0,-1906.24c-0,-325.127 -240.004,-588.693 -535.918,-588.693l-544.504,-0c-296.115,-0 -535.918,263.566 -535.918,588.693l0,2134.79c0,365.059 270.353,660.354 602.806,658.059l2845.33,-19.528c0,-274.608 -202.668,-497.202 -452.458,-497.202Z" style="fill:#75a1de;fill-rule:nonzero;"/><path d="M34463.2,11776.3l0,2102.08c0,342.196 265.364,621.96 601.009,646.102l2776.83,-17.352c-0.196,-45.487 -219.038,-128.39 -489.611,-128.39l-1127.73,-0c-201.073,-0 -364.201,-163.052 -364.201,-364.202l-0,-2238.24c-0,-320.133 -259.575,-579.664 -579.651,-579.664l-236.807,-0c-320.277,-0 -579.847,259.531 -579.847,579.664Z" style="fill:#a8ceff;fill-rule:nonzero;"/><path d="M40275.8,13767.5c419.708,-233.156 932.666,-155.447 1119.16,77.714c186.495,233.137 217.648,388.559 -202.065,388.559c-419.708,0 -1258.93,31.087 -1398.9,15.556c-139.767,-15.556 481.81,-481.829 481.81,-481.829Z" style="fill:#f09959;fill-rule:nonzero;"/><path d="M40897.6,13627.6c450.661,-108.805 758.752,153.487 1134.74,404.115c326.262,217.601 391.952,429.134 30.947,248.687c-528.331,-264.242 -839.22,-295.315 -839.22,-295.315l-326.464,-357.487Z" style="fill:#f09959;fill-rule:nonzero;"/><path d="M40487.1,13766c-227.625,0 -426.297,-72.581 -587.035,-59.202c-160.732,13.399 -669.497,535.621 -589.229,575.774c5.793,2.894 11.98,5.53 18.77,8.008c120.8,44.447 257.179,-4.812 325.266,-114.077c72.083,-115.567 189.087,-250.029 325.466,-201.906c227.621,80.349 466.628,72.6 466.628,72.6l40.134,-281.197Z" style="fill:#f09959;fill-rule:nonzero;"/><path d="M40353.5,14327c-233.012,-93.264 139.973,-870.407 264.367,-870.407c124.394,-0 590.629,373.028 590.629,373.028c-0,0 -109.62,61.9 -481.81,-62.159c-93.245,-31.086 -170.92,497.36 -279.74,559.538c-108.819,62.178 -93.446,0 -93.446,0Z" style="fill:#f7a96f;fill-rule:nonzero;"/><path d="M43833.3,6080.28c-21.565,855.773 269.959,1000.5 473.821,1116.7c204.067,116.209 1082.62,-75.754 1211.61,-287.408c329.861,-541.491 52.119,-1046.42 125.995,-1038.79c73.88,7.648 141.372,218.439 333.651,492.012c17.975,25.48 142.968,194.56 149.553,138.329c89.253,-766.337 488.398,-1004.3 393.356,-1779.39c-70.085,-571.403 -432.69,-526.056 -432.69,-526.056c-0,0 -234.014,-478.133 -962.416,-423.824c-487.996,36.362 -923.083,226.49 -1426.05,355.978c-503.178,129.464 595.018,1269.73 1247.55,853.136c652.529,-416.574 330.455,501.036 433.289,572.199c103.026,71.163 49.517,9.445 96.84,479.011c47.121,469.551 -549.101,776.127 -720.017,816.319c-546.503,128.529 -637.951,38.375 -757.558,-167.404c-103.826,-178.568 -166.923,-600.812 -166.923,-600.812Z" style="fill:#2e5b9a;fill-rule:nonzero;"/><path d="M46095.1,5815.27c-62.7,215.684 -216.043,355.015 -342.239,311.21c-126.387,-43.791 -129.986,-219.062 -115.212,-469.829c13.384,-226.069 215.847,-355.02 342.239,-311.21c126.196,43.809 177.907,254.14 115.212,469.829Z" style="fill:#f09959;fill-rule:nonzero;"/><path d="M34153.7,5236.24l-4665.13,-0c-50.911,-0 -92.047,-41.169 -92.047,-91.947l-0,-2007.56c-0,-50.777 41.136,-91.946 92.047,-91.946l4665.13,-0c50.921,-0 92.052,41.169 92.052,91.946l-0,2007.56c-0,50.778 -41.131,91.947 -92.052,91.947Z" style="fill:#b7e1ff;fill-rule:nonzero;"/><path d="M34038.9,5133.4l-4435.51,-0c-40.934,-0 -74.278,-33.243 -74.278,-74.278l0,-1364.32c0,-41.011 33.344,-74.259 74.278,-74.259l4435.51,-0c40.934,-0 74.278,33.248 74.278,74.259l-0,1364.32c-0,41.035 -33.344,74.278 -74.278,74.278Z" style="fill:#fff;fill-rule:nonzero;"/><path d="M29745.3,3377.04l-107.626,0c-22.763,0 -41.332,-18.45 -41.332,-41.174l-0,-88.654c-0,-22.72 18.569,-41.15 41.332,-41.15l107.626,-0c22.561,-0 41.131,18.43 41.131,41.15l-0,88.654c-0,22.724 -18.57,41.174 -41.131,41.174Z" style="fill:#fff;fill-rule:nonzero;"/><path d="M30090.6,3377.04l-107.621,0c-22.561,0 -41.131,-18.45 -41.131,-41.174l0,-88.654c0,-22.72 18.57,-41.15 41.131,-41.15l107.621,-0c22.763,-0 41.333,18.43 41.333,41.15l-0,88.654c-0,22.724 -18.57,41.174 -41.333,41.174Z" style="fill:#fff;fill-rule:nonzero;"/><path d="M30436,3377.04l-107.622,0c-22.767,0 -41.136,-18.45 -41.136,-41.174l0,-88.654c0,-22.72 18.369,-41.15 41.136,-41.15l107.622,-0c22.757,-0 41.332,18.43 41.332,41.15l-0,88.654c-0,22.724 -18.575,41.174 -41.332,41.174Z" style="fill:#fff;fill-rule:nonzero;"/><path d="M33926.7,3952.14l-2424.81,-0c-39.736,-0 -72.476,-32.625 -72.476,-72.52c0,-39.894 32.74,-72.543 72.476,-72.543l2424.81,0c39.938,0 72.481,32.649 72.481,72.543c0,39.895 -32.543,72.52 -72.481,72.52Z" style="fill:#b7e1ff;fill-rule:nonzero;"/><path d="M32102.9,5071.2l-2424.61,-0c-39.938,-0 -72.682,-32.644 -72.682,-72.538c-0,-39.9 32.744,-72.524 72.682,-72.524l2424.61,-0c39.933,-0 72.481,32.624 72.481,72.524c0,39.894 -32.548,72.538 -72.481,72.538Z" style="fill:#b7e1ff;fill-rule:nonzero;"/><path d="M32549.5,5071.2l-250.786,-0c-13.777,-0 -24.761,-11.161 -24.761,-24.799l0,-95.464c0,-13.638 10.984,-24.799 24.761,-24.799l250.786,-0c13.777,-0 24.761,11.161 24.761,24.799l-0,95.464c-0,13.638 -10.984,24.799 -24.761,24.799Z" style="fill:#b7e1ff;fill-rule:nonzero;"/><path d="M32927.7,5071.2l-250.786,-0c-13.581,-0 -24.761,-11.161 -24.761,-24.799l0,-95.464c0,-13.638 11.18,-24.799 24.761,-24.799l250.786,-0c13.778,-0 24.958,11.161 24.958,24.799l-0,95.464c-0,13.638 -11.18,24.799 -24.958,24.799Z" style="fill:#b7e1ff;fill-rule:nonzero;"/><path d="M33949.8,4268.18l-4015.2,0c-26.951,0 -49.114,-22.144 -49.114,-49.22c-0,-27.056 22.163,-49.22 49.114,-49.22l4015.2,0c27.152,0 49.316,22.164 49.316,49.22c-0,27.076 -22.164,49.22 -49.316,49.22Z" style="fill:#b7e1ff;fill-rule:nonzero;"/><path d="M33949.8,4480.57l-4015.2,-0c-26.951,-0 -49.114,-22.164 -49.114,-49.22c-0,-27.071 22.163,-49.215 49.114,-49.215l4015.2,-0c27.152,-0 49.316,22.144 49.316,49.215c-0,27.056 -22.164,49.22 -49.316,49.22Z" style="fill:#b7e1ff;fill-rule:nonzero;"/><path d="M35249.5,6774.9l-4665.33,0c-50.715,0 -91.845,-41.174 -91.845,-91.927l-0,-2007.58c-0,-50.782 41.13,-91.951 91.845,-91.951l4665.33,-0c50.719,-0 92.047,41.169 92.047,91.951l-0,2007.58c-0,50.753 -41.328,91.927 -92.047,91.927Z" style="fill:#9ec8ff;fill-rule:nonzero;"/><path d="M35134.7,6672.06l-4435.51,0c-41.131,0 -74.278,-33.243 -74.278,-74.254l-0,-1364.32c-0,-41.011 33.147,-74.259 74.278,-74.259l4435.51,0c40.935,0 74.278,33.248 74.278,74.259l0,1364.32c0,41.011 -33.343,74.254 -74.278,74.254Z" style="fill:#fff;fill-rule:nonzero;"/><path d="M30841,4915.7l-107.626,-0c-22.758,-0 -41.131,-18.431 -41.131,-41.15l-0,-88.655c-0,-22.743 18.373,-41.173 41.131,-41.173l107.626,-0c22.762,-0 41.131,18.43 41.131,41.173l-0,88.655c-0,22.719 -18.369,41.15 -41.131,41.15Z" style="fill:#fff;fill-rule:nonzero;"/><path d="M31186.4,4915.7l-107.621,-0c-22.763,-0 -41.136,-18.431 -41.136,-41.15l-0,-88.655c-0,-22.743 18.373,-41.173 41.136,-41.173l107.621,-0c22.763,-0 41.131,18.43 41.131,41.173l-0,88.655c-0,22.719 -18.368,41.15 -41.131,41.15Z" style="fill:#fff;fill-rule:nonzero;"/><path d="M31531.8,4915.7l-107.621,-0c-22.763,-0 -41.131,-18.431 -41.131,-41.15l-0,-88.655c-0,-22.743 18.368,-41.173 41.131,-41.173l107.621,-0c22.763,-0 41.136,18.43 41.136,41.173l-0,88.655c-0,22.719 -18.373,41.15 -41.136,41.15Z" style="fill:#fff;fill-rule:nonzero;"/><path d="M35022.3,5490.8l-2424.61,0c-39.938,0 -72.481,-32.625 -72.481,-72.519c-0,-39.894 32.543,-72.543 72.481,-72.543l2424.61,-0c39.938,-0 72.682,32.649 72.682,72.543c0,39.894 -32.744,72.519 -72.682,72.519Z" style="fill:#9ec8ff;fill-rule:nonzero;"/><path d="M33198.7,6609.9l-2424.81,0c-39.736,0 -72.481,-32.624 -72.481,-72.519c0,-39.894 32.745,-72.538 72.481,-72.538l2424.81,-0c39.933,-0 72.481,32.644 72.481,72.538c-0,39.895 -32.548,72.519 -72.481,72.519Z" style="fill:#9ec8ff;fill-rule:nonzero;"/><path d="M33645.3,6609.9l-250.988,0c-13.576,0 -24.761,-11.136 -24.761,-24.794l0,-95.464c0,-13.638 11.185,-24.799 24.761,-24.799l250.988,-0c13.576,-0 24.761,11.161 24.761,24.799l-0,95.464c-0,13.658 -11.185,24.794 -24.761,24.794Z" style="fill:#9ec8ff;fill-rule:nonzero;"/><path d="M34023.5,6609.9l-250.786,0c-13.782,0 -24.962,-11.136 -24.962,-24.794l-0,-95.464c-0,-13.638 11.18,-24.799 24.962,-24.799l250.786,-0c13.576,-0 24.756,11.161 24.756,24.799l0,95.464c0,13.658 -11.18,24.794 -24.756,24.794Z" style="fill:#9ec8ff;fill-rule:nonzero;"/><path d="M35045.6,5806.84l-4015.2,-0c-27.153,-0 -49.316,-22.164 -49.316,-49.215c-0,-27.076 22.163,-49.22 49.316,-49.22l4015.2,-0c27.152,-0 49.315,22.144 49.315,49.22c0,27.051 -22.163,49.215 -49.315,49.215Z" style="fill:#9ec8ff;fill-rule:nonzero;"/><path d="M35045.6,6019.27l-4015.2,0c-27.153,0 -49.316,-22.144 -49.316,-49.224c-0,-27.071 22.163,-49.196 49.316,-49.196l4015.2,-0c27.152,-0 49.315,22.125 49.315,49.196c0,27.08 -22.163,49.224 -49.315,49.224Z" style="fill:#9ec8ff;fill-rule:nonzero;"/><path d="M37066.7,6238.7c0,347.649 -281.916,629.469 -629.546,629.469c-347.63,-0 -629.363,-281.82 -629.363,-629.469c-0,-347.65 281.733,-629.465 629.363,-629.465c347.63,0 629.546,281.815 629.546,629.465Z" style="fill:#9cd499;fill-rule:nonzero;"/><path d="M36374.7,6471.31c-0,0 -1.797,-0.019 -1.797,-0.019c-12.982,-0.474 -25.36,-6.349 -34.144,-16.231l-170.921,-194.282c-17.572,-19.887 -15.574,-50.154 4.395,-67.646c19.762,-17.472 50.116,-15.536 67.487,4.332l137.572,156.343l329.262,-322.15c18.766,-18.512 49.12,-18.191 67.689,0.738c18.546,18.91 18.148,49.239 -0.599,67.77l-365.399,357.493c-8.986,8.784 -20.966,13.652 -33.545,13.652Z" style="fill:#fff;fill-rule:nonzero;"/><path d="M41099.7,3314.79l-4002.24,0c-102.614,0 -186.471,-83.943 -186.471,-186.533l-0,-1429.95c-0,-102.571 83.857,-186.514 186.471,-186.514l4002.24,-0c102.628,-0 186.491,83.943 186.491,186.514l-0,1429.95c-0,102.59 -83.863,186.533 -186.491,186.533Z" style="fill:#9ec8ff;fill-rule:nonzero;"/><path d="M37439.3,3042.74l-0,994.768l1146.31,-1146.3c-0,-0 -1122.96,151.527 -1146.31,151.527Z" style="fill:#9ec8ff;fill-rule:nonzero;"/><path d="M40901.8,3136.05l-3606.47,0c-87.059,0 -158.164,-71.163 -158.164,-158.14l-0,-1129.23c-0,-86.977 71.105,-158.135 158.164,-158.135l3606.47,-0c87.058,-0 158.14,71.158 158.14,158.135l-0,1129.23c-0,86.977 -71.082,158.14 -158.14,158.14Z" style="fill:#fff;fill-rule:nonzero;"/><path d="M39273.5,2048.01l-1771.91,0c-42.707,0 -77.853,-34.958 -77.853,-77.709c0,-42.75 35.146,-77.733 77.853,-77.733l1771.91,0c42.732,0 77.676,34.983 77.676,77.733c-0,42.751 -34.944,77.709 -77.676,77.709Z" style="fill:#9ec8ff;fill-rule:nonzero;"/><path d="M40753.5,2345.14l-3286.4,0c-23.759,0 -43.33,-19.446 -43.33,-43.206l0,-0.901c0,-23.74 19.571,-43.205 43.33,-43.205l3286.4,-0c23.76,-0 43.125,19.465 43.125,43.205l-0,0.901c-0,23.76 -19.365,43.206 -43.125,43.206Z" style="fill:#9ec8ff;fill-rule:nonzero;"/><path d="M40753.5,2514.32l-3286.4,0c-23.759,0 -43.33,-19.451 -43.33,-43.21l0,-0.901c0,-23.76 19.571,-43.206 43.33,-43.206l3286.4,0c23.76,0 43.125,19.446 43.125,43.206l-0,0.901c-0,23.759 -19.365,43.21 -43.125,43.21Z" style="fill:#9ec8ff;fill-rule:nonzero;"/><path d="M40074.2,3073.84l-107.621,0c-22.768,0 -41.136,-18.43 -41.136,-41.149l0,-88.66c0,-22.743 18.368,-41.169 41.136,-41.169l107.621,0c22.758,0 41.131,18.426 41.131,41.169l-0,88.66c-0,22.719 -18.373,41.149 -41.131,41.149Z" style="fill:#9ec8ff;fill-rule:nonzero;"/><path d="M40419.6,3073.84l-107.626,0c-22.758,0 -41.126,-18.43 -41.126,-41.149l0,-88.66c0,-22.743 18.368,-41.169 41.126,-41.169l107.626,0c22.763,0 41.136,18.426 41.136,41.169l-0,88.66c-0,22.719 -18.373,41.149 -41.136,41.149Z" style="fill:#9ec8ff;fill-rule:nonzero;"/><path d="M40765,3073.84l-107.626,0c-22.762,0 -41.332,-18.43 -41.332,-41.149l0,-88.66c0,-22.743 18.57,-41.169 41.332,-41.169l107.626,0c22.758,0 41.126,18.426 41.126,41.169l0,88.66c0,22.719 -18.368,41.149 -41.126,41.149Z" style="fill:#9ec8ff;fill-rule:nonzero;"/><path d="M32434.3,33445.3c0,0 -5754.33,-3614.46 -1821.61,-7489.27c3932.54,-3874.83 9195.46,-7836.32 12723.3,-6303.85c3527.8,1532.68 3210.32,3470.1 7085.15,6274.9c3874.83,2804.99 2978.51,5031.54 2284.45,6159.27c-694.057,1127.75 -809.667,1416.87 -809.667,1416.87l-19461.6,-57.908l0.019,-0.015Z" style="fill:#8fc1ed;fill-opacity:0.67;fill-rule:nonzero;"/><path d="M36829.7,23185.5c851.996,-758.952 1477.77,-306.298 1943.8,199.674c371.39,403.334 423.308,492.788 730.2,910.503c45.525,62.096 80.469,130.983 82.065,207.858c8.588,462.038 244.801,2415.03 -17.774,3088.92c-306.293,785.51 -4083.08,1145.12 -4083.08,1145.12l1344.79,-5552.06l-0,-0.015Z" style="fill:#303c60;fill-rule:nonzero;"/><path d="M39248.3,28039.7c-20.563,0 -37.738,-16.173 -38.735,-36.937c-1.198,-21.565 15.373,-39.736 36.943,-40.935c112.011,-5.587 203.262,-55.904 278.738,-153.946c423.504,-548.698 185.498,-2380.29 -21.967,-3376.25c-4.39,-20.965 8.99,-41.533 30.152,-45.928c20.966,-4.591 41.533,8.986 45.928,30.152c45.324,217.443 196.875,989.372 244.197,1793.45c48.52,826.042 -31.149,1379.73 -236.611,1646.09c-89.057,115.409 -202.266,177.51 -336.647,184.295l-1.998,0Z" style="fill:#303c60;fill-rule:nonzero;"/><path d="M37149.2,22959.1c-1637.51,905.509 -638.953,3967.68 -2716.14,5059.47c-575.251,302.503 -2343.15,1837.38 -1184.85,3861.05c757.754,1323.82 3022.23,1038.49 3767.81,-133.182c745.573,-1171.47 133.183,-8787.36 133.183,-8787.36l-0,0.02Z" style="fill:#303c60;fill-rule:nonzero;"/><path d="M32791.2,29921.5c-0,0 -5.19,-0.398 -5.19,-0.398c-21.363,-2.798 -36.339,-22.365 -33.55,-43.728c1.601,-10.782 37.144,-268.359 200.474,-610.2c150.554,-314.881 442.672,-761.947 979.989,-1103.78c961.017,-611.594 1598.97,-1188.05 2353.33,-4029.18c5.387,-20.764 26.755,-33.142 47.519,-27.554c20.764,5.391 33.147,26.759 27.555,47.523c-364.398,1372.94 -725.805,2301.02 -1137.13,2920.8c-382.172,575.653 -775.126,852.197 -1249.35,1153.9c-998.357,635.354 -1143.72,1648.69 -1145.12,1658.87c-2.592,19.571 -19.365,33.746 -38.533,33.746Z" style="fill:#303c60;fill-rule:nonzero;"/><path d="M32826.9,29128.4c-6.992,-0 -14.381,-1.797 -20.769,-5.99c-18.172,-11.382 -23.563,-35.543 -11.98,-53.514c237.411,-375.98 539.909,-684.272 898.925,-916.493c1349.58,-872.766 1573.01,-1374.54 2687.58,-4248.61c7.788,-19.969 30.349,-29.951 50.318,-22.164c20.165,7.787 29.951,30.349 22.365,50.317c-557.487,1436.84 -890.54,2278.86 -1254.74,2875.67c-391.358,640.947 -832.832,1002.35 -1463.19,1410.08c-349.628,226.03 -644.143,526.338 -875.564,892.734c-7.389,11.583 -19.969,17.971 -32.941,17.971Z" style="fill:#303c60;fill-rule:nonzero;"/><path d="M37092.7,24870.2c-563.875,1171.08 -477.214,2233.73 -477.214,2233.73c-0,-0 65.091,411.921 325.466,498.778c260.169,86.656 628.765,-173.513 607.2,-520.544c-21.785,-347.031 86.656,-1192.64 216.844,-1496.34c129.986,-303.5 -672.296,-715.622 -672.296,-715.622Z" style="fill:#f09959;fill-rule:nonzero;"/><path d="M34113.5,33007c35.543,319.476 -44.327,292.918 239.606,346.029c284.135,53.313 790.106,-141.966 790.106,-141.966l-568.068,-1056.26l-461.644,852.198Z" style="fill:#6791c9;fill-rule:nonzero;"/><path d="M36683.5,26474.9c-159.74,519.346 -1357.97,119.803 -1777.28,239.606c-419.311,119.803 -778.916,1877.31 -838.818,3454.92c-59.902,1577.61 19.964,2835.74 179.705,3035.41c159.735,199.669 2796,279.539 3035.61,199.669c239.606,-79.866 -1997.12,-1078.23 -1997.12,-1078.23c-0,0 -139.767,-1837.38 39.938,-2776.03c179.704,-938.46 1797.44,-2176.62 1797.44,-2176.62l-439.476,-898.719Z" style="fill:#f09959;fill-rule:nonzero;"/><path d="M37242.8,26634.7c419.31,639.15 1517.71,559.279 1897.08,1078.43c379.378,519.145 1178.26,3375.05 1178.26,3375.05l838.823,-2895.84c-0,0 680.083,-114.215 459.243,359.606c-392.949,842.417 -539.31,3560.75 -965.411,3946.91c-473.821,429.298 -945.246,79.871 -1211.41,-671.893c-257.376,-727.205 -898.523,-2296.62 -1357.97,-2895.64c-459.243,-599.217 -958.424,-1557.64 -958.424,-1557.64l119.803,-738.984Z" style="fill:#f09959;fill-rule:nonzero;"/><path d="M35425.4,26714.5c838.823,978.59 2476.33,938.657 2835.74,818.854l359.61,-119.803c0,-0 279.539,-99.839 519.145,179.704c239.606,279.539 818.854,2037.05 918.693,2436.39c99.834,399.347 259.57,1058.46 259.57,1058.46c0,-0 -428.492,514.156 -428.492,1033.5c-0,519.145 181.899,523.539 181.899,523.539c0,-0 -532.323,-119.204 -652.126,-438.681c-119.803,-319.672 -1198.23,-3215.31 -1198.23,-3215.31l-2975.51,59.901l39.933,3275.21c-0,0 -259.571,-239.802 -618.98,0c-359.605,239.607 -479.408,798.689 -419.507,878.559c59.902,79.866 -119.803,79.866 -119.803,19.964c0,-59.901 -339.445,-1517.7 -99.839,-3914.16c239.606,-2396.46 699.051,-2656.03 958.621,-2676c259.575,-19.969 439.279,79.87 439.279,79.87Z" style="fill:#75a1de;fill-rule:nonzero;"/><path d="M39949.8,32603.9c5.592,1.999 8.985,1.999 8.985,1.999c-0,-0 -3.393,-0.599 -8.985,-1.999Z" style="fill:#6791c9;fill-rule:nonzero;"/><path d="M40065,31160.6c-173.115,53.312 -466.034,665.707 -466.034,665.707c0,0 -665.702,-1451.21 -865.375,-3461.51l-237.613,1363.76c328.059,880.753 842.815,2262.68 923.485,2477.93c109.62,292.123 551.693,414.12 612.189,427.697c-16.566,-5.588 -53.111,-27.752 -83.46,-115.61c-17.371,-15.771 -117.407,-62.494 -136.177,-79.669c-159.736,-146.558 -93.246,-492.587 13.379,-878.756c106.424,-386.163 412.722,-452.654 239.606,-399.543Z" style="fill:#6791c9;fill-rule:nonzero;"/><path d="M35388.9,29048.3l-330.057,-1509.12c-359.409,505.966 -399.342,2236.92 -252.78,3421.78c120,971.799 299.704,1223.99 423.102,1325.42c36.54,21.363 56.504,39.932 56.504,39.932l-39.933,-3275.21l143.164,-2.794Z" style="fill:#6791c9;fill-rule:nonzero;"/><path d="M34433,27526c612.596,1650.89 306.293,1983.74 1112.17,3921.55c450.263,1082.22 1318.04,1897.08 1318.04,1897.08c-0,-0 699.05,179.705 1577.61,119.803c878.755,-59.901 1522.1,-120.201 1522.1,-120.201c0,0 -922.881,-558.68 -962.814,-938.058c-39.937,-379.574 -213.249,-1884.5 12.977,-2949.75c176.911,-831.63 -552.09,-1663.47 -552.09,-1663.47l-1218.2,-59.902l-2809.78,-207.058Z" style="fill:#75a1de;fill-rule:nonzero;"/><path d="M38491.4,32673.2c-45.127,-0 -136.575,-10.783 -290.326,-34.542c-772.327,-119.803 -1597.79,-1025.12 -1957.18,-1610.95c-359.409,-585.837 -708.439,-885.944 -732.198,-972.001c-28.753,-104.027 -9.182,-143.366 52.915,-143.366c168.122,0 647.334,288.328 1318.43,356.414c266.964,27.157 542.885,33.948 787.705,33.948c124.993,-0 241.801,-1.797 345.229,-3.594c103.434,-1.798 193.286,-3.595 264.166,-3.595c197.68,0 249.392,13.778 40.733,79.669c-505.962,159.736 -1890.69,-79.87 -1637.73,426.097c297.735,595.421 649.352,1171.67 1158.52,1517.9c266.567,181.306 832.037,354.019 649.735,354.019Z" style="fill:#6e99d3;fill-rule:nonzero;"/><path d="M37545.7,26930.2c8.209,-398.547 105.446,-1078.83 219.263,-1344.39c93.245,-217.443 -292.319,-490.594 -518.368,-628.166l-191.067,-8.189c-29.151,63.495 -56.509,126.794 -82.065,189.288c-201.868,1325.42 402.342,1873.12 690.468,1983.34c124.59,47.523 263.964,52.914 383.168,42.132c-178.108,-63.294 -351.425,-135.176 -501.399,-234.013Z" style="fill:#e38540;fill-rule:nonzero;"/><path d="M37180.1,27519.4c-69.285,-0 -141.368,-8.386 -212.67,-25.758c-166.703,-40.532 -564.052,-194.881 -656.501,-749.569c-2.195,-11.98 5.99,-23.362 17.97,-25.355c11.98,-1.999 23.362,5.99 25.36,17.97c88.252,528.729 465.435,675.488 623.57,714.223c245.798,59.901 506.374,4.394 606.41,-128.985c80.268,-107.027 32.14,-334.849 31.541,-337.246c-2.592,-11.783 4.994,-23.562 16.974,-26.16c11.784,-2.592 23.563,4.994 26.16,16.773c2.195,10.183 52.91,249.99 -39.334,372.99c-81.868,109.217 -250.589,171.117 -439.48,171.117Z" style="fill:#f5ce5c;fill-rule:nonzero;"/><path d="M39059.3,25391.1c-135.378,715.425 -448.265,1292.47 -977.795,1183.65c-529.328,-108.82 -1086.01,-864.379 -939.476,-1577.41c146.38,-713.226 694.479,-1203.22 1224.01,-1094.4c529.333,108.825 873.766,535.122 693.262,1488.16Z" style="fill:#f09959;fill-rule:nonzero;"/><path d="M40943.7,28923.9c-0,-0 -978.59,2629.48 -1025.12,2902.43c-46.723,272.95 46.527,446.065 73.08,446.065c26.759,0 858.787,-1424.46 858.787,-1424.46l93.25,-1924.04Z" style="fill:#f09959;fill-rule:nonzero;"/><path d="M40983.7,28808.5c79.866,-266.164 -44.327,-603.606 -44.327,-603.606l355.015,44.523l-310.688,559.083Z" style="fill:#f09959;fill-rule:nonzero;"/><path d="M41373.9,28354.4l-990.772,0c-60.102,0 -103.227,-58.104 -86.061,-115.61l625.376,-2096.95c11.382,-37.939 46.326,-64.095 86.057,-64.095l990.772,0c60.098,0 103.231,57.904 86.056,115.61l-625.371,2096.75c-11.377,38.141 -46.321,64.296 -86.057,64.296Z" style="fill:#4381db;fill-rule:nonzero;"/><path d="M41498,28354.4l-990.574,0c-60.103,0 -103.429,-58.104 -86.258,-115.61l625.371,-2096.95c11.382,-37.939 46.527,-64.095 86.259,-64.095l990.57,0c60.102,0 103.433,57.904 86.263,115.61l-625.377,2096.75c-11.377,38.141 -46.517,64.296 -86.254,64.296Z" style="fill:#2e5b9a;fill-rule:nonzero;"/><path d="M40780.8,26834.5c-105.624,380.576 -176.71,693.06 -158.739,698.054c17.97,4.993 118.006,-299.508 223.629,-680.084c105.628,-380.571 176.714,-693.06 158.744,-698.049c-17.774,-4.993 -118.011,299.508 -223.634,680.079Z" style="fill:#9cbeed;fill-rule:nonzero;"/><path d="M41454.1,28977.2c29.351,-345.828 328.859,-669.895 442.873,-773.328c34.542,-31.547 54.108,-76.075 53.71,-122.799c-1.6,-172.315 -9.383,-579.247 -44.926,-626.766c-45.324,-60.501 -158.94,-839.623 -211.855,-809.471c-52.91,30.349 15.177,711.031 15.177,711.031c-0,0 -128.587,-60.5 -196.674,-90.652c-68.091,-30.349 -348.027,279.74 -348.027,279.74c-0,-0 -131.185,331.658 227.625,189.691c426.102,-168.726 106.424,301.703 -177.509,603.405c-234.019,248.793 -34.94,303.701 -34.94,303.701l189.088,-7.586l85.458,343.034Z" style="fill:#f09959;fill-rule:nonzero;"/><path d="M41346.9,29249.2c-31.35,0 -66.893,-4.792 -102.829,-15.972c-92.052,-28.551 -252.986,-121.399 -295.516,-419.311c-1.797,-11.98 6.589,-23.16 18.771,-24.957c11.98,-1.601 23.16,6.589 24.957,18.766c36.343,254.783 159.937,347.63 257.179,380.777c79.467,27.152 145.158,14.573 161.734,5.391c0.997,-7.59 5.99,-14.376 13.772,-17.371c11.185,-4.596 24.167,0.795 28.557,12.177c4.394,11.185 1.797,23.563 -6.987,33.147c-15.378,16.772 -52.915,27.353 -99.638,27.353Z" style="fill:#f5ce5c;fill-rule:nonzero;"/><path d="M41309.7,29163.7c-29.553,-0 -60.103,-2.195 -89.455,-6.589c-171.117,-24.761 -285.926,-111.618 -314.684,-238.207c-2.794,-11.98 4.792,-23.764 16.576,-26.558c11.98,-2.597 23.759,4.792 26.357,16.772c27.554,120.8 137.371,172.119 224.631,193.88c122.395,30.55 237.406,11.784 250.987,-4.193c5.99,-10.581 19.168,-13.974 29.951,-7.984c10.581,5.99 14.18,19.768 8.185,30.349c-16.37,29.15 -80.666,42.53 -152.548,42.53Z" style="fill:#f5ce5c;fill-rule:nonzero;"/><path d="M38524.1,24941.3c-49.919,0 -101.832,27.953 -147.554,80.268c-56.312,64.095 -96.044,155.744 -111.618,257.778c-30.746,200.867 45.123,386.164 165.927,404.733c120.604,18.57 248.592,-135.775 279.338,-336.647c30.751,-200.871 -45.123,-386.163 -165.927,-404.733c-6.585,-1.001 -13.375,-1.399 -20.166,-1.399Zm-72.481,822.247c-10.782,-0 -21.765,-0.997 -32.543,-2.593c-168.127,-25.757 -269.557,-242.404 -231.22,-493.392c17.966,-116.607 64.095,-222.234 129.987,-297.308c70.286,-80.071 154.943,-117.21 238.206,-104.43c168.122,25.758 269.557,242.4 231.024,493.388c-35.946,234.814 -179.508,404.335 -335.454,404.335Z" style="fill:#fff;fill-rule:nonzero;"/><path d="M39094,25032.5c-64.895,0 -152.951,124.792 -182.302,315.48c-30.148,198.073 21.368,347.031 86.656,357.013c65.695,9.786 159.141,-116.808 189.494,-314.881c14.377,-93.25 11.176,-183.298 -8.592,-252.985c-17.366,-61.301 -45.923,-99.236 -77.867,-104.028c-2.401,-0.402 -4.993,-0.599 -7.389,-0.599Zm-88.453,731.997c-5.392,-0 -10.787,-0.403 -15.977,-1.198c-110.018,-16.974 -169.723,-203.268 -135.977,-424.304c33.948,-221.037 146.96,-381.372 256.58,-364.202c56.71,8.784 101.234,60.702 125.592,146.16c22.163,77.671 25.762,176.508 10.183,278.144c-32.145,210.255 -135.775,365.4 -240.401,365.4Z" style="fill:#fff;fill-rule:nonzero;"/><path d="M38267.6,25101.8c-3.393,0 -6.992,-0.599 -10.586,-1.596l-1304.88,-372.788c-20.544,-5.789 -32.525,-27.354 -26.731,-48.123c5.99,-20.563 27.55,-32.543 48.118,-26.754l1304.86,372.985c20.568,5.794 32.544,27.358 26.755,47.921c-4.994,17.175 -20.568,28.355 -37.537,28.355Z" style="fill:#fff;fill-rule:nonzero;"/><path d="M39199.6,24290.5c-2019.28,1189.45 -2130.3,390.558 -2130.3,390.558l119.803,-1136.13l1198.23,66.692l812.265,678.881Z" style="fill:#303c60;fill-rule:nonzero;"/><path d="M37225.6,24945c46.92,201.068 -17.17,387.961 -143.385,417.514c-126.172,29.351 -266.342,-109.62 -313.462,-310.693c-46.925,-201.068 17.17,-387.961 143.341,-417.514c126.215,-29.351 266.385,109.822 313.506,310.693Z" style="fill:#f09959;fill-rule:nonzero;"/><path d="M37087.3,25209.2c0,43.924 -35.744,79.467 -79.669,79.467c-43.709,0 -79.453,-35.543 -79.453,-79.467c0,-43.93 35.744,-79.473 79.453,-79.473c43.925,0 79.669,35.543 79.669,79.473Z" style="fill:#f5ce5c;fill-rule:nonzero;"/><path d="M52665.1,33706.6l-20199.4,-0c-102.231,-0 -185.096,-82.866 -185.096,-185.096c0,-102.231 82.865,-185.096 185.096,-185.096l20199.4,0c102.23,0 185.095,82.865 185.095,185.096c0,102.23 -82.865,185.096 -185.095,185.096Z" style="fill:#2e5b9a;fill-rule:nonzero;"/><path d="M37253.8,33300.7c-0,-0 -761.349,9.781 -771.134,77.072c-9.584,67.487 28.954,96.441 298.913,144.76c269.754,48.122 3305.96,67.492 3334.91,48.122c28.954,-19.168 915.693,-231.421 915.693,-231.421l-2130.09,-38.533l-1648.29,-0Z" style="fill:#dbe5eb;fill-rule:nonzero;"/><path d="M37668.5,32794c-0,-0 545.904,-239.606 705.64,-133.183c159.736,106.424 621.375,594.822 621.375,594.822l-1327.02,-461.639Z" style="fill:#f09959;fill-rule:nonzero;"/><path d="M38965.4,33298.9c-10.385,12.977 -25.959,18.368 -34.546,11.98l-1123.35,-836.225c-60.5,-45.128 -89.253,-114.014 -60.102,-150.353c29.15,-36.343 102.633,-23.362 159.735,25.758l1062.26,912.496c8.19,7.189 6.388,23.362 -3.992,36.344Z" style="fill:#2e5b9a;fill-rule:nonzero;"/><path d="M36017.4,32691.9c0,-0 905.51,359.409 1011.94,359.409c106.625,-0 701.246,-399.342 900.914,-346.231c199.674,53.312 1176.07,545.904 1149.52,585.837c-26.557,39.933 -306.298,133.183 -1131.74,106.625c-825.443,-26.755 -2170.23,-146.558 -2170.23,-146.558l239.606,-559.082Z" style="fill:#f09959;fill-rule:nonzero;"/><path d="M47346.8,33351.8l-3690.14,-0c-54.505,-0 -99.235,-44.725 -99.235,-99.235l-0,-582.243c-0,-54.511 44.73,-99.236 99.235,-99.236l3690.14,0c136.978,0 249.191,112.016 249.191,248.99l-0,282.533c-0,136.979 -112.213,249.191 -249.191,249.191Z" style="fill:#f37168;fill-rule:nonzero;"/><path d="M47061.7,32703.1l-3503.64,0c-24.56,40.733 -38.936,88.257 -38.936,138.972l-0,238.609c-0,50.715 14.376,98.239 38.936,138.972l3503.64,-0c124.394,-0 226.227,-101.833 226.227,-226.227l-0,-64.094c-0,-124.399 -101.833,-226.232 -226.227,-226.232Z" style="fill:#f2e5de;fill-rule:nonzero;"/><path d="M47223.2,32571.1l-2806.19,0c-36.742,0 -66.889,-30.152 -66.889,-67.089l0,-338.248c0,-36.937 30.147,-67.089 66.889,-67.089l2806.19,-0c92.445,-0 168.122,75.677 168.122,168.323l-0,135.78c-0,92.646 -75.677,168.323 -168.122,168.323Z" style="fill:#7bcee8;fill-rule:nonzero;"/><path d="M46988.9,32178.7l-2638.26,0c-18.569,24.56 -29.351,53.313 -29.351,84.059l-0,144.166c-0,30.746 10.782,59.499 29.351,84.059l2638.26,-0c93.844,-0 170.322,-61.498 170.322,-136.772l-0,-38.74c-0,-75.274 -76.478,-136.772 -170.322,-136.772Z" style="fill:#f2e5de;fill-rule:nonzero;"/><path d="M47703.4,22548.8l-2992.88,0c-95.445,0 -144.967,-78.073 -110.42,-173.513l452.659,-1243.56c34.743,-95.444 141.161,-173.518 236.606,-173.518l2992.88,0c95.444,0 145.163,78.074 110.42,173.518l-452.659,1243.56c-34.743,95.44 -141.167,173.513 -236.607,173.513Z" style="fill:#9ec8ff;fill-rule:nonzero;"/><path d="M47601.8,22418.6l-2695.17,0c-82.664,0 -125.793,-67.689 -95.641,-150.353l374.783,-1029.51c30.152,-82.664 122.199,-150.352 204.863,-150.352l2695.17,-0c82.659,-0 125.793,67.688 95.641,150.352l-374.782,1029.51c-29.951,82.664 -122.204,150.353 -204.864,150.353Z" style="fill:#fff;fill-rule:nonzero;"/><path d="M45898.2,22476.5c-248.189,655.323 -630.361,857.79 -630.361,857.79c0,-0 271.752,-375.985 232.418,-559.083c-39.333,-183.097 -184.894,-260.37 -184.894,-260.37l582.837,-38.337Z" style="fill:#9ec8ff;fill-rule:nonzero;"/><path d="M47818.4,21454.8l-1737.35,-0c-28.557,-0 -43.331,-23.362 -32.951,-51.913l0.8,-2.396c10.385,-28.552 42.133,-51.914 70.684,-51.914l1737.35,0c28.551,0 43.33,23.362 32.946,51.914l-0.801,2.396c-10.384,28.551 -42.127,51.913 -70.679,51.913Z" style="fill:#9ec8ff;fill-rule:nonzero;"/><path d="M47737.9,21676.4l-1737.34,0c-28.556,0 -43.335,-23.361 -32.951,-51.913l0.801,-2.396c10.384,-28.355 42.132,-51.716 70.683,-51.716l1737.35,-0c28.551,-0 43.325,23.361 32.941,51.716l-0.796,2.396c-10.379,28.552 -42.132,51.913 -70.683,51.913Z" style="fill:#9ec8ff;fill-rule:nonzero;"/><path d="M47646.4,21927l-1737.34,0c-28.551,0 -43.33,-23.361 -32.946,-51.913l0.796,-2.396c10.385,-28.355 42.334,-51.716 70.684,-51.716l1737.54,-0c28.36,-0 43.134,23.361 32.749,51.716l-0.8,2.396c-10.38,28.552 -42.132,51.913 -70.684,51.913Z" style="fill:#9ec8ff;fill-rule:nonzero;"/><path d="M45810,21633.1c-68.887,188.887 -249.588,342.038 -404.134,342.038c-154.345,0 -223.634,-153.151 -154.949,-342.038c68.887,-189.092 249.79,-342.238 404.139,-342.238c154.345,-0 223.629,153.146 154.944,342.238Z" style="fill:#9ec8ff;fill-rule:nonzero;"/><path d="M46002.2,25782.5l-148.153,0c-31.35,0 -47.524,-25.36 -36.142,-56.71l44.523,-122.199c11.386,-31.345 45.928,-56.705 77.278,-56.705l148.354,-0c31.35,-0 47.524,25.36 35.941,56.705l-44.327,122.199c-11.381,31.35 -46.124,56.71 -77.474,56.71Z" style="fill:#9ec8ff;fill-rule:nonzero;"/><path d="M46478,25782.5l-148.355,0c-31.35,0 -47.528,-25.36 -36.142,-56.71l44.524,-122.199c11.386,-31.345 46.124,-56.705 77.277,-56.705l148.355,-0c31.35,-0 47.519,25.36 36.142,56.705l-44.528,122.199c-11.382,31.35 -45.923,56.71 -77.273,56.71Z" style="fill:#9ec8ff;fill-rule:nonzero;"/><path d="M46953.9,25782.5l-148.162,0c-31.346,0 -47.519,-25.36 -36.138,-56.71l44.529,-122.199c11.376,-31.345 45.923,-56.705 77.268,-56.705l148.359,-0c31.345,-0 47.524,25.36 35.941,56.705l-44.327,122.199c-11.381,31.35 -46.124,56.71 -77.47,56.71Z" style="fill:#9ec8ff;fill-rule:nonzero;"/><path d="M44116.5,24842.8c-0,-0 -2992.88,-0 -2992.88,-0c-95.445,-0 -144.962,-78.069 -110.219,-173.513l452.453,-1243.56c34.743,-95.445 141.368,-173.513 236.616,-173.513l2992.88,-0c95.445,-0 145.163,78.068 110.42,173.513l-452.654,1243.56c-34.547,95.444 -141.171,173.513 -236.616,173.513Z" style="fill:#9ec8ff;fill-rule:nonzero;"/><path d="M44014.9,24712.6l-2695.17,0c-82.664,0 -125.592,-67.689 -95.641,-150.353l374.782,-1029.51c30.147,-82.664 122.4,-150.352 205.06,-150.352l2695.17,-0c82.664,-0 125.591,67.688 95.641,150.352l-374.783,1029.51c-30.152,82.664 -122.395,150.353 -205.064,150.353Z" style="fill:#fff;fill-rule:nonzero;"/><path d="M41275.4,24770.3c-229.025,655.524 5.794,857.991 5.794,857.991c0,0 1.797,-375.98 174.51,-559.082c172.718,-183.098 374.385,-260.169 374.385,-260.169l-554.689,-38.74Z" style="fill:#9ec8ff;fill-rule:nonzero;"/><path d="M43283.7,23835.5l-1466.19,-0c-26.16,-0 -39.736,-21.565 -30.353,-47.72l3.991,-10.586c9.585,-26.155 38.735,-47.72 65.097,-47.72l1465.99,0c26.161,0 39.933,21.565 30.349,47.72l-3.791,10.586c-9.584,26.155 -38.936,47.72 -65.091,47.72Z" style="fill:#9ec8ff;fill-rule:nonzero;"/><path d="M43203,24057.1l-1466.19,-0c-26.156,-0 -39.933,-21.364 -30.349,-47.72l3.992,-10.586c9.383,-26.156 38.735,-47.72 65.091,-47.72l1465.99,-0c26.155,-0 39.933,21.564 30.348,47.72l-3.79,10.586c-9.584,26.356 -38.936,47.72 -65.096,47.72Z" style="fill:#9ec8ff;fill-rule:nonzero;"/><path d="M43111.8,24307.7l-1466.19,-0c-26.155,-0 -39.731,-21.368 -30.348,-47.725l3.992,-10.581c9.589,-26.155 38.739,-47.72 65.091,-47.72l1466,-0c26.15,-0 39.932,21.565 30.348,47.72l-3.795,10.581c-9.584,26.357 -38.936,47.725 -65.096,47.725Z" style="fill:#9ec8ff;fill-rule:nonzero;"/><path d="M46842.7,26249.9l-2888.65,-0c-51.716,-0 -78.677,-21.363 -59.901,-47.72l7.782,-10.581c18.771,-26.16 76.477,-47.725 128.189,-47.725l2888.65,0c51.712,0 78.471,21.565 59.705,47.725l-7.591,10.581c-18.77,26.357 -76.472,47.72 -128.189,47.72Z" style="fill:#9ec8ff;fill-rule:nonzero;"/><path d="M46684.1,26616.3l-2888.65,-0c-51.717,-0 -78.672,-21.565 -59.902,-47.725l7.586,-10.581c18.967,-26.357 76.674,-47.72 128.386,-47.72l2888.46,-0c51.712,-0 78.668,21.363 59.902,47.72l-7.591,10.581c-18.766,26.16 -76.472,47.725 -128.189,47.725Z" style="fill:#9ec8ff;fill-rule:nonzero;"/><path d="M43793,24394.6l-212.057,-0c-95.238,-0 -144.956,-78.073 -110.214,-173.518l157.738,-433.687c34.743,-95.44 141.372,-173.513 236.812,-173.513l212.052,-0c95.444,-0 144.961,78.073 110.218,173.513l-157.737,433.687c-34.743,95.445 -141.372,173.518 -236.812,173.518Z" style="fill:#9ec8ff;fill-rule:nonzero;"/><path d="M51190.6,32776.9c384.965,-2112.13 300.705,-2867.69 -730.401,-4591.85c-1031.11,-1724.17 -1129.54,-4932.68 -1518.11,-3991.64c-388.761,941.053 -336.446,3304.37 881.755,4451.09c1218,1146.91 1381.92,1660.47 1454.4,2127.1c72.285,466.829 -174.112,1901.47 -174.112,1901.47l86.46,103.831Z" style="fill:#9cd499;fill-rule:nonzero;"/><path d="M51383.7,31415.8c0.599,-8.184 1.203,-16.173 1.802,-24.157c-22.561,-173.316 -144.962,-1064.65 -314.287,-1416.27c-187.889,-390.357 -1012.13,-1069.84 -1243.35,-1922.84c-231.421,-853.199 -598.019,-1514.31 -838.621,-2053.22c-317.675,-711.434 -143.965,-1657.28 118.605,-1964.37c-6.388,-4.395 -12.781,-7.189 -19.169,-8.986l-87.255,52.714c-19.173,27.353 -38.739,65.292 -59.106,114.809c-388.761,941.053 -336.445,3304.37 881.554,4451.09c1218.2,1146.91 1382.12,1660.47 1454.61,2127.1c19.369,125.989 15.775,322.466 -0,542.108l105.225,102.029Z" style="fill:#74b570;fill-rule:nonzero;"/><path d="M50664.4,32404.4c286.329,-2482.32 190.884,-3341.51 -362.802,-5327.45c-553.692,-1985.74 3055.17,-6511.1 2940.57,-5728.17c-114.614,782.716 -496.589,2730.51 -1489.35,3952.5c-992.971,1221.99 -1069.24,2214.96 -878.357,3265.23c190.889,1050.07 -38.136,3494.26 -38.136,3494.26l-114.613,439.079l-57.304,-95.445l-0,-0.01Z" style="fill:#9cd499;fill-rule:nonzero;"/><path d="M50796.2,31372.9c-0,0 -0.8,0 -0.8,0c-13.375,-0.599 -23.558,-11.582 -23.161,-24.957c0.403,-7.591 28.753,-772.73 14.578,-1400.9c-14.376,-628.764 -184.698,-1706 -288.328,-2075.99c-94.443,-337.044 -213.053,-1467.19 363.004,-2634.07c286.928,-581.241 515.953,-948.84 833.029,-1457.4c313.285,-502.77 703.243,-1128.34 1321.83,-2230.53c6.393,-11.583 20.97,-15.776 32.553,-9.187c11.578,6.393 15.771,20.966 9.182,32.548c-619.181,1103.18 -1009.34,1729.36 -1323.02,2232.53c-316.285,507.366 -544.706,874.165 -830.638,1453.21c-569.462,1153.5 -452.855,2267.87 -359.806,2599.93c104.228,372.386 275.748,1455.8 289.923,2087.97c14.376,629.565 -14.175,1396.1 -14.376,1403.89c-0.403,12.781 -11.185,22.964 -23.961,22.964Z" style="fill:#74b570;fill-rule:nonzero;"/><path d="M50759.8,33296.1c171.922,-1661.27 200.675,-842.014 -513.155,-3099.1c-816.654,-2583.35 2097.95,-4876.8 2575.37,-3941.12c477.415,935.662 1031.11,3876.23 821.053,3780.79c-210.058,-95.445 -1603.97,-2825.96 -1642.1,-2711.35c-38.14,114.412 -1890.3,1069.24 -1814.02,2043.04c76.477,973.803 782.913,2520.46 782.913,2520.46l-19.169,1426.45l-190.889,-19.169Z" style="fill:#9cd499;fill-rule:nonzero;"/><path d="M50786.2,33231.2c0,0 140.97,14.175 140.97,14.175l18.766,-1351.58c-44.126,-97.438 -709.033,-1583.99 -782.711,-2523.65c-60.103,-766.337 1034.9,-1509.12 1561.23,-1866.13c124.998,-84.864 243.2,-164.93 253.982,-187.094c3.594,-10.384 12.781,-17.97 23.961,-18.967c46.325,-4.395 137.778,146.356 655.126,1075.43c371.39,666.704 878.756,1578.01 992.966,1640.1c8.784,-14.176 34.743,-92.445 -15.775,-495.784c-36.536,-291.519 -103.429,-675.09 -188.489,-1080.02c-202.664,-964.415 -444.072,-1775.88 -645.542,-2170.83c-110.813,-217.442 -375.975,-259.575 -727.2,-115.61c-951.835,390.161 -2410.24,2121.11 -1803.84,4038.56c191.287,605.207 326.665,978.59 425.497,1251.34c222.638,614.791 222.638,614.791 141.373,1331.21c-14.779,130.782 -31.552,278.14 -50.318,458.846Zm164.528,64.694l-2.396,-0.202l-190.884,-19.168c-6.393,-0.599 -12.182,-3.795 -16.174,-8.588c-3.992,-4.988 -5.995,-11.381 -5.194,-17.567c19.767,-192.088 38.135,-353.621 52.914,-483.406c79.866,-705.443 79.866,-705.443 -138.971,-1309.65c-99.039,-272.95 -234.416,-646.937 -426.097,-1252.94c-143.37,-453.455 -180.303,-923.284 -110.022,-1396.51c61.895,-417.116 205.065,-828.438 425.497,-1222.39c378.185,-675.689 973.204,-1256.13 1515.91,-1478.57c377.178,-154.546 664.509,-104.228 788.102,138.171c202.669,397.148 444.872,1210.21 647.938,2175.23c117.407,556.883 289.723,1526.69 191.685,1628.92c-13.183,13.974 -31.748,17.371 -49.919,9.182c-114.609,-52.115 -493.987,-721.612 -1017.33,-1661.67c-262.566,-471.425 -533.325,-957.825 -606.4,-1041.69c-29.553,32.749 -103.831,84.063 -257.975,188.69c-518.948,351.823 -1598.37,1084.02 -1540.47,1822.8c75.073,958.228 773.726,2496.9 780.718,2512.27c1.595,3.196 2.195,6.79 2.195,10.385l-19.169,1382.92c0,6.79 -2.995,13.178 -7.988,17.572c-4.39,3.992 -9.982,6.192 -15.973,6.192Z" style="fill:#74b570;fill-rule:nonzero;"/><path d="M51360.3,33365c-0,0 -866.574,0 -866.574,0c-59.504,0 -112.821,-33.942 -118.409,-76.075l-291.121,-2188.8c-13.581,-101.032 53.312,-186.092 148.757,-186.092l1388.12,-0c95.44,-0 162.127,85.06 148.752,186.092l-291.122,2188.8c-5.592,42.133 -58.904,76.075 -118.403,76.075Z" style="fill:#7bcee8;fill-rule:nonzero;"/><path d="M51257.2,33289.5l-124.001,0c-60.697,0 -109.62,-35.14 -108.623,-78.868l43.929,-1890.69c2.2,-94.242 79.272,-173.312 171.319,-173.312l188.091,0c92.052,0 158.94,79.07 148.958,173.312l-200.871,1890.69c-4.793,43.728 -58.105,78.868 -118.802,78.868Z" style="fill:#a2dff2;fill-rule:nonzero;"/><path d="M50333.8,30226l15.373,-26.557c-56.111,-202.669 -103.035,-404.537 -132.986,-593.227c30.952,356.817 117.613,619.784 117.613,619.784Z" style="fill:#74b570;fill-rule:nonzero;"/><path d="M50333.8,28626c-56.312,140.768 -90.652,287.527 -109.423,432.287c255.779,-839.618 1680.04,-1597.57 1772.49,-1725.56l16.571,-32.151c-535.122,-149.351 -1390.51,602.413 -1679.63,1325.42Z" style="fill:#74b570;fill-rule:nonzero;"/><path d="M53644.7,29985c-10.782,-0 -20.563,-7.39 -23.361,-18.369l-258.775,-1052.87c-202.069,-825.04 -453.651,-1851.95 -735.993,-2309c-46.517,-75.275 -249.79,-177.309 -537.715,-156.942c-389.158,27.554 -1139.53,296.512 -1791.06,1787.66c-5.19,12.177 -19.365,17.77 -31.547,12.58c-11.98,-5.391 -17.568,-19.571 -12.378,-31.748c661.711,-1514.31 1431.65,-1787.86 1831.59,-1816.21c311.085,-21.968 527.732,91.649 582.041,179.503c286.133,463.638 528.13,1451.21 741.586,2322.78l258.774,1052.87c3.192,12.776 -4.595,25.758 -17.376,28.949c-1.993,0.599 -3.992,0.801 -5.789,0.801Z" style="fill:#74b570;fill-rule:nonzero;"/><path d="M52885.6,28611.4c0,-0 -2.794,-0.202 -2.794,-0.202c-12.977,-1.595 -22.561,-13.374 -20.965,-26.553c0.997,-8.587 98.042,-874.164 -129.589,-1784.27c-3.191,-12.776 4.591,-25.757 17.573,-29.15c12.781,-2.995 25.758,4.792 28.954,17.572c229.821,918.89 131.779,1792.65 130.787,1801.44c-1.601,12.181 -11.784,21.167 -23.966,21.167Z" style="fill:#74b570;fill-rule:nonzero;"/><path d="M52618.2,28076.5l-2.794,-0.201c-13.183,-1.596 -22.566,-13.576 -20.966,-26.553c0.796,-7.989 92.843,-800.486 28.748,-1455.21c-1.198,-13.178 8.387,-24.957 21.57,-26.155c12.977,-1.601 24.756,8.185 26.15,21.363c64.497,660.115 -27.952,1457.61 -28.949,1465.59c-1.394,12.182 -11.779,21.167 -23.759,21.167Z" style="fill:#74b570;fill-rule:nonzero;"/><path d="M51707.2,23825.7c-8.99,0 -17.572,-4.989 -21.569,-13.576c-5.789,-11.98 -0.795,-26.155 11.185,-31.949c6.785,-3.393 691.862,-338.444 1088.01,-1074.23c6.383,-11.583 20.961,-15.977 32.543,-9.584c11.583,6.186 15.972,20.764 9.786,32.347c-403.938,749.967 -1102.59,1091.2 -1109.58,1094.6c-3.393,1.601 -6.987,2.396 -10.38,2.396Z" style="fill:#74b570;fill-rule:nonzero;"/><path d="M51201.2,24693.3c-10.978,-0 -20.965,-7.787 -23.357,-19.169c-2.597,-12.977 5.588,-25.556 18.565,-28.355c5.593,-1.198 566.87,-121.398 1233.18,-660.114c10.385,-8.387 25.36,-6.786 33.741,3.397c8.387,10.38 6.791,25.355 -3.589,33.741c-676.293,546.705 -1247.95,668.703 -1253.54,669.901l-4.994,0.599Z" style="fill:#74b570;fill-rule:nonzero;"/><path d="M50782.8,25532.3c-9.786,-0 -15.574,-0.398 -17.376,-0.599c-13.174,-0.997 -22.959,-12.378 -21.963,-25.557c0.796,-13.379 12.58,-23.16 25.557,-22.163c3.795,0.201 390.558,21.363 1010.34,-443.473c10.782,-7.984 25.758,-5.789 33.54,4.792c7.993,10.586 5.794,25.561 -4.792,33.545c-569.064,426.901 -941.451,453.455 -1025.31,453.455Z" style="fill:#74b570;fill-rule:nonzero;"/><path d="M3538.51,33098.5c-0,0 -5519.81,-9941.07 -1387.98,-12260.6c1585.18,-889.936 3076.76,-603.007 4590.48,-316.079c1634.13,309.691 3294.06,619.382 5125.46,-551.492c4551.38,-2909.78 8001.69,-961.822 10467.7,2660.42c1850.76,2718.13 2830.95,4476.44 3759.22,6592.95c1445.83,3296.38 -1619.33,4048.35 -1619.33,4048.35l-20935.5,-173.518l-0.024,0.009Z" style="fill:#8fc1ed;fill-opacity:0.65;fill-rule:nonzero;"/><path d="M18790,33163.3l-2516.46,4.394c-35.941,0.197 -65.892,-36.343 -68.092,-81.068c-1.993,-44.725 24.541,-83.661 60.304,-86.857l2506.48,-225.23c203.468,-18.172 388.761,60.5 394.152,176.709c5.396,116.209 -172.114,211.654 -376.378,212.052Z" style="fill:#75a1de;fill-rule:nonzero;"/><path d="M15531.6,32806.9c86.738,-21.565 245.879,-496.383 245.879,-496.383c0,0 -1817.36,-612.792 -2588.11,-1012.14l-1073.78,1242.16c1379.29,343.432 3351.67,282.534 3416,266.361Z" style="fill:#f09959;fill-rule:nonzero;"/><path d="M15252.1,32122.6c447.124,115.609 1158.75,-173.514 1291.74,-144.56c132.977,28.753 688.868,318.077 821.844,462.637c132.982,144.564 604.407,592.828 519.749,621.581c-84.662,28.949 -676.887,-404.738 -749.368,-419.114c-72.481,-14.573 -108.824,86.661 -701.049,202.27c-592.225,115.61 -1308.23,-183.102 -1308.23,-183.102l125.314,-539.712Z" style="fill:#f09959;fill-rule:nonzero;"/><path d="M15963.6,32570.7c0,-0 689.069,-173.513 773.53,-144.559c84.658,28.949 598.416,144.559 955.027,549.493c-338.444,-101.233 -822.046,-130.183 -955.027,-130.183c-133.005,0 -773.53,-274.751 -773.53,-274.751Z" style="fill:#e38540;fill-rule:nonzero;"/><path d="M16128.3,32281.6c294.117,375.981 1041.09,491.59 1154.11,621.778c113.209,130.188 -271.953,74.877 -475.22,57.707c-517.152,-43.331 -878.559,166.325 -1297.27,36.338c-418.692,-130.187 -513.274,-441.076 -513.274,-441.076l1131.66,-274.747Z" style="fill:#f09959;fill-rule:nonzero;"/><path d="M10614.4,25608.6c-1327.06,652.127 -1934.28,1129.14 -2346.32,2907.42c-412.027,1778.28 -433.711,3469.9 -216.868,4727.63c1473,42.731 5694.82,201.667 5694.82,201.667c-0,-0 -80.407,-2582.36 -511.78,-4625.79c-412.041,-1951.59 -997.562,-2710.74 -1496.36,-3057.58c-498.779,-347.031 -1123.48,-153.348 -1123.48,-153.348l-0.014,0Z" style="fill:#a2dff2;fill-rule:nonzero;"/><path d="M10935.5,31660.4c-475.695,-477.017 -346.969,-3708.3 -1127.68,-5161.31l-1452.97,2710.75l-439.241,2255.49c-3.714,651.528 45.046,1252.74 135.617,1778.28c5.195,29.75 32.51,49.92 62.12,47.323c1199.49,-105.029 1266.3,-626.369 5097.72,-1204.62c90.432,-13.576 -1951.85,-101.234 -2275.56,-425.9l0.005,-0.01Z" style="fill:#96cfe0;fill-rule:nonzero;"/><path d="M10488.1,25609.2c-168.146,392.355 173.494,906.109 713.289,1310.85c539.751,404.934 867.474,183.097 838.559,-134.98c-28.911,-318.077 -57.822,-655.323 -183.136,-857.79c-125.314,-202.467 -1127.73,-375.98 -1127.73,-375.98c-0,-0 -212.071,-9.584 -240.982,57.903Z" style="fill:#fff;fill-rule:nonzero;"/><path d="M11129.1,23642.8l-514.674,1965.77c-50.615,131.582 -36.718,279.141 37.498,398.944c209.579,338.443 660.436,988.974 983.205,902.917c433.768,-115.61 144.583,-925.282 144.583,-925.282l578.327,-2038.85l-1228.94,-303.499Z" style="fill:#f09959;fill-rule:nonzero;"/><path d="M11917.6,23764l-513.854,-207.859l-154.345,401.34c70.804,1708.59 288.467,2405.85 622.655,2600.33c17.97,-263.567 -92.387,-572.659 -92.387,-572.659l419.291,-1518.3l-281.36,-702.846Z" style="fill:#e38540;fill-rule:nonzero;"/><path d="M13344.8,24534.3c-100.198,678.488 -367.579,1259.93 -852.26,1188.45c-484.703,-71.68 -1316.86,-639.547 -1216.64,-1318.03c100.218,-678.684 1188.21,-1491.15 1672.89,-1419.67c484.685,71.681 496.243,870.566 396.011,1549.25Z" style="fill:#f09959;fill-rule:nonzero;"/><path d="M9656.04,27084.7c38.634,-154.148 -578.629,-246.195 -676.83,-121.403c-971.061,1234.97 -2481.52,4571.29 -2142.39,5174.29c390.356,693.861 4595.9,-217.443 4682.66,-239.204c86.718,-21.564 -151.829,-672.296 -151.829,-672.296c0,-0 -2356.69,43.527 -2754.3,-224.032c1236.13,-2320.38 749.847,-2749.68 1042.69,-3917.36Z" style="fill:#f09959;fill-rule:nonzero;"/><path d="M9417.49,26390.7c-1020.04,457.25 -2125.24,3426.57 -2125.24,3426.57c-0,-0 260.231,64.895 1106,346.83c351.56,117.206 692.261,226.03 692.261,226.03c-0,-0 809.648,-1050.67 1064.31,-1874.12c328.059,-1060.65 -108.422,-2407.24 -737.331,-2125.31Z" style="fill:#a2dff2;fill-rule:nonzero;"/><path d="M7401.64,29538.5c954.073,122.999 1524.17,455.251 1813.86,682.082c43.551,-60.501 96.202,-135.181 154.445,-220.841c-200.727,-188.09 -637.309,-523.338 -1272.23,-612.193c-257.797,-35.941 -454.092,-59.303 -603.108,-74.077c-35.183,83.465 -66.332,159.137 -92.967,225.029Z" style="fill:#fff;fill-rule:nonzero;"/><path d="M7620.54,29021.4c-16.35,37.139 -32.188,73.276 -47.499,108.618c838.041,-33.545 1642.14,374.586 1845.18,623.977c23.84,29.151 44.849,54.909 63.596,77.872c21.028,-32.15 42.41,-65.292 64.018,-99.24c-137.496,-135.377 -381.674,-352.82 -628.808,-460.642c-505.948,-220.836 -1231.34,-248.39 -1296.49,-250.585Z" style="fill:#fff;fill-rule:nonzero;"/><path d="M13240,32076.9l-1069.9,-0l-159.041,-1997.72l1402.45,-0l-173.514,1997.72Z" style="fill:#75a1de;fill-rule:nonzero;"/><path d="M11237.5,31233.5c296.393,-7.389 780.733,-347.031 947,-441.076c166.268,-94.046 1106.04,-296.312 1149.43,-195.078c43.369,101.032 -787.983,310.688 -787.983,310.688l621.721,28.954c-0,-0 180.72,274.746 195.178,455.448c14.453,180.706 -57.846,441.076 -57.846,441.076l-274.689,-245.797c-0,-0 -224.089,122.798 -506.048,289.128c-281.916,166.123 -787.964,65.091 -1004.83,21.564c-216.882,-43.33 -722.91,-202.271 -722.91,-202.271l440.975,-462.636Z" style="fill:#f09959;fill-rule:nonzero;"/><path d="M7362.72,31139.5c0,-0 479.534,-277.148 961.482,-209.656c276.184,38.735 306.116,83.661 289.142,72.28c59.705,-112.016 115.294,-219.637 167.226,-323.071c-251.088,11.583 -894.79,79.473 -1417.85,460.447Z" style="fill:#e38540;fill-rule:nonzero;"/><path d="M22499.3,27734.5l-0,4923.12c-0,163.733 -154.345,296.316 -344.63,296.316l-1033.7,0c-176.307,0 -319.271,122.995 -319.271,274.747l1487.55,-0c320.272,-0 579.847,-223.232 579.847,-498.779l-0,-4995.4l-369.794,-0Z" style="fill:#6791c9;fill-rule:nonzero;"/><path d="M21743.3,31950.7l-164.13,-31.345c-108.417,-20.568 -177.309,-113.617 -153.344,-206.862l1286.28,-4997.18c24.157,-93.044 132.382,-152.547 240.603,-131.783l164.13,31.149c108.225,20.769 177.308,113.813 153.352,206.861l-1286.49,4997.18c-23.961,93.245 -132.181,152.548 -240.406,131.98Z" style="fill:#95bef5;fill-rule:nonzero;"/><path d="M21788,31959.3l-19.163,-3.795c-83.661,-15.973 -136.979,-87.854 -118.606,-159.736l1306.25,-5074.28c18.569,-72.084 102.23,-117.805 185.896,-101.833l19.168,3.594c83.661,15.972 136.973,87.854 118.404,159.736l-1306.06,5074.47c-18.569,71.882 -102.23,117.608 -185.896,101.832l0,0.01Z" style="fill:#75a1de;fill-rule:nonzero;"/><path d="M25212.4,33513.8l-22096,-0c-102.211,-0 -185.096,-82.866 -185.096,-185.096c0,-102.23 82.885,-185.096 185.096,-185.096l22096,0c102.23,0 185.297,82.866 185.297,185.096c-0,102.23 -83.067,185.096 -185.297,185.096Z" style="fill:#2e5b9a;fill-rule:nonzero;"/><path d="M11351.9,22795c-1001.19,620.978 -367.517,1292.67 -633.657,2445.98c163.55,56.106 342.177,-266.164 456.229,-519.547c114.072,-253.585 215.444,-620.978 253.465,-608.399c38.035,12.776 101.392,583.039 101.392,583.039l152.068,76.075c0,-0 215.468,-380.174 202.807,-469.029c-12.699,-88.655 -190.108,-519.543 25.322,-722.413c138.449,-130.183 709.713,152.15 709.713,152.15l-557.625,-798.487l-709.714,-139.37Z" style="fill:#f09959;fill-rule:nonzero;"/><path d="M10756.6,25247.4c-12.814,-0 -25.614,-1.998 -38.294,-6.388c55.886,-242.203 72.103,-463.039 72.103,-666.704c-0,-281.341 -30.91,-529.731 -30.91,-755.761c0,-389.757 91.87,-713.024 592.465,-1023.52l709.713,139.37l557.626,798.487c-0,0 -377.203,-186.49 -592.848,-186.49c-49.738,-0 -90.911,9.982 -116.866,34.34c-80.368,75.677 -106.068,183.102 -106.025,292.722c0.038,184.094 72.739,374.183 80.704,429.691c0.359,2.597 0.541,5.592 0.522,8.587c-0.302,102.034 -203.33,460.442 -203.33,460.442l-152.068,-76.075c0,-0 -63.357,-570.263 -101.392,-583.039c-0.642,-0.201 -1.298,-0.201 -1.979,-0.201c-27.971,-0 -86.277,180.505 -157.8,374.385c-29.39,79.669 -61.018,161.532 -93.686,234.215c-105.206,233.817 -265.344,525.935 -417.935,525.935Z" style="fill:#8f7a7a;fill-rule:nonzero;"/><path d="M13544.4,23466.7c-50.696,608.398 -993.666,417.912 -1432.09,-126.593c-418.233,-519.744 -762.288,-161.533 -1178.62,12.579c-697.033,291.519 88.717,-1394.11 1495.46,-1127.95c1055.45,199.674 1148.99,837.026 1115.25,1241.96Z" style="fill:#2e5b9a;fill-rule:nonzero;"/><path d="M11448.5,24112.8c43.248,226.826 -41.529,433.486 -189.347,461.841c-147.837,28.154 -302.723,-132.982 -345.972,-359.807c-43.249,-227.027 41.534,-433.687 189.347,-461.841c147.817,-28.355 302.723,132.78 345.972,359.807Z" style="fill:#f09959;fill-rule:nonzero;"/><path d="M22111.1,25458l-4893.76,-0c-55.91,-0 -101.234,-45.324 -101.234,-101.234l0,-2833.54c0,-55.909 45.324,-101.434 101.234,-101.434l4893.76,-0c55.91,-0 101.234,45.525 101.234,101.434l-0,2833.54c-0,55.91 -45.324,101.234 -101.234,101.234Z" style="fill:#9ec8ff;fill-rule:nonzero;"/><path d="M21967.9,25365l-4607.42,-0c-48.721,-0 -88.256,-39.535 -88.256,-88.257l-0,-2278.26c-0,-48.717 39.535,-88.252 88.256,-88.252l4607.42,0c48.722,0 88.257,39.535 88.257,88.252l-0,2278.26c-0,48.722 -39.535,88.257 -88.257,88.257Z" style="fill:#fff;fill-rule:nonzero;"/><path d="M17475.5,22764.2l-107.627,-0c-22.762,-0 -41.327,-18.368 -41.327,-41.131l0,-88.654c0,-22.763 18.565,-41.131 41.327,-41.131l107.627,0c22.561,0 41.13,18.368 41.13,41.131l0,88.654c0,22.763 -18.569,41.131 -41.13,41.131Z" style="fill:#fff;fill-rule:nonzero;"/><path d="M17820.8,22764.2l-107.626,-0c-22.562,-0 -41.131,-18.368 -41.131,-41.131l0,-88.654c0,-22.763 18.569,-41.131 41.131,-41.131l107.626,0c22.763,0 41.327,18.368 41.327,41.131l0,88.654c0,22.763 -18.564,41.131 -41.327,41.131Z" style="fill:#fff;fill-rule:nonzero;"/><path d="M18166.2,22764.2l-107.621,-0c-22.763,-0 -41.136,-18.368 -41.136,-41.131l0,-88.654c0,-22.763 18.373,-41.131 41.136,-41.131l107.621,0c22.763,0 41.131,18.368 41.131,41.131l0,88.654c0,22.763 -18.368,41.131 -41.131,41.131Z" style="fill:#fff;fill-rule:nonzero;"/><path d="M17450.6,25204.2l4427.52,-0l-0,-2133.49l-4427.52,-0l-0,2133.49Zm4443.49,15.972l-4459.47,-0l0,-2165.44l4459.47,-0l-0,2165.44Z" style="fill:#9ec8ff;fill-rule:nonzero;"/><rect x="17442.6" y="24774.3" width="4443.49" height="15.972" style="fill:#9ec8ff;"/><rect x="17442.6" y="24344.4" width="4443.49" height="15.972" style="fill:#9ec8ff;"/><rect x="17442.6" y="23914.5" width="4443.49" height="15.972" style="fill:#9ec8ff;"/><rect x="17442.6" y="23484.6" width="4443.49" height="15.972" style="fill:#9ec8ff;"/><rect x="21243.3" y="23062.7" width="15.771" height="2149.47" style="fill:#9ec8ff;"/><rect x="20608.3" y="23062.7" width="15.977" height="2149.47" style="fill:#9ec8ff;"/><rect x="19973.6" y="23062.7" width="15.977" height="2149.47" style="fill:#9ec8ff;"/><rect x="19338.9" y="23062.7" width="15.972" height="2149.47" style="fill:#9ec8ff;"/><rect x="18704.1" y="23062.7" width="15.977" height="2149.47" style="fill:#9ec8ff;"/><rect x="18069.3" y="23062.7" width="15.977" height="2149.47" style="fill:#9ec8ff;"/><path d="M21719.7,23334.3l-149.356,-0c-57.107,-0 -103.629,-46.723 -103.629,-103.63c-0,-57.108 46.522,-103.629 103.629,-103.629l149.356,-0c56.907,-0 103.63,46.521 103.63,103.629c0,56.907 -46.723,103.63 -103.63,103.63Z" style="fill:#f39892;fill-rule:nonzero;"/><path d="M21774.1,24201.7l-257.979,-0c-27.152,-0 -49.316,-22.164 -49.316,-49.321l0,-108.421c0,-27.157 22.164,-49.321 49.316,-49.321l257.979,0c27.157,0 49.321,22.164 49.321,49.321l-0,108.421c-0,27.157 -22.164,49.321 -49.321,49.321Z" style="fill:#f39892;fill-rule:nonzero;"/><path d="M18562.5,23859.6l-350.621,0c-38.936,0 -70.487,-31.748 -70.487,-70.487l-0,-165.127c-0,-38.735 31.551,-70.483 70.487,-70.483l350.621,0c38.739,0 70.482,31.748 70.482,70.483l0,165.127c0,38.739 -31.743,70.487 -70.482,70.487Z" style="fill:#9ec8ff;fill-rule:nonzero;"/><path d="M18513,23816.5l-251.788,0c-27.952,0 -50.715,-22.762 -50.715,-50.72l0,-118.605c0,-27.751 22.763,-50.513 50.715,-50.513l251.788,-0c27.952,-0 50.715,22.762 50.715,50.513l0,118.605c0,27.958 -22.763,50.72 -50.715,50.72Z" style="fill:#fff;fill-rule:nonzero;"/><path d="M21107.2,25146.3l-350.62,0c-38.739,0 -70.487,-31.748 -70.487,-70.487l-0,-165.127c-0,-38.735 31.748,-70.483 70.487,-70.483l350.62,0c38.74,0 70.488,31.748 70.488,70.483l-0,165.127c-0,38.739 -31.748,70.487 -70.488,70.487Z" style="fill:#9ec8ff;fill-rule:nonzero;"/><path d="M21057.7,25103.2l-251.788,-0c-27.751,-0 -50.514,-22.763 -50.514,-50.519l0,-118.605c0,-27.952 22.763,-50.715 50.514,-50.715l251.788,0c27.952,0 50.715,22.763 50.715,50.715l-0,118.605c-0,27.756 -22.763,50.519 -50.715,50.519Z" style="fill:#fff;fill-rule:nonzero;"/><path d="M19876.4,23642.8l-274.752,-0c-18.564,-0 -33.741,-15.378 -33.741,-33.746c-0,-18.57 15.177,-33.747 33.741,-33.747l274.752,0c18.569,0 33.746,15.177 33.746,33.747c-0,18.368 -15.177,33.746 -33.746,33.746Z" style="fill:#9ec8ff;fill-rule:nonzero;"/><path d="M19876.4,23748.6l-274.752,-0c-18.564,-0 -33.741,-14.976 -33.741,-33.545c-0,-18.57 15.177,-33.746 33.741,-33.746l274.752,-0c18.569,-0 33.746,15.176 33.746,33.746c-0,18.569 -15.177,33.545 -33.746,33.545Z" style="fill:#9ec8ff;fill-rule:nonzero;"/><path d="M19269.2,24922.3l-274.752,0c-18.569,0 -33.741,-15.176 -33.741,-33.746c0,-18.569 15.172,-33.746 33.741,-33.746l274.752,0c18.569,0 33.741,15.177 33.741,33.746c0,18.57 -15.172,33.746 -33.741,33.746Z" style="fill:#9ec8ff;fill-rule:nonzero;"/><path d="M19269.2,25028.3l-274.752,0c-18.569,0 -33.741,-15.177 -33.741,-33.746c0,-18.57 15.172,-33.746 33.741,-33.746l274.752,-0c18.569,-0 33.741,15.176 33.741,33.746c0,18.569 -15.172,33.746 -33.741,33.746Z" style="fill:#9ec8ff;fill-rule:nonzero;"/><path d="M17844.9,24119.8l-274.746,-0c-18.57,-0 -33.747,-15.172 -33.747,-33.742c0,-18.569 15.177,-33.746 33.747,-33.746l274.746,0c18.57,0 33.746,15.177 33.746,33.746c0,18.57 -15.176,33.742 -33.746,33.742Z" style="fill:#9ec8ff;fill-rule:nonzero;"/><path d="M17844.9,24225.8l-274.746,0c-18.57,0 -33.747,-15.172 -33.747,-33.741c0,-18.57 15.177,-33.746 33.747,-33.746l274.746,-0c18.57,-0 33.746,15.176 33.746,33.746c0,18.569 -15.176,33.741 -33.746,33.741Z" style="fill:#9ec8ff;fill-rule:nonzero;"/><path d="M20497.9,23642.8l-274.545,-0c-18.57,-0 -33.747,-15.378 -33.747,-33.746c0,-18.57 15.177,-33.747 33.747,-33.747l274.545,0c18.569,0 33.746,15.177 33.746,33.747c0,18.368 -15.177,33.746 -33.746,33.746Z" style="fill:#9ec8ff;fill-rule:nonzero;"/><path d="M20497.9,23748.6l-274.545,-0c-18.57,-0 -33.747,-14.976 -33.747,-33.545c0,-18.57 15.177,-33.746 33.747,-33.746l274.545,-0c18.569,-0 33.746,15.176 33.746,33.746c0,18.569 -15.177,33.545 -33.746,33.545Z" style="fill:#9ec8ff;fill-rule:nonzero;"/><path d="M18605,24734.2l-406.928,-0c-35.146,-0 -64.1,-28.753 -64.1,-63.899l0,-182.896c0,-35.145 28.954,-63.898 64.1,-63.898l406.928,0c35.145,0 64.094,28.753 64.094,63.898l0,182.896c0,35.146 -28.949,63.899 -64.094,63.899Z" style="fill:#9cd499;fill-rule:nonzero;"/><path d="M18372.8,24683.1l-1.199,-0c-8.783,-0.398 -16.973,-4.395 -22.762,-10.984l-76.075,-86.455c-11.779,-13.178 -10.385,-33.348 2.794,-45.127c13.178,-11.583 33.348,-10.385 45.127,2.995l53.912,61.1l138.372,-135.579c12.579,-12.378 32.946,-12.177 45.324,0.599c12.182,12.579 11.985,32.749 -0.594,45.127l-162.535,159.137c-5.99,5.794 -13.978,9.187 -22.364,9.187Z" style="fill:#fff;fill-rule:nonzero;"/><path d="M20506.3,23425.7l-406.928,-0c-35.145,-0 -64.094,-28.753 -64.094,-63.894l-0,-182.901c-0,-35.14 28.949,-63.893 64.094,-63.893l406.928,-0c35.146,-0 63.898,28.753 63.898,63.893l0,182.901c0,35.141 -28.752,63.894 -63.898,63.894Z" style="fill:#9cd499;fill-rule:nonzero;"/><path d="M20274.1,23374.4l-1.198,-0c-8.784,-0.201 -16.974,-4.193 -22.763,-10.782l-76.276,-86.46c-11.578,-13.178 -10.183,-33.545 2.995,-45.127c13.183,-11.578 33.349,-10.38 45.128,2.995l53.71,61.099l138.573,-135.574c12.58,-12.382 32.946,-12.181 45.329,0.599c12.177,12.58 11.976,32.745 -0.604,45.123l-162.529,159.142c-5.995,5.789 -13.979,8.985 -22.365,8.985Z" style="fill:#fff;fill-rule:nonzero;"/><path d="M20433,24568c-0,79.87 -64.895,144.564 -144.766,144.564c-79.669,-0 -144.559,-64.694 -144.559,-144.564c0,-79.871 64.89,-144.564 144.559,-144.564c79.871,-0 144.766,64.693 144.766,144.564Z" style="fill:#9ec8ff;fill-rule:nonzero;"/><path d="M18560.5,25008.9c-0,79.87 -64.698,144.564 -144.564,144.564c-79.87,-0 -144.564,-64.694 -144.564,-144.564c0,-79.87 64.694,-144.564 144.564,-144.564c79.866,-0 144.564,64.694 144.564,144.564Z" style="fill:#9ec8ff;fill-rule:nonzero;"/><path d="M19399,26763.7l-2951.35,0c-27.756,0 -50.116,-22.566 -50.116,-50.121l0,-1644.89c0,-27.752 22.36,-50.116 50.116,-50.116l2951.35,-0c27.751,-0 50.12,22.364 50.12,50.116l0,1644.89c0,27.555 -22.369,50.121 -50.12,50.121Z" style="fill:#9ec8ff;fill-rule:nonzero;"/><path d="M19335.5,26686.8l-2824.16,-0c-25.959,-0 -46.943,-20.966 -46.943,-46.925l-0,-1497.73c-0,-25.758 20.984,-46.724 46.943,-46.724l2824.16,0c25.758,0 46.723,20.966 46.723,46.724l0,1497.73c0,25.959 -20.965,46.925 -46.723,46.925Z" style="fill:#fff;fill-rule:nonzero;"/><path d="M19249,26589.2l-2651.44,0c-28.954,0 -52.517,-23.563 -52.517,-52.512l0,-1291.08c0,-29.151 23.563,-52.512 52.517,-52.512l2651.44,-0c29.155,-0 52.517,23.361 52.517,52.512l0,1291.08c0,28.949 -23.362,52.512 -52.517,52.512Z" style="fill:#9ec8ff;fill-rule:nonzero;"/><path d="M18407.8,25891.1c0,267.563 -216.844,484.407 -484.407,484.407c-267.558,-0 -484.402,-216.844 -484.402,-484.407c0,-267.559 216.844,-484.402 484.402,-484.402c267.563,-0 484.407,216.843 484.407,484.402Z" style="fill:#fff;fill-rule:nonzero;"/><path d="M18340.5,25891.1c-0,230.424 -186.697,417.116 -417.116,417.116c-230.42,-0 -417.111,-186.692 -417.111,-417.116c-0,-230.42 186.691,-417.111 417.111,-417.111c230.419,-0 417.116,186.691 417.116,417.111Z" style="fill:#9ec8ff;fill-rule:nonzero;"/><path d="M18128.9,25868.7l-152.347,88.056l-152.547,88.055l-0,-352.221l152.547,88.055l152.347,88.055Z" style="fill:#fff;fill-rule:nonzero;"/><path d="M16204,20837.8l-1908.54,-0c-47.72,-0 -86.757,-38.936 -86.757,-86.656c0,-47.72 39.037,-86.857 86.757,-86.857l1908.54,-0c47.72,-0 86.656,39.137 86.656,86.857c-0,47.72 -38.936,86.656 -86.656,86.656Z" style="fill:#9ec8ff;fill-rule:nonzero;"/><path d="M21192,28168.2l-1908.46,0c-47.724,0 -86.857,-39.137 -86.857,-86.857c0,-47.72 39.133,-86.656 86.857,-86.656l1908.46,0c47.72,0 86.852,38.936 86.852,86.656c0,47.72 -39.132,86.857 -86.852,86.857Z" style="fill:#9ec8ff;fill-rule:nonzero;"/><path d="M21192,28486.2l-1908.46,0c-47.724,0 -86.857,-39.137 -86.857,-86.857c0,-47.72 39.133,-86.656 86.857,-86.656l1908.46,0c47.72,0 86.852,38.936 86.852,86.656c0,47.72 -39.132,86.857 -86.852,86.857Z" style="fill:#9ec8ff;fill-rule:nonzero;"/><path d="M21192,28833.3l-1908.46,-0c-47.724,-0 -86.857,-39.137 -86.857,-86.857c0,-47.725 39.133,-86.661 86.857,-86.661l1908.46,0c47.72,0 86.852,38.936 86.852,86.661c0,47.72 -39.132,86.857 -86.852,86.857Z" style="fill:#9ec8ff;fill-rule:nonzero;"/><path d="M17432.8,21170.4l-3137.32,0c-47.72,0 -86.757,-39.137 -86.757,-86.857c0,-47.72 39.037,-86.656 86.757,-86.656l3137.32,-0c47.725,-0 86.862,38.936 86.862,86.656c-0,47.72 -39.137,86.857 -86.862,86.857Z" style="fill:#9ec8ff;fill-rule:nonzero;"/><path d="M3887.48,25978.4c-498.778,455.448 -281.915,910.901 86.738,1756.71c368.677,845.809 433.749,3968.48 433.749,3968.48l-303.624,-43.331c0,0 43.369,-3209.52 -368.653,-4076.9c-412.041,-867.571 -585.535,-1301.26 -954.188,-1019.32c-368.677,281.935 1105.98,-585.636 1105.98,-585.636Z" style="fill:#74b570;fill-rule:nonzero;"/><path d="M4161.49,25388.7c-60.577,-269.759 -420.308,-561.877 -901.355,-809.471c71.522,397.947 300.844,1048.88 63.515,1182.26c-320.076,180.103 -31.207,-728.604 -154.704,-1227.98c-451.701,-220.639 -995.046,-400.942 -1495.46,-490.594c0.719,1.798 1.28,3.595 2.018,5.392c281.916,715.622 650.569,997.557 498.778,1105.98c-114.21,81.668 -486.199,-744.973 -977.411,-1168.68c-368.715,-19.767 -680.62,30.153 -865.16,176.312c-285.208,225.829 -476.658,426.101 -189.787,1113.77c163.872,117.004 376.124,201.068 622.756,225.627c650.592,65.092 954.193,86.858 498.783,303.701c-223.016,106.026 -596.802,-5.99 -899.884,-74.479c98.32,181.305 219.139,386.365 366.017,619.784c93.15,148.154 195.802,276.745 304.799,387.961c209.698,40.134 392.498,40.733 489.299,-0.8c303.6,-130.183 1084.31,-542.109 1279.48,-368.793c191.042,169.92 -1445.87,277.345 -1332.43,709.033c793.413,457.049 1701.32,239.606 1861.8,-180.303c215.526,-563.674 1011.34,-696.253 828.956,-1508.72Z" style="fill:#9cd499;fill-rule:nonzero;"/><path d="M2521.24,28472.5c867.456,-650.732 1756.6,-43.527 2212.01,650.531c455.409,693.861 130.125,2255.29 130.125,2255.29c-0,0 -173.494,0 -173.494,-65.091c-0,-64.895 477.094,-1843.17 -650.593,-2645.65c-705.458,-501.975 -1214.44,-260.169 -1279.47,-21.761c-65.072,238.604 281.916,672.291 281.916,672.291l-520.487,-845.608Z" style="fill:#74b570;fill-rule:nonzero;"/><path d="M4516.4,27135c-867.455,-0 -1149.37,1344.59 -910.824,2125.31c238.547,780.713 563.856,2233.53 563.856,2233.53l216.862,-216.844c0,0 -824.087,-2038.45 -628.908,-2949.35c195.178,-910.704 672.258,-1062.46 759.014,-1062.46c86.757,-0 0,-130.183 0,-130.183Z" style="fill:#9cd499;fill-rule:nonzero;"/><path d="M3788.86,29266.3c-60.998,-80.867 -136.374,-147.559 -228.344,-191.886c12.038,64.492 27.056,126.79 45.065,185.896c108.68,355.614 235.375,850.798 341.118,1284.69c9.608,-55.507 24.42,-141.166 47.283,-273.151c5.392,-31.35 9.623,-65.091 12.58,-101.032c-84.941,-288.927 -165.228,-603.611 -217.702,-904.513Z" style="fill:#74b570;fill-rule:nonzero;"/><path d="M3551.69,29273c-1648.15,-694.062 -779.817,-1646.3 -2232.79,-1017.53c-102.35,44.327 -227.085,156.146 -351.963,310.093c129.412,36.737 286.114,63.093 460.384,36.938c433.731,-65.092 281.916,281.935 -433.725,368.792c-134.898,16.375 -244.341,38.739 -335.348,70.684c-340.94,654.723 -494.59,1516.51 226.907,1816.02c142.163,58.9 317.895,92.646 513.495,105.225c222.652,-176.911 -54.333,-1200.82 288.903,-1059.46c329.54,135.574 -103.251,877.754 -43.949,1064.65c325.29,-5.789 685.394,-58.9 1029.55,-144.162c136.197,-76.472 240.167,-178.707 272.212,-313.285c108.422,-455.452 -607.219,-737.387 -628.904,-1127.74c-19.949,-358.81 262.288,789.502 1010.02,958.621c676.144,-315.878 995.62,-744.576 225.205,-1068.84Z" style="fill:#9cd499;fill-rule:nonzero;"/><path d="M4726.05,28045.7c-173.475,-368.591 281.916,-455.252 260.231,-173.312c-19.207,249.789 -21.344,856.989 234.872,1022.32c441.852,-47.922 1043.01,-225.829 1497.48,-497.384c5.708,-36.54 0.178,-74.278 -19.13,-113.013c-195.178,-390.357 -1452.97,-715.622 -1062.63,-845.81c310.913,-103.629 855.653,508.167 1294.62,816.257c263.663,-200.071 440.295,-438.479 440.295,-704.638c0,-360.411 -437.76,-768.139 -1003.89,-963.021c-254.802,25.562 -491.451,164.931 -861.125,374.385c-546.101,309.494 -419.809,-190.885 96.523,-487.795c-445.73,22.959 -890.137,213.446 -1217.92,668.501c0,0 30.991,194.479 -174.812,495.386c-561.517,820.651 86.498,1299.66 861.145,1268.51c-43.81,-216.245 -225.772,-605.605 -345.651,-860.387Z" style="fill:#9cd499;fill-rule:nonzero;"/><path d="M2573.43,28435.5c-424.103,327.858 -895.207,711.031 -1473.52,971.2c-578.351,260.174 -462.679,1108.38 -462.679,1108.38c-0,-0 -86.742,-732.395 395.187,-983.186c481.949,-250.585 800.026,-549.297 1166.3,-607.2c366.281,-57.707 568.686,-115.61 568.686,-115.61c-0,0 -115.668,-231.421 -48.199,-318.077c67.487,-86.656 -145.781,-55.507 -145.781,-55.507Z" style="fill:#74b570;fill-rule:nonzero;"/><path d="M483.058,24587.2c1551.83,414.519 2689.22,1407.29 2901.27,1648.29c212.052,241.005 212.052,308.493 212.052,308.493l-163.848,308.493l-77.114,-38.735c-0,-0 125.294,-260.174 -202.41,-597.42c-565.169,-581.84 -1253.06,-1041.09 -1725.36,-1243.56c-472.282,-202.467 -944.589,-385.565 -944.589,-385.565Z" style="fill:#74b570;fill-rule:nonzero;"/><path d="M4766.64,33177.1l-592.886,0c-421.587,0 -763.366,-341.836 -763.366,-763.347l0,-1362.16l2119.62,-0l-0,1362.16c-0,421.511 -341.76,763.347 -763.366,763.347Z" style="fill:#f39892;fill-rule:nonzero;"/></g></svg>