<?xml version="1.0" encoding="UTF-8" standalone="no"?><!DOCTYPE svg PUBLIC "-//W3C//DTD SVG 1.1//EN" "http://www.w3.org/Graphics/SVG/1.1/DTD/svg11.dtd"><svg width="100%" height="100%" viewBox="0 0 55559 34725" version="1.1" xmlns="http://www.w3.org/2000/svg" xmlns:xlink="http://www.w3.org/1999/xlink" xml:space="preserve" xmlns:serif="http://www.serif.com/" style="fill-rule:evenodd;clip-rule:evenodd;stroke-linejoin:round;stroke-miterlimit:2;"><g><path d="M2317.41,34410l17732.7,-92.203l4726.57,-1.375l1565.9,-0.588l4735.76,-1.375l21635.7,-5.885c0,-0 4948.81,-6345.81 -337.232,-12372.9c-5480.84,-6249.05 -8145.74,-1159.81 -9830.38,-9956.04c-4240.61,-22141.2 -46166.9,-9254.55 -35170,9586.82c3959.62,6784.1 -7794.18,3178.3 -5058.93,12843.5l0.009,0.057Z" style="fill:#8fc1ed;fill-opacity:0.65;fill-rule:nonzero;"/><path d="M18630.8,29789l-95.932,-52.578c-102.406,-55.911 -140.072,-184.801 -83.963,-287.206l440.419,-804.532c56.109,-102.405 184.999,-140.072 287.405,-83.963l137.327,75.135c20.01,10.985 27.463,36.292 16.479,56.302c-10.985,20.01 -36.296,27.468 -56.307,16.479l-137.322,-75.333c-62.39,-34.135 -140.665,-11.182 -174.796,51.203l-440.622,804.532c-34.135,62.192 -11.177,140.66 51.203,174.795l95.932,52.578c62.192,34.135 140.665,11.182 174.795,-51.203l292.311,-534.002c10.984,-20.01 36.291,-27.463 56.302,-16.479c20.01,10.99 27.463,36.099 16.479,56.307l-292.504,533.997c-56.109,102.406 -184.801,140.072 -287.206,83.968Z" style="fill:#afcdfb;fill-rule:nonzero;"/><path d="M18222,30633.8l-171.854,-93.968c-159.493,-87.495 -213.248,-297.603 -119.671,-468.674l662.304,-1209.45c10.984,-20.011 36.291,-27.464 56.302,-16.479c20.01,10.989 27.468,36.098 16.479,56.306l-662.304,1209.45c-71.801,130.849 -32.76,290.738 86.713,356.066l171.853,94.166c119.474,65.521 275.045,12.161 346.847,-118.692l754.308,-1377.77c71.802,-130.848 32.761,-290.737 -86.713,-356.065c-20.01,-10.985 -27.463,-36.292 -16.479,-56.302c10.99,-20.01 36.297,-27.464 56.307,-16.479c159.494,87.494 213.244,297.602 119.666,468.674l-754.506,1377.77c-93.577,170.869 -299.566,238.946 -459.252,151.447Z" style="fill:#afcdfb;fill-rule:nonzero;"/><path d="M34780.6,25314.6l-21098.9,0c-518.7,0 -939.208,-420.409 -939.208,-939.109l-0,-17708.7c-0,-518.7 420.508,-939.189 939.208,-939.189l21098.9,-0c518.695,-0 939.307,420.489 939.307,939.189l0,17708.7c0,518.7 -420.612,939.109 -939.307,939.109Zm-9052.7,-9494.72c-88.083,-0 -159.494,71.429 -159.494,159.531c0,88.121 71.411,159.574 159.494,159.574l3253.44,0c88.281,0 159.691,-71.453 159.691,-159.574c0,-88.102 -71.41,-159.531 -159.691,-159.531l-3253.44,-0Zm-2966.62,-0c-88.28,-0 -159.691,71.429 -159.691,159.531c-0,88.121 71.411,159.574 159.691,159.574l2374.36,0c88.083,0 159.494,-71.453 159.494,-159.574c-0,-88.102 -71.411,-159.531 -159.494,-159.531l-2374.36,-0Zm-8197.82,-6194.25l0,6513.33l6513.42,-0l0,-6513.33l-6513.42,-0Zm15221.8,5204.75c-88.088,0 -159.494,71.43 -159.494,159.537c0,88.12 71.406,159.55 159.494,159.55l1661.25,-0c88.083,-0 159.494,-71.43 159.494,-159.55c0,-88.107 -71.411,-159.537 -159.494,-159.537l-1661.25,0Zm-7023.99,0c-88.28,0 -159.691,71.43 -159.691,159.537c-0,88.12 71.411,159.55 159.691,159.55l6292.84,-0c88.083,-0 159.494,-71.43 159.494,-159.55c-0,-88.107 -71.411,-159.537 -159.494,-159.537l-6292.84,0Zm4104.66,-1298.33c-88.088,0 -159.494,71.43 -159.494,159.532c0,88.125 71.406,159.555 159.494,159.555l5269.39,-0c88.082,-0 159.493,-71.43 159.493,-159.555c0,-88.102 -71.411,-159.532 -159.493,-159.532l-5269.39,0Zm-4104.66,0c-88.28,0 -159.691,71.43 -159.691,159.532c-0,88.125 71.411,159.555 159.691,159.555l3221.66,-0c88.281,-0 159.691,-71.43 159.691,-159.555c0,-88.102 -71.41,-159.532 -159.691,-159.532l-3221.66,0Zm7023.99,-855.579c-88.088,0 -159.494,71.43 -159.494,159.537c0,88.125 71.406,159.55 159.494,159.55l1661.25,-0c88.083,-0 159.494,-71.425 159.494,-159.55c0,-88.107 -71.411,-159.537 -159.494,-159.537l-1661.25,0Zm-4057.39,0c-88.083,0 -159.494,71.43 -159.494,159.537c0,88.125 71.411,159.55 159.494,159.55l3253.44,-0c88.281,-0 159.692,-71.425 159.692,-159.55c-0,-88.107 -71.411,-159.537 -159.692,-159.537l-3253.44,0Zm-2966.62,0c-88.28,0 -159.691,71.43 -159.691,159.537c-0,88.125 71.411,159.55 159.691,159.55l2374.36,-0c88.083,-0 159.494,-71.425 159.494,-159.55c-0,-88.107 -71.411,-159.537 -159.494,-159.537l-2374.36,0Zm7023.99,-989.488c-88.088,0 -159.494,71.43 -159.494,159.532c0,88.125 71.406,159.536 159.494,159.536l1661.25,0c88.083,0 159.494,-71.411 159.494,-159.536c0,-88.102 -71.411,-159.532 -159.494,-159.532l-1661.25,0Zm-7023.99,0c-88.28,0 -159.691,71.43 -159.691,159.532c-0,88.125 71.411,159.536 159.691,159.536l6292.84,0c88.083,0 159.494,-71.411 159.494,-159.536c0,-88.102 -71.411,-159.532 -159.494,-159.532l-6292.84,0Zm86.515,-2068.14c-135.952,-0 -246.206,110.212 -246.206,246.145c-0,135.952 110.254,246.164 246.206,246.164l5180.93,0c135.952,0 246.009,-110.212 246.009,-246.164c0,-135.933 -110.057,-246.145 -246.009,-246.145l-5180.93,-0Zm6195.33,-330.151c-135.952,-0 -246.202,110.216 -246.202,246.145c0,135.957 110.25,246.164 246.202,246.164l5180.69,0c135.952,0 246.202,-110.207 246.202,-246.164c-0,-135.929 -110.25,-246.145 -246.202,-246.145l-5180.69,-0Z" style="fill:#f7fafd;fill-rule:nonzero;"/><path d="M35719.9,7901.03l-22977.4,-0l0,-1472.29c0,-387.239 313.922,-701.161 701.161,-701.161l21575.1,-0c387.258,-0 701.147,313.922 701.147,701.161l-0,1472.29l0.014,-0Z" style="fill:#699dee;fill-rule:nonzero;"/><path d="M13671.7,6801.22c0,-143.505 116.333,-259.837 259.837,-259.837c143.505,-0 259.842,116.332 259.842,259.837c0,143.504 -116.337,259.861 -259.842,259.861c-143.504,-0 -259.837,-116.357 -259.837,-259.861Z" style="fill:#dde7fe;fill-rule:nonzero;"/><path d="M14762.3,6801.22c0,-143.505 116.356,-259.837 259.861,-259.837c143.504,-0 259.837,116.332 259.837,259.837c0,143.504 -116.333,259.861 -259.837,259.861c-143.505,-0 -259.861,-116.357 -259.861,-259.861Z" style="fill:#dde7fe;fill-rule:nonzero;"/><path d="M15852.9,6801.22c-0,-143.505 116.337,-259.837 259.743,-259.837c143.603,-0 259.936,116.332 259.936,259.837c-0,143.504 -116.333,259.861 -259.936,259.861c-143.406,-0 -259.743,-116.357 -259.743,-259.861Z" style="fill:#dde7fe;fill-rule:nonzero;"/><rect x="14563.4" y="9625.64" width="6513.42" height="6513.33" style="fill:#e2edfc;"/><path d="M28028.6,10111.1l-5180.92,0c-135.952,0 -246.207,-110.212 -246.207,-246.164c0,-135.934 110.255,-246.146 246.207,-246.146l5180.92,0c135.953,0 246.009,110.212 246.009,246.146c0,135.952 -110.056,246.164 -246.009,246.164Z" style="fill:#b9caf7;fill-rule:nonzero;"/><path d="M34223.8,9780.96l-5180.69,-0c-135.952,-0 -246.202,-110.208 -246.202,-246.165c-0,-135.928 110.25,-246.145 246.202,-246.145l5180.69,-0c135.952,-0 246.202,110.217 246.202,246.145c0,135.957 -110.25,246.165 -246.202,246.165Z" style="fill:#b9caf7;fill-rule:nonzero;"/><path d="M29054.1,12006l-6292.84,-0c-88.28,-0 -159.691,-71.411 -159.691,-159.537c-0,-88.101 71.411,-159.531 159.691,-159.531l6292.84,-0c88.083,-0 159.494,71.43 159.494,159.531c0,88.126 -71.411,159.537 -159.494,159.537Z" style="fill:#e5eefc;fill-rule:nonzero;"/><path d="M31446.5,12006l-1661.25,-0c-88.088,-0 -159.494,-71.411 -159.494,-159.537c0,-88.101 71.406,-159.531 159.494,-159.531l1661.25,-0c88.083,-0 159.494,71.43 159.494,159.531c0,88.126 -71.411,159.537 -159.494,159.537Z" style="fill:#e5eefc;fill-rule:nonzero;"/><path d="M25135.6,12995.5l-2374.36,-0c-88.281,-0 -159.692,-71.425 -159.692,-159.55c0,-88.107 71.411,-159.537 159.692,-159.537l2374.36,0c88.083,0 159.494,71.43 159.494,159.537c0,88.125 -71.411,159.55 -159.494,159.55Z" style="fill:#e5eefc;fill-rule:nonzero;"/><path d="M28981.3,12995.5l-3253.44,-0c-88.083,-0 -159.494,-71.425 -159.494,-159.55c0,-88.107 71.411,-159.537 159.494,-159.537l3253.44,0c88.281,0 159.691,71.43 159.691,159.537c0,88.125 -71.41,159.55 -159.691,159.55Z" style="fill:#e5eefc;fill-rule:nonzero;"/><path d="M31446.5,12995.5l-1661.25,-0c-88.088,-0 -159.494,-71.425 -159.494,-159.55c0,-88.107 71.406,-159.537 159.494,-159.537l1661.25,0c88.083,0 159.494,71.43 159.494,159.537c0,88.125 -71.411,159.55 -159.494,159.55Z" style="fill:#e5eefc;fill-rule:nonzero;"/><path d="M25982.9,13851.1l-3221.66,0c-88.28,0 -159.691,-71.43 -159.691,-159.555c-0,-88.102 71.411,-159.531 159.691,-159.531l3221.66,-0c88.281,-0 159.692,71.429 159.692,159.531c-0,88.125 -71.411,159.555 -159.692,159.555Z" style="fill:#e5eefc;fill-rule:nonzero;"/><path d="M32135.2,13851.1l-5269.39,0c-88.087,0 -159.493,-71.43 -159.493,-159.555c-0,-88.102 71.406,-159.531 159.493,-159.531l5269.39,-0c88.083,-0 159.494,71.429 159.494,159.531c-0,88.125 -71.411,159.555 -159.494,159.555Z" style="fill:#e5eefc;fill-rule:nonzero;"/><path d="M29054.1,15149.4l-6292.84,0c-88.28,0 -159.691,-71.43 -159.691,-159.55c-0,-88.107 71.411,-159.536 159.691,-159.536l6292.84,-0c88.083,-0 159.494,71.429 159.494,159.536c0,88.12 -71.411,159.55 -159.494,159.55Z" style="fill:#e5eefc;fill-rule:nonzero;"/><path d="M31446.5,15149.4l-1661.25,0c-88.088,0 -159.494,-71.43 -159.494,-159.55c0,-88.107 71.406,-159.536 159.494,-159.536l1661.25,-0c88.083,-0 159.494,71.429 159.494,159.536c0,88.12 -71.411,159.55 -159.494,159.55Z" style="fill:#e5eefc;fill-rule:nonzero;"/><path d="M25135.6,16139l-2374.36,-0c-88.281,-0 -159.692,-71.454 -159.692,-159.574c0,-88.102 71.411,-159.532 159.692,-159.532l2374.36,0c88.083,0 159.494,71.43 159.494,159.532c0,88.12 -71.411,159.574 -159.494,159.574Z" style="fill:#e5eefc;fill-rule:nonzero;"/><path d="M28981.3,16139l-3253.44,-0c-88.083,-0 -159.494,-71.454 -159.494,-159.574c0,-88.102 71.411,-159.532 159.494,-159.532l3253.44,0c88.281,0 159.691,71.43 159.691,159.532c0,88.12 -71.41,159.574 -159.691,159.574Z" style="fill:#e5eefc;fill-rule:nonzero;"/><path d="M18522.2,13116l-713.897,-1652.12l-708.016,1652.12l1421.91,0Zm-1038.38,-2519.49l672.699,0l1817.21,4159.83l-767.068,0l-418.841,-997.162l-1953.16,-0l-424.726,997.162l-743.522,0l1817.41,-4159.83Z" style="fill:#bdd1f9;fill-rule:nonzero;"/><rect x="14563.4" y="17450.9" width="3638.4" height="702.517" style="fill:#f99746;"/><rect x="14563.4" y="18153.5" width="3638.4" height="702.324" style="fill:#ed7d2b;"/><rect x="14563.4" y="18855.7" width="3638.4" height="702.324" style="fill:#474fea;"/><path d="M20882.6,17848.5l-2001.82,0c-83.77,0 -151.843,-67.898 -151.843,-151.664c-0,-83.77 68.073,-151.668 151.843,-151.668l2001.82,-0c83.77,-0 151.645,67.898 151.645,151.668c-0,83.766 -67.875,151.664 -151.645,151.664Z" style="fill:#bdd1f9;fill-rule:nonzero;"/><path d="M20208.1,18383.2l-1327.35,0c-83.77,0 -151.843,-67.898 -151.843,-151.668c-0,-83.766 68.073,-151.646 151.843,-151.646l1327.35,0c83.77,0 151.645,67.88 151.645,151.646c-0,83.77 -67.875,151.668 -151.645,151.668Z" style="fill:#bdd1f9;fill-rule:nonzero;"/><rect x="14563.4" y="21082.6" width="3638.4" height="1435.25" style="fill:#f99746;"/><rect x="14563.4" y="22163.5" width="3638.4" height="1026.41" style="fill:#b5453c;"/><path d="M14563.4,21082.6l1305.24,1096.45l-1305.24,1010.91l0,-2107.36Z" style="fill:#474fea;fill-rule:nonzero;"/><path d="M20882.6,21480.3l-2001.82,0c-83.77,0 -151.843,-67.875 -151.843,-151.645c-0,-83.77 68.073,-151.645 151.843,-151.645l2001.82,-0c83.77,-0 151.645,67.875 151.645,151.645c-0,83.77 -67.875,151.645 -151.645,151.645Z" style="fill:#bdd1f9;fill-rule:nonzero;"/><path d="M20208.1,22015l-1327.35,0c-83.77,0 -151.843,-67.879 -151.843,-151.649c-0,-83.766 68.073,-151.843 151.843,-151.843l1327.35,-0c83.77,-0 151.645,68.077 151.645,151.843c-0,83.77 -67.875,151.649 -151.645,151.649Z" style="fill:#bdd1f9;fill-rule:nonzero;"/><path d="M35951.7,7501.39c0,-0 94.778,1129.37 -162.413,1112.26c-257.389,-17.106 -765.495,-514.284 -1790.53,-433.442c-1025.23,80.865 -2279.61,305.178 -3037.84,-1036.59c-758.235,-1341.79 969.713,-1727.97 969.713,-1727.97l4021.07,2085.74Z" style="fill:#233862;fill-rule:nonzero;"/><path d="M33772.4,7418.71l5166,424.802l107.312,-229.822l-4952.57,-3655.84l-5002.76,-584.461l-96.13,205.635l4778.13,3839.68l0.024,-0Z" style="fill:#2b478b;fill-rule:nonzero;"/><path d="M37288.1,11309.1c-30.604,-106.327 -141.447,-167.827 -247.774,-137.44c-106.333,30.444 -167.734,141.287 -137.323,247.676c30.402,106.327 141.249,167.832 247.577,137.44c106.328,-30.505 167.931,-141.343 137.52,-247.676Z" style="fill:#f99746;fill-rule:nonzero;"/><path d="M37115.9,11364.7c207.166,-16.126 255.619,1869.15 255.619,1869.15c0,0 -135.166,63.525 -201.473,48.599c-66.505,-14.953 -100.442,-269.531 -100.442,-269.531l-6.281,266.918c-0,0 -227.374,7.905 -306.04,-47.398c0,-0 30.802,-1842.2 358.617,-1867.74Z" style="fill:#f99746;fill-rule:nonzero;"/><path d="M37183.3,11407.2l-37.469,-4118.92l-26.682,-19.968l-2698.25,-1996.09l-96.915,131.202l2671.38,1976.14l60.417,4020.52l127.52,7.119Z" style="fill:#f99746;fill-rule:nonzero;"/><path d="M40664.8,30839.8l-11348.6,0l-0,-4311.82l11386.5,0c920.276,0 1666.35,746.069 1666.35,1666.35l-0,941.27c-0,941.27 -762.939,1704.21 -1704.21,1704.21Z" style="fill:#fcecdb;fill-rule:nonzero;"/><path d="M52104,28302l-0,648.569c-0,346.649 -87.104,671.329 -239.342,950.296c-305.842,561.465 -874.568,938.718 -1525.68,938.718l-21372.5,0c-141.442,0 -256.014,-122.613 -256.014,-273.67l0,-97.109c0,-151.254 114.572,-273.868 256.014,-273.868l13028.4,0c69.645,-90.832 131.051,-189.311 182.842,-294.071c122.021,-246.009 191.077,-526.549 191.077,-824.349l0,-824.542c0,-151.645 -18.244,-298.977 -52.77,-438.851c-58.463,-237.379 -162.832,-454.743 -302.118,-640.33l-13047.5,0c-141.442,0 -256.014,-122.614 -256.014,-274.061l0,-96.916c0,-151.254 114.572,-273.863 256.014,-273.863l21480.3,0c756.86,0 1395.23,543.023 1593.37,1285.17c41.791,155.374 63.958,319.378 63.958,488.877l0.014,-0Z" style="fill:#699dee;fill-rule:nonzero;"/><path d="M52040.4,27813.1l-9724.01,-0c-58.463,-237.379 -162.832,-454.743 -302.118,-640.33l-13047.5,0c-141.442,0 -256.014,-122.613 -256.014,-274.061l0,-96.916c0,-151.254 114.572,-273.863 256.014,-273.863l21480.3,0c756.86,0 1395.23,543.023 1593.37,1285.17l0.005,-0Z" style="fill:#548ee2;fill-rule:nonzero;"/><path d="M29316.1,28683.8l1582.39,72.584l-1582.39,43.551l-0,-116.135Z" style="fill:#f4d2b8;fill-rule:nonzero;"/><path d="M29316.1,29360.4l3764.88,72.39l-3764.88,43.75l-0,-116.14Z" style="fill:#f4d2b8;fill-rule:nonzero;"/><path d="M27657.9,34184.4l11140.4,0l0,-3353.68l-11238.7,-0c-834.547,-0 -1511.17,676.621 -1511.17,1511.17l0,233.259c0,888.692 720.573,1609.26 1609.46,1609.26Z" style="fill:#f99746;fill-rule:nonzero;"/><path d="M38261.6,34184.4l12696.9,0l0,-3353.68l-12731.8,-0c-848.672,-0 -1536.48,687.803 -1536.48,1536.48l-0,245.811c-0,867.901 703.496,1571.4 1571.4,1571.4l-0.029,0Z" style="fill:#fcecdb;fill-rule:nonzero;"/><path d="M35851.3,34184.4c-0,0 15535.6,0 15535.6,0c128.89,0 233.457,-104.364 233.457,-233.254l-0,-34.922c-0,-128.889 -104.567,-233.258 -233.457,-233.258l-15535.6,-0c-128.89,-0 -233.452,104.369 -233.452,233.258l-0,34.922c-0,128.89 104.562,233.254 233.452,233.254Z" style="fill:#f99746;fill-rule:nonzero;"/><path d="M35851.3,31332.2c-0,-0 15535.6,-0 15535.6,-0c128.89,-0 233.457,-104.369 233.457,-233.259l-0,-34.921c-0,-128.89 -104.567,-233.254 -233.457,-233.254l-15535.6,-0c-128.89,-0 -233.452,104.364 -233.452,233.254l-0,34.921c-0,128.89 104.562,233.259 233.452,233.259Z" style="fill:#f99746;fill-rule:nonzero;"/><path d="M50958.4,32507.7l-1729.92,56.307l1729.92,33.937l0,-90.244Z" style="fill:#f4d2b8;fill-rule:nonzero;"/><path d="M50958.4,31735.7l-4115.45,56.499l4115.45,33.938l0,-90.437Z" style="fill:#f4d2b8;fill-rule:nonzero;"/><path d="M46885.3,31780.8c-0,0 176.363,144.192 234.826,380.982c10.199,41.396 16.87,85.927 18.245,132.619c9.812,314.67 0,1027 0,1027l520.659,-356.263l519.288,356.263l0,-965.4c0,-182.645 -44.531,-360.185 -127.322,-476.325c-40.016,-56.5 -88.671,-98.875 -143.796,-98.875l-1021.9,0Z" style="fill:#699dee;fill-rule:nonzero;"/><path d="M46885.3,31780.8c-0,0 176.363,144.192 234.826,380.982l1043.48,14.125c-0,0 -41,-339.196 -256.405,-395.107l-1021.9,0Z" style="fill:#568cdb;fill-rule:nonzero;"/><path d="M37417.4,26537l-10964.8,-0l0,-4927.43l11004.9,0c972.853,0 1761.69,788.641 1761.69,1761.69l0,1364.04c0,995.02 -806.688,1801.71 -1801.71,1801.71l-0.005,-0.004Z" style="fill:#fcecdb;fill-rule:nonzero;"/><path d="M39225.4,23521.3l0,1060.55c-2.744,452.981 -212.66,845.927 -521.054,1056.04c-151.842,102.994 -327.42,162.046 -513.986,162.046l-12073.9,-0c-141.447,-0 -256.212,136.932 -256.212,306.04l-0,125.161c-0,168.91 114.765,305.842 256.212,305.842l20857.8,-0c598.543,-0 1127.44,-355.28 1446.82,-899.089c201.473,-342.727 319.769,-760 319.769,-1210.62l0,-836.703c0,-308.79 -59.244,-601.095 -164.79,-861.62c-268.176,-662.501 -836.313,-1119.4 -1493.9,-1119.4l-20965.7,0c-141.447,0 -256.211,136.734 -256.211,305.843l-0,124.967c-0,169.104 114.764,306.04 256.211,306.04l12110.8,0c289.556,0 551.455,147.135 734.495,382.55c162.041,208.733 262.093,486.523 263.661,792.365l0.032,0Z" style="fill:#afcdfb;fill-rule:nonzero;"/><path d="M25860.3,26106l-0,125.161c-0,168.911 114.765,305.842 256.212,305.842l20857.8,0c598.543,0 1127.44,-355.279 1446.82,-899.088l-9716.76,-0c-151.843,102.994 -327.421,162.046 -513.987,162.046l-12073.9,-0c-141.447,-0 -256.212,136.931 -256.212,306.039l0.019,0Z" style="fill:#a4c4f4;fill-rule:nonzero;"/><path d="M26452.6,24073.2l1547.86,82.786l-1547.86,50.026l0,-132.812Z" style="fill:#f4d2b8;fill-rule:nonzero;"/><path d="M26452.6,22939.2l3682.29,82.79l-3682.29,49.828l0,-132.618Z" style="fill:#f4d2b8;fill-rule:nonzero;"/><path d="M30097,23005.6c-0,-0 -243.062,156.353 -323.498,413.153c-14.318,44.922 -23.344,92.989 -25.308,143.604c-13.338,341.352 0,1113.51 0,1113.51l-717.427,-386.081l-715.663,386.081l0,-1046.62c0,-197.946 61.406,-390.591 175.389,-516.538c55.318,-61.208 122.411,-107.114 198.333,-107.114l1408.17,-0Z" style="fill:#f99746;fill-rule:nonzero;"/><path d="M30097,23005.6c-0,-0 -243.062,156.353 -323.498,413.153l-1437.8,15.302c-0,0 56.307,-367.836 353.123,-428.455l1408.17,-0Z" style="fill:#ed7d2b;fill-rule:nonzero;"/><path d="M11768.7,26101.1c-0,-0 2247.58,979.327 2655.56,961.473c407.975,-17.849 2922.02,-765.688 2922.02,-765.688l-64.15,432.383c-0,-0 -1940.02,1115.87 -2618.31,1179.23c-667.779,62.188 -2951.15,-599.329 -3171.6,-739.006c-220.447,-139.681 -364.168,-926.947 276.477,-1068.39Z" style="fill:#ed985f;fill-rule:nonzero;"/><path d="M11431,22498.8c-0,-0 -829.156,-157.535 -1242.09,143.994c-748.051,546.361 -788.227,2429.68 -1068.59,2710.22c-280.361,280.535 -956.177,160.869 -1016.34,1612.59c-60.149,1451.53 269.056,1572.97 -123.028,2220.95c-392.084,647.981 165.892,1296.55 165.892,1296.55c0,-0 -228.55,-357.633 -130.598,-615.804c-0,0 95.126,569.705 457.138,703.303c362.008,133.598 415.565,231.489 473.383,427.472c-0,-0 3088.37,-1582.58 3091.73,-2705.11c3.371,-1122.34 607.743,-2234.29 310.965,-2720.62c-0,-0 132.181,207.952 148.387,439.445c-0,-0 178.072,-341.159 -130.595,-658.772c-308.653,-317.613 362.088,-975.01 262.78,-1736.19c-68.19,-522.621 -434.911,-1095.27 -1199.03,-1118.02Z" style="fill:#233862;fill-rule:nonzero;"/><path d="M12041.8,27170.6c-197.395,136.932 -444.916,249.734 -755.621,321.535c-1164.74,269.16 -1611.08,-715.267 -1778.72,-1391.11c158.844,-90.833 308.295,-110.843 394.613,-121.239c84.179,-9.807 172.714,-16.479 246.027,-20.01c130.792,-100.25 325.678,-510.263 368.778,-1146.86l54.796,14.713l917.921,251.306c0,-0 -42.04,291.717 -62.658,567.544c-15.933,215.8 -18.442,422.179 22.44,472.596c71.627,15.5 114.628,25.702 114.628,25.702l0.452,0.782c12.322,20.208 278.633,458.278 477.342,1025.04Z" style="fill:#ffb27d;fill-rule:nonzero;"/><path d="M11489.7,25079.1c0,0 -42.195,291.524 -62.639,567.549c-520.051,-51.989 -761.389,-547.143 -855.343,-818.855l917.982,251.306Z" style="fill:#ed985f;fill-rule:nonzero;"/><path d="M11645,25353c0,0 -1234.4,-68.072 -1180.16,-836.115c54.245,-768.042 -68.524,-1294.19 721.882,-1283.21c790.426,10.984 922.673,314.867 966.931,575.788c44.258,260.722 -186.176,1541.38 -508.653,1543.54Z" style="fill:#ffb27d;fill-rule:nonzero;"/><path d="M12147.6,23379.9c-174.01,-244.832 -321.676,-204.421 -407.348,-140.661c-647.331,-418.846 -1120.85,97.698 -1120.85,97.698c-122.006,545.179 -542.025,832.386 -542.025,832.386c0,-0 214.755,154.785 742.382,58.853c161.161,-29.427 310.532,-131.832 440.401,-259.545c-234.865,336.451 -538.414,569.116 -538.414,569.116c639.35,-241.691 949.609,-1084.48 980.877,-1173.74c70.431,72.979 208.248,230.51 243.165,377.644c47.417,199.905 252.054,512.617 370.369,507.32c0,-0 92.401,-502.221 -168.557,-869.073Z" style="fill:#233862;fill-rule:nonzero;"/><path d="M9155.94,29680.3c-111.469,-569.898 -474.931,-2846.56 -111.469,-3579.29c130.533,-263.076 642.74,-286.816 1204.71,-263.863c174.876,113 841.219,539.497 1114.91,486.331c2.942,-0.589 8.258,-1.766 15.32,-3.532c128.89,-32.369 177.546,-122.806 70.036,-200.889c-0.211,-0.193 278.341,-26.875 623.992,38.255c195.235,36.687 721.802,309.18 721.802,309.18c0,0 -265.176,479.07 -656.182,644.45c66.486,594.814 -32.389,857.109 -649.412,2230.95c-521.426,1161.19 70.328,2206.63 70.328,2206.63c-0,0 -3069.34,2467.94 -3086.43,1211.41c-12.811,-945.978 824.858,-2351.41 682.394,-3079.63Z" style="fill:#f9ddbf;fill-rule:nonzero;"/><path d="M11712.1,34232.1c166.928,-18.833 317.203,-110.25 410.526,-249.931c14.808,-22.167 30.642,-46.104 47.455,-71.411c349.375,-528.898 485.309,-2148.75 1271.18,-3874.35c191.417,-420.019 878.514,-495.549 1065.86,-970.5c-0,0 461.141,-1539.22 -882.628,-1584.74c-1343.77,-45.317 -3598.83,4282.99 -3634.44,4736.93c-34.507,439.638 -888.415,2308.44 1722.04,2013.98l-0,0.014Z" style="fill:#dd6d22;fill-rule:nonzero;"/><path d="M17053,34196.6l-1912.55,0c0,0 -71.509,-305.06 54.066,-512.616c111.154,-183.624 68.543,-288.191 -13.772,-440.227c86.652,35.506 198.653,67.682 322.048,60.62c95.343,-5.495 196.181,-48.656 284.462,-100.052c82.395,93.969 434.906,493.388 544.986,572.45c124.968,89.849 682.309,57.875 720.762,419.825Z" style="fill:#233862;fill-rule:nonzero;"/><path d="M14550.9,27926.3c115.175,863.386 564.898,3588.51 1358.21,4918.01c255.817,428.654 -644.373,668.975 -649.218,667.6c-120.749,-31.583 -321.869,-224.035 -414.585,-307.607c-644.078,-580.497 -1951.57,-2224.09 -1951.57,-3541.82c0,-642.491 -11.281,-1869.79 455.962,-2181.52c287.734,-192.056 1155.47,102.213 1201.21,445.331l0,0.004Z" style="fill:#ed7d2b;fill-rule:nonzero;"/><path d="M10571.6,34196.6c0,0 70.879,-98.681 194.472,-285.836c147.097,-222.858 309.844,-661.319 507.339,-1223.37c207.462,-589.913 453.565,-1315.77 761.097,-2070.87c94.91,-233.259 195.71,-469.263 302.904,-704.678c191.43,-420.216 718.012,-362.148 905.346,-837.099c0,0 731.002,-1646.33 -612.767,-1691.65c-1343.77,-45.516 -3897.2,4404.03 -4043.94,4835.05c-160.629,471.617 -944.35,2430.47 1985.55,1978.47l0,-0.019Z" style="fill:#f99746;fill-rule:nonzero;"/><path d="M15649.1,34196.6l-1912.69,0c-0,0 -71.491,-305.06 54.065,-512.616c111.158,-183.624 68.544,-288.191 -13.753,-440.227c86.633,35.506 198.709,67.682 322.128,60.62c95.287,-5.495 196.063,-48.656 284.438,-100.052c82.301,93.969 434.793,493.388 544.93,572.45c124.987,89.849 682.233,57.875 720.879,419.825Z" style="fill:#2b478b;fill-rule:nonzero;"/><path d="M11273.5,32687.4c207.462,-589.913 453.565,-1315.77 761.098,-2070.87c-80.315,-572.257 -253.58,-1072.9 -544.907,-1274.58c0,-0 -706.796,2189.56 -216.191,3345.45Z" style="fill:#ed7d2b;fill-rule:nonzero;"/><path d="M13434.4,27865.1c115.174,863.386 277.375,3649.72 1070.72,4979.22c255.778,428.654 -644.407,668.975 -649.275,667.6c-120.726,-31.583 -321.87,-224.035 -414.567,-307.607c-644.096,-580.497 -1951.59,-2224.09 -1951.59,-3541.82c-0,-642.491 754.077,-1818.19 1221.28,-2130.12c287.757,-192.061 677.68,-10.396 723.431,332.722l-0,0.004Z" style="fill:#f99746;fill-rule:nonzero;"/><path d="M11876.1,24911.2c-0,0 -116.686,-46.104 -445.071,-19.422c-0,0 17.439,128.104 259.62,140.661c137.172,7.255 185.451,-121.239 185.451,-121.239Z" style="fill:#fff;fill-rule:nonzero;"/><path d="M17586,25392.1l-396.477,-715.469l-857.698,2393.78l505.945,543.221l748.23,-2221.53Z" style="fill:#163560;fill-rule:nonzero;"/><path d="M15515.7,25811.1l-797.45,2278.03l2119.5,-475.539l748.229,-2221.53l-2070.28,419.039Z" style="fill:#1c468a;fill-rule:nonzero;"/><path d="M14760.5,27974.2l-37.135,-64.932l754.464,-2155.82l37.864,57.677l-755.193,2163.07Z" style="fill:#efdece;fill-rule:nonzero;"/><path d="M15477.9,25753.4l2009.47,-390.987l98.677,29.624l-2070.28,419.039l-37.864,-57.676Z" style="fill:#fcecdb;fill-rule:nonzero;"/><path d="M17586,25392.1l-428.649,-680.548l-273.473,768.433l603.445,-117.509l98.677,29.624Z" style="fill:#efdece;fill-rule:nonzero;"/><path d="M16127.6,26141.1c-68.859,-13.338 -216.798,-69.056 -366.461,-110.254c44.729,-34.724 94.364,-77.292 108.272,-121.041c26.677,-84.359 44.55,-111.625 -44.536,-84.947c-89.043,26.879 -400.578,169.696 -400.578,169.696l0.787,0.391c-176.953,51.599 -340.039,301.92 -340.039,301.92c0,0 -2191.38,770.204 -2455.03,783.542c-407.857,20.401 -3122.51,-979.327 -3122.51,-979.327c-640.645,141.447 -496.924,928.713 -276.477,1068.39c220.443,139.677 2173.82,850.24 3331.48,863.579c586.358,6.869 2719.24,-1364.03 2719.24,-1364.03c0,0 249.267,-113.979 445.251,-78.275c195.79,35.51 649.939,-0 747.834,-160.281c97.895,-160.275 -231.489,-267.196 -347.238,-289.363Z" style="fill:#ffb27d;fill-rule:nonzero;"/><path d="M10906.1,26594c0,0 -242.788,768.631 -1076.61,943.625c-0,-0 -1376.98,-424.336 -691.377,-1362.27c-0,-0 677.878,-503.789 1767.99,418.643Z" style="fill:#f9ddbf;fill-rule:nonzero;"/><path d="M17550.5,26199l-0.198,0c0.589,-21.187 -1.567,-42.181 -7.26,-62.385c0,0 -196.572,-310.748 -260.915,-323.502c-195.79,-38.646 -195.79,219.331 -154.197,385.887c28.833,115.745 102.401,227.176 162.041,287.207l-7.844,243.066c331.149,-181.858 268.373,-530.273 268.373,-530.273Z" style="fill:#ffb27d;fill-rule:nonzero;"/><path d="M38830.5,25672.4c360.18,637.193 817.084,885.556 817.084,885.556l1908.24,13.339c0,0 -3000.17,-1385.03 -2725.32,-898.895Z" style="fill:#233862;fill-rule:nonzero;"/><path d="M40261.4,30593.4c49.244,57.286 55.129,121.041 30.015,188.921l-0.39,0.979c-46.5,125.358 -197.749,264.842 -373.529,403.737c-22.365,17.854 -42.37,34.135 -59.636,49.244c-4.708,3.922 -9.223,7.844 -13.536,11.771c-3.531,3.136 -6.869,6.276 -10.401,9.219c-163.811,149.098 -102.796,183.821 -397.456,486.523c-336.253,344.69 -565.98,349.399 -631.11,317.222c-54.932,-27.266 58.66,-210.697 184.603,-416.685c6.083,-10.005 11.968,-20.01 18.244,-30.015c16.875,-27.464 33.349,-55.323 50.026,-82.786c147.723,-247.973 111.036,-365.092 79.062,-736.064c-25.896,-301.331 -456.706,-1685.77 -456.706,-1685.77l640.137,-105.739c-0,0 184.796,1101.35 395.691,1272.42c112.801,91.026 239.925,92.989 348.414,160.671c7.651,4.709 15.109,9.61 22.558,14.516c61.603,41.589 124.577,84.359 174.014,141.838Z" style="fill:#ffb27d;fill-rule:nonzero;"/><path d="M40261.4,30593.4c49.244,57.286 55.129,121.041 30.015,188.921l-0.39,0.979c-56.698,125.165 -204.228,263.863 -374.118,402.56c-22.166,18.052 -41.781,34.724 -59.047,50.421c-4.708,3.922 -9.223,7.844 -13.536,11.771c-3.531,3.136 -6.869,6.276 -10.401,9.219c-163.811,149.098 -102.796,183.821 -397.456,486.523c-336.253,344.69 -565.98,349.399 -631.11,317.222c-54.932,-27.266 58.66,-210.697 184.603,-416.685c65.134,-23.344 367.643,-143.796 597.761,-433.946c202.655,-255.034 338.998,-583.439 477.107,-773.339c7.651,4.709 15.109,9.61 22.558,14.516c61.603,41.589 124.577,84.359 174.014,141.838Z" style="fill:#233862;fill-rule:nonzero;"/><path d="M35108.8,30157.7c-40.807,197.16 -321.93,162.244 -635.621,83.182c-313.691,-79.062 -239.733,12.75 -686.626,-39.823c-446.898,-52.775 -581.283,-220.509 -594.424,-287.014c-11.771,-59.046 209.322,-78.468 446.503,-103.973c30.015,-3.14 59.833,-6.672 89.853,-10.203c267.978,-31.583 465.138,-203.046 709.184,-343.118c231.295,-132.614 578.928,-677.6 578.928,-677.6l613.059,52.771c0,-0 -325.461,486.721 -451.408,698.397c-74.156,124.577 -71.406,289.956 -63.172,417.669c4.318,69.447 8.24,140.265 -6.276,209.712Z" style="fill:#ffb27d;fill-rule:nonzero;"/><path d="M34473.2,30240.8c-313.691,-79.062 -239.733,12.75 -686.626,-39.823c-446.898,-52.775 -581.283,-220.509 -594.424,-287.014c-11.771,-59.046 209.322,-78.468 446.503,-103.973l2.354,4.511c0,-0 266.801,192.061 639.152,203.634c303.295,9.614 625.423,-75.135 834.938,-70.229c4.318,69.447 8.24,140.265 -6.276,209.712c-40.807,197.161 -321.93,162.244 -635.621,83.182Z" style="fill:#233862;fill-rule:nonzero;"/><path d="M37487.4,26251.9c-0,-0 562.449,1547.07 562.449,1547.07l734.496,2020.06c-0,0 203.045,20.99 398.049,-33.546c179.5,-50.421 385.884,-184.41 385.884,-184.41c-0,-0 -192.65,-2164.84 -571.669,-3409.4c-97.108,-319.576 -206.577,-578.142 -328.597,-724.099c-596.194,-714.679 -1180.61,784.328 -1180.61,784.328Z" style="fill:#233862;fill-rule:nonzero;"/><path d="M38087.7,23805.4c376.466,-118.494 1446.82,44.532 2521.69,262.879l228.155,-369.993l2326.1,-165.186c-0,0 755.094,1706.57 327.618,2787.71c-62.974,158.906 -216.191,225.015 -425.315,226.978l-0.198,0.198c-0,0 -1387.58,24.13 -1837.02,20.99c-1156.09,-8.24 -2441.26,-811.985 -2608.01,-846.709c-272.884,-56.5 -386.077,489.268 -663.476,1061.33c-277.201,572.059 -2586.82,2523.46 -2586.82,2523.46c0,-0 -352.925,1.177 -498.294,-54.541c-156.353,-60.031 -213.051,-136.734 -213.051,-136.734c0,-0 2579.37,-5042.97 3428.63,-5310.4l-0,0.023Z" style="fill:#2b478b;fill-rule:nonzero;"/><path d="M40873.7,20496.6c824.74,461.607 2497.56,1418.38 2506.39,1412.49c-0,-0 615.611,236.983 967.557,6.864c586.381,-383.529 906.744,-1424.65 -154.395,-2330.02c-529.289,-451.607 -906.74,-563.231 -959.119,-1278.68c-28.448,-388.063 -549.695,-1671.98 -1431.52,-1559.81c-73.567,9.398 -147.921,15.952 -222.077,13.028c-102.796,-4.04 -272.888,9.77 -447.877,112.293c-500.653,293.327 -1498.81,3438.63 -258.957,3623.83Z" style="fill:#233862;fill-rule:nonzero;"/><path d="M41570.3,20113.5c-3.532,2.354 406.482,145.562 682.115,25.698c259.348,-112.411 458.076,-536.356 454.352,-536.549c-117.708,-6.281 -246.009,-110.056 -340.566,-785.505l-50.224,17.656l-844.161,297.019c0,-0 59.052,270.727 96.718,528.111c31.588,216.192 48.062,423.357 1.766,453.57Z" style="fill:#ffb27d;fill-rule:nonzero;"/><path d="M41471.8,19131.8c-0,-0 35.905,189.702 85.926,460.825c484.174,-83.77 688.199,-496.726 758.235,-757.844l-844.161,297.019Z" style="fill:#ed975d;fill-rule:nonzero;"/><path d="M41344.5,19399.2c0,0 1153.14,-146.546 1050.74,-863.187c-102.213,-716.84 -22.369,-1218.35 -762.75,-1155.1c-740.579,63.228 -844.355,357.064 -868.485,604.622c-23.932,247.581 277.79,1433.29 580.496,1413.67Z" style="fill:#ffb27d;fill-rule:nonzero;"/><path d="M40808.9,17593.4c-0,0 732.927,640.72 1234.16,695.454c501.242,54.734 692.319,-104.957 692.319,-104.957c-0,-0 -293.878,-247.577 -469.065,-644.92c-51.593,-117.138 -161.848,-198.06 -289.363,-209.972c-358.029,-33.448 -1036.81,-52.337 -1168.05,264.395Z" style="fill:#233862;fill-rule:nonzero;"/><path d="M41270.3,17539.7c-0,0 -248.561,236.805 -327.425,413.272c-76.12,170.087 -101.62,578.335 -42.964,740.969c0,0 -379.216,-750.193 -158.905,-1111.79c233.452,-383.43 529.294,-42.45 529.294,-42.45Z" style="fill:#233862;fill-rule:nonzero;"/><path d="M40588.4,21803.5c18.244,2332.18 -3.527,1844.87 249.935,2067.93c61.208,53.754 233.645,86.712 461.019,103.191c714.683,52.578 1972.59,-56.301 2021.24,-188.134c168.322,-456.117 52.771,-598.939 195.395,-1298.12c14.714,-74.349 33.151,-154.786 54.536,-242.28c118.104,-480.049 231.103,-642.881 -170.676,-1418.18c-364.107,-702.324 -743.521,-1272.82 -778.24,-1252.61c-977.957,571.273 -1053.09,84.75 -1053.09,84.75c0,-0 -989.332,1006.01 -980.113,2143.45Z" style="fill:#f9ddbf;fill-rule:nonzero;"/><path d="M38049.9,27799l734.496,2020.06c-0,0 203.045,20.99 398.049,-33.546c179.499,-50.422 385.883,-184.411 385.883,-184.411c0,0 -192.649,-2164.84 -571.668,-3409.4l-946.76,1607.3Z" style="fill:#2b478b;fill-rule:nonzero;"/><path d="M41568.6,19659.9c-0,0 -1003.26,162.832 -1124.11,593.444c-120.651,430.81 -831.016,2962.31 -831.016,2962.31c-0,0 508.695,95.146 745.678,-138.504c237.181,-233.649 834.354,-2177.79 834.354,-2177.79l375.092,-1239.46Z" style="fill:#f9ddbf;fill-rule:nonzero;"/><path d="M41299.4,23974.7c714.683,52.578 1972.59,-56.302 2021.24,-188.134c168.322,-456.117 52.771,-598.939 195.395,-1298.12l-338.019,-973.636c0,0 49.245,1081.93 -271.706,1364.23c-320.556,282.103 -1309.69,539.882 -1466.25,776.475c-75.723,113.394 -125.749,227.571 -140.66,319.185Z" style="fill:#f2ccaa;fill-rule:nonzero;"/><path d="M42122,23525.6c-0,-0 -704.476,-162.046 -818.657,-100.249c-114.369,61.796 -394.118,287.795 -429.435,367.055c-35.505,79.057 253.858,-58.464 347.633,-82.984c61.01,-15.891 220.306,40.802 299.368,67.682c332.129,113.39 536.554,57.676 536.554,57.676l64.537,-309.18Z" style="fill:#ffb27d;fill-rule:nonzero;"/><path d="M42622.2,19574.8c0,0 946.765,65.13 1271.44,524.778c457.101,647.001 1353.44,3397.24 826.115,3759.39c-593.835,408.05 -2690.6,88.869 -2690.6,88.869c0,0 -67.484,-326.836 30.802,-484.174c98.286,-157.139 1679.3,-401.185 1752.67,-473.575c73.374,-72.193 -901.052,-1427.6 -899.484,-1646.14c1.572,-218.739 -290.936,-1769.15 -290.936,-1769.15Z" style="fill:#f9ddbf;fill-rule:nonzero;"/><path d="M41267.8,23621.5c0,0 -149.291,189.509 -197.749,212.072c-48.651,22.364 -80.041,16.479 -80.041,16.479l101.036,-178.525l176.754,-50.026Z" style="fill:#ffb27d;fill-rule:nonzero;"/><path d="M41303.3,23425.3l-431.201,205.795c0,0 18.052,30.016 71.02,27.855c52.771,-1.959 186.764,-49.828 186.764,-49.828l173.417,-183.822Z" style="fill:#ffb27d;fill-rule:nonzero;"/><path d="M41161.9,24141.2l-3399.4,-23.933l-1004.63,-2550.14l3394.1,23.932l1009.93,2550.14Z" style="fill:#f99746;fill-rule:nonzero;"/><path d="M37723.2,24018l4489.18,31.588l-0.787,99.067l-4449.15,-31.386l-39.239,-99.269Z" style="fill:#ed7d2b;fill-rule:nonzero;"/><path d="M38629.6,22851.9c-25.105,-89.656 27.27,-161.655 116.535,-161.067c89.453,0.589 182.249,73.765 207.161,163.223c24.916,89.656 -27.266,161.848 -116.531,161.062c-89.458,-0.589 -182.249,-73.761 -207.165,-163.218Z" style="fill:#fff;fill-rule:nonzero;"/><path d="M30831,32167.9l-0.391,2053.41l-10328.7,-2.161l0.391,-2053.21l10328.7,1.963Z" style="fill:#c65447;fill-rule:nonzero;"/><path d="M20501.8,34219.3l-1518.04,-649.356l-882.807,-377.841l903.604,-386.081l1497.83,-640.132c0,0 199.91,499.867 202.848,970.109c4.709,737.829 -203.436,1083.3 -203.436,1083.3Z" style="fill:#fcecdb;fill-rule:nonzero;"/><path d="M32031.7,32849.2l0,649.157c-0.197,399.42 -323.893,722.923 -723.12,722.923l-477.893,-0l0.391,-2053.41l519.679,0.193c376.274,0 681.136,305.061 680.943,681.137Z" style="fill:#fcecdb;fill-rule:nonzero;"/><path d="M19004.6,32806.1c37.666,207.363 70.234,525.174 -20.797,763.922l-882.807,-377.841l903.604,-386.081Z" style="fill:#2b478b;fill-rule:nonzero;"/><path d="M22722.6,21474.9c0,-0 184.994,802.766 724.293,802.766c462.393,-0 1096.45,-1045.05 1096.45,-1045.05l-1820.74,242.28Z" style="fill:#f99746;fill-rule:nonzero;"/><path d="M28914.2,33331.8c-0,0 -346.452,238.358 -346.452,238.358c0,0 -1666.34,-1776.21 -2068.71,-3478.85c-71.604,-303.883 -100.64,-603.642 -70.036,-888.104c-0,0 -24.328,-77.098 -66.896,-213.441c-1.765,-6.084 -3.729,-12.167 -5.692,-18.245c-18.636,-59.838 -40.807,-130.265 -65.719,-209.915c-80.822,-257.191 -191.863,-609.33 -318.206,-1010.12c-291.321,-922.437 -957.354,-3002.53 -1242.01,-3867.87l2045.76,-740.188c0,-0 232.473,529.882 566.372,1970.04c51.396,187.941 102.796,395.888 151.056,622.282c54.537,256.603 105.349,537.138 147.723,840.235c71.802,513.205 119.671,1090.76 122.614,1724.42c1.172,257.582 -5.104,524.976 -20.406,800.609c-11.182,202.062 18.833,471.612 75.333,778.048c257.582,1401.11 1095.27,3452.76 1095.27,3452.76Z" style="fill:#2b478b;fill-rule:nonzero;"/><path d="M30004.2,34187.8l-1653.99,-0c-0,-0 -61.797,-263.665 46.688,-443.169c96.129,-158.906 59.447,-249.347 -11.767,-380.784c74.938,30.604 171.849,58.656 278.572,52.379c82.395,-4.708 169.499,-41.983 246.009,-86.515c71.015,81.219 375.878,426.691 471.221,495.154c108.094,77.687 589.913,50.026 623.262,362.935Z" style="fill:#233862;fill-rule:nonzero;"/><path d="M27641.4,26576l-1284.98,2395.55c-18.635,-59.837 -40.807,-130.264 -65.719,-209.915c-80.822,-257.191 -191.863,-609.33 -318.206,-1010.12c-291.321,-922.437 -957.353,-3002.53 -1242.01,-3867.87l2045.76,-740.188c0,0 232.473,529.883 566.372,1970.04c51.396,187.942 102.796,395.889 151.056,622.283c54.537,256.602 105.349,537.137 147.723,840.235Z" style="fill:#233862;fill-rule:nonzero;"/><path d="M24697.1,33670.1c0,-0 -114.369,280.93 -6.667,517.72l899.677,0c0,0 18.64,-213.446 -307.805,-461.221c-247.182,-187.546 -585.205,-56.499 -585.205,-56.499Z" style="fill:#233862;fill-rule:nonzero;"/><path d="M25676.3,15382.9c0.589,-44.771 23.542,-527.664 757.251,-570.552c-0,-0 -359.988,51.753 -418.644,211.991c0,0 241.103,-202.062 442.779,-143.815c201.864,58.265 327.811,406.209 331.931,521.562c3.926,115.354 -98.484,489.956 -224.624,524.661c-47.87,13.122 -103.385,11.262 -154,3.903c35.115,51.97 69.641,109.412 102.797,173.68c307.608,594.381 42.375,1294.55 -207.363,1235.57c-160.078,-37.822 -257.384,239.634 -257.384,239.634l-1539.62,-1323.95c-0,0 539.491,-1188.34 1166.87,-872.684Z" style="fill:#2c3a64;fill-rule:nonzero;"/><path d="M24708.5,19405.9c170.676,118.494 384.711,216.191 653.277,278.181c1007.38,232.67 1393.27,-618.554 1538.25,-1202.95c-137.327,-78.474 -266.608,-95.956 -341.159,-104.784c-72.781,-8.63 -149.489,-14.318 -212.853,-17.439c-112.999,-86.534 -281.712,-441.225 -318.79,-991.626l-47.479,12.713l-793.74,217.245c0,0 36.292,252.366 54.146,490.921c13.729,186.567 15.89,364.894 -19.422,408.643c-61.994,13.339 -99.072,22.167 -99.072,22.167l-0.391,0.786c-10.791,17.459 -240.91,396.087 -412.763,886.141Z" style="fill:#ffb27d;fill-rule:nonzero;"/><path d="M25186,17597.4c0,0 36.49,252.012 54.146,490.761c449.643,-44.927 658.381,-473.147 739.595,-707.993l-793.741,217.232Z" style="fill:#ed985f;fill-rule:nonzero;"/><path d="M25176.8,17976.1c0,0 1035.44,-266.137 859.657,-908.387c-175.583,-642.274 -160.281,-1109.16 -828.662,-966.418c-668.579,142.7 -729.397,422.769 -722.923,651.394c6.474,228.626 418.06,1275.99 691.928,1223.41Z" style="fill:#ffb27d;fill-rule:nonzero;"/><path d="M24417.3,16387.3c106.327,-236.908 238.357,-227.567 321.732,-188.036c478.289,-464.474 967.166,-106.215 967.166,-106.215c195.395,441.762 600.111,614.415 600.111,614.415c0,0 -155.962,167.658 -619.73,175.229c-141.64,2.317 -285.441,-59.287 -417.274,-145.759c256.014,245.674 552.637,391.848 552.637,391.848c-583.043,-97.071 -988.348,-759.567 -1029.94,-829.975c-47.277,73.798 -137.718,230.608 -142.427,361.301c-6.474,177.621 62.781,520.541 -38.448,536.041c0,-0 -353.123,-453.608 -193.826,-808.849Z" style="fill:#2c3a64;fill-rule:nonzero;"/><path d="M24879,18465.3c-0,0 1738.93,-422.179 2495.01,201.478l-377.841,5270.15l-3400.97,-821.797c0,-0 95.734,-333.306 747.835,-1220.04c652.1,-886.927 368.429,-2187.6 535.965,-3429.8l-0,0.014Z" style="fill:#ffb27d;fill-rule:nonzero;"/><path d="M25892.6,23350.2c-0,-0 -1.959,17.853 -5.49,51.989c-1.573,14.515 -3.531,32.369 -5.688,52.968c-14.713,136.541 -42.379,398.633 -78.082,739.397c-93.385,893.796 -239.733,2329.24 -339.587,3462.37c-78.078,885.947 -127.712,1587.09 -100.837,1699.7c80.436,338.805 -0,4388.73 -0,4388.73c-289.166,138.702 -727.429,-0 -727.429,-0c0,-0 -769.808,-3649.53 -662.105,-4156.85c107.697,-507.32 -72,-940.286 -72,-940.286c-597.954,-2783.98 -532.434,-4327.13 -413.742,-5065.76c34.526,-214.816 73.567,-361.555 102.208,-451.013c24.328,-76.119 41,-110.843 41,-110.843c1318.72,-354.888 2261.75,329.581 2261.75,329.581l-0,0.015Z" style="fill:#2b478b;fill-rule:nonzero;"/><path d="M27608.4,20170c-83.963,634.049 -419.825,1409.94 -539.689,1827.41c-0,-0 200.498,1449.96 9.026,1848.01c-21.776,45.317 -48.651,77.098 -81.614,91.416c-709.189,308.982 -3470.8,9.026 -3587.33,-881.823c-42.375,-323.696 1051.91,-1462.32 1115.67,-1600.43c26.484,-57.286 54.541,-242.478 -73.765,-626.402c-181.859,560.683 -1185.51,399.424 -1185.51,399.424c117.708,-201.478 411.393,-1596.12 739.011,-2225.66c246.404,-473.185 904.192,-541.648 904.192,-541.648c0,-0 273.868,434.143 935.974,372.544c662.298,-61.603 783.339,-466.889 783.339,-466.889c0,-0 587.168,78.059 768.24,224.016c31.39,25.307 322.519,749.407 212.462,1580.03Z" style="fill:#f99746;fill-rule:nonzero;"/><path d="M27068.7,21997.4c0,0 200.499,1449.96 9.026,1848.01c-516.543,-259.352 -923.812,-960.89 -829.839,-1742.47c69.448,-577.549 172.833,-709.382 481.815,-1039.95c227.176,-242.869 752.152,-256.603 710.954,-141.052c-122.416,344.097 -308.587,854.949 -371.956,1075.46Z" style="fill:#ed7d2b;fill-rule:nonzero;"/><path d="M24912,20283l1184.14,1899.6l-2014.76,-0l-1128.23,-1858.6l1958.85,-41Z" style="fill:#1c468a;fill-rule:nonzero;"/><path d="M26034.5,22087.2l20.406,-66.307l-1120.38,-1797.79l-22.557,59.838l1122.54,1804.26Z" style="fill:#efdece;fill-rule:nonzero;"/><path d="M24934.5,20223.1l-1898.04,53.952l-83.374,46.885l1958.85,-40.999l22.558,-59.838Z" style="fill:#fcecdb;fill-rule:nonzero;"/><path d="M22953.1,20324l-1064.86,-576.377l1241.23,1949.24l951.864,485.742l-1128.23,-1858.6Z" style="fill:#163560;fill-rule:nonzero;"/><path d="M28587.8,21655.2c-113.984,52.182 -406.68,396.872 -511.247,431.987c-469.846,157.139 -2469.31,-261.113 -2469.31,-261.113l61.994,-350.181c0,0 1962.38,51.985 2178.18,-5.692c40.609,-10.984 252.68,-342.529 334.289,-390.201l406.092,575.2Z" style="fill:#ffb27d;fill-rule:nonzero;"/><path d="M25669.2,21475.7c-0,0 -236.593,-192.452 -396.477,-148.9c-159.89,43.552 -395.305,245.811 -482.602,293.681c-87.301,47.869 -324.68,219.133 -204.42,322.716c120.26,103.583 494.763,14.516 643.272,-64.739c148.312,-79.453 378.43,-52.38 378.43,-52.38l61.797,-350.378Z" style="fill:#ffb27d;fill-rule:nonzero;"/><path d="M25318,21320.5c0,0 -287.597,-34.333 -366.268,-32.765c-78.469,1.573 -57.088,18.834 -13.734,79.651c43.358,61.01 193.045,84.358 199.91,105.739c6.864,21.187 180.092,-152.625 180.092,-152.625Z" style="fill:#ffb27d;fill-rule:nonzero;"/><path d="M26627.7,18365.9c0,-0 852.99,101.209 1087.82,466.889c296.821,462.591 997.572,2304.32 975.01,2768.48c-0,-0 -512.419,872.015 -2269.21,732.334c0,0 -182.837,-645.626 186.765,-858.677c-0,0 902.422,-160.473 1006.2,-252.087l-735.673,-1336.97l-250.915,-1519.98Z" style="fill:#f99746;fill-rule:nonzero;"/><path d="M23226,21018.5c-26.484,-107.505 -260.722,-40.412 -339.779,21.578c-19.229,14.911 -39.828,40.609 -60.036,70.431c-2.547,-17.854 -4.708,-35.119 -5.881,-48.458c-4.317,-50.614 -63.171,-141.051 -77.687,-73.369c-14.713,67.875 -38.65,352.139 -38.65,352.139c-2.943,229.139 144.389,323.696 238.946,249.149c94.562,-74.546 309.378,-463.966 283.087,-571.47Z" style="fill:#ffb27d;fill-rule:nonzero;"/><path d="M54533,34370.8l-53722.2,-0c-38.057,-0 -69.212,-31 -69.212,-69.057l-0,-45.317c-0,-38.255 31.155,-69.25 69.212,-69.25l53722.2,-0c38.057,-0 69.249,30.995 69.249,69.25l0,45.317c0,38.057 -31.192,69.057 -69.249,69.057Z" style="fill:#2e3552;fill-rule:nonzero;"/></g></svg>