<?xml version="1.0" encoding="UTF-8" standalone="no"?><!DOCTYPE svg PUBLIC "-//W3C//DTD SVG 1.1//EN" "http://www.w3.org/Graphics/SVG/1.1/DTD/svg11.dtd"><svg width="100%" height="100%" viewBox="0 0 52084 34725" version="1.1" xmlns="http://www.w3.org/2000/svg" xmlns:xlink="http://www.w3.org/1999/xlink" xml:space="preserve" xmlns:serif="http://www.serif.com/" style="fill-rule:evenodd;clip-rule:evenodd;stroke-linejoin:round;stroke-miterlimit:2;"><g><path d="M13547,24151.6c-0,-0 1951.55,409.206 1852.99,767.699c-98.587,358.286 -2141.74,-612.89 -2141.74,-612.89c-0,-0 -1506.44,1347.25 -1716.07,2033.97c0,-0 2200.15,-311.248 2016.37,11.862c-183.786,323.317 -2458.17,753.383 -2458.17,753.383c0,-0 -1034.22,1592.86 -126.607,2293.28c907.617,700.415 1604.09,465.035 1773.86,235.791c169.793,-229.043 827.94,-1877.93 1023.28,-1747.06c195.339,130.882 77.262,1379.57 -370.311,1917.81c-0,0 1964.95,15.544 2250.29,-914.321c285.486,-929.87 -153.582,-1436.01 33.336,-2007.59c186.706,-571.378 503.46,-914.327 537.836,-575.673c34.356,338.654 -453.992,1234.37 -259.104,1839.08c194.892,604.915 279.144,1064.02 793.672,303.886c514.523,-759.925 1025.78,-2294.91 510.229,-2857.9c-22.293,-24.54 -43.765,-47.853 -64.418,-70.351c45.399,39.877 64.418,70.351 64.418,70.351c152.963,-116.158 674.441,-169.327 1067.5,-193.459c65.031,0.407 157.057,-3.681 283.851,-13.704c56.236,-2.041 102.042,-3.474 133.945,-4.088c853.996,10.636 2054.82,689.985 2054.82,689.985l121.066,-157.871c-1112.08,-921.483 -2445.22,-665.652 -2445.22,-665.652c-1015.96,103.27 -1731.31,-218.206 -1731.31,-218.206c-0,0 -232.724,-1967.91 -1755.58,-1725.37c-0,0 -992.526,287.527 -1448.93,847.043Z" style="fill:#8fc1ed;fill-opacity:0.63;fill-rule:nonzero;"/><path d="M39277.7,7569.61c-519.844,-1919.61 -3759.14,-1319.72 -3759.14,-1319.72c0,-0 -2199.62,3359.3 -2839.29,3439.28c-639.884,79.981 1319.65,-3239.32 1319.65,-3239.32c-1239.68,-119.987 -4399.02,1399.7 -4399.02,1399.7c-0,0 199.791,3919.18 -440.088,3839.18c-639.683,-79.981 -0,-3479.26 -0,-3479.26c-1199.61,359.92 -2319.46,1759.63 -2319.46,1759.63c-1399.6,2279.51 1599.61,3959.18 1599.61,3959.18c-0,0 40.084,1359.69 -799.802,2919.38l-0,0.019c-0,0 -189.578,287.979 -382.213,777.451l327.198,0c26.587,-87.711 56.035,-172.478 88.757,-253.887l0.614,-1.472l1.428,-3.519c22.292,-50.553 54.602,-122.456 94.686,-210.084l0.206,-0.329l0.201,-0.407c99.8,-195.624 167.491,-340.126 210.024,-444.461l0.408,-0.982c299.394,-614.058 730.682,-1414.15 1018.42,-1581.96c0,-0 -36.196,-50.921 -69.939,-150.024c22.292,47.834 45.605,97.714 69.939,150.024c559.928,1199.75 3359.34,1399.69 4919.07,1079.77c1559.53,-319.94 879.764,-759.846 39.878,-1473.82c-839.68,-713.951 -2599.41,-525.748 -3119.25,-805.692c-519.843,-279.944 239.88,-559.883 1279.77,-479.902c1039.68,79.981 1559.53,1119.77 3239.3,1279.73c1679.57,159.958 2959.33,-2999.38 2959.33,-2999.38c-1159.75,359.92 -3239.3,-279.939 -3319.26,-679.865c-79.961,-399.901 2999.41,-359.92 3479.17,-479.882c479.965,-119.982 1319.85,-1079.79 799.807,-2999.38Z" style="fill:#8fc1ed;fill-opacity:0.63;fill-rule:nonzero;"/><path d="M8220.87,7710.77c716.081,-1146.17 2704.86,-118.224 2704.86,-118.224c0,-0 769.191,2617.99 1169.6,2795.98c400.412,178 -220.577,-2366.71 -220.577,-2366.71c829.967,166.054 2585.61,1776.52 2585.61,1776.52c0,-0 -901.688,2509.68 -469.782,2583.63c431.927,73.964 685.038,-2262.93 685.038,-2262.93c709.456,470.312 1162.14,1601.17 1162.14,1601.17c461.561,1758.2 -1819.92,2260.1 -1819.92,2260.1c-0,-0 -293.726,876.49 -54.583,2056.26l0.025,0.039c0,0 66.563,224.601 95.52,580.905l-212.743,-64.399c-0.123,-62.312 -2.577,-123.25 -7.75,-182.618l-0.123,-1.084l-0.245,-2.577c-4.624,-37.281 -11.411,-90.391 -20.246,-155.275l-0.039,-0.251l-0.064,-0.304c-26.464,-146.912 -41.944,-254.196 -49.159,-330.452l-0.024,-0.697c-73.842,-458.346 -196.871,-1063.65 -350.944,-1229.46c0,-0 33.561,-25.993 75.073,-83.785c-23.946,26.729 -48.898,54.582 -75.073,83.785c-600.374,670.093 -2460.5,248.979 -3411.92,-266.197c-951.422,-515.161 -422.641,-667.433 264.155,-966.455c686.795,-299.021 1794.23,169.857 2187.49,90.146c393.256,-79.736 -45.826,-411.415 -737.863,-564.094c-692.027,-152.704 -1234.9,421.207 -2358.84,194.539c-1123.94,-226.647 -1334.27,-2533.47 -1334.27,-2533.47c683.463,462.44 2162.01,455.716 2292.77,211.335c130.76,-244.361 -1879.94,-824.632 -2168.45,-997.149c-288.509,-172.517 -645.774,-962.136 70.327,-2108.28Z" style="fill:#8fc1ed;fill-opacity:0.63;fill-rule:nonzero;"/><path d="M25038.7,7573.59c-501.232,-834.753 -1946.85,-119.692 -1946.85,-119.692c0,-0 -587.535,1875.97 -878.336,1999.08c-290.594,123.108 189.166,-1701.98 189.166,-1701.98c-600.007,109.017 -1885.09,1246.64 -1885.09,1246.64c-0,0 617.385,1819.3 305.318,1867.05c-312.072,47.77 -464.422,-1638.79 -464.422,-1638.79c-517.183,329.716 -857.678,1138.52 -857.678,1138.52c-355.017,1260.57 1282.02,1651.25 1282.02,1651.25c0,0 200.41,635.094 13.09,1481.85l0,0.044c0,-0 -50.715,160.939 -76.281,417.221l154.196,-43.681c0.815,-44.889 3.475,-88.757 7.976,-131.432l-0,-0.8l0.201,-1.841c3.887,-26.788 9.408,-64.967 16.569,-111.594l0,-0.387c21.061,-105.503 33.532,-182.584 39.672,-237.406l-0,-0.511c59.097,-329.206 155.417,-763.669 268.508,-881.119c0,0 -23.72,-19.16 -52.967,-61.325c16.977,19.548 34.562,39.941 52.967,61.325c423.931,490.337 1769.14,210.741 2461.17,-148.178c691.831,-358.939 312.887,-475.362 -177.916,-699.536c-491.004,-224.155 -1294.69,99.427 -1576.9,36.992c-282.212,-62.43 38.238,-295.748 538.656,-396.917c500.413,-101.145 884.26,319.188 1696.74,170.269c812.485,-148.895 993.469,-1807.89 993.469,-1807.89c-498.371,324.382 -1563.21,300.656 -1654.21,122.966c-91.206,-177.671 1364.64,-569.984 1574.66,-690.579c210.02,-120.576 477.507,-684.793 -23.725,-1519.55Z" style="fill:#8fc1ed;fill-opacity:0.63;fill-rule:nonzero;"/><path d="M632.129,29638.1c-16.014,4.5 -36.525,8.996 -62.209,13.497c20.737,-4.908 41.247,-9.61 62.209,-13.497Z" style="fill:#95c38b;fill-rule:nonzero;"/><path d="M21066.5,18064.4l-983.652,11695.2c-0,0 -103.069,709.004 424.343,710.231c866.88,2.047 4315.38,0 4315.38,0c0,0 -652.561,-147.442 -644.586,-479.553c9.409,-391.416 1149.71,-12036.5 1149.71,-12036.5l-4261.19,110.676Z" style="fill:#d86713;fill-rule:nonzero;"/><path d="M25102.5,30257.8c-170.554,0.407 -3464.45,10.837 -4308.64,0c-368.102,-4.702 -432.52,-327.203 -435.587,-535.996c-1.634,-100.207 11.043,-174.034 11.043,-174.034l25.566,-304.091l65.232,-774.649l57.67,-684.67l74.033,-879.563l62.165,-742.339l698.986,-8310.32l4261.19,-110.572c0,-0 -480.167,4873.41 -819.842,8420.9c-38.042,395.303 -74.032,774.242 -107.363,1128.03c-10.842,112.884 -21.271,223.315 -31.495,330.879c-31.494,335.587 -60.128,643.772 -85.277,915.961c-13.295,143.56 -25.359,276.69 -36.402,398.777c-43.358,478.533 -68.713,784.058 -69.125,842.139c-0.201,33.743 2.66,65.233 8.388,94.48c69.939,372.804 565.444,385.074 629.454,385.074l0,-0.005Z" style="fill:#f99746;fill-rule:nonzero;"/><path d="M10717.8,11700.3l2395.87,9623.86l328.038,1318.01l1115.88,4482.46l20731.3,0l-4112.93,-15424.3l-20458.2,0l0,-0.014Z" style="fill:#f99746;fill-rule:nonzero;"/><path d="M10717.7,11700.3l-332.053,110.676l3730.45,15648.4l441.477,-334.767l-3839.87,-15424.3l-0,-0.009Z" style="fill:#f99746;fill-rule:nonzero;"/><path d="M14116.1,27459.3l20603.9,-0l568.919,-334.767l-20731.3,0l-441.477,334.767l-0.03,-0Z" style="fill:#d86713;fill-rule:nonzero;"/><rect x="21351.5" y="30262.5" width="4460.99" height="211.865" style="fill:#f1a34f;"/><path d="M34284.6,24282.4l-3363.84,-12378.2l-20152.3,0l-50.734,-203.928l20458.2,-0l3352.6,12554.5l-243.973,27.608l0.034,0.025Z" style="fill:#f1a34f;fill-rule:nonzero;"/><path d="M24678.6,27459.3l-23.107,161.965l-4195.34,847.66l57.669,-684.67l27.402,-324.955l4133.38,-0Z" style="fill:#d86713;fill-rule:nonzero;"/><path d="M22833.5,30262.5l-1013.71,-0c-439.067,-0.614 -811.665,-2.042 -1025.98,-4.702c-368.102,-4.702 -432.52,-327.204 -435.587,-535.996l4175.5,-785.697c-43.357,478.533 -68.712,784.058 -69.124,842.139l-0,3.068c-0,32.717 2.866,63.191 8.388,91.412c69.939,372.804 565.444,385.074 629.454,385.074c-96.32,0.206 -1185.7,3.681 -2268.94,4.702Z" style="fill:#ec8432;fill-rule:nonzero;"/><path d="M22290.8,30262.7c-162.377,0 -320.455,-0.206 -470.964,-0.206l1013.71,-0c-182.623,-0 -365.246,0.206 -542.75,0.206Z" style="fill:#e78b37;fill-rule:nonzero;"/><path d="M23664.6,24002.1l-9107.04,3122.53l-1115.92,-4482.46l10222.9,1359.94l0.034,0Z" style="fill:#ed7d2b;fill-rule:nonzero;"/><path d="M10717.7,11700.3l20458.2,-0l3319.26,12396.3l-20691.5,0l-3086.05,-12396.3Z" style="fill:#699dee;fill-rule:nonzero;"/><path d="M25472.8,25663.6c-59.098,-304.092 -353.378,-550.514 -657.47,-550.514c-303.89,-0 -502.459,246.422 -443.356,550.514c59.102,303.89 353.373,550.312 657.469,550.312c303.891,0 502.46,-246.422 443.357,-550.312Z" style="fill:#d86713;fill-rule:nonzero;"/><path d="M33530.4,23559.3l-19155.1,-0l-2169.29,-8641.66l-166.259,-662.706l-141.941,-565.263l-332.685,-1325.41l18879.1,0l365.236,1325.41l155.83,565.263l182.623,662.706l2382.44,8641.66l0.024,-0Z" style="fill:#e4edf9;fill-rule:nonzero;"/><path d="M30809.5,13689.7l-18911.6,-0l-332.686,-1325.41l18879.1,-0l365.236,1325.41Z" style="fill:#afcdfb;fill-rule:nonzero;"/><path d="M12346.2,12963.3c-22.822,-91.495 32.865,-165.69 124.38,-165.69c91.495,0 184.173,74.195 206.996,165.69c22.802,91.511 -32.884,165.686 -124.379,165.686c-91.516,-0 -184.194,-74.175 -206.997,-165.686Z" style="fill:#e9f3fe;fill-rule:nonzero;"/><path d="M12896.7,12963.3c-22.822,-91.495 32.864,-165.69 124.379,-165.69c91.51,0 184.174,74.195 206.996,165.69c22.823,91.511 -32.864,165.686 -124.379,165.686c-91.515,-0 -184.174,-74.175 -206.996,-165.686Z" style="fill:#e9f3fe;fill-rule:nonzero;"/><path d="M13489.5,12963.3c-22.823,-91.495 32.864,-165.69 124.379,-165.69c91.495,0 184.193,74.195 206.996,165.69c22.822,91.511 -32.864,165.686 -124.379,165.686c-91.515,-0 -184.194,-74.175 -206.996,-165.686Z" style="fill:#e9f3fe;fill-rule:nonzero;"/><path d="M29310.7,22792.6l-14188.7,-0l-2159.26,-8473.56l13988.6,0l2359.33,8473.56l0.029,-0Z" style="fill:#cae0ff;fill-rule:nonzero;"/><path d="M31145.7,16290.7l-3215.78,-0l-587.938,-1971.64l3254.84,-0l548.88,1971.64Z" style="fill:#d2e3fc;fill-rule:nonzero;"/><path d="M22470,15144.3l-1840.1,-0l-75.667,-283.684l1839.89,-0l75.873,283.684Z" style="fill:#1c468a;fill-rule:nonzero;"/><path d="M25732.1,15144.3l-3010.05,-0l-75.868,-283.684l3010.26,-0l75.667,283.684Z" style="fill:#78acea;fill-rule:nonzero;"/><path d="M22779.2,15908.6l-3263.22,0l-75.667,-283.684l3263.22,-0l75.667,283.684Z" style="fill:#78acea;fill-rule:nonzero;"/><path d="M24764,15908.6l-1691.42,0l-75.668,-283.684l1691.43,-0l75.662,283.684Z" style="fill:#f1a34f;fill-rule:nonzero;"/><path d="M23025.2,17224.6l-1840.1,0l-75.662,-283.664l1840.1,0l75.668,283.664Z" style="fill:#699dee;fill-rule:nonzero;"/><path d="M26287.4,17224.6l-3010.05,0l-75.662,-283.664l3010.05,0l75.662,283.664Z" style="fill:#78acea;fill-rule:nonzero;"/><path d="M23334.4,17989l-3263.02,-0l-75.873,-283.689l3263.22,-0l75.667,283.689Z" style="fill:#fff;fill-rule:nonzero;"/><path d="M25319.3,17989l-1691.23,-0l-75.868,-283.689l1691.43,-0l75.667,283.689Z" style="fill:#fff;fill-rule:nonzero;"/><path d="M21358.5,19172.1l-6225.1,-0l-75.706,-283.846l6225.1,-0l75.667,283.846l0.039,-0Z" style="fill:#1c468a;fill-rule:nonzero;"/><path d="M23596.5,19172.1l-1840.1,-0l-75.662,-283.846l1839.89,-0l75.873,283.846Z" style="fill:#699dee;fill-rule:nonzero;"/><path d="M26858.7,19172.1l-3010.05,-0l-75.869,-283.846l3010.26,-0l75.662,283.846Z" style="fill:#78acea;fill-rule:nonzero;"/><path d="M17177.4,19936.4l-1840.02,-0l-75.726,-283.645l1839.87,0l75.873,283.645Z" style="fill:#fff;fill-rule:nonzero;"/><path d="M23905.8,19936.4l-3263.22,-0l-75.667,-283.645l3263.22,0l75.667,283.645Z" style="fill:#f1a34f;fill-rule:nonzero;"/><path d="M20439.7,19936.4l-3010.05,-0l-75.873,-283.645l3010.26,0l75.663,283.645Z" style="fill:#78acea;fill-rule:nonzero;"/><path d="M25890.6,19936.4l-1691.43,-0l-75.662,-283.645l1691.43,0l75.667,283.645Z" style="fill:#78acea;fill-rule:nonzero;"/><path d="M22065.3,21282.2l-6225.04,0l-75.869,-283.645l6225.24,0l75.667,283.645Z" style="fill:#1c468a;fill-rule:nonzero;"/><path d="M24303.1,21282.2l-1839.9,0l-75.667,-283.645l1839.9,0l75.667,283.645Z" style="fill:#699dee;fill-rule:nonzero;"/><path d="M17884.2,22046.6l-1840.1,-0l-75.667,-283.645l1839.9,-0l75.873,283.645Z" style="fill:#fff;fill-rule:nonzero;"/><path d="M24612.5,22046.6l-3263.22,-0l-75.667,-283.645l3263.02,-0l75.873,283.645Z" style="fill:#f1a34f;fill-rule:nonzero;"/><path d="M21146.4,22046.6l-3010.05,-0l-75.873,-283.645l3010.26,-0l75.668,283.645Z" style="fill:#78acea;fill-rule:nonzero;"/><path d="M26597.4,22046.6l-1691.43,-0l-75.667,-283.645l1691.43,-0l75.662,283.645Z" style="fill:#78acea;fill-rule:nonzero;"/><path d="M29544.6,16900.7l-1415.15,4.378l-31.289,-128.551l1415.15,-4.354l31.289,128.527Z" style="fill:#78acea;fill-rule:nonzero;"/><path d="M30291.1,16898.4l-532.114,1.659l-31.288,-128.551l532.108,-1.635l31.294,128.527Z" style="fill:#78acea;fill-rule:nonzero;"/><path d="M31369.8,16895.1l-940.702,2.886l-31.293,-128.507l940.506,-2.905l31.489,128.526Z" style="fill:#78acea;fill-rule:nonzero;"/><path d="M28984.5,17227.7l-775.876,2.391l-31.288,-128.527l775.88,-2.395l31.284,128.531Z" style="fill:#78acea;fill-rule:nonzero;"/><path d="M30115.8,17224.2l-1001.85,3.092l-31.288,-128.532l1001.85,-3.106l31.288,128.546Z" style="fill:#78acea;fill-rule:nonzero;"/><path d="M31448.9,17220.1l-1148.27,3.558l-31.289,-128.531l1148.27,-3.534l31.289,128.507Z" style="fill:#78acea;fill-rule:nonzero;"/><path d="M29714,17595l-1415.15,4.378l-31.495,-128.526l1415.35,-4.383l31.289,128.531Z" style="fill:#78acea;fill-rule:nonzero;"/><path d="M30460.4,17592.8l-532.32,1.634l-31.288,-128.531l532.113,-1.654l31.495,128.551Z" style="fill:#78acea;fill-rule:nonzero;"/><path d="M31539,17589.4l-940.501,2.906l-31.288,-128.527l940.5,-2.905l31.289,128.526Z" style="fill:#78acea;fill-rule:nonzero;"/><path d="M29153.9,17922l-775.876,2.39l-31.289,-128.526l775.876,-2.395l31.289,128.531Z" style="fill:#78acea;fill-rule:nonzero;"/><path d="M30285.2,17918.5l-1002.06,3.093l-31.289,-128.532l1002.05,-3.087l31.293,128.526Z" style="fill:#78acea;fill-rule:nonzero;"/><path d="M31618.3,17914.5l-1148.48,3.538l-31.283,-128.531l1148.27,-3.534l31.49,128.527Z" style="fill:#78acea;fill-rule:nonzero;"/><path d="M28604.2,14592.8l-852.157,2.635l-19.018,-77.399l852.362,-2.621l18.813,77.385Z" style="fill:#fff;fill-rule:nonzero;"/><path d="M29053.6,14591.4l-320.455,1.002l-18.812,-77.405l320.455,-0.981l18.812,77.384Z" style="fill:#fff;fill-rule:nonzero;"/><path d="M29703.1,14589.4l-566.263,1.757l-19.019,-77.399l566.47,-1.743l18.812,77.385Z" style="fill:#fff;fill-rule:nonzero;"/><path d="M28266.9,14789.7l-467.283,1.453l-18.818,-77.405l467.083,-1.428l19.018,77.38Z" style="fill:#fff;fill-rule:nonzero;"/><path d="M28948.1,14787.6l-603.481,1.861l-18.817,-77.405l603.481,-1.86l18.817,77.404Z" style="fill:#fff;fill-rule:nonzero;"/><path d="M29750.8,14785.1l-691.423,2.125l-18.813,-77.399l691.419,-2.15l18.817,77.424Z" style="fill:#fff;fill-rule:nonzero;"/><path d="M28706,15010.9l-852.151,2.64l-18.817,-77.399l852.156,-2.641l18.812,77.4Z" style="fill:#fff;fill-rule:nonzero;"/><path d="M29155.5,15009.5l-320.45,0.982l-18.813,-77.405l320.45,-0.981l18.813,77.404Z" style="fill:#fff;fill-rule:nonzero;"/><path d="M29805,15007.5l-566.264,1.738l-18.812,-77.405l566.263,-1.737l18.813,77.404Z" style="fill:#fff;fill-rule:nonzero;"/><path d="M28368.8,15207.8l-467.284,1.452l-18.817,-77.404l467.288,-1.453l18.813,77.405Z" style="fill:#fff;fill-rule:nonzero;"/><path d="M29050,15205.7l-603.28,1.885l-18.813,-77.405l603.276,-1.86l18.817,77.38Z" style="fill:#fff;fill-rule:nonzero;"/><path d="M29852.8,15203.3l-691.624,2.145l-18.813,-77.404l691.419,-2.126l19.018,77.385Z" style="fill:#fff;fill-rule:nonzero;"/><path d="M30003.1,18781.6l-1415.15,4.295l-31.284,-128.429l1415.15,-4.496l31.289,128.63Z" style="fill:#78acea;fill-rule:nonzero;"/><path d="M30749.6,18779.1l-532.109,1.634l-31.495,-128.423l532.315,-1.639l31.289,128.428Z" style="fill:#78acea;fill-rule:nonzero;"/><path d="M31828.1,18775.8l-940.501,2.866l-31.288,-128.428l940.5,-2.862l31.289,128.424Z" style="fill:#78acea;fill-rule:nonzero;"/><path d="M29443,19108.3l-775.881,2.454l-31.284,-128.424l775.876,-2.454l31.289,128.424Z" style="fill:#78acea;fill-rule:nonzero;"/><path d="M30574.3,19104.9l-1001.85,3.274l-31.49,-128.635l1002.05,-3.043l31.288,128.404Z" style="fill:#78acea;fill-rule:nonzero;"/><path d="M31907.5,19100.8l-1148.27,3.681l-31.494,-128.634l1148.27,-3.475l31.495,128.428Z" style="fill:#78acea;fill-rule:nonzero;"/><path d="M30286.6,19944.4l-1415.15,4.295l-31.288,-128.429l1415.15,-4.5l31.289,128.634Z" style="fill:#78acea;fill-rule:nonzero;"/><path d="M31033,19941.9l-532.109,1.634l-31.495,-128.428l532.315,-1.634l31.289,128.428Z" style="fill:#78acea;fill-rule:nonzero;"/><path d="M32111.5,19938.6l-940.501,2.861l-31.289,-128.423l940.501,-2.867l31.289,128.429Z" style="fill:#78acea;fill-rule:nonzero;"/><path d="M29726.5,20271.3l-775.876,2.248l-31.289,-128.429l775.876,-2.454l31.289,128.635Z" style="fill:#78acea;fill-rule:nonzero;"/><path d="M30857.8,20267.9l-1002.05,3.068l-31.294,-128.63l1002.06,-3.067l31.289,128.629Z" style="fill:#78acea;fill-rule:nonzero;"/><path d="M32190.9,20263.6l-1148.48,3.681l-31.289,-128.629l1148.27,-3.475l31.494,128.423Z" style="fill:#78acea;fill-rule:nonzero;"/><path d="M30542,20992l-1415.35,4.294l-31.289,-128.63l1415.35,-4.294l31.288,128.63Z" style="fill:#78acea;fill-rule:nonzero;"/><path d="M31288.4,20989.5l-532.315,1.634l-31.288,-128.424l532.108,-1.639l31.495,128.429Z" style="fill:#78acea;fill-rule:nonzero;"/><path d="M32367,20986.3l-940.5,2.867l-31.289,-128.429l940.501,-2.861l31.288,128.423Z" style="fill:#78acea;fill-rule:nonzero;"/><path d="M29981.9,21318.8l-775.88,2.454l-31.289,-128.423l775.876,-2.454l31.293,128.423Z" style="fill:#78acea;fill-rule:nonzero;"/><path d="M31113.2,21315.3l-1002.06,3.274l-31.288,-128.634l1002.06,-3.068l31.289,128.428Z" style="fill:#78acea;fill-rule:nonzero;"/><path d="M32446.1,21311.3l-1148.28,3.681l-31.284,-128.635l1148.27,-3.475l31.289,128.429Z" style="fill:#78acea;fill-rule:nonzero;"/><path d="M30989.9,21800.6c-185.892,0 -293.053,151.128 -238.653,337.02c54.19,185.891 249.696,337.221 435.588,337.221c185.891,-0 292.842,-151.33 238.648,-337.221c-54.19,-185.892 -249.691,-337.02 -435.583,-337.02Zm218.815,749.495c-227.404,0 -466.469,-185.072 -532.929,-412.475c-66.258,-227.409 64.619,-412.481 292.229,-412.481c227.404,0 466.469,185.072 532.727,412.481c66.465,227.403 -64.624,412.475 -292.027,412.475Z" style="fill:#a8d29f;fill-rule:nonzero;"/><path d="M31141.2,22347.4c-15.745,-1.227 -32.108,-7.976 -46.218,-19.225l-231.492,-185.278c-31.289,-25.154 -41.925,-64.825 -23.927,-88.752c17.998,-23.927 58.077,-23.112 89.365,2.042l163.6,130.882l83.848,-193.867c12.064,-28.015 49.488,-34.15 83.437,-13.904c33.944,20.245 51.735,59.509 39.671,87.524l-110.224,254.81c-6.547,15.132 -20.859,24.541 -39.063,25.768c-2.862,0.201 -5.929,0.201 -8.997,-0Z" style="fill:#a8d29f;fill-rule:nonzero;"/><path d="M32128.5,21800.6c-185.886,0 -293.048,151.128 -238.648,337.02c54.195,185.891 249.49,337.221 435.382,337.221c185.891,-0 293.048,-151.33 238.859,-337.221c-54.401,-185.892 -249.696,-337.02 -435.593,-337.02Zm218.82,749.495c-227.404,0 -466.469,-185.072 -532.928,-412.475c-66.259,-227.409 64.619,-412.481 292.027,-412.481c227.61,0 466.469,185.072 532.929,412.481c66.464,227.403 -64.624,412.475 -292.028,412.475Z" style="fill:#f1a34f;fill-rule:nonzero;"/><path d="M32246.5,22205.1c-31.902,-0 -65.846,-26.18 -75.254,-58.283l-51.127,-175.261c-9.409,-32.103 9.202,-58.283 41.311,-58.283c32.108,0 66.052,26.18 75.254,58.283l51.127,175.261c9.404,32.103 -9.202,58.283 -41.311,58.283Z" style="fill:#f1a34f;fill-rule:nonzero;"/><path d="M32293.1,22342.7l-12.678,-0c-28.628,-0 -58.896,-23.514 -67.279,-52.148c-8.383,-28.628 8.383,-51.942 36.81,-51.942l12.678,0c28.628,0 58.896,23.314 67.284,51.942c8.383,28.634 -8.182,52.148 -36.815,52.148Z" style="fill:#f1a34f;fill-rule:nonzero;"/><path d="M29819.9,15689.8c-101.846,0 -160.536,82.902 -130.882,184.827c29.856,101.944 137.017,184.846 238.859,184.846c101.837,-0 160.532,-82.902 130.877,-184.846c-29.649,-101.925 -136.806,-184.827 -238.854,-184.827Zm120.041,410.964c-124.747,0 -255.831,-101.429 -292.234,-226.137c-36.398,-124.684 35.583,-226.138 160.125,-226.138c124.747,0 255.83,101.454 292.233,226.138c36.403,124.708 -35.377,226.137 -160.124,226.137Z" style="fill:#a8d29f;fill-rule:nonzero;"/><path d="M29902.9,15989.7c-8.589,-0.638 -17.585,-4.339 -25.355,-10.533l-126.995,-101.616c-16.977,-13.723 -22.906,-35.504 -13.09,-48.653c10.023,-13.129 31.902,-12.658 49.081,1.085l89.571,71.799l46.013,-106.259c6.542,-15.377 27.2,-18.793 45.811,-7.686c18.607,11.166 28.423,32.678 21.674,48.074l-60.329,139.654c-3.681,8.265 -11.451,13.457 -21.473,14.154l-4.908,-0.019Z" style="fill:#a8d29f;fill-rule:nonzero;"/><path d="M29172.9,15689.8c-101.847,0 -160.537,82.902 -130.882,184.827c29.855,101.944 136.811,184.846 238.854,184.846c101.846,-0 160.536,-82.902 130.882,-184.846c-29.855,-101.925 -136.811,-184.827 -238.854,-184.827Zm120.041,410.964c-124.748,0 -255.831,-101.429 -292.234,-226.137c-36.403,-124.684 35.377,-226.138 160.124,-226.138c124.747,0 255.831,101.454 292.234,226.138c36.398,124.708 -35.382,226.137 -160.124,226.137Z" style="fill:#a8d29f;fill-rule:nonzero;"/><path d="M29255.9,15989.7c-8.589,-0.638 -17.586,-4.339 -25.36,-10.533l-126.995,-101.616c-16.972,-13.723 -22.901,-35.504 -13.085,-48.653c10.017,-13.129 31.897,-12.658 49.08,1.085l89.572,71.799l46.013,-106.259c6.542,-15.377 27.195,-18.793 45.806,-7.686c18.607,11.166 28.427,32.678 21.679,48.074l-60.33,139.654c-3.681,8.265 -11.45,13.457 -21.472,14.154l-4.908,-0.019Z" style="fill:#a8d29f;fill-rule:nonzero;"/><path d="M28502.7,15689.8c-102.048,0 -160.738,82.902 -130.883,184.827c29.65,101.944 136.812,184.846 238.653,184.846c102.048,-0 160.738,-82.902 130.878,-184.846c-29.65,-101.925 -136.807,-184.827 -238.648,-184.827Zm119.834,410.964c-124.536,0 -255.625,-101.429 -292.027,-226.137c-36.403,-124.684 35.382,-226.138 160.129,-226.138c124.742,0 255.625,101.454 292.023,226.138c36.403,124.708 -35.377,226.137 -160.125,226.137Z" style="fill:#a8d29f;fill-rule:nonzero;"/><path d="M28585.8,15989.7c-8.791,-0.638 -17.792,-4.339 -25.561,-10.533l-126.789,-101.616c-17.178,-13.723 -23.112,-35.504 -13.09,-48.653c9.816,-13.129 31.701,-12.658 48.874,1.085l89.778,71.799l45.806,-106.259c6.749,-15.377 27.201,-18.793 45.812,-7.686c18.812,11.166 28.422,32.678 21.88,48.074l-60.531,139.654c-3.48,8.265 -11.45,13.457 -21.271,14.154l-4.908,-0.019Z" style="fill:#a8d29f;fill-rule:nonzero;"/><path d="M30444.2,15689.8c-102.047,0 -160.737,82.902 -130.882,184.827c29.654,101.944 136.811,184.846 238.859,184.846c101.842,-0 160.532,-82.902 130.882,-184.846c-29.855,-101.925 -137.017,-184.827 -238.859,-184.827Zm120.041,410.964c-124.742,0 -255.831,-101.429 -292.229,-226.137c-36.403,-124.684 35.377,-226.138 160.125,-226.138c124.742,0 255.831,101.454 292.228,226.138c36.403,124.708 -35.578,226.137 -160.124,226.137Z" style="fill:#f1a34f;fill-rule:nonzero;"/><path d="M30509.1,15911.7c-17.586,-0 -36.197,-14.381 -41.306,-31.986l-28.222,-96.055c-5.114,-17.585 5.11,-31.98 22.7,-31.98c17.586,-0 36.197,14.395 41.306,31.98l28.02,96.055c5.109,17.605 -4.908,31.986 -22.498,31.986Z" style="fill:#f1a34f;fill-rule:nonzero;"/><path d="M30534.4,15987.1l-6.955,0c-15.538,0 -32.309,-12.839 -36.81,-28.525c-4.496,-15.686 4.501,-28.531 20.246,-28.531l6.954,0c15.539,0 32.109,12.845 36.811,28.531c4.5,15.686 -4.501,28.525 -20.246,28.525Z" style="fill:#f1a34f;fill-rule:nonzero;"/><path d="M8784.26,22365.3c0,-0 340.902,87.525 557.592,22.287c216.714,-65.439 589.68,41.924 649.744,120.86c60.06,78.941 37.993,110.431 -69.184,137.631c-107.181,27.402 -486.876,189.367 -736.449,95.501c-249.554,-93.66 -575.039,-97.135 -575.039,-97.135l173.336,-279.144Z" style="fill:#e49963;fill-rule:nonzero;"/><path d="M5838.07,19403.8c-0,-0 382.948,2721.91 1017.07,2965.68c312.906,120.246 1695.7,392.843 2104.74,420.25c-0,-0 100.207,-81.189 75.789,-412.074c0,0 -1448.77,-531.907 -1654.58,-821.275c-306.32,-430.473 190.146,-1758.51 -194.216,-2162.8c-384.357,-404.481 -1031.73,-578.102 -1348.8,10.228Z" style="fill:#4a75cb;fill-rule:nonzero;"/><path d="M6059.33,30195.4l184.891,0c94.784,0 172.33,-77.508 172.33,-172.394l0,-4290.23c0,-94.686 -77.546,-172.193 -172.33,-172.193l-184.891,-0c-94.808,-0 -172.355,77.507 -172.355,172.193l0,4290.23c0,94.886 77.547,172.394 172.355,172.394Z" style="fill:#2b478b;fill-rule:nonzero;"/><path d="M4517.47,30500.1c171.31,-354.605 837.963,-619.025 1634.27,-619.025c796.308,0 1462.99,264.42 1634.29,619.025l-3268.57,0Z" style="fill:#2b478b;fill-rule:nonzero;"/><path d="M4952.72,29297.6l2398.15,-0c25.213,-0 45.846,-20.452 45.846,-45.807l0,-95.093c0,-25.154 -20.633,-45.812 -45.846,-45.812l-2398.15,0c-25.212,0 -45.826,20.658 -45.826,45.812l0,95.093c0,25.355 20.614,45.807 45.826,45.807Z" style="fill:#2b478b;fill-rule:nonzero;"/><path d="M5967.11,25138.1c111.716,189.573 240.92,367.081 374.089,535.383c411.583,519.436 859.622,947.862 937.66,1352.98c15.524,80.575 40.162,167.486 72.373,259.104c32.599,92.841 72.865,190.388 119.388,291.208c174.642,379.352 435.833,804.51 696.636,1190.81c450.822,668.105 874.733,1225.37 874.733,1225.37l777.407,-33.129c-31.141,-77.915 -370.208,-1000.22 -823.788,-2127.43c-184.198,-457.467 -380.048,-944.182 -569.027,-1413.51c-25.173,-62.778 -50.346,-125.154 -75.274,-187.118c-57.773,-143.56 -114.627,-284.867 -170.127,-422.704c-425.914,-1058.29 -765.162,-1901.04 -765.162,-1901.04c0,-0 -1702.29,-644.999 -1879.06,-227.203c-145.768,344.588 -27.033,682.216 430.15,1457.28Z" style="fill:#163560;fill-rule:nonzero;"/><path d="M9066.28,29851.6c-0,-0 39.779,641.518 163.869,650.721c16.525,1.227 629.518,1.227 629.518,1.227l782.502,-4.496c-0,0 -5.134,-188.552 -233.848,-228.429c-228.734,-39.878 -611.579,-200.616 -750.153,-502.867c-145.768,-318.001 -591.888,83.844 -591.888,83.844Z" style="fill:#163560;fill-rule:nonzero;"/><path d="M7266.11,28019.1c0,0 -540.722,347.45 -488.265,460.128c6.974,15.131 305.809,550.313 305.809,550.313l385.423,680.989c-0,-0 162.132,-96.321 85.424,-315.547c-76.688,-219.021 -122.971,-631.703 73.434,-900.01c206.628,-282.413 -361.825,-475.873 -361.825,-475.873Z" style="fill:#163560;fill-rule:nonzero;"/><path d="M8027.55,23620.9c-0,0 2106.87,1311.88 2345.38,2206.37c238.511,894.488 -2842.3,2802.48 -2842.3,2802.48c-0,-0 -337.879,-298.163 -397.511,-516.776c-0,-0 1392.57,-1668.32 1694.64,-2042.35c185.529,-229.657 -2743.07,-795.101 -3100.85,-1351.75c-357.776,-556.448 -229.696,-1024.75 -229.696,-1024.75l2530.33,-73.214Z" style="fill:#1c468a;fill-rule:nonzero;"/><path d="M3965.27,26503.5l4372.99,0c87.466,0 159.02,-71.573 159.02,-159.098l0,-874.449c0,-87.525 -71.554,-159.103 -159.02,-159.103l-4372.99,-0c-87.466,-0 -159.02,71.578 -159.02,159.103l0,874.449c0,87.525 71.554,159.098 159.02,159.098Z" style="fill:#ee9849;fill-rule:nonzero;"/><path d="M7009.72,18937.4c209.857,129.857 325.5,294.889 325.5,294.889c-511.863,132.517 -1360.46,-341.923 -1360.46,-341.923c0,0 329.491,-221.273 451.558,-707.801c6.175,-24.54 11.799,-49.713 16.747,-75.461c16.014,-81.92 25.934,-170.633 27.73,-266.364l235.139,210.638l391.003,350.227c-0,0 -8.874,145.401 -57.768,395.528c-8.51,43.559 -18.263,90.367 -29.448,140.267Z" style="fill:#e49963;fill-rule:nonzero;"/><path d="M5432.72,21354.2c73.316,986.101 -23.147,2485.92 60.044,2745.63c71.775,224.135 889.703,91.005 1216.16,16.158c120.841,-27.608 267.223,-67.28 418.39,-114.112c421.664,-130.47 881.114,-316.975 930.4,-455.22c1.9,-5.521 3.534,-10.837 4.56,-15.951c4.54,-20.245 3.539,-39.058 -0.879,-58.076c-16.442,-70.553 -79.755,-146.834 -87.22,-321.476c-8.344,-195.094 -7.078,-424.751 -14.42,-671.787c-0.368,-27.813 -0.756,-58.081 -3.784,-85.689l-0.118,-10.223c-0.123,-5.316 -0.27,-10.43 -0.393,-15.745c-7.072,-275.463 -21.472,-565.037 -38.159,-852.157c-10.631,-180.37 -22.882,-359.105 -37.032,-530.067c-36.79,-441.928 -86.342,-834.777 -151.947,-1083.04c-107.177,-404.913 -343.542,-668.925 -558.656,-862.36l-155.605,-133.563c-173.66,38.038 -378.939,12.683 -564.629,-75.254c-200.959,-95.3 -270.349,-163.806 -305.358,-138.039c-464.137,358.08 -797.947,1455.44 -711.359,2660.97Z" style="fill:#739af0;fill-rule:nonzero;"/><path d="M7127.32,24001.9c421.664,-130.47 881.114,-316.975 930.4,-455.22c1.9,-5.521 3.534,-10.837 4.56,-15.951c-0.265,-19.426 -0.511,-38.651 -0.879,-58.077c-16.441,-70.553 -79.755,-146.833 -87.22,-321.475c-8.344,-195.095 -7.078,-424.751 -14.42,-671.787c-0.368,-27.814 -0.756,-58.081 -3.784,-85.689l-0.118,-10.223c-0.123,-5.316 -0.27,-10.43 -0.392,-15.745l-1592.71,-722.506c-0,-0 -91.781,1283.86 764.567,2356.67Z" style="fill:#4a75cb;fill-rule:nonzero;"/><path d="M7096.94,18401.6c-0,-0 -8.874,145.4 -57.768,395.528c-381.825,-123.334 -555.019,-468.329 -612.851,-614.569c-16.461,-41.33 -23.578,-66.872 -23.578,-66.872c0,0 14.783,-3.19 40.325,-8.589c53.684,-11.411 154.745,-32.844 262.869,-55.725l391.003,350.227Z" style="fill:#d68d5d;fill-rule:nonzero;"/><path d="M7251.49,18397.9c0,-0 -838.84,94.479 -889.702,-428.736c-50.902,-523.294 -193.416,-863.509 340.003,-946.042c533.424,-82.534 657.043,106.995 716.513,277.529c59.466,170.554 50.082,1059.01 -166.814,1097.25Z" style="fill:#e49963;fill-rule:nonzero;"/><path d="M6365.39,18005.3c0,0 53.193,-694.608 816.76,-766.55c523.014,-49.287 231.413,-499.412 175.668,-571.211c-0,-0 -400.701,54.926 -811.44,122.804c-862.095,142.431 -265.647,1106.84 -180.988,1214.96Z" style="fill:#2b478b;fill-rule:nonzero;"/><path d="M10425.8,23047.3l73.439,23.927l624.709,-1922.72l-73.415,-23.927l-624.733,1922.72Z" style="fill:#4a75cb;fill-rule:nonzero;"/><path d="M8380.97,22899l2120.95,45.193l-2.699,126.995l-2120.97,-45.399l2.719,-126.789Z" style="fill:#4a75cb;fill-rule:nonzero;"/><path d="M8608.85,22783.7c-0,0 329.147,124.541 551.745,83.638c222.579,-41.105 581.44,106.548 632.419,191.825c51.005,85.071 25.605,113.906 -83.927,129.243c-109.532,15.132 -504.771,134.358 -742.481,13.703c-237.691,-120.658 -560.826,-159.923 -560.826,-159.923l203.07,-258.486Z" style="fill:#e49963;fill-rule:nonzero;"/><path d="M6007.06,19515.5c-0,-0 80.531,2747.47 683.914,3059.74c297.711,153.989 1642.02,577.513 2045.56,649.7c-0,-0 108.551,-69.733 120.757,-401.231c0,-0 -1381.28,-688.351 -1553.96,-998.578c-256.999,-461.561 382.885,-1727.01 45.438,-2171.19c-337.446,-444.176 -961.688,-688.351 -1341.71,-138.445Z" style="fill:#739af0;fill-rule:nonzero;"/><path d="M28929.9,30415.2c-0,-0 30.881,-240.081 102.253,-382.827c71.368,-142.534 525.361,-51.735 525.361,-51.735c-0,-0 90.803,77.709 110.229,440.903l-737.843,-6.341Z" style="fill:#233862;fill-rule:nonzero;"/><path d="M27383.3,30412c106.749,-65.237 46.013,-550.926 46.013,-550.926c-0,0 -497.139,-397.55 -565.444,-93.252c-68.301,304.499 -472.192,441.31 -702.05,478.532c-158.696,25.768 -207.776,113.7 -223.114,165.646l1444.6,0Z" style="fill:#233862;fill-rule:nonzero;"/><path d="M28412.9,26879.2c-20.246,111.451 -33.129,202.863 -36.604,268.508c-46.219,901.237 -758.703,2961.99 -886.105,3010.05c-197.141,74.441 -507.574,-83.843 -670.152,-135.584c-67.279,-21.472 -112.679,-89.365 -97.748,-158.284c352.764,-1621.9 482.621,-3957.71 529.654,-5340.33c23.927,-696.532 143.359,-1177.73 143.359,-1177.73c-0,-0 1737.85,-463.603 1748.07,122.907c9.207,518.818 -575.673,2554.22 -730.477,3410.47l0,-0.015Z" style="fill:#213f7a;fill-rule:nonzero;"/><path d="M28412.9,26879.2l-1160.95,-2355.65c23.927,-696.533 143.359,-1177.73 143.359,-1177.73c-0,0 1737.85,-463.602 1748.07,122.907c9.207,518.818 -575.673,2554.22 -730.477,3410.47Z" style="fill:#233862;fill-rule:nonzero;"/><path d="M28026.2,23470.8l918.62,6657.74c0,-0 403.48,97.341 717.186,19.426c-0,-0 268.921,-3540.94 246.628,-4396.98c-22.493,-856.043 192.842,-2290.62 -49.286,-2448.7c-242.128,-158.284 -1833.15,168.512 -1833.15,168.512Z" style="fill:#213f7a;fill-rule:nonzero;"/><path d="M29924,21761.4l114.519,1598.38c4.294,60.123 -34.15,114.926 -92.026,131.697c-128.222,37.217 -275.87,63.191 -560.948,122.087c-267.483,55.623 -627.609,104.909 -1069.94,107.569c-703.689,4.496 -970.156,-238.039 -970.156,-238.039c-30.267,0.613 15.952,-146.627 57.67,-846.841c14.312,-237.22 27.814,-538.043 37.63,-918.007c8.996,-341.923 14.925,-748.062 15.538,-1229.87c0.82,-579.76 897.968,-1203.49 914.528,-1203.49l0.206,0.407c0,83.436 131.496,237.426 334.158,250.717c240.494,15.75 535.589,-103.884 535.589,-242.334c-0,-1.428 434.562,695.305 588.963,1437.85c19.632,94.067 34.97,193.455 47.034,297.956l0.407,4.702c2.253,19.019 4.295,38.244 6.341,57.67c0.408,3.479 0.614,6.748 1.021,10.228c1.846,17.585 3.681,35.377 5.114,53.169c0.614,5.114 0.82,10.429 1.434,15.337c1.428,16.359 2.861,32.722 4.088,49.287l0.407,4.495c1.026,12.27 1.841,24.54 2.867,37.017c0.613,8.589 1.227,17.585 1.84,26.38c1.021,14.518 2.042,28.835 3.068,43.559c0.407,7.362 1.02,14.518 1.428,21.88c0.819,13.909 1.639,27.814 2.454,41.924c0.412,6.342 0.819,12.477 1.227,18.813c1.021,20.246 2.253,40.697 3.273,61.149l0.207,4.908c1.02,19.833 2.041,39.672 2.861,59.711c0.407,5.114 0.614,9.816 0.82,14.93c0.814,18.813 1.634,37.63 2.454,56.649c-0,2.861 0.201,5.723 0.407,8.589c1.841,46.42 3.681,93.66 5.522,141.513l0.206,3.681l-0.206,-3.681Z" style="fill:#2b478b;fill-rule:nonzero;"/><path d="M28370.8,19285c0,-0 -834.36,-7.137 -1035.18,274.442c-200.822,281.598 -640.905,1796.54 -411.254,2300.64c229.863,504.094 659.722,-208.385 898.169,-517.184c238.658,-308.798 548.266,-2057.9 548.266,-2057.9Z" style="fill:#2b478b;fill-rule:nonzero;"/><path d="M28362.4,19157.7l0.413,86.278c-0,0 -23.52,269.741 308.592,309.005c332.107,39.465 583.849,-105.115 574.853,-313.275c-30.062,-161.15 -62.784,-271.806 -65.037,-405.138c-0.814,-49.674 2.661,-102.253 11.863,-161.557l-643.766,-12.884l-189.367,31.083l2.449,466.488Z" style="fill:#ffb27d;fill-rule:nonzero;"/><path d="M28360,18691.2l2.45,466.489c68.305,31.676 145.4,51.127 231.904,51.127c295.709,-0 486.915,-216.793 586.917,-374.257c-0.815,-49.674 2.66,-102.254 11.862,-161.558l-643.766,-12.883l-189.367,31.082Z" style="fill:#e2915a;fill-rule:nonzero;"/><path d="M29242.4,18569.5c-74.642,401.865 -593.258,388.549 -817.393,363.42c-62.985,-7.18 -102.661,-15.136 -102.661,-15.136c-71.162,-19.039 -110.838,-131.104 -129.243,-277.731c-36.604,-290.393 9.614,-716.592 58.695,-825.594c73.821,-164.031 212.885,-341.437 734.972,-213.435c522.298,128.099 351.336,453.457 255.63,968.476Z" style="fill:#ffb27d;fill-rule:nonzero;"/><path d="M27517.6,20414.1c-0,0 -322.703,712.484 -313.295,926.184c0,0 159.718,-5.521 313.295,40.29c252.356,75.255 -0,-966.474 -0,-966.474Z" style="fill:#233862;fill-rule:nonzero;"/><path d="M28091.5,17431.9c0,-0 229.858,-17.689 501.026,-135.56c220.047,-95.667 497.758,9.693 587.737,57.154c-2.454,-14.518 -8.177,-34.332 -21.88,-54.209c-0,-0 40.491,28.692 46.42,68.791c4.093,3.087 5.934,5.197 4.908,5.914c-0,-0 45.811,-8.388 75.26,4.864c-0,-0 -20.658,-2.945 -28.02,10.306l-3.269,3.662c343.356,165.852 375.052,708.351 264.626,833.874c-132.929,150.961 -292.234,491.048 -292.234,491.048c0,-0 -58.283,-80.163 -33.949,-213.092c24.133,-132.924 -90.798,-132.924 -235.791,-193.455c-144.787,-60.329 -24.128,-229.47 -150.922,-332.175c-126.789,-102.696 -592.031,-42.288 -585.891,-120.816c-172.807,-62.906 -128.021,-408.618 -128.021,-426.306Z" style="fill:#233862;fill-rule:nonzero;"/><path d="M29347.5,21748.9c-136.198,547.043 -1609.43,829.868 -1944.4,887.332c14.312,-237.22 27.814,-538.043 37.63,-918.008l1906.77,30.676Z" style="fill:#233862;fill-rule:nonzero;"/><path d="M29024.2,21926.8c13.904,-0 327.405,-46.828 383.641,-74.848c56.035,-28.015 312.886,-393.049 144.787,-486.709c-168.302,-93.459 -619.639,280.778 -619.639,280.778l91.211,280.779Z" style="fill:#ffb27d;fill-rule:nonzero;"/><path d="M27117.6,22035.2c0,-0 1212.28,65.846 2025.99,-108.389c0,-0 20.452,-235.173 -235.178,-339.469c0,0 -1268.11,-268.714 -1572.82,-193.867c-304.504,74.848 -217.995,641.725 -217.995,641.725Z" style="fill:#2b478b;fill-rule:nonzero;"/><path d="M29901.7,21083.8c-251.541,303.277 -580.374,550.926 -942.96,609.007l-0.206,-0.206c-3.062,-4.5 -109.817,-166.465 -89.773,-404.706c9.409,-110.229 45.807,-236.812 132.11,-371.783c26.587,-41.517 50.307,-89.984 71.368,-143.766c197.96,-505.119 168.512,-1478.75 168.512,-1478.75c-0,-0 840.701,87.937 1102.67,462.174c160.536,229.244 -44.173,848.269 -441.718,1328.03Z" style="fill:#2b478b;fill-rule:nonzero;"/><path d="M28425,18932.9c-62.985,-7.181 -102.661,-15.137 -102.661,-15.137c-71.162,-19.038 -110.838,-131.103 -129.244,-277.73c133.337,32.923 194.481,135.785 219.841,179.756c11.45,19.632 13.904,64.006 12.064,113.111Z" style="fill:#e2915a;fill-rule:nonzero;"/><path d="M28086.4,19160.1c-0,0 -290.595,-479.166 -64.619,-500.025c225.769,-20.859 316.568,132.129 349.078,188.164c32.727,56.236 -8.383,309.407 -8.383,309.407l-276.076,2.454Z" style="fill:#ffb27d;fill-rule:nonzero;"/><path d="M29193.1,21271.7c-8.996,60.737 -27.2,116.566 -49.488,166.26c-70.96,157.464 -184.87,254.81 -184.87,254.81l-0.206,-0.206c-754.197,-340.289 -906.754,-1509.22 -932.319,-2151.56c-10.224,-258.265 -0,-431.293 -0,-431.293c340.293,-112.679 435.793,83.029 435.793,83.029c0,0 401.845,955.225 610.23,1579.57c79.554,238.859 131.088,429.453 120.86,499.392Z" style="fill:#2b478b;fill-rule:nonzero;"/><path d="M29901.7,21083.8c-251.541,303.277 -580.374,550.926 -942.96,609.007l-0.206,-0.206c-754.197,-340.288 -906.753,-1509.22 -932.319,-2151.56c0,-0 356.858,1294.29 842.546,1746.85c87.731,81.797 179.963,135.992 274.85,150.102c0,0 612.478,-173.008 740.906,-335.993c9.208,-11.657 14.724,-17.591 17.183,-18.204Z" style="fill:#233862;fill-rule:nonzero;"/><path d="M52024.2,30537.7l-51965.2,-0c-32.457,-0 -59.019,-26.587 -59.019,-59.102l-0,-20.04c-0,-32.516 26.562,-59.102 59.019,-59.102l51965.2,-0c32.511,-0 59.097,26.586 59.097,59.102l0,20.04c0,32.515 -26.586,59.102 -59.097,59.102Z" style="fill:#2e3552;fill-rule:nonzero;"/><path d="M42338.4,29319.3c147.035,549.699 1233.76,873.217 2422.31,1063l4435.84,0c1069.14,-523.524 1067.7,-1147.87 1153.59,-2871.81c177.096,-3560.77 -1695.93,-5279.81 -2531.32,-4996.18c-34.764,11.858 -70.141,24.54 -106.131,39.264c-242.746,97.748 -514.524,270.143 -779.155,680.577c0,-0 -830.065,1383.66 -1513.31,2209.02c-220.041,265.849 -424.75,473.826 -581.395,558.902c-1.84,1.021 -3.681,2.248 -5.727,2.861c-8.177,4.501 -16.359,8.383 -24.541,12.064c-361.962,165.852 -872.195,513.095 -1338.25,951.343l-0.206,-0c-722.707,679.35 -1339.07,1576.09 -1131.71,2350.95l0,0.01Z" style="fill:#f99746;fill-rule:nonzero;"/><path d="M43470.4,26968.3c621.886,191.001 3822.94,1115.14 4576.33,135.378c545.4,-709.617 205.725,-2527.43 -95.505,-3703.51c-123.52,-482.214 -739.885,-591.624 -1009.62,-178.329c-2.66,4.094 -5.32,8.182 -7.98,12.27c-0,0 -830.065,1383.66 -1513.31,2209.03c-197.749,260.739 -392.642,461.762 -581.395,558.902c-1.841,1.021 -3.681,2.248 -5.728,2.861c-7.971,4.501 -16.358,8.383 -24.54,12.064c-361.962,165.852 -872.196,513.095 -1338.25,951.343Z" style="fill:#ed7d2b;fill-rule:nonzero;"/><path d="M45851.4,22476.3c0,0 -221.681,328.426 -348.269,1018.42c-110.838,604.301 -207.977,827.41 -367.895,951.338c-160.125,123.928 -1051.55,489.782 -1051.55,489.782l66.67,156.237c0,0 1306.76,-177.916 1453.38,-396.323c146.834,-218.407 706.349,-1508.81 662.996,-1805.95c-43.564,-297.142 -415.342,-413.502 -415.342,-413.502Z" style="fill:#f4a269;fill-rule:nonzero;"/><path d="M42651.5,29684.9c11.863,127.403 -165.646,158.284 -371.164,168.507c-205.323,10.224 -143.359,52.354 -424.957,103.476c-281.598,50.921 -394.483,-26.174 -414.728,-64.211c-18.204,-33.743 112.683,-86.504 252.15,-146.22c17.585,-7.362 35.175,-15.132 52.761,-22.901c157.057,-68.919 245.195,-209.818 367.69,-340.293c115.957,-123.722 225.975,-519.839 225.975,-519.839l382.625,-81.596c-0,0 -107.363,356.446 -144.586,508.594c-22.081,89.366 10.43,189.573 39.063,265.647c15.544,41.513 31.083,83.844 35.171,128.836Z" style="fill:#ffb27d;fill-rule:nonzero;"/><path d="M42280.4,29853.4c-205.322,10.223 -143.358,52.354 -424.956,103.476c-281.599,50.92 -394.483,-26.175 -414.729,-64.212c-18.204,-33.743 112.684,-86.504 252.15,-146.22l2.248,2.454c0,0 197.956,67.078 426.591,5.114c186.299,-50.714 366.468,-161.965 494.69,-197.955c15.544,41.512 31.083,83.844 35.171,128.835c11.863,127.403 -165.646,158.284 -371.165,168.508Z" style="fill:#c65447;fill-rule:nonzero;"/><path d="M46462.5,25146.9c-0,0 -2542.97,-191.413 -3021.71,110.838c-478.739,302.05 -1246.44,3821.31 -1246.44,3821.31c0,0 47.245,38.038 153.175,49.493c98.366,10.631 315.139,-47.24 315.139,-47.24c0,0 1103.49,-1574.66 1181.2,-1971.39c77.713,-396.529 58.69,-750.52 235.791,-760.13c176.89,-9.409 2383.05,268.307 2716.8,-319.636c333.746,-587.942 57.875,-1169.95 57.875,-1169.95l-391.822,286.712Z" style="fill:#163560;fill-rule:nonzero;"/><path d="M43624.5,30093.3c11.858,127.403 -165.651,158.49 -370.969,168.714c-205.523,10.223 -143.559,52.147 -425.157,103.274c-281.599,50.921 -394.483,-26.179 -414.729,-64.216c-18.199,-33.743 112.679,-86.504 252.15,-146.215c17.591,-7.362 35.171,-15.137 52.761,-22.7c157.057,-69.125 245.196,-210.024 367.695,-340.494c115.947,-123.727 225.976,-519.638 225.976,-519.638l382.826,-81.802c-0,0 -107.57,356.446 -144.792,508.594c-22.086,89.572 10.43,189.573 39.058,265.647c15.544,41.513 31.289,83.844 35.181,128.836Z" style="fill:#ffb27d;fill-rule:nonzero;"/><path d="M43253.6,30262.1c-205.524,10.224 -143.56,52.148 -425.158,103.275c-281.598,50.921 -394.483,-26.18 -414.728,-64.217c-18.199,-33.742 112.678,-86.504 252.15,-146.215l2.253,2.454c-0,0 197.955,67.279 426.586,5.109c186.304,-50.508 366.467,-161.964 494.685,-197.955c15.543,41.512 31.288,83.844 35.18,128.836c11.858,127.402 -165.65,158.49 -370.968,168.713Z" style="fill:#c65447;fill-rule:nonzero;"/><path d="M46960.6,25304.5c0,0 -2258.92,106.951 -2725.59,427.406c-466.464,320.455 -1096.73,3867.12 -1096.73,3867.12c-0,-0 48.869,35.99 155.005,43.352c98.779,6.955 313.093,-59.51 313.093,-59.51c-0,0 1041.32,-1616.38 1103.49,-2015.77c62.377,-399.391 29.454,-752.361 205.936,-768.72c176.488,-16.363 2391.84,175.256 2702.48,-425.158c310.639,-600.418 -657.676,-1068.72 -657.676,-1068.72Z" style="fill:#1c468a;fill-rule:nonzero;"/><path d="M46187.1,22295.7c-43.76,-77.095 -96.114,-215.34 -133.945,-465.443c4.908,24.741 69.326,339.061 203.482,510.636c523.108,295.709 1557.27,1330.69 1552.16,1540.1c0,-0 300.209,-596.532 305.731,-600.414c-0,0 571.378,-835.39 -198.775,-1240.92c-391.415,-205.931 -409.413,-502.867 -410.841,-761.559c-1.433,-258.697 -193.661,-1359.94 -927.618,-1019.44c0,0 -124.546,-45.806 -178.122,-34.15c0,0 44.786,5.522 68.713,27.402c-87.525,0.613 -212.066,15.337 -312.274,81.596c-265.647,175.26 -419.022,1599.61 31.49,1962.19Z" style="fill:#b5453c;fill-rule:nonzero;"/><path d="M47055.3,22098.4c0,0 -210.431,-20.044 -420.863,0c-142.946,13.497 -284.464,57.871 -365.035,91.613c-199.187,83.03 -178.323,435.588 239.468,370.355c417.801,-65.237 575.677,-357.471 546.43,-461.968Z" style="fill:#ffb27d;fill-rule:nonzero;"/><path d="M46287.2,22355.4c-2.459,1.227 -59.515,303.07 213.907,291.002c179.55,-7.77 566.877,-225.156 532.727,-378.939c-16.157,-73.007 -151.948,-262.58 -179.349,-695.507l-32.521,8.79l-549.694,147.447c-0,-0 24.334,174.441 35.789,339.474c9.61,138.651 10.017,270.756 -20.859,287.733Z" style="fill:#ffb27d;fill-rule:nonzero;"/><path d="M46272,21728.2c0,-0 24.334,174.441 35.79,339.473c311.041,-29.448 456.849,-324.749 513.904,-486.92l-549.694,147.447Z" style="fill:#f4a269;fill-rule:nonzero;"/><path d="M46875.2,21516.4c-0,0 146.215,-269.122 170.549,-492.231c17.59,-159.511 -101.636,-738.251 -682.825,-614.936c0,-0 -169.327,28.221 -322.295,147.034c-121.675,94.48 -293.255,292.641 -53.581,788.558l64.83,168.508l823.322,3.067Z" style="fill:#b5453c;fill-rule:nonzero;"/><path d="M46178.8,21891.4c-0,-0 738.25,-37.017 708.189,-496.325c-30.268,-459.308 44.786,-773.421 -427.818,-769.333c-472.599,4.295 -552.561,185.484 -579.756,341.314c-27.407,155.83 106.543,922.297 299.385,924.344Z" style="fill:#ffb27d;fill-rule:nonzero;"/><path d="M46122.3,20637c0,-0 237.838,525.36 552.973,584.463c315.135,58.896 444.177,-33.13 444.177,-33.13c-0,0 -250.31,-172.801 -321.682,-499.185c-0,-0 -540.291,-318.821 -675.468,-52.148Z" style="fill:#b5453c;fill-rule:nonzero;"/><path d="M46175.3,20677.3c0,-0 -142.74,130.47 -171.786,249.902c-28.83,119.427 -29.443,361.147 -100.202,357.672c-0,0 -176.488,-356.038 -19.426,-574.651c166.667,-231.904 291.414,-32.923 291.414,-32.923Z" style="fill:#b5453c;fill-rule:nonzero;"/><path d="M45440.1,25185.3c59.712,71.373 246.217,93.253 445.605,126.176c156.856,25.767 321.677,58.283 438.861,127.201c266.055,156.238 1135.59,684.263 1390.4,660.336c98.77,-9.409 80.364,-197.96 20.447,-448.27c-94.072,-395.096 -291.208,-943.975 -291.208,-1182.63c0,-130.269 -43.357,-438.449 -101.233,-790.806c-4.702,-28.427 -9.61,-57.056 -14.312,-86.097c-114.519,-685.077 -273.009,-1492.86 -273.009,-1492.86c0,0 -176.895,385.688 -521.478,385.688c-344.381,-0 -264.42,-294.075 -264.42,-294.075c0,0 -314.315,37.017 -388.553,116.978c-74.436,79.957 -262.781,425.772 -300.205,520.045c0,-0 -7.568,120.041 289.569,177.096c-0,0 -72.394,325.771 -80.978,542.951c-6.341,160.33 109.611,662.382 142.74,974.656c11.863,110.632 13.498,197.548 -4.5,236.812c-22.901,50.509 -97.341,100.615 -182.005,149.896c-167.893,97.959 -376.691,192.027 -305.726,276.896Z" style="fill:#1c468a;fill-rule:nonzero;"/><path d="M45745.4,24908.4c-190.594,325.157 517.183,422.91 634.362,491.829c266.261,156.237 1079.97,722.707 1334.78,698.78c98.769,-9.408 80.364,-197.96 20.447,-448.269c-94.073,-395.097 -291.208,-943.976 -291.208,-1182.63c-0,-130.269 -43.358,-438.449 -101.233,-790.806l-306.752,-294.482c-0,0 -328.833,849.497 -642.132,988.561c-164.213,73.007 -335.582,121.061 -461.762,150.308c11.863,110.632 13.497,197.548 -4.501,236.812c-22.901,50.509 -97.341,100.615 -182.004,149.896Z" style="fill:#163560;fill-rule:nonzero;"/><path d="M47149.6,22352.5c-0,-0 262.172,-159.305 515.75,142.946c253.588,302.05 -180.164,2461.99 -556.036,2572.83c-417.182,123.314 -1622.92,-19.633 -1622.92,-19.633l23.313,-188.551c-0,-0 1283.45,-246.015 1336.82,-314.521c53.173,-68.713 169.739,-2158.1 303.071,-2193.07Z" style="fill:#ffb27d;fill-rule:nonzero;"/><path d="M47055.3,22098.4c0,0 538.45,48.467 694.899,225.769c156.438,177.097 202.25,657.063 202.25,657.063c-0,-0 -474.445,383.027 -1045.82,234.358l148.669,-1117.19Z" style="fill:#1c468a;fill-rule:nonzero;"/><rect x="44648.9" y="25149.5" width="711.458" height="84.05" style="fill:#9e332e;"/><path d="M44800.1,25222.1c-6.955,-27.814 -653.995,-1043.78 -653.995,-1043.78l-1439.69,0l722.094,1016.58l1371.59,27.201Z" style="fill:#9e332e;fill-rule:nonzero;"/><path d="M44739.7,25233.6c-6.95,-27.809 -656.037,-1055.23 -656.037,-1055.23l-1377.11,0l687.124,1055.23l1346.02,0Z" style="fill:#b5453c;fill-rule:nonzero;"/><path d="M43525.8,24709.4c14.111,41.105 59.103,74.435 100.208,74.435c41.104,0 62.984,-33.33 48.879,-74.435c-14.111,-41.311 -59.108,-74.646 -100.213,-74.646c-41.104,-0 -62.979,33.335 -48.874,74.646Z" style="fill:#9e332e;fill-rule:nonzero;"/><path d="M45614.4,24849.1c0,0 -417.997,-80.982 -465.236,-60.736c-47.034,20.245 -310.026,256.037 -283.027,303.276c26.99,47.24 134.76,80.983 256.032,40.492c121.474,-40.492 384.255,-60.737 431.495,-121.273c47.244,-60.737 60.736,-161.759 60.736,-161.759Z" style="fill:#ffb27d;fill-rule:nonzero;"/><path d="M36704.2,13136.1l-13150.2,0l-1007.78,-3300.24l13150.2,-0l1007.78,3300.24Z" style="fill:#fafdff;fill-rule:nonzero;"/><path d="M35195.8,10951.8l120.655,394.729c52.967,173.685 -45.601,315.792 -219.429,315.792l-10894.6,-0c-173.622,-0 -359.307,-142.107 -412.275,-315.792l-120.452,-394.729c-53.169,-173.68 45.605,-315.787 219.226,-315.787l10894.8,-0c173.622,-0 359.101,142.107 412.069,315.787l0.009,0Z" style="fill:#b7d5f9;fill-rule:nonzero;"/><path d="M33014.2,11034.2l-167.079,0l-15.745,-51.289l233.745,0l13.497,44.173l-62.17,288.263l-65.439,-0l63.191,-281.147Z" style="fill:#699dee;fill-rule:nonzero;"/><path d="M33386.2,11149.2c-20.04,-65.522 -70.141,-119.201 -121.469,-119.201c-51.333,-0 -68.099,52.246 -47.647,119.201c20.039,65.542 69.733,119.182 121.468,119.182c51.741,-0 67.893,-52.698 47.648,-119.182Zm-229.446,0c-28.839,-94.97 5.522,-171.903 92.84,-171.903c86.917,-0 167.693,75.971 196.935,171.903c29.041,94.99 -5.522,171.904 -92.84,171.904c-87.324,-0 -167.487,-75.976 -196.935,-171.904Z" style="fill:#699dee;fill-rule:nonzero;"/><path d="M33837.7,11234.2c-7.975,-26.606 -29.86,-48.447 -51.333,-48.447c-22.287,0 -28.835,21.841 -20.859,48.447c8.388,27.053 30.062,48.428 51.534,48.428c22.292,-0 28.84,-21.846 20.658,-48.428Zm-114.318,0c-14.11,-46.076 5.728,-85.012 52.762,-85.012c46.626,0 89.777,38.465 103.888,85.012c14.11,46.052 -5.929,84.988 -52.761,84.988c-46.627,-0 -89.778,-38.465 -103.889,-84.988Zm-138.445,-170.043c-8.182,-26.567 -29.861,-48.428 -51.333,-48.428c-22.293,0 -28.835,21.861 -20.86,48.428c8.388,27.077 30.062,48.466 51.334,48.466c22.493,0 29.035,-21.84 20.859,-48.466Zm137.626,-81.189l47.033,0l-141.714,332.436l-47.039,-0l141.72,-332.436Zm-251.944,81.189c-14.111,-46.057 5.728,-84.968 52.761,-84.968c46.626,-0 89.572,38.445 103.888,84.968c14.111,46.071 -5.933,85.031 -52.967,85.031c-46.42,0 -89.572,-38.464 -103.682,-85.031Z" style="fill:#699dee;fill-rule:nonzero;"/><path d="M31255.9,10636l313.294,1026.31l-7366.75,-0c-144.787,-0 -297.549,-98.671 -375.057,-231.821c-15.745,-26.852 -28.422,-55.009 -37.217,-83.972l-120.453,-394.728c-53.169,-173.68 45.605,-315.787 219.227,-315.787l7366.96,-0Z" style="fill:#f99746;fill-rule:nonzero;"/><path d="M25192.9,10636l-310.433,1026.31l-679.968,-0c-144.786,-0 -297.549,-98.671 -375.056,-231.821l240.292,-794.487l1125.16,-0Z" style="fill:#ed7d2b;fill-rule:nonzero;"/><path d="M27120.9,10636l-310.639,1026.31l-1124.96,-0l310.634,-1026.31l1124.96,-0Z" style="fill:#ed7d2b;fill-rule:nonzero;"/><path d="M29048.9,10636l-310.428,1026.31l-1125.37,-0l310.634,-1026.31l1125.16,-0Z" style="fill:#ed7d2b;fill-rule:nonzero;"/><path d="M30977.2,10636l-310.634,1026.31l-1125.17,-0l310.438,-1026.31l1125.37,-0Z" style="fill:#ed7d2b;fill-rule:nonzero;"/><path d="M26200.5,12270.3l-1967.51,-0l-41.513,-135.702l1967.71,-0l41.306,135.702Z" style="fill:#afcdfb;fill-rule:nonzero;"/><path d="M25778.6,12649.9l-1429.67,-0l-41.512,-135.707l1429.67,-0l41.512,135.707Z" style="fill:#afcdfb;fill-rule:nonzero;"/><path d="M26721.3,12649.9l-854.61,-0l-41.512,-135.707l854.61,-0l41.512,135.707Z" style="fill:#afcdfb;fill-rule:nonzero;"/><path d="M28174.5,12649.9l-1305.54,-0l-41.311,-135.707l1305.33,-0l41.517,135.707Z" style="fill:#afcdfb;fill-rule:nonzero;"/><path d="M26944.2,12270.3l-595.712,-0l-41.512,-135.702l595.918,-0l41.306,135.702Z" style="fill:#afcdfb;fill-rule:nonzero;"/><path d="M29314.4,12270.3l-2166.28,-0l-41.517,-135.702l2166.49,-0l41.31,135.702Z" style="fill:#afcdfb;fill-rule:nonzero;"/><path d="M18954.3,18117.2l-9250.85,0l-1437.93,-4708.82l9250.9,-0l1437.85,4708.82l0.034,0Z" style="fill:#fafdff;fill-rule:nonzero;"/><path d="M17648.8,15762.8l-8077.57,0l-611.114,-2001.25l8077.44,0l611.251,2001.25Z" style="fill:#4a75cb;fill-rule:nonzero;"/><path d="M10899.4,14168.3l-1368.26,0l-32.619,-106.73l1368.28,0l32.594,106.73Z" style="fill:#cae0ff;fill-rule:nonzero;"/><path d="M12363,14168.3l-1137.97,0l-32.599,-106.73l1137.97,0l32.599,106.73Z" style="fill:#cae0ff;fill-rule:nonzero;"/><path d="M15011.5,14168.3l-2352.05,0l-32.594,-106.73l2352.03,0l32.614,106.73Z" style="fill:#cae0ff;fill-rule:nonzero;"/><path d="M11016.2,14550.8l-1368.28,0l-32.599,-106.749l1368.28,-0l32.594,106.749Z" style="fill:#cae0ff;fill-rule:nonzero;"/><path d="M12479.8,14550.8l-1137.97,0l-32.599,-106.749l1137.97,-0l32.599,106.749Z" style="fill:#cae0ff;fill-rule:nonzero;"/><path d="M13823.7,14550.8l-1137.96,0l-32.599,-106.749l1137.96,-0l32.599,106.749Z" style="fill:#cae0ff;fill-rule:nonzero;"/><path d="M16520.4,14595.3l-2351.95,-0l-32.595,-106.75l2352.03,0l32.516,106.75Z" style="fill:#cae0ff;fill-rule:nonzero;"/><path d="M11164.3,15035.8l-1368.27,0l-32.599,-106.744l1368.28,-0l32.594,106.744Z" style="fill:#cae0ff;fill-rule:nonzero;"/><path d="M12627.8,15035.8l-1137.96,0l-32.599,-106.744l1137.99,-0l32.579,106.744Z" style="fill:#cae0ff;fill-rule:nonzero;"/><path d="M15276.4,15035.8l-2352.03,0l-32.594,-106.744l2352.03,-0l32.599,106.744Z" style="fill:#cae0ff;fill-rule:nonzero;"/><path d="M11281.1,15418.3l-1368.27,0l-32.599,-106.75l1368.28,0l32.594,106.75Z" style="fill:#cae0ff;fill-rule:nonzero;"/><path d="M12744.7,15418.3l-1137.97,0l-32.575,-106.75l1137.97,0l32.579,106.75Z" style="fill:#cae0ff;fill-rule:nonzero;"/><path d="M14088.6,15418.3l-1137.96,0l-32.599,-106.75l1137.96,0l32.599,106.75Z" style="fill:#cae0ff;fill-rule:nonzero;"/><path d="M16785.4,15462.8l-2352.08,-0l-32.594,-106.745l2351.95,0l32.722,106.745Z" style="fill:#cae0ff;fill-rule:nonzero;"/><path d="M14672,16387.3c-256.283,-0 -401.109,208.488 -322.85,464.771c78.263,256.282 350.413,464.77 606.696,464.77c256.282,0 401.108,-208.488 322.845,-464.77c-78.264,-256.283 -350.414,-464.771 -606.691,-464.771Zm315.561,1033.38c-313.52,0 -646.51,-255.075 -742.255,-568.614c-95.727,-313.54 81.453,-568.615 394.973,-568.615c313.54,-0 646.51,255.075 742.256,568.615c95.751,313.539 -81.454,568.614 -394.974,568.614Z" style="fill:#a8d29f;fill-rule:nonzero;"/><path d="M14890.8,17141.3c-21.66,-1.575 -44.521,-10.901 -64.153,-26.464l-322.458,-255.502c-43.578,-34.543 -59.083,-89.287 -34.645,-122.333c24.417,-33.026 79.554,-31.843 123.171,2.7l227.836,180.532l111.986,-267.159c16.236,-38.67 67.687,-47.24 114.951,-19.303c47.26,28.035 72.413,82.146 56.192,120.855l-147.196,351.17c-8.732,20.78 -28.241,33.806 -53.336,35.563c-4.049,0.27 -8.182,0.27 -12.348,-0.059Z" style="fill:#a8d29f;fill-rule:nonzero;"/><path d="M13045,16387.3c-256.283,-0 -401.089,208.488 -322.846,464.771c78.264,256.282 350.414,464.77 606.692,464.77c256.282,0 401.108,-208.488 322.845,-464.77c-78.239,-256.283 -350.389,-464.771 -606.691,-464.771Zm315.566,1033.38c-313.52,0 -646.49,-255.075 -742.236,-568.614c-95.751,-313.54 81.449,-568.615 394.969,-568.615c313.524,-0 646.49,255.075 742.241,568.615c95.745,313.539 -81.454,568.614 -394.974,568.614Z" style="fill:#a8d29f;fill-rule:nonzero;"/><path d="M13263.8,17141.3c-21.659,-1.575 -44.52,-10.901 -64.152,-26.464l-322.458,-255.502c-43.578,-34.543 -59.078,-89.287 -34.641,-122.333c24.418,-33.026 79.55,-31.843 123.167,2.7l227.86,180.532l111.982,-267.159c16.216,-38.67 67.691,-47.24 114.951,-19.303c47.259,28.035 72.413,82.146 56.197,120.855l-147.202,351.17c-8.731,20.78 -28.241,33.806 -53.33,35.563c-4.074,0.27 -8.202,0.27 -12.374,-0.059Z" style="fill:#a8d29f;fill-rule:nonzero;"/><path d="M11359.8,16387.3c-256.277,-0 -401.108,208.488 -322.845,464.771c78.263,256.282 350.414,464.77 606.696,464.77c256.278,0 401.109,-208.488 322.845,-464.77c-78.263,-256.283 -350.413,-464.771 -606.696,-464.771Zm315.547,1033.38c-313.52,0 -646.49,-255.075 -742.236,-568.614c-95.751,-313.54 81.454,-568.615 394.973,-568.615c313.52,-0 646.51,255.075 742.237,568.615c95.745,313.539 -81.434,568.614 -394.974,568.614Z" style="fill:#a8d29f;fill-rule:nonzero;"/><path d="M11578.6,17141.3c-21.635,-1.575 -44.501,-10.901 -64.128,-26.464l-322.458,-255.502c-43.603,-34.543 -59.102,-89.287 -34.646,-122.333c24.418,-33.026 79.555,-31.843 123.172,2.7l227.836,180.532l111.986,-267.159c16.216,-38.67 67.687,-47.24 114.946,-19.303c47.265,28.035 72.413,82.146 56.222,120.855l-147.221,351.17c-8.712,20.78 -28.246,33.806 -53.336,35.563c-4.049,0.27 -8.201,0.27 -12.373,-0.059Z" style="fill:#a8d29f;fill-rule:nonzero;"/><path d="M16241.6,16387.3c-256.219,-0 -401.005,208.488 -322.889,464.771c78.327,256.282 350.497,464.77 606.755,464.77c256.243,0 401.025,-208.488 322.909,-464.77c-78.323,-256.283 -350.517,-464.771 -606.775,-464.771Zm315.567,1033.38c-313.525,0 -646.432,-255.075 -742.138,-568.614c-95.908,-313.54 81.394,-568.615 394.895,-568.615c313.5,-0 646.426,255.075 742.133,568.615c95.912,313.539 -81.39,568.614 -394.89,568.614Z" style="fill:#f1a34f;fill-rule:nonzero;"/><path d="M16412,16945.1c-44.177,0 -91.437,-36.196 -104.914,-80.408l-73.822,-241.558c-13.497,-44.231 11.657,-80.409 55.829,-80.409c44.148,0 91.412,36.178 104.909,80.409l73.822,241.558c13.502,44.212 -11.677,80.408 -55.824,80.408Z" style="fill:#f1a34f;fill-rule:nonzero;"/><path d="M16478.7,17134.7l-17.404,0c-39.451,0 -81.596,-32.27 -93.64,-71.716c-12.069,-39.45 10.223,-71.74 49.693,-71.74l17.38,-0c39.451,-0 81.596,32.29 93.665,71.74c12.044,39.446 -10.43,71.716 -49.694,71.716Z" style="fill:#f1a34f;fill-rule:nonzero;"/><path d="M38664,17179.6c0,-0 1170.16,1213.04 1225.37,1669.69c55.215,456.648 -560.536,1169.34 -560.536,1169.34l-664.832,-2839.03Z" style="fill:#ed7d2b;fill-rule:nonzero;"/><path d="M38135.4,29752.2c0,0 -41.305,643.565 -165.847,652.361c-16.564,1.227 -631.501,-0 -631.501,-0l-785.078,-6.342c-0,0 5.521,-189.165 235.178,-228.63c229.45,-39.471 613.911,-200.002 753.564,-502.872c147.059,-318.816 593.684,85.483 593.684,85.483Z" style="fill:#163560;fill-rule:nonzero;"/><path d="M39883.8,29755.9c0,0 -41.306,643.565 -165.847,652.562c-16.564,1.227 -631.501,-0.201 -631.501,-0.201l-785.078,-6.135c-0,-0 5.521,-189.166 235.178,-228.636c229.45,-39.465 613.91,-200.002 753.583,-503.073c147.04,-318.609 593.665,85.483 593.665,85.483Z" style="fill:#163560;fill-rule:nonzero;"/><path d="M37280.9,22833.5c-0,-0 202.481,1313.72 963.426,3646.26c760.744,2332.75 862.993,3342.37 862.993,3342.37l821.688,-21.267c-0,0 12.476,-2547.47 -337.835,-3720.49c-350.516,-1172.81 -67.078,-4225.81 -67.078,-4225.81l-2243.19,978.946Z" style="fill:#163560;fill-rule:nonzero;"/><path d="M36883.2,21920.6c0,0 -33.531,1978.76 303.689,4409.05c337.015,2430.49 218.815,3461.39 218.815,3461.39l819.847,29.242c-0,0 495.303,-2429.47 357.466,-3645.85c-137.832,-1216.38 680.174,-4171.42 680.174,-4171.42l-2379.99,-82.416Z" style="fill:#1c468a;fill-rule:nonzero;"/><path d="M38480.5,17293.5c0,0 -437.448,285.505 -437.448,285.505l-631.275,-119.064c8.996,-50.94 51.127,-262.108 89.346,-453.379c2.473,-11.264 4.702,-22.552 6.974,-33.576c32.722,-162.745 61.144,-302.54 61.144,-302.54l590.397,-258.918l220.041,-96.527c-0.608,3.416 -17.585,180.66 -19.838,206.506c-42.327,459.455 120.659,771.993 120.659,771.993Z" style="fill:#ffb27d;fill-rule:nonzero;"/><path d="M37574.2,17147c12.275,-5.134 760.95,-224.258 842.134,-197.244c81.188,26.994 129.042,184.34 129.042,184.34l-1224.35,273.991c-0,0 96.732,-195.605 253.171,-261.087Z" style="fill:#ed7d2b;fill-rule:nonzero;"/><path d="M39577.9,22170.7c-128.222,578.327 -2238.67,642.338 -2781.42,115.952c-61.762,-59.922 -64.216,-338.453 -40.084,-713.711c47.245,-733.544 196.12,-1836.62 203.075,-2400.43c3.475,-272.194 41.512,-550.519 91.819,-803.282c107.138,-538.695 269.736,-961.218 269.736,-961.218c-0,0 1031.51,-331.002 1224.35,-273.907c928.436,275.031 1160.55,4458.47 1032.53,5036.62l-0,-0.019Z" style="fill:#f99746;fill-rule:nonzero;"/><path d="M36756.4,21573c47.245,-733.544 196.12,-1836.62 203.075,-2400.43c3.474,-272.194 41.512,-550.519 91.819,-803.282l620.252,-108.1c-0,0 600.821,2477.45 -915.146,3311.82Z" style="fill:#ed7d2b;fill-rule:nonzero;"/><path d="M37094.4,20551.1c-0,0 41.924,101.228 -47.034,168.915c-88.752,67.485 -146.627,177.303 -126.381,257.672c20.039,80.369 214.52,211.864 282.01,190.799c67.461,-20.859 205.111,-126.382 190.368,-168.713c-14.725,-42.533 93.272,-371.577 -70.966,-498.779c-164.212,-127.196 -227.997,50.106 -227.997,50.106Z" style="fill:#ffb27d;fill-rule:nonzero;"/><path d="M37794.8,17260.7c0,-0 -604.919,111.844 -1088.36,820.887c-483.44,708.984 -801.441,1236.4 -713.298,1492.43c88.138,256.037 895.303,1145.41 1034.77,1145.82c139.472,0.201 364.829,-100.82 377.918,-328.838c0,0 -567.697,-855.022 -455.219,-982.631c48.054,-54.602 740.906,-614.524 839.066,-360.715c162.373,420.024 5.114,-1786.95 5.114,-1786.95Z" style="fill:#f99746;fill-rule:nonzero;"/><path d="M38315.5,16529.6c-129.861,219.079 -612.89,407.714 -814.345,477.016c2.474,-11.264 4.702,-22.553 6.975,-33.576c32.721,-162.745 61.144,-302.541 61.144,-302.541l590.396,-258.918c130.269,-1.492 209.617,27.834 155.83,118.019Z" style="fill:#fca56b;fill-rule:nonzero;"/><path d="M37347,16634.1c-0,-0 949.321,298.369 1126.21,-295.65c176.689,-594.033 418.203,-955.593 -180.37,-1171.22c-598.78,-215.624 -784.465,-24.152 -891.627,159.776c-107.157,183.929 -296.523,1214.14 -54.214,1307.09Z" style="fill:#ffb27d;fill-rule:nonzero;"/><path d="M37438.6,15269.9c-0,0 59.097,691.826 202.25,662.113c142.946,-29.733 272.803,-51.696 251.33,156.772c-21.266,208.449 -220.248,448.775 220.66,486.631c440.697,37.831 1076.9,-1097.7 956.246,-1313.23c-348.063,-621.867 -2133.97,-751.091 -1630.49,7.71Z" style="fill:#163560;fill-rule:nonzero;"/><rect x="17707.3" y="9982" width="173.621" height="168.551" style="fill:#cde0fb;"/><rect x="17707.3" y="9641.14" width="173.621" height="168.551" style="fill:#cde0fb;"/><rect x="17707.3" y="9300.28" width="173.621" height="168.547" style="fill:#cde0fb;"/><rect x="17707.3" y="8959.42" width="173.621" height="168.547" style="fill:#cde0fb;"/><rect x="17707.3" y="8618.51" width="173.621" height="168.571" style="fill:#cde0fb;"/><rect x="17707.3" y="8277.64" width="173.621" height="168.571" style="fill:#cde0fb;"/><rect x="17707.3" y="7936.78" width="173.621" height="168.566" style="fill:#cde0fb;"/><rect x="17707.3" y="7595.92" width="173.621" height="168.571" style="fill:#cde0fb;"/><rect x="17707.3" y="7255.06" width="173.621" height="168.551" style="fill:#cde0fb;"/><rect x="17707.3" y="6914.19" width="173.621" height="168.547" style="fill:#cde0fb;"/><rect x="17707.3" y="6573.33" width="173.621" height="168.547" style="fill:#cde0fb;"/><rect x="17707.3" y="6232.47" width="173.621" height="168.551" style="fill:#cde0fb;"/><rect x="17707.3" y="5891.61" width="173.621" height="168.527" style="fill:#cde0fb;"/><rect x="17707.3" y="5550.74" width="173.621" height="168.547" style="fill:#cde0fb;"/><rect x="17707.3" y="5209.88" width="173.621" height="168.571" style="fill:#cde0fb;"/><rect x="17707.3" y="4869.02" width="173.621" height="168.571" style="fill:#cde0fb;"/><rect x="17707.3" y="4528.15" width="173.621" height="168.547" style="fill:#cde0fb;"/><rect x="17707.3" y="4187.29" width="173.621" height="168.547" style="fill:#cde0fb;"/><rect x="17176.6" y="7936.78" width="173.621" height="168.566" style="fill:#cde0fb;"/><rect x="17176.6" y="7595.92" width="173.621" height="168.571" style="fill:#cde0fb;"/><rect x="17176.6" y="7255.06" width="173.621" height="168.551" style="fill:#cde0fb;"/><rect x="17176.6" y="6914.19" width="173.621" height="168.547" style="fill:#cde0fb;"/><rect x="17176.6" y="6573.33" width="173.621" height="168.547" style="fill:#cde0fb;"/><rect x="17176.6" y="6232.47" width="173.621" height="168.551" style="fill:#cde0fb;"/><rect x="17176.6" y="5891.61" width="173.621" height="168.527" style="fill:#cde0fb;"/><rect x="17176.6" y="5550.74" width="173.621" height="168.547" style="fill:#cde0fb;"/><rect x="17176.6" y="5209.88" width="173.621" height="168.571" style="fill:#cde0fb;"/><rect x="17176.6" y="4869.02" width="173.621" height="168.571" style="fill:#cde0fb;"/><rect x="17176.6" y="4528.15" width="173.621" height="168.547" style="fill:#cde0fb;"/><rect x="17176.6" y="4187.29" width="173.621" height="168.547" style="fill:#cde0fb;"/><rect x="16635.9" y="9982" width="173.621" height="168.551" style="fill:#cde0fb;"/><rect x="16635.9" y="9641.14" width="173.621" height="168.551" style="fill:#cde0fb;"/><rect x="16635.9" y="9300.28" width="173.621" height="168.547" style="fill:#cde0fb;"/><rect x="16635.9" y="8959.42" width="173.621" height="168.547" style="fill:#cde0fb;"/><rect x="16635.9" y="8618.51" width="173.621" height="168.571" style="fill:#cde0fb;"/><rect x="16635.9" y="8277.64" width="173.621" height="168.571" style="fill:#cde0fb;"/><rect x="16635.9" y="7936.78" width="173.621" height="168.566" style="fill:#cde0fb;"/><rect x="16635.9" y="7595.92" width="173.621" height="168.571" style="fill:#cde0fb;"/><rect x="16635.9" y="7255.06" width="173.621" height="168.551" style="fill:#cde0fb;"/><rect x="16635.9" y="6914.19" width="173.621" height="168.547" style="fill:#cde0fb;"/><rect x="16635.9" y="6573.33" width="173.621" height="168.547" style="fill:#cde0fb;"/><rect x="16635.9" y="6232.47" width="173.621" height="168.551" style="fill:#cde0fb;"/><rect x="16635.9" y="5891.61" width="173.621" height="168.527" style="fill:#cde0fb;"/><rect x="16635.9" y="5550.74" width="173.621" height="168.547" style="fill:#cde0fb;"/><rect x="16635.9" y="5209.88" width="173.621" height="168.571" style="fill:#cde0fb;"/><rect x="16635.9" y="4869.02" width="173.621" height="168.571" style="fill:#cde0fb;"/><rect x="16635.9" y="4528.15" width="173.621" height="168.547" style="fill:#cde0fb;"/><rect x="16635.9" y="4187.29" width="173.621" height="168.547" style="fill:#cde0fb;"/><rect x="16180.5" y="10663.7" width="173.602" height="168.571" style="fill:#cde0fb;"/><rect x="16180.5" y="10322.9" width="173.602" height="168.527" style="fill:#cde0fb;"/><rect x="16180.5" y="9982" width="173.602" height="168.551" style="fill:#cde0fb;"/><rect x="16180.5" y="9641.14" width="173.602" height="168.551" style="fill:#cde0fb;"/><rect x="16180.5" y="9300.28" width="173.602" height="168.547" style="fill:#cde0fb;"/><rect x="16180.5" y="8959.42" width="173.602" height="168.547" style="fill:#cde0fb;"/><rect x="16180.5" y="8618.51" width="173.602" height="168.571" style="fill:#cde0fb;"/><rect x="16180.5" y="8277.64" width="173.602" height="168.571" style="fill:#cde0fb;"/><rect x="16180.5" y="7936.78" width="173.602" height="168.566" style="fill:#cde0fb;"/><rect x="16180.5" y="7595.92" width="173.602" height="168.571" style="fill:#cde0fb;"/><rect x="16180.5" y="7255.06" width="173.602" height="168.551" style="fill:#cde0fb;"/><rect x="16180.5" y="6914.19" width="173.602" height="168.547" style="fill:#cde0fb;"/><rect x="16180.5" y="6573.33" width="173.602" height="168.547" style="fill:#cde0fb;"/><rect x="16180.5" y="6232.47" width="173.602" height="168.551" style="fill:#cde0fb;"/><rect x="16180.5" y="5891.61" width="173.602" height="168.527" style="fill:#cde0fb;"/><rect x="16180.5" y="5550.74" width="173.602" height="168.547" style="fill:#cde0fb;"/><rect x="16180.5" y="5209.88" width="173.602" height="168.571" style="fill:#cde0fb;"/><rect x="16180.5" y="4869.02" width="173.602" height="168.571" style="fill:#cde0fb;"/><rect x="16180.5" y="4528.15" width="173.602" height="168.547" style="fill:#cde0fb;"/><rect x="16180.5" y="4187.29" width="173.602" height="168.547" style="fill:#cde0fb;"/><rect x="15579.7" y="7595.92" width="173.582" height="168.571" style="fill:#cde0fb;"/><rect x="15579.7" y="7255.06" width="173.582" height="168.551" style="fill:#cde0fb;"/><rect x="15579.7" y="6914.19" width="173.582" height="168.547" style="fill:#cde0fb;"/><rect x="15579.7" y="6573.33" width="173.582" height="168.547" style="fill:#cde0fb;"/><rect x="15579.7" y="6232.47" width="173.582" height="168.551" style="fill:#cde0fb;"/><rect x="15579.7" y="5891.61" width="173.582" height="168.527" style="fill:#cde0fb;"/><rect x="15579.7" y="5550.74" width="173.582" height="168.547" style="fill:#cde0fb;"/><rect x="15579.7" y="5209.88" width="173.582" height="168.571" style="fill:#cde0fb;"/><rect x="15579.7" y="4869.02" width="173.582" height="168.571" style="fill:#cde0fb;"/><rect x="15579.7" y="4528.15" width="173.582" height="168.547" style="fill:#cde0fb;"/><rect x="15579.7" y="4187.29" width="173.582" height="168.547" style="fill:#cde0fb;"/><rect x="41607.5" y="16463.6" width="173.621" height="168.551" style="fill:#cde0fb;"/><rect x="41607.5" y="16804.5" width="173.621" height="168.547" style="fill:#cde0fb;"/><rect x="41607.5" y="17145.4" width="173.621" height="168.527" style="fill:#cde0fb;"/><rect x="41607.5" y="17486.2" width="173.621" height="168.551" style="fill:#cde0fb;"/><rect x="41607.5" y="17827.1" width="173.621" height="168.571" style="fill:#cde0fb;"/><rect x="41607.5" y="18168" width="173.621" height="168.63" style="fill:#cde0fb;"/><rect x="41607.5" y="18508.8" width="173.621" height="168.507" style="fill:#cde0fb;"/><rect x="41607.5" y="18849.6" width="173.621" height="168.507" style="fill:#cde0fb;"/><rect x="41607.5" y="19190.5" width="173.621" height="168.507" style="fill:#cde0fb;"/><rect x="41607.5" y="19531.5" width="173.621" height="168.507" style="fill:#cde0fb;"/><rect x="41607.5" y="19872.4" width="173.621" height="168.507" style="fill:#cde0fb;"/><rect x="41607.5" y="20213.1" width="173.621" height="168.713" style="fill:#cde0fb;"/><rect x="41607.5" y="20554" width="173.621" height="168.507" style="fill:#cde0fb;"/><rect x="41607.5" y="20894.9" width="173.621" height="168.507" style="fill:#cde0fb;"/><rect x="41607.5" y="21235.8" width="173.621" height="168.512" style="fill:#cde0fb;"/><rect x="41607.5" y="21576.7" width="173.621" height="168.507" style="fill:#cde0fb;"/><rect x="41607.5" y="21917.4" width="173.621" height="168.713" style="fill:#cde0fb;"/><rect x="41607.5" y="22258.3" width="173.621" height="168.512" style="fill:#cde0fb;"/><rect x="42138.4" y="18508.8" width="173.621" height="168.507" style="fill:#cde0fb;"/><rect x="42138.4" y="18849.6" width="173.621" height="168.507" style="fill:#cde0fb;"/><rect x="42138.4" y="19190.5" width="173.621" height="168.507" style="fill:#cde0fb;"/><rect x="42138.4" y="19531.5" width="173.621" height="168.507" style="fill:#cde0fb;"/><rect x="42138.4" y="19872.4" width="173.621" height="168.507" style="fill:#cde0fb;"/><rect x="42138.4" y="20213.1" width="173.621" height="168.713" style="fill:#cde0fb;"/><rect x="42138.4" y="20554" width="173.621" height="168.507" style="fill:#cde0fb;"/><rect x="42138.4" y="20894.9" width="173.621" height="168.507" style="fill:#cde0fb;"/><rect x="42138.4" y="21235.8" width="173.621" height="168.512" style="fill:#cde0fb;"/><rect x="42138.4" y="21576.7" width="173.621" height="168.507" style="fill:#cde0fb;"/><rect x="42138.4" y="21917.4" width="173.621" height="168.713" style="fill:#cde0fb;"/><rect x="42138.4" y="22258.3" width="173.621" height="168.512" style="fill:#cde0fb;"/><rect x="42679.2" y="16463.6" width="173.621" height="168.551" style="fill:#cde0fb;"/><rect x="42679.2" y="16804.5" width="173.621" height="168.547" style="fill:#cde0fb;"/><rect x="42679.2" y="17145.4" width="173.621" height="168.527" style="fill:#cde0fb;"/><rect x="42679.2" y="17486.2" width="173.621" height="168.551" style="fill:#cde0fb;"/><rect x="42679.2" y="17827.1" width="173.621" height="168.571" style="fill:#cde0fb;"/><rect x="42679.2" y="18168" width="173.621" height="168.63" style="fill:#cde0fb;"/><rect x="42679.2" y="18508.8" width="173.621" height="168.507" style="fill:#cde0fb;"/><rect x="42679.2" y="18849.6" width="173.621" height="168.507" style="fill:#cde0fb;"/><rect x="42679.2" y="19190.5" width="173.621" height="168.507" style="fill:#cde0fb;"/><rect x="42679.2" y="19531.5" width="173.621" height="168.507" style="fill:#cde0fb;"/><rect x="42679.2" y="19872.4" width="173.621" height="168.507" style="fill:#cde0fb;"/><rect x="42679.2" y="20213.1" width="173.621" height="168.713" style="fill:#cde0fb;"/><rect x="42679.2" y="20554" width="173.621" height="168.507" style="fill:#cde0fb;"/><rect x="42679.2" y="20894.9" width="173.621" height="168.507" style="fill:#cde0fb;"/><rect x="42679.2" y="21235.8" width="173.621" height="168.512" style="fill:#cde0fb;"/><rect x="42679.2" y="21576.7" width="173.621" height="168.507" style="fill:#cde0fb;"/><rect x="42679.2" y="21917.4" width="173.621" height="168.713" style="fill:#cde0fb;"/><rect x="42679.2" y="22258.3" width="173.621" height="168.512" style="fill:#cde0fb;"/><rect x="43134.4" y="15781.9" width="173.626" height="168.547" style="fill:#cde0fb;"/><rect x="43134.4" y="16122.8" width="173.626" height="168.551" style="fill:#cde0fb;"/><rect x="43134.4" y="16463.6" width="173.626" height="168.551" style="fill:#cde0fb;"/><rect x="43134.4" y="16804.5" width="173.626" height="168.547" style="fill:#cde0fb;"/><rect x="43134.4" y="17145.4" width="173.626" height="168.527" style="fill:#cde0fb;"/><rect x="43134.4" y="17486.2" width="173.626" height="168.551" style="fill:#cde0fb;"/><rect x="43134.4" y="17827.1" width="173.626" height="168.571" style="fill:#cde0fb;"/><rect x="43134.4" y="18168" width="173.626" height="168.63" style="fill:#cde0fb;"/><rect x="43134.4" y="18508.8" width="173.626" height="168.507" style="fill:#cde0fb;"/><rect x="43134.4" y="18849.6" width="173.626" height="168.507" style="fill:#cde0fb;"/><rect x="43134.4" y="19190.5" width="173.626" height="168.507" style="fill:#cde0fb;"/><rect x="43134.4" y="19531.5" width="173.626" height="168.507" style="fill:#cde0fb;"/><rect x="43134.4" y="19872.4" width="173.626" height="168.507" style="fill:#cde0fb;"/><rect x="43134.4" y="20213.1" width="173.626" height="168.713" style="fill:#cde0fb;"/><rect x="43134.4" y="20554" width="173.626" height="168.507" style="fill:#cde0fb;"/><rect x="43134.4" y="20894.9" width="173.626" height="168.507" style="fill:#cde0fb;"/><rect x="43134.4" y="21235.8" width="173.626" height="168.512" style="fill:#cde0fb;"/><rect x="43134.4" y="21576.7" width="173.626" height="168.507" style="fill:#cde0fb;"/><rect x="43134.4" y="21917.4" width="173.626" height="168.713" style="fill:#cde0fb;"/><rect x="43134.4" y="22258.3" width="173.626" height="168.512" style="fill:#cde0fb;"/><rect x="43735.2" y="18849.6" width="173.621" height="168.507" style="fill:#cde0fb;"/><rect x="43735.2" y="19190.5" width="173.621" height="168.507" style="fill:#cde0fb;"/><rect x="43735.2" y="19531.5" width="173.621" height="168.507" style="fill:#cde0fb;"/><rect x="43735.2" y="19872.4" width="173.621" height="168.507" style="fill:#cde0fb;"/><rect x="43735.2" y="20213.1" width="173.621" height="168.713" style="fill:#cde0fb;"/><rect x="43735.2" y="20554" width="173.621" height="168.507" style="fill:#cde0fb;"/><rect x="43735.2" y="20894.9" width="173.621" height="168.507" style="fill:#cde0fb;"/><rect x="43735.2" y="21235.8" width="173.621" height="168.512" style="fill:#cde0fb;"/><rect x="43735.2" y="21576.7" width="173.621" height="168.507" style="fill:#cde0fb;"/><rect x="43735.2" y="21917.4" width="173.621" height="168.713" style="fill:#cde0fb;"/><rect x="43735.2" y="22258.3" width="173.621" height="168.512" style="fill:#cde0fb;"/></g></svg>