<?xml version="1.0" encoding="UTF-8" standalone="no"?><!DOCTYPE svg PUBLIC "-//W3C//DTD SVG 1.1//EN" "http://www.w3.org/Graphics/SVG/1.1/DTD/svg11.dtd"><svg width="100%" height="100%" viewBox="0 0 13534 8334" version="1.1" xmlns="http://www.w3.org/2000/svg" xmlns:xlink="http://www.w3.org/1999/xlink" xml:space="preserve" xmlns:serif="http://www.serif.com/" style="fill-rule:evenodd;clip-rule:evenodd;stroke-linejoin:round;stroke-miterlimit:2;"><g><rect x="0" y="0" width="13533.3" height="8333.33" style="fill:#fff;fill-rule:nonzero;"/><path d="M12148.5,7445.88c-0,-0 1458.83,-1566.33 246.709,-3262.08c-1075.46,-1504.61 -2329.38,-1401.76 -3249.33,-791.179c-391.833,260.054 -1521.5,32.049 -2483,-1498.94c-1311.21,-2087.85 -6115.63,-1018.35 -5269.15,2404.58c385.4,1558.46 -979.054,1597.08 -152.787,3150.92l10907.6,-3.292Z" style="fill:#ebf3fa;fill-rule:nonzero;"/><path d="M622.608,7461.62l12288.1,-0c7.749,-0 14.082,-6.333 14.082,-14.083l0,-5.084c0,-7.75 -6.333,-14.083 -14.082,-14.083l-12288.1,-0c-7.742,-0 -14.08,6.333 -14.08,14.083l0,5.125c0,7.709 6.334,14.042 14.075,14.042Z" style="fill:#2e3552;fill-rule:nonzero;"/><path d="M5675.79,6370.96c0,0 -171.374,-199.916 -10.541,-326.916c0,-0 117.458,-71.125 213.208,-65.334c0,0 -135.708,227.542 -91.791,250.209c43.916,22.625 132.916,-264.5 132.916,-264.5c0,-0 267.334,-25.917 353.292,15.416c-0,0 -228.5,187 -180.375,198.125c48.125,11.125 294.958,-172.416 294.958,-172.416c0,-0 248.792,42.375 235.5,194.125c-13.25,151.75 -99,198.625 -136.666,194.583c-37.667,-4.042 -258.042,-88.167 -262.875,-57.292c-4.792,30.875 127.875,131.75 220.791,136.459c0,-0 -175.416,193.458 -291.958,137.625c-116.583,-55.834 -126.541,-144.334 -199.208,-177.5c-72.667,-33.209 -134.667,-33.125 -104.667,0.75c30,33.833 161.5,66.708 203.042,140.25c41.542,73.5 78.833,123.083 -41.751,104.916c-120.624,-18.166 -316.666,-106.375 -325.249,-207.458l-8.626,-101.042Z" style="fill:#82b378;fill-rule:nonzero;"/><path d="M6500.71,6203.75c-0,-0 -675.667,-26.042 -824.918,167.208c0,0 -32.999,98.834 -134.541,188.834l-15.833,43.166c-0,0 117.083,-123.458 159,-130.958c-0,-0 -65.542,-239.417 816.292,-268.25Z" style="fill:#82b378;fill-rule:nonzero;"/><path d="M5541.25,6559.79c0,-0 -145.042,107.25 -155.125,298.916l26.333,2.334c0,-0 46.334,-198.125 130.042,-275.625c83.75,-77.5 -1.25,-25.625 -1.25,-25.625Z" style="fill:#82b378;fill-rule:nonzero;"/><path d="M5076.62,6119.54c0,-0 272.625,-152.667 145.375,-359.875c0,-0 -101.75,-127.209 -210.792,-159.917c0,0 58.125,308.958 0,316.208c-58.166,7.292 -40,-348.916 -40,-348.916c0,-0 -287.166,-138.125 -399.833,-127.25c0,-0 178.125,301.708 119.959,294.416c-58.167,-7.25 -258.084,-312.583 -258.084,-312.583c-0,0 -294.421,-54.5 -341.671,119.958c-47.254,174.459 29.079,261.709 72.696,272.625c43.6,10.875 323.516,7.25 316.225,43.625c-7.25,36.334 -196.296,94.5 -301.667,61.792c0,0 116.288,287.125 268.959,272.583c152.666,-14.541 199.916,-109.041 294.416,-116.291c94.501,-7.292 163.584,18.166 116.334,43.625c-47.25,25.416 -207.209,8.333 -283.542,73.208c-76.333,64.917 -138.125,104.875 3.667,133.958c141.75,29.084 396.166,10.917 447.083,-98.125l50.875,-109.041Z" style="fill:#a8d29f;fill-rule:nonzero;"/><path d="M4226.08,5596.12c0,0 763.292,247.167 850.542,523.417c0,-0 -3.625,123.583 72.666,265.333l0,54.5c0,0 -79.958,-185.375 -123.541,-210.792c0,0 170.834,-239.916 -799.667,-632.458Z" style="fill:#82b378;fill-rule:nonzero;"/><path d="M5149.29,6384.88c0,-0 117.751,178.75 50.626,396.333l-30.292,-8.125c-0,0 29.417,-239.666 -32.167,-360.208c-61.583,-120.542 11.833,-28 11.833,-28Z" style="fill:#82b378;fill-rule:nonzero;"/><path d="M5510.33,5909c0,-0 -359.375,-201.25 -191.666,-474.375c-0,-0 134.167,-167.708 277.917,-210.833c-0,-0 -76.667,407.291 -0,416.875c76.624,9.583 52.707,-459.959 52.707,-459.959c0,0 378.501,-182.083 527.042,-167.708c0,-0 -234.791,397.667 -158.125,388.083c76.667,-9.583 340.167,-412.041 340.167,-412.041c0,-0 388.125,-71.875 450.417,158.125c62.292,229.958 -38.334,344.958 -95.834,359.333c-57.499,14.375 -426.416,9.583 -416.833,57.5c9.583,47.917 258.708,124.583 397.667,81.458c-0,0 -153.334,378.5 -354.542,359.334c-201.25,-19.167 -263.541,-143.709 -388.125,-153.292c-124.583,-9.583 -215.625,23.958 -153.333,57.5c62.292,33.5 273.125,10.958 373.75,96.5c100.624,85.542 182.083,138.25 -4.792,176.583c-186.875,38.334 -522.25,14.375 -589.334,-129.375l-67.083,-143.708Z" style="fill:#a8d29f;fill-rule:nonzero;"/><path d="M6631.5,5219.04c0,-0 -1006.17,325.791 -1121.17,689.958c0,-0 4.792,162.875 -95.833,349.75l-0,71.875c-0,0 105.417,-244.375 162.916,-277.917c0,0 -225.208,-316.208 1054.08,-833.666Z" style="fill:#82b378;fill-rule:nonzero;"/><path d="M5414.5,6258.75c-0,0 -155.167,235.625 -66.708,522.458l39.917,-10.708c-0,0 -38.751,-315.917 42.416,-474.833c81.208,-158.875 -15.625,-36.917 -15.625,-36.917Z" style="fill:#82b378;fill-rule:nonzero;"/><path d="M5498.21,7403.25c388.75,-0 703.917,-315.167 703.917,-703.917l-1407.83,0c-0,388.75 315.166,703.917 703.916,703.917Z" style="fill:#f99746;fill-rule:nonzero;"/><path d="M5290.33,7397.83c28.625,3.584 57.833,5.417 87.458,5.417c388.75,-0 703.875,-315.167 703.875,-703.958l-174.875,-0c-0,359.166 -268.959,655.5 -616.458,698.541Z" style="fill:#ffac6e;fill-rule:nonzero;"/><path d="M6211.83,7439.04l-1427.25,-0c-0,-47.959 38.874,-86.834 86.833,-86.834l1253.58,0c47.958,0 86.833,38.875 86.833,86.834Z" style="fill:#ed7d2b;fill-rule:nonzero;"/><rect x="4771.17" y="6699.29" width="1446.96" height="21.625" style="fill:#ed7d2b;fill-rule:nonzero;"/><path d="M4187.75,4251.5l-0.375,-3146.01l4440.75,-0.538l0.375,3146l-4440.75,0.542Z" style="fill:#8eb2dd;fill-rule:nonzero;"/><path d="M4245.71,1163.82l4324.08,-0.526l0.375,3029.33l-4324.08,0.542l-0.375,-3029.35Z" style="fill:#d7e6fa;fill-rule:nonzero;"/><path d="M6876.12,3609.36l-1516.75,0.184c-30,0.004 -54.375,-24.338 -54.375,-54.367c-0,-30.029 24.333,-54.375 54.375,-54.379l1516.71,-0.184c30.042,-0.004 54.376,24.338 54.376,54.367c-0,30.029 -24.334,54.375 -54.334,54.379Z" style="fill:#8eb2dd;fill-rule:nonzero;"/><path d="M6876.17,3928.98l-1516.75,0.183c-30,0.004 -54.375,-24.338 -54.375,-54.367c-0,-30.029 24.333,-54.375 54.375,-54.379l1516.71,-0.183c30.042,-0.005 54.375,24.337 54.375,54.366c-0,30.03 -24.333,54.375 -54.333,54.38Z" style="fill:#8eb2dd;fill-rule:nonzero;"/><path d="M8075.12,3312.15l-3510.58,0.425l-0,-28.104l3510.58,-0.425l0,28.104Z" style="fill:#8eb2dd;fill-rule:nonzero;"/><path d="M8035.83,3355.47l0,-114.758l157.375,57.362l-157.375,57.396Z" style="fill:#8eb2dd;fill-rule:nonzero;"/><path d="M4728.04,1620.6l0.25,1866.42l29.375,-0l-0.209,-1866.42l-29.416,0.004Z" style="fill:#8eb2dd;fill-rule:nonzero;"/><path d="M4682.75,1673.85l120,-0.017l-60,-142.85l-60,142.867Z" style="fill:#8eb2dd;fill-rule:nonzero;"/><path d="M5099.25,3666.96l-9.042,-0c-54.458,0.008 -98.625,-44.147 -98.666,-98.617c-0,-54.471 44.166,-98.634 98.625,-98.642l9.083,0c54.458,-0.008 98.625,44.146 98.625,98.617c-0,54.471 -44.125,98.633 -98.625,98.642Z" style="fill:#2a4e96;fill-rule:nonzero;"/><path d="M5099.29,3950.2l-9.041,0.005c-54.5,0.004 -98.667,-44.147 -98.667,-98.622c0,-54.47 44.167,-98.633 98.625,-98.637l9.083,-0.004c54.459,-0.004 98.626,44.146 98.626,98.617c-0,54.474 -44.125,98.637 -98.626,98.641Z" style="fill:#f99746;fill-rule:nonzero;"/><path d="M7888.25,1705.78l-201.625,16.829l26.5,52.271l-632.833,297.958l-591.167,993.68l-697.709,-598.122l-562.833,272.926l-1.625,0.766l-358.791,334.225l16.375,16.092l356.25,-331.837l546.917,-265.205l707.416,606.446l602,-1011.87l626.25,-294.85l26.167,51.6l138.708,-140.908Z" style="fill:#699ff0;fill-rule:nonzero;"/><path d="M5232.71,2831.75l-6.708,-0c-40.292,0.008 -72.958,-32.654 -73,-72.946c-0,-40.296 32.667,-72.962 72.958,-72.967l6.709,0c40.291,-0.008 72.958,32.655 72.958,72.946c-0,40.296 -32.625,72.963 -72.917,72.967Z" style="fill:#2a4e96;fill-rule:nonzero;"/><path d="M7088.75,2169.28l-6.709,-0c-40.291,0.008 -72.957,-32.655 -72.957,-72.947c-0.042,-40.296 32.624,-72.962 72.916,-72.966l6.708,-0c40.292,-0.004 72.959,32.654 72.959,72.946c0.042,40.295 -32.625,72.962 -72.917,72.967Z" style="fill:#2a4e96;fill-rule:nonzero;"/><path d="M5789.54,2573.45l-6.709,-0c-40.291,0.004 -72.958,-32.654 -72.958,-72.946c-0,-40.296 32.667,-72.962 72.958,-72.967l6.709,0c40.291,-0.008 72.958,32.654 72.958,72.946c0,40.296 -32.667,72.963 -72.958,72.967Z" style="fill:#2a4e96;fill-rule:nonzero;"/><path d="M6492.12,3136.48l-6.708,0c-40.292,0.004 -72.959,-32.654 -72.959,-72.945l0,-0.004c0,-40.292 32.667,-72.959 72.959,-72.963l6.708,-0.004c40.292,-0.005 72.958,32.658 72.958,72.95c0,40.291 -32.666,72.962 -72.958,72.966Z" style="fill:#f99746;fill-rule:nonzero;"/><path d="M2578.45,2550.64c-0,-0 157.229,186.537 357.458,108.5c0,-0 43.079,-104.179 43.688,-180.975c0.066,-9.451 0.183,-18.609 0.333,-27.321c1.071,-86.479 3.983,-135.004 3.983,-135.004c0,-0 -0.054,-0.017 -0.2,-0.042c-9.108,-3.8 -306.091,-125.725 -305.845,-115.596c5.095,233.888 -99.417,350.438 -99.417,350.438Z" style="fill:#ffb27d;fill-rule:nonzero;"/><path d="M2707.68,2255.97c28.638,53.079 126.905,156.933 272.242,194.871c1.071,-86.479 3.983,-135.004 3.983,-135.004c0,-0 -0.054,-0.017 -0.2,-0.042c-8.22,-2.204 -284.55,-75.475 -276.025,-59.825Z" style="fill:#ed975d;fill-rule:nonzero;"/><path d="M3046.1,2306.86c0,0 -333.983,78.517 -379.675,-130.221c-45.696,-208.737 -119.579,-339.187 91.729,-398.145c211.305,-58.959 270.317,11.591 302.513,77.554c32.2,65.962 71.137,425.004 -14.567,450.812Z" style="fill:#ffb27d;fill-rule:nonzero;"/><path d="M2677.85,2233.51c-4.562,2.921 -76.425,25 -212.521,-246.12c-21.362,-42.563 -35.92,-134.634 13.884,-215.984c49.796,-81.35 226.379,-145.317 373.091,-173.15c146.713,-27.833 181.934,54.721 216.484,137.683c36.266,87.096 141.008,158.801 141.008,158.801c-126.512,70.67 -278.887,-30.409 -331.679,-13.788c-52.792,16.621 -71.434,99.821 -75.396,126.488c-3.962,26.67 -10.05,48.829 -76.429,25.016c-66.383,-23.821 -30.021,94.067 -19.384,116.613c0,-0 9.017,60.046 -29.058,84.441Z" style="fill:#a9453d;fill-rule:nonzero;"/><path d="M1817.5,7439.04l-202.233,-0c-42.396,-0 -89.5,-42.459 -101.296,-120.167c-11.792,-77.75 -98.938,-120.167 -117.804,-183.75c-18.863,-63.625 77.77,-153.208 77.77,-153.208l16.155,-20.75l16.804,-21.625l160.196,37.666c-0,0 3.954,38.167 6.429,86.75c1.708,35.084 2.65,75.625 0.65,111.167c-4.721,84.875 23.758,176.208 99.108,192.708c75.413,16.5 44.221,71.209 44.221,71.209Z" style="fill:#2c3a64;fill-rule:nonzero;"/><path d="M3225.35,7439.04l-536.063,-0c-5.129,-1 -9.02,-2.125 -11.379,-3.292c-35.792,-17.917 -24.583,-154.958 -20.283,-197.292c0.825,-7.833 1.417,-12.416 1.417,-12.416c-0,-0 188.495,-150.792 214.437,-35.334c0.825,3.584 1.767,7.125 2.771,10.625l-0,0.042c32.721,108.042 179,157.083 263.496,170.75c64.558,10.5 81.304,48.125 85.604,66.917Z" style="fill:#2c3a64;fill-rule:nonzero;"/><path d="M3117.3,4347.75c0,0 -28.629,357.167 -62.275,786.5c-45.733,583.208 -100.725,1299.62 -106.171,1435.33c-9.4,235.667 -47.145,612.625 -47.145,612.625c-0,0 -89.488,89.542 -268.6,51.792c-0,0 -159.609,-538.125 -205.201,-1107.46c-0.708,-9.334 -1.412,-18.75 -2.12,-28.167c-42.409,-579.583 -108.359,-1800.12 -108.359,-1800.12l799.871,49.5Z" style="fill:#2b478b;fill-rule:nonzero;"/><path d="M3117.3,4347.75c0,0 -28.629,357.167 -62.275,786.5l-627.117,992.292c-0.708,-9.334 -1.412,-18.75 -2.12,-28.167c-42.409,-579.583 -108.359,-1800.12 -108.359,-1800.12l799.871,49.5Z" style="fill:#233862;fill-rule:nonzero;"/><path d="M2986.57,4390.17c-0,-0 -516.004,1293.5 -855.288,1901.42c-339.291,607.875 -445.316,777.542 -445.316,777.542c-0,-0 -194.384,-77.75 -212.054,-130.792c-0,0 129.745,-1173.54 356.954,-1459.62c128.395,-161.666 279.212,-646.791 286.279,-816.416c7.071,-169.625 45.946,-505.4 45.946,-505.4l823.479,233.275Z" style="fill:#2b478b;fill-rule:nonzero;"/><path d="M1809.82,4155.13l-5.459,83.2c0,0 54.867,147.792 -98.862,223.584c0,-0 -65.8,26.541 -68.471,-24.667c-2.666,-51.25 5.75,-31.958 0.408,-104.125c-5.354,-72.125 23.009,-140.292 70.721,-163.25l39.155,-45.179l62.508,30.437Z" style="fill:#ffb27d;fill-rule:nonzero;"/><path d="M1749.77,4215.71c57.117,18.334 66.271,14.167 66.271,14.167c-0,-0 277.983,-506.088 306.137,-552.417c28.154,-46.329 590.217,-567.537 590.217,-567.537l-144.45,-538.617c-0,0 -639.267,827.821 -708.3,946.604c-114.079,196.296 -180.917,652.175 -180.917,652.175c0,0 26.183,31.209 71.042,45.625Z" style="fill:#ed7d2b;fill-rule:nonzero;"/><path d="M2179.68,4378.67c141.267,83.458 274.592,145.375 429.404,178.041c183.475,39.959 407.596,22.875 482.738,32.334c8.041,0.916 15.437,-1.25 21.967,-5.625c5.512,-3.459 35.037,-229.792 63.208,-516.192c0.758,-6.588 1.512,-13.546 2.054,-20.458c0.379,-4.642 0.65,-9.284 0.754,-13.763l0.492,-4.046c3.075,-29.745 6.042,-60.087 8.791,-90.745c6.913,-76.434 12.905,-154.863 18.463,-233.134c0.542,-7.45 1.079,-14.954 1.563,-22.454c8.695,-126.263 15.116,-250.625 17.116,-361.229c0.05,-2.646 0.108,-5.292 0.108,-7.938c1.513,-92.629 -0.058,-175.429 -5.937,-241.179c-1.192,-13.871 -2.592,-26.879 -4.267,-39.133c-21.912,-166.042 -102.287,-282.855 -177.75,-370.567l-73.791,-83.733c-70.821,6.212 -132.142,8.754 -201.292,-35.617c-74.921,-48.042 -123.313,-93.283 -138.483,-84.808c-115.95,67.854 -241.529,234.708 -304.467,461.204c-33.846,121.941 -59.054,259.209 -74.817,403.712c-5.991,55.488 -10.633,111.901 -13.82,169.063c-16.409,306.708 -64.45,568.779 -92.305,721.1c-7.987,43.833 -14.304,78.667 -17.758,102.796c-3.45,21.917 39.3,51.287 58.029,62.371Z" style="fill:#f99746;fill-rule:nonzero;"/><path d="M2712.4,2945.1c0,-0 63.096,697.575 466.65,1101.66c0.379,-4.642 0.65,-9.284 0.754,-13.763l0.492,-4.046c3.075,-29.745 6.042,-60.087 8.791,-90.745c6.913,-76.434 12.905,-154.863 18.463,-233.134c0.542,-7.45 1.079,-14.954 1.563,-22.454c8.695,-126.263 15.116,-250.625 17.116,-361.229c0.05,-2.646 0.108,-5.292 0.108,-7.938c-0.812,-66.125 -2.754,-126.416 -5.937,-179.37c-129.225,-103.155 -296.942,-175.217 -508,-188.984Z" style="fill:#ed7d2b;fill-rule:nonzero;"/><path d="M4057.75,4339.25l750.83,-2206.86c3.458,-10.05 8.041,-19.659 -1.917,-23.292l-9.125,-3.317c-10.251,-3.725 -13.25,2.875 -16.959,13.113l-800.362,2175.15c-7.563,20.795 2.246,43.875 22.45,52.875l18.542,8.25c14.479,6.416 31.374,-0.917 36.541,-15.913Z" style="fill:#2a4e96;fill-rule:nonzero;"/><path d="M4259.42,3390.93c0.375,-32.304 85.583,-106.983 91.25,-97.979c4.041,6.479 -4.75,40.404 -9.5,54.687c35.375,-23.687 43.458,-107.408 103.208,-144.775c16.583,-10.358 75.542,151.475 19.625,210.192c-55.917,58.717 -82.75,52.179 -175.875,106.517l-67.458,4.533l-33.292,-104.846c-0,0 35.958,-13.166 72.042,-28.329Z" style="fill:#ffb27d;fill-rule:nonzero;"/><path d="M4294.29,3475.71c4.412,-63.634 -79.5,-100.446 -79.5,-100.446c-0,-0 -639.292,66.641 -694.288,49.341c-54.987,-17.3 -465.858,-606.896 -465.858,-606.896c-0,0 -180.242,-203.275 -327.825,-158.387c-128.25,39.004 -178.384,139.046 -195.45,234.346c-20.338,113.571 32.012,227.841 130.358,288.166c220.767,135.404 606.909,508.613 711,539.126c231.671,67.92 893.354,-154.072 893.354,-154.072c0,0 24.751,-41.195 28.209,-91.178Z" style="fill:#f99746;fill-rule:nonzero;"/><path d="M11424.3,5445.5c11.583,-285.583 36.624,-534 66.583,-707.25c47.75,-276.167 90.75,-435.042 91.25,-436.708c6.291,-24.288 97.166,-122.542 299.25,-119.542c202.041,3.042 182.874,131.917 182.874,131.917c0.042,4.333 -0.541,8.416 -1.416,11.458c-1.958,6.629 -187.458,679.167 -179.417,1547.5c0.126,12.208 1.5,33.292 0.625,47.333c0,0.042 -468.249,12.084 -468.375,0c-16.333,-75.916 -8.375,-286.208 8.626,-474.708Z" style="fill:#b7d3f3;fill-rule:nonzero;"/><path d="M11365.4,5868.62c0.167,12.083 6.542,21.792 14.334,21.792l0.208,-0c7.751,-0.209 13.959,-9.875 14.084,-21.792l401.291,-0c0.125,12.083 6.5,21.792 14.292,21.792l0.209,-0c7.916,-0.209 14.208,-10.209 14.124,-22.459c-2.333,-248.541 11.834,-480.666 33.292,-685.5c53.333,-510.916 151.958,-852.333 153.375,-857.083c0.875,-3.042 1.416,-7.083 1.416,-11.458c0,-0 19.167,-128.875 -182.874,-131.917c-202.084,-3.042 -292.959,95.254 -299.251,119.542c-0.374,1.296 -24.708,91.25 -57.083,253c-10.75,53.583 -22.292,115 -34.166,183.708c-29.958,173.25 -55,421.667 -66.625,707.208c-16.959,188.542 -22.917,347.292 -6.626,423.167Z" style="fill:#d2e3fc;fill-rule:nonzero;"/><path d="M11853.6,5890.42l-1573.33,-0c-0,-0 36.667,-148.25 947.791,-126.167c644.834,15.625 625.542,126.167 625.542,126.167Z" style="fill:#c5dcf8;fill-rule:nonzero;"/><path d="M11981.7,7439.04c-182.417,-923.459 -135.5,-1490.12 -135.292,-1497.25c0.458,-14.25 -25.75,-27.125 -39.833,-27.584c-14.292,-0.25 -77.25,-4.208 -84.5,7.959c-9.584,15.916 -46.292,714.125 225.583,1516.88l34.042,-0Z" style="fill:#b7d3f3;fill-rule:nonzero;"/><path d="M10512.7,7439.04c182.416,-923.459 135.5,-1490.12 135.249,-1497.25c-0.458,-14.25 25.75,-27.125 39.876,-27.584c14.249,-0.25 77.208,-4.208 84.5,7.959c9.541,15.916 46.291,714.125 -225.584,1516.88l-34.041,-0Z" style="fill:#b7d3f3;fill-rule:nonzero;"/><path d="M10221.6,7439.04c182.417,-923.459 135.5,-1490.12 135.292,-1497.25c-0.458,-14.25 25.75,-27.125 39.833,-27.584c14.25,-0.25 77.25,-4.208 84.5,7.959c9.542,15.916 46.292,714.125 -225.583,1516.88l-34.042,-0Z" style="fill:#b7d3f3;fill-rule:nonzero;"/><path d="M11688.6,7439.04c-182.416,-923.459 -135.5,-1490.12 -135.291,-1497.25c0.458,-14.25 -25.75,-27.125 -39.834,-27.584c-14.249,-0.25 -77.208,-4.208 -84.5,7.959c-9.542,15.916 -46.291,714.125 225.584,1516.88l34.041,-0Z" style="fill:#b7d3f3;fill-rule:nonzero;"/><path d="M10279.4,5937.75l1573.29,-0c17.75,-0 32.25,-14.5 32.25,-32.25l0,-21.167c0,-17.75 -14.5,-32.25 -32.25,-32.25l-1573.29,0c-17.708,0 -32.208,14.5 -32.208,32.25l-0,21.167c-0,17.75 14.5,32.25 32.208,32.25Z" style="fill:#b7d3f3;fill-rule:nonzero;"/><path d="M10334.7,4516.92l-523,-113.292l-30.792,75.083c-0,0 577.041,343.375 631.125,326.542c54.042,-16.792 -77.333,-288.333 -77.333,-288.333Z" style="fill:#ffb27d;fill-rule:nonzero;"/><path d="M10810.1,6882.12c13.084,15 14.75,31.792 8.25,49.708c-0,0.084 -0.042,0.167 -0.125,0.25c-11.958,33.125 -51.583,70.125 -97.583,107.042c-5.875,4.75 -11.083,9.083 -15.667,13.083c-1.209,1.042 -2.375,2.084 -3.5,3.125c-0.917,0.834 -1.834,1.667 -2.708,2.459c-42.917,39.541 -26.75,48.625 -103.834,128.875c-87.875,91.416 -148.375,93.083 -165.583,84.75c-14.583,-7.125 15,-55.625 47.792,-110.125c1.583,-2.625 3.125,-5.292 4.791,-7.959c4.334,-7.208 8.667,-14.583 13,-21.875c38.459,-65.583 28.583,-96.375 19.459,-194c-7.376,-79.333 -123.417,-443.208 -123.417,-443.208l168.417,-29.042c-0,0 50.708,289.792 106.583,334.417c29.875,23.75 63.333,24.083 92.041,41.708c2.042,1.209 4.042,2.459 6.001,3.75c16.291,10.834 32.916,22 46.083,37.042Z" style="fill:#ffb27d;fill-rule:nonzero;"/><path d="M10810.1,6882.12c13.084,15 14.75,31.792 8.25,49.708c-0,0.084 -0.042,0.167 -0.125,0.25c-14.666,33.084 -53.25,69.875 -97.75,106.709c-5.792,4.833 -10.916,9.25 -15.5,13.416c-1.209,1.042 -2.375,2.084 -3.5,3.125c-0.917,0.834 -1.834,1.667 -2.708,2.459c-42.917,39.541 -26.75,48.625 -103.834,128.875c-87.875,91.416 -148.375,93.083 -165.583,84.75c-14.583,-7.125 15,-55.625 47.792,-110.125c17.124,-6.25 96.583,-38.542 156.667,-115.417c52.916,-67.542 88.208,-154.292 124.207,-204.542c2.042,1.209 4.042,2.459 6.001,3.75c16.291,10.834 32.916,22 46.083,37.042Z" style="fill:#1c468a;fill-rule:nonzero;"/><path d="M9452.12,6776.96c-10.375,51.959 -84.5,43.292 -167.291,23.084c-82.792,-20.25 -63.084,3.791 -180.918,-9.25c-117.833,-13.042 -153.541,-56.959 -157.124,-74.5c-3.209,-15.542 54.999,-21 117.458,-28.209c7.834,-0.875 15.75,-1.833 23.625,-2.833c70.5,-8.833 122.125,-54.333 186.167,-91.708c60.667,-35.375 151.208,-179.584 151.208,-179.584l161.584,12.834c-0,-0 -84.792,128.791 -117.584,184.75c-19.292,32.958 -18.292,76.5 -15.875,110.125c1.25,18.291 2.458,36.958 -1.25,55.291Z" style="fill:#ffb27d;fill-rule:nonzero;"/><path d="M9284.83,6800.04c-82.792,-20.25 -63.084,3.791 -180.918,-9.25c-117.833,-13.042 -153.541,-56.959 -157.124,-74.5c-3.209,-15.542 54.999,-21 117.458,-28.209l0.584,1.209c-0,-0 70.666,50.083 168.75,52.458c79.916,1.917 164.583,-20.958 219.791,-20.083c1.25,18.291 2.458,36.958 -1.25,55.291c-10.375,51.959 -84.5,43.292 -167.291,23.084Z" style="fill:#1c468a;fill-rule:nonzero;"/><path d="M9811.67,4403.62c-0,-0 -38.5,-94.333 -80.834,-98.163c-42.375,-3.837 -177.083,-25.041 -186.708,-5.791c-9.625,19.25 0,88.579 28.833,113.579c28.875,25.042 207.917,65.458 207.917,65.458l30.792,-75.083Z" style="fill:#ffb27d;fill-rule:nonzero;"/><path d="M10071.4,5743.71l348.25,937.209c-0,-0 53.5,5.208 104.792,-9.584c47.208,-13.625 101.291,-49.333 101.291,-49.333c0,-0 -86.417,-899.875 -244.792,-1087.04c-158.375,-187.208 -309.541,208.75 -309.541,208.75Z" style="fill:#163560;fill-rule:nonzero;"/><path d="M11448.8,5364.58c-0,0 -1000.67,-338.375 -1223.83,-266.375c-223.167,72 -893.249,1405.12 -893.249,1405.12c-0,0 15.124,20.125 56.416,35.584c38.375,14.416 131.333,13.5 131.333,13.5c0,-0 604.709,-518.334 676.709,-669.5c72,-151.209 100.791,-295.167 172.75,-280.792c72,14.417 928.708,352.75 1123.08,151.208c194.375,-201.583 143.542,-463.5 143.542,-463.5l-186.75,74.75Z" style="fill:#1c468a;fill-rule:nonzero;"/><path d="M10837.3,3790.5c-15.999,-32.996 -33.874,-91.596 -42.583,-196.058c1.334,10.371 19.334,142.125 70,216.708c208.125,136.629 607,592.854 599.084,679.312c-0,0 140.5,-238.333 142.958,-239.75c0,0 259.167,-329.562 -48,-518.346c-156.125,-95.949 -155.333,-219.087 -148.834,-326.058c6.584,-106.983 -42.583,-567.462 -355.291,-446.958c0,0 -50.208,-22.3 -72.667,-18.959c0,0 18.334,3.513 27.709,13.15c-36.292,-2.145 -88.126,0.538 -131.375,25.126c-114.625,65.145 -217.251,649.645 -41.001,811.833Z" style="fill:#2c3a64;fill-rule:nonzero;"/><path d="M10877,3817.94c-1.042,0.47 100.458,53.187 176.833,32.296c71.833,-19.584 118.75,-112.721 117.791,-112.93c-30.458,-6.045 -39.208,-47.846 -38.583,-227.479l-13.75,2.709l-231.208,45.787c-0,0 5.25,72.771 5.416,141.321c0.167,57.558 -3.333,112.15 -16.499,118.296Z" style="fill:#ffb27d;fill-rule:nonzero;"/><path d="M10888.1,3558.33c-0,0 5.25,72.771 5.416,141.321c129.376,-3.646 197.792,-121.683 225.792,-187.108l-231.208,45.787Z" style="fill:#ed975d;fill-rule:nonzero;"/><path d="M11143.2,3487.37c-0,-0 67.791,-107.142 84.042,-198.755c11.625,-65.408 -21.667,-307.849 -265.292,-272.933c-0,-0 -70.75,6.975 -137.292,51.896c-52.875,35.725 -129.208,112.854 -43.875,324.413l22.167,71.47l340.25,23.909Z" style="fill:#2c3a64;fill-rule:nonzero;"/><path d="M10844.9,3623.24c-0,-0 306.125,5.049 306.333,-185.646c0.209,-190.696 39.875,-318.475 -155.583,-329.763c-195.458,-11.287 -233.501,61.438 -249.042,125.071c-15.584,63.633 18.666,384.108 98.292,390.338Z" style="fill:#ffb27d;fill-rule:nonzero;"/><path d="M10856.2,3103.16c0,-0 83.792,223.724 212.458,256.803c128.626,33.079 184.417,-1.387 184.417,-1.387c0,-0 -47.084,-115.087 -67.542,-251.913c0,0 -266.125,-109.987 -329.333,-3.503Z" style="fill:#2c3a64;fill-rule:nonzero;"/><path d="M10877,3121.32c-0,-0 -62.583,49.95 -77.833,98.508c-15.292,48.562 -22.125,148.529 -51.292,145.125c-0,0 -63.125,-152.062 7.834,-238.083c75.249,-91.217 121.291,-5.55 121.291,-5.55Z" style="fill:#2c3a64;fill-rule:nonzero;"/><path d="M11558.8,4641.54c30.167,-126.625 -72.542,-372.292 -179.75,-575.7c-97.291,-184.359 -198.291,-333.913 -207.334,-328.538c-256.624,152.292 -279.791,25.679 -279.791,25.679l0,0.021c-0.125,0.017 -233.083,30.938 -299.083,144.529c-81.834,140.954 -170.292,534.8 -258.125,609.384c13.458,41.25 7.666,63.25 -6.625,114.416c-3.042,10.959 -6.417,21.375 -10.167,31.25c-13.25,36 -29.792,65.209 -44.083,90.584c44.666,27.125 130.875,78.708 194.417,41.625c96.833,-56.709 172.416,-229.25 214.958,-297.959c0.166,-0.291 0.291,-0.541 0.458,-0.791c92.458,523.25 -33.25,642.416 30.375,697.625c67.208,58.25 163.208,-27.75 374.375,63.791c138.5,60.084 330.75,146.959 460.125,162.084c67.875,7.958 118.5,-3.875 135.042,-49.709c47.958,-133.166 -182.417,-486.916 -124.792,-728.291Z" style="fill:#a8d29f;fill-rule:nonzero;"/><path d="M10913,3507.64c-0,-0 -5.709,24.228 -65.959,20.491c0,0 -50.625,-3.129 -49.042,-29.754c0,-0 49.042,-18.942 115.001,9.263Z" style="fill:#fff;fill-rule:nonzero;"/><path d="M11683.5,5369.83c-16.542,45.834 -67.167,57.667 -135.042,49.709c-89.542,-39.042 -476.458,-188.917 -472.125,-290.5c6.417,-150.375 74.375,-155.167 26.416,-340.75c-38.541,-149.042 318.917,-426.121 375.959,-486.375c107.208,203.416 110.167,213 80,339.625c-57.625,241.375 172.75,595.125 124.792,728.291Z" style="fill:#82b378;fill-rule:nonzero;"/><path d="M11727.2,4827.5c-68.625,-96.333 -140.084,-147.292 -187.125,-172.917c10.833,-27.875 -288.583,-394.958 -288.583,-451.875c0,-57.57 -79.876,-465.425 -79.876,-465.425c0,0 249.459,15.405 335.876,135.871c108,150.662 332.375,730.471 219.708,954.346Z" style="fill:#a8d29f;fill-rule:nonzero;"/><path d="M11540.1,4654.58l-498.542,130.084l46.792,84c-0,-0 606.75,-4.25 638.875,-41.167c32.167,-36.917 -187.125,-172.917 -187.125,-172.917Z" style="fill:#ffb27d;fill-rule:nonzero;"/><path d="M10683.2,4496.83c-42.542,68.709 -118.125,241.25 -214.958,297.959c-63.542,37.083 -149.751,-14.5 -194.417,-41.625c14.291,-25.375 30.833,-54.584 44.083,-90.584c35.667,8.167 79.125,18.584 107.167,27.042c54.583,16.5 258.125,-192.792 258.125,-192.792Z" style="fill:#82b378;fill-rule:nonzero;"/><path d="M11041.6,4784.67c0,-0 -156.583,-44.292 -193.875,-33.917c-37.291,10.333 -165.041,94.958 -147.083,117.917c17.958,23 130.5,-13.75 182.333,-6.792c51.792,6.958 91.833,32.5 129.125,26.958c37.292,-5.5 76.292,-20.166 76.292,-20.166l-46.792,-84Z" style="fill:#ffb27d;fill-rule:nonzero;"/><path d="M11041.6,4784.67c0,-0 -76.624,-39.334 -98.416,-61.75c-2.709,-2.834 -7.375,-2.209 -9.5,1.083c-5.834,9.208 -11.292,27 15.583,44.667c38.667,25.458 92.333,16 92.333,16Z" style="fill:#ffb27d;fill-rule:nonzero;"/><path d="M10318,5004.96l730.458,0c-0,-32.166 -26.084,-58.25 -58.25,-58.25l-672.208,0l-0,58.25Z" style="fill:#ed7d2b;fill-rule:nonzero;"/><path d="M10320.1,4209.42l-1129.33,-0l270.875,795.541l1136.67,0l-278.209,-795.541Z" style="fill:#ed7d2b;fill-rule:nonzero;"/><path d="M9174.12,4209.42l270.959,795.5l1136.62,-0l-278.209,-795.5l-1129.38,-0Z" style="fill:#f99746;fill-rule:nonzero;"/><path d="M9783.04,4599.83c7.001,30.375 37.334,55.042 67.75,55.042c30.376,-0 49.334,-24.667 42.293,-55.042c-7.001,-30.416 -37.334,-55.041 -67.709,-55.041c-30.417,-0 -49.375,24.625 -42.334,55.041Z" style="fill:#f9ddbf;fill-rule:nonzero;"/><path d="M9174.12,4209.42l270.959,795.5l752.708,-0c-498.625,-170.167 -631.334,-689.121 -653.625,-795.5l-370.042,-0Z" style="fill:#ed893e;fill-rule:nonzero;"/><path d="M12452.8,7439.04c-14.292,-0 -26.5,-10.042 -28.917,-23.709l-141.833,-804l-204.042,-1156.25l-57.041,-323.333l145.291,-4.167l25.25,187.709l177,1319.04l104.959,781.834c1.625,12.125 -8.084,22.875 -20.667,22.875Z" style="fill:#95c0f4;fill-rule:nonzero;"/><path d="M12191.5,5315.29c-94.166,41.541 -113.5,139.791 -113.5,139.791l-57.041,-323.333l145.291,-4.167l25.25,187.709Z" style="fill:#78acea;fill-rule:nonzero;"/><path d="M8838.33,7439.04c14.251,-0 26.501,-10.042 28.917,-23.709l141.833,-804l204.042,-1156.25l57.042,-323.333l-145.334,-4.167l-25.208,187.709l-177,1319.04l-104.958,781.834c-1.625,12.125 8.083,22.875 20.666,22.875Z" style="fill:#95c0f4;fill-rule:nonzero;"/><path d="M9099.62,5315.29c94.167,41.541 113.5,139.791 113.5,139.791l57.042,-323.333l-145.334,-4.167l-25.208,187.709Z" style="fill:#78acea;fill-rule:nonzero;"/><path d="M12549.7,5258.67l-3721.29,-0c-48.75,-0 -88.625,-39.875 -88.625,-88.625l-0,-76.625c-0,-48.75 39.875,-88.625 88.625,-88.625l3721.29,-0c48.75,-0 88.625,39.875 88.625,88.625l0,76.625c0,48.75 -39.875,88.625 -88.625,88.625Z" style="fill:#78acea;fill-rule:nonzero;"/></g></svg>